<svg xmlns="http://www.w3.org/2000/svg" xmlns:xlink="http://www.w3.org/1999/xlink" viewBox="0 0 469.24 265.12">
  <defs>
    <linearGradient id="linear-gradient" x1="235.4" y1="0.13" x2="235.4" y2="30.12" gradientUnits="userSpaceOnUse">
      <stop offset="0" stop-color="#ffe452"/>
      <stop offset="0.38" stop-color="#ffd400"/>
      <stop offset="0.73" stop-color="#ffca00"/>
      <stop offset="1" stop-color="#ffbd02"/>
    </linearGradient>
    <linearGradient id="linear-gradient-2" x1="235.4" y1="40.12" x2="235.4" y2="70.12" gradientUnits="userSpaceOnUse">
      <stop offset="0" stop-color="#b3b2b3"/>
      <stop offset="0.38" stop-color="#afaeaf"/>
      <stop offset="0.76" stop-color="#a2a2a2"/>
      <stop offset="1" stop-color="#979797"/>
    </linearGradient>
    <linearGradient id="linear-gradient-3" x1="235.4" y1="80.12" x2="235.4" y2="110.12" gradientUnits="userSpaceOnUse">
      <stop offset="0" stop-color="#5ea0ef"/>
      <stop offset="0.18" stop-color="#559cec"/>
      <stop offset="0.47" stop-color="#3c91e5"/>
      <stop offset="0.84" stop-color="#1380da"/>
      <stop offset="1" stop-color="#0078d4"/>
    </linearGradient>
    <linearGradient id="linear-gradient-4" x1="166.86" y1="571" x2="166.86" y2="591.12" gradientTransform="matrix(1, 0, 0, -1, 0, 594.25)" gradientUnits="userSpaceOnUse">
      <stop offset="0" stop-color="#0078d4"/>
      <stop offset="0.82" stop-color="#5ea0ef"/>
    </linearGradient>
    <linearGradient id="linear-gradient-5" x1="81.33" y1="140.12" x2="81.33" y2="163.37" xlink:href="#linear-gradient"/>
    <linearGradient id="linear-gradient-6" x1="48.08" y1="215.13" x2="48.08" y2="238.37" xlink:href="#linear-gradient"/>
    <linearGradient id="linear-gradient-7" x1="113.08" y1="215.13" x2="113.08" y2="238.37" xlink:href="#linear-gradient"/>
    <linearGradient id="linear-gradient-8" x1="235.4" y1="140.12" x2="235.4" y2="163.37" xlink:href="#linear-gradient-2"/>
    <linearGradient id="linear-gradient-9" x1="208.08" y1="215.13" x2="208.08" y2="238.37" xlink:href="#linear-gradient-2"/>
    <linearGradient id="linear-gradient-10" x1="273.08" y1="215.13" x2="273.08" y2="238.37" xlink:href="#linear-gradient-2"/>
    <linearGradient id="linear-gradient-11" x1="391.33" y1="140.12" x2="391.33" y2="163.37" xlink:href="#linear-gradient-3"/>
    <linearGradient id="linear-gradient-12" x1="358.08" y1="215.13" x2="358.08" y2="238.37" xlink:href="#linear-gradient-3"/>
    <linearGradient id="linear-gradient-13" x1="423.08" y1="215.13" x2="423.08" y2="238.37" xlink:href="#linear-gradient-3"/>
  </defs>
  <g id="Shapes">
    <rect x="1.57" width="467.67" height="265.12" fill="#fff"/>
    <g>
      <rect x="1.57" y="130.12" width="467.67" height="115" fill="#fff"/>
      <rect x="1.57" y="130.12" width="467.67" height="115" fill="#50e6ff" opacity="0.05"/>
      <rect x="1.57" y="130.12" width="467.67" height="115" fill="none" stroke="#0078d4" stroke-miterlimit="10" stroke-width="0.25"/>
    </g>
    <g>
      <rect x="54.74" y="135.12" width="53.19" height="55" fill="#fff"/>
      <rect x="54.74" y="135.12" width="53.19" height="55" fill="#0072c6" opacity="0.25"/>
    </g>
    <g>
      <rect x="1.57" y="0.13" width="467.67" height="30" fill="#fff"/>
      <rect x="1.57" y="0.13" width="467.67" height="30" opacity="0.45" fill="url(#linear-gradient)"/>
      <rect x="1.57" y="0.13" width="467.67" height="30" fill="none" stroke="#dfa500" stroke-miterlimit="10" stroke-width="0.25"/>
    </g>
    <rect x="1.57" y="40.12" width="467.67" height="30" fill-opacity="0.5" fill="url(#linear-gradient-2)"/>
    <g>
      <rect x="1.57" y="80.12" width="467.67" height="30" fill="#fff"/>
      <rect x="1.57" y="80.12" width="467.67" height="30" opacity="0.5" fill="url(#linear-gradient-3)"/>
      <rect x="1.57" y="80.12" width="467.67" height="30" fill="none" stroke="#003067" stroke-miterlimit="10" stroke-width="0.35"/>
    </g>
    <g>
      <path d="M181.05,16.94a6.39,6.39,0,0,0-5.53-6.13,8.05,8.05,0,0,0-8.28-7.68,8.23,8.23,0,0,0-7.88,5.38,7.6,7.6,0,0,0-6.69,7.31,7.73,7.73,0,0,0,8,7.43H174.3a2,2,0,0,0,.35,0A6.47,6.47,0,0,0,181.05,16.94Z" fill="url(#linear-gradient-4)"/>
      <path d="M175.2,18.6a.66.66,0,0,0-.66-.65H159.18a.66.66,0,0,0-.66.65v7.88a.65.65,0,0,0,.66.64h15.36a.65.65,0,0,0,.66-.64Z" fill="#821010"/>
      <rect x="159.45" y="18.86" width="4.52" height="2" fill="#e62323"/>
      <rect x="164.65" y="18.86" width="4.52" height="2" fill="#ff7381"/>
      <rect x="169.86" y="18.86" width="4.52" height="2" fill="#e62323"/>
      <rect x="159.45" y="21.54" width="1.88" height="2" fill="#e62323"/>
      <rect x="172.51" y="21.54" width="1.88" height="2" fill="#ff7381"/>
      <rect x="162.01" y="21.54" width="4.52" height="2" fill="#ff7381"/>
      <rect x="167.22" y="21.54" width="4.52" height="2" fill="#e62323"/>
      <rect x="159.45" y="24.22" width="4.52" height="2" fill="#e62323"/>
      <rect x="164.65" y="24.22" width="4.52" height="2" fill="#ff7381"/>
      <rect x="169.86" y="24.22" width="4.52" height="2" fill="#e62323"/>
    </g>
    <g>
      <rect x="59.08" y="140.12" width="44.5" height="23.25" fill="#fff"/>
      <rect x="59.08" y="140.12" width="44.5" height="23.25" opacity="0.45" fill="url(#linear-gradient-5)"/>
      <rect x="59.08" y="140.12" width="44.5" height="23.25" fill="none" stroke="#dfa500" stroke-miterlimit="10" stroke-width="0.25"/>
    </g>
    <g>
      <rect x="25.83" y="215.13" width="44.5" height="23.25" fill="#fff"/>
      <rect x="25.83" y="215.13" width="44.5" height="23.25" opacity="0.45" fill="url(#linear-gradient-6)"/>
      <rect x="25.83" y="215.13" width="44.5" height="23.25" fill="none" stroke="#dfa500" stroke-miterlimit="10" stroke-width="0.25"/>
    </g>
    <g>
      <rect x="90.83" y="215.13" width="44.5" height="23.25" fill="#fff"/>
      <rect x="90.83" y="215.13" width="44.5" height="23.25" opacity="0.45" fill="url(#linear-gradient-7)"/>
      <rect x="90.83" y="215.13" width="44.5" height="23.25" fill="none" stroke="#dfa500" stroke-miterlimit="10" stroke-width="0.25"/>
    </g>
    <g>
      <rect x="208.81" y="135.12" width="53.19" height="55" fill="#fff"/>
      <rect x="208.81" y="135.12" width="53.19" height="55" fill="#0072c6" opacity="0.25"/>
    </g>
    <g>
      <rect x="213.15" y="140.12" width="44.5" height="23.25" fill="#fff"/>
      <rect x="213.15" y="140.12" width="44.5" height="23.25" opacity="0.5" fill="url(#linear-gradient-8)"/>
      <rect x="213.15" y="140.12" width="44.5" height="23.25" fill="none" stroke="#fff" stroke-miterlimit="10" stroke-width="0.5"/>
    </g>
    <rect x="185.83" y="215.13" width="44.5" height="23.25" fill-opacity="0.5" stroke="#fff" stroke-miterlimit="10" stroke-width="0.5" fill="url(#linear-gradient-9)"/>
    <rect x="250.83" y="215.13" width="44.5" height="23.25" fill-opacity="0.5" stroke="#fff" stroke-miterlimit="10" stroke-width="0.5" fill="url(#linear-gradient-10)"/>
    <g>
      <rect x="364.74" y="135.12" width="53.19" height="55" fill="#fff"/>
      <rect x="364.74" y="135.12" width="53.19" height="55" fill="#0072c6" opacity="0.25"/>
    </g>
    <g>
      <rect x="369.08" y="140.12" width="44.5" height="23.25" fill="#fff"/>
      <rect x="369.08" y="140.12" width="44.5" height="23.25" opacity="0.5" fill="url(#linear-gradient-11)"/>
      <rect x="369.08" y="140.12" width="44.5" height="23.25" fill="none" stroke="#003067" stroke-miterlimit="10" stroke-width="0.35"/>
    </g>
    <g>
      <rect x="335.83" y="215.13" width="44.5" height="23.25" fill="#fff"/>
      <rect x="335.83" y="215.13" width="44.5" height="23.25" opacity="0.5" fill="url(#linear-gradient-12)"/>
      <rect x="335.83" y="215.13" width="44.5" height="23.25" fill="none" stroke="#003067" stroke-miterlimit="10" stroke-width="0.35"/>
    </g>
    <g>
      <rect x="400.83" y="215.13" width="44.5" height="23.25" fill="#fff"/>
      <rect x="400.83" y="215.13" width="44.5" height="23.25" opacity="0.5" fill="url(#linear-gradient-13)"/>
      <rect x="400.83" y="215.13" width="44.5" height="23.25" fill="none" stroke="#003067" stroke-miterlimit="10" stroke-width="0.35"/>
    </g>
    <g>
      <line x1="80.13" y1="140.12" x2="80.13" y2="35.51" fill="none" stroke="#3c3c41" stroke-miterlimit="10"/>
      <polygon points="83.86 36.6 80.13 30.13 76.39 36.6 83.86 36.6" fill="#3c3c41"/>
    </g>
    <g>
      <line x1="235.4" y1="90.05" x2="235.4" y2="75.51" fill="none" stroke="#3c3c41" stroke-miterlimit="10"/>
      <polygon points="239.14 76.6 235.4 70.13 231.66 76.6 239.14 76.6" fill="#3c3c41"/>
    </g>
    <g>
      <line x1="390.13" y1="140.12" x2="390.13" y2="35.51" fill="none" stroke="#3c3c41" stroke-miterlimit="10"/>
      <polygon points="393.87 36.6 390.13 30.13 386.38 36.6 393.87 36.6" fill="#3c3c41"/>
    </g>
    <line x1="235.4" y1="103.43" x2="235.4" y2="140.12" fill="none" stroke="#3c3c41" stroke-miterlimit="10"/>
  </g>
  <g id="Text">
    <g>
      <path d="M40,232.12v-8.4h2.32q4.44,0,4.44,4.1a4.1,4.1,0,0,1-1.23,3.12,4.55,4.55,0,0,1-3.3,1.18Zm1-7.51v6.62h1.25a3.55,3.55,0,0,0,2.57-.88,3.3,3.3,0,0,0,.92-2.51q0-3.22-3.43-3.23Z" fill="#1e1e1e"/>
      <path d="M49.42,232.12h-1v-8.4h1Z" fill="#1e1e1e"/>
      <path d="M52.61,229v3.17h-1v-8.4h2.31a3,3,0,0,1,2.09.66,2.35,2.35,0,0,1,.74,1.85,2.55,2.55,0,0,1-.83,2,3.12,3.12,0,0,1-2.22.76Zm0-4.34v3.45h1a2.31,2.31,0,0,0,1.55-.47,1.64,1.64,0,0,0,.54-1.31c0-1.11-.66-1.67-2-1.67Z" fill="#1e1e1e"/>
    </g>
    <g>
      <path d="M105,232.12v-8.4h2.32q4.44,0,4.44,4.1a4.1,4.1,0,0,1-1.23,3.12,4.55,4.55,0,0,1-3.3,1.18Zm1-7.51v6.62h1.25a3.55,3.55,0,0,0,2.57-.88,3.3,3.3,0,0,0,.92-2.51q0-3.22-3.43-3.23Z" fill="#1e1e1e"/>
      <path d="M114.42,232.12h-1v-8.4h1Z" fill="#1e1e1e"/>
      <path d="M117.61,229v3.17h-1v-8.4h2.31a3,3,0,0,1,2.09.66,2.35,2.35,0,0,1,.74,1.85,2.55,2.55,0,0,1-.83,2,3.12,3.12,0,0,1-2.22.76Zm0-4.34v3.45h1a2.31,2.31,0,0,0,1.55-.47,1.64,1.64,0,0,0,.54-1.31c0-1.11-.66-1.67-2-1.67Z" fill="#1e1e1e"/>
    </g>
    <g>
      <path d="M200,232.12v-8.4h2.32q4.44,0,4.44,4.1a4.1,4.1,0,0,1-1.23,3.12,4.55,4.55,0,0,1-3.3,1.18Zm1-7.51v6.62h1.25a3.55,3.55,0,0,0,2.57-.88,3.3,3.3,0,0,0,.92-2.51q0-3.22-3.43-3.23Z" fill="#1e1e1e"/>
      <path d="M209.42,232.12h-1v-8.4h1Z" fill="#1e1e1e"/>
      <path d="M212.61,229v3.17h-1v-8.4h2.31a3,3,0,0,1,2.09.66,2.35,2.35,0,0,1,.74,1.85,2.55,2.55,0,0,1-.83,2,3.12,3.12,0,0,1-2.22.76Zm0-4.34v3.45h1a2.31,2.31,0,0,0,1.55-.47,1.64,1.64,0,0,0,.54-1.31c0-1.11-.66-1.67-2-1.67Z" fill="#1e1e1e"/>
    </g>
    <g>
      <path d="M265,232.12v-8.4h2.32q4.44,0,4.44,4.1a4.1,4.1,0,0,1-1.23,3.12,4.55,4.55,0,0,1-3.3,1.18Zm1-7.51v6.62h1.25a3.55,3.55,0,0,0,2.57-.88,3.3,3.3,0,0,0,.92-2.51q0-3.22-3.43-3.23Z" fill="#1e1e1e"/>
      <path d="M274.42,232.12h-1v-8.4h1Z" fill="#1e1e1e"/>
      <path d="M277.61,229v3.17h-1v-8.4h2.31a3,3,0,0,1,2.09.66,2.35,2.35,0,0,1,.74,1.85,2.55,2.55,0,0,1-.83,2,3.12,3.12,0,0,1-2.22.76Zm0-4.34v3.45h1a2.31,2.31,0,0,0,1.55-.47,1.64,1.64,0,0,0,.54-1.31c0-1.11-.66-1.67-2-1.67Z" fill="#1e1e1e"/>
    </g>
    <g>
      <path d="M350,232.12v-8.4h2.32q4.44,0,4.44,4.1a4.1,4.1,0,0,1-1.23,3.12,4.55,4.55,0,0,1-3.3,1.18Zm1-7.51v6.62h1.25a3.55,3.55,0,0,0,2.57-.88,3.3,3.3,0,0,0,.92-2.51q0-3.22-3.43-3.23Z" fill="#1e1e1e"/>
      <path d="M359.42,232.12h-1v-8.4h1Z" fill="#1e1e1e"/>
      <path d="M362.61,229v3.17h-1v-8.4h2.31a3,3,0,0,1,2.09.66,2.35,2.35,0,0,1,.74,1.85,2.55,2.55,0,0,1-.83,2,3.12,3.12,0,0,1-2.22.76Zm0-4.34v3.45h1a2.33,2.33,0,0,0,1.56-.47,1.64,1.64,0,0,0,.54-1.31c0-1.11-.66-1.67-2-1.67Z" fill="#1e1e1e"/>
    </g>
    <g>
      <path d="M415,232.12v-8.4h2.32q4.44,0,4.44,4.1a4.1,4.1,0,0,1-1.23,3.12,4.55,4.55,0,0,1-3.3,1.18Zm1-7.51v6.62h1.25a3.55,3.55,0,0,0,2.57-.88,3.3,3.3,0,0,0,.92-2.51q0-3.22-3.43-3.23Z" fill="#1e1e1e"/>
      <path d="M424.42,232.12h-1v-8.4h1Z" fill="#1e1e1e"/>
      <path d="M427.61,229v3.17h-1v-8.4h2.31a3,3,0,0,1,2.09.66,2.35,2.35,0,0,1,.74,1.85,2.55,2.55,0,0,1-.83,2,3.12,3.12,0,0,1-2.22.76Zm0-4.34v3.45h1a2.33,2.33,0,0,0,1.56-.47,1.64,1.64,0,0,0,.54-1.31c0-1.11-.66-1.67-2-1.67Z" fill="#1e1e1e"/>
    </g>
    <g>
      <path d="M78.65,182.12H77.56l-.89-2.35H73.11l-.84,2.35h-1.1l3.22-8.4h1Zm-2.3-3.24L75,175.3a2.44,2.44,0,0,1-.13-.56h0a3,3,0,0,1-.14.56l-1.31,3.58Z" fill="#1e1e1e"/>
      <path d="M85.37,181.77a4.92,4.92,0,0,1-2.32.5,3.74,3.74,0,0,1-2.87-1.16,4.26,4.26,0,0,1-1.08-3,4.47,4.47,0,0,1,1.21-3.26,4.16,4.16,0,0,1,3.08-1.24,4.91,4.91,0,0,1,2,.35v1a4,4,0,0,0-2-.51,3,3,0,0,0-2.35,1,3.64,3.64,0,0,0-.9,2.58,3.47,3.47,0,0,0,.84,2.45,2.86,2.86,0,0,0,2.21.91,4.2,4.2,0,0,0,2.19-.56Z" fill="#1e1e1e"/>
      <path d="M91.44,182.12H87.08v-8.4h1v7.51h3.38Z" fill="#1e1e1e"/>
    </g>
    <g>
      <path d="M80,148.35l-3.11,8.4H75.8l-3-8.4h1.09L76.18,155a4.4,4.4,0,0,1,.17.75h0a3.43,3.43,0,0,1,.2-.76l2.37-6.65Z" fill="#1e1e1e"/>
      <path d="M82.19,156.75h-1v-8.4h1Z" fill="#1e1e1e"/>
      <path d="M85.38,153.58v3.17h-1v-8.4h2.31a3,3,0,0,1,2.09.66,2.34,2.34,0,0,1,.74,1.85,2.53,2.53,0,0,1-.83,1.95,3.12,3.12,0,0,1-2.22.77Zm0-4.34v3.45h1a2.31,2.31,0,0,0,1.55-.47,1.65,1.65,0,0,0,.54-1.32c0-1.11-.66-1.66-2-1.66Z" fill="#1e1e1e"/>
    </g>
    <g>
      <path d="M232.72,182.12h-1.09l-.89-2.35h-3.57l-.83,2.35h-1.1l3.22-8.4h1Zm-2.3-3.24-1.32-3.58a2.44,2.44,0,0,1-.13-.56h0a2.45,2.45,0,0,1-.13.56l-1.31,3.58Z" fill="#1e1e1e"/>
      <path d="M239.44,181.77a4.92,4.92,0,0,1-2.32.5,3.74,3.74,0,0,1-2.87-1.16,4.26,4.26,0,0,1-1.08-3,4.47,4.47,0,0,1,1.21-3.26,4.16,4.16,0,0,1,3.08-1.24,4.94,4.94,0,0,1,2,.35v1a4,4,0,0,0-2-.51,3,3,0,0,0-2.35,1,3.64,3.64,0,0,0-.9,2.58,3.47,3.47,0,0,0,.84,2.45,2.86,2.86,0,0,0,2.21.91,4.2,4.2,0,0,0,2.19-.56Z" fill="#1e1e1e"/>
      <path d="M245.51,182.12h-4.36v-8.4h1v7.51h3.38Z" fill="#1e1e1e"/>
    </g>
    <g>
      <path d="M234.07,148.35l-3.11,8.4h-1.09l-3-8.4h1.09l2.33,6.66a4.4,4.4,0,0,1,.17.75h0a4,4,0,0,1,.19-.76l2.38-6.65Z" fill="#1e1e1e"/>
      <path d="M236.26,156.75h-1v-8.4h1Z" fill="#1e1e1e"/>
      <path d="M239.45,153.58v3.17h-1v-8.4h2.31a3,3,0,0,1,2.09.66,2.34,2.34,0,0,1,.74,1.85,2.53,2.53,0,0,1-.83,1.95,3.12,3.12,0,0,1-2.22.77Zm0-4.34v3.45h1a2.33,2.33,0,0,0,1.56-.47,1.65,1.65,0,0,0,.54-1.32c0-1.11-.66-1.66-2-1.66Z" fill="#1e1e1e"/>
    </g>
    <g>
      <path d="M388.65,182.12h-1.09l-.89-2.35h-3.56l-.84,2.35h-1.1l3.22-8.4h1Zm-2.3-3.24L385,175.3a2.44,2.44,0,0,1-.13-.56h0a3,3,0,0,1-.14.56l-1.31,3.58Z" fill="#1e1e1e"/>
      <path d="M395.37,181.77a4.92,4.92,0,0,1-2.32.5,3.74,3.74,0,0,1-2.87-1.16,4.26,4.26,0,0,1-1.08-3,4.47,4.47,0,0,1,1.21-3.26,4.16,4.16,0,0,1,3.08-1.24,4.91,4.91,0,0,1,2,.35v1a4,4,0,0,0-2-.51,3,3,0,0,0-2.35,1,3.64,3.64,0,0,0-.9,2.58,3.47,3.47,0,0,0,.84,2.45,2.86,2.86,0,0,0,2.21.91,4.2,4.2,0,0,0,2.19-.56Z" fill="#1e1e1e"/>
      <path d="M401.44,182.12h-4.36v-8.4h1v7.51h3.38Z" fill="#1e1e1e"/>
    </g>
    <g>
      <path d="M390,148.35l-3.11,8.4H385.8l-3-8.4h1.09l2.33,6.66a4.4,4.4,0,0,1,.17.75h0a3.43,3.43,0,0,1,.2-.76l2.37-6.65Z" fill="#1e1e1e"/>
      <path d="M392.19,156.75h-1v-8.4h1Z" fill="#1e1e1e"/>
      <path d="M395.38,153.58v3.17h-1v-8.4h2.31a3,3,0,0,1,2.09.66,2.34,2.34,0,0,1,.74,1.85,2.53,2.53,0,0,1-.83,1.95,3.12,3.12,0,0,1-2.22.77Zm0-4.34v3.45h1a2.31,2.31,0,0,0,1.55-.47,1.65,1.65,0,0,0,.54-1.32c0-1.11-.66-1.66-2-1.66Z" fill="#1e1e1e"/>
    </g>
    <g>
      <path d="M25.34,209.12h-1v-8.4h1Z" fill="#1e1e1e"/>
      <path d="M32.4,209.12h-1V205.7c0-1.27-.47-1.91-1.4-1.91a1.5,1.5,0,0,0-1.19.54,2.05,2.05,0,0,0-.47,1.37v3.42h-1v-6h1v1h0a2.16,2.16,0,0,1,2-1.14,1.86,1.86,0,0,1,1.51.64,2.88,2.88,0,0,1,.52,1.84Z" fill="#1e1e1e"/>
      <path d="M37.17,201.09a1.22,1.22,0,0,0-.64-.16c-.67,0-1,.42-1,1.27v.92h1.4V204h-1.4v5.17h-1V204h-1v-.83h1v-1a2,2,0,0,1,.55-1.49,2,2,0,0,1,2.05-.44Z" fill="#1e1e1e"/>
      <path d="M41.09,204.1a1.16,1.16,0,0,0-.72-.2,1.24,1.24,0,0,0-1,.58,2.68,2.68,0,0,0-.42,1.59v3.05H38v-6h1v1.24h0a2,2,0,0,1,.63-1,1.44,1.44,0,0,1,.94-.35,1.65,1.65,0,0,1,.57.08Z" fill="#1e1e1e"/>
      <path d="M46.43,209.12h-1v-.93h0a2,2,0,0,1-1.85,1.08,2,2,0,0,1-1.4-.48,1.65,1.65,0,0,1-.51-1.26c0-1.12.66-1.77,2-2l1.8-.25c0-1-.41-1.53-1.24-1.53a3,3,0,0,0-1.95.74v-1a3.68,3.68,0,0,1,2-.57c1.41,0,2.11.75,2.11,2.24Zm-1-3-1.45.2a2.35,2.35,0,0,0-1,.33,1,1,0,0,0-.34.84.93.93,0,0,0,.32.72,1.24,1.24,0,0,0,.83.28A1.55,1.55,0,0,0,45,208a1.81,1.81,0,0,0,.47-1.27Z" fill="#1e1e1e"/>
      <path d="M47.88,208.91v-1a2.88,2.88,0,0,0,1.73.58c.84,0,1.26-.28,1.26-.85a.65.65,0,0,0-.11-.4,1,1,0,0,0-.29-.3,2.18,2.18,0,0,0-.43-.23l-.54-.22c-.26-.1-.5-.21-.7-.31a2,2,0,0,1-.5-.37,1.29,1.29,0,0,1-.31-.46,1.57,1.57,0,0,1-.1-.6,1.44,1.44,0,0,1,.19-.75,1.58,1.58,0,0,1,.52-.54,2.21,2.21,0,0,1,.73-.33,3.08,3.08,0,0,1,.86-.12,3.41,3.41,0,0,1,1.39.27v1a2.71,2.71,0,0,0-1.52-.44,1.88,1.88,0,0,0-.49.06,1.28,1.28,0,0,0-.37.18.85.85,0,0,0-.24.26.7.7,0,0,0-.09.35A.8.8,0,0,0,49,205a.94.94,0,0,0,.25.28,1.67,1.67,0,0,0,.4.22l.53.22c.27.1.5.21.71.31a2,2,0,0,1,.54.37,1.41,1.41,0,0,1,.35.46,1.54,1.54,0,0,1,.12.63,1.47,1.47,0,0,1-.2.77,1.82,1.82,0,0,1-.52.55,2.49,2.49,0,0,1-.76.32,3.76,3.76,0,0,1-.9.11A3.37,3.37,0,0,1,47.88,208.91Z" fill="#1e1e1e"/>
      <path d="M56.12,209.07a2,2,0,0,1-.9.18c-1,0-1.58-.58-1.58-1.75V204h-1v-.83h1v-1.46l1-.31v1.77h1.52V204H54.6v3.38a1.37,1.37,0,0,0,.21.86.83.83,0,0,0,.68.26,1.05,1.05,0,0,0,.63-.2Z" fill="#1e1e1e"/>
      <path d="M60.53,204.1a1.18,1.18,0,0,0-.73-.2,1.25,1.25,0,0,0-1,.58,2.75,2.75,0,0,0-.41,1.59v3.05h-1v-6h1v1.24h0a2.17,2.17,0,0,1,.63-1A1.46,1.46,0,0,1,60,203a1.71,1.71,0,0,1,.58.08Z" fill="#1e1e1e"/>
      <path d="M66.42,209.12h-1v-.94h0a2,2,0,0,1-1.85,1.09c-1.43,0-2.15-.86-2.15-2.56v-3.59h1v3.44c0,1.26.48,1.9,1.45,1.9a1.49,1.49,0,0,0,1.16-.52,2,2,0,0,0,.45-1.36v-3.46h1Z" fill="#1e1e1e"/>
      <path d="M72.45,208.85a3.1,3.1,0,0,1-1.64.42,2.72,2.72,0,0,1-2.07-.84,3,3,0,0,1-.79-2.16,3.37,3.37,0,0,1,.85-2.39,3,3,0,0,1,2.27-.9,3.06,3.06,0,0,1,1.39.3v1a2.45,2.45,0,0,0-1.43-.47,1.91,1.91,0,0,0-1.5.66,2.47,2.47,0,0,0-.59,1.73,2.39,2.39,0,0,0,.55,1.67,1.93,1.93,0,0,0,1.49.61,2.44,2.44,0,0,0,1.47-.52Z" fill="#1e1e1e"/>
      <path d="M76.69,209.07a2,2,0,0,1-.9.18c-1.05,0-1.57-.58-1.57-1.75V204h-1v-.83h1v-1.46l1-.31v1.77h1.51V204H75.18v3.38a1.45,1.45,0,0,0,.2.86.84.84,0,0,0,.68.26,1.05,1.05,0,0,0,.63-.2Z" fill="#1e1e1e"/>
      <path d="M82.82,209.12h-1v-.94h0A2,2,0,0,1,80,209.27c-1.43,0-2.15-.86-2.15-2.56v-3.59h1v3.44c0,1.26.48,1.9,1.45,1.9a1.49,1.49,0,0,0,1.16-.52,2,2,0,0,0,.45-1.36v-3.46h1Z" fill="#1e1e1e"/>
      <path d="M87.89,204.1a1.16,1.16,0,0,0-.72-.2,1.23,1.23,0,0,0-1,.58,2.68,2.68,0,0,0-.42,1.59v3.05h-1v-6h1v1.24h0a2.08,2.08,0,0,1,.62-1,1.49,1.49,0,0,1,.95-.35,1.65,1.65,0,0,1,.57.08Z" fill="#1e1e1e"/>
      <path d="M93.76,206.37H89.52a2.27,2.27,0,0,0,.54,1.54,1.84,1.84,0,0,0,1.42.55,3,3,0,0,0,1.86-.67v.9a3.5,3.5,0,0,1-2.09.58,2.56,2.56,0,0,1-2-.82,3.37,3.37,0,0,1-.73-2.3,3.25,3.25,0,0,1,.8-2.28,2.54,2.54,0,0,1,2-.89,2.24,2.24,0,0,1,1.82.77,3.15,3.15,0,0,1,.65,2.11Zm-1-.82a1.93,1.93,0,0,0-.4-1.29,1.36,1.36,0,0,0-1.1-.47,1.56,1.56,0,0,0-1.15.49,2.22,2.22,0,0,0-.59,1.27Z" fill="#1e1e1e"/>
      <path d="M103.08,209.12H98.63v-8.4h4.26v.89H99.61v2.8h3v.88h-3v2.94h3.47Z" fill="#1e1e1e"/>
      <path d="M109,203.12l-2,3,2,3H107.8l-1.18-1.94c-.08-.12-.16-.27-.27-.46h0l-.27.46-1.21,1.94h-1.1l2-2.94-2-3.06H105l1.16,2.06.26.46h0l1.5-2.52Z" fill="#1e1e1e"/>
      <path d="M112.86,209.07a2,2,0,0,1-.9.18c-1,0-1.57-.58-1.57-1.75V204h-1v-.83h1v-1.46l1-.31v1.77h1.51V204h-1.51v3.38a1.45,1.45,0,0,0,.2.86.84.84,0,0,0,.68.26,1.05,1.05,0,0,0,.63-.2Z" fill="#1e1e1e"/>
      <path d="M119,206.37h-4.23a2.18,2.18,0,0,0,.54,1.54,1.82,1.82,0,0,0,1.41.55,3,3,0,0,0,1.87-.67v.9a3.52,3.52,0,0,1-2.09.58,2.55,2.55,0,0,1-2-.82,3.33,3.33,0,0,1-.73-2.3,3.25,3.25,0,0,1,.8-2.28,2.52,2.52,0,0,1,2-.89,2.26,2.26,0,0,1,1.82.77,3.15,3.15,0,0,1,.64,2.11Zm-1-.82a1.93,1.93,0,0,0-.4-1.29,1.38,1.38,0,0,0-1.1-.47,1.56,1.56,0,0,0-1.15.49,2.16,2.16,0,0,0-.59,1.27Z" fill="#1e1e1e"/>
      <path d="M123.55,204.1a1.18,1.18,0,0,0-.73-.2,1.25,1.25,0,0,0-1,.58,2.75,2.75,0,0,0-.41,1.59v3.05h-1v-6h1v1.24h0a2.17,2.17,0,0,1,.63-1A1.44,1.44,0,0,1,123,203a1.75,1.75,0,0,1,.58.08Z" fill="#1e1e1e"/>
      <path d="M129.57,209.12h-1V205.7c0-1.27-.47-1.91-1.4-1.91a1.52,1.52,0,0,0-1.19.54,2.05,2.05,0,0,0-.47,1.37v3.42h-1v-6h1v1h0a2.17,2.17,0,0,1,2-1.14,1.86,1.86,0,0,1,1.51.64,2.82,2.82,0,0,1,.52,1.84Z" fill="#1e1e1e"/>
      <path d="M135.67,209.12h-1v-.93h0a2,2,0,0,1-1.85,1.08,2,2,0,0,1-1.4-.48,1.65,1.65,0,0,1-.51-1.26c0-1.12.66-1.77,2-2l1.79-.25q0-1.53-1.23-1.53a3,3,0,0,0-2,.74v-1a3.68,3.68,0,0,1,2-.57c1.41,0,2.11.75,2.11,2.24Zm-1-3-1.44.2a2.3,2.3,0,0,0-1,.33,1,1,0,0,0-.34.84.92.92,0,0,0,.31.72,1.25,1.25,0,0,0,.84.28,1.56,1.56,0,0,0,1.18-.5,1.8,1.8,0,0,0,.46-1.27Z" fill="#1e1e1e"/>
      <path d="M138.45,209.12h-1v-8.88h1Z" fill="#1e1e1e"/>
    </g>
    <g>
      <path d="M180.2,209.12h-1v-8.4h1Z" fill="#1e1e1e"/>
      <path d="M187.26,209.12h-1V205.7c0-1.27-.46-1.91-1.39-1.91a1.5,1.5,0,0,0-1.19.54,2,2,0,0,0-.48,1.37v3.42h-1v-6h1v1h0a2.16,2.16,0,0,1,2-1.14,1.85,1.85,0,0,1,1.5.64,2.82,2.82,0,0,1,.52,1.84Z" fill="#1e1e1e"/>
      <path d="M192,201.09a1.24,1.24,0,0,0-.64-.16c-.67,0-1,.42-1,1.27v.92h1.41V204h-1.41v5.17h-.95V204h-1v-.83h1v-1a2,2,0,0,1,.54-1.49,1.88,1.88,0,0,1,1.36-.55,1.9,1.9,0,0,1,.7.11Z" fill="#1e1e1e"/>
      <path d="M196,204.1a1.18,1.18,0,0,0-.73-.2,1.25,1.25,0,0,0-1,.58,2.75,2.75,0,0,0-.41,1.59v3.05h-1v-6h1v1.24h0a2.17,2.17,0,0,1,.63-1,1.46,1.46,0,0,1,.94-.35,1.71,1.71,0,0,1,.58.08Z" fill="#1e1e1e"/>
      <path d="M201.3,209.12h-1v-.93h0a2,2,0,0,1-1.84,1.08,2,2,0,0,1-1.41-.48,1.68,1.68,0,0,1-.5-1.26c0-1.12.66-1.77,2-2l1.8-.25c0-1-.42-1.53-1.24-1.53a3,3,0,0,0-2,.74v-1a3.68,3.68,0,0,1,2-.57c1.41,0,2.12.75,2.12,2.24Zm-1-3-1.45.2a2.3,2.3,0,0,0-1,.33,1,1,0,0,0-.34.84,1,1,0,0,0,.31.72,1.25,1.25,0,0,0,.84.28,1.55,1.55,0,0,0,1.18-.5,1.81,1.81,0,0,0,.47-1.27Z" fill="#1e1e1e"/>
      <path d="M202.74,208.91v-1a2.9,2.9,0,0,0,1.73.58c.85,0,1.27-.28,1.27-.85a.72.72,0,0,0-.11-.4,1,1,0,0,0-.29-.3,2.27,2.27,0,0,0-.44-.23l-.53-.22a6.87,6.87,0,0,1-.7-.31,2.23,2.23,0,0,1-.51-.37,1.41,1.41,0,0,1-.3-.46,1.57,1.57,0,0,1-.1-.6A1.44,1.44,0,0,1,203,204a1.65,1.65,0,0,1,.51-.54,2.26,2.26,0,0,1,.74-.33,3.06,3.06,0,0,1,.85-.12,3.46,3.46,0,0,1,1.4.27v1a2.72,2.72,0,0,0-1.53-.44,1.75,1.75,0,0,0-.48.06,1.16,1.16,0,0,0-.37.18.66.66,0,0,0-.24.26.7.7,0,0,0-.09.35.8.8,0,0,0,.09.39.78.78,0,0,0,.24.28,1.89,1.89,0,0,0,.4.22l.54.22c.26.1.5.21.71.31a2.44,2.44,0,0,1,.54.37,1.38,1.38,0,0,1,.34.46,1.54,1.54,0,0,1,.12.63,1.47,1.47,0,0,1-.19.77,1.74,1.74,0,0,1-.53.55,2.54,2.54,0,0,1-.75.32,3.82,3.82,0,0,1-.9.11A3.41,3.41,0,0,1,202.74,208.91Z" fill="#1e1e1e"/>
      <path d="M211,209.07a1.87,1.87,0,0,1-.89.18c-1.05,0-1.58-.58-1.58-1.75V204h-1v-.83h1v-1.46l1-.31v1.77H211V204h-1.51v3.38a1.37,1.37,0,0,0,.21.86.81.81,0,0,0,.68.26,1,1,0,0,0,.62-.2Z" fill="#1e1e1e"/>
      <path d="M215.39,204.1a1.14,1.14,0,0,0-.72-.2,1.25,1.25,0,0,0-1,.58,2.68,2.68,0,0,0-.41,1.59v3.05h-1v-6h1v1.24h0a2.17,2.17,0,0,1,.63-1,1.44,1.44,0,0,1,.94-.35,1.65,1.65,0,0,1,.57.08Z" fill="#1e1e1e"/>
      <path d="M221.29,209.12h-1v-.94h0a2,2,0,0,1-1.85,1.09c-1.43,0-2.14-.86-2.14-2.56v-3.59h.95v3.44c0,1.26.49,1.9,1.46,1.9a1.47,1.47,0,0,0,1.15-.52,2,2,0,0,0,.46-1.36v-3.46h1Z" fill="#1e1e1e"/>
      <path d="M227.32,208.85a3.1,3.1,0,0,1-1.64.42,2.69,2.69,0,0,1-2.07-.84,3,3,0,0,1-.79-2.16,3.33,3.33,0,0,1,.85-2.39,3,3,0,0,1,2.27-.9,3.09,3.09,0,0,1,1.39.3v1a2.47,2.47,0,0,0-1.43-.47,1.93,1.93,0,0,0-1.51.66,2.52,2.52,0,0,0-.59,1.73,2.39,2.39,0,0,0,.56,1.67,1.92,1.92,0,0,0,1.48.61,2.45,2.45,0,0,0,1.48-.52Z" fill="#1e1e1e"/>
      <path d="M231.55,209.07a1.87,1.87,0,0,1-.89.18c-1,0-1.58-.58-1.58-1.75V204h-1v-.83h1v-1.46l1-.31v1.77h1.51V204H230v3.38a1.37,1.37,0,0,0,.21.86.81.81,0,0,0,.68.26,1,1,0,0,0,.62-.2Z" fill="#1e1e1e"/>
      <path d="M237.69,209.12h-1v-.94h0a2,2,0,0,1-1.86,1.09c-1.43,0-2.14-.86-2.14-2.56v-3.59h.95v3.44c0,1.26.49,1.9,1.46,1.9a1.47,1.47,0,0,0,1.15-.52,2,2,0,0,0,.46-1.36v-3.46h1Z" fill="#1e1e1e"/>
      <path d="M242.76,204.1a1.18,1.18,0,0,0-.73-.2,1.25,1.25,0,0,0-1,.58,2.75,2.75,0,0,0-.41,1.59v3.05h-1v-6h1v1.24h0a2.17,2.17,0,0,1,.63-1,1.46,1.46,0,0,1,.94-.35,1.71,1.71,0,0,1,.58.08Z" fill="#1e1e1e"/>
      <path d="M248.62,206.37h-4.23a2.18,2.18,0,0,0,.54,1.54,1.82,1.82,0,0,0,1.41.55,3,3,0,0,0,1.87-.67v.9a3.52,3.52,0,0,1-2.09.58,2.55,2.55,0,0,1-2-.82,3.33,3.33,0,0,1-.73-2.3,3.29,3.29,0,0,1,.79-2.28,2.56,2.56,0,0,1,2-.89,2.26,2.26,0,0,1,1.82.77,3.15,3.15,0,0,1,.64,2.11Zm-1-.82a2,2,0,0,0-.4-1.29,1.38,1.38,0,0,0-1.1-.47,1.6,1.6,0,0,0-1.16.49,2.21,2.21,0,0,0-.58,1.27Z" fill="#1e1e1e"/>
      <path d="M254.48,209.12h-1v-8.4h1Z" fill="#1e1e1e"/>
      <path d="M261.54,209.12h-1V205.7c0-1.27-.47-1.91-1.4-1.91a1.5,1.5,0,0,0-1.19.54,2,2,0,0,0-.47,1.37v3.42h-1v-6h1v1h0a2.16,2.16,0,0,1,2-1.14,1.86,1.86,0,0,1,1.51.64,2.88,2.88,0,0,1,.52,1.84Z" fill="#1e1e1e"/>
      <path d="M266.13,209.07a1.92,1.92,0,0,1-.9.18c-1.05,0-1.57-.58-1.57-1.75V204h-1v-.83h1v-1.46l1-.31v1.77h1.51V204h-1.51v3.38a1.45,1.45,0,0,0,.2.86.84.84,0,0,0,.68.26,1,1,0,0,0,.63-.2Z" fill="#1e1e1e"/>
      <path d="M272.24,206.37H268a2.27,2.27,0,0,0,.54,1.54,1.84,1.84,0,0,0,1.42.55,3,3,0,0,0,1.86-.67v.9a3.5,3.5,0,0,1-2.09.58,2.55,2.55,0,0,1-2-.82,3.37,3.37,0,0,1-.73-2.3,3.25,3.25,0,0,1,.8-2.28,2.54,2.54,0,0,1,2-.89,2.26,2.26,0,0,1,1.82.77,3.15,3.15,0,0,1,.65,2.11Zm-1-.82a1.93,1.93,0,0,0-.4-1.29,1.36,1.36,0,0,0-1.1-.47,1.56,1.56,0,0,0-1.15.49,2.22,2.22,0,0,0-.59,1.27Z" fill="#1e1e1e"/>
      <path d="M276.82,204.1a1.18,1.18,0,0,0-.73-.2,1.25,1.25,0,0,0-1,.58,2.75,2.75,0,0,0-.41,1.59v3.05h-1v-6h1v1.24h0a2.17,2.17,0,0,1,.63-1,1.46,1.46,0,0,1,.94-.35,1.71,1.71,0,0,1,.58.08Z" fill="#1e1e1e"/>
      <path d="M282.84,209.12h-1V205.7c0-1.27-.46-1.91-1.39-1.91a1.54,1.54,0,0,0-1.2.54,2.05,2.05,0,0,0-.47,1.37v3.42h-1v-6h1v1h0a2.16,2.16,0,0,1,2-1.14,1.86,1.86,0,0,1,1.51.64,2.82,2.82,0,0,1,.52,1.84Z" fill="#1e1e1e"/>
      <path d="M289,209.12h-1v-.93h0a2,2,0,0,1-1.84,1.08,2,2,0,0,1-1.41-.48,1.68,1.68,0,0,1-.5-1.26c0-1.12.66-1.77,2-2l1.8-.25c0-1-.42-1.53-1.24-1.53a3,3,0,0,0-2,.74v-1a3.68,3.68,0,0,1,2-.57c1.41,0,2.12.75,2.12,2.24Zm-1-3-1.45.2a2.3,2.3,0,0,0-1,.33,1,1,0,0,0-.34.84,1,1,0,0,0,.31.72,1.25,1.25,0,0,0,.84.28,1.55,1.55,0,0,0,1.18-.5,1.81,1.81,0,0,0,.47-1.27Z" fill="#1e1e1e"/>
      <path d="M291.72,209.12h-1v-8.88h1Z" fill="#1e1e1e"/>
    </g>
    <g>
      <path d="M357.24,201.61h-2.42v7.51h-1v-7.51h-2.42v-.89h5.83Z" fill="#1e1e1e"/>
      <path d="M362.08,206.37h-4.23a2.22,2.22,0,0,0,.53,1.54,1.85,1.85,0,0,0,1.42.55,3,3,0,0,0,1.87-.67v.9a3.53,3.53,0,0,1-2.1.58,2.54,2.54,0,0,1-2-.82,3.33,3.33,0,0,1-.73-2.3,3.25,3.25,0,0,1,.79-2.28,2.56,2.56,0,0,1,2-.89,2.26,2.26,0,0,1,1.82.77,3.15,3.15,0,0,1,.64,2.11Zm-1-.82a2,2,0,0,0-.4-1.29,1.38,1.38,0,0,0-1.1-.47,1.58,1.58,0,0,0-1.16.49,2.21,2.21,0,0,0-.58,1.27Z" fill="#1e1e1e"/>
      <path d="M368.52,209.12h-1V205.7c0-1.27-.46-1.91-1.39-1.91a1.5,1.5,0,0,0-1.19.54,2,2,0,0,0-.47,1.37v3.42h-1v-6h1v1h0a2.16,2.16,0,0,1,2-1.14,1.84,1.84,0,0,1,1.5.64,2.82,2.82,0,0,1,.53,1.84Z" fill="#1e1e1e"/>
      <path d="M374.62,209.12h-1v-.93h0a2,2,0,0,1-1.85,1.08,2,2,0,0,1-1.4-.48,1.65,1.65,0,0,1-.51-1.26c0-1.12.66-1.77,2-2l1.8-.25c0-1-.41-1.53-1.24-1.53a3,3,0,0,0-1.95.74v-1a3.68,3.68,0,0,1,2-.57c1.41,0,2.11.75,2.11,2.24Zm-1-3-1.45.2a2.25,2.25,0,0,0-1,.33,1,1,0,0,0-.34.84.92.92,0,0,0,.31.72,1.24,1.24,0,0,0,.83.28,1.55,1.55,0,0,0,1.18-.5,1.81,1.81,0,0,0,.47-1.27Z" fill="#1e1e1e"/>
      <path d="M381.41,209.12h-1V205.7c0-1.27-.46-1.91-1.39-1.91a1.54,1.54,0,0,0-1.2.54,2.05,2.05,0,0,0-.47,1.37v3.42h-1v-6h1v1h0a2.16,2.16,0,0,1,2-1.14,1.86,1.86,0,0,1,1.51.64,2.82,2.82,0,0,1,.52,1.84Z" fill="#1e1e1e"/>
      <path d="M386,209.07a2,2,0,0,1-.9.18c-1.05,0-1.58-.58-1.58-1.75V204h-1v-.83h1v-1.46l1-.31v1.77H386V204h-1.52v3.38a1.37,1.37,0,0,0,.21.86.83.83,0,0,0,.68.26,1.05,1.05,0,0,0,.63-.2Z" fill="#1e1e1e"/>
      <path d="M395.16,209.12h-4.45v-8.4H395v.89h-3.28v2.8h3v.88h-3v2.94h3.47Z" fill="#1e1e1e"/>
      <path d="M401,203.12l-2,3,2,3h-1.11l-1.18-1.94c-.08-.12-.16-.27-.27-.46h0l-.28.46-1.2,1.94h-1.1l2-2.94-2-3.06H397l1.16,2.06.26.46h0l1.5-2.52Z" fill="#1e1e1e"/>
      <path d="M404.94,209.07a2,2,0,0,1-.9.18c-1.05,0-1.58-.58-1.58-1.75V204h-1v-.83h1v-1.46l1-.31v1.77h1.51V204h-1.51v3.38a1.38,1.38,0,0,0,.2.86.83.83,0,0,0,.68.26,1.05,1.05,0,0,0,.63-.2Z" fill="#1e1e1e"/>
      <path d="M411,206.37h-4.23a2.18,2.18,0,0,0,.54,1.54,1.82,1.82,0,0,0,1.41.55,3,3,0,0,0,1.87-.67v.9a3.52,3.52,0,0,1-2.09.58,2.55,2.55,0,0,1-2-.82,3.33,3.33,0,0,1-.73-2.3,3.29,3.29,0,0,1,.79-2.28,2.56,2.56,0,0,1,2-.89,2.26,2.26,0,0,1,1.82.77,3.15,3.15,0,0,1,.64,2.11Zm-1-.82a2,2,0,0,0-.4-1.29,1.38,1.38,0,0,0-1.1-.47,1.6,1.6,0,0,0-1.16.49,2.21,2.21,0,0,0-.58,1.27Z" fill="#1e1e1e"/>
      <path d="M415.63,204.1a1.2,1.2,0,0,0-.73-.2,1.25,1.25,0,0,0-1,.58,2.68,2.68,0,0,0-.41,1.59v3.05h-1v-6h1v1.24h0a2.17,2.17,0,0,1,.63-1,1.44,1.44,0,0,1,.94-.35,1.75,1.75,0,0,1,.58.08Z" fill="#1e1e1e"/>
      <path d="M421.65,209.12h-1V205.7c0-1.27-.47-1.91-1.4-1.91a1.52,1.52,0,0,0-1.19.54,2.05,2.05,0,0,0-.47,1.37v3.42h-1v-6h1v1h0a2.17,2.17,0,0,1,2-1.14,1.86,1.86,0,0,1,1.51.64,2.88,2.88,0,0,1,.52,1.84Z" fill="#1e1e1e"/>
      <path d="M427.75,209.12h-1v-.93h0a2,2,0,0,1-1.85,1.08,2,2,0,0,1-1.4-.48,1.65,1.65,0,0,1-.51-1.26c0-1.12.66-1.77,2-2l1.8-.25q0-1.53-1.23-1.53a3,3,0,0,0-2,.74v-1a3.68,3.68,0,0,1,2-.57c1.41,0,2.11.75,2.11,2.24Zm-1-3-1.44.2a2.25,2.25,0,0,0-1,.33,1,1,0,0,0-.34.84.92.92,0,0,0,.31.72,1.25,1.25,0,0,0,.84.28,1.56,1.56,0,0,0,1.18-.5,1.8,1.8,0,0,0,.46-1.27Z" fill="#1e1e1e"/>
      <path d="M430.53,209.12h-1v-8.88h1Z" fill="#1e1e1e"/>
    </g>
    <g>
      <path d="M195.08,19.77a4.89,4.89,0,0,1-2.32.5,3.75,3.75,0,0,1-2.87-1.16,4.26,4.26,0,0,1-1.08-3A4.48,4.48,0,0,1,190,12.82a4.12,4.12,0,0,1,3.07-1.24,4.91,4.91,0,0,1,2,.35V13a4,4,0,0,0-2-.51,3.06,3.06,0,0,0-2.35,1,3.64,3.64,0,0,0-.9,2.58,3.48,3.48,0,0,0,.85,2.45,2.84,2.84,0,0,0,2.2.91,4.15,4.15,0,0,0,2.19-.56Z" fill="#1e1e1e"/>
      <path d="M201.52,20.12h-1v-.94h0a2,2,0,0,1-1.85,1.09c-1.43,0-2.14-.86-2.14-2.56V14.12h1v3.44c0,1.26.49,1.9,1.45,1.9a1.49,1.49,0,0,0,1.16-.52,2,2,0,0,0,.46-1.36V14.12h1Z" fill="#1e1e1e"/>
      <path d="M203.09,19.91v-1a2.9,2.9,0,0,0,1.73.58c.85,0,1.27-.28,1.27-.85a.72.72,0,0,0-.11-.4,1,1,0,0,0-.29-.3,2.27,2.27,0,0,0-.44-.23l-.53-.22a6.87,6.87,0,0,1-.7-.31,2,2,0,0,1-.51-.37,1.41,1.41,0,0,1-.3-.46,1.57,1.57,0,0,1-.11-.6,1.45,1.45,0,0,1,.2-.75,1.65,1.65,0,0,1,.51-.54,2.26,2.26,0,0,1,.74-.33,3,3,0,0,1,.85-.12,3.46,3.46,0,0,1,1.4.27v1a2.74,2.74,0,0,0-1.53-.44,1.75,1.75,0,0,0-.48.06,1.34,1.34,0,0,0-.38.18.85.85,0,0,0-.24.26.82.82,0,0,0-.08.35.74.74,0,0,0,.33.67,1.89,1.89,0,0,0,.4.22l.53.22c.27.1.51.21.72.31a2.44,2.44,0,0,1,.54.37,1.38,1.38,0,0,1,.34.46,1.54,1.54,0,0,1,.12.63,1.47,1.47,0,0,1-.19.77,1.85,1.85,0,0,1-.53.55,2.49,2.49,0,0,1-.76.32,3.68,3.68,0,0,1-.89.11A3.41,3.41,0,0,1,203.09,19.91Z" fill="#1e1e1e"/>
      <path d="M211.33,20.07a1.92,1.92,0,0,1-.9.18c-1.05,0-1.57-.58-1.57-1.75V15h-1v-.83h1V12.66l1-.31v1.77h1.51V15h-1.51v3.38a1.45,1.45,0,0,0,.2.86.84.84,0,0,0,.68.26,1,1,0,0,0,.63-.2Z" fill="#1e1e1e"/>
      <path d="M215.12,20.27a2.76,2.76,0,0,1-2.12-.85,3.1,3.1,0,0,1-.8-2.22,3.27,3.27,0,0,1,.83-2.37,3,3,0,0,1,2.23-.85,2.7,2.7,0,0,1,2.1.83,3.27,3.27,0,0,1,.75,2.29,3.21,3.21,0,0,1-.81,2.3A2.84,2.84,0,0,1,215.12,20.27Zm.07-5.48a1.83,1.83,0,0,0-1.46.63,2.59,2.59,0,0,0-.54,1.74,2.46,2.46,0,0,0,.54,1.68,1.87,1.87,0,0,0,1.46.62,1.76,1.76,0,0,0,1.44-.61,2.62,2.62,0,0,0,.5-1.71,2.71,2.71,0,0,0-.5-1.74A1.79,1.79,0,0,0,215.19,14.79Z" fill="#1e1e1e"/>
      <path d="M228.17,20.12h-1V16.68a2.66,2.66,0,0,0-.3-1.44,1.17,1.17,0,0,0-1-.45,1.26,1.26,0,0,0-1,.57,2.11,2.11,0,0,0-.43,1.34v3.42h-1V16.56c0-1.18-.45-1.77-1.36-1.77a1.27,1.27,0,0,0-1,.53,2.18,2.18,0,0,0-.41,1.38v3.42h-1v-6h1v1h0A2.06,2.06,0,0,1,222.49,14a1.77,1.77,0,0,1,1.08.35,1.73,1.73,0,0,1,.62.9,2.15,2.15,0,0,1,2-1.25c1.32,0,2,.82,2,2.45Z" fill="#1e1e1e"/>
      <path d="M234.8,17.37h-4.23a2.18,2.18,0,0,0,.54,1.54,1.82,1.82,0,0,0,1.41.55,3,3,0,0,0,1.87-.67v.9a3.52,3.52,0,0,1-2.09.58,2.55,2.55,0,0,1-2-.82,3.33,3.33,0,0,1-.73-2.3,3.25,3.25,0,0,1,.8-2.28,2.52,2.52,0,0,1,2-.89,2.26,2.26,0,0,1,1.82.77,3.15,3.15,0,0,1,.64,2.11Zm-1-.82a1.93,1.93,0,0,0-.4-1.29,1.38,1.38,0,0,0-1.1-.47,1.56,1.56,0,0,0-1.15.49,2.16,2.16,0,0,0-.59,1.27Z" fill="#1e1e1e"/>
      <path d="M239.39,15.1a1.18,1.18,0,0,0-.73-.2,1.25,1.25,0,0,0-1,.58,2.75,2.75,0,0,0-.41,1.59v3.05h-1v-6h1v1.24h0a2.17,2.17,0,0,1,.63-1,1.44,1.44,0,0,1,.94-.35,1.75,1.75,0,0,1,.58.08Z" fill="#1e1e1e"/>
      <path d="M248.11,12.61h-3.28v2.91h3v.88h-3v3.72h-1v-8.4h4.27Z" fill="#1e1e1e"/>
      <path d="M250.07,12.6a.64.64,0,0,1-.44-.17.65.65,0,0,1,0-.9.6.6,0,0,1,.44-.18.64.64,0,0,1,.45.18.61.61,0,0,1,.18.45.6.6,0,0,1-.18.44A.64.64,0,0,1,250.07,12.6Zm.47,7.52h-1v-6h1Z" fill="#1e1e1e"/>
      <path d="M255.61,15.1a1.18,1.18,0,0,0-.73-.2,1.22,1.22,0,0,0-1,.58,2.68,2.68,0,0,0-.42,1.59v3.05h-1v-6h1v1.24h0a2.08,2.08,0,0,1,.62-1A1.47,1.47,0,0,1,255,14a1.65,1.65,0,0,1,.57.08Z" fill="#1e1e1e"/>
      <path d="M261.48,17.37h-4.24a2.18,2.18,0,0,0,.54,1.54,1.82,1.82,0,0,0,1.42.55,3,3,0,0,0,1.86-.67v.9a3.52,3.52,0,0,1-2.09.58,2.55,2.55,0,0,1-2-.82,3.37,3.37,0,0,1-.73-2.3,3.25,3.25,0,0,1,.8-2.28,2.54,2.54,0,0,1,2-.89,2.26,2.26,0,0,1,1.82.77,3.15,3.15,0,0,1,.65,2.11Zm-1-.82a1.93,1.93,0,0,0-.4-1.29,1.36,1.36,0,0,0-1.1-.47,1.56,1.56,0,0,0-1.15.49,2.22,2.22,0,0,0-.59,1.27Z" fill="#1e1e1e"/>
      <path d="M270.49,14.12l-1.8,6h-1l-1.23-4.29a2.81,2.81,0,0,1-.1-.56h0a2.51,2.51,0,0,1-.12.55l-1.35,4.3h-1l-1.81-6h1l1.25,4.52a2.84,2.84,0,0,1,.08.54h.05a2.37,2.37,0,0,1,.1-.56l1.38-4.5h.88l1.24,4.53a3,3,0,0,1,.09.54h.05a2.61,2.61,0,0,1,.1-.54l1.22-4.53Z" fill="#1e1e1e"/>
      <path d="M275.9,20.12h-1v-.93h0a2,2,0,0,1-1.84,1.08,2,2,0,0,1-1.41-.48,1.64,1.64,0,0,1-.5-1.26c0-1.12.66-1.77,2-2l1.79-.25q0-1.53-1.23-1.53a3,3,0,0,0-2,.74v-1a3.68,3.68,0,0,1,2-.57c1.41,0,2.12.75,2.12,2.24Zm-1-3-1.44.2a2.3,2.3,0,0,0-1,.33,1,1,0,0,0-.34.84.92.92,0,0,0,.31.72,1.25,1.25,0,0,0,.84.28,1.56,1.56,0,0,0,1.18-.5,1.8,1.8,0,0,0,.46-1.27Z" fill="#1e1e1e"/>
      <path d="M278.67,20.12h-1V11.24h1Z" fill="#1e1e1e"/>
      <path d="M281.57,20.12h-1V11.24h1Z" fill="#1e1e1e"/>
    </g>
    <g>
      <path d="M178,58.7a4.89,4.89,0,0,1-2.32.49A3.74,3.74,0,0,1,172.77,58a4.26,4.26,0,0,1-1.08-3,4.48,4.48,0,0,1,1.22-3.26A4.08,4.08,0,0,1,176,50.51a4.91,4.91,0,0,1,2,.35v1a4,4,0,0,0-2-.51,3,3,0,0,0-2.35,1,3.62,3.62,0,0,0-.9,2.58,3.47,3.47,0,0,0,.84,2.45,2.87,2.87,0,0,0,2.21.91,4.2,4.2,0,0,0,2.19-.56Z" fill="#1e1e1e"/>
      <path d="M184.4,59.05h-1V58.1h0a2,2,0,0,1-1.85,1.09c-1.43,0-2.14-.85-2.14-2.55V53.05h1v3.44c0,1.26.48,1.9,1.45,1.9a1.49,1.49,0,0,0,1.16-.52,2,2,0,0,0,.45-1.36V53.05h1Z" fill="#1e1e1e"/>
      <path d="M186,58.84v-1a2.9,2.9,0,0,0,1.73.58c.84,0,1.27-.29,1.27-.85a.78.78,0,0,0-.11-.41.93.93,0,0,0-.3-.29,1.93,1.93,0,0,0-.43-.23l-.54-.22a6.6,6.6,0,0,1-.7-.32,1.88,1.88,0,0,1-.5-.36,1.26,1.26,0,0,1-.3-.46,1.57,1.57,0,0,1-.11-.6,1.45,1.45,0,0,1,.2-.75,1.65,1.65,0,0,1,.51-.54,2.51,2.51,0,0,1,.74-.34,3.56,3.56,0,0,1,2.24.16v1a2.69,2.69,0,0,0-1.52-.44,1.75,1.75,0,0,0-.48.06,1.11,1.11,0,0,0-.38.18.85.85,0,0,0-.24.26.82.82,0,0,0-.08.35.74.74,0,0,0,.33.67,1.67,1.67,0,0,0,.4.22l.53.22A6.21,6.21,0,0,1,189,56a2.44,2.44,0,0,1,.54.37,1.38,1.38,0,0,1,.34.46,1.54,1.54,0,0,1,.12.63,1.47,1.47,0,0,1-.2.77,1.7,1.7,0,0,1-.52.55,2.49,2.49,0,0,1-.76.32,3.68,3.68,0,0,1-.89.1A3.39,3.39,0,0,1,186,58.84Z" fill="#1e1e1e"/>
      <path d="M194.21,59a2,2,0,0,1-.9.18c-1.05,0-1.57-.58-1.57-1.76V53.87h-1v-.82h1V51.59l1-.31v1.77h1.51v.82H192.7v3.38a1.49,1.49,0,0,0,.2.87.83.83,0,0,0,.68.25,1,1,0,0,0,.63-.2Z" fill="#1e1e1e"/>
      <path d="M198,59.19a2.77,2.77,0,0,1-2.12-.84,3.11,3.11,0,0,1-.8-2.23,3.26,3.26,0,0,1,.83-2.36,3,3,0,0,1,2.23-.85,2.71,2.71,0,0,1,2.1.83A3.27,3.27,0,0,1,201,56a3.23,3.23,0,0,1-.81,2.3A2.83,2.83,0,0,1,198,59.19Zm.07-5.47a1.81,1.81,0,0,0-1.46.63,2.59,2.59,0,0,0-.54,1.74,2.46,2.46,0,0,0,.54,1.68,1.87,1.87,0,0,0,1.46.62,1.76,1.76,0,0,0,1.43-.61,2.57,2.57,0,0,0,.5-1.71,2.65,2.65,0,0,0-.5-1.74A1.73,1.73,0,0,0,198.07,53.72Z" fill="#1e1e1e"/>
      <path d="M211,59.05h-1V55.61a2.62,2.62,0,0,0-.3-1.44,1.17,1.17,0,0,0-1-.45,1.27,1.27,0,0,0-1,.56,2.16,2.16,0,0,0-.44,1.35v3.42h-1V55.49c0-1.18-.45-1.77-1.36-1.77a1.27,1.27,0,0,0-1,.53,2.18,2.18,0,0,0-.41,1.38v3.42h-1v-6h1v1h0a2,2,0,0,1,1.86-1.09,1.72,1.72,0,0,1,1.07.35,1.62,1.62,0,0,1,.63.9,2.15,2.15,0,0,1,2-1.25c1.32,0,2,.82,2,2.45Z" fill="#1e1e1e"/>
      <path d="M217.68,56.29h-4.23a2.19,2.19,0,0,0,.54,1.55,1.85,1.85,0,0,0,1.41.55,3,3,0,0,0,1.87-.67v.9a3.53,3.53,0,0,1-2.1.57,2.53,2.53,0,0,1-2-.81,3.33,3.33,0,0,1-.73-2.3,3.29,3.29,0,0,1,.79-2.29,2.58,2.58,0,0,1,2-.88,2.28,2.28,0,0,1,1.82.76,3.19,3.19,0,0,1,.64,2.12Zm-1-.81a2,2,0,0,0-.4-1.3,1.4,1.4,0,0,0-1.1-.46,1.56,1.56,0,0,0-1.16.49,2.21,2.21,0,0,0-.58,1.27Z" fill="#1e1e1e"/>
      <path d="M222.26,54a1.14,1.14,0,0,0-.72-.2,1.25,1.25,0,0,0-1,.58A2.68,2.68,0,0,0,220.1,56v3h-1v-6h1v1.24h0a2.17,2.17,0,0,1,.63-1,1.44,1.44,0,0,1,.94-.35,1.65,1.65,0,0,1,.57.08Z" fill="#1e1e1e"/>
      <path d="M226.72,59.05v-8.4h2.39a2.63,2.63,0,0,1,1.73.53,1.72,1.72,0,0,1,.64,1.39,2,2,0,0,1-1.45,2v0a2.18,2.18,0,0,1,1.36.64,2,2,0,0,1,.51,1.41,2.2,2.2,0,0,1-.78,1.75,2.88,2.88,0,0,1-2,.66Zm1-7.51v2.71h1a2,2,0,0,0,1.27-.38,1.36,1.36,0,0,0,.46-1.1c0-.82-.54-1.23-1.61-1.23Zm0,3.6v3H229a2,2,0,0,0,1.35-.41,1.4,1.4,0,0,0,.48-1.12c0-1-.68-1.49-2-1.49Z" fill="#1e1e1e"/>
      <path d="M236,59.19a2.77,2.77,0,0,1-2.12-.84,3.11,3.11,0,0,1-.8-2.23,3.26,3.26,0,0,1,.83-2.36,3,3,0,0,1,2.23-.85,2.71,2.71,0,0,1,2.1.83A3.27,3.27,0,0,1,239,56a3.23,3.23,0,0,1-.81,2.3A2.83,2.83,0,0,1,236,59.19Zm.07-5.47a1.81,1.81,0,0,0-1.46.63,2.59,2.59,0,0,0-.54,1.74,2.46,2.46,0,0,0,.54,1.68,1.87,1.87,0,0,0,1.46.62,1.76,1.76,0,0,0,1.43-.61,2.57,2.57,0,0,0,.51-1.71,2.65,2.65,0,0,0-.51-1.74A1.73,1.73,0,0,0,236.05,53.72Z" fill="#1e1e1e"/>
      <path d="M243.63,54a1.14,1.14,0,0,0-.72-.2,1.24,1.24,0,0,0-1,.58,2.68,2.68,0,0,0-.41,1.59v3h-1v-6h1v1.24h0a2.09,2.09,0,0,1,.63-1,1.44,1.44,0,0,1,.94-.35,1.65,1.65,0,0,1,.57.08Z" fill="#1e1e1e"/>
      <path d="M249.8,59.05h-1V58h0a2.2,2.2,0,0,1-2.06,1.16,2.24,2.24,0,0,1-1.81-.8,3.32,3.32,0,0,1-.67-2.2,3.59,3.59,0,0,1,.75-2.38,2.46,2.46,0,0,1,2-.9,1.92,1.92,0,0,1,1.8,1h0V50.17h1Zm-1-2.71v-.88a1.7,1.7,0,0,0-.48-1.23,1.61,1.61,0,0,0-1.22-.51,1.68,1.68,0,0,0-1.39.65,2.85,2.85,0,0,0-.5,1.78,2.58,2.58,0,0,0,.48,1.64,1.6,1.6,0,0,0,1.3.6,1.68,1.68,0,0,0,1.31-.58A2.2,2.2,0,0,0,248.84,56.34Z" fill="#1e1e1e"/>
      <path d="M256.57,56.29h-4.24a2.19,2.19,0,0,0,.54,1.55,1.86,1.86,0,0,0,1.42.55,3,3,0,0,0,1.86-.67v.9a3.52,3.52,0,0,1-2.09.57,2.54,2.54,0,0,1-2-.81,3.37,3.37,0,0,1-.73-2.3,3.29,3.29,0,0,1,.8-2.29,2.56,2.56,0,0,1,2-.88,2.28,2.28,0,0,1,1.82.76,3.2,3.2,0,0,1,.65,2.12Zm-1-.81a2,2,0,0,0-.4-1.3,1.39,1.39,0,0,0-1.1-.46,1.52,1.52,0,0,0-1.15.49,2.22,2.22,0,0,0-.59,1.27Z" fill="#1e1e1e"/>
      <path d="M261.15,54a1.18,1.18,0,0,0-.73-.2,1.25,1.25,0,0,0-1,.58A2.75,2.75,0,0,0,259,56v3h-1v-6h1v1.24h0a2.17,2.17,0,0,1,.63-1,1.46,1.46,0,0,1,.94-.35,1.75,1.75,0,0,1,.58.08Z" fill="#1e1e1e"/>
      <path d="M265.61,59.05v-8.4h2.32q4.44,0,4.44,4.1a4.09,4.09,0,0,1-1.24,3.12,4.55,4.55,0,0,1-3.3,1.18Zm1-7.51v6.62h1.25a3.57,3.57,0,0,0,2.58-.88,3.34,3.34,0,0,0,.92-2.51q0-3.23-3.44-3.23Z" fill="#1e1e1e"/>
      <path d="M278.71,56.29h-4.23a2.19,2.19,0,0,0,.54,1.55,1.85,1.85,0,0,0,1.41.55,3,3,0,0,0,1.87-.67v.9a3.52,3.52,0,0,1-2.09.57,2.54,2.54,0,0,1-2-.81,3.83,3.83,0,0,1,.07-4.59,2.55,2.55,0,0,1,2-.88,2.28,2.28,0,0,1,1.82.76,3.19,3.19,0,0,1,.64,2.12Zm-1-.81a2,2,0,0,0-.4-1.3,1.4,1.4,0,0,0-1.1-.46,1.52,1.52,0,0,0-1.15.49,2.16,2.16,0,0,0-.59,1.27Z" fill="#1e1e1e"/>
      <path d="M284.88,53.05l-2.39,6h-.94l-2.27-6h1.05l1.52,4.36a3.75,3.75,0,0,1,.22.84h0a3.7,3.7,0,0,1,.19-.81l1.59-4.39Z" fill="#1e1e1e"/>
      <path d="M286.41,51.53a.6.6,0,0,1-.44-.18.57.57,0,0,1-.18-.44.61.61,0,0,1,.18-.45.6.6,0,0,1,.44-.18.64.64,0,0,1,.45.18.61.61,0,0,1,.18.45.6.6,0,0,1-.18.44A.64.64,0,0,1,286.41,51.53Zm.47,7.52h-1v-6h1Z" fill="#1e1e1e"/>
      <path d="M292.91,58.78a3.1,3.1,0,0,1-1.64.41,2.7,2.7,0,0,1-2.07-.83,3,3,0,0,1-.79-2.17,3.32,3.32,0,0,1,.85-2.38,3,3,0,0,1,2.27-.9,3.06,3.06,0,0,1,1.39.3v1a2.45,2.45,0,0,0-1.43-.47,2,2,0,0,0-1.51.66,2.51,2.51,0,0,0-.58,1.73,2.39,2.39,0,0,0,.55,1.67,1.92,1.92,0,0,0,1.48.61,2.4,2.4,0,0,0,1.48-.53Z" fill="#1e1e1e"/>
      <path d="M299.19,56.29H295a2.28,2.28,0,0,0,.54,1.55,1.87,1.87,0,0,0,1.42.55,3,3,0,0,0,1.86-.67v.9a3.5,3.5,0,0,1-2.09.57,2.56,2.56,0,0,1-2-.81,3.37,3.37,0,0,1-.73-2.3,3.29,3.29,0,0,1,.8-2.29,2.56,2.56,0,0,1,2-.88,2.28,2.28,0,0,1,1.82.76,3.2,3.2,0,0,1,.65,2.12Zm-1-.81a2,2,0,0,0-.4-1.3,1.39,1.39,0,0,0-1.1-.46,1.52,1.52,0,0,0-1.15.49,2.22,2.22,0,0,0-.59,1.27Z" fill="#1e1e1e"/>
    </g>
    <g>
      <path d="M105.36,92.24h-2.43v7.51h-1V92.24H99.53v-.89h5.83Z" fill="#1e1e1e"/>
      <path d="M109.51,99.89a3.72,3.72,0,0,1-2.87-1.17,4.42,4.42,0,0,1-1.07-3.07,4.57,4.57,0,0,1,1.1-3.23,3.8,3.8,0,0,1,3-1.21,3.6,3.6,0,0,1,2.8,1.17,4.39,4.39,0,0,1,1.06,3.07,4.63,4.63,0,0,1-1.09,3.25A3.71,3.71,0,0,1,109.51,99.89Zm.07-7.79a2.69,2.69,0,0,0-2.15,1,4.22,4.22,0,0,0,0,5,2.61,2.61,0,0,0,2.1,1,2.76,2.76,0,0,0,2.18-.9,3.71,3.71,0,0,0,.79-2.53,3.81,3.81,0,0,0-.77-2.57A2.65,2.65,0,0,0,109.58,92.1Z" fill="#1e1e1e"/>
      <path d="M121.19,99.75H120l-1.41-2.35a5,5,0,0,0-.37-.56,2.24,2.24,0,0,0-.37-.38,1.23,1.23,0,0,0-.41-.21,1.59,1.59,0,0,0-.5-.07h-.81v3.57h-1v-8.4h2.5a3.64,3.64,0,0,1,1,.14,2.23,2.23,0,0,1,.81.42,2,2,0,0,1,.54.7,2.29,2.29,0,0,1,.19,1,2.37,2.37,0,0,1-.13.81,2.22,2.22,0,0,1-.38.65,2.32,2.32,0,0,1-.58.49,3.1,3.1,0,0,1-.77.31v0a2,2,0,0,1,.36.22,2,2,0,0,1,.3.28l.28.37c.09.14.19.3.3.49Zm-5-7.51v3.05h1.34a2.15,2.15,0,0,0,.68-.11,1.61,1.61,0,0,0,.54-.32,1.57,1.57,0,0,0,.36-.51,1.65,1.65,0,0,0,.13-.68,1.32,1.32,0,0,0-.44-1,1.88,1.88,0,0,0-1.26-.38Z" fill="#1e1e1e"/>
      <path d="M133,99.89a1.74,1.74,0,0,1-.59-.09,1.66,1.66,0,0,1-.47-.26,2.32,2.32,0,0,1-.42-.41c-.14-.16-.28-.34-.43-.54a3.18,3.18,0,0,1-.54.48,3.54,3.54,0,0,1-.68.42,4.18,4.18,0,0,1-.82.29,4.23,4.23,0,0,1-1,.11,3.87,3.87,0,0,1-1.16-.16,2.57,2.57,0,0,1-.9-.47,2,2,0,0,1-.58-.75,2.48,2.48,0,0,1-.21-1,2.35,2.35,0,0,1,.51-1.53,3.63,3.63,0,0,1,1.44-1,2.51,2.51,0,0,1-.35-.31,2.08,2.08,0,0,1-.32-.39,2.34,2.34,0,0,1-.22-.48,1.87,1.87,0,0,1-.08-.59,1.94,1.94,0,0,1,.16-.82,1.72,1.72,0,0,1,.46-.6,1.92,1.92,0,0,1,.69-.37,2.73,2.73,0,0,1,.87-.13,2.45,2.45,0,0,1,.83.13,1.79,1.79,0,0,1,.65.36,1.71,1.71,0,0,1,.43.56,1.73,1.73,0,0,1,.15.73,1.76,1.76,0,0,1-.4,1.17,3,3,0,0,1-1.21.79,4,4,0,0,1,.74.39,4.15,4.15,0,0,1,.6.51,5.88,5.88,0,0,1,.52.6c.16.22.32.44.47.67a4.85,4.85,0,0,0,.72-1.46,5.71,5.71,0,0,0,.24-1.67,3,3,0,0,0,0-.42,2.32,2.32,0,0,0-.07-.38H133a2.46,2.46,0,0,1,.06.36c0,.12,0,.25,0,.41a5.65,5.65,0,0,1-.11,1.08,8.89,8.89,0,0,1-.3,1,7.75,7.75,0,0,1-.44,1,7.36,7.36,0,0,1-.52.83c.13.19.26.35.37.49a2.86,2.86,0,0,0,.34.35,1.17,1.17,0,0,0,.78.28,1.49,1.49,0,0,0,.36,0l.37-.12v.89a2,2,0,0,1-.44.13A3.42,3.42,0,0,1,133,99.89Zm-4.92-.83a3.47,3.47,0,0,0,.82-.1,3,3,0,0,0,.69-.26,3.38,3.38,0,0,0,.58-.37c.17-.15.33-.3.47-.45-.24-.37-.46-.69-.66-.95a6.1,6.1,0,0,0-.61-.69,4.33,4.33,0,0,0-.66-.49,5.43,5.43,0,0,0-.8-.38,4.78,4.78,0,0,0-.68.33,2.06,2.06,0,0,0-.54.42,1.92,1.92,0,0,0-.36.56,2.2,2.2,0,0,0-.12.76,1.56,1.56,0,0,0,.14.7,1.44,1.44,0,0,0,.4.51,1.69,1.69,0,0,0,.6.3A2.48,2.48,0,0,0,128.08,99.06Zm1.47-6a1,1,0,0,0-.39-.83,1,1,0,0,0-.37-.2,1.44,1.44,0,0,0-.4-.06,1.3,1.3,0,0,0-.92.31,1.09,1.09,0,0,0-.35.84,1.33,1.33,0,0,0,.07.45,1.71,1.71,0,0,0,.21.4,1.87,1.87,0,0,0,.31.32,2.35,2.35,0,0,0,.37.24,3,3,0,0,0,1.1-.6A1.16,1.16,0,0,0,129.55,93.07Z" fill="#1e1e1e"/>
      <path d="M138.52,99.75v-8.4h2.39a2.63,2.63,0,0,1,1.73.53,1.72,1.72,0,0,1,.64,1.39,2,2,0,0,1-1.45,2v0a2.13,2.13,0,0,1,1.36.64,2,2,0,0,1,.51,1.41,2.2,2.2,0,0,1-.78,1.75,2.88,2.88,0,0,1-1.95.66Zm1-7.51V95h1a1.94,1.94,0,0,0,1.28-.39,1.35,1.35,0,0,0,.46-1.09c0-.82-.54-1.23-1.61-1.23Zm0,3.6v3h1.33a2,2,0,0,0,1.35-.41,1.4,1.4,0,0,0,.48-1.12c0-1-.68-1.49-2-1.49Z" fill="#1e1e1e"/>
      <path d="M154,99.75h-1V94.12c0-.45,0-1,.08-1.64h0a7.28,7.28,0,0,1-.25.82l-2.88,6.45h-.48l-2.86-6.41a4.44,4.44,0,0,1-.25-.86h0c0,.34,0,.89,0,1.65v5.62h-.95v-8.4h1.3l2.58,5.86a7.92,7.92,0,0,1,.39,1h0c.17-.46.3-.81.41-1l2.63-5.84H154Z" fill="#1e1e1e"/>
      <path d="M161.9,99.4a5,5,0,0,1-2.32.49,3.75,3.75,0,0,1-2.88-1.15,4.3,4.3,0,0,1-1.07-3,4.47,4.47,0,0,1,1.21-3.26,4.11,4.11,0,0,1,3.08-1.24,5,5,0,0,1,2,.35v1a4.12,4.12,0,0,0-2-.5,3,3,0,0,0-2.34,1,3.62,3.62,0,0,0-.9,2.58,3.47,3.47,0,0,0,.84,2.45,2.84,2.84,0,0,0,2.2.91,4.21,4.21,0,0,0,2.2-.56Z" fill="#1e1e1e"/>
      <path d="M169.28,101.66h-.85a7.47,7.47,0,0,1-1.82-5.11,7.78,7.78,0,0,1,1.82-5.2h.87a7.89,7.89,0,0,0-1.84,5.19A7.79,7.79,0,0,0,169.28,101.66Z" fill="#1e1e1e"/>
      <path d="M177,99.75h-1.09L175,97.4h-3.56l-.84,2.35h-1.1l3.22-8.4h1Zm-2.3-3.24-1.32-3.58a2.44,2.44,0,0,1-.13-.56h0a3,3,0,0,1-.14.56l-1.31,3.58Z" fill="#1e1e1e"/>
      <path d="M183.74,99.4a4.92,4.92,0,0,1-2.32.49,3.73,3.73,0,0,1-2.87-1.15,4.26,4.26,0,0,1-1.08-3,4.47,4.47,0,0,1,1.21-3.26,4.12,4.12,0,0,1,3.08-1.24,4.91,4.91,0,0,1,2,.35v1a4.08,4.08,0,0,0-2-.5,3,3,0,0,0-2.35,1,3.62,3.62,0,0,0-.9,2.58,3.47,3.47,0,0,0,.84,2.45,2.86,2.86,0,0,0,2.21.91,4.2,4.2,0,0,0,2.19-.56Z" fill="#1e1e1e"/>
      <path d="M189.81,99.75h-4.36v-8.4h1v7.51h3.38Z" fill="#1e1e1e"/>
      <path d="M198.75,99.75h-4.36v-8.4h1v7.51h3.38Z" fill="#1e1e1e"/>
      <path d="M202.41,99.89a2.79,2.79,0,0,1-2.12-.84,3.1,3.1,0,0,1-.79-2.23,3.26,3.26,0,0,1,.82-2.36,3,3,0,0,1,2.23-.85,2.7,2.7,0,0,1,2.1.83,3.27,3.27,0,0,1,.75,2.29,3.23,3.23,0,0,1-.81,2.3A2.83,2.83,0,0,1,202.41,99.89Zm.07-5.47a1.83,1.83,0,0,0-1.46.63,2.59,2.59,0,0,0-.54,1.74,2.46,2.46,0,0,0,.54,1.68,1.87,1.87,0,0,0,1.46.62,1.79,1.79,0,0,0,1.44-.61,2.62,2.62,0,0,0,.5-1.71,2.71,2.71,0,0,0-.5-1.74A1.76,1.76,0,0,0,202.48,94.42Z" fill="#1e1e1e"/>
      <path d="M211,99.48a3.1,3.1,0,0,1-1.64.41,2.72,2.72,0,0,1-2.08-.83,3.06,3.06,0,0,1-.78-2.17,3.32,3.32,0,0,1,.85-2.38,3,3,0,0,1,2.26-.9,3.1,3.1,0,0,1,1.4.3v1a2.47,2.47,0,0,0-1.43-.47,1.93,1.93,0,0,0-1.51.66,2.52,2.52,0,0,0-.59,1.73,2.43,2.43,0,0,0,.55,1.67,1.94,1.94,0,0,0,1.49.61,2.42,2.42,0,0,0,1.48-.53Z" fill="#1e1e1e"/>
      <path d="M217.46,99.75h-1.35l-2.65-2.88h0v2.88h-1V90.87h1V96.5h0L216,93.75h1.26l-2.78,2.9Z" fill="#1e1e1e"/>
      <path d="M223.57,99.75h-1v-1h0a2.2,2.2,0,0,1-2.06,1.16,2.22,2.22,0,0,1-1.81-.8,3.33,3.33,0,0,1-.68-2.2,3.59,3.59,0,0,1,.75-2.38,2.48,2.48,0,0,1,2-.9,1.92,1.92,0,0,1,1.8,1h0V90.87h1Zm-1-2.71v-.88a1.7,1.7,0,0,0-.48-1.23,1.59,1.59,0,0,0-1.21-.51,1.68,1.68,0,0,0-1.39.65,2.85,2.85,0,0,0-.5,1.78,2.53,2.53,0,0,0,.48,1.63,1.57,1.57,0,0,0,1.3.61,1.66,1.66,0,0,0,1.3-.58A2.15,2.15,0,0,0,222.6,97Z" fill="#1e1e1e"/>
      <path d="M228,99.89a2.79,2.79,0,0,1-2.13-.84,3.15,3.15,0,0,1-.79-2.23,3.26,3.26,0,0,1,.83-2.36,3,3,0,0,1,2.23-.85,2.69,2.69,0,0,1,2.09.83A3.75,3.75,0,0,1,230.2,99,2.85,2.85,0,0,1,228,99.89Zm.07-5.47a1.84,1.84,0,0,0-1.47.63,2.59,2.59,0,0,0-.54,1.74,2.46,2.46,0,0,0,.55,1.68,1.85,1.85,0,0,0,1.46.62,1.76,1.76,0,0,0,1.43-.61,2.57,2.57,0,0,0,.5-1.71,2.65,2.65,0,0,0-.5-1.74A1.73,1.73,0,0,0,228.09,94.42Z" fill="#1e1e1e"/>
      <path d="M240.1,93.75l-1.8,6h-1l-1.24-4.29a2.34,2.34,0,0,1-.09-.56h0a2.64,2.64,0,0,1-.12.55l-1.34,4.3h-1l-1.82-6h1L234,98.27a2.2,2.2,0,0,1,.08.53h.05a3.06,3.06,0,0,1,.1-.55l1.39-4.5h.88l1.24,4.53a3,3,0,0,1,.09.54h0a2.4,2.4,0,0,1,.1-.54l1.22-4.53Z" fill="#1e1e1e"/>
      <path d="M246.19,99.75h-1V96.33c0-1.27-.46-1.91-1.39-1.91a1.5,1.5,0,0,0-1.19.54,2,2,0,0,0-.48,1.37v3.42h-1v-6h1v1h0a2.16,2.16,0,0,1,2-1.14,1.81,1.81,0,0,1,1.5.64,2.8,2.8,0,0,1,.52,1.84Z" fill="#1e1e1e"/>
      <path d="M252.41,99.75h-1v-8.4h1Z" fill="#1e1e1e"/>
      <path d="M259.47,99.75h-1V96.33c0-1.27-.46-1.91-1.39-1.91a1.5,1.5,0,0,0-1.19.54,2,2,0,0,0-.47,1.37v3.42h-1v-6h1v1h0a2.16,2.16,0,0,1,2-1.14,1.81,1.81,0,0,1,1.5.64,2.8,2.8,0,0,1,.53,1.84Z" fill="#1e1e1e"/>
      <path d="M264.24,91.71a1.34,1.34,0,0,0-.64-.15c-.67,0-1,.42-1,1.27v.92H264v.82h-1.41v5.18h-.95V94.57h-1v-.82h1v-1a2,2,0,0,1,.54-1.49,1.84,1.84,0,0,1,1.36-.55,1.86,1.86,0,0,1,.7.11Z" fill="#1e1e1e"/>
      <path d="M268.16,94.73a1.18,1.18,0,0,0-.73-.2,1.22,1.22,0,0,0-1,.58,2.67,2.67,0,0,0-.42,1.58v3.06h-1v-6h1V95h0a2.08,2.08,0,0,1,.62-1,1.47,1.47,0,0,1,.95-.35,1.65,1.65,0,0,1,.57.08Z" fill="#1e1e1e"/>
      <path d="M273.5,99.75h-1v-.93h0a2,2,0,0,1-1.84,1.07,1.93,1.93,0,0,1-1.4-.47,1.65,1.65,0,0,1-.51-1.26c0-1.12.66-1.77,2-2l1.8-.25c0-1-.41-1.53-1.24-1.53a3,3,0,0,0-2,.74v-1a3.68,3.68,0,0,1,2-.57c1.41,0,2.12.75,2.12,2.24Zm-1-3-1.45.2a2.35,2.35,0,0,0-1,.33,1,1,0,0,0-.34.84.93.93,0,0,0,.32.72,1.22,1.22,0,0,0,.83.28,1.52,1.52,0,0,0,1.18-.51,1.77,1.77,0,0,0,.47-1.26Z" fill="#1e1e1e"/>
      <path d="M275,99.54v-1a2.87,2.87,0,0,0,1.72.58c.85,0,1.27-.29,1.27-.85a.78.78,0,0,0-.11-.41,1,1,0,0,0-.29-.29,2.18,2.18,0,0,0-.43-.23l-.54-.22a5.16,5.16,0,0,1-.7-.32,1.74,1.74,0,0,1-.5-.36,1.29,1.29,0,0,1-.31-.46,1.57,1.57,0,0,1-.1-.6,1.44,1.44,0,0,1,.19-.75,1.58,1.58,0,0,1,.52-.54,2.45,2.45,0,0,1,.73-.34,3.59,3.59,0,0,1,2.25.16v1a2.78,2.78,0,0,0-1.52-.43,1.83,1.83,0,0,0-.49.06,1.06,1.06,0,0,0-.37.18.66.66,0,0,0-.24.26.7.7,0,0,0-.09.35.8.8,0,0,0,.09.39.82.82,0,0,0,.25.28,1.81,1.81,0,0,0,.39.22l.54.22a6.85,6.85,0,0,1,.71.31,2.44,2.44,0,0,1,.54.37,1.38,1.38,0,0,1,.34.46,1.54,1.54,0,0,1,.12.63,1.49,1.49,0,0,1-.19.77,1.74,1.74,0,0,1-.53.55,2.43,2.43,0,0,1-.75.32,3.82,3.82,0,0,1-.9.1A3.47,3.47,0,0,1,275,99.54Z" fill="#1e1e1e"/>
      <path d="M283.18,99.69a1.76,1.76,0,0,1-.89.19c-1.05,0-1.58-.58-1.58-1.76V94.57h-1v-.82h1V92.29l1-.31v1.77h1.51v.82h-1.51V98a1.41,1.41,0,0,0,.21.87.81.81,0,0,0,.68.25.94.94,0,0,0,.62-.2Z" fill="#1e1e1e"/>
      <path d="M287.6,94.73a1.18,1.18,0,0,0-.73-.2,1.25,1.25,0,0,0-1,.58,2.74,2.74,0,0,0-.41,1.58v3.06h-1v-6h1V95h0a2.17,2.17,0,0,1,.63-1,1.44,1.44,0,0,1,.94-.35,1.75,1.75,0,0,1,.58.08Z" fill="#1e1e1e"/>
      <path d="M293.49,99.75h-1v-1h0a2,2,0,0,1-1.85,1.09c-1.43,0-2.15-.85-2.15-2.55V93.75h1v3.44c0,1.26.48,1.9,1.45,1.9a1.5,1.5,0,0,0,1.16-.52,2,2,0,0,0,.45-1.36V93.75h1Z" fill="#1e1e1e"/>
      <path d="M299.52,99.48a3.1,3.1,0,0,1-1.64.41,2.68,2.68,0,0,1-2.07-.83,3,3,0,0,1-.79-2.17,3.32,3.32,0,0,1,.85-2.38,3,3,0,0,1,2.27-.9,3.06,3.06,0,0,1,1.39.3v1a2.45,2.45,0,0,0-1.43-.47,2,2,0,0,0-1.51.66,2.52,2.52,0,0,0-.59,1.73,2.39,2.39,0,0,0,.56,1.67,1.92,1.92,0,0,0,1.48.61,2.4,2.4,0,0,0,1.48-.53Z" fill="#1e1e1e"/>
      <path d="M303.76,99.69a1.82,1.82,0,0,1-.9.19c-1.05,0-1.58-.58-1.58-1.76V94.57h-1v-.82h1V92.29l1-.31v1.77h1.51v.82h-1.51V98a1.41,1.41,0,0,0,.2.87.82.82,0,0,0,.68.25,1,1,0,0,0,.63-.2Z" fill="#1e1e1e"/>
      <path d="M309.89,99.75h-1v-1h0a2,2,0,0,1-1.85,1.09c-1.43,0-2.15-.85-2.15-2.55V93.75h1v3.44c0,1.26.48,1.9,1.45,1.9a1.5,1.5,0,0,0,1.16-.52,2,2,0,0,0,.45-1.36V93.75h1Z" fill="#1e1e1e"/>
      <path d="M315,94.73a1.18,1.18,0,0,0-.73-.2,1.22,1.22,0,0,0-1,.58,2.67,2.67,0,0,0-.42,1.58v3.06h-1v-6h1V95h0a2.08,2.08,0,0,1,.62-1,1.47,1.47,0,0,1,.95-.35,1.65,1.65,0,0,1,.57.08Z" fill="#1e1e1e"/>
      <path d="M320.83,97h-4.24a2.19,2.19,0,0,0,.54,1.55,1.86,1.86,0,0,0,1.42.55,3,3,0,0,0,1.86-.67v.9a3.52,3.52,0,0,1-2.09.57,2.54,2.54,0,0,1-2-.81,3.83,3.83,0,0,1,.07-4.59,2.56,2.56,0,0,1,2-.88,2.28,2.28,0,0,1,1.82.76,3.2,3.2,0,0,1,.65,2.12Zm-1-.81a2,2,0,0,0-.4-1.3,1.39,1.39,0,0,0-1.1-.46,1.52,1.52,0,0,0-1.15.49,2.16,2.16,0,0,0-.59,1.27Z" fill="#1e1e1e"/>
      <path d="M323.16,98.42l-.94,2.88h-.69l.69-2.88Z" fill="#1e1e1e"/>
      <path d="M327.9,99.41V98.25a2.36,2.36,0,0,0,.48.32,5.19,5.19,0,0,0,.59.24c.2.06.41.11.61.15a4.13,4.13,0,0,0,.58.05,2.24,2.24,0,0,0,1.36-.34,1.27,1.27,0,0,0,.29-1.56,1.6,1.6,0,0,0-.41-.46,3.91,3.91,0,0,0-.62-.4l-.78-.4c-.29-.15-.57-.3-.82-.45a3.81,3.81,0,0,1-.66-.5,2.05,2.05,0,0,1-.44-.63,2.13,2.13,0,0,1,.09-1.81,2,2,0,0,1,.66-.7,2.8,2.8,0,0,1,.93-.41,4.3,4.3,0,0,1,1.07-.14,4.08,4.08,0,0,1,1.81.3v1.11a3.22,3.22,0,0,0-1.91-.52,2.79,2.79,0,0,0-.64.07,1.75,1.75,0,0,0-.58.22,1.38,1.38,0,0,0-.41.39,1.1,1.1,0,0,0-.15.59,1.18,1.18,0,0,0,.12.55,1.28,1.28,0,0,0,.35.43,4.69,4.69,0,0,0,.57.38l.78.39c.3.15.58.31.85.47a4,4,0,0,1,.71.55,2.36,2.36,0,0,1,.49.66,1.84,1.84,0,0,1,.18.83,2.09,2.09,0,0,1-.25,1.05,2,2,0,0,1-.65.7,2.94,2.94,0,0,1-1,.39,5.15,5.15,0,0,1-1.13.12l-.5,0-.59-.09a4.45,4.45,0,0,1-.58-.15A1.64,1.64,0,0,1,327.9,99.41Z" fill="#1e1e1e"/>
      <path d="M336.94,99.69a1.82,1.82,0,0,1-.9.19c-1.05,0-1.57-.58-1.57-1.76V94.57h-1v-.82h1V92.29l1-.31v1.77h1.51v.82h-1.51V98a1.49,1.49,0,0,0,.2.87.83.83,0,0,0,.68.25,1,1,0,0,0,.63-.2Z" fill="#1e1e1e"/>
      <path d="M340.73,99.89a2.76,2.76,0,0,1-2.12-.84,3.11,3.11,0,0,1-.8-2.23,3.26,3.26,0,0,1,.83-2.36,3,3,0,0,1,2.23-.85,2.69,2.69,0,0,1,2.09.83,3.75,3.75,0,0,1,0,4.59A2.83,2.83,0,0,1,340.73,99.89Zm.07-5.47a1.84,1.84,0,0,0-1.47.63,2.64,2.64,0,0,0-.53,1.74,2.46,2.46,0,0,0,.54,1.68,1.85,1.85,0,0,0,1.46.62,1.76,1.76,0,0,0,1.43-.61,2.57,2.57,0,0,0,.5-1.71,2.65,2.65,0,0,0-.5-1.74A1.73,1.73,0,0,0,340.8,94.42Z" fill="#1e1e1e"/>
      <path d="M348.38,94.73a1.16,1.16,0,0,0-.72-.2,1.24,1.24,0,0,0-1,.58,2.67,2.67,0,0,0-.42,1.58v3.06h-1v-6h1V95h0a2.08,2.08,0,0,1,.62-1,1.49,1.49,0,0,1,.95-.35,1.65,1.65,0,0,1,.57.08Z" fill="#1e1e1e"/>
      <path d="M353.72,99.75h-1v-.93h0a2,2,0,0,1-1.85,1.07,1.93,1.93,0,0,1-1.4-.47,1.65,1.65,0,0,1-.51-1.26c0-1.12.66-1.77,2-2l1.8-.25c0-1-.41-1.53-1.24-1.53a3,3,0,0,0-1.95.74v-1a3.65,3.65,0,0,1,2-.57c1.41,0,2.12.75,2.12,2.24Zm-1-3-1.45.2a2.35,2.35,0,0,0-1,.33,1,1,0,0,0-.34.84.93.93,0,0,0,.32.72,1.22,1.22,0,0,0,.83.28,1.52,1.52,0,0,0,1.18-.51,1.77,1.77,0,0,0,.47-1.26Z" fill="#1e1e1e"/>
      <path d="M360.65,99.27q0,3.32-3.16,3.31a4.31,4.31,0,0,1-1.95-.42v-1a4,4,0,0,0,1.94.57c1.47,0,2.21-.79,2.21-2.36v-.65h0a2.44,2.44,0,0,1-3.87.34,3.19,3.19,0,0,1-.68-2.14,3.73,3.73,0,0,1,.74-2.43,2.44,2.44,0,0,1,2-.91,2,2,0,0,1,1.8,1h0v-.84h1Zm-1-2.23v-.88a1.73,1.73,0,0,0-.48-1.23,1.62,1.62,0,0,0-1.21-.51,1.66,1.66,0,0,0-1.39.65,2.85,2.85,0,0,0-.51,1.81,2.48,2.48,0,0,0,.49,1.6,1.54,1.54,0,0,0,1.28.61,1.66,1.66,0,0,0,1.31-.58A2.12,2.12,0,0,0,359.69,97Z" fill="#1e1e1e"/>
      <path d="M367.42,97h-4.24a2.28,2.28,0,0,0,.54,1.55,1.89,1.89,0,0,0,1.42.55,3,3,0,0,0,1.86-.67v.9a3.47,3.47,0,0,1-2.09.57,2.56,2.56,0,0,1-2-.81,3.37,3.37,0,0,1-.72-2.3,3.29,3.29,0,0,1,.79-2.29,2.58,2.58,0,0,1,2-.88,2.27,2.27,0,0,1,1.82.76,3.2,3.2,0,0,1,.65,2.12Zm-1-.81a1.91,1.91,0,0,0-.4-1.3,1.39,1.39,0,0,0-1.1-.46,1.54,1.54,0,0,0-1.15.49,2.22,2.22,0,0,0-.59,1.27Z" fill="#1e1e1e"/>
      <path d="M368.9,101.66H368a7.75,7.75,0,0,0,1.83-5.12A7.94,7.94,0,0,0,368,91.35h.87a7.78,7.78,0,0,1,1.82,5.2A7.47,7.47,0,0,1,368.9,101.66Z" fill="#1e1e1e"/>
    </g>
    <g>
      <path d="M2.28,259.17V258a2.23,2.23,0,0,0,.48.32,3.69,3.69,0,0,0,.58.23,3.5,3.5,0,0,0,.62.15,3,3,0,0,0,.58.05,2.28,2.28,0,0,0,1.35-.33,1.15,1.15,0,0,0,.45-1,1.1,1.1,0,0,0-.15-.59,1.62,1.62,0,0,0-.41-.46,3.79,3.79,0,0,0-.63-.4l-.77-.4c-.3-.15-.57-.3-.82-.45a4.06,4.06,0,0,1-.67-.51,2.26,2.26,0,0,1-.44-.62,1.94,1.94,0,0,1-.16-.82,2,2,0,0,1,.25-1,2.13,2.13,0,0,1,.67-.7,3,3,0,0,1,.93-.41A4.29,4.29,0,0,1,5.21,251a4.25,4.25,0,0,1,1.81.29v1.11a3.31,3.31,0,0,0-1.91-.51,3.57,3.57,0,0,0-.65.06,2,2,0,0,0-.57.22,1.42,1.42,0,0,0-.41.4,1.07,1.07,0,0,0-.16.58,1.22,1.22,0,0,0,.12.56,1.42,1.42,0,0,0,.36.43,3,3,0,0,0,.57.37c.22.12.48.26.77.4a8.72,8.72,0,0,1,.86.47,3.59,3.59,0,0,1,.71.54,2.42,2.42,0,0,1,.48.67,1.84,1.84,0,0,1,.18.83,2.14,2.14,0,0,1-.24,1.05,1.93,1.93,0,0,1-.66.7,2.8,2.8,0,0,1-1,.39,5.24,5.24,0,0,1-1.14.12l-.49,0c-.19,0-.39-.06-.6-.1a4.74,4.74,0,0,1-.57-.15A1.83,1.83,0,0,1,2.28,259.17Z" fill="#1e1e1e"/>
      <path d="M11.43,259.65a2.79,2.79,0,0,1-2.13-.84,3.12,3.12,0,0,1-.79-2.23,3.23,3.23,0,0,1,.82-2.36,3,3,0,0,1,2.24-.85,2.68,2.68,0,0,1,2.09.82,3.32,3.32,0,0,1,.75,2.3,3.25,3.25,0,0,1-.81,2.3A2.85,2.85,0,0,1,11.43,259.65Zm.07-5.47a1.84,1.84,0,0,0-1.47.63,2.58,2.58,0,0,0-.54,1.73,2.44,2.44,0,0,0,.55,1.69,1.85,1.85,0,0,0,1.46.61,1.77,1.77,0,0,0,1.43-.6,3.23,3.23,0,0,0,0-3.45A1.74,1.74,0,0,0,11.5,254.18Z" fill="#1e1e1e"/>
      <path d="M18.91,251.47a1.21,1.21,0,0,0-.63-.16c-.68,0-1,.43-1,1.27v.93h1.4v.82h-1.4v5.18h-1v-5.18h-1v-.82h1v-1a2,2,0,0,1,.55-1.5,1.84,1.84,0,0,1,1.36-.54,1.86,1.86,0,0,1,.69.1Z" fill="#1e1e1e"/>
      <path d="M22.49,259.45a1.82,1.82,0,0,1-.9.19c-1.05,0-1.57-.59-1.57-1.76v-3.55H19v-.82h1V252l1-.31v1.78h1.51v.82H21v3.38a1.38,1.38,0,0,0,.2.86.83.83,0,0,0,.68.26,1.05,1.05,0,0,0,.63-.2Z" fill="#1e1e1e"/>
      <path d="M31.33,253.51l-1.8,6h-1l-1.24-4.3a2.26,2.26,0,0,1-.09-.55h0a2.44,2.44,0,0,1-.12.54l-1.34,4.31h-1l-1.82-6h1L25.19,258a2.38,2.38,0,0,1,.08.54h.05a2.91,2.91,0,0,1,.1-.55l1.39-4.5h.88L28.93,258a3.36,3.36,0,0,1,.09.54h0a2.61,2.61,0,0,1,.1-.54l1.22-4.52Z" fill="#1e1e1e"/>
      <path d="M36.74,259.51h-1v-.94h0a2,2,0,0,1-1.84,1.08,2,2,0,0,1-1.41-.48,1.64,1.64,0,0,1-.5-1.25c0-1.13.66-1.78,2-2l1.8-.25c0-1-.41-1.53-1.24-1.53a2.94,2.94,0,0,0-2,.74v-1a3.76,3.76,0,0,1,2-.56c1.41,0,2.12.74,2.12,2.24Zm-1-3-1.45.2a2.59,2.59,0,0,0-1,.33,1,1,0,0,0-.34.84.9.9,0,0,0,.32.72,1.16,1.16,0,0,0,.83.28,1.55,1.55,0,0,0,1.18-.5,1.8,1.8,0,0,0,.47-1.27Z" fill="#1e1e1e"/>
      <path d="M41.68,254.48a1.18,1.18,0,0,0-.73-.19,1.23,1.23,0,0,0-1,.58,2.7,2.7,0,0,0-.41,1.58v3.06h-1v-6h1v1.24h0a2.07,2.07,0,0,1,.63-1,1.42,1.42,0,0,1,.94-.36,1.5,1.5,0,0,1,.58.09Z" fill="#1e1e1e"/>
      <path d="M47.54,256.75H43.31a2.21,2.21,0,0,0,.54,1.55,1.85,1.85,0,0,0,1.41.54,2.94,2.94,0,0,0,1.87-.67v.91a3.52,3.52,0,0,1-2.09.57,2.52,2.52,0,0,1-2-.82,3.83,3.83,0,0,1,.06-4.58,2.55,2.55,0,0,1,2-.88,2.25,2.25,0,0,1,1.82.76,3.18,3.18,0,0,1,.64,2.12Zm-1-.82a2,2,0,0,0-.4-1.29,1.37,1.37,0,0,0-1.1-.46,1.59,1.59,0,0,0-1.16.48,2.24,2.24,0,0,0-.58,1.27Z" fill="#1e1e1e"/>
      <path d="M57.4,259.51h-1v-1h0a2.42,2.42,0,0,1-3.87.35,3.28,3.28,0,0,1-.68-2.19,3.62,3.62,0,0,1,.75-2.39,2.5,2.5,0,0,1,2-.89,1.92,1.92,0,0,1,1.8,1h0v-3.71h1Zm-1-2.71v-.89a1.73,1.73,0,0,0-.48-1.23,1.58,1.58,0,0,0-1.22-.5,1.66,1.66,0,0,0-1.38.64,2.85,2.85,0,0,0-.5,1.78,2.56,2.56,0,0,0,.48,1.64,1.59,1.59,0,0,0,1.3.6,1.63,1.63,0,0,0,1.3-.58A2.12,2.12,0,0,0,56.44,256.8Z" fill="#1e1e1e"/>
      <path d="M64.17,256.75H59.94a2.25,2.25,0,0,0,.53,1.55,1.88,1.88,0,0,0,1.42.54,2.94,2.94,0,0,0,1.87-.67v.91a3.53,3.53,0,0,1-2.1.57,2.51,2.51,0,0,1-2-.82,3.83,3.83,0,0,1,.06-4.58,2.55,2.55,0,0,1,2-.88,2.25,2.25,0,0,1,1.82.76,3.18,3.18,0,0,1,.64,2.12Zm-1-.82a2,2,0,0,0-.4-1.29,1.37,1.37,0,0,0-1.1-.46,1.57,1.57,0,0,0-1.16.48,2.24,2.24,0,0,0-.58,1.27Z" fill="#1e1e1e"/>
      <path d="M68.59,251.47a1.24,1.24,0,0,0-.64-.16c-.67,0-1,.43-1,1.27v.93h1.41v.82H66.94v5.18H66v-5.18H65v-.82h1v-1a2.06,2.06,0,0,1,.54-1.5,2.12,2.12,0,0,1,2.06-.44Z" fill="#1e1e1e"/>
      <path d="M69.87,252a.6.6,0,0,1-.44-.18.61.61,0,0,1-.18-.45.59.59,0,0,1,.18-.44.6.6,0,0,1,.44-.18.61.61,0,0,1,.45.18.6.6,0,0,1,0,.88A.62.62,0,0,1,69.87,252Zm.47,7.52h-1v-6h1Z" fill="#1e1e1e"/>
      <path d="M77.27,259.51h-1v-3.42c0-1.28-.47-1.91-1.4-1.91a1.5,1.5,0,0,0-1.19.54,2,2,0,0,0-.47,1.37v3.42h-1v-6h1v1h0a2.17,2.17,0,0,1,2-1.13,1.85,1.85,0,0,1,1.51.63,2.9,2.9,0,0,1,.52,1.84Z" fill="#1e1e1e"/>
      <path d="M83.9,256.75H79.66a2.3,2.3,0,0,0,.54,1.55,1.88,1.88,0,0,0,1.42.54,2.89,2.89,0,0,0,1.86-.67v.91a3.47,3.47,0,0,1-2.09.57,2.53,2.53,0,0,1-2-.82,3.35,3.35,0,0,1-.72-2.3,3.28,3.28,0,0,1,.79-2.28,2.54,2.54,0,0,1,2-.88,2.26,2.26,0,0,1,1.83.76,3.18,3.18,0,0,1,.64,2.12Zm-1-.82a2,2,0,0,0-.41-1.29,1.35,1.35,0,0,0-1.09-.46,1.57,1.57,0,0,0-1.16.48,2.24,2.24,0,0,0-.58,1.27Z" fill="#1e1e1e"/>
      <path d="M90.47,259.51h-1v-1h0a2.42,2.42,0,0,1-3.87.35,3.28,3.28,0,0,1-.68-2.19,3.62,3.62,0,0,1,.75-2.39,2.5,2.5,0,0,1,2-.89,1.91,1.91,0,0,1,1.8,1h0v-3.71h1Zm-1-2.71v-.89a1.73,1.73,0,0,0-.48-1.23,1.58,1.58,0,0,0-1.22-.5,1.66,1.66,0,0,0-1.38.64,2.85,2.85,0,0,0-.5,1.78,2.56,2.56,0,0,0,.48,1.64,1.59,1.59,0,0,0,1.3.6,1.63,1.63,0,0,0,1.3-.58A2.12,2.12,0,0,0,89.51,256.8Z" fill="#1e1e1e"/>
      <path d="M100.69,259.51h-1v-3.42c0-1.28-.47-1.91-1.4-1.91a1.5,1.5,0,0,0-1.19.54,2,2,0,0,0-.47,1.37v3.42h-1v-6h1v1h0a2.17,2.17,0,0,1,2-1.13,1.85,1.85,0,0,1,1.51.63,2.9,2.9,0,0,1,.52,1.84Z" fill="#1e1e1e"/>
      <path d="M107.32,256.75h-4.24a2.3,2.3,0,0,0,.54,1.55,1.88,1.88,0,0,0,1.42.54,2.89,2.89,0,0,0,1.86-.67v.91a3.47,3.47,0,0,1-2.09.57,2.53,2.53,0,0,1-2-.82,3.35,3.35,0,0,1-.72-2.3,3.28,3.28,0,0,1,.79-2.28,2.54,2.54,0,0,1,2-.88,2.26,2.26,0,0,1,1.83.76,3.18,3.18,0,0,1,.64,2.12Zm-1-.82a2,2,0,0,0-.41-1.29,1.35,1.35,0,0,0-1.09-.46,1.57,1.57,0,0,0-1.16.48,2.24,2.24,0,0,0-.58,1.27Z" fill="#1e1e1e"/>
      <path d="M111.56,259.45a1.82,1.82,0,0,1-.9.19c-1,0-1.58-.59-1.58-1.76v-3.55h-1v-.82h1V252l1-.31v1.78h1.52v.82H110v3.38a1.37,1.37,0,0,0,.21.86.83.83,0,0,0,.68.26,1.05,1.05,0,0,0,.63-.2Z" fill="#1e1e1e"/>
      <path d="M120.4,253.51l-1.8,6h-1l-1.23-4.3a2.84,2.84,0,0,1-.1-.55h0a2.44,2.44,0,0,1-.12.54l-1.34,4.31h-1l-1.81-6h1l1.24,4.51a3.12,3.12,0,0,1,.08.54h0a2.29,2.29,0,0,1,.1-.55l1.39-4.5h.87L118,258a3.46,3.46,0,0,1,.08.54h0a2.61,2.61,0,0,1,.1-.54l1.22-4.52Z" fill="#1e1e1e"/>
      <path d="M124,259.65a2.76,2.76,0,0,1-2.12-.84,3.12,3.12,0,0,1-.8-2.23,3.23,3.23,0,0,1,.83-2.36,3,3,0,0,1,2.23-.85,2.68,2.68,0,0,1,2.09.82,3.76,3.76,0,0,1,0,4.6A2.87,2.87,0,0,1,124,259.65Zm.07-5.47a1.8,1.8,0,0,0-1.46.63,2.58,2.58,0,0,0-.54,1.73,2.49,2.49,0,0,0,.54,1.69,1.85,1.85,0,0,0,1.46.61,1.75,1.75,0,0,0,1.43-.6,3.23,3.23,0,0,0,0-3.45A1.73,1.73,0,0,0,124.09,254.18Z" fill="#1e1e1e"/>
      <path d="M131.67,254.48a1.16,1.16,0,0,0-.72-.19,1.21,1.21,0,0,0-1,.58,2.62,2.62,0,0,0-.42,1.58v3.06h-1v-6h1v1.24h0a2,2,0,0,1,.62-1,1.45,1.45,0,0,1,.95-.36,1.41,1.41,0,0,1,.57.09Z" fill="#1e1e1e"/>
      <path d="M137.7,259.51h-1.35l-2.65-2.88h0v2.88h-1v-8.88h1v5.63h0l2.52-2.75h1.26l-2.78,2.89Z" fill="#1e1e1e"/>
      <path d="M142.93,259.51h-1v-8.88h1Z" fill="#1e1e1e"/>
      <path d="M149.17,259.51h-1v-.94h0a2,2,0,0,1-1.84,1.08,2,2,0,0,1-1.41-.48,1.64,1.64,0,0,1-.5-1.25c0-1.13.66-1.78,2-2l1.8-.25c0-1-.42-1.53-1.24-1.53a2.94,2.94,0,0,0-2,.74v-1a3.76,3.76,0,0,1,2-.56c1.41,0,2.12.74,2.12,2.24Zm-1-3-1.45.2a2.59,2.59,0,0,0-1,.33,1,1,0,0,0-.34.84.9.9,0,0,0,.32.72,1.16,1.16,0,0,0,.83.28,1.55,1.55,0,0,0,1.18-.5,1.8,1.8,0,0,0,.47-1.27Z" fill="#1e1e1e"/>
      <path d="M155.75,253.51l-2.76,7q-.74,1.86-2.07,1.86a2.28,2.28,0,0,1-.63-.07v-.86a1.8,1.8,0,0,0,.57.1,1.17,1.17,0,0,0,1.09-.87l.48-1.13-2.34-6h1.06l1.63,4.62c0,.05.06.21.12.45h0c0-.09.05-.24.11-.44l1.71-4.63Z" fill="#1e1e1e"/>
      <path d="M161.61,256.75h-4.24a2.3,2.3,0,0,0,.54,1.55,1.87,1.87,0,0,0,1.42.54,2.91,2.91,0,0,0,1.86-.67v.91a3.5,3.5,0,0,1-2.09.57,2.53,2.53,0,0,1-2-.82,3.35,3.35,0,0,1-.72-2.3,3.28,3.28,0,0,1,.79-2.28,2.54,2.54,0,0,1,2-.88,2.24,2.24,0,0,1,1.82.76,3.18,3.18,0,0,1,.65,2.12Zm-1-.82a1.9,1.9,0,0,0-.4-1.29,1.36,1.36,0,0,0-1.1-.46,1.56,1.56,0,0,0-1.15.48,2.25,2.25,0,0,0-.59,1.27Z" fill="#1e1e1e"/>
      <path d="M166.19,254.48a1.18,1.18,0,0,0-.73-.19,1.23,1.23,0,0,0-1,.58,2.7,2.7,0,0,0-.41,1.58v3.06h-1v-6h1v1.24h0a2.07,2.07,0,0,1,.63-1,1.43,1.43,0,0,1,1-.36,1.41,1.41,0,0,1,.57.09Z" fill="#1e1e1e"/>
    </g>
  </g>
</svg>
