<?xml version="1.0" encoding="UTF-8"?>
<svg class="switchless-diagram__svg" viewBox="0 0 1030 763" role="img" aria-label="Disaggregated host networking diagram" xmlns="http://www.w3.org/2000/svg"><defs><style>:root { --bg-dark: #000000; --card-bg: #111111; --text-primary: #ffffff; --text-secondary: #a1a1aa; --accent-blue: #0078d4; --accent-purple: #8b5cf6; --success: #10b981; --glass-border: rgba(255, 255, 255, 0.1); }</style></defs><rect fill="#000000" x="0" y="0" width="1030" height="763"/><rect x="30" y="55" width="970" height="678" rx="18" fill="rgba(255,255,255,0.02)" stroke="rgba(0,120,212,0.35)" stroke-dasharray="6 4"/><text x="515" y="42" text-anchor="middle" font-size="13" fill="var(--text-secondary)">Disaggregated FC SAN connectivity — 4 ports — Total nodes: 64</text><rect x="320" y="100" width="160" height="50" rx="10" fill="rgba(59,130,246,0.15)" stroke="rgba(59,130,246,0.6)" stroke-width="2"/><text x="400" y="130" text-anchor="middle" font-size="13" fill="var(--text-primary)" font-weight="600">Leaf-A</text><rect x="550" y="100" width="160" height="50" rx="10" fill="rgba(59,130,246,0.15)" stroke="rgba(59,130,246,0.6)" stroke-width="2"/><text x="630" y="130" text-anchor="middle" font-size="13" fill="var(--text-primary)" font-weight="600">Leaf-B</text><line x1="480" y1="125" x2="550" y2="125" stroke="rgba(250,204,21,0.7)" stroke-width="2" stroke-dasharray="6 3"/><text x="515" y="117" text-anchor="middle" font-size="9" fill="rgba(250,204,21,0.9)">iBGP P49</text><rect x="50" y="240" width="440" height="343" rx="16" fill="rgba(255,255,255,0.03)" stroke="var(--glass-border)"/><text x="270" y="268" text-anchor="middle" font-size="14" fill="var(--text-primary)" font-weight="700">node1</text><rect x="415" y="252" width="55" height="22" rx="5" fill="rgba(160,160,160,0.12)" stroke="rgba(160,160,160,0.4)"/><text x="442" y="266" text-anchor="middle" font-size="7.5" fill="var(--text-secondary)">BMC</text><text x="442" y="283" text-anchor="middle" font-size="7" fill="var(--text-secondary)">BMC Switch</text><rect x="115" y="306" width="150" height="114" rx="10" fill="rgba(59,130,246,0.08)" stroke="rgba(59,130,246,0.45)" stroke-dasharray="5 3"/><text x="190" y="301" text-anchor="middle" font-size="9" fill="rgba(59,130,246,0.85)" font-weight="600">Mgmt + Compute</text><rect x="150" y="316" width="80" height="30" rx="6" fill="rgba(59,130,246,0.10)" stroke="rgba(59,130,246,0.55)" stroke-dasharray="4 2"/><text x="190" y="329" text-anchor="middle" font-size="8" fill="var(--text-primary)" font-weight="600">Mgmt vNIC</text><text x="190" y="340" text-anchor="middle" font-size="7" fill="var(--text-secondary)">VLAN 7</text><line x1="121" y1="362" x2="259" y2="362" stroke="rgba(59,130,246,0.3)" stroke-dasharray="3 2"/><rect x="123" y="368" width="62" height="38" rx="6" fill="rgba(59,130,246,0.20)" stroke="rgba(59,130,246,0.60)"/><text x="154" y="384" text-anchor="middle" font-size="8" fill="var(--text-primary)" font-weight="600">OCP-NIC1</text><text x="154" y="396" text-anchor="middle" font-size="7" fill="var(--text-secondary)">25GbE</text><rect x="195" y="368" width="62" height="38" rx="6" fill="rgba(59,130,246,0.20)" stroke="rgba(59,130,246,0.60)"/><text x="226" y="384" text-anchor="middle" font-size="8" fill="var(--text-primary)" font-weight="600">OCP-NIC2</text><text x="226" y="396" text-anchor="middle" font-size="7" fill="var(--text-secondary)">25GbE</text><rect x="267" y="354" width="78" height="66" rx="10" fill="rgba(34,197,94,0.08)" stroke="rgba(34,197,94,0.45)" stroke-dasharray="5 3"/><text x="306" y="349" text-anchor="middle" font-size="9" fill="rgba(34,197,94,0.85)" font-weight="600">Cluster 1</text><rect x="275" y="368" width="62" height="38" rx="6" fill="rgba(34,197,94,0.20)" stroke="rgba(34,197,94,0.60)"/><text x="306" y="384" text-anchor="middle" font-size="8" fill="var(--text-primary)" font-weight="600">PCIe1-NIC3</text><text x="306" y="396" text-anchor="middle" font-size="7" fill="var(--text-secondary)">25GbE</text><text x="306" y="432" text-anchor="middle" font-size="8" fill="rgba(34,197,94,0.75)" font-style="italic">VLAN 711</text><rect x="347" y="354" width="78" height="66" rx="10" fill="rgba(34,197,94,0.08)" stroke="rgba(34,197,94,0.45)" stroke-dasharray="5 3"/><text x="386" y="349" text-anchor="middle" font-size="9" fill="rgba(34,197,94,0.85)" font-weight="600">Cluster 2</text><rect x="355" y="368" width="62" height="38" rx="6" fill="rgba(34,197,94,0.20)" stroke="rgba(34,197,94,0.60)"/><text x="386" y="384" text-anchor="middle" font-size="8" fill="var(--text-primary)" font-weight="600">PCIe1-NIC4</text><text x="386" y="396" text-anchor="middle" font-size="7" fill="var(--text-secondary)">25GbE</text><text x="386" y="432" text-anchor="middle" font-size="8" fill="rgba(34,197,94,0.75)" font-style="italic">VLAN 712</text><text x="270" y="507" text-anchor="middle" font-size="9" fill="rgba(139,92,246,0.85)" font-weight="600">FC HBA — SAN Fabric</text><line x1="70" y1="501" x2="470" y2="501" stroke="rgba(139,92,246,0.2)" stroke-dasharray="4 3"/><rect x="203" y="525" width="62" height="38" rx="6" fill="rgba(139,92,246,0.15)" stroke="rgba(139,92,246,0.55)" stroke-dasharray="4 2"/><text x="234" y="541" text-anchor="middle" font-size="7.5" fill="var(--text-primary)" font-weight="600">FC-HBA1</text><text x="234" y="553" text-anchor="middle" font-size="7" fill="var(--text-secondary)">32G FC</text><rect x="275" y="525" width="62" height="38" rx="6" fill="rgba(139,92,246,0.15)" stroke="rgba(139,92,246,0.55)" stroke-dasharray="4 2"/><text x="306" y="541" text-anchor="middle" font-size="7.5" fill="var(--text-primary)" font-weight="600">FC-HBA2</text><text x="306" y="553" text-anchor="middle" font-size="7" fill="var(--text-secondary)">32G FC</text><line x1="154" y1="368" x2="400" y2="150" stroke="rgba(59,130,246,0.35)" stroke-width="1.5" stroke-dasharray="4 2"/><line x1="226" y1="368" x2="630" y2="150" stroke="rgba(59,130,246,0.35)" stroke-width="1.5" stroke-dasharray="4 2"/><line x1="306" y1="368" x2="400" y2="150" stroke="rgba(34,197,94,0.35)" stroke-width="1.5" stroke-dasharray="4 2"/><line x1="386" y1="368" x2="630" y2="150" stroke="rgba(34,197,94,0.35)" stroke-width="1.5" stroke-dasharray="4 2"/><rect x="540" y="240" width="440" height="343" rx="16" fill="rgba(255,255,255,0.03)" stroke="var(--glass-border)"/><text x="760" y="268" text-anchor="middle" font-size="14" fill="var(--text-primary)" font-weight="700">node2</text><rect x="905" y="252" width="55" height="22" rx="5" fill="rgba(160,160,160,0.12)" stroke="rgba(160,160,160,0.4)"/><text x="932" y="266" text-anchor="middle" font-size="7.5" fill="var(--text-secondary)">BMC</text><text x="932" y="283" text-anchor="middle" font-size="7" fill="var(--text-secondary)">BMC Switch</text><rect x="605" y="306" width="150" height="114" rx="10" fill="rgba(59,130,246,0.08)" stroke="rgba(59,130,246,0.45)" stroke-dasharray="5 3"/><text x="680" y="301" text-anchor="middle" font-size="9" fill="rgba(59,130,246,0.85)" font-weight="600">Mgmt + Compute</text><rect x="640" y="316" width="80" height="30" rx="6" fill="rgba(59,130,246,0.10)" stroke="rgba(59,130,246,0.55)" stroke-dasharray="4 2"/><text x="680" y="329" text-anchor="middle" font-size="8" fill="var(--text-primary)" font-weight="600">Mgmt vNIC</text><text x="680" y="340" text-anchor="middle" font-size="7" fill="var(--text-secondary)">VLAN 7</text><line x1="611" y1="362" x2="749" y2="362" stroke="rgba(59,130,246,0.3)" stroke-dasharray="3 2"/><rect x="613" y="368" width="62" height="38" rx="6" fill="rgba(59,130,246,0.20)" stroke="rgba(59,130,246,0.60)"/><text x="644" y="384" text-anchor="middle" font-size="8" fill="var(--text-primary)" font-weight="600">OCP-NIC1</text><text x="644" y="396" text-anchor="middle" font-size="7" fill="var(--text-secondary)">25GbE</text><rect x="685" y="368" width="62" height="38" rx="6" fill="rgba(59,130,246,0.20)" stroke="rgba(59,130,246,0.60)"/><text x="716" y="384" text-anchor="middle" font-size="8" fill="var(--text-primary)" font-weight="600">OCP-NIC2</text><text x="716" y="396" text-anchor="middle" font-size="7" fill="var(--text-secondary)">25GbE</text><rect x="757" y="354" width="78" height="66" rx="10" fill="rgba(34,197,94,0.08)" stroke="rgba(34,197,94,0.45)" stroke-dasharray="5 3"/><text x="796" y="349" text-anchor="middle" font-size="9" fill="rgba(34,197,94,0.85)" font-weight="600">Cluster 1</text><rect x="765" y="368" width="62" height="38" rx="6" fill="rgba(34,197,94,0.20)" stroke="rgba(34,197,94,0.60)"/><text x="796" y="384" text-anchor="middle" font-size="8" fill="var(--text-primary)" font-weight="600">PCIe1-NIC3</text><text x="796" y="396" text-anchor="middle" font-size="7" fill="var(--text-secondary)">25GbE</text><text x="796" y="432" text-anchor="middle" font-size="8" fill="rgba(34,197,94,0.75)" font-style="italic">VLAN 711</text><rect x="837" y="354" width="78" height="66" rx="10" fill="rgba(34,197,94,0.08)" stroke="rgba(34,197,94,0.45)" stroke-dasharray="5 3"/><text x="876" y="349" text-anchor="middle" font-size="9" fill="rgba(34,197,94,0.85)" font-weight="600">Cluster 2</text><rect x="845" y="368" width="62" height="38" rx="6" fill="rgba(34,197,94,0.20)" stroke="rgba(34,197,94,0.60)"/><text x="876" y="384" text-anchor="middle" font-size="8" fill="var(--text-primary)" font-weight="600">PCIe1-NIC4</text><text x="876" y="396" text-anchor="middle" font-size="7" fill="var(--text-secondary)">25GbE</text><text x="876" y="432" text-anchor="middle" font-size="8" fill="rgba(34,197,94,0.75)" font-style="italic">VLAN 712</text><text x="760" y="507" text-anchor="middle" font-size="9" fill="rgba(139,92,246,0.85)" font-weight="600">FC HBA — SAN Fabric</text><line x1="560" y1="501" x2="960" y2="501" stroke="rgba(139,92,246,0.2)" stroke-dasharray="4 3"/><rect x="693" y="525" width="62" height="38" rx="6" fill="rgba(139,92,246,0.15)" stroke="rgba(139,92,246,0.55)" stroke-dasharray="4 2"/><text x="724" y="541" text-anchor="middle" font-size="7.5" fill="var(--text-primary)" font-weight="600">FC-HBA1</text><text x="724" y="553" text-anchor="middle" font-size="7" fill="var(--text-secondary)">32G FC</text><rect x="765" y="525" width="62" height="38" rx="6" fill="rgba(139,92,246,0.15)" stroke="rgba(139,92,246,0.55)" stroke-dasharray="4 2"/><text x="796" y="541" text-anchor="middle" font-size="7.5" fill="var(--text-primary)" font-weight="600">FC-HBA2</text><text x="796" y="553" text-anchor="middle" font-size="7" fill="var(--text-secondary)">32G FC</text><line x1="644" y1="368" x2="400" y2="150" stroke="rgba(59,130,246,0.35)" stroke-width="1.5" stroke-dasharray="4 2"/><line x1="716" y1="368" x2="630" y2="150" stroke="rgba(59,130,246,0.35)" stroke-width="1.5" stroke-dasharray="4 2"/><line x1="796" y1="368" x2="400" y2="150" stroke="rgba(34,197,94,0.35)" stroke-width="1.5" stroke-dasharray="4 2"/><line x1="876" y1="368" x2="630" y2="150" stroke="rgba(34,197,94,0.35)" stroke-width="1.5" stroke-dasharray="4 2"/><rect x="325" y="603" width="160" height="36" rx="10" fill="rgba(139,92,246,0.12)" stroke="rgba(139,92,246,0.55)" stroke-width="1.5"/><text x="405" y="625" text-anchor="middle" font-size="11" fill="rgba(139,92,246,0.9)" font-weight="600">SAN Fabric A</text><rect x="545" y="603" width="160" height="36" rx="10" fill="rgba(139,92,246,0.12)" stroke="rgba(139,92,246,0.55)" stroke-width="1.5"/><text x="625" y="625" text-anchor="middle" font-size="11" fill="rgba(139,92,246,0.9)" font-weight="600">SAN Fabric B</text><line x1="234" y1="563" x2="405" y2="603" stroke="rgba(139,92,246,0.4)" stroke-width="1.5" stroke-dasharray="5 3"/><line x1="306" y1="563" x2="625" y2="603" stroke="rgba(139,92,246,0.4)" stroke-width="1.5" stroke-dasharray="5 3"/><line x1="724" y1="563" x2="405" y2="603" stroke="rgba(139,92,246,0.4)" stroke-width="1.5" stroke-dasharray="5 3"/><line x1="796" y1="563" x2="625" y2="603" stroke="rgba(139,92,246,0.4)" stroke-width="1.5" stroke-dasharray="5 3"/><rect x="790" y="667" width="180" height="26" rx="13" fill="rgba(255,255,255,0.05)" stroke="var(--glass-border)"/><text x="880" y="684" text-anchor="middle" font-size="12" fill="var(--text-secondary)">+62 more nodes</text></svg>