<?xml version="1.0" encoding="UTF-8"?>
<svg xmlns="http://www.w3.org/2000/svg" class="switchless-diagram__svg" viewBox="0 0 890 781" style="width:100%; max-width:890px;" role="img" aria-label="Host networking preview"><rect x="0" y="0" width="890" height="781" fill="#000000"/><rect x="20" y="45" width="850" height="510" rx="18" fill="rgba(255,255,255,0.02)" stroke="rgba(0,120,212,0.35)" stroke-dasharray="6 4" /><text x="445" y="36" text-anchor="middle" font-size="13" fill="#a1a1aa">Host Networking — iSCSI 6-NIC — 6 ports</text><rect x="140" y="100" width="160" height="50" rx="10" fill="rgba(59,130,246,0.15)" stroke="rgba(59,130,246,0.6)" stroke-width="2" /><text x="220" y="130" text-anchor="middle" font-size="13" fill="#ffffff" font-weight="600">Leaf-A</text><rect x="370" y="100" width="160" height="50" rx="10" fill="rgba(59,130,246,0.15)" stroke="rgba(59,130,246,0.6)" stroke-width="2" /><text x="450" y="130" text-anchor="middle" font-size="13" fill="#ffffff" font-weight="600">Leaf-B</text><line x1="300" y1="125" x2="370" y2="125" stroke="rgba(250,204,21,0.7)" stroke-width="2" stroke-dasharray="6 3" /><text x="335" y="117" text-anchor="middle" font-size="9" fill="rgba(250,204,21,0.9)">iBGP P49</text><rect x="50" y="240" width="570" height="285" rx="16" fill="rgba(255,255,255,0.03)" stroke="rgba(255,255,255,0.1)" /><text x="335" y="268" text-anchor="middle" font-size="14" fill="#ffffff" font-weight="700">Node 1</text><rect x="545" y="252" width="55" height="22" rx="5" fill="rgba(160,160,160,0.12)" stroke="rgba(160,160,160,0.4)" /><text x="572" y="266" text-anchor="middle" font-size="7.5" fill="#a1a1aa">BMC</text><text x="572" y="283" text-anchor="middle" font-size="7" fill="#a1a1aa">BMC Switch</text><rect x="72" y="312" width="150" height="120" rx="10" fill="rgba(59,130,246,0.08)" stroke="rgba(59,130,246,0.45)" stroke-dasharray="5 3" /><text x="147" y="444" text-anchor="middle" font-size="9" fill="rgba(59,130,246,0.85)" font-weight="600">Mgmt + Compute</text><rect x="76" y="318" width="142" height="42" rx="6" fill="rgba(59,130,246,0.10)" stroke="rgba(59,130,246,0.55)" stroke-dasharray="4 2" /><text x="147" y="330" text-anchor="middle" font-size="8" fill="#ffffff" font-weight="600">Mgmt</text><text x="147" y="340" text-anchor="middle" font-size="8" fill="#ffffff" font-weight="600">vNIC</text><text x="147" y="353" text-anchor="middle" font-size="7" fill="#a1a1aa">VLAN 7</text><line x1="78" y1="374" x2="216" y2="374" stroke="rgba(59,130,246,0.3)" stroke-dasharray="3 2" /><rect x="80" y="380" width="62" height="38" rx="6" fill="rgba(59,130,246,0.20)" stroke="rgba(59,130,246,0.60)" /><text x="111" y="396" text-anchor="middle" font-size="8" fill="#ffffff" font-weight="600">OCP-NIC1</text><text x="111" y="408" text-anchor="middle" font-size="7" fill="#a1a1aa">25GbE</text><rect x="152" y="380" width="62" height="38" rx="6" fill="rgba(59,130,246,0.20)" stroke="rgba(59,130,246,0.60)" /><text x="183" y="396" text-anchor="middle" font-size="8" fill="#ffffff" font-weight="600">OCP-NIC2</text><text x="183" y="408" text-anchor="middle" font-size="7" fill="#a1a1aa">25GbE</text><rect x="238" y="366" width="78" height="66" rx="10" fill="rgba(34,197,94,0.08)" stroke="rgba(34,197,94,0.45)" stroke-dasharray="5 3" /><text x="277" y="444" text-anchor="middle" font-size="9" fill="rgba(34,197,94,0.85)" font-weight="600">Cluster Network 1</text><text x="277" y="455" text-anchor="middle" font-size="8" fill="rgba(34,197,94,0.70)">standalone — no SET</text><rect x="246" y="380" width="62" height="38" rx="6" fill="rgba(34,197,94,0.20)" stroke="rgba(34,197,94,0.60)" /><text x="277" y="396" text-anchor="middle" font-size="8" fill="#ffffff" font-weight="600">PCIe1-NIC3</text><text x="277" y="408" text-anchor="middle" font-size="7" fill="#a1a1aa">25GbE</text><text x="277" y="467" text-anchor="middle" font-size="8" fill="rgba(34,197,94,0.75)" font-style="italic">VLAN 1711</text><rect x="332" y="366" width="78" height="66" rx="10" fill="rgba(34,197,94,0.08)" stroke="rgba(34,197,94,0.45)" stroke-dasharray="5 3" /><text x="371" y="444" text-anchor="middle" font-size="9" fill="rgba(34,197,94,0.85)" font-weight="600">Cluster Network 2</text><text x="371" y="455" text-anchor="middle" font-size="8" fill="rgba(34,197,94,0.70)">standalone — no SET</text><rect x="340" y="380" width="62" height="38" rx="6" fill="rgba(34,197,94,0.20)" stroke="rgba(34,197,94,0.60)" /><text x="371" y="396" text-anchor="middle" font-size="8" fill="#ffffff" font-weight="600">PCIe1-NIC4</text><text x="371" y="408" text-anchor="middle" font-size="7" fill="#a1a1aa">25GbE</text><text x="371" y="467" text-anchor="middle" font-size="8" fill="rgba(34,197,94,0.75)" font-style="italic">VLAN 1712</text><rect x="426" y="366" width="78" height="66" rx="10" fill="rgba(139,92,246,0.08)" stroke="rgba(139,92,246,0.45)" stroke-dasharray="5 3" /><text x="465" y="444" text-anchor="middle" font-size="9" fill="rgba(139,92,246,0.85)" font-weight="600">iSCSI Storage A</text><text x="465" y="455" text-anchor="middle" font-size="8" fill="rgba(139,92,246,0.70)">standalone — no SET</text><rect x="434" y="380" width="62" height="38" rx="6" fill="rgba(139,92,246,0.20)" stroke="rgba(139,92,246,0.60)" /><text x="465" y="396" text-anchor="middle" font-size="8" fill="#ffffff" font-weight="600">PCIe2-NIC5</text><text x="465" y="408" text-anchor="middle" font-size="7" fill="#a1a1aa">25GbE</text><text x="465" y="467" text-anchor="middle" font-size="8" fill="rgba(139,92,246,0.75)" font-style="italic">VLAN 300</text><rect x="520" y="366" width="78" height="66" rx="10" fill="rgba(139,92,246,0.08)" stroke="rgba(139,92,246,0.45)" stroke-dasharray="5 3" /><text x="559" y="444" text-anchor="middle" font-size="9" fill="rgba(139,92,246,0.85)" font-weight="600">iSCSI Storage B</text><text x="559" y="455" text-anchor="middle" font-size="8" fill="rgba(139,92,246,0.70)">standalone — no SET</text><rect x="528" y="380" width="62" height="38" rx="6" fill="rgba(139,92,246,0.20)" stroke="rgba(139,92,246,0.60)" /><text x="559" y="396" text-anchor="middle" font-size="8" fill="#ffffff" font-weight="600">PCIe2-NIC6</text><text x="559" y="408" text-anchor="middle" font-size="7" fill="#a1a1aa">25GbE</text><text x="559" y="467" text-anchor="middle" font-size="8" fill="rgba(139,92,246,0.75)" font-style="italic">VLAN 400</text><line x1="147" y1="318" x2="220" y2="150" stroke="rgba(59,130,246,0.35)" stroke-width="1.5" stroke-dasharray="4 2" /><line x1="147" y1="318" x2="450" y2="150" stroke="rgba(59,130,246,0.35)" stroke-width="1.5" stroke-dasharray="4 2" /><line x1="277" y1="380" x2="220" y2="150" stroke="rgba(34,197,94,0.35)" stroke-width="1.5" stroke-dasharray="4 2" /><line x1="371" y1="380" x2="450" y2="150" stroke="rgba(34,197,94,0.35)" stroke-width="1.5" stroke-dasharray="4 2" /><line x1="465" y1="380" x2="220" y2="150" stroke="rgba(139,92,246,0.35)" stroke-width="1.5" stroke-dasharray="4 2" /><line x1="559" y1="380" x2="450" y2="150" stroke="rgba(139,92,246,0.35)" stroke-width="1.5" stroke-dasharray="4 2" /><rect x="580" y="97" width="170" height="56" rx="10" fill="rgba(139,92,246,0.12)" stroke="rgba(139,92,246,0.6)" stroke-width="2" /><text x="665" y="119" text-anchor="middle" font-size="11" fill="rgba(139,92,246,0.95)" font-weight="700">iSCSI Storage Array</text><text x="665" y="135" text-anchor="middle" font-size="8" fill="#a1a1aa">Dual Controllers (A + B)</text><text x="665" y="147" text-anchor="middle" font-size="7" fill="#a1a1aa">MPIO Active/Active</text><polyline points="300,100 300,82 580,82 580,113" fill="none" stroke="rgba(139,92,246,0.4)" stroke-width="1.5" stroke-dasharray="5 3" /><line x1="530" y1="138" x2="580" y2="137" stroke="rgba(139,92,246,0.4)" stroke-width="1.5" stroke-dasharray="5 3" /><text x="30" y="557" font-size="12" font-weight="700" fill="#ffffff">Net Adapter Team Mapping</text><rect x="30" y="569" width="830" height="50" rx="4" fill="rgba(59,130,246,0.06)" stroke="rgba(59,130,246,0.4)" /><rect x="30" y="569" width="3" height="50" fill="rgba(59,130,246,0.85)" /><text x="40" y="585" font-size="11" font-weight="700" fill="rgba(59,130,246,0.95)">Mgmt + Compute (ATC SET)</text><text x="40" y="597" font-size="10" fill="#a1a1aa">Members: OCP-NIC1, OCP-NIC2</text><text x="40" y="609" font-size="10" fill="#a1a1aa">Host vNICs: Mgmt vNIC (VLAN 7)</text><rect x="30" y="627" width="830" height="50" rx="4" fill="rgba(34,197,94,0.06)" stroke="rgba(34,197,94,0.4)" /><rect x="30" y="627" width="3" height="50" fill="rgba(34,197,94,0.85)" /><text x="40" y="643" font-size="11" font-weight="700" fill="rgba(34,197,94,0.95)">Cluster Networks (standalone — no SET)</text><text x="40" y="655" font-size="10" fill="#a1a1aa">Members: PCIe1-NIC3, PCIe1-NIC4</text><text x="40" y="667" font-size="10" fill="#a1a1aa">VLANs: 1711, 1712 (bare-metal, no host vNIC)</text><rect x="30" y="685" width="830" height="50" rx="4" fill="rgba(139,92,246,0.06)" stroke="rgba(139,92,246,0.4)" /><rect x="30" y="685" width="3" height="50" fill="rgba(139,92,246,0.85)" /><text x="40" y="701" font-size="11" font-weight="700" fill="rgba(139,92,246,0.95)">iSCSI Path A/B (standalone — no SET)</text><text x="40" y="713" font-size="10" fill="#a1a1aa">Members: PCIe2-NIC5, PCIe2-NIC6</text><text x="40" y="725" font-size="10" fill="#a1a1aa">VLANs: 300 (Path A), 400 (Path B) — MPIO, bare-metal</text></svg>
