<svg xmlns="http://www.w3.org/2000/svg" width="1130" height="296" viewBox="0 0 1130 296" style="width:100%;max-width:1130px;background:#1a1a2e;font-family:-apple-system,BlinkMacSystemFont,'Segoe UI',sans-serif;border-radius:6px;"><text x="565" y="22" text-anchor="middle" fill="#e0e0e0" font-size="13" font-weight="600">Clos Fabric Topology — BGP Peering &amp; Loopback Map</text><line x1="483" y1="70" x2="473" y2="120" stroke="rgba(255,255,255,0.35)" stroke-width="1.5" stroke-dasharray="4,3"/><line x1="483" y1="70" x2="657" y2="120" stroke="rgba(255,255,255,0.35)" stroke-width="1.5" stroke-dasharray="4,3"/><line x1="647" y1="70" x2="473" y2="120" stroke="rgba(255,255,255,0.35)" stroke-width="1.5" stroke-dasharray="4,3"/><line x1="647" y1="70" x2="657" y2="120" stroke="rgba(255,255,255,0.35)" stroke-width="1.5" stroke-dasharray="4,3"/><line x1="473" y1="156" x2="95" y2="210" stroke="rgba(255,255,255,0.15)" stroke-width="1"/><line x1="473" y1="156" x2="225" y2="210" stroke="rgba(255,255,255,0.15)" stroke-width="1"/><line x1="473" y1="156" x2="365" y2="210" stroke="rgba(255,255,255,0.15)" stroke-width="1"/><line x1="473" y1="156" x2="495" y2="210" stroke="rgba(255,255,255,0.15)" stroke-width="1"/><line x1="473" y1="156" x2="635" y2="210" stroke="rgba(255,255,255,0.15)" stroke-width="1"/><line x1="473" y1="156" x2="765" y2="210" stroke="rgba(255,255,255,0.15)" stroke-width="1"/><line x1="473" y1="156" x2="905" y2="210" stroke="rgba(255,255,255,0.15)" stroke-width="1"/><line x1="473" y1="156" x2="1035" y2="210" stroke="rgba(255,255,255,0.15)" stroke-width="1"/><line x1="657" y1="156" x2="95" y2="210" stroke="rgba(255,255,255,0.15)" stroke-width="1"/><line x1="657" y1="156" x2="225" y2="210" stroke="rgba(255,255,255,0.15)" stroke-width="1"/><line x1="657" y1="156" x2="365" y2="210" stroke="rgba(255,255,255,0.15)" stroke-width="1"/><line x1="657" y1="156" x2="495" y2="210" stroke="rgba(255,255,255,0.15)" stroke-width="1"/><line x1="657" y1="156" x2="635" y2="210" stroke="rgba(255,255,255,0.15)" stroke-width="1"/><line x1="657" y1="156" x2="765" y2="210" stroke="rgba(255,255,255,0.15)" stroke-width="1"/><line x1="657" y1="156" x2="905" y2="210" stroke="rgba(255,255,255,0.15)" stroke-width="1"/><line x1="657" y1="156" x2="1035" y2="210" stroke="rgba(255,255,255,0.15)" stroke-width="1"/><rect x="393" y="120" width="160" height="36" rx="5" fill="#1a6fc4" stroke="#2a8ad4" stroke-width="1.5"/><text x="473" y="135" text-anchor="middle" fill="white" font-size="11" font-weight="600">Spine 1</text><text x="473" y="148" text-anchor="middle" fill="rgba(255,255,255,0.6)" font-size="9">ASN 64841</text><rect x="577" y="120" width="160" height="36" rx="5" fill="#1a6fc4" stroke="#2a8ad4" stroke-width="1.5"/><text x="657" y="135" text-anchor="middle" fill="white" font-size="11" font-weight="600">Spine 2</text><text x="657" y="148" text-anchor="middle" fill="rgba(255,255,255,0.6)" font-size="9">ASN 64841</text><rect x="413" y="40" width="140" height="30" rx="4" fill="#14b8a6" stroke="#0d9488" stroke-width="1.5"/><text x="483" y="53" text-anchor="middle" fill="white" font-size="10" font-weight="600">Service Leaf A</text><text x="483" y="65" text-anchor="middle" fill="rgba(255,255,255,0.6)" font-size="8">ASN 65005</text><rect x="577" y="40" width="140" height="30" rx="4" fill="#14b8a6" stroke="#0d9488" stroke-width="1.5"/><text x="647" y="53" text-anchor="middle" fill="white" font-size="10" font-weight="600">Service Leaf B</text><text x="647" y="65" text-anchor="middle" fill="rgba(255,255,255,0.6)" font-size="8">ASN 65005</text><rect x="32" y="192" width="256" height="58" rx="6" fill="none" stroke="#444466" stroke-width="1" stroke-dasharray="4,2"/><text x="160" y="205" text-anchor="middle" fill="#999" font-size="9">Rack 1 (ASN 64789)</text><rect x="40" y="210" width="110" height="26" rx="4" fill="#6b7280" stroke="#888" stroke-width="1"/><text x="95" y="221" text-anchor="middle" fill="white" font-size="9" font-weight="600">Leaf 1A</text><text x="95" y="232" text-anchor="middle" fill="rgba(255,255,255,0.6)" font-size="7">Loopback</text><rect x="170" y="210" width="110" height="26" rx="4" fill="#6b7280" stroke="#888" stroke-width="1"/><text x="225" y="221" text-anchor="middle" fill="white" font-size="9" font-weight="600">Leaf 1B</text><text x="225" y="232" text-anchor="middle" fill="rgba(255,255,255,0.6)" font-size="7">Loopback</text><rect x="302" y="192" width="256" height="58" rx="6" fill="none" stroke="#444466" stroke-width="1" stroke-dasharray="4,2"/><text x="430" y="205" text-anchor="middle" fill="#999" font-size="9">Rack 2 (ASN 64790)</text><rect x="310" y="210" width="110" height="26" rx="4" fill="#6b7280" stroke="#888" stroke-width="1"/><text x="365" y="221" text-anchor="middle" fill="white" font-size="9" font-weight="600">Leaf 2A</text><text x="365" y="232" text-anchor="middle" fill="rgba(255,255,255,0.6)" font-size="7">Loopback</text><rect x="440" y="210" width="110" height="26" rx="4" fill="#6b7280" stroke="#888" stroke-width="1"/><text x="495" y="221" text-anchor="middle" fill="white" font-size="9" font-weight="600">Leaf 2B</text><text x="495" y="232" text-anchor="middle" fill="rgba(255,255,255,0.6)" font-size="7">Loopback</text><rect x="572" y="192" width="256" height="58" rx="6" fill="none" stroke="#444466" stroke-width="1" stroke-dasharray="4,2"/><text x="700" y="205" text-anchor="middle" fill="#999" font-size="9">Rack 3 (ASN 64791)</text><rect x="580" y="210" width="110" height="26" rx="4" fill="#6b7280" stroke="#888" stroke-width="1"/><text x="635" y="221" text-anchor="middle" fill="white" font-size="9" font-weight="600">Leaf 3A</text><text x="635" y="232" text-anchor="middle" fill="rgba(255,255,255,0.6)" font-size="7">Loopback</text><rect x="710" y="210" width="110" height="26" rx="4" fill="#6b7280" stroke="#888" stroke-width="1"/><text x="765" y="221" text-anchor="middle" fill="white" font-size="9" font-weight="600">Leaf 3B</text><text x="765" y="232" text-anchor="middle" fill="rgba(255,255,255,0.6)" font-size="7">Loopback</text><rect x="842" y="192" width="256" height="58" rx="6" fill="none" stroke="#444466" stroke-width="1" stroke-dasharray="4,2"/><text x="970" y="205" text-anchor="middle" fill="#999" font-size="9">Rack 4 (ASN 64792)</text><rect x="850" y="210" width="110" height="26" rx="4" fill="#6b7280" stroke="#888" stroke-width="1"/><text x="905" y="221" text-anchor="middle" fill="white" font-size="9" font-weight="600">Leaf 4A</text><text x="905" y="232" text-anchor="middle" fill="rgba(255,255,255,0.6)" font-size="7">Loopback</text><rect x="980" y="210" width="110" height="26" rx="4" fill="#6b7280" stroke="#888" stroke-width="1"/><text x="1035" y="221" text-anchor="middle" fill="white" font-size="9" font-weight="600">Leaf 4B</text><text x="1035" y="232" text-anchor="middle" fill="rgba(255,255,255,0.6)" font-size="7">Loopback</text><rect x="400" y="272" width="10" height="10" rx="2" fill="#1a6fc4"/><text x="414" y="281" fill="#999" font-size="9">Spine</text><rect x="510" y="272" width="10" height="10" rx="2" fill="#14b8a6"/><text x="524" y="281" fill="#999" font-size="9">Service Leaf</text><rect x="620" y="272" width="10" height="10" rx="2" fill="#6b7280"/><text x="634" y="281" fill="#999" font-size="9">Rack Leaf</text></svg>