<svg xmlns="http://www.w3.org/2000/svg" xmlns:xlink="http://www.w3.org/1999/xlink" viewBox="0 0 556.74 340.46">
  <defs>
    <linearGradient id="linear-gradient" x1="12.91" y1="9.53" x2="12.91" y2="14.03" gradientUnits="userSpaceOnUse">
      <stop offset="0" stop-color="#005ba1"/>
      <stop offset="0.26" stop-color="#00589d"/>
      <stop offset="0.53" stop-color="#004f90"/>
      <stop offset="0.8" stop-color="#003f7c"/>
      <stop offset="1" stop-color="#003067"/>
    </linearGradient>
    <linearGradient id="linear-gradient-2" x1="12.91" y1="5.02" x2="12.91" y2="8.17" xlink:href="#linear-gradient"/>
    <linearGradient id="linear-gradient-3" x1="20.86" y1="3.07" x2="25" y2="3.07" xlink:href="#linear-gradient"/>
    <linearGradient id="linear-gradient-4" x1="20.86" y1="17.41" x2="25" y2="17.41" xlink:href="#linear-gradient"/>
    <linearGradient id="linear-gradient-5" x1="1.56" y1="3.07" x2="5.71" y2="3.07" xlink:href="#linear-gradient"/>
    <linearGradient id="linear-gradient-6" x1="1.11" y1="17.41" x2="5.26" y2="17.41" xlink:href="#linear-gradient"/>
    <linearGradient id="linear-gradient-7" x1="143.69" y1="635.14" x2="143.69" y2="600.75" gradientTransform="matrix(1, 0, 0, -1, 0, 646.4)" gradientUnits="userSpaceOnUse">
      <stop offset="0.18" stop-color="#5ea0ef"/>
      <stop offset="1" stop-color="#0078d4"/>
    </linearGradient>
    <linearGradient id="linear-gradient-8" x1="23.64" y1="455.19" x2="23.64" y2="431.32" gradientTransform="matrix(1, 0, 0, -1, 0, 646.4)" gradientUnits="userSpaceOnUse">
      <stop offset="0" stop-color="#5ea0ef"/>
      <stop offset="0.18" stop-color="#559cec"/>
      <stop offset="0.47" stop-color="#3c91e5"/>
      <stop offset="0.84" stop-color="#1380da"/>
      <stop offset="1" stop-color="#0078d4"/>
    </linearGradient>
    <linearGradient id="linear-gradient-9" x1="19.65" y1="431.07" x2="19.65" y2="442.64" gradientTransform="matrix(1, 0, 0, -1, 0, 646.4)" gradientUnits="userSpaceOnUse">
      <stop offset="0" stop-color="#198ab3"/>
      <stop offset="0.14" stop-color="#22a5cb"/>
      <stop offset="0.3" stop-color="#29bade"/>
      <stop offset="0.47" stop-color="#2ec9eb"/>
      <stop offset="0.68" stop-color="#31d1f3"/>
      <stop offset="1" stop-color="#32d4f5"/>
    </linearGradient>
    <linearGradient id="linear-gradient-10" x1="63.19" y1="549.05" x2="63.19" y2="574.21" gradientTransform="matrix(1, 0, 0, -1, 0, 646.4)" gradientUnits="userSpaceOnUse">
      <stop offset="0" stop-color="#0078d4"/>
      <stop offset="0.82" stop-color="#5ea0ef"/>
    </linearGradient>
    <linearGradient id="linear-gradient-11" x1="223.67" y1="549.05" x2="223.67" y2="574.21" xlink:href="#linear-gradient-10"/>
    <linearGradient id="linear-gradient-12" x1="438.54" y1="635.14" x2="438.54" y2="600.75" xlink:href="#linear-gradient-7"/>
    <linearGradient id="linear-gradient-13" x1="319.38" y1="455.19" x2="319.38" y2="431.32" xlink:href="#linear-gradient-8"/>
    <linearGradient id="linear-gradient-14" x1="315.39" y1="431.07" x2="315.39" y2="442.64" xlink:href="#linear-gradient-9"/>
    <linearGradient id="linear-gradient-15" x1="360.29" y1="484.76" x2="360.29" y2="509.92" xlink:href="#linear-gradient-10"/>
    <linearGradient id="linear-gradient-16" x1="520.05" y1="484.76" x2="520.05" y2="509.92" xlink:href="#linear-gradient-10"/>
    <linearGradient id="linear-gradient-17" x1="436.06" y1="539.15" x2="436.06" y2="564.85" gradientTransform="matrix(1, 0, 0, -1.01, 0, 642.18)" gradientUnits="userSpaceOnUse">
      <stop offset="0" stop-color="#5e9624"/>
      <stop offset="0.01" stop-color="#5f9724"/>
      <stop offset="0.35" stop-color="#6cab29"/>
      <stop offset="0.68" stop-color="#73b82c"/>
      <stop offset="1" stop-color="#76bc2d"/>
    </linearGradient>
    <symbol id="New_Symbol_5" data-name="New Symbol 5" viewBox="0 0 25.89 20.48">
      <g>
        <path d="M21.68,8.14,18.42,5H7.35L4.1,8.14h.16a.88.88,0,0,0-.16.51V13.1a.87.87,0,0,0,.84.9H20.83a.87.87,0,0,0,.85-.9V8.65a.88.88,0,0,0-.16-.51Z" fill="#fff" stroke="#fff" stroke-linejoin="round" stroke-width="2" fill-rule="evenodd"/>
        <circle cx="10.86" cy="11.74" r="0.9" fill="none"/>
        <path d="M20.85,9.53H5a.76.76,0,0,0-.84.64v3.22A.77.77,0,0,0,5,14H20.85a.76.76,0,0,0,.84-.64V10.17C21.69,9.81,21.32,9.53,20.85,9.53Zm-14,3.15a.9.9,0,1,1,.9-.9A.9.9,0,0,1,6.82,12.68Zm4.06,0a.9.9,0,1,1,.9-.9A.9.9,0,0,1,10.88,12.68Zm4,0a.9.9,0,1,1,.91-.9A.9.9,0,0,1,14.93,12.68Zm4.06,0a.9.9,0,1,1,.9-.9A.9.9,0,0,1,19,12.68Z" fill-rule="evenodd" fill="url(#linear-gradient)"/>
        <polygon points="18.44 5.02 7.37 5.02 4.12 8.17 21.7 8.17 18.44 5.02" fill-rule="evenodd" fill="url(#linear-gradient-2)"/>
      </g>
      <g id="lowPriority40x40">
        <polygon points="24.09 2.43 24.09 4.98 24.89 4.19 24.89 1 21.7 1 20.9 1.8 23.45 1.8 20.74 4.5 21.38 5.14 24.09 2.43" fill="none" stroke="#fff" stroke-miterlimit="10" stroke-width="2"/>
      </g>
      <g id="lowPriority40x40-2" data-name="lowPriority40x40">
        <polygon points="24.09 18.05 24.09 15.49 24.89 16.29 24.89 19.48 21.7 19.48 20.9 18.68 23.45 18.68 20.74 15.97 21.38 15.34 24.09 18.05" fill="none" stroke="#fff" stroke-miterlimit="10" stroke-width="2"/>
      </g>
      <g id="lowPriority40x40-3" data-name="lowPriority40x40">
        <polygon points="2.25 2.43 2.25 4.98 1.45 4.19 1.45 1 4.64 1 5.43 1.8 2.88 1.8 5.59 4.5 4.96 5.14 2.25 2.43" fill="none" stroke="#fff" stroke-miterlimit="10" stroke-width="2"/>
      </g>
      <g id="lowPriority40x40-4" data-name="lowPriority40x40">
        <polygon points="1.8 18.05 1.8 15.49 1 16.29 1 19.48 4.19 19.48 4.98 18.68 2.43 18.68 5.14 15.97 4.5 15.34 1.8 18.05" fill="none" stroke="#fff" stroke-miterlimit="10" stroke-width="2"/>
      </g>
      <path d="M6.86,12.72a.9.9,0,1,1,.9-.9A.9.9,0,0,1,6.86,12.72Zm4.06,0a.9.9,0,1,1,.9-.9A.91.91,0,0,1,10.92,12.72Zm4.05,0a.9.9,0,1,1,.9-.9A.9.9,0,0,1,15,12.72Zm4.06,0a.9.9,0,1,1,.9-.9A.9.9,0,0,1,19,12.72Z" fill="none"/>
      <circle cx="10.92" cy="11.82" r="0.9" fill="none"/>
      <g id="lowPriority40x40-5" data-name="lowPriority40x40">
        <polygon points="24.2 2.43 24.2 4.98 25 4.19 25 1 21.81 1 21.02 1.8 23.57 1.8 20.86 4.5 21.5 5.14 24.2 2.43" fill="url(#linear-gradient-3)"/>
      </g>
      <g id="lowPriority40x40-6" data-name="lowPriority40x40">
        <polygon points="24.2 18.05 24.2 15.49 25 16.29 25 19.48 21.81 19.48 21.02 18.68 23.57 18.68 20.86 15.97 21.5 15.34 24.2 18.05" fill="url(#linear-gradient-4)"/>
      </g>
      <g id="lowPriority40x40-7" data-name="lowPriority40x40">
        <polygon points="2.36 2.43 2.36 4.98 1.56 4.19 1.56 1 4.75 1 5.55 1.8 3 1.8 5.71 4.5 5.07 5.14 2.36 2.43" fill="url(#linear-gradient-5)"/>
      </g>
      <g id="lowPriority40x40-8" data-name="lowPriority40x40">
        <polygon points="1.91 18.05 1.91 15.49 1.11 16.29 1.11 19.48 4.3 19.48 5.1 18.68 2.55 18.68 5.25 15.97 4.62 15.34 1.91 18.05" fill="url(#linear-gradient-6)"/>
      </g>
    </symbol>
  </defs>
  <g id="Shapes">
    <rect width="556.74" height="340.46" fill="#fff"/>
    <g>
      <rect x="321.49" y="51.2" width="235" height="125" fill="#fff"/>
      <rect x="321.49" y="51.2" width="235" height="125" fill="#3c3c41" opacity="0.15"/>
    </g>
    <g>
      <rect x="321.49" y="206.2" width="235" height="134.01" fill="#fff"/>
      <rect x="321.49" y="206.2" width="235" height="134.01" fill="#0072c6" opacity="0.05"/>
      <rect x="321.49" y="206.2" width="235" height="134.01" fill="none" stroke="#0072c6" stroke-miterlimit="10" stroke-width="0.5" opacity="0.6"/>
    </g>
    <g>
      <rect x="25.74" y="51.2" width="235" height="125" fill="#fff"/>
      <rect x="25.74" y="51.2" width="235" height="125" fill="#3c3c41" opacity="0.15"/>
    </g>
    <path d="M160.9,32.36a7.85,7.85,0,0,0-6.72-7.6,9.88,9.88,0,0,0-10.06-9.56,10.11,10.11,0,0,0-9.56,6.69A9.31,9.31,0,0,0,126.48,31a9.57,9.57,0,0,0,9.71,9.22h17A7.94,7.94,0,0,0,160.9,32.36Z" fill="url(#linear-gradient-7)"/>
    <g>
      <rect x="25.74" y="206.2" width="235" height="134.01" fill="#fff"/>
      <rect x="25.74" y="206.2" width="235" height="134.01" fill="#0072c6" opacity="0.05"/>
      <rect x="25.74" y="206.2" width="235" height="134.01" fill="none" stroke="#0072c6" stroke-miterlimit="10" stroke-width="0.5" opacity="0.6"/>
    </g>
    <g id="b1186d34-5ca3-4e43-992d-40ecef5e891b">
      <g>
        <path d="M29.85,191.21H17.44a.81.81,0,0,0-.81.79v17.69a14.87,14.87,0,0,1,2-1.42H21L22.3,210v2.63l-1.65,1.19-2.28-.29-1.74-1.64v2.4a.81.81,0,0,0,.81.79H29.85a.8.8,0,0,0,.8-.79V192A.79.79,0,0,0,29.85,191.21Z" fill="url(#linear-gradient-8)"/>
        <path id="af47f827-8b1b-4acd-8974-8eafe35490c9" d="M18.49,193.69h2.28a.2.2,0,0,1,.2.2h0v3a.2.2,0,0,1-.2.19H18.49a.2.2,0,0,1-.2-.19h0v-3a.2.2,0,0,1,.2-.2Zm4,0h2.28a.2.2,0,0,1,.2.2h0v3a.2.2,0,0,1-.2.19H22.5a.2.2,0,0,1-.2-.19h0v-3a.2.2,0,0,1,.2-.2Zm4,0h2.29a.19.19,0,0,1,.19.2h0v3a.19.19,0,0,1-.19.19H26.52a.19.19,0,0,1-.19-.19h0v-3a.19.19,0,0,1,.19-.2Zm-8,5.33h2.28a.2.2,0,0,1,.2.2h0v3a.2.2,0,0,1-.2.2H18.49a.2.2,0,0,1-.2-.2h0v-2.94a.2.2,0,0,1,.17-.23Zm4,0h2.28a.2.2,0,0,1,.2.2h0v3a.2.2,0,0,1-.2.2H22.5a.2.2,0,0,1-.2-.2h0v-2.94a.2.2,0,0,1,.17-.23Zm4,0h2.29a.19.19,0,0,1,.19.2h0v3a.19.19,0,0,1-.19.2H26.52a.19.19,0,0,1-.19-.2h0v-2.94a.2.2,0,0,1,.16-.23Zm-8,5.38h2.28a.2.2,0,0,1,.2.2h0v2.92a.2.2,0,0,1-.2.2H18.49a.2.2,0,0,1-.2-.2V204.6A.2.2,0,0,1,18.49,204.4Zm4,0h2.28a.2.2,0,0,1,.2.2h0v2.92a.2.2,0,0,1-.2.2H22.5a.2.2,0,0,1-.2-.2h0V204.6A.2.2,0,0,1,22.5,204.4Zm0,5.36h2.28a.2.2,0,0,1,.2.2h0v4.37a.2.2,0,0,1-.2.2H22.5a.2.2,0,0,1-.2-.2V210a.2.2,0,0,1,.2-.2Zm4-5.36h2.29a.19.19,0,0,1,.19.2h0v2.92a.19.19,0,0,1-.19.2H26.52a.19.19,0,0,1-.19-.2h0V204.6A.19.19,0,0,1,26.52,204.4Z" fill="#f2f2f2"/>
        <path d="M19.68,208.94a1.85,1.85,0,0,0-1.76,1.42H11.54a4.06,4.06,0,0,0-.11.92v.08h6.49a1.83,1.83,0,1,0,1.76-2.42Z" fill="#50e6ff"/>
        <path d="M24.64,208.18a4.62,4.62,0,0,0-4.82-4.41,4.74,4.74,0,0,0-4.54,3.09,4.52,4.52,0,0,0-3.6,2.83h5.87a2.41,2.41,0,1,1,0,2.09h-6a4.53,4.53,0,0,0,4.5,3.43h8.06a3.73,3.73,0,0,0,3.68-3.43A3.68,3.68,0,0,0,24.64,208.18Z" fill="url(#linear-gradient-9)"/>
        <path d="M19.68,208.94a1.85,1.85,0,0,0-1.76,1.42H11.54a3.08,3.08,0,0,1-.67-.09,3.21,3.21,0,0,1,.36-6.35h.31l.1-.28a3.61,3.61,0,0,1,3.49-2.42,3.72,3.72,0,0,1,3.23,1.8,4.22,4.22,0,0,1,1.06-.13,4.71,4.71,0,0,0-4.25-2.68A4.65,4.65,0,0,0,10.79,203a4.17,4.17,0,0,0-.33,8.17h0a2.84,2.84,0,0,0,1,.17h6.42a1.83,1.83,0,1,0,1.76-2.37Z" fill="#50e6ff"/>
      </g>
    </g>
    <g>
      <g>
        <rect x="45.69" y="228.63" width="35" height="30" fill="#fff"/>
        <rect x="45.69" y="228.63" width="35" height="30" fill="#3c3c41" opacity="0.02"/>
        <rect x="45.69" y="228.63" width="35" height="30" fill="none" stroke="#75757a" stroke-miterlimit="10" stroke-width="0.5" opacity="0.5"/>
      </g>
      <use width="25.89" height="20.48" transform="translate(50.64 233.39)" xlink:href="#New_Symbol_5"/>
    </g>
    <g>
      <g>
        <rect x="206.97" y="228.63" width="35" height="30" fill="#fff"/>
        <rect x="206.97" y="228.63" width="35" height="30" fill="#3c3c41" opacity="0.02"/>
        <rect x="206.97" y="228.63" width="35" height="30" fill="none" stroke="#75757a" stroke-miterlimit="10" stroke-width="0.5" opacity="0.5"/>
      </g>
      <use width="25.89" height="20.48" transform="translate(211.91 233.39)" xlink:href="#New_Symbol_5"/>
    </g>
    <g>
      <g>
        <line x1="63.12" y1="104.19" x2="63.12" y2="137.19" fill="none" stroke="#767676" stroke-linecap="round" stroke-linejoin="round" stroke-width="0.5"/>
        <path d="M215.29,104.19,70.59,126.73a3.63,3.63,0,0,0-3,3.46v7" fill="none" stroke="#767676" stroke-linecap="round" stroke-linejoin="round" stroke-width="0.5"/>
      </g>
      <g>
        <line x1="224.47" y1="104.19" x2="224.47" y2="137.19" fill="none" stroke="#767676" stroke-linecap="round" stroke-linejoin="round" stroke-width="0.5"/>
        <path d="M71,104.19l145.81,22.55a3.61,3.61,0,0,1,3,3.45v7" fill="none" stroke="#767676" stroke-linecap="round" stroke-linejoin="round" stroke-width="0.5"/>
      </g>
    </g>
    <g>
      <g>
        <line x1="63.12" y1="170.2" x2="63.12" y2="227.19" fill="none" stroke="#767676" stroke-linecap="round" stroke-linejoin="round" stroke-width="0.5"/>
        <path d="M215.29,171.19,70.53,208.86a4.1,4.1,0,0,0-2.9,3.76v14.57" fill="none" stroke="#767676" stroke-linecap="round" stroke-linejoin="round" stroke-width="0.5"/>
      </g>
      <g>
        <line x1="224.47" y1="170.2" x2="224.47" y2="227.19" fill="none" stroke="#767676" stroke-linecap="round" stroke-linejoin="round" stroke-width="0.5"/>
        <path d="M71,171.19l145.87,37.68a4.08,4.08,0,0,1,2.9,3.75v14.57" fill="none" stroke="#767676" stroke-linecap="round" stroke-linejoin="round" stroke-width="0.5"/>
      </g>
    </g>
    <g>
      <g>
        <rect x="45.69" y="138.55" width="35" height="30" fill="#fff"/>
        <rect x="45.69" y="138.55" width="35" height="30" fill="#3c3c41" opacity="0.02"/>
        <rect x="45.69" y="138.55" width="35" height="30" fill="none" stroke="#75757a" stroke-miterlimit="10" stroke-width="0.5" opacity="0.5"/>
      </g>
      <use width="25.89" height="20.48" transform="translate(50.64 143.31)" xlink:href="#New_Symbol_5"/>
    </g>
    <g>
      <g>
        <rect x="206.97" y="138.55" width="35" height="30" fill="#fff"/>
        <rect x="206.97" y="138.55" width="35" height="30" fill="#3c3c41" opacity="0.02"/>
        <rect x="206.97" y="138.55" width="35" height="30" fill="none" stroke="#75757a" stroke-miterlimit="10" stroke-width="0.5" opacity="0.5"/>
      </g>
      <use width="25.89" height="20.48" transform="translate(211.91 143.31)" xlink:href="#New_Symbol_5"/>
    </g>
    <g>
      <line x1="83.32" y1="250.8" x2="204.32" y2="250.8" fill="none" stroke="#231f20" stroke-width="4"/>
      <line x1="83.32" y1="250.8" x2="204.32" y2="250.8" fill="none" stroke="#fff" stroke-width="2"/>
    </g>
    <g>
      <line x1="83.32" y1="233.41" x2="204.32" y2="233.41" fill="none" stroke="#231f20" stroke-width="4"/>
      <line x1="83.32" y1="233.41" x2="204.32" y2="233.41" fill="none" stroke="#fff" stroke-width="2"/>
    </g>
    <path d="M63.12,275.4v28.37a2,2,0,0,0,2,2H124" fill="none" stroke="#767676" stroke-linecap="round" stroke-linejoin="round" stroke-width="0.5"/>
    <path d="M224.47,275.4v28.37a2,2,0,0,1-2,2H163.76" fill="none" stroke="#767676" stroke-linecap="round" stroke-linejoin="round" stroke-width="0.5"/>
    <g>
      <g>
        <rect x="126.82" y="289.27" width="35" height="30" fill="#fff"/>
        <rect x="126.82" y="289.27" width="35" height="30" fill="#3c3c41" opacity="0.02"/>
        <rect x="126.82" y="289.27" width="35" height="30" fill="none" stroke="#75757a" stroke-miterlimit="10" stroke-width="0.5" opacity="0.5"/>
      </g>
      <use width="25.89" height="20.48" transform="translate(131.76 294.03)" xlink:href="#New_Symbol_5"/>
    </g>
    <g>
      <path d="M80.93,89.46A8,8,0,0,0,74,81.8a10,10,0,0,0-10.34-9.6,10.32,10.32,0,0,0-9.86,6.72,9.49,9.49,0,0,0-8.35,9.14,9.66,9.66,0,0,0,10,9.29h17a3.08,3.08,0,0,0,.43,0A8.08,8.08,0,0,0,80.93,89.46Z" fill="url(#linear-gradient-10)"/>
      <path d="M73.62,91.53a.83.83,0,0,0-.83-.81H53.6a.83.83,0,0,0-.83.81v9.86a.82.82,0,0,0,.83.8H72.79a.82.82,0,0,0,.83-.8Z" fill="#821010"/>
      <rect x="53.93" y="91.87" width="5.66" height="2.5" fill="#e62323"/>
      <rect x="60.43" y="91.87" width="5.66" height="2.5" fill="#ff7381"/>
      <rect x="66.94" y="91.87" width="5.66" height="2.5" fill="#e62323"/>
      <rect x="53.93" y="95.22" width="2.35" height="2.5" fill="#e62323"/>
      <rect x="70.25" y="95.22" width="2.35" height="2.5" fill="#ff7381"/>
      <rect x="57.12" y="95.22" width="5.66" height="2.5" fill="#ff7381"/>
      <rect x="63.65" y="95.22" width="5.66" height="2.5" fill="#e62323"/>
      <rect x="53.93" y="98.57" width="5.66" height="2.5" fill="#e62323"/>
      <rect x="60.43" y="98.57" width="5.66" height="2.5" fill="#ff7381"/>
      <rect x="66.94" y="98.57" width="5.66" height="2.5" fill="#e62323"/>
    </g>
    <g>
      <path d="M241.41,89.46a8,8,0,0,0-6.92-7.66,10,10,0,0,0-10.35-9.6,10.3,10.3,0,0,0-9.85,6.72,9.51,9.51,0,0,0-8.36,9.14,9.67,9.67,0,0,0,10,9.29h17a3.23,3.23,0,0,0,.44,0A8.09,8.09,0,0,0,241.41,89.46Z" fill="url(#linear-gradient-11)"/>
      <path d="M234.1,91.53a.83.83,0,0,0-.83-.81h-19.2a.82.82,0,0,0-.82.81v9.86a.81.81,0,0,0,.82.8h19.2a.82.82,0,0,0,.83-.8Z" fill="#821010"/>
      <rect x="214.41" y="91.87" width="5.66" height="2.5" fill="#e62323"/>
      <rect x="220.91" y="91.87" width="5.66" height="2.5" fill="#ff7381"/>
      <rect x="227.42" y="91.87" width="5.66" height="2.5" fill="#e62323"/>
      <rect x="214.41" y="95.22" width="2.35" height="2.5" fill="#e62323"/>
      <rect x="230.73" y="95.22" width="2.35" height="2.5" fill="#ff7381"/>
      <rect x="217.6" y="95.22" width="5.66" height="2.5" fill="#ff7381"/>
      <rect x="224.12" y="95.22" width="5.66" height="2.5" fill="#e62323"/>
      <rect x="214.41" y="98.57" width="5.66" height="2.5" fill="#e62323"/>
      <rect x="220.91" y="98.57" width="5.66" height="2.5" fill="#ff7381"/>
      <rect x="227.42" y="98.57" width="5.66" height="2.5" fill="#e62323"/>
    </g>
    <line x1="82.32" y1="87.19" x2="203.36" y2="87.19" fill="none" stroke="#767676" stroke-linecap="round" stroke-linejoin="round" stroke-width="0.5"/>
    <line x1="379.7" y1="153.58" x2="500.74" y2="153.58" fill="none" stroke="#767676" stroke-linecap="round" stroke-linejoin="round" stroke-width="0.5"/>
    <path d="M121.64,30.2H68.12a5,5,0,0,0-5,5v35" fill="none" stroke="#3c3c41"/>
    <path d="M166.14,30.2h53.33a5,5,0,0,1,5,5v35" fill="none" stroke="#3c3c41"/>
    <path d="M455.74,32.36a7.84,7.84,0,0,0-6.71-7.6A9.88,9.88,0,0,0,439,15.2a10.11,10.11,0,0,0-9.56,6.69A9.31,9.31,0,0,0,421.33,31,9.56,9.56,0,0,0,431,40.2h17A7.93,7.93,0,0,0,455.74,32.36Z" fill="url(#linear-gradient-12)"/>
    <g>
      <g>
        <rect x="342.79" y="228.63" width="35" height="30" fill="#fff"/>
        <rect x="342.79" y="228.63" width="35" height="30" fill="#3c3c41" opacity="0.02"/>
        <rect x="342.79" y="228.63" width="35" height="30" fill="none" stroke="#75757a" stroke-miterlimit="10" stroke-width="0.5" opacity="0.5"/>
      </g>
      <use width="25.89" height="20.48" transform="translate(347.74 233.39)" xlink:href="#New_Symbol_5"/>
    </g>
    <g>
      <g>
        <rect x="502.55" y="228.63" width="35" height="30" fill="#fff"/>
        <rect x="502.55" y="228.63" width="35" height="30" fill="#3c3c41" opacity="0.02"/>
        <rect x="502.55" y="228.63" width="35" height="30" fill="none" stroke="#75757a" stroke-miterlimit="10" stroke-width="0.5" opacity="0.5"/>
      </g>
      <use width="25.89" height="20.48" transform="translate(507.49 233.39)" xlink:href="#New_Symbol_5"/>
    </g>
    <path d="M415.12,85.1H363.05a3,3,0,0,0-3,3v46.09" fill="none" stroke="#767676" stroke-linecap="round" stroke-linejoin="round" stroke-width="0.5"/>
    <path d="M468.86,85.1h48.36a3,3,0,0,1,3,3v46.09" fill="none" stroke="#767676" stroke-linecap="round" stroke-linejoin="round" stroke-width="0.5"/>
    <g>
      <g>
        <line x1="360.05" y1="169.19" x2="360.05" y2="227.19" fill="none" stroke="#767676" stroke-linecap="round" stroke-linejoin="round" stroke-width="0.5"/>
        <path d="M511.7,169.19,370.93,208.81a4.19,4.19,0,0,0-2.89,3.81v14.57" fill="none" stroke="#767676" stroke-linecap="round" stroke-linejoin="round" stroke-width="0.5"/>
      </g>
      <g>
        <line x1="520.22" y1="169.19" x2="520.22" y2="227.19" fill="none" stroke="#767676" stroke-linecap="round" stroke-linejoin="round" stroke-width="0.5"/>
        <path d="M367.4,169.19l141.88,39.62a4.2,4.2,0,0,1,2.89,3.81v14.57" fill="none" stroke="#767676" stroke-linecap="round" stroke-linejoin="round" stroke-width="0.5"/>
      </g>
    </g>
    <path d="M7.55,55.19l2-6.08c.1-.31.2-.56.31-.82a3.75,3.75,0,0,0,.25-.71c.1-.25.15-.45.25-.71a3.68,3.68,0,0,0,.21-.81V39.92l4.56-2.28V33.88l5.33-2.69,5.33,2.69v7.61l.3,1.22c.1.36.26.71.36,1.07s.25.71.4,1.06a12.67,12.67,0,0,1,.46,1.22l3,9.13ZM25.31,44.74l-4.06,2v2.69l-5.33,2.69L11,49.71l-1.32,4h8.37l8.78-4.36ZM12.12,48.5l3,1.52v-7l-3-1.52ZM15.92,39l-2.79,1.42,2.79,1.37,2.79-1.37Zm.76-3.5v2.18l3.05,1.52V37Zm0,14.56,3.05-1.52v-7l-3.05,1.52Zm3.81-17.15L17.7,34.29l2.79,1.37,2.79-1.37Zm3.81,2.59L21.25,37V45.1l3.05-1.53Zm3.95,18.21-1-2.94L21.4,53.67Z" fill="#0f467c"/>
    <g id="b1186d34-5ca3-4e43-992d-40ecef5e891b-2" data-name="b1186d34-5ca3-4e43-992d-40ecef5e891b">
      <g>
        <path d="M325.6,191.21H313.18a.81.81,0,0,0-.81.79v17.69a15,15,0,0,1,2-1.42h2.35L318,210v2.63l-1.64,1.19-2.28-.29-1.75-1.64v2.4a.81.81,0,0,0,.81.79H325.6a.79.79,0,0,0,.79-.79V192A.79.79,0,0,0,325.6,191.21Z" fill="url(#linear-gradient-13)"/>
        <path id="af47f827-8b1b-4acd-8974-8eafe35490c9-2" data-name="af47f827-8b1b-4acd-8974-8eafe35490c9" d="M314.23,193.69h2.28a.2.2,0,0,1,.2.2h0v3a.2.2,0,0,1-.2.19h-2.28a.2.2,0,0,1-.2-.19h0v-3a.2.2,0,0,1,.2-.2Zm4,0h2.28a.2.2,0,0,1,.2.2h0v3a.2.2,0,0,1-.2.19h-2.28a.2.2,0,0,1-.2-.19h0v-3a.2.2,0,0,1,.2-.2Zm4,0h2.28a.2.2,0,0,1,.2.2h0v3a.2.2,0,0,1-.2.19h-2.28a.2.2,0,0,1-.2-.19h0v-3a.2.2,0,0,1,.2-.2Zm-8,5.33h2.28a.2.2,0,0,1,.2.2h0v3a.2.2,0,0,1-.2.2h-2.28a.2.2,0,0,1-.2-.2h0v-2.94a.21.21,0,0,1,.17-.23Zm4,0h2.28a.2.2,0,0,1,.2.2h0v3a.2.2,0,0,1-.2.2h-2.28a.2.2,0,0,1-.2-.2h0v-2.94a.21.21,0,0,1,.17-.23Zm4,0h2.28a.2.2,0,0,1,.2.2h0v3a.2.2,0,0,1-.2.2h-2.28a.2.2,0,0,1-.2-.2h0v-2.94a.2.2,0,0,1,.17-.23Zm-8,5.38h2.28a.2.2,0,0,1,.2.2h0v2.92a.2.2,0,0,1-.2.2h-2.28a.2.2,0,0,1-.2-.2V204.6A.2.2,0,0,1,314.23,204.4Zm4,0h2.28a.2.2,0,0,1,.2.2h0v2.92a.2.2,0,0,1-.2.2h-2.28a.2.2,0,0,1-.2-.2h0V204.6A.2.2,0,0,1,318.24,204.4Zm0,5.36h2.28a.2.2,0,0,1,.2.2h0v4.37a.2.2,0,0,1-.2.2h-2.28a.2.2,0,0,1-.2-.2V210a.2.2,0,0,1,.2-.2Zm4-5.36h2.28a.2.2,0,0,1,.2.2h0v2.92a.2.2,0,0,1-.2.2h-2.28a.2.2,0,0,1-.2-.2h0V204.6A.2.2,0,0,1,322.27,204.4Z" fill="#f2f2f2"/>
        <path d="M315.42,208.94a1.86,1.86,0,0,0-1.76,1.42h-6.38a4.06,4.06,0,0,0-.11.92v.08h6.49a1.83,1.83,0,1,0,1.76-2.42Z" fill="#50e6ff"/>
        <path d="M320.38,208.18a4.61,4.61,0,0,0-4.82-4.41,4.73,4.73,0,0,0-4.53,3.09,4.49,4.49,0,0,0-3.6,2.83h5.86a2.44,2.44,0,1,1,2.13,3.5,2.47,2.47,0,0,1-2.17-1.41h-6a4.55,4.55,0,0,0,4.51,3.43h8.05a3.73,3.73,0,0,0,3.68-3.43A3.67,3.67,0,0,0,320.38,208.18Z" fill="url(#linear-gradient-14)"/>
        <path d="M315.42,208.94a1.86,1.86,0,0,0-1.76,1.42h-6.38a3,3,0,0,1-.66-.09,3.21,3.21,0,0,1,.35-6.35h.31l.1-.28a3.62,3.62,0,0,1,3.49-2.42,3.71,3.71,0,0,1,3.23,1.8,4.29,4.29,0,0,1,1.07-.13,4.72,4.72,0,0,0-4.26-2.68,4.67,4.67,0,0,0-4.38,2.76,4.17,4.17,0,0,0-.32,8.17h0a2.79,2.79,0,0,0,1,.17h6.42a1.83,1.83,0,1,0,1.76-2.37Z" fill="#50e6ff"/>
      </g>
    </g>
    <path d="M303.3,55.19l2-6.08c.11-.31.21-.56.31-.82a3.75,3.75,0,0,0,.25-.71c.1-.25.16-.45.26-.71a3.69,3.69,0,0,0,.2-.81V39.92l4.57-2.28V33.88l5.32-2.69,5.33,2.69v7.61l.31,1.22c.1.36.25.71.35,1.07s.25.71.41,1.06.3.76.45,1.22l3.05,9.13Zm17.75-10.45-4.06,2v2.69l-5.32,2.69-4.92-2.44-1.32,4h8.37l8.78-4.36ZM307.86,48.5,310.91,50v-7l-3.05-1.52ZM311.67,39l-2.79,1.42,2.79,1.37,2.79-1.37Zm.76-3.5v2.18l3,1.52V37Zm0,14.56,3-1.52v-7l-3,1.52Zm3.8-17.15-2.79,1.42,2.79,1.37L319,34.29ZM320,35.46,317,37V45.1L320,43.57Zm4,18.21-1-2.94-5.88,2.94Z" fill="#0f467c"/>
    <g>
      <line x1="379.73" y1="250.8" x2="500.73" y2="250.8" fill="none" stroke="#231f20" stroke-width="4"/>
      <line x1="379.73" y1="250.8" x2="500.73" y2="250.8" fill="none" stroke="#fff" stroke-width="2"/>
    </g>
    <g>
      <line x1="379.73" y1="233.41" x2="500.73" y2="233.41" fill="none" stroke="#231f20" stroke-width="4"/>
      <line x1="379.73" y1="233.41" x2="500.73" y2="233.41" fill="none" stroke="#fff" stroke-width="2"/>
    </g>
    <path d="M360.05,275.4v28.37a2,2,0,0,0,2,2h58.37" fill="none" stroke="#767676" stroke-linecap="round" stroke-linejoin="round" stroke-width="0.5"/>
    <path d="M520.22,275.4v28.37a2,2,0,0,1-2,2H460.17" fill="none" stroke="#767676" stroke-linecap="round" stroke-linejoin="round" stroke-width="0.5"/>
    <g>
      <g>
        <rect x="423.23" y="289.27" width="35" height="30" fill="#fff"/>
        <rect x="423.23" y="289.27" width="35" height="30" fill="#3c3c41" opacity="0.02"/>
        <rect x="423.23" y="289.27" width="35" height="30" fill="none" stroke="#75757a" stroke-miterlimit="10" stroke-width="0.5" opacity="0.5"/>
      </g>
      <use width="25.89" height="20.48" transform="translate(428.18 294.03)" xlink:href="#New_Symbol_5"/>
    </g>
    <g>
      <path d="M378,153.75a8,8,0,0,0-6.92-7.66,10,10,0,0,0-10.34-9.6,10.32,10.32,0,0,0-9.86,6.72,9.49,9.49,0,0,0-8.35,9.15,9.66,9.66,0,0,0,10,9.28H369.6a3.08,3.08,0,0,0,.43,0A8.09,8.09,0,0,0,378,153.75Z" fill="url(#linear-gradient-15)"/>
      <path d="M370.72,155.82a.82.82,0,0,0-.83-.8H350.7a.82.82,0,0,0-.83.8v9.86a.83.83,0,0,0,.83.81h19.19a.83.83,0,0,0,.83-.81Z" fill="#821010"/>
      <rect x="351.03" y="156.16" width="5.66" height="2.5" fill="#e62323"/>
      <rect x="357.53" y="156.16" width="5.66" height="2.5" fill="#ff7381"/>
      <rect x="364.04" y="156.16" width="5.66" height="2.5" fill="#e62323"/>
      <rect x="351.03" y="159.51" width="2.35" height="2.5" fill="#e62323"/>
      <rect x="367.35" y="159.51" width="2.35" height="2.5" fill="#ff7381"/>
      <rect x="354.22" y="159.51" width="5.66" height="2.5" fill="#ff7381"/>
      <rect x="360.75" y="159.51" width="5.66" height="2.5" fill="#e62323"/>
      <rect x="351.03" y="162.86" width="5.66" height="2.5" fill="#e62323"/>
      <rect x="357.53" y="162.86" width="5.66" height="2.5" fill="#ff7381"/>
      <rect x="364.04" y="162.86" width="5.66" height="2.5" fill="#e62323"/>
    </g>
    <g>
      <path d="M537.79,153.75a8,8,0,0,0-6.92-7.66,10.06,10.06,0,0,0-10.35-9.6,10.29,10.29,0,0,0-9.85,6.72,9.49,9.49,0,0,0-8.36,9.15,9.66,9.66,0,0,0,10,9.28h17.05a3.09,3.09,0,0,0,.43,0A8.09,8.09,0,0,0,537.79,153.75Z" fill="url(#linear-gradient-16)"/>
      <path d="M530.47,155.82a.81.81,0,0,0-.82-.8h-19.2a.82.82,0,0,0-.83.8v9.86a.83.83,0,0,0,.83.81h19.2a.82.82,0,0,0,.82-.81Z" fill="#821010"/>
      <rect x="510.79" y="156.16" width="5.66" height="2.5" fill="#e62323"/>
      <rect x="517.29" y="156.16" width="5.66" height="2.5" fill="#ff7381"/>
      <rect x="523.79" y="156.16" width="5.66" height="2.5" fill="#e62323"/>
      <rect x="510.79" y="159.51" width="2.35" height="2.5" fill="#e62323"/>
      <rect x="527.1" y="159.51" width="2.35" height="2.5" fill="#ff7381"/>
      <rect x="513.98" y="159.51" width="5.66" height="2.5" fill="#ff7381"/>
      <rect x="520.5" y="159.51" width="5.66" height="2.5" fill="#e62323"/>
      <rect x="510.79" y="162.86" width="5.66" height="2.5" fill="#e62323"/>
      <rect x="517.29" y="162.86" width="5.66" height="2.5" fill="#ff7381"/>
      <rect x="523.79" y="162.86" width="5.66" height="2.5" fill="#e62323"/>
    </g>
    <g>
      <path d="M464.42,85.15l-4.94,4.93a.23.23,0,0,1-.41-.18V87.1a.27.27,0,0,0-.26-.23h-8.15l5.08,4.89a.21.21,0,0,0,.28,0h0l1.42-1.44a.18.18,0,0,1,.26,0,.19.19,0,0,1,.06.16v5.09a.27.27,0,0,1-.28.28h-5a.18.18,0,0,1-.21-.16.2.2,0,0,1,.07-.16l1.44-1.42h0a.21.21,0,0,0,0-.28l-4.17-4.38V80.51l4.26-4.23a.19.19,0,0,0,0-.26h0l-1.44-1.42a.18.18,0,0,1,0-.26.2.2,0,0,1,.16-.07h5.1a.31.31,0,0,1,.28.31v5a.19.19,0,0,1-.17.2.23.23,0,0,1-.16-.06l-1.42-1.42h0a.19.19,0,0,0-.28,0l-5.19,4.91h8a.26.26,0,0,0,.25-.26V80.12a.23.23,0,0,1,.17-.28.22.22,0,0,1,.25.09l5,4.84a.25.25,0,0,1,.05.33Z" fill="#0078d4"/>
      <rect x="422.51" y="71.76" width="27.1" height="26.03" rx="1.35" fill="url(#linear-gradient-17)"/>
      <g>
        <rect x="427.8" y="74.95" width="6.36" height="6.08" rx="0.68" fill="#fff"/>
        <rect x="438.62" y="81.91" width="6.36" height="6.08" rx="0.68" fill="#fff"/>
        <rect x="427.8" y="88.52" width="6.36" height="6.08" rx="0.68" fill="#fff"/>
      </g>
    </g>
    <line x1="438.54" y1="41.2" x2="438.54" y2="70.19" fill="none" stroke="#3c3c41"/>
    <line x1="280.21" y1="340.21" x2="280.21" y2="1.2" fill="none" stroke="#231f20" stroke-miterlimit="10" stroke-dasharray="3 3"/>
  </g>
  <g id="Text">
    <g>
      <path d="M167.46,148.46v-8.41h2.39a2.6,2.6,0,0,1,1.73.54,1.69,1.69,0,0,1,.64,1.38,2,2,0,0,1-.39,1.25,2.11,2.11,0,0,1-1.06.75v0a2.18,2.18,0,0,1,1.36.64,2,2,0,0,1,.51,1.41,2.2,2.2,0,0,1-.78,1.75,2.88,2.88,0,0,1-2,.67Zm1-7.52v2.72h1a1.94,1.94,0,0,0,1.28-.39,1.39,1.39,0,0,0,.46-1.1c0-.82-.54-1.23-1.61-1.23Zm0,3.6v3h1.33a2,2,0,0,0,1.35-.41,1.41,1.41,0,0,0,.47-1.12c0-1-.67-1.49-2-1.49Z" fill="#1e1e1e"/>
      <path d="M176.72,148.6a2.73,2.73,0,0,1-2.12-.85,3.1,3.1,0,0,1-.8-2.22,3.27,3.27,0,0,1,.83-2.37,3,3,0,0,1,2.23-.85,2.69,2.69,0,0,1,2.09.83,3.25,3.25,0,0,1,.76,2.29,3.21,3.21,0,0,1-.81,2.3A2.85,2.85,0,0,1,176.72,148.6Zm.07-5.48a1.84,1.84,0,0,0-1.47.63,2.64,2.64,0,0,0-.53,1.74,2.46,2.46,0,0,0,.54,1.68,1.85,1.85,0,0,0,1.46.62,1.73,1.73,0,0,0,1.43-.61,2.57,2.57,0,0,0,.5-1.71,2.65,2.65,0,0,0-.5-1.74A1.76,1.76,0,0,0,176.79,143.12Z" fill="#1e1e1e"/>
      <path d="M184.37,143.43a1.18,1.18,0,0,0-.73-.2,1.22,1.22,0,0,0-1,.58,2.68,2.68,0,0,0-.42,1.59v3.06h-1v-6h1v1.23h0a2.08,2.08,0,0,1,.62-1,1.49,1.49,0,0,1,1-.35,1.65,1.65,0,0,1,.57.08Z" fill="#1e1e1e"/>
      <path d="M190.54,148.46h-1v-1h0a2.42,2.42,0,0,1-3.87.35,3.32,3.32,0,0,1-.68-2.19,3.6,3.6,0,0,1,.75-2.39,2.48,2.48,0,0,1,2-.9,1.92,1.92,0,0,1,1.8,1h0v-3.72h1Zm-1-2.72v-.88a1.7,1.7,0,0,0-.48-1.23,1.59,1.59,0,0,0-1.21-.51,1.68,1.68,0,0,0-1.39.65,2.85,2.85,0,0,0-.5,1.78,2.56,2.56,0,0,0,.48,1.64,1.59,1.59,0,0,0,1.3.6,1.64,1.64,0,0,0,1.3-.58A2.15,2.15,0,0,0,189.57,145.74Z" fill="#1e1e1e"/>
      <path d="M197.3,145.7h-4.23a2.18,2.18,0,0,0,.54,1.54,1.82,1.82,0,0,0,1.41.55,3,3,0,0,0,1.87-.67v.9a3.52,3.52,0,0,1-2.09.58,2.55,2.55,0,0,1-2-.82,3.33,3.33,0,0,1-.73-2.3,3.29,3.29,0,0,1,.79-2.28,2.56,2.56,0,0,1,2-.89,2.26,2.26,0,0,1,1.82.77,3.15,3.15,0,0,1,.64,2.11Zm-1-.82a2,2,0,0,0-.4-1.29,1.38,1.38,0,0,0-1.1-.47,1.6,1.6,0,0,0-1.16.49,2.21,2.21,0,0,0-.58,1.27Z" fill="#1e1e1e"/>
      <path d="M201.89,143.43a1.18,1.18,0,0,0-.73-.2,1.25,1.25,0,0,0-1,.58,2.68,2.68,0,0,0-.41,1.59v3.06h-1v-6h1v1.23h0a2.17,2.17,0,0,1,.63-1,1.44,1.44,0,0,1,.94-.35,1.75,1.75,0,0,1,.58.08Z" fill="#1e1e1e"/>
      <path d="M200,155.46a1.76,1.76,0,0,0-.12-.68,1.37,1.37,0,0,0-.33-.48,1.39,1.39,0,0,0-.49-.28,2,2,0,0,0-.61-.09,2.08,2.08,0,0,0-.55.07,2.57,2.57,0,0,0-.52.21,2.63,2.63,0,0,0-.49.33,3.47,3.47,0,0,0-.45.41v-1a2.88,2.88,0,0,1,.91-.6,3.14,3.14,0,0,1,1.22-.21,3,3,0,0,1,1,.15,2.3,2.3,0,0,1,.76.44,2,2,0,0,1,.5.71,2.25,2.25,0,0,1,.19,1,3.18,3.18,0,0,1-.12.91,2.73,2.73,0,0,1-.34.76,4,4,0,0,1-.58.68,7.54,7.54,0,0,1-.83.67l-1,.72a5.87,5.87,0,0,0-.61.56,1.7,1.7,0,0,0-.31.52,1.89,1.89,0,0,0-.09.6h4.18v.87h-5.18v-.42a3.4,3.4,0,0,1,.11-1,2.59,2.59,0,0,1,.39-.78,4,4,0,0,1,.71-.74c.29-.24.64-.52,1.06-.83a6.87,6.87,0,0,0,.77-.63,3.19,3.19,0,0,0,.49-.59,2,2,0,0,0,.27-.61A2.75,2.75,0,0,0,200,155.46Z" fill="#1e1e1e"/>
    </g>
    <g>
      <path d="M85.42,149.49v-8.41h2.39a2.6,2.6,0,0,1,1.73.54,1.74,1.74,0,0,1,.64,1.39,2,2,0,0,1-.39,1.24,2.09,2.09,0,0,1-1.07.75v0a2.15,2.15,0,0,1,1.36.64,2,2,0,0,1,.51,1.41,2.22,2.22,0,0,1-.77,1.75,2.92,2.92,0,0,1-1.95.67Zm1-7.52v2.72h1a1.91,1.91,0,0,0,1.27-.39,1.36,1.36,0,0,0,.47-1.1q0-1.23-1.62-1.23Zm0,3.6v3h1.34a2,2,0,0,0,1.34-.41,1.42,1.42,0,0,0,.48-1.13c0-1-.67-1.49-2-1.49Z" fill="#1e1e1e"/>
      <path d="M94.68,149.63a2.79,2.79,0,0,1-2.13-.84,3.12,3.12,0,0,1-.79-2.23,3.27,3.27,0,0,1,.82-2.37,3,3,0,0,1,2.24-.84,2.68,2.68,0,0,1,2.09.82,3.29,3.29,0,0,1,.75,2.29,3.21,3.21,0,0,1-.81,2.3A2.82,2.82,0,0,1,94.68,149.63Zm.07-5.48a1.84,1.84,0,0,0-1.47.63,2.59,2.59,0,0,0-.54,1.74,2.41,2.41,0,0,0,.55,1.68,1.85,1.85,0,0,0,1.46.62,1.73,1.73,0,0,0,1.43-.61,2.62,2.62,0,0,0,.5-1.71,2.71,2.71,0,0,0-.5-1.74A1.76,1.76,0,0,0,94.75,144.15Z" fill="#1e1e1e"/>
      <path d="M102.33,144.46a1.18,1.18,0,0,0-.73-.19,1.23,1.23,0,0,0-1,.58,2.7,2.7,0,0,0-.41,1.58v3.06h-1v-6h1v1.23h0a2.17,2.17,0,0,1,.63-1,1.46,1.46,0,0,1,.94-.35,1.71,1.71,0,0,1,.58.08Z" fill="#1e1e1e"/>
      <path d="M108.49,149.49h-1v-1h0a2.42,2.42,0,0,1-3.87.35,3.32,3.32,0,0,1-.68-2.19,3.6,3.6,0,0,1,.75-2.39,2.47,2.47,0,0,1,2-.89,1.93,1.93,0,0,1,1.8,1h0V140.6h1Zm-1-2.72v-.88a1.7,1.7,0,0,0-.48-1.23,1.59,1.59,0,0,0-1.22-.51,1.67,1.67,0,0,0-1.38.65,2.79,2.79,0,0,0-.5,1.78,2.56,2.56,0,0,0,.48,1.64,1.57,1.57,0,0,0,1.3.6,1.66,1.66,0,0,0,1.3-.58A2.15,2.15,0,0,0,107.53,146.77Z" fill="#1e1e1e"/>
      <path d="M115.26,146.73H111a2.27,2.27,0,0,0,.54,1.54,1.85,1.85,0,0,0,1.42.55,2.89,2.89,0,0,0,1.86-.67v.9a3.41,3.41,0,0,1-2.09.58,2.58,2.58,0,0,1-2-.82,3.37,3.37,0,0,1-.72-2.3,3.26,3.26,0,0,1,.79-2.28,2.54,2.54,0,0,1,2-.88,2.26,2.26,0,0,1,1.83.76,3.15,3.15,0,0,1,.64,2.11Zm-1-.82a2,2,0,0,0-.41-1.29,1.34,1.34,0,0,0-1.09-.47,1.58,1.58,0,0,0-1.16.49,2.21,2.21,0,0,0-.58,1.27Z" fill="#1e1e1e"/>
      <path d="M119.84,144.46a1.16,1.16,0,0,0-.72-.19,1.21,1.21,0,0,0-1,.58,2.62,2.62,0,0,0-.42,1.58v3.06h-1v-6h1v1.23h0a2,2,0,0,1,.63-1,1.44,1.44,0,0,1,.94-.35,1.65,1.65,0,0,1,.57.08Z" fill="#1e1e1e"/>
      <path d="M88.56,162.69h-1v-7.26a2.14,2.14,0,0,1-.33.25,5.06,5.06,0,0,1-.48.29,5.85,5.85,0,0,1-.56.26,3.56,3.56,0,0,1-.58.19v-1a5.46,5.46,0,0,0,.67-.24c.24-.1.47-.21.7-.33a5.88,5.88,0,0,0,.65-.39,4.87,4.87,0,0,0,.53-.39h.36Z" fill="#1e1e1e"/>
    </g>
    <g>
      <path d="M84.1,59.44H80.81v2.9h3v.89h-3V67h-1v-8.4H84.1Z" fill="#1e1e1e"/>
      <path d="M86.05,59.43a.61.61,0,0,1-.62-.62.61.61,0,0,1,.18-.45.6.6,0,0,1,.44-.18.61.61,0,0,1,.45.18.62.62,0,0,1,.19.45.59.59,0,0,1-.19.43A.58.58,0,0,1,86.05,59.43ZM86.52,67h-1V61h1Z" fill="#1e1e1e"/>
      <path d="M91.6,61.92a1.18,1.18,0,0,0-.73-.19,1.23,1.23,0,0,0-1,.58,2.64,2.64,0,0,0-.41,1.58V67h-1V61h1v1.24h0a2.12,2.12,0,0,1,.63-1,1.4,1.4,0,0,1,.94-.36,1.5,1.5,0,0,1,.58.09Z" fill="#1e1e1e"/>
      <path d="M97.46,64.19H93.22a2.3,2.3,0,0,0,.54,1.55,1.88,1.88,0,0,0,1.42.54A2.89,2.89,0,0,0,97,65.61v.91a3.47,3.47,0,0,1-2.09.57,2.53,2.53,0,0,1-2-.82,3.35,3.35,0,0,1-.72-2.3A3.28,3.28,0,0,1,93,61.69a2.54,2.54,0,0,1,2-.88,2.26,2.26,0,0,1,1.83.76,3.18,3.18,0,0,1,.64,2.12Zm-1-.81a2,2,0,0,0-.41-1.3A1.35,1.35,0,0,0,95,61.62a1.57,1.57,0,0,0-1.16.48,2.24,2.24,0,0,0-.58,1.28Z" fill="#1e1e1e"/>
      <path d="M106.47,61l-1.8,6h-1l-1.24-4.3a2.18,2.18,0,0,1-.09-.55h0a2.44,2.44,0,0,1-.12.54L100.86,67h-1l-1.82-6h1l1.24,4.51a2.38,2.38,0,0,1,.08.54h0a2.43,2.43,0,0,1,.11-.55L102,61h.88l1.24,4.52a3.36,3.36,0,0,1,.09.54h0a3.52,3.52,0,0,1,.1-.54L105.52,61Z" fill="#1e1e1e"/>
      <path d="M111.88,67h-1V66h0a2,2,0,0,1-1.85,1.08,2,2,0,0,1-1.4-.47,1.65,1.65,0,0,1-.51-1.26c0-1.13.66-1.78,2-2l1.8-.25c0-1-.41-1.53-1.24-1.53a2.9,2.9,0,0,0-2,.74v-1a3.76,3.76,0,0,1,2-.56c1.41,0,2.11.75,2.11,2.24Zm-1-3-1.45.2a2.65,2.65,0,0,0-1,.33,1,1,0,0,0-.34.85.9.9,0,0,0,.32.71,1.19,1.19,0,0,0,.83.28,1.55,1.55,0,0,0,1.18-.5,1.8,1.8,0,0,0,.47-1.27Z" fill="#1e1e1e"/>
      <path d="M114.65,67h-1V58.07h1Z" fill="#1e1e1e"/>
      <path d="M117.56,67h-1V58.07h1Z" fill="#1e1e1e"/>
      <path d="M83,80.15H82V72.89a2.22,2.22,0,0,1-.33.26,5.1,5.1,0,0,1-.48.28,5.85,5.85,0,0,1-.56.26,5,5,0,0,1-.58.2v-1a5.34,5.34,0,0,0,.67-.23,6.44,6.44,0,0,0,.7-.34c.23-.12.45-.25.65-.38a6.62,6.62,0,0,0,.53-.4H83Z" fill="#1e1e1e"/>
    </g>
    <g>
      <path d="M168.92,59.44h-3.28v2.9h3v.89h-3V67h-1v-8.4h4.26Z" fill="#1e1e1e"/>
      <path d="M170.88,59.43a.61.61,0,0,1-.62-.62.61.61,0,0,1,.18-.45.6.6,0,0,1,.44-.18.64.64,0,0,1,.45.18.61.61,0,0,1,.18.45.58.58,0,0,1-.18.43A.61.61,0,0,1,170.88,59.43Zm.47,7.52h-1V61h1Z" fill="#1e1e1e"/>
      <path d="M176.42,61.92a1.18,1.18,0,0,0-.73-.19,1.2,1.2,0,0,0-1,.58,2.64,2.64,0,0,0-.42,1.58V67h-1V61h1v1.24h0a2,2,0,0,1,.62-1,1.43,1.43,0,0,1,.95-.36,1.41,1.41,0,0,1,.57.09Z" fill="#1e1e1e"/>
      <path d="M182.29,64.19h-4.24a2.3,2.3,0,0,0,.54,1.55,1.87,1.87,0,0,0,1.42.54,2.93,2.93,0,0,0,1.86-.67v.91a3.5,3.5,0,0,1-2.09.57,2.52,2.52,0,0,1-2-.82,3.36,3.36,0,0,1-.73-2.3,3.29,3.29,0,0,1,.8-2.28,2.53,2.53,0,0,1,2-.88,2.25,2.25,0,0,1,1.82.76,3.18,3.18,0,0,1,.65,2.12Zm-1-.81a2,2,0,0,0-.4-1.3,1.36,1.36,0,0,0-1.1-.46,1.55,1.55,0,0,0-1.15.48,2.25,2.25,0,0,0-.59,1.28Z" fill="#1e1e1e"/>
      <path d="M191.3,61l-1.8,6h-1l-1.23-4.3a2.71,2.71,0,0,1-.1-.55h0a2.44,2.44,0,0,1-.12.54L185.68,67h-1l-1.81-6h1l1.25,4.51a3.12,3.12,0,0,1,.08.54h0a2.38,2.38,0,0,1,.1-.55l1.38-4.5h.88l1.25,4.52A5.29,5.29,0,0,1,189,66H189a2.61,2.61,0,0,1,.1-.54L190.35,61Z" fill="#1e1e1e"/>
      <path d="M196.71,67h-1V66h0a2.2,2.2,0,0,1-3.25.61,1.64,1.64,0,0,1-.5-1.26c0-1.13.66-1.78,2-2l1.8-.25c0-1-.42-1.53-1.24-1.53a2.92,2.92,0,0,0-2,.74v-1a3.76,3.76,0,0,1,2-.56c1.41,0,2.12.75,2.12,2.24Zm-1-3-1.45.2a2.59,2.59,0,0,0-1,.33,1,1,0,0,0-.34.85.89.89,0,0,0,.31.71,1.2,1.2,0,0,0,.84.28,1.55,1.55,0,0,0,1.18-.5,1.8,1.8,0,0,0,.47-1.27Z" fill="#1e1e1e"/>
      <path d="M199.48,67h-1V58.07h1Z" fill="#1e1e1e"/>
      <path d="M202.38,67h-1V58.07h1Z" fill="#1e1e1e"/>
      <path d="M201.41,74a1.71,1.71,0,0,0-.12-.67,1.37,1.37,0,0,0-.33-.48,1.26,1.26,0,0,0-.49-.28,1.7,1.7,0,0,0-.61-.1,2.09,2.09,0,0,0-.55.08,2.57,2.57,0,0,0-.52.21,3.74,3.74,0,0,0-.49.32,3.56,3.56,0,0,0-.45.42v-1a2.86,2.86,0,0,1,.91-.61,3.35,3.35,0,0,1,1.22-.2,3,3,0,0,1,1,.15,2.27,2.27,0,0,1,.76.43,2.19,2.19,0,0,1,.51.71,2.47,2.47,0,0,1,.18,1,3.58,3.58,0,0,1-.11.9,3.08,3.08,0,0,1-.35.76,3.67,3.67,0,0,1-.58.69,8.92,8.92,0,0,1-.83.67l-1,.72a4.17,4.17,0,0,0-.6.56,1.53,1.53,0,0,0-.32.52,1.8,1.8,0,0,0-.09.6h4.18v.86h-5.18v-.42a3.87,3.87,0,0,1,.11-1A2.44,2.44,0,0,1,198,78a4.07,4.07,0,0,1,.71-.74,13.13,13.13,0,0,1,1.07-.83,6.69,6.69,0,0,0,.76-.63,3.31,3.31,0,0,0,.5-.6,2.16,2.16,0,0,0,.26-.61A2.69,2.69,0,0,0,201.41,74Z" fill="#1e1e1e"/>
    </g>
    <g>
      <path d="M125,10.2h-1V1.8h1Z" fill="#1e1e1e"/>
      <path d="M132,10.2h-1V6.78c0-1.27-.46-1.91-1.39-1.91a1.54,1.54,0,0,0-1.2.54A2,2,0,0,0,128,6.78V10.2h-1v-6h1v1h0a2.15,2.15,0,0,1,2-1.14,1.83,1.83,0,0,1,1.51.64A2.79,2.79,0,0,1,132,6.53Z" fill="#1e1e1e"/>
      <path d="M136.62,10.14a1.82,1.82,0,0,1-.9.19c-1.05,0-1.58-.59-1.58-1.76V5h-1V4.2h1V2.74l1-.31V4.2h1.52V5H135.1V8.4a1.37,1.37,0,0,0,.21.86.8.8,0,0,0,.68.26,1,1,0,0,0,.63-.2Z" fill="#1e1e1e"/>
      <path d="M142.72,7.44h-4.24A2.28,2.28,0,0,0,139,9a1.88,1.88,0,0,0,1.42.54,2.94,2.94,0,0,0,1.86-.66v.9a3.47,3.47,0,0,1-2.09.57,2.54,2.54,0,0,1-2-.82,3.35,3.35,0,0,1-.72-2.3,3.28,3.28,0,0,1,.79-2.28,2.54,2.54,0,0,1,2-.88,2.26,2.26,0,0,1,1.83.76,3.19,3.19,0,0,1,.64,2.12Zm-1-.81a2,2,0,0,0-.41-1.3,1.34,1.34,0,0,0-1.09-.46,1.54,1.54,0,0,0-1.16.49,2.18,2.18,0,0,0-.58,1.27Z" fill="#1e1e1e"/>
      <path d="M147.3,5.17a1.16,1.16,0,0,0-.72-.19,1.21,1.21,0,0,0-1,.58,2.64,2.64,0,0,0-.42,1.58V10.2h-1v-6h1V5.44h0a2,2,0,0,1,.63-1,1.39,1.39,0,0,1,.94-.35,1.44,1.44,0,0,1,.57.08Z" fill="#1e1e1e"/>
      <path d="M153.33,10.2h-1V6.78c0-1.27-.47-1.91-1.4-1.91a1.5,1.5,0,0,0-1.19.54,2,2,0,0,0-.47,1.37V10.2h-1v-6h1v1h0a2.16,2.16,0,0,1,2-1.14,1.79,1.79,0,0,1,1.5.64,2.79,2.79,0,0,1,.53,1.83Z" fill="#1e1e1e"/>
      <path d="M160,7.44h-4.24A2.28,2.28,0,0,0,156.26,9a1.88,1.88,0,0,0,1.42.54,2.94,2.94,0,0,0,1.86-.66v.9a3.47,3.47,0,0,1-2.09.57,2.53,2.53,0,0,1-2-.82,3.35,3.35,0,0,1-.72-2.3,3.28,3.28,0,0,1,.79-2.28,2.54,2.54,0,0,1,2-.88,2.24,2.24,0,0,1,1.82.76A3.2,3.2,0,0,1,160,6.94Zm-1-.81a1.91,1.91,0,0,0-.4-1.3,1.36,1.36,0,0,0-1.1-.46,1.54,1.54,0,0,0-1.15.49,2.19,2.19,0,0,0-.59,1.27Z" fill="#1e1e1e"/>
      <path d="M164.2,10.14a1.82,1.82,0,0,1-.9.19c-1.05,0-1.58-.59-1.58-1.76V5h-1V4.2h1V2.74l1-.31V4.2h1.52V5h-1.52V8.4a1.37,1.37,0,0,0,.21.86.8.8,0,0,0,.68.26,1,1,0,0,0,.63-.2Z" fill="#1e1e1e"/>
    </g>
    <g>
      <path d="M11,231.73H8.92l-.6-1.87h-3l-.6,1.87H2.69l3.06-8.4H8Zm-3.09-3.32L7,225.58a3.59,3.59,0,0,1-.14-.75h0a3.16,3.16,0,0,1-.15.73l-.91,2.85Z" fill="#231f20"/>
      <path d="M16.6,231.73H11.22V231l3-3.87H11.52v-1.36h5.06v.91l-2.85,3.72H16.6Z" fill="#231f20"/>
      <path d="M23.3,231.73H21.46v-.92h0a2.1,2.1,0,0,1-1.84,1.07c-1.39,0-2.08-.85-2.08-2.53v-3.62h1.84v3.46c0,.84.34,1.27,1,1.27a1,1,0,0,0,.8-.35,1.41,1.41,0,0,0,.3-1v-3.43H23.3Z" fill="#231f20"/>
      <path d="M28.77,227.4a1.61,1.61,0,0,0-.78-.18,1.11,1.11,0,0,0-.94.44,1.9,1.9,0,0,0-.34,1.2v2.87H24.86v-6h1.85v1.11h0a1.62,1.62,0,0,1,1.59-1.22,1.32,1.32,0,0,1,.45.07Z" fill="#231f20"/>
      <path d="M35,229.26H31.06c.07.87.62,1.3,1.65,1.3a3.15,3.15,0,0,0,1.74-.47v1.34a4.5,4.5,0,0,1-2.16.45,2.8,2.8,0,0,1-3.06-3.06,3.19,3.19,0,0,1,.87-2.36,2.87,2.87,0,0,1,2.13-.88,2.62,2.62,0,0,1,2,.78,3,3,0,0,1,.72,2.12Zm-1.72-1.14c0-.86-.35-1.29-1-1.29a1,1,0,0,0-.77.37,1.68,1.68,0,0,0-.4.92Z" fill="#231f20"/>
      <path d="M4.53,244.61v-1.88a3.45,3.45,0,0,0,1.11.64,3.4,3.4,0,0,0,1.21.22,2.35,2.35,0,0,0,.62-.07,1.19,1.19,0,0,0,.44-.18.7.7,0,0,0,.27-.27.63.63,0,0,0,.09-.33.74.74,0,0,0-.14-.44,1.52,1.52,0,0,0-.39-.36,4.84,4.84,0,0,0-.57-.32l-.72-.31a3.56,3.56,0,0,1-1.47-1,2.19,2.19,0,0,1-.48-1.43,2.25,2.25,0,0,1,.26-1.13,2.21,2.21,0,0,1,.72-.77,3.12,3.12,0,0,1,1-.45,5.18,5.18,0,0,1,1.26-.14,8.17,8.17,0,0,1,1.17.07,4.85,4.85,0,0,1,.93.25v1.75a2.9,2.9,0,0,0-.46-.26,3.82,3.82,0,0,0-.51-.18,3.33,3.33,0,0,0-.53-.11,4.22,4.22,0,0,0-.49,0,2.22,2.22,0,0,0-.59.07,1.35,1.35,0,0,0-.44.17.73.73,0,0,0-.28.27.57.57,0,0,0-.1.34.63.63,0,0,0,.11.38,1.21,1.21,0,0,0,.32.32,2.76,2.76,0,0,0,.49.29c.2.1.42.2.67.3a7.55,7.55,0,0,1,.9.45,2.87,2.87,0,0,1,.69.53,2.15,2.15,0,0,1,.44.68,2.5,2.5,0,0,1,.15.9,2.37,2.37,0,0,1-.27,1.18,2,2,0,0,1-.72.77,3.15,3.15,0,0,1-1.06.43,6.61,6.61,0,0,1-1.28.13A7,7,0,0,1,5.61,245,4.42,4.42,0,0,1,4.53,244.61Z" fill="#231f20"/>
      <path d="M14.79,244.86a2.8,2.8,0,0,1-1.24.22q-2,0-2-2v-2.75h-1v-1.36h1v-1.3l1.84-.52v1.82h1.35v1.36H13.44v2.43c0,.62.25.94.75.94a1.31,1.31,0,0,0,.6-.17Z" fill="#231f20"/>
      <path d="M20.83,244.93H19.07v-.86h0a2,2,0,0,1-1.79,1,1.86,1.86,0,0,1-1.37-.5,1.79,1.79,0,0,1-.5-1.32c0-1.17.69-1.84,2.07-2l1.63-.21c0-.66-.36-1-1.07-1a3.59,3.59,0,0,0-2,.64v-1.39a4.62,4.62,0,0,1,1.06-.36,5.56,5.56,0,0,1,1.22-.15,2.27,2.27,0,0,1,2.57,2.56Zm-1.74-2.44v-.4l-1.09.14c-.61.08-.91.35-.91.81a.69.69,0,0,0,.22.52.84.84,0,0,0,.6.2,1.1,1.1,0,0,0,.85-.36A1.29,1.29,0,0,0,19.09,242.49Z" fill="#231f20"/>
      <path d="M26.84,244.71a3.68,3.68,0,0,1-1.81.37,3,3,0,0,1-2.24-.84,2.9,2.9,0,0,1-.86-2.16,3.22,3.22,0,0,1,.92-2.42,3.42,3.42,0,0,1,2.45-.88,3.26,3.26,0,0,1,1.54.28v1.57a2.12,2.12,0,0,0-1.3-.43,1.71,1.71,0,0,0-1.26.47,1.74,1.74,0,0,0-.47,1.28,1.69,1.69,0,0,0,.45,1.25,1.61,1.61,0,0,0,1.22.46,2.46,2.46,0,0,0,1.36-.44Z" fill="#231f20"/>
      <path d="M34.06,244.93H31.84l-1.91-3h0v3H28.05v-8.88H29.9v5.65h0l1.78-2.77h2.2l-2.15,2.82Z" fill="#231f20"/>
      <path d="M15.25,258.13h-1.9v-3.42H9.87v3.42H8v-8.4H9.87v3.35h3.48v-3.35h1.9Z" fill="#231f20"/>
      <path d="M22.69,258.13H20.85v-.92h0A2.1,2.1,0,0,1,19,258.28c-1.39,0-2.09-.85-2.09-2.53v-3.62h1.85v3.46c0,.84.33,1.27,1,1.27a1,1,0,0,0,.8-.35,1.41,1.41,0,0,0,.3-.95v-3.43h1.84Z" fill="#231f20"/>
      <path d="M26.13,257.43h0v.7H24.25v-8.88H26.1V253h0A2.2,2.2,0,0,1,28.08,252a2.16,2.16,0,0,1,1.79.8,3.49,3.49,0,0,1,.62,2.18,3.72,3.72,0,0,1-.73,2.41,2.41,2.41,0,0,1-2,.91A1.9,1.9,0,0,1,26.13,257.43Zm-.05-2.53v.62a1.44,1.44,0,0,0,.33,1,1.1,1.1,0,0,0,.86.38,1.16,1.16,0,0,0,1-.49A2.4,2.4,0,0,0,28.6,255a1.9,1.9,0,0,0-.32-1.16,1.1,1.1,0,0,0-.92-.42,1.18,1.18,0,0,0-.92.42A1.58,1.58,0,0,0,26.08,254.9Z" fill="#231f20"/>
    </g>
    <g>
      <path d="M55.78,262.7H53.35v7.51h-1V262.7H50v-.89h5.83Z" fill="#1e1e1e"/>
      <path d="M59.93,270.35a3.7,3.7,0,0,1-2.87-1.18A4.39,4.39,0,0,1,56,266.11a4.64,4.64,0,0,1,1.09-3.24,3.87,3.87,0,0,1,3-1.21,3.61,3.61,0,0,1,2.8,1.18,4.37,4.37,0,0,1,1.06,3.06,4.61,4.61,0,0,1-1.09,3.25A3.72,3.72,0,0,1,59.93,270.35Zm.07-7.79a2.68,2.68,0,0,0-2.15.95,4.24,4.24,0,0,0,0,5,2.6,2.6,0,0,0,2.1.94,2.76,2.76,0,0,0,2.18-.9A3.68,3.68,0,0,0,62.9,266a3.86,3.86,0,0,0-.77-2.58A2.67,2.67,0,0,0,60,262.56Z" fill="#1e1e1e"/>
      <path d="M71.61,270.21H70.44L69,267.85a6.05,6.05,0,0,0-.37-.56,2.69,2.69,0,0,0-.37-.38,1.65,1.65,0,0,0-.42-.21,1.81,1.81,0,0,0-.49-.07h-.81v3.58h-1v-8.4h2.5a3.65,3.65,0,0,1,1,.13,2.23,2.23,0,0,1,.81.42,2,2,0,0,1,.54.7,2.48,2.48,0,0,1,.19,1,2.33,2.33,0,0,1-.13.81,2.22,2.22,0,0,1-.38.65,2.13,2.13,0,0,1-.58.49,3.12,3.12,0,0,1-.77.32v0a1.55,1.55,0,0,1,.36.21,2,2,0,0,1,.3.29l.28.37.3.48Zm-5-7.51v3h1.34a1.9,1.9,0,0,0,.68-.11,1.46,1.46,0,0,0,.54-.32,1.57,1.57,0,0,0,.36-.51,1.6,1.6,0,0,0,.13-.67,1.35,1.35,0,0,0-.44-1.06,1.88,1.88,0,0,0-1.26-.37Z" fill="#1e1e1e"/>
      <path d="M78.31,270.21h-1V263a2,2,0,0,1-.32.25,5.06,5.06,0,0,1-.48.29l-.56.26a3.56,3.56,0,0,1-.58.19v-1a6.12,6.12,0,0,0,.67-.24c.24-.1.47-.21.7-.33a5.73,5.73,0,0,0,.64-.39,4.05,4.05,0,0,0,.53-.39h.37Z" fill="#1e1e1e"/>
    </g>
    <g>
      <path d="M217.12,262.7H214.7v7.51h-1V262.7h-2.42v-.89h5.83Z" fill="#1e1e1e"/>
      <path d="M221.27,270.35a3.68,3.68,0,0,1-2.86-1.18,4.34,4.34,0,0,1-1.07-3.06,4.64,4.64,0,0,1,1.09-3.24,3.85,3.85,0,0,1,3-1.21,3.63,3.63,0,0,1,2.81,1.18,4.37,4.37,0,0,1,1.06,3.06,4.61,4.61,0,0,1-1.09,3.25A3.76,3.76,0,0,1,221.27,270.35Zm.07-7.79a2.7,2.7,0,0,0-2.15.95,3.7,3.7,0,0,0-.82,2.51,3.77,3.77,0,0,0,.8,2.5,2.63,2.63,0,0,0,2.1.94,2.75,2.75,0,0,0,2.18-.9,3.68,3.68,0,0,0,.8-2.52,3.91,3.91,0,0,0-.77-2.58A2.68,2.68,0,0,0,221.34,262.56Z" fill="#1e1e1e"/>
      <path d="M233,270.21h-1.17l-1.41-2.36a6,6,0,0,0-.38-.56,2.23,2.23,0,0,0-.37-.38,1.59,1.59,0,0,0-.41-.21,1.81,1.81,0,0,0-.49-.07h-.81v3.58h-1v-8.4h2.51a3.65,3.65,0,0,1,1,.13,2.23,2.23,0,0,1,.81.42,1.94,1.94,0,0,1,.53.7,2.46,2.46,0,0,1,.06,1.79,2,2,0,0,1-.37.65,2.17,2.17,0,0,1-.59.49,3,3,0,0,1-.77.32v0a1.63,1.63,0,0,1,.37.21,2,2,0,0,1,.29.29,2.75,2.75,0,0,1,.28.37l.31.48Zm-5-7.51v3h1.33a1.92,1.92,0,0,0,.69-.11,1.46,1.46,0,0,0,.54-.32,1.57,1.57,0,0,0,.36-.51,1.78,1.78,0,0,0,.12-.67,1.34,1.34,0,0,0-.43-1.06,1.88,1.88,0,0,0-1.26-.37Z" fill="#1e1e1e"/>
      <path d="M239.93,264a1.79,1.79,0,0,0-.12-.68,1.25,1.25,0,0,0-.33-.47,1.37,1.37,0,0,0-.48-.29,2,2,0,0,0-.61-.09,1.7,1.7,0,0,0-.55.08,2.66,2.66,0,0,0-.53.21,2.94,2.94,0,0,0-.49.32,2.85,2.85,0,0,0-.44.41v-1a3,3,0,0,1,.9-.6,3.17,3.17,0,0,1,1.22-.21,2.93,2.93,0,0,1,1,.15,2.2,2.2,0,0,1,.76.44,2.05,2.05,0,0,1,.51.71,2.43,2.43,0,0,1,.18,1,3.58,3.58,0,0,1-.11.9,2.75,2.75,0,0,1-.35.76,3.67,3.67,0,0,1-.58.69,8.92,8.92,0,0,1-.83.66l-1,.72a4.34,4.34,0,0,0-.61.56,1.67,1.67,0,0,0-.32.53,1.8,1.8,0,0,0-.09.6h4.18v.86h-5.18v-.42a3.43,3.43,0,0,1,.12-1,2.35,2.35,0,0,1,.38-.78,4.83,4.83,0,0,1,.71-.74c.29-.24.65-.52,1.07-.83a8,8,0,0,0,.76-.62,3.31,3.31,0,0,0,.5-.6,2.16,2.16,0,0,0,.26-.61A2.27,2.27,0,0,0,239.93,264Z" fill="#1e1e1e"/>
    </g>
    <g>
      <path d="M132.88,330.85v-8.4h2.39A2.61,2.61,0,0,1,137,323a1.74,1.74,0,0,1,.63,1.39,2,2,0,0,1-.38,1.24,2.14,2.14,0,0,1-1.07.75v0a2.11,2.11,0,0,1,1.36.65,2,2,0,0,1,.51,1.41,2.2,2.2,0,0,1-.77,1.74,2.87,2.87,0,0,1-1.95.67Zm1-7.51v2.71h1a1.91,1.91,0,0,0,1.27-.39,1.34,1.34,0,0,0,.46-1.1c0-.81-.53-1.22-1.61-1.22Zm0,3.6v3h1.34a2,2,0,0,0,1.34-.41,1.4,1.4,0,0,0,.48-1.13c0-1-.68-1.48-2-1.48Z" fill="#1e1e1e"/>
      <path d="M148.32,330.85h-1v-5.64c0-.44,0-1,.09-1.63h0a5.05,5.05,0,0,1-.25.81l-2.87,6.46h-.48l-2.87-6.41a6,6,0,0,1-.25-.86h0c0,.33.05.88.05,1.64v5.63h-1v-8.4h1.3l2.57,5.86a7.92,7.92,0,0,1,.39,1h0c.16-.46.3-.8.4-1l2.63-5.83h1.23Z" fill="#1e1e1e"/>
      <path d="M156.25,330.5a4.89,4.89,0,0,1-2.32.49,3.73,3.73,0,0,1-2.87-1.15,4.26,4.26,0,0,1-1.08-3,4.45,4.45,0,0,1,1.21-3.26,4.12,4.12,0,0,1,3.08-1.24,4.92,4.92,0,0,1,2,.34v1.05a4.08,4.08,0,0,0-2-.5,3.07,3.07,0,0,0-2.35,1,3.66,3.66,0,0,0-.9,2.59,3.44,3.44,0,0,0,.84,2.44,2.87,2.87,0,0,0,2.21.92,4.11,4.11,0,0,0,2.19-.57Z" fill="#1e1e1e"/>
    </g>
    <g>
      <path d="M112.31,228.21h-1v-5.64c0-.44,0-1,.08-1.63h0a5.42,5.42,0,0,1-.25.81l-2.87,6.46h-.48l-2.87-6.41a6,6,0,0,1-.25-.86h0c0,.33,0,.88,0,1.64v5.63h-1v-8.4H105l2.58,5.85a7.92,7.92,0,0,1,.39,1h0c.17-.46.31-.8.41-1l2.63-5.83h1.23Z" fill="#1e1e1e"/>
      <path d="M118.88,228.21h-4.36v-8.4h1v7.51h3.38Z" fill="#1e1e1e"/>
      <path d="M127,228.21h-1.09l-.89-2.36h-3.56l-.84,2.36h-1.09l3.22-8.4h1Zm-2.3-3.24-1.32-3.58a5.16,5.16,0,0,1-.13-.57h0a3.51,3.51,0,0,1-.13.57L121.81,225Z" fill="#1e1e1e"/>
      <path d="M134.31,227.63a5.61,5.61,0,0,1-2.82.72,3.87,3.87,0,0,1-2.91-1.16,4.27,4.27,0,0,1-1.11-3.07,4.37,4.37,0,0,1,1.24-3.2,4.17,4.17,0,0,1,3.12-1.26,5.28,5.28,0,0,1,2.31.45v1.09a4.44,4.44,0,0,0-2.42-.64,3,3,0,0,0-2.31,1,4.08,4.08,0,0,0-.07,5,2.94,2.94,0,0,0,2.28.91,3.53,3.53,0,0,0,1.7-.39v-2.35h-1.84v-.9h2.83Z" fill="#1e1e1e"/>
      <path d="M140.53,225v3.18h-1v-8.4h2.31a3,3,0,0,1,2.09.65,2.33,2.33,0,0,1,.74,1.85,2.54,2.54,0,0,1-.82,2,3.13,3.13,0,0,1-2.22.76Zm0-4.33v3.44h1a2.32,2.32,0,0,0,1.56-.46,1.69,1.69,0,0,0,.53-1.32c0-1.11-.65-1.66-2-1.66Z" fill="#1e1e1e"/>
      <path d="M150.51,225.45h-4.23a2.16,2.16,0,0,0,.54,1.54,1.82,1.82,0,0,0,1.41.55,2.94,2.94,0,0,0,1.87-.67v.9a3.45,3.45,0,0,1-2.09.58,2.52,2.52,0,0,1-2-.82,3.81,3.81,0,0,1,.07-4.58,2.51,2.51,0,0,1,2-.88,2.25,2.25,0,0,1,1.82.76,3.17,3.17,0,0,1,.64,2.11Zm-1-.82a2,2,0,0,0-.4-1.29,1.37,1.37,0,0,0-1.1-.46,1.59,1.59,0,0,0-1.16.48,2.24,2.24,0,0,0-.58,1.27Z" fill="#1e1e1e"/>
      <path d="M156.79,225.45h-4.24a2.26,2.26,0,0,0,.54,1.54,1.85,1.85,0,0,0,1.42.55,2.89,2.89,0,0,0,1.86-.67v.9a3.41,3.41,0,0,1-2.09.58,2.53,2.53,0,0,1-2-.82,3.35,3.35,0,0,1-.72-2.3,3.28,3.28,0,0,1,.79-2.28,2.54,2.54,0,0,1,2-.88,2.24,2.24,0,0,1,1.82.76,3.17,3.17,0,0,1,.65,2.11Zm-1-.82a1.9,1.9,0,0,0-.4-1.29,1.36,1.36,0,0,0-1.1-.46,1.56,1.56,0,0,0-1.15.48,2.25,2.25,0,0,0-.59,1.27Z" fill="#1e1e1e"/>
      <path d="M161.37,223.18a1.18,1.18,0,0,0-.73-.19,1.2,1.2,0,0,0-1,.58,2.62,2.62,0,0,0-.42,1.58v3.06h-1v-6h1v1.23h0a2,2,0,0,1,.62-1,1.43,1.43,0,0,1,1-.36,1.65,1.65,0,0,1,.57.08Z" fill="#1e1e1e"/>
      <path d="M170.19,228.21h-4.36v-8.4h1v7.51h3.38Z" fill="#1e1e1e"/>
      <path d="M171.84,220.68a.6.6,0,0,1-.44-.17.65.65,0,0,1,0-.9.64.64,0,0,1,.44-.17.64.64,0,0,1,.45.17.61.61,0,0,1,.18.45.6.6,0,0,1-.18.44A.61.61,0,0,1,171.84,220.68Zm.47,7.53h-1v-6h1Z" fill="#1e1e1e"/>
      <path d="M179.24,228.21h-1v-3.42c0-1.28-.47-1.91-1.4-1.91a1.5,1.5,0,0,0-1.19.54,2,2,0,0,0-.47,1.37v3.42h-1v-6h1v1h0a2.17,2.17,0,0,1,2-1.13,1.82,1.82,0,0,1,1.5.63,2.84,2.84,0,0,1,.53,1.84Z" fill="#1e1e1e"/>
      <path d="M186,228.21h-1.35L182,225.32h0v2.89h-1v-8.89h1V225h0l2.52-2.75h1.26L183,225.1Z" fill="#1e1e1e"/>
    </g>
    <g>
      <path d="M100.28,265.21h-1v-8.4h1Z" fill="#1e1e1e"/>
      <path d="M102.49,265.21v-8.4h2.39a2.59,2.59,0,0,1,1.73.53,1.74,1.74,0,0,1,.64,1.39,2,2,0,0,1-.39,1.24,2.09,2.09,0,0,1-1.07.75v0a2.15,2.15,0,0,1,1.36.64,2,2,0,0,1,.51,1.41,2.22,2.22,0,0,1-.77,1.75,2.92,2.92,0,0,1-2,.67Zm1-7.51v2.71h1a1.91,1.91,0,0,0,1.27-.39,1.36,1.36,0,0,0,.46-1.1c0-.82-.53-1.22-1.61-1.22Zm0,3.59v3h1.34a2,2,0,0,0,1.34-.41,1.42,1.42,0,0,0,.48-1.13c0-1-.67-1.49-2-1.49Z" fill="#1e1e1e"/>
      <path d="M115.65,264.63a5.6,5.6,0,0,1-2.81.72,3.86,3.86,0,0,1-2.91-1.16,4.27,4.27,0,0,1-1.11-3.07,4.37,4.37,0,0,1,1.23-3.2,4.18,4.18,0,0,1,3.13-1.26,5.27,5.27,0,0,1,2.3.45v1.09a4.44,4.44,0,0,0-2.42-.64,3,3,0,0,0-2.31,1,4.06,4.06,0,0,0-.06,5,2.9,2.9,0,0,0,2.27.91,3.5,3.5,0,0,0,1.7-.39v-2.35h-1.84v-.9h2.83Z" fill="#1e1e1e"/>
      <path d="M118.58,262v3.18h-1v-8.4h2.31a3,3,0,0,1,2.09.65,2.37,2.37,0,0,1,.74,1.85,2.55,2.55,0,0,1-.83,2,3.12,3.12,0,0,1-2.22.76Zm0-4.33v3.44h1a2.31,2.31,0,0,0,1.55-.46,1.66,1.66,0,0,0,.54-1.32c0-1.11-.66-1.66-2-1.66Z" fill="#1e1e1e"/>
      <path d="M127.61,265.21v-8.4H130a2.61,2.61,0,0,1,1.73.53,1.74,1.74,0,0,1,.64,1.39A2,2,0,0,1,132,260a2.09,2.09,0,0,1-1.07.75v0a2.15,2.15,0,0,1,1.36.64,2,2,0,0,1,.51,1.41,2.22,2.22,0,0,1-.77,1.75,2.92,2.92,0,0,1-1.95.67Zm1-7.51v2.71h1a1.91,1.91,0,0,0,1.27-.39,1.36,1.36,0,0,0,.46-1.1c0-.82-.53-1.22-1.61-1.22Zm0,3.59v3h1.34a2,2,0,0,0,1.34-.41,1.42,1.42,0,0,0,.48-1.13c0-1-.68-1.49-2-1.49Z" fill="#1e1e1e"/>
      <path d="M138.65,265.21h-1v-.94h0a2,2,0,0,1-1.85,1.08,2,2,0,0,1-1.4-.48,1.62,1.62,0,0,1-.51-1.26q0-1.68,2-1.95l1.8-.26c0-1-.41-1.52-1.23-1.52a3,3,0,0,0-2,.73v-1a3.68,3.68,0,0,1,2-.56c1.41,0,2.11.74,2.11,2.24Zm-1-3-1.45.2a2.25,2.25,0,0,0-1,.33,1,1,0,0,0-.34.84.9.9,0,0,0,.31.72,1.19,1.19,0,0,0,.83.28,1.58,1.58,0,0,0,1.19-.5,1.8,1.8,0,0,0,.46-1.27Z" fill="#1e1e1e"/>
      <path d="M144.55,264.93a3.1,3.1,0,0,1-1.64.42,2.72,2.72,0,0,1-2.07-.84,3,3,0,0,1-.79-2.16,3.35,3.35,0,0,1,.85-2.38,3,3,0,0,1,2.27-.9,3.06,3.06,0,0,1,1.39.29v1a2.44,2.44,0,0,0-1.43-.46,1.94,1.94,0,0,0-1.5.65,2.48,2.48,0,0,0-.59,1.74,2.38,2.38,0,0,0,.55,1.66,1.91,1.91,0,0,0,1.49.61,2.38,2.38,0,0,0,1.47-.52Z" fill="#1e1e1e"/>
      <path d="M151,265.21h-1.35L147,262.32h0v2.89h-1v-8.89h1V262h0l2.52-2.75h1.26L148,262.1Z" fill="#1e1e1e"/>
      <path d="M156.82,265.21h-1v-.95h0a2,2,0,0,1-1.85,1.09c-1.43,0-2.15-.85-2.15-2.56v-3.58h1v3.43c0,1.27.48,1.9,1.45,1.9a1.47,1.47,0,0,0,1.16-.52,2,2,0,0,0,.45-1.36v-3.45h1Z" fill="#1e1e1e"/>
      <path d="M159.75,264.34h0V268h-1v-8.76h1v1.05h0a2.27,2.27,0,0,1,2.07-1.19,2.21,2.21,0,0,1,1.81.8,3.37,3.37,0,0,1,.65,2.16,3.69,3.69,0,0,1-.73,2.41,2.44,2.44,0,0,1-2,.91A2,2,0,0,1,159.75,264.34Zm0-2.42v.84a1.75,1.75,0,0,0,.49,1.26,1.71,1.71,0,0,0,2.59-.15,3,3,0,0,0,.5-1.86,2.43,2.43,0,0,0-.47-1.57,1.5,1.5,0,0,0-1.25-.56,1.7,1.7,0,0,0-1.35.58A2.13,2.13,0,0,0,159.72,261.92Z" fill="#1e1e1e"/>
      <path d="M173.59,265.21h-4.36v-8.4h1v7.51h3.37Z" fill="#1e1e1e"/>
      <path d="M175.24,257.68a.63.63,0,0,1-.44-1.07.66.66,0,0,1,.44-.17.64.64,0,0,1,.45.17.58.58,0,0,1,.19.45.58.58,0,0,1-.19.44A.61.61,0,0,1,175.24,257.68Zm.47,7.53h-1v-6h1Z" fill="#1e1e1e"/>
      <path d="M182.64,265.21h-1v-3.42c0-1.28-.47-1.91-1.4-1.91a1.52,1.52,0,0,0-1.19.54,2,2,0,0,0-.47,1.37v3.42h-1v-6h1v1h0a2.18,2.18,0,0,1,2-1.13,1.85,1.85,0,0,1,1.51.63,2.9,2.9,0,0,1,.52,1.84Z" fill="#1e1e1e"/>
      <path d="M189.43,265.21h-1.35l-2.65-2.89h0v2.89h-1v-8.89h1V262h0l2.52-2.75h1.26l-2.78,2.89Z" fill="#1e1e1e"/>
    </g>
    <g>
      <path d="M144.58,98.57h-.82V95.38h-3.62v3.19h-.82v-7h.82v3.07h3.62V91.57h.82Z" fill="#767676"/>
      <path d="M151.84,98.57h-.91l-.74-2h-3l-.7,2h-.91l2.69-7h.85Zm-1.92-2.7-1.1-3a2.8,2.8,0,0,1-.1-.46h0a2.29,2.29,0,0,1-.12.46l-1.08,3Z" fill="#767676"/>
    </g>
    <g>
      <path d="M437.94,166.2h-.82V163H433.5v3.19h-.82v-7h.82v3.07h3.62V159.2h.82Z" fill="#767676"/>
      <path d="M445.2,166.2h-.91l-.74-2h-3l-.7,2H439l2.68-7h.85Zm-1.92-2.7-1.1-3c0-.1-.07-.26-.11-.47h0a2.63,2.63,0,0,1-.12.47l-1.09,3Z" fill="#767676"/>
    </g>
    <g>
      <path d="M6.71,69.2V60.8h3c3,0,4.48,1.36,4.48,4.09A4.13,4.13,0,0,1,12.94,68,4.48,4.48,0,0,1,9.69,69.2Zm1.9-6.86v5.33h.93a2.53,2.53,0,0,0,1.93-.74,2.78,2.78,0,0,0,.7-2A2.55,2.55,0,0,0,11.48,63a2.64,2.64,0,0,0-2-.69Z" fill="#231f20"/>
      <path d="M20.37,69.2H18.62v-.86h0a2,2,0,0,1-1.79,1,1.86,1.86,0,0,1-1.37-.5,1.76,1.76,0,0,1-.51-1.32q0-1.74,2.07-2l1.63-.22c0-.66-.35-1-1.07-1a3.66,3.66,0,0,0-2,.64V63.56a4.57,4.57,0,0,1,1-.35,5.77,5.77,0,0,1,1.23-.16,2.27,2.27,0,0,1,2.56,2.57Zm-1.74-2.44v-.4l-1.09.14q-.9.12-.9.81a.65.65,0,0,0,.22.52.82.82,0,0,0,.59.21,1.07,1.07,0,0,0,.85-.37A1.29,1.29,0,0,0,18.63,66.76Z" fill="#231f20"/>
      <path d="M25.46,69.13a2.62,2.62,0,0,1-1.23.22c-1.31,0-2-.68-2-2V64.57h-1V63.2h1V61.91l1.85-.53V63.2h1.34v1.37H24.12V67c0,.63.24.94.74.94a1.24,1.24,0,0,0,.6-.17Z" fill="#231f20"/>
      <path d="M31.5,69.2H29.75v-.86h0a2,2,0,0,1-1.78,1,1.88,1.88,0,0,1-1.38-.5,1.79,1.79,0,0,1-.5-1.32q0-1.74,2.07-2l1.63-.22c0-.66-.36-1-1.07-1a3.72,3.72,0,0,0-2,.64V63.56a4.67,4.67,0,0,1,1.06-.35,5.69,5.69,0,0,1,1.22-.16,2.27,2.27,0,0,1,2.57,2.57Zm-1.74-2.44v-.4l-1.09.14q-.9.12-.9.81a.65.65,0,0,0,.22.52.8.8,0,0,0,.59.21,1.07,1.07,0,0,0,.85-.37A1.29,1.29,0,0,0,29.76,66.76Z" fill="#231f20"/>
      <path d="M6.59,82.18a3.55,3.55,0,0,1-1.81.37,3.06,3.06,0,0,1-2.24-.84,2.89,2.89,0,0,1-.85-2.16,3.14,3.14,0,0,1,.92-2.41,3.37,3.37,0,0,1,2.45-.89,3.06,3.06,0,0,1,1.53.29v1.57a2.1,2.1,0,0,0-1.29-.44A1.71,1.71,0,0,0,4,78.14a1.74,1.74,0,0,0-.47,1.28A1.72,1.72,0,0,0,4,80.68a1.62,1.62,0,0,0,1.22.45,2.42,2.42,0,0,0,1.35-.43Z" fill="#231f20"/>
      <path d="M13.2,79.93H9.28c.07.87.61,1.31,1.65,1.31a3.24,3.24,0,0,0,1.74-.47V82.1a4.56,4.56,0,0,1-2.16.45,3,3,0,0,1-2.26-.81,3,3,0,0,1-.8-2.24,3.2,3.2,0,0,1,.87-2.37,2.87,2.87,0,0,1,2.13-.88,2.63,2.63,0,0,1,2,.78,3,3,0,0,1,.72,2.12Zm-1.72-1.14c0-.86-.35-1.29-1-1.29a1,1,0,0,0-.77.37,1.68,1.68,0,0,0-.4.92Z" fill="#231f20"/>
      <path d="M20.09,82.4H18.25V79.07c0-.93-.33-1.4-1-1.4a1,1,0,0,0-.79.37,1.4,1.4,0,0,0-.31.94V82.4H14.3v-6h1.85v.95h0a2.13,2.13,0,0,1,1.93-1.1c1.33,0,2,.83,2,2.48Z" fill="#231f20"/>
      <path d="M25.19,82.33a2.7,2.7,0,0,1-1.24.22c-1.31,0-2-.68-2-2V77.77H21V76.4h1V75.11l1.85-.53V76.4h1.35v1.37H23.84v2.42c0,.63.25.94.74.94a1.31,1.31,0,0,0,.61-.17Z" fill="#231f20"/>
      <path d="M31.57,79.93H27.66c.06.87.61,1.31,1.64,1.31A3.24,3.24,0,0,0,31,80.77V82.1a4.5,4.5,0,0,1-2.16.45,2.81,2.81,0,0,1-3.06-3,3.2,3.2,0,0,1,.87-2.37,2.91,2.91,0,0,1,2.13-.88,2.6,2.6,0,0,1,2,.78,3,3,0,0,1,.72,2.12Zm-1.72-1.14c0-.86-.34-1.29-1-1.29a1,1,0,0,0-.77.37,1.6,1.6,0,0,0-.39.92Z" fill="#231f20"/>
      <path d="M36.59,78.07a1.66,1.66,0,0,0-.78-.18,1.15,1.15,0,0,0-1,.44,2,2,0,0,0-.34,1.21V82.4H32.67v-6h1.85v1.11h0a1.59,1.59,0,0,1,1.58-1.21,1.14,1.14,0,0,1,.46.07Z" fill="#231f20"/>
    </g>
    <g>
      <path d="M306.73,231.73h-2.06l-.6-1.87h-3l-.59,1.87h-2.05l3.06-8.4h2.24Zm-3.09-3.32-.91-2.83a4.38,4.38,0,0,1-.14-.75h0a3.16,3.16,0,0,1-.15.73l-.92,2.85Z" fill="#231f20"/>
      <path d="M312.35,231.73H307V231l3-3.87h-2.72v-1.36h5.06v.91l-2.85,3.72h2.88Z" fill="#231f20"/>
      <path d="M319.05,231.73H317.2v-.92h0a2.1,2.1,0,0,1-1.83,1.07c-1.39,0-2.09-.85-2.09-2.53v-3.62h1.85v3.46c0,.84.33,1.27,1,1.27a1,1,0,0,0,.8-.35,1.41,1.41,0,0,0,.3-1v-3.43h1.85Z" fill="#231f20"/>
      <path d="M324.52,227.4a1.61,1.61,0,0,0-.78-.18,1.1,1.1,0,0,0-.94.44,1.9,1.9,0,0,0-.34,1.2v2.87H320.6v-6h1.86v1.11h0a1.6,1.6,0,0,1,1.58-1.22,1.35,1.35,0,0,1,.46.07Z" fill="#231f20"/>
      <path d="M330.72,229.26h-3.91c.06.87.61,1.3,1.65,1.3a3.15,3.15,0,0,0,1.74-.47v1.34a4.57,4.57,0,0,1-2.17.45,2.79,2.79,0,0,1-3-3.06,3.19,3.19,0,0,1,.86-2.36,2.87,2.87,0,0,1,2.14-.88,2.63,2.63,0,0,1,2,.78,3.05,3.05,0,0,1,.71,2.12ZM329,228.12q0-1.29-1.05-1.29a1,1,0,0,0-.77.37,1.67,1.67,0,0,0-.39.92Z" fill="#231f20"/>
      <path d="M300.27,244.61v-1.88a3.45,3.45,0,0,0,1.11.64,3.4,3.4,0,0,0,1.21.22,2.25,2.25,0,0,0,.62-.07,1.32,1.32,0,0,0,.45-.18.7.7,0,0,0,.27-.27.73.73,0,0,0,.08-.33.68.68,0,0,0-.14-.44,1.47,1.47,0,0,0-.38-.36,5,5,0,0,0-.58-.32l-.72-.31a3.63,3.63,0,0,1-1.47-1,2.19,2.19,0,0,1-.48-1.43,2.36,2.36,0,0,1,.26-1.13,2.31,2.31,0,0,1,.72-.77,3.12,3.12,0,0,1,1-.45,5.21,5.21,0,0,1,1.27-.14,8,8,0,0,1,1.16.07,5.16,5.16,0,0,1,.94.25v1.75a3.42,3.42,0,0,0-.46-.26,4.56,4.56,0,0,0-.52-.18,3.21,3.21,0,0,0-.52-.11,4.38,4.38,0,0,0-.5,0,2.1,2.1,0,0,0-.58.07,1.32,1.32,0,0,0-.45.17.81.81,0,0,0-.28.27.65.65,0,0,0-.1.34.7.7,0,0,0,.11.38,1.38,1.38,0,0,0,.32.32,2.87,2.87,0,0,0,.5.29,7,7,0,0,0,.66.3,7,7,0,0,1,.91.45,3,3,0,0,1,.68.53,2.15,2.15,0,0,1,.44.68,2.49,2.49,0,0,1,.16.9,2.37,2.37,0,0,1-.27,1.18,2.22,2.22,0,0,1-.72.77A3.2,3.2,0,0,1,304,245a6.53,6.53,0,0,1-1.28.13,6.86,6.86,0,0,1-1.31-.12A4.36,4.36,0,0,1,300.27,244.61Z" fill="#231f20"/>
      <path d="M310.53,244.86a2.75,2.75,0,0,1-1.23.22c-1.31,0-2-.68-2-2v-2.75h-1v-1.36h1v-1.3l1.85-.52v1.82h1.34v1.36h-1.34v2.43c0,.62.25.94.74.94a1.24,1.24,0,0,0,.6-.17Z" fill="#231f20"/>
      <path d="M316.57,244.93h-1.75v-.86h0a2,2,0,0,1-1.78,1,1.9,1.9,0,0,1-1.38-.5,1.79,1.79,0,0,1-.5-1.32c0-1.17.69-1.84,2.07-2l1.63-.21c0-.66-.36-1-1.07-1a3.64,3.64,0,0,0-2,.64v-1.39a4.62,4.62,0,0,1,1.06-.36,5.7,5.7,0,0,1,1.22-.15,2.27,2.27,0,0,1,2.57,2.56Zm-1.74-2.44v-.4l-1.09.14q-.9.12-.9.81a.66.66,0,0,0,.22.52.8.8,0,0,0,.59.2,1.1,1.1,0,0,0,.85-.36A1.29,1.29,0,0,0,314.83,242.49Z" fill="#231f20"/>
      <path d="M322.58,244.71a3.68,3.68,0,0,1-1.81.37,3.06,3.06,0,0,1-2.24-.84,2.89,2.89,0,0,1-.85-2.16,3.21,3.21,0,0,1,.91-2.42,3.44,3.44,0,0,1,2.46-.88,3.22,3.22,0,0,1,1.53.28v1.57a2.11,2.11,0,0,0-1.29-.43,1.82,1.82,0,0,0-1.29,3,1.63,1.63,0,0,0,1.23.46,2.43,2.43,0,0,0,1.35-.44Z" fill="#231f20"/>
      <path d="M329.81,244.93h-2.22l-1.92-3h0v3h-1.86v-8.88h1.86v5.65h0l1.79-2.77h2.19l-2.15,2.82Z" fill="#231f20"/>
      <path d="M311,258.13h-1.9v-3.42h-3.48v3.42h-1.89v-8.4h1.89v3.35h3.48v-3.35H311Z" fill="#231f20"/>
      <path d="M318.44,258.13h-1.85v-.92h0a2.08,2.08,0,0,1-1.83,1.07c-1.39,0-2.09-.85-2.09-2.53v-3.62h1.85v3.46c0,.84.34,1.27,1,1.27a1,1,0,0,0,.79-.35,1.41,1.41,0,0,0,.3-.95v-3.43h1.85Z" fill="#231f20"/>
      <path d="M321.87,257.43h0v.7H320v-8.88h1.85V253h0a2.2,2.2,0,0,1,1.95-1.05,2.15,2.15,0,0,1,1.79.8,3.43,3.43,0,0,1,.63,2.18,3.78,3.78,0,0,1-.73,2.41,2.42,2.42,0,0,1-2,.91A1.91,1.91,0,0,1,321.87,257.43Zm-.05-2.53v.62a1.44,1.44,0,0,0,.33,1,1.12,1.12,0,0,0,.86.38,1.15,1.15,0,0,0,1-.49,2.4,2.4,0,0,0,.35-1.39,1.9,1.9,0,0,0-.32-1.16,1.08,1.08,0,0,0-.91-.42,1.16,1.16,0,0,0-.92.42A1.54,1.54,0,0,0,321.82,254.9Z" fill="#231f20"/>
    </g>
    <g>
      <path d="M302.46,69.2V60.8h3q4.49,0,4.48,4.09A4.16,4.16,0,0,1,308.69,68a4.52,4.52,0,0,1-3.26,1.17Zm1.89-6.86v5.33h.94a2.55,2.55,0,0,0,1.93-.74,2.78,2.78,0,0,0,.7-2,2.52,2.52,0,0,0-.7-1.89,2.63,2.63,0,0,0-1.94-.69Z" fill="#231f20"/>
      <path d="M316.12,69.2h-1.76v-.86h0a2,2,0,0,1-1.79,1,1.86,1.86,0,0,1-1.37-.5,1.79,1.79,0,0,1-.5-1.32q0-1.74,2.07-2l1.63-.22c0-.66-.36-1-1.07-1a3.67,3.67,0,0,0-2,.64V63.56a4.67,4.67,0,0,1,1.06-.35,5.61,5.61,0,0,1,1.22-.16,2.27,2.27,0,0,1,2.57,2.57Zm-1.74-2.44v-.4l-1.09.14c-.61.08-.91.35-.91.81a.68.68,0,0,0,.22.52.84.84,0,0,0,.6.21,1.07,1.07,0,0,0,.85-.37A1.29,1.29,0,0,0,314.38,66.76Z" fill="#231f20"/>
      <path d="M321.21,69.13a2.7,2.7,0,0,1-1.24.22c-1.3,0-2-.68-2-2V64.57h-1V63.2h1V61.91l1.85-.53V63.2h1.35v1.37h-1.35V67c0,.63.25.94.74.94a1.31,1.31,0,0,0,.61-.17Z" fill="#231f20"/>
      <path d="M327.24,69.2h-1.75v-.86h0a2,2,0,0,1-1.79,1,1.86,1.86,0,0,1-1.37-.5,1.75,1.75,0,0,1-.5-1.32c0-1.16.68-1.83,2.06-2l1.63-.22c0-.66-.35-1-1.06-1a3.67,3.67,0,0,0-2,.64V63.56a4.57,4.57,0,0,1,1.05-.35,5.77,5.77,0,0,1,1.23-.16,2.27,2.27,0,0,1,2.56,2.57Zm-1.74-2.44v-.4l-1.09.14q-.9.12-.9.81a.65.65,0,0,0,.22.52.82.82,0,0,0,.59.21,1.06,1.06,0,0,0,.85-.37A1.29,1.29,0,0,0,325.5,66.76Z" fill="#231f20"/>
      <path d="M302.34,82.18a3.57,3.57,0,0,1-1.81.37,3,3,0,0,1-2.24-.84,2.9,2.9,0,0,1-.86-2.16,3.18,3.18,0,0,1,.92-2.41,3.38,3.38,0,0,1,2.45-.89,3.13,3.13,0,0,1,1.54.29v1.57a2.13,2.13,0,0,0-1.3-.44,1.71,1.71,0,0,0-1.26.47,1.74,1.74,0,0,0-.47,1.28,1.72,1.72,0,0,0,.45,1.26,1.64,1.64,0,0,0,1.22.45,2.45,2.45,0,0,0,1.36-.43Z" fill="#231f20"/>
      <path d="M308.94,79.93H305c.06.87.61,1.31,1.64,1.31a3.24,3.24,0,0,0,1.74-.47V82.1a4.5,4.5,0,0,1-2.16.45,2.81,2.81,0,0,1-3.06-3,3.2,3.2,0,0,1,.87-2.37,2.91,2.91,0,0,1,2.13-.88,2.62,2.62,0,0,1,2,.78,3,3,0,0,1,.72,2.12Zm-1.72-1.14c0-.86-.34-1.29-1-1.29a1,1,0,0,0-.77.37,1.6,1.6,0,0,0-.39.92Z" fill="#231f20"/>
      <path d="M315.84,82.4H314V79.07c0-.93-.33-1.4-1-1.4a1,1,0,0,0-.8.37,1.46,1.46,0,0,0-.31.94V82.4H310v-6h1.85v.95h0a2.12,2.12,0,0,1,1.93-1.1c1.32,0,2,.83,2,2.48Z" fill="#231f20"/>
      <path d="M320.93,82.33a2.67,2.67,0,0,1-1.24.22q-1.95,0-1.95-2V77.77h-1V76.4h1V75.11l1.84-.53V76.4h1.35v1.37h-1.35v2.42c0,.63.25.94.75.94a1.31,1.31,0,0,0,.6-.17Z" fill="#231f20"/>
      <path d="M327.32,79.93H323.4c.06.87.61,1.31,1.65,1.31a3.24,3.24,0,0,0,1.74-.47V82.1a4.56,4.56,0,0,1-2.16.45,2.79,2.79,0,0,1-3.06-3,3.2,3.2,0,0,1,.87-2.37,2.87,2.87,0,0,1,2.13-.88,2.63,2.63,0,0,1,2,.78,3,3,0,0,1,.72,2.12Zm-1.72-1.14c0-.86-.35-1.29-1-1.29a1,1,0,0,0-.77.37,1.68,1.68,0,0,0-.4.92Z" fill="#231f20"/>
      <path d="M332.33,78.07a1.61,1.61,0,0,0-.78-.18,1.14,1.14,0,0,0-.94.44,1.93,1.93,0,0,0-.34,1.21V82.4h-1.85v-6h1.85v1.11h0a1.6,1.6,0,0,1,1.58-1.21,1.14,1.14,0,0,1,.46.07Z" fill="#231f20"/>
    </g>
    <g>
      <path d="M378.64,116.69h-3.28v2.91h3v.88h-3v3.72h-1v-8.4h4.26Z" fill="#1e1e1e"/>
      <path d="M380.6,116.68a.6.6,0,0,1-.44-.18.59.59,0,0,1-.18-.44.61.61,0,0,1,.18-.45.6.6,0,0,1,.44-.18.62.62,0,0,1,.63.63.6.6,0,0,1-.18.44A.61.61,0,0,1,380.6,116.68Zm.47,7.52h-1v-6h1Z" fill="#1e1e1e"/>
      <path d="M386.14,119.17a1.14,1.14,0,0,0-.72-.19,1.23,1.23,0,0,0-1,.58,2.64,2.64,0,0,0-.41,1.58v3.06h-1v-6h1v1.24h0a2.17,2.17,0,0,1,.63-1,1.39,1.39,0,0,1,.94-.35,1.44,1.44,0,0,1,.57.08Z" fill="#1e1e1e"/>
      <path d="M392,121.44h-4.24a2.28,2.28,0,0,0,.54,1.55,1.88,1.88,0,0,0,1.42.54,2.94,2.94,0,0,0,1.86-.66v.9a3.47,3.47,0,0,1-2.09.57,2.53,2.53,0,0,1-2-.82,3.35,3.35,0,0,1-.72-2.3,3.28,3.28,0,0,1,.79-2.28,2.54,2.54,0,0,1,2-.88,2.26,2.26,0,0,1,1.83.76,3.19,3.19,0,0,1,.64,2.12Zm-1-.81a2,2,0,0,0-.41-1.3,1.35,1.35,0,0,0-1.09-.46,1.54,1.54,0,0,0-1.16.49,2.18,2.18,0,0,0-.58,1.27Z" fill="#1e1e1e"/>
      <path d="M401,118.2l-1.8,6h-1L397,119.91a2.34,2.34,0,0,1-.09-.56h0a2.44,2.44,0,0,1-.12.54l-1.34,4.31h-1l-1.82-6h1l1.24,4.51a2.38,2.38,0,0,1,.08.54H395a2.43,2.43,0,0,1,.11-.55l1.38-4.5h.88l1.24,4.52a3.36,3.36,0,0,1,.09.54h0a3.52,3.52,0,0,1,.1-.54l1.22-4.52Z" fill="#1e1e1e"/>
      <path d="M406.43,124.2h-1v-.94h0a2,2,0,0,1-1.85,1.08,2,2,0,0,1-1.4-.47,1.65,1.65,0,0,1-.51-1.26c0-1.12.66-1.78,2-2l1.8-.25c0-1-.41-1.53-1.24-1.53a3,3,0,0,0-2,.74v-1a3.75,3.75,0,0,1,2-.56c1.42,0,2.12.75,2.12,2.24Zm-1-3-1.45.2a2.35,2.35,0,0,0-1,.33,1,1,0,0,0-.34.84.9.9,0,0,0,.32.71,1.19,1.19,0,0,0,.83.28A1.51,1.51,0,0,0,405,123a1.78,1.78,0,0,0,.47-1.27Z" fill="#1e1e1e"/>
      <path d="M409.2,124.2h-1v-8.88h1Z" fill="#1e1e1e"/>
      <path d="M412.11,124.2h-1v-8.88h1Z" fill="#1e1e1e"/>
      <path d="M377.52,137.4h-1v-7.26a2.11,2.11,0,0,1-.33.26,5.1,5.1,0,0,1-.48.28,5.85,5.85,0,0,1-.56.26,3.63,3.63,0,0,1-.58.2v-1a5.46,5.46,0,0,0,.67-.24,6.44,6.44,0,0,0,.7-.34c.23-.12.45-.25.65-.38a6.62,6.62,0,0,0,.53-.4h.36Z" fill="#1e1e1e"/>
    </g>
    <g>
      <path d="M473.12,116.69h-3.28v2.91h3v.88h-3v3.72h-1v-8.4h4.27Z" fill="#1e1e1e"/>
      <path d="M475.08,116.68a.61.61,0,0,1-.62-.62.61.61,0,0,1,.18-.45.59.59,0,0,1,.44-.18.6.6,0,0,1,.44.18.58.58,0,0,1,.19.45.58.58,0,0,1-.19.44A.6.6,0,0,1,475.08,116.68Zm.47,7.52h-1v-6h1Z" fill="#1e1e1e"/>
      <path d="M480.62,119.17a1.18,1.18,0,0,0-.73-.19,1.23,1.23,0,0,0-1,.58,2.72,2.72,0,0,0-.41,1.58v3.06h-1v-6h1v1.24h0a2.08,2.08,0,0,1,.62-1,1.42,1.42,0,0,1,.95-.35,1.44,1.44,0,0,1,.57.08Z" fill="#1e1e1e"/>
      <path d="M486.48,121.44h-4.23a2.19,2.19,0,0,0,.54,1.55,1.85,1.85,0,0,0,1.42.54,3,3,0,0,0,1.86-.66v.9a3.52,3.52,0,0,1-2.09.57,2.52,2.52,0,0,1-2-.82,3.81,3.81,0,0,1,.07-4.58,2.53,2.53,0,0,1,2-.88,2.25,2.25,0,0,1,1.82.76,3.19,3.19,0,0,1,.64,2.12Zm-1-.81a2,2,0,0,0-.4-1.3,1.36,1.36,0,0,0-1.1-.46,1.52,1.52,0,0,0-1.15.49,2.13,2.13,0,0,0-.59,1.27Z" fill="#1e1e1e"/>
      <path d="M495.5,118.2l-1.8,6h-1l-1.23-4.29a3,3,0,0,1-.1-.56h0a2.44,2.44,0,0,1-.12.54l-1.35,4.31h-1l-1.81-6h1l1.25,4.51a4.55,4.55,0,0,1,.08.54h0a3.14,3.14,0,0,1,.11-.55l1.38-4.5h.88l1.24,4.52a3.36,3.36,0,0,1,.09.54h.05a2.61,2.61,0,0,1,.1-.54l1.22-4.52Z" fill="#1e1e1e"/>
      <path d="M500.9,124.2h-1v-.94h0a2.2,2.2,0,0,1-3.25.61,1.65,1.65,0,0,1-.51-1.26c0-1.12.66-1.78,2-2l1.8-.25q0-1.53-1.23-1.53a3,3,0,0,0-2,.74v-1a3.76,3.76,0,0,1,2-.56c1.41,0,2.11.75,2.11,2.24Zm-1-3-1.44.2a2.3,2.3,0,0,0-1,.33.93.93,0,0,0-.34.84.89.89,0,0,0,.31.71,1.2,1.2,0,0,0,.84.28,1.53,1.53,0,0,0,1.18-.5,1.77,1.77,0,0,0,.46-1.27Z" fill="#1e1e1e"/>
      <path d="M503.68,124.2h-1v-8.88h1Z" fill="#1e1e1e"/>
      <path d="M506.58,124.2h-1v-8.88h1Z" fill="#1e1e1e"/>
      <path d="M505.61,131.2a1.71,1.71,0,0,0-.12-.67,1.37,1.37,0,0,0-.33-.48,1.26,1.26,0,0,0-.49-.28,1.74,1.74,0,0,0-.61-.1,2.09,2.09,0,0,0-.55.08,2.57,2.57,0,0,0-.52.21,3.17,3.17,0,0,0-.49.32,4.47,4.47,0,0,0-.45.42v-1a2.88,2.88,0,0,1,.91-.6,3.14,3.14,0,0,1,1.22-.21,3,3,0,0,1,1,.15,2.27,2.27,0,0,1,.76.43,2.12,2.12,0,0,1,.5.71,2.3,2.3,0,0,1,.19,1,3.16,3.16,0,0,1-.12.9,2.6,2.6,0,0,1-.34.76,4.09,4.09,0,0,1-.58.69,8.92,8.92,0,0,1-.83.67c-.4.28-.72.52-1,.72a4.3,4.3,0,0,0-.61.56,1.59,1.59,0,0,0-.31.52,1.8,1.8,0,0,0-.09.6h4.18v.86h-5.18V137a3.4,3.4,0,0,1,.11-1,2.38,2.38,0,0,1,.39-.78,3.75,3.75,0,0,1,.71-.74c.29-.25.64-.52,1.06-.83a6.87,6.87,0,0,0,.77-.63,3.23,3.23,0,0,0,.49-.6,2,2,0,0,0,.27-.6A2.84,2.84,0,0,0,505.61,131.2Z" fill="#1e1e1e"/>
    </g>
    <g>
      <path d="M421.35,10.2h-1V1.8h1Z" fill="#1e1e1e"/>
      <path d="M428.41,10.2h-1V6.78c0-1.27-.46-1.91-1.39-1.91a1.54,1.54,0,0,0-1.2.54,2,2,0,0,0-.47,1.37V10.2h-1v-6h1v1h0a2.16,2.16,0,0,1,2-1.14,1.82,1.82,0,0,1,1.5.64,2.79,2.79,0,0,1,.52,1.83Z" fill="#1e1e1e"/>
      <path d="M433,10.14a1.82,1.82,0,0,1-.9.19c-1.05,0-1.58-.59-1.58-1.76V5h-1V4.2h1V2.74l1-.31V4.2H433V5h-1.52V8.4a1.37,1.37,0,0,0,.21.86.8.8,0,0,0,.68.26,1,1,0,0,0,.63-.2Z" fill="#1e1e1e"/>
      <path d="M439.11,7.44h-4.23A2.23,2.23,0,0,0,435.41,9a1.88,1.88,0,0,0,1.42.54,3,3,0,0,0,1.87-.66v.9a3.53,3.53,0,0,1-2.1.57,2.51,2.51,0,0,1-2-.82,3.31,3.31,0,0,1-.73-2.3,3.28,3.28,0,0,1,.79-2.28,2.54,2.54,0,0,1,2-.88,2.26,2.26,0,0,1,1.83.76,3.19,3.19,0,0,1,.64,2.12Zm-1-.81a2,2,0,0,0-.4-1.3,1.37,1.37,0,0,0-1.1-.46,1.54,1.54,0,0,0-1.16.49,2.18,2.18,0,0,0-.58,1.27Z" fill="#1e1e1e"/>
      <path d="M443.69,5.17A1.14,1.14,0,0,0,443,5a1.21,1.21,0,0,0-1,.58,2.64,2.64,0,0,0-.41,1.58V10.2h-1v-6h1V5.44h0a2.09,2.09,0,0,1,.63-1,1.39,1.39,0,0,1,.94-.35,1.44,1.44,0,0,1,.57.08Z" fill="#1e1e1e"/>
      <path d="M449.72,10.2h-1V6.78c0-1.27-.47-1.91-1.4-1.91a1.5,1.5,0,0,0-1.19.54,2,2,0,0,0-.47,1.37V10.2h-1v-6h1v1h0a2.16,2.16,0,0,1,2-1.14,1.83,1.83,0,0,1,1.51.64,2.85,2.85,0,0,1,.52,1.83Z" fill="#1e1e1e"/>
      <path d="M456.35,7.44h-4.24A2.28,2.28,0,0,0,452.65,9a1.88,1.88,0,0,0,1.42.54,2.94,2.94,0,0,0,1.86-.66v.9a3.47,3.47,0,0,1-2.09.57,2.53,2.53,0,0,1-2-.82,3.35,3.35,0,0,1-.72-2.3,3.28,3.28,0,0,1,.79-2.28,2.54,2.54,0,0,1,2-.88,2.26,2.26,0,0,1,1.83.76,3.19,3.19,0,0,1,.64,2.12Zm-1-.81a2,2,0,0,0-.41-1.3,1.35,1.35,0,0,0-1.09-.46,1.54,1.54,0,0,0-1.16.49,2.12,2.12,0,0,0-.58,1.27Z" fill="#1e1e1e"/>
      <path d="M460.59,10.14a1.82,1.82,0,0,1-.9.19c-1.05,0-1.58-.59-1.58-1.76V5h-1V4.2h1V2.74l1-.31V4.2h1.52V5h-1.52V8.4a1.37,1.37,0,0,0,.21.86.8.8,0,0,0,.68.26,1,1,0,0,0,.63-.2Z" fill="#1e1e1e"/>
    </g>
    <g>
      <path d="M458.62,67h-4.45v-8.4h4.26v.89h-3.28v2.79h3v.89h-3v2.94h3.47Z" fill="#1e1e1e"/>
      <path d="M465.23,67h-1v-1h0a2.21,2.21,0,0,1-2.06,1.16,2.26,2.26,0,0,1-1.81-.81,3.28,3.28,0,0,1-.67-2.19,3.57,3.57,0,0,1,.75-2.38,2.46,2.46,0,0,1,2-.9,1.9,1.9,0,0,1,1.79,1h0V58.07h1Zm-1-2.71v-.89a1.73,1.73,0,0,0-.48-1.23,1.78,1.78,0,0,0-2.6.14,2.81,2.81,0,0,0-.51,1.78,2.51,2.51,0,0,0,.49,1.64,1.57,1.57,0,0,0,1.29.6,1.65,1.65,0,0,0,1.31-.58A2.17,2.17,0,0,0,464.27,64.24Z" fill="#1e1e1e"/>
      <path d="M472.3,66.47q0,3.3-3.17,3.3a4.23,4.23,0,0,1-1.94-.42v-1a3.92,3.92,0,0,0,1.93.56c1.48,0,2.21-.78,2.21-2.35v-.66h0a2.42,2.42,0,0,1-3.86.35,3.17,3.17,0,0,1-.69-2.15,3.73,3.73,0,0,1,.74-2.43,2.46,2.46,0,0,1,2-.9,2,2,0,0,1,1.8,1h0V61h1Zm-1-2.23v-.89a1.72,1.72,0,0,0-.48-1.22,1.58,1.58,0,0,0-1.2-.51,1.66,1.66,0,0,0-1.4.65,2.91,2.91,0,0,0-.5,1.81,2.48,2.48,0,0,0,.48,1.6,1.56,1.56,0,0,0,1.28.6,1.69,1.69,0,0,0,1.32-.57A2.15,2.15,0,0,0,471.33,64.24Z" fill="#1e1e1e"/>
      <path d="M479.06,64.19h-4.23a2.21,2.21,0,0,0,.54,1.55,1.85,1.85,0,0,0,1.41.54,2.94,2.94,0,0,0,1.87-.67v.91a3.52,3.52,0,0,1-2.09.57,2.52,2.52,0,0,1-2-.82,3.83,3.83,0,0,1,.06-4.58,2.55,2.55,0,0,1,2-.88,2.25,2.25,0,0,1,1.82.76,3.18,3.18,0,0,1,.64,2.12Zm-1-.81a2,2,0,0,0-.4-1.3,1.37,1.37,0,0,0-1.1-.46,1.59,1.59,0,0,0-1.16.48,2.24,2.24,0,0,0-.58,1.28Z" fill="#1e1e1e"/>
      <path d="M490,67h-1.18l-1.4-2.36c-.13-.21-.26-.4-.38-.56a1.85,1.85,0,0,0-.37-.37,1.36,1.36,0,0,0-.41-.22,1.88,1.88,0,0,0-.49-.06h-.81V67h-1v-8.4h2.51a3.31,3.31,0,0,1,1,.14,2.38,2.38,0,0,1,.81.41,2.06,2.06,0,0,1,.53.7,2.33,2.33,0,0,1,.19,1,2.28,2.28,0,0,1-.13.8,2.08,2.08,0,0,1-.37.65,2,2,0,0,1-.59.49,3,3,0,0,1-.77.32v0a1.88,1.88,0,0,1,.37.21,2,2,0,0,1,.29.29,2.75,2.75,0,0,1,.28.37l.31.48Zm-5-7.51v3h1.33a1.92,1.92,0,0,0,.69-.11,1.64,1.64,0,0,0,.54-.32,1.26,1.26,0,0,0,.35-.51,1.6,1.6,0,0,0,.13-.67,1.31,1.31,0,0,0-.43-1,1.85,1.85,0,0,0-1.27-.38Z" fill="#1e1e1e"/>
      <path d="M493.14,67.09a2.79,2.79,0,0,1-2.13-.84,3.1,3.1,0,0,1-.79-2.23,3.21,3.21,0,0,1,.83-2.36,3,3,0,0,1,2.23-.85,2.66,2.66,0,0,1,2.09.83,3.73,3.73,0,0,1-.06,4.59A2.85,2.85,0,0,1,493.14,67.09Zm.07-5.47a1.84,1.84,0,0,0-1.47.63A2.58,2.58,0,0,0,491.2,64a2.47,2.47,0,0,0,.55,1.69,1.85,1.85,0,0,0,1.46.61,1.75,1.75,0,0,0,1.43-.6,3.23,3.23,0,0,0,0-3.45A1.73,1.73,0,0,0,493.21,61.62Z" fill="#1e1e1e"/>
      <path d="M502.51,67h-1V66h0a2,2,0,0,1-1.85,1.09c-1.43,0-2.15-.85-2.15-2.55V61h1v3.43c0,1.27.48,1.9,1.45,1.9a1.47,1.47,0,0,0,1.16-.52,2,2,0,0,0,.45-1.35V61h1Z" fill="#1e1e1e"/>
      <path d="M507.23,66.89a1.76,1.76,0,0,1-.89.19c-1,0-1.58-.59-1.58-1.76V61.77h-1V61h1V59.48l1-.31V61h1.51v.82h-1.51v3.38a1.37,1.37,0,0,0,.21.86.81.81,0,0,0,.68.26,1,1,0,0,0,.62-.2Z" fill="#1e1e1e"/>
      <path d="M513.34,64.19H509.1a2.3,2.3,0,0,0,.54,1.55,1.88,1.88,0,0,0,1.42.54,2.89,2.89,0,0,0,1.86-.67v.91a3.47,3.47,0,0,1-2.09.57,2.53,2.53,0,0,1-2-.82,3.35,3.35,0,0,1-.72-2.3,3.28,3.28,0,0,1,.79-2.28,2.54,2.54,0,0,1,2-.88,2.26,2.26,0,0,1,1.83.76,3.18,3.18,0,0,1,.64,2.12Zm-1-.81a2,2,0,0,0-.41-1.3,1.35,1.35,0,0,0-1.09-.46,1.57,1.57,0,0,0-1.16.48,2.24,2.24,0,0,0-.58,1.28Z" fill="#1e1e1e"/>
      <path d="M517.92,61.92a1.16,1.16,0,0,0-.72-.19,1.21,1.21,0,0,0-1,.58,2.64,2.64,0,0,0-.42,1.58V67h-1V61h1v1.24h0a2,2,0,0,1,.62-1,1.45,1.45,0,0,1,1-.36,1.41,1.41,0,0,1,.57.09Z" fill="#1e1e1e"/>
    </g>
    <g>
      <path d="M352.19,262.7h-2.42v7.51h-1V262.7h-2.42v-.89h5.83Z" fill="#1e1e1e"/>
      <path d="M356.34,270.35a3.68,3.68,0,0,1-2.86-1.18,4.35,4.35,0,0,1-1.08-3.06,4.64,4.64,0,0,1,1.1-3.24,3.85,3.85,0,0,1,3-1.21,3.63,3.63,0,0,1,2.81,1.18,4.37,4.37,0,0,1,1.06,3.06,4.61,4.61,0,0,1-1.09,3.25A3.76,3.76,0,0,1,356.34,270.35Zm.07-7.79a2.7,2.7,0,0,0-2.15.95,4.28,4.28,0,0,0,0,5,2.63,2.63,0,0,0,2.1.94,2.76,2.76,0,0,0,2.18-.9,3.68,3.68,0,0,0,.8-2.52,3.91,3.91,0,0,0-.77-2.58A2.68,2.68,0,0,0,356.41,262.56Z" fill="#1e1e1e"/>
      <path d="M368,270.21h-1.18l-1.4-2.36a6,6,0,0,0-.38-.56,2.23,2.23,0,0,0-.37-.38,1.59,1.59,0,0,0-.41-.21,1.87,1.87,0,0,0-.49-.07H363v3.58h-1v-8.4h2.51a3.65,3.65,0,0,1,1,.13,2.23,2.23,0,0,1,.81.42,2.06,2.06,0,0,1,.53.7,2.61,2.61,0,0,1,.06,1.79,2,2,0,0,1-.37.65,2.17,2.17,0,0,1-.59.49,3,3,0,0,1-.77.32v0a1.88,1.88,0,0,1,.37.21,2,2,0,0,1,.29.29,2.75,2.75,0,0,1,.28.37l.31.48Zm-5-7.51v3h1.33a1.92,1.92,0,0,0,.69-.11,1.64,1.64,0,0,0,.54-.32,1.41,1.41,0,0,0,.35-.51,1.6,1.6,0,0,0,.13-.67,1.34,1.34,0,0,0-.43-1.06,1.89,1.89,0,0,0-1.27-.37Z" fill="#1e1e1e"/>
      <path d="M374.72,270.21h-1V263a2,2,0,0,1-.32.25c-.15.1-.31.19-.49.29a5.85,5.85,0,0,1-.56.26,3.56,3.56,0,0,1-.58.19v-1a5.58,5.58,0,0,0,.68-.24l.69-.33a5.88,5.88,0,0,0,.65-.39,4.87,4.87,0,0,0,.53-.39h.36Z" fill="#1e1e1e"/>
    </g>
    <g>
      <path d="M513.54,262.7h-2.43v7.51h-1V262.7h-2.42v-.89h5.83Z" fill="#1e1e1e"/>
      <path d="M517.69,270.35a3.66,3.66,0,0,1-2.86-1.18,4.35,4.35,0,0,1-1.08-3.06,4.64,4.64,0,0,1,1.1-3.24,3.84,3.84,0,0,1,3-1.21,3.61,3.61,0,0,1,2.8,1.18,4.37,4.37,0,0,1,1.07,3.06,4.66,4.66,0,0,1-1.09,3.25A3.76,3.76,0,0,1,517.69,270.35Zm.07-7.79a2.7,2.7,0,0,0-2.15.95,4.24,4.24,0,0,0,0,5,2.63,2.63,0,0,0,2.1.94,2.76,2.76,0,0,0,2.18-.9,3.68,3.68,0,0,0,.8-2.52,3.86,3.86,0,0,0-.78-2.58A2.64,2.64,0,0,0,517.76,262.56Z" fill="#1e1e1e"/>
      <path d="M529.37,270.21H528.2l-1.41-2.36a4.53,4.53,0,0,0-.37-.56,2.69,2.69,0,0,0-.37-.38,1.77,1.77,0,0,0-.41-.21,1.89,1.89,0,0,0-.5-.07h-.81v3.58h-1v-8.4h2.51a3.63,3.63,0,0,1,1,.13,2.23,2.23,0,0,1,.81.42,2,2,0,0,1,.54.7,2.61,2.61,0,0,1,.06,1.79,2,2,0,0,1-.38.65,2.13,2.13,0,0,1-.58.49,3.12,3.12,0,0,1-.77.32v0a1.55,1.55,0,0,1,.36.21,1.64,1.64,0,0,1,.3.29,4,4,0,0,1,.28.37l.31.48Zm-5-7.51v3h1.34a1.87,1.87,0,0,0,.68-.11,1.46,1.46,0,0,0,.54-.32,1.32,1.32,0,0,0,.36-.51,1.6,1.6,0,0,0,.13-.67,1.35,1.35,0,0,0-.44-1.06,1.88,1.88,0,0,0-1.26-.37Z" fill="#1e1e1e"/>
      <path d="M536.35,264a1.79,1.79,0,0,0-.12-.68,1.25,1.25,0,0,0-.33-.47,1.42,1.42,0,0,0-.49-.29,2,2,0,0,0-.61-.09,1.7,1.7,0,0,0-.55.08,2.57,2.57,0,0,0-.52.21,3,3,0,0,0-.5.32,4.2,4.2,0,0,0-.44.41v-1a2.88,2.88,0,0,1,.91-.6,3.14,3.14,0,0,1,1.22-.21,2.91,2.91,0,0,1,1,.15,2.25,2.25,0,0,1,.77.44,2,2,0,0,1,.5.71,2.27,2.27,0,0,1,.19,1,3.16,3.16,0,0,1-.12.9,2.73,2.73,0,0,1-.34.76,3.73,3.73,0,0,1-.59.69,8.7,8.7,0,0,1-.82.66l-1,.72a5,5,0,0,0-.61.56,1.63,1.63,0,0,0-.31.53,1.8,1.8,0,0,0-.09.6h4.18v.86h-5.19v-.42a3.43,3.43,0,0,1,.12-1,2.59,2.59,0,0,1,.39-.78,4.73,4.73,0,0,1,.7-.74c.3-.24.65-.52,1.07-.83a8.24,8.24,0,0,0,.77-.62,3.23,3.23,0,0,0,.49-.6,1.93,1.93,0,0,0,.27-.61A2.69,2.69,0,0,0,536.35,264Z" fill="#1e1e1e"/>
    </g>
    <g>
      <path d="M429.29,330.85v-8.4h2.39a2.58,2.58,0,0,1,1.73.53,1.72,1.72,0,0,1,.64,1.39,2,2,0,0,1-.39,1.24,2.07,2.07,0,0,1-1.06.75v0A2.14,2.14,0,0,1,434,327a2,2,0,0,1,.51,1.41,2.18,2.18,0,0,1-.78,1.74,2.84,2.84,0,0,1-1.95.67Zm1-7.51v2.71h1a1.94,1.94,0,0,0,1.28-.39,1.37,1.37,0,0,0,.46-1.1c0-.81-.54-1.22-1.61-1.22Zm0,3.6v3h1.33a2,2,0,0,0,1.35-.41,1.4,1.4,0,0,0,.48-1.13c0-1-.68-1.48-2-1.48Z" fill="#1e1e1e"/>
      <path d="M444.74,330.85h-1v-5.64c0-.44,0-1,.08-1.63h0a6.37,6.37,0,0,1-.25.81l-2.88,6.46h-.48l-2.86-6.41a4.93,4.93,0,0,1-.25-.86h0c0,.33.05.88.05,1.64v5.63h-.95v-8.4h1.3l2.58,5.86a7.92,7.92,0,0,1,.39,1h0c.17-.46.3-.8.41-1l2.63-5.83h1.23Z" fill="#1e1e1e"/>
      <path d="M452.67,330.5a5,5,0,0,1-2.32.49,3.75,3.75,0,0,1-2.88-1.15,4.3,4.3,0,0,1-1.07-3,4.45,4.45,0,0,1,1.21-3.26,4.11,4.11,0,0,1,3.08-1.24,5,5,0,0,1,2,.34v1.05a4.12,4.12,0,0,0-2-.5,3.06,3.06,0,0,0-2.34,1,3.66,3.66,0,0,0-.9,2.59,3.44,3.44,0,0,0,.84,2.44,2.85,2.85,0,0,0,2.2.92,4.12,4.12,0,0,0,2.2-.57Z" fill="#1e1e1e"/>
    </g>
    <g>
      <path d="M408.73,228.21h-1v-5.64c0-.44,0-1,.08-1.63h0a5.18,5.18,0,0,1-.26.81l-2.87,6.46h-.48l-2.86-6.41a4.93,4.93,0,0,1-.25-.86h0c0,.33.05.88.05,1.64v5.63h-.95v-8.4h1.3l2.58,5.85a7.92,7.92,0,0,1,.39,1h0c.17-.46.3-.8.4-1l2.64-5.83h1.23Z" fill="#1e1e1e"/>
      <path d="M415.29,228.21h-4.35v-8.4h1v7.51h3.37Z" fill="#1e1e1e"/>
      <path d="M423.44,228.21h-1.09l-.89-2.36H417.9l-.84,2.36H416l3.23-8.4h1Zm-2.3-3.24-1.32-3.58a2.71,2.71,0,0,1-.13-.57h0a3.38,3.38,0,0,1-.14.57L418.22,225Z" fill="#1e1e1e"/>
      <path d="M430.72,227.63a5.57,5.57,0,0,1-2.81.72,3.86,3.86,0,0,1-2.91-1.16,4.27,4.27,0,0,1-1.11-3.07,4.37,4.37,0,0,1,1.23-3.2,4.21,4.21,0,0,1,3.13-1.26,5.27,5.27,0,0,1,2.3.45v1.09a4.4,4.4,0,0,0-2.41-.64,3,3,0,0,0-2.32,1,4.06,4.06,0,0,0-.06,5,2.93,2.93,0,0,0,2.27.91,3.54,3.54,0,0,0,1.71-.39v-2.35H427.9v-.9h2.82Z" fill="#1e1e1e"/>
      <path d="M436.94,225v3.18h-1v-8.4h2.31a3,3,0,0,1,2.09.65,2.37,2.37,0,0,1,.74,1.85,2.58,2.58,0,0,1-.82,2,3.14,3.14,0,0,1-2.23.76Zm0-4.33v3.44h1a2.3,2.3,0,0,0,1.55-.46,1.66,1.66,0,0,0,.54-1.32c0-1.11-.66-1.66-2-1.66Z" fill="#1e1e1e"/>
      <path d="M446.93,225.45h-4.24a2.26,2.26,0,0,0,.54,1.54,1.85,1.85,0,0,0,1.42.55,2.89,2.89,0,0,0,1.86-.67v.9a3.41,3.41,0,0,1-2.09.58,2.53,2.53,0,0,1-2-.82,3.35,3.35,0,0,1-.72-2.3,3.28,3.28,0,0,1,.79-2.28,2.54,2.54,0,0,1,2-.88,2.24,2.24,0,0,1,1.82.76,3.17,3.17,0,0,1,.65,2.11Zm-1-.82a1.9,1.9,0,0,0-.4-1.29,1.36,1.36,0,0,0-1.1-.46,1.56,1.56,0,0,0-1.15.48,2.25,2.25,0,0,0-.59,1.27Z" fill="#1e1e1e"/>
      <path d="M453.2,225.45H449a2.16,2.16,0,0,0,.54,1.54,1.82,1.82,0,0,0,1.42.55,2.93,2.93,0,0,0,1.86-.67v.9a3.45,3.45,0,0,1-2.09.58,2.52,2.52,0,0,1-2-.82,3.81,3.81,0,0,1,.07-4.58,2.53,2.53,0,0,1,2-.88,2.25,2.25,0,0,1,1.82.76,3.17,3.17,0,0,1,.64,2.11Zm-1-.82a2,2,0,0,0-.4-1.29,1.36,1.36,0,0,0-1.1-.46,1.55,1.55,0,0,0-1.15.48,2.19,2.19,0,0,0-.59,1.27Z" fill="#1e1e1e"/>
      <path d="M457.79,223.18a1.18,1.18,0,0,0-.73-.19,1.23,1.23,0,0,0-1,.58,2.7,2.7,0,0,0-.41,1.58v3.06h-1v-6h1v1.23h0a2.09,2.09,0,0,1,.63-1,1.4,1.4,0,0,1,.94-.36,1.75,1.75,0,0,1,.58.08Z" fill="#1e1e1e"/>
      <path d="M466.6,228.21h-4.35v-8.4h1v7.51h3.37Z" fill="#1e1e1e"/>
      <path d="M468.26,220.68a.6.6,0,0,1-.44-.17.65.65,0,0,1,0-.9.64.64,0,0,1,.44-.17.68.68,0,0,1,.45.17.61.61,0,0,1,.18.45.6.6,0,0,1-.18.44A.64.64,0,0,1,468.26,220.68Zm.47,7.53h-1v-6h1Z" fill="#1e1e1e"/>
      <path d="M475.65,228.21h-1v-3.42c0-1.28-.46-1.91-1.39-1.91a1.54,1.54,0,0,0-1.2.54,2,2,0,0,0-.47,1.37v3.42h-1v-6h1v1h0a2.17,2.17,0,0,1,2-1.13,1.85,1.85,0,0,1,1.51.63,2.84,2.84,0,0,1,.52,1.84Z" fill="#1e1e1e"/>
      <path d="M482.44,228.21H481.1l-2.65-2.89h0v2.89h-1v-8.89h1V225h0l2.52-2.75h1.26l-2.79,2.89Z" fill="#1e1e1e"/>
    </g>
    <g>
      <path d="M396.69,265.21h-1v-8.4h1Z" fill="#1e1e1e"/>
      <path d="M398.9,265.21v-8.4h2.39a2.58,2.58,0,0,1,1.73.53,1.71,1.71,0,0,1,.64,1.39,2,2,0,0,1-.39,1.24,2.07,2.07,0,0,1-1.06.75v0a2.18,2.18,0,0,1,1.36.64,2,2,0,0,1,.51,1.41,2.2,2.2,0,0,1-.78,1.75,2.88,2.88,0,0,1-1.95.67Zm1-7.51v2.71h1a1.91,1.91,0,0,0,1.27-.39,1.36,1.36,0,0,0,.46-1.1c0-.82-.54-1.22-1.61-1.22Zm0,3.59v3h1.33a2,2,0,0,0,1.35-.41,1.42,1.42,0,0,0,.48-1.13c0-1-.68-1.49-2-1.49Z" fill="#1e1e1e"/>
      <path d="M412.06,264.63a5.57,5.57,0,0,1-2.81.72,3.86,3.86,0,0,1-2.91-1.16,4.27,4.27,0,0,1-1.11-3.07,4.33,4.33,0,0,1,1.24-3.2,4.17,4.17,0,0,1,3.12-1.26,5.24,5.24,0,0,1,2.3.45v1.09a4.4,4.4,0,0,0-2.41-.64,3,3,0,0,0-2.31,1,4,4,0,0,0-.07,5,2.93,2.93,0,0,0,2.27.91,3.54,3.54,0,0,0,1.71-.39v-2.35h-1.84v-.9h2.82Z" fill="#1e1e1e"/>
      <path d="M415,262v3.18h-1v-8.4h2.3a3,3,0,0,1,2.09.65,2.33,2.33,0,0,1,.74,1.85,2.54,2.54,0,0,1-.82,2,3.13,3.13,0,0,1-2.22.76Zm0-4.33v3.44h1a2.32,2.32,0,0,0,1.56-.46,1.69,1.69,0,0,0,.53-1.32c0-1.11-.65-1.66-2-1.66Z" fill="#1e1e1e"/>
      <path d="M424,265.21v-8.4h2.39a2.58,2.58,0,0,1,1.73.53,1.71,1.71,0,0,1,.64,1.39,2,2,0,0,1-.39,1.24,2.07,2.07,0,0,1-1.06.75v0a2.18,2.18,0,0,1,1.36.64,2,2,0,0,1,.51,1.41,2.2,2.2,0,0,1-.78,1.75,2.88,2.88,0,0,1-1.95.67Zm1-7.51v2.71h1a1.93,1.93,0,0,0,1.27-.39,1.36,1.36,0,0,0,.46-1.1c0-.82-.54-1.22-1.61-1.22Zm0,3.59v3h1.33a2,2,0,0,0,1.35-.41,1.42,1.42,0,0,0,.48-1.13c0-1-.68-1.49-2-1.49Z" fill="#1e1e1e"/>
      <path d="M435.07,265.21h-1v-.94h0a2,2,0,0,1-1.84,1.08,2,2,0,0,1-1.41-.48,1.65,1.65,0,0,1-.5-1.26q0-1.68,2-1.95l1.8-.26c0-1-.42-1.52-1.24-1.52a3,3,0,0,0-2,.73v-1a3.68,3.68,0,0,1,2-.56c1.41,0,2.12.74,2.12,2.24Zm-1-3-1.45.2a2.3,2.3,0,0,0-1,.33,1,1,0,0,0-.34.84.9.9,0,0,0,.32.72,1.16,1.16,0,0,0,.83.28,1.55,1.55,0,0,0,1.18-.5,1.81,1.81,0,0,0,.47-1.27Z" fill="#1e1e1e"/>
      <path d="M441,264.93a3.1,3.1,0,0,1-1.64.42,2.69,2.69,0,0,1-2.07-.84,3,3,0,0,1-.79-2.16,3.3,3.3,0,0,1,.85-2.38,3,3,0,0,1,2.27-.9,3.09,3.09,0,0,1,1.39.29v1a2.46,2.46,0,0,0-1.43-.46,2,2,0,0,0-1.51.65,2.53,2.53,0,0,0-.59,1.74,2.38,2.38,0,0,0,.56,1.66,1.89,1.89,0,0,0,1.48.61A2.39,2.39,0,0,0,441,264Z" fill="#1e1e1e"/>
      <path d="M447.4,265.21h-1.35l-2.64-2.89h0v2.89h-1v-8.89h1V262h0l2.52-2.75h1.26l-2.79,2.89Z" fill="#1e1e1e"/>
      <path d="M453.24,265.21h-1v-.95h0a2,2,0,0,1-1.85,1.09c-1.43,0-2.14-.85-2.14-2.56v-3.58h.95v3.43c0,1.27.49,1.9,1.46,1.9a1.45,1.45,0,0,0,1.15-.52,2,2,0,0,0,.46-1.36v-3.45h1Z" fill="#1e1e1e"/>
      <path d="M456.16,264.34h0V268h-1v-8.76h1v1.05h0a2.29,2.29,0,0,1,2.08-1.19,2.23,2.23,0,0,1,1.81.8,3.37,3.37,0,0,1,.65,2.16,3.69,3.69,0,0,1-.74,2.41,2.4,2.4,0,0,1-2,.91A2,2,0,0,1,456.16,264.34Zm0-2.42v.84a1.79,1.79,0,0,0,.48,1.26,1.59,1.59,0,0,0,1.23.52,1.6,1.6,0,0,0,1.37-.67,3,3,0,0,0,.49-1.86,2.43,2.43,0,0,0-.46-1.57,1.53,1.53,0,0,0-1.25-.56,1.7,1.7,0,0,0-1.35.58A2.13,2.13,0,0,0,456.14,261.92Z" fill="#1e1e1e"/>
      <path d="M470,265.21h-4.36v-8.4h1v7.51H470Z" fill="#1e1e1e"/>
      <path d="M471.66,257.68a.6.6,0,0,1-.44-.17.65.65,0,0,1,0-.9.64.64,0,0,1,.44-.17.66.66,0,0,1,.45.17.61.61,0,0,1,.18.45.6.6,0,0,1-.18.44A.63.63,0,0,1,471.66,257.68Zm.47,7.53h-1v-6h1Z" fill="#1e1e1e"/>
      <path d="M479.05,265.21h-1v-3.42c0-1.28-.46-1.91-1.39-1.91a1.5,1.5,0,0,0-1.19.54,2,2,0,0,0-.48,1.37v3.42h-1v-6h1v1h0a2.17,2.17,0,0,1,2-1.13,1.83,1.83,0,0,1,1.5.63,2.84,2.84,0,0,1,.52,1.84Z" fill="#1e1e1e"/>
      <path d="M485.85,265.21H484.5l-2.65-2.89h0v2.89h-1v-8.89h1V262h0l2.52-2.75h1.26l-2.78,2.89Z" fill="#1e1e1e"/>
    </g>
    <g>
      <path d="M216.5,9.86V8.7A2.23,2.23,0,0,0,217,9a3.69,3.69,0,0,0,.58.23,3.5,3.5,0,0,0,.62.15,3.07,3.07,0,0,0,.57.06,2.29,2.29,0,0,0,1.36-.34,1.14,1.14,0,0,0,.45-1,1.13,1.13,0,0,0-.15-.59A1.76,1.76,0,0,0,220,7.1a4.57,4.57,0,0,0-.63-.4l-.77-.4c-.3-.15-.57-.3-.82-.45a3.2,3.2,0,0,1-.67-.51,2.26,2.26,0,0,1-.44-.62,1.91,1.91,0,0,1-.16-.82,1.93,1.93,0,0,1,.25-1,2.32,2.32,0,0,1,.66-.7,3.19,3.19,0,0,1,.94-.41,4.24,4.24,0,0,1,1.07-.13,4.08,4.08,0,0,1,1.81.3v1.1a3.31,3.31,0,0,0-1.91-.51,2.88,2.88,0,0,0-.65.07,1.58,1.58,0,0,0-.57.22,1.18,1.18,0,0,0-.41.39,1,1,0,0,0-.16.58,1.22,1.22,0,0,0,.12.56,1.31,1.31,0,0,0,.36.43,3,3,0,0,0,.57.37c.22.12.48.26.77.4s.59.31.86.47a4.46,4.46,0,0,1,.71.55,2.53,2.53,0,0,1,.48.66,1.84,1.84,0,0,1,.18.83,2.14,2.14,0,0,1-.24,1.05,2,2,0,0,1-.66.7,2.88,2.88,0,0,1-.95.39,5.24,5.24,0,0,1-1.14.12l-.49,0-.6-.09-.58-.16A1.57,1.57,0,0,1,216.5,9.86Z" fill="#1e1e1e"/>
      <path d="M227.23,9.93a3.19,3.19,0,0,1-1.64.41,2.76,2.76,0,0,1-2.08-.83,3.06,3.06,0,0,1-.78-2.17A3.3,3.3,0,0,1,223.58,5a3,3,0,0,1,2.26-.9,3.24,3.24,0,0,1,1.4.29v1a2.47,2.47,0,0,0-1.43-.47,1.93,1.93,0,0,0-1.51.66,2.5,2.5,0,0,0-.59,1.73,2.41,2.41,0,0,0,.55,1.66,1.91,1.91,0,0,0,1.49.61A2.41,2.41,0,0,0,227.23,9Z" fill="#1e1e1e"/>
      <path d="M233.5,7.44h-4.23A2.23,2.23,0,0,0,229.8,9a1.88,1.88,0,0,0,1.42.54,3,3,0,0,0,1.87-.66v.9a3.53,3.53,0,0,1-2.1.57,2.51,2.51,0,0,1-2-.82,3.31,3.31,0,0,1-.73-2.3,3.28,3.28,0,0,1,.79-2.28,2.55,2.55,0,0,1,2-.88,2.25,2.25,0,0,1,1.82.76,3.19,3.19,0,0,1,.64,2.12Zm-1-.81a2,2,0,0,0-.4-1.3,1.37,1.37,0,0,0-1.1-.46,1.54,1.54,0,0,0-1.16.49,2.18,2.18,0,0,0-.58,1.27Z" fill="#1e1e1e"/>
      <path d="M239.94,10.2h-1V6.78c0-1.27-.46-1.91-1.39-1.91a1.5,1.5,0,0,0-1.19.54,2,2,0,0,0-.47,1.37V10.2h-1v-6h1v1h0a2.16,2.16,0,0,1,2-1.14,1.81,1.81,0,0,1,1.5.64,2.79,2.79,0,0,1,.53,1.83Z" fill="#1e1e1e"/>
      <path d="M246,10.2h-1V9.26h0a2,2,0,0,1-1.85,1.08,2,2,0,0,1-1.4-.47,1.65,1.65,0,0,1-.51-1.26c0-1.12.66-1.78,2-2l1.8-.25c0-1-.41-1.53-1.24-1.53a3,3,0,0,0-2,.74v-1a3.76,3.76,0,0,1,2-.56c1.41,0,2.11.75,2.11,2.24Zm-1-3-1.45.2a2.35,2.35,0,0,0-1,.33,1,1,0,0,0-.33.84.89.89,0,0,0,.31.71,1.19,1.19,0,0,0,.83.28,1.51,1.51,0,0,0,1.18-.5,1.78,1.78,0,0,0,.47-1.27Z" fill="#1e1e1e"/>
      <path d="M251,5.17a1.18,1.18,0,0,0-.73-.19,1.2,1.2,0,0,0-1,.58,2.64,2.64,0,0,0-.42,1.58V10.2h-1v-6h1V5.44h0a2.08,2.08,0,0,1,.62-1,1.42,1.42,0,0,1,.95-.35,1.44,1.44,0,0,1,.57.08Z" fill="#1e1e1e"/>
      <path d="M252.52,2.68a.59.59,0,0,1-.44-.18.6.6,0,0,1-.19-.44.62.62,0,0,1,.19-.45.59.59,0,0,1,.44-.18.6.6,0,0,1,.44.18.58.58,0,0,1,.19.45.58.58,0,0,1-.19.44A.6.6,0,0,1,252.52,2.68ZM253,10.2h-1v-6h1Z" fill="#1e1e1e"/>
      <path d="M257.44,10.34a2.79,2.79,0,0,1-2.13-.84,3.1,3.1,0,0,1-.79-2.23,3.21,3.21,0,0,1,.83-2.36,3,3,0,0,1,2.23-.85,2.69,2.69,0,0,1,2.09.83,3.28,3.28,0,0,1,.76,2.29,3.25,3.25,0,0,1-.82,2.3A2.85,2.85,0,0,1,257.44,10.34Zm.07-5.47A1.84,1.84,0,0,0,256,5.5a2.59,2.59,0,0,0-.54,1.74,2.46,2.46,0,0,0,.55,1.68,1.85,1.85,0,0,0,1.46.61,1.75,1.75,0,0,0,1.43-.6,2.63,2.63,0,0,0,.5-1.72,2.66,2.66,0,0,0-.5-1.73A1.73,1.73,0,0,0,257.51,4.87Z" fill="#1e1e1e"/>
      <path d="M268.52,10.2h-1V2.94a2.72,2.72,0,0,1-.33.26,5.1,5.1,0,0,1-.48.28c-.18.09-.36.18-.56.26a3.63,3.63,0,0,1-.58.2V3a4.1,4.1,0,0,0,.67-.23,6.44,6.44,0,0,0,.7-.34c.23-.12.44-.25.65-.38a5,5,0,0,0,.52-.4h.37Z" fill="#1e1e1e"/>
    </g>
    <g>
      <path d="M291.52,9.86V8.7A2.42,2.42,0,0,0,292,9a4.24,4.24,0,0,0,.59.23,3.5,3.5,0,0,0,.62.15,3.07,3.07,0,0,0,.57.06,2.29,2.29,0,0,0,1.36-.34,1.14,1.14,0,0,0,.45-1,1.13,1.13,0,0,0-.15-.59A1.76,1.76,0,0,0,295,7.1a4.57,4.57,0,0,0-.63-.4l-.78-.4-.82-.45a3.4,3.4,0,0,1-.66-.51,2.06,2.06,0,0,1-.44-.62,1.91,1.91,0,0,1-.16-.82,1.93,1.93,0,0,1,.25-1,2.32,2.32,0,0,1,.66-.7,3.19,3.19,0,0,1,.94-.41,4.24,4.24,0,0,1,1.07-.13,4.11,4.11,0,0,1,1.81.3v1.1a3.33,3.33,0,0,0-1.91-.51,2.88,2.88,0,0,0-.65.07,1.58,1.58,0,0,0-.57.22,1.18,1.18,0,0,0-.41.39,1,1,0,0,0-.16.58,1.22,1.22,0,0,0,.12.56,1.41,1.41,0,0,0,.35.43,3.42,3.42,0,0,0,.58.37c.22.12.48.26.77.4s.59.31.86.47a4.46,4.46,0,0,1,.71.55,2.53,2.53,0,0,1,.48.66,1.84,1.84,0,0,1,.18.83,2.14,2.14,0,0,1-.24,1.05,2.11,2.11,0,0,1-.66.7,2.88,2.88,0,0,1-.95.39,5.24,5.24,0,0,1-1.14.12l-.49,0-.6-.09-.58-.16A1.57,1.57,0,0,1,291.52,9.86Z" fill="#1e1e1e"/>
      <path d="M302.25,9.93a3.23,3.23,0,0,1-1.65.41,2.75,2.75,0,0,1-2.07-.83,3.06,3.06,0,0,1-.78-2.17A3.3,3.3,0,0,1,298.6,5a3,3,0,0,1,2.26-.9,3.27,3.27,0,0,1,1.4.29v1a2.47,2.47,0,0,0-1.43-.47,1.92,1.92,0,0,0-1.51.66,2.5,2.5,0,0,0-.59,1.73,2.36,2.36,0,0,0,.55,1.66,1.91,1.91,0,0,0,1.49.61A2.43,2.43,0,0,0,302.25,9Z" fill="#1e1e1e"/>
      <path d="M308.52,7.44h-4.24A2.28,2.28,0,0,0,304.82,9a1.88,1.88,0,0,0,1.42.54,2.94,2.94,0,0,0,1.86-.66v.9a3.47,3.47,0,0,1-2.09.57,2.51,2.51,0,0,1-2-.82,3.31,3.31,0,0,1-.73-2.3,3.28,3.28,0,0,1,.79-2.28,2.54,2.54,0,0,1,2-.88,2.26,2.26,0,0,1,1.83.76,3.19,3.19,0,0,1,.64,2.12Zm-1-.81a2,2,0,0,0-.4-1.3,1.37,1.37,0,0,0-1.1-.46,1.54,1.54,0,0,0-1.16.49,2.18,2.18,0,0,0-.58,1.27Z" fill="#1e1e1e"/>
      <path d="M315,10.2h-1V6.78c0-1.27-.46-1.91-1.39-1.91a1.5,1.5,0,0,0-1.19.54,2,2,0,0,0-.47,1.37V10.2h-1v-6h1v1h0a2.16,2.16,0,0,1,2-1.14,1.81,1.81,0,0,1,1.5.64A2.79,2.79,0,0,1,315,6.53Z" fill="#1e1e1e"/>
      <path d="M321.06,10.2h-1V9.26h0a2,2,0,0,1-1.85,1.08,2,2,0,0,1-1.4-.47,1.65,1.65,0,0,1-.51-1.26c0-1.12.66-1.78,2-2l1.8-.25c0-1-.41-1.53-1.24-1.53a3,3,0,0,0-1.95.74v-1a3.75,3.75,0,0,1,2-.56c1.41,0,2.12.75,2.12,2.24Zm-1-3-1.45.2a2.35,2.35,0,0,0-1,.33,1,1,0,0,0-.34.84.9.9,0,0,0,.32.71,1.18,1.18,0,0,0,.83.28,1.51,1.51,0,0,0,1.18-.5,1.78,1.78,0,0,0,.47-1.27Z" fill="#1e1e1e"/>
      <path d="M326,5.17a1.18,1.18,0,0,0-.73-.19,1.23,1.23,0,0,0-1,.58,2.72,2.72,0,0,0-.41,1.58V10.2h-1v-6h1V5.44h0a2.17,2.17,0,0,1,.63-1,1.42,1.42,0,0,1,.95-.35,1.44,1.44,0,0,1,.57.08Z" fill="#1e1e1e"/>
      <path d="M327.53,2.68a.58.58,0,0,1-.43-.18.56.56,0,0,1-.19-.44.58.58,0,0,1,.19-.45.58.58,0,0,1,.43-.18.61.61,0,0,1,.45.18.58.58,0,0,1,.19.45.58.58,0,0,1-.19.44A.61.61,0,0,1,327.53,2.68ZM328,10.2h-1v-6h1Z" fill="#1e1e1e"/>
      <path d="M332.46,10.34a2.79,2.79,0,0,1-2.13-.84,3.1,3.1,0,0,1-.79-2.23,3.24,3.24,0,0,1,.82-2.36,3,3,0,0,1,2.24-.85,2.69,2.69,0,0,1,2.09.83,3.27,3.27,0,0,1,.75,2.29,3.25,3.25,0,0,1-.81,2.3A2.85,2.85,0,0,1,332.46,10.34Zm.07-5.47a1.84,1.84,0,0,0-1.47.63,2.59,2.59,0,0,0-.54,1.74,2.41,2.41,0,0,0,.55,1.68,1.85,1.85,0,0,0,1.46.61,1.75,1.75,0,0,0,1.43-.6,2.63,2.63,0,0,0,.5-1.72,2.66,2.66,0,0,0-.5-1.73A1.73,1.73,0,0,0,332.53,4.87Z" fill="#1e1e1e"/>
      <path d="M343.82,4a1.71,1.71,0,0,0-.12-.67,1.37,1.37,0,0,0-.33-.48,1.26,1.26,0,0,0-.49-.28,1.74,1.74,0,0,0-.61-.1,2,2,0,0,0-.55.08,2.57,2.57,0,0,0-.52.21,3.84,3.84,0,0,0-.5.32,5.77,5.77,0,0,0-.44.42v-1a2.72,2.72,0,0,1,.91-.6,3.14,3.14,0,0,1,1.22-.21,2.91,2.91,0,0,1,.95.15,2.09,2.09,0,0,1,.76.43,2,2,0,0,1,.51.71,2.47,2.47,0,0,1,.19,1,3.16,3.16,0,0,1-.12.9,2.6,2.6,0,0,1-.34.76,3.73,3.73,0,0,1-.59.69,8.71,8.71,0,0,1-.82.67c-.4.28-.72.52-1,.72a4.3,4.3,0,0,0-.61.56,1.59,1.59,0,0,0-.31.52,1.8,1.8,0,0,0-.09.6h4.18v.86h-5.19V9.79a3.38,3.38,0,0,1,.12-.95,2.38,2.38,0,0,1,.39-.78,4,4,0,0,1,.7-.74c.29-.25.65-.53,1.07-.83a6.87,6.87,0,0,0,.77-.63,3.23,3.23,0,0,0,.49-.6,2,2,0,0,0,.27-.6A2.84,2.84,0,0,0,343.82,4Z" fill="#1e1e1e"/>
    </g>
  </g>
</svg>
