<svg xmlns="http://www.w3.org/2000/svg" xmlns:xlink="http://www.w3.org/1999/xlink" viewBox="0 0 340.28 353.04">
  <defs>
    <linearGradient id="linear-gradient" x1="12.91" y1="9.53" x2="12.91" y2="14.03" gradientUnits="userSpaceOnUse">
      <stop offset="0" stop-color="#005ba1"/>
      <stop offset="0.26" stop-color="#00589d"/>
      <stop offset="0.53" stop-color="#004f90"/>
      <stop offset="0.8" stop-color="#003f7c"/>
      <stop offset="1" stop-color="#003067"/>
    </linearGradient>
    <linearGradient id="linear-gradient-2" x1="12.91" y1="5.02" x2="12.91" y2="8.17" xlink:href="#linear-gradient"/>
    <linearGradient id="linear-gradient-3" x1="20.86" y1="3.07" x2="25" y2="3.07" xlink:href="#linear-gradient"/>
    <linearGradient id="linear-gradient-4" x1="20.86" y1="17.41" x2="25" y2="17.41" xlink:href="#linear-gradient"/>
    <linearGradient id="linear-gradient-5" x1="1.56" y1="3.07" x2="5.71" y2="3.07" xlink:href="#linear-gradient"/>
    <linearGradient id="linear-gradient-6" x1="1.11" y1="17.41" x2="5.26" y2="17.41" xlink:href="#linear-gradient"/>
    <linearGradient id="linear-gradient-7" x1="23.64" y1="392.62" x2="23.64" y2="368.75" gradientTransform="matrix(1, 0, 0, -1, 0, 596.4)" gradientUnits="userSpaceOnUse">
      <stop offset="0" stop-color="#5ea0ef"/>
      <stop offset="0.18" stop-color="#559cec"/>
      <stop offset="0.47" stop-color="#3c91e5"/>
      <stop offset="0.84" stop-color="#1380da"/>
      <stop offset="1" stop-color="#0078d4"/>
    </linearGradient>
    <linearGradient id="linear-gradient-8" x1="19.65" y1="368.49" x2="19.65" y2="380.06" gradientTransform="matrix(1, 0, 0, -1, 0, 596.4)" gradientUnits="userSpaceOnUse">
      <stop offset="0" stop-color="#198ab3"/>
      <stop offset="0.14" stop-color="#22a5cb"/>
      <stop offset="0.3" stop-color="#29bade"/>
      <stop offset="0.47" stop-color="#2ec9eb"/>
      <stop offset="0.68" stop-color="#31d1f3"/>
      <stop offset="1" stop-color="#32d4f5"/>
    </linearGradient>
    <linearGradient id="linear-gradient-9" x1="307.1" y1="582.14" x2="307.1" y2="547.75" gradientTransform="matrix(1, 0, 0, -1, 0, 596.4)" gradientUnits="userSpaceOnUse">
      <stop offset="0.18" stop-color="#5ea0ef"/>
      <stop offset="1" stop-color="#0078d4"/>
    </linearGradient>
    <linearGradient id="linear-gradient-10" x1="307.1" y1="481.03" x2="307.1" y2="506.19" gradientTransform="matrix(1, 0, 0, -1, 0, 596.4)" gradientUnits="userSpaceOnUse">
      <stop offset="0" stop-color="#0078d4"/>
      <stop offset="0.82" stop-color="#5ea0ef"/>
    </linearGradient>
    <linearGradient id="linear-gradient-11" x1="142.55" y1="481.03" x2="142.55" y2="506.19" xlink:href="#linear-gradient-10"/>
    <symbol id="New_Symbol_5" data-name="New Symbol 5" viewBox="0 0 25.89 20.48">
      <g>
        <path d="M21.68,8.14,18.42,5H7.35L4.1,8.14h.16a.88.88,0,0,0-.16.51V13.1a.87.87,0,0,0,.84.9H20.83a.87.87,0,0,0,.85-.9V8.65a.88.88,0,0,0-.16-.51Z" fill="#fff" stroke="#fff" stroke-linejoin="round" stroke-width="2" fill-rule="evenodd"/>
        <circle cx="10.86" cy="11.74" r="0.9" fill="none"/>
        <path d="M20.85,9.53H5a.76.76,0,0,0-.84.64v3.22A.77.77,0,0,0,5,14H20.85a.76.76,0,0,0,.84-.64V10.17C21.69,9.81,21.32,9.53,20.85,9.53Zm-14,3.15a.9.9,0,1,1,.9-.9A.9.9,0,0,1,6.82,12.68Zm4.06,0a.9.9,0,1,1,.9-.9A.9.9,0,0,1,10.88,12.68Zm4,0a.9.9,0,1,1,.91-.9A.9.9,0,0,1,14.93,12.68Zm4.06,0a.9.9,0,1,1,.9-.9A.9.9,0,0,1,19,12.68Z" fill-rule="evenodd" fill="url(#linear-gradient)"/>
        <polygon points="18.44 5.02 7.37 5.02 4.12 8.17 21.7 8.17 18.44 5.02" fill-rule="evenodd" fill="url(#linear-gradient-2)"/>
      </g>
      <g id="lowPriority40x40">
        <polygon points="24.09 2.43 24.09 4.98 24.89 4.19 24.89 1 21.7 1 20.9 1.8 23.45 1.8 20.74 4.5 21.38 5.14 24.09 2.43" fill="none" stroke="#fff" stroke-miterlimit="10" stroke-width="2"/>
      </g>
      <g id="lowPriority40x40-2" data-name="lowPriority40x40">
        <polygon points="24.09 18.05 24.09 15.49 24.89 16.29 24.89 19.48 21.7 19.48 20.9 18.68 23.45 18.68 20.74 15.97 21.38 15.34 24.09 18.05" fill="none" stroke="#fff" stroke-miterlimit="10" stroke-width="2"/>
      </g>
      <g id="lowPriority40x40-3" data-name="lowPriority40x40">
        <polygon points="2.25 2.43 2.25 4.98 1.45 4.19 1.45 1 4.64 1 5.43 1.8 2.88 1.8 5.59 4.5 4.96 5.14 2.25 2.43" fill="none" stroke="#fff" stroke-miterlimit="10" stroke-width="2"/>
      </g>
      <g id="lowPriority40x40-4" data-name="lowPriority40x40">
        <polygon points="1.8 18.05 1.8 15.49 1 16.29 1 19.48 4.19 19.48 4.98 18.68 2.43 18.68 5.14 15.97 4.5 15.34 1.8 18.05" fill="none" stroke="#fff" stroke-miterlimit="10" stroke-width="2"/>
      </g>
      <path d="M6.86,12.72a.9.9,0,1,1,.9-.9A.9.9,0,0,1,6.86,12.72Zm4.06,0a.9.9,0,1,1,.9-.9A.91.91,0,0,1,10.92,12.72Zm4.05,0a.9.9,0,1,1,.9-.9A.9.9,0,0,1,15,12.72Zm4.06,0a.9.9,0,1,1,.9-.9A.9.9,0,0,1,19,12.72Z" fill="none"/>
      <circle cx="10.92" cy="11.82" r="0.9" fill="none"/>
      <g id="lowPriority40x40-5" data-name="lowPriority40x40">
        <polygon points="24.2 2.43 24.2 4.98 25 4.19 25 1 21.81 1 21.02 1.8 23.57 1.8 20.86 4.5 21.5 5.14 24.2 2.43" fill="url(#linear-gradient-3)"/>
      </g>
      <g id="lowPriority40x40-6" data-name="lowPriority40x40">
        <polygon points="24.2 18.05 24.2 15.49 25 16.29 25 19.48 21.81 19.48 21.02 18.68 23.57 18.68 20.86 15.97 21.5 15.34 24.2 18.05" fill="url(#linear-gradient-4)"/>
      </g>
      <g id="lowPriority40x40-7" data-name="lowPriority40x40">
        <polygon points="2.36 2.43 2.36 4.98 1.56 4.19 1.56 1 4.75 1 5.55 1.8 3 1.8 5.71 4.5 5.07 5.14 2.36 2.43" fill="url(#linear-gradient-5)"/>
      </g>
      <g id="lowPriority40x40-8" data-name="lowPriority40x40">
        <polygon points="1.91 18.05 1.91 15.49 1.11 16.29 1.11 19.48 4.3 19.48 5.1 18.68 2.55 18.68 5.25 15.97 4.62 15.34 1.91 18.05" fill="url(#linear-gradient-6)"/>
      </g>
    </symbol>
  </defs>
  <g id="Shapes">
    <rect width="340.28" height="353.04" fill="#fff"/>
    <g>
      <rect x="20.28" y="51.46" width="320" height="139.74" fill="#fff"/>
      <rect x="20.28" y="51.46" width="320" height="139.74" fill="#3c3c41" opacity="0.15"/>
    </g>
    <g>
      <rect x="20.28" y="218.78" width="239.08" height="134.01" fill="#fff"/>
      <rect x="20.28" y="218.78" width="239.08" height="134.01" fill="#0072c6" opacity="0.05"/>
      <rect x="20.28" y="218.78" width="239.08" height="134.01" fill="none" stroke="#0072c6" stroke-miterlimit="10" stroke-width="0.5" opacity="0.6"/>
    </g>
    <g>
      <rect x="46.45" y="150.39" width="35" height="30" fill="#fff"/>
      <rect x="46.45" y="150.39" width="35" height="30" fill="#3c3c41" opacity="0.02"/>
      <rect x="46.45" y="150.39" width="35" height="30" fill="none" stroke="#75757a" stroke-miterlimit="10" stroke-width="0.5" opacity="0.5"/>
    </g>
    <use width="25.89" height="20.48" transform="translate(51.4 155.2)" xlink:href="#New_Symbol_5"/>
    <g>
      <rect x="205.02" y="150.39" width="35" height="30" fill="#fff"/>
      <rect x="205.02" y="150.39" width="35" height="30" fill="#3c3c41" opacity="0.02"/>
      <rect x="205.02" y="150.39" width="35" height="30" fill="none" stroke="#75757a" stroke-miterlimit="10" stroke-width="0.5" opacity="0.5"/>
    </g>
    <use width="25.89" height="20.48" transform="translate(209.57 155.8)" xlink:href="#New_Symbol_5"/>
    <g>
      <rect x="205.02" y="91.2" width="35" height="30" fill="#fff"/>
      <rect x="205.02" y="91.2" width="35" height="30" fill="#3c3c41" opacity="0.02"/>
      <rect x="205.02" y="91.2" width="35" height="30" fill="none" stroke="#75757a" stroke-miterlimit="10" stroke-width="0.5" opacity="0.5"/>
    </g>
    <use width="25.89" height="20.48" transform="translate(209.57 95.96)" xlink:href="#New_Symbol_5"/>
    <g>
      <g>
        <rect x="46.45" y="91.2" width="35" height="30" fill="#fff"/>
        <rect x="46.45" y="91.2" width="35" height="30" fill="#3c3c41" opacity="0.02"/>
        <rect x="46.45" y="91.2" width="35" height="30" fill="none" stroke="#75757a" stroke-miterlimit="10" stroke-width="0.5" opacity="0.5"/>
      </g>
      <use width="25.89" height="20.48" transform="translate(51.4 95.96)" xlink:href="#New_Symbol_5"/>
    </g>
    <g>
      <rect x="46.45" y="241.21" width="35" height="30" fill="#fff"/>
      <rect x="46.45" y="241.21" width="35" height="30" fill="#3c3c41" opacity="0.02"/>
      <rect x="46.45" y="241.21" width="35" height="30" fill="none" stroke="#75757a" stroke-miterlimit="10" stroke-width="0.5" opacity="0.5"/>
    </g>
    <use width="25.89" height="20.48" transform="translate(51.4 246.02)" xlink:href="#New_Symbol_5"/>
    <g>
      <rect x="205.02" y="241.21" width="35" height="30" fill="#fff"/>
      <rect x="205.02" y="241.21" width="35" height="30" fill="#3c3c41" opacity="0.02"/>
      <rect x="205.02" y="241.21" width="35" height="30" fill="none" stroke="#75757a" stroke-miterlimit="10" stroke-width="0.5" opacity="0.5"/>
    </g>
    <use width="25.89" height="20.48" transform="translate(209.57 246.02)" xlink:href="#New_Symbol_5"/>
    <line x1="63.95" y1="181.77" x2="63.95" y2="239.77" fill="none" stroke="#767676" stroke-linecap="round" stroke-linejoin="round" stroke-width="0.5"/>
    <path d="M214.57,181.77,73.8,221.38a4.21,4.21,0,0,0-2.89,3.82v14.57" fill="none" stroke="#767676" stroke-linecap="round" stroke-linejoin="round" stroke-width="0.5"/>
    <line x1="222.52" y1="181.77" x2="222.52" y2="239.77" fill="none" stroke="#767676" stroke-linecap="round" stroke-linejoin="round" stroke-width="0.5"/>
    <line x1="222.23" y1="123.36" x2="222.23" y2="148.41" fill="none" stroke="#767676" stroke-linecap="round" stroke-linejoin="round" stroke-width="0.5"/>
    <path d="M71.26,181.77l141.89,39.62A4.19,4.19,0,0,1,216,225.2v14.57" fill="none" stroke="#767676" stroke-linecap="round" stroke-linejoin="round" stroke-width="0.5"/>
    <g id="b1186d34-5ca3-4e43-992d-40ecef5e891b">
      <g>
        <path d="M29.85,203.79H17.44a.81.81,0,0,0-.81.79v17.69a14.87,14.87,0,0,1,2-1.42H21l1.3,1.73v2.62l-1.65,1.2-2.28-.29-1.74-1.64v2.39a.82.82,0,0,0,.81.8H29.85a.8.8,0,0,0,.8-.8V204.58A.79.79,0,0,0,29.85,203.79Z" fill="url(#linear-gradient-7)"/>
        <path id="af47f827-8b1b-4acd-8974-8eafe35490c9" d="M18.49,206.27h2.28a.2.2,0,0,1,.2.19h0v2.95a.2.2,0,0,1-.2.2H18.49a.2.2,0,0,1-.2-.2h0v-2.95a.2.2,0,0,1,.2-.19Zm4,0h2.28a.2.2,0,0,1,.2.19h0v2.95a.2.2,0,0,1-.2.2H22.5a.2.2,0,0,1-.2-.2h0v-2.95a.2.2,0,0,1,.2-.19Zm4,0h2.29a.19.19,0,0,1,.19.19h0v2.95a.19.19,0,0,1-.19.2H26.52a.19.19,0,0,1-.19-.2h0v-2.95a.19.19,0,0,1,.19-.19Zm-8,5.33h2.28a.19.19,0,0,1,.2.19h0v3a.2.2,0,0,1-.2.2H18.49a.2.2,0,0,1-.2-.2h0v-3a.19.19,0,0,1,.17-.22Zm4,0h2.28a.19.19,0,0,1,.2.19h0v3a.2.2,0,0,1-.2.2H22.5a.2.2,0,0,1-.2-.2h0v-3a.19.19,0,0,1,.17-.22Zm4,0h2.29a.18.18,0,0,1,.19.19h0v3a.19.19,0,0,1-.19.2H26.52a.19.19,0,0,1-.19-.2h0v-3a.18.18,0,0,1,.16-.22Zm-8,5.38h2.28a.2.2,0,0,1,.2.2h0v2.92a.2.2,0,0,1-.2.2H18.49a.2.2,0,0,1-.2-.2v-2.92A.2.2,0,0,1,18.49,217Zm4,0h2.28a.2.2,0,0,1,.2.2h0v2.92a.2.2,0,0,1-.2.2H22.5a.2.2,0,0,1-.2-.2h0v-2.92A.2.2,0,0,1,22.5,217Zm0,5.36h2.28a.2.2,0,0,1,.2.2h0v4.37a.2.2,0,0,1-.2.19H22.5a.2.2,0,0,1-.2-.19v-4.37a.2.2,0,0,1,.2-.2Zm4-5.36h2.29a.19.19,0,0,1,.19.2h0v2.92a.19.19,0,0,1-.19.2H26.52a.19.19,0,0,1-.19-.2h0v-2.92A.19.19,0,0,1,26.52,217Z" fill="#f2f2f2"/>
        <path d="M19.68,221.52a1.84,1.84,0,0,0-1.76,1.42H11.54a4.06,4.06,0,0,0-.11.92v.08h6.49a1.83,1.83,0,1,0,1.76-2.42Z" fill="#50e6ff"/>
        <path d="M24.64,220.75a4.63,4.63,0,0,0-4.82-4.41,4.73,4.73,0,0,0-4.54,3.1,4.5,4.5,0,0,0-3.6,2.83h5.87a2.42,2.42,0,1,1,0,2.08h-6a4.52,4.52,0,0,0,4.5,3.43h8.06a3.53,3.53,0,0,0,.55-7Z" fill="url(#linear-gradient-8)"/>
        <path d="M19.68,221.52a1.84,1.84,0,0,0-1.76,1.42H11.54a3.85,3.85,0,0,1-.67-.09,3.21,3.21,0,0,1,.36-6.35h.31l.1-.28a3.64,3.64,0,0,1,3.49-2.43,3.77,3.77,0,0,1,3.23,1.8,4.21,4.21,0,0,1,1.06-.12,4.69,4.69,0,0,0-4.25-2.68,4.63,4.63,0,0,0-4.38,2.76,4.17,4.17,0,0,0-.33,8.17h0a3.07,3.07,0,0,0,1,.17h6.42a1.83,1.83,0,1,0,1.76-2.37Z" fill="#50e6ff"/>
      </g>
    </g>
    <g>
      <line x1="82.6" y1="263.38" x2="203.6" y2="263.38" fill="none" stroke="#231f20" stroke-width="4"/>
      <line x1="82.6" y1="263.38" x2="203.6" y2="263.38" fill="none" stroke="#fff" stroke-width="2"/>
    </g>
    <g>
      <line x1="82.6" y1="245.99" x2="203.6" y2="245.99" fill="none" stroke="#231f20" stroke-width="4"/>
      <line x1="82.6" y1="245.99" x2="203.6" y2="245.99" fill="none" stroke="#fff" stroke-width="2"/>
    </g>
    <path d="M62.92,288v28.38a2,2,0,0,0,2,2h58.37" fill="none" stroke="#767676" stroke-linecap="round" stroke-linejoin="round" stroke-width="0.5"/>
    <path d="M223.09,288v28.38a2,2,0,0,1-2,2H163" fill="none" stroke="#767676" stroke-linecap="round" stroke-linejoin="round" stroke-width="0.5"/>
    <g>
      <rect x="126.1" y="301.85" width="35" height="30" fill="#fff"/>
      <rect x="126.1" y="301.85" width="35" height="30" fill="#3c3c41" opacity="0.02"/>
      <rect x="126.1" y="301.85" width="35" height="30" fill="none" stroke="#75757a" stroke-miterlimit="10" stroke-width="0.5" opacity="0.5"/>
    </g>
    <use width="25.89" height="20.48" transform="translate(131.05 306.66)" xlink:href="#New_Symbol_5"/>
    <path d="M324.31,35.36a7.85,7.85,0,0,0-6.72-7.6,9.88,9.88,0,0,0-10.06-9.56A10.11,10.11,0,0,0,298,24.89,9.31,9.31,0,0,0,289.89,34a9.57,9.57,0,0,0,9.71,9.22h17A7.94,7.94,0,0,0,324.31,35.36Z" fill="url(#linear-gradient-9)"/>
    <line x1="287.28" y1="106.2" x2="242.28" y2="106.2" fill="none" stroke="#767676" stroke-linecap="round" stroke-linejoin="round" stroke-width="0.5"/>
    <line x1="202.28" y1="106.2" x2="162.28" y2="106.2" fill="none" stroke="#767676" stroke-linecap="round" stroke-linejoin="round" stroke-width="0.5"/>
    <path d="M7.55,59.43l2-6.09a8.13,8.13,0,0,1,.31-.81,4.31,4.31,0,0,0,.25-.71c.1-.26.15-.46.25-.71a3.93,3.93,0,0,0,.21-.82V44.15l4.56-2.28V38.12l5.33-2.69,5.33,2.69v7.61l.3,1.21c.1.36.26.71.36,1.07s.25.71.4,1.07a12.42,12.42,0,0,1,.46,1.21l3,9.14ZM25.31,49l-4.06,2v2.69l-5.33,2.69L11,54,9.68,58h8.37l8.78-4.37ZM12.12,52.73l3,1.52v-7l-3-1.52Zm3.8-9.54-2.79,1.42L15.92,46l2.79-1.37Zm.76-3.5v2.18l3.05,1.52V41.21Zm0,14.56,3.05-1.52V45.78L16.68,47.3ZM20.49,37.1,17.7,38.52l2.79,1.37,2.79-1.37Zm3.81,2.59-3.05,1.52v8.12l3.05-1.52ZM28.25,57.9l-1-2.94L21.4,57.9Z" fill="#0f467c"/>
    <g>
      <path d="M324.84,107.48a8,8,0,0,0-6.92-7.67,10.06,10.06,0,0,0-10.35-9.6,10.31,10.31,0,0,0-9.85,6.72,9.51,9.51,0,0,0-8.36,9.15,9.66,9.66,0,0,0,10,9.28h17a3.23,3.23,0,0,0,.44,0A8.09,8.09,0,0,0,324.84,107.48Z" fill="url(#linear-gradient-10)"/>
      <path d="M317.53,109.55a.83.83,0,0,0-.83-.81H297.5a.84.84,0,0,0-.83.81v9.85a.84.84,0,0,0,.83.81h19.2a.83.83,0,0,0,.83-.81Z" fill="#821010"/>
      <rect x="297.84" y="109.88" width="5.66" height="2.5" fill="#e62323"/>
      <rect x="304.34" y="109.88" width="5.66" height="2.5" fill="#ff7381"/>
      <rect x="310.84" y="109.88" width="5.66" height="2.5" fill="#e62323"/>
      <rect x="297.84" y="113.23" width="2.35" height="2.5" fill="#e62323"/>
      <rect x="314.16" y="113.23" width="2.35" height="2.5" fill="#ff7381"/>
      <rect x="301.03" y="113.23" width="5.66" height="2.5" fill="#ff7381"/>
      <rect x="307.55" y="113.23" width="5.66" height="2.5" fill="#e62323"/>
      <rect x="297.84" y="116.58" width="5.66" height="2.5" fill="#e62323"/>
      <rect x="304.34" y="116.58" width="5.66" height="2.5" fill="#ff7381"/>
      <rect x="310.84" y="116.58" width="5.66" height="2.5" fill="#e62323"/>
    </g>
    <line x1="122.56" y1="106.2" x2="83.77" y2="106.2" fill="none" stroke="#767676" stroke-linecap="round" stroke-linejoin="round" stroke-width="0.5"/>
    <g>
      <path d="M160.29,107.48a8,8,0,0,0-6.92-7.67A10.05,10.05,0,0,0,143,90.21a10.32,10.32,0,0,0-9.85,6.72,9.52,9.52,0,0,0-8.36,9.15,9.66,9.66,0,0,0,10,9.28h17a3.23,3.23,0,0,0,.44,0A8.09,8.09,0,0,0,160.29,107.48Z" fill="url(#linear-gradient-11)"/>
      <path d="M153,109.55a.83.83,0,0,0-.83-.81H133a.82.82,0,0,0-.82.81v9.85a.82.82,0,0,0,.82.81h19.2a.83.83,0,0,0,.83-.81Z" fill="#821010"/>
      <rect x="133.29" y="109.88" width="5.66" height="2.5" fill="#e62323"/>
      <rect x="139.79" y="109.88" width="5.66" height="2.5" fill="#ff7381"/>
      <rect x="146.3" y="109.88" width="5.66" height="2.5" fill="#e62323"/>
      <rect x="133.29" y="113.23" width="2.35" height="2.5" fill="#e62323"/>
      <rect x="149.61" y="113.23" width="2.35" height="2.5" fill="#ff7381"/>
      <rect x="136.48" y="113.23" width="5.66" height="2.5" fill="#ff7381"/>
      <rect x="143" y="113.23" width="5.66" height="2.5" fill="#e62323"/>
      <rect x="133.29" y="116.58" width="5.66" height="2.5" fill="#e62323"/>
      <rect x="139.79" y="116.58" width="5.66" height="2.5" fill="#ff7381"/>
      <rect x="146.3" y="116.58" width="5.66" height="2.5" fill="#e62323"/>
    </g>
    <line x1="307.1" y1="44.2" x2="307.1" y2="88.19" fill="none" stroke="#3c3c41"/>
    <path d="M216,123.36v4.93a3.24,3.24,0,0,1-3,3.18L67.28,140.06a3.24,3.24,0,0,0-3,3.18v5.17" fill="none" stroke="#767676" stroke-linecap="round" stroke-linejoin="round" stroke-width="0.5"/>
  </g>
  <g id="Text">
    <g>
      <path d="M166,162.4V154h2.39a2.59,2.59,0,0,1,1.73.53,1.74,1.74,0,0,1,.64,1.39,2,2,0,0,1-.39,1.24,2.09,2.09,0,0,1-1.07.75v0a2.11,2.11,0,0,1,1.36.65,2,2,0,0,1,.51,1.4,2.18,2.18,0,0,1-.77,1.75,2.87,2.87,0,0,1-2,.67Zm1-7.51v2.71h1a1.91,1.91,0,0,0,1.27-.39,1.36,1.36,0,0,0,.47-1.1c0-.82-.54-1.22-1.62-1.22Zm0,3.59v3h1.34a2,2,0,0,0,1.34-.41,1.42,1.42,0,0,0,.48-1.13c0-1-.67-1.49-2-1.49Z" fill="#1e1e1e"/>
      <path d="M175.22,162.54a2.79,2.79,0,0,1-2.13-.84,3.12,3.12,0,0,1-.79-2.23,3.19,3.19,0,0,1,.83-2.36,3,3,0,0,1,2.23-.85,2.68,2.68,0,0,1,2.09.82,3.3,3.3,0,0,1,.76,2.3,3.17,3.17,0,0,1-.82,2.29A2.82,2.82,0,0,1,175.22,162.54Zm.07-5.47a1.84,1.84,0,0,0-1.47.63,2.58,2.58,0,0,0-.54,1.73,2.49,2.49,0,0,0,.55,1.69,1.85,1.85,0,0,0,1.46.61,1.75,1.75,0,0,0,1.43-.6,3.23,3.23,0,0,0,0-3.45A1.73,1.73,0,0,0,175.29,157.07Z" fill="#1e1e1e"/>
      <path d="M182.87,157.37a1.18,1.18,0,0,0-.73-.19,1.23,1.23,0,0,0-1,.58,2.7,2.7,0,0,0-.41,1.58v3.06h-1v-6h1v1.23h0a2,2,0,0,1,.62-1,1.43,1.43,0,0,1,1-.36,1.41,1.41,0,0,1,.57.09Z" fill="#1e1e1e"/>
      <path d="M189,162.4h-1v-1h0a2.42,2.42,0,0,1-3.87.35,3.3,3.3,0,0,1-.68-2.19,3.62,3.62,0,0,1,.75-2.39,2.5,2.5,0,0,1,2-.89,1.93,1.93,0,0,1,1.8,1h0v-3.71h1Zm-1-2.71v-.89a1.73,1.73,0,0,0-.48-1.23,1.58,1.58,0,0,0-1.22-.5,1.66,1.66,0,0,0-1.38.64,2.79,2.79,0,0,0-.5,1.78,2.56,2.56,0,0,0,.48,1.64,1.59,1.59,0,0,0,1.3.6,1.63,1.63,0,0,0,1.3-.58A2.12,2.12,0,0,0,188.07,159.69Z" fill="#1e1e1e"/>
      <path d="M195.8,159.64h-4.23a2.25,2.25,0,0,0,.53,1.55,1.88,1.88,0,0,0,1.42.54,2.94,2.94,0,0,0,1.87-.67v.9a3.46,3.46,0,0,1-2.1.58,2.51,2.51,0,0,1-2-.82,3.83,3.83,0,0,1,.06-4.58,2.54,2.54,0,0,1,2-.88,2.26,2.26,0,0,1,1.83.76,3.17,3.17,0,0,1,.64,2.11Zm-1-.82a2,2,0,0,0-.4-1.29,1.37,1.37,0,0,0-1.1-.46,1.57,1.57,0,0,0-1.16.48,2.24,2.24,0,0,0-.58,1.27Z" fill="#1e1e1e"/>
      <path d="M200.38,157.37a1.14,1.14,0,0,0-.72-.19,1.21,1.21,0,0,0-1,.58,2.62,2.62,0,0,0-.41,1.58v3.06h-1v-6h1v1.23h0a2,2,0,0,1,.63-1,1.54,1.54,0,0,1,1.51-.27Z" fill="#1e1e1e"/>
      <path d="M198.51,169.4a1.71,1.71,0,0,0-.12-.67,1.28,1.28,0,0,0-.33-.48,1.42,1.42,0,0,0-.49-.29,2,2,0,0,0-.61-.09,2,2,0,0,0-.55.08,2.57,2.57,0,0,0-.52.21,3,3,0,0,0-.5.32,3.45,3.45,0,0,0-.44.42v-1a2.88,2.88,0,0,1,.91-.6,3.35,3.35,0,0,1,1.22-.2,2.91,2.91,0,0,1,.95.15,2.08,2.08,0,0,1,.77.43,2,2,0,0,1,.5.71,2.27,2.27,0,0,1,.19,1,3.16,3.16,0,0,1-.12.9,2.73,2.73,0,0,1-.34.76,3.73,3.73,0,0,1-.59.69,7.36,7.36,0,0,1-.82.66l-1,.73a3.78,3.78,0,0,0-.61.56,1.49,1.49,0,0,0-.31.52,1.8,1.8,0,0,0-.09.6h4.18v.86h-5.19v-.42a3.43,3.43,0,0,1,.12-1,2.59,2.59,0,0,1,.39-.78,4.3,4.3,0,0,1,.7-.73c.29-.25.65-.53,1.07-.84a5.92,5.92,0,0,0,.77-.62,3.23,3.23,0,0,0,.49-.6,1.93,1.93,0,0,0,.27-.61A2.69,2.69,0,0,0,198.51,169.4Z" fill="#1e1e1e"/>
    </g>
    <g>
      <path d="M86.87,162.4V154h2.39a2.61,2.61,0,0,1,1.73.53,1.73,1.73,0,0,1,.63,1.39,2,2,0,0,1-.38,1.24,2.14,2.14,0,0,1-1.07.75v0a2.11,2.11,0,0,1,1.36.65A2,2,0,0,1,92,160a2.21,2.21,0,0,1-.77,1.75,2.87,2.87,0,0,1-2,.67Zm1-7.51v2.71h1a1.91,1.91,0,0,0,1.27-.39,1.36,1.36,0,0,0,.46-1.1c0-.82-.53-1.22-1.61-1.22Zm0,3.59v3h1.34a2,2,0,0,0,1.34-.41A1.42,1.42,0,0,0,91,160c0-1-.68-1.49-2-1.49Z" fill="#1e1e1e"/>
      <path d="M96.12,162.54A2.79,2.79,0,0,1,94,161.7a3.12,3.12,0,0,1-.79-2.23,3.23,3.23,0,0,1,.82-2.36,3,3,0,0,1,2.24-.85,2.68,2.68,0,0,1,2.09.82,3.3,3.3,0,0,1,.75,2.3,3.2,3.2,0,0,1-.81,2.29A2.84,2.84,0,0,1,96.12,162.54Zm.08-5.47a1.84,1.84,0,0,0-1.47.63,2.58,2.58,0,0,0-.54,1.73,2.44,2.44,0,0,0,.55,1.69,1.85,1.85,0,0,0,1.46.61,1.77,1.77,0,0,0,1.43-.6,3.23,3.23,0,0,0,0-3.45A1.74,1.74,0,0,0,96.2,157.07Z" fill="#1e1e1e"/>
      <path d="M103.78,157.37a1.18,1.18,0,0,0-.73-.19,1.23,1.23,0,0,0-1,.58,2.7,2.7,0,0,0-.41,1.58v3.06h-1v-6h1v1.23h0a2.09,2.09,0,0,1,.63-1,1.42,1.42,0,0,1,.94-.36,1.5,1.5,0,0,1,.58.09Z" fill="#1e1e1e"/>
      <path d="M109.94,162.4h-1v-1h0a2.42,2.42,0,0,1-3.87.35,3.3,3.3,0,0,1-.68-2.19,3.62,3.62,0,0,1,.75-2.39,2.5,2.5,0,0,1,2-.89,1.93,1.93,0,0,1,1.8,1h0v-3.71h1Zm-1-2.71v-.89a1.73,1.73,0,0,0-.48-1.23,1.6,1.6,0,0,0-1.22-.5,1.65,1.65,0,0,0-1.38.64,2.79,2.79,0,0,0-.51,1.78,2.56,2.56,0,0,0,.49,1.64,1.57,1.57,0,0,0,1.3.6,1.63,1.63,0,0,0,1.3-.58A2.17,2.17,0,0,0,109,159.69Z" fill="#1e1e1e"/>
      <path d="M116.71,159.64h-4.24a2.3,2.3,0,0,0,.54,1.55,1.88,1.88,0,0,0,1.42.54,2.89,2.89,0,0,0,1.86-.67v.9a3.41,3.41,0,0,1-2.09.58,2.53,2.53,0,0,1-2-.82,3.35,3.35,0,0,1-.72-2.3,3.28,3.28,0,0,1,.79-2.28,2.54,2.54,0,0,1,2-.88,2.24,2.24,0,0,1,1.82.76,3.17,3.17,0,0,1,.65,2.11Zm-1-.82a1.9,1.9,0,0,0-.4-1.29,1.36,1.36,0,0,0-1.1-.46,1.56,1.56,0,0,0-1.15.48,2.25,2.25,0,0,0-.59,1.27Z" fill="#1e1e1e"/>
      <path d="M121.29,157.37a1.18,1.18,0,0,0-.73-.19,1.2,1.2,0,0,0-1,.58,2.62,2.62,0,0,0-.42,1.58v3.06h-1v-6h1v1.23h0a2,2,0,0,1,.62-1,1.43,1.43,0,0,1,1-.36,1.41,1.41,0,0,1,.57.09Z" fill="#1e1e1e"/>
      <path d="M90,175.6h-1v-7.26a2.79,2.79,0,0,1-.33.25,5.06,5.06,0,0,1-.48.29c-.18.09-.36.18-.56.26a3.56,3.56,0,0,1-.58.19v-1c.21-.06.44-.14.67-.23s.47-.22.7-.34a7,7,0,0,0,.65-.39,3.91,3.91,0,0,0,.52-.39H90Z" fill="#1e1e1e"/>
    </g>
    <g>
      <path d="M11,242.08H8.92l-.6-1.87h-3l-.6,1.87H2.69l3.06-8.4H8Zm-3.1-3.32L7,235.94a3.69,3.69,0,0,1-.14-.76h0a3.06,3.06,0,0,1-.15.73l-.91,2.85Z" fill="#231f20"/>
      <path d="M16.6,242.08H11.22v-.76l3-3.87H11.52v-1.37h5.06V237l-2.85,3.72H16.6Z" fill="#231f20"/>
      <path d="M23.3,242.08H21.46v-.91h0a2.09,2.09,0,0,1-1.84,1.06c-1.39,0-2.08-.84-2.08-2.52v-3.63h1.84v3.46c0,.85.34,1.27,1,1.27a1,1,0,0,0,.8-.35,1.38,1.38,0,0,0,.3-.94v-3.44H23.3Z" fill="#231f20"/>
      <path d="M28.77,237.75a1.61,1.61,0,0,0-.78-.18,1.14,1.14,0,0,0-.94.44,1.93,1.93,0,0,0-.34,1.21v2.86H24.86v-6h1.85v1.12h0A1.59,1.59,0,0,1,28.32,236a1.12,1.12,0,0,1,.45.07Z" fill="#231f20"/>
      <path d="M35,239.61H31.07c.06.87.61,1.31,1.64,1.31a3.24,3.24,0,0,0,1.74-.47v1.34a4.63,4.63,0,0,1-2.16.44,2.79,2.79,0,0,1-3.06-3,3.2,3.2,0,0,1,.87-2.37,2.9,2.9,0,0,1,2.13-.87,2.62,2.62,0,0,1,2,.78,3,3,0,0,1,.72,2.11Zm-1.72-1.14c0-.85-.35-1.28-1-1.28a1,1,0,0,0-.77.36,1.72,1.72,0,0,0-.4.92Z" fill="#231f20"/>
      <path d="M4.53,255v-1.87a3.59,3.59,0,0,0,2.32.85,2.9,2.9,0,0,0,.62-.06,1.39,1.39,0,0,0,.44-.18.87.87,0,0,0,.27-.27.67.67,0,0,0,.09-.34.77.77,0,0,0-.14-.44,1.49,1.49,0,0,0-.39-.35,3.74,3.74,0,0,0-.57-.32l-.72-.31a3.65,3.65,0,0,1-1.47-1,2.46,2.46,0,0,1-.22-2.56,2.24,2.24,0,0,1,.72-.78,3.33,3.33,0,0,1,1-.45,5.72,5.72,0,0,1,1.26-.14,8.06,8.06,0,0,1,1.17.08,4.22,4.22,0,0,1,.93.24v1.76a2.28,2.28,0,0,0-.46-.26,2.82,2.82,0,0,0-.51-.19c-.18-.05-.35-.08-.52-.11l-.5,0a2.74,2.74,0,0,0-.59.06,1.62,1.62,0,0,0-.44.17.91.91,0,0,0-.28.27.6.6,0,0,0-.1.35.7.7,0,0,0,.11.38,1.19,1.19,0,0,0,.32.31,3.5,3.5,0,0,0,.49.3l.67.29a7.55,7.55,0,0,1,.9.45,3.18,3.18,0,0,1,.69.54,2,2,0,0,1,.44.68,2.44,2.44,0,0,1,.15.89A2.34,2.34,0,0,1,10,254.1a2.07,2.07,0,0,1-.72.78,3.14,3.14,0,0,1-1.06.42,5.91,5.91,0,0,1-1.28.13,7,7,0,0,1-1.32-.12A3.7,3.7,0,0,1,4.53,255Z" fill="#231f20"/>
      <path d="M14.79,255.21a2.64,2.64,0,0,1-1.24.22c-1.3,0-2-.68-2-2v-2.75h-1v-1.37h1V248l1.84-.53v1.82h1.35v1.37H13.44v2.43q0,.93.75.93a1.19,1.19,0,0,0,.6-.17Z" fill="#231f20"/>
      <path d="M20.83,255.28H19.07v-.86h0a2,2,0,0,1-1.79,1,1.85,1.85,0,0,1-1.37-.49,1.8,1.8,0,0,1-.5-1.33q0-1.74,2.07-2l1.63-.22c0-.65-.36-1-1.07-1a3.59,3.59,0,0,0-2,.64v-1.4a4.67,4.67,0,0,1,1.06-.35,5.63,5.63,0,0,1,1.22-.15,2.27,2.27,0,0,1,2.57,2.56Zm-1.74-2.43v-.41l-1.09.14c-.61.08-.91.35-.91.82a.71.71,0,0,0,.22.52.89.89,0,0,0,.6.2,1.1,1.1,0,0,0,.85-.36A1.31,1.31,0,0,0,19.09,252.85Z" fill="#231f20"/>
      <path d="M26.84,255.07a3.69,3.69,0,0,1-1.81.36,3.06,3.06,0,0,1-2.24-.84,2.9,2.9,0,0,1-.86-2.16,3.19,3.19,0,0,1,.92-2.41,3.38,3.38,0,0,1,2.45-.88,3.14,3.14,0,0,1,1.54.28V251a2.12,2.12,0,0,0-1.3-.43,1.7,1.7,0,0,0-1.26.46,1.75,1.75,0,0,0-.47,1.29,1.69,1.69,0,0,0,.45,1.25,1.64,1.64,0,0,0,1.22.45,2.43,2.43,0,0,0,1.36-.43Z" fill="#231f20"/>
      <path d="M34.06,255.28H31.84l-1.91-3h0v3H28.05V246.4H29.9v5.66h0l1.78-2.78h2.2l-2.15,2.82Z" fill="#231f20"/>
      <path d="M15.25,268.48H13.36v-3.42H9.87v3.42H8v-8.4H9.87v3.35h3.49v-3.35h1.89Z" fill="#231f20"/>
      <path d="M22.7,268.48H20.85v-.91h0A2.09,2.09,0,0,1,19,268.63c-1.39,0-2.09-.84-2.09-2.52v-3.63h1.85v3.46c0,.85.33,1.27,1,1.27a1,1,0,0,0,.8-.35,1.38,1.38,0,0,0,.3-.94v-3.44H22.7Z" fill="#231f20"/>
      <path d="M26.13,267.79h0v.69H24.25V259.6h1.86v3.79h0a2.2,2.2,0,0,1,1.95-1.05,2.15,2.15,0,0,1,1.79.79,3.51,3.51,0,0,1,.62,2.18,3.71,3.71,0,0,1-.73,2.41,2.38,2.38,0,0,1-2,.91A1.89,1.89,0,0,1,26.13,267.79Zm-.05-2.53v.61a1.4,1.4,0,0,0,.33,1,1.07,1.07,0,0,0,.86.38,1.14,1.14,0,0,0,1-.49,2.34,2.34,0,0,0,.35-1.38,1.91,1.91,0,0,0-.32-1.17,1.12,1.12,0,0,0-.92-.41,1.17,1.17,0,0,0-.92.41A1.61,1.61,0,0,0,26.08,265.26Z" fill="#231f20"/>
    </g>
    <g>
      <path d="M6.71,17.25V8.85h3c3,0,4.48,1.36,4.48,4.09a4.13,4.13,0,0,1-1.23,3.14,4.48,4.48,0,0,1-3.25,1.17Zm1.9-6.86v5.33h.93A2.53,2.53,0,0,0,11.47,15a2.78,2.78,0,0,0,.7-2,2.55,2.55,0,0,0-.69-1.89,2.64,2.64,0,0,0-2-.69Z" fill="#231f20"/>
      <path d="M20.37,17.25H18.62v-.86h0a2,2,0,0,1-1.79,1,1.9,1.9,0,0,1-1.38-.5,1.79,1.79,0,0,1-.5-1.32q0-1.74,2.07-2l1.63-.22c0-.66-.35-1-1.07-1a3.66,3.66,0,0,0-2,.64V11.61a4.57,4.57,0,0,1,1-.35,5.77,5.77,0,0,1,1.22-.16,2.27,2.27,0,0,1,2.57,2.57Zm-1.74-2.44v-.4l-1.09.14q-.9.12-.9.81a.65.65,0,0,0,.22.52.81.81,0,0,0,.59.2,1.1,1.1,0,0,0,.85-.36A1.29,1.29,0,0,0,18.63,14.81Z" fill="#231f20"/>
      <path d="M25.46,17.18a2.62,2.62,0,0,1-1.23.22c-1.31,0-2-.68-2-2V12.62h-1V11.25h1V10l1.85-.53v1.82h1.34v1.37H24.12V15c0,.63.24.94.74.94a1.27,1.27,0,0,0,.6-.17Z" fill="#231f20"/>
      <path d="M31.5,17.25H29.75v-.86h0a2,2,0,0,1-1.78,1,1.88,1.88,0,0,1-1.38-.5,1.79,1.79,0,0,1-.5-1.32q0-1.74,2.07-2l1.63-.22c0-.66-.36-1-1.07-1a3.72,3.72,0,0,0-2,.64V11.61a4.67,4.67,0,0,1,1.06-.35,5.69,5.69,0,0,1,1.22-.16,2.27,2.27,0,0,1,2.57,2.57Zm-1.74-2.44v-.4l-1.09.14q-.9.12-.9.81a.65.65,0,0,0,.22.52.8.8,0,0,0,.59.2,1.1,1.1,0,0,0,.85-.36A1.29,1.29,0,0,0,29.76,14.81Z" fill="#231f20"/>
      <path d="M6.59,30.23a3.57,3.57,0,0,1-1.81.37,3.06,3.06,0,0,1-2.24-.84,2.89,2.89,0,0,1-.85-2.16,3.14,3.14,0,0,1,.92-2.41,3.37,3.37,0,0,1,2.45-.89,3.08,3.08,0,0,1,1.53.29v1.57a2.1,2.1,0,0,0-1.29-.44,1.62,1.62,0,0,0-1.73,1.75A1.76,1.76,0,0,0,4,28.73a1.66,1.66,0,0,0,1.23.45,2.42,2.42,0,0,0,1.35-.43Z" fill="#231f20"/>
      <path d="M13.2,28H9.28c.06.87.61,1.31,1.65,1.31a3.24,3.24,0,0,0,1.74-.47v1.33a4.56,4.56,0,0,1-2.16.45,3,3,0,0,1-2.26-.81,3.06,3.06,0,0,1-.8-2.25,3.19,3.19,0,0,1,.87-2.36,2.87,2.87,0,0,1,2.13-.88,2.63,2.63,0,0,1,2,.78,3,3,0,0,1,.72,2.12Zm-1.72-1.14c0-.86-.35-1.29-1-1.29a1,1,0,0,0-.77.37,1.68,1.68,0,0,0-.4.92Z" fill="#231f20"/>
      <path d="M20.09,30.45H18.25V27.12c0-.93-.33-1.4-1-1.4a1,1,0,0,0-.79.37,1.4,1.4,0,0,0-.31.94v3.42H14.3v-6h1.85v.95h0a2.13,2.13,0,0,1,1.93-1.1c1.33,0,2,.83,2,2.48Z" fill="#231f20"/>
      <path d="M25.18,30.38A2.62,2.62,0,0,1,24,30.6c-1.31,0-2-.68-2-2V25.82H21V24.45h1V23.16l1.85-.53v1.82h1.34v1.37H23.84v2.42c0,.63.25.94.74.94a1.24,1.24,0,0,0,.6-.17Z" fill="#231f20"/>
      <path d="M31.57,28H27.66c.06.87.61,1.31,1.64,1.31A3.24,3.24,0,0,0,31,28.82v1.33a4.5,4.5,0,0,1-2.16.45,2.81,2.81,0,0,1-3.06-3.06,3.19,3.19,0,0,1,.87-2.36,2.91,2.91,0,0,1,2.13-.88,2.6,2.6,0,0,1,2,.78,3,3,0,0,1,.72,2.12Zm-1.72-1.14c0-.86-.34-1.29-1-1.29a1,1,0,0,0-.77.37,1.6,1.6,0,0,0-.39.92Z" fill="#231f20"/>
      <path d="M36.59,26.12a1.66,1.66,0,0,0-.78-.18,1.15,1.15,0,0,0-1,.44,2,2,0,0,0-.34,1.21v2.86H32.67v-6h1.85v1.11h0a1.59,1.59,0,0,1,1.58-1.21,1.14,1.14,0,0,1,.46.07Z" fill="#231f20"/>
    </g>
    <g>
      <path d="M288.37,10.2h-1V1.8h1Z" fill="#1e1e1e"/>
      <path d="M295.43,10.2h-1V6.78c0-1.27-.46-1.91-1.39-1.91a1.54,1.54,0,0,0-1.2.54,2,2,0,0,0-.47,1.37V10.2h-1v-6h1v1h0a2.15,2.15,0,0,1,2-1.14,1.83,1.83,0,0,1,1.51.64,2.79,2.79,0,0,1,.52,1.83Z" fill="#1e1e1e"/>
      <path d="M300,10.14a1.82,1.82,0,0,1-.9.19c-1.05,0-1.58-.59-1.58-1.76V5h-1V4.2h1V2.74l1-.31V4.2H300V5h-1.52V8.4a1.37,1.37,0,0,0,.21.86.8.8,0,0,0,.68.26,1,1,0,0,0,.63-.2Z" fill="#1e1e1e"/>
      <path d="M306.13,7.44h-4.24A2.28,2.28,0,0,0,302.43,9a1.88,1.88,0,0,0,1.42.54,2.94,2.94,0,0,0,1.86-.66v.9a3.47,3.47,0,0,1-2.09.57,2.54,2.54,0,0,1-2-.82,3.35,3.35,0,0,1-.72-2.3,3.28,3.28,0,0,1,.79-2.28,2.54,2.54,0,0,1,2-.88,2.26,2.26,0,0,1,1.83.76,3.19,3.19,0,0,1,.64,2.12Zm-1-.81a2,2,0,0,0-.41-1.3,1.35,1.35,0,0,0-1.09-.46,1.54,1.54,0,0,0-1.16.49,2.18,2.18,0,0,0-.58,1.27Z" fill="#1e1e1e"/>
      <path d="M310.71,5.17A1.16,1.16,0,0,0,310,5a1.21,1.21,0,0,0-1,.58,2.64,2.64,0,0,0-.42,1.58V10.2h-1v-6h1V5.44h0a2,2,0,0,1,.63-1,1.39,1.39,0,0,1,.94-.35,1.44,1.44,0,0,1,.57.08Z" fill="#1e1e1e"/>
      <path d="M316.74,10.2h-1V6.78c0-1.27-.47-1.91-1.4-1.91a1.5,1.5,0,0,0-1.19.54,2,2,0,0,0-.47,1.37V10.2h-1v-6h1v1h0a2.16,2.16,0,0,1,2-1.14,1.81,1.81,0,0,1,1.5.64,2.79,2.79,0,0,1,.53,1.83Z" fill="#1e1e1e"/>
      <path d="M323.37,7.44h-4.24A2.28,2.28,0,0,0,319.67,9a1.88,1.88,0,0,0,1.42.54A2.94,2.94,0,0,0,323,8.87v.9a3.47,3.47,0,0,1-2.09.57,2.53,2.53,0,0,1-2-.82,3.35,3.35,0,0,1-.72-2.3,3.28,3.28,0,0,1,.79-2.28,2.54,2.54,0,0,1,2-.88,2.24,2.24,0,0,1,1.82.76,3.2,3.2,0,0,1,.65,2.12Zm-1-.81a1.91,1.91,0,0,0-.4-1.3,1.36,1.36,0,0,0-1.1-.46,1.54,1.54,0,0,0-1.15.49,2.19,2.19,0,0,0-.59,1.27Z" fill="#1e1e1e"/>
      <path d="M327.61,10.14a1.82,1.82,0,0,1-.9.19c-1,0-1.58-.59-1.58-1.76V5h-1V4.2h1V2.74l1-.31V4.2h1.52V5h-1.52V8.4a1.37,1.37,0,0,0,.21.86.8.8,0,0,0,.68.26,1,1,0,0,0,.63-.2Z" fill="#1e1e1e"/>
    </g>
    <g>
      <path d="M299.42,135.89H295v-8.41h4.27v.89H296v2.8h3v.88h-3V135h3.47Z" fill="#1e1e1e"/>
      <path d="M306,135.89h-1v-1h0a2.42,2.42,0,0,1-3.87.35,3.32,3.32,0,0,1-.68-2.19,3.6,3.6,0,0,1,.75-2.39,2.47,2.47,0,0,1,2-.89,1.91,1.91,0,0,1,1.8,1h0V127h1Zm-1-2.72v-.88a1.7,1.7,0,0,0-.48-1.23,1.59,1.59,0,0,0-1.22-.51,1.67,1.67,0,0,0-1.38.65,2.85,2.85,0,0,0-.5,1.78,2.56,2.56,0,0,0,.48,1.64,1.59,1.59,0,0,0,1.3.6,1.66,1.66,0,0,0,1.3-.58A2.15,2.15,0,0,0,305.06,133.17Z" fill="#1e1e1e"/>
      <path d="M313.09,135.41q0,3.3-3.16,3.3a4.31,4.31,0,0,1-1.95-.42v-1a4.06,4.06,0,0,0,1.94.56c1.47,0,2.21-.79,2.21-2.36v-.65h0a2.43,2.43,0,0,1-3.87.35,3.24,3.24,0,0,1-.68-2.15,3.73,3.73,0,0,1,.74-2.43,2.46,2.46,0,0,1,2-.9,2,2,0,0,1,1.8,1h0v-.83h1Zm-1-2.24v-.88a1.73,1.73,0,0,0-.48-1.23,1.62,1.62,0,0,0-1.21-.51,1.66,1.66,0,0,0-1.39.65,2.88,2.88,0,0,0-.51,1.82,2.5,2.5,0,0,0,.49,1.6,1.56,1.56,0,0,0,1.28.6,1.63,1.63,0,0,0,1.31-.58A2.12,2.12,0,0,0,312.13,133.17Z" fill="#1e1e1e"/>
      <path d="M319.86,133.13h-4.24a2.27,2.27,0,0,0,.54,1.54,1.85,1.85,0,0,0,1.42.55,2.89,2.89,0,0,0,1.86-.67v.9a3.41,3.41,0,0,1-2.09.58,2.56,2.56,0,0,1-2-.82,3.37,3.37,0,0,1-.72-2.3,3.28,3.28,0,0,1,.79-2.28,2.54,2.54,0,0,1,2-.88,2.24,2.24,0,0,1,1.82.76,3.17,3.17,0,0,1,.65,2.11Zm-1-.82a1.9,1.9,0,0,0-.4-1.29,1.36,1.36,0,0,0-1.1-.47,1.57,1.57,0,0,0-1.15.49,2.22,2.22,0,0,0-.59,1.27Z" fill="#1e1e1e"/>
      <path d="M292.57,141.57h-3.29v2.91h3v.89h-3v3.72h-1v-8.41h4.27Z" fill="#1e1e1e"/>
      <path d="M294.52,141.56a.64.64,0,0,1-.44-.17.65.65,0,0,1,0-.9.6.6,0,0,1,.44-.18.61.61,0,0,1,.45.18.62.62,0,0,1,0,.89A.61.61,0,0,1,294.52,141.56Zm.47,7.53h-1v-6h1Z" fill="#1e1e1e"/>
      <path d="M300.07,144.06a1.18,1.18,0,0,0-.73-.19,1.23,1.23,0,0,0-1,.58,2.7,2.7,0,0,0-.41,1.58v3.06h-1v-6h1v1.23h0a2.09,2.09,0,0,1,.63-1,1.4,1.4,0,0,1,.94-.36,1.75,1.75,0,0,1,.58.08Z" fill="#1e1e1e"/>
      <path d="M305.93,146.33H301.7a2.22,2.22,0,0,0,.53,1.54,1.85,1.85,0,0,0,1.42.55,2.94,2.94,0,0,0,1.87-.67v.9a3.46,3.46,0,0,1-2.1.58,2.54,2.54,0,0,1-2-.82,3.33,3.33,0,0,1-.73-2.3,3.28,3.28,0,0,1,.79-2.28,2.54,2.54,0,0,1,2-.88,2.26,2.26,0,0,1,1.83.76,3.17,3.17,0,0,1,.64,2.11Zm-1-.82a2,2,0,0,0-.4-1.29,1.38,1.38,0,0,0-1.1-.47,1.58,1.58,0,0,0-1.16.49,2.21,2.21,0,0,0-.58,1.27Z" fill="#1e1e1e"/>
      <path d="M314.94,143.09l-1.8,6h-1l-1.24-4.3a2.26,2.26,0,0,1-.09-.56h0a2.4,2.4,0,0,1-.12.55l-1.34,4.31h-1l-1.82-6h1l1.24,4.51a2.21,2.21,0,0,1,.08.54h.05a2.33,2.33,0,0,1,.11-.55l1.38-4.5h.88l1.24,4.52a3,3,0,0,1,.09.54h.05a2.08,2.08,0,0,1,.1-.54l1.21-4.52Z" fill="#1e1e1e"/>
      <path d="M320.35,149.09h-1v-.94h0a2,2,0,0,1-1.85,1.08,2,2,0,0,1-1.4-.48,1.62,1.62,0,0,1-.51-1.26q0-1.68,2-2l1.8-.26c0-1-.41-1.53-1.24-1.53a3,3,0,0,0-1.95.74v-1a3.68,3.68,0,0,1,2-.56c1.41,0,2.11.74,2.11,2.23Zm-1-3-1.45.2a2.25,2.25,0,0,0-1,.33,1,1,0,0,0-.34.84.91.91,0,0,0,.31.72,1.19,1.19,0,0,0,.83.28,1.55,1.55,0,0,0,1.18-.5,1.77,1.77,0,0,0,.47-1.27Z" fill="#1e1e1e"/>
      <path d="M323.12,149.09h-1V140.2h1Z" fill="#1e1e1e"/>
      <path d="M326,149.09h-1V140.2h1Z" fill="#1e1e1e"/>
    </g>
    <g>
      <path d="M124.49,69.88h-1v-8.4h1Z" fill="#1e1e1e"/>
      <path d="M131.55,69.88h-1V66.46c0-1.28-.47-1.91-1.4-1.91a1.5,1.5,0,0,0-1.19.54,2,2,0,0,0-.47,1.37v3.42h-1v-6h1v1h0a2.17,2.17,0,0,1,2-1.13,1.85,1.85,0,0,1,1.51.63,2.9,2.9,0,0,1,.52,1.84Z" fill="#1e1e1e"/>
      <path d="M136.14,69.82a1.91,1.91,0,0,1-.9.19c-1.05,0-1.57-.59-1.57-1.76V64.7h-1v-.82h1V62.41l1-.31v1.78h1.51v.82h-1.51v3.38a1.45,1.45,0,0,0,.2.86.84.84,0,0,0,.68.26,1,1,0,0,0,.63-.2Z" fill="#1e1e1e"/>
      <path d="M142.25,67.12H138a2.26,2.26,0,0,0,.54,1.54,1.84,1.84,0,0,0,1.42.55,2.93,2.93,0,0,0,1.86-.67v.9a3.43,3.43,0,0,1-2.09.58,2.53,2.53,0,0,1-2-.82,3.36,3.36,0,0,1-.73-2.3,3.29,3.29,0,0,1,.8-2.28,2.53,2.53,0,0,1,2-.88,2.24,2.24,0,0,1,1.82.76,3.17,3.17,0,0,1,.65,2.11Zm-1-.82a2,2,0,0,0-.4-1.29,1.36,1.36,0,0,0-1.1-.46,1.55,1.55,0,0,0-1.15.48A2.25,2.25,0,0,0,138,66.3Z" fill="#1e1e1e"/>
      <path d="M146.83,64.85a1.18,1.18,0,0,0-.73-.19,1.23,1.23,0,0,0-1,.58,2.7,2.7,0,0,0-.41,1.58v3.06h-1v-6h1v1.23h0a2.09,2.09,0,0,1,.63-1,1.42,1.42,0,0,1,.94-.36,1.71,1.71,0,0,1,.58.08Z" fill="#1e1e1e"/>
      <path d="M152.85,69.88h-1V66.46c0-1.28-.46-1.91-1.39-1.91a1.54,1.54,0,0,0-1.2.54,2,2,0,0,0-.47,1.37v3.42h-1v-6h1v1h0a2.17,2.17,0,0,1,2-1.13,1.85,1.85,0,0,1,1.51.63,2.84,2.84,0,0,1,.52,1.84Z" fill="#1e1e1e"/>
      <path d="M159,69.88h-1v-.94h0A2,2,0,0,1,156.13,70a2,2,0,0,1-1.41-.48,1.65,1.65,0,0,1-.5-1.26q0-1.68,2-2l1.8-.26c0-1-.42-1.52-1.24-1.52a3,3,0,0,0-2,.73v-1a3.68,3.68,0,0,1,2-.56c1.41,0,2.12.74,2.12,2.24Zm-1-3-1.45.2a2.3,2.3,0,0,0-1,.33,1,1,0,0,0-.34.84.9.9,0,0,0,.32.72,1.16,1.16,0,0,0,.83.28,1.55,1.55,0,0,0,1.18-.5,1.81,1.81,0,0,0,.47-1.27Z" fill="#1e1e1e"/>
      <path d="M161.73,69.88h-1V61h1Z" fill="#1e1e1e"/>
      <path d="M128,75.57h-3.28v2.9h3v.89h-3v3.72h-1v-8.4H128Z" fill="#1e1e1e"/>
      <path d="M130,75.55a.63.63,0,0,1-.44-1.07.66.66,0,0,1,.44-.17.64.64,0,0,1,.45.17.58.58,0,0,1,.19.45.58.58,0,0,1-.19.44A.61.61,0,0,1,130,75.55Zm.47,7.53h-1v-6h1Z" fill="#1e1e1e"/>
      <path d="M135.52,78.05a1.18,1.18,0,0,0-.73-.19,1.23,1.23,0,0,0-1,.58,2.7,2.7,0,0,0-.41,1.58v3.06h-1v-6h1v1.23h0a2.09,2.09,0,0,1,.63-1,1.42,1.42,0,0,1,.94-.36,1.75,1.75,0,0,1,.58.08Z" fill="#1e1e1e"/>
      <path d="M141.38,80.32h-4.23a2.16,2.16,0,0,0,.54,1.54,1.82,1.82,0,0,0,1.41.55,2.94,2.94,0,0,0,1.87-.67v.9a3.46,3.46,0,0,1-2.1.58,2.51,2.51,0,0,1-2-.82,3.83,3.83,0,0,1,.06-4.58,2.55,2.55,0,0,1,2-.88,2.25,2.25,0,0,1,1.82.76,3.17,3.17,0,0,1,.64,2.11Zm-1-.82a2,2,0,0,0-.4-1.29,1.37,1.37,0,0,0-1.1-.46,1.59,1.59,0,0,0-1.16.48,2.24,2.24,0,0,0-.58,1.27Z" fill="#1e1e1e"/>
      <path d="M150.39,77.08l-1.79,6h-1l-1.24-4.3a2.87,2.87,0,0,1-.09-.55h0a3.4,3.4,0,0,1-.13.54l-1.34,4.31h-1l-1.82-6h1l1.24,4.51a3,3,0,0,1,.09.54h0a2.33,2.33,0,0,1,.11-.55l1.38-4.5h.88L148,81.6a3.36,3.36,0,0,1,.09.54h0a2.08,2.08,0,0,1,.1-.54l1.22-4.52Z" fill="#1e1e1e"/>
      <path d="M155.8,83.08h-1v-.94h0A2,2,0,0,1,153,83.22a2,2,0,0,1-1.4-.48,1.62,1.62,0,0,1-.51-1.26q0-1.68,2-2l1.8-.26c0-1-.41-1.52-1.23-1.52a3,3,0,0,0-2,.73v-1a3.68,3.68,0,0,1,2-.56c1.41,0,2.11.74,2.11,2.24Zm-1-3-1.45.2a2.25,2.25,0,0,0-1,.33,1,1,0,0,0-.34.84.9.9,0,0,0,.31.72,1.2,1.2,0,0,0,.84.28,1.56,1.56,0,0,0,1.18-.5,1.8,1.8,0,0,0,.46-1.27Z" fill="#1e1e1e"/>
      <path d="M158.57,83.08h-1V74.19h1Z" fill="#1e1e1e"/>
      <path d="M161.48,83.08h-1V74.19h1Z" fill="#1e1e1e"/>
    </g>
    <g>
      <path d="M191.07,69.88v-8.4h2.32q4.46,0,4.45,4.09a4.15,4.15,0,0,1-1.24,3.13,4.6,4.6,0,0,1-3.3,1.18Zm1-7.51V69h1.25a3.55,3.55,0,0,0,2.57-.89,3.29,3.29,0,0,0,.92-2.51q0-3.23-3.43-3.22Z" fill="#1e1e1e"/>
      <path d="M208.05,69.88h-1V64.24c0-.44,0-1,.08-1.63h0a4.44,4.44,0,0,1-.25.81L204,69.88h-.48l-2.86-6.41a4.79,4.79,0,0,1-.26-.86h0c0,.33.05.88.05,1.64v5.63h-.95v-8.4h1.3l2.58,5.85a6.32,6.32,0,0,1,.38,1h0c.17-.46.3-.8.4-1l2.63-5.83h1.23Z" fill="#1e1e1e"/>
      <path d="M215.75,61.71,210.83,69h4.8v.89h-6.27V69.6l4.88-7.23h-4.49v-.89h6Z" fill="#1e1e1e"/>
      <path d="M220.77,61.48l-4,9.79h-.9l4-9.79Z" fill="#1e1e1e"/>
      <path d="M226.75,62.37h-2.42v7.51h-1V62.37h-2.42v-.89h5.83Z" fill="#1e1e1e"/>
      <path d="M230,64.85a1.18,1.18,0,0,0-.73-.19,1.23,1.23,0,0,0-1,.58,2.7,2.7,0,0,0-.41,1.58v3.06h-1v-6h1v1.23h0a2.09,2.09,0,0,1,.63-1,1.42,1.42,0,0,1,.94-.36,1.75,1.75,0,0,1,.58.08Z" fill="#1e1e1e"/>
      <path d="M235.36,69.88h-1v-.94h0A2,2,0,0,1,232.53,70a2,2,0,0,1-1.4-.48,1.62,1.62,0,0,1-.51-1.26c0-1.12.66-1.77,2-2l1.79-.26c0-1-.41-1.52-1.23-1.52a3,3,0,0,0-2,.73v-1a3.68,3.68,0,0,1,2-.56c1.41,0,2.11.74,2.11,2.24Zm-1-3L233,67a2.3,2.3,0,0,0-1,.33,1,1,0,0,0-.34.84.9.9,0,0,0,.31.72,1.2,1.2,0,0,0,.84.28,1.56,1.56,0,0,0,1.18-.5,1.8,1.8,0,0,0,.46-1.27Z" fill="#1e1e1e"/>
      <path d="M242.16,69.88h-1V66.46c0-1.28-.47-1.91-1.4-1.91a1.5,1.5,0,0,0-1.19.54,2,2,0,0,0-.47,1.37v3.42h-1v-6h1v1h0a2.17,2.17,0,0,1,2-1.13,1.83,1.83,0,0,1,1.5.63,2.84,2.84,0,0,1,.53,1.84Z" fill="#1e1e1e"/>
      <path d="M243.6,69.66v-1a2.84,2.84,0,0,0,1.73.58c.85,0,1.27-.28,1.27-.84a.76.76,0,0,0-.11-.41,1.17,1.17,0,0,0-.29-.3,3,3,0,0,0-.44-.23l-.53-.21a6.76,6.76,0,0,1-.7-.32,2,2,0,0,1-.51-.37,1.31,1.31,0,0,1-.3-.46,1.57,1.57,0,0,1-.11-.6,1.45,1.45,0,0,1,.2-.75,1.87,1.87,0,0,1,.51-.54,2.26,2.26,0,0,1,.74-.33,3,3,0,0,1,.85-.11,3.46,3.46,0,0,1,1.4.27v1a2.74,2.74,0,0,0-1.53-.43,1.75,1.75,0,0,0-.48.06,1.33,1.33,0,0,0-.38.17.78.78,0,0,0-.24.27.74.74,0,0,0-.08.34.87.87,0,0,0,.08.39.83.83,0,0,0,.25.28,1.91,1.91,0,0,0,.4.23l.53.21a6.17,6.17,0,0,1,.72.32,2.12,2.12,0,0,1,.54.36,1.32,1.32,0,0,1,.34.47,1.46,1.46,0,0,1,.12.62,1.5,1.5,0,0,1-.19.78,1.82,1.82,0,0,1-.53.54,2.54,2.54,0,0,1-.75.32,3.82,3.82,0,0,1-.9.11A3.41,3.41,0,0,1,243.6,69.66Z" fill="#1e1e1e"/>
      <path d="M249.55,62.35a.6.6,0,0,1-.44-.17.65.65,0,0,1,0-.9.64.64,0,0,1,.44-.17.64.64,0,0,1,.45.17.61.61,0,0,1,.18.45.6.6,0,0,1-.18.44A.61.61,0,0,1,249.55,62.35Zm.47,7.53h-1v-6h1Z" fill="#1e1e1e"/>
      <path d="M254.75,69.82a1.94,1.94,0,0,1-.9.19c-1,0-1.57-.59-1.57-1.76V64.7h-1v-.82h1V62.41l1-.31v1.78h1.51v.82h-1.51v3.38a1.38,1.38,0,0,0,.2.86.83.83,0,0,0,.68.26,1.05,1.05,0,0,0,.63-.2Z" fill="#1e1e1e"/>
      <path d="M186.22,82.74V81.58a2.39,2.39,0,0,0,.47.31,3,3,0,0,0,.59.24,3.5,3.5,0,0,0,.62.15,3,3,0,0,0,.57,0,2.29,2.29,0,0,0,1.36-.33,1.15,1.15,0,0,0,.45-1,1.1,1.1,0,0,0-.15-.59,1.52,1.52,0,0,0-.42-.46,3.32,3.32,0,0,0-.62-.4l-.78-.4c-.29-.15-.56-.3-.82-.46a3.81,3.81,0,0,1-.66-.5,2.06,2.06,0,0,1-.44-.62,1.94,1.94,0,0,1-.16-.82,1.9,1.9,0,0,1,.25-1,2.21,2.21,0,0,1,.66-.7,3.19,3.19,0,0,1,.94-.41,4.24,4.24,0,0,1,1.07-.14,4.11,4.11,0,0,1,1.81.3v1.11a3.33,3.33,0,0,0-1.91-.51,3.57,3.57,0,0,0-.65.06,2,2,0,0,0-.57.22,1.18,1.18,0,0,0-.41.39,1,1,0,0,0-.16.59,1.22,1.22,0,0,0,.12.56,1.54,1.54,0,0,0,.35.43,4.18,4.18,0,0,0,.58.37l.77.4c.3.15.59.3.86.47a3.9,3.9,0,0,1,.71.54,2.53,2.53,0,0,1,.48.66,1.89,1.89,0,0,1,.18.84,2.14,2.14,0,0,1-.24,1.05,2.11,2.11,0,0,1-.66.7,2.88,2.88,0,0,1-.95.39,5.24,5.24,0,0,1-1.14.12l-.49,0-.6-.1a4.91,4.91,0,0,1-.58-.15A1.93,1.93,0,0,1,186.22,82.74Z" fill="#1e1e1e"/>
      <path d="M200.24,77.08l-1.8,6h-1l-1.23-4.3a2.84,2.84,0,0,1-.1-.55h0a2.44,2.44,0,0,1-.12.54l-1.35,4.31h-1l-1.81-6h1l1.24,4.51a3.12,3.12,0,0,1,.08.54h0a2.29,2.29,0,0,1,.1-.55l1.38-4.5h.88l1.25,4.52a5.29,5.29,0,0,1,.08.54H198a2.61,2.61,0,0,1,.1-.54l1.22-4.52Z" fill="#1e1e1e"/>
      <path d="M201.84,75.55a.63.63,0,0,1-.44-1.07.66.66,0,0,1,.44-.17.64.64,0,0,1,.45.17.62.62,0,0,1,0,.89A.61.61,0,0,1,201.84,75.55Zm.47,7.53h-1v-6h1Z" fill="#1e1e1e"/>
      <path d="M207,83a1.91,1.91,0,0,1-.9.19c-1,0-1.57-.59-1.57-1.76V77.9h-1v-.82h1V75.61l1-.31v1.78H207v.82h-1.51v3.38a1.45,1.45,0,0,0,.2.86.84.84,0,0,0,.68.26,1,1,0,0,0,.63-.2Z" fill="#1e1e1e"/>
      <path d="M212.41,82.8a3.08,3.08,0,0,1-1.64.42,2.72,2.72,0,0,1-2.07-.84,3,3,0,0,1-.79-2.16,3.35,3.35,0,0,1,.85-2.38,3,3,0,0,1,2.27-.9,3.13,3.13,0,0,1,1.4.29v1a2.48,2.48,0,0,0-1.43-.46,1.94,1.94,0,0,0-1.51.65,2.48,2.48,0,0,0-.59,1.74,2.38,2.38,0,0,0,.55,1.66,1.91,1.91,0,0,0,1.49.61,2.38,2.38,0,0,0,1.47-.52Z" fill="#1e1e1e"/>
      <path d="M218.85,83.08h-1V79.62c0-1.25-.47-1.87-1.4-1.87a1.51,1.51,0,0,0-1.18.54,2,2,0,0,0-.48,1.39v3.4h-1V74.19h1v3.88h0a2.19,2.19,0,0,1,2-1.13c1.35,0,2,.81,2,2.44Z" fill="#1e1e1e"/>
      <path d="M224.45,74.68l-4,9.79h-.9l4-9.79Z" fill="#1e1e1e"/>
      <path d="M231.49,83.08h-1.18l-1.4-2.36a6,6,0,0,0-.38-.56,2.23,2.23,0,0,0-.37-.38,1.59,1.59,0,0,0-.41-.21,1.87,1.87,0,0,0-.49-.07h-.81v3.58h-1v-8.4H228a3.65,3.65,0,0,1,1,.13,2.23,2.23,0,0,1,.81.42,2.06,2.06,0,0,1,.53.7,2.32,2.32,0,0,1,.2,1,2.29,2.29,0,0,1-.14.81,2,2,0,0,1-.37.65,2.17,2.17,0,0,1-.59.49,3,3,0,0,1-.77.32v0a1.88,1.88,0,0,1,.37.21,2,2,0,0,1,.29.29,2.75,2.75,0,0,1,.28.37l.31.48Zm-5-7.51v3h1.33a1.92,1.92,0,0,0,.69-.11,1.55,1.55,0,0,0,.54-.32,1.41,1.41,0,0,0,.35-.51,1.6,1.6,0,0,0,.13-.67,1.34,1.34,0,0,0-.43-1.06,1.89,1.89,0,0,0-1.27-.37Z" fill="#1e1e1e"/>
      <path d="M234.67,83.22a2.79,2.79,0,0,1-2.13-.84,3.12,3.12,0,0,1-.79-2.23,3.23,3.23,0,0,1,.83-2.36,3,3,0,0,1,2.23-.85,2.68,2.68,0,0,1,2.09.82,3.29,3.29,0,0,1,.76,2.29,3.18,3.18,0,0,1-.82,2.3A2.82,2.82,0,0,1,234.67,83.22Zm.07-5.47a1.84,1.84,0,0,0-1.47.63,2.56,2.56,0,0,0-.54,1.73,2.46,2.46,0,0,0,.55,1.68,1.85,1.85,0,0,0,1.46.62,1.75,1.75,0,0,0,1.43-.6,2.67,2.67,0,0,0,.5-1.72,2.71,2.71,0,0,0-.5-1.74A1.75,1.75,0,0,0,234.74,77.75Z" fill="#1e1e1e"/>
      <path d="M244,83.08h-1v-1h0a2,2,0,0,1-1.85,1.09c-1.43,0-2.15-.85-2.15-2.56V77.08h1v3.43c0,1.27.48,1.9,1.45,1.9a1.47,1.47,0,0,0,1.16-.52,2,2,0,0,0,.45-1.36V77.08h1Z" fill="#1e1e1e"/>
      <path d="M248.77,83a1.94,1.94,0,0,1-.9.19c-1.05,0-1.58-.59-1.58-1.76V77.9h-1v-.82h1V75.61l1-.31v1.78h1.52v.82h-1.52v3.38a1.37,1.37,0,0,0,.21.86.83.83,0,0,0,.68.26,1.05,1.05,0,0,0,.63-.2Z" fill="#1e1e1e"/>
      <path d="M254.87,80.32h-4.24a2.26,2.26,0,0,0,.54,1.54,1.85,1.85,0,0,0,1.42.55,2.89,2.89,0,0,0,1.86-.67v.9a3.41,3.41,0,0,1-2.09.58,2.54,2.54,0,0,1-2-.82,3.35,3.35,0,0,1-.72-2.3,3.28,3.28,0,0,1,.79-2.28,2.54,2.54,0,0,1,2-.88,2.26,2.26,0,0,1,1.83.76,3.17,3.17,0,0,1,.64,2.11Zm-1-.82a2,2,0,0,0-.4-1.29,1.37,1.37,0,0,0-1.1-.46,1.57,1.57,0,0,0-1.16.48,2.24,2.24,0,0,0-.58,1.27Z" fill="#1e1e1e"/>
      <path d="M259.45,78.05a1.16,1.16,0,0,0-.72-.19,1.21,1.21,0,0,0-1,.58,2.62,2.62,0,0,0-.42,1.58v3.06h-1v-6h1v1.23h0a2,2,0,0,1,.63-1,1.4,1.4,0,0,1,.94-.36,1.65,1.65,0,0,1,.57.08Z" fill="#1e1e1e"/>
    </g>
    <g>
      <path d="M51.11,69.88H49.94l-1.41-2.36a6.05,6.05,0,0,0-.37-.56,2.72,2.72,0,0,0-.38-.38,1.44,1.44,0,0,0-.41-.21,1.81,1.81,0,0,0-.49-.07h-.81v3.58h-1v-8.4h2.5a3.65,3.65,0,0,1,1,.13,2.23,2.23,0,0,1,.81.42,1.84,1.84,0,0,1,.53.7,2.32,2.32,0,0,1,.2,1,2.59,2.59,0,0,1-.13.81,2.22,2.22,0,0,1-.38.65,2.17,2.17,0,0,1-.59.49,2.83,2.83,0,0,1-.77.32v0a1.63,1.63,0,0,1,.37.21,2.69,2.69,0,0,1,.3.29,4,4,0,0,1,.27.37c.1.14.2.3.31.48Zm-5-7.51v3h1.34a1.9,1.9,0,0,0,.68-.11,1.46,1.46,0,0,0,.54-.32,1.57,1.57,0,0,0,.36-.51,1.78,1.78,0,0,0,.13-.67,1.35,1.35,0,0,0-.44-1.06,1.88,1.88,0,0,0-1.26-.37Z" fill="#1e1e1e"/>
      <path d="M54.29,70a2.77,2.77,0,0,1-2.12-.84,3.12,3.12,0,0,1-.8-2.23,3.23,3.23,0,0,1,.83-2.36,3,3,0,0,1,2.23-.85,2.71,2.71,0,0,1,2.1.82,3.29,3.29,0,0,1,.75,2.29,3.21,3.21,0,0,1-.81,2.3A2.84,2.84,0,0,1,54.29,70Zm.07-5.47a1.81,1.81,0,0,0-1.46.63,2.56,2.56,0,0,0-.54,1.73,2.46,2.46,0,0,0,.54,1.68,1.85,1.85,0,0,0,1.46.62,1.75,1.75,0,0,0,1.43-.6,2.61,2.61,0,0,0,.5-1.72,2.65,2.65,0,0,0-.5-1.74A1.75,1.75,0,0,0,54.36,64.55Z" fill="#1e1e1e"/>
      <path d="M63.67,69.88h-1v-.95h0A2,2,0,0,1,60.83,70c-1.43,0-2.14-.85-2.14-2.56V63.88h1v3.43c0,1.27.48,1.9,1.45,1.9a1.46,1.46,0,0,0,1.16-.52,2,2,0,0,0,.45-1.36V63.88h1Z" fill="#1e1e1e"/>
      <path d="M68.39,69.82a1.94,1.94,0,0,1-.9.19c-1,0-1.57-.59-1.57-1.76V64.7h-1v-.82h1V62.41l1-.31v1.78h1.51v.82H66.88v3.38a1.45,1.45,0,0,0,.2.86.84.84,0,0,0,.68.26,1.05,1.05,0,0,0,.63-.2Z" fill="#1e1e1e"/>
      <path d="M74.49,67.12H70.26a2.16,2.16,0,0,0,.54,1.54,1.82,1.82,0,0,0,1.41.55,2.94,2.94,0,0,0,1.87-.67v.9A3.45,3.45,0,0,1,72,70a2.52,2.52,0,0,1-2-.82,3.81,3.81,0,0,1,.07-4.58,2.51,2.51,0,0,1,2-.88,2.25,2.25,0,0,1,1.82.76,3.17,3.17,0,0,1,.64,2.11Zm-1-.82a2,2,0,0,0-.4-1.29,1.37,1.37,0,0,0-1.1-.46,1.55,1.55,0,0,0-1.15.48,2.19,2.19,0,0,0-.59,1.27Z" fill="#1e1e1e"/>
      <path d="M79.08,64.85a1.18,1.18,0,0,0-.73-.19,1.23,1.23,0,0,0-1,.58,2.7,2.7,0,0,0-.41,1.58v3.06H76v-6h1v1.23h0a2.09,2.09,0,0,1,.63-1,1.4,1.4,0,0,1,.94-.36,1.75,1.75,0,0,1,.58.08Z" fill="#1e1e1e"/>
      <path d="M83.91,61.48l-4,9.79H79l4-9.79Z" fill="#1e1e1e"/>
      <path d="M35.1,83.08H33.89l-4.32-6.7a2.65,2.65,0,0,1-.27-.53h0a7.27,7.27,0,0,1,0,1.16v6.07h-1v-8.4H29.6l4.21,6.59a5.88,5.88,0,0,1,.34.56h0a11.14,11.14,0,0,1-.05-1.24V74.68h1Z" fill="#1e1e1e"/>
      <path d="M42,80.32H37.76a2.26,2.26,0,0,0,.54,1.54,1.84,1.84,0,0,0,1.42.55,2.93,2.93,0,0,0,1.86-.67v.9a3.43,3.43,0,0,1-2.09.58,2.53,2.53,0,0,1-2-.82,3.36,3.36,0,0,1-.73-2.3,3.29,3.29,0,0,1,.8-2.28,2.54,2.54,0,0,1,2-.88,2.24,2.24,0,0,1,1.82.76A3.17,3.17,0,0,1,42,79.81Zm-1-.82a1.9,1.9,0,0,0-.4-1.29,1.36,1.36,0,0,0-1.1-.46,1.55,1.55,0,0,0-1.15.48,2.25,2.25,0,0,0-.59,1.27Z" fill="#1e1e1e"/>
      <path d="M46.23,83a1.87,1.87,0,0,1-.89.19c-1.05,0-1.58-.59-1.58-1.76V77.9h-1v-.82h1V75.61l1-.31v1.78h1.51v.82H44.72v3.38a1.37,1.37,0,0,0,.21.86.81.81,0,0,0,.68.26,1,1,0,0,0,.62-.2Z" fill="#1e1e1e"/>
      <path d="M55.08,77.08l-1.8,6h-1L51,78.78a4,4,0,0,1-.09-.55h0a2.56,2.56,0,0,1-.13.54l-1.34,4.31h-1l-1.82-6h1l1.24,4.51a3,3,0,0,1,.09.54h0a3,3,0,0,1,.11-.55l1.38-4.5h.88l1.24,4.52a3.36,3.36,0,0,1,.09.54h.05a2.61,2.61,0,0,1,.1-.54l1.22-4.52Z" fill="#1e1e1e"/>
      <path d="M58.7,83.22a2.79,2.79,0,0,1-2.13-.84,3.12,3.12,0,0,1-.79-2.23,3.23,3.23,0,0,1,.82-2.36,3,3,0,0,1,2.24-.85,2.68,2.68,0,0,1,2.09.82,3.29,3.29,0,0,1,.76,2.29,3.22,3.22,0,0,1-.82,2.3A2.82,2.82,0,0,1,58.7,83.22Zm.07-5.47a1.84,1.84,0,0,0-1.47.63,2.56,2.56,0,0,0-.54,1.73,2.46,2.46,0,0,0,.55,1.68,1.85,1.85,0,0,0,1.46.62,1.75,1.75,0,0,0,1.43-.6,2.67,2.67,0,0,0,.5-1.72,2.71,2.71,0,0,0-.5-1.74A1.75,1.75,0,0,0,58.77,77.75Z" fill="#1e1e1e"/>
      <path d="M66.35,78.05a1.18,1.18,0,0,0-.73-.19,1.23,1.23,0,0,0-1,.58A2.7,2.7,0,0,0,64.18,80v3.06h-1v-6h1v1.23h0a2.09,2.09,0,0,1,.63-1,1.43,1.43,0,0,1,1-.36,1.65,1.65,0,0,1,.57.08Z" fill="#1e1e1e"/>
      <path d="M72.37,83.08H71l-2.65-2.89h0v2.89h-1V74.19h1v5.64h0l2.52-2.75h1.26L69.37,80Z" fill="#1e1e1e"/>
      <path d="M82.49,82.73a5,5,0,0,1-2.32.49,3.75,3.75,0,0,1-2.87-1.16,4.26,4.26,0,0,1-1.08-3,4.44,4.44,0,0,1,1.22-3.25,4.09,4.09,0,0,1,3.07-1.25,4.91,4.91,0,0,1,2,.35v1.05a4,4,0,0,0-2-.5,3.07,3.07,0,0,0-2.35,1,3.66,3.66,0,0,0-.9,2.59,3.46,3.46,0,0,0,.84,2.44,2.86,2.86,0,0,0,2.21.91,4.1,4.1,0,0,0,2.19-.56Z" fill="#1e1e1e"/>
      <path d="M86.58,83.22a2.79,2.79,0,0,1-2.12-.84,3.12,3.12,0,0,1-.8-2.23,3.23,3.23,0,0,1,.83-2.36,3,3,0,0,1,2.23-.85,2.69,2.69,0,0,1,2.1.82,3.29,3.29,0,0,1,.75,2.29,3.21,3.21,0,0,1-.81,2.3A2.84,2.84,0,0,1,86.58,83.22Zm.07-5.47a1.81,1.81,0,0,0-1.46.63,2.56,2.56,0,0,0-.54,1.73,2.46,2.46,0,0,0,.54,1.68,1.87,1.87,0,0,0,1.46.62,1.75,1.75,0,0,0,1.43-.6,2.61,2.61,0,0,0,.51-1.72,2.65,2.65,0,0,0-.51-1.74A1.75,1.75,0,0,0,86.65,77.75Z" fill="#1e1e1e"/>
      <path d="M94.23,78.05a1.14,1.14,0,0,0-.72-.19,1.21,1.21,0,0,0-1,.58A2.62,2.62,0,0,0,92.07,80v3.06h-1v-6h1v1.23h0a2.09,2.09,0,0,1,.63-1,1.4,1.4,0,0,1,.94-.36,1.65,1.65,0,0,1,.57.08Z" fill="#1e1e1e"/>
      <path d="M100.1,80.32H95.86a2.26,2.26,0,0,0,.54,1.54,1.85,1.85,0,0,0,1.42.55,2.89,2.89,0,0,0,1.86-.67v.9a3.41,3.41,0,0,1-2.09.58,2.53,2.53,0,0,1-2-.82,3.35,3.35,0,0,1-.72-2.3,3.28,3.28,0,0,1,.79-2.28,2.54,2.54,0,0,1,2-.88,2.22,2.22,0,0,1,1.82.76,3.17,3.17,0,0,1,.65,2.11Zm-1-.82a1.9,1.9,0,0,0-.4-1.29,1.36,1.36,0,0,0-1.1-.46,1.56,1.56,0,0,0-1.15.48,2.25,2.25,0,0,0-.59,1.27Z" fill="#1e1e1e"/>
    </g>
    <g>
      <path d="M54.61,275.27H52.19v7.52h-1v-7.52H48.78v-.89h5.83Z" fill="#1e1e1e"/>
      <path d="M58.76,282.93a3.69,3.69,0,0,1-2.86-1.18,4.38,4.38,0,0,1-1.08-3.07,4.62,4.62,0,0,1,1.1-3.23,3.8,3.8,0,0,1,3-1.21,3.59,3.59,0,0,1,2.8,1.17,4.42,4.42,0,0,1,1.07,3.07,4.68,4.68,0,0,1-1.09,3.25A3.76,3.76,0,0,1,58.76,282.93Zm.07-7.8a2.7,2.7,0,0,0-2.15,1,4.22,4.22,0,0,0,0,5,2.61,2.61,0,0,0,2.1,1,2.76,2.76,0,0,0,2.18-.9,3.69,3.69,0,0,0,.8-2.53A3.83,3.83,0,0,0,61,276,2.65,2.65,0,0,0,58.83,275.13Z" fill="#1e1e1e"/>
      <path d="M70.44,282.79H69.27l-1.4-2.36a4.9,4.9,0,0,0-.38-.56,2.23,2.23,0,0,0-.37-.38,1.14,1.14,0,0,0-.41-.21,1.55,1.55,0,0,0-.5-.07H65.4v3.58h-1v-8.41h2.51a3.7,3.7,0,0,1,1,.14,2.11,2.11,0,0,1,.8.42,2,2,0,0,1,.54.7,2.32,2.32,0,0,1,.19,1,2.37,2.37,0,0,1-.13.81,2.2,2.2,0,0,1-.37.65,2.57,2.57,0,0,1-.59.49,3.1,3.1,0,0,1-.77.31v0a1.88,1.88,0,0,1,.37.21,1.9,1.9,0,0,1,.29.28,2.88,2.88,0,0,1,.28.38l.31.48Zm-5-7.52v3.05h1.34a2.11,2.11,0,0,0,.68-.11,1.77,1.77,0,0,0,.55-.32,1.41,1.41,0,0,0,.35-.51,1.65,1.65,0,0,0,.13-.68,1.31,1.31,0,0,0-.43-1.05,1.92,1.92,0,0,0-1.27-.38Z" fill="#1e1e1e"/>
      <path d="M77.14,282.79h-1v-7.26l-.33.25a3.57,3.57,0,0,1-.48.28,4.83,4.83,0,0,1-.56.27,4.89,4.89,0,0,1-.58.19v-1a5.46,5.46,0,0,0,.67-.24c.24-.1.47-.21.7-.33s.44-.25.65-.39.38-.27.53-.39h.36Z" fill="#1e1e1e"/>
    </g>
    <g>
      <path d="M213.17,275.27h-2.42v7.52h-1v-7.52h-2.42v-.89h5.83Z" fill="#1e1e1e"/>
      <path d="M217.32,282.93a3.71,3.71,0,0,1-2.86-1.18,4.38,4.38,0,0,1-1.08-3.07,4.62,4.62,0,0,1,1.1-3.23,3.8,3.8,0,0,1,3-1.21,3.62,3.62,0,0,1,2.81,1.17,4.41,4.41,0,0,1,1.06,3.07,4.63,4.63,0,0,1-1.09,3.25A3.76,3.76,0,0,1,217.32,282.93Zm.07-7.8a2.7,2.7,0,0,0-2.15,1,4.26,4.26,0,0,0,0,5,2.61,2.61,0,0,0,2.1,1,2.76,2.76,0,0,0,2.18-.9,3.69,3.69,0,0,0,.8-2.53,3.88,3.88,0,0,0-.77-2.57A2.69,2.69,0,0,0,217.39,275.13Z" fill="#1e1e1e"/>
      <path d="M229,282.79h-1.18l-1.4-2.36a4.9,4.9,0,0,0-.38-.56,2.23,2.23,0,0,0-.37-.38,1.14,1.14,0,0,0-.41-.21,1.53,1.53,0,0,0-.49-.07H224v3.58h-1v-8.41h2.51a3.64,3.64,0,0,1,1,.14,2.23,2.23,0,0,1,.81.42,2.06,2.06,0,0,1,.53.7,2.32,2.32,0,0,1,.19,1,2.37,2.37,0,0,1-.13.81,2.2,2.2,0,0,1-.37.65,2.37,2.37,0,0,1-.59.49,3,3,0,0,1-.77.31v0a1.88,1.88,0,0,1,.37.21,1.9,1.9,0,0,1,.29.28,2.88,2.88,0,0,1,.28.38l.31.48Zm-5-7.52v3.05h1.33a2.17,2.17,0,0,0,.69-.11,1.84,1.84,0,0,0,.54-.32,1.41,1.41,0,0,0,.35-.51,1.65,1.65,0,0,0,.13-.68,1.31,1.31,0,0,0-.43-1.05,1.91,1.91,0,0,0-1.27-.38Z" fill="#1e1e1e"/>
      <path d="M236,276.59a1.76,1.76,0,0,0-.12-.68,1.37,1.37,0,0,0-.33-.48,1.31,1.31,0,0,0-.49-.28,1.93,1.93,0,0,0-.6-.09,2.1,2.1,0,0,0-.56.07,2.57,2.57,0,0,0-.52.21,3,3,0,0,0-.49.33,2.85,2.85,0,0,0-.44.41v-1a3,3,0,0,1,.9-.6,3.14,3.14,0,0,1,1.22-.21,3,3,0,0,1,1,.15,2.3,2.3,0,0,1,.76.44,2.19,2.19,0,0,1,.51.71,2.42,2.42,0,0,1,.18,1,3.6,3.6,0,0,1-.11.91,3.08,3.08,0,0,1-.35.76,3.62,3.62,0,0,1-.58.68,8.92,8.92,0,0,1-.83.67c-.39.28-.72.52-1,.72a4.34,4.34,0,0,0-.61.56,1.75,1.75,0,0,0-.32.52,1.89,1.89,0,0,0-.09.6h4.18v.87H232.1v-.42a3.82,3.82,0,0,1,.11-.95,2.59,2.59,0,0,1,.39-.78,4.42,4.42,0,0,1,.71-.74c.29-.24.64-.52,1.07-.83a6.69,6.69,0,0,0,.76-.63,3.65,3.65,0,0,0,.5-.59,2.29,2.29,0,0,0,.26-.61A2.32,2.32,0,0,0,236,276.59Z" fill="#1e1e1e"/>
    </g>
    <g>
      <path d="M132.16,343.43V335h2.39a2.6,2.6,0,0,1,1.73.54,1.71,1.71,0,0,1,.64,1.39,2,2,0,0,1-.39,1.24,2.11,2.11,0,0,1-1.06.75v0a2.13,2.13,0,0,1,1.35.64,2,2,0,0,1,.51,1.41,2.19,2.19,0,0,1-.77,1.75,2.88,2.88,0,0,1-1.95.67Zm1-7.51v2.71h1a1.89,1.89,0,0,0,1.27-.39,1.36,1.36,0,0,0,.47-1.1c0-.82-.54-1.22-1.61-1.22Zm0,3.59v3h1.33a2,2,0,0,0,1.35-.41,1.44,1.44,0,0,0,.47-1.13c0-1-.67-1.49-2-1.49Z" fill="#1e1e1e"/>
      <path d="M147.61,343.43h-1v-5.64c0-.45,0-1,.08-1.63h0a5.18,5.18,0,0,1-.26.81l-2.87,6.46h-.48L140.22,337a4.93,4.93,0,0,1-.25-.86h0c0,.33.05.88.05,1.64v5.63h-1V335h1.3l2.58,5.86a7.92,7.92,0,0,1,.39,1h0c.17-.46.3-.8.4-1l2.64-5.84h1.23Z" fill="#1e1e1e"/>
      <path d="M155.53,343.08a5,5,0,0,1-2.32.49,3.75,3.75,0,0,1-2.87-1.16,4.26,4.26,0,0,1-1.08-3,4.44,4.44,0,0,1,1.22-3.25,4.11,4.11,0,0,1,3.07-1.25,4.91,4.91,0,0,1,2,.35v1a4,4,0,0,0-2-.51,3.05,3.05,0,0,0-2.34,1,3.66,3.66,0,0,0-.9,2.59,3.46,3.46,0,0,0,.84,2.44,2.84,2.84,0,0,0,2.2.91,4.06,4.06,0,0,0,2.19-.56Z" fill="#1e1e1e"/>
    </g>
    <g>
      <path d="M111.59,240.79h-1v-5.64c0-.45,0-1,.08-1.64h0a4.6,4.6,0,0,1-.25.82l-2.87,6.46h-.48l-2.86-6.41a4.69,4.69,0,0,1-.26-.87h0c0,.34,0,.89,0,1.65v5.63h-1v-8.41h1.3l2.58,5.86a6.32,6.32,0,0,1,.38,1h0c.17-.46.3-.8.4-1l2.63-5.84h1.23Z" fill="#1e1e1e"/>
      <path d="M118.16,240.79H113.8v-8.41h1v7.52h3.37Z" fill="#1e1e1e"/>
      <path d="M126.31,240.79h-1.09l-.89-2.36h-3.57l-.83,2.36h-1.1l3.22-8.41h1ZM124,237.55,122.69,234a2.71,2.71,0,0,1-.13-.57h0a3.51,3.51,0,0,1-.13.57l-1.31,3.58Z" fill="#1e1e1e"/>
      <path d="M133.59,240.21a5.57,5.57,0,0,1-2.81.72,3.86,3.86,0,0,1-2.91-1.16,4.27,4.27,0,0,1-1.11-3.07,4.41,4.41,0,0,1,1.23-3.21,4.23,4.23,0,0,1,3.13-1.25,5.27,5.27,0,0,1,2.3.45v1.09a4.41,4.41,0,0,0-2.41-.65,3,3,0,0,0-2.32,1,4.06,4.06,0,0,0-.06,5,2.92,2.92,0,0,0,2.27.91,3.54,3.54,0,0,0,1.71-.39v-2.36h-1.84v-.89h2.82Z" fill="#1e1e1e"/>
      <path d="M139.81,237.61v3.18h-1v-8.41h2.31a3,3,0,0,1,2.09.66,2.35,2.35,0,0,1,.74,1.85,2.55,2.55,0,0,1-.83,2,3.12,3.12,0,0,1-2.22.76Zm0-4.34v3.45h1a2.33,2.33,0,0,0,1.56-.47,1.64,1.64,0,0,0,.54-1.31c0-1.11-.66-1.67-2-1.67Z" fill="#1e1e1e"/>
      <path d="M149.8,238h-4.24a2.27,2.27,0,0,0,.54,1.54,1.84,1.84,0,0,0,1.42.55,2.91,2.91,0,0,0,1.86-.67v.9a3.5,3.5,0,0,1-2.09.58,2.56,2.56,0,0,1-2-.82,3.37,3.37,0,0,1-.72-2.3,3.26,3.26,0,0,1,.79-2.28,2.54,2.54,0,0,1,2-.88,2.24,2.24,0,0,1,1.82.76,3.15,3.15,0,0,1,.65,2.11Zm-1-.82a1.9,1.9,0,0,0-.4-1.29,1.36,1.36,0,0,0-1.1-.47,1.57,1.57,0,0,0-1.15.49,2.22,2.22,0,0,0-.59,1.27Z" fill="#1e1e1e"/>
      <path d="M156.07,238h-4.23a2.18,2.18,0,0,0,.54,1.54,1.82,1.82,0,0,0,1.41.55,2.94,2.94,0,0,0,1.87-.67v.9a3.52,3.52,0,0,1-2.09.58,2.55,2.55,0,0,1-2-.82,3.83,3.83,0,0,1,.06-4.58,2.55,2.55,0,0,1,2-.88,2.25,2.25,0,0,1,1.82.76,3.15,3.15,0,0,1,.64,2.11Zm-1-.82a2,2,0,0,0-.4-1.29,1.38,1.38,0,0,0-1.1-.47,1.6,1.6,0,0,0-1.16.49,2.21,2.21,0,0,0-.58,1.27Z" fill="#1e1e1e"/>
      <path d="M160.65,235.76a1.14,1.14,0,0,0-.72-.2,1.24,1.24,0,0,0-1,.59,2.62,2.62,0,0,0-.41,1.58v3.06h-1v-6h1V236h0a2.17,2.17,0,0,1,.63-1,1.44,1.44,0,0,1,.94-.35,1.65,1.65,0,0,1,.57.08Z" fill="#1e1e1e"/>
      <path d="M169.47,240.79h-4.36v-8.41h1v7.52h3.37Z" fill="#1e1e1e"/>
      <path d="M171.13,233.26a.62.62,0,0,1-.44-1.07.59.59,0,0,1,.44-.18.6.6,0,0,1,.44.18.58.58,0,0,1,.19.45.58.58,0,0,1-.19.44A.6.6,0,0,1,171.13,233.26Zm.46,7.53h-1v-6h1Z" fill="#1e1e1e"/>
      <path d="M178.52,240.79h-1v-3.43c0-1.27-.47-1.91-1.4-1.91A1.5,1.5,0,0,0,175,236a2,2,0,0,0-.47,1.36v3.43h-1v-6h1v1h0a2.16,2.16,0,0,1,2-1.13,1.85,1.85,0,0,1,1.51.63,2.82,2.82,0,0,1,.52,1.84Z" fill="#1e1e1e"/>
      <path d="M185.31,240.79H184l-2.64-2.89h0v2.89h-1V231.9h1v5.63h0l2.51-2.74h1.26l-2.78,2.89Z" fill="#1e1e1e"/>
    </g>
    <g>
      <path d="M99.56,277.79h-1v-8.41h1Z" fill="#1e1e1e"/>
      <path d="M101.77,277.79v-8.41h2.39a2.58,2.58,0,0,1,1.73.54,1.69,1.69,0,0,1,.64,1.39,2,2,0,0,1-.39,1.24,2.07,2.07,0,0,1-1.06.75v0a2.18,2.18,0,0,1,1.36.64,2,2,0,0,1,.51,1.41,2.2,2.2,0,0,1-.78,1.75,2.88,2.88,0,0,1-2,.67Zm1-7.52V273h1a1.94,1.94,0,0,0,1.28-.39,1.39,1.39,0,0,0,.46-1.1c0-.82-.54-1.23-1.61-1.23Zm0,3.6v3h1.33a2,2,0,0,0,1.35-.42,1.38,1.38,0,0,0,.47-1.12c0-1-.67-1.49-2-1.49Z" fill="#1e1e1e"/>
      <path d="M114.93,277.21a5.57,5.57,0,0,1-2.81.72,3.86,3.86,0,0,1-2.91-1.16,4.27,4.27,0,0,1-1.11-3.07,4.41,4.41,0,0,1,1.23-3.21,4.24,4.24,0,0,1,3.13-1.25,5.27,5.27,0,0,1,2.3.45v1.09a4.41,4.41,0,0,0-2.41-.65,3,3,0,0,0-2.32,1,4.06,4.06,0,0,0-.06,5,2.93,2.93,0,0,0,2.27.91,3.54,3.54,0,0,0,1.71-.39v-2.36h-1.84v-.89h2.82Z" fill="#1e1e1e"/>
      <path d="M117.87,274.61v3.18h-1v-8.41h2.31a3,3,0,0,1,2.09.66,2.32,2.32,0,0,1,.74,1.85,2.54,2.54,0,0,1-.82,2,3.13,3.13,0,0,1-2.22.76Zm0-4.34v3.45h1a2.28,2.28,0,0,0,1.55-.47,1.64,1.64,0,0,0,.54-1.31c0-1.11-.66-1.67-2-1.67Z" fill="#1e1e1e"/>
      <path d="M126.89,277.79v-8.41h2.39a2.6,2.6,0,0,1,1.73.54,1.69,1.69,0,0,1,.64,1.39,2,2,0,0,1-.39,1.24,2.11,2.11,0,0,1-1.06.75v0a2.18,2.18,0,0,1,1.36.64,2,2,0,0,1,.51,1.41,2.2,2.2,0,0,1-.78,1.75,2.88,2.88,0,0,1-1.95.67Zm1-7.52V273h1a1.89,1.89,0,0,0,1.27-.39,1.36,1.36,0,0,0,.47-1.1c0-.82-.54-1.23-1.61-1.23Zm0,3.6v3h1.33a2,2,0,0,0,1.35-.42,1.41,1.41,0,0,0,.47-1.12c0-1-.67-1.49-2-1.49Z" fill="#1e1e1e"/>
      <path d="M137.94,277.79h-1v-.94h0a2,2,0,0,1-1.84,1.08,2,2,0,0,1-1.41-.48,1.61,1.61,0,0,1-.5-1.26c0-1.12.66-1.77,2-2L137,274c0-1-.42-1.53-1.24-1.53a3,3,0,0,0-2,.74v-1a3.68,3.68,0,0,1,2-.56c1.41,0,2.12.74,2.12,2.23Zm-1-3-1.45.2a2.3,2.3,0,0,0-1,.33,1,1,0,0,0-.34.84.92.92,0,0,0,.31.72,1.25,1.25,0,0,0,.84.28,1.55,1.55,0,0,0,1.18-.5,1.81,1.81,0,0,0,.47-1.27Z" fill="#1e1e1e"/>
      <path d="M143.84,277.51a3.1,3.1,0,0,1-1.64.42,2.73,2.73,0,0,1-2.08-.84,3,3,0,0,1-.78-2.16,3.33,3.33,0,0,1,.85-2.39,3,3,0,0,1,2.26-.89,3.1,3.1,0,0,1,1.4.29v1a2.47,2.47,0,0,0-1.43-.47,1.93,1.93,0,0,0-1.51.66,2.52,2.52,0,0,0-.59,1.73,2.43,2.43,0,0,0,.55,1.67,1.94,1.94,0,0,0,1.49.61,2.47,2.47,0,0,0,1.48-.52Z" fill="#1e1e1e"/>
      <path d="M150.27,277.79h-1.35l-2.65-2.89h0v2.89h-1V268.9h1v5.63h0l2.52-2.74h1.26l-2.78,2.89Z" fill="#1e1e1e"/>
      <path d="M156.11,277.79h-1v-1h0a2,2,0,0,1-1.85,1.09c-1.43,0-2.14-.86-2.14-2.56v-3.58h1v3.43c0,1.26.49,1.9,1.45,1.9a1.49,1.49,0,0,0,1.16-.52,2,2,0,0,0,.46-1.36v-3.45h1Z" fill="#1e1e1e"/>
      <path d="M159,276.92h0v3.63h-1v-8.76h1v1h0a2.25,2.25,0,0,1,2.07-1.19,2.17,2.17,0,0,1,1.81.8,3.32,3.32,0,0,1,.66,2.16,3.71,3.71,0,0,1-.74,2.41,2.44,2.44,0,0,1-2,.91A2,2,0,0,1,159,276.92Zm0-2.42v.84a1.8,1.8,0,0,0,.48,1.26,1.62,1.62,0,0,0,1.23.52,1.6,1.6,0,0,0,1.37-.67,3.07,3.07,0,0,0,.49-1.86,2.41,2.41,0,0,0-.46-1.57,1.54,1.54,0,0,0-1.26-.57,1.7,1.7,0,0,0-1.34.59A2.13,2.13,0,0,0,159,274.5Z" fill="#1e1e1e"/>
      <path d="M172.88,277.79h-4.36v-8.41h1v7.52h3.38Z" fill="#1e1e1e"/>
      <path d="M174.53,270.26a.64.64,0,0,1-.44-.17.65.65,0,0,1,0-.9.6.6,0,0,1,.44-.18.64.64,0,0,1,.45.18.61.61,0,0,1,.18.45.6.6,0,0,1-.18.44A.64.64,0,0,1,174.53,270.26Zm.47,7.53h-1v-6h1Z" fill="#1e1e1e"/>
      <path d="M181.92,277.79h-1v-3.43c0-1.27-.46-1.91-1.39-1.91a1.52,1.52,0,0,0-1.2.55,2,2,0,0,0-.47,1.36v3.43h-1v-6h1v1h0a2.15,2.15,0,0,1,2-1.13,1.84,1.84,0,0,1,1.5.63,2.82,2.82,0,0,1,.52,1.84Z" fill="#1e1e1e"/>
      <path d="M188.71,277.79h-1.34l-2.65-2.89h0v2.89h-1V268.9h1v5.63h0l2.52-2.74h1.26l-2.79,2.89Z" fill="#1e1e1e"/>
    </g>
  </g>
</svg>
