<svg xmlns="http://www.w3.org/2000/svg" xmlns:xlink="http://www.w3.org/1999/xlink" viewBox="0 0 343.71 202.94">
  <defs>
    <linearGradient id="linear-gradient" x1="95" y1="56.43" x2="95" y2="86.43" gradientUnits="userSpaceOnUse">
      <stop offset="0" stop-color="#5ea0ef"/>
      <stop offset="0.18" stop-color="#559cec"/>
      <stop offset="0.47" stop-color="#3c91e5"/>
      <stop offset="0.84" stop-color="#1380da"/>
      <stop offset="1" stop-color="#0078d4"/>
    </linearGradient>
    <linearGradient id="linear-gradient-2" x1="45" y1="6.43" x2="45" y2="36.43" xlink:href="#linear-gradient"/>
    <linearGradient id="linear-gradient-3" x1="145" y1="6.43" x2="145" y2="36.43" xlink:href="#linear-gradient"/>
    <linearGradient id="linear-gradient-4" x1="95" y1="106.43" x2="95" y2="136.43" xlink:href="#linear-gradient"/>
    <linearGradient id="linear-gradient-5" x1="95" y1="156.43" x2="95" y2="196.43" gradientUnits="userSpaceOnUse">
      <stop offset="0" stop-color="#e6e6e6"/>
      <stop offset="0.18" stop-color="#e6e6e6"/>
      <stop offset="0.47" stop-color="#b3b3b3"/>
      <stop offset="0.84" stop-color="#b3b3b3"/>
      <stop offset="1" stop-color="#a3a3a3"/>
    </linearGradient>
  </defs>
  <g id="Shapes">
    <rect width="343.71" height="202.94" fill="#fff"/>
    <g>
      <rect y="56.43" width="190" height="30" fill="#fff"/>
      <rect y="56.43" width="190" height="30" opacity="0.5" fill="url(#linear-gradient)"/>
    </g>
    <g>
      <rect y="6.43" width="90" height="30" fill="#fff"/>
      <rect y="6.43" width="90" height="30" opacity="0.5" fill="url(#linear-gradient-2)"/>
    </g>
    <g>
      <rect x="100" y="6.43" width="90" height="30" fill="#fff"/>
      <rect x="100" y="6.43" width="90" height="30" opacity="0.5" fill="url(#linear-gradient-3)"/>
    </g>
    <g>
      <line x1="44.58" y1="36.43" x2="44.58" y2="51.05" fill="none" stroke="#3c3c41" stroke-miterlimit="10"/>
      <polygon points="40.84 49.95 44.58 56.43 48.32 49.95 40.84 49.95" fill="#3c3c41"/>
    </g>
    <g>
      <rect y="106.43" width="190" height="30" fill="#fff"/>
      <rect y="106.43" width="190" height="30" opacity="0.5" fill="url(#linear-gradient-4)"/>
    </g>
    <g>
      <line x1="95" y1="86.43" x2="95" y2="101.05" fill="none" stroke="#3c3c41" stroke-miterlimit="10"/>
      <polygon points="91.26 99.95 95 106.43 98.74 99.95 91.26 99.95" fill="#3c3c41"/>
    </g>
    <g>
      <rect y="156.43" width="190" height="40" fill="#fff"/>
      <rect y="156.43" width="190" height="40" opacity="0.5" fill="url(#linear-gradient-5)"/>
    </g>
    <g>
      <line x1="95" y1="136.43" x2="95" y2="151.05" fill="none" stroke="#3c3c41" stroke-miterlimit="10"/>
      <polygon points="91.26 149.95 95 156.43 98.74 149.95 91.26 149.95" fill="#3c3c41"/>
    </g>
    <g>
      <line x1="145.83" y1="36.43" x2="145.83" y2="51.05" fill="none" stroke="#3c3c41" stroke-miterlimit="10"/>
      <polygon points="142.09 49.95 145.83 56.43 149.57 49.95 142.09 49.95" fill="#3c3c41"/>
    </g>
    <polyline points="195 1.43 205 1.43 205 69.43 195 69.43" fill="none" stroke="#999" stroke-miterlimit="10"/>
    <polyline points="195 124.43 205 124.43 205 201.43 195 201.43" fill="none" stroke="#999" stroke-miterlimit="10"/>
    <polyline points="195 74.43 205 74.43 205 119.43 195 119.43" fill="none" stroke="#999" stroke-miterlimit="10"/>
  </g>
  <g id="Text">
    <g>
      <path d="M30.31,23.36v2.9H28.42v-8.4h3q3.18,0,3.18,2.67a2.58,2.58,0,0,1-.91,2,3.63,3.63,0,0,1-2.44.78Zm0-4.05v2.62h.74c1,0,1.52-.44,1.52-1.32s-.51-1.3-1.52-1.3Z" fill="#1e1e1e"/>
      <path d="M38.32,26.41A3.23,3.23,0,0,1,36,25.57a3.09,3.09,0,0,1-.86-2.29A3.07,3.07,0,0,1,36,21a3.38,3.38,0,0,1,2.41-.84,3.16,3.16,0,0,1,2.34.84,3,3,0,0,1,.85,2.23,3.19,3.19,0,0,1-.87,2.36A3.27,3.27,0,0,1,38.32,26.41Zm0-4.88a1.22,1.22,0,0,0-1,.45A2,2,0,0,0,37,23.26c0,1.15.47,1.73,1.4,1.73s1.33-.59,1.33-1.78S39.26,21.53,38.36,21.53Z" fill="#1e1e1e"/>
      <path d="M46.7,21.93a1.61,1.61,0,0,0-.78-.18,1.12,1.12,0,0,0-.94.44,1.92,1.92,0,0,0-.34,1.2v2.87H42.79v-6h1.85v1.11h0a1.6,1.6,0,0,1,1.58-1.22,1.35,1.35,0,0,1,.46.07Z" fill="#1e1e1e"/>
      <path d="M51.45,26.19a2.8,2.8,0,0,1-1.24.22q-2,0-2-2V21.62h-1V20.26h1V19l1.84-.52v1.82h1.35v1.36H50.1v2.43c0,.63.25.94.75.94a1.31,1.31,0,0,0,.6-.17Z" fill="#1e1e1e"/>
      <path d="M57.61,26.26H55.86V25.4h0a2,2,0,0,1-1.79,1,1.86,1.86,0,0,1-1.37-.5,1.75,1.75,0,0,1-.5-1.32c0-1.16.69-1.84,2.06-2l1.63-.21c0-.66-.35-1-1.06-1a3.67,3.67,0,0,0-2,.64V20.62a4.22,4.22,0,0,1,1.06-.35,5.05,5.05,0,0,1,1.22-.16,2.26,2.26,0,0,1,2.56,2.56Zm-1.74-2.44v-.4l-1.09.14q-.9.12-.9.81a.66.66,0,0,0,.22.52.84.84,0,0,0,.6.2,1.11,1.11,0,0,0,.85-.36A1.33,1.33,0,0,0,55.87,23.82Z" fill="#1e1e1e"/>
      <path d="M60.93,26.26H59.08V17.38h1.85Z" fill="#1e1e1e"/>
    </g>
    <g>
      <path d="M137.88,19.4h-2.4v6.86h-1.9V19.4H131.2V17.86h6.68Z" fill="#1e1e1e"/>
      <path d="M140.81,26.41a3.24,3.24,0,0,1-2.36-.84,3.09,3.09,0,0,1-.86-2.29,3,3,0,0,1,.9-2.33,3.34,3.34,0,0,1,2.4-.84,3.2,3.2,0,0,1,2.35.84,3,3,0,0,1,.85,2.23,3.2,3.2,0,0,1-.88,2.36A3.24,3.24,0,0,1,140.81,26.41Zm.05-4.88a1.23,1.23,0,0,0-1,.45,2,2,0,0,0-.36,1.28c0,1.15.46,1.73,1.39,1.73s1.33-.59,1.33-1.78S141.75,21.53,140.86,21.53Z" fill="#1e1e1e"/>
      <path d="M148.15,26.41a3.23,3.23,0,0,1-2.36-.84,3.09,3.09,0,0,1-.86-2.29,3.07,3.07,0,0,1,.89-2.33,3.38,3.38,0,0,1,2.41-.84,3.16,3.16,0,0,1,2.34.84,3,3,0,0,1,.85,2.23,3.19,3.19,0,0,1-.87,2.36A3.27,3.27,0,0,1,148.15,26.41Zm0-4.88a1.26,1.26,0,0,0-1,.45,2,2,0,0,0-.36,1.28c0,1.15.47,1.73,1.4,1.73s1.33-.59,1.33-1.78S149.09,21.53,148.19,21.53Z" fill="#1e1e1e"/>
      <path d="M154.48,26.26h-1.86V17.38h1.86Z" fill="#1e1e1e"/>
      <path d="M155.76,26.1V24.6a3.87,3.87,0,0,0,.91.41,3,3,0,0,0,.86.14,1.83,1.83,0,0,0,.77-.14.44.44,0,0,0,.29-.41.39.39,0,0,0-.13-.29,1.33,1.33,0,0,0-.33-.21,3,3,0,0,0-.45-.15l-.46-.16a4.68,4.68,0,0,1-.63-.29,2.45,2.45,0,0,1-.46-.36,1.64,1.64,0,0,1-.28-.48,2,2,0,0,1-.09-.64,1.6,1.6,0,0,1,.22-.86,1.75,1.75,0,0,1,.58-.6,2.74,2.74,0,0,1,.84-.34,4.46,4.46,0,0,1,1-.11,5.52,5.52,0,0,1,.81.06q.41.07.81.18v1.43a3,3,0,0,0-.75-.3,3.2,3.2,0,0,0-.79-.11,2,2,0,0,0-.35,0,1.83,1.83,0,0,0-.28.1.43.43,0,0,0-.19.16.32.32,0,0,0-.07.22.4.4,0,0,0,.1.28.88.88,0,0,0,.28.2,1.88,1.88,0,0,0,.38.15l.41.14a7.13,7.13,0,0,1,.67.28,1.94,1.94,0,0,1,.51.36,1.58,1.58,0,0,1,.33.48,1.82,1.82,0,0,1,.11.66,1.78,1.78,0,0,1-.23.91,1.81,1.81,0,0,1-.62.61,2.66,2.66,0,0,1-.88.35,5,5,0,0,1-1,.11A5.41,5.41,0,0,1,155.76,26.1Z" fill="#1e1e1e"/>
    </g>
    <g>
      <path d="M32.56,75.26H30.5l-.6-1.87h-3l-.6,1.87H24.27l3.06-8.4h2.25Zm-3.09-3.32-.9-2.83a3.59,3.59,0,0,1-.14-.75h-.05a3.16,3.16,0,0,1-.15.73l-.91,2.85Z" fill="#1e1e1e"/>
      <path d="M38.49,75.26H33.11v-.77l3-3.87H33.41V69.26h5.06v.91l-2.85,3.72h2.87Z" fill="#1e1e1e"/>
      <path d="M45.26,75.26H43.41v-.91h0a2.11,2.11,0,0,1-1.83,1.06c-1.39,0-2.09-.85-2.09-2.53V69.26h1.85v3.46c0,.84.33,1.27,1,1.27a1,1,0,0,0,.79-.35,1.41,1.41,0,0,0,.3-1V69.26h1.85Z" fill="#1e1e1e"/>
      <path d="M50.7,70.93a1.66,1.66,0,0,0-.78-.18,1.15,1.15,0,0,0-1,.44,2,2,0,0,0-.34,1.2v2.87H46.78v-6h1.85v1.11h0a1.6,1.6,0,0,1,1.58-1.22,1.35,1.35,0,0,1,.46.07Z" fill="#1e1e1e"/>
      <path d="M57,72.79H53.11c.06.87.61,1.3,1.65,1.3a3.15,3.15,0,0,0,1.74-.47V75a4.56,4.56,0,0,1-2.16.45,2.8,2.8,0,0,1-3.06-3.06A3.23,3.23,0,0,1,52.14,70a2.87,2.87,0,0,1,2.14-.88,2.63,2.63,0,0,1,2,.78A3,3,0,0,1,57,72Zm-1.72-1.14c0-.86-.35-1.29-1-1.29a1,1,0,0,0-.78.37,1.75,1.75,0,0,0-.39.92Z" fill="#1e1e1e"/>
      <path d="M68.67,75.26H66.49l-1.3-2.16c-.1-.17-.19-.31-.28-.44a2.41,2.41,0,0,0-.28-.33.89.89,0,0,0-.28-.21A.73.73,0,0,0,64,72h-.51v3.22H61.62v-8.4h3q3.06,0,3.06,2.28a2.29,2.29,0,0,1-.14.81,2,2,0,0,1-.38.67,2.27,2.27,0,0,1-.59.52,3.23,3.23,0,0,1-.78.34v0a1.24,1.24,0,0,1,.36.19,2.45,2.45,0,0,1,.34.31,4,4,0,0,1,.32.38,4.68,4.68,0,0,1,.27.4Zm-5.16-7v2.33h.82a1.34,1.34,0,0,0,1-.35,1.17,1.17,0,0,0,.38-.88c0-.74-.44-1.1-1.32-1.1Z" fill="#1e1e1e"/>
      <path d="M74.52,72.79H70.61c.06.87.61,1.3,1.64,1.3A3.15,3.15,0,0,0,74,73.62V75a4.5,4.5,0,0,1-2.16.45,2.8,2.8,0,0,1-3.06-3.06A3.19,3.19,0,0,1,69.64,70a2.87,2.87,0,0,1,2.13-.88,2.62,2.62,0,0,1,2,.78A3,3,0,0,1,74.52,72ZM72.8,71.65c0-.86-.34-1.29-1-1.29a1,1,0,0,0-.77.37,1.68,1.68,0,0,0-.4.92Z" fill="#1e1e1e"/>
      <path d="M75.38,75.1V73.6a3.87,3.87,0,0,0,.91.41,3,3,0,0,0,.85.14,1.84,1.84,0,0,0,.78-.14.44.44,0,0,0,.29-.41.39.39,0,0,0-.13-.29,1.33,1.33,0,0,0-.33-.21A3,3,0,0,0,77.3,73l-.46-.16a4.68,4.68,0,0,1-.63-.29,2.45,2.45,0,0,1-.46-.36,1.64,1.64,0,0,1-.28-.48,2,2,0,0,1-.09-.64,1.6,1.6,0,0,1,.22-.86,1.75,1.75,0,0,1,.58-.6,2.85,2.85,0,0,1,.84-.34,4.46,4.46,0,0,1,1-.11,5.52,5.52,0,0,1,.81.06q.41.08.81.18v1.43a3,3,0,0,0-.75-.3,3.2,3.2,0,0,0-.79-.11,2,2,0,0,0-.35,0,1.83,1.83,0,0,0-.28.1.43.43,0,0,0-.19.16.32.32,0,0,0-.07.22.4.4,0,0,0,.1.28.88.88,0,0,0,.28.2,1.88,1.88,0,0,0,.38.15l.41.14a7.13,7.13,0,0,1,.67.28,2.12,2.12,0,0,1,.51.36,1.58,1.58,0,0,1,.33.48,1.82,1.82,0,0,1,.11.66,1.78,1.78,0,0,1-.23.91,1.81,1.81,0,0,1-.62.61,2.66,2.66,0,0,1-.88.35,5,5,0,0,1-1,.11A5.41,5.41,0,0,1,75.38,75.1Z" fill="#1e1e1e"/>
      <path d="M84,75.41a3.23,3.23,0,0,1-2.36-.84,3.49,3.49,0,0,1,0-4.62A3.37,3.37,0,0,1,84,69.11a3.16,3.16,0,0,1,2.34.84,3,3,0,0,1,.85,2.23,3.19,3.19,0,0,1-.87,2.36A3.27,3.27,0,0,1,84,75.41Zm0-4.88A1.26,1.26,0,0,0,83,71a2,2,0,0,0-.36,1.28c0,1.15.47,1.73,1.4,1.73s1.33-.59,1.33-1.78S84.89,70.53,84,70.53Z" fill="#1e1e1e"/>
      <path d="M94.12,75.26H92.27v-.91h0a2.1,2.1,0,0,1-1.83,1.06c-1.39,0-2.09-.85-2.09-2.53V69.26h1.85v3.46c0,.84.33,1.27,1,1.27a1,1,0,0,0,.79-.35,1.41,1.41,0,0,0,.3-1V69.26h1.85Z" fill="#1e1e1e"/>
      <path d="M99.56,70.93a1.61,1.61,0,0,0-.78-.18,1.12,1.12,0,0,0-.94.44,1.92,1.92,0,0,0-.34,1.2v2.87H95.64v-6H97.5v1.11h0a1.6,1.6,0,0,1,1.58-1.22,1.35,1.35,0,0,1,.46.07Z" fill="#1e1e1e"/>
      <path d="M105,75a3.68,3.68,0,0,1-1.81.37,3.06,3.06,0,0,1-2.24-.84,2.89,2.89,0,0,1-.85-2.16A3.21,3.21,0,0,1,101,70a3.42,3.42,0,0,1,2.45-.88,3.26,3.26,0,0,1,1.54.28V71a2.18,2.18,0,0,0-1.3-.43,1.71,1.71,0,0,0-1.26.47,1.73,1.73,0,0,0-.46,1.28,1.69,1.69,0,0,0,.44,1.25,1.63,1.63,0,0,0,1.23.46,2.43,2.43,0,0,0,1.35-.44Z" fill="#1e1e1e"/>
      <path d="M111.65,72.79h-3.91c.06.87.61,1.3,1.64,1.3a3.19,3.19,0,0,0,1.75-.47V75a4.57,4.57,0,0,1-2.17.45,3,3,0,0,1-2.25-.81,3,3,0,0,1-.81-2.25,3.19,3.19,0,0,1,.87-2.36,2.87,2.87,0,0,1,2.13-.88,2.64,2.64,0,0,1,2,.78,3.05,3.05,0,0,1,.71,2.12Zm-1.71-1.14q0-1.29-1-1.29a1,1,0,0,0-.77.37,1.67,1.67,0,0,0-.39.92Z" fill="#1e1e1e"/>
      <path d="M125.82,75.26H124v-5c0-.54,0-1.14.07-1.8h0a7.63,7.63,0,0,1-.26,1.12l-2,5.71H120.2l-2-5.65c0-.16-.14-.55-.26-1.18h-.05c.05.83.07,1.56.07,2.18v4.65h-1.7v-8.4H119l1.71,5A6.58,6.58,0,0,1,121,73h0a11.9,11.9,0,0,1,.33-1.21l1.72-5h2.7Z" fill="#1e1e1e"/>
      <path d="M132.53,75.26h-1.75V74.4h0a2,2,0,0,1-1.79,1,1.86,1.86,0,0,1-1.37-.5,1.76,1.76,0,0,1-.51-1.32c0-1.16.69-1.84,2.07-2l1.63-.21c0-.66-.35-1-1.07-1a3.66,3.66,0,0,0-2,.64V69.62a4.13,4.13,0,0,1,1.05-.35,5.18,5.18,0,0,1,1.22-.16,2.27,2.27,0,0,1,2.57,2.56Zm-1.74-2.44v-.4l-1.09.14q-.9.12-.9.81a.66.66,0,0,0,.22.52.81.81,0,0,0,.59.2,1.1,1.1,0,0,0,.85-.36A1.29,1.29,0,0,0,130.79,72.82Z" fill="#1e1e1e"/>
      <path d="M139.79,75.26H138V71.93c0-.93-.34-1.4-1-1.4a1,1,0,0,0-.79.37,1.4,1.4,0,0,0-.31.94v3.42H134v-6h1.85v.95h0a2.13,2.13,0,0,1,1.93-1.1c1.33,0,2,.83,2,2.48Z" fill="#1e1e1e"/>
      <path d="M146.29,75.26h-1.76V74.4h0a2,2,0,0,1-1.79,1,1.86,1.86,0,0,1-1.37-.5,1.79,1.79,0,0,1-.5-1.32c0-1.16.69-1.84,2.07-2l1.62-.21c0-.66-.35-1-1.06-1a3.67,3.67,0,0,0-2,.64V69.62a4.22,4.22,0,0,1,1.06-.35,5.12,5.12,0,0,1,1.22-.16,2.27,2.27,0,0,1,2.57,2.56Zm-1.75-2.44v-.4l-1.08.14c-.61.08-.91.35-.91.81a.69.69,0,0,0,.22.52.84.84,0,0,0,.6.2,1.11,1.11,0,0,0,.85-.36A1.28,1.28,0,0,0,144.54,72.82Z" fill="#1e1e1e"/>
      <path d="M153.66,74.57a3.4,3.4,0,0,1-1,2.59,4,4,0,0,1-2.81.92,4.48,4.48,0,0,1-1.92-.35V76.17a3.68,3.68,0,0,0,1.87.54,2,2,0,0,0,1.45-.49,1.76,1.76,0,0,0,.52-1.35V74.4h0a2.08,2.08,0,0,1-1.87,1,2.22,2.22,0,0,1-1.82-.81,3.28,3.28,0,0,1-.68-2.17,3.65,3.65,0,0,1,.75-2.42,2.45,2.45,0,0,1,2-.9,1.82,1.82,0,0,1,1.64.85h0v-.7h1.85Zm-1.83-2.19V71.9a1.48,1.48,0,0,0-.33-1,1.1,1.1,0,0,0-.88-.4,1.15,1.15,0,0,0-1,.48,2.28,2.28,0,0,0-.35,1.35,1.87,1.87,0,0,0,.34,1.19,1.08,1.08,0,0,0,.91.44,1.16,1.16,0,0,0,.93-.44A1.81,1.81,0,0,0,151.83,72.38Z" fill="#1e1e1e"/>
      <path d="M160.61,72.79H156.7c.06.87.61,1.3,1.64,1.3a3.15,3.15,0,0,0,1.74-.47V75a4.5,4.5,0,0,1-2.16.45,3,3,0,0,1-2.25-.81,3,3,0,0,1-.81-2.25,3.19,3.19,0,0,1,.87-2.36,2.87,2.87,0,0,1,2.13-.88,2.62,2.62,0,0,1,2,.78,3,3,0,0,1,.72,2.12Zm-1.72-1.14c0-.86-.34-1.29-1-1.29a1,1,0,0,0-.77.37,1.68,1.68,0,0,0-.4.92Z" fill="#1e1e1e"/>
      <path d="M165.7,70.93a1.61,1.61,0,0,0-.78-.18,1.14,1.14,0,0,0-.94.44,1.92,1.92,0,0,0-.34,1.2v2.87h-1.85v-6h1.85v1.11h0a1.61,1.61,0,0,1,1.59-1.22,1.32,1.32,0,0,1,.45.07Z" fill="#1e1e1e"/>
    </g>
    <g>
      <path d="M49,125.26H46.77l-1.3-2.16c-.1-.17-.2-.31-.29-.44a2.39,2.39,0,0,0-.27-.33,1,1,0,0,0-.28-.21.73.73,0,0,0-.33-.08h-.51v3.22H41.9v-8.4h3q3.06,0,3.06,2.28a2.29,2.29,0,0,1-.14.81,2.2,2.2,0,0,1-.38.67,2.27,2.27,0,0,1-.59.52,3.41,3.41,0,0,1-.78.34v0a1.39,1.39,0,0,1,.36.19,2.45,2.45,0,0,1,.34.31,4,4,0,0,1,.32.38,4.68,4.68,0,0,1,.27.4Zm-5.16-7v2.33h.82a1.34,1.34,0,0,0,1-.35,1.16,1.16,0,0,0,.37-.88c0-.74-.44-1.1-1.31-1.1Z" fill="#1e1e1e"/>
      <path d="M54.8,122.79H50.88c.07.87.62,1.3,1.65,1.3a3.15,3.15,0,0,0,1.74-.47V125a4.5,4.5,0,0,1-2.16.45,2.8,2.8,0,0,1-3.06-3.06,3.19,3.19,0,0,1,.87-2.36,2.87,2.87,0,0,1,2.13-.88,2.62,2.62,0,0,1,2,.78A3,3,0,0,1,54.8,122Zm-1.72-1.14c0-.86-.35-1.29-1-1.29a1,1,0,0,0-.77.37,1.68,1.68,0,0,0-.4.92Z" fill="#1e1e1e"/>
      <path d="M55.65,125.1v-1.5a4.13,4.13,0,0,0,.92.41,3,3,0,0,0,.85.14,1.84,1.84,0,0,0,.78-.14.43.43,0,0,0,.28-.41.38.38,0,0,0-.12-.29,1.23,1.23,0,0,0-.34-.21,2.52,2.52,0,0,0-.44-.15l-.46-.16a4.68,4.68,0,0,1-.63-.29,2.45,2.45,0,0,1-.46-.36,1.64,1.64,0,0,1-.28-.48,2,2,0,0,1-.1-.64,1.69,1.69,0,0,1,.22-.86,1.88,1.88,0,0,1,.59-.6,2.64,2.64,0,0,1,.84-.34,4.46,4.46,0,0,1,1-.11,5.73,5.73,0,0,1,.81.06q.4.08.81.18v1.43a2.94,2.94,0,0,0-.76-.3,3.06,3.06,0,0,0-.78-.11,1.9,1.9,0,0,0-.35,0,1.83,1.83,0,0,0-.28.1.43.43,0,0,0-.19.16.33.33,0,0,0-.08.22.41.41,0,0,0,.11.28.88.88,0,0,0,.28.2,1.79,1.79,0,0,0,.37.15l.42.14a6,6,0,0,1,.66.28,2.18,2.18,0,0,1,.52.36,1.58,1.58,0,0,1,.33.48,1.82,1.82,0,0,1,.11.66,1.78,1.78,0,0,1-.23.91,1.9,1.9,0,0,1-.62.61,2.66,2.66,0,0,1-.88.35,5.1,5.1,0,0,1-1,.11A5.51,5.51,0,0,1,55.65,125.1Z" fill="#1e1e1e"/>
      <path d="M64.23,125.41a3.23,3.23,0,0,1-2.36-.84,3.49,3.49,0,0,1,0-4.62,3.37,3.37,0,0,1,2.41-.84,3.18,3.18,0,0,1,2.34.84,3,3,0,0,1,.85,2.23,3.19,3.19,0,0,1-.87,2.36A3.27,3.27,0,0,1,64.23,125.41Zm0-4.88a1.26,1.26,0,0,0-1,.45,2,2,0,0,0-.36,1.28c0,1.15.47,1.73,1.4,1.73s1.33-.59,1.33-1.78S65.17,120.53,64.27,120.53Z" fill="#1e1e1e"/>
      <path d="M74.4,125.26H72.55v-.91h0a2.11,2.11,0,0,1-1.83,1.06c-1.39,0-2.09-.85-2.09-2.53v-3.62h1.85v3.46c0,.84.33,1.27,1,1.27a1,1,0,0,0,.79-.35,1.41,1.41,0,0,0,.3-1v-3.43H74.4Z" fill="#1e1e1e"/>
      <path d="M79.84,120.93a1.66,1.66,0,0,0-.78-.18,1.15,1.15,0,0,0-1,.44,2,2,0,0,0-.34,1.2v2.87H75.92v-6h1.85v1.11h0a1.6,1.6,0,0,1,1.58-1.22,1.35,1.35,0,0,1,.46.07Z" fill="#1e1e1e"/>
      <path d="M85.31,125a3.68,3.68,0,0,1-1.81.37,3.06,3.06,0,0,1-2.24-.84,2.9,2.9,0,0,1-.86-2.16,3.22,3.22,0,0,1,.92-2.42,3.42,3.42,0,0,1,2.45-.88,3.26,3.26,0,0,1,1.54.28V121a2.18,2.18,0,0,0-1.3-.43,1.71,1.71,0,0,0-1.26.47,1.73,1.73,0,0,0-.46,1.28,1.69,1.69,0,0,0,.44,1.25A1.63,1.63,0,0,0,84,124a2.43,2.43,0,0,0,1.35-.44Z" fill="#1e1e1e"/>
      <path d="M91.93,122.79H88c.06.87.61,1.3,1.64,1.3a3.15,3.15,0,0,0,1.74-.47V125a4.5,4.5,0,0,1-2.16.45A3,3,0,0,1,87,124.6a3,3,0,0,1-.81-2.25,3.19,3.19,0,0,1,.87-2.36,2.87,2.87,0,0,1,2.13-.88,2.6,2.6,0,0,1,2,.78,3,3,0,0,1,.72,2.12Zm-1.72-1.14c0-.86-.34-1.29-1-1.29a1,1,0,0,0-.77.37,1.6,1.6,0,0,0-.39.92Z" fill="#1e1e1e"/>
      <path d="M98.42,122.36v2.9H96.53v-8.4h3q3.18,0,3.18,2.67a2.56,2.56,0,0,1-.92,2,3.58,3.58,0,0,1-2.43.78Zm0-4v2.62h.74c1,0,1.51-.44,1.51-1.32s-.5-1.3-1.51-1.3Z" fill="#1e1e1e"/>
      <path d="M107.53,120.93a1.61,1.61,0,0,0-.78-.18,1.14,1.14,0,0,0-.94.44,1.92,1.92,0,0,0-.34,1.2v2.87h-1.85v-6h1.85v1.11h0a1.6,1.6,0,0,1,1.58-1.22,1.32,1.32,0,0,1,.45.07Z" fill="#1e1e1e"/>
      <path d="M111.34,125.41a3.23,3.23,0,0,1-2.36-.84,3.49,3.49,0,0,1,0-4.62,3.37,3.37,0,0,1,2.41-.84,3.18,3.18,0,0,1,2.34.84,3,3,0,0,1,.85,2.23,3.19,3.19,0,0,1-.87,2.36A3.27,3.27,0,0,1,111.34,125.41Zm0-4.88a1.26,1.26,0,0,0-1,.45,2,2,0,0,0-.36,1.28c0,1.15.46,1.73,1.39,1.73s1.33-.59,1.33-1.78S112.28,120.53,111.38,120.53Z" fill="#1e1e1e"/>
      <path d="M121.37,119.26l-2.24,6H117l-2.12-6h2l1,3.7a5.17,5.17,0,0,1,.21,1.06h0a6.23,6.23,0,0,1,.22-1l1.06-3.73Z" fill="#1e1e1e"/>
      <path d="M123.13,118.31a1.06,1.06,0,0,1-.77-.28.88.88,0,0,1-.3-.68.87.87,0,0,1,.3-.68,1.09,1.09,0,0,1,.77-.26,1.11,1.11,0,0,1,.77.26.89.89,0,0,1,.29.68.91.91,0,0,1-.29.69A1.11,1.11,0,0,1,123.13,118.31Zm.91,7h-1.85v-6H124Z" fill="#1e1e1e"/>
      <path d="M131.47,125.26h-1.85v-.83h0a2.1,2.1,0,0,1-1.86,1,2.27,2.27,0,0,1-1.81-.8,3.28,3.28,0,0,1-.69-2.22A3.54,3.54,0,0,1,126,120a2.45,2.45,0,0,1,2-.9,1.69,1.69,0,0,1,1.62.84h0v-3.57h1.85Zm-1.82-2.92v-.45a1.4,1.4,0,0,0-.34-1,1.1,1.1,0,0,0-.88-.39,1.12,1.12,0,0,0-1,.48,2.28,2.28,0,0,0-.35,1.33,1.89,1.89,0,0,0,.34,1.22,1.09,1.09,0,0,0,.92.43,1.12,1.12,0,0,0,.92-.45A1.86,1.86,0,0,0,129.65,122.34Z" fill="#1e1e1e"/>
      <path d="M138.42,122.79h-3.91c.06.87.61,1.3,1.64,1.3a3.15,3.15,0,0,0,1.74-.47V125a4.5,4.5,0,0,1-2.16.45,2.8,2.8,0,0,1-3.06-3.06,3.19,3.19,0,0,1,.87-2.36,2.87,2.87,0,0,1,2.13-.88,2.62,2.62,0,0,1,2,.78,3,3,0,0,1,.72,2.12Zm-1.72-1.14c0-.86-.34-1.29-1-1.29a1,1,0,0,0-.77.37,1.68,1.68,0,0,0-.4.92Z" fill="#1e1e1e"/>
      <path d="M143.51,120.93a1.61,1.61,0,0,0-.78-.18,1.14,1.14,0,0,0-.94.44,1.92,1.92,0,0,0-.34,1.2v2.87H139.6v-6h1.85v1.11h0a1.61,1.61,0,0,1,1.59-1.22,1.32,1.32,0,0,1,.45.07Z" fill="#1e1e1e"/>
      <path d="M144.17,125.1v-1.5a4.27,4.27,0,0,0,.91.41,3,3,0,0,0,.86.14,1.84,1.84,0,0,0,.78-.14.43.43,0,0,0,.28-.41.36.36,0,0,0-.13-.29,1,1,0,0,0-.33-.21,2.52,2.52,0,0,0-.44-.15c-.16,0-.32-.1-.46-.16a4.68,4.68,0,0,1-.63-.29,1.94,1.94,0,0,1-.46-.36,1.44,1.44,0,0,1-.28-.48,1.76,1.76,0,0,1-.1-.64,1.6,1.6,0,0,1,.22-.86,1.78,1.78,0,0,1,.59-.6,2.68,2.68,0,0,1,.83-.34,4.62,4.62,0,0,1,1-.11,5.49,5.49,0,0,1,.8.06q.42.08.81.18v1.43a2.74,2.74,0,0,0-.75-.3,3.13,3.13,0,0,0-.79-.11,1.87,1.87,0,0,0-.34,0,1.51,1.51,0,0,0-.28.1.46.46,0,0,0-.2.16.32.32,0,0,0-.07.22.41.41,0,0,0,.11.28,1,1,0,0,0,.27.2,2.15,2.15,0,0,0,.38.15l.41.14a6.16,6.16,0,0,1,.67.28,1.94,1.94,0,0,1,.51.36,1.29,1.29,0,0,1,.33.48,1.62,1.62,0,0,1,.12.66,1.69,1.69,0,0,1-.24.91,1.78,1.78,0,0,1-.61.61,2.72,2.72,0,0,1-.89.35,5,5,0,0,1-1,.11A5.41,5.41,0,0,1,144.17,125.1Z" fill="#1e1e1e"/>
    </g>
    <g>
      <path d="M42.82,173.63v-8.4h3.06a3.83,3.83,0,0,1,2.16.51,1.66,1.66,0,0,1,.76,1.46,1.69,1.69,0,0,1-.46,1.18,2.43,2.43,0,0,1-1.17.71v0a2.31,2.31,0,0,1,1.43.66,1.83,1.83,0,0,1,.53,1.34,2.24,2.24,0,0,1-.82,1.83,3.48,3.48,0,0,1-2.26.68Zm1.9-7v2h.83a1.37,1.37,0,0,0,.92-.28,1,1,0,0,0,.34-.78c0-.62-.46-.93-1.39-.93Zm0,3.4v2.21h1a1.6,1.6,0,0,0,1-.3,1,1,0,0,0,.37-.83,1,1,0,0,0-.36-.79,1.6,1.6,0,0,0-1-.29Z" fill="#1e1e1e"/>
      <path d="M56.07,173.63H54.22v-.92h0a2.09,2.09,0,0,1-1.83,1.07c-1.39,0-2.09-.85-2.09-2.53v-3.62h1.85v3.46c0,.84.33,1.27,1,1.27a1,1,0,0,0,.79-.35,1.41,1.41,0,0,0,.3-.95v-3.43h1.85Z" fill="#1e1e1e"/>
      <path d="M57.33,173.47V172a4.27,4.27,0,0,0,.91.41,3.08,3.08,0,0,0,.86.14,1.84,1.84,0,0,0,.78-.14.43.43,0,0,0,.28-.41.36.36,0,0,0-.13-.29,1,1,0,0,0-.33-.21,3.72,3.72,0,0,0-.44-.16c-.16,0-.31-.1-.46-.15a4.68,4.68,0,0,1-.63-.29,2.16,2.16,0,0,1-.46-.36,1.44,1.44,0,0,1-.28-.48,2,2,0,0,1-.1-.64,1.66,1.66,0,0,1,.81-1.46,2.64,2.64,0,0,1,.84-.34,4.46,4.46,0,0,1,1-.11,5.73,5.73,0,0,1,.81.06,5.88,5.88,0,0,1,.81.18v1.43a3.37,3.37,0,0,0-.76-.31,3.64,3.64,0,0,0-.79-.1,1.87,1.87,0,0,0-.34,0,1.51,1.51,0,0,0-.28.1.53.53,0,0,0-.2.16.38.38,0,0,0-.07.22.41.41,0,0,0,.11.28,1,1,0,0,0,.27.2,2.15,2.15,0,0,0,.38.15l.42.14a6.9,6.9,0,0,1,.66.28,2.18,2.18,0,0,1,.52.36,1.23,1.23,0,0,1,.32.48,1.6,1.6,0,0,1,.12.65,1.79,1.79,0,0,1-.23.92,1.9,1.9,0,0,1-.62.61,2.89,2.89,0,0,1-.88.35,5.1,5.1,0,0,1-1,.11A5.51,5.51,0,0,1,57.33,173.47Z" fill="#1e1e1e"/>
      <path d="M64,166.68a1.06,1.06,0,0,1-.77-.28.88.88,0,0,1-.3-.68.85.85,0,0,1,.3-.68,1.09,1.09,0,0,1,.77-.26,1.11,1.11,0,0,1,.77.26.88.88,0,0,1,.29.68.91.91,0,0,1-.29.69A1.11,1.11,0,0,1,64,166.68Zm.91,6.95H63v-6h1.85Z" fill="#1e1e1e"/>
      <path d="M72.22,173.63H70.38v-3.34c0-.93-.34-1.39-1-1.39a1,1,0,0,0-.79.37,1.4,1.4,0,0,0-.31.94v3.42H66.43v-6h1.85v1h0a2.13,2.13,0,0,1,1.93-1.1c1.33,0,2,.83,2,2.47Z" fill="#1e1e1e"/>
      <path d="M79.11,171.16H75.19c.07.87.61,1.3,1.65,1.3a3.15,3.15,0,0,0,1.74-.47v1.34a4.53,4.53,0,0,1-2.16.45,2.8,2.8,0,0,1-3.06-3.06,3.19,3.19,0,0,1,.87-2.36,2.85,2.85,0,0,1,2.13-.88,2.63,2.63,0,0,1,2,.78,3,3,0,0,1,.72,2.12ZM77.39,170c0-.86-.35-1.29-1-1.29a1,1,0,0,0-.77.37,1.68,1.68,0,0,0-.4.92Z" fill="#1e1e1e"/>
      <path d="M80,173.47V172a4.27,4.27,0,0,0,.91.41,3.08,3.08,0,0,0,.86.14,1.84,1.84,0,0,0,.78-.14.43.43,0,0,0,.28-.41.36.36,0,0,0-.13-.29,1,1,0,0,0-.33-.21,3.72,3.72,0,0,0-.44-.16c-.16,0-.31-.1-.46-.15a4.68,4.68,0,0,1-.63-.29,2.16,2.16,0,0,1-.46-.36,1.44,1.44,0,0,1-.28-.48,2,2,0,0,1-.1-.64,1.66,1.66,0,0,1,.81-1.46,2.64,2.64,0,0,1,.84-.34,4.46,4.46,0,0,1,1-.11,5.73,5.73,0,0,1,.81.06,5.88,5.88,0,0,1,.81.18v1.43a3.37,3.37,0,0,0-.76-.31,3.64,3.64,0,0,0-.79-.1,1.87,1.87,0,0,0-.34,0,1.51,1.51,0,0,0-.28.1.53.53,0,0,0-.2.16.38.38,0,0,0-.07.22.41.41,0,0,0,.11.28,1,1,0,0,0,.27.2,2.15,2.15,0,0,0,.38.15L83,170a6.9,6.9,0,0,1,.66.28,2.18,2.18,0,0,1,.52.36,1.23,1.23,0,0,1,.32.48,1.6,1.6,0,0,1,.12.65,1.79,1.79,0,0,1-.23.92,1.9,1.9,0,0,1-.62.61,2.89,2.89,0,0,1-.88.35,5.1,5.1,0,0,1-1,.11A5.51,5.51,0,0,1,80,173.47Z" fill="#1e1e1e"/>
      <path d="M85.38,173.47V172a4.27,4.27,0,0,0,.91.41,3.08,3.08,0,0,0,.86.14,1.84,1.84,0,0,0,.78-.14.43.43,0,0,0,.28-.41.36.36,0,0,0-.13-.29,1,1,0,0,0-.33-.21,3.72,3.72,0,0,0-.44-.16c-.16,0-.31-.1-.46-.15a4.68,4.68,0,0,1-.63-.29,2.16,2.16,0,0,1-.46-.36,1.44,1.44,0,0,1-.28-.48,1.76,1.76,0,0,1-.1-.64,1.66,1.66,0,0,1,.81-1.46,2.64,2.64,0,0,1,.84-.34,4.46,4.46,0,0,1,1-.11,5.73,5.73,0,0,1,.81.06,5.88,5.88,0,0,1,.81.18v1.43a3.37,3.37,0,0,0-.76-.31,3.64,3.64,0,0,0-.79-.1,1.87,1.87,0,0,0-.34,0,1.51,1.51,0,0,0-.28.1.53.53,0,0,0-.2.16.38.38,0,0,0-.07.22.41.41,0,0,0,.11.28,1,1,0,0,0,.27.2,2.15,2.15,0,0,0,.38.15l.42.14a6.9,6.9,0,0,1,.66.28,1.94,1.94,0,0,1,.51.36,1.15,1.15,0,0,1,.33.48,1.6,1.6,0,0,1,.12.65,1.79,1.79,0,0,1-.23.92,1.9,1.9,0,0,1-.62.61,3,3,0,0,1-.88.35,5.1,5.1,0,0,1-1,.11A5.51,5.51,0,0,1,85.38,173.47Z" fill="#1e1e1e"/>
      <path d="M99.55,173.63h-5v-8.4h1.89v6.86h3.11Z" fill="#1e1e1e"/>
      <path d="M103.38,173.78a3.21,3.21,0,0,1-2.35-.85,3.47,3.47,0,0,1,0-4.61,3.37,3.37,0,0,1,2.41-.84,3.19,3.19,0,0,1,2.34.84,3,3,0,0,1,.85,2.23,3.16,3.16,0,0,1-.88,2.36A3.24,3.24,0,0,1,103.38,173.78Zm.05-4.88a1.23,1.23,0,0,0-1,.45,2,2,0,0,0-.36,1.28c0,1.15.46,1.73,1.39,1.73s1.33-.59,1.33-1.78S104.33,168.9,103.43,168.9Z" fill="#1e1e1e"/>
      <path d="M113.77,172.94a3.37,3.37,0,0,1-1,2.59,3.92,3.92,0,0,1-2.8.92,4.42,4.42,0,0,1-1.92-.35v-1.56a3.68,3.68,0,0,0,1.87.54,2,2,0,0,0,1.45-.49,1.76,1.76,0,0,0,.52-1.35v-.47h0a2.07,2.07,0,0,1-1.87,1,2.25,2.25,0,0,1-1.82-.81,3.29,3.29,0,0,1-.67-2.17,3.65,3.65,0,0,1,.75-2.42,2.44,2.44,0,0,1,2-.9,1.81,1.81,0,0,1,1.64.85h0v-.7h1.85Zm-1.83-2.19v-.48a1.44,1.44,0,0,0-.34-1,1.06,1.06,0,0,0-.87-.4,1.15,1.15,0,0,0-1,.48,2.28,2.28,0,0,0-.35,1.35,1.93,1.93,0,0,0,.33,1.19,1.11,1.11,0,0,0,.92.44,1.14,1.14,0,0,0,.93-.45A1.82,1.82,0,0,0,111.94,170.75Z" fill="#1e1e1e"/>
      <path d="M116.23,166.68a1.06,1.06,0,0,1-.77-.28.88.88,0,0,1-.3-.68.85.85,0,0,1,.3-.68,1.09,1.09,0,0,1,.77-.26,1.11,1.11,0,0,1,.77.26.88.88,0,0,1,.29.68.91.91,0,0,1-.29.69A1.11,1.11,0,0,1,116.23,166.68Zm.91,6.95h-1.85v-6h1.85Z" fill="#1e1e1e"/>
      <path d="M123.22,173.41a3.68,3.68,0,0,1-1.81.37,3,3,0,0,1-2.24-.84,2.9,2.9,0,0,1-.86-2.16,3.22,3.22,0,0,1,.92-2.42,3.42,3.42,0,0,1,2.45-.88,3.26,3.26,0,0,1,1.54.28v1.57a2.12,2.12,0,0,0-1.3-.43,1.71,1.71,0,0,0-1.26.47,1.74,1.74,0,0,0-.47,1.28,1.69,1.69,0,0,0,.45,1.25,1.61,1.61,0,0,0,1.22.46,2.46,2.46,0,0,0,1.36-.44Z" fill="#1e1e1e"/>
      <path d="M132.73,173.63H131v-.86h0a2,2,0,0,1-1.79,1,1.86,1.86,0,0,1-1.37-.5,1.76,1.76,0,0,1-.51-1.32c0-1.17.69-1.84,2.07-2l1.63-.21c0-.66-.35-1-1.06-1a3.59,3.59,0,0,0-2,.64V168a4.46,4.46,0,0,1,1.06-.36,5.56,5.56,0,0,1,1.22-.15,2.26,2.26,0,0,1,2.56,2.56ZM131,171.19v-.4l-1.09.14q-.9.12-.9.81a.66.66,0,0,0,.22.52.81.81,0,0,0,.59.2,1.08,1.08,0,0,0,.85-.36A1.29,1.29,0,0,0,131,171.19Z" fill="#1e1e1e"/>
      <path d="M140,173.63h-1.84v-3.34c0-.93-.34-1.39-1-1.39a1,1,0,0,0-.79.37,1.4,1.4,0,0,0-.31.94v3.42H134.2v-6h1.85v1h0a2.13,2.13,0,0,1,1.93-1.1c1.33,0,2,.83,2,2.47Z" fill="#1e1e1e"/>
      <path d="M147.36,173.63h-1.85v-.83h0a2.07,2.07,0,0,1-1.85,1,2.27,2.27,0,0,1-1.81-.8,3.28,3.28,0,0,1-.69-2.22,3.54,3.54,0,0,1,.76-2.38,2.45,2.45,0,0,1,2-.9,1.68,1.68,0,0,1,1.61.83h0v-3.56h1.85Zm-1.82-2.92v-.45a1.38,1.38,0,0,0-.34-1,1.1,1.1,0,0,0-.88-.39,1.12,1.12,0,0,0-1,.48,2.28,2.28,0,0,0-.35,1.33,1.91,1.91,0,0,0,.34,1.22,1.18,1.18,0,0,0,1.84,0A1.92,1.92,0,0,0,145.54,170.71Z" fill="#1e1e1e"/>
      <path d="M58.82,188H56.93v-8.4h1.89Z" fill="#1e1e1e"/>
      <path d="M66.29,188H64.44v-3.34c0-.93-.33-1.39-1-1.39a1,1,0,0,0-.79.37,1.4,1.4,0,0,0-.31.94V188H60.49v-6h1.86V183h0a2.12,2.12,0,0,1,1.93-1.1c1.33,0,2,.83,2,2.47Z" fill="#1e1e1e"/>
      <path d="M71.59,180.56a1.88,1.88,0,0,0-.68-.14c-.6,0-.89.33-.89,1V182h1.37v1.36H70V188H68.17v-4.64h-1V182h1v-.75a2.15,2.15,0,0,1,.67-1.65,2.54,2.54,0,0,1,1.82-.62,3.12,3.12,0,0,1,.93.11Z" fill="#1e1e1e"/>
      <path d="M76.18,183.7a1.66,1.66,0,0,0-.78-.18,1.11,1.11,0,0,0-1,.44,2,2,0,0,0-.34,1.2V188H72.26v-6h1.85v1.11h0a1.6,1.6,0,0,1,1.58-1.22,1.39,1.39,0,0,1,.46.07Z" fill="#1e1e1e"/>
      <path d="M82,188H80.2v-.86h0a1.94,1.94,0,0,1-1.78,1,1.88,1.88,0,0,1-1.38-.49,1.79,1.79,0,0,1-.5-1.32c0-1.17.69-1.84,2.07-2l1.63-.21c0-.66-.36-1-1.07-1a3.64,3.64,0,0,0-2,.64v-1.39a4.62,4.62,0,0,1,1.06-.36,5.7,5.7,0,0,1,1.22-.15A2.27,2.27,0,0,1,82,184.44Zm-1.74-2.44v-.4l-1.09.14q-.9.12-.9.81a.66.66,0,0,0,.22.52.8.8,0,0,0,.59.2,1.1,1.1,0,0,0,.85-.36A1.29,1.29,0,0,0,80.21,185.59Z" fill="#1e1e1e"/>
      <path d="M83.13,187.87v-1.5a4.13,4.13,0,0,0,.92.41,3,3,0,0,0,.85.14,1.84,1.84,0,0,0,.78-.14.43.43,0,0,0,.28-.41.38.38,0,0,0-.12-.29,1.33,1.33,0,0,0-.33-.21,4.72,4.72,0,0,0-.45-.16c-.16,0-.31-.1-.46-.15a4.68,4.68,0,0,1-.63-.29,2.45,2.45,0,0,1-.46-.36,1.64,1.64,0,0,1-.28-.48,2,2,0,0,1-.1-.64,1.66,1.66,0,0,1,.23-.87,1.72,1.72,0,0,1,.58-.59,2.74,2.74,0,0,1,.84-.34,4.46,4.46,0,0,1,1-.11,5.62,5.62,0,0,1,.81.06,5.88,5.88,0,0,1,.81.18v1.43a3.49,3.49,0,0,0-.75-.31,3.72,3.72,0,0,0-.79-.1,1.9,1.9,0,0,0-.35,0,1.83,1.83,0,0,0-.28.1.43.43,0,0,0-.19.16.32.32,0,0,0-.07.22.4.4,0,0,0,.1.28.88.88,0,0,0,.28.2,1.88,1.88,0,0,0,.38.15l.41.14a7.13,7.13,0,0,1,.67.28,2.12,2.12,0,0,1,.51.36,1.37,1.37,0,0,1,.33.48,1.75,1.75,0,0,1-.74,2.18,2.89,2.89,0,0,1-.88.35,5,5,0,0,1-1,.1A5.5,5.5,0,0,1,83.13,187.87Z" fill="#1e1e1e"/>
      <path d="M92.41,188a2.85,2.85,0,0,1-1.24.21,1.76,1.76,0,0,1-2-2v-2.75h-1V182h1v-1.3l1.85-.52V182h1.35v1.36H91.06v2.43c0,.62.25.94.74.94a1.31,1.31,0,0,0,.61-.17Z" fill="#1e1e1e"/>
      <path d="M97.49,183.7a1.66,1.66,0,0,0-.78-.18,1.13,1.13,0,0,0-.95.44,2,2,0,0,0-.34,1.2V188H93.57v-6h1.85v1.11h0A1.6,1.6,0,0,1,97,181.92a1.35,1.35,0,0,1,.46.07Z" fill="#1e1e1e"/>
      <path d="M104.09,188h-1.85v-.92h0a2.07,2.07,0,0,1-1.83,1.06c-1.39,0-2.09-.84-2.09-2.52V182h1.85v3.46c0,.84.34,1.27,1,1.27a1,1,0,0,0,.8-.35,1.46,1.46,0,0,0,.29-.95V182h1.85Z" fill="#1e1e1e"/>
      <path d="M110.18,187.81a3.69,3.69,0,0,1-1.81.36,3.06,3.06,0,0,1-2.24-.83,2.9,2.9,0,0,1-.85-2.17,3.17,3.17,0,0,1,.92-2.41,3.4,3.4,0,0,1,2.45-.88,3.22,3.22,0,0,1,1.53.28v1.57a2.09,2.09,0,0,0-1.29-.43,1.62,1.62,0,0,0-1.73,1.75,1.73,1.73,0,0,0,.44,1.25,1.63,1.63,0,0,0,1.23.46,2.43,2.43,0,0,0,1.35-.44Z" fill="#1e1e1e"/>
      <path d="M115.1,188a2.78,2.78,0,0,1-1.23.21c-1.31,0-2-.67-2-2v-2.75h-1V182h1v-1.3l1.85-.52V182h1.34v1.36h-1.34v2.43c0,.62.24.94.74.94a1.24,1.24,0,0,0,.6-.17Z" fill="#1e1e1e"/>
      <path d="M121.94,188H120.1v-.92h0a2.09,2.09,0,0,1-1.84,1.06c-1.39,0-2.08-.84-2.08-2.52V182H118v3.46c0,.84.34,1.27,1,1.27a1,1,0,0,0,.8-.35,1.41,1.41,0,0,0,.3-.95V182h1.84Z" fill="#1e1e1e"/>
      <path d="M127.38,183.7a1.61,1.61,0,0,0-.78-.18,1.1,1.1,0,0,0-.94.44,1.9,1.9,0,0,0-.34,1.2V188h-1.85v-6h1.85v1.11h0a1.6,1.6,0,0,1,1.58-1.22,1.35,1.35,0,0,1,.46.07Z" fill="#1e1e1e"/>
      <path d="M133.71,185.56h-3.92c.07.87.62,1.3,1.65,1.3a3.15,3.15,0,0,0,1.74-.47v1.34a4.51,4.51,0,0,1-2.16.44,3,3,0,0,1-2.26-.8,3.08,3.08,0,0,1-.8-2.25,3.19,3.19,0,0,1,.87-2.36,2.87,2.87,0,0,1,2.13-.88,2.62,2.62,0,0,1,2,.78,3,3,0,0,1,.72,2.12ZM132,184.42c0-.86-.35-1.29-1-1.29a1,1,0,0,0-.77.37,1.68,1.68,0,0,0-.4.92Z" fill="#1e1e1e"/>
    </g>
    <g>
      <path d="M214.25,28.3a3.76,3.76,0,0,1-.63,2.32,2,2,0,0,1-1.69.83,2.07,2.07,0,0,1-.81-.14v-1a1.37,1.37,0,0,0,.82.23c.88,0,1.33-.76,1.33-2.26v-5.4h1Z" fill="#1e1e1e"/>
      <path d="M216,31V29.81a2.5,2.5,0,0,0,.48.32,3.8,3.8,0,0,0,.59.23,3.39,3.39,0,0,0,.61.15,3.09,3.09,0,0,0,.58.06,2.25,2.25,0,0,0,1.35-.34,1.15,1.15,0,0,0,.45-1,1.13,1.13,0,0,0-.15-.59,1.6,1.6,0,0,0-.41-.46,4.43,4.43,0,0,0-.62-.4l-.78-.4c-.29-.15-.57-.3-.82-.45a3.49,3.49,0,0,1-.66-.51A1.95,1.95,0,0,1,216,25a1.93,1.93,0,0,1,.26-1,2.1,2.1,0,0,1,.66-.7,3,3,0,0,1,.93-.41,4.29,4.29,0,0,1,1.07-.13,4.08,4.08,0,0,1,1.81.3v1.1a3.29,3.29,0,0,0-1.91-.51,2.79,2.79,0,0,0-.64.07,1.56,1.56,0,0,0-.58.22,1.38,1.38,0,0,0-.41.39,1.06,1.06,0,0,0-.15.58,1.22,1.22,0,0,0,.12.56,1.28,1.28,0,0,0,.35.43,3.75,3.75,0,0,0,.57.37c.23.12.48.26.78.4s.58.31.85.47a3.62,3.62,0,0,1,.71.55,2.11,2.11,0,0,1,.49.66,2,2,0,0,1,.17.83,2.14,2.14,0,0,1-.24,1,1.93,1.93,0,0,1-.66.7,2.8,2.8,0,0,1-1,.39,5.22,5.22,0,0,1-1.13.12l-.5,0a4.28,4.28,0,0,1-.59-.1,4.45,4.45,0,0,1-.58-.15A2,2,0,0,1,216,31Z" fill="#1e1e1e"/>
      <path d="M226.15,31.45a3.7,3.7,0,0,1-2.87-1.18,4.37,4.37,0,0,1-1.07-3.06A4.65,4.65,0,0,1,223.3,24a3.87,3.87,0,0,1,3-1.2,3.6,3.6,0,0,1,2.8,1.17A4.37,4.37,0,0,1,230.15,27a4.66,4.66,0,0,1-1.09,3.26A3.75,3.75,0,0,1,226.15,31.45Zm.07-7.79a2.71,2.71,0,0,0-2.15.95,3.72,3.72,0,0,0-.83,2.51,3.7,3.7,0,0,0,.81,2.5,2.61,2.61,0,0,0,2.1.95,2.75,2.75,0,0,0,2.18-.91,3.68,3.68,0,0,0,.79-2.52,3.81,3.81,0,0,0-.77-2.57A2.65,2.65,0,0,0,226.22,23.66Z" fill="#1e1e1e"/>
      <path d="M238.58,31.31h-1.21l-4.32-6.7a2.57,2.57,0,0,1-.27-.52h0a7.12,7.12,0,0,1,0,1.15v6.07h-1v-8.4h1.27l4.21,6.59a5.88,5.88,0,0,1,.34.56h0a11.05,11.05,0,0,1-.05-1.23V22.91h1Z" fill="#1e1e1e"/>
      <path d="M254,22.91l-2.37,8.4H250.5l-1.72-6.14a3.77,3.77,0,0,1-.14-.86h0a4.9,4.9,0,0,1-.16.85l-1.74,6.15h-1.14l-2.46-8.4h1.09L246,29.35a3.87,3.87,0,0,1,.14.85h0a5.24,5.24,0,0,1,.18-.85l1.86-6.44h.94l1.79,6.49a4.72,4.72,0,0,1,.14.79h0a4.94,4.94,0,0,1,.16-.81L253,22.91Z" fill="#1e1e1e"/>
      <path d="M259.5,28.55h-4.23a2.21,2.21,0,0,0,.54,1.55,1.85,1.85,0,0,0,1.41.54,2.94,2.94,0,0,0,1.87-.67v.91a3.52,3.52,0,0,1-2.09.57,2.52,2.52,0,0,1-2-.82,3.31,3.31,0,0,1-.73-2.3,3.29,3.29,0,0,1,.8-2.28,2.51,2.51,0,0,1,2-.88,2.25,2.25,0,0,1,1.82.76,3.18,3.18,0,0,1,.64,2.12Zm-1-.81a2,2,0,0,0-.4-1.3A1.37,1.37,0,0,0,257,26a1.55,1.55,0,0,0-1.15.48,2.19,2.19,0,0,0-.59,1.28Z" fill="#1e1e1e"/>
      <path d="M261.94,30.44h0v.87h-1V22.43h1v3.93h0A2.29,2.29,0,0,1,264,25.17a2.17,2.17,0,0,1,1.8.81,3.27,3.27,0,0,1,.66,2.15,3.74,3.74,0,0,1-.74,2.42,2.42,2.42,0,0,1-2,.9A2,2,0,0,1,261.94,30.44Zm0-2.42v.84a1.77,1.77,0,0,0,.48,1.26,1.59,1.59,0,0,0,1.23.52A1.6,1.6,0,0,0,265,30a3,3,0,0,0,.49-1.85,2.41,2.41,0,0,0-.46-1.57,1.53,1.53,0,0,0-1.25-.57,1.7,1.7,0,0,0-1.35.58A2.15,2.15,0,0,0,261.92,28Z" fill="#1e1e1e"/>
      <path d="M276.4,23.8H274v7.51h-1V23.8h-2.42v-.89h5.83Z" fill="#1e1e1e"/>
      <path d="M278.92,31.45a2.79,2.79,0,0,1-2.12-.84,3.11,3.11,0,0,1-.8-2.23,3.25,3.25,0,0,1,.83-2.36,3,3,0,0,1,2.23-.85,2.7,2.7,0,0,1,2.1.83,3.27,3.27,0,0,1,.75,2.29,3.25,3.25,0,0,1-.81,2.3A2.87,2.87,0,0,1,278.92,31.45ZM279,26a1.83,1.83,0,0,0-1.46.63,2.59,2.59,0,0,0-.54,1.74,2.46,2.46,0,0,0,.54,1.68,1.86,1.86,0,0,0,1.46.61,1.75,1.75,0,0,0,1.43-.6,2.6,2.6,0,0,0,.51-1.72,2.61,2.61,0,0,0-.51-1.73A1.73,1.73,0,0,0,279,26Z" fill="#1e1e1e"/>
      <path d="M288.43,31.31h-1.35l-2.65-2.88h0v2.88h-1V22.43h1v5.63h0L287,25.31h1.26l-2.78,2.89Z" fill="#1e1e1e"/>
      <path d="M294.23,28.55H290a2.21,2.21,0,0,0,.54,1.55,1.85,1.85,0,0,0,1.41.54,2.94,2.94,0,0,0,1.87-.67v.91a3.53,3.53,0,0,1-2.1.57,2.51,2.51,0,0,1-2-.82,3.31,3.31,0,0,1-.73-2.3,3.28,3.28,0,0,1,.79-2.28,2.55,2.55,0,0,1,2-.88,2.25,2.25,0,0,1,1.82.76,3.18,3.18,0,0,1,.64,2.12Zm-1-.81a2,2,0,0,0-.4-1.3,1.37,1.37,0,0,0-1.1-.46,1.57,1.57,0,0,0-1.16.48,2.24,2.24,0,0,0-.58,1.28Z" fill="#1e1e1e"/>
      <path d="M300.67,31.31h-1V27.89c0-1.28-.47-1.91-1.4-1.91a1.5,1.5,0,0,0-1.19.54,2,2,0,0,0-.47,1.37v3.42h-1v-6h1v1h0a2.16,2.16,0,0,1,2-1.14,1.81,1.81,0,0,1,1.5.64,2.79,2.79,0,0,1,.53,1.83Z" fill="#1e1e1e"/>
      <path d="M214.49,46.42h-.85a7.49,7.49,0,0,1-1.82-5.11,7.78,7.78,0,0,1,1.82-5.2h.86a7.91,7.91,0,0,0-1.84,5.18A7.75,7.75,0,0,0,214.49,46.42Z" fill="#1e1e1e"/>
      <path d="M217.87,41.5a3.76,3.76,0,0,1-.63,2.32,2,2,0,0,1-1.69.83,2.07,2.07,0,0,1-.81-.14v-1a1.37,1.37,0,0,0,.82.23c.89,0,1.33-.76,1.33-2.26v-5.4h1Z" fill="#1e1e1e"/>
      <path d="M230,36.11l-2.38,8.4h-1.15l-1.73-6.14a3.78,3.78,0,0,1-.13-.86h0a4.09,4.09,0,0,1-.15.85l-1.74,6.15h-1.14l-2.46-8.4h1.08l1.79,6.44a4.57,4.57,0,0,1,.14.85h0a5.24,5.24,0,0,1,.18-.85l1.86-6.44h.94l1.78,6.49a4.72,4.72,0,0,1,.14.79h0a3.93,3.93,0,0,1,.15-.81l1.72-6.47Z" fill="#1e1e1e"/>
      <path d="M236.41,37H234v7.51h-1V37h-2.42v-.89h5.83Z" fill="#1e1e1e"/>
      <path d="M237.63,46.42h-.86a7.75,7.75,0,0,0,1.83-5.13,7.91,7.91,0,0,0-1.84-5.18h.87a7.78,7.78,0,0,1,1.82,5.2A7.49,7.49,0,0,1,237.63,46.42Z" fill="#1e1e1e"/>
    </g>
    <g>
      <path d="M217.82,93a4.89,4.89,0,0,1-2.32.49,3.73,3.73,0,0,1-2.87-1.15,4.26,4.26,0,0,1-1.08-3A4.5,4.5,0,0,1,212.76,86a4.12,4.12,0,0,1,3.08-1.24,4.92,4.92,0,0,1,2,.34v1a4.08,4.08,0,0,0-2-.5,3.07,3.07,0,0,0-2.35,1,3.66,3.66,0,0,0-.9,2.59,3.44,3.44,0,0,0,.84,2.44,2.87,2.87,0,0,0,2.21.92,4.11,4.11,0,0,0,2.19-.57Z" fill="#1e1e1e"/>
      <path d="M224.22,90.55H220a2.21,2.21,0,0,0,.54,1.55,1.85,1.85,0,0,0,1.42.54,2.93,2.93,0,0,0,1.86-.67v.91a3.52,3.52,0,0,1-2.09.57,2.52,2.52,0,0,1-2-.82,3.81,3.81,0,0,1,.07-4.58,2.53,2.53,0,0,1,2-.88,2.25,2.25,0,0,1,1.82.76,3.18,3.18,0,0,1,.64,2.12Zm-1-.81a2,2,0,0,0-.4-1.3,1.36,1.36,0,0,0-1.1-.46,1.55,1.55,0,0,0-1.15.48,2.19,2.19,0,0,0-.59,1.28Z" fill="#1e1e1e"/>
      <path d="M228.81,88.28a1.18,1.18,0,0,0-.73-.19,1.23,1.23,0,0,0-1,.58,2.72,2.72,0,0,0-.41,1.58v3.06h-1v-6h1v1.24h0a2.12,2.12,0,0,1,.63-1,1.4,1.4,0,0,1,.94-.36,1.5,1.5,0,0,1,.58.09Z" fill="#1e1e1e"/>
      <path d="M232.63,93.25a1.76,1.76,0,0,1-.89.19c-1.05,0-1.58-.59-1.58-1.76V88.13h-1v-.82h1V85.85l1-.32v1.78h1.51v.82h-1.51v3.38a1.37,1.37,0,0,0,.21.86.81.81,0,0,0,.68.26,1,1,0,0,0,.62-.2Z" fill="#1e1e1e"/>
      <path d="M234.41,85.79a.6.6,0,0,1-.44-.18.59.59,0,0,1-.18-.44.61.61,0,0,1,.18-.45.6.6,0,0,1,.44-.18.64.64,0,0,1,.45.18.61.61,0,0,1,.18.45.62.62,0,0,1-.18.44A.64.64,0,0,1,234.41,85.79Zm.47,7.52h-1v-6h1Z" fill="#1e1e1e"/>
      <path d="M239.79,85.27a1.35,1.35,0,0,0-.64-.16c-.67,0-1,.43-1,1.27v.93h1.41v.82h-1.41v5.18h-.95V88.13h-1v-.82h1v-1a2,2,0,0,1,.54-1.49,1.82,1.82,0,0,1,1.36-.55,1.92,1.92,0,0,1,.7.1Z" fill="#1e1e1e"/>
      <path d="M241.07,85.79a.6.6,0,0,1-.44-.18.59.59,0,0,1-.18-.44.61.61,0,0,1,.18-.45.6.6,0,0,1,.44-.18.62.62,0,0,1,.63.63.62.62,0,0,1-.18.44A.61.61,0,0,1,241.07,85.79Zm.47,7.52h-1v-6h1Z" fill="#1e1e1e"/>
      <path d="M247.57,93a3.08,3.08,0,0,1-1.64.42,2.75,2.75,0,0,1-2.07-.83,3.06,3.06,0,0,1-.79-2.17,3.35,3.35,0,0,1,.85-2.38,3,3,0,0,1,2.27-.9,3.27,3.27,0,0,1,1.4.29v1a2.42,2.42,0,0,0-1.43-.47,1.92,1.92,0,0,0-1.51.66,2.46,2.46,0,0,0-.59,1.73,2.36,2.36,0,0,0,.55,1.66,1.91,1.91,0,0,0,1.49.61,2.38,2.38,0,0,0,1.47-.52Z" fill="#1e1e1e"/>
      <path d="M253.32,93.31h-1v-.94h0a2,2,0,0,1-1.85,1.08,2,2,0,0,1-1.4-.47,1.65,1.65,0,0,1-.51-1.26c0-1.12.66-1.78,2-2l1.8-.25q0-1.53-1.23-1.53a2.91,2.91,0,0,0-2,.74v-1a3.76,3.76,0,0,1,2-.56c1.41,0,2.11.75,2.11,2.24Zm-1-3-1.45.19a2.37,2.37,0,0,0-1,.34.93.93,0,0,0-.34.84.89.89,0,0,0,.31.71,1.19,1.19,0,0,0,.83.28,1.55,1.55,0,0,0,1.19-.5,1.79,1.79,0,0,0,.46-1.27Z" fill="#1e1e1e"/>
      <path d="M257.92,93.25a1.82,1.82,0,0,1-.9.19c-1,0-1.58-.59-1.58-1.76V88.13h-1v-.82h1V85.85l1-.32v1.78h1.52v.82H256.4v3.38a1.37,1.37,0,0,0,.21.86.83.83,0,0,0,.68.26,1.05,1.05,0,0,0,.63-.2Z" fill="#1e1e1e"/>
      <path d="M264,90.55h-4.23a2.25,2.25,0,0,0,.53,1.55,1.88,1.88,0,0,0,1.42.54,2.94,2.94,0,0,0,1.87-.67v.91a3.53,3.53,0,0,1-2.1.57,2.51,2.51,0,0,1-2-.82,3.83,3.83,0,0,1,.06-4.58,2.54,2.54,0,0,1,2-.88,2.26,2.26,0,0,1,1.83.76,3.18,3.18,0,0,1,.64,2.12Zm-1-.81a2,2,0,0,0-.4-1.3,1.37,1.37,0,0,0-1.1-.46,1.57,1.57,0,0,0-1.16.48,2.24,2.24,0,0,0-.58,1.28Z" fill="#1e1e1e"/>
      <path d="M269.75,92.44h0v.87h-1V84.43h1v3.93h0a2.27,2.27,0,0,1,2.07-1.19,2.2,2.2,0,0,1,1.81.81,3.32,3.32,0,0,1,.65,2.15,3.73,3.73,0,0,1-.73,2.42,2.46,2.46,0,0,1-2,.9A2,2,0,0,1,269.75,92.44Zm0-2.42v.84a1.73,1.73,0,0,0,.49,1.26A1.71,1.71,0,0,0,272.8,92a3,3,0,0,0,.5-1.85,2.41,2.41,0,0,0-.47-1.57,1.51,1.51,0,0,0-1.25-.57,1.7,1.7,0,0,0-1.35.58A2.15,2.15,0,0,0,269.72,90Z" fill="#1e1e1e"/>
      <path d="M280.11,93.31h-1v-.94h0a2,2,0,0,1-1.85,1.08,2,2,0,0,1-1.4-.47,1.65,1.65,0,0,1-.51-1.26c0-1.12.66-1.78,2-2l1.8-.25c0-1-.41-1.53-1.24-1.53a2.9,2.9,0,0,0-2,.74v-1a3.76,3.76,0,0,1,2-.56c1.41,0,2.11.75,2.11,2.24Zm-1-3-1.45.19a2.37,2.37,0,0,0-1,.34.93.93,0,0,0-.34.84.89.89,0,0,0,.31.71,1.19,1.19,0,0,0,.83.28,1.51,1.51,0,0,0,1.18-.5,1.75,1.75,0,0,0,.47-1.27Z" fill="#1e1e1e"/>
      <path d="M281.56,93.09v-1a2.82,2.82,0,0,0,1.73.58q1.26,0,1.26-.84a.68.68,0,0,0-.11-.41,1,1,0,0,0-.29-.29,2.19,2.19,0,0,0-.43-.24l-.54-.21c-.26-.11-.5-.21-.7-.32A2.22,2.22,0,0,1,282,90a1.38,1.38,0,0,1-.31-.46,1.63,1.63,0,0,1-.1-.61,1.38,1.38,0,0,1,.19-.74,1.7,1.7,0,0,1,.52-.55,2.71,2.71,0,0,1,.73-.33,3.49,3.49,0,0,1,.86-.11,3.41,3.41,0,0,1,1.39.27v1a2.7,2.7,0,0,0-1.52-.43,1.88,1.88,0,0,0-.49.06,1.26,1.26,0,0,0-.37.17,1,1,0,0,0-.24.27.67.67,0,0,0-.09.34.75.75,0,0,0,.09.39,1,1,0,0,0,.25.29,2.11,2.11,0,0,0,.4.22l.53.22a7.07,7.07,0,0,1,.72.31,2.45,2.45,0,0,1,.53.36,1.37,1.37,0,0,1,.47,1.09,1.51,1.51,0,0,1-.2.78,1.58,1.58,0,0,1-.52.54,2.28,2.28,0,0,1-.76.33,3.71,3.71,0,0,1-.9.1A3.37,3.37,0,0,1,281.56,93.09Z" fill="#1e1e1e"/>
      <path d="M291.84,90.55H287.6a2.25,2.25,0,0,0,.54,1.55,1.87,1.87,0,0,0,1.42.54,2.93,2.93,0,0,0,1.86-.67v.91a3.5,3.5,0,0,1-2.09.57,2.52,2.52,0,0,1-2-.82,3.36,3.36,0,0,1-.73-2.3,3.29,3.29,0,0,1,.8-2.28,2.53,2.53,0,0,1,2-.88,2.25,2.25,0,0,1,1.82.76,3.18,3.18,0,0,1,.65,2.12Zm-1-.81a2,2,0,0,0-.4-1.3,1.36,1.36,0,0,0-1.1-.46,1.55,1.55,0,0,0-1.15.48,2.25,2.25,0,0,0-.59,1.28Z" fill="#1e1e1e"/>
      <path d="M298.41,93.31h-1v-1h0a2.43,2.43,0,0,1-3.87.36,3.27,3.27,0,0,1-.68-2.2,3.57,3.57,0,0,1,.75-2.38,2.46,2.46,0,0,1,2-.9,1.93,1.93,0,0,1,1.8,1h0V84.43h1Zm-1-2.71v-.89a1.73,1.73,0,0,0-.48-1.23,1.78,1.78,0,0,0-2.6.14,2.81,2.81,0,0,0-.51,1.78,2.49,2.49,0,0,0,.49,1.64,1.57,1.57,0,0,0,1.29.6,1.65,1.65,0,0,0,1.31-.58A2.16,2.16,0,0,0,297.45,90.6Z" fill="#1e1e1e"/>
      <path d="M216.27,106.51h-1v-.94h0a2.2,2.2,0,0,1-3.25.61,1.68,1.68,0,0,1-.5-1.26c0-1.12.66-1.78,2-2l1.8-.25c0-1-.42-1.53-1.24-1.53a2.94,2.94,0,0,0-2,.74v-1a3.76,3.76,0,0,1,2-.56c1.41,0,2.12.75,2.12,2.24Zm-1-3-1.45.19a2.43,2.43,0,0,0-1,.34,1,1,0,0,0-.34.84.9.9,0,0,0,.32.71,1.16,1.16,0,0,0,.83.28,1.51,1.51,0,0,0,1.18-.5,1.8,1.8,0,0,0,.47-1.27Z" fill="#1e1e1e"/>
      <path d="M222.93,106.51h-1v-1h0a2,2,0,0,1-1.86,1.09c-1.43,0-2.14-.85-2.14-2.55v-3.59h1v3.43c0,1.27.49,1.9,1.46,1.9a1.44,1.44,0,0,0,1.15-.52A1.92,1.92,0,0,0,222,104v-3.46h1Z" fill="#1e1e1e"/>
      <path d="M227.65,106.45a1.76,1.76,0,0,1-.89.19c-1,0-1.58-.59-1.58-1.76v-3.55h-1v-.82h1V99.05l1-.31v1.77h1.51v.82h-1.51v3.38a1.37,1.37,0,0,0,.21.86.81.81,0,0,0,.68.26,1,1,0,0,0,.62-.2Z" fill="#1e1e1e"/>
      <path d="M233.92,106.51h-1v-3.46c0-1.25-.47-1.87-1.4-1.87a1.51,1.51,0,0,0-1.18.54,2,2,0,0,0-.48,1.39v3.4h-1V97.63h1v3.88h0a2.18,2.18,0,0,1,2-1.14c1.35,0,2,.81,2,2.44Z" fill="#1e1e1e"/>
      <path d="M240.55,103.75h-4.24a2.3,2.3,0,0,0,.54,1.55,1.88,1.88,0,0,0,1.42.54,2.89,2.89,0,0,0,1.86-.67v.91a3.47,3.47,0,0,1-2.09.57,2.53,2.53,0,0,1-2-.82,3.35,3.35,0,0,1-.72-2.3,3.28,3.28,0,0,1,.79-2.28,2.54,2.54,0,0,1,2-.88,2.24,2.24,0,0,1,1.82.76,3.18,3.18,0,0,1,.65,2.12Zm-1-.81a1.91,1.91,0,0,0-.4-1.3,1.36,1.36,0,0,0-1.1-.46,1.56,1.56,0,0,0-1.15.48,2.25,2.25,0,0,0-.59,1.28Z" fill="#1e1e1e"/>
      <path d="M247,106.51h-1v-3.42c0-1.27-.46-1.91-1.39-1.91a1.54,1.54,0,0,0-1.2.54,2,2,0,0,0-.47,1.37v3.42h-1v-6h1v1h0a2.16,2.16,0,0,1,2-1.14,1.82,1.82,0,0,1,1.5.64,2.79,2.79,0,0,1,.52,1.83Z" fill="#1e1e1e"/>
      <path d="M251.58,106.45a1.82,1.82,0,0,1-.9.19c-1.05,0-1.58-.59-1.58-1.76v-3.55h-1v-.82h1V99.05l1-.31v1.77h1.52v.82h-1.52v3.38a1.37,1.37,0,0,0,.21.86.83.83,0,0,0,.68.26,1.05,1.05,0,0,0,.63-.2Z" fill="#1e1e1e"/>
      <path d="M253.35,99a.6.6,0,0,1-.44-.18.59.59,0,0,1-.18-.44.61.61,0,0,1,.18-.45.6.6,0,0,1,.44-.18.62.62,0,0,1,.63.63.62.62,0,0,1-.18.44A.61.61,0,0,1,253.35,99Zm.47,7.52h-1v-6h1Z" fill="#1e1e1e"/>
      <path d="M259.86,106.24a3.23,3.23,0,0,1-1.65.41,2.75,2.75,0,0,1-2.07-.83,3.06,3.06,0,0,1-.78-2.17,3.3,3.3,0,0,1,.85-2.38,3,3,0,0,1,2.26-.9,3.27,3.27,0,0,1,1.4.29v1a2.4,2.4,0,0,0-1.43-.47,1.92,1.92,0,0,0-1.51.66,2.5,2.5,0,0,0-.59,1.73,2.36,2.36,0,0,0,.55,1.66,1.91,1.91,0,0,0,1.49.61,2.43,2.43,0,0,0,1.48-.52Z" fill="#1e1e1e"/>
      <path d="M265.6,106.51h-1v-.94h0a2.2,2.2,0,0,1-3.25.61,1.65,1.65,0,0,1-.51-1.26c0-1.12.66-1.78,2-2l1.8-.25q0-1.53-1.23-1.53a2.91,2.91,0,0,0-2,.74v-1a3.76,3.76,0,0,1,2-.56c1.41,0,2.11.75,2.11,2.24Zm-1-3-1.44.19a2.37,2.37,0,0,0-1,.34.93.93,0,0,0-.34.84.89.89,0,0,0,.31.71,1.2,1.2,0,0,0,.84.28,1.53,1.53,0,0,0,1.18-.5,1.79,1.79,0,0,0,.46-1.27Z" fill="#1e1e1e"/>
      <path d="M270.2,106.45a1.82,1.82,0,0,1-.9.19c-1.05,0-1.58-.59-1.58-1.76v-3.55h-1v-.82h1V99.05l1-.31v1.77h1.51v.82h-1.51v3.38a1.38,1.38,0,0,0,.2.86.83.83,0,0,0,.68.26,1.05,1.05,0,0,0,.63-.2Z" fill="#1e1e1e"/>
      <path d="M272,99a.6.6,0,0,1-.44-.18.59.59,0,0,1-.18-.44.61.61,0,0,1,.18-.45.6.6,0,0,1,.44-.18.61.61,0,0,1,.45.18.62.62,0,0,1,.19.45.63.63,0,0,1-.19.44A.61.61,0,0,1,272,99Zm.47,7.52h-1v-6h1Z" fill="#1e1e1e"/>
      <path d="M276.89,106.65a2.79,2.79,0,0,1-2.12-.84,3.1,3.1,0,0,1-.79-2.23,3.24,3.24,0,0,1,.82-2.36,3,3,0,0,1,2.24-.85,2.69,2.69,0,0,1,2.09.83,3.77,3.77,0,0,1-.06,4.59A2.87,2.87,0,0,1,276.89,106.65Zm.07-5.47a1.83,1.83,0,0,0-1.46.63,2.59,2.59,0,0,0-.54,1.74,2.41,2.41,0,0,0,.55,1.68,1.84,1.84,0,0,0,1.45.61,1.77,1.77,0,0,0,1.44-.6,3.23,3.23,0,0,0,0-3.45A1.75,1.75,0,0,0,277,101.18Z" fill="#1e1e1e"/>
      <path d="M286.4,106.51h-1v-3.42c0-1.27-.47-1.91-1.4-1.91a1.52,1.52,0,0,0-1.19.54,2,2,0,0,0-.47,1.37v3.42h-1v-6h1v1h0a2.17,2.17,0,0,1,2-1.14,1.83,1.83,0,0,1,1.51.64,2.85,2.85,0,0,1,.52,1.83Z" fill="#1e1e1e"/>
    </g>
    <g>
      <path d="M218.13,160.31H217l-1.4-2.36a5.74,5.74,0,0,0-.38-.55,1.68,1.68,0,0,0-.37-.38,1.36,1.36,0,0,0-.41-.22,1.9,1.9,0,0,0-.5-.06h-.8v3.57h-1v-8.4h2.51a3.31,3.31,0,0,1,1,.14,2.24,2.24,0,0,1,.8.41,2.06,2.06,0,0,1,.54.7,2.33,2.33,0,0,1,.19,1,2.28,2.28,0,0,1-.13.8,2.25,2.25,0,0,1-.37.66,2.14,2.14,0,0,1-.59.48,3,3,0,0,1-.77.32v0a1.81,1.81,0,0,1,.66.5,2.75,2.75,0,0,1,.28.37l.31.48Zm-5-7.51v3h1.33a1.83,1.83,0,0,0,.68-.12,1.59,1.59,0,0,0,.55-.32,1.26,1.26,0,0,0,.35-.51,1.6,1.6,0,0,0,.13-.67,1.31,1.31,0,0,0-.43-1,1.85,1.85,0,0,0-1.27-.38Z" fill="#1e1e1e"/>
      <path d="M223.62,157.55h-4.24a2.3,2.3,0,0,0,.54,1.55,1.88,1.88,0,0,0,1.42.54,2.94,2.94,0,0,0,1.87-.67v.91a3.53,3.53,0,0,1-2.1.57,2.51,2.51,0,0,1-2-.82,3.83,3.83,0,0,1,.06-4.58,2.54,2.54,0,0,1,2-.88,2.26,2.26,0,0,1,1.83.76,3.18,3.18,0,0,1,.64,2.12Zm-1-.81a2,2,0,0,0-.4-1.3,1.37,1.37,0,0,0-1.1-.46,1.57,1.57,0,0,0-1.16.48,2.24,2.24,0,0,0-.58,1.28Z" fill="#1e1e1e"/>
      <path d="M224.71,160.09v-1a2.82,2.82,0,0,0,1.73.58c.84,0,1.27-.28,1.27-.84a.76.76,0,0,0-.11-.41,1,1,0,0,0-.3-.29,1.94,1.94,0,0,0-.43-.24l-.54-.21c-.26-.11-.5-.21-.7-.32a2.22,2.22,0,0,1-.5-.36,1.35,1.35,0,0,1-.3-.46,1.62,1.62,0,0,1-.11-.61,1.39,1.39,0,0,1,.2-.74,1.67,1.67,0,0,1,.51-.55,2.77,2.77,0,0,1,.74-.33,3.56,3.56,0,0,1,2.24.16v1a2.7,2.7,0,0,0-1.52-.43,1.88,1.88,0,0,0-.49.06,1.4,1.4,0,0,0-.37.17,1,1,0,0,0-.24.27.77.77,0,0,0-.08.34.87.87,0,0,0,.08.39,1,1,0,0,0,.25.29,2.11,2.11,0,0,0,.4.22l.53.22a6.21,6.21,0,0,1,.72.31,2.82,2.82,0,0,1,.54.36,1.41,1.41,0,0,1,.34.47,1.46,1.46,0,0,1,.12.62,1.51,1.51,0,0,1-.2.78,1.58,1.58,0,0,1-.52.54,2.28,2.28,0,0,1-.76.33,3.68,3.68,0,0,1-.89.1A3.39,3.39,0,0,1,224.71,160.09Z" fill="#1e1e1e"/>
      <path d="M232.67,160.45a2.79,2.79,0,0,1-2.12-.84,3.1,3.1,0,0,1-.79-2.23,3.24,3.24,0,0,1,.82-2.36,3,3,0,0,1,2.23-.85,2.7,2.7,0,0,1,2.1.83,3.77,3.77,0,0,1-.06,4.59A2.87,2.87,0,0,1,232.67,160.45Zm.07-5.47a1.83,1.83,0,0,0-1.46.63,2.59,2.59,0,0,0-.54,1.74,2.41,2.41,0,0,0,.55,1.68,1.82,1.82,0,0,0,1.45.61,1.77,1.77,0,0,0,1.44-.6,3.23,3.23,0,0,0,0-3.45A1.75,1.75,0,0,0,232.74,155Z" fill="#1e1e1e"/>
      <path d="M242.05,160.31h-1v-.95h0a2,2,0,0,1-1.85,1.09c-1.43,0-2.14-.85-2.14-2.55v-3.59h1v3.43c0,1.27.49,1.9,1.46,1.9a1.44,1.44,0,0,0,1.15-.52,1.92,1.92,0,0,0,.46-1.35v-3.46h1Z" fill="#1e1e1e"/>
      <path d="M247.12,155.28a1.18,1.18,0,0,0-.73-.19,1.23,1.23,0,0,0-1,.58,2.72,2.72,0,0,0-.41,1.58v3.06h-1v-6h1v1.24h0a2.12,2.12,0,0,1,.63-1,1.42,1.42,0,0,1,.94-.36,1.5,1.5,0,0,1,.58.09Z" fill="#1e1e1e"/>
      <path d="M252.25,160a3.1,3.1,0,0,1-1.64.42,2.72,2.72,0,0,1-2.07-.83,3,3,0,0,1-.79-2.17,3.3,3.3,0,0,1,.85-2.38,3,3,0,0,1,2.27-.9,3.23,3.23,0,0,1,1.39.29v1a2.38,2.38,0,0,0-1.43-.47,2,2,0,0,0-1.51.66,2.5,2.5,0,0,0-.59,1.73,2.36,2.36,0,0,0,.56,1.66,1.89,1.89,0,0,0,1.48.61,2.39,2.39,0,0,0,1.48-.52Z" fill="#1e1e1e"/>
      <path d="M258.53,157.55h-4.24a2.21,2.21,0,0,0,.54,1.55,1.85,1.85,0,0,0,1.42.54,2.93,2.93,0,0,0,1.86-.67v.91a3.52,3.52,0,0,1-2.09.57,2.52,2.52,0,0,1-2-.82,3.36,3.36,0,0,1-.73-2.3,3.29,3.29,0,0,1,.8-2.28,2.53,2.53,0,0,1,2-.88,2.25,2.25,0,0,1,1.82.76,3.18,3.18,0,0,1,.65,2.12Zm-1-.81a2,2,0,0,0-.4-1.3A1.36,1.36,0,0,0,256,155a1.55,1.55,0,0,0-1.15.48,2.25,2.25,0,0,0-.59,1.28Z" fill="#1e1e1e"/>
      <path d="M264.38,157.13v3.18h-1v-8.4h2.31a3.08,3.08,0,0,1,2.09.65,2.34,2.34,0,0,1,.74,1.86,2.54,2.54,0,0,1-.82,2,3.13,3.13,0,0,1-2.22.76Zm0-4.33v3.44h1a2.32,2.32,0,0,0,1.56-.46,1.67,1.67,0,0,0,.53-1.32c0-1.11-.65-1.66-2-1.66Z" fill="#1e1e1e"/>
      <path d="M273.12,155.28a1.18,1.18,0,0,0-.73-.19,1.23,1.23,0,0,0-1,.58,2.64,2.64,0,0,0-.41,1.58v3.06h-1v-6h1v1.24h0a2.12,2.12,0,0,1,.63-1,1.4,1.4,0,0,1,.94-.36,1.5,1.5,0,0,1,.58.09Z" fill="#1e1e1e"/>
      <path d="M276.67,160.45a2.79,2.79,0,0,1-2.13-.84,3.1,3.1,0,0,1-.79-2.23,3.24,3.24,0,0,1,.82-2.36,3,3,0,0,1,2.24-.85,2.69,2.69,0,0,1,2.09.83,3.77,3.77,0,0,1-.06,4.59A2.85,2.85,0,0,1,276.67,160.45Zm.07-5.47a1.84,1.84,0,0,0-1.47.63,2.59,2.59,0,0,0-.54,1.74,2.41,2.41,0,0,0,.55,1.68,1.85,1.85,0,0,0,1.46.61,1.77,1.77,0,0,0,1.43-.6,3.23,3.23,0,0,0,0-3.45A1.74,1.74,0,0,0,276.74,155Z" fill="#1e1e1e"/>
      <path d="M285.91,154.31l-2.39,6h-.95l-2.27-6h1.05l1.53,4.36a4.27,4.27,0,0,1,.21.84h0a3.94,3.94,0,0,1,.19-.82l1.59-4.38Z" fill="#1e1e1e"/>
      <path d="M287.43,152.79a.6.6,0,0,1-.44-.18.59.59,0,0,1-.18-.44.61.61,0,0,1,.18-.45.6.6,0,0,1,.44-.18.63.63,0,0,1,.45.18.61.61,0,0,1,.18.45.62.62,0,0,1-.18.44A.63.63,0,0,1,287.43,152.79Zm.47,7.52h-1v-6h1Z" fill="#1e1e1e"/>
      <path d="M295,160.31h-1v-1h0a2.21,2.21,0,0,1-2.06,1.16,2.25,2.25,0,0,1-1.81-.8,3.33,3.33,0,0,1-.68-2.2,3.57,3.57,0,0,1,.75-2.38,2.48,2.48,0,0,1,2-.9,1.91,1.91,0,0,1,1.8,1h0v-3.71h1Zm-1-2.71v-.89a1.73,1.73,0,0,0-.48-1.23,1.62,1.62,0,0,0-1.22-.5,1.66,1.66,0,0,0-1.38.64,2.87,2.87,0,0,0-.5,1.78,2.54,2.54,0,0,0,.48,1.64,1.59,1.59,0,0,0,1.3.6,1.63,1.63,0,0,0,1.3-.58A2.11,2.11,0,0,0,294,157.6Z" fill="#1e1e1e"/>
      <path d="M301.73,157.55H297.5a2.21,2.21,0,0,0,.54,1.55,1.85,1.85,0,0,0,1.41.54,2.94,2.94,0,0,0,1.87-.67v.91a3.53,3.53,0,0,1-2.1.57,2.51,2.51,0,0,1-2-.82,3.83,3.83,0,0,1,.06-4.58,2.55,2.55,0,0,1,2-.88,2.25,2.25,0,0,1,1.82.76,3.18,3.18,0,0,1,.64,2.12Zm-1-.81a2,2,0,0,0-.4-1.3,1.37,1.37,0,0,0-1.1-.46,1.57,1.57,0,0,0-1.16.48,2.24,2.24,0,0,0-.58,1.28Z" fill="#1e1e1e"/>
      <path d="M306.31,155.28a1.14,1.14,0,0,0-.72-.19,1.21,1.21,0,0,0-1,.58,2.64,2.64,0,0,0-.41,1.58v3.06h-1v-6h1v1.24h0a2.12,2.12,0,0,1,.63-1,1.54,1.54,0,0,1,1.51-.27Z" fill="#1e1e1e"/>
      <path d="M308.19,151.91v2.62h-.85v-2.62Z" fill="#1e1e1e"/>
      <path d="M309.75,160.09v-1a2.84,2.84,0,0,0,1.73.58c.85,0,1.27-.28,1.27-.84a.76.76,0,0,0-.11-.41,1,1,0,0,0-.29-.29,2.28,2.28,0,0,0-.44-.24l-.53-.21a6.76,6.76,0,0,1-.7-.32,2.55,2.55,0,0,1-.51-.36,1.52,1.52,0,0,1-.3-.46,1.63,1.63,0,0,1-.1-.61,1.38,1.38,0,0,1,.19-.74,1.78,1.78,0,0,1,.51-.55,2.77,2.77,0,0,1,.74-.33,3.59,3.59,0,0,1,2.25.16v1a2.71,2.71,0,0,0-1.53-.43,1.75,1.75,0,0,0-.48.06,1.15,1.15,0,0,0-.37.17.91.91,0,0,0-.25.27.77.77,0,0,0-.08.34.87.87,0,0,0,.08.39,1,1,0,0,0,.25.29,2.48,2.48,0,0,0,.4.22l.54.22a6.85,6.85,0,0,1,.71.31,2.82,2.82,0,0,1,.54.36,1.41,1.41,0,0,1,.34.47,1.46,1.46,0,0,1,.12.62,1.5,1.5,0,0,1-.19.78,1.61,1.61,0,0,1-.53.54,2.32,2.32,0,0,1-.75.33,3.82,3.82,0,0,1-.9.1A3.41,3.41,0,0,1,309.75,160.09Z" fill="#1e1e1e"/>
      <path d="M216.06,173.24a3.19,3.19,0,0,1-1.64.41,2.75,2.75,0,0,1-2.07-.83,3.06,3.06,0,0,1-.79-2.17,3.35,3.35,0,0,1,.85-2.38,3,3,0,0,1,2.27-.9,3.2,3.2,0,0,1,1.39.29v1a2.38,2.38,0,0,0-1.43-.47,1.91,1.91,0,0,0-1.5.66,2.46,2.46,0,0,0-.59,1.73,2.36,2.36,0,0,0,.55,1.66,1.89,1.89,0,0,0,1.49.61,2.38,2.38,0,0,0,1.47-.52Z" fill="#1e1e1e"/>
      <path d="M222.5,173.51h-1v-3.46c0-1.25-.47-1.87-1.4-1.87a1.51,1.51,0,0,0-1.18.54,2,2,0,0,0-.48,1.39v3.4h-1v-8.88h1v3.88h0a2.18,2.18,0,0,1,2-1.14c1.35,0,2,.81,2,2.44Z" fill="#1e1e1e"/>
      <path d="M226.81,173.65a2.79,2.79,0,0,1-2.12-.84,3.1,3.1,0,0,1-.79-2.23,3.24,3.24,0,0,1,.82-2.36,3,3,0,0,1,2.24-.85,2.69,2.69,0,0,1,2.09.83,3.77,3.77,0,0,1-.06,4.59A2.87,2.87,0,0,1,226.81,173.65Zm.07-5.47a1.83,1.83,0,0,0-1.46.63,2.59,2.59,0,0,0-.54,1.74,2.41,2.41,0,0,0,.55,1.68,1.84,1.84,0,0,0,1.45.61,1.77,1.77,0,0,0,1.44-.6,3.23,3.23,0,0,0,0-3.45A1.75,1.75,0,0,0,226.88,168.18Z" fill="#1e1e1e"/>
      <path d="M231.83,166a.6.6,0,0,1-.44-.18.59.59,0,0,1-.18-.44.61.61,0,0,1,.18-.45.6.6,0,0,1,.44-.18.62.62,0,0,1,.63.63.62.62,0,0,1-.18.44A.61.61,0,0,1,231.83,166Zm.47,7.52h-1v-6h1Z" fill="#1e1e1e"/>
      <path d="M238.33,173.24a3.17,3.17,0,0,1-1.64.41,2.75,2.75,0,0,1-2.07-.83,3.06,3.06,0,0,1-.79-2.17,3.35,3.35,0,0,1,.85-2.38,3,3,0,0,1,2.27-.9,3.27,3.27,0,0,1,1.4.29v1a2.42,2.42,0,0,0-1.43-.47,1.92,1.92,0,0,0-1.51.66,2.46,2.46,0,0,0-.59,1.73,2.36,2.36,0,0,0,.55,1.66,1.91,1.91,0,0,0,1.49.61,2.38,2.38,0,0,0,1.47-.52Z" fill="#1e1e1e"/>
      <path d="M244.61,170.75h-4.24a2.3,2.3,0,0,0,.54,1.55,1.88,1.88,0,0,0,1.42.54,2.89,2.89,0,0,0,1.86-.67v.91a3.47,3.47,0,0,1-2.09.57,2.53,2.53,0,0,1-2-.82,3.35,3.35,0,0,1-.72-2.3,3.28,3.28,0,0,1,.79-2.28,2.54,2.54,0,0,1,2-.88,2.22,2.22,0,0,1,1.82.76,3.18,3.18,0,0,1,.65,2.12Zm-1-.81a2,2,0,0,0-.41-1.3,1.35,1.35,0,0,0-1.09-.46,1.57,1.57,0,0,0-1.16.48,2.25,2.25,0,0,0-.59,1.28Z" fill="#1e1e1e"/>
      <path d="M251.86,173.65a2.79,2.79,0,0,1-2.13-.84,3.1,3.1,0,0,1-.79-2.23,3.21,3.21,0,0,1,.83-2.36,3,3,0,0,1,2.23-.85,2.69,2.69,0,0,1,2.09.83,3.28,3.28,0,0,1,.76,2.29,3.21,3.21,0,0,1-.82,2.3A2.85,2.85,0,0,1,251.86,173.65Zm.07-5.47a1.84,1.84,0,0,0-1.47.63,2.59,2.59,0,0,0-.54,1.74,2.46,2.46,0,0,0,.55,1.68,1.85,1.85,0,0,0,1.46.61,1.75,1.75,0,0,0,1.43-.6,3.23,3.23,0,0,0,0-3.45A1.73,1.73,0,0,0,251.93,168.18Z" fill="#1e1e1e"/>
      <path d="M259.35,165.47a1.35,1.35,0,0,0-.64-.16c-.67,0-1,.43-1,1.27v.93h1.41v.82H257.7v5.18h-1v-5.18h-1v-.82h1v-1a2,2,0,0,1,.55-1.49,1.82,1.82,0,0,1,1.36-.55,2,2,0,0,1,.7.1Z" fill="#1e1e1e"/>
      <path d="M267.72,173.51h-1v-.94h0a2,2,0,0,1-1.84,1.08,2,2,0,0,1-1.4-.47,1.65,1.65,0,0,1-.51-1.26c0-1.12.66-1.78,2-2l1.8-.25c0-1-.41-1.53-1.24-1.53a2.94,2.94,0,0,0-2,.74v-1a3.76,3.76,0,0,1,2-.56c1.41,0,2.12.75,2.12,2.24Zm-1-3-1.45.19a2.48,2.48,0,0,0-1,.34,1,1,0,0,0-.34.84.9.9,0,0,0,.32.71,1.18,1.18,0,0,0,.83.28,1.51,1.51,0,0,0,1.18-.5,1.8,1.8,0,0,0,.47-1.27Z" fill="#1e1e1e"/>
      <path d="M274.38,173.51h-1v-.95h0a2,2,0,0,1-1.86,1.09c-1.42,0-2.14-.85-2.14-2.55v-3.59h1v3.43c0,1.27.48,1.9,1.45,1.9a1.47,1.47,0,0,0,1.16-.52,2,2,0,0,0,.45-1.35v-3.46h1Z" fill="#1e1e1e"/>
      <path d="M279.1,173.45a1.76,1.76,0,0,1-.89.19c-1,0-1.58-.59-1.58-1.76v-3.55h-1v-.82h1v-1.46l1-.31v1.77h1.51v.82h-1.51v3.38a1.37,1.37,0,0,0,.21.86.81.81,0,0,0,.68.26,1,1,0,0,0,.62-.2Z" fill="#1e1e1e"/>
      <path d="M285.37,173.51h-1v-3.46c0-1.25-.47-1.87-1.4-1.87a1.51,1.51,0,0,0-1.18.54,2,2,0,0,0-.48,1.39v3.4h-1v-8.88h1v3.88h0a2.18,2.18,0,0,1,2-1.14c1.35,0,2,.81,2,2.44Z" fill="#1e1e1e"/>
      <path d="M292,170.75h-4.24a2.3,2.3,0,0,0,.54,1.55,1.88,1.88,0,0,0,1.42.54,2.89,2.89,0,0,0,1.86-.67v.91a3.47,3.47,0,0,1-2.09.57,2.53,2.53,0,0,1-2-.82,3.35,3.35,0,0,1-.72-2.3,3.28,3.28,0,0,1,.79-2.28,2.54,2.54,0,0,1,2-.88,2.26,2.26,0,0,1,1.83.76,3.18,3.18,0,0,1,.64,2.12Zm-1-.81a2,2,0,0,0-.41-1.3,1.35,1.35,0,0,0-1.09-.46,1.57,1.57,0,0,0-1.16.48,2.18,2.18,0,0,0-.58,1.28Z" fill="#1e1e1e"/>
      <path d="M298.43,173.51h-1v-3.42c0-1.27-.46-1.91-1.39-1.91a1.5,1.5,0,0,0-1.19.54,2,2,0,0,0-.48,1.37v3.42h-1v-6h1v1h0a2.16,2.16,0,0,1,2-1.14,1.82,1.82,0,0,1,1.5.64,2.79,2.79,0,0,1,.52,1.83Z" fill="#1e1e1e"/>
      <path d="M303,173.45a1.82,1.82,0,0,1-.9.19c-1.05,0-1.58-.59-1.58-1.76v-3.55h-1v-.82h1v-1.46l1-.31v1.77H303v.82h-1.51v3.38a1.38,1.38,0,0,0,.2.86.83.83,0,0,0,.68.26,1.05,1.05,0,0,0,.63-.2Z" fill="#1e1e1e"/>
      <path d="M304.8,166a.6.6,0,0,1-.44-.18.59.59,0,0,1-.18-.44.61.61,0,0,1,.18-.45.6.6,0,0,1,.44-.18.61.61,0,0,1,.45.18.62.62,0,0,1,.19.45.63.63,0,0,1-.19.44A.61.61,0,0,1,304.8,166Zm.47,7.52h-1v-6h1Z" fill="#1e1e1e"/>
      <path d="M311.31,173.24a3.19,3.19,0,0,1-1.64.41,2.76,2.76,0,0,1-2.08-.83,3.06,3.06,0,0,1-.78-2.17,3.3,3.3,0,0,1,.85-2.38,3,3,0,0,1,2.26-.9,3.24,3.24,0,0,1,1.4.29v1a2.4,2.4,0,0,0-1.43-.47,1.93,1.93,0,0,0-1.51.66,2.5,2.5,0,0,0-.59,1.73,2.41,2.41,0,0,0,.55,1.66,1.91,1.91,0,0,0,1.49.61,2.41,2.41,0,0,0,1.48-.52Z" fill="#1e1e1e"/>
      <path d="M317.05,173.51h-1v-.94h0a2.2,2.2,0,0,1-3.25.61,1.65,1.65,0,0,1-.51-1.26c0-1.12.66-1.78,2-2l1.8-.25q0-1.53-1.23-1.53a2.91,2.91,0,0,0-2,.74v-1a3.76,3.76,0,0,1,2-.56c1.41,0,2.11.75,2.11,2.24Zm-1-3-1.44.19a2.43,2.43,0,0,0-1,.34.93.93,0,0,0-.34.84.89.89,0,0,0,.31.71,1.2,1.2,0,0,0,.84.28,1.53,1.53,0,0,0,1.18-.5,1.79,1.79,0,0,0,.46-1.27Z" fill="#1e1e1e"/>
      <path d="M321.65,173.45a1.82,1.82,0,0,1-.9.19c-1.05,0-1.57-.59-1.57-1.76v-3.55h-1v-.82h1v-1.46l1-.31v1.77h1.51v.82h-1.51v3.38a1.45,1.45,0,0,0,.2.86.84.84,0,0,0,.68.26,1.05,1.05,0,0,0,.63-.2Z" fill="#1e1e1e"/>
      <path d="M323.42,166a.62.62,0,0,1-.44-.18.59.59,0,0,1-.18-.44.61.61,0,0,1,.18-.45.62.62,0,0,1,.44-.18.61.61,0,0,1,.45.18.58.58,0,0,1,.19.45.59.59,0,0,1-.19.44A.61.61,0,0,1,323.42,166Zm.47,7.52h-1v-6h1Z" fill="#1e1e1e"/>
      <path d="M328.35,173.65a2.79,2.79,0,0,1-2.13-.84,3.1,3.1,0,0,1-.79-2.23,3.24,3.24,0,0,1,.82-2.36,3,3,0,0,1,2.24-.85,2.69,2.69,0,0,1,2.09.83,3.77,3.77,0,0,1-.06,4.59A2.85,2.85,0,0,1,328.35,173.65Zm.07-5.47a1.84,1.84,0,0,0-1.47.63,2.59,2.59,0,0,0-.54,1.74,2.41,2.41,0,0,0,.55,1.68,1.85,1.85,0,0,0,1.46.61,1.77,1.77,0,0,0,1.43-.6,3.23,3.23,0,0,0,0-3.45A1.74,1.74,0,0,0,328.42,168.18Z" fill="#1e1e1e"/>
      <path d="M337.85,173.51h-1v-3.42c0-1.27-.47-1.91-1.4-1.91a1.52,1.52,0,0,0-1.19.54,2,2,0,0,0-.47,1.37v3.42h-1v-6h1v1h0a2.17,2.17,0,0,1,2-1.14,1.83,1.83,0,0,1,1.51.64,2.79,2.79,0,0,1,.52,1.83Z" fill="#1e1e1e"/>
    </g>
  </g>
</svg>
