<svg xmlns="http://www.w3.org/2000/svg" xmlns:xlink="http://www.w3.org/1999/xlink" viewBox="0 0 390 146.82">
  <defs>
    <linearGradient id="linear-gradient" x1="146.89" y1="610.7" x2="138.97" y2="625.69" gradientTransform="matrix(1, 0, 0, -1, 0, 636.64)" gradientUnits="userSpaceOnUse">
      <stop offset="0" stop-color="#1988d9"/>
      <stop offset="0.9" stop-color="#54aef0"/>
    </linearGradient>
    <linearGradient id="linear-gradient-2" x1="143.48" y1="615.06" x2="148.95" y2="605.62" gradientTransform="matrix(1, 0, 0, -1, 0, 636.64)" gradientUnits="userSpaceOnUse">
      <stop offset="0.1" stop-color="#54aef0"/>
      <stop offset="0.29" stop-color="#4fabee"/>
      <stop offset="0.51" stop-color="#41a2e9"/>
      <stop offset="0.74" stop-color="#2a93e0"/>
      <stop offset="0.88" stop-color="#1988d9"/>
    </linearGradient>
    <linearGradient id="linear-gradient-3" x1="257.73" y1="569.7" x2="257.73" y2="548.59" gradientTransform="matrix(1, 0, 0, -1, 0, 636.64)" gradientUnits="userSpaceOnUse">
      <stop offset="0.22" stop-color="#32d4f5"/>
      <stop offset="0.47" stop-color="#31d1f3"/>
      <stop offset="0.63" stop-color="#2ec9eb"/>
      <stop offset="0.77" stop-color="#29bade"/>
      <stop offset="0.89" stop-color="#22a5cb"/>
      <stop offset="1" stop-color="#198ab3"/>
    </linearGradient>
    <linearGradient id="linear-gradient-4" x1="257.21" y1="581" x2="258.75" y2="561.84" xlink:href="#linear-gradient-3"/>
    <linearGradient id="linear-gradient-5" x1="96" y1="553.39" x2="96" y2="579.39" gradientTransform="matrix(1, 0, 0, -1, 0, 636.64)" gradientUnits="userSpaceOnUse">
      <stop offset="0" stop-color="#0078d4"/>
      <stop offset="0.16" stop-color="#1380da"/>
      <stop offset="0.53" stop-color="#3c91e5"/>
      <stop offset="0.82" stop-color="#559cec"/>
      <stop offset="1" stop-color="#5ea0ef"/>
    </linearGradient>
    <linearGradient id="linear-gradient-6" x1="246.21" y1="522.91" x2="246.21" y2="504.82" gradientTransform="matrix(1, 0, 0, -1, 0, 636.64)" gradientUnits="userSpaceOnUse">
      <stop offset="0.1" stop-color="#54aef0"/>
      <stop offset="1" stop-color="#1988d9"/>
    </linearGradient>
    <linearGradient id="linear-gradient-7" x1="247.15" y1="532.6" x2="248.47" y2="516.18" xlink:href="#linear-gradient-6"/>
    <linearGradient id="linear-gradient-8" x1="257.07" y1="505.32" x2="257.07" y2="516.99" gradientTransform="matrix(1, 0, 0, -1, 0, 636.64)" gradientUnits="userSpaceOnUse">
      <stop offset="0" stop-color="#76bc2d"/>
      <stop offset="0.6" stop-color="#81ce31"/>
      <stop offset="0.82" stop-color="#86d633"/>
    </linearGradient>
  </defs>
  <g id="Shapes">
    <rect width="390" height="146.82" fill="#fff"/>
    <g>
      <polygon points="125.96 21.1 139.5 29.89 153.27 21.07 155 23.08 139.5 33.07 124.23 23.08 125.96 21.1" fill="#50e6ff"/>
      <polygon points="126.98 19.97 139.5 5.07 152.26 19.99 139.5 28.06 126.98 19.97" fill="#fff"/>
      <polygon points="139.5 5.07 139.5 28.06 126.98 19.97 139.5 5.07" fill="#50e6ff"/>
      <polygon points="139.5 5.07 139.5 28.06 152.26 19.99 139.5 5.07" fill="url(#linear-gradient)"/>
      <polygon points="139.5 16.95 152.26 19.99 139.5 28.06 139.5 16.95" fill="#53b1e0"/>
      <polygon points="139.5 28.06 126.98 19.97 139.5 16.95 139.5 28.06" fill="#9cebff"/>
      <polygon points="139.5 33.07 155 23.08 153.27 21.07 139.5 29.89 139.5 33.07" fill="url(#linear-gradient-2)"/>
    </g>
    <circle cx="226.13" cy="70.25" r="2" fill="#fefefe"/>
    <g>
      <polygon points="217.02 6.07 217.02 32.07 200.18 28.73 217.02 6.07" fill="#00adee"/>
      <polygon points="217.02 6.07 217.02 32.07 233.85 28.73 217.02 6.07" fill="#0054a5"/>
      <path d="M228.07,24.15a1.28,1.28,0,0,0-.48.09l-2.54-3.3a1.61,1.61,0,0,0-1.89-2.46l-2.28-3a1.6,1.6,0,1,0-2.83-1.35h-2.13a1.6,1.6,0,0,0-3.15.4,1.56,1.56,0,0,0,.29.9l-2.35,3a1.63,1.63,0,0,0-.7-.16,1.6,1.6,0,0,0-1.6,1.6,1.56,1.56,0,0,0,.39,1l-2.23,2.87a1.72,1.72,0,0,0-.52-.09,1.6,1.6,0,1,0,1.61,1.6,1.55,1.55,0,0,0-.42-1.06l2.21-2.85a1.74,1.74,0,0,0,.56.11A1.61,1.61,0,0,0,211.62,20a1.56,1.56,0,0,0-.3-.92l2.35-3a1.15,1.15,0,0,0,.31.11v2.57a1.58,1.58,0,0,0-.86,2.53l-2.48,3.43a1.59,1.59,0,0,0-2.14,1.51,1.6,1.6,0,1,0,2.86-1l2.48-3.44.14.05v3.73a1.6,1.6,0,0,0,.4,3.15,1.59,1.59,0,0,0,1.54-1.2h2.13A1.6,1.6,0,1,0,220,25.51V21.78h0l2.53,3.37a1.6,1.6,0,1,0,1.23-.59,1.71,1.71,0,0,0-.51.09l-2.49-3.32a1.59,1.59,0,0,0-.77-2.63V16.12a.7.7,0,0,0,.19-.06l2.29,3a1.56,1.56,0,0,0-.3.92,1.61,1.61,0,0,0,1.6,1.61,1.47,1.47,0,0,0,.56-.11l2.54,3.3a1.42,1.42,0,0,0-.3.88,1.49,1.49,0,1,0,1.49-1.49Zm-8.87,1.36a1.63,1.63,0,0,0-1.15,1.15h-2.13a1.6,1.6,0,0,0-1.14-1.15V23.37c.56,1.26,1.34,2,2.21,2s1.64-.72,2.21-2Zm0-6.82a1.59,1.59,0,0,0-.27,3c-.48,1.89-1.27,2.88-1.94,2.88s-1.49-1.17-1.93-2.88a1.61,1.61,0,0,0,.92-1.45,1.59,1.59,0,0,0-1.2-1.54V16.12A1.57,1.57,0,0,0,215.92,15h2.13a1.6,1.6,0,0,0,1.15,1.14Z" fill="#fefefe"/>
    </g>
    <g>
      <path d="M277.77,79.6a1.5,1.5,0,0,0,1.52-1.48v0a.55.55,0,0,0,0-.25c-.59-4.75-3.31-8.63-8.48-8.63s-8,3.35-8.51,8.63a1.56,1.56,0,0,0,1.37,1.68h14.14Z" fill="#0078d4"/>
      <path d="M270.79,70.42a4.75,4.75,0,0,1-2.59-.76l2.57,6.69,2.53-6.64A4.86,4.86,0,0,1,270.79,70.42Z" fill="#fff" opacity="0.8" style="isolation: isolate"/>
      <circle cx="270.79" cy="65.64" r="4.77" fill="#0078d4"/>
      <path d="M268.2,84.25A2.27,2.27,0,0,0,270.46,82a1.13,1.13,0,0,0,0-.26c-.89-7.12-4.94-12.9-12.67-12.9S245.85,73.73,245,81.66a2.28,2.28,0,0,0,2,2.49h21.11Z" fill="url(#linear-gradient-3)"/>
      <path d="M257.89,70.51a7.08,7.08,0,0,1-3.81-1.14l3.81,10,3.8-9.91A7.17,7.17,0,0,1,257.89,70.51Z" fill="#fff" opacity="0.8" style="isolation: isolate"/>
      <circle cx="257.83" cy="63.38" r="7.13" fill="url(#linear-gradient-4)"/>
    </g>
    <path d="M92.1,75.45h7.8v7.8H92.1ZM83,65.05h7.8v-7.8H84.09A1.08,1.08,0,0,0,83,58.33Zm1.09,18.2H90.8v-7.8H83v6.71a1.09,1.09,0,0,0,1.09,1.09ZM83,74.15h7.8v-7.8H83Zm18.2,9.1h6.71A1.09,1.09,0,0,0,109,82.16h0V75.45h-7.8Zm-9.1-9.1h7.8v-7.8H92.1Zm9.1,0H109v-7.8h-7.8Zm0-16.9v7.8H109V58.33a1.08,1.08,0,0,0-1.09-1.08H101.2Zm-9.1,7.8h7.8v-7.8H92.1Z" fill="url(#linear-gradient-5)"/>
    <g>
      <g>
        <polygon points="237.68 107.01 237.68 114.34 231.35 118.03 231.35 110.69 237.68 107.01" fill="#32bedd"/>
        <polygon points="237.68 107.01 231.35 110.7 225 107 231.35 103.32 237.68 107.01" fill="#9cebff"/>
        <polygon points="231.35 110.7 231.35 118.03 225 114.34 225 107 231.35 110.7" fill="#50e6ff"/>
        <polygon points="225 114.34 231.35 110.69 231.35 118.03 225 114.34" fill="#9cebff"/>
        <polygon points="237.68 114.34 231.35 110.69 231.35 118.03 237.68 114.34" fill="#50e6ff"/>
      </g>
      <g>
        <path d="M250.48,119.74a.77.77,0,0,1,.77-.76h4.38a9.77,9.77,0,0,0-7.94-3.64c-6.71,0-10.22,4.21-10.89,11.07a1.92,1.92,0,0,0,1.71,2.12h12Z" fill="url(#linear-gradient-6)"/>
        <path d="M247.69,116.79a6.15,6.15,0,0,1-3.31-1l3.28,8.54,3.24-8.49A6,6,0,0,1,247.69,116.79Z" fill="#fff" opacity="0.8" style="isolation: isolate"/>
        <circle cx="247.69" cy="110.67" r="6.1" fill="url(#linear-gradient-7)"/>
        <path d="M255.33,127.82h3.5v3.5h-3.5Zm-4.08-4.67h3.5v-3.5h-3a.49.49,0,0,0-.5.49Zm.49,8.17h3v-3.5h-3.48v3a.49.49,0,0,0,.48.51Zm-.49-4.09h3.5v-3.47h-3.5Zm8.15,4.09h3a.48.48,0,0,0,.48-.48v-3H259.4Zm-4.07-4.09h3.5v-3.47h-3.5Zm4.07,0h3.5v-3.47h-3.5Zm0-7.58v3.5h3.5v-3a.47.47,0,0,0-.46-.49h-3Zm-4.07,3.5h3.5v-3.5h-3.5Z" fill="url(#linear-gradient-8)"/>
      </g>
    </g>
    <g>
      <g>
        <path d="M160.22,140.93a.27.27,0,0,0,.14.24l2,1.14,3.42,2a.3.3,0,0,0,.4-.11l1.15-1.95a.28.28,0,0,0-.11-.37l-4-2.27a.29.29,0,0,1-.14-.24v-18a.27.27,0,0,1,.14-.24l4-2.27a.28.28,0,0,0,.11-.37l-1.15-2a.3.3,0,0,0-.4-.15h0l-3.35,1.93-2.1,1.17a.29.29,0,0,0-.14.25Z" fill="#949494"/>
        <path d="M163.08,121.19l.11-.1,4-2.27a.25.25,0,0,0,.13-.32s0,0,0,0l-1.16-2a.26.26,0,0,0-.33-.17l0,0-3.37,1.93-2.07,1.17a.12.12,0,0,0-.11.11l1.57.89Z" fill="#a3a3a3"/>
        <path d="M167.2,141.82l-4-2.27a.31.31,0,0,1-.12-.16l-2.83,1.75h.09l2,1.13,3.49,1.94a.27.27,0,0,0,.37-.07l0,0,1.15-1.95a.24.24,0,0,0-.13-.32Z" fill="#a3a3a3"/>
      </g>
      <path d="M189.89,140.93a.27.27,0,0,1-.14.24l-2,1.14-3.43,2a.3.3,0,0,1-.4-.11l-1.15-1.95a.28.28,0,0,1,.11-.37l4-2.27a.29.29,0,0,0,.14-.24v-18a.27.27,0,0,0-.14-.24l-4-2.27a.28.28,0,0,1-.11-.37l1.15-2a.3.3,0,0,1,.4-.15h0l3.36,1.9,2.09,1.17a.27.27,0,0,1,.14.24Z" fill="#949494"/>
      <path d="M187,121.19l-.11-.1-4-2.27a.25.25,0,0,1-.13-.32s0,0,0,0l1.16-2a.26.26,0,0,1,.33-.17l.05,0,3.37,1.9,2.07,1.17.11.1-1.57.89Z" fill="#a3a3a3"/>
      <path d="M182.91,141.82l4-2.27a.31.31,0,0,0,.12-.16l2.83,1.75h0l-2,1.13-3.49,1.94a.26.26,0,0,1-.36-.07l0,0-1.15-1.95A.24.24,0,0,1,182.91,141.82Z" fill="#a3a3a3"/>
      <polygon points="184.32 124.96 184.32 135.68 175.04 141.07 175.04 130.34 184.32 124.96" fill="#32bedd"/>
      <polygon points="184.32 124.96 175.06 130.35 165.77 124.96 175.06 119.57 184.32 124.96" fill="#9cebff"/>
      <polygon points="175.04 130.35 175.04 141.07 165.77 135.68 165.77 124.96 175.04 130.35" fill="#50e6ff"/>
      <polygon points="165.77 135.68 175.04 130.34 175.04 141.07 165.77 135.68" fill="#9cebff"/>
      <polygon points="184.32 135.68 175.04 130.34 175.04 141.07 184.32 135.68" fill="#50e6ff"/>
    </g>
    <g>
      <circle cx="175.06" cy="70.25" r="35" fill="#fff"/>
      <circle cx="175.06" cy="70.25" r="35" fill="#3c3c41" opacity="0.15"/>
    </g>
  </g>
  <g id="Text">
    <g>
      <path d="M97.2,15.2H96.11l-.89-2.35H91.66l-.84,2.35h-1.1L93,6.8h1ZM94.9,12,93.58,8.38a3.38,3.38,0,0,1-.13-.56h0a3.23,3.23,0,0,1-.14.56L92,12Z" fill="#1e1e1e"/>
      <path d="M102.49,9.48l-3.55,4.9h3.52v.82H97.53v-.3L101.08,10H97.86V9.2h4.63Z" fill="#1e1e1e"/>
      <path d="M108.59,15.2h-1v-.95h0a2,2,0,0,1-1.85,1.09c-1.43,0-2.14-.85-2.14-2.55V9.2h1v3.43c0,1.27.48,1.9,1.45,1.9a1.46,1.46,0,0,0,1.16-.52,2,2,0,0,0,.46-1.35V9.2h1Z" fill="#1e1e1e"/>
      <path d="M113.65,10.17a1.14,1.14,0,0,0-.72-.19,1.21,1.21,0,0,0-1,.58,2.64,2.64,0,0,0-.41,1.58V15.2h-1v-6h1v1.24h0a2.17,2.17,0,0,1,.63-1,1.39,1.39,0,0,1,.94-.35,1.44,1.44,0,0,1,.57.08Z" fill="#1e1e1e"/>
      <path d="M119.52,12.44h-4.24a2.28,2.28,0,0,0,.54,1.55,1.88,1.88,0,0,0,1.42.54,2.94,2.94,0,0,0,1.86-.66v.9a3.47,3.47,0,0,1-2.09.57,2.53,2.53,0,0,1-2-.82,3.35,3.35,0,0,1-.72-2.3,3.28,3.28,0,0,1,.79-2.28,2.54,2.54,0,0,1,2-.88,2.26,2.26,0,0,1,1.83.76,3.25,3.25,0,0,1,.64,2.12Zm-1-.81a2,2,0,0,0-.41-1.3A1.35,1.35,0,0,0,117,9.87a1.54,1.54,0,0,0-1.16.49,2.19,2.19,0,0,0-.59,1.27Z" fill="#1e1e1e"/>
      <path d="M43.65,28.4H42.56l-.89-2.35H38.11l-.84,2.35H36.18L39.4,20h1Zm-2.3-3.24L40,21.58A4.87,4.87,0,0,1,39.9,21h0a3.23,3.23,0,0,1-.14.56l-1.3,3.58Z" fill="#1e1e1e"/>
      <path d="M48.85,28.13a3.19,3.19,0,0,1-1.64.41,2.72,2.72,0,0,1-2.07-.83,3,3,0,0,1-.79-2.17,3.3,3.3,0,0,1,.85-2.38,3,3,0,0,1,2.27-.9,3.23,3.23,0,0,1,1.39.29v1a2.45,2.45,0,0,0-1.43-.47,2,2,0,0,0-1.51.66,2.52,2.52,0,0,0-.59,1.73,2.36,2.36,0,0,0,.56,1.66,1.89,1.89,0,0,0,1.48.61,2.39,2.39,0,0,0,1.48-.52Z" fill="#1e1e1e"/>
      <path d="M53.09,28.34a1.82,1.82,0,0,1-.9.19c-1,0-1.58-.59-1.58-1.76V23.22h-1V22.4h1V20.94l1-.31V22.4h1.52v.82H51.57V26.6a1.37,1.37,0,0,0,.21.86.8.8,0,0,0,.68.26,1,1,0,0,0,.63-.2Z" fill="#1e1e1e"/>
      <path d="M54.86,20.88a.6.6,0,0,1-.44-.18.59.59,0,0,1-.18-.44.61.61,0,0,1,.18-.45.6.6,0,0,1,.44-.18.62.62,0,0,1,.63.63.6.6,0,0,1-.18.44A.61.61,0,0,1,54.86,20.88Zm.47,7.52h-1v-6h1Z" fill="#1e1e1e"/>
      <path d="M62,22.4l-2.39,6h-.94l-2.28-6h1.06L59,26.76a3.21,3.21,0,0,1,.21.84h0a4.72,4.72,0,0,1,.18-.82L61,22.4Z" fill="#1e1e1e"/>
      <path d="M67.85,25.64H63.61a2.23,2.23,0,0,0,.54,1.55,1.85,1.85,0,0,0,1.42.54,3,3,0,0,0,1.86-.66V28a3.5,3.5,0,0,1-2.09.57,2.52,2.52,0,0,1-2-.82,3.36,3.36,0,0,1-.73-2.3,3.29,3.29,0,0,1,.8-2.28,2.53,2.53,0,0,1,2-.88A2.25,2.25,0,0,1,67.2,23a3.2,3.2,0,0,1,.65,2.12Zm-1-.81a2,2,0,0,0-.4-1.3,1.36,1.36,0,0,0-1.1-.46,1.52,1.52,0,0,0-1.15.49,2.19,2.19,0,0,0-.59,1.27Z" fill="#1e1e1e"/>
      <path d="M72.71,28.4V20H75q4.44,0,4.44,4.09a4.11,4.11,0,0,1-1.24,3.13,4.55,4.55,0,0,1-3.3,1.18Zm1-7.51v6.62H75a3.59,3.59,0,0,0,2.58-.88,3.34,3.34,0,0,0,.92-2.51q0-3.23-3.44-3.23Z" fill="#1e1e1e"/>
      <path d="M81.49,20.88a.6.6,0,0,1-.44-.18.59.59,0,0,1-.18-.44.61.61,0,0,1,.18-.45.6.6,0,0,1,.44-.18.61.61,0,0,1,.45.18.62.62,0,0,1,0,.89A.61.61,0,0,1,81.49,20.88ZM82,28.4H81v-6h1Z" fill="#1e1e1e"/>
      <path d="M87,23.37a1.25,1.25,0,0,0-.73-.19,1.23,1.23,0,0,0-1,.58,2.64,2.64,0,0,0-.41,1.58V28.4h-1v-6h1v1.24h0a2.17,2.17,0,0,1,.63-1,1.39,1.39,0,0,1,.94-.35,1.52,1.52,0,0,1,.58.08Z" fill="#1e1e1e"/>
      <path d="M92.9,25.64H88.66a2.28,2.28,0,0,0,.54,1.55,1.88,1.88,0,0,0,1.42.54,2.94,2.94,0,0,0,1.86-.66V28a3.47,3.47,0,0,1-2.09.57,2.53,2.53,0,0,1-2-.82,3.35,3.35,0,0,1-.72-2.3,3.28,3.28,0,0,1,.79-2.28,2.54,2.54,0,0,1,2-.88,2.26,2.26,0,0,1,1.83.76,3.19,3.19,0,0,1,.64,2.12Zm-1-.81a2,2,0,0,0-.41-1.3,1.35,1.35,0,0,0-1.09-.46,1.54,1.54,0,0,0-1.16.49,2.18,2.18,0,0,0-.58,1.27Z" fill="#1e1e1e"/>
      <path d="M98.44,28.13a3.17,3.17,0,0,1-1.64.41,2.75,2.75,0,0,1-2.07-.83,3.06,3.06,0,0,1-.79-2.17,3.35,3.35,0,0,1,.85-2.38,3,3,0,0,1,2.27-.9,3.27,3.27,0,0,1,1.4.29v1A2.49,2.49,0,0,0,97,23.07a1.92,1.92,0,0,0-1.51.66,2.47,2.47,0,0,0-.59,1.73,2.36,2.36,0,0,0,.55,1.66,1.91,1.91,0,0,0,1.49.61,2.38,2.38,0,0,0,1.47-.52Z" fill="#1e1e1e"/>
      <path d="M102.68,28.34a1.82,1.82,0,0,1-.9.19c-1,0-1.57-.59-1.57-1.76V23.22h-1V22.4h1V20.94l1-.31V22.4h1.51v.82h-1.51V26.6a1.45,1.45,0,0,0,.2.86.81.81,0,0,0,.68.26,1,1,0,0,0,.63-.2Z" fill="#1e1e1e"/>
      <path d="M106.47,28.54a2.77,2.77,0,0,1-2.12-.84,3.11,3.11,0,0,1-.8-2.23,3.25,3.25,0,0,1,.83-2.36,3,3,0,0,1,2.23-.85,2.71,2.71,0,0,1,2.1.83,3.27,3.27,0,0,1,.75,2.29,3.25,3.25,0,0,1-.81,2.3A2.87,2.87,0,0,1,106.47,28.54Zm.07-5.47a1.81,1.81,0,0,0-1.46.63,2.59,2.59,0,0,0-.54,1.74,2.46,2.46,0,0,0,.54,1.68,1.86,1.86,0,0,0,1.46.61,1.75,1.75,0,0,0,1.43-.6,2.58,2.58,0,0,0,.5-1.72,2.61,2.61,0,0,0-.5-1.73A1.73,1.73,0,0,0,106.54,23.07Z" fill="#1e1e1e"/>
      <path d="M114.12,23.37a1.29,1.29,0,0,0-1.75.39,2.64,2.64,0,0,0-.41,1.58V28.4h-1v-6h1v1.24h0a2.09,2.09,0,0,1,.63-1,1.39,1.39,0,0,1,.94-.35,1.44,1.44,0,0,1,.57.08Z" fill="#1e1e1e"/>
      <path d="M119.94,22.4l-2.76,7c-.49,1.24-1.18,1.87-2.07,1.87a2.25,2.25,0,0,1-.63-.08v-.86a1.8,1.8,0,0,0,.57.1,1.18,1.18,0,0,0,1.09-.86l.48-1.14-2.34-6h1.06L117,27c0,.06.07.21.13.46h0q0-.15.12-.45L119,22.4Z" fill="#1e1e1e"/>
    </g>
    <g>
      <path d="M292.25,71.68q0,3.54-3.2,3.54c-2,0-3.05-1.14-3.05-3.4V66.68h1v5.07c0,1.72.73,2.58,2.18,2.58s2.1-.83,2.1-2.49V66.68h1Z" fill="#1e1e1e"/>
      <path d="M293.85,74.86v-1a2.84,2.84,0,0,0,1.73.58c.85,0,1.27-.28,1.27-.84a.76.76,0,0,0-.11-.41,1.17,1.17,0,0,0-.29-.3,3,3,0,0,0-.44-.23l-.53-.21a6.76,6.76,0,0,1-.7-.32,2.55,2.55,0,0,1-.51-.36,1.52,1.52,0,0,1-.3-.46,1.66,1.66,0,0,1-.1-.61,1.38,1.38,0,0,1,.19-.74,1.78,1.78,0,0,1,.51-.55,2.26,2.26,0,0,1,.74-.33,3.41,3.41,0,0,1,.85-.11,3.46,3.46,0,0,1,1.4.27v1a2.71,2.71,0,0,0-1.53-.43,1.75,1.75,0,0,0-.48.06,1.33,1.33,0,0,0-.38.17.88.88,0,0,0-.24.27.77.77,0,0,0-.08.34.87.87,0,0,0,.08.39.83.83,0,0,0,.25.28,1.91,1.91,0,0,0,.4.23l.54.21c.26.11.5.21.71.32a2.82,2.82,0,0,1,.54.36,1.41,1.41,0,0,1,.34.47,1.46,1.46,0,0,1,.12.62,1.5,1.5,0,0,1-.19.78,1.71,1.71,0,0,1-.53.54,2.3,2.3,0,0,1-.75.32,3.82,3.82,0,0,1-.9.11A3.41,3.41,0,0,1,293.85,74.86Z" fill="#1e1e1e"/>
      <path d="M304.13,72.32h-4.24a2.3,2.3,0,0,0,.54,1.55,1.88,1.88,0,0,0,1.42.54,2.89,2.89,0,0,0,1.86-.67v.91a3.47,3.47,0,0,1-2.09.57,2.51,2.51,0,0,1-2-.82,3.83,3.83,0,0,1,.06-4.58,2.54,2.54,0,0,1,2-.88,2.26,2.26,0,0,1,1.83.76,3.18,3.18,0,0,1,.64,2.12Zm-1-.82a2,2,0,0,0-.4-1.29,1.37,1.37,0,0,0-1.1-.46,1.57,1.57,0,0,0-1.16.48,2.24,2.24,0,0,0-.58,1.27Z" fill="#1e1e1e"/>
      <path d="M308.71,70.05a1.16,1.16,0,0,0-.72-.19,1.21,1.21,0,0,0-1,.58,2.64,2.64,0,0,0-.42,1.58v3.06h-1v-6h1v1.24h0a2,2,0,0,1,.63-1,1.54,1.54,0,0,1,1.51-.27Z" fill="#1e1e1e"/>
      <path d="M309.39,74.86v-1a2.84,2.84,0,0,0,1.73.58c.84,0,1.27-.28,1.27-.84a.76.76,0,0,0-.11-.41,1.17,1.17,0,0,0-.29-.3,3,3,0,0,0-.44-.23l-.53-.21a6.76,6.76,0,0,1-.7-.32,2.29,2.29,0,0,1-.51-.36,1.52,1.52,0,0,1-.3-.46,1.66,1.66,0,0,1-.11-.61,1.39,1.39,0,0,1,.2-.74,1.78,1.78,0,0,1,.51-.55,2.26,2.26,0,0,1,.74-.33,3.41,3.41,0,0,1,.85-.11,3.46,3.46,0,0,1,1.4.27v1a2.74,2.74,0,0,0-1.53-.43,1.75,1.75,0,0,0-.48.06,1.33,1.33,0,0,0-.38.17.88.88,0,0,0-.24.27.77.77,0,0,0-.08.34.87.87,0,0,0,.08.39.83.83,0,0,0,.25.28,1.68,1.68,0,0,0,.4.23l.53.21c.27.11.51.21.72.32a2.82,2.82,0,0,1,.54.36,1.41,1.41,0,0,1,.34.47,1.46,1.46,0,0,1,.12.62,1.42,1.42,0,0,1-.2.78,1.58,1.58,0,0,1-.52.54,2.26,2.26,0,0,1-.76.32,3.68,3.68,0,0,1-.89.11A3.41,3.41,0,0,1,309.39,74.86Z" fill="#1e1e1e"/>
      <path d="M322.43,75.08h-1v-.94h0a2,2,0,0,1-1.85,1.08,2,2,0,0,1-1.4-.47,1.65,1.65,0,0,1-.51-1.26c0-1.13.66-1.78,2-2l1.8-.25c0-1-.41-1.53-1.24-1.53a2.9,2.9,0,0,0-2,.74v-1a3.73,3.73,0,0,1,2-.56c1.41,0,2.12.74,2.12,2.24Zm-1-3-1.45.2a2.65,2.65,0,0,0-1,.33,1,1,0,0,0-.34.85.9.9,0,0,0,.32.71,1.18,1.18,0,0,0,.83.28,1.55,1.55,0,0,0,1.18-.5,1.8,1.8,0,0,0,.47-1.27Z" fill="#1e1e1e"/>
      <path d="M329.22,75.08h-1V71.66c0-1.28-.47-1.91-1.39-1.91a1.52,1.52,0,0,0-1.2.54,2,2,0,0,0-.47,1.37v3.42h-1v-6h1v1h0a2.17,2.17,0,0,1,2-1.14,1.85,1.85,0,0,1,1.51.63,2.84,2.84,0,0,1,.52,1.84Z" fill="#1e1e1e"/>
      <path d="M336.15,75.08h-1v-1h0a2.42,2.42,0,0,1-3.87.35,3.28,3.28,0,0,1-.68-2.19,3.62,3.62,0,0,1,.75-2.39,2.5,2.5,0,0,1,2-.89,1.93,1.93,0,0,1,1.8,1h0V66.2h1Zm-1-2.71v-.89a1.73,1.73,0,0,0-.48-1.23,1.64,1.64,0,0,0-1.22-.5,1.66,1.66,0,0,0-1.38.64,2.81,2.81,0,0,0-.5,1.78,2.56,2.56,0,0,0,.48,1.64,1.57,1.57,0,0,0,1.3.6,1.63,1.63,0,0,0,1.3-.58A2.17,2.17,0,0,0,335.19,72.37Z" fill="#1e1e1e"/>
      <path d="M347.79,74.5a5.57,5.57,0,0,1-2.81.72,3.86,3.86,0,0,1-2.91-1.16A4.26,4.26,0,0,1,341,71a4.33,4.33,0,0,1,1.24-3.2,4.17,4.17,0,0,1,3.12-1.25,5.32,5.32,0,0,1,2.31.44v1.09a4.44,4.44,0,0,0-2.42-.64,3,3,0,0,0-2.31,1,4,4,0,0,0-.07,5,2.94,2.94,0,0,0,2.28.91,3.53,3.53,0,0,0,1.7-.39V71.59H345V70.7h2.82Z" fill="#1e1e1e"/>
      <path d="M352.75,70.05a1.18,1.18,0,0,0-.73-.19,1.23,1.23,0,0,0-1,.58,2.72,2.72,0,0,0-.41,1.58v3.06h-1v-6h1v1.24h0a2.07,2.07,0,0,1,.63-1,1.4,1.4,0,0,1,.94-.36,1.5,1.5,0,0,1,.58.09Z" fill="#1e1e1e"/>
      <path d="M356.3,75.22a2.79,2.79,0,0,1-2.13-.84,3.1,3.1,0,0,1-.79-2.23,3.19,3.19,0,0,1,.83-2.36,3,3,0,0,1,2.23-.85,2.68,2.68,0,0,1,2.09.82,3.32,3.32,0,0,1,.76,2.3,3.25,3.25,0,0,1-.82,2.3A2.85,2.85,0,0,1,356.3,75.22Zm.07-5.47a1.84,1.84,0,0,0-1.47.63,2.58,2.58,0,0,0-.54,1.73,2.42,2.42,0,0,0,.55,1.69,1.85,1.85,0,0,0,1.46.61,1.75,1.75,0,0,0,1.43-.6,3.23,3.23,0,0,0,0-3.45A1.73,1.73,0,0,0,356.37,69.75Z" fill="#1e1e1e"/>
      <path d="M365.67,75.08h-1v-1h0a2,2,0,0,1-1.85,1.09c-1.43,0-2.15-.85-2.15-2.55V69.08h1v3.43c0,1.27.48,1.9,1.45,1.9a1.47,1.47,0,0,0,1.16-.52,2,2,0,0,0,.45-1.35V69.08h1Z" fill="#1e1e1e"/>
      <path d="M368.6,74.21h0v3.63h-1V69.08h1v1h0a2.27,2.27,0,0,1,2.07-1.19,2.21,2.21,0,0,1,1.81.8,3.37,3.37,0,0,1,.65,2.16,3.69,3.69,0,0,1-.73,2.41,2.44,2.44,0,0,1-2,.91A2,2,0,0,1,368.6,74.21Zm0-2.42v.84a1.73,1.73,0,0,0,.49,1.26,1.71,1.71,0,0,0,2.59-.15,3,3,0,0,0,.5-1.85,2.39,2.39,0,0,0-.47-1.57,1.51,1.51,0,0,0-1.25-.57,1.7,1.7,0,0,0-1.35.58A2.15,2.15,0,0,0,368.57,71.79Z" fill="#1e1e1e"/>
      <path d="M374.3,74.86v-1a2.84,2.84,0,0,0,1.73.58c.85,0,1.27-.28,1.27-.84a.76.76,0,0,0-.11-.41,1.17,1.17,0,0,0-.29-.3,3,3,0,0,0-.44-.23l-.53-.21a6.76,6.76,0,0,1-.7-.32,2.29,2.29,0,0,1-.51-.36,1.52,1.52,0,0,1-.3-.46,1.66,1.66,0,0,1-.11-.61,1.39,1.39,0,0,1,.2-.74,1.78,1.78,0,0,1,.51-.55,2.26,2.26,0,0,1,.74-.33,3.41,3.41,0,0,1,.85-.11,3.46,3.46,0,0,1,1.4.27v1a2.74,2.74,0,0,0-1.53-.43,1.75,1.75,0,0,0-.48.06,1.33,1.33,0,0,0-.38.17.88.88,0,0,0-.24.27.77.77,0,0,0-.08.34.87.87,0,0,0,.08.39.83.83,0,0,0,.25.28,1.91,1.91,0,0,0,.4.23l.53.21c.27.11.51.21.72.32a2.82,2.82,0,0,1,.54.36,1.41,1.41,0,0,1,.34.47,1.46,1.46,0,0,1,.12.62,1.42,1.42,0,0,1-.2.78,1.58,1.58,0,0,1-.52.54,2.26,2.26,0,0,1-.76.32,3.68,3.68,0,0,1-.89.11A3.41,3.41,0,0,1,374.3,74.86Z" fill="#1e1e1e"/>
    </g>
    <g>
      <path d="M20,75.08H18.92L18,72.72H14.46l-.83,2.36h-1.1l3.22-8.4h1ZM17.7,71.84l-1.31-3.58a2.75,2.75,0,0,1-.13-.56h0a3.62,3.62,0,0,1-.13.56l-1.31,3.58Z" fill="#1e1e1e"/>
      <path d="M22.1,74.21h0v3.63h-1V69.08h1v1h0a2.27,2.27,0,0,1,2.07-1.19,2.2,2.2,0,0,1,1.81.8,3.31,3.31,0,0,1,.65,2.16,3.69,3.69,0,0,1-.73,2.41,2.42,2.42,0,0,1-2,.91A2,2,0,0,1,22.1,74.21Zm0-2.42v.84a1.77,1.77,0,0,0,.48,1.26,1.72,1.72,0,0,0,2.59-.15,3,3,0,0,0,.5-1.85,2.39,2.39,0,0,0-.46-1.57,1.54,1.54,0,0,0-1.26-.57,1.7,1.7,0,0,0-1.35.58A2.19,2.19,0,0,0,22.08,71.79Z" fill="#1e1e1e"/>
      <path d="M29.15,74.21h0v3.63h-1V69.08h1v1h0a2.3,2.3,0,0,1,2.08-1.19,2.23,2.23,0,0,1,1.81.8,3.37,3.37,0,0,1,.65,2.16A3.74,3.74,0,0,1,33,74.31a2.44,2.44,0,0,1-2,.91A2,2,0,0,1,29.15,74.21Zm0-2.42v.84a1.77,1.77,0,0,0,.48,1.26,1.73,1.73,0,0,0,2.6-.15,3,3,0,0,0,.49-1.85,2.39,2.39,0,0,0-.46-1.57A1.53,1.53,0,0,0,31,69.75a1.7,1.7,0,0,0-1.35.58A2.15,2.15,0,0,0,29.13,71.79Z" fill="#1e1e1e"/>
      <path d="M36.18,75.08h-1V66.2h1Z" fill="#1e1e1e"/>
      <path d="M38.62,67.56a.6.6,0,0,1-.44-.18.61.61,0,0,1-.18-.45.59.59,0,0,1,.18-.44.6.6,0,0,1,.44-.18.61.61,0,0,1,.45.18.63.63,0,0,1-.45,1.07Zm.47,7.52h-1v-6h1Z" fill="#1e1e1e"/>
      <path d="M45.13,74.8a3.1,3.1,0,0,1-1.64.42,2.73,2.73,0,0,1-2.08-.84,3,3,0,0,1-.78-2.16,3.3,3.3,0,0,1,.85-2.38,3,3,0,0,1,2.26-.9,3.24,3.24,0,0,1,1.4.29v1a2.4,2.4,0,0,0-1.43-.47,1.92,1.92,0,0,0-1.51.66,2.5,2.5,0,0,0-.59,1.73,2.36,2.36,0,0,0,.55,1.66,1.91,1.91,0,0,0,1.49.61,2.41,2.41,0,0,0,1.48-.52Z" fill="#1e1e1e"/>
      <path d="M50.87,75.08h-1v-.94h0a2.2,2.2,0,0,1-3.25.61,1.65,1.65,0,0,1-.51-1.26c0-1.13.66-1.78,2-2l1.8-.25q0-1.53-1.23-1.53a2.91,2.91,0,0,0-2,.74v-1a3.76,3.76,0,0,1,2-.56c1.41,0,2.11.74,2.11,2.24Zm-1-3-1.44.2a2.53,2.53,0,0,0-1,.33,1,1,0,0,0-.34.85.89.89,0,0,0,.31.71,1.2,1.2,0,0,0,.84.28,1.56,1.56,0,0,0,1.18-.5,1.79,1.79,0,0,0,.46-1.27Z" fill="#1e1e1e"/>
      <path d="M55.47,75a1.82,1.82,0,0,1-.9.19c-1,0-1.57-.59-1.57-1.76V69.9H52v-.82h1V67.61l1-.31v1.78h1.51v.82H54v3.38a1.38,1.38,0,0,0,.2.86.83.83,0,0,0,.68.26,1.05,1.05,0,0,0,.63-.2Z" fill="#1e1e1e"/>
      <path d="M57.24,67.56a.6.6,0,0,1-.44-.18.61.61,0,0,1-.18-.45.59.59,0,0,1,.18-.44.6.6,0,0,1,.44-.18.61.61,0,0,1,.45.18.6.6,0,0,1,0,.88A.58.58,0,0,1,57.24,67.56Zm.47,7.52h-1v-6h1Z" fill="#1e1e1e"/>
      <path d="M62.17,75.22A2.79,2.79,0,0,1,60,74.38a3.1,3.1,0,0,1-.79-2.23,3.23,3.23,0,0,1,.82-2.36,3,3,0,0,1,2.24-.85,2.68,2.68,0,0,1,2.09.82,3.32,3.32,0,0,1,.75,2.3,3.25,3.25,0,0,1-.81,2.3A2.85,2.85,0,0,1,62.17,75.22Zm.07-5.47a1.84,1.84,0,0,0-1.47.63,2.58,2.58,0,0,0-.54,1.73,2.42,2.42,0,0,0,.55,1.69,1.85,1.85,0,0,0,1.46.61,1.77,1.77,0,0,0,1.43-.6,3.23,3.23,0,0,0,0-3.45A1.74,1.74,0,0,0,62.24,69.75Z" fill="#1e1e1e"/>
      <path d="M71.67,75.08h-1V71.66c0-1.28-.47-1.91-1.4-1.91a1.52,1.52,0,0,0-1.19.54,2,2,0,0,0-.47,1.37v3.42h-1v-6h1v1h0a2.17,2.17,0,0,1,2-1.14,1.85,1.85,0,0,1,1.51.63,2.84,2.84,0,0,1,.52,1.84Z" fill="#1e1e1e"/>
      <path d="M73.12,74.86v-1a2.81,2.81,0,0,0,1.72.58c.85,0,1.27-.28,1.27-.84a.76.76,0,0,0-.11-.41,1.17,1.17,0,0,0-.29-.3,2.86,2.86,0,0,0-.43-.23l-.54-.21a6.76,6.76,0,0,1-.7-.32,2.22,2.22,0,0,1-.5-.36,1.38,1.38,0,0,1-.31-.46,1.66,1.66,0,0,1-.1-.61,1.38,1.38,0,0,1,.19-.74,1.7,1.7,0,0,1,.52-.55,2.21,2.21,0,0,1,.73-.33,3.59,3.59,0,0,1,2.25.16v1a2.7,2.7,0,0,0-1.52-.43,1.83,1.83,0,0,0-.49.06,1.26,1.26,0,0,0-.37.17.68.68,0,0,0-.24.27.67.67,0,0,0-.09.34.75.75,0,0,0,.09.39.74.74,0,0,0,.25.28,1.82,1.82,0,0,0,.39.23l.54.21c.26.11.5.21.71.32a2.82,2.82,0,0,1,.54.36,1.41,1.41,0,0,1,.34.47,1.46,1.46,0,0,1,.12.62,1.5,1.5,0,0,1-.19.78,1.61,1.61,0,0,1-.53.54,2.21,2.21,0,0,1-.75.32,3.82,3.82,0,0,1-.9.11A3.34,3.34,0,0,1,73.12,74.86Z" fill="#1e1e1e"/>
    </g>
    <g>
      <path d="M267.67,119v-1.16a1.89,1.89,0,0,0,.48.31,3,3,0,0,0,.58.24,3.72,3.72,0,0,0,.62.15,3,3,0,0,0,.58,0,2.28,2.28,0,0,0,1.35-.33,1.15,1.15,0,0,0,.45-1,1.1,1.1,0,0,0-.15-.59,1.62,1.62,0,0,0-.41-.46,3.79,3.79,0,0,0-.63-.4l-.77-.4c-.29-.15-.57-.3-.82-.46a3.17,3.17,0,0,1-.66-.5,1.85,1.85,0,0,1-.61-1.44,2,2,0,0,1,.25-1,2.13,2.13,0,0,1,.67-.7,3,3,0,0,1,.93-.41,5.22,5.22,0,0,1,2.88.16v1.11a3.31,3.31,0,0,0-1.91-.51,3.47,3.47,0,0,0-.64.06,2,2,0,0,0-.58.22,1.3,1.3,0,0,0-.41.4,1.07,1.07,0,0,0-.16.58,1.22,1.22,0,0,0,.12.56,1.42,1.42,0,0,0,.36.43,3.52,3.52,0,0,0,.57.37l.78.4c.3.15.58.3.85.47a3.59,3.59,0,0,1,.71.54,2.42,2.42,0,0,1,.48.67,1.81,1.81,0,0,1,.18.83,2.14,2.14,0,0,1-.24,1,1.93,1.93,0,0,1-.66.7,2.8,2.8,0,0,1-.95.39,5.24,5.24,0,0,1-1.14.12l-.49,0c-.19,0-.39-.06-.6-.1a4.74,4.74,0,0,1-.57-.15A2,2,0,0,1,267.67,119Z" fill="#1e1e1e"/>
      <path d="M279.13,116.56h-4.24a2.3,2.3,0,0,0,.54,1.55,1.88,1.88,0,0,0,1.42.54,2.89,2.89,0,0,0,1.86-.67v.9a3.41,3.41,0,0,1-2.09.58,2.51,2.51,0,0,1-2-.82,3.83,3.83,0,0,1,.06-4.58,2.54,2.54,0,0,1,2-.88,2.26,2.26,0,0,1,1.83.76,3.17,3.17,0,0,1,.64,2.11Zm-1-.82a2,2,0,0,0-.4-1.29,1.37,1.37,0,0,0-1.1-.46,1.57,1.57,0,0,0-1.16.48,2.24,2.24,0,0,0-.58,1.27Z" fill="#1e1e1e"/>
      <path d="M283.71,114.29a1.16,1.16,0,0,0-.72-.19,1.21,1.21,0,0,0-1,.58,2.62,2.62,0,0,0-.42,1.58v3.06h-1v-6h1v1.23h0a2,2,0,0,1,.63-1,1.4,1.4,0,0,1,.94-.36,1.65,1.65,0,0,1,.57.08Z" fill="#1e1e1e"/>
      <path d="M289.47,113.32l-2.39,6h-.94l-2.27-6h1.05l1.52,4.36a3.21,3.21,0,0,1,.21.84h0a3.66,3.66,0,0,1,.19-.82l1.59-4.38Z" fill="#1e1e1e"/>
      <path d="M291,111.79a.58.58,0,0,1-.44-.17.61.61,0,0,1-.18-.45.57.57,0,0,1,.18-.44.59.59,0,0,1,.44-.18.6.6,0,0,1,.44.18.55.55,0,0,1,.19.44.56.56,0,0,1-.19.44A.6.6,0,0,1,291,111.79Zm.46,7.53h-1v-6h1Z" fill="#1e1e1e"/>
      <path d="M297.5,119a3.1,3.1,0,0,1-1.64.42,2.69,2.69,0,0,1-2.07-.84,3,3,0,0,1-.79-2.16,3.3,3.3,0,0,1,.85-2.38,3,3,0,0,1,2.27-.9,3.23,3.23,0,0,1,1.39.29v1a2.38,2.38,0,0,0-1.43-.47,2,2,0,0,0-1.51.66,2.49,2.49,0,0,0-.59,1.73,2.38,2.38,0,0,0,.56,1.66,1.89,1.89,0,0,0,1.48.61,2.39,2.39,0,0,0,1.48-.52Z" fill="#1e1e1e"/>
      <path d="M303.78,116.56h-4.24a2.21,2.21,0,0,0,.54,1.55,1.85,1.85,0,0,0,1.42.54,2.93,2.93,0,0,0,1.86-.67v.9a3.45,3.45,0,0,1-2.09.58,2.52,2.52,0,0,1-2-.82,3.36,3.36,0,0,1-.73-2.3,3.29,3.29,0,0,1,.8-2.28,2.53,2.53,0,0,1,2-.88,2.25,2.25,0,0,1,1.82.76,3.17,3.17,0,0,1,.65,2.11Zm-1-.82a2,2,0,0,0-.4-1.29,1.36,1.36,0,0,0-1.1-.46,1.55,1.55,0,0,0-1.15.48,2.25,2.25,0,0,0-.59,1.27Z" fill="#1e1e1e"/>
      <path d="M309.63,116.14v3.18h-1v-8.4H311a3,3,0,0,1,2.09.65,2.33,2.33,0,0,1,.74,1.85,2.54,2.54,0,0,1-.82,2,3.13,3.13,0,0,1-2.22.76Zm0-4.33v3.44h1a2.32,2.32,0,0,0,1.56-.46,1.67,1.67,0,0,0,.53-1.32c0-1.11-.65-1.66-2-1.66Z" fill="#1e1e1e"/>
      <path d="M318.37,114.29a1.18,1.18,0,0,0-.73-.19,1.23,1.23,0,0,0-1,.58,2.62,2.62,0,0,0-.41,1.58v3.06h-1v-6h1v1.23h0a2.09,2.09,0,0,1,.63-1,1.4,1.4,0,0,1,.94-.36,1.75,1.75,0,0,1,.58.08Z" fill="#1e1e1e"/>
      <path d="M319.9,111.79a.6.6,0,0,1-.44-.17.61.61,0,0,1-.18-.45.57.57,0,0,1,.18-.44.6.6,0,0,1,.44-.18.61.61,0,0,1,.45.18.57.57,0,0,1,.18.44.59.59,0,0,1-.18.44A.61.61,0,0,1,319.9,111.79Zm.47,7.53h-1v-6h1Z" fill="#1e1e1e"/>
      <path d="M327.3,119.32h-1V115.9c0-1.28-.46-1.91-1.39-1.91a1.5,1.5,0,0,0-1.19.54,2,2,0,0,0-.47,1.37v3.42h-1v-6h1v1h0a2.17,2.17,0,0,1,2-1.13,1.83,1.83,0,0,1,1.5.63,2.84,2.84,0,0,1,.53,1.84Z" fill="#1e1e1e"/>
      <path d="M333.2,119a3.1,3.1,0,0,1-1.64.42,2.73,2.73,0,0,1-2.08-.84,3,3,0,0,1-.78-2.16,3.3,3.3,0,0,1,.85-2.38,3,3,0,0,1,2.26-.9,3.24,3.24,0,0,1,1.4.29v1a2.4,2.4,0,0,0-1.43-.47,1.93,1.93,0,0,0-1.51.66,2.49,2.49,0,0,0-.59,1.73,2.43,2.43,0,0,0,.55,1.66,1.91,1.91,0,0,0,1.49.61,2.41,2.41,0,0,0,1.48-.52Z" fill="#1e1e1e"/>
      <path d="M335.14,111.79a.6.6,0,0,1-.44-.17.61.61,0,0,1-.18-.45.57.57,0,0,1,.18-.44.6.6,0,0,1,.44-.18.61.61,0,0,1,.45.18.57.57,0,0,1,.18.44.59.59,0,0,1-.18.44A.61.61,0,0,1,335.14,111.79Zm.47,7.53h-1v-6h1Z" fill="#1e1e1e"/>
      <path d="M338.54,118.45h0v3.63h-1v-8.76h1v1.05h0a2.27,2.27,0,0,1,2.07-1.19,2.2,2.2,0,0,1,1.81.8,3.32,3.32,0,0,1,.66,2.16,3.69,3.69,0,0,1-.74,2.41,2.42,2.42,0,0,1-2,.91A2,2,0,0,1,338.54,118.45Zm0-2.42v.84a1.77,1.77,0,0,0,.48,1.26,1.59,1.59,0,0,0,1.23.52,1.6,1.6,0,0,0,1.37-.67,3,3,0,0,0,.49-1.85,2.44,2.44,0,0,0-.46-1.58,1.56,1.56,0,0,0-1.26-.56,1.69,1.69,0,0,0-1.34.58A2.15,2.15,0,0,0,338.52,116Z" fill="#1e1e1e"/>
      <path d="M348.91,119.32h-1v-.94h0a2,2,0,0,1-1.84,1.08,2,2,0,0,1-1.41-.48,1.61,1.61,0,0,1-.5-1.26q0-1.68,2-2l1.79-.25q0-1.53-1.23-1.53a3,3,0,0,0-2,.73v-1a3.76,3.76,0,0,1,2-.56c1.41,0,2.12.74,2.12,2.24Zm-1-3-1.44.2a2.44,2.44,0,0,0-1,.33,1,1,0,0,0-.34.84.9.9,0,0,0,.31.72,1.2,1.2,0,0,0,.84.28,1.56,1.56,0,0,0,1.18-.5,1.79,1.79,0,0,0,.46-1.27Z" fill="#1e1e1e"/>
      <path d="M351.68,119.32h-1v-8.88h1Z" fill="#1e1e1e"/>
      <path d="M353.26,119.1v-1a2.82,2.82,0,0,0,1.73.58q1.26,0,1.26-.84a.68.68,0,0,0-.11-.41,1.17,1.17,0,0,0-.29-.3,2.86,2.86,0,0,0-.43-.23l-.54-.21c-.26-.11-.5-.21-.7-.32a2.22,2.22,0,0,1-.5-.36,1.38,1.38,0,0,1-.31-.46,1.66,1.66,0,0,1-.1-.61,1.38,1.38,0,0,1,.19-.74,1.7,1.7,0,0,1,.52-.55,2.21,2.21,0,0,1,.73-.33,3.07,3.07,0,0,1,.86-.11,3.41,3.41,0,0,1,1.39.27v1a2.7,2.7,0,0,0-1.52-.43,1.88,1.88,0,0,0-.49.06,1.26,1.26,0,0,0-.37.17.78.78,0,0,0-.24.27.67.67,0,0,0-.09.34.75.75,0,0,0,.09.39.83.83,0,0,0,.25.28,1.68,1.68,0,0,0,.4.23l.53.21a7,7,0,0,1,.72.32,2.14,2.14,0,0,1,.53.36,1.35,1.35,0,0,1,.35.47,1.46,1.46,0,0,1,.12.62,1.51,1.51,0,0,1-.2.78,1.58,1.58,0,0,1-.52.54,2.26,2.26,0,0,1-.76.32,3.7,3.7,0,0,1-.9.11A3.37,3.37,0,0,1,353.26,119.1Z" fill="#1e1e1e"/>
    </g>
    <g>
      <path d="M247.61,10.2h-1.09l-.89-2.35h-3.57l-.84,2.35h-1.09l3.22-8.4h1ZM245.3,7,244,3.38a3.61,3.61,0,0,1-.12-.56h0a3.36,3.36,0,0,1-.13.56L242.39,7Z" fill="#1e1e1e"/>
      <path d="M252.9,4.48l-3.55,4.9h3.51v.82h-4.93V9.9L251.48,5h-3.21V4.2h4.63Z" fill="#1e1e1e"/>
      <path d="M259,10.2h-1V9.25h0a2,2,0,0,1-1.86,1.09c-1.43,0-2.14-.85-2.14-2.55V4.2h1V7.63c0,1.27.49,1.9,1.46,1.9A1.47,1.47,0,0,0,257.58,9,2,2,0,0,0,258,7.66V4.2h1Z" fill="#1e1e1e"/>
      <path d="M264.06,5.17a1.18,1.18,0,0,0-.73-.19,1.23,1.23,0,0,0-1,.58,2.72,2.72,0,0,0-.41,1.58V10.2h-1v-6h1V5.44h0a2.17,2.17,0,0,1,.63-1,1.41,1.41,0,0,1,.94-.35,1.49,1.49,0,0,1,.58.08Z" fill="#1e1e1e"/>
      <path d="M269.92,7.44h-4.23A2.19,2.19,0,0,0,266.23,9a1.85,1.85,0,0,0,1.41.54,3,3,0,0,0,1.87-.66v.9a3.52,3.52,0,0,1-2.09.57,2.52,2.52,0,0,1-2-.82,3.31,3.31,0,0,1-.73-2.3,3.29,3.29,0,0,1,.8-2.28,2.51,2.51,0,0,1,2-.88,2.25,2.25,0,0,1,1.82.76,3.19,3.19,0,0,1,.64,2.12Zm-1-.81a2,2,0,0,0-.4-1.3,1.37,1.37,0,0,0-1.1-.46,1.52,1.52,0,0,0-1.15.49,2.13,2.13,0,0,0-.59,1.27Z" fill="#1e1e1e"/>
      <path d="M281.3,10.2h-1.09l-.89-2.35h-3.57l-.83,2.35h-1.1L277,1.8h1ZM279,7l-1.31-3.58a2.59,2.59,0,0,1-.13-.56h0a3.36,3.36,0,0,1-.13.56L276.08,7Z" fill="#1e1e1e"/>
      <path d="M286.49,9.93a3.17,3.17,0,0,1-1.64.41,2.75,2.75,0,0,1-2.07-.83A3.06,3.06,0,0,1,282,7.34,3.35,3.35,0,0,1,282.84,5a3,3,0,0,1,2.27-.9,3.27,3.27,0,0,1,1.4.29v1a2.49,2.49,0,0,0-1.43-.47,1.92,1.92,0,0,0-1.51.66A2.46,2.46,0,0,0,283,7.26a2.36,2.36,0,0,0,.55,1.66,1.91,1.91,0,0,0,1.49.61A2.38,2.38,0,0,0,286.49,9Z" fill="#1e1e1e"/>
      <path d="M290.73,10.14a1.8,1.8,0,0,1-.9.19c-1.05,0-1.57-.59-1.57-1.76V5h-1V4.2h1V2.74l1-.31V4.2h1.51V5h-1.51V8.4a1.45,1.45,0,0,0,.2.86.81.81,0,0,0,.68.26,1,1,0,0,0,.63-.2Z" fill="#1e1e1e"/>
      <path d="M292.51,2.68a.59.59,0,0,1-.44-.18.6.6,0,0,1-.19-.44.62.62,0,0,1,.19-.45.59.59,0,0,1,.44-.18.6.6,0,0,1,.44.18.58.58,0,0,1,.19.45.58.58,0,0,1-.19.44A.6.6,0,0,1,292.51,2.68ZM293,10.2h-1v-6h1Z" fill="#1e1e1e"/>
      <path d="M299.64,4.2l-2.39,6h-.95L294,4.2h1.05l1.53,4.36a4.27,4.27,0,0,1,.21.84h0a3.94,3.94,0,0,1,.19-.82l1.59-4.38Z" fill="#1e1e1e"/>
      <path d="M305.49,7.44h-4.24A2.28,2.28,0,0,0,301.79,9a1.88,1.88,0,0,0,1.42.54,2.94,2.94,0,0,0,1.86-.66v.9a3.47,3.47,0,0,1-2.09.57,2.53,2.53,0,0,1-2-.82,3.35,3.35,0,0,1-.72-2.3,3.28,3.28,0,0,1,.79-2.28,2.54,2.54,0,0,1,2-.88,2.26,2.26,0,0,1,1.83.76,3.19,3.19,0,0,1,.64,2.12Zm-1-.81a2,2,0,0,0-.41-1.3A1.35,1.35,0,0,0,303,4.87a1.54,1.54,0,0,0-1.16.49,2.18,2.18,0,0,0-.58,1.27Z" fill="#1e1e1e"/>
      <path d="M310.36,10.2V1.8h2.32q4.44,0,4.44,4.09A4.14,4.14,0,0,1,315.89,9a4.57,4.57,0,0,1-3.3,1.18Zm1-7.51V9.31h1.26a3.55,3.55,0,0,0,2.57-.88,3.34,3.34,0,0,0,.92-2.51q0-3.22-3.43-3.23Z" fill="#1e1e1e"/>
      <path d="M319.14,2.68a.61.61,0,0,1-.62-.62.61.61,0,0,1,.18-.45.59.59,0,0,1,.44-.18.6.6,0,0,1,.44.18.58.58,0,0,1,.19.45.58.58,0,0,1-.19.44A.6.6,0,0,1,319.14,2.68Zm.47,7.52h-1v-6h1Z" fill="#1e1e1e"/>
      <path d="M324.68,5.17A1.18,1.18,0,0,0,324,5a1.23,1.23,0,0,0-1,.58,2.72,2.72,0,0,0-.41,1.58V10.2h-1v-6h1V5.44h0a2.08,2.08,0,0,1,.62-1,1.42,1.42,0,0,1,.95-.35,1.44,1.44,0,0,1,.57.08Z" fill="#1e1e1e"/>
      <path d="M330.54,7.44h-4.23A2.19,2.19,0,0,0,326.85,9a1.85,1.85,0,0,0,1.42.54,3,3,0,0,0,1.86-.66v.9a3.52,3.52,0,0,1-2.09.57,2.52,2.52,0,0,1-2-.82,3.31,3.31,0,0,1-.73-2.3,3.29,3.29,0,0,1,.8-2.28,2.53,2.53,0,0,1,2-.88,2.25,2.25,0,0,1,1.82.76,3.19,3.19,0,0,1,.64,2.12Zm-1-.81a2,2,0,0,0-.4-1.3,1.36,1.36,0,0,0-1.1-.46,1.52,1.52,0,0,0-1.15.49,2.13,2.13,0,0,0-.59,1.27Z" fill="#1e1e1e"/>
      <path d="M336.09,9.93a3.19,3.19,0,0,1-1.64.41,2.72,2.72,0,0,1-2.07-.83,3,3,0,0,1-.79-2.17A3.3,3.3,0,0,1,332.44,5a3,3,0,0,1,2.27-.9,3.23,3.23,0,0,1,1.39.29v1a2.47,2.47,0,0,0-1.43-.47,1.93,1.93,0,0,0-1.51.66,2.5,2.5,0,0,0-.59,1.73,2.36,2.36,0,0,0,.56,1.66,1.89,1.89,0,0,0,1.48.61A2.41,2.41,0,0,0,336.09,9Z" fill="#1e1e1e"/>
      <path d="M340.32,10.14a1.76,1.76,0,0,1-.89.19c-1.05,0-1.58-.59-1.58-1.76V5h-1V4.2h1V2.74l1-.31V4.2h1.51V5h-1.51V8.4a1.37,1.37,0,0,0,.21.86.78.78,0,0,0,.68.26.94.94,0,0,0,.62-.2Z" fill="#1e1e1e"/>
      <path d="M344.12,10.34A2.79,2.79,0,0,1,342,9.5a3.1,3.1,0,0,1-.79-2.23A3.24,3.24,0,0,1,342,4.91a3,3,0,0,1,2.24-.85,2.69,2.69,0,0,1,2.09.83,3.27,3.27,0,0,1,.75,2.29,3.25,3.25,0,0,1-.81,2.3A2.85,2.85,0,0,1,344.12,10.34Zm.07-5.47a1.84,1.84,0,0,0-1.47.63,2.59,2.59,0,0,0-.54,1.74,2.41,2.41,0,0,0,.55,1.68,1.85,1.85,0,0,0,1.46.61,1.77,1.77,0,0,0,1.43-.6,2.63,2.63,0,0,0,.5-1.72,2.66,2.66,0,0,0-.5-1.73A1.74,1.74,0,0,0,344.19,4.87Z" fill="#1e1e1e"/>
      <path d="M351.77,5.17A1.18,1.18,0,0,0,351,5a1.23,1.23,0,0,0-1,.58,2.72,2.72,0,0,0-.41,1.58V10.2h-1v-6h1V5.44h0a2.17,2.17,0,0,1,.63-1,1.41,1.41,0,0,1,.94-.35,1.52,1.52,0,0,1,.58.08Z" fill="#1e1e1e"/>
      <path d="M357.59,4.2l-2.76,7c-.5,1.24-1.19,1.87-2.08,1.87a2.12,2.12,0,0,1-.62-.08v-.86a1.7,1.7,0,0,0,.56.1,1.17,1.17,0,0,0,1.09-.86l.48-1.14-2.34-6H353l1.62,4.62c0,.06.06.21.12.46h0c0-.1.06-.25.11-.45l1.71-4.63Z" fill="#1e1e1e"/>
      <path d="M367.8,7.1h-2.37V9.46h-.78V7.1h-2.36V6.31h2.36V4h.78V6.31h2.37Z" fill="#1e1e1e"/>
      <path d="M247.61,23.4h-1.09l-.89-2.35h-3.57l-.84,2.35h-1.09l3.22-8.4h1Zm-2.31-3.24L244,16.58a3.61,3.61,0,0,1-.12-.56h0a3.36,3.36,0,0,1-.13.56l-1.31,3.58Z" fill="#1e1e1e"/>
      <path d="M252.8,23.13a3.19,3.19,0,0,1-1.64.41,2.75,2.75,0,0,1-2.07-.83,3.06,3.06,0,0,1-.79-2.17,3.35,3.35,0,0,1,.85-2.38,3,3,0,0,1,2.27-.9,3.2,3.2,0,0,1,1.39.29v1a2.45,2.45,0,0,0-1.43-.47,1.91,1.91,0,0,0-1.5.66,2.47,2.47,0,0,0-.59,1.73,2.36,2.36,0,0,0,.55,1.66,1.91,1.91,0,0,0,1.49.61,2.38,2.38,0,0,0,1.47-.52Z" fill="#1e1e1e"/>
      <path d="M257,23.34a1.82,1.82,0,0,1-.9.19c-1,0-1.57-.59-1.57-1.76V18.22h-1V17.4h1V15.94l1-.31V17.4H257v.82h-1.51V21.6a1.45,1.45,0,0,0,.2.86.81.81,0,0,0,.68.26,1,1,0,0,0,.63-.2Z" fill="#1e1e1e"/>
      <path d="M258.81,15.88a.58.58,0,0,1-.43-.18.56.56,0,0,1-.19-.44.63.63,0,0,1,.62-.63.61.61,0,0,1,.45.18.58.58,0,0,1,.19.45.58.58,0,0,1-.19.44A.61.61,0,0,1,258.81,15.88Zm.47,7.52h-1v-6h1Z" fill="#1e1e1e"/>
      <path d="M266,17.4l-2.4,6h-.94l-2.27-6h1.05l1.53,4.36a4.27,4.27,0,0,1,.21.84h0a3.94,3.94,0,0,1,.19-.82l1.59-4.38Z" fill="#1e1e1e"/>
      <path d="M271.8,20.64h-4.24a2.28,2.28,0,0,0,.54,1.55,1.88,1.88,0,0,0,1.42.54,2.94,2.94,0,0,0,1.86-.66V23a3.47,3.47,0,0,1-2.09.57,2.53,2.53,0,0,1-2-.82,3.35,3.35,0,0,1-.72-2.3,3.28,3.28,0,0,1,.79-2.28,2.54,2.54,0,0,1,2-.88,2.24,2.24,0,0,1,1.82.76,3.2,3.2,0,0,1,.65,2.12Zm-1-.81a1.91,1.91,0,0,0-.4-1.3,1.36,1.36,0,0,0-1.1-.46,1.54,1.54,0,0,0-1.15.49,2.19,2.19,0,0,0-.59,1.27Z" fill="#1e1e1e"/>
      <path d="M276.67,23.4V15H279q4.44,0,4.44,4.09a4.14,4.14,0,0,1-1.23,3.13,4.59,4.59,0,0,1-3.31,1.18Zm1-7.51v6.62h1.26a3.55,3.55,0,0,0,2.57-.88,3.34,3.34,0,0,0,.92-2.51q0-3.23-3.44-3.23Z" fill="#1e1e1e"/>
      <path d="M285.45,15.88a.59.59,0,0,1-.44-.18.56.56,0,0,1-.19-.44.63.63,0,0,1,.63-.63.6.6,0,0,1,.44.18.58.58,0,0,1,.19.45.58.58,0,0,1-.19.44A.6.6,0,0,1,285.45,15.88Zm.46,7.52h-1v-6h1Z" fill="#1e1e1e"/>
      <path d="M291,18.37a1.25,1.25,0,0,0-.73-.19,1.23,1.23,0,0,0-1,.58,2.72,2.72,0,0,0-.41,1.58V23.4h-1v-6h1v1.24h0a2.17,2.17,0,0,1,.63-1,1.41,1.41,0,0,1,.94-.35,1.49,1.49,0,0,1,.58.08Z" fill="#1e1e1e"/>
      <path d="M296.85,20.64h-4.23a2.19,2.19,0,0,0,.54,1.55,1.85,1.85,0,0,0,1.41.54,3,3,0,0,0,1.87-.66V23a3.52,3.52,0,0,1-2.09.57,2.52,2.52,0,0,1-2-.82,3.31,3.31,0,0,1-.73-2.3,3.29,3.29,0,0,1,.8-2.28,2.51,2.51,0,0,1,2-.88,2.25,2.25,0,0,1,1.82.76,3.19,3.19,0,0,1,.64,2.12Zm-1-.81a2,2,0,0,0-.4-1.3,1.37,1.37,0,0,0-1.1-.46,1.56,1.56,0,0,0-1.16.49,2.18,2.18,0,0,0-.58,1.27Z" fill="#1e1e1e"/>
      <path d="M302.4,23.13a3.19,3.19,0,0,1-1.64.41,2.76,2.76,0,0,1-2.08-.83,3.06,3.06,0,0,1-.78-2.17,3.3,3.3,0,0,1,.85-2.38,3,3,0,0,1,2.26-.9,3.24,3.24,0,0,1,1.4.29v1a2.47,2.47,0,0,0-1.43-.47,1.93,1.93,0,0,0-1.51.66,2.52,2.52,0,0,0-.59,1.73,2.41,2.41,0,0,0,.55,1.66,1.91,1.91,0,0,0,1.49.61,2.41,2.41,0,0,0,1.48-.52Z" fill="#1e1e1e"/>
      <path d="M306.63,23.34a1.76,1.76,0,0,1-.89.19c-1.05,0-1.58-.59-1.58-1.76V18.22h-1V17.4h1V15.94l1-.31V17.4h1.51v.82h-1.51V21.6a1.37,1.37,0,0,0,.21.86.78.78,0,0,0,.68.26.94.94,0,0,0,.62-.2Z" fill="#1e1e1e"/>
      <path d="M310.42,23.54a2.79,2.79,0,0,1-2.12-.84,3.1,3.1,0,0,1-.79-2.23,3.24,3.24,0,0,1,.82-2.36,3,3,0,0,1,2.23-.85,2.7,2.7,0,0,1,2.1.83,3.27,3.27,0,0,1,.75,2.29,3.25,3.25,0,0,1-.81,2.3A2.87,2.87,0,0,1,310.42,23.54Zm.07-5.47a1.83,1.83,0,0,0-1.46.63,2.59,2.59,0,0,0-.54,1.74,2.41,2.41,0,0,0,.55,1.68,1.82,1.82,0,0,0,1.45.61,1.77,1.77,0,0,0,1.44-.6,2.63,2.63,0,0,0,.5-1.72,2.66,2.66,0,0,0-.5-1.73A1.75,1.75,0,0,0,310.49,18.07Z" fill="#1e1e1e"/>
      <path d="M318.08,18.37a1.25,1.25,0,0,0-.73-.19,1.23,1.23,0,0,0-1,.58,2.72,2.72,0,0,0-.41,1.58V23.4h-1v-6h1v1.24h0a2.17,2.17,0,0,1,.63-1,1.39,1.39,0,0,1,.94-.35,1.52,1.52,0,0,1,.58.08Z" fill="#1e1e1e"/>
      <path d="M323.89,17.4l-2.76,7c-.49,1.24-1.18,1.87-2.07,1.87a2.25,2.25,0,0,1-.63-.08v-.86a1.8,1.8,0,0,0,.57.1,1.17,1.17,0,0,0,1.09-.86l.48-1.14-2.34-6h1.06L320.92,22c0,.06.06.21.12.46h0a4.6,4.6,0,0,1,.11-.45l1.71-4.63Z" fill="#1e1e1e"/>
      <path d="M332.61,15.89h-3.28V18.8h3v.88h-3V23.4h-1V15h4.27Z" fill="#1e1e1e"/>
      <path d="M338.89,20.64h-4.23a2.19,2.19,0,0,0,.54,1.55,1.85,1.85,0,0,0,1.42.54,3,3,0,0,0,1.86-.66V23a3.52,3.52,0,0,1-2.09.57,2.52,2.52,0,0,1-2-.82,3.31,3.31,0,0,1-.73-2.3,3.29,3.29,0,0,1,.8-2.28,2.53,2.53,0,0,1,2-.88,2.25,2.25,0,0,1,1.82.76,3.19,3.19,0,0,1,.64,2.12Zm-1-.81a2,2,0,0,0-.4-1.3,1.36,1.36,0,0,0-1.1-.46,1.52,1.52,0,0,0-1.15.49,2.13,2.13,0,0,0-.59,1.27Z" fill="#1e1e1e"/>
      <path d="M345.47,23.4h-1v-1h0a2.2,2.2,0,0,1-2.06,1.16,2.28,2.28,0,0,1-1.81-.8,3.32,3.32,0,0,1-.67-2.2,3.57,3.57,0,0,1,.75-2.38,2.46,2.46,0,0,1,2-.9,1.9,1.9,0,0,1,1.79,1h0V14.52h1Zm-1-2.71V19.8a1.73,1.73,0,0,0-.48-1.23,1.78,1.78,0,0,0-2.6.14,2.82,2.82,0,0,0-.51,1.79,2.48,2.48,0,0,0,.49,1.63,1.57,1.57,0,0,0,1.29.6,1.65,1.65,0,0,0,1.31-.58A2.16,2.16,0,0,0,344.51,20.69Z" fill="#1e1e1e"/>
      <path d="M352.24,20.64H348a2.28,2.28,0,0,0,.54,1.55,1.87,1.87,0,0,0,1.42.54,3,3,0,0,0,1.86-.66V23a3.5,3.5,0,0,1-2.09.57,2.52,2.52,0,0,1-2-.82,3.36,3.36,0,0,1-.73-2.3,3.29,3.29,0,0,1,.8-2.28,2.53,2.53,0,0,1,2-.88,2.25,2.25,0,0,1,1.82.76,3.2,3.2,0,0,1,.65,2.12Zm-1-.81a2,2,0,0,0-.4-1.3,1.36,1.36,0,0,0-1.1-.46,1.52,1.52,0,0,0-1.15.49,2.19,2.19,0,0,0-.59,1.27Z" fill="#1e1e1e"/>
      <path d="M356.82,18.37a1.25,1.25,0,0,0-.73-.19,1.23,1.23,0,0,0-1,.58,2.72,2.72,0,0,0-.41,1.58V23.4h-1v-6h1v1.24h0a2.17,2.17,0,0,1,.63-1,1.41,1.41,0,0,1,.94-.35,1.49,1.49,0,0,1,.58.08Z" fill="#1e1e1e"/>
      <path d="M362.16,23.4h-1v-.94h0a2.2,2.2,0,0,1-3.25.61,1.64,1.64,0,0,1-.5-1.26c0-1.12.66-1.78,2-2l1.8-.25c0-1-.42-1.53-1.24-1.53a3,3,0,0,0-2,.74v-1a3.76,3.76,0,0,1,2-.56c1.41,0,2.12.75,2.12,2.24Zm-1-3-1.45.2a2.3,2.3,0,0,0-1,.33,1.1,1.1,0,0,0,0,1.56,1.25,1.25,0,0,0,.84.27,1.51,1.51,0,0,0,1.18-.5A1.78,1.78,0,0,0,361.2,21Z" fill="#1e1e1e"/>
      <path d="M366.75,23.34a1.82,1.82,0,0,1-.9.19c-1.05,0-1.57-.59-1.57-1.76V18.22h-1V17.4h1V15.94l1-.31V17.4h1.51v.82h-1.51V21.6a1.45,1.45,0,0,0,.2.86.81.81,0,0,0,.68.26,1,1,0,0,0,.63-.2Z" fill="#1e1e1e"/>
      <path d="M368.53,15.88a.59.59,0,0,1-.44-.18.56.56,0,0,1-.19-.44.63.63,0,0,1,.63-.63.6.6,0,0,1,.44.18.58.58,0,0,1,.19.45.58.58,0,0,1-.19.44A.6.6,0,0,1,368.53,15.88ZM369,23.4h-1v-6h1Z" fill="#1e1e1e"/>
      <path d="M373.45,23.54a2.79,2.79,0,0,1-2.13-.84,3.1,3.1,0,0,1-.79-2.23,3.21,3.21,0,0,1,.83-2.36,3,3,0,0,1,2.23-.85,2.69,2.69,0,0,1,2.09.83,3.28,3.28,0,0,1,.76,2.29,3.21,3.21,0,0,1-.82,2.3A2.85,2.85,0,0,1,373.45,23.54Zm.07-5.47a1.84,1.84,0,0,0-1.47.63,2.59,2.59,0,0,0-.54,1.74,2.46,2.46,0,0,0,.55,1.68,1.85,1.85,0,0,0,1.46.61,1.75,1.75,0,0,0,1.43-.6,2.63,2.63,0,0,0,.5-1.72,2.66,2.66,0,0,0-.5-1.73A1.73,1.73,0,0,0,373.52,18.07Z" fill="#1e1e1e"/>
      <path d="M383,23.4h-1V20c0-1.27-.46-1.91-1.39-1.91a1.54,1.54,0,0,0-1.2.54,2,2,0,0,0-.47,1.37V23.4h-1v-6h1v1h0a2.15,2.15,0,0,1,2-1.14,1.83,1.83,0,0,1,1.51.64,2.79,2.79,0,0,1,.52,1.83Z" fill="#1e1e1e"/>
      <path d="M240.71,36.26V35.1a2.23,2.23,0,0,0,.48.32,3.69,3.69,0,0,0,.58.23,3.5,3.5,0,0,0,.62.15,3.07,3.07,0,0,0,.57.06,2.29,2.29,0,0,0,1.36-.34,1.26,1.26,0,0,0,.3-1.56,1.76,1.76,0,0,0-.41-.46,4.57,4.57,0,0,0-.63-.4l-.77-.4c-.3-.15-.57-.3-.82-.45a3.2,3.2,0,0,1-.67-.51,2.26,2.26,0,0,1-.44-.62,1.91,1.91,0,0,1-.16-.82,1.93,1.93,0,0,1,.25-1,2.32,2.32,0,0,1,.66-.7,3.19,3.19,0,0,1,.94-.41,4.29,4.29,0,0,1,1.07-.13,4.08,4.08,0,0,1,1.81.3v1.1a3.31,3.31,0,0,0-1.91-.51,2.88,2.88,0,0,0-.65.07,1.58,1.58,0,0,0-.57.22,1.27,1.27,0,0,0-.41.39,1,1,0,0,0-.16.58,1.22,1.22,0,0,0,.12.56,1.31,1.31,0,0,0,.36.43,3,3,0,0,0,.57.37c.22.12.48.26.77.4s.59.31.86.47a3.62,3.62,0,0,1,.71.55,2.53,2.53,0,0,1,.48.66,1.84,1.84,0,0,1,.18.83,2.14,2.14,0,0,1-.24,1.05,1.93,1.93,0,0,1-.66.7,2.8,2.8,0,0,1-1,.39,5.24,5.24,0,0,1-1.14.12l-.49,0-.6-.09-.57-.16A1.51,1.51,0,0,1,240.71,36.26Z" fill="#1e1e1e"/>
      <path d="M252.17,33.84h-4.24a2.3,2.3,0,0,0,.54,1.55,1.88,1.88,0,0,0,1.42.54,2.94,2.94,0,0,0,1.86-.66v.9a3.47,3.47,0,0,1-2.09.57,2.53,2.53,0,0,1-2-.82,3.35,3.35,0,0,1-.72-2.3,3.28,3.28,0,0,1,.79-2.28,2.54,2.54,0,0,1,2-.88,2.26,2.26,0,0,1,1.83.76,3.19,3.19,0,0,1,.64,2.12Zm-1-.81a2,2,0,0,0-.41-1.3,1.35,1.35,0,0,0-1.09-.46,1.54,1.54,0,0,0-1.16.49A2.12,2.12,0,0,0,248,33Z" fill="#1e1e1e"/>
      <path d="M256.75,31.57a1.16,1.16,0,0,0-.72-.19,1.21,1.21,0,0,0-1,.58,2.64,2.64,0,0,0-.42,1.58V36.6h-1v-6h1v1.24h0a2.08,2.08,0,0,1,.62-1,1.63,1.63,0,0,1,1.52-.27Z" fill="#1e1e1e"/>
      <path d="M262.51,30.6l-2.39,6h-.94l-2.28-6H258L259.48,35a3.21,3.21,0,0,1,.21.84h0a4.72,4.72,0,0,1,.18-.82l1.6-4.38Z" fill="#1e1e1e"/>
      <path d="M264,29.08a.59.59,0,0,1-.44-.18.56.56,0,0,1-.19-.44.63.63,0,0,1,.63-.63.6.6,0,0,1,.44.18.58.58,0,0,1,.19.45.59.59,0,0,1-.19.44A.6.6,0,0,1,264,29.08Zm.46,7.52h-1v-6h1Z" fill="#1e1e1e"/>
      <path d="M270.54,36.33a3.19,3.19,0,0,1-1.64.41,2.72,2.72,0,0,1-2.07-.83,3,3,0,0,1-.79-2.17,3.3,3.3,0,0,1,.85-2.38,3,3,0,0,1,2.27-.9,3.23,3.23,0,0,1,1.39.29v1a2.45,2.45,0,0,0-1.43-.47,1.93,1.93,0,0,0-1.51.66,2.5,2.5,0,0,0-.59,1.73,2.36,2.36,0,0,0,.56,1.66,1.89,1.89,0,0,0,1.48.61,2.39,2.39,0,0,0,1.48-.52Z" fill="#1e1e1e"/>
      <path d="M276.81,33.84h-4.23a2.21,2.21,0,0,0,.54,1.55,1.85,1.85,0,0,0,1.42.54,3,3,0,0,0,1.86-.66v.9a3.52,3.52,0,0,1-2.09.57,2.52,2.52,0,0,1-2-.82,3.31,3.31,0,0,1-.73-2.3,3.29,3.29,0,0,1,.8-2.28,2.53,2.53,0,0,1,2-.88,2.25,2.25,0,0,1,1.82.76,3.19,3.19,0,0,1,.64,2.12Zm-1-.81a2,2,0,0,0-.4-1.3,1.36,1.36,0,0,0-1.1-.46,1.52,1.52,0,0,0-1.15.49,2.13,2.13,0,0,0-.59,1.27Z" fill="#1e1e1e"/>
      <path d="M277.9,36.38v-1a2.84,2.84,0,0,0,1.73.58c.85,0,1.27-.28,1.27-.84a.76.76,0,0,0-.11-.41,1,1,0,0,0-.29-.29,2.28,2.28,0,0,0-.44-.24l-.53-.21a5.16,5.16,0,0,1-.7-.32,2.55,2.55,0,0,1-.51-.36,1.52,1.52,0,0,1-.3-.46,1.59,1.59,0,0,1-.1-.61,1.38,1.38,0,0,1,.19-.74,1.7,1.7,0,0,1,.52-.55,2.57,2.57,0,0,1,.73-.33,3.59,3.59,0,0,1,2.25.16v1a2.71,2.71,0,0,0-1.53-.43,1.75,1.75,0,0,0-.48.06,1.15,1.15,0,0,0-.37.17.76.76,0,0,0-.24.27.67.67,0,0,0-.09.34.82.82,0,0,0,.09.4,1,1,0,0,0,.24.28,2.48,2.48,0,0,0,.4.22l.54.22a6.85,6.85,0,0,1,.71.31,2.82,2.82,0,0,1,.54.36,1.41,1.41,0,0,1,.34.47,1.48,1.48,0,0,1,.12.63,1.49,1.49,0,0,1-.19.77,1.61,1.61,0,0,1-.53.54,2.32,2.32,0,0,1-.75.33,3.82,3.82,0,0,1-.9.1A3.41,3.41,0,0,1,277.9,36.38Z" fill="#1e1e1e"/>
      <path d="M289.17,38.51h-.86a7.49,7.49,0,0,1-1.82-5.11,7.78,7.78,0,0,1,1.82-5.2h.87a7.86,7.86,0,0,0-1.84,5.18A7.75,7.75,0,0,0,289.17,38.51Z" fill="#1e1e1e"/>
      <path d="M296.9,36.6h-1.09l-.89-2.35h-3.56l-.84,2.35h-1.1l3.23-8.4h1Zm-2.3-3.24-1.32-3.58a3.38,3.38,0,0,1-.13-.56h0a3.23,3.23,0,0,1-.14.56l-1.3,3.58Z" fill="#1e1e1e"/>
      <path d="M298.14,36.6V28.2h2.32q4.44,0,4.44,4.09a4.14,4.14,0,0,1-1.23,3.13,4.59,4.59,0,0,1-3.31,1.18Zm1-7.51v6.62h1.26a3.56,3.56,0,0,0,2.57-.88,3.34,3.34,0,0,0,.92-2.51q0-3.22-3.44-3.23Z" fill="#1e1e1e"/>
      <path d="M310.82,29.09h-3.28V32h3v.88h-3V36.6h-1V28.2h4.27Z" fill="#1e1e1e"/>
      <path d="M312,36.26V35.1a2.23,2.23,0,0,0,.48.32,3.69,3.69,0,0,0,.58.23,3.5,3.5,0,0,0,.62.15,3.07,3.07,0,0,0,.57.06,2.29,2.29,0,0,0,1.36-.34,1.26,1.26,0,0,0,.3-1.56,1.76,1.76,0,0,0-.41-.46,4.57,4.57,0,0,0-.63-.4l-.77-.4c-.3-.15-.57-.3-.83-.45a3.4,3.4,0,0,1-.66-.51,2.26,2.26,0,0,1-.44-.62,1.91,1.91,0,0,1-.16-.82,1.93,1.93,0,0,1,.25-1,2.32,2.32,0,0,1,.66-.7,3.19,3.19,0,0,1,.94-.41,4.24,4.24,0,0,1,1.07-.13,4.08,4.08,0,0,1,1.81.3v1.1a3.31,3.31,0,0,0-1.91-.51,2.88,2.88,0,0,0-.65.07,1.58,1.58,0,0,0-.57.22,1.18,1.18,0,0,0-.41.39,1,1,0,0,0-.16.58,1.22,1.22,0,0,0,.12.56,1.31,1.31,0,0,0,.36.43,3,3,0,0,0,.57.37c.22.12.48.26.77.4s.59.31.86.47a3.94,3.94,0,0,1,.71.55,2.53,2.53,0,0,1,.48.66,1.84,1.84,0,0,1,.18.83,2.14,2.14,0,0,1-.24,1.05,2,2,0,0,1-.66.7,2.88,2.88,0,0,1-.95.39,5.24,5.24,0,0,1-1.14.12l-.49,0-.6-.09-.58-.16A1.57,1.57,0,0,1,312,36.26Z" fill="#1e1e1e"/>
      <path d="M318.68,38.51h-.86a7.75,7.75,0,0,0,1.83-5.13,7.86,7.86,0,0,0-1.84-5.18h.87a7.74,7.74,0,0,1,1.83,5.2A7.45,7.45,0,0,1,318.68,38.51Z" fill="#1e1e1e"/>
    </g>
    <g>
      <path d="M7.58,128.34a3.7,3.7,0,0,1-2.87-1.18,4.37,4.37,0,0,1-1.07-3.06,4.57,4.57,0,0,1,1.1-3.23,3.8,3.8,0,0,1,3-1.21,3.6,3.6,0,0,1,2.8,1.17,4.37,4.37,0,0,1,1.06,3.06,4.68,4.68,0,0,1-1.08,3.26A3.78,3.78,0,0,1,7.58,128.34Zm.07-7.79a2.71,2.71,0,0,0-2.15,1,4.24,4.24,0,0,0,0,5,2.61,2.61,0,0,0,2.1.95,2.74,2.74,0,0,0,2.18-.91,3.68,3.68,0,0,0,.79-2.52,3.81,3.81,0,0,0-.77-2.57A2.65,2.65,0,0,0,7.65,120.55Z" fill="#1e1e1e"/>
      <path d="M16.24,123.17a1.18,1.18,0,0,0-.73-.19,1.23,1.23,0,0,0-1,.58,2.72,2.72,0,0,0-.41,1.58v3.06h-1v-6h1v1.24h0a2.17,2.17,0,0,1,.63-1,1.41,1.41,0,0,1,.94-.35,1.52,1.52,0,0,1,.58.08Z" fill="#1e1e1e"/>
      <path d="M22.4,127.72c0,2.2-1,3.31-3.16,3.31a4.31,4.31,0,0,1-1.95-.43v-1a4,4,0,0,0,1.94.57c1.47,0,2.21-.79,2.21-2.36v-.66h0a2.43,2.43,0,0,1-3.87.35,3.22,3.22,0,0,1-.68-2.15,3.75,3.75,0,0,1,.74-2.43,2.46,2.46,0,0,1,2-.9,2,2,0,0,1,1.8,1h0v-.83h1Zm-1-2.23v-.89a1.72,1.72,0,0,0-.48-1.22,1.62,1.62,0,0,0-1.21-.51,1.64,1.64,0,0,0-1.39.65,2.85,2.85,0,0,0-.51,1.81,2.48,2.48,0,0,0,.49,1.6,1.56,1.56,0,0,0,1.28.6,1.65,1.65,0,0,0,1.31-.57A2.12,2.12,0,0,0,21.44,125.49Z" fill="#1e1e1e"/>
      <path d="M28.64,128.2h-1v-.94h0a2,2,0,0,1-1.85,1.08,2,2,0,0,1-1.4-.47,1.65,1.65,0,0,1-.51-1.26c0-1.12.66-1.78,2-2l1.8-.25c0-1-.41-1.53-1.24-1.53a3,3,0,0,0-2,.74v-1a3.76,3.76,0,0,1,2-.56c1.41,0,2.11.75,2.11,2.24Zm-1-3-1.45.2a2.25,2.25,0,0,0-1,.33.93.93,0,0,0-.34.84.89.89,0,0,0,.31.71,1.19,1.19,0,0,0,.83.28,1.51,1.51,0,0,0,1.18-.5,1.74,1.74,0,0,0,.47-1.27Z" fill="#1e1e1e"/>
      <path d="M35.43,128.2h-1v-3.42c0-1.27-.46-1.91-1.39-1.91a1.54,1.54,0,0,0-1.2.54,2,2,0,0,0-.47,1.37v3.42h-1v-6h1v1h0a2.16,2.16,0,0,1,2-1.14,1.82,1.82,0,0,1,1.5.64,2.79,2.79,0,0,1,.52,1.83Z" fill="#1e1e1e"/>
      <path d="M37.74,120.68a.59.59,0,0,1-.44-.18.56.56,0,0,1-.19-.44.63.63,0,0,1,.63-.63.6.6,0,0,1,.44.18.58.58,0,0,1,.19.45.58.58,0,0,1-.19.44A.6.6,0,0,1,37.74,120.68Zm.46,7.52h-1v-6h1Z" fill="#1e1e1e"/>
      <path d="M44.33,122.48l-3.55,4.9H44.3v.82H39.37v-.3L42.92,123H39.7v-.82h4.63Z" fill="#1e1e1e"/>
      <path d="M49.87,128.2h-1v-.94h0A2,2,0,0,1,47,128.34a2,2,0,0,1-1.4-.47,1.65,1.65,0,0,1-.51-1.26c0-1.12.66-1.78,2-2l1.8-.25c0-1-.41-1.53-1.24-1.53a3,3,0,0,0-2,.74v-1a3.75,3.75,0,0,1,2-.56c1.42,0,2.12.75,2.12,2.24Zm-1-3-1.45.2a2.35,2.35,0,0,0-1,.33,1,1,0,0,0-.34.84.9.9,0,0,0,.32.71,1.19,1.19,0,0,0,.83.28,1.51,1.51,0,0,0,1.18-.5,1.78,1.78,0,0,0,.47-1.27Z" fill="#1e1e1e"/>
      <path d="M54.46,128.14a1.76,1.76,0,0,1-.89.19c-1,0-1.58-.59-1.58-1.76V123H51v-.82h1v-1.46l1-.31v1.77h1.51V123H53v3.38a1.37,1.37,0,0,0,.21.86.78.78,0,0,0,.68.26.94.94,0,0,0,.62-.2Z" fill="#1e1e1e"/>
      <path d="M56.24,120.68a.6.6,0,0,1-.44-.18.59.59,0,0,1-.18-.44.61.61,0,0,1,.18-.45.6.6,0,0,1,.44-.18.63.63,0,0,1,.45.18.61.61,0,0,1,.18.45.6.6,0,0,1-.18.44A.63.63,0,0,1,56.24,120.68Zm.47,7.52h-1v-6h1Z" fill="#1e1e1e"/>
      <path d="M61.16,128.34A2.77,2.77,0,0,1,59,127.5a3.11,3.11,0,0,1-.8-2.23,3.25,3.25,0,0,1,.83-2.36,3,3,0,0,1,2.23-.85,2.71,2.71,0,0,1,2.1.83,3.77,3.77,0,0,1-.06,4.59A2.87,2.87,0,0,1,61.16,128.34Zm.07-5.47a1.81,1.81,0,0,0-1.46.63,2.59,2.59,0,0,0-.54,1.74,2.46,2.46,0,0,0,.54,1.68,1.86,1.86,0,0,0,1.46.61,1.75,1.75,0,0,0,1.43-.6,2.58,2.58,0,0,0,.51-1.72,2.61,2.61,0,0,0-.51-1.73A1.73,1.73,0,0,0,61.23,122.87Z" fill="#1e1e1e"/>
      <path d="M70.67,128.2h-1v-3.42c0-1.27-.46-1.91-1.39-1.91a1.5,1.5,0,0,0-1.19.54,2,2,0,0,0-.47,1.37v3.42h-1v-6h1v1h0a2.16,2.16,0,0,1,2-1.14,1.81,1.81,0,0,1,1.5.64,2.79,2.79,0,0,1,.53,1.83Z" fill="#1e1e1e"/>
      <path d="M72.11,128v-1a2.84,2.84,0,0,0,1.73.58c.84,0,1.27-.28,1.27-.84a.76.76,0,0,0-.11-.41,1,1,0,0,0-.29-.29,2.28,2.28,0,0,0-.44-.24l-.53-.21a5.16,5.16,0,0,1-.7-.32,2.29,2.29,0,0,1-.51-.36,1.35,1.35,0,0,1-.3-.46,1.58,1.58,0,0,1-.11-.61,1.39,1.39,0,0,1,.2-.74,1.78,1.78,0,0,1,.51-.55,2.77,2.77,0,0,1,.74-.33,3.41,3.41,0,0,1,.85-.11,3.46,3.46,0,0,1,1.4.27v1a2.74,2.74,0,0,0-1.53-.43,1.75,1.75,0,0,0-.48.06,1.33,1.33,0,0,0-.38.17,1,1,0,0,0-.24.27.77.77,0,0,0-.08.34,1,1,0,0,0,.08.4,1.07,1.07,0,0,0,.25.28,2.11,2.11,0,0,0,.4.22l.53.22a6.21,6.21,0,0,1,.72.31,2.82,2.82,0,0,1,.54.36A1.41,1.41,0,0,1,76,126a1.48,1.48,0,0,1,.12.63,1.41,1.41,0,0,1-.2.77,1.58,1.58,0,0,1-.52.54,2.28,2.28,0,0,1-.76.33,3.68,3.68,0,0,1-.89.1A3.41,3.41,0,0,1,72.11,128Z" fill="#1e1e1e"/>
      <path d="M83.76,119.8l-4,9.8h-.9l4-9.8Z" fill="#1e1e1e"/>
      <path d="M87.17,128.2v-8.4h2.32q4.44,0,4.44,4.09A4.14,4.14,0,0,1,92.7,127a4.55,4.55,0,0,1-3.3,1.18Zm1-7.51v6.62h1.25a3.55,3.55,0,0,0,2.57-.88,3.3,3.3,0,0,0,.92-2.51q0-3.23-3.43-3.23Z" fill="#1e1e1e"/>
      <path d="M96,120.68a.6.6,0,0,1-.44-.18.59.59,0,0,1-.18-.44.61.61,0,0,1,.18-.45.6.6,0,0,1,.44-.18.63.63,0,0,1,.45.18.61.61,0,0,1,.18.45.6.6,0,0,1-.18.44A.63.63,0,0,1,96,120.68Zm.47,7.52h-1v-6h1Z" fill="#1e1e1e"/>
      <path d="M101.49,123.17a1.16,1.16,0,0,0-.72-.19,1.21,1.21,0,0,0-1,.58,2.64,2.64,0,0,0-.42,1.58v3.06h-1v-6h1v1.24h0a2.08,2.08,0,0,1,.62-1,1.63,1.63,0,0,1,1.52-.27Z" fill="#1e1e1e"/>
      <path d="M107.36,125.44h-4.24a2.28,2.28,0,0,0,.54,1.55,1.87,1.87,0,0,0,1.42.54,3,3,0,0,0,1.86-.66v.9a3.5,3.5,0,0,1-2.09.57,2.53,2.53,0,0,1-2-.82,3.35,3.35,0,0,1-.72-2.3,3.28,3.28,0,0,1,.79-2.28,2.54,2.54,0,0,1,2-.88,2.24,2.24,0,0,1,1.82.76,3.2,3.2,0,0,1,.65,2.12Zm-1-.81a1.91,1.91,0,0,0-.4-1.3,1.36,1.36,0,0,0-1.1-.46,1.54,1.54,0,0,0-1.15.49,2.19,2.19,0,0,0-.59,1.27Z" fill="#1e1e1e"/>
      <path d="M112.9,127.93a3.19,3.19,0,0,1-1.64.41,2.72,2.72,0,0,1-2.07-.83,3,3,0,0,1-.79-2.17,3.3,3.3,0,0,1,.85-2.38,3,3,0,0,1,2.27-.9,3.23,3.23,0,0,1,1.39.29v1a2.45,2.45,0,0,0-1.43-.47,2,2,0,0,0-1.51.66,2.5,2.5,0,0,0-.59,1.73,2.36,2.36,0,0,0,.56,1.66,1.89,1.89,0,0,0,1.48.61,2.39,2.39,0,0,0,1.48-.52Z" fill="#1e1e1e"/>
      <path d="M117.14,128.14a1.82,1.82,0,0,1-.9.19c-1,0-1.58-.59-1.58-1.76V123h-1v-.82h1v-1.46l1-.31v1.77h1.51V123h-1.51v3.38a1.38,1.38,0,0,0,.2.86.8.8,0,0,0,.68.26,1,1,0,0,0,.63-.2Z" fill="#1e1e1e"/>
      <path d="M120.93,128.34a2.79,2.79,0,0,1-2.13-.84,3.1,3.1,0,0,1-.79-2.23,3.25,3.25,0,0,1,.83-2.36,3,3,0,0,1,2.23-.85,2.69,2.69,0,0,1,2.09.83,3.73,3.73,0,0,1-.06,4.59A2.85,2.85,0,0,1,120.93,128.34Zm.07-5.47a1.84,1.84,0,0,0-1.47.63,2.59,2.59,0,0,0-.54,1.74,2.46,2.46,0,0,0,.55,1.68,1.85,1.85,0,0,0,1.46.61,1.75,1.75,0,0,0,1.43-.6,2.63,2.63,0,0,0,.5-1.72,2.66,2.66,0,0,0-.5-1.73A1.73,1.73,0,0,0,121,122.87Z" fill="#1e1e1e"/>
      <path d="M128.58,123.17a1.18,1.18,0,0,0-.73-.19,1.2,1.2,0,0,0-1,.58,2.64,2.64,0,0,0-.42,1.58v3.06h-1v-6h1v1.24h0a2.08,2.08,0,0,1,.62-1,1.42,1.42,0,0,1,.95-.35,1.44,1.44,0,0,1,.57.08Z" fill="#1e1e1e"/>
      <path d="M130.12,120.68a.59.59,0,0,1-.44-.18.56.56,0,0,1-.19-.44.63.63,0,0,1,.63-.63.6.6,0,0,1,.44.18.58.58,0,0,1,.19.45.58.58,0,0,1-.19.44A.6.6,0,0,1,130.12,120.68Zm.46,7.52h-1v-6h1Z" fill="#1e1e1e"/>
      <path d="M137.35,125.44h-4.23a2.23,2.23,0,0,0,.53,1.55,1.88,1.88,0,0,0,1.42.54,3,3,0,0,0,1.87-.66v.9a3.53,3.53,0,0,1-2.1.57,2.51,2.51,0,0,1-2-.82,3.83,3.83,0,0,1,.06-4.58,2.54,2.54,0,0,1,2-.88,2.26,2.26,0,0,1,1.83.76,3.19,3.19,0,0,1,.64,2.12Zm-1-.81a2,2,0,0,0-.4-1.3,1.37,1.37,0,0,0-1.1-.46,1.54,1.54,0,0,0-1.16.49,2.18,2.18,0,0,0-.58,1.27Z" fill="#1e1e1e"/>
      <path d="M138.44,128v-1a2.82,2.82,0,0,0,1.73.58c.84,0,1.27-.28,1.27-.84a.76.76,0,0,0-.11-.41,1,1,0,0,0-.3-.29,1.94,1.94,0,0,0-.43-.24l-.54-.21a6.6,6.6,0,0,1-.7-.32,2.47,2.47,0,0,1-.5-.36,1.35,1.35,0,0,1-.3-.46,1.58,1.58,0,0,1-.11-.61,1.39,1.39,0,0,1,.2-.74,1.78,1.78,0,0,1,.51-.55,2.77,2.77,0,0,1,.74-.33,3.56,3.56,0,0,1,2.24.16v1a2.68,2.68,0,0,0-1.52-.43,1.88,1.88,0,0,0-.49.06,1.4,1.4,0,0,0-.37.17,1,1,0,0,0-.24.27.77.77,0,0,0-.08.34,1,1,0,0,0,.08.4,1.07,1.07,0,0,0,.25.28,2.11,2.11,0,0,0,.4.22l.53.22a6.21,6.21,0,0,1,.72.31,2.82,2.82,0,0,1,.54.36,1.41,1.41,0,0,1,.34.47,1.48,1.48,0,0,1,.12.63,1.5,1.5,0,0,1-.2.77,1.58,1.58,0,0,1-.52.54,2.28,2.28,0,0,1-.76.33,3.68,3.68,0,0,1-.89.1A3.39,3.39,0,0,1,138.44,128Z" fill="#1e1e1e"/>
      <path d="M150.09,119.8l-4,9.8h-.9l4-9.8Z" fill="#1e1e1e"/>
      <path d="M59.19,141.4V133h2.32Q66,133,66,137.09a4.14,4.14,0,0,1-1.23,3.13,4.55,4.55,0,0,1-3.3,1.18Zm1-7.51v6.62h1.25a3.55,3.55,0,0,0,2.57-.88,3.3,3.3,0,0,0,.92-2.51q0-3.23-3.43-3.23Z" fill="#1e1e1e"/>
      <path d="M68,133.88a.6.6,0,0,1-.44-.18.59.59,0,0,1-.18-.44.61.61,0,0,1,.18-.45.6.6,0,0,1,.44-.18.64.64,0,0,1,.45.18.61.61,0,0,1,.18.45.6.6,0,0,1-.18.44A.64.64,0,0,1,68,133.88Zm.47,7.52h-1v-6h1Z" fill="#1e1e1e"/>
      <path d="M73.51,136.37a1.23,1.23,0,0,0-.72-.19,1.21,1.21,0,0,0-1,.58,2.64,2.64,0,0,0-.42,1.58v3.06h-1v-6h1v1.24h0a2.08,2.08,0,0,1,.62-1,1.63,1.63,0,0,1,1.52-.27Z" fill="#1e1e1e"/>
      <path d="M79.38,138.64H75.14a2.28,2.28,0,0,0,.54,1.55,1.87,1.87,0,0,0,1.42.54,3,3,0,0,0,1.86-.66v.9a3.5,3.5,0,0,1-2.09.57,2.53,2.53,0,0,1-2-.82,3.36,3.36,0,0,1-.73-2.3,3.29,3.29,0,0,1,.8-2.28,2.54,2.54,0,0,1,2-.88,2.24,2.24,0,0,1,1.82.76,3.2,3.2,0,0,1,.65,2.12Zm-1-.81a2,2,0,0,0-.4-1.3,1.36,1.36,0,0,0-1.1-.46,1.52,1.52,0,0,0-1.15.49,2.19,2.19,0,0,0-.59,1.27Z" fill="#1e1e1e"/>
      <path d="M84.92,141.13a3.19,3.19,0,0,1-1.64.41,2.72,2.72,0,0,1-2.07-.83,3,3,0,0,1-.79-2.17,3.3,3.3,0,0,1,.85-2.38,3,3,0,0,1,2.27-.9,3.23,3.23,0,0,1,1.39.29v1a2.45,2.45,0,0,0-1.43-.47,2,2,0,0,0-1.51.66,2.52,2.52,0,0,0-.59,1.73,2.36,2.36,0,0,0,.56,1.66,1.89,1.89,0,0,0,1.48.61,2.39,2.39,0,0,0,1.48-.52Z" fill="#1e1e1e"/>
      <path d="M89.16,141.34a1.82,1.82,0,0,1-.9.19c-1.05,0-1.58-.59-1.58-1.76v-3.55h-1v-.82h1v-1.46l1-.31v1.77h1.52v.82H87.64v3.38a1.37,1.37,0,0,0,.21.86.8.8,0,0,0,.68.26,1,1,0,0,0,.63-.2Z" fill="#1e1e1e"/>
      <path d="M93,141.54a2.79,2.79,0,0,1-2.13-.84,3.1,3.1,0,0,1-.79-2.23,3.21,3.21,0,0,1,.83-2.36,3,3,0,0,1,2.23-.85,2.69,2.69,0,0,1,2.09.83,3.28,3.28,0,0,1,.76,2.29,3.21,3.21,0,0,1-.82,2.3A2.85,2.85,0,0,1,93,141.54Zm.07-5.47a1.84,1.84,0,0,0-1.47.63,2.59,2.59,0,0,0-.54,1.74,2.46,2.46,0,0,0,.55,1.68,1.85,1.85,0,0,0,1.46.61,1.75,1.75,0,0,0,1.43-.6,2.63,2.63,0,0,0,.5-1.72,2.66,2.66,0,0,0-.5-1.73A1.73,1.73,0,0,0,93,136.07Z" fill="#1e1e1e"/>
      <path d="M100.6,136.37a1.25,1.25,0,0,0-.73-.19,1.23,1.23,0,0,0-1,.58,2.72,2.72,0,0,0-.41,1.58v3.06h-1v-6h1v1.24h0a2.08,2.08,0,0,1,.62-1,1.42,1.42,0,0,1,1-.35,1.44,1.44,0,0,1,.57.08Z" fill="#1e1e1e"/>
      <path d="M106.42,135.4l-2.76,7c-.49,1.24-1.19,1.87-2.08,1.87a2.17,2.17,0,0,1-.62-.08v-.86a1.71,1.71,0,0,0,.57.1,1.19,1.19,0,0,0,1.09-.86l.48-1.14-2.35-6h1.07l1.62,4.62c0,.06.06.21.12.46h0q0-.15.12-.45l1.7-4.63Z" fill="#1e1e1e"/>
      <path d="M115.83,133.89h-2.42v7.51h-1v-7.51H110V133h5.83Z" fill="#1e1e1e"/>
      <path d="M120.67,138.64h-4.23a2.19,2.19,0,0,0,.54,1.55,1.85,1.85,0,0,0,1.41.54,3,3,0,0,0,1.87-.66v.9a3.52,3.52,0,0,1-2.09.57,2.52,2.52,0,0,1-2-.82,3.81,3.81,0,0,1,.07-4.58,2.51,2.51,0,0,1,2-.88A2.25,2.25,0,0,1,120,136a3.19,3.19,0,0,1,.64,2.12Zm-1-.81a2,2,0,0,0-.4-1.3,1.37,1.37,0,0,0-1.1-.46,1.52,1.52,0,0,0-1.15.49,2.13,2.13,0,0,0-.59,1.27Z" fill="#1e1e1e"/>
      <path d="M127.11,141.4h-1V138c0-1.27-.47-1.91-1.4-1.91a1.5,1.5,0,0,0-1.19.54,2,2,0,0,0-.47,1.37v3.42h-1v-6h1v1h0a2.16,2.16,0,0,1,2-1.14,1.83,1.83,0,0,1,1.51.64,2.85,2.85,0,0,1,.52,1.83Z" fill="#1e1e1e"/>
      <path d="M133.21,141.4h-1v-.94h0a2.2,2.2,0,0,1-3.25.61,1.65,1.65,0,0,1-.51-1.26c0-1.12.66-1.78,2-2l1.8-.25q0-1.53-1.23-1.53a3,3,0,0,0-2,.74v-1a3.76,3.76,0,0,1,2-.56c1.41,0,2.11.75,2.11,2.24Zm-1-3-1.45.2a2.25,2.25,0,0,0-1,.33,1.1,1.1,0,0,0,0,1.56,1.25,1.25,0,0,0,.84.27,1.53,1.53,0,0,0,1.18-.5,1.77,1.77,0,0,0,.46-1.27Z" fill="#1e1e1e"/>
      <path d="M140,141.4h-1V138c0-1.27-.46-1.91-1.39-1.91a1.5,1.5,0,0,0-1.19.54A2,2,0,0,0,136,138v3.42h-1v-6h1v1h0a2.16,2.16,0,0,1,2-1.14,1.82,1.82,0,0,1,1.5.64,2.79,2.79,0,0,1,.52,1.83Z" fill="#1e1e1e"/>
      <path d="M144.6,141.34a1.82,1.82,0,0,1-.9.19c-1,0-1.57-.59-1.57-1.76v-3.55h-1v-.82h1v-1.46l1-.31v1.77h1.51v.82h-1.51v3.38a1.38,1.38,0,0,0,.2.86.8.8,0,0,0,.68.26,1,1,0,0,0,.63-.2Z" fill="#1e1e1e"/>
      <path d="M145.52,141.18v-1a2.82,2.82,0,0,0,1.73.58q1.26,0,1.26-.84a.68.68,0,0,0-.11-.41,1,1,0,0,0-.29-.29,1.76,1.76,0,0,0-.43-.23l-.54-.22a5.79,5.79,0,0,1-.7-.32,2.22,2.22,0,0,1-.5-.36,1.38,1.38,0,0,1-.31-.46,1.57,1.57,0,0,1-.1-.6,1.39,1.39,0,0,1,.19-.75,1.7,1.7,0,0,1,.52-.55,2.71,2.71,0,0,1,.73-.33,3.49,3.49,0,0,1,.86-.11,3.41,3.41,0,0,1,1.39.27v1a2.7,2.7,0,0,0-1.52-.43,1.88,1.88,0,0,0-.49.06,1.26,1.26,0,0,0-.37.17,1,1,0,0,0-.24.27.67.67,0,0,0-.09.34.82.82,0,0,0,.09.4,1.07,1.07,0,0,0,.25.28,2.11,2.11,0,0,0,.4.22l.53.22a6.85,6.85,0,0,1,.71.31,2.53,2.53,0,0,1,.54.36,1.45,1.45,0,0,1,.35.47,1.48,1.48,0,0,1,.12.63,1.5,1.5,0,0,1-.2.77,1.68,1.68,0,0,1-.52.54,2.37,2.37,0,0,1-.76.33,3.76,3.76,0,0,1-.9.1A3.37,3.37,0,0,1,145.52,141.18Z" fill="#1e1e1e"/>
    </g>
    <g>
      <path d="M152.61,64.78H150.4V55h2.21Z" fill="#1e1e1e"/>
      <path d="M161.47,64.78h-2.16v-1h0A2.42,2.42,0,0,1,157.12,65,2.66,2.66,0,0,1,155,64a3.81,3.81,0,0,1-.8-2.59,4.14,4.14,0,0,1,.88-2.78,2.88,2.88,0,0,1,2.31-1,2,2,0,0,1,1.88,1h0V54.42h2.16Zm-2.12-3.4v-.53a1.67,1.67,0,0,0-.39-1.13,1.33,1.33,0,0,0-1-.45,1.3,1.3,0,0,0-1.12.56,2.62,2.62,0,0,0-.4,1.55,2.26,2.26,0,0,0,.39,1.42,1.38,1.38,0,0,0,2.15,0A2.15,2.15,0,0,0,159.35,61.38Z" fill="#1e1e1e"/>
      <path d="M169.58,61.9H165c.08,1,.72,1.52,1.92,1.52a3.7,3.7,0,0,0,2-.55v1.56a5.24,5.24,0,0,1-2.52.52,3.26,3.26,0,0,1-3.57-3.56,3.73,3.73,0,0,1,1-2.76,3.35,3.35,0,0,1,2.48-1,3.05,3.05,0,0,1,2.37.91,3.51,3.51,0,0,1,.84,2.47Zm-2-1.33c0-1-.41-1.5-1.22-1.5a1.14,1.14,0,0,0-.9.43,1.9,1.9,0,0,0-.46,1.07Z" fill="#1e1e1e"/>
      <path d="M177.63,64.78h-2.16V60.89c0-1.08-.39-1.62-1.16-1.62a1.14,1.14,0,0,0-.92.43,1.63,1.63,0,0,0-.37,1.09v4h-2.16v-7H173v1.11h0a2.49,2.49,0,0,1,2.25-1.28c1.55,0,2.33,1,2.33,2.89Z" fill="#1e1e1e"/>
      <path d="M183.57,64.7a3.2,3.2,0,0,1-1.45.25q-2.28,0-2.28-2.37V59.37h-1.13V57.78h1.13V56.27l2.15-.61v2.12h1.58v1.59H182V62.2c0,.73.29,1.1.87,1.1a1.53,1.53,0,0,0,.71-.2Z" fill="#1e1e1e"/>
      <path d="M185.88,56.67a1.24,1.24,0,0,1-.9-.32,1.06,1.06,0,0,1-.35-.8,1,1,0,0,1,.35-.79,1.46,1.46,0,0,1,1.8,0,1,1,0,0,1,.34.79,1,1,0,0,1-.34.81A1.28,1.28,0,0,1,185.88,56.67Zm1.06,8.11h-2.16v-7h2.16Z" fill="#1e1e1e"/>
      <path d="M193,64.7a3.18,3.18,0,0,1-1.44.25q-2.28,0-2.28-2.37V59.37h-1.14V57.78h1.14V56.27l2.15-.61v2.12H193v1.59h-1.57V62.2c0,.73.29,1.1.87,1.1a1.46,1.46,0,0,0,.7-.2Z" fill="#1e1e1e"/>
      <path d="M200.87,57.78,198,65.34q-1,2.73-3.09,2.73a3.93,3.93,0,0,1-1.29-.18V66.17a1.81,1.81,0,0,0,.94.25,1.17,1.17,0,0,0,1.16-.78l.37-.87-2.85-7h2.4L197,62a5.18,5.18,0,0,1,.19.94h0a6.57,6.57,0,0,1,.23-.93l1.31-4.27Z" fill="#1e1e1e"/>
      <path d="M136.62,73.58h-2.8v8h-2.21v-8h-2.78v-1.8h7.79Z" fill="#1e1e1e"/>
      <path d="M142.76,78.7h-4.57c.08,1,.72,1.52,1.92,1.52a3.7,3.7,0,0,0,2-.55v1.56a5.24,5.24,0,0,1-2.52.52,3.26,3.26,0,0,1-3.57-3.56,3.76,3.76,0,0,1,1-2.76,3.39,3.39,0,0,1,2.49-1,3.05,3.05,0,0,1,2.37.91,3.51,3.51,0,0,1,.84,2.47Zm-2-1.33c0-1-.41-1.5-1.22-1.5a1.14,1.14,0,0,0-.9.43,1.9,1.9,0,0,0-.46,1.07Z" fill="#1e1e1e"/>
      <path d="M148.61,76.53a1.88,1.88,0,0,0-.91-.21,1.31,1.31,0,0,0-1.1.51,2.31,2.31,0,0,0-.4,1.41v3.34H144v-7h2.16v1.3h0a1.87,1.87,0,0,1,1.85-1.42,1.48,1.48,0,0,1,.53.08Z" fill="#1e1e1e"/>
      <path d="M160.77,81.58h-2.15v-4c0-1-.38-1.53-1.12-1.53a1,1,0,0,0-.87.46,1.92,1.92,0,0,0-.34,1.14v3.92h-2.16v-4c0-1-.36-1.49-1.1-1.49a1,1,0,0,0-.88.44,1.93,1.93,0,0,0-.33,1.19v3.89h-2.16v-7h2.16v1.1h0a2.63,2.63,0,0,1,2.27-1.27,2,2,0,0,1,2,1.31,2.58,2.58,0,0,1,2.35-1.31q2.28,0,2.28,2.82Z" fill="#1e1e1e"/>
      <path d="M163.57,73.47a1.23,1.23,0,0,1-.89-.32,1.06,1.06,0,0,1-.35-.8,1,1,0,0,1,.35-.79,1.45,1.45,0,0,1,1.79,0,1,1,0,0,1,.35.79,1.05,1.05,0,0,1-.35.81A1.28,1.28,0,0,1,163.57,73.47Zm1.07,8.11h-2.16v-7h2.16Z" fill="#1e1e1e"/>
      <path d="M173.22,81.58h-2.15V77.69c0-1.08-.39-1.63-1.17-1.63a1.15,1.15,0,0,0-.92.44,1.63,1.63,0,0,0-.36,1.09v4h-2.16v-7h2.16v1.11h0a2.47,2.47,0,0,1,2.25-1.28c1.54,0,2.32,1,2.32,2.89Z" fill="#1e1e1e"/>
      <path d="M178.26,81.75a3.75,3.75,0,0,1-2.75-1,4.06,4.06,0,0,1,0-5.38,3.94,3.94,0,0,1,2.81-1,3.72,3.72,0,0,1,2.73,1,3.47,3.47,0,0,1,1,2.6,3.66,3.66,0,0,1-1,2.75A3.77,3.77,0,0,1,178.26,81.75Zm.06-5.69a1.44,1.44,0,0,0-1.19.53,2.34,2.34,0,0,0-.42,1.49c0,1.35.54,2,1.62,2s1.55-.69,1.55-2.07S179.36,76.06,178.32,76.06Z" fill="#1e1e1e"/>
      <path d="M185.65,81.58h-2.16V71.22h2.16Z" fill="#1e1e1e"/>
      <path d="M190.8,81.75a3.75,3.75,0,0,1-2.75-1,3.54,3.54,0,0,1-1-2.66,3.58,3.58,0,0,1,1-2.72,3.94,3.94,0,0,1,2.81-1,3.72,3.72,0,0,1,2.73,1,3.51,3.51,0,0,1,1,2.6,3.69,3.69,0,0,1-1,2.75A3.77,3.77,0,0,1,190.8,81.75Zm.06-5.69a1.44,1.44,0,0,0-1.19.53,2.28,2.28,0,0,0-.43,1.49c0,1.35.55,2,1.63,2s1.55-.69,1.55-2.07S191.9,76.06,190.86,76.06Z" fill="#1e1e1e"/>
      <path d="M202.89,80.78a4,4,0,0,1-1.13,3,4.58,4.58,0,0,1-3.27,1.07,5.16,5.16,0,0,1-2.24-.4V82.65a4.3,4.3,0,0,0,2.18.63,2.38,2.38,0,0,0,1.7-.58,2.09,2.09,0,0,0,.6-1.57v-.55h0a2.41,2.41,0,0,1-2.18,1.17,2.64,2.64,0,0,1-2.13-.94,3.84,3.84,0,0,1-.78-2.53,4.25,4.25,0,0,1,.87-2.82,2.86,2.86,0,0,1,2.31-1,2.11,2.11,0,0,1,1.91,1h0v-.82h2.16Zm-2.14-2.56v-.56a1.72,1.72,0,0,0-.39-1.13,1.27,1.27,0,0,0-1-.47,1.32,1.32,0,0,0-1.13.57,2.64,2.64,0,0,0-.41,1.57,2.23,2.23,0,0,0,.39,1.39,1.28,1.28,0,0,0,1.07.51,1.3,1.3,0,0,0,1.08-.52A2.08,2.08,0,0,0,200.75,78.22Z" fill="#1e1e1e"/>
      <path d="M205.79,73.47a1.24,1.24,0,0,1-.9-.32,1.06,1.06,0,0,1-.35-.8,1,1,0,0,1,.35-.79,1.46,1.46,0,0,1,1.8,0,1,1,0,0,1,.34.79,1,1,0,0,1-.34.81A1.28,1.28,0,0,1,205.79,73.47Zm1.06,8.11h-2.16v-7h2.16Z" fill="#1e1e1e"/>
      <path d="M215,78.7h-4.57c.08,1,.72,1.52,1.92,1.52a3.7,3.7,0,0,0,2-.55v1.56a5.24,5.24,0,0,1-2.52.52,3.26,3.26,0,0,1-3.57-3.56,3.73,3.73,0,0,1,1-2.76,3.35,3.35,0,0,1,2.48-1,3.05,3.05,0,0,1,2.37.91,3.51,3.51,0,0,1,.84,2.47Zm-2-1.33c0-1-.41-1.5-1.22-1.5a1.14,1.14,0,0,0-.9.43,1.9,1.9,0,0,0-.46,1.07Z" fill="#1e1e1e"/>
      <path d="M215.79,81.4V79.65a5,5,0,0,0,1.06.48,3.68,3.68,0,0,0,1,.15,2.27,2.27,0,0,0,.91-.15.52.52,0,0,0,.33-.48.43.43,0,0,0-.15-.34,1.08,1.08,0,0,0-.39-.24,5,5,0,0,0-.51-.19,4.27,4.27,0,0,1-.54-.18,5.76,5.76,0,0,1-.74-.34,2,2,0,0,1-.53-.42,1.66,1.66,0,0,1-.33-.56,2.06,2.06,0,0,1-.11-.74,1.92,1.92,0,0,1,.25-1,2,2,0,0,1,.69-.7,3,3,0,0,1,1-.39,4.83,4.83,0,0,1,1.15-.13,6,6,0,0,1,.94.07,7.66,7.66,0,0,1,1,.21v1.67a3.54,3.54,0,0,0-.88-.36,3.69,3.69,0,0,0-.92-.12,1.7,1.7,0,0,0-.4,0,1,1,0,0,0-.33.11.71.71,0,0,0-.23.18.47.47,0,0,0-.08.26.48.48,0,0,0,.12.33,1,1,0,0,0,.32.23,2.89,2.89,0,0,0,.44.18l.49.16a7,7,0,0,1,.78.33,2.4,2.4,0,0,1,.59.42,1.57,1.57,0,0,1,.39.56,2.24,2.24,0,0,1-.14,1.82,2.07,2.07,0,0,1-.72.72,3.27,3.27,0,0,1-1,.41,6,6,0,0,1-1.21.12A6.4,6.4,0,0,1,215.79,81.4Z" fill="#1e1e1e"/>
    </g>
  </g>
</svg>
