<svg xmlns="http://www.w3.org/2000/svg" xmlns:xlink="http://www.w3.org/1999/xlink" viewBox="0 0 466 207.57">
  <defs>
    <linearGradient id="linear-gradient" x1="382.91" y1="596.88" x2="376.13" y2="609.73" gradientTransform="matrix(1, 0, 0, -1, 0, 637.64)" gradientUnits="userSpaceOnUse">
      <stop offset="0" stop-color="#1988d9"/>
      <stop offset="0.9" stop-color="#54aef0"/>
    </linearGradient>
    <linearGradient id="linear-gradient-2" x1="379.99" y1="600.62" x2="384.68" y2="592.53" gradientTransform="matrix(1, 0, 0, -1, 0, 637.64)" gradientUnits="userSpaceOnUse">
      <stop offset="0.1" stop-color="#54aef0"/>
      <stop offset="0.29" stop-color="#4fabee"/>
      <stop offset="0.51" stop-color="#41a2e9"/>
      <stop offset="0.74" stop-color="#2a93e0"/>
      <stop offset="0.88" stop-color="#1988d9"/>
    </linearGradient>
    <linearGradient id="linear-gradient-3" x1="55.49" y1="512.39" x2="55.49" y2="533.39" gradientTransform="matrix(1, 0, 0, -1, 0, 637.64)" gradientUnits="userSpaceOnUse">
      <stop offset="0" stop-color="#0078d4"/>
      <stop offset="0.82" stop-color="#5ea0ef"/>
    </linearGradient>
    <linearGradient id="linear-gradient-4" x1="45.74" y1="540.39" x2="45.74" y2="524.99" gradientTransform="matrix(1, 0, 0, -1, 0, 637.64)" gradientUnits="userSpaceOnUse">
      <stop offset="0" stop-color="#c69aeb"/>
      <stop offset="0.09" stop-color="#bb90e4"/>
      <stop offset="0.49" stop-color="#926bc9"/>
      <stop offset="0.81" stop-color="#7854b8"/>
      <stop offset="1" stop-color="#6f4bb2"/>
    </linearGradient>
    <linearGradient id="linear-gradient-5" x1="171.99" y1="521.96" x2="171.99" y2="550.82" xlink:href="#linear-gradient-3"/>
    <linearGradient id="linear-gradient-6" x1="172" y1="510.82" x2="172" y2="521.96" gradientTransform="matrix(1, 0, 0, -1, 0, 637.64)" gradientUnits="userSpaceOnUse">
      <stop offset="0.15" stop-color="#ccc"/>
      <stop offset="1" stop-color="#707070"/>
    </linearGradient>
    <linearGradient id="linear-gradient-7" x1="152.13" y1="529.35" x2="152.13" y2="506.74" gradientTransform="matrix(1, 0, 0, -1, 0, 637.64)" gradientUnits="userSpaceOnUse">
      <stop offset="0.22" stop-color="#32d4f5"/>
      <stop offset="0.47" stop-color="#31d1f3"/>
      <stop offset="0.63" stop-color="#2ec9eb"/>
      <stop offset="0.77" stop-color="#29bade"/>
      <stop offset="0.89" stop-color="#22a5cb"/>
      <stop offset="1" stop-color="#198ab3"/>
    </linearGradient>
    <linearGradient id="linear-gradient-8" x1="151.48" y1="541.49" x2="153.13" y2="520.95" xlink:href="#linear-gradient-7"/>
    <linearGradient id="linear-gradient-9" x1="241.91" y1="512.39" x2="241.91" y2="533.39" xlink:href="#linear-gradient-3"/>
    <linearGradient id="linear-gradient-10" x1="232.17" y1="540.39" x2="232.17" y2="524.99" xlink:href="#linear-gradient-4"/>
  </defs>
  <g id="Shapes">
    <rect x="0.5" y="0.5" width="465" height="206.57" fill="#fff"/>
    <g>
      <g>
        <path d="M9.14,22.91a.24.24,0,0,0,.12.21l1.74,1,2.93,1.69a.25.25,0,0,0,.34-.08l1-1.68a.23.23,0,0,0-.09-.31l-3.44-1.95a.24.24,0,0,1-.12-.21V6.11a.27.27,0,0,1,.12-.21L15.17,4a.23.23,0,0,0,.09-.31L14.27,2a.24.24,0,0,0-.33-.12h0L11.06,3.51l-1.8,1a.27.27,0,0,0-.12.21Z" fill="#949494"/>
        <path d="M11.6,6l.09-.09L15.13,4a.21.21,0,0,0,.11-.27s0,0,0,0L14.23,2a.23.23,0,0,0-.29-.14l0,0L11,3.51l-1.78,1s-.07,0-.09.09l1.35.77Z" fill="#a3a3a3"/>
        <path d="M15.13,23.68l-3.44-1.95a.28.28,0,0,1-.11-.13L9.16,23.09h.07l1.72,1,3,1.67a.25.25,0,0,0,.32-.06s0,0,0,0l1-1.68a.21.21,0,0,0-.11-.28Z" fill="#a3a3a3"/>
      </g>
      <path d="M34.57,22.91a.22.22,0,0,1-.12.21l-1.73,1-2.93,1.69a.27.27,0,0,1-.35-.08l-1-1.68a.25.25,0,0,1,.09-.31L32,21.76a.22.22,0,0,0,.12-.21V6.11A.25.25,0,0,0,32,5.9L28.54,4a.25.25,0,0,1-.09-.31l1-1.68a.25.25,0,0,1,.34-.12h0l2.87,1.63,1.79,1a.25.25,0,0,1,.12.21Z" fill="#949494"/>
      <path d="M32.12,6,32,5.9,28.59,4a.2.2,0,0,1-.11-.27.05.05,0,0,1,0,0l1-1.68a.22.22,0,0,1,.28-.14l.05,0L32.7,3.48l1.78,1,.09.09-1.34.77Z" fill="#a3a3a3"/>
      <path d="M28.59,23.68,32,21.73a.26.26,0,0,0,.1-.13l2.43,1.49h0l-1.72,1-3,1.67a.25.25,0,0,1-.32-.06s0,0,0,0l-1-1.68A.21.21,0,0,1,28.59,23.68Z" fill="#a3a3a3"/>
      <polygon points="29.8 9.23 29.8 18.41 21.84 23.03 21.84 13.83 29.8 9.23" fill="#32bedd"/>
      <polygon points="29.8 9.23 21.86 13.85 13.9 9.23 21.86 4.6 29.8 9.23" fill="#9cebff"/>
      <polygon points="21.84 13.85 21.84 23.03 13.9 18.41 13.9 9.23 21.84 13.85" fill="#50e6ff"/>
      <polygon points="13.9 18.41 21.84 13.83 21.84 23.03 13.9 18.41" fill="#9cebff"/>
      <polygon points="29.8 18.41 21.84 13.83 21.84 23.03 29.8 18.41" fill="#50e6ff"/>
    </g>
    <g>
      <polygon points="364.97 36.61 376.57 44.14 388.38 36.58 389.86 38.31 376.57 46.87 363.49 38.31 364.97 36.61" fill="#50e6ff"/>
      <polygon points="365.85 35.65 376.57 22.87 387.52 35.66 376.57 42.58 365.85 35.65" fill="#fff"/>
      <polygon points="376.57 22.87 376.57 42.58 365.85 35.65 376.57 22.87" fill="#50e6ff"/>
      <polygon points="376.57 22.87 376.57 42.58 387.52 35.66 376.57 22.87" fill="url(#linear-gradient)"/>
      <polygon points="376.57 33.05 387.52 35.66 376.57 42.58 376.57 33.05" fill="#53b1e0"/>
      <polygon points="376.57 42.58 365.85 35.65 376.57 33.05 376.57 42.58" fill="#9cebff"/>
      <polygon points="376.57 46.87 389.86 38.31 388.38 36.58 376.57 44.14 376.57 46.87" fill="url(#linear-gradient-2)"/>
    </g>
    <g>
      <path d="M154.5,106.82H26.84a5,5,0,0,1-5-5V82.2" fill="none" stroke="#3c3c41" stroke-miterlimit="10"/>
      <polygon points="25.58 83.3 21.84 76.82 18.1 83.3 25.58 83.3" fill="#3c3c41"/>
    </g>
    <g>
      <rect x="0.5" y="46.82" width="105" height="30" fill="#fff"/>
      <rect x="0.5" y="46.82" width="105" height="30" fill="#3c3c41" opacity="0.15"/>
    </g>
    <g>
      <rect x="360.5" y="83.82" width="105" height="30" fill="#fff"/>
      <rect x="360.5" y="83.82" width="105" height="30" fill="#3c3c41" opacity="0.15"/>
    </g>
    <g>
      <line x1="21.86" y1="46.82" x2="21.86" y2="32.2" fill="none" stroke="#3c3c41" stroke-miterlimit="10"/>
      <polygon points="25.6 33.3 21.86 26.82 18.12 33.3 25.6 33.3" fill="#3c3c41"/>
    </g>
    <g>
      <line x1="376.68" y1="83.87" x2="376.68" y2="54.25" fill="none" stroke="#3c3c41" stroke-miterlimit="10"/>
      <polygon points="380.42 55.34 376.68 48.87 372.94 55.34 380.42 55.34" fill="#3c3c41"/>
    </g>
    <g>
      <g id="fd3ce364-0de3-4a49-9ae3-702f411d286b">
        <g>
          <g>
            <path d="M56.74,104.4h-9a.71.71,0,0,0-.71.71v19.28a.71.71,0,0,0,.71.71h15.5a.71.71,0,0,0,.71-.71V111.63a.71.71,0,0,0-.71-.71H58.09a.7.7,0,0,1-.7-.7h0v-5.11A.7.7,0,0,0,56.74,104.4Z" fill="#fff"/>
            <path d="M56.35,105.3v4.84a1.78,1.78,0,0,0,1.78,1.78H63V124.2H48V105.3h8.38m.38-1H47.63a.72.72,0,0,0-.73.7h0v19.58a.71.71,0,0,0,.72.71H63.35a.71.71,0,0,0,.72-.7h0v-13a.71.71,0,0,0-.71-.71H58.13a.71.71,0,0,1-.71-.71V105A.71.71,0,0,0,56.74,104.25Z" fill="url(#linear-gradient-3)"/>
            <path d="M63.8,111l-6.63-6.6v5.34A1.25,1.25,0,0,0,58.42,111Z" fill="#0078d4"/>
          </g>
          <path d="M60.82,114.11H53a.52.52,0,0,0,0,1h7.89a.52.52,0,0,0,0-1Zm0,3.06H53a.5.5,0,0,0-.59.42.52.52,0,0,0,.43.59h8a.52.52,0,0,0,.59-.43.51.51,0,0,0-.43-.58.43.43,0,0,0-.16,0Zm0,3.06H53a.52.52,0,1,0,0,1h7.88a.52.52,0,0,0,0-1h0Z" fill="#83b9f9"/>
          <path d="M50.22,115.65V114a.85.85,0,0,1-.24.09l-.27.07v-.51a2.5,2.5,0,0,0,.38-.15,1.38,1.38,0,0,0,.39-.18h.4v2.33Zm-.49,3.25v-.18a1.82,1.82,0,0,1,0-.33c0-.09.09-.18.14-.27a2.2,2.2,0,0,1,.35-.33,1.09,1.09,0,0,0,.26-.21.11.11,0,0,1,.09-.11.17.17,0,0,0,0-.14c0-.16-.09-.24-.28-.24a.82.82,0,0,0-.53.21v-.56a1.35,1.35,0,0,1,.35-.14h.35a.84.84,0,0,1,.57.19.64.64,0,0,1,.22.49,1,1,0,0,1-.12.42,1.35,1.35,0,0,1-.4.35l-.25.15a.24.24,0,0,0-.07.13h.91v.52Zm1.55,2.61a.56.56,0,0,1-.23.51,1.14,1.14,0,0,1-.67.19,1.71,1.71,0,0,1-.32,0l-.29-.09v-.54a.5.5,0,0,0,.24.09,1.22,1.22,0,0,0,.27,0,.62.62,0,0,0,.27,0,.21.21,0,0,0,.08-.16.19.19,0,0,0-.15-.19,1.45,1.45,0,0,0-.3-.06H50v-.49h.18a.34.34,0,0,0,.29-.08.14.14,0,0,0,.09-.16v-.14s-.11,0-.21,0a.94.94,0,0,0-.44.13V120a1.63,1.63,0,0,1,.58-.13,1.09,1.09,0,0,1,.61.16.48.48,0,0,1,.2.43.61.61,0,0,1-.11.35.61.61,0,0,1-.33.19.51.51,0,0,1,.38.18A.87.87,0,0,1,51.28,121.51Z" fill="#0078d4"/>
        </g>
      </g>
      <g>
        <path d="M53.42,99.51l-2.12-2.1a.55.55,0,0,0-.38-.16L47,97.4a.46.46,0,0,0-.36.15l-8.56,8.53a.51.51,0,0,0,0,.74l5.71,5.68a.53.53,0,0,0,.74,0L53.11,104a.51.51,0,0,0,.15-.33l.31-3.71A.49.49,0,0,0,53.42,99.51Zm-2.55,1.39a1,1,0,1,1,1-1h0a1,1,0,0,1-.95,1Z" fill="url(#linear-gradient-4)"/>
        <path d="M50.87,98.25a1.71,1.71,0,1,0,1.71,1.7A1.71,1.71,0,0,0,50.87,98.25Zm.94,1.89A1,1,0,1,1,50.68,99a1,1,0,0,1,1.13.76A1.15,1.15,0,0,1,51.81,100.14Z" fill="#552f99"/>
      </g>
    </g>
    <g>
      <ellipse cx="174.38" cy="117.7" rx="40" ry="17.5" transform="translate(-32.15 157.78) rotate(-45)" fill="#fff"/>
      <ellipse cx="174.38" cy="117.7" rx="40" ry="17.5" transform="translate(-32.15 157.78) rotate(-45)" fill="#3c3c41" opacity="0.15"/>
    </g>
    <g>
      <rect x="150.35" y="86.82" width="43.28" height="28.86" rx="1.45" fill="url(#linear-gradient-5)"/>
      <path d="M180.69,124.42c-4.29-.68-4.45-3.78-4.45-8.74h-8.47c0,5-.16,8.06-4.45,8.74a2.57,2.57,0,0,0-2.14,2.4h21.65A2.59,2.59,0,0,0,180.69,124.42Z" fill="url(#linear-gradient-6)"/>
    </g>
    <g>
      <path d="M163.33,126.82a2.42,2.42,0,0,0,2.42-2.42h0a1.31,1.31,0,0,0,0-.28c-1-7.62-5.29-13.82-13.62-13.82s-12.77,5.25-13.62,13.84a2.45,2.45,0,0,0,2.16,2.68h22.66Z" fill="url(#linear-gradient-7)"/>
      <path d="M152.13,112.1a7.66,7.66,0,0,1-4.13-1.21l4.13,10.7L156.2,111A7.6,7.6,0,0,1,152.13,112.1Z" fill="#fff" opacity="0.8" style="isolation: isolate"/>
      <circle cx="152.15" cy="104.45" r="7.63" fill="url(#linear-gradient-8)"/>
    </g>
    <g>
      <line x1="360.5" y1="106.82" x2="199.01" y2="106.82" fill="none" stroke="#3c3c41" stroke-miterlimit="10"/>
      <polygon points="200.11 103.08 193.63 106.82 200.11 110.56 200.11 103.08" fill="#3c3c41"/>
    </g>
    <g>
      <line x1="355.12" y1="91.82" x2="193.63" y2="91.82" fill="none" stroke="#3c3c41" stroke-miterlimit="10"/>
      <polygon points="354.02 88.08 360.5 91.82 354.02 95.56 354.02 88.08" fill="#3c3c41"/>
    </g>
    <g>
      <g id="fd3ce364-0de3-4a49-9ae3-702f411d286b-2" data-name="fd3ce364-0de3-4a49-9ae3-702f411d286b">
        <g>
          <g>
            <path d="M243.17,104.4h-9a.71.71,0,0,0-.72.71v19.28a.71.71,0,0,0,.72.71h15.49a.71.71,0,0,0,.71-.71V111.63a.71.71,0,0,0-.71-.71h-5.14a.7.7,0,0,1-.7-.7h0v-5.11A.71.71,0,0,0,243.17,104.4Z" fill="#fff"/>
            <path d="M242.78,105.3v4.84a1.77,1.77,0,0,0,1.78,1.78h4.86V124.2h-15V105.3h8.38m.38-1h-9.11a.72.72,0,0,0-.73.7h0v19.58a.71.71,0,0,0,.71.71h15.73a.72.72,0,0,0,.73-.7h0v-13a.71.71,0,0,0-.71-.71h-5.23a.71.71,0,0,1-.72-.71V105A.71.71,0,0,0,243.17,104.25Z" fill="url(#linear-gradient-9)"/>
            <path d="M250.22,111l-6.63-6.6v5.34a1.25,1.25,0,0,0,1.25,1.26Z" fill="#0078d4"/>
          </g>
          <path d="M247.25,114.11h-7.84a.52.52,0,0,0,0,1h7.89a.52.52,0,0,0,0-1Zm0,3.06h-7.84a.5.5,0,0,0-.58.42.51.51,0,0,0,.42.59h8.05a.51.51,0,0,0,.58-.43.5.5,0,0,0-.42-.58.43.43,0,0,0-.16,0Zm0,3.06h-7.84a.52.52,0,0,0,0,1h7.89a.52.52,0,0,0,0-1h-.05Z" fill="#83b9f9"/>
          <path d="M236.65,115.65V114a1.17,1.17,0,0,1-.24.09l-.28.07v-.51a2.26,2.26,0,0,0,.39-.15,1.38,1.38,0,0,0,.39-.18h.4v2.33Zm-.49,3.25v-.18a.92.92,0,0,1,0-.33,1.74,1.74,0,0,1,.14-.27,2.2,2.2,0,0,1,.35-.33,1.71,1.71,0,0,0,.26-.21.11.11,0,0,1,.09-.11.17.17,0,0,0,0-.14c0-.16-.09-.24-.28-.24a.83.83,0,0,0-.54.21v-.56a1.51,1.51,0,0,1,.35-.14h.35a.86.86,0,0,1,.58.19.6.6,0,0,1,.21.49.88.88,0,0,1-.11.42,1.48,1.48,0,0,1-.4.35l-.25.15a.26.26,0,0,0-.08.13h.92v.52Zm1.55,2.61a.54.54,0,0,1-.24.51,1.11,1.11,0,0,1-.66.19,1.82,1.82,0,0,1-.33,0l-.28-.09v-.54a.5.5,0,0,0,.23.09,1.31,1.31,0,0,0,.28,0,.57.57,0,0,0,.26,0,.26.26,0,0,0,.09-.16.19.19,0,0,0-.15-.19,1.59,1.59,0,0,0-.3-.06h-.18v-.49h.19a.34.34,0,0,0,.29-.08.15.15,0,0,0,.09-.16v-.14s-.12,0-.22,0a.94.94,0,0,0-.43.13V120a1.58,1.58,0,0,1,.57-.13,1.07,1.07,0,0,1,.61.16.46.46,0,0,1,.2.43.49.49,0,0,1-.11.35.59.59,0,0,1-.32.19.49.49,0,0,1,.37.18A.71.71,0,0,1,237.71,121.51Z" fill="#0078d4"/>
        </g>
      </g>
      <g>
        <path d="M239.85,99.51l-2.12-2.1a.55.55,0,0,0-.38-.16l-3.93.15a.44.44,0,0,0-.36.15l-8.57,8.53a.53.53,0,0,0,0,.74l5.71,5.68a.54.54,0,0,0,.75,0l8.59-8.54a.51.51,0,0,0,.15-.33l.31-3.71A.53.53,0,0,0,239.85,99.51Zm-2.56,1.39a1,1,0,1,1,1-1h0a.94.94,0,0,1-.95,1Z" fill="url(#linear-gradient-10)"/>
        <path d="M237.29,98.25A1.71,1.71,0,1,0,239,100,1.71,1.71,0,0,0,237.29,98.25Zm.94,1.89a1,1,0,1,1-1.87-.37,1,1,0,0,1,1.87,0A.77.77,0,0,1,238.23,100.14Z" fill="#552f99"/>
      </g>
    </g>
    <rect x="230.5" y="151.82" width="235" height="55" fill="#fff" stroke="#75757a" stroke-miterlimit="10" stroke-opacity="0.3" stroke-width="0.5"/>
  </g>
  <g id="Text">
    <g>
      <path d="M48.11,10.7H47l-.89-2.35H42.56l-.84,2.35H40.63l3.22-8.4h1ZM45.8,7.46,44.48,3.88a3.61,3.61,0,0,1-.12-.56h0a3.36,3.36,0,0,1-.13.56L42.89,7.46Z" fill="#1e1e1e"/>
      <path d="M53.4,5l-3.55,4.9h3.51v.82H48.43v-.3L52,5.52H48.77V4.7H53.4Z" fill="#1e1e1e"/>
      <path d="M59.49,10.7h-1V9.75h0a2,2,0,0,1-1.86,1.09c-1.43,0-2.14-.85-2.14-2.55V4.7h1V8.13c0,1.27.49,1.9,1.46,1.9a1.47,1.47,0,0,0,1.16-.52,2,2,0,0,0,.45-1.35V4.7h1Z" fill="#1e1e1e"/>
      <path d="M64.56,5.67a1.18,1.18,0,0,0-.73-.19,1.23,1.23,0,0,0-1,.58,2.72,2.72,0,0,0-.41,1.58V10.7h-1v-6h1V5.94h0A2.17,2.17,0,0,1,63,5,1.41,1.41,0,0,1,64,4.6a1.49,1.49,0,0,1,.58.08Z" fill="#1e1e1e"/>
      <path d="M70.42,7.94H66.19a2.19,2.19,0,0,0,.54,1.55,1.85,1.85,0,0,0,1.41.54A3,3,0,0,0,70,9.37v.9a3.52,3.52,0,0,1-2.09.57,2.52,2.52,0,0,1-2-.82,3.31,3.31,0,0,1-.73-2.3A3.29,3.29,0,0,1,66,5.44a2.51,2.51,0,0,1,2-.88,2.25,2.25,0,0,1,1.82.76,3.19,3.19,0,0,1,.64,2.12Zm-1-.81a2,2,0,0,0-.4-1.3,1.37,1.37,0,0,0-1.1-.46,1.52,1.52,0,0,0-1.15.49,2.13,2.13,0,0,0-.59,1.27Z" fill="#1e1e1e"/>
      <path d="M81.32,10.7H80.14l-1.4-2.35a4.9,4.9,0,0,0-.38-.56A1.92,1.92,0,0,0,78,7.41a1.36,1.36,0,0,0-.41-.22,1.88,1.88,0,0,0-.49-.06h-.81V10.7h-1V2.3H77.8a3.31,3.31,0,0,1,1,.14,2.23,2.23,0,0,1,.81.42,2,2,0,0,1,.53.7,2.25,2.25,0,0,1,.2,1,2.28,2.28,0,0,1-.14.8,2,2,0,0,1-.37.66,2.37,2.37,0,0,1-.59.49,3.35,3.35,0,0,1-.77.31v0a1.81,1.81,0,0,1,.66.5,2.75,2.75,0,0,1,.28.37c.09.14.2.3.31.49Zm-5-7.51V6.24h1.33a2.17,2.17,0,0,0,.69-.11,1.93,1.93,0,0,0,.54-.32,1.57,1.57,0,0,0,.36-.51,1.87,1.87,0,0,0,.12-.68,1.31,1.31,0,0,0-.43-1.05,1.88,1.88,0,0,0-1.26-.38Z" fill="#1e1e1e"/>
      <path d="M86.81,7.94H82.58a2.19,2.19,0,0,0,.54,1.55,1.85,1.85,0,0,0,1.41.54,3,3,0,0,0,1.87-.66v.9a3.53,3.53,0,0,1-2.1.57,2.51,2.51,0,0,1-2-.82,3.31,3.31,0,0,1-.73-2.3,3.28,3.28,0,0,1,.79-2.28,2.55,2.55,0,0,1,2-.88,2.25,2.25,0,0,1,1.82.76,3.19,3.19,0,0,1,.64,2.12Zm-1-.81a2,2,0,0,0-.4-1.3,1.37,1.37,0,0,0-1.1-.46,1.56,1.56,0,0,0-1.16.49,2.18,2.18,0,0,0-.58,1.27Z" fill="#1e1e1e"/>
      <path d="M87.9,10.48v-1a2.84,2.84,0,0,0,1.73.58c.84,0,1.27-.28,1.27-.84a.76.76,0,0,0-.11-.41,1,1,0,0,0-.29-.29,2.28,2.28,0,0,0-.44-.24L89.53,8a5.16,5.16,0,0,1-.7-.32,2.29,2.29,0,0,1-.51-.36A1.35,1.35,0,0,1,88,6.9a1.58,1.58,0,0,1-.11-.61,1.39,1.39,0,0,1,.2-.74A1.78,1.78,0,0,1,88.62,5a2.77,2.77,0,0,1,.74-.33,3.41,3.41,0,0,1,.85-.11,3.46,3.46,0,0,1,1.4.27v1a2.74,2.74,0,0,0-1.53-.43,1.75,1.75,0,0,0-.48.06,1.33,1.33,0,0,0-.38.17,1,1,0,0,0-.24.27.77.77,0,0,0-.08.34,1,1,0,0,0,.08.4,1.07,1.07,0,0,0,.25.28,2.11,2.11,0,0,0,.4.22l.53.22a6.21,6.21,0,0,1,.72.31,2.82,2.82,0,0,1,.54.36,1.41,1.41,0,0,1,.34.47,1.48,1.48,0,0,1,.12.63,1.41,1.41,0,0,1-.2.77,1.58,1.58,0,0,1-.52.54,2.28,2.28,0,0,1-.76.33,3.68,3.68,0,0,1-.89.1A3.41,3.41,0,0,1,87.9,10.48Z" fill="#1e1e1e"/>
      <path d="M95.87,10.84A2.79,2.79,0,0,1,93.74,10,3.1,3.1,0,0,1,93,7.77a3.24,3.24,0,0,1,.82-2.36A3,3,0,0,1,96,4.56a2.69,2.69,0,0,1,2.09.83,3.27,3.27,0,0,1,.75,2.29A3.25,3.25,0,0,1,98,10,2.85,2.85,0,0,1,95.87,10.84Zm.07-5.47A1.84,1.84,0,0,0,94.47,6a2.59,2.59,0,0,0-.54,1.74,2.41,2.41,0,0,0,.55,1.68,1.85,1.85,0,0,0,1.46.61,1.77,1.77,0,0,0,1.43-.6,2.63,2.63,0,0,0,.5-1.72A2.66,2.66,0,0,0,97.37,6,1.74,1.74,0,0,0,95.94,5.37Z" fill="#1e1e1e"/>
      <path d="M105.24,10.7h-1V9.75h0a2,2,0,0,1-1.86,1.09c-1.43,0-2.14-.85-2.14-2.55V4.7h.95V8.13c0,1.27.49,1.9,1.46,1.9a1.47,1.47,0,0,0,1.16-.52,2,2,0,0,0,.45-1.35V4.7h1Z" fill="#1e1e1e"/>
      <path d="M110.31,5.67a1.18,1.18,0,0,0-.73-.19,1.23,1.23,0,0,0-1,.58,2.72,2.72,0,0,0-.41,1.58V10.7h-1v-6h1V5.94h0a2.17,2.17,0,0,1,.63-1,1.41,1.41,0,0,1,.94-.35,1.49,1.49,0,0,1,.58.08Z" fill="#1e1e1e"/>
      <path d="M115.44,10.43a3.19,3.19,0,0,1-1.64.41,2.73,2.73,0,0,1-2.07-.83,3,3,0,0,1-.79-2.17,3.3,3.3,0,0,1,.85-2.38,3,3,0,0,1,2.27-.9,3.2,3.2,0,0,1,1.39.29v1A2.45,2.45,0,0,0,114,5.37a2,2,0,0,0-1.51.66,2.5,2.5,0,0,0-.58,1.73,2.36,2.36,0,0,0,.55,1.66A1.89,1.89,0,0,0,114,10a2.39,2.39,0,0,0,1.48-.52Z" fill="#1e1e1e"/>
      <path d="M121.72,7.94h-4.24A2.28,2.28,0,0,0,118,9.49a1.87,1.87,0,0,0,1.42.54,3,3,0,0,0,1.86-.66v.9a3.5,3.5,0,0,1-2.09.57,2.53,2.53,0,0,1-2-.82,3.36,3.36,0,0,1-.73-2.3,3.29,3.29,0,0,1,.8-2.28,2.53,2.53,0,0,1,2-.88,2.24,2.24,0,0,1,1.82.76,3.2,3.2,0,0,1,.65,2.12Zm-1-.81a2,2,0,0,0-.4-1.3,1.36,1.36,0,0,0-1.1-.46,1.52,1.52,0,0,0-1.15.49,2.19,2.19,0,0,0-.59,1.27Z" fill="#1e1e1e"/>
      <path d="M50.17,23.9h-1V18.26c0-.44,0-1,.08-1.63h0a6.37,6.37,0,0,1-.25.81L46.13,23.9h-.49l-2.86-6.41a4.68,4.68,0,0,1-.25-.86h0a16.5,16.5,0,0,1,0,1.65V23.9H41.6V15.5h1.3l2.58,5.86a7.38,7.38,0,0,1,.39,1h0c.17-.46.31-.81.41-1l2.63-5.83h1.23Z" fill="#1e1e1e"/>
      <path d="M56.54,23.9h-1V23h0a2.2,2.2,0,0,1-3.25.61,1.65,1.65,0,0,1-.51-1.26c0-1.12.66-1.78,2-2l1.8-.25q0-1.53-1.23-1.53a3,3,0,0,0-2,.74v-1a3.76,3.76,0,0,1,2-.56c1.41,0,2.11.75,2.11,2.24Zm-1-3-1.45.2a2.25,2.25,0,0,0-1,.33,1.1,1.1,0,0,0,0,1.56,1.25,1.25,0,0,0,.84.27,1.53,1.53,0,0,0,1.18-.5,1.77,1.77,0,0,0,.46-1.27Z" fill="#1e1e1e"/>
      <path d="M63.33,23.9h-1V20.48c0-1.27-.46-1.91-1.39-1.91a1.5,1.5,0,0,0-1.19.54,2,2,0,0,0-.48,1.37V23.9h-1v-6h1v1h0a2.16,2.16,0,0,1,2-1.14,1.82,1.82,0,0,1,1.5.64,2.79,2.79,0,0,1,.52,1.83Z" fill="#1e1e1e"/>
      <path d="M69.44,23.9h-1V23h0A2,2,0,0,1,66.61,24a2,2,0,0,1-1.4-.47,1.65,1.65,0,0,1-.51-1.26c0-1.12.66-1.78,2-2l1.8-.25c0-1-.41-1.53-1.24-1.53a3,3,0,0,0-1.95.74v-1a3.73,3.73,0,0,1,2-.56c1.41,0,2.12.75,2.12,2.24Zm-1-3-1.45.2a2.35,2.35,0,0,0-1,.33,1,1,0,0,0-.34.84A.93.93,0,0,0,66,23a1.22,1.22,0,0,0,.83.27,1.51,1.51,0,0,0,1.18-.5,1.78,1.78,0,0,0,.47-1.27Z" fill="#1e1e1e"/>
      <path d="M76.37,23.42c0,2.2-1.05,3.31-3.16,3.31a4.28,4.28,0,0,1-1.95-.43v-1a4,4,0,0,0,1.94.57c1.47,0,2.21-.79,2.21-2.36v-.66h0a2.43,2.43,0,0,1-3.87.35,3.22,3.22,0,0,1-.68-2.15,3.69,3.69,0,0,1,.74-2.43,2.46,2.46,0,0,1,2-.9,2,2,0,0,1,1.8,1h0V17.9h1Zm-1-2.23V20.3a1.72,1.72,0,0,0-.48-1.22,1.62,1.62,0,0,0-1.21-.51,1.66,1.66,0,0,0-1.39.65A2.85,2.85,0,0,0,71.82,21a2.48,2.48,0,0,0,.49,1.6,1.56,1.56,0,0,0,1.28.6,1.65,1.65,0,0,0,1.31-.57A2.12,2.12,0,0,0,75.41,21.19Z" fill="#1e1e1e"/>
      <path d="M83.14,21.14H78.9a2.28,2.28,0,0,0,.54,1.55,1.88,1.88,0,0,0,1.42.54,2.94,2.94,0,0,0,1.86-.66v.9a3.47,3.47,0,0,1-2.09.57,2.53,2.53,0,0,1-2-.82,3.35,3.35,0,0,1-.72-2.3,3.28,3.28,0,0,1,.79-2.28,2.54,2.54,0,0,1,2-.88,2.24,2.24,0,0,1,1.82.76,3.2,3.2,0,0,1,.65,2.12Zm-1-.81a1.91,1.91,0,0,0-.4-1.3,1.36,1.36,0,0,0-1.1-.46,1.54,1.54,0,0,0-1.15.49,2.19,2.19,0,0,0-.59,1.27Z" fill="#1e1e1e"/>
      <path d="M87.72,18.87a1.25,1.25,0,0,0-.73-.19,1.2,1.2,0,0,0-1,.58,2.64,2.64,0,0,0-.42,1.58V23.9h-1v-6h1v1.24h0a2.08,2.08,0,0,1,.62-1,1.42,1.42,0,0,1,1-.35,1.44,1.44,0,0,1,.57.08Z" fill="#1e1e1e"/>
    </g>
    <g>
      <path d="M396.59,30.58h-1v-8.4h1Z" fill="#1e1e1e"/>
      <path d="M403.79,30.58h-1v-1h0a2.2,2.2,0,0,1-2.06,1.16,2.27,2.27,0,0,1-1.81-.8,3.32,3.32,0,0,1-.67-2.2,3.59,3.59,0,0,1,.75-2.38,2.46,2.46,0,0,1,2-.9,1.93,1.93,0,0,1,1.8,1h0V21.7h1Zm-1-2.71V27a1.73,1.73,0,0,0-.48-1.23,1.64,1.64,0,0,0-1.22-.5,1.68,1.68,0,0,0-1.39.65,2.83,2.83,0,0,0-.5,1.78,2.53,2.53,0,0,0,.48,1.63,1.6,1.6,0,0,0,1.3.6,1.65,1.65,0,0,0,1.31-.58A2.16,2.16,0,0,0,402.83,27.87Z" fill="#1e1e1e"/>
      <path d="M410.55,27.82h-4.23a2.19,2.19,0,0,0,.54,1.55,1.85,1.85,0,0,0,1.42.54,3,3,0,0,0,1.86-.66v.9a3.52,3.52,0,0,1-2.09.57,2.54,2.54,0,0,1-2-.81,3.34,3.34,0,0,1-.73-2.3,3.29,3.29,0,0,1,.8-2.29,2.56,2.56,0,0,1,2-.88,2.28,2.28,0,0,1,1.82.76,3.19,3.19,0,0,1,.64,2.12Zm-1-.81a2,2,0,0,0-.4-1.3,1.36,1.36,0,0,0-1.1-.46,1.52,1.52,0,0,0-1.15.49,2.13,2.13,0,0,0-.59,1.27Z" fill="#1e1e1e"/>
      <path d="M417,30.58h-1V27.16c0-1.27-.47-1.91-1.4-1.91a1.5,1.5,0,0,0-1.19.54,2,2,0,0,0-.47,1.37v3.42h-1v-6h1v1h0a2.17,2.17,0,0,1,2-1.14,1.83,1.83,0,0,1,1.51.64,2.85,2.85,0,0,1,.52,1.83Z" fill="#1e1e1e"/>
      <path d="M421.58,30.52a1.76,1.76,0,0,1-.89.19c-1.06,0-1.58-.58-1.58-1.76V25.4h-1v-.82h1V23.12l1-.31v1.77h1.51v.82h-1.51v3.38a1.41,1.41,0,0,0,.21.87.81.81,0,0,0,.68.25.94.94,0,0,0,.62-.2Z" fill="#1e1e1e"/>
      <path d="M423.36,23.06a.6.6,0,0,1-.44-.18.57.57,0,0,1-.18-.44.61.61,0,0,1,.18-.45.6.6,0,0,1,.44-.18.64.64,0,0,1,.45.18.61.61,0,0,1,.18.45.6.6,0,0,1-.18.44A.64.64,0,0,1,423.36,23.06Zm.47,7.52h-1v-6h1Z" fill="#1e1e1e"/>
      <path d="M428.55,30.52a1.76,1.76,0,0,1-.89.19c-1.05,0-1.58-.58-1.58-1.76V25.4h-1v-.82h1V23.12l1-.31v1.77h1.51v.82H427v3.38a1.41,1.41,0,0,0,.21.87.81.81,0,0,0,.68.25.94.94,0,0,0,.62-.2Z" fill="#1e1e1e"/>
      <path d="M434.61,24.58l-2.76,7c-.49,1.25-1.18,1.87-2.07,1.87a2.25,2.25,0,0,1-.63-.08v-.86a1.8,1.8,0,0,0,.57.1,1.16,1.16,0,0,0,1.09-.86l.48-1.14-2.34-6H430l1.63,4.62c0,.06.06.21.12.46h0q0-.15.12-.45l1.71-4.63Z" fill="#1e1e1e"/>
      <path d="M395.21,43.44V42.28a1.91,1.91,0,0,0,.48.32,5,5,0,0,0,.58.24c.21.06.41.11.62.15a4.13,4.13,0,0,0,.57,0,2.22,2.22,0,0,0,1.36-.34,1.14,1.14,0,0,0,.45-1,1.15,1.15,0,0,0-.15-.59,1.76,1.76,0,0,0-.41-.46,4.57,4.57,0,0,0-.63-.4l-.77-.4c-.3-.15-.57-.3-.82-.45a3.54,3.54,0,0,1-.67-.5,2.47,2.47,0,0,1-.44-.63,1.88,1.88,0,0,1-.16-.82,1.93,1.93,0,0,1,.25-1,2.32,2.32,0,0,1,.66-.7,3.19,3.19,0,0,1,.94-.41,4.29,4.29,0,0,1,1.07-.13,4.08,4.08,0,0,1,1.81.3v1.11a3.24,3.24,0,0,0-1.91-.52,2.88,2.88,0,0,0-.65.07,1.78,1.78,0,0,0-.57.22,1.27,1.27,0,0,0-.41.39,1,1,0,0,0-.16.59,1.18,1.18,0,0,0,.12.55,1.31,1.31,0,0,0,.36.43,3.51,3.51,0,0,0,.57.38l.77.39c.31.15.59.31.86.47a4,4,0,0,1,.71.55,2.53,2.53,0,0,1,.48.66,1.84,1.84,0,0,1,.18.83,2.09,2.09,0,0,1-.24,1.05,1.93,1.93,0,0,1-.66.7,2.8,2.8,0,0,1-.95.39,5.24,5.24,0,0,1-1.14.12l-.49,0-.6-.09a4.74,4.74,0,0,1-.57-.15A1.81,1.81,0,0,1,395.21,43.44Z" fill="#1e1e1e"/>
      <path d="M406.27,37.78l-2.76,7c-.49,1.25-1.18,1.87-2.07,1.87a2.25,2.25,0,0,1-.63-.08v-.86a1.8,1.8,0,0,0,.57.1,1.17,1.17,0,0,0,1.09-.86l.48-1.14-2.34-6h1.06l1.62,4.62c0,.06.07.21.13.46h0q0-.15.12-.45l1.71-4.63Z" fill="#1e1e1e"/>
      <path d="M406.94,43.57v-1a2.82,2.82,0,0,0,1.73.58q1.26,0,1.26-.84a.78.78,0,0,0-.1-.41,1,1,0,0,0-.3-.29,1.76,1.76,0,0,0-.43-.23l-.54-.22a5.79,5.79,0,0,1-.7-.32,2,2,0,0,1-.5-.36,1.29,1.29,0,0,1-.31-.46,1.79,1.79,0,0,1-.1-.6,1.55,1.55,0,0,1,.19-.75,1.82,1.82,0,0,1,.52-.55,2.77,2.77,0,0,1,.74-.33,3.56,3.56,0,0,1,2.24.16v1a2.78,2.78,0,0,0-1.52-.43,1.88,1.88,0,0,0-.49.06,1.06,1.06,0,0,0-.37.18A.85.85,0,0,0,408,39a.68.68,0,0,0-.08.34.82.82,0,0,0,.08.4.94.94,0,0,0,.25.28,2.11,2.11,0,0,0,.4.22l.53.22a6.21,6.21,0,0,1,.72.31,2.82,2.82,0,0,1,.54.36,1.57,1.57,0,0,1,.34.47,1.54,1.54,0,0,1,.12.63,1.5,1.5,0,0,1-.2.77,1.7,1.7,0,0,1-.52.55,2.49,2.49,0,0,1-.76.32,3.71,3.71,0,0,1-.9.1A3.49,3.49,0,0,1,406.94,43.57Z" fill="#1e1e1e"/>
      <path d="M415.18,43.72a1.82,1.82,0,0,1-.9.19c-1,0-1.57-.58-1.57-1.76V38.6h-1v-.82h1V36.32l1-.31v1.77h1.51v.82h-1.51V42a1.41,1.41,0,0,0,.2.87.82.82,0,0,0,.68.25,1,1,0,0,0,.63-.2Z" fill="#1e1e1e"/>
      <path d="M421.28,41h-4.23a2.19,2.19,0,0,0,.54,1.55,1.85,1.85,0,0,0,1.41.54,3,3,0,0,0,1.87-.66v.9a3.52,3.52,0,0,1-2.09.57,2.54,2.54,0,0,1-2-.81,3.85,3.85,0,0,1,.06-4.59,2.58,2.58,0,0,1,2-.88,2.28,2.28,0,0,1,1.82.76,3.19,3.19,0,0,1,.64,2.12Zm-1-.81a2,2,0,0,0-.4-1.3,1.37,1.37,0,0,0-1.1-.46,1.56,1.56,0,0,0-1.16.49,2.21,2.21,0,0,0-.58,1.27Z" fill="#1e1e1e"/>
      <path d="M431.26,43.78h-1V40.34a2.62,2.62,0,0,0-.3-1.44,1.17,1.17,0,0,0-1-.45,1.27,1.27,0,0,0-1,.56,2.16,2.16,0,0,0-.43,1.35v3.42h-1V40.22c0-1.18-.46-1.77-1.37-1.77a1.27,1.27,0,0,0-1,.53,2.14,2.14,0,0,0-.41,1.38v3.42h-1v-6h1v.95h0a2.06,2.06,0,0,1,1.86-1.09,1.83,1.83,0,0,1,1.08.34,1.73,1.73,0,0,1,.62.9,2.16,2.16,0,0,1,2-1.24c1.32,0,2,.82,2,2.45Z" fill="#1e1e1e"/>
    </g>
    <g>
      <path d="M19.86,58.7H18.77l-.89-2.35H14.32l-.84,2.35H12.39l3.22-8.4h1Zm-2.3-3.24-1.32-3.58a4.87,4.87,0,0,1-.13-.56h0a3.36,3.36,0,0,1-.13.56l-1.31,3.58Z" fill="#1e1e1e"/>
      <path d="M25.15,53l-3.55,4.9h3.52v.82H20.19v-.3l3.55-4.88H20.53V52.7h4.62Z" fill="#1e1e1e"/>
      <path d="M31.25,58.7h-1v-1h0a2,2,0,0,1-1.85,1.09c-1.43,0-2.14-.85-2.14-2.55V52.7h.95v3.43c0,1.27.49,1.9,1.46,1.9a1.44,1.44,0,0,0,1.15-.52,1.92,1.92,0,0,0,.46-1.35V52.7h1Z" fill="#1e1e1e"/>
      <path d="M36.32,53.67a1.18,1.18,0,0,0-.73-.19,1.23,1.23,0,0,0-1,.58,2.72,2.72,0,0,0-.41,1.58V58.7h-1v-6h1v1.24h0a2.17,2.17,0,0,1,.63-1,1.41,1.41,0,0,1,.94-.35,1.52,1.52,0,0,1,.58.08Z" fill="#1e1e1e"/>
      <path d="M42.18,55.94H38a2.23,2.23,0,0,0,.53,1.55A1.88,1.88,0,0,0,39.9,58a3,3,0,0,0,1.87-.66v.9a3.53,3.53,0,0,1-2.1.57,2.51,2.51,0,0,1-2-.82,3.83,3.83,0,0,1,.06-4.58,2.55,2.55,0,0,1,2-.88,2.25,2.25,0,0,1,1.82.76,3.19,3.19,0,0,1,.64,2.12Zm-1-.81a2,2,0,0,0-.4-1.3,1.37,1.37,0,0,0-1.1-.46,1.54,1.54,0,0,0-1.16.49A2.18,2.18,0,0,0,38,55.13Z" fill="#1e1e1e"/>
      <path d="M53.07,58.7H51.9l-1.4-2.35a4.9,4.9,0,0,0-.38-.56,1.92,1.92,0,0,0-.37-.38,1.36,1.36,0,0,0-.41-.22,1.9,1.9,0,0,0-.5-.06H48V58.7h-1V50.3h2.51a3.31,3.31,0,0,1,1,.14,2.11,2.11,0,0,1,.8.42,1.88,1.88,0,0,1,.54.7A2.37,2.37,0,0,1,51.61,54a2.57,2.57,0,0,1-.59.49,3.35,3.35,0,0,1-.77.31v0a1.81,1.81,0,0,1,.66.5,2.75,2.75,0,0,1,.28.37c.09.14.2.3.31.49Zm-5-7.51v3.05h1.33a2.06,2.06,0,0,0,.68-.11,2,2,0,0,0,.55-.32A1.41,1.41,0,0,0,51,53.3a1.68,1.68,0,0,0,.13-.68,1.31,1.31,0,0,0-.43-1,1.92,1.92,0,0,0-1.27-.38Z" fill="#1e1e1e"/>
      <path d="M58.57,55.94H54.33a2.28,2.28,0,0,0,.54,1.55,1.88,1.88,0,0,0,1.42.54,2.94,2.94,0,0,0,1.86-.66v.9a3.47,3.47,0,0,1-2.09.57,2.54,2.54,0,0,1-2-.82,3.35,3.35,0,0,1-.72-2.3,3.28,3.28,0,0,1,.79-2.28,2.54,2.54,0,0,1,2-.88,2.26,2.26,0,0,1,1.83.76,3.19,3.19,0,0,1,.64,2.12Zm-1-.81a2,2,0,0,0-.4-1.3,1.37,1.37,0,0,0-1.1-.46,1.54,1.54,0,0,0-1.16.49,2.18,2.18,0,0,0-.58,1.27Z" fill="#1e1e1e"/>
      <path d="M59.66,58.48v-1a2.82,2.82,0,0,0,1.73.58q1.26,0,1.26-.84a.76.76,0,0,0-.1-.41,1,1,0,0,0-.3-.29,1.94,1.94,0,0,0-.43-.24L61.28,56a5.79,5.79,0,0,1-.7-.32,2.22,2.22,0,0,1-.5-.36,1.38,1.38,0,0,1-.31-.46,1.81,1.81,0,0,1-.1-.61,1.39,1.39,0,0,1,.2-.74,1.67,1.67,0,0,1,.51-.55,2.77,2.77,0,0,1,.74-.33,3.56,3.56,0,0,1,2.24.16v1a2.7,2.7,0,0,0-1.52-.43,1.88,1.88,0,0,0-.49.06,1.4,1.4,0,0,0-.37.17,1,1,0,0,0-.24.27.77.77,0,0,0-.08.34,1,1,0,0,0,.08.4,1.07,1.07,0,0,0,.25.28,2.11,2.11,0,0,0,.4.22l.53.22a6.21,6.21,0,0,1,.72.31,2.82,2.82,0,0,1,.54.36,1.57,1.57,0,0,1,.34.47,1.48,1.48,0,0,1,.12.63,1.5,1.5,0,0,1-.2.77,1.58,1.58,0,0,1-.52.54,2.28,2.28,0,0,1-.76.33,3.68,3.68,0,0,1-.89.1A3.39,3.39,0,0,1,59.66,58.48Z" fill="#1e1e1e"/>
      <path d="M67.62,58.84A2.79,2.79,0,0,1,65.5,58a3.1,3.1,0,0,1-.79-2.23,3.24,3.24,0,0,1,.82-2.36,3,3,0,0,1,2.23-.85,2.7,2.7,0,0,1,2.1.83A3.77,3.77,0,0,1,69.8,58,2.87,2.87,0,0,1,67.62,58.84Zm.07-5.47a1.83,1.83,0,0,0-1.46.63,2.59,2.59,0,0,0-.54,1.74,2.46,2.46,0,0,0,.54,1.68,1.86,1.86,0,0,0,1.46.61,1.79,1.79,0,0,0,1.44-.6,2.63,2.63,0,0,0,.5-1.72,2.66,2.66,0,0,0-.5-1.73A1.76,1.76,0,0,0,67.69,53.37Z" fill="#1e1e1e"/>
      <path d="M77,58.7H76v-1h0a2,2,0,0,1-1.85,1.09C72.73,58.84,72,58,72,56.29V52.7h1v3.43c0,1.27.49,1.9,1.46,1.9a1.44,1.44,0,0,0,1.15-.52A1.92,1.92,0,0,0,76,56.16V52.7h1Z" fill="#1e1e1e"/>
      <path d="M82.07,53.67a1.18,1.18,0,0,0-.73-.19,1.23,1.23,0,0,0-1,.58,2.72,2.72,0,0,0-.41,1.58V58.7h-1v-6h1v1.24h0a2.17,2.17,0,0,1,.63-1,1.41,1.41,0,0,1,.94-.35,1.52,1.52,0,0,1,.58.08Z" fill="#1e1e1e"/>
      <path d="M87.2,58.43a3.19,3.19,0,0,1-1.64.41A2.72,2.72,0,0,1,83.49,58a3,3,0,0,1-.79-2.17,3.3,3.3,0,0,1,.85-2.38,3,3,0,0,1,2.27-.9,3.23,3.23,0,0,1,1.39.29v1a2.45,2.45,0,0,0-1.43-.47,2,2,0,0,0-1.51.66,2.5,2.5,0,0,0-.59,1.73,2.36,2.36,0,0,0,.56,1.66,1.89,1.89,0,0,0,1.48.61,2.39,2.39,0,0,0,1.48-.52Z" fill="#1e1e1e"/>
      <path d="M93.48,55.94H89.24a2.19,2.19,0,0,0,.54,1.55A1.85,1.85,0,0,0,91.2,58a3,3,0,0,0,1.86-.66v.9a3.52,3.52,0,0,1-2.09.57A2.52,2.52,0,0,1,89,58,3.81,3.81,0,0,1,89,53.44a2.53,2.53,0,0,1,2-.88,2.25,2.25,0,0,1,1.82.76,3.2,3.2,0,0,1,.65,2.12Zm-1-.81a2,2,0,0,0-.4-1.3,1.36,1.36,0,0,0-1.1-.46,1.52,1.52,0,0,0-1.15.49,2.13,2.13,0,0,0-.59,1.27Z" fill="#1e1e1e"/>
      <path d="M27,71.9H26V66.26c0-.44,0-1,.08-1.63h0a5.05,5.05,0,0,1-.25.81L22.91,71.9h-.48l-2.87-6.41a5.64,5.64,0,0,1-.25-.86h0c0,.34,0,.88,0,1.65V71.9h-.95V63.5h1.31l2.57,5.86a7.38,7.38,0,0,1,.39,1h0c.16-.46.3-.81.4-1l2.63-5.83H27Z" fill="#1e1e1e"/>
      <path d="M33.33,71.9h-1V71h0a2.2,2.2,0,0,1-3.25.61,1.64,1.64,0,0,1-.5-1.26c0-1.12.66-1.78,2-2l1.79-.25q0-1.53-1.23-1.53a3,3,0,0,0-2,.74v-1a3.76,3.76,0,0,1,2-.56c1.41,0,2.12.75,2.12,2.24Zm-1-3-1.44.2a2.3,2.3,0,0,0-1,.33,1.1,1.1,0,0,0,0,1.56,1.25,1.25,0,0,0,.84.27,1.53,1.53,0,0,0,1.18-.5,1.77,1.77,0,0,0,.46-1.27Z" fill="#1e1e1e"/>
      <path d="M40.12,71.9h-1V68.48c0-1.27-.47-1.91-1.4-1.91a1.5,1.5,0,0,0-1.19.54,2,2,0,0,0-.47,1.37V71.9h-1v-6h1v1h0a2.16,2.16,0,0,1,2-1.14,1.83,1.83,0,0,1,1.51.64,2.85,2.85,0,0,1,.52,1.83Z" fill="#1e1e1e"/>
      <path d="M46.22,71.9h-1V71h0A2,2,0,0,1,43.39,72a2,2,0,0,1-1.4-.47,1.65,1.65,0,0,1-.51-1.26c0-1.12.66-1.78,2-2l1.8-.25c0-1-.41-1.53-1.24-1.53a3,3,0,0,0-2,.74v-1a3.76,3.76,0,0,1,2-.56c1.41,0,2.11.75,2.11,2.24Zm-1-3-1.45.2a2.25,2.25,0,0,0-1,.33,1.1,1.1,0,0,0,0,1.56,1.24,1.24,0,0,0,.83.27,1.55,1.55,0,0,0,1.19-.5,1.77,1.77,0,0,0,.46-1.27Z" fill="#1e1e1e"/>
      <path d="M53.15,71.42c0,2.2-1,3.31-3.16,3.31a4.31,4.31,0,0,1-2-.43v-1a4,4,0,0,0,1.94.57c1.47,0,2.21-.79,2.21-2.36v-.66h0A2.25,2.25,0,0,1,50.11,72a2.22,2.22,0,0,1-1.8-.8,3.17,3.17,0,0,1-.69-2.15,3.75,3.75,0,0,1,.74-2.43,2.46,2.46,0,0,1,2-.9,2,2,0,0,1,1.8,1h0V65.9h1Zm-1-2.23V68.3a1.72,1.72,0,0,0-.48-1.22,1.58,1.58,0,0,0-1.2-.51,1.68,1.68,0,0,0-1.4.65,2.85,2.85,0,0,0-.5,1.81,2.48,2.48,0,0,0,.48,1.6,1.56,1.56,0,0,0,1.28.6,1.69,1.69,0,0,0,1.32-.57A2.16,2.16,0,0,0,52.19,69.19Z" fill="#1e1e1e"/>
      <path d="M59.92,69.14H55.69a2.23,2.23,0,0,0,.53,1.55,1.88,1.88,0,0,0,1.42.54,3,3,0,0,0,1.87-.66v.9a3.53,3.53,0,0,1-2.1.57,2.51,2.51,0,0,1-2-.82,3.83,3.83,0,0,1,.06-4.58,2.54,2.54,0,0,1,2-.88,2.26,2.26,0,0,1,1.83.76,3.19,3.19,0,0,1,.64,2.12Zm-1-.81a2,2,0,0,0-.4-1.3,1.37,1.37,0,0,0-1.1-.46,1.54,1.54,0,0,0-1.16.49,2.18,2.18,0,0,0-.58,1.27Z" fill="#1e1e1e"/>
      <path d="M64.5,66.87a1.29,1.29,0,0,0-1.75.39,2.64,2.64,0,0,0-.41,1.58V71.9h-1v-6h1v1.24h0a2.09,2.09,0,0,1,.63-1,1.39,1.39,0,0,1,.94-.35,1.44,1.44,0,0,1,.57.08Z" fill="#1e1e1e"/>
      <path d="M75.11,68.5C75.11,70.86,74,72,71.92,72s-3.06-1.13-3.06-3.4V63.5h1v5.07c0,1.73.73,2.59,2.18,2.59s2.1-.83,2.1-2.5V63.5h1Z" fill="#1e1e1e"/>
      <path d="M83.23,71.9H82.06l-1.41-2.35a5,5,0,0,0-.37-.56,2,2,0,0,0-.38-.38,1.25,1.25,0,0,0-.41-.22,1.83,1.83,0,0,0-.49-.06h-.81V71.9h-1V63.5h2.5a3.31,3.31,0,0,1,1,.14,2.23,2.23,0,0,1,.81.42,1.88,1.88,0,0,1,.54.7,2.45,2.45,0,0,1,.19,1,2.19,2.19,0,0,1-.51,1.46,2.51,2.51,0,0,1-.58.49,3.54,3.54,0,0,1-.77.31v0a1.57,1.57,0,0,1,.36.22,2,2,0,0,1,.3.28l.28.37c.09.14.19.3.3.49Zm-5-7.51v3h1.34a2.15,2.15,0,0,0,.68-.11,1.8,1.8,0,0,0,.54-.32,1.57,1.57,0,0,0,.36-.51,1.87,1.87,0,0,0,.13-.68,1.32,1.32,0,0,0-.44-1,1.88,1.88,0,0,0-1.26-.38Z" fill="#1e1e1e"/>
      <path d="M88.74,71.9H84.38V63.5h1V71h3.37Z" fill="#1e1e1e"/>
    </g>
    <g>
      <path d="M383.74,102.74h-1.09l-.89-2.35H378.2l-.84,2.35h-1.09l3.22-8.4h1Zm-2.3-3.24-1.32-3.58a4.39,4.39,0,0,1-.13-.56h0a3,3,0,0,1-.14.56l-1.3,3.58Z" fill="#1e1e1e"/>
      <path d="M389.7,102.74h-1v-.94h0a2,2,0,0,1-1.85,1.09c-1.43,0-2.15-.86-2.15-2.56V96.74h1v3.44c0,1.26.48,1.9,1.45,1.9a1.5,1.5,0,0,0,1.16-.52,2,2,0,0,0,.45-1.36V96.74h1Z" fill="#1e1e1e"/>
      <path d="M394.42,102.69a1.87,1.87,0,0,1-.89.18c-1,0-1.58-.58-1.58-1.75V97.56h-1v-.82h1V95.28l1-.31v1.77h1.51v.82h-1.51V101a1.37,1.37,0,0,0,.21.86.81.81,0,0,0,.68.25,1,1,0,0,0,.62-.19Z" fill="#1e1e1e"/>
      <path d="M400.69,102.74h-1V99.29c0-1.25-.47-1.88-1.4-1.88a1.51,1.51,0,0,0-1.18.54,2.05,2.05,0,0,0-.48,1.4v3.39h-1V93.86h1v3.88h0a2.18,2.18,0,0,1,2-1.14c1.35,0,2,.82,2,2.45Z" fill="#1e1e1e"/>
      <path d="M405,102.89a2.8,2.8,0,0,1-2.13-.85,3.1,3.1,0,0,1-.79-2.23,3.26,3.26,0,0,1,.82-2.36,3,3,0,0,1,2.24-.85,2.69,2.69,0,0,1,2.09.83,3.27,3.27,0,0,1,.75,2.29,3.23,3.23,0,0,1-.81,2.3A2.82,2.82,0,0,1,405,102.89Zm.07-5.48a1.84,1.84,0,0,0-1.47.63,2.59,2.59,0,0,0-.54,1.74,2.41,2.41,0,0,0,.55,1.68,1.85,1.85,0,0,0,1.46.62,1.74,1.74,0,0,0,1.43-.61,2.62,2.62,0,0,0,.5-1.71,2.71,2.71,0,0,0-.5-1.74A1.77,1.77,0,0,0,405.08,97.41Z" fill="#1e1e1e"/>
      <path d="M412.66,97.72a1.18,1.18,0,0,0-.73-.2,1.25,1.25,0,0,0-1,.58,2.75,2.75,0,0,0-.41,1.59v3h-1v-6h1V98h0a2.17,2.17,0,0,1,.63-1,1.46,1.46,0,0,1,.94-.35,1.71,1.71,0,0,1,.58.08Z" fill="#1e1e1e"/>
      <path d="M414.19,95.22a.66.66,0,0,1-.44-.17.65.65,0,0,1,0-.9.62.62,0,0,1,.44-.18.61.61,0,0,1,.45.18.62.62,0,0,1,0,.89A.61.61,0,0,1,414.19,95.22Zm.47,7.52h-1v-6h1Z" fill="#1e1e1e"/>
      <path d="M419.39,102.69a1.92,1.92,0,0,1-.9.18c-1.05,0-1.57-.58-1.57-1.75V97.56h-1v-.82h1V95.28l1-.31v1.77h1.51v.82h-1.51V101a1.45,1.45,0,0,0,.2.86.83.83,0,0,0,.68.25,1,1,0,0,0,.63-.19Z" fill="#1e1e1e"/>
      <path d="M425.45,96.74l-2.76,7q-.74,1.86-2.07,1.86a2.25,2.25,0,0,1-.63-.08v-.86a1.79,1.79,0,0,0,.57.11,1.19,1.19,0,0,0,1.09-.87l.48-1.14-2.35-6h1.07l1.62,4.62c0,.06.06.21.13.46h0q0-.13.12-.45l1.7-4.63Z" fill="#1e1e1e"/>
      <path d="M436,99.35q0,3.54-3.19,3.54t-3.06-3.41V94.34h1v5.08c0,1.72.72,2.58,2.18,2.58s2.1-.83,2.1-2.5V94.34h1Z" fill="#1e1e1e"/>
      <path d="M444.16,102.74H443l-1.4-2.35a4.9,4.9,0,0,0-.38-.56,2.23,2.23,0,0,0-.37-.38,1.14,1.14,0,0,0-.41-.21,1.55,1.55,0,0,0-.5-.07h-.8v3.57h-1v-8.4h2.51a3.7,3.7,0,0,1,1,.14,2.11,2.11,0,0,1,.8.42,2,2,0,0,1,.54.7,2.32,2.32,0,0,1,.19,1,2.37,2.37,0,0,1-.13.81,2.2,2.2,0,0,1-.37.65,2.57,2.57,0,0,1-.59.49,3,3,0,0,1-.77.31v0a1.88,1.88,0,0,1,.37.21,1.9,1.9,0,0,1,.29.28,2.88,2.88,0,0,1,.28.38l.31.48Zm-5-7.51v3h1.33a2.11,2.11,0,0,0,.68-.11,1.77,1.77,0,0,0,.55-.32,1.41,1.41,0,0,0,.35-.51,1.65,1.65,0,0,0,.13-.68,1.31,1.31,0,0,0-.43-1,1.92,1.92,0,0,0-1.27-.38Z" fill="#1e1e1e"/>
      <path d="M449.68,102.74h-4.36v-8.4h1v7.51h3.38Z" fill="#1e1e1e"/>
    </g>
    <g>
      <path d="M42.31,132.6H39.88v7.51h-1V132.6H36.48v-.89h5.83Z" fill="#1e1e1e"/>
      <path d="M44.83,140.26a2.76,2.76,0,0,1-2.12-.85,3.1,3.1,0,0,1-.8-2.22,3.27,3.27,0,0,1,.83-2.37A3,3,0,0,1,45,134a2.7,2.7,0,0,1,2.1.83,3.27,3.27,0,0,1,.75,2.29,3.23,3.23,0,0,1-.81,2.3A2.84,2.84,0,0,1,44.83,140.26Zm.07-5.48a1.83,1.83,0,0,0-1.46.63,2.59,2.59,0,0,0-.54,1.74,2.46,2.46,0,0,0,.54,1.68,1.87,1.87,0,0,0,1.46.62,1.76,1.76,0,0,0,1.44-.61,2.62,2.62,0,0,0,.5-1.71,2.71,2.71,0,0,0-.5-1.74A1.79,1.79,0,0,0,44.9,134.78Z" fill="#1e1e1e"/>
      <path d="M54.34,140.11H53l-2.65-2.88h0v2.88h-1v-8.88h1v5.63h0l2.52-2.75h1.26L51.34,137Z" fill="#1e1e1e"/>
      <path d="M60.14,137.35H55.91a2.19,2.19,0,0,0,.54,1.55,1.82,1.82,0,0,0,1.41.55,3,3,0,0,0,1.87-.67v.9a3.52,3.52,0,0,1-2.09.58,2.55,2.55,0,0,1-2-.82,3.33,3.33,0,0,1-.73-2.3,3.29,3.29,0,0,1,.79-2.28,2.56,2.56,0,0,1,2-.89,2.26,2.26,0,0,1,1.82.77,3.15,3.15,0,0,1,.64,2.11Zm-1-.81a2,2,0,0,0-.4-1.29,1.38,1.38,0,0,0-1.1-.47,1.56,1.56,0,0,0-1.16.49,2.21,2.21,0,0,0-.58,1.27Z" fill="#1e1e1e"/>
      <path d="M66.58,140.11h-1v-3.42c0-1.27-.47-1.91-1.4-1.91a1.5,1.5,0,0,0-1.19.54,2,2,0,0,0-.47,1.37v3.42h-1v-6h1v1h0a2.16,2.16,0,0,1,2-1.14,1.86,1.86,0,0,1,1.51.64,2.88,2.88,0,0,1,.52,1.84Z" fill="#1e1e1e"/>
    </g>
    <g>
      <path d="M217,70.7h-1.09L215,68.35h-3.57l-.83,2.35h-1.1l3.22-8.4h1Zm-2.3-3.24-1.32-3.58a2.59,2.59,0,0,1-.13-.56h0a2.59,2.59,0,0,1-.13.56l-1.31,3.58Z" fill="#1e1e1e"/>
      <path d="M222.26,65l-3.55,4.9h3.51v.82H217.3v-.3l3.55-4.88h-3.22V64.7h4.63Z" fill="#1e1e1e"/>
      <path d="M228.35,70.7h-1v-1h0a2,2,0,0,1-1.85,1.09c-1.43,0-2.15-.85-2.15-2.55V64.7h1v3.43c0,1.27.48,1.9,1.45,1.9a1.47,1.47,0,0,0,1.16-.52,2,2,0,0,0,.45-1.35V64.7h1Z" fill="#1e1e1e"/>
      <path d="M233.42,65.67a1.18,1.18,0,0,0-.73-.19,1.2,1.2,0,0,0-1,.58,2.64,2.64,0,0,0-.42,1.58V70.7h-1v-6h1v1.24h0a2.08,2.08,0,0,1,.62-1,1.42,1.42,0,0,1,.95-.35,1.44,1.44,0,0,1,.57.08Z" fill="#1e1e1e"/>
      <path d="M239.29,67.94h-4.24a2.28,2.28,0,0,0,.54,1.55A1.87,1.87,0,0,0,237,70a3,3,0,0,0,1.86-.66v.9a3.5,3.5,0,0,1-2.09.57,2.52,2.52,0,0,1-2-.82,3.36,3.36,0,0,1-.73-2.3,3.29,3.29,0,0,1,.8-2.28,2.53,2.53,0,0,1,2-.88,2.25,2.25,0,0,1,1.82.76,3.2,3.2,0,0,1,.65,2.12Zm-1-.81a2,2,0,0,0-.4-1.3,1.36,1.36,0,0,0-1.1-.46,1.52,1.52,0,0,0-1.15.49,2.19,2.19,0,0,0-.59,1.27Z" fill="#1e1e1e"/>
      <path d="M250.18,70.7H249l-1.41-2.35a5,5,0,0,0-.37-.56,2.27,2.27,0,0,0-.38-.38,1.25,1.25,0,0,0-.41-.22,1.83,1.83,0,0,0-.49-.06h-.81V70.7h-1V62.3h2.5a3.31,3.31,0,0,1,1,.14,2.23,2.23,0,0,1,.81.42,1.76,1.76,0,0,1,.53.7,2.25,2.25,0,0,1,.2,1,2.53,2.53,0,0,1-.13.8,2.27,2.27,0,0,1-.38.66,2.51,2.51,0,0,1-.58.49,3.43,3.43,0,0,1-.78.31v0a1.45,1.45,0,0,1,.37.22,2.56,2.56,0,0,1,.3.28,4,4,0,0,1,.27.37c.1.14.2.3.31.49Zm-5-7.51v3h1.34a2.15,2.15,0,0,0,.68-.11,1.8,1.8,0,0,0,.54-.32,1.57,1.57,0,0,0,.36-.51,1.87,1.87,0,0,0,.13-.68,1.32,1.32,0,0,0-.44-1.05,1.88,1.88,0,0,0-1.26-.38Z" fill="#1e1e1e"/>
      <path d="M255.67,67.94h-4.23a2.19,2.19,0,0,0,.54,1.55,1.85,1.85,0,0,0,1.42.54,3,3,0,0,0,1.86-.66v.9a3.52,3.52,0,0,1-2.09.57,2.52,2.52,0,0,1-2-.82,3.81,3.81,0,0,1,.07-4.58,2.53,2.53,0,0,1,2-.88,2.25,2.25,0,0,1,1.82.76,3.19,3.19,0,0,1,.64,2.12Zm-1-.81a2,2,0,0,0-.4-1.3,1.36,1.36,0,0,0-1.1-.46,1.52,1.52,0,0,0-1.15.49,2.13,2.13,0,0,0-.59,1.27Z" fill="#1e1e1e"/>
      <path d="M256.76,70.48v-1a2.84,2.84,0,0,0,1.73.58c.85,0,1.27-.28,1.27-.84a.76.76,0,0,0-.11-.41,1,1,0,0,0-.29-.29,2.28,2.28,0,0,0-.44-.24l-.53-.21a5.16,5.16,0,0,1-.7-.32,2.55,2.55,0,0,1-.51-.36,1.52,1.52,0,0,1-.3-.46,1.59,1.59,0,0,1-.1-.61,1.38,1.38,0,0,1,.19-.74,1.7,1.7,0,0,1,.52-.55,2.71,2.71,0,0,1,.73-.33,3.59,3.59,0,0,1,2.25.16v1a2.71,2.71,0,0,0-1.53-.43,1.75,1.75,0,0,0-.48.06,1.15,1.15,0,0,0-.37.17.76.76,0,0,0-.24.27.67.67,0,0,0-.09.34.82.82,0,0,0,.09.4,1,1,0,0,0,.24.28,2.48,2.48,0,0,0,.4.22l.54.22a6.85,6.85,0,0,1,.71.31,2.82,2.82,0,0,1,.54.36,1.41,1.41,0,0,1,.34.47,1.48,1.48,0,0,1,.12.63,1.49,1.49,0,0,1-.19.77,1.61,1.61,0,0,1-.53.54,2.32,2.32,0,0,1-.75.33,3.82,3.82,0,0,1-.9.1A3.41,3.41,0,0,1,256.76,70.48Z" fill="#1e1e1e"/>
      <path d="M264.73,70.84A2.79,2.79,0,0,1,262.6,70a3.1,3.1,0,0,1-.79-2.23,3.21,3.21,0,0,1,.83-2.36,3,3,0,0,1,2.23-.85,2.69,2.69,0,0,1,2.09.83,3.28,3.28,0,0,1,.76,2.29,3.21,3.21,0,0,1-.82,2.3A2.85,2.85,0,0,1,264.73,70.84Zm.07-5.47a1.84,1.84,0,0,0-1.47.63,2.59,2.59,0,0,0-.54,1.74,2.46,2.46,0,0,0,.55,1.68,1.85,1.85,0,0,0,1.46.61,1.75,1.75,0,0,0,1.43-.6,2.63,2.63,0,0,0,.5-1.72,2.66,2.66,0,0,0-.5-1.73A1.73,1.73,0,0,0,264.8,65.37Z" fill="#1e1e1e"/>
      <path d="M274.1,70.7h-1v-1h0a2,2,0,0,1-1.85,1.09c-1.43,0-2.15-.85-2.15-2.55V64.7h1v3.43c0,1.27.48,1.9,1.45,1.9a1.47,1.47,0,0,0,1.16-.52,2,2,0,0,0,.45-1.35V64.7h1Z" fill="#1e1e1e"/>
      <path d="M279.17,65.67a1.18,1.18,0,0,0-.73-.19,1.2,1.2,0,0,0-1,.58,2.64,2.64,0,0,0-.42,1.58V70.7h-1v-6h1v1.24h0a2.08,2.08,0,0,1,.62-1,1.42,1.42,0,0,1,1-.35,1.44,1.44,0,0,1,.57.08Z" fill="#1e1e1e"/>
      <path d="M284.3,70.43a3.17,3.17,0,0,1-1.64.41,2.75,2.75,0,0,1-2.07-.83,3.06,3.06,0,0,1-.79-2.17,3.35,3.35,0,0,1,.85-2.38,3,3,0,0,1,2.27-.9,3.27,3.27,0,0,1,1.4.29v1a2.49,2.49,0,0,0-1.43-.47,1.92,1.92,0,0,0-1.51.66,2.46,2.46,0,0,0-.59,1.73,2.36,2.36,0,0,0,.55,1.66,1.91,1.91,0,0,0,1.49.61,2.38,2.38,0,0,0,1.47-.52Z" fill="#1e1e1e"/>
      <path d="M290.58,67.94h-4.24a2.28,2.28,0,0,0,.54,1.55,1.88,1.88,0,0,0,1.42.54,2.94,2.94,0,0,0,1.86-.66v.9a3.47,3.47,0,0,1-2.09.57,2.53,2.53,0,0,1-2-.82,3.35,3.35,0,0,1-.72-2.3,3.28,3.28,0,0,1,.79-2.28,2.54,2.54,0,0,1,2-.88,2.24,2.24,0,0,1,1.82.76,3.2,3.2,0,0,1,.65,2.12Zm-1-.81a1.91,1.91,0,0,0-.4-1.3,1.36,1.36,0,0,0-1.1-.46,1.54,1.54,0,0,0-1.15.49,2.19,2.19,0,0,0-.59,1.27Z" fill="#1e1e1e"/>
      <path d="M304,70.7h-1V65.06c0-.44,0-1,.08-1.63h0a4.19,4.19,0,0,1-.25.81L300,70.7h-.48l-2.86-6.41a4.54,4.54,0,0,1-.26-.86h0c0,.34,0,.88,0,1.65V70.7h-.95V62.3h1.3l2.58,5.86a6,6,0,0,1,.38,1h0c.17-.46.3-.81.4-1l2.63-5.83H304Z" fill="#1e1e1e"/>
      <path d="M310.39,70.7h-1v-.94h0a2,2,0,0,1-1.85,1.08,2,2,0,0,1-1.4-.47,1.65,1.65,0,0,1-.51-1.26c0-1.12.66-1.78,2-2l1.8-.25c0-1-.41-1.53-1.24-1.53a3,3,0,0,0-1.95.74v-1a3.73,3.73,0,0,1,2-.56c1.41,0,2.12.75,2.12,2.24Zm-1-3-1.45.2a2.35,2.35,0,0,0-1,.33,1,1,0,0,0-.34.84.9.9,0,0,0,.32.71,1.18,1.18,0,0,0,.83.28,1.51,1.51,0,0,0,1.18-.5,1.78,1.78,0,0,0,.47-1.27Z" fill="#1e1e1e"/>
      <path d="M317.18,70.7h-1V67.28c0-1.27-.47-1.91-1.39-1.91a1.52,1.52,0,0,0-1.2.54,2,2,0,0,0-.47,1.37V70.7h-1v-6h1v1h0a2.17,2.17,0,0,1,2-1.14,1.83,1.83,0,0,1,1.51.64,2.79,2.79,0,0,1,.52,1.83Z" fill="#1e1e1e"/>
      <path d="M323.29,70.7h-1v-.94h0a2.2,2.2,0,0,1-3.25.61,1.64,1.64,0,0,1-.5-1.26c0-1.12.66-1.78,2-2l1.8-.25c0-1-.42-1.53-1.24-1.53a3,3,0,0,0-2,.74v-1a3.76,3.76,0,0,1,2-.56c1.41,0,2.12.75,2.12,2.24Zm-1-3-1.45.2a2.3,2.3,0,0,0-1,.33.93.93,0,0,0-.34.84.89.89,0,0,0,.31.71,1.2,1.2,0,0,0,.84.28,1.51,1.51,0,0,0,1.18-.5,1.78,1.78,0,0,0,.47-1.27Z" fill="#1e1e1e"/>
      <path d="M330.22,70.22c0,2.2-1.06,3.31-3.17,3.31a4.24,4.24,0,0,1-1.94-.43v-1a3.94,3.94,0,0,0,1.93.57c1.48,0,2.22-.79,2.22-2.36v-.66h0a2.42,2.42,0,0,1-3.86.35,3.17,3.17,0,0,1-.68-2.15,3.75,3.75,0,0,1,.73-2.43,2.46,2.46,0,0,1,2-.9,2,2,0,0,1,1.8,1h0V64.7h1Zm-1-2.23V67.1a1.69,1.69,0,0,0-.49-1.22,1.58,1.58,0,0,0-1.2-.51,1.67,1.67,0,0,0-1.4.65,2.91,2.91,0,0,0-.5,1.81,2.48,2.48,0,0,0,.48,1.6,1.57,1.57,0,0,0,1.28.6,1.69,1.69,0,0,0,1.32-.57A2.12,2.12,0,0,0,329.26,68Z" fill="#1e1e1e"/>
      <path d="M337,67.94h-4.24a2.19,2.19,0,0,0,.54,1.55,1.85,1.85,0,0,0,1.42.54,3,3,0,0,0,1.86-.66v.9a3.52,3.52,0,0,1-2.09.57,2.52,2.52,0,0,1-2-.82,3.36,3.36,0,0,1-.73-2.3,3.29,3.29,0,0,1,.8-2.28,2.53,2.53,0,0,1,2-.88,2.25,2.25,0,0,1,1.82.76,3.2,3.2,0,0,1,.65,2.12Zm-1-.81a2,2,0,0,0-.4-1.3,1.36,1.36,0,0,0-1.1-.46,1.52,1.52,0,0,0-1.15.49,2.13,2.13,0,0,0-.59,1.27Z" fill="#1e1e1e"/>
      <path d="M341.57,65.67a1.18,1.18,0,0,0-.73-.19,1.23,1.23,0,0,0-1,.58,2.72,2.72,0,0,0-.41,1.58V70.7h-1v-6h1v1.24h0a2.17,2.17,0,0,1,.63-1,1.41,1.41,0,0,1,.94-.35,1.52,1.52,0,0,1,.58.08Z" fill="#1e1e1e"/>
      <path d="M216.85,83.9h-1.09l-.89-2.35H211.3l-.83,2.35h-1.1l3.22-8.4h1Zm-2.31-3.24-1.31-3.58a2.59,2.59,0,0,1-.13-.56h0a2.59,2.59,0,0,1-.13.56l-1.31,3.58Z" fill="#1e1e1e"/>
      <path d="M218.94,83h0v3.63h-1V77.9h1V79h0a2.26,2.26,0,0,1,2.07-1.2,2.18,2.18,0,0,1,1.81.81,3.28,3.28,0,0,1,.65,2.16,3.72,3.72,0,0,1-.73,2.41,2.44,2.44,0,0,1-2,.9A2,2,0,0,1,218.94,83Zm0-2.42v.84a1.77,1.77,0,0,0,.48,1.26,1.59,1.59,0,0,0,1.23.52,1.62,1.62,0,0,0,1.37-.66,3.09,3.09,0,0,0,.49-1.86,2.41,2.41,0,0,0-.46-1.57,1.54,1.54,0,0,0-1.26-.57,1.68,1.68,0,0,0-1.34.58A2.15,2.15,0,0,0,218.92,80.61Z" fill="#1e1e1e"/>
      <path d="M226,83h0v3.63h-1V77.9h1V79h0a2.29,2.29,0,0,1,2.08-1.2,2.19,2.19,0,0,1,1.81.81,3.33,3.33,0,0,1,.65,2.16,3.72,3.72,0,0,1-.73,2.41,2.46,2.46,0,0,1-2,.9A2,2,0,0,1,226,83Zm0-2.42v.84a1.77,1.77,0,0,0,.48,1.26,1.73,1.73,0,0,0,2.6-.14,3.09,3.09,0,0,0,.49-1.86,2.41,2.41,0,0,0-.46-1.57,1.52,1.52,0,0,0-1.25-.57,1.7,1.7,0,0,0-1.35.58A2.15,2.15,0,0,0,226,80.61Z" fill="#1e1e1e"/>
      <path d="M236.46,83.9h-1V75.5h1Z" fill="#1e1e1e"/>
      <path d="M238.67,83.9V75.5H241q4.45,0,4.45,4.09a4.15,4.15,0,0,1-1.24,3.13,4.55,4.55,0,0,1-3.3,1.18Zm1-7.51V83h1.25a3.55,3.55,0,0,0,2.57-.88,3.3,3.3,0,0,0,.92-2.51q0-3.23-3.43-3.23Z" fill="#1e1e1e"/>
      <path d="M256.52,80.5q0,3.54-3.19,3.54t-3.06-3.4V75.5h1v5.07c0,1.73.73,2.59,2.18,2.59s2.11-.83,2.11-2.5V75.5h1Z" fill="#1e1e1e"/>
      <path d="M264.64,83.9h-1.17l-1.41-2.35a3.88,3.88,0,0,0-.37-.56,2.24,2.24,0,0,0-.37-.38,1.49,1.49,0,0,0-.41-.22,1.9,1.9,0,0,0-.5-.06h-.81V83.9h-1V75.5h2.51a3.29,3.29,0,0,1,1,.14,2.23,2.23,0,0,1,.81.42,1.88,1.88,0,0,1,.54.7,2.58,2.58,0,0,1,.06,1.78,2.07,2.07,0,0,1-.38.66,2.32,2.32,0,0,1-.58.49,3.54,3.54,0,0,1-.77.31v0a2.06,2.06,0,0,1,.66.5,4,4,0,0,1,.28.37l.31.49Zm-5-7.51v3h1.34a2.11,2.11,0,0,0,.68-.11,1.8,1.8,0,0,0,.54-.32,1.32,1.32,0,0,0,.36-.51,1.68,1.68,0,0,0,.13-.68,1.32,1.32,0,0,0-.44-1,1.88,1.88,0,0,0-1.26-.38Z" fill="#1e1e1e"/>
      <path d="M266.78,83.9h-1V75.5h1Z" fill="#1e1e1e"/>
      <path d="M278,80.8h-2.36v2.36h-.78V80.8h-2.36V80h2.36V77.65h.78V80H278Z" fill="#1e1e1e"/>
      <path d="M289.49,83.55a4.89,4.89,0,0,1-2.32.49,3.74,3.74,0,0,1-2.87-1.15,4.26,4.26,0,0,1-1.08-3,4.46,4.46,0,0,1,1.22-3.26,4.08,4.08,0,0,1,3.07-1.24,4.92,4.92,0,0,1,2,.34v1a4.05,4.05,0,0,0-2-.5,3.06,3.06,0,0,0-2.35,1,3.62,3.62,0,0,0-.9,2.58,3.49,3.49,0,0,0,.84,2.45,2.91,2.91,0,0,0,2.21.91,4.08,4.08,0,0,0,2.19-.57Z" fill="#1e1e1e"/>
      <path d="M294.2,78.87a1.29,1.29,0,0,0-1.75.39,2.64,2.64,0,0,0-.41,1.58V83.9h-1v-6h1v1.24h0a2.09,2.09,0,0,1,.63-1,1.39,1.39,0,0,1,.94-.35,1.44,1.44,0,0,1,.57.08Z" fill="#1e1e1e"/>
      <path d="M300.07,81.14h-4.24a2.28,2.28,0,0,0,.54,1.55,1.87,1.87,0,0,0,1.42.54,3,3,0,0,0,1.86-.66v.9a3.47,3.47,0,0,1-2.09.57,2.53,2.53,0,0,1-2-.82,3.35,3.35,0,0,1-.72-2.3,3.28,3.28,0,0,1,.79-2.28,2.54,2.54,0,0,1,2-.88,2.24,2.24,0,0,1,1.82.76,3.2,3.2,0,0,1,.65,2.12Zm-1-.81a1.91,1.91,0,0,0-.4-1.3,1.36,1.36,0,0,0-1.1-.46,1.54,1.54,0,0,0-1.15.49,2.19,2.19,0,0,0-.59,1.27Z" fill="#1e1e1e"/>
      <path d="M306.64,83.9h-1v-1h0A2.21,2.21,0,0,1,303.6,84a2.25,2.25,0,0,1-1.81-.8,3.33,3.33,0,0,1-.68-2.2,3.57,3.57,0,0,1,.75-2.38,2.48,2.48,0,0,1,2-.9,1.93,1.93,0,0,1,1.8,1h0V75h1Zm-1-2.71V80.3a1.73,1.73,0,0,0-.48-1.23,1.64,1.64,0,0,0-1.22-.5,1.66,1.66,0,0,0-1.38.64,2.82,2.82,0,0,0-.5,1.79,2.53,2.53,0,0,0,.48,1.63,1.57,1.57,0,0,0,1.3.6,1.63,1.63,0,0,0,1.3-.58A2.16,2.16,0,0,0,305.68,81.19Z" fill="#1e1e1e"/>
      <path d="M313.41,81.14h-4.24a2.28,2.28,0,0,0,.54,1.55,1.88,1.88,0,0,0,1.42.54,2.94,2.94,0,0,0,1.86-.66v.9a3.47,3.47,0,0,1-2.09.57,2.53,2.53,0,0,1-2-.82,3.35,3.35,0,0,1-.72-2.3,3.28,3.28,0,0,1,.79-2.28,2.54,2.54,0,0,1,2-.88,2.26,2.26,0,0,1,1.83.76,3.19,3.19,0,0,1,.64,2.12Zm-1-.81A2,2,0,0,0,312,79a1.35,1.35,0,0,0-1.09-.46,1.54,1.54,0,0,0-1.16.49,2.18,2.18,0,0,0-.58,1.27Z" fill="#1e1e1e"/>
      <path d="M319.84,83.9h-1V80.48c0-1.27-.46-1.91-1.39-1.91a1.5,1.5,0,0,0-1.19.54,2,2,0,0,0-.48,1.37V83.9h-1v-6h1v1h0a2.16,2.16,0,0,1,2-1.14,1.82,1.82,0,0,1,1.5.64,2.79,2.79,0,0,1,.52,1.83Z" fill="#1e1e1e"/>
      <path d="M324.44,83.84a1.82,1.82,0,0,1-.9.19c-1.05,0-1.58-.59-1.58-1.76V78.72h-1V77.9h1V76.44l1-.31V77.9h1.51v.82h-1.51V82.1a1.38,1.38,0,0,0,.2.86.8.8,0,0,0,.68.26,1,1,0,0,0,.63-.2Z" fill="#1e1e1e"/>
      <path d="M326.21,76.38a.6.6,0,0,1-.44-.18.59.59,0,0,1-.18-.44.61.61,0,0,1,.18-.45.6.6,0,0,1,.44-.18.61.61,0,0,1,.45.18.62.62,0,0,1,0,.89A.61.61,0,0,1,326.21,76.38Zm.47,7.52h-1v-6h1Z" fill="#1e1e1e"/>
      <path d="M332.92,83.9h-1V83h0A2,2,0,0,1,330.09,84a2,2,0,0,1-1.4-.47,1.65,1.65,0,0,1-.51-1.26c0-1.12.66-1.78,2-2l1.8-.25c0-1-.41-1.53-1.24-1.53a3,3,0,0,0-2,.74v-1a3.76,3.76,0,0,1,2-.56c1.41,0,2.11.75,2.11,2.24Zm-1-3-1.45.2a2.25,2.25,0,0,0-1,.33,1.1,1.1,0,0,0,0,1.56,1.24,1.24,0,0,0,.83.27,1.55,1.55,0,0,0,1.19-.5,1.77,1.77,0,0,0,.46-1.27Z" fill="#1e1e1e"/>
      <path d="M335.69,83.9h-1V75h1Z" fill="#1e1e1e"/>
      <path d="M337.28,83.68v-1a2.81,2.81,0,0,0,1.72.58c.85,0,1.27-.28,1.27-.84a.76.76,0,0,0-.11-.41,1,1,0,0,0-.29-.29,1.66,1.66,0,0,0-.44-.23l-.53-.22a5.16,5.16,0,0,1-.7-.32,2.55,2.55,0,0,1-.51-.36,1.52,1.52,0,0,1-.3-.46,1.57,1.57,0,0,1-.1-.6,1.39,1.39,0,0,1,.19-.75,1.7,1.7,0,0,1,.52-.55,2.71,2.71,0,0,1,.73-.33A3.59,3.59,0,0,1,341,78v1a2.7,2.7,0,0,0-1.52-.43,1.83,1.83,0,0,0-.49.06,1.15,1.15,0,0,0-.37.17.76.76,0,0,0-.24.27.67.67,0,0,0-.09.34.82.82,0,0,0,.09.4.92.92,0,0,0,.25.28,2,2,0,0,0,.39.22l.54.22a6.85,6.85,0,0,1,.71.31,2.82,2.82,0,0,1,.54.36,1.41,1.41,0,0,1,.34.47,1.48,1.48,0,0,1,.12.63,1.49,1.49,0,0,1-.19.77,1.61,1.61,0,0,1-.53.54,2.32,2.32,0,0,1-.75.33,3.82,3.82,0,0,1-.9.1A3.34,3.34,0,0,1,337.28,83.68Z" fill="#1e1e1e"/>
    </g>
    <g>
      <path d="M228.73,132.6h-2.42v7.51h-1V132.6H222.9v-.89h5.83Z" fill="#1e1e1e"/>
      <path d="M231.26,140.26a2.77,2.77,0,0,1-2.13-.85,3.14,3.14,0,0,1-.79-2.22,3.27,3.27,0,0,1,.83-2.37,3,3,0,0,1,2.23-.85,2.69,2.69,0,0,1,2.09.83,3.75,3.75,0,0,1-.05,4.59A2.85,2.85,0,0,1,231.26,140.26Zm.07-5.48a1.84,1.84,0,0,0-1.47.63,2.59,2.59,0,0,0-.53,1.74,2.46,2.46,0,0,0,.54,1.68,1.85,1.85,0,0,0,1.46.62,1.73,1.73,0,0,0,1.43-.61,2.57,2.57,0,0,0,.5-1.71,2.65,2.65,0,0,0-.5-1.74A1.76,1.76,0,0,0,231.33,134.78Z" fill="#1e1e1e"/>
      <path d="M240.76,140.11h-1.34l-2.65-2.88h0v2.88h-1v-8.88h1v5.63h0l2.52-2.75h1.26l-2.79,2.9Z" fill="#1e1e1e"/>
      <path d="M246.57,137.35h-4.24a2.28,2.28,0,0,0,.54,1.55,1.85,1.85,0,0,0,1.42.55,3,3,0,0,0,1.86-.67v.9a3.48,3.48,0,0,1-2.09.58,2.56,2.56,0,0,1-2-.82,3.37,3.37,0,0,1-.72-2.3,3.25,3.25,0,0,1,.79-2.28,2.55,2.55,0,0,1,2-.89,2.23,2.23,0,0,1,1.82.77,3.15,3.15,0,0,1,.65,2.11Zm-1-.81a1.88,1.88,0,0,0-.4-1.29,1.36,1.36,0,0,0-1.1-.47,1.54,1.54,0,0,0-1.15.49,2.22,2.22,0,0,0-.59,1.27Z" fill="#1e1e1e"/>
      <path d="M253,140.11h-1v-3.42c0-1.27-.46-1.91-1.39-1.91a1.5,1.5,0,0,0-1.19.54,2,2,0,0,0-.48,1.37v3.42h-1v-6h1v1h0a2.16,2.16,0,0,1,2-1.14,1.85,1.85,0,0,1,1.5.64,2.82,2.82,0,0,1,.52,1.84Z" fill="#1e1e1e"/>
    </g>
    <g>
      <path d="M236.83,159.89h-1.45v-.7h2.31v4.19h1.46v.71h-3.93v-.71h1.61Zm.3-2.76a.75.75,0,0,1,.26.05.62.62,0,0,1,.21.15.8.8,0,0,1,.15.21.7.7,0,0,1,0,.52.8.8,0,0,1-.15.21.62.62,0,0,1-.21.15.75.75,0,0,1-.26.05.81.81,0,0,1-.27-.05.62.62,0,0,1-.21-.15.6.6,0,0,1-.14-.21.7.7,0,0,1,0-.52.6.6,0,0,1,.14-.21.62.62,0,0,1,.21-.15A.81.81,0,0,1,237.13,157.13Z" fill="#3b3b3b"/>
      <path d="M244.38,162.75a1.19,1.19,0,0,1-.09.47,1.41,1.41,0,0,1-.24.36,1.31,1.31,0,0,1-.35.27,2.8,2.8,0,0,1-.43.19,3.78,3.78,0,0,1-.46.1,2.56,2.56,0,0,1-.47,0,8.51,8.51,0,0,1-.92-.05,5.62,5.62,0,0,1-.82-.14v-.78c.29.08.57.14.86.19a5.93,5.93,0,0,0,.84.06,1.93,1.93,0,0,0,.91-.17.53.53,0,0,0,.29-.47.6.6,0,0,0-.05-.24.5.5,0,0,0-.17-.2,1.38,1.38,0,0,0-.37-.19l-.7-.24a4.48,4.48,0,0,1-.62-.22,1.78,1.78,0,0,1-.48-.3,1.16,1.16,0,0,1-.33-.4,1.27,1.27,0,0,1-.11-.54,1.29,1.29,0,0,1,.09-.45,1.24,1.24,0,0,1,.33-.45,1.74,1.74,0,0,1,.62-.35,3,3,0,0,1,1-.14l.64,0a7,7,0,0,1,.74.11V160a6,6,0,0,0-.76-.15,5.06,5.06,0,0,0-.63,0,2,2,0,0,0-.53.05,1,1,0,0,0-.35.13.55.55,0,0,0-.2.2.7.7,0,0,0-.05.25.52.52,0,0,0,.05.24.51.51,0,0,0,.19.2,1.4,1.4,0,0,0,.39.2,6,6,0,0,0,.65.22,5,5,0,0,1,.73.27,1.59,1.59,0,0,1,.48.31,1,1,0,0,1,.27.38A1.53,1.53,0,0,1,244.38,162.75Z" fill="#3b3b3b"/>
      <path d="M249.64,162.75a1.19,1.19,0,0,1-.09.47,1.41,1.41,0,0,1-.24.36,1.31,1.31,0,0,1-.35.27,3.3,3.3,0,0,1-.43.19,3.56,3.56,0,0,1-.47.1,2.38,2.38,0,0,1-.46,0,8.51,8.51,0,0,1-.92-.05,5.62,5.62,0,0,1-.82-.14v-.78c.29.08.57.14.86.19a5.93,5.93,0,0,0,.84.06,1.86,1.86,0,0,0,.9-.17.52.52,0,0,0,.3-.47.51.51,0,0,0-.22-.44,1.56,1.56,0,0,0-.37-.19c-.18-.07-.41-.15-.71-.24a4.84,4.84,0,0,1-.61-.22,1.63,1.63,0,0,1-.48-.3,1.16,1.16,0,0,1-.33-.4,1.13,1.13,0,0,1-.11-.54A1.29,1.29,0,0,1,246,160a1.14,1.14,0,0,1,.33-.45,1.74,1.74,0,0,1,.62-.35,3,3,0,0,1,1-.14l.64,0a6.45,6.45,0,0,1,.73.11V160a5.85,5.85,0,0,0-.75-.15,5.06,5.06,0,0,0-.63,0,2,2,0,0,0-.53.05,1,1,0,0,0-.35.13.5.5,0,0,0-.26.45.53.53,0,0,0,.06.24.45.45,0,0,0,.19.2,1.48,1.48,0,0,0,.38.2c.17.07.39.14.65.22a5.12,5.12,0,0,1,.74.27,1.73,1.73,0,0,1,.48.31,1.1,1.1,0,0,1,.27.38A1.53,1.53,0,0,1,249.64,162.75Z" fill="#3b3b3b"/>
      <path d="M252.34,159.1a.68.68,0,0,1,.29.06,1,1,0,0,1,.24.16.81.81,0,0,1,.17.24.72.72,0,0,1,.06.29.68.68,0,0,1-.06.29.81.81,0,0,1-.17.24.78.78,0,0,1-.24.16.68.68,0,0,1-.29.06.72.72,0,0,1-.29-.06.73.73,0,0,1-.23-.16.78.78,0,0,1-.16-.24.68.68,0,0,1-.06-.29.72.72,0,0,1,.06-.29.78.78,0,0,1,.16-.24.94.94,0,0,1,.23-.16A.72.72,0,0,1,252.34,159.1Zm0,3.58a.68.68,0,0,1,.29.06.78.78,0,0,1,.24.16.81.81,0,0,1,.17.24.73.73,0,0,1,0,.58.81.81,0,0,1-.17.24.78.78,0,0,1-.24.16.68.68,0,0,1-.29.06.72.72,0,0,1-.29-.06.73.73,0,0,1-.23-.16.78.78,0,0,1-.16-.24.73.73,0,0,1,0-.58.78.78,0,0,1,.16-.24.73.73,0,0,1,.23-.16A.72.72,0,0,1,252.34,162.68Z" fill="#3b3b3b"/>
      <path d="M265.27,163.63l-.53.54-3.28-2.74,3.28-2.74.53.54-2.66,2.19Z" fill="#3b3b3b"/>
      <path d="M271.61,164.09h-.94l-.45-1.39h-2.65l-.45,1.39h-.91l2.12-6.38h1.19ZM270,161.92l-1.08-3.41-1.08,3.41Z" fill="#3b3b3b"/>
      <path d="M276.35,164.09h-.76l0-.79a4.14,4.14,0,0,1-.42.42,2.28,2.28,0,0,1-.39.27,1.49,1.49,0,0,1-.4.15,2.71,2.71,0,0,1-.41,0,1.43,1.43,0,0,1-1.15-.45,2,2,0,0,1-.38-1.34v-3.2h.85v3.13c0,.75.28,1.13.85,1.13a1,1,0,0,0,.3,0,.92.92,0,0,0,.31-.16,2.31,2.31,0,0,0,.36-.31c.12-.13.26-.29.42-.49v-3.25h.85Z" fill="#3b3b3b"/>
      <path d="M282,164a5.78,5.78,0,0,1-.6.11c-.2,0-.41,0-.62,0a2,2,0,0,1-1.38-.42,1.68,1.68,0,0,1-.45-1.28V159.9h-1.38v-.71h1.38v-1.35l.84-.22v1.57H282v.71h-2.21v2.49a1,1,0,0,0,.29.79,1.17,1.17,0,0,0,.82.26,3.28,3.28,0,0,0,.52,0,4.86,4.86,0,0,0,.58-.11Z" fill="#3b3b3b"/>
      <path d="M287.31,164.09h-.85V161a1.42,1.42,0,0,0-.21-.85.73.73,0,0,0-.61-.28,1.13,1.13,0,0,0-.32,0,1,1,0,0,0-.31.16,3,3,0,0,0-.35.31c-.13.13-.27.29-.44.49v3.25h-.85v-6.9h.85v2l0,.77a3.76,3.76,0,0,1,.39-.4,2.28,2.28,0,0,1,.39-.27,1.56,1.56,0,0,1,.39-.15,1.93,1.93,0,0,1,.42,0,1.43,1.43,0,0,1,1.13.45,1.92,1.92,0,0,1,.4,1.34Z" fill="#3b3b3b"/>
      <path d="M293.25,161.6a3.21,3.21,0,0,1-.16,1.05,2.38,2.38,0,0,1-.46.81,2.09,2.09,0,0,1-.74.53,2.57,2.57,0,0,1-1,.19A2.54,2.54,0,0,1,290,164a1.94,1.94,0,0,1-.71-.48,2.12,2.12,0,0,1-.44-.78,3.31,3.31,0,0,1-.16-1.08,3.39,3.39,0,0,1,.16-1,2.45,2.45,0,0,1,.47-.82,2.07,2.07,0,0,1,.74-.52,2.35,2.35,0,0,1,1-.19,2.59,2.59,0,0,1,.95.16,1.94,1.94,0,0,1,.71.48,2.12,2.12,0,0,1,.44.78A3.61,3.61,0,0,1,293.25,161.6Zm-.87,0a2.78,2.78,0,0,0-.1-.8,1.55,1.55,0,0,0-.28-.56,1.22,1.22,0,0,0-.45-.34,1.46,1.46,0,0,0-.6-.12,1.33,1.33,0,0,0-.65.15,1.21,1.21,0,0,0-.44.4,1.71,1.71,0,0,0-.26.58,3.1,3.1,0,0,0-.08.69,3,3,0,0,0,.1.79,1.53,1.53,0,0,0,.29.57,1.08,1.08,0,0,0,.45.34,1.38,1.38,0,0,0,.59.12,1.3,1.3,0,0,0,.65-.15,1.24,1.24,0,0,0,.45-.4,1.53,1.53,0,0,0,.25-.58A2.61,2.61,0,0,0,292.38,161.64Z" fill="#3b3b3b"/>
      <path d="M294.71,159.19h.78l0,.9a3.09,3.09,0,0,1,.86-.76,1.78,1.78,0,0,1,.85-.23,1.37,1.37,0,0,1,1.15.49,2.17,2.17,0,0,1,.37,1.47h-.86a1.59,1.59,0,0,0-.19-.94.69.69,0,0,0-.59-.29,1.07,1.07,0,0,0-.35.06,1.41,1.41,0,0,0-.35.2,2.37,2.37,0,0,0-.39.34,4.77,4.77,0,0,0-.44.51v3.15h-.86Z" fill="#3b3b3b"/>
      <path d="M301.52,159.89h-1.45v-.7h2.31v4.19h1.46v.71h-3.93v-.71h1.61Zm.3-2.76a.75.75,0,0,1,.26.05.62.62,0,0,1,.21.15.8.8,0,0,1,.15.21.7.7,0,0,1,0,.52.8.8,0,0,1-.15.21.62.62,0,0,1-.21.15.75.75,0,0,1-.26.05.76.76,0,0,1-.27-.05.62.62,0,0,1-.21-.15.6.6,0,0,1-.14-.21.7.7,0,0,1,0-.52.6.6,0,0,1,.14-.21.62.62,0,0,1,.21-.15A.76.76,0,0,1,301.82,157.13Z" fill="#3b3b3b"/>
      <path d="M308.71,164a5.59,5.59,0,0,1-.59.11q-.31,0-.63,0a2,2,0,0,1-1.38-.42,1.68,1.68,0,0,1-.45-1.28V159.9h-1.37v-.71h1.37v-1.35l.85-.22v1.57h2.2v.71h-2.2v2.49a1,1,0,0,0,.28.79,1.2,1.2,0,0,0,.83.26,3.25,3.25,0,0,0,.51,0,4.21,4.21,0,0,0,.58-.11Z" fill="#3b3b3b"/>
      <path d="M314.71,159.19,313,163.57a7.32,7.32,0,0,1-.54,1.15,3.22,3.22,0,0,1-.6.8,2.12,2.12,0,0,1-.72.45,2.41,2.41,0,0,1-.87.15h-.23l-.22,0v-.77l.23,0h.27a1.31,1.31,0,0,0,.44-.07,1.34,1.34,0,0,0,.38-.22,2,2,0,0,0,.35-.4,4.48,4.48,0,0,0,.32-.59l-2-4.9h1l1.24,3.24.25.76.28-.78,1.15-3.22Z" fill="#3b3b3b"/>
      <path d="M316,159.23l.52-.54,3.28,2.74-3.28,2.74-.52-.54,2.66-2.19Z" fill="#3b3b3b"/>
      <path d="M238.31,176.09l0-.66a2.87,2.87,0,0,1-.81.57,2.29,2.29,0,0,1-1.59.07,1.27,1.27,0,0,1-.49-.3,1.07,1.07,0,0,1-.28-.44,1.63,1.63,0,0,1-.09-.55,1.34,1.34,0,0,1,.55-1.15,2.63,2.63,0,0,1,1.62-.42h1v-.43a1,1,0,0,0-.28-.7,1.23,1.23,0,0,0-.85-.26,3.75,3.75,0,0,0-.82.09,5.72,5.72,0,0,0-.83.27v-.77l.36-.11.41-.1a3.4,3.4,0,0,1,.46-.07,3.91,3.91,0,0,1,.49,0,2.87,2.87,0,0,1,.8.1,1.53,1.53,0,0,1,.6.29,1.37,1.37,0,0,1,.38.51,1.73,1.73,0,0,1,.13.71v3.38Zm-.09-2.23h-1.08a2.2,2.2,0,0,0-.55.06,1,1,0,0,0-.38.18.71.71,0,0,0-.21.28.87.87,0,0,0-.07.37.77.77,0,0,0,0,.27.59.59,0,0,0,.14.23.68.68,0,0,0,.26.16,1,1,0,0,0,.38.06,1.6,1.6,0,0,0,.67-.18,3.56,3.56,0,0,0,.8-.56Z" fill="#3b3b3b"/>
      <path d="M244.64,176.09h-.77l0-.79a3.3,3.3,0,0,1-.41.42,2.82,2.82,0,0,1-.4.27,1.56,1.56,0,0,1-.39.15,2.72,2.72,0,0,1-.42,0,1.43,1.43,0,0,1-1.14-.45,2,2,0,0,1-.38-1.34v-3.2h.84v3.13c0,.75.29,1.13.85,1.13a1.06,1.06,0,0,0,.31,0,1,1,0,0,0,.31-.16,1.9,1.9,0,0,0,.35-.31,6,6,0,0,0,.43-.49v-3.25h.85Z" fill="#3b3b3b"/>
      <path d="M246,173.74a3.41,3.41,0,0,1,.17-1.11,2.39,2.39,0,0,1,.49-.82,2.12,2.12,0,0,1,.76-.51,2.76,2.76,0,0,1,1-.17,3.44,3.44,0,0,1,.46,0l.45.09v-2.06h.85v6.9h-.76l0-.93a2.45,2.45,0,0,1-.77.77,1.74,1.74,0,0,1-.9.25A1.5,1.5,0,0,1,247,176a1.55,1.55,0,0,1-.53-.49,2.44,2.44,0,0,1-.32-.77A4.37,4.37,0,0,1,246,173.74Zm.87-.05a2.67,2.67,0,0,0,.26,1.32.83.83,0,0,0,.74.44,1.14,1.14,0,0,0,.69-.29,4.41,4.41,0,0,0,.75-.85V172a3.1,3.1,0,0,0-.46-.15,2.94,2.94,0,0,0-.51,0,1.35,1.35,0,0,0-1.08.45A2.12,2.12,0,0,0,246.91,173.69Z" fill="#3b3b3b"/>
      <path d="M253,171.1a.68.68,0,0,1,.29.06,1,1,0,0,1,.24.16.81.81,0,0,1,.17.24.72.72,0,0,1,.06.29.68.68,0,0,1-.06.29.81.81,0,0,1-.17.24.78.78,0,0,1-.24.16.68.68,0,0,1-.29.06.72.72,0,0,1-.29-.06.73.73,0,0,1-.23-.16.78.78,0,0,1-.16-.24.68.68,0,0,1-.06-.29.72.72,0,0,1,.06-.29.78.78,0,0,1,.16-.24.94.94,0,0,1,.23-.16A.72.72,0,0,1,253,171.1Zm0,3.58a.68.68,0,0,1,.29.06.78.78,0,0,1,.24.16.81.81,0,0,1,.17.24.73.73,0,0,1,0,.58.81.81,0,0,1-.17.24.78.78,0,0,1-.24.16.68.68,0,0,1-.29.06.72.72,0,0,1-.29-.06.73.73,0,0,1-.23-.16.78.78,0,0,1-.16-.24.73.73,0,0,1,0-.58.78.78,0,0,1,.16-.24.73.73,0,0,1,.23-.16A.72.72,0,0,1,253,174.68Z" fill="#3b3b3b"/>
      <path d="M265.94,175.63l-.53.54-3.28-2.74,3.28-2.74.53.54-2.66,2.19Z" fill="#3b3b3b"/>
      <path d="M272.28,176.09h-.94l-.45-1.39h-2.65l-.45,1.39h-.91l2.12-6.38h1.19Zm-1.64-2.17-1.08-3.41-1.08,3.41Z" fill="#3b3b3b"/>
      <path d="M277.19,176.09h-3.95v-.61L276,171.9h-2.7v-.71H277v.66l-2.72,3.52h2.88Z" fill="#3b3b3b"/>
      <path d="M282.49,176.09h-.76l0-.79a4.14,4.14,0,0,1-.42.42,2.28,2.28,0,0,1-.39.27,1.56,1.56,0,0,1-.39.15,2.72,2.72,0,0,1-.42,0,1.4,1.4,0,0,1-1.14-.45,2,2,0,0,1-.39-1.34v-3.2h.85v3.13c0,.75.28,1.13.85,1.13a1,1,0,0,0,.3,0,1.06,1.06,0,0,0,.32-.16,2.29,2.29,0,0,0,.35-.31,6.06,6.06,0,0,0,.42-.49v-3.25h.85Z" fill="#3b3b3b"/>
      <path d="M284.23,171.19H285l0,.9a3.21,3.21,0,0,1,.85-.76,1.85,1.85,0,0,1,.86-.23,1.37,1.37,0,0,1,1.15.49,2.23,2.23,0,0,1,.37,1.47h-.86a1.67,1.67,0,0,0-.19-.94.69.69,0,0,0-.59-.29,1.07,1.07,0,0,0-.35.06,1.66,1.66,0,0,0-.36.2,2.83,2.83,0,0,0-.38.34,4.77,4.77,0,0,0-.44.51v3.15h-.86Z" fill="#3b3b3b"/>
      <path d="M293.76,173.38c0,.12,0,.22,0,.3s0,.16,0,.23h-3.45a1.54,1.54,0,0,0,.42,1.16,1.73,1.73,0,0,0,1.21.4l.43,0,.42,0,.38-.07a2.44,2.44,0,0,0,.34-.08v.7a6.26,6.26,0,0,1-1.69.22,3.14,3.14,0,0,1-1.08-.17,2,2,0,0,1-.75-.5,2.19,2.19,0,0,1-.43-.8,3.85,3.85,0,0,1-.13-1.06,3.46,3.46,0,0,1,.14-1,2.44,2.44,0,0,1,.44-.81,2.14,2.14,0,0,1,.7-.56,2.2,2.2,0,0,1,.94-.2,2.35,2.35,0,0,1,.91.16,1.86,1.86,0,0,1,.67.46,2,2,0,0,1,.41.71A3.16,3.16,0,0,1,293.76,173.38Zm-.89-.12a1.91,1.91,0,0,0-.06-.6,1.23,1.23,0,0,0-.24-.47,1.12,1.12,0,0,0-.41-.3,1.26,1.26,0,0,0-.57-.11,1.12,1.12,0,0,0-.51.11,1.14,1.14,0,0,0-.39.3,1.53,1.53,0,0,0-.27.47,2.2,2.2,0,0,0-.13.6Z" fill="#3b3b3b"/>
      <path d="M301,171.19h.78l0,.9a3.24,3.24,0,0,1,.86-.76,1.81,1.81,0,0,1,.85-.23,1.4,1.4,0,0,1,1.16.49,2.23,2.23,0,0,1,.36,1.47h-.86a1.59,1.59,0,0,0-.19-.94.67.67,0,0,0-.59-.29,1,1,0,0,0-.34.06,1.3,1.3,0,0,0-.36.2,3.62,3.62,0,0,0-.39.34,6.27,6.27,0,0,0-.44.51v3.15H301Z" fill="#3b3b3b"/>
      <path d="M310.54,173.38v.3c0,.08,0,.16,0,.23h-3.44a1.54,1.54,0,0,0,.42,1.16,1.71,1.71,0,0,0,1.21.4l.43,0,.41,0,.39-.07.34-.08v.7a7.33,7.33,0,0,1-.79.16,6.58,6.58,0,0,1-.9.06,3.24,3.24,0,0,1-1.09-.17,1.87,1.87,0,0,1-.74-.5,1.93,1.93,0,0,1-.43-.8,3.83,3.83,0,0,1-.14-1.06,3.14,3.14,0,0,1,.15-1,2.42,2.42,0,0,1,.43-.81,2.25,2.25,0,0,1,.7-.56,2.21,2.21,0,0,1,.95-.2,2.29,2.29,0,0,1,.9.16,1.78,1.78,0,0,1,.67.46,1.84,1.84,0,0,1,.41.71A3.16,3.16,0,0,1,310.54,173.38Zm-.88-.12a1.9,1.9,0,0,0-.07-.6,1.23,1.23,0,0,0-.24-.47,1,1,0,0,0-.41-.3,1.25,1.25,0,0,0-.56-.11,1.06,1.06,0,0,0-.51.11,1.17,1.17,0,0,0-.4.3,1.33,1.33,0,0,0-.26.47,1.88,1.88,0,0,0-.13.6Z" fill="#3b3b3b"/>
      <path d="M315.63,174.75a1.19,1.19,0,0,1-.09.47,1.16,1.16,0,0,1-.23.36,1.22,1.22,0,0,1-.36.27,2.68,2.68,0,0,1-.42.19,3.56,3.56,0,0,1-.47.1,2.49,2.49,0,0,1-.47,0,8.31,8.31,0,0,1-.91-.05,5.62,5.62,0,0,1-.82-.14v-.78a8.64,8.64,0,0,0,.85.19,6.18,6.18,0,0,0,.85.06,1.89,1.89,0,0,0,.9-.17.51.51,0,0,0,.29-.47.47.47,0,0,0-.21-.44,1.47,1.47,0,0,0-.38-.19c-.17-.07-.4-.15-.7-.24a4.33,4.33,0,0,1-.61-.22,1.84,1.84,0,0,1-.49-.3,1.18,1.18,0,0,1-.44-.94,1.12,1.12,0,0,1,.1-.45,1.21,1.21,0,0,1,.32-.45,1.83,1.83,0,0,1,.62-.35,3,3,0,0,1,1-.14l.64,0a6.81,6.81,0,0,1,.73.11V172a6,6,0,0,0-.76-.15,5,5,0,0,0-.62,0,2.16,2.16,0,0,0-.54.05,1,1,0,0,0-.35.13.52.52,0,0,0-.19.2.54.54,0,0,0-.06.25.69.69,0,0,0,0,.24.59.59,0,0,0,.19.2,1.56,1.56,0,0,0,.39.2c.17.07.38.14.65.22a5,5,0,0,1,.73.27,1.79,1.79,0,0,1,.49.31,1,1,0,0,1,.26.38A1.29,1.29,0,0,1,315.63,174.75Z" fill="#3b3b3b"/>
      <path d="M321.48,173.6a3.21,3.21,0,0,1-.16,1.05,2.38,2.38,0,0,1-.46.81,2.18,2.18,0,0,1-.74.53,2.57,2.57,0,0,1-1,.19,2.5,2.5,0,0,1-.94-.17,1.86,1.86,0,0,1-.71-.48,2.12,2.12,0,0,1-.44-.78,3.31,3.31,0,0,1-.16-1.08,3.11,3.11,0,0,1,.16-1,2.29,2.29,0,0,1,.47-.82,2,2,0,0,1,.73-.52,2.4,2.4,0,0,1,1-.19,2.5,2.5,0,0,1,.94.16,1.86,1.86,0,0,1,.71.48,2.13,2.13,0,0,1,.45.78A3.61,3.61,0,0,1,321.48,173.6Zm-.87,0a2.78,2.78,0,0,0-.1-.8,1.73,1.73,0,0,0-.28-.56,1.18,1.18,0,0,0-.46-.34,1.38,1.38,0,0,0-.59-.12,1.28,1.28,0,0,0-1.1.55,1.7,1.7,0,0,0-.25.58,3.1,3.1,0,0,0-.08.69,2.66,2.66,0,0,0,.1.79,1.53,1.53,0,0,0,.29.57,1.12,1.12,0,0,0,.44.34,1.46,1.46,0,0,0,.6.12,1.28,1.28,0,0,0,1.1-.55,1.7,1.7,0,0,0,.25-.58A3.1,3.1,0,0,0,320.61,173.64Z" fill="#3b3b3b"/>
      <path d="M326.76,176.09H326l0-.79a4.14,4.14,0,0,1-.42.42,2.28,2.28,0,0,1-.39.27,1.49,1.49,0,0,1-.4.15,2.71,2.71,0,0,1-.41,0,1.43,1.43,0,0,1-1.15-.45,2,2,0,0,1-.38-1.34v-3.2h.85v3.13c0,.75.28,1.13.85,1.13a1,1,0,0,0,.3,0,.92.92,0,0,0,.31-.16,2.31,2.31,0,0,0,.36-.31c.12-.13.26-.29.42-.49v-3.25h.85Z" fill="#3b3b3b"/>
      <path d="M328.49,171.19h.78l0,.9a3.24,3.24,0,0,1,.86-.76,1.81,1.81,0,0,1,.85-.23,1.39,1.39,0,0,1,1.16.49,2.23,2.23,0,0,1,.36,1.47h-.86a1.68,1.68,0,0,0-.18-.94.7.7,0,0,0-.6-.29,1,1,0,0,0-.34.06,1.3,1.3,0,0,0-.36.2,3.62,3.62,0,0,0-.39.34c-.13.14-.28.31-.44.51v3.15h-.86Z" fill="#3b3b3b"/>
      <path d="M337.59,175.91a3.79,3.79,0,0,1-.68.19,4.2,4.2,0,0,1-.72.06,2.43,2.43,0,0,1-1.79-.63,2.5,2.5,0,0,1-.62-1.84,3,3,0,0,1,.18-1.06,2.57,2.57,0,0,1,.5-.81,2.27,2.27,0,0,1,.79-.52,2.66,2.66,0,0,1,1-.18,5.27,5.27,0,0,1,.71,0,3.26,3.26,0,0,1,.63.18v.81a2.62,2.62,0,0,0-.64-.24,3.08,3.08,0,0,0-.68-.08,1.44,1.44,0,0,0-.62.13,1.41,1.41,0,0,0-.51.35,1.76,1.76,0,0,0-.35.58,2.2,2.2,0,0,0-.13.76,1.84,1.84,0,0,0,.44,1.33,1.58,1.58,0,0,0,1.19.44,3,3,0,0,0,.68-.08,2.9,2.9,0,0,0,.62-.23Z" fill="#3b3b3b"/>
      <path d="M343.21,173.38a2.63,2.63,0,0,1,0,.3,1.69,1.69,0,0,1,0,.23h-3.44a1.54,1.54,0,0,0,.42,1.16,1.71,1.71,0,0,0,1.21.4l.43,0,.41,0,.39-.07.34-.08v.7a7.33,7.33,0,0,1-.79.16,6.58,6.58,0,0,1-.9.06,3.2,3.2,0,0,1-1.09-.17,1.87,1.87,0,0,1-.74-.5,1.93,1.93,0,0,1-.43-.8,3.49,3.49,0,0,1-.14-1.06,3.14,3.14,0,0,1,.15-1,2.42,2.42,0,0,1,.43-.81,2.25,2.25,0,0,1,.7-.56,2.2,2.2,0,0,1,.94-.2,2.31,2.31,0,0,1,.91.16,1.78,1.78,0,0,1,.67.46,1.84,1.84,0,0,1,.41.71A3.16,3.16,0,0,1,343.21,173.38Zm-.88-.12a2.25,2.25,0,0,0-.07-.6,1.23,1.23,0,0,0-.24-.47,1,1,0,0,0-.41-.3,1.25,1.25,0,0,0-.56-.11,1.06,1.06,0,0,0-.51.11,1.08,1.08,0,0,0-.4.3,1.53,1.53,0,0,0-.27.47,2.2,2.2,0,0,0-.12.6Z" fill="#3b3b3b"/>
      <path d="M354.74,176.09h-.85l-.13-4-.05-1.53-.3.89-.94,2.54h-.6l-.9-2.44-.3-1,0,1.6-.11,3.91h-.82l.31-6.38h1l.86,2.4.28.81.27-.81.9-2.4h1.06Z" fill="#3b3b3b"/>
      <path d="M359,176.09l0-.66a2.77,2.77,0,0,1-.82.57,2.11,2.11,0,0,1-.86.18,2.18,2.18,0,0,1-.72-.11,1.27,1.27,0,0,1-.49-.3,1.09,1.09,0,0,1-.29-.44,1.63,1.63,0,0,1-.09-.55,1.37,1.37,0,0,1,.55-1.15,2.67,2.67,0,0,1,1.63-.42h1v-.43a.91.91,0,0,0-.28-.7,1.2,1.2,0,0,0-.85-.26,3.66,3.66,0,0,0-.81.09,6.26,6.26,0,0,0-.84.27v-.77l.36-.11.42-.1a3.4,3.4,0,0,1,.46-.07l.48,0a2.78,2.78,0,0,1,.8.1,1.65,1.65,0,0,1,.61.29,1.48,1.48,0,0,1,.38.51,1.91,1.91,0,0,1,.13.71v3.38Zm-.1-2.23h-1.08a2.12,2.12,0,0,0-.54.06,1,1,0,0,0-.38.18.74.74,0,0,0-.22.28,1.06,1.06,0,0,0-.07.37.76.76,0,0,0,.05.27.49.49,0,0,0,.14.23.63.63,0,0,0,.25.16,1.08,1.08,0,0,0,.38.06,1.57,1.57,0,0,0,.67-.18,3.35,3.35,0,0,0,.8-.56Z" fill="#3b3b3b"/>
      <path d="M361.4,171.19h.76l0,.79a3.32,3.32,0,0,1,.42-.42,1.9,1.9,0,0,1,.39-.28,2,2,0,0,1,.39-.14,2,2,0,0,1,.42,0,1.43,1.43,0,0,1,1.14.45,2,2,0,0,1,.39,1.34v3.2h-.85V173a1.4,1.4,0,0,0-.21-.85.76.76,0,0,0-.64-.28,1.06,1.06,0,0,0-.31,0,1,1,0,0,0-.31.16,4.12,4.12,0,0,0-.35.31c-.12.13-.26.29-.42.49v3.25h-.85Z" fill="#3b3b3b"/>
      <path d="M370,176.09l0-.66a2.87,2.87,0,0,1-.81.57,2.29,2.29,0,0,1-1.59.07,1.27,1.27,0,0,1-.49-.3,1.07,1.07,0,0,1-.28-.44,1.63,1.63,0,0,1-.09-.55,1.34,1.34,0,0,1,.55-1.15,2.61,2.61,0,0,1,1.62-.42h1v-.43a1,1,0,0,0-.28-.7,1.23,1.23,0,0,0-.85-.26,3.75,3.75,0,0,0-.82.09,5.72,5.72,0,0,0-.83.27v-.77l.36-.11.41-.1a3.4,3.4,0,0,1,.46-.07,3.91,3.91,0,0,1,.49,0,2.87,2.87,0,0,1,.8.1,1.6,1.6,0,0,1,.6.29,1.37,1.37,0,0,1,.38.51,1.73,1.73,0,0,1,.13.71v3.38Zm-.09-2.23h-1.08a2.2,2.2,0,0,0-.55.06,1,1,0,0,0-.38.18.71.71,0,0,0-.21.28.87.87,0,0,0-.07.37.77.77,0,0,0,0,.27.59.59,0,0,0,.14.23.68.68,0,0,0,.26.16,1,1,0,0,0,.38.06,1.6,1.6,0,0,0,.67-.18,3.56,3.56,0,0,0,.8-.56Z" fill="#3b3b3b"/>
      <path d="M375.89,171.88a1.27,1.27,0,0,1,.21.4,1.53,1.53,0,0,1,.07.49,1.73,1.73,0,0,1-.13.69,1.65,1.65,0,0,1-.4.54,1.74,1.74,0,0,1-.61.35,2.38,2.38,0,0,1-1.35.06,1.62,1.62,0,0,1-.43-.16,2.43,2.43,0,0,0-.15.26.6.6,0,0,0-.07.27.37.37,0,0,0,.18.31.93.93,0,0,0,.47.13l1.29.05a3.5,3.5,0,0,1,.68.09,1.85,1.85,0,0,1,.53.24,1.09,1.09,0,0,1,.35.39,1.12,1.12,0,0,1,.12.53,1.34,1.34,0,0,1-.14.62,1.32,1.32,0,0,1-.44.51,2.18,2.18,0,0,1-.75.36,3.78,3.78,0,0,1-1.07.13,4.29,4.29,0,0,1-1-.1,2.06,2.06,0,0,1-.68-.26,1,1,0,0,1-.39-.4,1,1,0,0,1-.13-.51,1.13,1.13,0,0,1,.17-.62,1.78,1.78,0,0,1,.51-.52.86.86,0,0,1-.22-.15.9.9,0,0,1-.15-.19,1,1,0,0,1-.09-.22,1,1,0,0,1,0-.23,1.14,1.14,0,0,1,.15-.58,2.54,2.54,0,0,1,.36-.5l-.17-.22a1.67,1.67,0,0,1-.12-.23,2.76,2.76,0,0,1-.08-.27,1.72,1.72,0,0,1,0-.33,1.75,1.75,0,0,1,.13-.7,1.65,1.65,0,0,1,.4-.54,1.86,1.86,0,0,1,.6-.35,2.45,2.45,0,0,1,.78-.12l.35,0a1.77,1.77,0,0,1,.29.07h1.78v.69Zm-2.95,4.92a.52.52,0,0,0,.36.5,2.45,2.45,0,0,0,1,.16,2.63,2.63,0,0,0,.68-.07,1.6,1.6,0,0,0,.45-.19.78.78,0,0,0,.24-.28.7.7,0,0,0,.07-.31.47.47,0,0,0-.24-.44,1.66,1.66,0,0,0-.75-.17l-1.28,0a2,2,0,0,0-.26.21,1,1,0,0,0-.17.21.84.84,0,0,0-.08.2A.82.82,0,0,0,372.94,176.8Zm.26-4a1.21,1.21,0,0,0,.07.43,1.12,1.12,0,0,0,.22.33,1.08,1.08,0,0,0,.34.21,1.16,1.16,0,0,0,.42.08,1.14,1.14,0,0,0,.46-.09.86.86,0,0,0,.33-.23.9.9,0,0,0,.2-.34,1,1,0,0,0,.07-.39,1.18,1.18,0,0,0-.07-.43A1.12,1.12,0,0,0,375,172a1.11,1.11,0,0,0-.34-.22,1.18,1.18,0,0,0-.43-.07,1.13,1.13,0,0,0-.45.09,1,1,0,0,0-.33.23.86.86,0,0,0-.2.33A1.09,1.09,0,0,0,373.2,172.79Z" fill="#3b3b3b"/>
      <path d="M381.91,173.38c0,.12,0,.22,0,.3s0,.16,0,.23h-3.45a1.54,1.54,0,0,0,.42,1.16,1.73,1.73,0,0,0,1.21.4l.43,0,.42,0,.38-.07.34-.08v.7a6.26,6.26,0,0,1-1.69.22,3.14,3.14,0,0,1-1.08-.17,2,2,0,0,1-.75-.5,2.19,2.19,0,0,1-.43-.8,3.83,3.83,0,0,1-.14-1.06,3.14,3.14,0,0,1,.15-1,2.44,2.44,0,0,1,.44-.81,2.14,2.14,0,0,1,.7-.56,2.2,2.2,0,0,1,.94-.2,2.35,2.35,0,0,1,.91.16,2,2,0,0,1,.67.46,2,2,0,0,1,.41.71A3.16,3.16,0,0,1,381.91,173.38Zm-.89-.12a1.91,1.91,0,0,0-.06-.6,1.23,1.23,0,0,0-.24-.47,1.12,1.12,0,0,0-.41-.3,1.26,1.26,0,0,0-.57-.11,1.12,1.12,0,0,0-.51.11,1.14,1.14,0,0,0-.39.3,1.53,1.53,0,0,0-.27.47,2.2,2.2,0,0,0-.13.6Z" fill="#3b3b3b"/>
      <path d="M383.43,171.19h.78l0,.9a3.24,3.24,0,0,1,.86-.76,1.78,1.78,0,0,1,.85-.23,1.37,1.37,0,0,1,1.15.49,2.17,2.17,0,0,1,.37,1.47h-.86a1.59,1.59,0,0,0-.19-.94.67.67,0,0,0-.59-.29,1.07,1.07,0,0,0-.35.06,1.41,1.41,0,0,0-.35.2,3.62,3.62,0,0,0-.39.34,6.27,6.27,0,0,0-.44.51v3.15h-.86Z" fill="#3b3b3b"/>
      <path d="M399.09,176.09h-.94l-.45-1.39h-2.65l-.45,1.39h-.91l2.12-6.38H397Zm-1.64-2.17-1.08-3.41-1.08,3.41Z" fill="#3b3b3b"/>
      <path d="M404.23,173.55a3.25,3.25,0,0,1-.18,1.14,2.08,2.08,0,0,1-.51.81,2,2,0,0,1-.76.49,2.91,2.91,0,0,1-.95.16,3.71,3.71,0,0,1-.47,0,2.72,2.72,0,0,1-.47-.08v2.05H400v-6.9h.76l.05.82a2.25,2.25,0,0,1,.79-.71,2,2,0,0,1,.89-.2,1.42,1.42,0,0,1,1.27.67,2.36,2.36,0,0,1,.33.77A4.49,4.49,0,0,1,404.23,173.55Zm-.87,0a4,4,0,0,0-.05-.71,2,2,0,0,0-.18-.55,1.1,1.1,0,0,0-.31-.36.78.78,0,0,0-.46-.13,1.25,1.25,0,0,0-.32,0,1.6,1.6,0,0,0-.35.17,2.55,2.55,0,0,0-.37.32,4.41,4.41,0,0,0-.43.49v2.38a2.64,2.64,0,0,0,.5.15,2.2,2.2,0,0,0,.5.06A1.34,1.34,0,0,0,403,175,2.14,2.14,0,0,0,403.36,173.59Z" fill="#3b3b3b"/>
      <path d="M409.83,173.55a3.25,3.25,0,0,1-.18,1.14,2.08,2.08,0,0,1-.51.81,2,2,0,0,1-.76.49,2.91,2.91,0,0,1-.95.16,3.71,3.71,0,0,1-.47,0,2.72,2.72,0,0,1-.47-.08v2.05h-.85v-6.9h.76l.05.82a2.31,2.31,0,0,1,.78-.71,2.12,2.12,0,0,1,.9-.2,1.42,1.42,0,0,1,1.27.67,2.35,2.35,0,0,1,.32.77A4.46,4.46,0,0,1,409.83,173.55Zm-.87,0a5.16,5.16,0,0,0,0-.71,2,2,0,0,0-.18-.55,1.1,1.1,0,0,0-.31-.36.78.78,0,0,0-.46-.13,1.26,1.26,0,0,0-.33,0,1.54,1.54,0,0,0-.34.17,3.23,3.23,0,0,0-.38.32,5.8,5.8,0,0,0-.42.49v2.38a2.77,2.77,0,0,0,.49.15,2.35,2.35,0,0,0,.51.06,1.34,1.34,0,0,0,1.08-.47A2.14,2.14,0,0,0,409,173.59Z" fill="#3b3b3b"/>
      <path d="M418.37,170.44H416.9v-.73h3.81v.73h-1.46v4.91h1.46v.74H416.9v-.74h1.47Z" fill="#3b3b3b"/>
      <path d="M426.46,172.83a5.06,5.06,0,0,1-.07.88,3.2,3.2,0,0,1-.22.78,2.56,2.56,0,0,1-.41.65,2.33,2.33,0,0,1-.61.51,2.88,2.88,0,0,1-.84.32,4.49,4.49,0,0,1-1.09.12h-1.37v-6.38h1.65a2.92,2.92,0,0,1,2.23.77A3.28,3.28,0,0,1,426.46,172.83Zm-.91.06a4.29,4.29,0,0,0-.13-1.15A1.77,1.77,0,0,0,425,171a1.44,1.44,0,0,0-.65-.42,2.84,2.84,0,0,0-.92-.13h-.75v4.9h.65C424.83,175.34,425.55,174.52,425.55,172.89Z" fill="#3b3b3b"/>
      <path d="M437.49,173.87a2.83,2.83,0,0,1-.15.95,1.86,1.86,0,0,1-.44.73,1.9,1.9,0,0,1-.7.46,2.61,2.61,0,0,1-1,.17,2.71,2.71,0,0,1-1-.16,1.71,1.71,0,0,1-.68-.44,1.78,1.78,0,0,1-.38-.69,3,3,0,0,1-.12-.89v-4.29h.87v4.22a2.62,2.62,0,0,0,.07.66,1.22,1.22,0,0,0,.23.47,1,1,0,0,0,.42.29,1.67,1.67,0,0,0,.63.1,1.24,1.24,0,0,0,1-.4,1.73,1.73,0,0,0,.33-1.13v-4.21h.87Z" fill="#3b3b3b"/>
      <path d="M443.15,176.09h-1l-1-2a1.75,1.75,0,0,0-.22-.39.91.91,0,0,0-.24-.24.72.72,0,0,0-.28-.13,1.22,1.22,0,0,0-.34,0h-.42v2.84h-.86v-6.38h1.7a3.3,3.3,0,0,1,1,.12,1.72,1.72,0,0,1,.66.34,1.31,1.31,0,0,1,.37.53,1.92,1.92,0,0,1,.12.69,2,2,0,0,1-.08.56,1.42,1.42,0,0,1-.27.48,1.45,1.45,0,0,1-.43.38,1.77,1.77,0,0,1-.58.24,1,1,0,0,1,.45.32,3.34,3.34,0,0,1,.39.62Zm-1.39-4.63a.94.94,0,0,0-.32-.77,1.44,1.44,0,0,0-.9-.25h-.83v2.11h.71a1.88,1.88,0,0,0,.55-.07,1.18,1.18,0,0,0,.42-.21.89.89,0,0,0,.27-.34A1.16,1.16,0,0,0,441.76,171.46Z" fill="#3b3b3b"/>
      <path d="M445.68,170.44h-1.47v-.73H448v.73h-1.47v4.91H448v.74h-3.82v-.74h1.47Z" fill="#3b3b3b"/>
      <path d="M449.42,171.23l.53-.54,3.28,2.74L450,176.17l-.53-.54,2.66-2.19Z" fill="#3b3b3b"/>
      <path d="M236.83,183.89h-1.45v-.7h2.31v4.19h1.46v.71h-3.93v-.71h1.61Zm.3-2.76a.75.75,0,0,1,.26.05.62.62,0,0,1,.21.15.8.8,0,0,1,.15.21.7.7,0,0,1,0,.52.8.8,0,0,1-.15.21.62.62,0,0,1-.21.15.75.75,0,0,1-.26.05.81.81,0,0,1-.27-.05.62.62,0,0,1-.21-.15.6.6,0,0,1-.14-.21.7.7,0,0,1,0-.52.6.6,0,0,1,.14-.21.62.62,0,0,1,.21-.15A.81.81,0,0,1,237.13,181.13Z" fill="#3b3b3b"/>
      <path d="M243.74,188.09l0-.66a2.77,2.77,0,0,1-.82.57,2.11,2.11,0,0,1-.86.18,2.18,2.18,0,0,1-.72-.11,1.27,1.27,0,0,1-.49-.3,1.07,1.07,0,0,1-.28-.44,1.63,1.63,0,0,1-.09-.55,1.34,1.34,0,0,1,.55-1.15,2.61,2.61,0,0,1,1.62-.42h1v-.43a.94.94,0,0,0-.27-.7,1.23,1.23,0,0,0-.85-.26,3.75,3.75,0,0,0-.82.09,5.72,5.72,0,0,0-.83.27v-.77a2.42,2.42,0,0,1,.35-.11l.42-.1a3.4,3.4,0,0,1,.46-.07l.48,0a2.9,2.9,0,0,1,.81.1,1.68,1.68,0,0,1,.6.29,1.48,1.48,0,0,1,.38.51,1.73,1.73,0,0,1,.13.71v3.38Zm-.1-2.23h-1.07a2.15,2.15,0,0,0-.55.06,1,1,0,0,0-.38.18.63.63,0,0,0-.21.28.87.87,0,0,0-.08.37.76.76,0,0,0,.05.27.49.49,0,0,0,.14.23.72.72,0,0,0,.25.16,1.12,1.12,0,0,0,.38.06,1.64,1.64,0,0,0,.68-.18,3.52,3.52,0,0,0,.79-.56Z" fill="#3b3b3b"/>
      <path d="M250.07,188a5.33,5.33,0,0,1-.6.11c-.2,0-.41,0-.62,0a2,2,0,0,1-1.38-.42,1.68,1.68,0,0,1-.45-1.28V183.9h-1.38v-.71H247v-1.35l.85-.22v1.57h2.2v.71h-2.2v2.49a1,1,0,0,0,.28.79,1.17,1.17,0,0,0,.82.26,3.28,3.28,0,0,0,.52,0,4.51,4.51,0,0,0,.58-.11Z" fill="#3b3b3b"/>
      <path d="M252.77,183.1a.72.72,0,0,1,.29.06,1,1,0,0,1,.24.16.78.78,0,0,1,.16.24.72.72,0,0,1,.06.29.68.68,0,0,1-.06.29.74.74,0,0,1-.4.4.73.73,0,0,1-.58,0,.78.78,0,0,1-.24-.16,1,1,0,0,1-.16-.24.68.68,0,0,1-.06-.29.72.72,0,0,1,.06-.29.74.74,0,0,1,.4-.4A.72.72,0,0,1,252.77,183.1Zm0,3.58a.72.72,0,0,1,.29.06.74.74,0,0,1,.4.4.73.73,0,0,1,0,.58.74.74,0,0,1-.4.4.73.73,0,0,1-.58,0,.78.78,0,0,1-.24-.16,1,1,0,0,1-.16-.24.73.73,0,0,1,0-.58,1,1,0,0,1,.16-.24.78.78,0,0,1,.24-.16A.72.72,0,0,1,252.77,186.68Z" fill="#3b3b3b"/>
      <path d="M265.7,187.63l-.53.54-3.28-2.74,3.28-2.74.53.54L263,185.42Z" fill="#3b3b3b"/>
      <path d="M266.83,185.74a3.41,3.41,0,0,1,.17-1.11,2.39,2.39,0,0,1,.49-.82,2.17,2.17,0,0,1,.75-.51,2.86,2.86,0,0,1,1-.17,3.55,3.55,0,0,1,.46,0l.45.09v-2.06H271v6.9h-.76l0-.93a2.56,2.56,0,0,1-.77.77,1.79,1.79,0,0,1-.9.25,1.47,1.47,0,0,1-.74-.18,1.55,1.55,0,0,1-.53-.49,2.44,2.44,0,0,1-.32-.77A4.37,4.37,0,0,1,266.83,185.74Zm.87-.05A2.67,2.67,0,0,0,268,187a.83.83,0,0,0,.74.44,1.11,1.11,0,0,0,.68-.29,4.41,4.41,0,0,0,.76-.85V184a2.88,2.88,0,0,0-.47-.15,2.83,2.83,0,0,0-.5,0,1.35,1.35,0,0,0-1.08.45A2.12,2.12,0,0,0,267.7,185.69Z" fill="#3b3b3b"/>
      <path d="M275.68,188.09l0-.66a2.61,2.61,0,0,1-.81.57,2.12,2.12,0,0,1-.87.18,2.08,2.08,0,0,1-.71-.11,1.2,1.2,0,0,1-.49-.3,1.09,1.09,0,0,1-.29-.44,1.63,1.63,0,0,1-.09-.55,1.34,1.34,0,0,1,.55-1.15,2.65,2.65,0,0,1,1.62-.42h1v-.43a.91.91,0,0,0-.28-.7,1.22,1.22,0,0,0-.85-.26,3.81,3.81,0,0,0-.82.09,6.63,6.63,0,0,0-.83.27v-.77l.36-.11.42-.1a3.17,3.17,0,0,1,.46-.07l.48,0a2.83,2.83,0,0,1,.8.1,1.53,1.53,0,0,1,.6.29,1.37,1.37,0,0,1,.38.51,1.73,1.73,0,0,1,.13.71v3.38Zm-.09-2.23h-1.08a2.26,2.26,0,0,0-.55.06,1,1,0,0,0-.37.18.74.74,0,0,0-.22.28.87.87,0,0,0-.07.37.77.77,0,0,0,0,.27.51.51,0,0,0,.15.23.57.57,0,0,0,.25.16,1,1,0,0,0,.38.06,1.57,1.57,0,0,0,.67-.18,3.56,3.56,0,0,0,.8-.56Z" fill="#3b3b3b"/>
      <path d="M282,188a5.59,5.59,0,0,1-.59.11q-.32,0-.63,0a2,2,0,0,1-1.37-.42,1.64,1.64,0,0,1-.46-1.28V183.9h-1.37v-.71H279v-1.35l.85-.22v1.57H282v.71h-2.2v2.49a1.07,1.07,0,0,0,.28.79,1.21,1.21,0,0,0,.83.26,3.08,3.08,0,0,0,.51,0,4.21,4.21,0,0,0,.58-.11Z" fill="#3b3b3b"/>
      <path d="M287.54,185.38c0,.12,0,.22,0,.3s0,.16,0,.23h-3.45a1.54,1.54,0,0,0,.42,1.16,1.74,1.74,0,0,0,1.22.4l.42,0,.42,0,.38-.07a2.44,2.44,0,0,0,.34-.08v.7a6.26,6.26,0,0,1-1.69.22,3.14,3.14,0,0,1-1.08-.17,2,2,0,0,1-.75-.5,2,2,0,0,1-.42-.8,3.78,3.78,0,0,1,0-2,2.44,2.44,0,0,1,.44-.81,2.14,2.14,0,0,1,.7-.56,2.2,2.2,0,0,1,.94-.2,2.35,2.35,0,0,1,.91.16,1.86,1.86,0,0,1,.67.46,2,2,0,0,1,.41.71A3.16,3.16,0,0,1,287.54,185.38Zm-.89-.12a1.91,1.91,0,0,0-.06-.6,1.23,1.23,0,0,0-.24-.47,1.12,1.12,0,0,0-.41-.3,1.26,1.26,0,0,0-.57-.11,1,1,0,0,0-.5.11,1.08,1.08,0,0,0-.4.3,1.53,1.53,0,0,0-.27.47,2.2,2.2,0,0,0-.13.6Z" fill="#3b3b3b"/>
      <path d="M292.83,186.36a1.71,1.71,0,0,1-.18.8,1.88,1.88,0,0,1-.52.57,2.32,2.32,0,0,1-.8.33,4.1,4.1,0,0,1-1,.12l-.5,0-.48,0-.44-.07-.37-.08v-.84a4.45,4.45,0,0,0,.82.21,6.38,6.38,0,0,0,1,.08,2.88,2.88,0,0,0,.71-.07,1.29,1.29,0,0,0,.49-.19.83.83,0,0,0,.27-.32.93.93,0,0,0,.09-.42.67.67,0,0,0-.15-.44,1.39,1.39,0,0,0-.38-.33,2.91,2.91,0,0,0-.53-.26l-.61-.25c-.21-.08-.42-.18-.62-.28a2,2,0,0,1-.53-.35,1.57,1.57,0,0,1-.38-.47,1.35,1.35,0,0,1-.14-.65,1.64,1.64,0,0,1,.13-.65,1.53,1.53,0,0,1,.43-.56,2.09,2.09,0,0,1,.74-.4,3.41,3.41,0,0,1,1.07-.15h.35l.38.05a2.63,2.63,0,0,1,.39.06l.34.07v.78a6.69,6.69,0,0,0-.75-.16,4.59,4.59,0,0,0-.73-.06,1.87,1.87,0,0,0-1.09.25.78.78,0,0,0-.36.67.67.67,0,0,0,.15.44,1.27,1.27,0,0,0,.38.34,3.74,3.74,0,0,0,.53.26l.61.25c.21.08.42.18.62.28a2.25,2.25,0,0,1,.53.36,1.61,1.61,0,0,1,.38.48A1.39,1.39,0,0,1,292.83,186.36Z" fill="#3b3b3b"/>
      <path d="M297.89,188a5.59,5.59,0,0,1-.59.11q-.32,0-.63,0a2,2,0,0,1-1.37-.42,1.64,1.64,0,0,1-.46-1.28V183.9h-1.37v-.71h1.37v-1.35l.85-.22v1.57h2.2v.71h-2.2v2.49a1.07,1.07,0,0,0,.28.79,1.21,1.21,0,0,0,.83.26,3.08,3.08,0,0,0,.51,0,4.21,4.21,0,0,0,.58-.11Z" fill="#3b3b3b"/>
      <path d="M302.51,188.09l0-.66a2.87,2.87,0,0,1-.81.57,2.29,2.29,0,0,1-1.59.07,1.35,1.35,0,0,1-.49-.3,1.07,1.07,0,0,1-.28-.44,1.63,1.63,0,0,1-.09-.55,1.34,1.34,0,0,1,.55-1.15,2.63,2.63,0,0,1,1.62-.42h1v-.43a.91.91,0,0,0-.28-.7,1.23,1.23,0,0,0-.85-.26,3.75,3.75,0,0,0-.82.09,6.14,6.14,0,0,0-.83.27v-.77l.36-.11.42-.1a3.17,3.17,0,0,1,.46-.07,3.75,3.75,0,0,1,.48,0,2.87,2.87,0,0,1,.8.1,1.53,1.53,0,0,1,.6.29,1.37,1.37,0,0,1,.38.51,1.73,1.73,0,0,1,.13.71v3.38Zm-.09-2.23h-1.08a2.26,2.26,0,0,0-.55.06.91.91,0,0,0-.37.18.74.74,0,0,0-.22.28.87.87,0,0,0-.07.37.77.77,0,0,0,0,.27.59.59,0,0,0,.14.23.68.68,0,0,0,.26.16,1,1,0,0,0,.38.06,1.6,1.6,0,0,0,.67-.18,3.56,3.56,0,0,0,.8-.56Z" fill="#3b3b3b"/>
      <path d="M308.58,188.09v-3.52a2.12,2.12,0,0,0,0-.38.71.71,0,0,0-.05-.23.19.19,0,0,0-.09-.12.32.32,0,0,0-.14,0,.28.28,0,0,0-.18.06.55.55,0,0,0-.18.19,2.9,2.9,0,0,0-.21.35c-.08.14-.17.32-.27.53v3.15h-.78v-3.43c0-.18,0-.32,0-.43a1.12,1.12,0,0,0-.06-.26.22.22,0,0,0-.09-.13.32.32,0,0,0-.14,0,.26.26,0,0,0-.17.05.67.67,0,0,0-.17.17,2.41,2.41,0,0,0-.22.35c-.07.14-.17.33-.27.56v3.15h-.79v-4.9h.65l0,.93a4.85,4.85,0,0,1,.25-.47,1.42,1.42,0,0,1,.25-.32.65.65,0,0,1,.27-.17.79.79,0,0,1,.32-.06.74.74,0,0,1,.6.26,1.32,1.32,0,0,1,.2.8c.08-.17.16-.32.23-.45a1.88,1.88,0,0,1,.24-.33,1,1,0,0,1,.29-.21.8.8,0,0,1,.36-.07c.62,0,.92.47.92,1.42v3.57Z" fill="#3b3b3b"/>
      <path d="M315,185.55a3,3,0,0,1-.19,1.14,2.19,2.19,0,0,1-.5.81,2.11,2.11,0,0,1-.76.49,3,3,0,0,1-1,.16,3.55,3.55,0,0,1-.46,0,2.57,2.57,0,0,1-.47-.08v2.05h-.85v-6.9h.75l.06.82a2.14,2.14,0,0,1,.78-.71,2,2,0,0,1,.9-.2,1.54,1.54,0,0,1,.73.17,1.61,1.61,0,0,1,.54.5,2.35,2.35,0,0,1,.32.77A4.46,4.46,0,0,1,315,185.55Zm-.87,0a3.92,3.92,0,0,0-.06-.71,2,2,0,0,0-.18-.55,1,1,0,0,0-.31-.36.77.77,0,0,0-.45-.13,1.26,1.26,0,0,0-.33,0,1.6,1.6,0,0,0-.35.17,3.21,3.21,0,0,0-.37.32,5.8,5.8,0,0,0-.42.49v2.38a2.54,2.54,0,0,0,.49.15,2.22,2.22,0,0,0,.51.06,1.34,1.34,0,0,0,1.08-.47A2.14,2.14,0,0,0,314.14,185.59Z" fill="#3b3b3b"/>
      <path d="M316,183.23l.53-.54,3.28,2.74-3.28,2.74-.53-.54,2.66-2.19Z" fill="#3b3b3b"/>
      <path d="M239.3,197.38v.3c0,.08,0,.16,0,.23h-3.44a1.54,1.54,0,0,0,.42,1.16,1.71,1.71,0,0,0,1.21.4l.43,0,.41,0,.39-.07.34-.08v.7a6.86,6.86,0,0,1-.79.16,6.58,6.58,0,0,1-.9.06,3.24,3.24,0,0,1-1.09-.17,1.87,1.87,0,0,1-.74-.5,2.05,2.05,0,0,1-.43-.8,3.83,3.83,0,0,1-.14-1.06,3.14,3.14,0,0,1,.15-1,2.42,2.42,0,0,1,.43-.81,2,2,0,0,1,1.65-.76,2.29,2.29,0,0,1,.9.16,1.78,1.78,0,0,1,.67.46,1.84,1.84,0,0,1,.41.71A3.16,3.16,0,0,1,239.3,197.38Zm-.88-.12a1.65,1.65,0,0,0-.07-.6,1.23,1.23,0,0,0-.24-.47,1,1,0,0,0-.41-.3,1.25,1.25,0,0,0-.56-.11,1.06,1.06,0,0,0-.51.11,1.17,1.17,0,0,0-.4.3,1.33,1.33,0,0,0-.26.47,2.2,2.2,0,0,0-.13.6Z" fill="#3b3b3b"/>
      <path d="M245.12,200.09H244l-1.32-1.87-1.31,1.87h-1.1l1.9-2.46-1.81-2.44h1.09l1.29,1.88,1.26-1.88h1l-1.84,2.46Z" fill="#3b3b3b"/>
      <path d="M250.49,197.55a3,3,0,0,1-.19,1.14,2.19,2.19,0,0,1-.5.81,2.11,2.11,0,0,1-.76.49,3,3,0,0,1-1,.16,3.55,3.55,0,0,1-.46,0,2.57,2.57,0,0,1-.47-.08v2.05h-.85v-6.9h.75l.06.82a2.14,2.14,0,0,1,.78-.71,2.08,2.08,0,0,1,.9-.2,1.54,1.54,0,0,1,.73.17,1.61,1.61,0,0,1,.54.5,2.35,2.35,0,0,1,.32.77A4.46,4.46,0,0,1,250.49,197.55Zm-.87,0a3.92,3.92,0,0,0-.06-.71,2,2,0,0,0-.18-.55,1,1,0,0,0-.31-.36.77.77,0,0,0-.45-.13,1.26,1.26,0,0,0-.33,0,1.35,1.35,0,0,0-.34.17,2.58,2.58,0,0,0-.38.32,5.8,5.8,0,0,0-.42.49v2.38a2.54,2.54,0,0,0,.49.15,2.22,2.22,0,0,0,.51.06,1.34,1.34,0,0,0,1.08-.47A2.14,2.14,0,0,0,249.62,197.59Z" fill="#3b3b3b"/>
      <path d="M253,195.1a.72.72,0,0,1,.29.06,1,1,0,0,1,.24.16.78.78,0,0,1,.16.24.72.72,0,0,1,.06.29.68.68,0,0,1-.06.29.74.74,0,0,1-.4.4.73.73,0,0,1-.58,0,.74.74,0,0,1-.4-.4.68.68,0,0,1-.06-.29.72.72,0,0,1,.06-.29.78.78,0,0,1,.16-.24,1,1,0,0,1,.24-.16A.72.72,0,0,1,253,195.1Zm0,3.58a.72.72,0,0,1,.29.06.74.74,0,0,1,.4.4.73.73,0,0,1,0,.58.74.74,0,0,1-.4.4.73.73,0,0,1-.58,0,.74.74,0,0,1-.4-.4.73.73,0,0,1,0-.58.74.74,0,0,1,.4-.4A.72.72,0,0,1,253,198.68Z" fill="#3b3b3b"/>
      <path d="M265.89,199.63l-.53.54-3.28-2.74,3.28-2.74.53.54-2.66,2.19Z" fill="#3b3b3b"/>
      <path d="M267,197.74a3.41,3.41,0,0,1,.17-1.11,2.39,2.39,0,0,1,.49-.82,2.17,2.17,0,0,1,.75-.51,2.86,2.86,0,0,1,1-.17,3.55,3.55,0,0,1,.46,0l.45.09v-2.06h.85v6.9h-.76l0-.93a2.68,2.68,0,0,1-.77.77,1.79,1.79,0,0,1-.9.25A1.47,1.47,0,0,1,268,200a1.55,1.55,0,0,1-.53-.49,2.44,2.44,0,0,1-.32-.77A4.37,4.37,0,0,1,267,197.74Zm.87-.05a2.67,2.67,0,0,0,.26,1.32.83.83,0,0,0,.74.44,1.11,1.11,0,0,0,.68-.29,4.41,4.41,0,0,0,.76-.85V196a2.88,2.88,0,0,0-.47-.15,2.83,2.83,0,0,0-.5,0,1.35,1.35,0,0,0-1.08.45A2.12,2.12,0,0,0,267.89,197.69Z" fill="#3b3b3b"/>
      <path d="M275.87,200.09l0-.66a2.73,2.73,0,0,1-.81.57,2.15,2.15,0,0,1-.87.18,2.08,2.08,0,0,1-.71-.11,1.31,1.31,0,0,1-.5-.3,1.18,1.18,0,0,1-.28-.44,1.63,1.63,0,0,1-.09-.55,1.34,1.34,0,0,1,.55-1.15,2.65,2.65,0,0,1,1.62-.42h1v-.43a.91.91,0,0,0-.28-.7,1.22,1.22,0,0,0-.85-.26,3.81,3.81,0,0,0-.82.09,6.14,6.14,0,0,0-.83.27v-.77l.36-.11.42-.1a3.17,3.17,0,0,1,.46-.07l.48,0a2.83,2.83,0,0,1,.8.1,1.53,1.53,0,0,1,.6.29,1.37,1.37,0,0,1,.38.51,1.73,1.73,0,0,1,.13.71v3.38Zm-.09-2.23H274.7a2.26,2.26,0,0,0-.55.06,1,1,0,0,0-.37.18.74.74,0,0,0-.22.28.87.87,0,0,0-.07.37.77.77,0,0,0,0,.27.59.59,0,0,0,.14.23.68.68,0,0,0,.26.16,1,1,0,0,0,.38.06,1.6,1.6,0,0,0,.67-.18,3.56,3.56,0,0,0,.8-.56Z" fill="#3b3b3b"/>
      <path d="M282.2,200a5.59,5.59,0,0,1-.59.11q-.32,0-.63,0a2,2,0,0,1-1.37-.42,1.64,1.64,0,0,1-.46-1.28V195.9h-1.37v-.71h1.37v-1.35l.85-.22v1.57h2.2v.71H280v2.49a1,1,0,0,0,.28.79,1.21,1.21,0,0,0,.83.26,3.08,3.08,0,0,0,.51,0,4.21,4.21,0,0,0,.58-.11Z" fill="#3b3b3b"/>
      <path d="M287.73,197.38c0,.12,0,.22,0,.3s0,.16,0,.23h-3.45a1.54,1.54,0,0,0,.42,1.16,1.73,1.73,0,0,0,1.21.4l.43,0,.42,0,.38-.07a2.44,2.44,0,0,0,.34-.08v.7a6.26,6.26,0,0,1-1.69.22,3.14,3.14,0,0,1-1.08-.17,2,2,0,0,1-.75-.5,2.19,2.19,0,0,1-.43-.8,3.85,3.85,0,0,1-.13-1.06,3.14,3.14,0,0,1,.14-1,2.44,2.44,0,0,1,.44-.81,2.14,2.14,0,0,1,.7-.56,2.2,2.2,0,0,1,.94-.2,2.35,2.35,0,0,1,.91.16,1.86,1.86,0,0,1,.67.46,2,2,0,0,1,.41.71A3.16,3.16,0,0,1,287.73,197.38Zm-.89-.12a1.91,1.91,0,0,0-.06-.6,1.23,1.23,0,0,0-.24-.47,1.12,1.12,0,0,0-.41-.3,1.26,1.26,0,0,0-.57-.11,1.12,1.12,0,0,0-.51.11,1.14,1.14,0,0,0-.39.3,1.53,1.53,0,0,0-.27.47,2.2,2.2,0,0,0-.13.6Z" fill="#3b3b3b"/>
      <path d="M293,198.36a1.71,1.71,0,0,1-.18.8,1.88,1.88,0,0,1-.52.57,2.32,2.32,0,0,1-.8.33,4.1,4.1,0,0,1-1,.12l-.5,0-.49,0-.43-.07-.37-.08v-.84a4.26,4.26,0,0,0,.82.21,6.38,6.38,0,0,0,1,.08,2.88,2.88,0,0,0,.71-.07,1.29,1.29,0,0,0,.49-.19.83.83,0,0,0,.27-.32.93.93,0,0,0,.08-.42A.66.66,0,0,0,292,198a1.56,1.56,0,0,0-.38-.33,2.91,2.91,0,0,0-.53-.26l-.62-.25c-.2-.08-.41-.18-.61-.28a2,2,0,0,1-.53-.35,1.43,1.43,0,0,1-.38-.47,1.36,1.36,0,0,1-.15-.65,1.65,1.65,0,0,1,.14-.65,1.43,1.43,0,0,1,.43-.56,2,2,0,0,1,.74-.4,3.41,3.41,0,0,1,1.07-.15h.35l.38.05a2.32,2.32,0,0,1,.38.06l.35.07v.78a6.69,6.69,0,0,0-.75-.16,4.59,4.59,0,0,0-.73-.06,1.9,1.9,0,0,0-1.1.25.8.8,0,0,0-.35.67.67.67,0,0,0,.15.44,1.27,1.27,0,0,0,.38.34,3.74,3.74,0,0,0,.53.26l.61.25a5.67,5.67,0,0,1,.61.28,2.31,2.31,0,0,1,.54.36,1.61,1.61,0,0,1,.38.48A1.53,1.53,0,0,1,293,198.36Z" fill="#3b3b3b"/>
      <path d="M298.08,200a5.59,5.59,0,0,1-.59.11q-.32,0-.63,0a2,2,0,0,1-1.37-.42,1.64,1.64,0,0,1-.46-1.28V195.9h-1.37v-.71H295v-1.35l.85-.22v1.57h2.2v.71h-2.2v2.49a1,1,0,0,0,.28.79,1.21,1.21,0,0,0,.83.26,3.08,3.08,0,0,0,.51,0,4.21,4.21,0,0,0,.58-.11Z" fill="#3b3b3b"/>
      <path d="M302.7,200.09l0-.66a2.87,2.87,0,0,1-.81.57,2.29,2.29,0,0,1-1.59.07,1.27,1.27,0,0,1-.49-.3,1.07,1.07,0,0,1-.28-.44,1.63,1.63,0,0,1-.09-.55,1.34,1.34,0,0,1,.55-1.15,2.63,2.63,0,0,1,1.62-.42h1v-.43a1,1,0,0,0-.28-.7,1.23,1.23,0,0,0-.85-.26,3.75,3.75,0,0,0-.82.09,6.14,6.14,0,0,0-.83.27v-.77l.36-.11.42-.1a3.25,3.25,0,0,1,.45-.07,3.91,3.91,0,0,1,.49,0,2.87,2.87,0,0,1,.8.1,1.53,1.53,0,0,1,.6.29,1.37,1.37,0,0,1,.38.51,1.73,1.73,0,0,1,.13.71v3.38Zm-.09-2.23h-1.08a2.2,2.2,0,0,0-.55.06.91.91,0,0,0-.37.18.74.74,0,0,0-.22.28.87.87,0,0,0-.07.37.77.77,0,0,0,0,.27.59.59,0,0,0,.14.23.68.68,0,0,0,.26.16,1,1,0,0,0,.38.06,1.6,1.6,0,0,0,.67-.18,3.56,3.56,0,0,0,.8-.56Z" fill="#3b3b3b"/>
      <path d="M308.77,200.09v-3.52a3.79,3.79,0,0,0,0-.38,1.14,1.14,0,0,0-.05-.23.31.31,0,0,0-.09-.12.32.32,0,0,0-.14,0,.28.28,0,0,0-.18.06.55.55,0,0,0-.18.19,2.9,2.9,0,0,0-.21.35c-.08.14-.17.32-.27.53v3.15h-.78v-3.43a2.62,2.62,0,0,0,0-.43.8.8,0,0,0-.05-.26.27.27,0,0,0-.09-.13.33.33,0,0,0-.15,0,.25.25,0,0,0-.16.05.89.89,0,0,0-.18.17,4,4,0,0,0-.21.35c-.08.14-.17.33-.28.56v3.15h-.78v-4.9h.65l0,.93a4.85,4.85,0,0,1,.25-.47,1.77,1.77,0,0,1,.24-.32.75.75,0,0,1,.28-.17.79.79,0,0,1,.32-.06.74.74,0,0,1,.6.26,1.32,1.32,0,0,1,.2.8c.08-.17.16-.32.23-.45a1.88,1.88,0,0,1,.24-.33,1,1,0,0,1,.29-.21.8.8,0,0,1,.36-.07c.61,0,.92.47.92,1.42v3.57Z" fill="#3b3b3b"/>
      <path d="M315.2,197.55a3.24,3.24,0,0,1-.19,1.14,2.19,2.19,0,0,1-.5.81,2.11,2.11,0,0,1-.76.49,3,3,0,0,1-1,.16,3.55,3.55,0,0,1-.46,0,2.43,2.43,0,0,1-.47-.08v2.05H311v-6.9h.75l.06.82a2.14,2.14,0,0,1,.78-.71,2,2,0,0,1,.9-.2,1.54,1.54,0,0,1,.73.17,1.61,1.61,0,0,1,.54.5,2.35,2.35,0,0,1,.32.77A4.46,4.46,0,0,1,315.2,197.55Zm-.87,0a3.92,3.92,0,0,0-.06-.71,2,2,0,0,0-.18-.55,1,1,0,0,0-.31-.36.77.77,0,0,0-.45-.13,1.26,1.26,0,0,0-.33,0,1.6,1.6,0,0,0-.35.17,3.21,3.21,0,0,0-.37.32,4.4,4.4,0,0,0-.42.49v2.38a2.54,2.54,0,0,0,.49.15,2.22,2.22,0,0,0,.51.06,1.35,1.35,0,0,0,1.08-.47A2.14,2.14,0,0,0,314.33,197.59Z" fill="#3b3b3b"/>
      <path d="M316.21,195.23l.53-.54,3.28,2.74-3.28,2.74-.53-.54,2.66-2.19Z" fill="#3b3b3b"/>
      <path d="M329.1,198.55a.81.81,0,0,1,.31.06,1,1,0,0,1,.26.18.9.9,0,0,1,.17.26.88.88,0,0,1,.07.32.8.8,0,0,1-.5.74.67.67,0,0,1-.31.07.68.68,0,0,1-.32-.07.79.79,0,0,1-.49-.74.87.87,0,0,1,.06-.32.9.9,0,0,1,.17-.26,1,1,0,0,1,.26-.18A.83.83,0,0,1,329.1,198.55Z" fill="#3b3b3b"/>
      <path d="M333.26,198.55a.87.87,0,0,1,.32.06.94.94,0,0,1,.25.18.76.76,0,0,1,.18.26.87.87,0,0,1,.06.32.78.78,0,0,1-.06.31.68.68,0,0,1-.18.26.74.74,0,0,1-.25.17.77.77,0,0,1-.64,0,.85.85,0,0,1-.25-.17.81.81,0,0,1-.18-.26.78.78,0,0,1-.06-.31.87.87,0,0,1,.06-.32.93.93,0,0,1,.18-.26,1.14,1.14,0,0,1,.25-.18A.87.87,0,0,1,333.26,198.55Z" fill="#3b3b3b"/>
      <path d="M337.43,198.55a.81.81,0,0,1,.31.06,1,1,0,0,1,.26.18.73.73,0,0,1,.17.26.71.71,0,0,1,.07.32.64.64,0,0,1-.07.31.65.65,0,0,1-.17.26.78.78,0,0,1-.26.17.67.67,0,0,1-.31.07.68.68,0,0,1-.32-.07.9.9,0,0,1-.26-.17.81.81,0,0,1-.23-.57.87.87,0,0,1,.06-.32.9.9,0,0,1,.17-.26,1.2,1.2,0,0,1,.26-.18A.83.83,0,0,1,337.43,198.55Z" fill="#3b3b3b"/>
    </g>
  </g>
</svg>
