<svg xmlns="http://www.w3.org/2000/svg" xmlns:xlink="http://www.w3.org/1999/xlink" viewBox="0 0 489 232.25">
  <defs>
    <linearGradient id="linear-gradient" x1="20.44" y1="571.72" x2="20.44" y2="541.88" gradientTransform="matrix(1, 0, 0, -1, 0, 578)" gradientUnits="userSpaceOnUse">
      <stop offset="0" stop-color="#5ea0ef"/>
      <stop offset="0.18" stop-color="#559cec"/>
      <stop offset="0.47" stop-color="#3c91e5"/>
      <stop offset="0.84" stop-color="#1380da"/>
      <stop offset="1" stop-color="#0078d4"/>
    </linearGradient>
    <linearGradient id="linear-gradient-2" x1="15.45" y1="541.56" x2="15.45" y2="556.02" gradientTransform="matrix(1, 0, 0, -1, 0, 578)" gradientUnits="userSpaceOnUse">
      <stop offset="0" stop-color="#198ab3"/>
      <stop offset="0.14" stop-color="#22a5cb"/>
      <stop offset="0.3" stop-color="#29bade"/>
      <stop offset="0.47" stop-color="#2ec9eb"/>
      <stop offset="0.68" stop-color="#31d1f3"/>
      <stop offset="1" stop-color="#32d4f5"/>
    </linearGradient>
    <linearGradient id="linear-gradient-3" x1="47" y1="377.68" x2="47" y2="393.68" gradientTransform="matrix(1, 0, 0, -1, 0, 578)" gradientUnits="userSpaceOnUse">
      <stop offset="0" stop-color="#0078d4"/>
      <stop offset="0.16" stop-color="#1380da"/>
      <stop offset="0.53" stop-color="#3c91e5"/>
      <stop offset="0.82" stop-color="#559cec"/>
      <stop offset="1" stop-color="#5ea0ef"/>
    </linearGradient>
    <linearGradient id="linear-gradient-4" x1="413.03" y1="376.08" x2="413.03" y2="359.49" gradientTransform="matrix(1, 0, 0, -1, 0, 578)" gradientUnits="userSpaceOnUse">
      <stop offset="0.22" stop-color="#32d4f5"/>
      <stop offset="0.47" stop-color="#31d1f3"/>
      <stop offset="0.63" stop-color="#2ec9eb"/>
      <stop offset="0.77" stop-color="#29bade"/>
      <stop offset="0.89" stop-color="#22a5cb"/>
      <stop offset="1" stop-color="#198ab3"/>
    </linearGradient>
    <linearGradient id="linear-gradient-5" x1="412.62" y1="384.96" x2="413.83" y2="369.91" xlink:href="#linear-gradient-4"/>
    <linearGradient id="linear-gradient-6" x1="246.38" y1="362.18" x2="246.38" y2="384.18" gradientTransform="matrix(1, 0, 0, -1, 0, 578)" gradientUnits="userSpaceOnUse">
      <stop offset="0" stop-color="#5e9624"/>
      <stop offset="0.01" stop-color="#5e9724"/>
      <stop offset="0.35" stop-color="#6cab29"/>
      <stop offset="0.68" stop-color="#73b82c"/>
      <stop offset="1" stop-color="#76bc2d"/>
    </linearGradient>
  </defs>
  <g id="Shapes">
    <rect width="489" height="232" fill="#fff"/>
    <g>
      <rect x="19" y="29.32" width="310" height="202.68" fill="#fff"/>
      <rect x="19" y="29.32" width="310" height="202.68" fill="#0072c6" opacity="0.05"/>
      <rect x="19" y="29.32" width="310" height="202.68" fill="none" stroke="#0072c6" stroke-miterlimit="10" stroke-width="0.5" opacity="0.6"/>
    </g>
    <g id="b1186d34-5ca3-4e43-992d-40ecef5e891b">
      <g>
        <path d="M28.21,6.28H12.69a1,1,0,0,0-1,1V29.39a18.94,18.94,0,0,1,2.51-1.77h2.94l1.63,2.16v3.28l-2.05,1.48-2.85-.35-2.18-2.06v3a1,1,0,0,0,1,1H28.21a1,1,0,0,0,1-1V7.27A1,1,0,0,0,28.21,6.28Z" fill="url(#linear-gradient)"/>
        <path id="af47f827-8b1b-4acd-8974-8eafe35490c9" d="M14,9.38h2.85a.25.25,0,0,1,.25.25h0v3.69a.25.25,0,0,1-.25.25H14a.25.25,0,0,1-.25-.25h0V9.63A.25.25,0,0,1,14,9.38Zm5,0h2.86a.25.25,0,0,1,.24.25h0v3.69a.25.25,0,0,1-.24.25H19a.26.26,0,0,1-.25-.25h0V9.63A.25.25,0,0,1,19,9.38Zm5,0H26.9a.25.25,0,0,1,.25.25h0v3.69a.26.26,0,0,1-.25.25H24a.25.25,0,0,1-.24-.25h0V9.63A.25.25,0,0,1,24,9.38ZM14,16.05h2.85a.25.25,0,0,1,.25.24h0V20a.25.25,0,0,1-.25.25H14a.25.25,0,0,1-.25-.25h0V16.33a.24.24,0,0,1,.21-.28Zm5,0h2.86a.24.24,0,0,1,.24.24h0V20a.25.25,0,0,1-.24.25H19a.25.25,0,0,1-.25-.25h0V16.33a.25.25,0,0,1,.21-.28Zm5,0H26.9a.25.25,0,0,1,.25.24h0V20a.25.25,0,0,1-.25.25H24A.25.25,0,0,1,23.8,20h0V16.33a.24.24,0,0,1,.21-.28ZM14,22.78h2.85a.25.25,0,0,1,.25.25h0v3.65a.25.25,0,0,1-.25.25H14a.25.25,0,0,1-.25-.25V23A.25.25,0,0,1,14,22.78Zm5,0h2.86a.25.25,0,0,1,.24.25h0v3.65a.25.25,0,0,1-.24.25H19a.26.26,0,0,1-.25-.25h0V23A.25.25,0,0,1,19,22.78Zm0,6.7h2.86a.24.24,0,0,1,.24.24h0v5.46a.25.25,0,0,1-.24.25H19a.25.25,0,0,1-.25-.25V29.72a.25.25,0,0,1,.25-.24Zm5-6.7H26.9a.25.25,0,0,1,.25.25h0v3.65a.26.26,0,0,1-.25.25H24a.25.25,0,0,1-.24-.25h0V23A.25.25,0,0,1,24,22.78Z" fill="#f2f2f2"/>
        <path d="M15.49,28.45a2.31,2.31,0,0,0-2.2,1.77h-8a5,5,0,0,0-.15,1.15v.11h8.12a2.28,2.28,0,1,0,2.2-3Z" fill="#50e6ff"/>
        <path d="M21.69,27.49a5.78,5.78,0,0,0-6-5.51A5.93,5.93,0,0,0,10,25.84a5.67,5.67,0,0,0-4.5,3.55h7.34a3,3,0,1,1-.05,2.6H5.3a5.67,5.67,0,0,0,5.63,4.29H21A4.65,4.65,0,0,0,25.6,32,4.6,4.6,0,0,0,21.69,27.49Z" fill="url(#linear-gradient-2)"/>
        <path d="M15.49,28.45a2.31,2.31,0,0,0-2.2,1.77h-8a3.46,3.46,0,0,1-.84-.11,4,4,0,0,1,.45-7.93h.39l.12-.36a4.54,4.54,0,0,1,4.36-3,4.69,4.69,0,0,1,4,2.25,5.9,5.9,0,0,1,1.33-.16,5.89,5.89,0,0,0-5.32-3.35A5.8,5.8,0,0,0,4.38,21,5.21,5.21,0,0,0,4,31.2H4a3.53,3.53,0,0,0,1.29.21h8a2.29,2.29,0,1,0,2.2-3Z" fill="#50e6ff"/>
      </g>
    </g>
    <rect x="34" y="119.32" width="115" height="55" fill="#fff" stroke="#75757a" stroke-miterlimit="10" stroke-opacity="0.3" stroke-width="0.5"/>
    <rect x="34" y="88.77" width="115" height="25.05" fill="#fff" stroke="#75757a" stroke-miterlimit="10" stroke-opacity="0.3" stroke-width="0.5"/>
    <g>
      <rect x="174" y="89.32" width="115" height="55" fill="#fff"/>
      <rect x="174" y="89.32" width="115" height="55" fill="#0072c6" opacity="0.25"/>
    </g>
    <g>
      <rect x="174" y="159.32" width="145" height="60" fill="#fff"/>
      <rect x="174" y="159.32" width="145" height="60" fill="#0072c6" opacity="0.25"/>
    </g>
    <g>
      <rect x="174" y="58.77" width="115" height="25.05" fill="#fff"/>
      <rect x="174" y="58.77" width="115" height="25.05" fill="#0072c6" opacity="0.25"/>
    </g>
    <rect x="34" y="179.32" width="115" height="25.05" fill="#fff" stroke="#75757a" stroke-miterlimit="10" stroke-opacity="0.3" stroke-width="0.5"/>
    <g>
      <g>
        <path d="M29,138.38a.16.16,0,0,0,.08.14l1.16.65,1.95,1.13a.18.18,0,0,0,.23-.06l.66-1.12a.16.16,0,0,0-.06-.21l-2.29-1.3a.16.16,0,0,1-.08-.14V127.18a.14.14,0,0,1,.08-.14L33,125.75a.16.16,0,0,0,.06-.21l-.66-1.12a.17.17,0,0,0-.22-.08h0l-1.91,1.11-1.2.67a.14.14,0,0,0-.08.13Z" fill="#949494"/>
        <path d="M30.64,127.1l.06-.06L33,125.75a.15.15,0,0,0,.07-.19s0,0,0,0l-.66-1.12a.14.14,0,0,0-.19-.09h0l-1.92,1.11-1.19.67a.06.06,0,0,0-.06.06l.9.5Z" fill="#a3a3a3"/>
        <path d="M33,138.89l-2.29-1.3a.13.13,0,0,1-.07-.09l-1.62,1h0l1.15.65,2,1.11a.17.17,0,0,0,.21,0v0l.66-1.12a.14.14,0,0,0-.07-.18Z" fill="#a3a3a3"/>
      </g>
      <path d="M46,138.38a.16.16,0,0,1-.08.14l-1.15.65-2,1.13a.18.18,0,0,1-.23-.06l-.66-1.12a.17.17,0,0,1,.06-.21l2.3-1.3a.16.16,0,0,0,.08-.14V127.18a.16.16,0,0,0-.08-.14l-2.3-1.29a.18.18,0,0,1-.06-.21l.66-1.12a.18.18,0,0,1,.23-.08h0l1.92,1.09,1.19.67a.14.14,0,0,1,.08.13Z" fill="#949494"/>
      <path d="M44.32,127.1l-.06-.06L42,125.75a.15.15,0,0,1-.07-.19s0,0,0,0l.66-1.12a.14.14,0,0,1,.19-.09h0l1.93,1.09,1.18.67.06.06-.89.5Z" fill="#a3a3a3"/>
      <path d="M42,138.89l2.3-1.3a.22.22,0,0,0,.07-.09l1.61,1h0l-1.14.65-2,1.11a.17.17,0,0,1-.21,0v0l-.66-1.12A.14.14,0,0,1,42,138.89Z" fill="#a3a3a3"/>
      <polygon points="42.77 129.26 42.77 135.38 37.47 138.46 37.47 132.33 42.77 129.26" fill="#32bedd"/>
      <polygon points="42.77 129.26 37.48 132.34 32.17 129.26 37.48 126.17 42.77 129.26" fill="#9cebff"/>
      <polygon points="37.47 132.34 37.47 138.46 32.17 135.38 32.17 129.26 37.47 132.34" fill="#50e6ff"/>
      <polygon points="32.17 135.38 37.47 132.33 37.47 138.46 32.17 135.38" fill="#9cebff"/>
      <polygon points="42.77 135.38 37.47 132.33 37.47 138.46 42.77 135.38" fill="#50e6ff"/>
    </g>
    <path d="M44.6,195.52h4.8v4.8H44.6Zm-5.6-6.4h4.8v-4.8H39.67A.67.67,0,0,0,39,185Zm.67,11.2H43.8v-4.8H39v4.13a.67.67,0,0,0,.67.67Zm-.67-5.6h4.8v-4.8H39Zm11.2,5.6h4.13a.67.67,0,0,0,.67-.67h0v-4.13H50.2Zm-5.6-5.6h4.8v-4.8H44.6Zm5.6,0H55v-4.8H50.2Zm0-10.4v4.8H55V185a.67.67,0,0,0-.67-.67H50.2Zm-5.6,4.8h4.8v-4.8H44.6Z" fill="url(#linear-gradient-3)"/>
    <g>
      <line x1="149.64" y1="100.32" x2="168.62" y2="100.32" fill="none" stroke="#3c3c41" stroke-miterlimit="10"/>
      <polygon points="167.52 104.06 174 100.32 167.52 96.58 167.52 104.06" fill="#3c3c41"/>
    </g>
    <g>
      <line x1="289.64" y1="114.32" x2="290.39" y2="114.32" fill="none" stroke="#3c3c41" stroke-miterlimit="10"/>
      <line x1="292.86" y1="114.32" x2="366.63" y2="114.32" fill="none" stroke="#3c3c41" stroke-miterlimit="10" stroke-dasharray="1.48 2.47"/>
      <line x1="367.87" y1="114.32" x2="368.62" y2="114.32" fill="none" stroke="#3c3c41" stroke-miterlimit="10"/>
      <polygon points="367.52 118.06 374 114.32 367.52 110.58 367.52 118.06" fill="#3c3c41"/>
    </g>
    <g>
      <line x1="231.5" y1="144.32" x2="231.5" y2="145.07" fill="none" stroke="#3c3c41" stroke-miterlimit="10"/>
      <line x1="231.5" y1="148.19" x2="231.5" y2="151.63" fill="none" stroke="#3c3c41" stroke-miterlimit="10" stroke-dasharray="1.87 3.12"/>
      <line x1="231.5" y1="153.19" x2="231.5" y2="153.94" fill="none" stroke="#3c3c41" stroke-miterlimit="10"/>
      <polygon points="227.76 152.84 231.5 159.32 235.24 152.84 227.76 152.84" fill="#3c3c41"/>
    </g>
    <g>
      <line x1="431.5" y1="144.32" x2="431.5" y2="145.07" fill="none" stroke="#3c3c41" stroke-miterlimit="10"/>
      <line x1="431.5" y1="148.19" x2="431.5" y2="151.63" fill="none" stroke="#3c3c41" stroke-miterlimit="10" stroke-dasharray="1.87 3.12"/>
      <line x1="431.5" y1="153.19" x2="431.5" y2="153.94" fill="none" stroke="#3c3c41" stroke-miterlimit="10"/>
      <polygon points="427.76 152.84 431.5 159.32 435.24 152.84 427.76 152.84" fill="#3c3c41"/>
    </g>
    <g>
      <line x1="149.64" y1="124.32" x2="168.62" y2="124.32" fill="none" stroke="#3c3c41" stroke-miterlimit="10"/>
      <polygon points="167.52 128.06 174 124.32 167.52 120.58 167.52 128.06" fill="#3c3c41"/>
    </g>
    <g>
      <path d="M149,189.32h7a3,3,0,0,0,3-3v-49a3,3,0,0,1,3-3h6.62" fill="none" stroke="#3c3c41" stroke-miterlimit="10"/>
      <polygon points="167.52 138.06 174 134.32 167.52 130.58 167.52 138.06" fill="#3c3c41"/>
    </g>
    <g>
      <rect x="374" y="89.32" width="115" height="55" fill="#fff"/>
      <rect x="374" y="89.32" width="115" height="55" fill="#0072c6" opacity="0.25"/>
    </g>
    <g>
      <rect x="344" y="159.32" width="145" height="60" fill="#fff"/>
      <rect x="344" y="159.32" width="145" height="60" fill="#0072c6" opacity="0.25"/>
    </g>
    <g>
      <path d="M428.77,211.87a1.18,1.18,0,0,0,1.2-1.16v0a.42.42,0,0,0,0-.19c-.46-3.74-2.6-6.79-6.67-6.79s-6.26,2.63-6.68,6.79a1.21,1.21,0,0,0,1.08,1.31h11.1Z" fill="#0078d4"/>
      <path d="M423.29,204.66a3.74,3.74,0,0,1-2-.6l2,5.26,2-5.22A3.81,3.81,0,0,1,423.29,204.66Z" fill="#fff" opacity="0.8" style="isolation: isolate"/>
      <circle cx="423.29" cy="200.9" r="3.75" fill="#0078d4"/>
      <path d="M421.26,215.52a1.78,1.78,0,0,0,1.77-1.78.74.74,0,0,0,0-.21c-.7-5.59-3.88-10.13-9.95-10.13s-9.38,3.86-10,10.09a1.8,1.8,0,0,0,1.6,2h16.59Z" fill="url(#linear-gradient-4)"/>
      <path d="M413.16,204.73a5.55,5.55,0,0,1-3-.9l3,7.85,3-7.79A5.69,5.69,0,0,1,413.16,204.73Z" fill="#fff" opacity="0.8" style="isolation: isolate"/>
      <circle cx="413.11" cy="199.13" r="5.6" fill="url(#linear-gradient-5)"/>
    </g>
    <g>
      <line x1="289" y1="76.04" x2="289.75" y2="76.04" fill="none" stroke="#3c3c41" stroke-miterlimit="10"/>
      <path d="M292.26,76h13.63a3,3,0,0,1,3,3v72.89" fill="none" stroke="#3c3c41" stroke-miterlimit="10" stroke-dasharray="1.51 2.51"/>
      <line x1="308.89" y1="153.19" x2="308.89" y2="153.94" fill="none" stroke="#3c3c41" stroke-miterlimit="10"/>
      <polygon points="305.15 152.84 308.89 159.32 312.63 152.84 305.15 152.84" fill="#3c3c41"/>
    </g>
    <g>
      <line x1="289" y1="66.82" x2="289.75" y2="66.82" fill="none" stroke="#3c3c41" stroke-miterlimit="10"/>
      <path d="M292.23,66.82H351a3,3,0,0,1,3,3V152" fill="none" stroke="#3c3c41" stroke-miterlimit="10" stroke-dasharray="1.49 2.48"/>
      <line x1="354" y1="153.19" x2="354" y2="153.94" fill="none" stroke="#3c3c41" stroke-miterlimit="10"/>
      <polygon points="350.26 152.84 354 159.32 357.74 152.84 350.26 152.84" fill="#3c3c41"/>
    </g>
    <g>
      <path d="M243.08,209.22h6.6v6.6h-6.6Zm-7.7-8.8H242v-6.6H236.3a.92.92,0,0,0-.92.92Zm.92,15.4H242v-6.6h-6.6v5.68a.92.92,0,0,0,.92.92Zm-.92-7.7H242v-6.6h-6.6Zm15.4,7.7h5.69a.93.93,0,0,0,.91-.92v-5.68h-6.6Zm-7.7-7.7h6.6v-6.6h-6.6Zm7.7,0h6.6v-6.6h-6.6Zm0-14.3v6.6h6.6v-5.68a.93.93,0,0,0-.91-.92Zm-7.7,6.6h6.6v-6.6h-6.6Z" fill="url(#linear-gradient-6)"/>
      <g>
        <polygon points="264.08 211.34 264.08 220.31 256.33 224.82 256.33 215.83 264.08 211.34" fill="#32bedd"/>
        <polygon points="264.08 211.34 256.33 215.84 248.56 211.33 256.33 206.82 264.08 211.34" fill="#9cebff"/>
        <polygon points="256.33 215.84 256.33 224.82 248.56 220.31 248.56 211.33 256.33 215.84" fill="#50e6ff"/>
        <polygon points="248.56 220.31 256.33 215.83 256.33 224.82 248.56 220.31" fill="#9cebff"/>
        <polygon points="264.08 220.31 256.33 215.83 256.33 224.82 264.08 220.31" fill="#50e6ff"/>
      </g>
    </g>
  </g>
  <g id="Text">
    <g>
      <path d="M43.61,10.2H42.52l-.89-2.35H38.06l-.84,2.35H36.13l3.22-8.4h1ZM41.3,7,40,3.38a3.61,3.61,0,0,1-.12-.56h0a3.36,3.36,0,0,1-.13.56L38.39,7Z" fill="#1e1e1e"/>
      <path d="M48.9,4.48l-3.55,4.9h3.51v.82H43.93V9.9L47.48,5H44.27V4.2H48.9Z" fill="#1e1e1e"/>
      <path d="M55,10.2H54V9.25h0a2,2,0,0,1-1.86,1.09c-1.43,0-2.14-.85-2.14-2.55V4.2h1V7.63c0,1.27.49,1.9,1.46,1.9A1.47,1.47,0,0,0,53.58,9,2,2,0,0,0,54,7.66V4.2h1Z" fill="#1e1e1e"/>
      <path d="M60.06,5.17A1.18,1.18,0,0,0,59.33,5a1.23,1.23,0,0,0-1,.58,2.72,2.72,0,0,0-.41,1.58V10.2h-1v-6h1V5.44h0a2.17,2.17,0,0,1,.63-1,1.41,1.41,0,0,1,.94-.35,1.49,1.49,0,0,1,.58.08Z" fill="#1e1e1e"/>
      <path d="M65.92,7.44H61.69A2.19,2.19,0,0,0,62.23,9a1.85,1.85,0,0,0,1.41.54,3,3,0,0,0,1.87-.66v.9a3.52,3.52,0,0,1-2.09.57,2.52,2.52,0,0,1-2-.82,3.31,3.31,0,0,1-.73-2.3,3.29,3.29,0,0,1,.8-2.28,2.51,2.51,0,0,1,2-.88,2.25,2.25,0,0,1,1.82.76,3.19,3.19,0,0,1,.64,2.12Zm-1-.81a2,2,0,0,0-.4-1.3,1.37,1.37,0,0,0-1.1-.46,1.52,1.52,0,0,0-1.15.49,2.13,2.13,0,0,0-.59,1.27Z" fill="#1e1e1e"/>
      <path d="M70.4,9.86V8.7a2.23,2.23,0,0,0,.48.32,4.51,4.51,0,0,0,1.2.38,3.09,3.09,0,0,0,.58.06A2.27,2.27,0,0,0,74,9.12a1.14,1.14,0,0,0,.45-1,1.13,1.13,0,0,0-.15-.59,1.76,1.76,0,0,0-.41-.46,4.57,4.57,0,0,0-.63-.4l-.77-.4c-.29-.15-.57-.3-.82-.45A2.89,2.89,0,0,1,71,5.34a2.1,2.1,0,0,1-.45-.62,2.07,2.07,0,0,1-.16-.82,2,2,0,0,1,.25-1,2.24,2.24,0,0,1,.67-.7,3,3,0,0,1,.93-.41,4.29,4.29,0,0,1,1.07-.13,4.08,4.08,0,0,1,1.81.3v1.1a3.31,3.31,0,0,0-1.91-.51,2.79,2.79,0,0,0-.64.07,1.56,1.56,0,0,0-.58.22,1.27,1.27,0,0,0-.41.39,1.07,1.07,0,0,0-.16.58,1.22,1.22,0,0,0,.12.56,1.31,1.31,0,0,0,.36.43,3,3,0,0,0,.57.37c.22.12.48.26.78.4s.58.31.85.47a4,4,0,0,1,.71.55,2.53,2.53,0,0,1,.48.66,1.84,1.84,0,0,1,.18.83,2.14,2.14,0,0,1-.24,1.05,1.93,1.93,0,0,1-.66.7,2.8,2.8,0,0,1-1,.39,5.24,5.24,0,0,1-1.14.12l-.49,0-.6-.09-.57-.16A1.65,1.65,0,0,1,70.4,9.86Z" fill="#1e1e1e"/>
      <path d="M79.44,10.14a1.82,1.82,0,0,1-.9.19c-1.05,0-1.58-.59-1.58-1.76V5h-1V4.2h1V2.74l1-.31V4.2h1.52V5H77.92V8.4a1.37,1.37,0,0,0,.21.86.8.8,0,0,0,.68.26,1,1,0,0,0,.63-.2Z" fill="#1e1e1e"/>
      <path d="M85,10.2h-1V9.26h0a2.2,2.2,0,0,1-3.25.61,1.65,1.65,0,0,1-.51-1.26c0-1.12.66-1.78,2-2l1.8-.25q0-1.53-1.23-1.53a3,3,0,0,0-2,.74v-1a3.76,3.76,0,0,1,2-.56c1.41,0,2.11.75,2.11,2.24Zm-1-3-1.44.2a2.25,2.25,0,0,0-1,.33.93.93,0,0,0-.34.84.89.89,0,0,0,.31.71,1.2,1.2,0,0,0,.84.28A1.53,1.53,0,0,0,83.59,9a1.77,1.77,0,0,0,.46-1.27Z" fill="#1e1e1e"/>
      <path d="M90.91,9.93a3.17,3.17,0,0,1-1.64.41,2.75,2.75,0,0,1-2.07-.83,3.06,3.06,0,0,1-.79-2.17A3.35,3.35,0,0,1,87.26,5a3,3,0,0,1,2.27-.9,3.27,3.27,0,0,1,1.4.29v1a2.49,2.49,0,0,0-1.43-.47A1.92,1.92,0,0,0,88,5.53a2.46,2.46,0,0,0-.59,1.73A2.36,2.36,0,0,0,88,8.92a1.91,1.91,0,0,0,1.49.61A2.38,2.38,0,0,0,90.91,9Z" fill="#1e1e1e"/>
      <path d="M97.35,10.2H96L93.35,7.32h0V10.2h-1V1.32h1V7h0L95.87,4.2h1.26L94.35,7.1Z" fill="#1e1e1e"/>
      <path d="M108.06,10.2h-1V6.37h-4.35V10.2h-1V1.8h1V5.48h4.35V1.8h1Z" fill="#1e1e1e"/>
      <path d="M115,10.2h-1V9.25h0a2,2,0,0,1-1.86,1.09c-1.43,0-2.14-.85-2.14-2.55V4.2H111V7.63c0,1.27.49,1.9,1.46,1.9A1.47,1.47,0,0,0,113.58,9,2,2,0,0,0,114,7.66V4.2h1Z" fill="#1e1e1e"/>
      <path d="M117.91,9.33h0v.87h-1V1.32h1V5.26h0A2.29,2.29,0,0,1,120,4.06a2.2,2.2,0,0,1,1.81.81A3.33,3.33,0,0,1,122.45,7a3.72,3.72,0,0,1-.73,2.41,2.46,2.46,0,0,1-2,.9A2,2,0,0,1,117.91,9.33Zm0-2.42v.84A1.77,1.77,0,0,0,118.37,9a1.73,1.73,0,0,0,2.6-.14A3.09,3.09,0,0,0,121.46,7,2.41,2.41,0,0,0,121,5.44a1.52,1.52,0,0,0-1.25-.57,1.7,1.7,0,0,0-1.35.58A2.15,2.15,0,0,0,117.89,6.91Z" fill="#1e1e1e"/>
      <path d="M44.53,18.6l-1.8,6h-1L40.5,20.31a2.34,2.34,0,0,1-.09-.56h0a2.44,2.44,0,0,1-.12.54L38.92,24.6H38l-1.82-6h1l1.24,4.51a2.38,2.38,0,0,1,.08.54h.05a2.43,2.43,0,0,1,.11-.55L40,18.6h.88l1.24,4.53a3,3,0,0,1,.09.53h0a2.42,2.42,0,0,1,.1-.53l1.22-4.53Z" fill="#1e1e1e"/>
      <path d="M46.14,17.08a.59.59,0,0,1-.44-.18.57.57,0,0,1-.18-.44A.61.61,0,0,1,45.7,16a.59.59,0,0,1,.44-.18.6.6,0,0,1,.44.18.58.58,0,0,1,.19.45.58.58,0,0,1-.19.44A.6.6,0,0,1,46.14,17.08Zm.47,7.52h-1v-6h1Z" fill="#1e1e1e"/>
      <path d="M51.33,24.54a1.76,1.76,0,0,1-.89.19c-1,0-1.58-.59-1.58-1.76V19.42h-1V18.6h1V17.14l1-.31V18.6h1.51v.82H49.82V22.8a1.35,1.35,0,0,0,.21.86.78.78,0,0,0,.68.26.94.94,0,0,0,.62-.2Z" fill="#1e1e1e"/>
      <path d="M57.6,24.6h-1V21.14c0-1.25-.47-1.87-1.4-1.87a1.51,1.51,0,0,0-1.18.54,2,2,0,0,0-.48,1.39v3.4h-1V15.72h1V19.6h0a2.18,2.18,0,0,1,2-1.14c1.35,0,2,.82,2,2.44Z" fill="#1e1e1e"/>
      <path d="M69.33,24.6H68.24l-.89-2.35H63.79L63,24.6h-1.1l3.22-8.4h1ZM67,21.36l-1.32-3.58a2.59,2.59,0,0,1-.13-.56h0a2.59,2.59,0,0,1-.13.56l-1.31,3.58Z" fill="#1e1e1e"/>
      <path d="M70.56,24.6V16.2h2.32q4.45,0,4.45,4.09a4.11,4.11,0,0,1-1.24,3.13,4.55,4.55,0,0,1-3.3,1.18Zm1-7.51v6.62H72.8a3.59,3.59,0,0,0,2.58-.88,3.33,3.33,0,0,0,.91-2.51q0-3.22-3.43-3.23Z" fill="#1e1e1e"/>
      <path d="M86.53,17.09H83.25V20h3v.88h-3V24.6h-1V16.2h4.26Z" fill="#1e1e1e"/>
      <path d="M87.73,24.26V23.1a2.5,2.5,0,0,0,.48.32,5.19,5.19,0,0,0,.59.24,4.47,4.47,0,0,0,.61.14,3.09,3.09,0,0,0,.58.06,2.18,2.18,0,0,0,1.35-.34,1.26,1.26,0,0,0,.3-1.56,1.6,1.6,0,0,0-.41-.46,4.43,4.43,0,0,0-.62-.4l-.78-.4c-.29-.15-.57-.3-.82-.45a3.4,3.4,0,0,1-.66-.51,1.9,1.9,0,0,1-.44-.62,1.87,1.87,0,0,1-.17-.82,1.93,1.93,0,0,1,.26-1,2.1,2.1,0,0,1,.66-.7,3,3,0,0,1,.93-.41,4.29,4.29,0,0,1,1.07-.13,4.08,4.08,0,0,1,1.81.3v1.1A3.29,3.29,0,0,0,90.56,17a2.79,2.79,0,0,0-.64.07,1.56,1.56,0,0,0-.58.22,1.38,1.38,0,0,0-.41.39,1.06,1.06,0,0,0-.15.58,1.19,1.19,0,0,0,.12.56,1.28,1.28,0,0,0,.35.43,3.75,3.75,0,0,0,.57.37c.23.13.48.26.78.4s.58.31.85.47a4,4,0,0,1,.71.55,2.36,2.36,0,0,1,.49.66,2,2,0,0,1,.17.83,2.12,2.12,0,0,1-.24,1.05,1.93,1.93,0,0,1-.66.7,2.8,2.8,0,0,1-1,.39,5.22,5.22,0,0,1-1.13.12l-.5,0-.59-.09a4.43,4.43,0,0,1-.58-.16A1.65,1.65,0,0,1,87.73,24.26Z" fill="#1e1e1e"/>
    </g>
    <g>
      <path d="M58.26,136.25H57.17l-.89-2.36H52.71l-.83,2.36h-1.1L54,127.84h1ZM56,133l-1.31-3.58a2.71,2.71,0,0,1-.13-.57h0a3.51,3.51,0,0,1-.13.57L53,133Z" fill="#1e1e1e"/>
      <path d="M63.55,130.52,60,135.43h3.51v.82H58.58V136l3.56-4.88H58.92v-.82h4.63Z" fill="#1e1e1e"/>
      <path d="M69.64,136.25h-1v-.95h0a2,2,0,0,1-1.85,1.09c-1.43,0-2.15-.85-2.15-2.56v-3.58h1v3.43c0,1.27.48,1.9,1.45,1.9a1.47,1.47,0,0,0,1.16-.52,2,2,0,0,0,.45-1.36v-3.45h1Z" fill="#1e1e1e"/>
      <path d="M74.71,131.22A1.18,1.18,0,0,0,74,131a1.2,1.2,0,0,0-1,.58,2.62,2.62,0,0,0-.42,1.58v3.06h-1v-6h1v1.23h0a2,2,0,0,1,.62-1,1.43,1.43,0,0,1,1-.36,1.65,1.65,0,0,1,.57.08Z" fill="#1e1e1e"/>
      <path d="M80.58,133.49H76.34a2.18,2.18,0,0,0,.54,1.54,1.82,1.82,0,0,0,1.42.55,2.93,2.93,0,0,0,1.86-.67v.9a3.45,3.45,0,0,1-2.09.58,2.55,2.55,0,0,1-2-.82,3.33,3.33,0,0,1-.73-2.3,3.29,3.29,0,0,1,.8-2.28,2.53,2.53,0,0,1,2-.88,2.25,2.25,0,0,1,1.82.76,3.17,3.17,0,0,1,.65,2.11Zm-1-.82a2,2,0,0,0-.4-1.29,1.36,1.36,0,0,0-1.1-.47,1.56,1.56,0,0,0-1.15.49,2.16,2.16,0,0,0-.59,1.27Z" fill="#1e1e1e"/>
      <path d="M91.47,136.25H90.3l-1.41-2.36a4.52,4.52,0,0,0-.38-.56,2.23,2.23,0,0,0-.37-.38,1.23,1.23,0,0,0-.41-.21,1.49,1.49,0,0,0-.49-.07h-.81v3.58h-1v-8.41H88a3.64,3.64,0,0,1,1,.14,2.23,2.23,0,0,1,.81.42,1.94,1.94,0,0,1,.53.7,2.32,2.32,0,0,1,.2,1,2.59,2.59,0,0,1-.13.81,2.22,2.22,0,0,1-.38.65,2.17,2.17,0,0,1-.59.49,2.54,2.54,0,0,1-.77.31v0a1.63,1.63,0,0,1,.37.21,2.69,2.69,0,0,1,.3.29,3,3,0,0,1,.27.37c.1.14.2.3.31.48Zm-5-7.52v3.05h1.33a2.17,2.17,0,0,0,.69-.11,1.46,1.46,0,0,0,.54-.32,1.57,1.57,0,0,0,.36-.51,1.83,1.83,0,0,0,.13-.68,1.32,1.32,0,0,0-.44-1,1.88,1.88,0,0,0-1.26-.38Z" fill="#1e1e1e"/>
      <path d="M97,133.49H92.73a2.18,2.18,0,0,0,.54,1.54,1.82,1.82,0,0,0,1.41.55,2.94,2.94,0,0,0,1.87-.67v.9a3.45,3.45,0,0,1-2.09.58,2.55,2.55,0,0,1-2-.82,3.33,3.33,0,0,1-.73-2.3,3.29,3.29,0,0,1,.8-2.28,2.51,2.51,0,0,1,2-.88,2.25,2.25,0,0,1,1.82.76A3.17,3.17,0,0,1,97,133Zm-1-.82a2,2,0,0,0-.4-1.29,1.38,1.38,0,0,0-1.1-.47,1.56,1.56,0,0,0-1.15.49,2.16,2.16,0,0,0-.59,1.27Z" fill="#1e1e1e"/>
      <path d="M98.05,136v-1a2.9,2.9,0,0,0,1.73.58c.85,0,1.27-.28,1.27-.85a.72.72,0,0,0-.11-.4,1.17,1.17,0,0,0-.29-.3,3,3,0,0,0-.44-.23l-.53-.21c-.27-.11-.5-.22-.7-.32a2.23,2.23,0,0,1-.51-.37,1.31,1.31,0,0,1-.3-.46,1.57,1.57,0,0,1-.1-.6,1.44,1.44,0,0,1,.19-.75,1.75,1.75,0,0,1,.51-.54,2.26,2.26,0,0,1,.74-.33,3.05,3.05,0,0,1,.85-.11,3.46,3.46,0,0,1,1.4.27v1a2.72,2.72,0,0,0-1.53-.44,1.43,1.43,0,0,0-.48.07,1,1,0,0,0-.37.17.72.72,0,0,0-.25.27.74.74,0,0,0-.08.34.93.93,0,0,0,.08.39.83.83,0,0,0,.25.28,1.89,1.89,0,0,0,.4.22l.54.22c.26.1.5.21.71.31a2.44,2.44,0,0,1,.54.37,1.38,1.38,0,0,1,.34.46,1.54,1.54,0,0,1,.12.63,1.44,1.44,0,0,1-.19.77,1.74,1.74,0,0,1-.53.55,2.54,2.54,0,0,1-.75.32,3.82,3.82,0,0,1-.9.11A3.41,3.41,0,0,1,98.05,136Z" fill="#1e1e1e"/>
      <path d="M106,136.39a2.79,2.79,0,0,1-2.13-.84,3.12,3.12,0,0,1-.79-2.23,3.23,3.23,0,0,1,.82-2.36,3,3,0,0,1,2.24-.85,2.68,2.68,0,0,1,2.09.82,3.29,3.29,0,0,1,.75,2.29,3.21,3.21,0,0,1-.81,2.3A2.82,2.82,0,0,1,106,136.39Zm.07-5.48a1.84,1.84,0,0,0-1.47.63,2.59,2.59,0,0,0-.54,1.74,2.41,2.41,0,0,0,.55,1.68,1.85,1.85,0,0,0,1.46.62,1.73,1.73,0,0,0,1.43-.61,2.62,2.62,0,0,0,.5-1.71,2.71,2.71,0,0,0-.5-1.74A1.76,1.76,0,0,0,106.09,130.91Z" fill="#1e1e1e"/>
      <path d="M115.39,136.25h-1v-.95h0a2,2,0,0,1-1.85,1.09c-1.43,0-2.15-.85-2.15-2.56v-3.58h1v3.43c0,1.27.48,1.9,1.45,1.9a1.47,1.47,0,0,0,1.16-.52,2,2,0,0,0,.45-1.36v-3.45h1Z" fill="#1e1e1e"/>
      <path d="M120.46,131.22a1.18,1.18,0,0,0-.73-.19,1.2,1.2,0,0,0-1,.58,2.62,2.62,0,0,0-.42,1.58v3.06h-1v-6h1v1.23h0a2,2,0,0,1,.62-1,1.43,1.43,0,0,1,1-.36,1.65,1.65,0,0,1,.57.08Z" fill="#1e1e1e"/>
      <path d="M125.59,136a3.1,3.1,0,0,1-1.64.42,2.72,2.72,0,0,1-2.07-.84,3,3,0,0,1-.79-2.16,3.37,3.37,0,0,1,.85-2.39,3,3,0,0,1,2.27-.89,3.06,3.06,0,0,1,1.39.29v1a2.45,2.45,0,0,0-1.43-.47,1.91,1.91,0,0,0-1.5.66,2.47,2.47,0,0,0-.59,1.73,2.39,2.39,0,0,0,.55,1.67,1.91,1.91,0,0,0,1.49.61,2.44,2.44,0,0,0,1.47-.52Z" fill="#1e1e1e"/>
      <path d="M131.87,133.49h-4.24a2.27,2.27,0,0,0,.54,1.54,1.84,1.84,0,0,0,1.42.55,2.91,2.91,0,0,0,1.86-.67v.9a3.43,3.43,0,0,1-2.09.58,2.56,2.56,0,0,1-2-.82,3.37,3.37,0,0,1-.72-2.3,3.28,3.28,0,0,1,.79-2.28,2.54,2.54,0,0,1,2-.88,2.24,2.24,0,0,1,1.82.76,3.17,3.17,0,0,1,.65,2.11Zm-1-.82a1.9,1.9,0,0,0-.4-1.29,1.36,1.36,0,0,0-1.1-.47,1.57,1.57,0,0,0-1.15.49,2.22,2.22,0,0,0-.59,1.27Z" fill="#1e1e1e"/>
      <path d="M65.9,148.75h-1v-5.64c0-.45,0-1,.08-1.64h0a6.66,6.66,0,0,1-.25.82l-2.88,6.46h-.48l-2.86-6.41a4.83,4.83,0,0,1-.25-.87h0c0,.34.05.89.05,1.65v5.63h-1v-8.41h1.3l2.58,5.86a7.92,7.92,0,0,1,.39,1h0c.17-.46.3-.8.41-1l2.63-5.84H65.9Z" fill="#1e1e1e"/>
      <path d="M72.27,148.75h-1v-.94h0a2,2,0,0,1-1.85,1.08,2,2,0,0,1-1.4-.48,1.62,1.62,0,0,1-.51-1.26q0-1.68,2-2l1.8-.26q0-1.53-1.23-1.53a3,3,0,0,0-2,.74v-1a3.68,3.68,0,0,1,2-.56c1.41,0,2.11.74,2.11,2.23Zm-1-3-1.45.2a2.25,2.25,0,0,0-1,.33,1,1,0,0,0-.34.84.91.91,0,0,0,.31.72,1.2,1.2,0,0,0,.84.28,1.56,1.56,0,0,0,1.18-.5,1.8,1.8,0,0,0,.46-1.27Z" fill="#1e1e1e"/>
      <path d="M79.06,148.75h-1v-3.43c0-1.27-.46-1.91-1.39-1.91a1.48,1.48,0,0,0-1.19.55,2,2,0,0,0-.48,1.36v3.43h-1v-6h1v1h0a2.15,2.15,0,0,1,2-1.13,1.84,1.84,0,0,1,1.5.63,2.84,2.84,0,0,1,.52,1.84Z" fill="#1e1e1e"/>
      <path d="M85.17,148.75h-1v-.94h0a2,2,0,0,1-1.84,1.08,1.93,1.93,0,0,1-1.4-.48,1.62,1.62,0,0,1-.51-1.26q0-1.68,2-2l1.8-.26c0-1-.41-1.53-1.24-1.53a3,3,0,0,0-2,.74v-1a3.68,3.68,0,0,1,2-.56c1.41,0,2.12.74,2.12,2.23Zm-1-3-1.45.2a2.35,2.35,0,0,0-1,.33,1,1,0,0,0-.34.84.92.92,0,0,0,.32.72,1.18,1.18,0,0,0,.83.28,1.55,1.55,0,0,0,1.18-.5,1.81,1.81,0,0,0,.47-1.27Z" fill="#1e1e1e"/>
      <path d="M92.1,148.27q0,3.3-3.16,3.3a4.28,4.28,0,0,1-2-.42v-1a4.06,4.06,0,0,0,1.93.56c1.48,0,2.22-.79,2.22-2.36v-.65h0a2.43,2.43,0,0,1-3.87.35,3.24,3.24,0,0,1-.68-2.15,3.73,3.73,0,0,1,.73-2.43,2.48,2.48,0,0,1,2-.9,2,2,0,0,1,1.8,1h0v-.83h1Zm-1-2.24v-.88a1.73,1.73,0,0,0-.48-1.23,1.62,1.62,0,0,0-1.21-.51,1.66,1.66,0,0,0-1.39.65,2.88,2.88,0,0,0-.51,1.82,2.45,2.45,0,0,0,.49,1.6,1.56,1.56,0,0,0,1.28.6,1.65,1.65,0,0,0,1.31-.58A2.12,2.12,0,0,0,91.14,146Z" fill="#1e1e1e"/>
      <path d="M98.87,146H94.63a2.27,2.27,0,0,0,.54,1.54,1.84,1.84,0,0,0,1.42.55,2.91,2.91,0,0,0,1.86-.67v.9a3.43,3.43,0,0,1-2.09.58,2.56,2.56,0,0,1-2-.82,3.37,3.37,0,0,1-.72-2.3,3.28,3.28,0,0,1,.79-2.28,2.54,2.54,0,0,1,2-.88,2.24,2.24,0,0,1,1.82.76,3.17,3.17,0,0,1,.65,2.11Zm-1-.82a1.9,1.9,0,0,0-.4-1.29,1.36,1.36,0,0,0-1.1-.47,1.57,1.57,0,0,0-1.15.49,2.22,2.22,0,0,0-.59,1.27Z" fill="#1e1e1e"/>
      <path d="M103.45,143.72a1.18,1.18,0,0,0-.73-.19,1.2,1.2,0,0,0-1,.58,2.62,2.62,0,0,0-.42,1.58v3.06h-1v-6h1V144h0a2,2,0,0,1,.62-1,1.43,1.43,0,0,1,.95-.36,1.65,1.65,0,0,1,.57.08Z" fill="#1e1e1e"/>
      <path d="M112.08,148.75h-1v-.94h0a2,2,0,0,1-1.84,1.08,2,2,0,0,1-1.41-.48,1.62,1.62,0,0,1-.51-1.26c0-1.12.67-1.77,2-2l1.79-.26q0-1.53-1.23-1.53a3,3,0,0,0-2,.74v-1a3.68,3.68,0,0,1,2-.56c1.41,0,2.12.74,2.12,2.23Zm-1-3-1.44.2a2.3,2.3,0,0,0-1,.33,1,1,0,0,0-.34.84.91.91,0,0,0,.31.72,1.2,1.2,0,0,0,.84.28,1.56,1.56,0,0,0,1.18-.5,1.8,1.8,0,0,0,.46-1.27Z" fill="#1e1e1e"/>
      <path d="M118.87,148.75h-1v-3.43c0-1.27-.47-1.91-1.4-1.91a1.48,1.48,0,0,0-1.19.55,2,2,0,0,0-.47,1.36v3.43h-1v-6h1v1h0a2.15,2.15,0,0,1,2-1.13,1.82,1.82,0,0,1,1.5.63,2.84,2.84,0,0,1,.53,1.84Z" fill="#1e1e1e"/>
      <path d="M125.8,148.75h-1v-1h0a2.21,2.21,0,0,1-2.06,1.16,2.24,2.24,0,0,1-1.81-.81,3.31,3.31,0,0,1-.67-2.19,3.6,3.6,0,0,1,.75-2.39,2.45,2.45,0,0,1,2-.89,1.91,1.91,0,0,1,1.8,1h0v-3.72h1Zm-1-2.72v-.88a1.7,1.7,0,0,0-.48-1.23,1.61,1.61,0,0,0-1.22-.51,1.68,1.68,0,0,0-1.39.65,2.85,2.85,0,0,0-.5,1.78,2.56,2.56,0,0,0,.48,1.64,1.6,1.6,0,0,0,1.3.6,1.68,1.68,0,0,0,1.31-.58A2.2,2.2,0,0,0,124.84,146Z" fill="#1e1e1e"/>
      <path d="M46.52,156.22a1.14,1.14,0,0,0-.72-.19,1.21,1.21,0,0,0-1,.58,2.62,2.62,0,0,0-.41,1.58v3.06h-1v-6h1v1.23h0a2,2,0,0,1,.63-1,1.4,1.4,0,0,1,.94-.36,1.65,1.65,0,0,1,.57.08Z" fill="#1e1e1e"/>
      <path d="M52.39,158.49H48.15a2.27,2.27,0,0,0,.54,1.54,1.85,1.85,0,0,0,1.42.55,2.89,2.89,0,0,0,1.86-.67v.9a3.41,3.41,0,0,1-2.09.58,2.56,2.56,0,0,1-2-.82,3.37,3.37,0,0,1-.72-2.3A3.28,3.28,0,0,1,48,156a2.54,2.54,0,0,1,2-.88,2.24,2.24,0,0,1,1.82.76,3.17,3.17,0,0,1,.65,2.11Zm-1-.82a1.9,1.9,0,0,0-.4-1.29,1.36,1.36,0,0,0-1.1-.47,1.57,1.57,0,0,0-1.15.49,2.22,2.22,0,0,0-.59,1.27Z" fill="#1e1e1e"/>
      <path d="M53.48,161v-1a2.88,2.88,0,0,0,1.73.58c.84,0,1.26-.28,1.26-.85a.65.65,0,0,0-.11-.4,1.17,1.17,0,0,0-.29-.3,2.86,2.86,0,0,0-.43-.23l-.54-.21-.7-.32a2,2,0,0,1-.5-.37,1.21,1.21,0,0,1-.31-.46,1.57,1.57,0,0,1-.1-.6,1.44,1.44,0,0,1,.19-.75,1.67,1.67,0,0,1,.52-.54,2.21,2.21,0,0,1,.73-.33,3.07,3.07,0,0,1,.86-.11,3.41,3.41,0,0,1,1.39.27v1a2.71,2.71,0,0,0-1.52-.44,1.53,1.53,0,0,0-.49.07,1.05,1.05,0,0,0-.37.17.78.78,0,0,0-.24.27.64.64,0,0,0-.09.34.8.8,0,0,0,.09.39.83.83,0,0,0,.25.28,1.67,1.67,0,0,0,.4.22l.53.22c.27.1.5.21.72.31a2.16,2.16,0,0,1,.53.37,1.41,1.41,0,0,1,.35.46,1.54,1.54,0,0,1,.12.63,1.45,1.45,0,0,1-.2.77,1.7,1.7,0,0,1-.52.55,2.49,2.49,0,0,1-.76.32,3.7,3.7,0,0,1-.9.11A3.37,3.37,0,0,1,53.48,161Z" fill="#1e1e1e"/>
      <path d="M61.44,161.39a2.77,2.77,0,0,1-2.12-.84,3.12,3.12,0,0,1-.8-2.23,3.23,3.23,0,0,1,.83-2.36,3,3,0,0,1,2.23-.85,2.71,2.71,0,0,1,2.1.82,3.29,3.29,0,0,1,.75,2.29,3.21,3.21,0,0,1-.81,2.3A2.84,2.84,0,0,1,61.44,161.39Zm.07-5.48a1.81,1.81,0,0,0-1.46.63,2.59,2.59,0,0,0-.54,1.74,2.46,2.46,0,0,0,.54,1.68,1.87,1.87,0,0,0,1.46.62,1.73,1.73,0,0,0,1.43-.61,2.57,2.57,0,0,0,.51-1.71,2.65,2.65,0,0,0-.51-1.74A1.76,1.76,0,0,0,61.51,155.91Z" fill="#1e1e1e"/>
      <path d="M70.82,161.25h-1v-.95h0A2,2,0,0,1,68,161.39c-1.43,0-2.14-.85-2.14-2.56v-3.58h1v3.43c0,1.27.49,1.9,1.45,1.9a1.46,1.46,0,0,0,1.16-.52,2,2,0,0,0,.46-1.36v-3.45h1Z" fill="#1e1e1e"/>
      <path d="M75.88,156.22a1.14,1.14,0,0,0-.72-.19,1.23,1.23,0,0,0-1,.58,2.62,2.62,0,0,0-.41,1.58v3.06h-1v-6h1v1.23h0a2.09,2.09,0,0,1,.63-1,1.4,1.4,0,0,1,.94-.36,1.65,1.65,0,0,1,.57.08Z" fill="#1e1e1e"/>
      <path d="M81,161a3.1,3.1,0,0,1-1.64.42,2.69,2.69,0,0,1-2.07-.84,3,3,0,0,1-.79-2.16,3.33,3.33,0,0,1,.85-2.39,3,3,0,0,1,2.26-.89,3.1,3.1,0,0,1,1.4.29v1a2.47,2.47,0,0,0-1.43-.47,1.93,1.93,0,0,0-1.51.66,2.52,2.52,0,0,0-.59,1.73,2.39,2.39,0,0,0,.56,1.67,1.87,1.87,0,0,0,1.48.61,2.47,2.47,0,0,0,1.48-.52Z" fill="#1e1e1e"/>
      <path d="M87.29,158.49H83.06A2.18,2.18,0,0,0,83.6,160a1.82,1.82,0,0,0,1.41.55,2.94,2.94,0,0,0,1.87-.67v.9a3.45,3.45,0,0,1-2.09.58,2.55,2.55,0,0,1-2-.82,3.83,3.83,0,0,1,.06-4.58,2.55,2.55,0,0,1,2-.88,2.25,2.25,0,0,1,1.82.76,3.17,3.17,0,0,1,.64,2.11Zm-1-.82a2,2,0,0,0-.4-1.29,1.38,1.38,0,0,0-1.1-.47,1.6,1.6,0,0,0-1.16.49,2.21,2.21,0,0,0-.58,1.27Z" fill="#1e1e1e"/>
      <path d="M93,160.38h0V164H92v-8.76h1v1.05h0a2.25,2.25,0,0,1,2.07-1.19,2.17,2.17,0,0,1,1.81.8,3.31,3.31,0,0,1,.65,2.16,3.71,3.71,0,0,1-.73,2.41,2.46,2.46,0,0,1-2,.91A2,2,0,0,1,93,160.38ZM93,158v.84a1.81,1.81,0,0,0,.49,1.26,1.72,1.72,0,0,0,2.59-.15,3.07,3.07,0,0,0,.5-1.86,2.47,2.47,0,0,0-.46-1.57,1.54,1.54,0,0,0-1.26-.57,1.71,1.71,0,0,0-1.35.59A2.13,2.13,0,0,0,93,158Z" fill="#1e1e1e"/>
      <path d="M102.22,156.22a1.18,1.18,0,0,0-.73-.19,1.23,1.23,0,0,0-1,.58,2.7,2.7,0,0,0-.41,1.58v3.06h-1v-6h1v1.23h0a2.09,2.09,0,0,1,.63-1,1.4,1.4,0,0,1,.94-.36,1.75,1.75,0,0,1,.58.08Z" fill="#1e1e1e"/>
      <path d="M105.77,161.39a2.79,2.79,0,0,1-2.13-.84,3.12,3.12,0,0,1-.79-2.23,3.23,3.23,0,0,1,.83-2.36,3,3,0,0,1,2.23-.85,2.68,2.68,0,0,1,2.09.82,3.29,3.29,0,0,1,.76,2.29,3.18,3.18,0,0,1-.82,2.3A2.82,2.82,0,0,1,105.77,161.39Zm.07-5.48a1.84,1.84,0,0,0-1.47.63,2.59,2.59,0,0,0-.54,1.74,2.46,2.46,0,0,0,.55,1.68,1.85,1.85,0,0,0,1.46.62,1.73,1.73,0,0,0,1.43-.61,2.62,2.62,0,0,0,.5-1.71,2.71,2.71,0,0,0-.5-1.74A1.76,1.76,0,0,0,105.84,155.91Z" fill="#1e1e1e"/>
      <path d="M115,155.25l-2.39,6h-1l-2.27-6h1.06l1.52,4.36a4.38,4.38,0,0,1,.21.83h0a3.7,3.7,0,0,1,.19-.81l1.59-4.38Z" fill="#1e1e1e"/>
      <path d="M116.53,153.72a.64.64,0,0,1-.44-.17.65.65,0,0,1,0-.9.6.6,0,0,1,.44-.18.62.62,0,0,1,.63.63.6.6,0,0,1-.18.44A.61.61,0,0,1,116.53,153.72Zm.47,7.53h-1v-6h1Z" fill="#1e1e1e"/>
      <path d="M124.07,161.25h-1v-1h0a2.21,2.21,0,0,1-2.06,1.16,2.24,2.24,0,0,1-1.81-.81,3.31,3.31,0,0,1-.67-2.19,3.6,3.6,0,0,1,.75-2.39,2.45,2.45,0,0,1,2-.89,1.91,1.91,0,0,1,1.8,1h0v-3.72h1Zm-1-2.72v-.88a1.7,1.7,0,0,0-.48-1.23,1.62,1.62,0,0,0-1.22-.51,1.68,1.68,0,0,0-1.39.65,2.85,2.85,0,0,0-.5,1.78A2.56,2.56,0,0,0,120,160a1.6,1.6,0,0,0,1.3.6,1.64,1.64,0,0,0,1.3-.58A2.16,2.16,0,0,0,123.11,158.53Z" fill="#1e1e1e"/>
      <path d="M130.83,158.49H126.6a2.18,2.18,0,0,0,.54,1.54,1.82,1.82,0,0,0,1.41.55,2.94,2.94,0,0,0,1.87-.67v.9a3.45,3.45,0,0,1-2.09.58,2.55,2.55,0,0,1-2-.82,3.33,3.33,0,0,1-.73-2.3,3.29,3.29,0,0,1,.8-2.28,2.51,2.51,0,0,1,2-.88,2.25,2.25,0,0,1,1.82.76,3.17,3.17,0,0,1,.64,2.11Zm-1-.82a2,2,0,0,0-.4-1.29,1.38,1.38,0,0,0-1.1-.47,1.56,1.56,0,0,0-1.15.49,2.16,2.16,0,0,0-.59,1.27Z" fill="#1e1e1e"/>
      <path d="M135.42,156.22a1.18,1.18,0,0,0-.73-.19,1.23,1.23,0,0,0-1,.58,2.7,2.7,0,0,0-.41,1.58v3.06h-1v-6h1v1.23h0a2.09,2.09,0,0,1,.63-1,1.4,1.4,0,0,1,.94-.36,1.75,1.75,0,0,1,.58.08Z" fill="#1e1e1e"/>
      <path d="M136.1,161v-1a2.87,2.87,0,0,0,1.72.58c.85,0,1.27-.28,1.27-.85a.72.72,0,0,0-.11-.4,1.17,1.17,0,0,0-.29-.3,2.56,2.56,0,0,0-.44-.23l-.53-.21c-.27-.11-.5-.22-.7-.32a2.23,2.23,0,0,1-.51-.37,1.31,1.31,0,0,1-.3-.46,1.57,1.57,0,0,1-.1-.6,1.44,1.44,0,0,1,.19-.75,1.67,1.67,0,0,1,.52-.54,2.21,2.21,0,0,1,.73-.33,3.05,3.05,0,0,1,.85-.11,3.46,3.46,0,0,1,1.4.27v1a2.71,2.71,0,0,0-1.52-.44,1.49,1.49,0,0,0-.49.07,1,1,0,0,0-.37.17.62.62,0,0,0-.24.27.64.64,0,0,0-.09.34.8.8,0,0,0,.09.39.74.74,0,0,0,.25.28,1.81,1.81,0,0,0,.39.22l.54.22c.26.1.5.21.71.31a2.44,2.44,0,0,1,.54.37,1.38,1.38,0,0,1,.34.46,1.54,1.54,0,0,1,.12.63,1.44,1.44,0,0,1-.19.77,1.74,1.74,0,0,1-.53.55,2.54,2.54,0,0,1-.75.32,3.82,3.82,0,0,1-.9.11A3.34,3.34,0,0,1,136.1,161Z" fill="#1e1e1e"/>
    </g>
    <g>
      <path d="M43.25,42.48q0,3.54-3.2,3.54-3,0-3-3.4V37.48h1v5.07c0,1.73.73,2.59,2.18,2.59s2.1-.83,2.1-2.5V37.48h1Z" fill="#1e1e1e"/>
      <path d="M44.85,45.67v-1a2.84,2.84,0,0,0,1.73.58c.85,0,1.27-.28,1.27-.84a.78.78,0,0,0-.11-.41,1,1,0,0,0-.29-.29,1.83,1.83,0,0,0-.44-.23l-.53-.22a5.16,5.16,0,0,1-.7-.32,2.21,2.21,0,0,1-.51-.36,1.41,1.41,0,0,1-.3-.46,1.57,1.57,0,0,1-.1-.6,1.44,1.44,0,0,1,.19-.75,1.78,1.78,0,0,1,.51-.55,2.77,2.77,0,0,1,.74-.33,3.41,3.41,0,0,1,.85-.11,3.46,3.46,0,0,1,1.4.27v1A2.79,2.79,0,0,0,47,40.55a1.75,1.75,0,0,0-.48.06,1.11,1.11,0,0,0-.38.18.85.85,0,0,0-.24.26.81.81,0,0,0-.08.34,1,1,0,0,0,.08.4.94.94,0,0,0,.25.28,2.48,2.48,0,0,0,.4.22l.54.22a6.85,6.85,0,0,1,.71.31,2.82,2.82,0,0,1,.54.36,1.41,1.41,0,0,1,.34.47,1.54,1.54,0,0,1,.12.63,1.49,1.49,0,0,1-.19.77,1.85,1.85,0,0,1-.53.55,2.54,2.54,0,0,1-.75.32,3.82,3.82,0,0,1-.9.1A3.54,3.54,0,0,1,44.85,45.67Z" fill="#1e1e1e"/>
      <path d="M55.13,43.12H50.89a2.28,2.28,0,0,0,.54,1.55,1.88,1.88,0,0,0,1.42.54,2.94,2.94,0,0,0,1.86-.66v.9a3.47,3.47,0,0,1-2.09.57,2.53,2.53,0,0,1-2-.81,3.34,3.34,0,0,1-.73-2.3,3.29,3.29,0,0,1,.79-2.29,2.58,2.58,0,0,1,2-.88,2.29,2.29,0,0,1,1.83.76,3.19,3.19,0,0,1,.64,2.12Zm-1-.81a2,2,0,0,0-.4-1.3,1.4,1.4,0,0,0-1.1-.46,1.54,1.54,0,0,0-1.16.49,2.21,2.21,0,0,0-.58,1.27Z" fill="#1e1e1e"/>
      <path d="M64,45.61a3.19,3.19,0,0,1-1.64.41,2.68,2.68,0,0,1-2.07-.83A3,3,0,0,1,59.46,43a3.32,3.32,0,0,1,.85-2.38,3,3,0,0,1,2.27-.9A3.06,3.06,0,0,1,64,40v1a2.45,2.45,0,0,0-1.43-.47,2,2,0,0,0-1.51.66,2.51,2.51,0,0,0-.58,1.73A2.4,2.4,0,0,0,61,44.61a1.91,1.91,0,0,0,1.48.6A2.39,2.39,0,0,0,64,44.69Z" fill="#1e1e1e"/>
      <path d="M69.71,45.88h-1V45h0A2,2,0,0,1,66.88,46a1.93,1.93,0,0,1-1.4-.47A1.65,1.65,0,0,1,65,44.29c0-1.12.66-1.77,2-2l1.8-.25c0-1-.41-1.53-1.24-1.53a3,3,0,0,0-2,.74v-1a3.76,3.76,0,0,1,2-.56c1.41,0,2.12.75,2.12,2.24Zm-1-3-1.45.2a2.35,2.35,0,0,0-1,.33,1,1,0,0,0-.34.84.93.93,0,0,0,.32.72,1.22,1.22,0,0,0,.83.27,1.51,1.51,0,0,0,1.18-.5,1.77,1.77,0,0,0,.47-1.26Z" fill="#1e1e1e"/>
      <path d="M71.16,45.67v-1a2.81,2.81,0,0,0,1.72.58c.85,0,1.27-.28,1.27-.84A.78.78,0,0,0,74,44a1,1,0,0,0-.29-.29,1.76,1.76,0,0,0-.43-.23l-.54-.22a5.16,5.16,0,0,1-.7-.32,2,2,0,0,1-.5-.36,1.29,1.29,0,0,1-.31-.46,1.57,1.57,0,0,1-.1-.6,1.44,1.44,0,0,1,.19-.75,1.7,1.7,0,0,1,.52-.55,2.71,2.71,0,0,1,.73-.33,3.59,3.59,0,0,1,2.25.16v1a2.78,2.78,0,0,0-1.52-.43,1.83,1.83,0,0,0-.49.06,1.06,1.06,0,0,0-.37.18.66.66,0,0,0-.24.26.69.69,0,0,0-.09.34.78.78,0,0,0,.34.68,2.36,2.36,0,0,0,.39.22l.54.22a6.85,6.85,0,0,1,.71.31,2.82,2.82,0,0,1,.54.36,1.41,1.41,0,0,1,.34.47,1.54,1.54,0,0,1,.12.63,1.49,1.49,0,0,1-.19.77,1.74,1.74,0,0,1-.53.55,2.43,2.43,0,0,1-.75.32,3.82,3.82,0,0,1-.9.1A3.47,3.47,0,0,1,71.16,45.67Z" fill="#1e1e1e"/>
      <path d="M81.43,43.12H77.2a2.19,2.19,0,0,0,.54,1.55,1.85,1.85,0,0,0,1.41.54A3,3,0,0,0,81,44.55v.9a3.52,3.52,0,0,1-2.09.57,2.54,2.54,0,0,1-2-.81,3.34,3.34,0,0,1-.73-2.3,3.29,3.29,0,0,1,.8-2.29,2.55,2.55,0,0,1,2-.88,2.28,2.28,0,0,1,1.82.76,3.19,3.19,0,0,1,.64,2.12Zm-1-.81a2,2,0,0,0-.4-1.3,1.4,1.4,0,0,0-1.1-.46,1.56,1.56,0,0,0-1.16.49,2.21,2.21,0,0,0-.58,1.27Z" fill="#1e1e1e"/>
      <path d="M82.52,45.67v-1a2.84,2.84,0,0,0,1.73.58c.85,0,1.27-.28,1.27-.84a.78.78,0,0,0-.11-.41,1,1,0,0,0-.29-.29,1.83,1.83,0,0,0-.44-.23l-.53-.22a5.16,5.16,0,0,1-.7-.32,2.21,2.21,0,0,1-.51-.36,1.41,1.41,0,0,1-.3-.46,1.57,1.57,0,0,1-.1-.6,1.44,1.44,0,0,1,.19-.75,1.78,1.78,0,0,1,.51-.55,2.77,2.77,0,0,1,.74-.33,3.41,3.41,0,0,1,.85-.11,3.46,3.46,0,0,1,1.4.27v1a2.79,2.79,0,0,0-1.53-.43,1.75,1.75,0,0,0-.48.06,1.11,1.11,0,0,0-.38.18.85.85,0,0,0-.24.26.81.81,0,0,0-.08.34,1,1,0,0,0,.08.4.94.94,0,0,0,.25.28,2.48,2.48,0,0,0,.4.22l.54.22a6.85,6.85,0,0,1,.71.31,2.82,2.82,0,0,1,.54.36,1.41,1.41,0,0,1,.34.47,1.54,1.54,0,0,1,.12.63,1.49,1.49,0,0,1-.19.77,1.85,1.85,0,0,1-.53.55,2.54,2.54,0,0,1-.75.32,3.82,3.82,0,0,1-.9.1A3.54,3.54,0,0,1,82.52,45.67Z" fill="#1e1e1e"/>
      <path d="M88.31,41.05a.62.62,0,0,1-.46-.19.65.65,0,0,1,.93-.92.65.65,0,0,1,0,.92A.63.63,0,0,1,88.31,41.05Zm0,5a.62.62,0,0,1-.46-.19.66.66,0,0,1-.19-.46.68.68,0,0,1,.19-.47.64.64,0,0,1,.93,0,.64.64,0,0,1,.19.47.62.62,0,0,1-.19.46A.63.63,0,0,1,88.31,46Z" fill="#1e1e1e"/>
      <path d="M98.45,45.88H94v-8.4h4.26v.89H95v2.8h3v.88H95V45h3.47Z" fill="#1e1e1e"/>
      <path d="M104.92,45.88h-1V42.46c0-1.27-.47-1.91-1.4-1.91a1.5,1.5,0,0,0-1.19.54,2,2,0,0,0-.47,1.37v3.42h-1v-6h1v1h0a2.17,2.17,0,0,1,2-1.14,1.83,1.83,0,0,1,1.51.64,2.85,2.85,0,0,1,.52,1.83Z" fill="#1e1e1e"/>
      <path d="M109.51,45.82a1.76,1.76,0,0,1-.89.19c-1.06,0-1.58-.58-1.58-1.76V40.7h-1v-.82h1V38.42l1-.31v1.77h1.51v.82H108v3.38a1.41,1.41,0,0,0,.21.87.8.8,0,0,0,.67.25,1,1,0,0,0,.63-.2Z" fill="#1e1e1e"/>
      <path d="M115.62,43.12h-4.24a2.28,2.28,0,0,0,.54,1.55,1.87,1.87,0,0,0,1.42.54,3,3,0,0,0,1.86-.66v.9a3.5,3.5,0,0,1-2.09.57,2.56,2.56,0,0,1-2-.81,3.39,3.39,0,0,1-.73-2.3,3.29,3.29,0,0,1,.8-2.29,2.58,2.58,0,0,1,2-.88,2.27,2.27,0,0,1,1.82.76,3.2,3.2,0,0,1,.65,2.12Zm-1-.81a1.91,1.91,0,0,0-.4-1.3,1.39,1.39,0,0,0-1.1-.46A1.52,1.52,0,0,0,112,41a2.22,2.22,0,0,0-.59,1.27Z" fill="#1e1e1e"/>
      <path d="M120.2,40.86a1.18,1.18,0,0,0-.73-.2,1.25,1.25,0,0,0-1,.58,2.74,2.74,0,0,0-.41,1.58v3.06h-1v-6h1v1.24h0a2.17,2.17,0,0,1,.63-1,1.47,1.47,0,0,1,.95-.35,1.44,1.44,0,0,1,.57.08Z" fill="#1e1e1e"/>
      <path d="M122.23,45h0v3.62h-1V39.88h1v1.06h0a2.26,2.26,0,0,1,2.07-1.2,2.19,2.19,0,0,1,1.81.81,3.33,3.33,0,0,1,.65,2.16,3.72,3.72,0,0,1-.73,2.41,2.45,2.45,0,0,1-2,.9A2,2,0,0,1,122.23,45Zm0-2.42v.83a1.77,1.77,0,0,0,.49,1.27,1.73,1.73,0,0,0,2.59-.15,3.09,3.09,0,0,0,.5-1.86,2.41,2.41,0,0,0-.47-1.57,1.51,1.51,0,0,0-1.25-.57,1.73,1.73,0,0,0-1.35.58A2.16,2.16,0,0,0,122.2,42.6Z" fill="#1e1e1e"/>
      <path d="M131.43,40.86a1.18,1.18,0,0,0-.73-.2,1.25,1.25,0,0,0-1,.58,2.74,2.74,0,0,0-.41,1.58v3.06h-1v-6h1v1.24h0a2.17,2.17,0,0,1,.63-1,1.44,1.44,0,0,1,.94-.35,1.52,1.52,0,0,1,.58.08Z" fill="#1e1e1e"/>
      <path d="M133,38.36a.6.6,0,0,1-.44-.18.57.57,0,0,1-.18-.44.61.61,0,0,1,.18-.45.6.6,0,0,1,.44-.18.62.62,0,0,1,.63.63.6.6,0,0,1-.18.44A.61.61,0,0,1,133,38.36Zm.47,7.52h-1v-6h1Z" fill="#1e1e1e"/>
      <path d="M135,45.67v-1a2.84,2.84,0,0,0,1.73.58c.84,0,1.27-.28,1.27-.84a.78.78,0,0,0-.11-.41.93.93,0,0,0-.3-.29,1.59,1.59,0,0,0-.43-.23l-.54-.22a6.6,6.6,0,0,1-.7-.32,2.14,2.14,0,0,1-.5-.36,1.26,1.26,0,0,1-.3-.46,1.57,1.57,0,0,1-.11-.6,1.45,1.45,0,0,1,.2-.75,1.78,1.78,0,0,1,.51-.55,2.77,2.77,0,0,1,.74-.33,3.56,3.56,0,0,1,2.24.16v1a2.76,2.76,0,0,0-1.52-.43,1.75,1.75,0,0,0-.48.06,1.11,1.11,0,0,0-.38.18.85.85,0,0,0-.24.26.81.81,0,0,0-.08.34,1,1,0,0,0,.08.4.94.94,0,0,0,.25.28,2.11,2.11,0,0,0,.4.22l.53.22a6.21,6.21,0,0,1,.72.31,2.82,2.82,0,0,1,.54.36,1.41,1.41,0,0,1,.34.47,1.54,1.54,0,0,1,.12.63,1.5,1.5,0,0,1-.2.77,1.7,1.7,0,0,1-.52.55,2.49,2.49,0,0,1-.76.32,3.68,3.68,0,0,1-.89.1A3.51,3.51,0,0,1,135,45.67Z" fill="#1e1e1e"/>
      <path d="M145.29,43.12h-4.24a2.28,2.28,0,0,0,.54,1.55,1.88,1.88,0,0,0,1.42.54,2.94,2.94,0,0,0,1.86-.66v.9a3.47,3.47,0,0,1-2.09.57,2.56,2.56,0,0,1-2-.81,3.39,3.39,0,0,1-.72-2.3,3.29,3.29,0,0,1,.79-2.29,2.58,2.58,0,0,1,2-.88,2.27,2.27,0,0,1,1.82.76,3.2,3.2,0,0,1,.65,2.12Zm-1-.81a1.91,1.91,0,0,0-.4-1.3,1.39,1.39,0,0,0-1.1-.46,1.54,1.54,0,0,0-1.15.49,2.22,2.22,0,0,0-.59,1.27Z" fill="#1e1e1e"/>
      <path d="M147.62,44.55l-.94,2.88H146l.68-2.88Z" fill="#1e1e1e"/>
      <path d="M157.75,45.88h-1v-1h0A2.22,2.22,0,0,1,154.71,46a2.25,2.25,0,0,1-1.81-.8,3.33,3.33,0,0,1-.68-2.2,3.59,3.59,0,0,1,.75-2.38,2.48,2.48,0,0,1,2-.9,2,2,0,0,1,1.8,1h0V37h1Zm-1-2.71v-.88a1.74,1.74,0,0,0-.48-1.24,1.64,1.64,0,0,0-1.22-.5,1.66,1.66,0,0,0-1.38.65,2.79,2.79,0,0,0-.5,1.78,2.53,2.53,0,0,0,.48,1.63,1.57,1.57,0,0,0,1.3.6,1.63,1.63,0,0,0,1.3-.58A2.16,2.16,0,0,0,156.79,43.17Z" fill="#1e1e1e"/>
      <path d="M164.52,43.12h-4.24a2.28,2.28,0,0,0,.54,1.55,1.88,1.88,0,0,0,1.42.54,2.94,2.94,0,0,0,1.86-.66v.9A3.47,3.47,0,0,1,162,46a2.56,2.56,0,0,1-2-.81,3.39,3.39,0,0,1-.72-2.3,3.29,3.29,0,0,1,.79-2.29,2.58,2.58,0,0,1,2-.88,2.29,2.29,0,0,1,1.83.76,3.25,3.25,0,0,1,.64,2.12Zm-1-.81a2,2,0,0,0-.41-1.3,1.38,1.38,0,0,0-1.09-.46,1.54,1.54,0,0,0-1.16.49,2.22,2.22,0,0,0-.59,1.27Z" fill="#1e1e1e"/>
      <path d="M171.09,45.88h-1v-1h0A2.21,2.21,0,0,1,168.05,46a2.25,2.25,0,0,1-1.81-.8,3.33,3.33,0,0,1-.68-2.2,3.59,3.59,0,0,1,.75-2.38,2.48,2.48,0,0,1,2-.9,2,2,0,0,1,1.8,1h0V37h1Zm-1-2.71v-.88a1.74,1.74,0,0,0-.48-1.24,1.62,1.62,0,0,0-1.22-.5,1.67,1.67,0,0,0-1.38.65,2.79,2.79,0,0,0-.5,1.78,2.53,2.53,0,0,0,.48,1.63,1.59,1.59,0,0,0,1.3.6,1.63,1.63,0,0,0,1.3-.58A2.11,2.11,0,0,0,170.13,43.17Z" fill="#1e1e1e"/>
      <path d="M173.53,38.36a.6.6,0,0,1-.44-.18.57.57,0,0,1-.18-.44.61.61,0,0,1,.18-.45.6.6,0,0,1,.44-.18.62.62,0,0,1,.63.63.6.6,0,0,1-.18.44A.61.61,0,0,1,173.53,38.36Zm.47,7.52h-1v-6h1Z" fill="#1e1e1e"/>
      <path d="M180,45.61a3.23,3.23,0,0,1-1.65.41,2.71,2.71,0,0,1-2.07-.83,3.06,3.06,0,0,1-.78-2.17,3.36,3.36,0,0,1,.84-2.38,3,3,0,0,1,2.27-.9,3.13,3.13,0,0,1,1.4.3v1a2.47,2.47,0,0,0-1.43-.47,1.92,1.92,0,0,0-1.51.66,2.52,2.52,0,0,0-.59,1.73,2.4,2.4,0,0,0,.55,1.67,1.94,1.94,0,0,0,1.49.6,2.43,2.43,0,0,0,1.48-.52Z" fill="#1e1e1e"/>
      <path d="M185.78,45.88h-1V45h0A2,2,0,0,1,183,46a2,2,0,0,1-1.4-.47,1.65,1.65,0,0,1-.51-1.26c0-1.12.66-1.77,2-2l1.8-.25q0-1.53-1.23-1.53a3,3,0,0,0-2,.74v-1a3.76,3.76,0,0,1,2-.56c1.41,0,2.11.75,2.11,2.24Zm-1-3-1.44.2a2.25,2.25,0,0,0-1,.33,1,1,0,0,0-.34.84.92.92,0,0,0,.31.72,1.25,1.25,0,0,0,.84.27,1.53,1.53,0,0,0,1.18-.5,1.76,1.76,0,0,0,.46-1.26Z" fill="#1e1e1e"/>
      <path d="M190.38,45.82a1.82,1.82,0,0,1-.9.19c-1,0-1.58-.58-1.58-1.76V40.7h-1v-.82h1V38.42l1-.31v1.77h1.51v.82h-1.51v3.38a1.41,1.41,0,0,0,.2.87.82.82,0,0,0,.68.25,1,1,0,0,0,.63-.2Z" fill="#1e1e1e"/>
      <path d="M196.48,43.12h-4.23a2.19,2.19,0,0,0,.54,1.55,1.85,1.85,0,0,0,1.41.54,3,3,0,0,0,1.87-.66v.9A3.53,3.53,0,0,1,194,46a2.53,2.53,0,0,1-2-.81,3.34,3.34,0,0,1-.73-2.3,3.29,3.29,0,0,1,.79-2.29,2.58,2.58,0,0,1,2-.88,2.28,2.28,0,0,1,1.82.76,3.19,3.19,0,0,1,.64,2.12Zm-1-.81a2,2,0,0,0-.4-1.3,1.4,1.4,0,0,0-1.1-.46,1.54,1.54,0,0,0-1.16.49,2.21,2.21,0,0,0-.58,1.27Z" fill="#1e1e1e"/>
      <path d="M203.06,45.88h-1v-1h0A2.2,2.2,0,0,1,200,46a2.27,2.27,0,0,1-1.81-.8,3.32,3.32,0,0,1-.67-2.2,3.59,3.59,0,0,1,.75-2.38,2.46,2.46,0,0,1,2-.9,1.93,1.93,0,0,1,1.8,1h0V37h1Zm-1-2.71v-.88a1.74,1.74,0,0,0-.48-1.24,1.65,1.65,0,0,0-1.22-.5,1.68,1.68,0,0,0-1.39.65,2.85,2.85,0,0,0-.5,1.78,2.53,2.53,0,0,0,.48,1.63,1.73,1.73,0,0,0,2.6,0A2.11,2.11,0,0,0,202.1,43.17Z" fill="#1e1e1e"/>
      <path d="M213.27,45.88h-1V42.43c0-1.25-.47-1.88-1.4-1.88a1.53,1.53,0,0,0-1.18.54,2,2,0,0,0-.48,1.39v3.4h-1V37h1v3.88h0a2.18,2.18,0,0,1,2-1.14c1.35,0,2,.82,2,2.45Z" fill="#1e1e1e"/>
      <path d="M217.59,46a2.79,2.79,0,0,1-2.13-.84,3.1,3.1,0,0,1-.79-2.23,3.26,3.26,0,0,1,.83-2.36,3,3,0,0,1,2.23-.85,2.69,2.69,0,0,1,2.09.83,3.23,3.23,0,0,1,.76,2.29,3.19,3.19,0,0,1-.82,2.3A2.81,2.81,0,0,1,217.59,46Zm.07-5.47a1.84,1.84,0,0,0-1.47.63,2.59,2.59,0,0,0-.54,1.74,2.46,2.46,0,0,0,.55,1.68,1.85,1.85,0,0,0,1.46.61,1.75,1.75,0,0,0,1.43-.6,2.63,2.63,0,0,0,.5-1.72,2.68,2.68,0,0,0-.5-1.73A1.73,1.73,0,0,0,217.66,40.55Z" fill="#1e1e1e"/>
      <path d="M221.75,45.67v-1a2.82,2.82,0,0,0,1.73.58q1.26,0,1.26-.84a.7.7,0,0,0-.11-.41,1,1,0,0,0-.29-.29,1.76,1.76,0,0,0-.43-.23l-.54-.22a5.79,5.79,0,0,1-.7-.32,2,2,0,0,1-.5-.36,1.29,1.29,0,0,1-.31-.46,1.57,1.57,0,0,1-.1-.6,1.44,1.44,0,0,1,.19-.75,1.7,1.7,0,0,1,.52-.55,2.71,2.71,0,0,1,.73-.33,3.49,3.49,0,0,1,.86-.11,3.41,3.41,0,0,1,1.39.27v1a2.78,2.78,0,0,0-1.52-.43,1.88,1.88,0,0,0-.49.06,1.06,1.06,0,0,0-.37.18.85.85,0,0,0-.24.26.69.69,0,0,0-.09.34.82.82,0,0,0,.09.4.94.94,0,0,0,.25.28,2.11,2.11,0,0,0,.4.22l.53.22a6,6,0,0,1,.71.31,2.3,2.3,0,0,1,.54.36,1.45,1.45,0,0,1,.35.47,1.54,1.54,0,0,1,.12.63,1.5,1.5,0,0,1-.2.77,1.82,1.82,0,0,1-.52.55,2.49,2.49,0,0,1-.76.32,3.76,3.76,0,0,1-.9.1A3.49,3.49,0,0,1,221.75,45.67Z" fill="#1e1e1e"/>
      <path d="M230,45.82a1.82,1.82,0,0,1-.9.19c-1.05,0-1.58-.58-1.58-1.76V40.7h-1v-.82h1V38.42l1-.31v1.77H230v.82h-1.52v3.38a1.41,1.41,0,0,0,.21.87.82.82,0,0,0,.68.25A1,1,0,0,0,230,45Z" fill="#1e1e1e"/>
      <path d="M231.76,38.36a.6.6,0,0,1-.44-.18.57.57,0,0,1-.18-.44.61.61,0,0,1,.18-.45.6.6,0,0,1,.44-.18.62.62,0,0,1,.63.63.6.6,0,0,1-.18.44A.61.61,0,0,1,231.76,38.36Zm.47,7.52h-1v-6h1Z" fill="#1e1e1e"/>
      <path d="M239.16,45.88h-1V42.46c0-1.27-.47-1.91-1.4-1.91a1.5,1.5,0,0,0-1.19.54,2,2,0,0,0-.47,1.37v3.42h-1v-6h1v1h0a2.16,2.16,0,0,1,2-1.14,1.79,1.79,0,0,1,1.5.64,2.79,2.79,0,0,1,.53,1.83Z" fill="#1e1e1e"/>
      <path d="M246.09,45.4q0,3.32-3.17,3.31a4.23,4.23,0,0,1-1.94-.42v-1a3.94,3.94,0,0,0,1.93.57c1.48,0,2.22-.79,2.22-2.36v-.65h0a2.43,2.43,0,0,1-3.86.34,3.16,3.16,0,0,1-.68-2.14,3.77,3.77,0,0,1,.73-2.44,2.46,2.46,0,0,1,2-.9,2,2,0,0,1,1.8,1h0v-.83h1Zm-1-2.23v-.88a1.7,1.7,0,0,0-.49-1.23,1.58,1.58,0,0,0-1.2-.51,1.7,1.7,0,0,0-1.4.65,2.91,2.91,0,0,0-.5,1.81,2.48,2.48,0,0,0,.48,1.6,1.57,1.57,0,0,0,1.28.6,1.69,1.69,0,0,0,1.32-.57A2.12,2.12,0,0,0,245.13,43.17Z" fill="#1e1e1e"/>
    </g>
    <g>
      <path d="M75.76,102.53v3.17h-1V97.3h2.31a3,3,0,0,1,2.08.66,2.31,2.31,0,0,1,.75,1.85,2.53,2.53,0,0,1-.83,2,3.14,3.14,0,0,1-2.22.77Zm0-4.34v3.44h1a2.32,2.32,0,0,0,1.56-.46,1.64,1.64,0,0,0,.53-1.32c0-1.11-.65-1.66-2-1.66Z" fill="#1e1e1e"/>
      <path d="M83.43,105.84a2.77,2.77,0,0,1-2.12-.84,3.11,3.11,0,0,1-.8-2.23,3.25,3.25,0,0,1,.83-2.36,3,3,0,0,1,2.23-.85,2.7,2.7,0,0,1,2.1.83,3.77,3.77,0,0,1-.06,4.59A2.87,2.87,0,0,1,83.43,105.84Zm.07-5.47A1.81,1.81,0,0,0,82,101a2.59,2.59,0,0,0-.54,1.74,2.46,2.46,0,0,0,.54,1.68,1.86,1.86,0,0,0,1.46.61,1.75,1.75,0,0,0,1.43-.6,2.58,2.58,0,0,0,.51-1.72,2.61,2.61,0,0,0-.51-1.73A1.73,1.73,0,0,0,83.5,100.37Z" fill="#1e1e1e"/>
      <path d="M91.08,100.67a1.14,1.14,0,0,0-.72-.19,1.21,1.21,0,0,0-1,.58,2.64,2.64,0,0,0-.41,1.58v3.06H88v-6h1v1.24h0a2.17,2.17,0,0,1,.63-1,1.39,1.39,0,0,1,.94-.35,1.44,1.44,0,0,1,.57.08Z" fill="#1e1e1e"/>
      <path d="M94.91,105.64a1.82,1.82,0,0,1-.9.19c-1.05,0-1.57-.59-1.57-1.76v-3.55h-1V99.7h1V98.24l1-.31V99.7h1.51v.82H93.4v3.38a1.45,1.45,0,0,0,.2.86.81.81,0,0,0,.68.26,1,1,0,0,0,.63-.2Z" fill="#1e1e1e"/>
      <path d="M100.49,105.7h-1v-.94h0a2.2,2.2,0,0,1-3.25.61,1.68,1.68,0,0,1-.5-1.26c0-1.12.66-1.78,2-2l1.8-.25c0-1-.41-1.53-1.24-1.53a3,3,0,0,0-2,.74v-1a3.76,3.76,0,0,1,2-.56c1.41,0,2.12.75,2.12,2.24Zm-1-3-1.45.2a2.3,2.3,0,0,0-1,.33,1,1,0,0,0-.34.84.9.9,0,0,0,.32.71,1.16,1.16,0,0,0,.83.28,1.51,1.51,0,0,0,1.18-.5,1.78,1.78,0,0,0,.47-1.27Z" fill="#1e1e1e"/>
      <path d="M103.26,105.7h-1V96.82h1Z" fill="#1e1e1e"/>
      <path d="M104.84,105.48v-1a2.84,2.84,0,0,0,1.73.58c.84,0,1.27-.28,1.27-.84a.76.76,0,0,0-.11-.41.93.93,0,0,0-.3-.29,1.94,1.94,0,0,0-.43-.24l-.54-.21a6.6,6.6,0,0,1-.7-.32,2.47,2.47,0,0,1-.5-.36,1.35,1.35,0,0,1-.3-.46,1.58,1.58,0,0,1-.11-.61,1.39,1.39,0,0,1,.2-.74,1.78,1.78,0,0,1,.51-.55,2.77,2.77,0,0,1,.74-.33,3.56,3.56,0,0,1,2.24.16v1a2.68,2.68,0,0,0-1.52-.43,1.75,1.75,0,0,0-.48.06,1.33,1.33,0,0,0-.38.17,1,1,0,0,0-.24.27.77.77,0,0,0-.08.34,1,1,0,0,0,.08.4,1.07,1.07,0,0,0,.25.28,2.11,2.11,0,0,0,.4.22l.53.22a6.21,6.21,0,0,1,.72.31,2.82,2.82,0,0,1,.54.36,1.41,1.41,0,0,1,.34.47,1.48,1.48,0,0,1,.12.63,1.5,1.5,0,0,1-.2.77,1.58,1.58,0,0,1-.52.54,2.28,2.28,0,0,1-.76.33,3.68,3.68,0,0,1-.89.1A3.39,3.39,0,0,1,104.84,105.48Z" fill="#1e1e1e"/>
    </g>
    <g>
      <path d="M223.27,119.2h-1.09l-.89-2.35h-3.57l-.83,2.35h-1.1l3.22-8.4h1ZM221,116l-1.31-3.58a2.59,2.59,0,0,1-.13-.56h0a2.59,2.59,0,0,1-.13.56L218.05,116Z" fill="#1e1e1e"/>
      <path d="M224.5,119.2v-8.4h2.32q4.45,0,4.45,4.09A4.15,4.15,0,0,1,230,118a4.55,4.55,0,0,1-3.3,1.18Zm1-7.51v6.62h1.25a3.55,3.55,0,0,0,2.57-.88,3.3,3.3,0,0,0,.92-2.51q0-3.23-3.43-3.23Z" fill="#1e1e1e"/>
      <path d="M240.47,111.69h-3.28v2.91h3v.88h-3v3.72h-1v-8.4h4.26Z" fill="#1e1e1e"/>
      <path d="M241.67,118.86V117.7a2.23,2.23,0,0,0,.48.32,3.45,3.45,0,0,0,.59.23,3.39,3.39,0,0,0,.61.15,3.09,3.09,0,0,0,.58.06,2.25,2.25,0,0,0,1.35-.34,1.26,1.26,0,0,0,.3-1.56,1.6,1.6,0,0,0-.41-.46,4.43,4.43,0,0,0-.62-.4l-.78-.4c-.29-.15-.57-.3-.82-.45a3.13,3.13,0,0,1-.66-.51,2.1,2.1,0,0,1-.45-.62,2.07,2.07,0,0,1-.16-.82,1.93,1.93,0,0,1,.26-1,2.1,2.1,0,0,1,.66-.7,3,3,0,0,1,.93-.41,4.29,4.29,0,0,1,1.07-.13,4.08,4.08,0,0,1,1.81.3v1.1a3.29,3.29,0,0,0-1.91-.51,2.79,2.79,0,0,0-.64.07,1.56,1.56,0,0,0-.58.22,1.38,1.38,0,0,0-.41.39,1.07,1.07,0,0,0-.16.58,1.22,1.22,0,0,0,.12.56,1.45,1.45,0,0,0,.36.43,3.75,3.75,0,0,0,.57.37c.23.12.48.26.78.4s.58.31.85.47a4,4,0,0,1,.71.55,2.32,2.32,0,0,1,.48.66,1.84,1.84,0,0,1,.18.83,2.14,2.14,0,0,1-.24,1,1.93,1.93,0,0,1-.66.7,2.8,2.8,0,0,1-1,.39,5.22,5.22,0,0,1-1.13.12l-.5,0-.59-.09c-.21,0-.4-.1-.58-.16A1.65,1.65,0,0,1,241.67,118.86Z" fill="#1e1e1e"/>
    </g>
    <g>
      <path d="M203.76,173.2v-8.4h2.32q4.44,0,4.44,4.09a4.14,4.14,0,0,1-1.23,3.13,4.59,4.59,0,0,1-3.3,1.18Zm1-7.51v6.62H206a3.55,3.55,0,0,0,2.57-.88,3.34,3.34,0,0,0,.92-2.51c0-2.15-1.15-3.23-3.43-3.23Z" fill="#1e1e1e"/>
      <path d="M212.54,165.68a.61.61,0,0,1-.62-.62.61.61,0,0,1,.18-.45.59.59,0,0,1,.44-.18.6.6,0,0,1,.44.18.58.58,0,0,1,.19.45.58.58,0,0,1-.19.44A.6.6,0,0,1,212.54,165.68Zm.46,7.52h-1v-6h1Z" fill="#1e1e1e"/>
      <path d="M218.08,168.17a1.18,1.18,0,0,0-.73-.19,1.23,1.23,0,0,0-1,.58,2.72,2.72,0,0,0-.41,1.58v3.06h-1v-6h1v1.24h0a2.17,2.17,0,0,1,.63-1,1.41,1.41,0,0,1,.94-.35,1.49,1.49,0,0,1,.58.08Z" fill="#1e1e1e"/>
      <path d="M223.94,170.44h-4.23a2.19,2.19,0,0,0,.54,1.55,1.85,1.85,0,0,0,1.42.54,3,3,0,0,0,1.86-.66v.9a3.52,3.52,0,0,1-2.09.57,2.52,2.52,0,0,1-2-.82,3.81,3.81,0,0,1,.07-4.58,2.53,2.53,0,0,1,2-.88,2.25,2.25,0,0,1,1.82.76,3.19,3.19,0,0,1,.64,2.12Zm-1-.81a2,2,0,0,0-.4-1.3,1.37,1.37,0,0,0-1.1-.46,1.52,1.52,0,0,0-1.15.49,2.13,2.13,0,0,0-.59,1.27Z" fill="#1e1e1e"/>
      <path d="M229.49,172.93a3.19,3.19,0,0,1-1.64.41,2.72,2.72,0,0,1-2.07-.83,3,3,0,0,1-.79-2.17,3.3,3.3,0,0,1,.85-2.38,3,3,0,0,1,2.26-.9,3.24,3.24,0,0,1,1.4.29v1a2.47,2.47,0,0,0-1.43-.47,1.93,1.93,0,0,0-1.51.66,2.5,2.5,0,0,0-.59,1.73,2.36,2.36,0,0,0,.56,1.66,1.87,1.87,0,0,0,1.48.61,2.41,2.41,0,0,0,1.48-.52Z" fill="#1e1e1e"/>
      <path d="M233.72,173.14a1.76,1.76,0,0,1-.89.19c-1.05,0-1.58-.59-1.58-1.76V168h-1v-.82h1v-1.46l1-.31v1.77h1.51V168h-1.51v3.38a1.37,1.37,0,0,0,.21.86.78.78,0,0,0,.68.26.94.94,0,0,0,.62-.2Z" fill="#1e1e1e"/>
      <path d="M237.51,173.34a2.79,2.79,0,0,1-2.12-.84,3.1,3.1,0,0,1-.79-2.23,3.24,3.24,0,0,1,.82-2.36,3,3,0,0,1,2.24-.85,2.69,2.69,0,0,1,2.09.83,3.77,3.77,0,0,1-.06,4.59A2.87,2.87,0,0,1,237.51,173.34Zm.07-5.47a1.83,1.83,0,0,0-1.46.63,2.59,2.59,0,0,0-.54,1.74,2.41,2.41,0,0,0,.55,1.68,1.84,1.84,0,0,0,1.45.61,1.77,1.77,0,0,0,1.44-.6,2.63,2.63,0,0,0,.5-1.72,2.66,2.66,0,0,0-.5-1.73A1.75,1.75,0,0,0,237.58,167.87Z" fill="#1e1e1e"/>
      <path d="M245.17,168.17a1.18,1.18,0,0,0-.73-.19,1.23,1.23,0,0,0-1,.58,2.72,2.72,0,0,0-.41,1.58v3.06h-1v-6h1v1.24h0a2.17,2.17,0,0,1,.63-1,1.41,1.41,0,0,1,.94-.35,1.52,1.52,0,0,1,.58.08Z" fill="#1e1e1e"/>
      <path d="M251,167.2l-2.76,7c-.5,1.24-1.19,1.87-2.08,1.87a2.25,2.25,0,0,1-.63-.08v-.86a1.8,1.8,0,0,0,.57.1,1.17,1.17,0,0,0,1.09-.86l.48-1.14-2.34-6h1.07l1.62,4.62c0,.06.06.21.12.46h0c0-.1.06-.25.11-.45L250,167.2Z" fill="#1e1e1e"/>
      <path d="M254.94,173v-1a2.82,2.82,0,0,0,1.73.58q1.26,0,1.26-.84a.76.76,0,0,0-.1-.41,1,1,0,0,0-.3-.29,1.94,1.94,0,0,0-.43-.24l-.54-.21a5.79,5.79,0,0,1-.7-.32,2.22,2.22,0,0,1-.5-.36,1.38,1.38,0,0,1-.31-.46,1.81,1.81,0,0,1-.1-.61,1.39,1.39,0,0,1,.2-.74,1.67,1.67,0,0,1,.51-.55,2.77,2.77,0,0,1,.74-.33,3.56,3.56,0,0,1,2.24.16v1a2.7,2.7,0,0,0-1.52-.43,1.88,1.88,0,0,0-.49.06,1.4,1.4,0,0,0-.37.17,1,1,0,0,0-.24.27.66.66,0,0,0-.08.34.82.82,0,0,0,.08.4,1.07,1.07,0,0,0,.25.28,2.11,2.11,0,0,0,.4.22l.53.22a6.21,6.21,0,0,1,.72.31,2.82,2.82,0,0,1,.54.36,1.57,1.57,0,0,1,.34.47,1.48,1.48,0,0,1,.12.63,1.5,1.5,0,0,1-.2.77,1.58,1.58,0,0,1-.52.54,2.28,2.28,0,0,1-.76.33,3.68,3.68,0,0,1-.89.1A3.39,3.39,0,0,1,254.94,173Z" fill="#1e1e1e"/>
      <path d="M265.22,170.44H261a2.28,2.28,0,0,0,.54,1.55,1.87,1.87,0,0,0,1.42.54,3,3,0,0,0,1.86-.66v.9a3.5,3.5,0,0,1-2.09.57,2.53,2.53,0,0,1-2-.82,3.35,3.35,0,0,1-.72-2.3,3.28,3.28,0,0,1,.79-2.28,2.54,2.54,0,0,1,2-.88,2.24,2.24,0,0,1,1.82.76,3.2,3.2,0,0,1,.65,2.12Zm-1-.81a1.91,1.91,0,0,0-.4-1.3,1.36,1.36,0,0,0-1.1-.46,1.54,1.54,0,0,0-1.15.49,2.19,2.19,0,0,0-.59,1.27Z" fill="#1e1e1e"/>
      <path d="M269.8,168.17a1.18,1.18,0,0,0-.73-.19,1.23,1.23,0,0,0-1,.58,2.72,2.72,0,0,0-.41,1.58v3.06h-1v-6h1v1.24h0a2.08,2.08,0,0,1,.62-1,1.42,1.42,0,0,1,1-.35,1.44,1.44,0,0,1,.57.08Z" fill="#1e1e1e"/>
      <path d="M275.56,167.2l-2.39,6h-.94l-2.28-6H271l1.52,4.36a4.27,4.27,0,0,1,.21.84h0a4.7,4.7,0,0,1,.19-.82l1.6-4.38Z" fill="#1e1e1e"/>
      <path d="M277.08,165.68a.6.6,0,0,1-.44-.18.59.59,0,0,1-.18-.44.61.61,0,0,1,.18-.45.6.6,0,0,1,.44-.18.61.61,0,0,1,.45.18.62.62,0,0,1,0,.89A.61.61,0,0,1,277.08,165.68Zm.47,7.52h-1v-6h1Z" fill="#1e1e1e"/>
      <path d="M283.59,172.93a3.19,3.19,0,0,1-1.64.41,2.72,2.72,0,0,1-2.07-.83,3,3,0,0,1-.79-2.17,3.3,3.3,0,0,1,.85-2.38,3,3,0,0,1,2.26-.9,3.24,3.24,0,0,1,1.4.29v1a2.47,2.47,0,0,0-1.43-.47,1.93,1.93,0,0,0-1.51.66,2.5,2.5,0,0,0-.59,1.73,2.36,2.36,0,0,0,.56,1.66,1.87,1.87,0,0,0,1.48.61,2.41,2.41,0,0,0,1.48-.52Z" fill="#1e1e1e"/>
      <path d="M289.86,170.44h-4.23a2.19,2.19,0,0,0,.54,1.55,1.85,1.85,0,0,0,1.41.54,3,3,0,0,0,1.87-.66v.9a3.53,3.53,0,0,1-2.1.57,2.51,2.51,0,0,1-2-.82,3.83,3.83,0,0,1,.06-4.58,2.55,2.55,0,0,1,2-.88,2.25,2.25,0,0,1,1.82.76,3.19,3.19,0,0,1,.64,2.12Zm-1-.81a2,2,0,0,0-.4-1.3,1.37,1.37,0,0,0-1.1-.46,1.54,1.54,0,0,0-1.16.49,2.18,2.18,0,0,0-.58,1.27Z" fill="#1e1e1e"/>
      <path d="M187.82,185.7h-1v-.94h0a2,2,0,0,1-1.85,1.08,2,2,0,0,1-1.4-.47,1.65,1.65,0,0,1-.51-1.26c0-1.12.66-1.78,2-2l1.8-.25c0-1-.41-1.53-1.24-1.53a3,3,0,0,0-2,.74v-1a3.76,3.76,0,0,1,2-.56c1.41,0,2.11.75,2.11,2.24Zm-1-3-1.45.2a2.25,2.25,0,0,0-1,.33.93.93,0,0,0-.34.84.89.89,0,0,0,.31.71,1.19,1.19,0,0,0,.83.28,1.51,1.51,0,0,0,1.18-.5,1.74,1.74,0,0,0,.47-1.27Z" fill="#1e1e1e"/>
      <path d="M194.75,185.7h-1v-1h0a2.21,2.21,0,0,1-2.06,1.16,2.25,2.25,0,0,1-1.81-.8,3.33,3.33,0,0,1-.68-2.2,3.57,3.57,0,0,1,.75-2.38,2.48,2.48,0,0,1,2-.9,1.93,1.93,0,0,1,1.8,1h0v-3.71h1Zm-1-2.71v-.89a1.73,1.73,0,0,0-.48-1.23,1.64,1.64,0,0,0-1.22-.5,1.66,1.66,0,0,0-1.38.64,2.81,2.81,0,0,0-.5,1.78,2.54,2.54,0,0,0,.48,1.64,1.57,1.57,0,0,0,1.3.6,1.63,1.63,0,0,0,1.3-.58A2.11,2.11,0,0,0,193.79,183Z" fill="#1e1e1e"/>
      <path d="M199.66,177.66a1.32,1.32,0,0,0-.64-.16c-.67,0-1,.43-1,1.28v.92h1.4v.82H198v5.18h-1v-5.18h-1v-.82h1v-1a2,2,0,0,1,.55-1.49,1.81,1.81,0,0,1,1.36-.55,1.86,1.86,0,0,1,.69.1Z" fill="#1e1e1e"/>
      <path d="M200.09,185.48v-1a2.82,2.82,0,0,0,1.73.58q1.26,0,1.26-.84a.76.76,0,0,0-.1-.41,1,1,0,0,0-.3-.29,1.94,1.94,0,0,0-.43-.24l-.54-.21a5.79,5.79,0,0,1-.7-.32,2.22,2.22,0,0,1-.5-.36,1.35,1.35,0,0,1-.3-.46,1.58,1.58,0,0,1-.11-.61,1.39,1.39,0,0,1,.2-.74,1.67,1.67,0,0,1,.51-.55,2.77,2.77,0,0,1,.74-.33,3.56,3.56,0,0,1,2.24.16v1a2.7,2.7,0,0,0-1.52-.43,1.88,1.88,0,0,0-.49.06,1.4,1.4,0,0,0-.37.17,1,1,0,0,0-.24.27.77.77,0,0,0-.08.34,1,1,0,0,0,.08.4,1.07,1.07,0,0,0,.25.28,2.11,2.11,0,0,0,.4.22l.53.22a6.21,6.21,0,0,1,.72.31,2.82,2.82,0,0,1,.54.36,1.57,1.57,0,0,1,.34.47,1.48,1.48,0,0,1,.12.63,1.5,1.5,0,0,1-.2.77,1.58,1.58,0,0,1-.52.54,2.28,2.28,0,0,1-.76.33,3.68,3.68,0,0,1-.89.1A3.39,3.39,0,0,1,200.09,185.48Z" fill="#1e1e1e"/>
      <path d="M205.88,185.83a.62.62,0,0,1-.46-.19.64.64,0,0,1-.19-.47.62.62,0,0,1,.19-.46.63.63,0,0,1,.46-.2.65.65,0,0,1,.47.2.62.62,0,0,1,.19.46.65.65,0,0,1-.66.66Z" fill="#1e1e1e"/>
      <path d="M212.44,185.7h-1v-.94h0a2,2,0,0,1-1.85,1.08,2,2,0,0,1-1.4-.47,1.65,1.65,0,0,1-.51-1.26c0-1.12.66-1.78,2-2l1.8-.25q0-1.53-1.23-1.53a3,3,0,0,0-2,.74v-1a3.76,3.76,0,0,1,2-.56c1.41,0,2.11.75,2.11,2.24Zm-1-3-1.45.2a2.25,2.25,0,0,0-1,.33.93.93,0,0,0-.34.84.89.89,0,0,0,.31.71,1.19,1.19,0,0,0,.83.28,1.54,1.54,0,0,0,1.19-.5,1.77,1.77,0,0,0,.46-1.27Z" fill="#1e1e1e"/>
      <path d="M218.44,180l-3.55,4.9h3.51v.82h-4.93v-.3l3.55-4.88h-3.21v-.82h4.63Z" fill="#1e1e1e"/>
      <path d="M224.53,185.7h-1v-.95h0a2,2,0,0,1-1.86,1.09c-1.43,0-2.14-.85-2.14-2.55V179.7h.95v3.43c0,1.27.49,1.9,1.46,1.9a1.47,1.47,0,0,0,1.16-.52,2,2,0,0,0,.45-1.35V179.7h1Z" fill="#1e1e1e"/>
      <path d="M229.6,180.67a1.18,1.18,0,0,0-.73-.19,1.23,1.23,0,0,0-1,.58,2.72,2.72,0,0,0-.41,1.58v3.06h-1v-6h1v1.24h0a2.17,2.17,0,0,1,.63-1,1.41,1.41,0,0,1,.94-.35,1.49,1.49,0,0,1,.58.08Z" fill="#1e1e1e"/>
      <path d="M235.46,182.94h-4.23a2.19,2.19,0,0,0,.54,1.55,1.85,1.85,0,0,0,1.41.54,3,3,0,0,0,1.87-.66v.9a3.52,3.52,0,0,1-2.09.57,2.52,2.52,0,0,1-2-.82,3.81,3.81,0,0,1,.07-4.58,2.51,2.51,0,0,1,2-.88,2.25,2.25,0,0,1,1.82.76,3.19,3.19,0,0,1,.64,2.12Zm-1-.81a2,2,0,0,0-.4-1.3,1.37,1.37,0,0,0-1.1-.46,1.52,1.52,0,0,0-1.15.49,2.13,2.13,0,0,0-.59,1.27Z" fill="#1e1e1e"/>
      <path d="M236.55,185.48v-1a2.84,2.84,0,0,0,1.73.58c.85,0,1.27-.28,1.27-.84a.76.76,0,0,0-.11-.41,1,1,0,0,0-.29-.29,2.28,2.28,0,0,0-.44-.24l-.53-.21a5.16,5.16,0,0,1-.7-.32,2.55,2.55,0,0,1-.51-.36,1.52,1.52,0,0,1-.3-.46,1.59,1.59,0,0,1-.1-.61,1.38,1.38,0,0,1,.19-.74,1.78,1.78,0,0,1,.51-.55,2.77,2.77,0,0,1,.74-.33,3.59,3.59,0,0,1,2.25.16v1a2.71,2.71,0,0,0-1.53-.43,1.75,1.75,0,0,0-.48.06,1.15,1.15,0,0,0-.37.17.91.91,0,0,0-.25.27.77.77,0,0,0-.08.34,1,1,0,0,0,.08.4,1.07,1.07,0,0,0,.25.28,2.48,2.48,0,0,0,.4.22l.54.22a6.85,6.85,0,0,1,.71.31,2.82,2.82,0,0,1,.54.36,1.41,1.41,0,0,1,.34.47,1.48,1.48,0,0,1,.12.63,1.49,1.49,0,0,1-.19.77,1.61,1.61,0,0,1-.53.54,2.32,2.32,0,0,1-.75.33,3.82,3.82,0,0,1-.9.1A3.41,3.41,0,0,1,236.55,185.48Z" fill="#1e1e1e"/>
      <path d="M244.79,185.64a1.76,1.76,0,0,1-.89.19c-1.06,0-1.58-.59-1.58-1.76v-3.55h-1v-.82h1v-1.46l1-.31v1.77h1.51v.82h-1.51v3.38a1.37,1.37,0,0,0,.21.86.78.78,0,0,0,.68.26.94.94,0,0,0,.62-.2Z" fill="#1e1e1e"/>
      <path d="M250.37,185.7h-1v-.94h0a2,2,0,0,1-1.85,1.08,2,2,0,0,1-1.4-.47,1.65,1.65,0,0,1-.51-1.26c0-1.12.66-1.78,2-2l1.8-.25c0-1-.41-1.53-1.24-1.53a3,3,0,0,0-1.95.74v-1a3.75,3.75,0,0,1,2-.56c1.42,0,2.12.75,2.12,2.24Zm-1-3-1.45.2a2.35,2.35,0,0,0-1,.33,1,1,0,0,0-.34.84.9.9,0,0,0,.32.71,1.19,1.19,0,0,0,.83.28,1.51,1.51,0,0,0,1.18-.5,1.78,1.78,0,0,0,.47-1.27Z" fill="#1e1e1e"/>
      <path d="M256.27,185.43a3.19,3.19,0,0,1-1.64.41,2.72,2.72,0,0,1-2.07-.83,3,3,0,0,1-.79-2.17,3.3,3.3,0,0,1,.85-2.38,3,3,0,0,1,2.27-.9,3.2,3.2,0,0,1,1.39.29v1a2.45,2.45,0,0,0-1.43-.47,2,2,0,0,0-1.51.66,2.5,2.5,0,0,0-.59,1.73,2.36,2.36,0,0,0,.56,1.66,1.89,1.89,0,0,0,1.48.61,2.39,2.39,0,0,0,1.48-.52Z" fill="#1e1e1e"/>
      <path d="M262.7,185.7h-1.34l-2.65-2.88h0v2.88h-1v-8.88h1v5.63h0l2.52-2.75h1.26l-2.79,2.9Z" fill="#1e1e1e"/>
      <path d="M268.67,185.7h-1v-3.46c0-1.25-.47-1.87-1.4-1.87a1.51,1.51,0,0,0-1.18.54,2,2,0,0,0-.48,1.39v3.4h-1v-8.88h1v3.88h0a2.18,2.18,0,0,1,2-1.14c1.35,0,2,.82,2,2.44Z" fill="#1e1e1e"/>
      <path d="M275.33,185.7h-1v-.95h0a2,2,0,0,1-1.85,1.09c-1.43,0-2.15-.85-2.15-2.55V179.7h1v3.43c0,1.27.48,1.9,1.45,1.9a1.47,1.47,0,0,0,1.16-.52,2,2,0,0,0,.45-1.35V179.7h1Z" fill="#1e1e1e"/>
      <path d="M278.25,184.83h0v.87h-1v-8.88h1v3.94h0a2.29,2.29,0,0,1,2.08-1.2,2.2,2.2,0,0,1,1.81.81,3.33,3.33,0,0,1,.65,2.16,3.72,3.72,0,0,1-.73,2.41,2.46,2.46,0,0,1-2,.9A2,2,0,0,1,278.25,184.83Zm0-2.42v.84a1.77,1.77,0,0,0,.48,1.26,1.73,1.73,0,0,0,2.6-.14,3.09,3.09,0,0,0,.5-1.86,2.41,2.41,0,0,0-.47-1.57,1.52,1.52,0,0,0-1.25-.57,1.7,1.7,0,0,0-1.35.58A2.15,2.15,0,0,0,278.23,182.41Z" fill="#1e1e1e"/>
      <path d="M284.66,185.83a.62.62,0,0,1-.46-.19.64.64,0,0,1-.19-.47.62.62,0,0,1,.19-.46.63.63,0,0,1,.46-.2.65.65,0,0,1,.47.2.62.62,0,0,1,.19.46.65.65,0,0,1-.66.66Z" fill="#1e1e1e"/>
      <path d="M287.89,185.7h-1v-8.88h1Z" fill="#1e1e1e"/>
      <path d="M292.34,185.84a2.77,2.77,0,0,1-2.12-.84,3.11,3.11,0,0,1-.8-2.23,3.25,3.25,0,0,1,.83-2.36,3,3,0,0,1,2.23-.85,2.71,2.71,0,0,1,2.1.83,3.77,3.77,0,0,1-.06,4.59A2.87,2.87,0,0,1,292.34,185.84Zm.07-5.47A1.81,1.81,0,0,0,291,181a2.59,2.59,0,0,0-.54,1.74,2.46,2.46,0,0,0,.54,1.68,1.86,1.86,0,0,0,1.46.61,1.75,1.75,0,0,0,1.43-.6,2.58,2.58,0,0,0,.5-1.72,2.61,2.61,0,0,0-.5-1.73A1.73,1.73,0,0,0,292.41,180.37Z" fill="#1e1e1e"/>
      <path d="M301,185.43a3.17,3.17,0,0,1-1.64.41,2.75,2.75,0,0,1-2.07-.83,3.06,3.06,0,0,1-.79-2.17,3.35,3.35,0,0,1,.85-2.38,3,3,0,0,1,2.27-.9,3.27,3.27,0,0,1,1.4.29v1a2.49,2.49,0,0,0-1.43-.47A1.92,1.92,0,0,0,298,181a2.46,2.46,0,0,0-.59,1.73,2.36,2.36,0,0,0,.55,1.66,1.91,1.91,0,0,0,1.49.61,2.38,2.38,0,0,0,1.47-.52Z" fill="#1e1e1e"/>
      <path d="M306.7,185.7h-1v-.94h0a2,2,0,0,1-1.85,1.08,2,2,0,0,1-1.4-.47,1.65,1.65,0,0,1-.51-1.26c0-1.12.66-1.78,2-2l1.8-.25c0-1-.41-1.53-1.24-1.53a3,3,0,0,0-1.95.74v-1a3.76,3.76,0,0,1,2-.56c1.41,0,2.11.75,2.11,2.24Zm-1-3-1.45.2a2.25,2.25,0,0,0-1,.33.93.93,0,0,0-.34.84.89.89,0,0,0,.31.71,1.19,1.19,0,0,0,.83.28,1.55,1.55,0,0,0,1.19-.5,1.77,1.77,0,0,0,.46-1.27Z" fill="#1e1e1e"/>
      <path d="M309.47,185.7h-1v-8.88h1Z" fill="#1e1e1e"/>
    </g>
    <g>
      <path d="M410.62,114.23h-4.46v-8.4h4.27v.89h-3.28v2.8h3v.88h-3v2.94h3.47Z" fill="#1e1e1e"/>
      <path d="M417.09,114.23h-1v-3.42c0-1.27-.47-1.91-1.4-1.91a1.5,1.5,0,0,0-1.19.54,2,2,0,0,0-.47,1.37v3.42h-1v-6h1v1h0a2.16,2.16,0,0,1,2-1.14,1.81,1.81,0,0,1,1.5.64,2.79,2.79,0,0,1,.53,1.83Z" fill="#1e1e1e"/>
      <path d="M421.68,114.17a1.82,1.82,0,0,1-.9.19c-1,0-1.57-.58-1.57-1.76v-3.55h-1v-.82h1v-1.46l1-.31v1.77h1.51v.82h-1.51v3.38a1.43,1.43,0,0,0,.2.86.81.81,0,0,0,.68.26,1,1,0,0,0,.63-.2Z" fill="#1e1e1e"/>
      <path d="M427.79,111.47h-4.24a2.19,2.19,0,0,0,.54,1.55,1.85,1.85,0,0,0,1.42.54,3,3,0,0,0,1.86-.66v.9a3.52,3.52,0,0,1-2.09.57,2.54,2.54,0,0,1-2-.81,3.34,3.34,0,0,1-.73-2.3,3.29,3.29,0,0,1,.8-2.29,2.56,2.56,0,0,1,2-.88,2.28,2.28,0,0,1,1.82.76,3.2,3.2,0,0,1,.65,2.12Zm-1-.81a2,2,0,0,0-.4-1.3,1.36,1.36,0,0,0-1.1-.46,1.52,1.52,0,0,0-1.15.49,2.13,2.13,0,0,0-.59,1.27Z" fill="#1e1e1e"/>
      <path d="M432.37,109.21a1.18,1.18,0,0,0-.73-.2,1.25,1.25,0,0,0-1,.58,2.74,2.74,0,0,0-.41,1.58v3.06h-1v-6h1v1.24h0a2.17,2.17,0,0,1,.63-1,1.46,1.46,0,0,1,.94-.35,1.52,1.52,0,0,1,.58.08Z" fill="#1e1e1e"/>
      <path d="M434.39,113.37h0V117h-1v-8.76h1v1.06h0a2.29,2.29,0,0,1,2.08-1.2,2.19,2.19,0,0,1,1.81.81,3.33,3.33,0,0,1,.65,2.16,3.72,3.72,0,0,1-.73,2.41,2.46,2.46,0,0,1-2,.9A2,2,0,0,1,434.39,113.37Zm0-2.42v.83a1.81,1.81,0,0,0,.48,1.27,1.64,1.64,0,0,0,1.23.51,1.62,1.62,0,0,0,1.37-.66A3.09,3.09,0,0,0,438,111a2.41,2.41,0,0,0-.47-1.57,1.52,1.52,0,0,0-1.25-.57,1.7,1.7,0,0,0-1.35.58A2.16,2.16,0,0,0,434.37,111Z" fill="#1e1e1e"/>
      <path d="M443.59,109.21a1.14,1.14,0,0,0-.72-.2,1.24,1.24,0,0,0-1,.58,2.67,2.67,0,0,0-.41,1.58v3.06h-1v-6h1v1.24h0a2.09,2.09,0,0,1,.63-1,1.61,1.61,0,0,1,1.51-.27Z" fill="#1e1e1e"/>
      <path d="M445.13,106.71a.6.6,0,0,1-.44-.18.57.57,0,0,1-.18-.44.61.61,0,0,1,.18-.45.6.6,0,0,1,.44-.18.64.64,0,0,1,.45.18.61.61,0,0,1,.18.45.6.6,0,0,1-.18.44A.64.64,0,0,1,445.13,106.71Zm.47,7.52h-1v-6h1Z" fill="#1e1e1e"/>
      <path d="M447.18,114v-1a2.82,2.82,0,0,0,1.73.58q1.26,0,1.26-.84a.76.76,0,0,0-.1-.41,1,1,0,0,0-.3-.29,1.76,1.76,0,0,0-.43-.23l-.54-.22a5.79,5.79,0,0,1-.7-.32,2,2,0,0,1-.5-.36,1.38,1.38,0,0,1-.31-.46,1.79,1.79,0,0,1-.1-.6,1.52,1.52,0,0,1,.19-.75,1.82,1.82,0,0,1,.52-.55,2.77,2.77,0,0,1,.74-.33,3.56,3.56,0,0,1,2.24.16v1a2.7,2.7,0,0,0-1.52-.43,1.88,1.88,0,0,0-.49.06,1.26,1.26,0,0,0-.37.17,1,1,0,0,0-.24.27.66.66,0,0,0-.08.34.82.82,0,0,0,.08.4.94.94,0,0,0,.25.28,2.11,2.11,0,0,0,.4.22l.53.22a6.21,6.21,0,0,1,.72.31,2.82,2.82,0,0,1,.54.36,1.57,1.57,0,0,1,.34.47,1.64,1.64,0,0,1-.08,1.4,1.7,1.7,0,0,1-.52.55,2.49,2.49,0,0,1-.76.32,3.68,3.68,0,0,1-.89.1A3.51,3.51,0,0,1,447.18,114Z" fill="#1e1e1e"/>
      <path d="M457.46,111.47h-4.24a2.28,2.28,0,0,0,.54,1.55,1.87,1.87,0,0,0,1.42.54,3,3,0,0,0,1.86-.66v.9a3.5,3.5,0,0,1-2.09.57,2.56,2.56,0,0,1-2-.81,3.39,3.39,0,0,1-.73-2.3A3.29,3.29,0,0,1,453,109a2.58,2.58,0,0,1,2-.88,2.27,2.27,0,0,1,1.82.76,3.2,3.2,0,0,1,.65,2.12Zm-1-.81a2,2,0,0,0-.4-1.3,1.36,1.36,0,0,0-1.1-.46,1.52,1.52,0,0,0-1.15.49,2.19,2.19,0,0,0-.59,1.27Z" fill="#1e1e1e"/>
      <path d="M423.27,126.73h-1.09l-.89-2.35h-3.57l-.83,2.35h-1.1l3.22-8.4h1ZM421,123.49l-1.31-3.58a2.59,2.59,0,0,1-.13-.56h0a2.45,2.45,0,0,1-.13.56l-1.31,3.58Z" fill="#1e1e1e"/>
      <path d="M424.5,126.73v-8.4h2.32q4.46,0,4.45,4.1a4.14,4.14,0,0,1-1.24,3.12,4.55,4.55,0,0,1-3.3,1.18Zm1-7.51v6.62h1.25a3.55,3.55,0,0,0,2.57-.88,3.3,3.3,0,0,0,.92-2.51q0-3.23-3.43-3.23Z" fill="#1e1e1e"/>
      <path d="M440.47,119.22h-3.28v2.91h3V123h-3v3.72h-1v-8.4h4.26Z" fill="#1e1e1e"/>
      <path d="M441.67,126.39v-1.16a1.91,1.91,0,0,0,.48.32,4.54,4.54,0,0,0,.59.24c.2.06.41.11.61.15a4.13,4.13,0,0,0,.58,0,2.18,2.18,0,0,0,1.35-.34,1.14,1.14,0,0,0,.45-1,1.15,1.15,0,0,0-.15-.59,1.6,1.6,0,0,0-.41-.46,4.43,4.43,0,0,0-.62-.4l-.78-.4c-.29-.15-.57-.3-.82-.45a3.46,3.46,0,0,1-.66-.5,2.28,2.28,0,0,1-.45-.63,2,2,0,0,1-.16-.82,1.93,1.93,0,0,1,.26-1,2.1,2.1,0,0,1,.66-.7,3,3,0,0,1,.93-.41,4.29,4.29,0,0,1,1.07-.13,4.08,4.08,0,0,1,1.81.3v1.11a3.22,3.22,0,0,0-1.91-.52,2.79,2.79,0,0,0-.64.07,1.75,1.75,0,0,0-.58.22,1.38,1.38,0,0,0-.41.39,1.1,1.1,0,0,0-.16.59,1.18,1.18,0,0,0,.12.55,1.45,1.45,0,0,0,.36.43,4.69,4.69,0,0,0,.57.38c.23.12.48.25.78.39s.58.31.85.47a4,4,0,0,1,.71.55,2.32,2.32,0,0,1,.48.66,1.84,1.84,0,0,1,.18.83,2.09,2.09,0,0,1-.24,1,1.93,1.93,0,0,1-.66.7,2.8,2.8,0,0,1-.95.39,5.22,5.22,0,0,1-1.13.12l-.5,0-.59-.09a3.28,3.28,0,0,1-.58-.16A1.65,1.65,0,0,1,441.67,126.39Z" fill="#1e1e1e"/>
    </g>
    <g>
      <path d="M385.9,173.2h-4.46v-8.4h4.27v.89h-3.28v2.79h3v.89h-3v2.94h3.47Z" fill="#1e1e1e"/>
      <path d="M392.37,173.2h-1v-3.42c0-1.27-.46-1.91-1.39-1.91a1.5,1.5,0,0,0-1.19.54,2,2,0,0,0-.47,1.37v3.42h-1v-6h1v1h0a2.16,2.16,0,0,1,2-1.14,1.81,1.81,0,0,1,1.5.64,2.79,2.79,0,0,1,.53,1.83Z" fill="#1e1e1e"/>
      <path d="M397,173.14a1.82,1.82,0,0,1-.9.19c-1.05,0-1.57-.59-1.57-1.76V168h-1v-.82h1v-1.46l1-.31v1.77H397V168h-1.51v3.38a1.45,1.45,0,0,0,.2.86.81.81,0,0,0,.68.26,1,1,0,0,0,.63-.2Z" fill="#1e1e1e"/>
      <path d="M403.06,170.44h-4.23a2.19,2.19,0,0,0,.54,1.55,1.85,1.85,0,0,0,1.42.54,3,3,0,0,0,1.86-.66v.9a3.52,3.52,0,0,1-2.09.57,2.52,2.52,0,0,1-2-.82,3.81,3.81,0,0,1,.07-4.58,2.53,2.53,0,0,1,2-.88,2.25,2.25,0,0,1,1.82.76,3.19,3.19,0,0,1,.64,2.12Zm-1-.81a2,2,0,0,0-.4-1.3,1.36,1.36,0,0,0-1.1-.46,1.52,1.52,0,0,0-1.15.49,2.13,2.13,0,0,0-.59,1.27Z" fill="#1e1e1e"/>
      <path d="M407.65,168.17a1.18,1.18,0,0,0-.73-.19,1.23,1.23,0,0,0-1,.58,2.72,2.72,0,0,0-.41,1.58v3.06h-1v-6h1v1.24h0a2.17,2.17,0,0,1,.63-1,1.39,1.39,0,0,1,.94-.35,1.52,1.52,0,0,1,.58.08Z" fill="#1e1e1e"/>
      <path d="M409.67,172.33h0V176h-1V167.2h1v1.06h0a2.29,2.29,0,0,1,2.08-1.2,2.19,2.19,0,0,1,1.81.81,3.33,3.33,0,0,1,.65,2.16,3.78,3.78,0,0,1-.73,2.41,2.46,2.46,0,0,1-2,.9A2,2,0,0,1,409.67,172.33Zm0-2.42v.84a1.77,1.77,0,0,0,.48,1.26,1.73,1.73,0,0,0,2.6-.14,3.09,3.09,0,0,0,.49-1.86,2.41,2.41,0,0,0-.46-1.57,1.52,1.52,0,0,0-1.25-.57,1.7,1.7,0,0,0-1.35.58A2.15,2.15,0,0,0,409.65,169.91Z" fill="#1e1e1e"/>
      <path d="M418.87,168.17a1.14,1.14,0,0,0-.72-.19,1.21,1.21,0,0,0-1,.58,2.64,2.64,0,0,0-.41,1.58v3.06h-1v-6h1v1.24h0a2.09,2.09,0,0,1,.63-1,1.39,1.39,0,0,1,.94-.35,1.44,1.44,0,0,1,.57.08Z" fill="#1e1e1e"/>
      <path d="M420.41,165.68a.6.6,0,0,1-.44-.18.59.59,0,0,1-.18-.44.61.61,0,0,1,.18-.45.6.6,0,0,1,.44-.18.64.64,0,0,1,.45.18.61.61,0,0,1,.18.45.6.6,0,0,1-.18.44A.64.64,0,0,1,420.41,165.68Zm.47,7.52h-1v-6h1Z" fill="#1e1e1e"/>
      <path d="M422.46,173v-1a2.82,2.82,0,0,0,1.73.58q1.26,0,1.26-.84a.68.68,0,0,0-.11-.41,1,1,0,0,0-.29-.29,2.19,2.19,0,0,0-.43-.24l-.54-.21a5.79,5.79,0,0,1-.7-.32,2.22,2.22,0,0,1-.5-.36,1.38,1.38,0,0,1-.31-.46,1.59,1.59,0,0,1-.1-.61,1.48,1.48,0,0,1,.19-.74,1.7,1.7,0,0,1,.52-.55,2.64,2.64,0,0,1,.74-.33,3.35,3.35,0,0,1,.85-.11,3.41,3.41,0,0,1,1.39.27v1a2.7,2.7,0,0,0-1.52-.43,1.88,1.88,0,0,0-.49.06,1.26,1.26,0,0,0-.37.17,1,1,0,0,0-.24.27.66.66,0,0,0-.08.34.82.82,0,0,0,.08.4,1.07,1.07,0,0,0,.25.28,2.11,2.11,0,0,0,.4.22l.53.22a7.07,7.07,0,0,1,.72.31,2.45,2.45,0,0,1,.53.36,1.45,1.45,0,0,1,.35.47,1.48,1.48,0,0,1,.12.63,1.5,1.5,0,0,1-.2.77,1.58,1.58,0,0,1-.52.54,2.28,2.28,0,0,1-.76.33,3.71,3.71,0,0,1-.9.1A3.37,3.37,0,0,1,422.46,173Z" fill="#1e1e1e"/>
      <path d="M432.74,170.44H428.5A2.28,2.28,0,0,0,429,172a1.87,1.87,0,0,0,1.42.54,3,3,0,0,0,1.86-.66v.9a3.5,3.5,0,0,1-2.09.57,2.52,2.52,0,0,1-2-.82,3.36,3.36,0,0,1-.73-2.3,3.29,3.29,0,0,1,.8-2.28,2.53,2.53,0,0,1,2-.88,2.25,2.25,0,0,1,1.82.76,3.2,3.2,0,0,1,.65,2.12Zm-1-.81a2,2,0,0,0-.4-1.3,1.36,1.36,0,0,0-1.1-.46,1.52,1.52,0,0,0-1.15.49,2.19,2.19,0,0,0-.59,1.27Z" fill="#1e1e1e"/>
      <path d="M444.11,173.2H443l-.89-2.35h-3.56l-.84,2.35h-1.1l3.23-8.4h1Zm-2.3-3.24-1.32-3.58a3.38,3.38,0,0,1-.13-.56h0a3.23,3.23,0,0,1-.14.56L438.89,170Z" fill="#1e1e1e"/>
      <path d="M445.35,173.2v-8.4h2.32q4.44,0,4.44,4.09a4.11,4.11,0,0,1-1.24,3.13,4.55,4.55,0,0,1-3.3,1.18Zm1-7.51v6.62h1.25a3.57,3.57,0,0,0,2.58-.88,3.34,3.34,0,0,0,.92-2.51q0-3.22-3.44-3.23Z" fill="#1e1e1e"/>
      <path d="M362.21,185.7h-1v-.94h0a2.2,2.2,0,0,1-3.25.61,1.68,1.68,0,0,1-.5-1.26c0-1.12.66-1.78,2-2l1.8-.25c0-1-.42-1.53-1.24-1.53a3,3,0,0,0-2,.74v-1a3.76,3.76,0,0,1,2-.56c1.41,0,2.12.75,2.12,2.24Zm-1-3-1.45.2a2.3,2.3,0,0,0-1,.33,1.08,1.08,0,0,0,0,1.55,1.2,1.2,0,0,0,.84.28,1.51,1.51,0,0,0,1.18-.5,1.78,1.78,0,0,0,.47-1.27Z" fill="#1e1e1e"/>
      <path d="M369.14,185.7h-1v-1h0a2.2,2.2,0,0,1-2.06,1.16,2.28,2.28,0,0,1-1.81-.8,3.32,3.32,0,0,1-.67-2.2,3.57,3.57,0,0,1,.75-2.38,2.46,2.46,0,0,1,2-.9,1.9,1.9,0,0,1,1.79,1h0v-3.71h1Zm-1-2.71v-.89a1.73,1.73,0,0,0-.48-1.23,1.78,1.78,0,0,0-2.6.14,2.81,2.81,0,0,0-.51,1.78,2.49,2.49,0,0,0,.49,1.64,1.57,1.57,0,0,0,1.29.6,1.65,1.65,0,0,0,1.31-.58A2.16,2.16,0,0,0,368.18,183Z" fill="#1e1e1e"/>
      <path d="M374.05,177.66a1.35,1.35,0,0,0-.64-.16c-.67,0-1,.43-1,1.28v.92h1.41v.82H372.4v5.18h-.95v-5.18h-1v-.82h1v-1a2,2,0,0,1,.54-1.49,1.84,1.84,0,0,1,1.36-.55,1.92,1.92,0,0,1,.7.1Z" fill="#1e1e1e"/>
      <path d="M374.48,185.48v-1a2.82,2.82,0,0,0,1.73.58q1.26,0,1.26-.84a.76.76,0,0,0-.11-.41,1,1,0,0,0-.29-.29,2.19,2.19,0,0,0-.43-.24l-.54-.21a5.16,5.16,0,0,1-.7-.32,2.22,2.22,0,0,1-.5-.36,1.38,1.38,0,0,1-.31-.46,1.59,1.59,0,0,1-.1-.61,1.38,1.38,0,0,1,.19-.74,1.7,1.7,0,0,1,.52-.55,2.71,2.71,0,0,1,.73-.33,3.49,3.49,0,0,1,.86-.11,3.45,3.45,0,0,1,1.39.27v1a2.7,2.7,0,0,0-1.52-.43,1.83,1.83,0,0,0-.49.06,1.26,1.26,0,0,0-.37.17.76.76,0,0,0-.24.27.67.67,0,0,0-.09.34.82.82,0,0,0,.09.4.92.92,0,0,0,.25.28,2.11,2.11,0,0,0,.4.22l.53.22a6.85,6.85,0,0,1,.71.31,2.82,2.82,0,0,1,.54.36,1.41,1.41,0,0,1,.34.47,1.34,1.34,0,0,1,.13.63,1.5,1.5,0,0,1-.2.77,1.61,1.61,0,0,1-.53.54,2.22,2.22,0,0,1-.75.33,3.82,3.82,0,0,1-.9.1A3.34,3.34,0,0,1,374.48,185.48Z" fill="#1e1e1e"/>
      <path d="M380.27,185.83a.6.6,0,0,1-.46-.19.64.64,0,0,1-.19-.47.62.62,0,0,1,.19-.46.63.63,0,0,1,.92,0,.63.63,0,0,1,.2.46.65.65,0,0,1-.2.47A.6.6,0,0,1,380.27,185.83Z" fill="#1e1e1e"/>
      <path d="M386.62,185.43a3.17,3.17,0,0,1-1.64.41,2.75,2.75,0,0,1-2.07-.83,3.06,3.06,0,0,1-.79-2.17,3.35,3.35,0,0,1,.85-2.38,3,3,0,0,1,2.27-.9,3.2,3.2,0,0,1,1.39.29v1a2.44,2.44,0,0,0-1.42-.47,1.92,1.92,0,0,0-1.51.66,2.46,2.46,0,0,0-.59,1.73,2.36,2.36,0,0,0,.55,1.66,1.91,1.91,0,0,0,1.49.61,2.38,2.38,0,0,0,1.47-.52Z" fill="#1e1e1e"/>
      <path d="M390.58,185.84a2.79,2.79,0,0,1-2.12-.84,3.1,3.1,0,0,1-.79-2.23,3.24,3.24,0,0,1,.82-2.36,3,3,0,0,1,2.23-.85,2.7,2.7,0,0,1,2.1.83,3.77,3.77,0,0,1-.06,4.59A2.87,2.87,0,0,1,390.58,185.84Zm.07-5.47a1.83,1.83,0,0,0-1.46.63,2.59,2.59,0,0,0-.54,1.74,2.41,2.41,0,0,0,.55,1.68,1.82,1.82,0,0,0,1.45.61,1.77,1.77,0,0,0,1.44-.6,2.63,2.63,0,0,0,.5-1.72,2.66,2.66,0,0,0-.5-1.73A1.75,1.75,0,0,0,390.65,180.37Z" fill="#1e1e1e"/>
      <path d="M398.24,180.67a1.18,1.18,0,0,0-.73-.19,1.23,1.23,0,0,0-1,.58,2.72,2.72,0,0,0-.41,1.58v3.06h-1v-6h1v1.24h0a2.17,2.17,0,0,1,.63-1,1.39,1.39,0,0,1,.94-.35,1.52,1.52,0,0,1,.58.08Z" fill="#1e1e1e"/>
      <path d="M400.26,184.83h0v3.63h-1V179.7h1v1.06h0a2.29,2.29,0,0,1,2.08-1.2,2.2,2.2,0,0,1,1.81.81,3.33,3.33,0,0,1,.65,2.16,3.78,3.78,0,0,1-.73,2.41,2.46,2.46,0,0,1-2,.9A2,2,0,0,1,400.26,184.83Zm0-2.42v.84a1.77,1.77,0,0,0,.48,1.26,1.73,1.73,0,0,0,2.6-.14,3.09,3.09,0,0,0,.49-1.86,2.41,2.41,0,0,0-.46-1.57,1.52,1.52,0,0,0-1.25-.57,1.7,1.7,0,0,0-1.35.58A2.15,2.15,0,0,0,400.24,182.41Z" fill="#1e1e1e"/>
      <path d="M406.67,185.83a.6.6,0,0,1-.46-.19.64.64,0,0,1-.19-.47.62.62,0,0,1,.19-.46.61.61,0,0,1,.46-.2.65.65,0,0,1,.47.2.62.62,0,0,1,.19.46.65.65,0,0,1-.66.66Z" fill="#1e1e1e"/>
      <path d="M413,185.43a3.23,3.23,0,0,1-1.65.41,2.75,2.75,0,0,1-2.07-.83,3.06,3.06,0,0,1-.78-2.17,3.3,3.3,0,0,1,.85-2.38,3,3,0,0,1,2.26-.9,3.27,3.27,0,0,1,1.4.29v1a2.47,2.47,0,0,0-1.43-.47,1.92,1.92,0,0,0-1.51.66,2.5,2.5,0,0,0-.59,1.73,2.36,2.36,0,0,0,.55,1.66,1.91,1.91,0,0,0,1.49.61,2.43,2.43,0,0,0,1.48-.52Z" fill="#1e1e1e"/>
      <path d="M417,185.84a2.79,2.79,0,0,1-2.13-.84,3.1,3.1,0,0,1-.79-2.23,3.24,3.24,0,0,1,.82-2.36,3,3,0,0,1,2.24-.85,2.69,2.69,0,0,1,2.09.83,3.77,3.77,0,0,1-.06,4.59A2.85,2.85,0,0,1,417,185.84Zm.07-5.47a1.84,1.84,0,0,0-1.47.63,2.59,2.59,0,0,0-.54,1.74,2.41,2.41,0,0,0,.55,1.68,1.85,1.85,0,0,0,1.46.61,1.75,1.75,0,0,0,1.43-.6,2.63,2.63,0,0,0,.5-1.72,2.66,2.66,0,0,0-.5-1.73A1.73,1.73,0,0,0,417.06,180.37Z" fill="#1e1e1e"/>
      <path d="M426.49,185.7h-1v-3.42c0-1.27-.47-1.91-1.4-1.91a1.52,1.52,0,0,0-1.19.54,2,2,0,0,0-.47,1.37v3.42h-1v-6h1v1h0a2.17,2.17,0,0,1,2-1.14,1.83,1.83,0,0,1,1.51.64,2.79,2.79,0,0,1,.52,1.83Z" fill="#1e1e1e"/>
      <path d="M431.08,185.64a1.76,1.76,0,0,1-.89.19c-1.05,0-1.58-.59-1.58-1.76v-3.55h-1v-.82h1v-1.46l1-.31v1.77h1.51v.82h-1.51v3.38a1.37,1.37,0,0,0,.21.86.78.78,0,0,0,.68.26.94.94,0,0,0,.62-.2Z" fill="#1e1e1e"/>
      <path d="M434.88,185.84a2.79,2.79,0,0,1-2.13-.84,3.1,3.1,0,0,1-.79-2.23,3.24,3.24,0,0,1,.82-2.36,3,3,0,0,1,2.24-.85,2.69,2.69,0,0,1,2.09.83,3.77,3.77,0,0,1-.06,4.59A2.85,2.85,0,0,1,434.88,185.84Zm.07-5.47a1.84,1.84,0,0,0-1.47.63,2.59,2.59,0,0,0-.54,1.74,2.41,2.41,0,0,0,.55,1.68A1.85,1.85,0,0,0,435,185a1.77,1.77,0,0,0,1.43-.6,2.63,2.63,0,0,0,.5-1.72,2.66,2.66,0,0,0-.5-1.73A1.74,1.74,0,0,0,435,180.37Z" fill="#1e1e1e"/>
      <path d="M439,185.48v-1a2.79,2.79,0,0,0,1.72.58c.85,0,1.27-.28,1.27-.84a.76.76,0,0,0-.11-.41,1,1,0,0,0-.29-.29,2.28,2.28,0,0,0-.44-.24l-.53-.21a5.16,5.16,0,0,1-.7-.32,2.55,2.55,0,0,1-.51-.36,1.52,1.52,0,0,1-.3-.46,1.59,1.59,0,0,1-.1-.61,1.38,1.38,0,0,1,.19-.74,1.7,1.7,0,0,1,.52-.55,2.71,2.71,0,0,1,.73-.33,3.59,3.59,0,0,1,2.25.16v1a2.71,2.71,0,0,0-1.53-.43,1.8,1.8,0,0,0-.48.06,1.15,1.15,0,0,0-.37.17.76.76,0,0,0-.24.27.67.67,0,0,0-.09.34.82.82,0,0,0,.09.4.92.92,0,0,0,.25.28,2,2,0,0,0,.39.22l.54.22a6.85,6.85,0,0,1,.71.31,2.82,2.82,0,0,1,.54.36,1.41,1.41,0,0,1,.34.47,1.48,1.48,0,0,1,.12.63,1.49,1.49,0,0,1-.19.77,1.61,1.61,0,0,1-.53.54,2.32,2.32,0,0,1-.75.33,3.82,3.82,0,0,1-.9.1A3.34,3.34,0,0,1,439,185.48Z" fill="#1e1e1e"/>
      <path d="M447,185.84a2.79,2.79,0,0,1-2.13-.84,3.1,3.1,0,0,1-.79-2.23,3.25,3.25,0,0,1,.83-2.36,3,3,0,0,1,2.23-.85,2.69,2.69,0,0,1,2.09.83,3.73,3.73,0,0,1-.06,4.59A2.85,2.85,0,0,1,447,185.84Zm.07-5.47a1.84,1.84,0,0,0-1.47.63,2.59,2.59,0,0,0-.54,1.74,2.46,2.46,0,0,0,.55,1.68,1.85,1.85,0,0,0,1.46.61,1.75,1.75,0,0,0,1.43-.6,2.63,2.63,0,0,0,.5-1.72,2.66,2.66,0,0,0-.5-1.73A1.73,1.73,0,0,0,447.07,180.37Z" fill="#1e1e1e"/>
      <path d="M451.86,185.83a.6.6,0,0,1-.46-.19.64.64,0,0,1-.19-.47.62.62,0,0,1,.19-.46.63.63,0,0,1,.92,0,.63.63,0,0,1,.2.46.65.65,0,0,1-.2.47A.6.6,0,0,1,451.86,185.83Z" fill="#1e1e1e"/>
      <path d="M458.21,185.43a3.17,3.17,0,0,1-1.64.41,2.75,2.75,0,0,1-2.07-.83,3.06,3.06,0,0,1-.79-2.17,3.35,3.35,0,0,1,.85-2.38,3,3,0,0,1,2.27-.9,3.2,3.2,0,0,1,1.39.29v1a2.45,2.45,0,0,0-1.43-.47,1.91,1.91,0,0,0-1.5.66,2.46,2.46,0,0,0-.59,1.73,2.36,2.36,0,0,0,.55,1.66,1.91,1.91,0,0,0,1.49.61,2.38,2.38,0,0,0,1.47-.52Z" fill="#1e1e1e"/>
      <path d="M462.17,185.84a2.79,2.79,0,0,1-2.12-.84,3.1,3.1,0,0,1-.79-2.23,3.24,3.24,0,0,1,.82-2.36,3,3,0,0,1,2.23-.85,2.7,2.7,0,0,1,2.1.83,3.77,3.77,0,0,1-.06,4.59A2.87,2.87,0,0,1,462.17,185.84Zm.07-5.47a1.83,1.83,0,0,0-1.46.63,2.59,2.59,0,0,0-.54,1.74,2.41,2.41,0,0,0,.55,1.68,1.82,1.82,0,0,0,1.45.61,1.77,1.77,0,0,0,1.44-.6,2.63,2.63,0,0,0,.5-1.72,2.66,2.66,0,0,0-.5-1.73A1.75,1.75,0,0,0,462.24,180.37Z" fill="#1e1e1e"/>
      <path d="M475.22,185.7h-1v-3.44a2.67,2.67,0,0,0-.31-1.45,1.19,1.19,0,0,0-1-.44,1.28,1.28,0,0,0-1,.56,2.16,2.16,0,0,0-.43,1.35v3.42h-1v-3.56c0-1.18-.46-1.77-1.37-1.77a1.27,1.27,0,0,0-1,.53,2.14,2.14,0,0,0-.41,1.38v3.42h-1v-6h1v1h0a2,2,0,0,1,1.86-1.09,1.71,1.71,0,0,1,1.7,1.24,2.14,2.14,0,0,1,2-1.24c1.32,0,2,.82,2,2.44Z" fill="#1e1e1e"/>
    </g>
    <g>
      <path d="M213.21,75.7h-1.09l-.89-2.35h-3.57l-.83,2.35h-1.1L209,67.3h1Zm-2.31-3.24-1.31-3.58a2.59,2.59,0,0,1-.13-.56h0a3.36,3.36,0,0,1-.13.56L208,72.46Z" fill="#1e1e1e"/>
      <path d="M214.44,75.7V67.3h2.32c3,0,4.45,1.36,4.45,4.09A4.15,4.15,0,0,1,220,74.52a4.55,4.55,0,0,1-3.3,1.18Zm1-7.51v6.62h1.25a3.55,3.55,0,0,0,2.57-.88,3.3,3.3,0,0,0,.92-2.51q0-3.23-3.43-3.23Z" fill="#1e1e1e"/>
      <path d="M232.43,75.13a5.73,5.73,0,0,1-2.82.71,3.82,3.82,0,0,1-2.91-1.16,4.26,4.26,0,0,1-1.11-3.07,4.33,4.33,0,0,1,1.24-3.2A4.2,4.2,0,0,1,230,67.16a5.47,5.47,0,0,1,2.31.44v1.09a4.44,4.44,0,0,0-2.42-.64,3,3,0,0,0-2.31,1,4.09,4.09,0,0,0-.07,5,3,3,0,0,0,2.28.91,3.42,3.42,0,0,0,1.7-.4V72.21H229.6v-.89h2.83Z" fill="#1e1e1e"/>
      <path d="M237.38,70.67a1.18,1.18,0,0,0-.73-.19,1.23,1.23,0,0,0-1,.58,2.72,2.72,0,0,0-.41,1.58V75.7h-1v-6h1v1.24h0a2.17,2.17,0,0,1,.63-1,1.41,1.41,0,0,1,.94-.35,1.52,1.52,0,0,1,.58.08Z" fill="#1e1e1e"/>
      <path d="M242.71,75.7h-1v-.94h0a2.2,2.2,0,0,1-3.25.61,1.65,1.65,0,0,1-.51-1.26c0-1.12.66-1.78,2-2l1.79-.25q0-1.53-1.23-1.53a3,3,0,0,0-2,.74v-1a3.76,3.76,0,0,1,2-.56c1.41,0,2.11.75,2.11,2.24Zm-1-3-1.44.2a2.3,2.3,0,0,0-1,.33A.93.93,0,0,0,239,74a.89.89,0,0,0,.31.71,1.2,1.2,0,0,0,.84.28,1.53,1.53,0,0,0,1.18-.5,1.77,1.77,0,0,0,.46-1.27Z" fill="#1e1e1e"/>
      <path d="M245.51,74.83h0v3.63h-1V69.7h1v1.06h0a2.26,2.26,0,0,1,2.07-1.2,2.18,2.18,0,0,1,1.81.81,3.28,3.28,0,0,1,.65,2.16,3.72,3.72,0,0,1-.73,2.41,2.44,2.44,0,0,1-2,.9A2,2,0,0,1,245.51,74.83Zm0-2.42v.84a1.77,1.77,0,0,0,.48,1.26,1.59,1.59,0,0,0,1.23.52,1.62,1.62,0,0,0,1.37-.66,3.09,3.09,0,0,0,.49-1.86,2.41,2.41,0,0,0-.46-1.57,1.54,1.54,0,0,0-1.26-.57A1.69,1.69,0,0,0,246,71,2.15,2.15,0,0,0,245.49,72.41Z" fill="#1e1e1e"/>
      <path d="M256.56,75.7h-1V72.24c0-1.25-.47-1.87-1.39-1.87a1.53,1.53,0,0,0-1.19.54,2,2,0,0,0-.48,1.39v3.4h-1V66.82h1V70.7h0a2.19,2.19,0,0,1,2-1.14c1.35,0,2,.82,2,2.44Z" fill="#1e1e1e"/>
    </g>
    <g>
      <path d="M71.61,196.25H70.52l-.89-2.36H66.06l-.84,2.36H64.13l3.22-8.41h1ZM69.3,193,68,189.43a3.81,3.81,0,0,1-.12-.57h0a3.51,3.51,0,0,1-.13.57L66.39,193Z" fill="#1e1e1e"/>
      <path d="M73.7,195.38h0V199h-1v-8.76h1v1.05h0a2.25,2.25,0,0,1,2.07-1.19,2.18,2.18,0,0,1,1.81.8,3.31,3.31,0,0,1,.65,2.16,3.71,3.71,0,0,1-.73,2.41,2.46,2.46,0,0,1-2,.91A2,2,0,0,1,73.7,195.38Zm0-2.42v.84a1.77,1.77,0,0,0,.49,1.26,1.71,1.71,0,0,0,2.59-.15,3.07,3.07,0,0,0,.5-1.86,2.47,2.47,0,0,0-.46-1.57,1.54,1.54,0,0,0-1.26-.57,1.71,1.71,0,0,0-1.35.59A2.13,2.13,0,0,0,73.67,193Z" fill="#1e1e1e"/>
      <path d="M80.75,195.38h0V199h-1v-8.76h1v1.05h0a2.27,2.27,0,0,1,2.08-1.19,2.2,2.2,0,0,1,1.81.8,3.37,3.37,0,0,1,.65,2.16,3.71,3.71,0,0,1-.74,2.41,2.43,2.43,0,0,1-2,.91A2,2,0,0,1,80.75,195.38Zm0-2.42v.84a1.8,1.8,0,0,0,.48,1.26,1.59,1.59,0,0,0,1.23.52,1.6,1.6,0,0,0,1.37-.67,3.07,3.07,0,0,0,.49-1.86,2.41,2.41,0,0,0-.46-1.57,1.53,1.53,0,0,0-1.25-.57,1.71,1.71,0,0,0-1.35.59A2.13,2.13,0,0,0,80.73,193Z" fill="#1e1e1e"/>
      <path d="M87.78,196.25h-1v-8.89h1Z" fill="#1e1e1e"/>
      <path d="M90.22,188.72a.64.64,0,0,1-.44-.17.65.65,0,0,1,0-.9.6.6,0,0,1,.44-.18.62.62,0,0,1,.63.63.6.6,0,0,1-.18.44A.61.61,0,0,1,90.22,188.72Zm.47,7.53h-1v-6h1Z" fill="#1e1e1e"/>
      <path d="M96.72,196a3.08,3.08,0,0,1-1.64.42,2.72,2.72,0,0,1-2.07-.84,3,3,0,0,1-.79-2.16,3.37,3.37,0,0,1,.85-2.39,3,3,0,0,1,2.27-.89,3.13,3.13,0,0,1,1.4.29v1a2.49,2.49,0,0,0-1.43-.47,1.92,1.92,0,0,0-1.51.66,2.52,2.52,0,0,0-.59,1.73,2.39,2.39,0,0,0,.55,1.67,1.91,1.91,0,0,0,1.49.61,2.44,2.44,0,0,0,1.47-.52Z" fill="#1e1e1e"/>
      <path d="M102.47,196.25h-1v-.94h0a2,2,0,0,1-1.85,1.08,2,2,0,0,1-1.4-.48,1.62,1.62,0,0,1-.51-1.26q0-1.68,2-2l1.8-.26q0-1.53-1.23-1.53a3,3,0,0,0-2,.74v-1a3.68,3.68,0,0,1,2-.56c1.41,0,2.11.74,2.11,2.23Zm-1-3-1.45.2a2.25,2.25,0,0,0-1,.33,1,1,0,0,0-.34.84.91.91,0,0,0,.31.72,1.2,1.2,0,0,0,.84.28,1.56,1.56,0,0,0,1.18-.5,1.8,1.8,0,0,0,.46-1.27Z" fill="#1e1e1e"/>
      <path d="M107.07,196.19a1.94,1.94,0,0,1-.9.19c-1,0-1.58-.59-1.58-1.76v-3.55h-1v-.82h1v-1.47l1-.31v1.78h1.52v.82h-1.52v3.38a1.37,1.37,0,0,0,.21.86.83.83,0,0,0,.68.26,1.05,1.05,0,0,0,.63-.2Z" fill="#1e1e1e"/>
      <path d="M108.84,188.72a.64.64,0,0,1-.44-.17.65.65,0,0,1,0-.9.6.6,0,0,1,.44-.18.62.62,0,0,1,.63.63.6.6,0,0,1-.18.44A.61.61,0,0,1,108.84,188.72Zm.47,7.53h-1v-6h1Z" fill="#1e1e1e"/>
      <path d="M113.76,196.39a2.79,2.79,0,0,1-2.12-.84,3.12,3.12,0,0,1-.79-2.23,3.23,3.23,0,0,1,.82-2.36,3,3,0,0,1,2.23-.85,2.69,2.69,0,0,1,2.1.82,3.29,3.29,0,0,1,.75,2.29,3.21,3.21,0,0,1-.81,2.3A2.84,2.84,0,0,1,113.76,196.39Zm.07-5.48a1.83,1.83,0,0,0-1.46.63,2.59,2.59,0,0,0-.54,1.74,2.41,2.41,0,0,0,.55,1.68,1.83,1.83,0,0,0,1.45.62,1.75,1.75,0,0,0,1.44-.61,2.62,2.62,0,0,0,.5-1.71,2.71,2.71,0,0,0-.5-1.74A1.78,1.78,0,0,0,113.83,190.91Z" fill="#1e1e1e"/>
      <path d="M123.27,196.25h-1v-3.43c0-1.27-.47-1.91-1.4-1.91a1.48,1.48,0,0,0-1.19.55,2,2,0,0,0-.47,1.36v3.43h-1v-6h1v1h0a2.15,2.15,0,0,1,2-1.13,1.85,1.85,0,0,1,1.51.63,2.9,2.9,0,0,1,.52,1.84Z" fill="#1e1e1e"/>
      <path d="M124.71,196v-1a2.9,2.9,0,0,0,1.73.58c.85,0,1.27-.28,1.27-.85a.72.72,0,0,0-.11-.4,1.17,1.17,0,0,0-.29-.3,3,3,0,0,0-.44-.23l-.53-.21c-.27-.11-.5-.22-.7-.32a2.23,2.23,0,0,1-.51-.37,1.31,1.31,0,0,1-.3-.46,1.57,1.57,0,0,1-.1-.6,1.44,1.44,0,0,1,.19-.75,1.67,1.67,0,0,1,.52-.54,2.21,2.21,0,0,1,.73-.33,3.05,3.05,0,0,1,.85-.11,3.46,3.46,0,0,1,1.4.27v1a2.72,2.72,0,0,0-1.53-.44,1.43,1.43,0,0,0-.48.07,1,1,0,0,0-.37.17.62.62,0,0,0-.24.27.64.64,0,0,0-.09.34.81.81,0,0,0,.33.67,1.89,1.89,0,0,0,.4.22l.54.22c.26.1.5.21.71.31a2.44,2.44,0,0,1,.54.37,1.38,1.38,0,0,1,.34.46,1.54,1.54,0,0,1,.12.63,1.44,1.44,0,0,1-.19.77,1.74,1.74,0,0,1-.53.55,2.54,2.54,0,0,1-.75.32,3.82,3.82,0,0,1-.9.11A3.41,3.41,0,0,1,124.71,196Z" fill="#1e1e1e"/>
    </g>
  </g>
</svg>
