<svg xmlns="http://www.w3.org/2000/svg" xmlns:xlink="http://www.w3.org/1999/xlink" viewBox="0 0 413.43 267.45">
  <defs>
    <linearGradient id="linear-gradient" x1="20.44" y1="568.13" x2="20.44" y2="538.29" gradientTransform="matrix(1, 0, 0, -1, 0, 576.97)" gradientUnits="userSpaceOnUse">
      <stop offset="0" stop-color="#5ea0ef"/>
      <stop offset="0.18" stop-color="#559cec"/>
      <stop offset="0.47" stop-color="#3c91e5"/>
      <stop offset="0.84" stop-color="#1380da"/>
      <stop offset="1" stop-color="#0078d4"/>
    </linearGradient>
    <linearGradient id="linear-gradient-2" x1="15.45" y1="537.97" x2="15.45" y2="552.43" gradientTransform="matrix(1, 0, 0, -1, 0, 576.97)" gradientUnits="userSpaceOnUse">
      <stop offset="0" stop-color="#198ab3"/>
      <stop offset="0.14" stop-color="#22a5cb"/>
      <stop offset="0.3" stop-color="#29bade"/>
      <stop offset="0.47" stop-color="#2ec9eb"/>
      <stop offset="0.68" stop-color="#31d1f3"/>
      <stop offset="1" stop-color="#32d4f5"/>
    </linearGradient>
    <linearGradient id="linear-gradient-3" x1="318.8" y1="484.95" x2="318.8" y2="468.36" gradientTransform="matrix(1, 0, 0, -1, 0, 576.97)" gradientUnits="userSpaceOnUse">
      <stop offset="0.22" stop-color="#32d4f5"/>
      <stop offset="0.47" stop-color="#31d1f3"/>
      <stop offset="0.63" stop-color="#2ec9eb"/>
      <stop offset="0.77" stop-color="#29bade"/>
      <stop offset="0.89" stop-color="#22a5cb"/>
      <stop offset="1" stop-color="#198ab3"/>
    </linearGradient>
    <linearGradient id="linear-gradient-4" x1="318.39" y1="493.83" x2="319.6" y2="478.78" xlink:href="#linear-gradient-3"/>
    <linearGradient id="linear-gradient-5" x1="356.9" y1="476.9" x2="356.9" y2="495.35" gradientTransform="matrix(1, 0, 0, -1, 0, 576.97)" gradientUnits="userSpaceOnUse">
      <stop offset="0" stop-color="#5e9624"/>
      <stop offset="0.01" stop-color="#5e9724"/>
      <stop offset="0.35" stop-color="#6cab29"/>
      <stop offset="0.68" stop-color="#73b82c"/>
      <stop offset="1" stop-color="#76bc2d"/>
    </linearGradient>
    <linearGradient id="linear-gradient-6" x1="234.56" y1="546.26" x2="226.65" y2="561.25" gradientTransform="matrix(1, 0, 0, -1, 0, 576.97)" gradientUnits="userSpaceOnUse">
      <stop offset="0" stop-color="#1988d9"/>
      <stop offset="0.9" stop-color="#54aef0"/>
    </linearGradient>
    <linearGradient id="linear-gradient-7" x1="231.15" y1="550.61" x2="236.62" y2="541.18" gradientTransform="matrix(1, 0, 0, -1, 0, 576.97)" gradientUnits="userSpaceOnUse">
      <stop offset="0.1" stop-color="#54aef0"/>
      <stop offset="0.29" stop-color="#4fabee"/>
      <stop offset="0.51" stop-color="#41a2e9"/>
      <stop offset="0.74" stop-color="#2a93e0"/>
      <stop offset="0.88" stop-color="#1988d9"/>
    </linearGradient>
    <linearGradient id="linear-gradient-8" x1="-5907.65" y1="-57.14" x2="-5907.65" y2="-12.93" gradientTransform="translate(3236.88 110.23) scale(0.5)" gradientUnits="userSpaceOnUse">
      <stop offset="0" stop-color="#5ea0ef"/>
      <stop offset="0.18" stop-color="#589eed"/>
      <stop offset="0.41" stop-color="#4897e9"/>
      <stop offset="0.66" stop-color="#2e8ce1"/>
      <stop offset="0.94" stop-color="#0a7cd7"/>
      <stop offset="1" stop-color="#0078d4"/>
    </linearGradient>
  </defs>
  <g id="Shapes">
    <rect width="413.43" height="267.2" fill="#fff"/>
    <g>
      <rect x="228.43" y="29.52" width="185" height="92.68" fill="#fff"/>
      <rect x="228.43" y="29.52" width="185" height="92.68" fill="#0072c6" opacity="0.1"/>
    </g>
    <g>
      <rect x="234.14" y="57.2" width="173.58" height="60" fill="#fff"/>
      <rect x="234.14" y="57.2" width="173.58" height="60" fill="#0072c6" opacity="0.2"/>
      <rect x="234.14" y="57.2" width="173.58" height="60" fill="none" stroke="#0072c6" stroke-miterlimit="10" stroke-width="0.25" opacity="0.6"/>
    </g>
    <g>
      <rect x="21.81" y="29.52" width="155.86" height="237.68" fill="#fff"/>
      <rect x="21.81" y="29.52" width="155.86" height="237.68" fill="#0072c6" opacity="0.05"/>
      <rect x="21.81" y="29.52" width="155.86" height="237.68" fill="none" stroke="#0072c6" stroke-miterlimit="10" stroke-width="0.5" opacity="0.6"/>
    </g>
    <g id="b1186d34-5ca3-4e43-992d-40ecef5e891b">
      <g>
        <path d="M28.21,8.84H12.69a1,1,0,0,0-1,1V32a18.94,18.94,0,0,1,2.51-1.77h2.94l1.63,2.16v3.28L16.71,37.1l-2.85-.35-2.18-2.06v3a1,1,0,0,0,1,1H28.21a1,1,0,0,0,1-1V9.83A1,1,0,0,0,28.21,8.84Z" fill="url(#linear-gradient)"/>
        <path id="af47f827-8b1b-4acd-8974-8eafe35490c9" d="M14,11.94h2.85a.25.25,0,0,1,.25.25h0v3.69a.25.25,0,0,1-.25.25H14a.25.25,0,0,1-.25-.25h0V12.19a.25.25,0,0,1,.25-.25Zm5,0h2.86a.25.25,0,0,1,.24.25h0v3.69a.25.25,0,0,1-.24.25H19a.26.26,0,0,1-.25-.25h0V12.19a.25.25,0,0,1,.25-.25Zm5,0H26.9a.25.25,0,0,1,.25.25h0v3.69a.26.26,0,0,1-.25.25H24a.25.25,0,0,1-.24-.25h0V12.19a.25.25,0,0,1,.24-.25ZM14,18.61h2.85a.25.25,0,0,1,.25.24h0v3.72a.25.25,0,0,1-.25.25H14a.25.25,0,0,1-.25-.25h0V18.89a.24.24,0,0,1,.21-.28Zm5,0h2.86a.24.24,0,0,1,.24.24h0v3.72a.25.25,0,0,1-.24.25H19a.25.25,0,0,1-.25-.25h0V18.89a.25.25,0,0,1,.21-.28Zm5,0H26.9a.25.25,0,0,1,.25.24h0v3.72a.25.25,0,0,1-.25.25H24a.25.25,0,0,1-.24-.25h0V18.89a.24.24,0,0,1,.21-.28ZM14,25.34h2.85a.25.25,0,0,1,.25.25h0v3.65a.25.25,0,0,1-.25.25H14a.25.25,0,0,1-.25-.25V25.59A.25.25,0,0,1,14,25.34Zm5,0h2.86a.25.25,0,0,1,.24.25h0v3.65a.25.25,0,0,1-.24.25H19a.26.26,0,0,1-.25-.25h0V25.59A.25.25,0,0,1,19,25.34ZM19,32h2.86a.24.24,0,0,1,.24.24h0v5.46a.25.25,0,0,1-.24.25H19a.25.25,0,0,1-.25-.25V32.28A.25.25,0,0,1,19,32Zm5-6.7H26.9a.25.25,0,0,1,.25.25h0v3.65a.26.26,0,0,1-.25.25H24a.25.25,0,0,1-.24-.25h0V25.59A.25.25,0,0,1,24,25.34Z" fill="#f2f2f2"/>
        <path d="M15.49,31a2.31,2.31,0,0,0-2.2,1.77h-8a5,5,0,0,0-.15,1.15V34h8.12a2.28,2.28,0,1,0,2.2-3Z" fill="#50e6ff"/>
        <path d="M21.69,30.05a5.78,5.78,0,0,0-6-5.51A5.93,5.93,0,0,0,10,28.4,5.67,5.67,0,0,0,5.49,32h7.34a3,3,0,1,1-.05,2.6H5.3a5.67,5.67,0,0,0,5.63,4.29H21a4.65,4.65,0,0,0,4.6-4.29A4.6,4.6,0,0,0,21.69,30.05Z" fill="url(#linear-gradient-2)"/>
        <path d="M15.49,31a2.31,2.31,0,0,0-2.2,1.77h-8a3.46,3.46,0,0,1-.84-.11,4,4,0,0,1,.45-7.93h.39l.12-.36a4.54,4.54,0,0,1,4.36-3,4.69,4.69,0,0,1,4,2.25,5.9,5.9,0,0,1,1.33-.16,5.89,5.89,0,0,0-5.32-3.35,5.8,5.8,0,0,0-5.47,3.46A5.21,5.21,0,0,0,4,33.76H4A3.53,3.53,0,0,0,5.26,34h8a2.29,2.29,0,1,0,2.2-3Z" fill="#50e6ff"/>
      </g>
    </g>
    <g>
      <rect x="31.81" y="107.2" width="135.86" height="35" fill="#fff"/>
      <rect x="31.81" y="107.2" width="135.86" height="35" fill="#ccc" opacity="0.25"/>
      <rect x="31.81" y="107.2" width="135.86" height="35" fill="none" stroke="#5ea0ef" stroke-miterlimit="10" stroke-width="0.5"/>
    </g>
    <g>
      <rect x="31.81" y="72.2" width="135.86" height="25.05" fill="#fff"/>
      <rect x="31.81" y="72.2" width="135.86" height="25.05" fill="#ccc" opacity="0.25"/>
      <rect x="31.81" y="72.2" width="135.86" height="25.05" fill="none" stroke="#5ea0ef" stroke-miterlimit="10" stroke-width="0.5"/>
    </g>
    <rect x="31.81" y="192.2" width="135.86" height="35" fill="#fff" stroke="#75757a" stroke-miterlimit="10" stroke-opacity="0.3" stroke-width="0.5"/>
    <rect x="31.81" y="157.2" width="135.86" height="25.05" fill="#fff" stroke="#75757a" stroke-miterlimit="10" stroke-opacity="0.3" stroke-width="0.5"/>
    <rect x="31.81" y="237.2" width="135.86" height="25.05" fill="#fff" stroke="#75757a" stroke-miterlimit="10" stroke-opacity="0.3" stroke-width="0.5"/>
    <g>
      <g>
        <path d="M25.7,115.26a.13.13,0,0,0,.08.14l1.15.65,2,1.13a.18.18,0,0,0,.23-.06l.65-1.12a.15.15,0,0,0-.06-.21l-2.29-1.29a.17.17,0,0,1-.08-.14V104.07a.15.15,0,0,1,.08-.14l2.29-1.3a.15.15,0,0,0,.06-.21l-.65-1.12a.18.18,0,0,0-.23-.08h0L27,102.33l-1.19.67a.14.14,0,0,0-.08.14Z" fill="#949494"/>
        <path d="M27.33,104l.06-.06,2.29-1.3a.13.13,0,0,0,.08-.18s0,0,0,0l-.65-1.12a.15.15,0,0,0-.19-.09h0l-1.93,1.11-1.18.67a.06.06,0,0,0-.06.06l.89.51Z" fill="#a3a3a3"/>
        <path d="M29.68,115.77l-2.29-1.29-.07-.09-1.61,1h.05l1.14.65,2,1.11a.14.14,0,0,0,.2,0l0,0,.65-1.12a.14.14,0,0,0-.07-.18Z" fill="#a3a3a3"/>
      </g>
      <path d="M42.65,115.26a.15.15,0,0,1-.08.14l-1.16.65-1.95,1.13a.18.18,0,0,1-.23-.06L38.57,116a.16.16,0,0,1,.06-.21l2.29-1.29a.17.17,0,0,0,.08-.14V104.07a.15.15,0,0,0-.08-.14l-2.29-1.3a.16.16,0,0,1-.06-.21l.66-1.12a.17.17,0,0,1,.22-.08h0l1.91,1.09,1.2.67a.16.16,0,0,1,.08.14Z" fill="#949494"/>
      <path d="M41,104l-.06-.06-2.29-1.3a.15.15,0,0,1-.08-.18l0,0,.66-1.12a.14.14,0,0,1,.19-.09h0l1.92,1.09,1.19.67.06.06-.9.51Z" fill="#a3a3a3"/>
      <path d="M38.66,115.77,41,114.48a.28.28,0,0,0,.07-.09l1.62,1h0l-1.15.65-2,1.11a.15.15,0,0,1-.21,0v0L38.62,116A.14.14,0,0,1,38.66,115.77Z" fill="#a3a3a3"/>
      <polygon points="39.47 106.14 39.47 112.26 34.16 115.34 34.16 109.21 39.47 106.14" fill="#32bedd"/>
      <polygon points="39.47 106.14 34.17 109.22 28.87 106.14 34.17 103.06 39.47 106.14" fill="#9cebff"/>
      <polygon points="34.16 109.22 34.16 115.34 28.87 112.26 28.87 106.14 34.16 109.22" fill="#50e6ff"/>
      <polygon points="28.87 112.26 34.16 109.21 34.16 115.34 28.87 112.26" fill="#9cebff"/>
      <polygon points="39.47 112.26 34.16 109.21 34.16 115.34 39.47 112.26" fill="#50e6ff"/>
    </g>
    <g>
      <g>
        <path d="M25.7,201.26a.13.13,0,0,0,.08.14l1.15.65,2,1.13a.18.18,0,0,0,.23-.06l.65-1.12a.15.15,0,0,0-.06-.21l-2.29-1.29a.17.17,0,0,1-.08-.14V190.07a.15.15,0,0,1,.08-.14l2.29-1.3a.15.15,0,0,0,.06-.21l-.65-1.12a.18.18,0,0,0-.23-.08h0L27,188.33l-1.19.67a.14.14,0,0,0-.08.14Z" fill="#949494"/>
        <path d="M27.33,190l.06-.06,2.29-1.3a.13.13,0,0,0,.08-.18l0,0-.65-1.12a.15.15,0,0,0-.19-.09h0l-1.93,1.11-1.18.67a.06.06,0,0,0-.06.06l.89.51Z" fill="#a3a3a3"/>
        <path d="M29.68,201.77l-2.29-1.29-.07-.09-1.61,1h.05l1.14.65,2,1.11a.14.14,0,0,0,.2,0l0,0,.65-1.12a.14.14,0,0,0-.07-.18Z" fill="#a3a3a3"/>
      </g>
      <path d="M42.65,201.26a.15.15,0,0,1-.08.14l-1.16.65-1.95,1.13a.18.18,0,0,1-.23-.06L38.57,202a.16.16,0,0,1,.06-.21l2.29-1.29a.17.17,0,0,0,.08-.14V190.07a.15.15,0,0,0-.08-.14l-2.29-1.3a.16.16,0,0,1-.06-.21l.66-1.12a.17.17,0,0,1,.22-.08h0l1.91,1.09,1.2.67a.16.16,0,0,1,.08.14Z" fill="#949494"/>
      <path d="M41,190l-.06-.06-2.29-1.3a.15.15,0,0,1-.08-.18l0,0,.66-1.12a.14.14,0,0,1,.19-.09h0l1.92,1.09,1.19.67.06.06-.9.51Z" fill="#a3a3a3"/>
      <path d="M38.66,201.77,41,200.48a.28.28,0,0,0,.07-.09l1.62,1h0l-1.15.65-2,1.11a.15.15,0,0,1-.21,0v0L38.62,202A.14.14,0,0,1,38.66,201.77Z" fill="#a3a3a3"/>
      <polygon points="39.47 192.14 39.47 198.26 34.16 201.34 34.16 195.21 39.47 192.14" fill="#32bedd"/>
      <polygon points="39.47 192.14 34.17 195.22 28.87 192.14 34.17 189.06 39.47 192.14" fill="#9cebff"/>
      <polygon points="34.16 195.22 34.16 201.34 28.87 198.26 28.87 192.14 34.16 195.22" fill="#50e6ff"/>
      <polygon points="28.87 198.26 34.16 195.21 34.16 201.34 28.87 198.26" fill="#9cebff"/>
      <polygon points="39.47 198.26 34.16 195.21 34.16 201.34 39.47 198.26" fill="#50e6ff"/>
    </g>
    <g>
      <line x1="177.67" y1="84.12" x2="227.99" y2="84.12" fill="none" stroke="#3c3c41" stroke-miterlimit="10"/>
      <polygon points="226.9 87.86 233.37 84.12 226.9 80.38 226.9 87.86" fill="#3c3c41"/>
    </g>
    <g>
      <path d="M334.54,102a1.18,1.18,0,0,0,1.2-1.16v0a.58.58,0,0,0,0-.19c-.47-3.74-2.6-6.79-6.67-6.79s-6.26,2.63-6.68,6.79a1.21,1.21,0,0,0,1.08,1.31h11.1Z" fill="#0078d4"/>
      <path d="M329.06,94.75a3.61,3.61,0,0,1-2-.6l2,5.27,2-5.22A3.83,3.83,0,0,1,329.06,94.75Z" fill="#fff" opacity="0.8" style="isolation: isolate"/>
      <circle cx="329.06" cy="91" r="3.75" fill="#0078d4"/>
      <path d="M327,105.62a1.78,1.78,0,0,0,1.78-1.78.74.74,0,0,0,0-.21c-.7-5.59-3.88-10.13-9.95-10.13s-9.39,3.85-10.05,10.09a1.79,1.79,0,0,0,1.6,2H327Z" fill="url(#linear-gradient-3)"/>
      <path d="M318.92,94.83a5.58,5.58,0,0,1-3-.9l3,7.85,3-7.79A5.72,5.72,0,0,1,318.92,94.83Z" fill="#fff" opacity="0.8" style="isolation: isolate"/>
      <circle cx="318.88" cy="89.22" r="5.6" fill="url(#linear-gradient-4)"/>
    </g>
    <g>
      <path d="M354.13,94.53h5.54v5.54h-5.54Zm-6.46-7.38h5.54V81.62h-4.77a.77.77,0,0,0-.77.77Zm.77,12.92h4.77V94.53h-5.54V99.3a.78.78,0,0,0,.77.77Zm-.77-6.46h5.54V88.08h-5.54Zm12.92,6.46h4.77a.77.77,0,0,0,.76-.77V94.53h-5.53Zm-6.46-6.46h5.54V88.08h-5.54Zm6.46,0h5.53V88.08h-5.53Zm0-12v5.53h5.53V82.39a.77.77,0,0,0-.76-.77Zm-6.46,5.53h5.54V81.62h-5.54Z" fill="url(#linear-gradient-5)"/>
      <g>
        <polygon points="371.75 96.31 371.75 103.84 365.24 107.62 365.24 100.08 371.75 96.31" fill="#32bedd"/>
        <polygon points="371.75 96.31 365.24 100.09 358.73 96.3 365.24 92.52 371.75 96.31" fill="#9cebff"/>
        <polygon points="365.24 100.09 365.24 107.62 358.73 103.84 358.73 96.3 365.24 100.09" fill="#50e6ff"/>
        <polygon points="358.73 103.84 365.24 100.08 365.24 107.62 358.73 103.84" fill="#9cebff"/>
        <polygon points="371.75 103.84 365.24 100.08 365.24 107.62 371.75 103.84" fill="#50e6ff"/>
      </g>
    </g>
    <g>
      <polygon points="213.63 25.88 227.17 34.66 240.95 25.84 242.67 27.86 227.17 37.84 211.9 27.86 213.63 25.88" fill="#50e6ff"/>
      <polygon points="214.66 24.75 227.17 9.84 239.94 24.77 227.17 32.83 214.66 24.75" fill="#fff"/>
      <polygon points="227.17 9.84 227.17 32.83 214.66 24.75 227.17 9.84" fill="#50e6ff"/>
      <polygon points="227.17 9.84 227.17 32.83 239.94 24.77 227.17 9.84" fill="url(#linear-gradient-6)"/>
      <polygon points="227.17 21.72 239.94 24.77 227.17 32.83 227.17 21.72" fill="#53b1e0"/>
      <polygon points="227.17 32.83 214.66 24.75 227.17 21.72 227.17 32.83" fill="#9cebff"/>
      <polygon points="227.17 37.84 242.67 27.86 240.95 25.84 227.17 34.66 227.17 37.84" fill="url(#linear-gradient-7)"/>
    </g>
    <path d="M167.67,84.12h20V121.7a3,3,0,0,1-3,3h-17" fill="none" stroke="#3c3c41" stroke-miterlimit="10"/>
    <g>
      <path d="M212.36,208.7V102.2a5,5,0,0,1,5-5H228" fill="none" stroke="#3c3c41" stroke-miterlimit="10"/>
      <polygon points="226.9 100.94 233.37 97.2 226.9 93.46 226.9 100.94" fill="#3c3c41"/>
    </g>
    <path d="M167.67,169.72h44.41a.28.28,0,0,1,.28.29v76.71a3,3,0,0,1-3,3H167.67" fill="none" stroke="#3c3c41" stroke-miterlimit="10"/>
    <g>
      <path d="M279.71,97.09h6.65v6.63h-6.65ZM272,88.25h6.65V81.62H272.9a.92.92,0,0,0-.92.92h0Zm.92,15.47h5.73V97.09H272v5.71a.92.92,0,0,0,.92.92H273ZM272,96.05h6.65v-6.7H272Zm15.47,7.67h5.71a.92.92,0,0,0,.92-.92h0V97.09h-6.69Zm-7.67-7.67h6.52v-6.7h-6.65Zm7.67,0H294v-6.7h-6.58Zm0-14.37v6.57H294V82.54a.92.92,0,0,0-.92-.92h0Zm-7.67,6.63h6.52V81.62h-6.65Z" fill="url(#linear-gradient-8)"/>
      <polygon points="297.67 97.23 297.67 104.15 291.73 107.62 291.73 100.7 297.67 97.23" fill="#32bedd"/>
      <polygon points="297.67 97.23 291.73 100.71 285.79 97.23 291.73 93.76 297.67 97.23" fill="#9cebff"/>
      <polygon points="291.73 100.71 291.73 107.62 285.79 104.15 285.79 97.23 291.73 100.71" fill="#50e6ff"/>
      <polygon points="285.79 104.15 291.73 100.7 291.73 107.62 285.79 104.15" fill="#9cebff"/>
      <polygon points="297.67 104.15 291.73 100.7 291.73 107.62 297.67 104.15" fill="#50e6ff"/>
    </g>
    <line x1="167.67" y1="209.7" x2="212.67" y2="209.7" fill="none" stroke="#3c3c41" stroke-miterlimit="10"/>
  </g>
  <g id="Text">
    <g>
      <path d="M44.35,10.2H42.29l-.6-1.87h-3l-.59,1.87h-2l3.06-8.4h2.24ZM41.26,6.88l-.91-2.83a4.38,4.38,0,0,1-.14-.75h0A3.16,3.16,0,0,1,40,4l-.91,2.85Z" fill="#1e1e1e"/>
      <path d="M50,10.2H44.58V9.43l3-3.86H44.88V4.2H50v.92L47.09,8.84H50Z" fill="#1e1e1e"/>
      <path d="M56.67,10.2H54.82V9.29h0A2.11,2.11,0,0,1,53,10.35c-1.39,0-2.09-.84-2.09-2.53V4.2h1.85V7.66c0,.85.33,1.27,1,1.27a1,1,0,0,0,.8-.35,1.41,1.41,0,0,0,.3-1V4.2h1.85Z" fill="#1e1e1e"/>
      <path d="M62.14,5.87a1.61,1.61,0,0,0-.78-.18,1.12,1.12,0,0,0-.94.44,1.93,1.93,0,0,0-.34,1.21V10.2H58.22v-6h1.86V5.31h0A1.59,1.59,0,0,1,61.68,4.1a1.14,1.14,0,0,1,.46.07Z" fill="#1e1e1e"/>
      <path d="M68.34,7.73H64.43C64.49,8.6,65,9,66.08,9a3.24,3.24,0,0,0,1.74-.47V9.9a4.57,4.57,0,0,1-2.17.45,3,3,0,0,1-2.25-.81,3,3,0,0,1-.8-2.25,3.19,3.19,0,0,1,.86-2.36,2.91,2.91,0,0,1,2.14-.88,2.63,2.63,0,0,1,2,.78A3.05,3.05,0,0,1,68.34,7ZM66.63,6.59q0-1.29-1-1.29a1,1,0,0,0-.77.37,1.67,1.67,0,0,0-.39.92Z" fill="#1e1e1e"/>
      <path d="M72.55,9.88V8a3.68,3.68,0,0,0,1.11.65,3.63,3.63,0,0,0,1.21.21,2.35,2.35,0,0,0,.62-.07,1.39,1.39,0,0,0,.44-.17.87.87,0,0,0,.27-.27A.69.69,0,0,0,76.29,8a.77.77,0,0,0-.14-.44,1.52,1.52,0,0,0-.39-.36,3.74,3.74,0,0,0-.57-.31c-.23-.11-.47-.21-.72-.31a3.66,3.66,0,0,1-1.47-1,2.19,2.19,0,0,1-.48-1.43A2.21,2.21,0,0,1,72.78,3a2.16,2.16,0,0,1,.72-.78,3.33,3.33,0,0,1,1-.45,5.72,5.72,0,0,1,1.26-.14A6.86,6.86,0,0,1,77,1.74a4.22,4.22,0,0,1,.93.24V3.73a2.9,2.9,0,0,0-.46-.26,3.82,3.82,0,0,0-.51-.18c-.18,0-.35-.08-.52-.11l-.5,0a2.74,2.74,0,0,0-.59.06,1.62,1.62,0,0,0-.44.17.81.81,0,0,0-.28.27.6.6,0,0,0-.1.35.6.6,0,0,0,.11.37,1.08,1.08,0,0,0,.32.32,2.76,2.76,0,0,0,.49.29c.2.1.42.2.67.3a7.55,7.55,0,0,1,.9.45,3.15,3.15,0,0,1,.69.53,2.08,2.08,0,0,1,.44.69,2.4,2.4,0,0,1,.15.89A2.37,2.37,0,0,1,78,9a2,2,0,0,1-.72.77,3.15,3.15,0,0,1-1.06.43,6.61,6.61,0,0,1-1.28.13,7,7,0,0,1-1.32-.12A4,4,0,0,1,72.55,9.88Z" fill="#1e1e1e"/>
      <path d="M82.81,10.13a2.67,2.67,0,0,1-1.24.22q-1.95,0-1.95-2V5.57h-1V4.2h1V2.91l1.84-.53V4.2h1.35V5.57H81.46V8c0,.63.25.94.75.94a1.31,1.31,0,0,0,.6-.17Z" fill="#1e1e1e"/>
      <path d="M88.85,10.2H87.09V9.34h0a2,2,0,0,1-1.79,1,1.86,1.86,0,0,1-1.37-.5,1.79,1.79,0,0,1-.5-1.32q0-1.74,2.07-2l1.63-.22c0-.66-.36-1-1.07-1A3.67,3.67,0,0,0,84,6V4.56a4.67,4.67,0,0,1,1.06-.35,5.61,5.61,0,0,1,1.22-.16,2.27,2.27,0,0,1,2.57,2.57ZM87.11,7.76v-.4L86,7.5c-.61.08-.91.35-.91.81a.68.68,0,0,0,.22.52.84.84,0,0,0,.6.21,1.07,1.07,0,0,0,.85-.37A1.29,1.29,0,0,0,87.11,7.76Z" fill="#1e1e1e"/>
      <path d="M94.86,10a3.57,3.57,0,0,1-1.81.37,3,3,0,0,1-2.24-.84A2.9,2.9,0,0,1,90,7.35a3.18,3.18,0,0,1,.92-2.41,3.38,3.38,0,0,1,2.45-.89,3.13,3.13,0,0,1,1.54.29V5.91a2.13,2.13,0,0,0-1.3-.44,1.71,1.71,0,0,0-1.26.47,1.74,1.74,0,0,0-.47,1.28,1.72,1.72,0,0,0,.45,1.26,1.64,1.64,0,0,0,1.22.45,2.45,2.45,0,0,0,1.36-.43Z" fill="#1e1e1e"/>
      <path d="M102.08,10.2H99.86L98,7.22h0v3H96.07V1.32h1.85V7h0L99.73,4.2h2.2L99.78,7Z" fill="#1e1e1e"/>
      <path d="M113.54,10.2h-1.9V6.78h-3.48V10.2h-1.89V1.8h1.89V5.15h3.48V1.8h1.9Z" fill="#1e1e1e"/>
      <path d="M121,10.2h-1.84V9.29h0a2.11,2.11,0,0,1-1.83,1.06c-1.4,0-2.09-.84-2.09-2.53V4.2H117V7.66c0,.85.33,1.27,1,1.27a1,1,0,0,0,.8-.35,1.41,1.41,0,0,0,.3-1V4.2H121Z" fill="#1e1e1e"/>
      <path d="M124.42,9.5h0v.7h-1.85V1.32h1.85V5.1h0a2.19,2.19,0,0,1,2-1,2.16,2.16,0,0,1,1.79.8A3.49,3.49,0,0,1,128.78,7a3.72,3.72,0,0,1-.73,2.41,2.41,2.41,0,0,1-2,.91A1.88,1.88,0,0,1,124.42,9.5Zm0-2.53v.62a1.44,1.44,0,0,0,.33,1,1.09,1.09,0,0,0,.85.38,1.14,1.14,0,0,0,1-.49,2.4,2.4,0,0,0,.34-1.39,1.9,1.9,0,0,0-.31-1.16,1.1,1.1,0,0,0-.92-.42,1.18,1.18,0,0,0-.92.42A1.6,1.6,0,0,0,124.37,7Z" fill="#1e1e1e"/>
    </g>
    <g>
      <path d="M254,23.2H252l-.6-1.87h-3l-.59,1.87h-2.05l3.06-8.4H251Zm-3.09-3.32-.9-2.83a3.54,3.54,0,0,1-.15-.75h0a3.16,3.16,0,0,1-.15.73l-.91,2.85Z" fill="#1e1e1e"/>
      <path d="M259.64,23.2h-5.38v-.77l3-3.86h-2.72V17.2h5.07v.92l-2.86,3.72h2.88Z" fill="#1e1e1e"/>
      <path d="M266.34,23.2h-1.85v-.91h0a2.1,2.1,0,0,1-1.83,1.06c-1.39,0-2.09-.84-2.09-2.53V17.2h1.85v3.46c0,.85.33,1.27,1,1.27a1,1,0,0,0,.79-.35,1.41,1.41,0,0,0,.3-.95V17.2h1.85Z" fill="#1e1e1e"/>
      <path d="M271.81,18.87a1.61,1.61,0,0,0-.78-.18,1.12,1.12,0,0,0-.94.44,1.93,1.93,0,0,0-.34,1.21V23.2H267.9v-6h1.85v1.11h0a1.59,1.59,0,0,1,1.58-1.21,1.14,1.14,0,0,1,.46.07Z" fill="#1e1e1e"/>
      <path d="M278,20.73H274.1c.06.87.61,1.31,1.65,1.31a3.24,3.24,0,0,0,1.74-.47V22.9a4.56,4.56,0,0,1-2.16.45,2.8,2.8,0,0,1-3.06-3.06,3.23,3.23,0,0,1,.86-2.36,2.91,2.91,0,0,1,2.14-.88,2.63,2.63,0,0,1,2,.78A3,3,0,0,1,278,20Zm-1.72-1.14c0-.86-.35-1.29-1-1.29a1,1,0,0,0-.77.37,1.68,1.68,0,0,0-.4.92Z" fill="#1e1e1e"/>
      <path d="M290,23.2h-2.06l-.6-1.87h-3l-.59,1.87h-2.05l3.06-8.4H287Zm-3.1-3.32-.9-2.83a4.38,4.38,0,0,1-.14-.75h-.05a3.14,3.14,0,0,1-.14.73l-.92,2.85Z" fill="#1e1e1e"/>
      <path d="M295.41,23a3.57,3.57,0,0,1-1.81.37,3.06,3.06,0,0,1-2.24-.84,2.89,2.89,0,0,1-.85-2.16,3.17,3.17,0,0,1,.91-2.41,3.41,3.41,0,0,1,2.46-.89,3.08,3.08,0,0,1,1.53.29v1.57a2.1,2.1,0,0,0-1.29-.44,1.82,1.82,0,0,0-1.29,3,1.66,1.66,0,0,0,1.23.45,2.42,2.42,0,0,0,1.35-.43Z" fill="#1e1e1e"/>
      <path d="M300.25,23.13a2.62,2.62,0,0,1-1.23.22c-1.31,0-2-.68-2-2V18.57h-1V17.2h1V15.91l1.84-.53V17.2h1.35v1.37H298.9V21c0,.63.25.94.75.94a1.31,1.31,0,0,0,.6-.17Z" fill="#1e1e1e"/>
      <path d="M302.23,16.25a1.07,1.07,0,0,1-.77-.28.91.91,0,0,1-.29-.68.89.89,0,0,1,.29-.68,1.16,1.16,0,0,1,.77-.26,1.12,1.12,0,0,1,.77.26.87.87,0,0,1,.3.68.89.89,0,0,1-.3.69A1.08,1.08,0,0,1,302.23,16.25Zm.92,7h-1.86v-6h1.86Z" fill="#1e1e1e"/>
      <path d="M310.42,17.2l-2.23,6h-2.11l-2.13-6h2l1,3.7a5.3,5.3,0,0,1,.21,1.06h0a6.23,6.23,0,0,1,.22-1l1.06-3.73Z" fill="#1e1e1e"/>
      <path d="M316.48,20.73h-3.91c.06.87.61,1.31,1.64,1.31a3.27,3.27,0,0,0,1.75-.47V22.9a4.57,4.57,0,0,1-2.17.45,2.81,2.81,0,0,1-3.06-3.06,3.19,3.19,0,0,1,.87-2.36,2.91,2.91,0,0,1,2.13-.88,2.6,2.6,0,0,1,2,.78,3,3,0,0,1,.72,2.12Zm-1.71-1.14q0-1.29-1-1.29a1,1,0,0,0-.77.37,1.67,1.67,0,0,0-.39.92Z" fill="#1e1e1e"/>
      <path d="M321.08,23.2V14.8h3q4.49,0,4.48,4.09A4.16,4.16,0,0,1,327.31,22a4.52,4.52,0,0,1-3.26,1.17ZM323,16.34v5.33h.94a2.55,2.55,0,0,0,1.93-.74,2.82,2.82,0,0,0,.7-2,2.52,2.52,0,0,0-.7-1.89,2.64,2.64,0,0,0-1.95-.69Z" fill="#1e1e1e"/>
      <path d="M330.68,16.25a1.07,1.07,0,0,1-.77-.28.88.88,0,0,1-.3-.68.87.87,0,0,1,.3-.68,1.16,1.16,0,0,1,.77-.26,1.14,1.14,0,0,1,.77.26.87.87,0,0,1,.3.68.89.89,0,0,1-.3.69A1.1,1.1,0,0,1,330.68,16.25Zm.91,7h-1.85v-6h1.85Z" fill="#1e1e1e"/>
      <path d="M337.07,18.87a1.66,1.66,0,0,0-.78-.18,1.14,1.14,0,0,0-1,.44,2,2,0,0,0-.34,1.21V23.2h-1.85v-6H335v1.11h0a1.59,1.59,0,0,1,1.58-1.21,1.17,1.17,0,0,1,.46.07Z" fill="#1e1e1e"/>
      <path d="M343.27,20.73h-3.91c.06.87.61,1.31,1.64,1.31a3.24,3.24,0,0,0,1.74-.47V22.9a4.5,4.5,0,0,1-2.16.45,2.81,2.81,0,0,1-3.06-3.06,3.19,3.19,0,0,1,.87-2.36,2.91,2.91,0,0,1,2.13-.88,2.6,2.6,0,0,1,2,.78,3,3,0,0,1,.72,2.12Zm-1.72-1.14c0-.86-.34-1.29-1-1.29a1,1,0,0,0-.77.37,1.6,1.6,0,0,0-.39.92Z" fill="#1e1e1e"/>
      <path d="M348.92,23a3.57,3.57,0,0,1-1.81.37,3.06,3.06,0,0,1-2.24-.84,2.89,2.89,0,0,1-.85-2.16,3.17,3.17,0,0,1,.91-2.41,3.38,3.38,0,0,1,2.45-.89,3.13,3.13,0,0,1,1.54.29v1.57a2.13,2.13,0,0,0-1.3-.44,1.71,1.71,0,0,0-1.26.47,1.73,1.73,0,0,0-.46,1.28,1.71,1.71,0,0,0,.44,1.26,1.66,1.66,0,0,0,1.23.45,2.42,2.42,0,0,0,1.35-.43Z" fill="#1e1e1e"/>
      <path d="M353.76,23.13a2.67,2.67,0,0,1-1.24.22q-1.95,0-1.95-2V18.57h-1V17.2h1V15.91l1.84-.53V17.2h1.35v1.37h-1.35V21c0,.63.25.94.75.94a1.31,1.31,0,0,0,.6-.17Z" fill="#1e1e1e"/>
      <path d="M357.62,23.35a3.23,3.23,0,0,1-2.36-.84,3,3,0,0,1-.86-2.29,3,3,0,0,1,.89-2.32,3.33,3.33,0,0,1,2.41-.85,3.16,3.16,0,0,1,2.34.85,3,3,0,0,1,.85,2.22,3.15,3.15,0,0,1-.88,2.36A3.23,3.23,0,0,1,357.62,23.35Zm0-4.88a1.23,1.23,0,0,0-1,.45,2,2,0,0,0-.36,1.28c0,1.15.46,1.73,1.39,1.73s1.33-.59,1.33-1.78S358.56,18.47,357.66,18.47Z" fill="#1e1e1e"/>
      <path d="M366,18.87a1.66,1.66,0,0,0-.78-.18,1.14,1.14,0,0,0-1,.44,2,2,0,0,0-.34,1.21V23.2h-1.85v-6h1.85v1.11h0a1.59,1.59,0,0,1,1.58-1.21,1.17,1.17,0,0,1,.46.07Z" fill="#1e1e1e"/>
      <path d="M373.06,17.2l-2.44,6.48C370,25.24,369.15,26,368,26a3.44,3.44,0,0,1-1.1-.15V24.39a1.48,1.48,0,0,0,.8.22,1,1,0,0,0,1-.68l.31-.74-2.44-6h2.06l1.11,3.65a4.15,4.15,0,0,1,.17.8h0a5.71,5.71,0,0,1,.2-.79l1.13-3.66Z" fill="#1e1e1e"/>
    </g>
    <g>
      <path d="M73.08,122.45H72l-.89-2.36H67.54l-.84,2.36H65.6l3.23-8.4h1Zm-2.3-3.24-1.32-3.58a3.55,3.55,0,0,1-.13-.57h0a3.38,3.38,0,0,1-.14.57l-1.3,3.58Z" fill="#1e1e1e"/>
      <path d="M79.31,122.45h-1v-1h0a2.42,2.42,0,0,1-3.87.35,3.24,3.24,0,0,1-.68-2.19,3.62,3.62,0,0,1,.75-2.39,2.48,2.48,0,0,1,2-.89,1.93,1.93,0,0,1,1.8,1h0v-3.72h1Zm-1-2.72v-.88a1.73,1.73,0,0,0-.48-1.23,1.6,1.6,0,0,0-1.22-.5,1.64,1.64,0,0,0-1.38.64,2.79,2.79,0,0,0-.51,1.78,2.51,2.51,0,0,0,.49,1.64,1.57,1.57,0,0,0,1.29.6,1.65,1.65,0,0,0,1.31-.58A2.2,2.2,0,0,0,78.35,119.73Z" fill="#1e1e1e"/>
      <path d="M89.77,122.45h-1V119a2.66,2.66,0,0,0-.3-1.44,1.17,1.17,0,0,0-1-.44,1.25,1.25,0,0,0-1,.56A2.12,2.12,0,0,0,86,119v3.42H85v-3.56c0-1.18-.45-1.77-1.36-1.77a1.24,1.24,0,0,0-1,.53,2.14,2.14,0,0,0-.41,1.38v3.42h-1v-6h1v1h0a2,2,0,0,1,1.86-1.09,1.76,1.76,0,0,1,1.08.34,1.73,1.73,0,0,1,.62.9,2.14,2.14,0,0,1,2-1.24c1.32,0,2,.81,2,2.44Z" fill="#1e1e1e"/>
      <path d="M92.08,114.92a.63.63,0,0,1-.44-1.07.66.66,0,0,1,.44-.17.64.64,0,0,1,.45.17.62.62,0,0,1,.19.45.6.6,0,0,1-.19.44A.61.61,0,0,1,92.08,114.92Zm.47,7.53h-1v-6h1Z" fill="#1e1e1e"/>
      <path d="M99.48,122.45h-1V119c0-1.28-.47-1.91-1.4-1.91a1.5,1.5,0,0,0-1.19.54,2,2,0,0,0-.47,1.37v3.42h-1v-6h1v1h0a2.18,2.18,0,0,1,2-1.13,1.85,1.85,0,0,1,1.51.63,2.9,2.9,0,0,1,.52,1.84Z" fill="#1e1e1e"/>
      <path d="M111.21,122.45h-1.09l-.89-2.36h-3.56l-.84,2.36h-1.1l3.22-8.4h1Zm-2.3-3.24-1.32-3.58a2.71,2.71,0,0,1-.13-.57h0a3.38,3.38,0,0,1-.14.57L106,119.21Z" fill="#1e1e1e"/>
      <path d="M116.5,116.72,113,121.63h3.51v.82h-4.92v-.3l3.55-4.88h-3.22v-.82h4.63Z" fill="#1e1e1e"/>
      <path d="M122.59,122.45h-1v-1h0a2,2,0,0,1-1.85,1.09c-1.43,0-2.15-.85-2.15-2.56v-3.58h1v3.43c0,1.27.48,1.9,1.45,1.9a1.46,1.46,0,0,0,1.16-.52,2,2,0,0,0,.45-1.36v-3.45h1Z" fill="#1e1e1e"/>
      <path d="M127.66,117.42a1.16,1.16,0,0,0-.72-.19,1.2,1.2,0,0,0-1,.58,2.62,2.62,0,0,0-.42,1.58v3.06h-1v-6h1v1.23h0a2,2,0,0,1,.62-1,1.45,1.45,0,0,1,1-.36,1.65,1.65,0,0,1,.57.08Z" fill="#1e1e1e"/>
      <path d="M133.53,119.69h-4.24a2.26,2.26,0,0,0,.54,1.54,1.84,1.84,0,0,0,1.42.55,2.93,2.93,0,0,0,1.86-.67v.9a3.43,3.43,0,0,1-2.09.58,2.53,2.53,0,0,1-2-.82,3.36,3.36,0,0,1-.73-2.3,3.29,3.29,0,0,1,.8-2.28,2.53,2.53,0,0,1,2-.88,2.24,2.24,0,0,1,1.82.76,3.17,3.17,0,0,1,.65,2.11Zm-1-.82a2,2,0,0,0-.4-1.29,1.36,1.36,0,0,0-1.1-.46,1.55,1.55,0,0,0-1.15.48,2.25,2.25,0,0,0-.59,1.27Z" fill="#1e1e1e"/>
      <path d="M57.57,135H56.4L55,132.59a6,6,0,0,0-.38-.56,2.23,2.23,0,0,0-.37-.38,1.59,1.59,0,0,0-.41-.21,1.89,1.89,0,0,0-.5-.07h-.8V135h-1v-8.4h2.51a3.65,3.65,0,0,1,1,.13,2.11,2.11,0,0,1,.8.42,2,2,0,0,1,.54.7,2.61,2.61,0,0,1,.06,1.79,2.2,2.2,0,0,1-.37.65,2.34,2.34,0,0,1-.59.49,3,3,0,0,1-.77.32v0a1.88,1.88,0,0,1,.37.21,2,2,0,0,1,.29.29,2.75,2.75,0,0,1,.28.37l.31.48Zm-5-7.51v3h1.33a1.83,1.83,0,0,0,.68-.11,1.59,1.59,0,0,0,.55-.32,1.41,1.41,0,0,0,.35-.51,1.6,1.6,0,0,0,.13-.67,1.34,1.34,0,0,0-.43-1.06,1.92,1.92,0,0,0-1.27-.37Z" fill="#1e1e1e"/>
      <path d="M63.07,132.19H58.83a2.26,2.26,0,0,0,.54,1.54,1.85,1.85,0,0,0,1.42.55,2.89,2.89,0,0,0,1.86-.67v.9a3.41,3.41,0,0,1-2.09.58,2.54,2.54,0,0,1-2-.82,3.35,3.35,0,0,1-.72-2.3,3.28,3.28,0,0,1,.79-2.28,2.54,2.54,0,0,1,2-.88,2.26,2.26,0,0,1,1.83.76,3.17,3.17,0,0,1,.64,2.11Zm-1-.82a2,2,0,0,0-.4-1.29,1.37,1.37,0,0,0-1.1-.46,1.57,1.57,0,0,0-1.16.48,2.24,2.24,0,0,0-.58,1.27Z" fill="#1e1e1e"/>
      <path d="M64.16,134.73v-1a2.82,2.82,0,0,0,1.73.58q1.26,0,1.26-.84a.76.76,0,0,0-.1-.41,1.22,1.22,0,0,0-.3-.3,2.44,2.44,0,0,0-.43-.23l-.54-.21c-.26-.11-.5-.21-.7-.32a2,2,0,0,1-.5-.37,1.25,1.25,0,0,1-.31-.45,1.9,1.9,0,0,1-.1-.61,1.45,1.45,0,0,1,.2-.75,1.74,1.74,0,0,1,.51-.54,2.26,2.26,0,0,1,.74-.33,3,3,0,0,1,.85-.11,3.41,3.41,0,0,1,1.39.27v1a2.7,2.7,0,0,0-1.52-.43,1.88,1.88,0,0,0-.49.06,1.4,1.4,0,0,0-.37.17.78.78,0,0,0-.24.27.74.74,0,0,0-.08.34.87.87,0,0,0,.08.39.83.83,0,0,0,.25.28,1.68,1.68,0,0,0,.4.23l.53.21a6.17,6.17,0,0,1,.72.32,2.12,2.12,0,0,1,.54.36,1.4,1.4,0,0,1,.46,1.09,1.51,1.51,0,0,1-.2.78,1.67,1.67,0,0,1-.52.54,2.26,2.26,0,0,1-.76.32,3.68,3.68,0,0,1-.89.11A3.39,3.39,0,0,1,64.16,134.73Z" fill="#1e1e1e"/>
      <path d="M72.12,135.09a2.79,2.79,0,0,1-2.12-.84,3.12,3.12,0,0,1-.79-2.23,3.23,3.23,0,0,1,.82-2.36,3,3,0,0,1,2.23-.85,2.69,2.69,0,0,1,2.1.82,3.29,3.29,0,0,1,.75,2.29,3.21,3.21,0,0,1-.81,2.3A2.84,2.84,0,0,1,72.12,135.09Zm.07-5.47a1.83,1.83,0,0,0-1.46.63,2.56,2.56,0,0,0-.54,1.73,2.46,2.46,0,0,0,.54,1.68,1.87,1.87,0,0,0,1.46.62,1.79,1.79,0,0,0,1.44-.6,3.23,3.23,0,0,0,0-3.45A1.76,1.76,0,0,0,72.19,129.62Z" fill="#1e1e1e"/>
      <path d="M81.5,135h-1V134h0a2,2,0,0,1-1.85,1.09c-1.43,0-2.14-.85-2.14-2.56V129h1v3.43c0,1.27.49,1.9,1.46,1.9a1.45,1.45,0,0,0,1.15-.52,2,2,0,0,0,.46-1.36V129h1Z" fill="#1e1e1e"/>
      <path d="M86.57,129.92a1.18,1.18,0,0,0-.73-.19,1.23,1.23,0,0,0-1,.58,2.7,2.7,0,0,0-.41,1.58V135h-1v-6h1v1.23h0a2.09,2.09,0,0,1,.63-1,1.4,1.4,0,0,1,.94-.36,1.75,1.75,0,0,1,.58.08Z" fill="#1e1e1e"/>
      <path d="M91.7,134.67a3.1,3.1,0,0,1-1.64.42,2.69,2.69,0,0,1-2.07-.84,3,3,0,0,1-.79-2.16,3.3,3.3,0,0,1,.85-2.38,3,3,0,0,1,2.27-.9,3.09,3.09,0,0,1,1.39.29v1a2.44,2.44,0,0,0-1.43-.46,2,2,0,0,0-1.51.65,2.53,2.53,0,0,0-.59,1.74,2.38,2.38,0,0,0,.56,1.66,1.89,1.89,0,0,0,1.48.61,2.39,2.39,0,0,0,1.48-.52Z" fill="#1e1e1e"/>
      <path d="M98,132.19H93.74a2.16,2.16,0,0,0,.54,1.54,1.82,1.82,0,0,0,1.42.55,2.93,2.93,0,0,0,1.86-.67v.9a3.45,3.45,0,0,1-2.09.58,2.52,2.52,0,0,1-2-.82,3.81,3.81,0,0,1,.07-4.58,2.53,2.53,0,0,1,2-.88,2.25,2.25,0,0,1,1.82.76,3.17,3.17,0,0,1,.65,2.11Zm-1-.82a2,2,0,0,0-.4-1.29,1.36,1.36,0,0,0-1.1-.46,1.55,1.55,0,0,0-1.15.48,2.19,2.19,0,0,0-.59,1.27Z" fill="#1e1e1e"/>
      <path d="M111.41,135h-1v-5.64c0-.44,0-1,.08-1.63h0a5.05,5.05,0,0,1-.25.81L107.37,135h-.48L104,128.54a6,6,0,0,1-.25-.86h0c0,.33,0,.88,0,1.64V135h-1v-8.4h1.3l2.58,5.85a7.92,7.92,0,0,1,.39,1h0c.17-.46.31-.8.41-1l2.63-5.83h1.23Z" fill="#1e1e1e"/>
      <path d="M117.79,135h-1V134h0a2,2,0,0,1-1.84,1.08,2,2,0,0,1-1.41-.48,1.61,1.61,0,0,1-.5-1.26q0-1.68,2-1.95l1.79-.25q0-1.53-1.23-1.53a3,3,0,0,0-2,.73v-1a3.68,3.68,0,0,1,2-.56c1.41,0,2.12.74,2.12,2.24Zm-1-3-1.44.2a2.3,2.3,0,0,0-1,.33,1,1,0,0,0-.34.84.9.9,0,0,0,.31.72,1.2,1.2,0,0,0,.84.28,1.56,1.56,0,0,0,1.18-.5,1.8,1.8,0,0,0,.46-1.27Z" fill="#1e1e1e"/>
      <path d="M124.58,135h-1v-3.42c0-1.28-.47-1.91-1.4-1.91a1.5,1.5,0,0,0-1.19.54,2,2,0,0,0-.47,1.37V135h-1v-6h1v1h0a2.17,2.17,0,0,1,2-1.13,1.85,1.85,0,0,1,1.51.63,2.9,2.9,0,0,1,.52,1.84Z" fill="#1e1e1e"/>
      <path d="M130.68,135h-1V134h0a2,2,0,0,1-1.85,1.08,2,2,0,0,1-1.4-.48,1.62,1.62,0,0,1-.51-1.26q0-1.68,2-1.95l1.8-.25c0-1-.41-1.53-1.24-1.53a2.94,2.94,0,0,0-1.95.73v-1a3.68,3.68,0,0,1,2-.56c1.41,0,2.11.74,2.11,2.24Zm-1-3-1.45.2a2.25,2.25,0,0,0-1,.33,1,1,0,0,0-.34.84.9.9,0,0,0,.31.72,1.19,1.19,0,0,0,.83.28,1.58,1.58,0,0,0,1.19-.5,1.8,1.8,0,0,0,.46-1.27Z" fill="#1e1e1e"/>
      <path d="M137.61,134.47q0,3.3-3.16,3.3a4.31,4.31,0,0,1-1.95-.42v-1a4.06,4.06,0,0,0,1.94.56c1.47,0,2.21-.78,2.21-2.35v-.66h0a2.42,2.42,0,0,1-3.86.35,3.17,3.17,0,0,1-.69-2.15,3.73,3.73,0,0,1,.74-2.43,2.46,2.46,0,0,1,2-.9,2,2,0,0,1,1.8,1h0V129h1Zm-1-2.24v-.88a1.71,1.71,0,0,0-.48-1.22,1.58,1.58,0,0,0-1.2-.51,1.67,1.67,0,0,0-1.4.64,2.88,2.88,0,0,0-.5,1.82,2.5,2.5,0,0,0,.48,1.6,1.56,1.56,0,0,0,1.28.6,1.69,1.69,0,0,0,1.32-.57A2.21,2.21,0,0,0,136.65,132.23Z" fill="#1e1e1e"/>
      <path d="M144.38,132.19h-4.24a2.26,2.26,0,0,0,.54,1.54,1.85,1.85,0,0,0,1.42.55,2.94,2.94,0,0,0,1.87-.67v.9a3.46,3.46,0,0,1-2.1.58,2.51,2.51,0,0,1-2-.82,3.83,3.83,0,0,1,.06-4.58,2.54,2.54,0,0,1,2-.88,2.26,2.26,0,0,1,1.83.76,3.17,3.17,0,0,1,.64,2.11Zm-1-.82a2,2,0,0,0-.4-1.29,1.37,1.37,0,0,0-1.1-.46,1.57,1.57,0,0,0-1.16.48,2.24,2.24,0,0,0-.58,1.27Z" fill="#1e1e1e"/>
      <path d="M149,129.92a1.14,1.14,0,0,0-.72-.19,1.21,1.21,0,0,0-1,.58,2.62,2.62,0,0,0-.41,1.58V135h-1v-6h1v1.23h0a2,2,0,0,1,.63-1,1.4,1.4,0,0,1,.94-.36,1.65,1.65,0,0,1,.57.08Z" fill="#1e1e1e"/>
    </g>
    <g>
      <path d="M48.26,42.69q0,3.53-3.2,3.53-3,0-3.05-3.4V37.68h1v5.08c0,1.72.73,2.58,2.18,2.58s2.1-.83,2.1-2.5V37.68h1Z" fill="#1e1e1e"/>
      <path d="M49.86,45.87v-1a2.9,2.9,0,0,0,1.73.58c.85,0,1.27-.29,1.27-.85a.72.72,0,0,0-.11-.4,1,1,0,0,0-.29-.3,2.27,2.27,0,0,0-.44-.23l-.53-.22a5.16,5.16,0,0,1-.7-.32,1.79,1.79,0,0,1-.51-.36,1.41,1.41,0,0,1-.3-.46,1.57,1.57,0,0,1-.11-.6,1.45,1.45,0,0,1,.2-.75,1.65,1.65,0,0,1,.51-.54,2.51,2.51,0,0,1,.74-.34,3.41,3.41,0,0,1,.85-.11,3.46,3.46,0,0,1,1.4.27v1A2.74,2.74,0,0,0,52,40.75a1.75,1.75,0,0,0-.48.06,1.11,1.11,0,0,0-.38.18.85.85,0,0,0-.24.26.82.82,0,0,0-.08.35.74.74,0,0,0,.33.67,1.89,1.89,0,0,0,.4.22l.53.22c.27.1.51.21.72.31a2.44,2.44,0,0,1,.54.37,1.38,1.38,0,0,1,.34.46,1.54,1.54,0,0,1,.12.63,1.47,1.47,0,0,1-.19.77,1.85,1.85,0,0,1-.53.55,2.54,2.54,0,0,1-.75.32,3.82,3.82,0,0,1-.9.1A3.41,3.41,0,0,1,49.86,45.87Z" fill="#1e1e1e"/>
      <path d="M60.14,43.32H55.9a2.28,2.28,0,0,0,.54,1.55,1.89,1.89,0,0,0,1.42.55,3,3,0,0,0,1.86-.67v.9a3.47,3.47,0,0,1-2.09.57,2.57,2.57,0,0,1-2-.81,3.37,3.37,0,0,1-.72-2.3,3.25,3.25,0,0,1,.79-2.28,2.55,2.55,0,0,1,2-.89,2.26,2.26,0,0,1,1.83.77,3.15,3.15,0,0,1,.64,2.11Zm-1-.81a2,2,0,0,0-.41-1.3,1.38,1.38,0,0,0-1.09-.46,1.54,1.54,0,0,0-1.16.49,2.21,2.21,0,0,0-.58,1.27Z" fill="#1e1e1e"/>
      <path d="M69,45.81a3.1,3.1,0,0,1-1.64.41,2.68,2.68,0,0,1-2.07-.83,3,3,0,0,1-.79-2.17,3.32,3.32,0,0,1,.85-2.38,3,3,0,0,1,2.27-.9,3.06,3.06,0,0,1,1.39.3v1a2.45,2.45,0,0,0-1.43-.47,2,2,0,0,0-1.51.66,2.51,2.51,0,0,0-.58,1.73A2.39,2.39,0,0,0,66,44.81a1.92,1.92,0,0,0,1.48.61A2.4,2.4,0,0,0,69,44.89Z" fill="#1e1e1e"/>
      <path d="M74.72,46.08h-1v-.93h0a2,2,0,0,1-1.84,1.07,1.93,1.93,0,0,1-1.4-.47A1.65,1.65,0,0,1,70,44.49c0-1.12.66-1.77,2-2l1.8-.25c0-1-.41-1.53-1.24-1.53a3,3,0,0,0-2,.74v-1a3.68,3.68,0,0,1,2-.57c1.41,0,2.12.75,2.12,2.24Zm-1-3-1.45.2a2.35,2.35,0,0,0-1,.33,1,1,0,0,0-.34.84.93.93,0,0,0,.32.72,1.22,1.22,0,0,0,.83.28,1.55,1.55,0,0,0,1.18-.5,1.81,1.81,0,0,0,.47-1.27Z" fill="#1e1e1e"/>
      <path d="M76.17,45.87v-1a2.87,2.87,0,0,0,1.72.58c.85,0,1.27-.29,1.27-.85a.72.72,0,0,0-.11-.4,1,1,0,0,0-.29-.3,2.18,2.18,0,0,0-.43-.23l-.54-.22a5.16,5.16,0,0,1-.7-.32,1.94,1.94,0,0,1-.51-.36,1.41,1.41,0,0,1-.3-.46,1.57,1.57,0,0,1-.1-.6,1.44,1.44,0,0,1,.19-.75,1.58,1.58,0,0,1,.52-.54,2.45,2.45,0,0,1,.73-.34,3.59,3.59,0,0,1,2.25.16v1a2.71,2.71,0,0,0-1.52-.44,1.83,1.83,0,0,0-.49.06,1,1,0,0,0-.37.18.66.66,0,0,0-.24.26.7.7,0,0,0-.09.35.8.8,0,0,0,.09.39.82.82,0,0,0,.25.28,1.81,1.81,0,0,0,.39.22l.54.22c.26.1.5.21.71.31a2.44,2.44,0,0,1,.54.37,1.38,1.38,0,0,1,.34.46,1.54,1.54,0,0,1,.12.63,1.47,1.47,0,0,1-.19.77,1.74,1.74,0,0,1-.53.55,2.43,2.43,0,0,1-.75.32,3.82,3.82,0,0,1-.9.1A3.34,3.34,0,0,1,76.17,45.87Z" fill="#1e1e1e"/>
      <path d="M86.44,43.32H82.21a2.19,2.19,0,0,0,.54,1.55,1.85,1.85,0,0,0,1.41.55A3,3,0,0,0,86,44.75v.9a3.52,3.52,0,0,1-2.09.57,2.54,2.54,0,0,1-2-.81,3.33,3.33,0,0,1-.73-2.3A3.29,3.29,0,0,1,82,40.83a2.56,2.56,0,0,1,2-.89,2.26,2.26,0,0,1,1.82.77,3.15,3.15,0,0,1,.64,2.11Zm-1-.81a2,2,0,0,0-.4-1.3,1.4,1.4,0,0,0-1.1-.46,1.56,1.56,0,0,0-1.16.49,2.21,2.21,0,0,0-.58,1.27Z" fill="#1e1e1e"/>
      <path d="M87.53,45.87v-1a2.9,2.9,0,0,0,1.73.58c.85,0,1.27-.29,1.27-.85a.72.72,0,0,0-.11-.4,1,1,0,0,0-.29-.3,2.27,2.27,0,0,0-.44-.23l-.53-.22a5.16,5.16,0,0,1-.7-.32,1.79,1.79,0,0,1-.51-.36,1.41,1.41,0,0,1-.3-.46,1.57,1.57,0,0,1-.11-.6,1.45,1.45,0,0,1,.2-.75,1.65,1.65,0,0,1,.51-.54,2.51,2.51,0,0,1,.74-.34,3.41,3.41,0,0,1,.85-.11,3.46,3.46,0,0,1,1.4.27v1a2.74,2.74,0,0,0-1.53-.44,1.75,1.75,0,0,0-.48.06,1.11,1.11,0,0,0-.38.18.85.85,0,0,0-.24.26.82.82,0,0,0-.08.35.74.74,0,0,0,.33.67,1.89,1.89,0,0,0,.4.22l.53.22c.27.1.51.21.72.31a2.44,2.44,0,0,1,.54.37,1.38,1.38,0,0,1,.34.46,1.54,1.54,0,0,1,.12.63,1.47,1.47,0,0,1-.19.77,1.85,1.85,0,0,1-.53.55,2.54,2.54,0,0,1-.75.32,3.82,3.82,0,0,1-.9.1A3.41,3.41,0,0,1,87.53,45.87Z" fill="#1e1e1e"/>
      <path d="M93.32,41.26a.63.63,0,0,1-.46-.2.65.65,0,0,1,0-.92.65.65,0,0,1,.46-.18.66.66,0,0,1,.47.18.65.65,0,0,1,0,.92A.63.63,0,0,1,93.32,41.26Zm0,5a.62.62,0,0,1-.46-.19.66.66,0,0,1-.19-.46.68.68,0,0,1,.19-.47.64.64,0,0,1,.93,0,.64.64,0,0,1,.19.47.62.62,0,0,1-.19.46A.63.63,0,0,1,93.32,46.21Z" fill="#1e1e1e"/>
      <path d="M103.46,46.08H99v-8.4h4.26v.89H100v2.8h3v.88h-3v2.94h3.47Z" fill="#1e1e1e"/>
      <path d="M109.93,46.08h-1V42.66c0-1.27-.47-1.91-1.4-1.91a1.5,1.5,0,0,0-1.19.54,2.05,2.05,0,0,0-.47,1.37v3.42h-1v-6h1v1h0a2.16,2.16,0,0,1,2-1.14,1.86,1.86,0,0,1,1.51.64,2.88,2.88,0,0,1,.52,1.84Z" fill="#1e1e1e"/>
      <path d="M114.52,46a1.92,1.92,0,0,1-.9.18c-1.05,0-1.57-.58-1.57-1.75V40.9h-1v-.82h1V38.62l1-.31v1.77h1.51v.82H113v3.39a1.47,1.47,0,0,0,.2.86.83.83,0,0,0,.68.25,1,1,0,0,0,.63-.19Z" fill="#1e1e1e"/>
      <path d="M120.63,43.32h-4.24a2.28,2.28,0,0,0,.54,1.55,1.87,1.87,0,0,0,1.42.55,3,3,0,0,0,1.86-.67v.9a3.5,3.5,0,0,1-2.09.57,2.56,2.56,0,0,1-2-.81,3.37,3.37,0,0,1-.73-2.3,3.25,3.25,0,0,1,.8-2.28,2.54,2.54,0,0,1,2-.89,2.24,2.24,0,0,1,1.82.77,3.15,3.15,0,0,1,.65,2.11Zm-1-.81a2,2,0,0,0-.4-1.3,1.39,1.39,0,0,0-1.1-.46,1.52,1.52,0,0,0-1.15.49,2.22,2.22,0,0,0-.59,1.27Z" fill="#1e1e1e"/>
      <path d="M125.21,41.06a1.18,1.18,0,0,0-.73-.2,1.25,1.25,0,0,0-1,.58A2.75,2.75,0,0,0,123,43v3h-1v-6h1v1.24h0a2.17,2.17,0,0,1,.63-1,1.46,1.46,0,0,1,.94-.35,1.71,1.71,0,0,1,.58.08Z" fill="#1e1e1e"/>
      <path d="M127.24,45.22h0v3.62h-1V40.08h1v1.06h0a2.26,2.26,0,0,1,2.07-1.2,2.19,2.19,0,0,1,1.81.81,3.37,3.37,0,0,1,.65,2.16,3.71,3.71,0,0,1-.73,2.41,2.45,2.45,0,0,1-2,.9A2,2,0,0,1,127.24,45.22Zm0-2.42v.83a1.77,1.77,0,0,0,.49,1.27,1.71,1.71,0,0,0,2.59-.15,3.09,3.09,0,0,0,.5-1.86,2.41,2.41,0,0,0-.47-1.57,1.51,1.51,0,0,0-1.25-.57,1.73,1.73,0,0,0-1.35.58A2.16,2.16,0,0,0,127.21,42.8Z" fill="#1e1e1e"/>
      <path d="M136.44,41.06a1.18,1.18,0,0,0-.73-.2,1.25,1.25,0,0,0-1,.58,2.75,2.75,0,0,0-.41,1.59v3h-1v-6h1v1.24h0a2.17,2.17,0,0,1,.63-1,1.44,1.44,0,0,1,.94-.35,1.75,1.75,0,0,1,.58.08Z" fill="#1e1e1e"/>
      <path d="M138,38.56a.6.6,0,0,1-.44-.18.57.57,0,0,1-.18-.44.61.61,0,0,1,.18-.45.6.6,0,0,1,.44-.18.62.62,0,0,1,.63.63.6.6,0,0,1-.18.44A.61.61,0,0,1,138,38.56Zm.47,7.52h-1v-6h1Z" fill="#1e1e1e"/>
      <path d="M140,45.87v-1a2.88,2.88,0,0,0,1.73.58c.84,0,1.27-.29,1.27-.85a.72.72,0,0,0-.11-.4,1.07,1.07,0,0,0-.3-.3,1.93,1.93,0,0,0-.43-.23l-.54-.22a6.6,6.6,0,0,1-.7-.32,1.88,1.88,0,0,1-.5-.36,1.26,1.26,0,0,1-.3-.46,1.57,1.57,0,0,1-.11-.6,1.45,1.45,0,0,1,.2-.75,1.65,1.65,0,0,1,.51-.54,2.51,2.51,0,0,1,.74-.34,3.56,3.56,0,0,1,2.24.16v1a2.69,2.69,0,0,0-1.52-.44,1.88,1.88,0,0,0-.49.06,1.16,1.16,0,0,0-.37.18.85.85,0,0,0-.24.26.82.82,0,0,0-.08.35.74.74,0,0,0,.33.67,1.67,1.67,0,0,0,.4.22l.53.22c.27.1.51.21.72.31a2.44,2.44,0,0,1,.54.37,1.38,1.38,0,0,1,.34.46,1.54,1.54,0,0,1,.12.63,1.47,1.47,0,0,1-.2.77,1.7,1.7,0,0,1-.52.55,2.49,2.49,0,0,1-.76.32,3.68,3.68,0,0,1-.89.1A3.39,3.39,0,0,1,140,45.87Z" fill="#1e1e1e"/>
      <path d="M150.3,43.32h-4.24a2.28,2.28,0,0,0,.54,1.55,1.89,1.89,0,0,0,1.42.55,3,3,0,0,0,1.86-.67v.9a3.47,3.47,0,0,1-2.09.57,2.56,2.56,0,0,1-2-.81,3.37,3.37,0,0,1-.72-2.3,3.25,3.25,0,0,1,.79-2.28,2.55,2.55,0,0,1,2-.89,2.24,2.24,0,0,1,1.82.77,3.15,3.15,0,0,1,.65,2.11Zm-1-.81a1.93,1.93,0,0,0-.4-1.3,1.39,1.39,0,0,0-1.1-.46,1.54,1.54,0,0,0-1.15.49,2.22,2.22,0,0,0-.59,1.27Z" fill="#1e1e1e"/>
      <path d="M151.39,45.87v-1a2.88,2.88,0,0,0,1.73.58c.84,0,1.26-.29,1.26-.85a.65.65,0,0,0-.11-.4,1,1,0,0,0-.29-.3,2.18,2.18,0,0,0-.43-.23l-.54-.22a5.79,5.79,0,0,1-.7-.32,1.74,1.74,0,0,1-.5-.36,1.29,1.29,0,0,1-.31-.46,1.57,1.57,0,0,1-.1-.6,1.44,1.44,0,0,1,.19-.75,1.58,1.58,0,0,1,.52-.54,2.45,2.45,0,0,1,.73-.34,3.49,3.49,0,0,1,.86-.11,3.41,3.41,0,0,1,1.39.27v1a2.71,2.71,0,0,0-1.52-.44,1.88,1.88,0,0,0-.49.06,1.06,1.06,0,0,0-.37.18.85.85,0,0,0-.24.26.7.7,0,0,0-.09.35.8.8,0,0,0,.09.39.94.94,0,0,0,.25.28,1.67,1.67,0,0,0,.4.22l.53.22c.27.1.5.21.72.31a2.16,2.16,0,0,1,.53.37,1.41,1.41,0,0,1,.35.46,1.54,1.54,0,0,1,.12.63,1.47,1.47,0,0,1-.2.77,1.7,1.7,0,0,1-.52.55,2.49,2.49,0,0,1-.76.32,3.71,3.71,0,0,1-.9.1A3.37,3.37,0,0,1,151.39,45.87Z" fill="#1e1e1e"/>
      <path d="M157.72,44.75l-.93,2.88h-.69l.69-2.88Z" fill="#1e1e1e"/>
      <path d="M58.13,58.58h-1v-1h0a2.43,2.43,0,0,1-3.87.36,3.33,3.33,0,0,1-.68-2.2,3.59,3.59,0,0,1,.75-2.38,2.48,2.48,0,0,1,2-.9,1.94,1.94,0,0,1,1.8,1h0V49.7h1Zm-1-2.71V55a1.7,1.7,0,0,0-.48-1.23,1.59,1.59,0,0,0-1.22-.51,1.67,1.67,0,0,0-1.38.65,2.79,2.79,0,0,0-.5,1.78,2.56,2.56,0,0,0,.48,1.64,1.59,1.59,0,0,0,1.3.6,1.66,1.66,0,0,0,1.3-.58A2.15,2.15,0,0,0,57.17,55.87Z" fill="#1e1e1e"/>
      <path d="M64.9,55.82H60.67a2.23,2.23,0,0,0,.53,1.55,1.89,1.89,0,0,0,1.42.55,3,3,0,0,0,1.87-.67v.9a3.53,3.53,0,0,1-2.1.57,2.53,2.53,0,0,1-2-.81,3.33,3.33,0,0,1-.73-2.3,3.25,3.25,0,0,1,.79-2.28,2.55,2.55,0,0,1,2-.89,2.26,2.26,0,0,1,1.83.77,3.15,3.15,0,0,1,.64,2.11Zm-1-.81a2,2,0,0,0-.4-1.3,1.4,1.4,0,0,0-1.1-.46,1.54,1.54,0,0,0-1.16.49A2.21,2.21,0,0,0,60.68,55Z" fill="#1e1e1e"/>
      <path d="M71.48,58.58h-1v-1h0a2.2,2.2,0,0,1-2.06,1.16,2.22,2.22,0,0,1-1.81-.8,3.33,3.33,0,0,1-.68-2.2,3.59,3.59,0,0,1,.75-2.38,2.48,2.48,0,0,1,2-.9,1.92,1.92,0,0,1,1.8,1h0V49.7h1Zm-1-2.71V55A1.7,1.7,0,0,0,70,53.76a1.59,1.59,0,0,0-1.21-.51,1.68,1.68,0,0,0-1.39.65,2.85,2.85,0,0,0-.5,1.78,2.56,2.56,0,0,0,.48,1.64,1.59,1.59,0,0,0,1.3.6,1.64,1.64,0,0,0,1.3-.58A2.15,2.15,0,0,0,70.51,55.87Z" fill="#1e1e1e"/>
      <path d="M73.91,51.06a.6.6,0,0,1-.44-.18.57.57,0,0,1-.18-.44.61.61,0,0,1,.18-.45.6.6,0,0,1,.44-.18.61.61,0,0,1,.45.18.62.62,0,0,1,0,.89A.61.61,0,0,1,73.91,51.06Zm.47,7.52h-1v-6h1Z" fill="#1e1e1e"/>
      <path d="M80.42,58.31a3.1,3.1,0,0,1-1.64.41,2.68,2.68,0,0,1-2.07-.83,3,3,0,0,1-.79-2.17,3.32,3.32,0,0,1,.85-2.38,3,3,0,0,1,2.26-.9,3.1,3.1,0,0,1,1.4.3v1A2.47,2.47,0,0,0,79,53.25a1.93,1.93,0,0,0-1.51.66,2.52,2.52,0,0,0-.59,1.73,2.39,2.39,0,0,0,.56,1.67,1.91,1.91,0,0,0,1.48.61,2.42,2.42,0,0,0,1.48-.53Z" fill="#1e1e1e"/>
      <path d="M86.17,58.58h-1v-.93h0a2,2,0,0,1-1.85,1.07,2,2,0,0,1-1.4-.47A1.65,1.65,0,0,1,81.42,57c0-1.12.66-1.77,2-2l1.79-.25q0-1.53-1.23-1.53A3,3,0,0,0,82,54V53a3.68,3.68,0,0,1,2-.57c1.41,0,2.12.75,2.12,2.24Zm-1-3-1.44.2a2.3,2.3,0,0,0-1,.33,1,1,0,0,0-.34.84.92.92,0,0,0,.31.72,1.25,1.25,0,0,0,.84.28,1.56,1.56,0,0,0,1.18-.5,1.8,1.8,0,0,0,.46-1.27Z" fill="#1e1e1e"/>
      <path d="M90.76,58.53a2,2,0,0,1-.9.18c-1,0-1.57-.58-1.57-1.75V53.4h-1v-.82h1V51.12l1-.31v1.77h1.51v.82H89.25v3.39a1.47,1.47,0,0,0,.2.86.83.83,0,0,0,.68.25,1,1,0,0,0,.63-.19Z" fill="#1e1e1e"/>
      <path d="M96.86,55.82H92.63a2.19,2.19,0,0,0,.54,1.55,1.85,1.85,0,0,0,1.41.55,3,3,0,0,0,1.87-.67v.9a3.52,3.52,0,0,1-2.09.57,2.54,2.54,0,0,1-2-.81,3.33,3.33,0,0,1-.73-2.3,3.25,3.25,0,0,1,.8-2.28,2.54,2.54,0,0,1,2-.89,2.26,2.26,0,0,1,1.82.77,3.15,3.15,0,0,1,.64,2.11Zm-1-.81a2,2,0,0,0-.4-1.3,1.4,1.4,0,0,0-1.1-.46,1.52,1.52,0,0,0-1.15.49A2.16,2.16,0,0,0,92.64,55Z" fill="#1e1e1e"/>
      <path d="M103.44,58.58h-1v-1h0a2.2,2.2,0,0,1-2.06,1.16,2.25,2.25,0,0,1-1.81-.8,3.32,3.32,0,0,1-.67-2.2,3.59,3.59,0,0,1,.75-2.38,2.46,2.46,0,0,1,2-.9,1.91,1.91,0,0,1,1.79,1h0V49.7h1Zm-1-2.71V55a1.7,1.7,0,0,0-.48-1.23,1.61,1.61,0,0,0-1.22-.51,1.64,1.64,0,0,0-1.38.65,2.79,2.79,0,0,0-.51,1.78,2.56,2.56,0,0,0,.48,1.64,1.6,1.6,0,0,0,1.3.6,1.68,1.68,0,0,0,1.31-.58A2.2,2.2,0,0,0,102.48,55.87Z" fill="#1e1e1e"/>
      <path d="M113.65,58.58h-1V55.13c0-1.25-.46-1.88-1.39-1.88a1.53,1.53,0,0,0-1.19.54,2.05,2.05,0,0,0-.48,1.4v3.39h-1V49.7h1v3.88h0a2.17,2.17,0,0,1,2-1.14c1.36,0,2,.82,2,2.45Z" fill="#1e1e1e"/>
      <path d="M118,58.72a2.76,2.76,0,0,1-2.12-.84,3.11,3.11,0,0,1-.8-2.23,3.26,3.26,0,0,1,.83-2.36,3,3,0,0,1,2.23-.85,2.73,2.73,0,0,1,2.1.83,3.27,3.27,0,0,1,.75,2.29,3.23,3.23,0,0,1-.81,2.3A2.83,2.83,0,0,1,118,58.72Zm.07-5.47a1.8,1.8,0,0,0-1.46.63,2.59,2.59,0,0,0-.54,1.74,2.46,2.46,0,0,0,.54,1.68,1.85,1.85,0,0,0,1.46.62,1.76,1.76,0,0,0,1.43-.61,2.57,2.57,0,0,0,.5-1.71,2.65,2.65,0,0,0-.5-1.74A1.76,1.76,0,0,0,118,53.25Z" fill="#1e1e1e"/>
      <path d="M122.13,58.37v-1a2.88,2.88,0,0,0,1.73.58c.84,0,1.26-.29,1.26-.85a.72.72,0,0,0-.1-.4,1.07,1.07,0,0,0-.3-.3,1.93,1.93,0,0,0-.43-.23l-.54-.22a5.79,5.79,0,0,1-.7-.32,1.74,1.74,0,0,1-.5-.36,1.29,1.29,0,0,1-.31-.46,1.79,1.79,0,0,1-.1-.6,1.55,1.55,0,0,1,.19-.75,1.68,1.68,0,0,1,.52-.54,2.51,2.51,0,0,1,.74-.34,3.56,3.56,0,0,1,2.24.16v1a2.71,2.71,0,0,0-1.52-.44,1.88,1.88,0,0,0-.49.06,1.06,1.06,0,0,0-.37.18.85.85,0,0,0-.24.26.69.69,0,0,0-.08.35.8.8,0,0,0,.08.39.94.94,0,0,0,.25.28,1.67,1.67,0,0,0,.4.22l.53.22c.27.1.51.21.72.31a2.44,2.44,0,0,1,.54.37,1.36,1.36,0,0,1,.46,1.09,1.47,1.47,0,0,1-.2.77,1.7,1.7,0,0,1-.52.55,2.49,2.49,0,0,1-.76.32,3.68,3.68,0,0,1-.89.1A3.39,3.39,0,0,1,122.13,58.37Z" fill="#1e1e1e"/>
      <path d="M130.37,58.53a2,2,0,0,1-.9.18c-1.05,0-1.57-.58-1.57-1.75V53.4h-1v-.82h1V51.12l1-.31v1.77h1.51v.82h-1.51v3.39a1.4,1.4,0,0,0,.2.86.82.82,0,0,0,.68.25,1,1,0,0,0,.63-.19Z" fill="#1e1e1e"/>
      <path d="M132.14,51.06a.62.62,0,0,1-.44-.18.57.57,0,0,1-.18-.44.61.61,0,0,1,.18-.45.62.62,0,0,1,.44-.18.61.61,0,0,1,.45.18.62.62,0,0,1,0,.89A.61.61,0,0,1,132.14,51.06Zm.47,7.52h-1v-6h1Z" fill="#1e1e1e"/>
      <path d="M139.54,58.58h-1V55.16c0-1.27-.47-1.91-1.4-1.91a1.5,1.5,0,0,0-1.19.54,2.05,2.05,0,0,0-.47,1.37v3.42h-1v-6h1v1h0a2.17,2.17,0,0,1,2-1.14,1.86,1.86,0,0,1,1.51.64,2.88,2.88,0,0,1,.52,1.84Z" fill="#1e1e1e"/>
      <path d="M146.47,58.1q0,3.32-3.16,3.31a4.28,4.28,0,0,1-1.95-.42V60a4.06,4.06,0,0,0,1.93.56c1.48,0,2.22-.79,2.22-2.36v-.65h0a2.44,2.44,0,0,1-3.87.34,3.19,3.19,0,0,1-.68-2.14,3.73,3.73,0,0,1,.73-2.43,2.44,2.44,0,0,1,2-.91,2,2,0,0,1,1.8,1h0v-.84h1Zm-1-2.23V55a1.73,1.73,0,0,0-.48-1.23,1.62,1.62,0,0,0-1.21-.51,1.66,1.66,0,0,0-1.39.65,2.87,2.87,0,0,0-.51,1.81,2.46,2.46,0,0,0,.49,1.61,1.56,1.56,0,0,0,1.28.6,1.68,1.68,0,0,0,1.31-.58A2.12,2.12,0,0,0,145.51,55.87Z" fill="#1e1e1e"/>
    </g>
    <g>
      <path d="M73,89.36H71.92L71,87H67.46l-.84,2.36H65.53L68.75,81h1Zm-2.3-3.24-1.32-3.58a5.16,5.16,0,0,1-.13-.57h0a3.51,3.51,0,0,1-.13.57l-1.31,3.58Z" fill="#1e1e1e"/>
      <path d="M79.23,89.36h-1v-1h0a2.42,2.42,0,0,1-3.87.35,3.32,3.32,0,0,1-.68-2.19,3.6,3.6,0,0,1,.75-2.39,2.47,2.47,0,0,1,2-.89,1.93,1.93,0,0,1,1.8,1h0V80.47h1Zm-1-2.72v-.88a1.7,1.7,0,0,0-.48-1.23A1.59,1.59,0,0,0,76.57,84a1.67,1.67,0,0,0-1.38.65,2.79,2.79,0,0,0-.5,1.78,2.56,2.56,0,0,0,.48,1.64,1.57,1.57,0,0,0,1.3.6,1.66,1.66,0,0,0,1.3-.58A2.15,2.15,0,0,0,78.27,86.64Z" fill="#1e1e1e"/>
      <path d="M89.7,89.36h-1V85.91a2.65,2.65,0,0,0-.31-1.44,1.16,1.16,0,0,0-1-.45,1.29,1.29,0,0,0-1.05.57,2.11,2.11,0,0,0-.43,1.34v3.43H85V85.79C85,84.61,84.5,84,83.59,84a1.27,1.27,0,0,0-1,.53,2.24,2.24,0,0,0-.41,1.38v3.43h-1v-6h1v1h0A2,2,0,0,1,84,83.22a1.73,1.73,0,0,1,1.07.34,1.81,1.81,0,0,1,.63.9,2.12,2.12,0,0,1,2-1.24c1.32,0,2,.81,2,2.44Z" fill="#1e1e1e"/>
      <path d="M92,81.83a.62.62,0,0,1-.44-.17.65.65,0,0,1,0-.9.59.59,0,0,1,.44-.18.64.64,0,0,1,.45.18.61.61,0,0,1,.18.45.6.6,0,0,1-.18.44A.64.64,0,0,1,92,81.83Zm.47,7.53h-1v-6h1Z" fill="#1e1e1e"/>
      <path d="M99.4,89.36h-1V85.93c0-1.27-.46-1.91-1.39-1.91a1.52,1.52,0,0,0-1.2.55,2,2,0,0,0-.47,1.36v3.43h-1v-6h1v1h0a2.14,2.14,0,0,1,2-1.13,1.85,1.85,0,0,1,1.51.63,2.82,2.82,0,0,1,.52,1.84Z" fill="#1e1e1e"/>
      <path d="M105.61,86.18v3.18h-1V81h2.31a3.06,3.06,0,0,1,2.09.66,2.35,2.35,0,0,1,.74,1.85,2.55,2.55,0,0,1-.83,2,3.13,3.13,0,0,1-2.22.76Zm0-4.34v3.45h1a2.33,2.33,0,0,0,1.56-.47,1.64,1.64,0,0,0,.54-1.31c0-1.11-.66-1.67-2-1.67Z" fill="#1e1e1e"/>
      <path d="M113.28,89.5a2.79,2.79,0,0,1-2.12-.84,3.12,3.12,0,0,1-.8-2.23,3.27,3.27,0,0,1,.83-2.37,3,3,0,0,1,2.23-.84,2.69,2.69,0,0,1,2.1.82,3.29,3.29,0,0,1,.75,2.29,3.21,3.21,0,0,1-.81,2.3A2.84,2.84,0,0,1,113.28,89.5Zm.07-5.48a1.83,1.83,0,0,0-1.46.63,2.59,2.59,0,0,0-.54,1.74,2.46,2.46,0,0,0,.54,1.68,1.87,1.87,0,0,0,1.46.62,1.76,1.76,0,0,0,1.44-.61,2.62,2.62,0,0,0,.5-1.71,2.71,2.71,0,0,0-.5-1.74A1.79,1.79,0,0,0,113.35,84Z" fill="#1e1e1e"/>
      <path d="M120.93,84.33a1.14,1.14,0,0,0-.72-.19,1.23,1.23,0,0,0-1,.58,2.62,2.62,0,0,0-.41,1.58v3.06h-1v-6h1v1.23h0a2.17,2.17,0,0,1,.63-1,1.44,1.44,0,0,1,.94-.35,1.65,1.65,0,0,1,.57.08Z" fill="#1e1e1e"/>
      <path d="M124.76,89.3a1.92,1.92,0,0,1-.9.18c-1,0-1.57-.58-1.57-1.75V84.18h-1v-.82h1V81.89l1-.31v1.78h1.51v.82h-1.51v3.38a1.45,1.45,0,0,0,.2.86.84.84,0,0,0,.68.26,1,1,0,0,0,.63-.2Z" fill="#1e1e1e"/>
      <path d="M130.34,89.36h-1v-.94h0a2,2,0,0,1-1.84,1.08,1.93,1.93,0,0,1-1.4-.48,1.62,1.62,0,0,1-.51-1.26q0-1.68,2-2l1.8-.26c0-1-.41-1.53-1.24-1.53a3,3,0,0,0-2,.74v-1a3.68,3.68,0,0,1,2-.56c1.41,0,2.12.74,2.12,2.23Zm-1-3-1.45.2a2.35,2.35,0,0,0-1,.33,1,1,0,0,0-.34.84.93.93,0,0,0,.32.72,1.18,1.18,0,0,0,.83.28,1.55,1.55,0,0,0,1.18-.5,1.81,1.81,0,0,0,.47-1.27Z" fill="#1e1e1e"/>
      <path d="M133.11,89.36h-1V80.47h1Z" fill="#1e1e1e"/>
    </g>
    <g>
      <path d="M69,203.91v3.17H68v-8.4h2.31a3,3,0,0,1,2.08.66,2.33,2.33,0,0,1,.75,1.85,2.55,2.55,0,0,1-.83,2,3.18,3.18,0,0,1-2.22.76Zm0-4.34V203h1a2.33,2.33,0,0,0,1.56-.47,1.63,1.63,0,0,0,.53-1.31c0-1.11-.65-1.67-2-1.67Z" fill="#1e1e1e"/>
      <path d="M79.48,207.08h-1v-.94h0a2,2,0,0,1-1.86,1.09c-1.43,0-2.14-.86-2.14-2.56v-3.59h1v3.44c0,1.26.49,1.9,1.46,1.9a1.47,1.47,0,0,0,1.15-.52,2,2,0,0,0,.46-1.36v-3.46h1Z" fill="#1e1e1e"/>
      <path d="M82.4,206.22h0v.86h-1V198.2h1v3.94h0a2.29,2.29,0,0,1,2.08-1.2,2.2,2.2,0,0,1,1.81.81,3.37,3.37,0,0,1,.65,2.16,3.76,3.76,0,0,1-.73,2.41,2.46,2.46,0,0,1-2,.91A2,2,0,0,1,82.4,206.22Zm0-2.42v.84a1.8,1.8,0,0,0,.48,1.26,1.65,1.65,0,0,0,1.23.52,1.63,1.63,0,0,0,1.37-.67,3.09,3.09,0,0,0,.49-1.86,2.41,2.41,0,0,0-.46-1.57,1.52,1.52,0,0,0-1.25-.57,1.71,1.71,0,0,0-1.35.59A2.11,2.11,0,0,0,82.38,203.8Z" fill="#1e1e1e"/>
      <path d="M89.44,207.08h-1V198.2h1Z" fill="#1e1e1e"/>
      <path d="M91.87,199.56a.64.64,0,0,1-.44-.17.65.65,0,0,1,0-.9.6.6,0,0,1,.44-.18.61.61,0,0,1,.45.18.62.62,0,0,1,0,.89A.61.61,0,0,1,91.87,199.56Zm.47,7.52h-1v-6h1Z" fill="#1e1e1e"/>
      <path d="M98.38,206.81a3.1,3.1,0,0,1-1.64.42,2.73,2.73,0,0,1-2.08-.84,3,3,0,0,1-.78-2.16,3.33,3.33,0,0,1,.85-2.39,3,3,0,0,1,2.26-.9,3.1,3.1,0,0,1,1.4.3v1a2.47,2.47,0,0,0-1.43-.47,1.93,1.93,0,0,0-1.51.66,2.52,2.52,0,0,0-.59,1.73,2.43,2.43,0,0,0,.55,1.67,1.94,1.94,0,0,0,1.49.61,2.47,2.47,0,0,0,1.48-.52Z" fill="#1e1e1e"/>
      <path d="M109.75,207.08h-1.09l-.89-2.35h-3.56l-.84,2.35h-1.1l3.23-8.4h1Zm-2.3-3.24-1.32-3.58a3.14,3.14,0,0,1-.13-.56h0a3,3,0,0,1-.14.56l-1.31,3.58Z" fill="#1e1e1e"/>
      <path d="M115,201.36l-3.55,4.9H115v.82h-4.93v-.29l3.55-4.89h-3.22v-.82H115Z" fill="#1e1e1e"/>
      <path d="M121.13,207.08h-1v-.94h0a2,2,0,0,1-1.85,1.09c-1.43,0-2.15-.86-2.15-2.56v-3.59h1v3.44c0,1.26.48,1.9,1.45,1.9a1.49,1.49,0,0,0,1.16-.52,2,2,0,0,0,.45-1.36v-3.46h1Z" fill="#1e1e1e"/>
      <path d="M126.2,202.06a1.16,1.16,0,0,0-.72-.2,1.24,1.24,0,0,0-1,.58A2.68,2.68,0,0,0,124,204v3.05h-1v-6h1v1.24h0a2,2,0,0,1,.63-1,1.44,1.44,0,0,1,.94-.35,1.65,1.65,0,0,1,.57.08Z" fill="#1e1e1e"/>
      <path d="M132.07,204.32h-4.24a2.28,2.28,0,0,0,.54,1.55,1.87,1.87,0,0,0,1.42.55,3,3,0,0,0,1.86-.67v.9a3.5,3.5,0,0,1-2.09.58,2.56,2.56,0,0,1-2-.82,3.37,3.37,0,0,1-.72-2.3,3.25,3.25,0,0,1,.79-2.28,2.55,2.55,0,0,1,2-.89,2.24,2.24,0,0,1,1.82.77,3.15,3.15,0,0,1,.65,2.11Zm-1-.81a1.88,1.88,0,0,0-.4-1.29,1.36,1.36,0,0,0-1.1-.47,1.54,1.54,0,0,0-1.15.49,2.22,2.22,0,0,0-.59,1.27Z" fill="#1e1e1e"/>
      <path d="M57.57,219.58H56.4L55,217.23a4.9,4.9,0,0,0-.38-.56,2.23,2.23,0,0,0-.37-.38,1.14,1.14,0,0,0-.41-.21,1.55,1.55,0,0,0-.5-.07h-.8v3.57h-1v-8.4h2.51a3.64,3.64,0,0,1,1,.14,2.11,2.11,0,0,1,.8.42,2,2,0,0,1,.54.7,2.32,2.32,0,0,1,.19,1,2.37,2.37,0,0,1-.13.81,2.2,2.2,0,0,1-.37.65,2.57,2.57,0,0,1-.59.49,3,3,0,0,1-.77.31v0a1.88,1.88,0,0,1,.37.21,1.9,1.9,0,0,1,.29.28,2.88,2.88,0,0,1,.28.38l.31.48Zm-5-7.51v3.05h1.33a2.06,2.06,0,0,0,.68-.11,1.77,1.77,0,0,0,.55-.32,1.41,1.41,0,0,0,.35-.51,1.65,1.65,0,0,0,.13-.68,1.31,1.31,0,0,0-.43-1.05,1.92,1.92,0,0,0-1.27-.38Z" fill="#1e1e1e"/>
      <path d="M63.07,216.82H58.83a2.28,2.28,0,0,0,.54,1.55,1.89,1.89,0,0,0,1.42.55,3,3,0,0,0,1.86-.67v.9a3.48,3.48,0,0,1-2.09.58,2.58,2.58,0,0,1-2-.82,3.37,3.37,0,0,1-.72-2.3,3.25,3.25,0,0,1,.79-2.28,2.55,2.55,0,0,1,2-.89,2.26,2.26,0,0,1,1.83.77,3.15,3.15,0,0,1,.64,2.11Zm-1-.81a2,2,0,0,0-.4-1.29,1.38,1.38,0,0,0-1.1-.47,1.54,1.54,0,0,0-1.16.49,2.21,2.21,0,0,0-.58,1.27Z" fill="#1e1e1e"/>
      <path d="M64.16,219.37v-1a2.88,2.88,0,0,0,1.73.58c.84,0,1.26-.28,1.26-.85a.72.72,0,0,0-.1-.4,1.07,1.07,0,0,0-.3-.3,1.93,1.93,0,0,0-.43-.23l-.54-.22a5.79,5.79,0,0,1-.7-.32,1.74,1.74,0,0,1-.5-.36,1.29,1.29,0,0,1-.31-.46,1.79,1.79,0,0,1-.1-.6,1.45,1.45,0,0,1,.2-.75,1.55,1.55,0,0,1,.51-.54,2.26,2.26,0,0,1,.74-.33,3,3,0,0,1,.85-.12,3.41,3.41,0,0,1,1.39.27v1a2.71,2.71,0,0,0-1.52-.44,1.88,1.88,0,0,0-.49.06,1.16,1.16,0,0,0-.37.18.85.85,0,0,0-.24.26.82.82,0,0,0-.08.35.74.74,0,0,0,.33.67,1.67,1.67,0,0,0,.4.22l.53.22c.27.1.51.21.72.31a2.44,2.44,0,0,1,.54.37,1.36,1.36,0,0,1,.46,1.09,1.47,1.47,0,0,1-.2.77,1.7,1.7,0,0,1-.52.55,2.49,2.49,0,0,1-.76.32,3.68,3.68,0,0,1-.89.11A3.39,3.39,0,0,1,64.16,219.37Z" fill="#1e1e1e"/>
      <path d="M72.12,219.73a2.79,2.79,0,0,1-2.12-.85,3.1,3.1,0,0,1-.79-2.23,3.26,3.26,0,0,1,.82-2.36,3,3,0,0,1,2.23-.85,2.7,2.7,0,0,1,2.1.83,3.27,3.27,0,0,1,.75,2.29,3.23,3.23,0,0,1-.81,2.3A2.84,2.84,0,0,1,72.12,219.73Zm.07-5.48a1.83,1.83,0,0,0-1.46.63,2.59,2.59,0,0,0-.54,1.74,2.46,2.46,0,0,0,.54,1.68,1.87,1.87,0,0,0,1.46.62,1.76,1.76,0,0,0,1.44-.61,2.62,2.62,0,0,0,.5-1.71,2.71,2.71,0,0,0-.5-1.74A1.79,1.79,0,0,0,72.19,214.25Z" fill="#1e1e1e"/>
      <path d="M81.5,219.58h-1v-.94h0a2,2,0,0,1-1.85,1.09c-1.43,0-2.14-.86-2.14-2.56v-3.59h1V217c0,1.26.49,1.9,1.46,1.9a1.48,1.48,0,0,0,1.15-.52,2,2,0,0,0,.46-1.36v-3.46h1Z" fill="#1e1e1e"/>
      <path d="M86.57,214.56a1.18,1.18,0,0,0-.73-.2,1.25,1.25,0,0,0-1,.58,2.75,2.75,0,0,0-.41,1.59v3.05h-1v-6h1v1.24h0a2.17,2.17,0,0,1,.63-1,1.44,1.44,0,0,1,.94-.35,1.75,1.75,0,0,1,.58.08Z" fill="#1e1e1e"/>
      <path d="M91.7,219.31a3.1,3.1,0,0,1-1.64.42,2.69,2.69,0,0,1-2.07-.84,3,3,0,0,1-.79-2.16,3.33,3.33,0,0,1,.85-2.39,3,3,0,0,1,2.27-.9,3.09,3.09,0,0,1,1.39.3v1a2.45,2.45,0,0,0-1.43-.47,2,2,0,0,0-1.51.66,2.52,2.52,0,0,0-.59,1.73,2.39,2.39,0,0,0,.56,1.67,1.92,1.92,0,0,0,1.48.61,2.45,2.45,0,0,0,1.48-.52Z" fill="#1e1e1e"/>
      <path d="M98,216.82H93.74a2.19,2.19,0,0,0,.54,1.55,1.86,1.86,0,0,0,1.42.55,3,3,0,0,0,1.86-.67v.9a3.52,3.52,0,0,1-2.09.58,2.55,2.55,0,0,1-2-.82,3.33,3.33,0,0,1-.73-2.3,3.25,3.25,0,0,1,.8-2.28,2.54,2.54,0,0,1,2-.89,2.26,2.26,0,0,1,1.82.77,3.15,3.15,0,0,1,.65,2.11ZM97,216a1.93,1.93,0,0,0-.4-1.29,1.36,1.36,0,0,0-1.1-.47,1.52,1.52,0,0,0-1.15.49,2.16,2.16,0,0,0-.59,1.27Z" fill="#1e1e1e"/>
      <path d="M111.41,219.58h-1V214c0-.45,0-1,.08-1.64h0a5.64,5.64,0,0,1-.25.82l-2.87,6.45h-.48L104,213.17a5.3,5.3,0,0,1-.25-.86h0c0,.34,0,.89,0,1.65v5.62h-1v-8.4h1.3l2.58,5.86a7.92,7.92,0,0,1,.39,1h0c.17-.46.31-.81.41-1l2.63-5.84h1.23Z" fill="#1e1e1e"/>
      <path d="M117.79,219.58h-1v-.93h0a2,2,0,0,1-1.84,1.08,2,2,0,0,1-1.41-.48,1.64,1.64,0,0,1-.5-1.26c0-1.12.66-1.77,2-2l1.79-.25q0-1.53-1.23-1.53a3,3,0,0,0-2,.74v-1a3.68,3.68,0,0,1,2-.57c1.41,0,2.12.75,2.12,2.24Zm-1-3-1.44.2a2.3,2.3,0,0,0-1,.33,1,1,0,0,0-.34.84.92.92,0,0,0,.31.72,1.25,1.25,0,0,0,.84.28,1.56,1.56,0,0,0,1.18-.5,1.8,1.8,0,0,0,.46-1.27Z" fill="#1e1e1e"/>
      <path d="M124.58,219.58h-1v-3.42c0-1.27-.47-1.91-1.4-1.91a1.5,1.5,0,0,0-1.19.54,2,2,0,0,0-.47,1.37v3.42h-1v-6h1v1h0a2.16,2.16,0,0,1,2-1.14,1.86,1.86,0,0,1,1.51.64,2.88,2.88,0,0,1,.52,1.84Z" fill="#1e1e1e"/>
      <path d="M130.68,219.58h-1v-.93h0a2,2,0,0,1-1.85,1.08,2,2,0,0,1-1.4-.48,1.65,1.65,0,0,1-.51-1.26c0-1.12.66-1.77,2-2l1.8-.25c0-1-.41-1.53-1.24-1.53a3,3,0,0,0-1.95.74v-1a3.68,3.68,0,0,1,2-.57c1.41,0,2.11.75,2.11,2.24Zm-1-3-1.45.2a2.25,2.25,0,0,0-1,.33,1,1,0,0,0-.34.84.92.92,0,0,0,.31.72,1.24,1.24,0,0,0,.83.28,1.58,1.58,0,0,0,1.19-.5,1.8,1.8,0,0,0,.46-1.27Z" fill="#1e1e1e"/>
      <path d="M137.61,219.1q0,3.32-3.16,3.31a4.31,4.31,0,0,1-1.95-.42v-1a4.06,4.06,0,0,0,1.94.56c1.47,0,2.21-.79,2.21-2.36v-.65h0a2.42,2.42,0,0,1-3.86.35,3.19,3.19,0,0,1-.69-2.15,3.73,3.73,0,0,1,.74-2.43,2.44,2.44,0,0,1,2-.91,2,2,0,0,1,1.8,1h0v-.84h1Zm-1-2.23V216a1.73,1.73,0,0,0-.48-1.23,1.58,1.58,0,0,0-1.2-.51,1.68,1.68,0,0,0-1.4.65,2.86,2.86,0,0,0-.5,1.81,2.51,2.51,0,0,0,.48,1.61,1.56,1.56,0,0,0,1.28.6,1.67,1.67,0,0,0,1.32-.58A2.16,2.16,0,0,0,136.65,216.87Z" fill="#1e1e1e"/>
      <path d="M144.38,216.82h-4.24a2.28,2.28,0,0,0,.54,1.55,1.89,1.89,0,0,0,1.42.55,3,3,0,0,0,1.87-.67v.9a3.53,3.53,0,0,1-2.1.58,2.54,2.54,0,0,1-2-.82,3.33,3.33,0,0,1-.73-2.3,3.25,3.25,0,0,1,.79-2.28,2.55,2.55,0,0,1,2-.89,2.26,2.26,0,0,1,1.83.77,3.15,3.15,0,0,1,.64,2.11Zm-1-.81a2,2,0,0,0-.4-1.29,1.38,1.38,0,0,0-1.1-.47,1.54,1.54,0,0,0-1.16.49,2.21,2.21,0,0,0-.58,1.27Z" fill="#1e1e1e"/>
      <path d="M149,214.56a1.14,1.14,0,0,0-.72-.2,1.24,1.24,0,0,0-1,.58,2.68,2.68,0,0,0-.41,1.59v3.05h-1v-6h1v1.24h0a2.09,2.09,0,0,1,.63-1,1.44,1.44,0,0,1,.94-.35,1.65,1.65,0,0,1,.57.08Z" fill="#1e1e1e"/>
    </g>
    <g>
      <path d="M68.94,170.91v3.17H68v-8.4h2.31a3,3,0,0,1,2.09.66,2.35,2.35,0,0,1,.74,1.85,2.58,2.58,0,0,1-.82,2,3.19,3.19,0,0,1-2.23.76Zm0-4.34V170h1a2.3,2.3,0,0,0,1.55-.47,1.64,1.64,0,0,0,.54-1.31c0-1.11-.66-1.67-2-1.67Z" fill="#1e1e1e"/>
      <path d="M79.4,174.08h-1v-1h0a2,2,0,0,1-1.85,1.09c-1.43,0-2.15-.85-2.15-2.55v-3.59h1v3.44c0,1.26.48,1.9,1.45,1.9A1.49,1.49,0,0,0,78,172.9a2,2,0,0,0,.45-1.36v-3.46h1Z" fill="#1e1e1e"/>
      <path d="M82.33,173.22h0v.86h-1V165.2h1v3.94h0a2.26,2.26,0,0,1,2.07-1.2,2.2,2.2,0,0,1,1.81.81,3.37,3.37,0,0,1,.65,2.16,3.71,3.71,0,0,1-.73,2.41,2.45,2.45,0,0,1-2,.9A2,2,0,0,1,82.33,173.22Zm0-2.42v.83a1.82,1.82,0,0,0,.49,1.27,1.72,1.72,0,0,0,2.59-.15,3.09,3.09,0,0,0,.5-1.86,2.47,2.47,0,0,0-.46-1.57,1.54,1.54,0,0,0-1.26-.57,1.73,1.73,0,0,0-1.35.58A2.16,2.16,0,0,0,82.3,170.8Z" fill="#1e1e1e"/>
      <path d="M89.36,174.08h-1V165.2h1Z" fill="#1e1e1e"/>
      <path d="M91.8,166.56a.59.59,0,0,1-.44-.18.57.57,0,0,1-.18-.44.61.61,0,0,1,.18-.45.59.59,0,0,1,.44-.18.6.6,0,0,1,.44.18.58.58,0,0,1,.19.45.58.58,0,0,1-.19.44A.6.6,0,0,1,91.8,166.56Zm.47,7.52h-1v-6h1Z" fill="#1e1e1e"/>
      <path d="M98.3,173.81a3.1,3.1,0,0,1-1.64.41,2.68,2.68,0,0,1-2.07-.83,3,3,0,0,1-.79-2.17,3.32,3.32,0,0,1,.85-2.38,3,3,0,0,1,2.27-.9,3.09,3.09,0,0,1,1.39.3v1a2.45,2.45,0,0,0-1.43-.47,2,2,0,0,0-1.51.66,2.52,2.52,0,0,0-.59,1.73,2.39,2.39,0,0,0,.56,1.67,1.92,1.92,0,0,0,1.48.61,2.4,2.4,0,0,0,1.48-.53Z" fill="#1e1e1e"/>
      <path d="M104.15,170.91v3.17h-1v-8.4h2.31a3,3,0,0,1,2.09.66,2.35,2.35,0,0,1,.74,1.85,2.55,2.55,0,0,1-.83,2,3.16,3.16,0,0,1-2.22.76Zm0-4.34V170h1a2.31,2.31,0,0,0,1.55-.47,1.64,1.64,0,0,0,.54-1.31c0-1.11-.66-1.67-2-1.67Z" fill="#1e1e1e"/>
      <path d="M111.82,174.22a2.79,2.79,0,0,1-2.12-.84,3.1,3.1,0,0,1-.79-2.23,3.26,3.26,0,0,1,.82-2.36,3,3,0,0,1,2.23-.85,2.7,2.7,0,0,1,2.1.83,3.27,3.27,0,0,1,.75,2.29,3.23,3.23,0,0,1-.81,2.3A2.83,2.83,0,0,1,111.82,174.22Zm.07-5.47a1.83,1.83,0,0,0-1.46.63,2.59,2.59,0,0,0-.54,1.74,2.41,2.41,0,0,0,.55,1.68,1.83,1.83,0,0,0,1.45.62,1.78,1.78,0,0,0,1.44-.61,2.62,2.62,0,0,0,.5-1.71,2.71,2.71,0,0,0-.5-1.74A1.78,1.78,0,0,0,111.89,168.75Z" fill="#1e1e1e"/>
      <path d="M119.48,169.06a1.18,1.18,0,0,0-.73-.2,1.25,1.25,0,0,0-1,.58,2.75,2.75,0,0,0-.41,1.59v3.05h-1v-6h1v1.24h0a2.17,2.17,0,0,1,.63-1,1.44,1.44,0,0,1,.94-.35,1.75,1.75,0,0,1,.58.08Z" fill="#1e1e1e"/>
      <path d="M123.3,174a1.87,1.87,0,0,1-.89.18c-1.06,0-1.58-.58-1.58-1.75V168.9h-1v-.82h1v-1.46l1-.31v1.77h1.51v.82h-1.51v3.39a1.39,1.39,0,0,0,.21.86.81.81,0,0,0,.68.25,1,1,0,0,0,.62-.19Z" fill="#1e1e1e"/>
      <path d="M128.88,174.08h-1v-.93h0a2,2,0,0,1-1.85,1.07,1.93,1.93,0,0,1-1.4-.47,1.65,1.65,0,0,1-.51-1.26c0-1.12.66-1.77,2-2l1.8-.25c0-1-.41-1.53-1.24-1.53a3,3,0,0,0-2,.74v-1a3.68,3.68,0,0,1,2-.57c1.41,0,2.11.75,2.11,2.24Zm-1-3-1.45.2a2.35,2.35,0,0,0-1,.33,1,1,0,0,0-.34.84.93.93,0,0,0,.32.72,1.24,1.24,0,0,0,.83.28,1.55,1.55,0,0,0,1.18-.5,1.81,1.81,0,0,0,.47-1.27Z" fill="#1e1e1e"/>
      <path d="M131.65,174.08h-1V165.2h1Z" fill="#1e1e1e"/>
    </g>
    <g>
      <path d="M56.63,253.08H55.46l-1.41-2.35a5,5,0,0,0-.37-.56,2.27,2.27,0,0,0-.38-.38,1.07,1.07,0,0,0-.41-.21,1.49,1.49,0,0,0-.49-.07h-.81v3.57h-1v-8.4h2.51a3.64,3.64,0,0,1,1,.14,2.23,2.23,0,0,1,.81.42,1.84,1.84,0,0,1,.53.7,2.28,2.28,0,0,1,.2,1,2.64,2.64,0,0,1-.13.81,2.22,2.22,0,0,1-.38.65,2.37,2.37,0,0,1-.59.49,2.82,2.82,0,0,1-.77.31v0a1.63,1.63,0,0,1,.37.21,2.56,2.56,0,0,1,.3.28,4.17,4.17,0,0,1,.27.38c.1.13.2.3.31.48Zm-5-7.51v3.05h1.34a2.15,2.15,0,0,0,.68-.11,1.61,1.61,0,0,0,.54-.32,1.57,1.57,0,0,0,.36-.51,1.83,1.83,0,0,0,.13-.68A1.32,1.32,0,0,0,54.2,246a1.88,1.88,0,0,0-1.26-.38Z" fill="#1e1e1e"/>
      <path d="M62.12,250.32H57.89a2.19,2.19,0,0,0,.54,1.55,1.86,1.86,0,0,0,1.42.55,3,3,0,0,0,1.86-.67v.9a3.52,3.52,0,0,1-2.09.57,2.54,2.54,0,0,1-2-.81,3.33,3.33,0,0,1-.73-2.3,3.25,3.25,0,0,1,.8-2.28,2.54,2.54,0,0,1,2-.89,2.26,2.26,0,0,1,1.82.77,3.15,3.15,0,0,1,.64,2.11Zm-1-.81a2,2,0,0,0-.4-1.3,1.39,1.39,0,0,0-1.1-.46,1.52,1.52,0,0,0-1.15.49,2.16,2.16,0,0,0-.59,1.27Z" fill="#1e1e1e"/>
      <path d="M63.21,252.87v-1a2.9,2.9,0,0,0,1.73.58c.85,0,1.27-.29,1.27-.85a.72.72,0,0,0-.11-.4,1,1,0,0,0-.29-.3,2.27,2.27,0,0,0-.44-.23l-.53-.22a5.16,5.16,0,0,1-.7-.32,1.94,1.94,0,0,1-.51-.36,1.41,1.41,0,0,1-.3-.46,1.57,1.57,0,0,1-.1-.6,1.44,1.44,0,0,1,.19-.75,1.58,1.58,0,0,1,.52-.54,2.34,2.34,0,0,1,.73-.34,3.59,3.59,0,0,1,2.25.16v1a2.72,2.72,0,0,0-1.53-.44,1.75,1.75,0,0,0-.48.06,1,1,0,0,0-.37.18.66.66,0,0,0-.24.26.7.7,0,0,0-.09.35.8.8,0,0,0,.09.39.9.9,0,0,0,.24.28,1.89,1.89,0,0,0,.4.22l.54.22c.26.1.5.21.71.31a2.44,2.44,0,0,1,.54.37,1.38,1.38,0,0,1,.34.46,1.54,1.54,0,0,1,.12.63,1.47,1.47,0,0,1-.19.77,1.74,1.74,0,0,1-.53.55,2.54,2.54,0,0,1-.75.32,3.82,3.82,0,0,1-.9.1A3.41,3.41,0,0,1,63.21,252.87Z" fill="#1e1e1e"/>
      <path d="M71.18,253.22a2.79,2.79,0,0,1-2.13-.84,3.1,3.1,0,0,1-.79-2.23,3.22,3.22,0,0,1,.83-2.36,3,3,0,0,1,2.23-.85,2.69,2.69,0,0,1,2.09.83,3.28,3.28,0,0,1,.76,2.29,3.23,3.23,0,0,1-.82,2.3A2.81,2.81,0,0,1,71.18,253.22Zm.07-5.47a1.84,1.84,0,0,0-1.47.63,2.59,2.59,0,0,0-.54,1.74,2.46,2.46,0,0,0,.55,1.68,1.85,1.85,0,0,0,1.46.62,1.76,1.76,0,0,0,1.43-.61,2.62,2.62,0,0,0,.5-1.71,2.71,2.71,0,0,0-.5-1.74A1.76,1.76,0,0,0,71.25,247.75Z" fill="#1e1e1e"/>
      <path d="M80.55,253.08h-1v-1h0a2,2,0,0,1-1.85,1.09c-1.43,0-2.15-.85-2.15-2.55v-3.59h1v3.44c0,1.26.48,1.9,1.45,1.9a1.5,1.5,0,0,0,1.16-.52,2,2,0,0,0,.45-1.36v-3.46h1Z" fill="#1e1e1e"/>
      <path d="M85.62,248.06a1.18,1.18,0,0,0-.73-.2,1.22,1.22,0,0,0-1,.58,2.68,2.68,0,0,0-.42,1.59v3.05h-1v-6h1v1.24h0a2.08,2.08,0,0,1,.62-1,1.47,1.47,0,0,1,1-.35,1.65,1.65,0,0,1,.57.08Z" fill="#1e1e1e"/>
      <path d="M90.75,252.81a3.07,3.07,0,0,1-1.64.41,2.71,2.71,0,0,1-2.07-.83,3.06,3.06,0,0,1-.79-2.17,3.36,3.36,0,0,1,.85-2.38,3,3,0,0,1,2.27-.9,3.13,3.13,0,0,1,1.4.3v1a2.49,2.49,0,0,0-1.43-.47,1.92,1.92,0,0,0-1.51.66,2.47,2.47,0,0,0-.59,1.73,2.39,2.39,0,0,0,.55,1.67,1.94,1.94,0,0,0,1.49.61,2.39,2.39,0,0,0,1.47-.53Z" fill="#1e1e1e"/>
      <path d="M97,250.32H92.79a2.28,2.28,0,0,0,.54,1.55,1.89,1.89,0,0,0,1.42.55,3,3,0,0,0,1.86-.67v.9a3.47,3.47,0,0,1-2.09.57,2.56,2.56,0,0,1-2-.81,3.37,3.37,0,0,1-.72-2.3,3.25,3.25,0,0,1,.79-2.28,2.55,2.55,0,0,1,2-.89,2.24,2.24,0,0,1,1.82.77,3.15,3.15,0,0,1,.65,2.11Zm-1-.81a1.93,1.93,0,0,0-.4-1.3,1.39,1.39,0,0,0-1.1-.46,1.54,1.54,0,0,0-1.15.49,2.22,2.22,0,0,0-.59,1.27Z" fill="#1e1e1e"/>
      <path d="M102.88,249.91v3.17h-1v-8.4h2.31a3.06,3.06,0,0,1,2.09.66,2.35,2.35,0,0,1,.74,1.85,2.55,2.55,0,0,1-.83,2,3.18,3.18,0,0,1-2.22.76Zm0-4.34V249h1a2.33,2.33,0,0,0,1.56-.47,1.64,1.64,0,0,0,.54-1.31c0-1.11-.66-1.67-2-1.67Z" fill="#1e1e1e"/>
      <path d="M111.62,248.06a1.18,1.18,0,0,0-.73-.2,1.25,1.25,0,0,0-1,.58,2.75,2.75,0,0,0-.41,1.59v3.05h-1v-6h1v1.24h0a2.17,2.17,0,0,1,.63-1A1.46,1.46,0,0,1,111,247a1.71,1.71,0,0,1,.58.08Z" fill="#1e1e1e"/>
      <path d="M115.17,253.22a2.76,2.76,0,0,1-2.12-.84,3.11,3.11,0,0,1-.8-2.23,3.26,3.26,0,0,1,.83-2.36,3,3,0,0,1,2.23-.85,2.69,2.69,0,0,1,2.09.83,3.75,3.75,0,0,1-.05,4.59A2.83,2.83,0,0,1,115.17,253.22Zm.07-5.47a1.84,1.84,0,0,0-1.47.63,2.64,2.64,0,0,0-.53,1.74,2.46,2.46,0,0,0,.54,1.68,1.85,1.85,0,0,0,1.46.62,1.76,1.76,0,0,0,1.43-.61,2.57,2.57,0,0,0,.5-1.71,2.65,2.65,0,0,0-.5-1.74A1.76,1.76,0,0,0,115.24,247.75Z" fill="#1e1e1e"/>
      <path d="M124.41,247.08l-2.39,6h-.94l-2.28-6h1.06l1.52,4.36a4.27,4.27,0,0,1,.21.84h0a4.38,4.38,0,0,1,.19-.81l1.6-4.39Z" fill="#1e1e1e"/>
      <path d="M125.93,245.56a.6.6,0,0,1-.44-.18.57.57,0,0,1-.18-.44.61.61,0,0,1,.18-.45.6.6,0,0,1,.44-.18.61.61,0,0,1,.45.18.62.62,0,0,1,0,.89A.61.61,0,0,1,125.93,245.56Zm.47,7.52h-1v-6h1Z" fill="#1e1e1e"/>
      <path d="M133.47,253.08h-1v-1h0a2.2,2.2,0,0,1-2.06,1.16,2.24,2.24,0,0,1-1.81-.8,3.32,3.32,0,0,1-.67-2.2,3.59,3.59,0,0,1,.75-2.38,2.46,2.46,0,0,1,2-.9,1.91,1.91,0,0,1,1.79,1h0V244.2h1Zm-1-2.71v-.88a1.7,1.7,0,0,0-.48-1.23,1.61,1.61,0,0,0-1.22-.51,1.64,1.64,0,0,0-1.38.65,2.79,2.79,0,0,0-.51,1.78,2.56,2.56,0,0,0,.48,1.64,1.6,1.6,0,0,0,1.3.6,1.68,1.68,0,0,0,1.31-.58A2.2,2.2,0,0,0,132.51,250.37Z" fill="#1e1e1e"/>
      <path d="M140.24,250.32H136a2.23,2.23,0,0,0,.54,1.55,1.86,1.86,0,0,0,1.42.55,3,3,0,0,0,1.86-.67v.9a3.5,3.5,0,0,1-2.09.57,2.54,2.54,0,0,1-2-.81,3.37,3.37,0,0,1-.73-2.3,3.25,3.25,0,0,1,.8-2.28,2.54,2.54,0,0,1,2-.89,2.26,2.26,0,0,1,1.82.77,3.15,3.15,0,0,1,.65,2.11Zm-1-.81a2,2,0,0,0-.4-1.3,1.39,1.39,0,0,0-1.1-.46,1.52,1.52,0,0,0-1.15.49,2.22,2.22,0,0,0-.59,1.27Z" fill="#1e1e1e"/>
      <path d="M144.82,248.06a1.18,1.18,0,0,0-.73-.2,1.25,1.25,0,0,0-1,.58,2.75,2.75,0,0,0-.41,1.59v3.05h-1v-6h1v1.24h0a2.17,2.17,0,0,1,.63-1,1.46,1.46,0,0,1,.94-.35,1.71,1.71,0,0,1,.58.08Z" fill="#1e1e1e"/>
      <path d="M145.5,252.87v-1a2.88,2.88,0,0,0,1.73.58c.84,0,1.26-.29,1.26-.85a.65.65,0,0,0-.11-.4,1,1,0,0,0-.29-.3,2.18,2.18,0,0,0-.43-.23l-.54-.22a5.16,5.16,0,0,1-.7-.32,1.74,1.74,0,0,1-.5-.36,1.29,1.29,0,0,1-.31-.46,1.57,1.57,0,0,1-.1-.6,1.44,1.44,0,0,1,.19-.75,1.58,1.58,0,0,1,.52-.54,2.45,2.45,0,0,1,.73-.34,3.49,3.49,0,0,1,.86-.11,3.41,3.41,0,0,1,1.39.27v1a2.71,2.71,0,0,0-1.52-.44,1.88,1.88,0,0,0-.49.06,1.06,1.06,0,0,0-.37.18.85.85,0,0,0-.24.26.7.7,0,0,0-.09.35.8.8,0,0,0,.09.39.94.94,0,0,0,.25.28,1.67,1.67,0,0,0,.4.22l.53.22c.26.1.5.21.71.31a2.23,2.23,0,0,1,.54.37,1.41,1.41,0,0,1,.35.46,1.54,1.54,0,0,1,.12.63,1.47,1.47,0,0,1-.2.77,1.82,1.82,0,0,1-.52.55,2.6,2.6,0,0,1-.76.32,3.76,3.76,0,0,1-.9.1A3.37,3.37,0,0,1,145.5,252.87Z" fill="#1e1e1e"/>
    </g>
    <g>
      <path d="M256.59,70.58h-1v-.93h0a2,2,0,0,1-1.84,1.07,2,2,0,0,1-1.41-.47,1.64,1.64,0,0,1-.5-1.26c0-1.12.66-1.77,2-2l1.79-.25q0-1.53-1.23-1.53a3,3,0,0,0-2,.74V65a3.68,3.68,0,0,1,2-.57c1.41,0,2.12.75,2.12,2.24Zm-1-3-1.44.2a2.3,2.3,0,0,0-1,.33,1,1,0,0,0-.34.84.92.92,0,0,0,.31.72,1.25,1.25,0,0,0,.84.28,1.55,1.55,0,0,0,1.18-.5,1.8,1.8,0,0,0,.46-1.27Z" fill="#1e1e1e"/>
      <path d="M263.52,70.58h-1v-1h0a2.2,2.2,0,0,1-2.06,1.16,2.24,2.24,0,0,1-1.81-.8,3.32,3.32,0,0,1-.67-2.2,3.59,3.59,0,0,1,.75-2.38,2.46,2.46,0,0,1,2-.9,1.92,1.92,0,0,1,1.8,1h0V61.7h1Zm-1-2.71V67a1.7,1.7,0,0,0-.48-1.23,1.61,1.61,0,0,0-1.22-.51,1.68,1.68,0,0,0-1.39.65,2.85,2.85,0,0,0-.5,1.78,2.56,2.56,0,0,0,.48,1.64,1.6,1.6,0,0,0,1.3.6,1.68,1.68,0,0,0,1.31-.58A2.2,2.2,0,0,0,262.56,67.87Z" fill="#1e1e1e"/>
      <path d="M274,70.58h-1V67.14a2.52,2.52,0,0,0-.31-1.44,1.15,1.15,0,0,0-1-.45,1.3,1.3,0,0,0-1.05.56,2.22,2.22,0,0,0-.43,1.35v3.42h-1V67c0-1.18-.45-1.77-1.36-1.77a1.3,1.3,0,0,0-1.05.53,2.24,2.24,0,0,0-.41,1.38v3.42h-1v-6h1v1h0a2,2,0,0,1,1.86-1.09,1.72,1.72,0,0,1,1.07.35,1.62,1.62,0,0,1,.63.9,2.15,2.15,0,0,1,2-1.25c1.32,0,2,.82,2,2.45Z" fill="#1e1e1e"/>
      <path d="M276.29,63.06a.6.6,0,0,1-.44-.18.57.57,0,0,1-.18-.44.61.61,0,0,1,.18-.45.6.6,0,0,1,.44-.18.62.62,0,0,1,.63.63.6.6,0,0,1-.18.44A.61.61,0,0,1,276.29,63.06Zm.47,7.52h-1v-6h1Z" fill="#1e1e1e"/>
      <path d="M283.69,70.58h-1V67.16c0-1.27-.46-1.91-1.39-1.91a1.5,1.5,0,0,0-1.19.54,2,2,0,0,0-.47,1.37v3.42h-1v-6h1v1h0a2.16,2.16,0,0,1,2-1.14,1.84,1.84,0,0,1,1.5.64,2.82,2.82,0,0,1,.53,1.84Z" fill="#1e1e1e"/>
      <path d="M290.62,70.58h-1v-1h0a2.2,2.2,0,0,1-2.06,1.16,2.24,2.24,0,0,1-1.81-.8,3.32,3.32,0,0,1-.67-2.2,3.59,3.59,0,0,1,.75-2.38,2.46,2.46,0,0,1,2-.9,1.92,1.92,0,0,1,1.8,1h0V61.7h1Zm-1-2.71V67a1.7,1.7,0,0,0-.48-1.23,1.61,1.61,0,0,0-1.22-.51,1.68,1.68,0,0,0-1.39.65,2.85,2.85,0,0,0-.5,1.78,2.56,2.56,0,0,0,.48,1.64,1.6,1.6,0,0,0,1.3.6,1.68,1.68,0,0,0,1.31-.58A2.2,2.2,0,0,0,289.66,67.87Z" fill="#1e1e1e"/>
      <path d="M293.05,63.06a.58.58,0,0,1-.43-.18.55.55,0,0,1-.19-.44.63.63,0,0,1,.62-.63.61.61,0,0,1,.45.18.58.58,0,0,1,.19.45.58.58,0,0,1-.19.44A.61.61,0,0,1,293.05,63.06Zm.47,7.52h-1v-6h1Z" fill="#1e1e1e"/>
      <path d="M298.6,65.56a1.18,1.18,0,0,0-.73-.2,1.25,1.25,0,0,0-1,.58,2.75,2.75,0,0,0-.41,1.59v3h-1v-6h1v1.24h0a2.17,2.17,0,0,1,.63-1,1.46,1.46,0,0,1,.94-.35,1.75,1.75,0,0,1,.58.08Z" fill="#1e1e1e"/>
      <path d="M300,70.71a.62.62,0,0,1-.46-.19.66.66,0,0,1-.19-.46.68.68,0,0,1,.19-.47.64.64,0,0,1,.93,0,.65.65,0,0,1,.2.47.67.67,0,0,1-.67.65Z" fill="#1e1e1e"/>
      <path d="M304.75,70.72a2.77,2.77,0,0,1-2.12-.84,3.11,3.11,0,0,1-.8-2.23,3.26,3.26,0,0,1,.83-2.36,3,3,0,0,1,2.23-.85,2.71,2.71,0,0,1,2.1.83,3.27,3.27,0,0,1,.75,2.29,3.23,3.23,0,0,1-.81,2.3A2.83,2.83,0,0,1,304.75,70.72Zm.07-5.47a1.8,1.8,0,0,0-1.46.63,2.59,2.59,0,0,0-.54,1.74,2.46,2.46,0,0,0,.54,1.68,1.85,1.85,0,0,0,1.46.62,1.76,1.76,0,0,0,1.43-.61,2.57,2.57,0,0,0,.5-1.71,2.65,2.65,0,0,0-.5-1.74A1.76,1.76,0,0,0,304.82,65.25Z" fill="#1e1e1e"/>
      <path d="M314.25,70.58h-1V67.16c0-1.27-.46-1.91-1.39-1.91a1.5,1.5,0,0,0-1.19.54,2,2,0,0,0-.48,1.37v3.42h-1v-6h1v1h0a2.16,2.16,0,0,1,2-1.14,1.85,1.85,0,0,1,1.5.64,2.82,2.82,0,0,1,.52,1.84Z" fill="#1e1e1e"/>
      <path d="M324.58,70.58h-1V67.14a2.62,2.62,0,0,0-.3-1.44,1.17,1.17,0,0,0-1-.45,1.27,1.27,0,0,0-1,.56,2.16,2.16,0,0,0-.44,1.35v3.42h-1V67c0-1.18-.45-1.77-1.36-1.77a1.27,1.27,0,0,0-1,.53,2.18,2.18,0,0,0-.41,1.38v3.42h-1v-6h1v1h0a2,2,0,0,1,1.86-1.09,1.72,1.72,0,0,1,1.07.35,1.62,1.62,0,0,1,.63.9,2.15,2.15,0,0,1,2-1.25c1.32,0,2,.82,2,2.45Z" fill="#1e1e1e"/>
      <path d="M326.89,63.06a.6.6,0,0,1-.44-.18.57.57,0,0,1-.18-.44.61.61,0,0,1,.18-.45.6.6,0,0,1,.44-.18.61.61,0,0,1,.45.18.62.62,0,0,1,0,.89A.61.61,0,0,1,326.89,63.06Zm.47,7.52h-1v-6h1Z" fill="#1e1e1e"/>
      <path d="M333.4,70.31a3.1,3.1,0,0,1-1.64.41,2.72,2.72,0,0,1-2.08-.83,3.06,3.06,0,0,1-.78-2.17,3.32,3.32,0,0,1,.85-2.38,3,3,0,0,1,2.26-.9,3.1,3.1,0,0,1,1.4.3v1a2.47,2.47,0,0,0-1.43-.47,1.93,1.93,0,0,0-1.51.66,2.52,2.52,0,0,0-.59,1.73,2.43,2.43,0,0,0,.55,1.67,1.94,1.94,0,0,0,1.49.61,2.42,2.42,0,0,0,1.48-.53Z" fill="#1e1e1e"/>
      <path d="M338,65.56a1.18,1.18,0,0,0-.73-.2,1.25,1.25,0,0,0-1,.58,2.75,2.75,0,0,0-.41,1.59v3h-1v-6h1v1.24h0a2.17,2.17,0,0,1,.63-1,1.46,1.46,0,0,1,.94-.35,1.71,1.71,0,0,1,.58.08Z" fill="#1e1e1e"/>
      <path d="M341.53,70.72a2.76,2.76,0,0,1-2.12-.84,3.11,3.11,0,0,1-.8-2.23,3.26,3.26,0,0,1,.83-2.36,3,3,0,0,1,2.23-.85,2.69,2.69,0,0,1,2.09.83,3.75,3.75,0,0,1-.05,4.59A2.83,2.83,0,0,1,341.53,70.72Zm.07-5.47a1.84,1.84,0,0,0-1.47.63,2.64,2.64,0,0,0-.53,1.74,2.46,2.46,0,0,0,.54,1.68,1.85,1.85,0,0,0,1.46.62,1.76,1.76,0,0,0,1.43-.61,2.57,2.57,0,0,0,.5-1.71,2.65,2.65,0,0,0-.5-1.74A1.76,1.76,0,0,0,341.6,65.25Z" fill="#1e1e1e"/>
      <path d="M345.69,70.37v-1a2.88,2.88,0,0,0,1.73.58c.84,0,1.26-.29,1.26-.85a.72.72,0,0,0-.1-.4,1.07,1.07,0,0,0-.3-.3,2.18,2.18,0,0,0-.43-.23l-.54-.22a5.79,5.79,0,0,1-.7-.32,1.74,1.74,0,0,1-.5-.36,1.29,1.29,0,0,1-.31-.46,1.79,1.79,0,0,1-.1-.6,1.55,1.55,0,0,1,.19-.75,1.68,1.68,0,0,1,.52-.54,2.4,2.4,0,0,1,.74-.34,3.56,3.56,0,0,1,2.24.16v1a2.71,2.71,0,0,0-1.52-.44,1.88,1.88,0,0,0-.49.06,1.06,1.06,0,0,0-.37.18.85.85,0,0,0-.24.26.69.69,0,0,0-.08.35.8.8,0,0,0,.08.39.94.94,0,0,0,.25.28,1.67,1.67,0,0,0,.4.22l.53.22c.27.1.51.21.72.31a2.44,2.44,0,0,1,.54.37,1.36,1.36,0,0,1,.46,1.09,1.47,1.47,0,0,1-.2.77,1.7,1.7,0,0,1-.52.55,2.49,2.49,0,0,1-.76.32,3.71,3.71,0,0,1-.9.1A3.37,3.37,0,0,1,345.69,70.37Z" fill="#1e1e1e"/>
      <path d="M353.65,70.72a2.79,2.79,0,0,1-2.12-.84,3.11,3.11,0,0,1-.8-2.23,3.26,3.26,0,0,1,.83-2.36,3,3,0,0,1,2.23-.85,2.7,2.7,0,0,1,2.1.83,3.27,3.27,0,0,1,.75,2.29,3.23,3.23,0,0,1-.81,2.3A2.83,2.83,0,0,1,353.65,70.72Zm.07-5.47a1.83,1.83,0,0,0-1.46.63,2.59,2.59,0,0,0-.54,1.74,2.46,2.46,0,0,0,.54,1.68,1.87,1.87,0,0,0,1.46.62,1.79,1.79,0,0,0,1.44-.61,2.62,2.62,0,0,0,.5-1.71,2.71,2.71,0,0,0-.5-1.74A1.79,1.79,0,0,0,353.72,65.25Z" fill="#1e1e1e"/>
      <path d="M361.14,62.54a1.34,1.34,0,0,0-.64-.15c-.67,0-1,.42-1,1.27v.92h1.41v.82h-1.41v5.18h-.95V65.4h-1v-.82h1v-1a2,2,0,0,1,.54-1.49,1.84,1.84,0,0,1,1.36-.55,1.86,1.86,0,0,1,.7.11Z" fill="#1e1e1e"/>
      <path d="M364.71,70.53a1.87,1.87,0,0,1-.89.18c-1.05,0-1.58-.58-1.58-1.75V65.4h-1v-.82h1V63.12l1-.31v1.77h1.51v.82H363.2v3.39a1.39,1.39,0,0,0,.21.86.81.81,0,0,0,.68.25,1,1,0,0,0,.62-.19Z" fill="#1e1e1e"/>
      <path d="M366.33,70.71a.62.62,0,0,1-.46-.19.66.66,0,0,1-.19-.46.68.68,0,0,1,.19-.47.64.64,0,0,1,.93,0,.64.64,0,0,1,.19.47.62.62,0,0,1-.19.46A.63.63,0,0,1,366.33,70.71Z" fill="#1e1e1e"/>
      <path d="M372.69,70.31a3.1,3.1,0,0,1-1.64.41,2.68,2.68,0,0,1-2.07-.83,3,3,0,0,1-.79-2.17,3.32,3.32,0,0,1,.85-2.38,3,3,0,0,1,2.27-.9,3.09,3.09,0,0,1,1.39.3v1a2.45,2.45,0,0,0-1.43-.47,2,2,0,0,0-1.51.66,2.52,2.52,0,0,0-.59,1.73,2.39,2.39,0,0,0,.56,1.67,1.92,1.92,0,0,0,1.48.61,2.4,2.4,0,0,0,1.48-.53Z" fill="#1e1e1e"/>
      <path d="M376.65,70.72a2.77,2.77,0,0,1-2.12-.84,3.11,3.11,0,0,1-.8-2.23,3.26,3.26,0,0,1,.83-2.36,3,3,0,0,1,2.23-.85,2.71,2.71,0,0,1,2.1.83,3.27,3.27,0,0,1,.75,2.29,3.23,3.23,0,0,1-.81,2.3A2.83,2.83,0,0,1,376.65,70.72Zm.07-5.47a1.81,1.81,0,0,0-1.46.63,2.59,2.59,0,0,0-.54,1.74,2.46,2.46,0,0,0,.54,1.68,1.85,1.85,0,0,0,1.46.62,1.76,1.76,0,0,0,1.43-.61,2.57,2.57,0,0,0,.5-1.71,2.65,2.65,0,0,0-.5-1.74A1.76,1.76,0,0,0,376.72,65.25Z" fill="#1e1e1e"/>
      <path d="M389.69,70.58h-1V67.14a2.52,2.52,0,0,0-.31-1.44,1.15,1.15,0,0,0-1-.45,1.3,1.3,0,0,0-1.05.56,2.22,2.22,0,0,0-.43,1.35v3.42h-1V67c0-1.18-.45-1.77-1.36-1.77a1.3,1.3,0,0,0-1,.53,2.24,2.24,0,0,0-.41,1.38v3.42h-1v-6h1v1h0A2,2,0,0,1,384,64.44a1.72,1.72,0,0,1,1.07.35,1.62,1.62,0,0,1,.63.9,2.15,2.15,0,0,1,2-1.25c1.32,0,2,.82,2,2.45Z" fill="#1e1e1e"/>
    </g>
    <g>
      <path d="M36.71,22.86V21.7a2.23,2.23,0,0,0,.48.32,3.69,3.69,0,0,0,.58.23,3.5,3.5,0,0,0,.62.15,3.07,3.07,0,0,0,.57.06,2.29,2.29,0,0,0,1.36-.34,1.26,1.26,0,0,0,.3-1.56,1.76,1.76,0,0,0-.41-.46,4.57,4.57,0,0,0-.63-.4l-.77-.4c-.3-.15-.57-.3-.82-.45a3.2,3.2,0,0,1-.67-.51,2.26,2.26,0,0,1-.44-.62,1.91,1.91,0,0,1-.16-.82,1.93,1.93,0,0,1,.25-1,2.32,2.32,0,0,1,.66-.7,3.19,3.19,0,0,1,.94-.41,4.29,4.29,0,0,1,1.07-.13,4.08,4.08,0,0,1,1.81.3v1.1a3.31,3.31,0,0,0-1.91-.51,2.88,2.88,0,0,0-.65.07,1.58,1.58,0,0,0-.57.22,1.27,1.27,0,0,0-.41.39,1,1,0,0,0-.16.58,1.22,1.22,0,0,0,.12.56,1.31,1.31,0,0,0,.36.43,3,3,0,0,0,.57.37c.22.12.48.26.77.4s.59.31.86.47a4,4,0,0,1,.71.55,2.53,2.53,0,0,1,.48.66,1.84,1.84,0,0,1,.18.83,2.14,2.14,0,0,1-.24,1.05,1.93,1.93,0,0,1-.66.7,2.8,2.8,0,0,1-.95.39,5.24,5.24,0,0,1-1.14.12l-.49,0c-.2,0-.39,0-.6-.09l-.57-.16A1.51,1.51,0,0,1,36.71,22.86Z" fill="#1e1e1e"/>
      <path d="M43.84,15.68a.6.6,0,0,1-.44-.18.59.59,0,0,1-.18-.44.61.61,0,0,1,.18-.45.6.6,0,0,1,.44-.18.62.62,0,0,1,.63.63.6.6,0,0,1-.18.44A.61.61,0,0,1,43.84,15.68Zm.47,7.52h-1v-6h1Z" fill="#1e1e1e"/>
      <path d="M51.23,23.2h-1V19.78c0-1.27-.46-1.91-1.39-1.91a1.5,1.5,0,0,0-1.19.54,2,2,0,0,0-.48,1.37V23.2h-1v-6h1v1h0a2.16,2.16,0,0,1,2-1.14,1.81,1.81,0,0,1,1.5.64,2.79,2.79,0,0,1,.52,1.83Z" fill="#1e1e1e"/>
      <path d="M58.17,22.72c0,2.2-1.06,3.31-3.17,3.31a4.24,4.24,0,0,1-1.94-.43v-1a3.94,3.94,0,0,0,1.93.57c1.48,0,2.22-.79,2.22-2.36v-.66h0a2.42,2.42,0,0,1-3.86.35,3.17,3.17,0,0,1-.69-2.15A3.75,3.75,0,0,1,53.37,18a2.46,2.46,0,0,1,2-.9,2,2,0,0,1,1.8,1h0V17.2h1Zm-1-2.23V19.6a1.73,1.73,0,0,0-.49-1.22,1.58,1.58,0,0,0-1.2-.51,1.66,1.66,0,0,0-1.4.65,2.91,2.91,0,0,0-.5,1.81,2.48,2.48,0,0,0,.48,1.6,1.56,1.56,0,0,0,1.28.6A1.69,1.69,0,0,0,56.7,22,2.12,2.12,0,0,0,57.21,20.49Z" fill="#1e1e1e"/>
      <path d="M61.07,23.2h-1V14.32h1Z" fill="#1e1e1e"/>
      <path d="M67.84,20.44H63.6A2.28,2.28,0,0,0,64.14,22a1.88,1.88,0,0,0,1.42.54,2.94,2.94,0,0,0,1.86-.66v.9a3.47,3.47,0,0,1-2.09.57,2.53,2.53,0,0,1-2-.82,3.35,3.35,0,0,1-.72-2.3,3.28,3.28,0,0,1,.79-2.28,2.54,2.54,0,0,1,2-.88,2.26,2.26,0,0,1,1.83.76,3.25,3.25,0,0,1,.64,2.12Zm-1-.81a2,2,0,0,0-.41-1.3,1.35,1.35,0,0,0-1.09-.46,1.54,1.54,0,0,0-1.16.49,2.12,2.12,0,0,0-.58,1.27Z" fill="#1e1e1e"/>
      <path d="M77.68,15.69H75.25V23.2h-1V15.69H71.85V14.8h5.83Z" fill="#1e1e1e"/>
      <path d="M82.52,20.44H78.28A2.28,2.28,0,0,0,78.82,22a1.87,1.87,0,0,0,1.42.54,3,3,0,0,0,1.86-.66v.9a3.5,3.5,0,0,1-2.09.57,2.53,2.53,0,0,1-2-.82,3.35,3.35,0,0,1-.72-2.3,3.28,3.28,0,0,1,.79-2.28,2.54,2.54,0,0,1,2-.88,2.24,2.24,0,0,1,1.82.76,3.2,3.2,0,0,1,.65,2.12Zm-1-.81a1.91,1.91,0,0,0-.4-1.3,1.36,1.36,0,0,0-1.1-.46,1.54,1.54,0,0,0-1.15.49,2.19,2.19,0,0,0-.59,1.27Z" fill="#1e1e1e"/>
      <path d="M89,23.2H88V19.78c0-1.27-.46-1.91-1.39-1.91a1.54,1.54,0,0,0-1.2.54,2,2,0,0,0-.47,1.37V23.2H84v-6h1v1h0a2.15,2.15,0,0,1,2-1.14,1.83,1.83,0,0,1,1.51.64A2.79,2.79,0,0,1,89,19.53Z" fill="#1e1e1e"/>
      <path d="M95.06,23.2h-1v-.94h0a2.2,2.2,0,0,1-3.25.61,1.68,1.68,0,0,1-.5-1.26c0-1.12.66-1.78,2-2l1.8-.25c0-1-.42-1.53-1.24-1.53a3,3,0,0,0-2,.74v-1a3.76,3.76,0,0,1,2-.56c1.41,0,2.12.75,2.12,2.24Zm-1-3-1.45.2a2.3,2.3,0,0,0-1,.33,1.08,1.08,0,0,0,0,1.55,1.2,1.2,0,0,0,.84.28,1.51,1.51,0,0,0,1.18-.5,1.78,1.78,0,0,0,.47-1.27Z" fill="#1e1e1e"/>
      <path d="M101.85,23.2h-1V19.78c0-1.27-.47-1.91-1.4-1.91a1.5,1.5,0,0,0-1.19.54,2,2,0,0,0-.47,1.37V23.2h-1v-6h1v1h0a2.16,2.16,0,0,1,2-1.14,1.83,1.83,0,0,1,1.51.64,2.85,2.85,0,0,1,.52,1.83Z" fill="#1e1e1e"/>
      <path d="M106.44,23.14a1.8,1.8,0,0,1-.9.19c-1.05,0-1.57-.59-1.57-1.76V18h-1V17.2h1V15.74l1-.31V17.2h1.51V18h-1.51V21.4a1.45,1.45,0,0,0,.2.86.81.81,0,0,0,.68.26,1,1,0,0,0,.63-.2Z" fill="#1e1e1e"/>
    </g>
  </g>
</svg>
