<svg xmlns="http://www.w3.org/2000/svg" xmlns:xlink="http://www.w3.org/1999/xlink" viewBox="0 0 836 123">
  <defs>
    <linearGradient id="Blue_Gradient_2" data-name="Blue Gradient 2" x1="732.5" y1="122.75" x2="732.5" y2="0.25" gradientUnits="userSpaceOnUse">
      <stop offset="0" stop-color="#0078d4"/>
      <stop offset="0.16" stop-color="#1380da"/>
      <stop offset="0.53" stop-color="#3c91e5"/>
      <stop offset="0.82" stop-color="#559cec"/>
      <stop offset="1" stop-color="#5ea0ef"/>
    </linearGradient>
    <linearGradient id="Blue_Gradient_2-2" x1="418.5" x2="418.5" xlink:href="#Blue_Gradient_2"/>
    <linearGradient id="linear-gradient" x1="740.006" y1="1468.8" x2="740.006" y2="1432.993" gradientTransform="matrix(1, 0, 0, -1, 0, 1532)" gradientUnits="userSpaceOnUse">
      <stop offset="0" stop-color="#5ea0ef"/>
      <stop offset="0.18" stop-color="#559cec"/>
      <stop offset="0.47" stop-color="#3c91e5"/>
      <stop offset="0.84" stop-color="#1380da"/>
      <stop offset="1" stop-color="#0078d4"/>
    </linearGradient>
    <linearGradient id="linear-gradient-2" x1="734.021" y1="1432.611" x2="734.021" y2="1449.961" gradientTransform="matrix(1, 0, 0, -1, 0, 1532)" gradientUnits="userSpaceOnUse">
      <stop offset="0" stop-color="#198ab3"/>
      <stop offset="0.14" stop-color="#22a5cb"/>
      <stop offset="0.3" stop-color="#29bade"/>
      <stop offset="0.47" stop-color="#2ec9eb"/>
      <stop offset="0.68" stop-color="#31d1f3"/>
      <stop offset="1" stop-color="#32d4f5"/>
    </linearGradient>
    <linearGradient id="Grey_Gradient_2" data-name="Grey Gradient 2" x1="418.4" y1="56.6" x2="418.4" y2="113.8" gradientUnits="userSpaceOnUse">
      <stop offset="0" stop-color="#b3b2b3"/>
      <stop offset="0.38" stop-color="#afaeaf"/>
      <stop offset="0.76" stop-color="#a2a2a2"/>
      <stop offset="1" stop-color="#979797"/>
    </linearGradient>
    <linearGradient id="Blue_Gradient_2-3" x1="103.5" x2="103.5" xlink:href="#Blue_Gradient_2"/>
    <linearGradient id="Grey_Gradient_2-2" x1="103.8" y1="56.6" x2="103.8" y2="113.8" xlink:href="#Grey_Gradient_2"/>
  </defs>
  <g id="Shapes">
    <rect width="836" height="123" fill="#fff"/>
    <g>
      <rect x="629.25" y="0.25" width="206.5" height="122.5" fill="#fff"/>
      <rect x="629.25" y="0.25" width="206.5" height="122.5" opacity="0.25" fill="url(#Blue_Gradient_2)"/>
      <path d="M835.5.5v122h-206V.5h206M836,0H629V123H836V0Z" fill="#fff"/>
    </g>
    <g>
      <rect x="282.25" y="0.25" width="272.5" height="122.5" fill="#fff"/>
      <rect x="282.25" y="0.25" width="272.5" height="122.5" opacity="0.25" fill="url(#Blue_Gradient_2-2)"/>
      <path d="M554.5.5v122h-272V.5h272M555,0H282V123H555V0Z" fill="#fff"/>
    </g>
    <g id="b1186d34-5ca3-4e43-992d-40ecef5e891b">
      <g>
        <path d="M749.33,63.2H730.7a1.211,1.211,0,0,0-1.212,1.191V90.927a22.209,22.209,0,0,1,3.019-2.127h3.53L738,91.4v3.933l-2.467,1.786-3.423-.425-2.615-2.466v3.593a1.211,1.211,0,0,0,1.212,1.191H749.33a1.191,1.191,0,0,0,1.191-1.191V64.391A1.191,1.191,0,0,0,749.33,63.2Z" fill="url(#linear-gradient)"/>
        <path id="af47f827-8b1b-4acd-8974-8eafe35490c9" d="M732.277,66.921H735.7a.3.3,0,0,1,.3.3h0v4.422a.3.3,0,0,1-.3.3h-3.423a.3.3,0,0,1-.3-.3h0V67.219a.3.3,0,0,1,.3-.3Zm6.017,0h3.424a.3.3,0,0,1,.3.3h0v4.422a.3.3,0,0,1-.3.3h-3.424a.3.3,0,0,1-.3-.3h0V67.219a.3.3,0,0,1,.3-.3Zm6.039,0h3.423a.3.3,0,0,1,.3.3h0v4.422a.3.3,0,0,1-.3.3h-3.423a.3.3,0,0,1-.3-.3h0V67.219a.3.3,0,0,1,.3-.3Zm-12.056,7.995H735.7a.3.3,0,0,1,.3.3h0v4.465a.3.3,0,0,1-.3.3h-3.423a.3.3,0,0,1-.3-.3h0V75.256a.3.3,0,0,1,.252-.337Zm6.017,0h3.424a.3.3,0,0,1,.3.3h0v4.465a.3.3,0,0,1-.3.3h-3.424a.3.3,0,0,1-.3-.3h0V75.256a.3.3,0,0,1,.252-.337A.34.34,0,0,1,738.294,74.916Zm6.039,0h3.423a.3.3,0,0,1,.3.3h0v4.465a.3.3,0,0,1-.3.3h-3.423a.3.3,0,0,1-.3-.3h0V75.256a.3.3,0,0,1,.253-.337A.34.34,0,0,1,744.333,74.916ZM732.277,83H735.7a.3.3,0,0,1,.3.3h0v4.381a.3.3,0,0,1-.3.3h-3.423a.3.3,0,0,1-.3-.3V83.293A.3.3,0,0,1,732.277,83Zm6.017,0h3.424a.3.3,0,0,1,.3.3h0v4.381a.3.3,0,0,1-.3.3h-3.424a.3.3,0,0,1-.3-.3h0V83.293A.3.3,0,0,1,738.294,83Zm0,8.037h3.424a.3.3,0,0,1,.3.3h0V97.88a.3.3,0,0,1-.3.3h-3.424a.3.3,0,0,1-.3-.3V91.331a.3.3,0,0,1,.3-.3ZM744.333,83h3.423a.3.3,0,0,1,.3.3h0v4.381a.3.3,0,0,1-.3.3h-3.423a.3.3,0,0,1-.3-.3h0V83.293A.3.3,0,0,1,744.333,83Z" fill="#f2f2f2"/>
        <path d="M734.063,89.8a2.763,2.763,0,0,0-2.636,2.126h-9.569a6.016,6.016,0,0,0-.17,1.382v.128h9.739a2.743,2.743,0,1,0,2.636-3.636Z" fill="#50e6ff"/>
        <path d="M741.505,88.652a6.931,6.931,0,0,0-7.229-6.613,7.1,7.1,0,0,0-6.8,4.635,6.763,6.763,0,0,0-5.4,4.253h8.8a3.623,3.623,0,1,1-.064,3.125h-8.973A6.8,6.8,0,0,0,728.6,99.2h12.077a5.591,5.591,0,0,0,5.528-5.146A5.528,5.528,0,0,0,741.505,88.652Z" fill="url(#linear-gradient-2)"/>
        <path d="M734.063,89.8a2.763,2.763,0,0,0-2.636,2.126h-9.569a4.745,4.745,0,0,1-1-.127,4.819,4.819,0,0,1,.531-9.526h.468l.149-.425a5.441,5.441,0,0,1,5.231-3.636,5.612,5.612,0,0,1,4.848,2.7,6.534,6.534,0,0,1,1.594-.191A7.059,7.059,0,0,0,727.3,76.7a6.975,6.975,0,0,0-6.571,4.146,6.255,6.255,0,0,0-.489,12.248h0a4.276,4.276,0,0,0,1.552.255h9.633a2.743,2.743,0,1,0,2.636-3.551Z" fill="#50e6ff"/>
      </g>
    </g>
    <g>
      <rect x="290.8" y="56.6" width="255.2" height="57.2" fill="#fff"/>
      <rect x="290.8" y="56.6" width="255.2" height="57.2" opacity="0.4" fill="url(#Grey_Gradient_2)"/>
      <rect x="290.8" y="56.6" width="255.2" height="57.2" fill="none" stroke="#fff"/>
    </g>
    <g>
      <rect x="0.25" y="0.25" width="206.5" height="122.5" fill="#fff"/>
      <rect x="0.25" y="0.25" width="206.5" height="122.5" opacity="0.25" fill="url(#Blue_Gradient_2-3)"/>
      <path d="M206.5.5v122H.5V.5h206M207,0H0V123H207V0Z" fill="#fff"/>
    </g>
    <g>
      <rect x="9.2" y="56.6" width="189.2" height="57.2" fill="#fff"/>
      <rect x="9.2" y="56.6" width="189.2" height="57.2" opacity="0.4" fill="url(#Grey_Gradient_2-2)"/>
      <rect x="9.2" y="56.6" width="189.2" height="57.2" fill="none" stroke="#fff"/>
    </g>
    <line x1="207.2" y1="61" x2="282" y2="61" fill="none" stroke="#000" stroke-miterlimit="10"/>
    <line x1="554.8" y1="61" x2="629.6" y2="61" fill="none" stroke="#000" stroke-miterlimit="10"/>
  </g>
  <g id="Text">
    <g>
      <path d="M38.288,20.532l-5.879-2.953v-.4l5.879-3.295v1.026L33.9,17.339v.028l4.389,2.146Z" fill="#2f2f2f"/>
      <path d="M45.909,20.532,40.03,17.579v-.4l5.879-3.295v1.026l-4.388,2.433v.028l4.388,2.146Z" fill="#2f2f2f"/>
      <path d="M55.381,21.4H54.014l-1.641-2.748A5.9,5.9,0,0,0,51.936,18a2.562,2.562,0,0,0-.434-.441,1.5,1.5,0,0,0-.479-.249,1.952,1.952,0,0,0-.578-.079H49.5V21.4H48.354V11.6h2.925a4.163,4.163,0,0,1,1.186.161,2.628,2.628,0,0,1,.943.489,2.251,2.251,0,0,1,.626.816,2.975,2.975,0,0,1,.071,2.085,2.424,2.424,0,0,1-.437.763,2.628,2.628,0,0,1-.684.57,3.409,3.409,0,0,1-.9.366v.028a2.059,2.059,0,0,1,.428.249,2.326,2.326,0,0,1,.344.332,4.34,4.34,0,0,1,.326.434c.106.161.226.349.358.564ZM49.5,12.636v3.555h1.559a2.377,2.377,0,0,0,.8-.13,1.822,1.822,0,0,0,.632-.373,1.67,1.67,0,0,0,.417-.594,1.98,1.98,0,0,0,.151-.79,1.536,1.536,0,0,0-.51-1.227,2.185,2.185,0,0,0-1.473-.441Z" fill="#2f2f2f"/>
      <path d="M61.992,18.18H57.05a2.614,2.614,0,0,0,.629,1.8,2.167,2.167,0,0,0,1.654.636,3.439,3.439,0,0,0,2.174-.78v1.053a4.061,4.061,0,0,1-2.441.67,2.959,2.959,0,0,1-2.331-.954,3.9,3.9,0,0,1-.847-2.683,3.828,3.828,0,0,1,.925-2.662,2.973,2.973,0,0,1,2.3-1.029,2.63,2.63,0,0,1,2.126.889,3.705,3.705,0,0,1,.752,2.467Zm-1.148-.95a2.288,2.288,0,0,0-.468-1.511,1.6,1.6,0,0,0-1.282-.54,1.809,1.809,0,0,0-1.347.568,2.576,2.576,0,0,0-.684,1.483Z" fill="#2f2f2f"/>
      <path d="M64.824,20.388H64.8V24.62H63.676V14.4H64.8v1.23h.027a2.653,2.653,0,0,1,2.42-1.394,2.561,2.561,0,0,1,2.112.94,3.891,3.891,0,0,1,.759,2.519,4.343,4.343,0,0,1-.854,2.813,2.846,2.846,0,0,1-2.338,1.056A2.342,2.342,0,0,1,64.824,20.388ZM64.8,17.565v.977a2.08,2.08,0,0,0,.564,1.474,2.011,2.011,0,0,0,3.028-.175,3.573,3.573,0,0,0,.578-2.167,2.823,2.823,0,0,0-.54-1.832,1.789,1.789,0,0,0-1.463-.663,1.986,1.986,0,0,0-1.572.68A2.5,2.5,0,0,0,64.8,17.565Z" fill="#2f2f2f"/>
      <path d="M74.819,21.564a3.248,3.248,0,0,1-2.478-.981,3.636,3.636,0,0,1-.926-2.6,3.784,3.784,0,0,1,.964-2.755,3.463,3.463,0,0,1,2.6-.991,3.137,3.137,0,0,1,2.444.964,3.818,3.818,0,0,1,.879,2.673,3.76,3.76,0,0,1-.948,2.683A3.315,3.315,0,0,1,74.819,21.564Zm.082-6.385a2.133,2.133,0,0,0-1.709.735,3.021,3.021,0,0,0-.629,2.027A2.854,2.854,0,0,0,73.2,19.9a2.162,2.162,0,0,0,1.7.718,2.052,2.052,0,0,0,1.672-.7,3.062,3.062,0,0,0,.584-2,3.113,3.113,0,0,0-.584-2.024A2.042,2.042,0,0,0,74.9,15.179Z" fill="#2f2f2f"/>
      <path d="M79.57,21.147v-1.2a3.322,3.322,0,0,0,2.017.677q1.476,0,1.476-.985a.864.864,0,0,0-.125-.475,1.287,1.287,0,0,0-.342-.345,2.669,2.669,0,0,0-.506-.27c-.194-.08-.4-.163-.626-.25a8.274,8.274,0,0,1-.818-.372,2.518,2.518,0,0,1-.587-.424,1.58,1.58,0,0,1-.356-.537,1.911,1.911,0,0,1-.119-.7,1.665,1.665,0,0,1,.226-.871,1.992,1.992,0,0,1,.6-.636,2.78,2.78,0,0,1,.859-.386,3.775,3.775,0,0,1,.994-.13,4.029,4.029,0,0,1,1.627.314v1.135a3.175,3.175,0,0,0-1.778-.506,2.069,2.069,0,0,0-.567.072,1.387,1.387,0,0,0-.435.2.916.916,0,0,0-.279.311.819.819,0,0,0-.1.4.961.961,0,0,0,.1.458.993.993,0,0,0,.29.328,2.224,2.224,0,0,0,.465.259q.274.117.622.253a8.846,8.846,0,0,1,.834.366,2.891,2.891,0,0,1,.629.424,1.65,1.65,0,0,1,.4.543,1.76,1.76,0,0,1,.14.732,1.712,1.712,0,0,1-.23.9,1.952,1.952,0,0,1-.611.636,2.812,2.812,0,0,1-.882.376,4.356,4.356,0,0,1-1.046.123A3.975,3.975,0,0,1,79.57,21.147Z" fill="#2f2f2f"/>
      <path d="M86.362,12.623a.709.709,0,0,1-.512-.206.688.688,0,0,1-.212-.519.717.717,0,0,1,.724-.731.728.728,0,0,1,.524.208.731.731,0,0,1,0,1.036A.724.724,0,0,1,86.362,12.623Zm.547,8.777H85.788v-7h1.121Z" fill="#2f2f2f"/>
      <path d="M92.356,21.332a2.158,2.158,0,0,1-1.045.218q-1.839,0-1.839-2.05V15.357h-1.2V14.4h1.2V12.691l1.121-.362V14.4h1.763v.957H90.593V19.3a1.639,1.639,0,0,0,.239,1.005.953.953,0,0,0,.793.3,1.184,1.184,0,0,0,.731-.232Z" fill="#2f2f2f"/>
      <path d="M96.614,21.564a3.248,3.248,0,0,1-2.478-.981,3.636,3.636,0,0,1-.926-2.6,3.784,3.784,0,0,1,.964-2.755,3.463,3.463,0,0,1,2.6-.991,3.137,3.137,0,0,1,2.444.964,3.818,3.818,0,0,1,.879,2.673,3.76,3.76,0,0,1-.948,2.683A3.316,3.316,0,0,1,96.614,21.564Zm.082-6.385a2.133,2.133,0,0,0-1.709.735,3.021,3.021,0,0,0-.629,2.027,2.854,2.854,0,0,0,.636,1.962,2.162,2.162,0,0,0,1.7.718,2.052,2.052,0,0,0,1.672-.7,3.062,3.062,0,0,0,.584-2,3.113,3.113,0,0,0-.584-2.024A2.042,2.042,0,0,0,96.7,15.179Z" fill="#2f2f2f"/>
      <path d="M105.467,15.535a1.368,1.368,0,0,0-.848-.226,1.429,1.429,0,0,0-1.2.677,3.123,3.123,0,0,0-.482,1.846V21.4h-1.122v-7h1.122v1.442h.027a2.444,2.444,0,0,1,.731-1.152,1.673,1.673,0,0,1,1.1-.413,1.824,1.824,0,0,1,.67.1Z" fill="#2f2f2f"/>
      <path d="M112.808,14.4l-3.22,8.121q-.861,2.173-2.42,2.174a2.569,2.569,0,0,1-.731-.089V23.6a2.073,2.073,0,0,0,.663.123,1.373,1.373,0,0,0,1.271-1.012l.561-1.326L106.2,14.4h1.244l1.894,5.387q.033.1.144.533h.041c.022-.11.068-.283.136-.52l1.99-5.4Z" fill="#2f2f2f"/>
      <path d="M117.785,11.6l-4.7,11.43h-1.046l4.69-11.43Z" fill="#2f2f2f"/>
      <path d="M125.914,20.73a6.554,6.554,0,0,1-3.281.834,4.485,4.485,0,0,1-3.395-1.354,4.966,4.966,0,0,1-1.3-3.582,5.094,5.094,0,0,1,1.44-3.735,4.9,4.9,0,0,1,3.646-1.46,6.2,6.2,0,0,1,2.687.52v1.271a5.163,5.163,0,0,0-2.817-.752,3.521,3.521,0,0,0-2.7,1.135,4.148,4.148,0,0,0-1.053,2.939,4.158,4.158,0,0,0,.978,2.923,3.427,3.427,0,0,0,2.652,1.063,4.105,4.105,0,0,0,1.99-.458V17.326h-2.147V16.287h3.3Z" fill="#2f2f2f"/>
      <path d="M128.526,12.623a.709.709,0,0,1-.512-.206.688.688,0,0,1-.212-.519.717.717,0,0,1,.724-.731.728.728,0,0,1,.524.208.731.731,0,0,1,0,1.036A.724.724,0,0,1,128.526,12.623Zm.547,8.777h-1.121v-7h1.121Z" fill="#2f2f2f"/>
      <path d="M134.521,21.332a2.165,2.165,0,0,1-1.046.218q-1.839,0-1.839-2.05V15.357h-1.2V14.4h1.2V12.691l1.121-.362V14.4h1.764v.957h-1.764V19.3A1.639,1.639,0,0,0,133,20.306a.953.953,0,0,0,.793.3,1.189,1.189,0,0,0,.732-.232Z" fill="#2f2f2f"/>
      <path d="M143.4,21.4H142.25V16.929h-5.072V21.4h-1.149V11.6h1.149v4.3h5.072V11.6H143.4Z" fill="#2f2f2f"/>
      <path d="M151.384,21.4h-1.121V20.292h-.028a2.3,2.3,0,0,1-2.16,1.272q-2.5,0-2.5-2.981V14.4h1.115v4.006q0,2.214,1.7,2.215a1.715,1.715,0,0,0,1.35-.605,2.318,2.318,0,0,0,.53-1.583V14.4h1.121Z" fill="#2f2f2f"/>
      <path d="M154.64,20.388h-.028V21.4h-1.121V11.037h1.121V15.63h.028a2.651,2.651,0,0,1,2.42-1.394,2.567,2.567,0,0,1,2.109.94,3.88,3.88,0,0,1,.762,2.519,4.337,4.337,0,0,1-.855,2.813,2.843,2.843,0,0,1-2.338,1.056A2.3,2.3,0,0,1,154.64,20.388Zm-.028-2.823v.977a2.081,2.081,0,0,0,.565,1.474,2.01,2.01,0,0,0,3.027-.175,3.566,3.566,0,0,0,.578-2.167,2.817,2.817,0,0,0-.54-1.832,1.786,1.786,0,0,0-1.463-.663,1.989,1.989,0,0,0-1.572.68A2.5,2.5,0,0,0,154.612,17.565Z" fill="#2f2f2f"/>
      <path d="M167.592,17.579l-5.879,2.953V19.513l4.4-2.133v-.041l-4.4-2.433V13.88l5.879,3.3Z" fill="#2f2f2f"/>
      <path d="M175.213,17.579l-5.879,2.953V19.513l4.4-2.133v-.041l-4.4-2.433V13.88l5.879,3.3Z" fill="#2f2f2f"/>
    </g>
    <g>
      <path d="M53.318,42.744a7.057,7.057,0,0,1-3.568.827,5.165,5.165,0,0,1-3.729-1.309,4.764,4.764,0,0,1-1.364-3.606,5.036,5.036,0,0,1,1.49-3.767,5.431,5.431,0,0,1,3.965-1.456,8.056,8.056,0,0,1,2.748.431v2.071a5.463,5.463,0,0,0-2.775-.656,2.976,2.976,0,0,0-2.238.892,3.805,3.805,0,0,0-.09,4.72,2.737,2.737,0,0,0,2.1.827,2.918,2.918,0,0,0,1.257-.225V39.579H49.148V37.815h4.17Z" fill="#2f2f2f"/>
      <path d="M56.144,35.292a1.263,1.263,0,0,1-.9-.324,1.049,1.049,0,0,1-.349-.8,1.011,1.011,0,0,1,.349-.793,1.465,1.465,0,0,1,1.8,0,1.018,1.018,0,0,1,.345.793,1.044,1.044,0,0,1-.345.807A1.283,1.283,0,0,1,56.144,35.292ZM57.21,43.4H55.05v-7h2.16Z" fill="#2f2f2f"/>
      <path d="M63.146,43.318a3.2,3.2,0,0,1-1.442.253q-2.283,0-2.283-2.372V37.993H58.286V36.4h1.135V34.889l2.153-.615V36.4h1.572v1.593H61.574v2.83q0,1.093.868,1.094a1.453,1.453,0,0,0,.7-.2Z" fill="#2f2f2f"/>
      <path d="M73.157,43.4H70.942V39.408h-4.06V43.4H64.674V33.6h2.208v3.91h4.06V33.6h2.215Z" fill="#2f2f2f"/>
      <path d="M81.8,43.4H79.645V42.333H79.61a2.442,2.442,0,0,1-2.139,1.238q-2.433,0-2.434-2.946V36.4H77.19v4.033q0,1.483,1.176,1.484a1.164,1.164,0,0,0,.93-.407,1.642,1.642,0,0,0,.349-1.1V36.4H81.8Z" fill="#2f2f2f"/>
      <path d="M85.753,42.586h-.027V43.4H83.565V33.037h2.161v4.416h.027a2.563,2.563,0,0,1,2.276-1.224,2.5,2.5,0,0,1,2.085.93,4,4,0,0,1,.732,2.543,4.339,4.339,0,0,1-.855,2.809,2.781,2.781,0,0,1-2.283,1.06A2.2,2.2,0,0,1,85.753,42.586Zm-.062-2.953v.718a1.637,1.637,0,0,0,.39,1.121,1.267,1.267,0,0,0,1,.445,1.329,1.329,0,0,0,1.146-.571,2.767,2.767,0,0,0,.406-1.617,2.189,2.189,0,0,0-.373-1.357,1.257,1.257,0,0,0-1.063-.489,1.371,1.371,0,0,0-1.076.486A1.841,1.841,0,0,0,85.691,39.633Z" fill="#2f2f2f"/>
      <path d="M100.676,38.348a1.878,1.878,0,0,0-.909-.212,1.311,1.311,0,0,0-1.1.516,2.251,2.251,0,0,0-.4,1.405V43.4H96.109v-7H98.27v1.3H98.3a1.869,1.869,0,0,1,1.846-1.422,1.388,1.388,0,0,1,.533.082Z" fill="#2f2f2f"/>
      <path d="M108.049,40.515h-4.567q.111,1.524,1.921,1.525a3.755,3.755,0,0,0,2.031-.547v1.558a5.344,5.344,0,0,1-2.523.52,3.258,3.258,0,0,1-3.568-3.562,3.746,3.746,0,0,1,1.011-2.761,3.369,3.369,0,0,1,2.489-1.019,3.063,3.063,0,0,1,2.369.909,3.5,3.5,0,0,1,.837,2.468Zm-2-1.326q0-1.5-1.217-1.5a1.158,1.158,0,0,0-.9.431,1.943,1.943,0,0,0-.462,1.073Z" fill="#2f2f2f"/>
      <path d="M111.6,42.586h-.028V46.62h-2.16V36.4h2.16v1.053h.028a2.748,2.748,0,0,1,4.35-.291,3.971,3.971,0,0,1,.742,2.54,4.3,4.3,0,0,1-.865,2.809,2.817,2.817,0,0,1-2.3,1.06A2.178,2.178,0,0,1,111.6,42.586Zm-.062-2.871v.561a1.781,1.781,0,0,0,.383,1.182,1.245,1.245,0,0,0,1,.459,1.326,1.326,0,0,0,1.145-.571,2.76,2.76,0,0,0,.407-1.617q0-1.845-1.436-1.846a1.351,1.351,0,0,0-1.084.5A2.01,2.01,0,0,0,111.538,39.715Z" fill="#2f2f2f"/>
      <path d="M121.476,43.571a3.76,3.76,0,0,1-2.751-.981,4.056,4.056,0,0,1,.037-5.38,3.924,3.924,0,0,1,2.809-.981,3.719,3.719,0,0,1,2.735.981A3.486,3.486,0,0,1,125.3,39.8a3.7,3.7,0,0,1-1.022,2.755A3.807,3.807,0,0,1,121.476,43.571Zm.054-5.688a1.44,1.44,0,0,0-1.189.527,2.323,2.323,0,0,0-.424,1.49q0,2.016,1.627,2.017,1.551,0,1.552-2.072Q123.1,37.883,121.53,37.883Z" fill="#2f2f2f"/>
      <path d="M126.287,43.215v-1.75a4.589,4.589,0,0,0,1.063.479,3.517,3.517,0,0,0,1,.157,2.152,2.152,0,0,0,.906-.157.507.507,0,0,0,.331-.479.44.44,0,0,0-.151-.341,1.4,1.4,0,0,0-.385-.24,4.381,4.381,0,0,0-.517-.184c-.186-.055-.367-.117-.54-.185a5.221,5.221,0,0,1-.734-.338,2.073,2.073,0,0,1-.533-.421,1.626,1.626,0,0,1-.329-.553,2.191,2.191,0,0,1-.113-.745,1.926,1.926,0,0,1,.256-1.012,2.1,2.1,0,0,1,.684-.694,3.144,3.144,0,0,1,.978-.4,5.106,5.106,0,0,1,1.145-.126,6.338,6.338,0,0,1,.943.072,7.05,7.05,0,0,1,.943.208v1.668a3.421,3.421,0,0,0-.879-.359,3.728,3.728,0,0,0-.919-.119,2.033,2.033,0,0,0-.4.037,1.307,1.307,0,0,0-.332.11.613.613,0,0,0-.226.184.43.43,0,0,0-.082.257.476.476,0,0,0,.123.328,1.075,1.075,0,0,0,.322.236,3.115,3.115,0,0,0,.441.177c.161.053.322.106.482.161a6.189,6.189,0,0,1,.779.328,2.519,2.519,0,0,1,.6.417,1.641,1.641,0,0,1,.382.561,2.248,2.248,0,0,1-.136,1.828,2.174,2.174,0,0,1-.719.718,3.241,3.241,0,0,1-1.031.4,5.7,5.7,0,0,1-1.214.127A6.252,6.252,0,0,1,126.287,43.215Z" fill="#2f2f2f"/>
      <path d="M134.025,35.292a1.262,1.262,0,0,1-.9-.324,1.046,1.046,0,0,1-.349-.8,1.008,1.008,0,0,1,.349-.793,1.465,1.465,0,0,1,1.8,0,1.018,1.018,0,0,1,.345.793,1.044,1.044,0,0,1-.345.807A1.284,1.284,0,0,1,134.025,35.292Zm1.067,8.108h-2.16v-7h2.16Z" fill="#2f2f2f"/>
      <path d="M141.028,43.318a3.2,3.2,0,0,1-1.442.253q-2.285,0-2.283-2.372V37.993h-1.135V36.4H137.3V34.889l2.153-.615V36.4h1.572v1.593h-1.572v2.83q0,1.093.868,1.094a1.453,1.453,0,0,0,.7-.2Z" fill="#2f2f2f"/>
      <path d="M145.562,43.571a3.76,3.76,0,0,1-2.751-.981,4.056,4.056,0,0,1,.037-5.38,3.924,3.924,0,0,1,2.809-.981,3.721,3.721,0,0,1,2.735.981,3.486,3.486,0,0,1,.991,2.594,3.7,3.7,0,0,1-1.022,2.755A3.807,3.807,0,0,1,145.562,43.571Zm.054-5.688a1.439,1.439,0,0,0-1.189.527A2.323,2.323,0,0,0,144,39.9q0,2.016,1.627,2.017,1.551,0,1.552-2.072Q147.182,37.883,145.616,37.883Z" fill="#2f2f2f"/>
      <path d="M155.331,38.348a1.875,1.875,0,0,0-.909-.212,1.311,1.311,0,0,0-1.1.516,2.257,2.257,0,0,0-.4,1.405V43.4h-2.16v-7h2.16v1.3h.027a1.869,1.869,0,0,1,1.846-1.422,1.388,1.388,0,0,1,.533.082Z" fill="#2f2f2f"/>
      <path d="M163.45,36.4l-2.844,7.56q-1.024,2.729-3.089,2.728a3.94,3.94,0,0,1-1.292-.178V44.788a1.821,1.821,0,0,0,.936.253,1.171,1.171,0,0,0,1.162-.787l.369-.868L155.849,36.4h2.392l1.306,4.259a5.569,5.569,0,0,1,.191.936h.028a6.585,6.585,0,0,1,.225-.923l1.32-4.272Z" fill="#2f2f2f"/>
    </g>
    <g>
      <path d="M59.705,77.732l-5.879-2.953v-.4l5.879-3.294v1.025L55.316,74.54v.027l4.389,2.146Z" fill="#2f2f2f"/>
      <path d="M67.326,77.732l-5.879-2.953v-.4l5.879-3.294v1.025L62.938,74.54v.027l4.388,2.146Z" fill="#2f2f2f"/>
      <path d="M74.364,78.279a3.64,3.64,0,0,1-1.914.485,3.168,3.168,0,0,1-2.416-.974,3.529,3.529,0,0,1-.92-2.526,3.881,3.881,0,0,1,.991-2.779,3.472,3.472,0,0,1,2.646-1.049,3.683,3.683,0,0,1,1.627.342v1.148a2.855,2.855,0,0,0-1.668-.547,2.254,2.254,0,0,0-1.76.769,2.914,2.914,0,0,0-.687,2.02,2.778,2.778,0,0,0,.646,1.942,2.225,2.225,0,0,0,1.733.711,2.808,2.808,0,0,0,1.722-.609Z" fill="#2f2f2f"/>
      <path d="M78.805,78.764a3.251,3.251,0,0,1-2.479-.981,3.636,3.636,0,0,1-.926-2.6,3.788,3.788,0,0,1,.964-2.755,3.47,3.47,0,0,1,2.6-.991,3.135,3.135,0,0,1,2.443.964,3.82,3.82,0,0,1,.879,2.673,3.759,3.759,0,0,1-.947,2.683A3.318,3.318,0,0,1,78.805,78.764Zm.082-6.385a2.135,2.135,0,0,0-1.709.735,3.021,3.021,0,0,0-.629,2.027,2.852,2.852,0,0,0,.636,1.962,2.158,2.158,0,0,0,1.7.718,2.055,2.055,0,0,0,1.672-.7,3.068,3.068,0,0,0,.584-2,3.119,3.119,0,0,0-.584-2.024A2.044,2.044,0,0,0,78.887,72.379Z" fill="#2f2f2f"/>
      <path d="M93.946,78.6H92.825V74.581a3.026,3.026,0,0,0-.359-1.682,1.36,1.36,0,0,0-1.206-.52,1.491,1.491,0,0,0-1.22.657,2.5,2.5,0,0,0-.5,1.572V78.6H88.416V74.444q0-2.066-1.593-2.065A1.476,1.476,0,0,0,85.606,73a2.558,2.558,0,0,0-.478,1.61V78.6H84.007v-7h1.121v1.108h.027a2.379,2.379,0,0,1,2.174-1.272,2.024,2.024,0,0,1,1.983,1.449,2.5,2.5,0,0,1,2.324-1.449q2.31,0,2.31,2.851Z" fill="#2f2f2f"/>
      <path d="M97.121,77.588h-.027V81.82H95.973V71.6h1.121v1.231h.027a2.651,2.651,0,0,1,2.42-1.395,2.565,2.565,0,0,1,2.112.94,3.891,3.891,0,0,1,.759,2.519,4.343,4.343,0,0,1-.854,2.813,2.846,2.846,0,0,1-2.338,1.056A2.341,2.341,0,0,1,97.121,77.588Zm-.027-2.823v.978a2.079,2.079,0,0,0,.564,1.473,2.012,2.012,0,0,0,3.028-.174,3.577,3.577,0,0,0,.578-2.167,2.824,2.824,0,0,0-.54-1.833,1.792,1.792,0,0,0-1.463-.663,1.987,1.987,0,0,0-1.573.681A2.5,2.5,0,0,0,97.094,74.765Z" fill="#2f2f2f"/>
      <path d="M107.118,78.764a3.248,3.248,0,0,1-2.478-.981,3.631,3.631,0,0,1-.926-2.6,3.784,3.784,0,0,1,.964-2.755,3.466,3.466,0,0,1,2.6-.991,3.137,3.137,0,0,1,2.444.964,3.82,3.82,0,0,1,.878,2.673,3.759,3.759,0,0,1-.947,2.683A3.316,3.316,0,0,1,107.118,78.764Zm.082-6.385a2.135,2.135,0,0,0-1.709.735,3.021,3.021,0,0,0-.629,2.027A2.852,2.852,0,0,0,105.5,77.1a2.159,2.159,0,0,0,1.7.718,2.053,2.053,0,0,0,1.672-.7,3.062,3.062,0,0,0,.584-2,3.113,3.113,0,0,0-.584-2.024A2.043,2.043,0,0,0,107.2,72.379Z" fill="#2f2f2f"/>
      <path d="M118.13,78.6h-1.121V74.608q0-2.229-1.627-2.229a1.762,1.762,0,0,0-1.391.633,2.341,2.341,0,0,0-.551,1.6V78.6h-1.121v-7h1.121v1.162h.028a2.526,2.526,0,0,1,2.3-1.326,2.139,2.139,0,0,1,1.756.742,3.3,3.3,0,0,1,.609,2.143Z" fill="#2f2f2f"/>
      <path d="M125.834,75.38h-4.942a2.612,2.612,0,0,0,.629,1.805,2.167,2.167,0,0,0,1.654.636,3.444,3.444,0,0,0,2.174-.779v1.052a4.063,4.063,0,0,1-2.441.67,2.962,2.962,0,0,1-2.331-.953,3.907,3.907,0,0,1-.848-2.684,3.829,3.829,0,0,1,.926-2.662,2.972,2.972,0,0,1,2.3-1.029,2.63,2.63,0,0,1,2.126.889,3.705,3.705,0,0,1,.752,2.467Zm-1.148-.95a2.293,2.293,0,0,0-.468-1.511,1.6,1.6,0,0,0-1.282-.54,1.809,1.809,0,0,0-1.347.568,2.576,2.576,0,0,0-.684,1.483Z" fill="#2f2f2f"/>
      <path d="M133.327,78.6h-1.121V74.608q0-2.229-1.627-2.229a1.765,1.765,0,0,0-1.391.633,2.341,2.341,0,0,0-.55,1.6V78.6h-1.121v-7h1.121v1.162h.027a2.526,2.526,0,0,1,2.3-1.326,2.141,2.141,0,0,1,1.757.742,3.307,3.307,0,0,1,.608,2.143Z" fill="#2f2f2f"/>
      <path d="M138.556,78.532a2.165,2.165,0,0,1-1.046.218q-1.839,0-1.839-2.05V72.557h-1.2V71.6h1.2V69.891l1.121-.362V71.6h1.764v.957h-1.764V76.5a1.637,1.637,0,0,0,.239,1,.953.953,0,0,0,.793.3,1.187,1.187,0,0,0,.732-.232Z" fill="#2f2f2f"/>
      <path d="M146.175,74.779,140.3,77.732V76.713l4.4-2.132V74.54l-4.4-2.434V71.081l5.879,3.294Z" fill="#2f2f2f"/>
      <path d="M153.8,74.779l-5.879,2.953V76.713l4.4-2.132V74.54l-4.4-2.434V71.081l5.879,3.294Z" fill="#2f2f2f"/>
    </g>
    <g>
      <path d="M65.98,99.944a7.057,7.057,0,0,1-3.568.827,5.165,5.165,0,0,1-3.729-1.309,4.764,4.764,0,0,1-1.364-3.606,5.033,5.033,0,0,1,1.491-3.767,5.431,5.431,0,0,1,3.964-1.456,8.056,8.056,0,0,1,2.748.431v2.071a5.463,5.463,0,0,0-2.775-.656,2.976,2.976,0,0,0-2.238.892,3.809,3.809,0,0,0-.09,4.72,2.735,2.735,0,0,0,2.1.827,2.918,2.918,0,0,0,1.257-.225V96.779H61.811V95.015H65.98Z" fill="#2f2f2f"/>
      <path d="M68.806,92.493a1.265,1.265,0,0,1-.9-.325,1.046,1.046,0,0,1-.348-.8,1.009,1.009,0,0,1,.348-.793,1.462,1.462,0,0,1,1.8,0,1.013,1.013,0,0,1,.345.793,1.04,1.04,0,0,1-.345.806A1.282,1.282,0,0,1,68.806,92.493Zm1.066,8.107h-2.16v-7h2.16Z" fill="#2f2f2f"/>
      <path d="M75.809,100.518a3.192,3.192,0,0,1-1.443.253q-2.283,0-2.283-2.372V95.193H70.948V93.6h1.135V92.089l2.153-.615V93.6h1.573v1.593H74.236v2.83q0,1.094.868,1.094a1.46,1.46,0,0,0,.7-.2Z" fill="#2f2f2f"/>
      <path d="M85.819,100.6H83.6V96.608h-4.06V100.6H77.336V90.8h2.208v3.911H83.6V90.8h2.215Z" fill="#2f2f2f"/>
      <path d="M94.46,100.6H92.307V99.534h-.035a2.443,2.443,0,0,1-2.139,1.237q-2.433,0-2.434-2.946V93.6h2.154v4.033q0,1.484,1.175,1.484a1.163,1.163,0,0,0,.93-.407,1.642,1.642,0,0,0,.349-1.1V93.6H94.46Z" fill="#2f2f2f"/>
      <path d="M98.415,99.787h-.027v.813h-2.16V90.237h2.16v4.416h.027a2.563,2.563,0,0,1,2.276-1.224,2.5,2.5,0,0,1,2.085.93,4.007,4.007,0,0,1,.732,2.543,4.339,4.339,0,0,1-.855,2.809,2.781,2.781,0,0,1-2.283,1.06A2.206,2.206,0,0,1,98.415,99.787Zm-.061-2.954v.718a1.637,1.637,0,0,0,.389,1.121,1.267,1.267,0,0,0,1,.445,1.329,1.329,0,0,0,1.146-.571,2.765,2.765,0,0,0,.406-1.617,2.191,2.191,0,0,0-.373-1.357,1.259,1.259,0,0,0-1.063-.489,1.371,1.371,0,0,0-1.076.486A1.843,1.843,0,0,0,98.354,96.833Z" fill="#2f2f2f"/>
      <path d="M117.6,100.6H115.2l-.7-2.181h-3.486l-.691,2.181h-2.392l3.568-9.8h2.618Zm-3.61-3.876-1.053-3.3a4.4,4.4,0,0,1-.164-.882h-.054a3.769,3.769,0,0,1-.171.855l-1.067,3.322Z" fill="#2f2f2f"/>
      <path d="M123.738,100.347a4.262,4.262,0,0,1-2.112.424,3.571,3.571,0,0,1-2.611-.978,3.375,3.375,0,0,1-1-2.522,3.717,3.717,0,0,1,1.07-2.813,3.951,3.951,0,0,1,2.86-1.029,3.679,3.679,0,0,1,1.791.328v1.832a2.464,2.464,0,0,0-1.51-.506,1.988,1.988,0,0,0-1.473.544,2.024,2.024,0,0,0-.544,1.5,2,2,0,0,0,.519,1.46,1.912,1.912,0,0,0,1.429.53,2.85,2.85,0,0,0,1.579-.506Z" fill="#2f2f2f"/>
      <path d="M129.47,100.518a3.192,3.192,0,0,1-1.443.253q-2.283,0-2.283-2.372V95.193h-1.135V93.6h1.135V92.089l2.153-.615V93.6h1.573v1.593H127.9v2.83q0,1.094.869,1.094a1.456,1.456,0,0,0,.7-.2Z" fill="#2f2f2f"/>
      <path d="M131.848,92.493a1.265,1.265,0,0,1-.9-.325,1.046,1.046,0,0,1-.348-.8,1.009,1.009,0,0,1,.348-.793,1.462,1.462,0,0,1,1.8,0,1.013,1.013,0,0,1,.345.793,1.04,1.04,0,0,1-.345.806A1.282,1.282,0,0,1,131.848,92.493Zm1.066,8.107h-2.16v-7h2.16Z" fill="#2f2f2f"/>
      <path d="M138.025,100.771a3.76,3.76,0,0,1-2.751-.981,4.055,4.055,0,0,1,.038-5.38,3.922,3.922,0,0,1,2.809-.981,3.717,3.717,0,0,1,2.734.981A3.483,3.483,0,0,1,141.847,97a3.7,3.7,0,0,1-1.022,2.755A3.8,3.8,0,0,1,138.025,100.771Zm.055-5.688a1.439,1.439,0,0,0-1.189.527,2.319,2.319,0,0,0-.424,1.49q0,2.016,1.627,2.017,1.551,0,1.552-2.072Q139.646,95.083,138.08,95.083Z" fill="#2f2f2f"/>
      <path d="M149.987,100.6h-2.153V96.71q0-1.626-1.162-1.627a1.153,1.153,0,0,0-.923.431,1.644,1.644,0,0,0-.362,1.094V100.6h-2.16v-7h2.16v1.108h.027a2.475,2.475,0,0,1,2.249-1.279q2.325,0,2.324,2.885Z" fill="#2f2f2f"/>
    </g>
    <g>
      <path d="M307.465,20.532l-5.879-2.953v-.4l5.879-3.295v1.026l-4.389,2.433v.028l4.389,2.146Z" fill="#2f2f2f"/>
      <path d="M315.087,20.532l-5.879-2.953v-.4l5.879-3.295v1.026L310.7,17.339v.028l4.389,2.146Z" fill="#2f2f2f"/>
      <path d="M329.118,11.6l-2.768,9.8H325l-2.017-7.164a4.5,4.5,0,0,1-.157-1H322.8a5.124,5.124,0,0,1-.178.984l-2.03,7.178h-1.333l-2.871-9.8h1.264l2.085,7.52a4.839,4.839,0,0,1,.164.984h.035a5.737,5.737,0,0,1,.211-.984l2.167-7.52h1.1l2.078,7.574a5.488,5.488,0,0,1,.164.916h.028a5.554,5.554,0,0,1,.184-.943l2-7.547Z" fill="#2f2f2f"/>
      <path d="M331.05,12.623a.713.713,0,0,1-.513-.206.692.692,0,0,1-.212-.519.717.717,0,0,1,.725-.731.724.724,0,0,1,.523.208.731.731,0,0,1,0,1.036A.72.72,0,0,1,331.05,12.623ZM331.6,21.4h-1.121v-7H331.6Z" fill="#2f2f2f"/>
      <path d="M339.525,21.4H338.4V17.408q0-2.229-1.627-2.229a1.761,1.761,0,0,0-1.39.633,2.341,2.341,0,0,0-.551,1.6V21.4h-1.121v-7h1.121v1.162h.027a2.527,2.527,0,0,1,2.3-1.326,2.139,2.139,0,0,1,1.757.742,3.307,3.307,0,0,1,.608,2.143Z" fill="#2f2f2f"/>
      <path d="M347.6,21.4h-1.121V20.21h-.028a2.586,2.586,0,0,1-2.406,1.354,2.617,2.617,0,0,1-2.109-.94,3.857,3.857,0,0,1-.79-2.56,4.2,4.2,0,0,1,.875-2.782,2.885,2.885,0,0,1,2.332-1.046,2.242,2.242,0,0,1,2.1,1.135h.028V11.037H347.6Zm-1.121-3.165V17.2a2,2,0,0,0-.561-1.436,1.881,1.881,0,0,0-1.422-.588,1.934,1.934,0,0,0-1.613.752,3.3,3.3,0,0,0-.588,2.078,2.958,2.958,0,0,0,.564,1.911,1.842,1.842,0,0,0,1.514.7,1.92,1.92,0,0,0,1.522-.677A2.529,2.529,0,0,0,346.479,18.235Z" fill="#2f2f2f"/>
      <path d="M352.7,21.564a3.248,3.248,0,0,1-2.478-.981,3.636,3.636,0,0,1-.926-2.6,3.784,3.784,0,0,1,.964-2.755,3.463,3.463,0,0,1,2.6-.991,3.137,3.137,0,0,1,2.444.964,3.818,3.818,0,0,1,.879,2.673,3.76,3.76,0,0,1-.948,2.683A3.316,3.316,0,0,1,352.7,21.564Zm.082-6.385a2.133,2.133,0,0,0-1.709.735,3.021,3.021,0,0,0-.629,2.027,2.854,2.854,0,0,0,.636,1.962,2.162,2.162,0,0,0,1.7.718,2.052,2.052,0,0,0,1.672-.7,3.062,3.062,0,0,0,.584-2,3.113,3.113,0,0,0-.584-2.024A2.042,2.042,0,0,0,352.78,15.179Z" fill="#2f2f2f"/>
      <path d="M366.657,14.4l-2.1,7H363.4l-1.442-5.011a3.225,3.225,0,0,1-.109-.649h-.028a3,3,0,0,1-.143.635L360.108,21.4h-1.121l-2.119-7h1.176l1.449,5.264a3.186,3.186,0,0,1,.1.628h.055a2.868,2.868,0,0,1,.123-.642l1.613-5.25h1.025l1.449,5.277a3.66,3.66,0,0,1,.1.629h.055a2.925,2.925,0,0,1,.116-.629L365.55,14.4Z" fill="#2f2f2f"/>
      <path d="M367.532,21.147v-1.2a3.32,3.32,0,0,0,2.017.677q1.476,0,1.476-.985a.856.856,0,0,0-.126-.475,1.283,1.283,0,0,0-.341-.345,2.669,2.669,0,0,0-.506-.27c-.195-.08-.4-.163-.626-.25a8.274,8.274,0,0,1-.818-.372,2.518,2.518,0,0,1-.587-.424,1.58,1.58,0,0,1-.356-.537,1.911,1.911,0,0,1-.119-.7,1.674,1.674,0,0,1,.225-.871,2.006,2.006,0,0,1,.6-.636,2.785,2.785,0,0,1,.858-.386,3.788,3.788,0,0,1,1-.13,4.029,4.029,0,0,1,1.627.314v1.135a3.175,3.175,0,0,0-1.778-.506,2.069,2.069,0,0,0-.567.072,1.387,1.387,0,0,0-.435.2.916.916,0,0,0-.279.311.819.819,0,0,0-.1.4.961.961,0,0,0,.1.458.993.993,0,0,0,.29.328,2.224,2.224,0,0,0,.465.259q.273.117.622.253a8.961,8.961,0,0,1,.834.366,2.891,2.891,0,0,1,.629.424,1.664,1.664,0,0,1,.4.543,1.76,1.76,0,0,1,.14.732,1.712,1.712,0,0,1-.23.9,1.952,1.952,0,0,1-.611.636,2.812,2.812,0,0,1-.882.376,4.356,4.356,0,0,1-1.046.123A3.975,3.975,0,0,1,367.532,21.147Z" fill="#2f2f2f"/>
      <path d="M377.424,21V19.65a2.616,2.616,0,0,0,.557.369,4.487,4.487,0,0,0,.684.277,5.439,5.439,0,0,0,.721.174,4.023,4.023,0,0,0,.67.062,2.622,2.622,0,0,0,1.582-.393,1.475,1.475,0,0,0,.349-1.822,1.982,1.982,0,0,0-.482-.537,4.757,4.757,0,0,0-.729-.465c-.279-.148-.582-.3-.905-.468q-.513-.26-.957-.526a4.146,4.146,0,0,1-.772-.588,2.441,2.441,0,0,1-.516-.728,2.485,2.485,0,0,1,.105-2.119,2.526,2.526,0,0,1,.773-.817,3.491,3.491,0,0,1,1.091-.479,4.973,4.973,0,0,1,1.247-.157,4.77,4.77,0,0,1,2.112.349v1.292a3.828,3.828,0,0,0-2.228-.6,3.7,3.7,0,0,0-.752.079,2.1,2.1,0,0,0-.67.256,1.479,1.479,0,0,0-.479.458,1.217,1.217,0,0,0-.184.684,1.425,1.425,0,0,0,.139.649,1.6,1.6,0,0,0,.414.5,4.132,4.132,0,0,0,.666.438q.394.212.907.465t1,.546a4.661,4.661,0,0,1,.827.636,2.8,2.8,0,0,1,.563.773,2.155,2.155,0,0,1,.209.97,2.463,2.463,0,0,1-.283,1.227,2.325,2.325,0,0,1-.766.817,3.337,3.337,0,0,1-1.111.455,6.105,6.105,0,0,1-1.326.14,5.417,5.417,0,0,1-.574-.038c-.228-.025-.46-.061-.7-.109a5.7,5.7,0,0,1-.673-.178A2.114,2.114,0,0,1,377.424,21Z" fill="#2f2f2f"/>
      <path d="M390.745,18.18H385.8a2.614,2.614,0,0,0,.629,1.8,2.167,2.167,0,0,0,1.654.636,3.439,3.439,0,0,0,2.174-.78v1.053a4.061,4.061,0,0,1-2.441.67,2.959,2.959,0,0,1-2.331-.954,3.9,3.9,0,0,1-.847-2.683,3.828,3.828,0,0,1,.925-2.662,2.973,2.973,0,0,1,2.3-1.029,2.63,2.63,0,0,1,2.126.889,3.705,3.705,0,0,1,.752,2.467Zm-1.148-.95a2.288,2.288,0,0,0-.468-1.511,1.6,1.6,0,0,0-1.282-.54,1.809,1.809,0,0,0-1.347.568,2.576,2.576,0,0,0-.684,1.483Z" fill="#2f2f2f"/>
      <path d="M396.078,15.535a1.366,1.366,0,0,0-.848-.226,1.43,1.43,0,0,0-1.2.677,3.123,3.123,0,0,0-.482,1.846V21.4h-1.121v-7h1.121v1.442h.027a2.437,2.437,0,0,1,.732-1.152,1.67,1.67,0,0,1,1.1-.413,1.824,1.824,0,0,1,.67.1Z" fill="#2f2f2f"/>
      <path d="M403.352,14.4l-2.79,7h-1.1l-2.652-7h1.23l1.777,5.086a4.58,4.58,0,0,1,.246.977h.028a4.605,4.605,0,0,1,.219-.95l1.859-5.113Z" fill="#2f2f2f"/>
      <path d="M409.993,18.18h-4.942a2.614,2.614,0,0,0,.629,1.8,2.167,2.167,0,0,0,1.654.636,3.439,3.439,0,0,0,2.174-.78v1.053a4.061,4.061,0,0,1-2.441.67,2.959,2.959,0,0,1-2.331-.954,3.9,3.9,0,0,1-.847-2.683,3.828,3.828,0,0,1,.925-2.662,2.973,2.973,0,0,1,2.3-1.029,2.63,2.63,0,0,1,2.126.889,3.705,3.705,0,0,1,.752,2.467Zm-1.148-.95a2.288,2.288,0,0,0-.468-1.511,1.6,1.6,0,0,0-1.282-.54,1.809,1.809,0,0,0-1.347.568,2.576,2.576,0,0,0-.684,1.483Z" fill="#2f2f2f"/>
      <path d="M415.326,15.535a1.365,1.365,0,0,0-.847-.226,1.431,1.431,0,0,0-1.2.677,3.123,3.123,0,0,0-.482,1.846V21.4h-1.121v-7H412.8v1.442h.027a2.445,2.445,0,0,1,.732-1.152,1.67,1.67,0,0,1,1.1-.413,1.824,1.824,0,0,1,.67.1Z" fill="#2f2f2f"/>
      <path d="M424.521,14.167a2.017,2.017,0,0,0-.141-.786,1.522,1.522,0,0,0-.953-.888,2.235,2.235,0,0,0-.711-.11,2.365,2.365,0,0,0-.643.089,3.052,3.052,0,0,0-.611.246,3.652,3.652,0,0,0-.574.376,4.022,4.022,0,0,0-.517.486v-1.2a3.355,3.355,0,0,1,1.056-.7,3.718,3.718,0,0,1,1.426-.243,3.446,3.446,0,0,1,1.114.174,2.572,2.572,0,0,1,.888.51,2.328,2.328,0,0,1,.591.827,2.765,2.765,0,0,1,.216,1.128,3.83,3.83,0,0,1-.134,1.053,3.229,3.229,0,0,1-.4.888,4.3,4.3,0,0,1-.681.8,9.475,9.475,0,0,1-.964.779q-.69.492-1.138.841a5.114,5.114,0,0,0-.711.653,1.918,1.918,0,0,0-.369.608,2.121,2.121,0,0,0-.106.7h4.881v1h-6.05v-.485a4.05,4.05,0,0,1,.137-1.108,2.863,2.863,0,0,1,.451-.909,5.112,5.112,0,0,1,.823-.861q.51-.43,1.248-.971a7.838,7.838,0,0,0,.893-.732,3.781,3.781,0,0,0,.577-.7,2.54,2.54,0,0,0,.312-.707A3.127,3.127,0,0,0,424.521,14.167Z" fill="#2f2f2f"/>
      <path d="M433.469,16.458a9.569,9.569,0,0,1-.223,2.18,5.04,5.04,0,0,1-.642,1.6,2.893,2.893,0,0,1-1.032.991,2.823,2.823,0,0,1-1.391.339,2.642,2.642,0,0,1-1.316-.325,2.742,2.742,0,0,1-.974-.947,4.782,4.782,0,0,1-.6-1.528,9.427,9.427,0,0,1-.2-2.074,10.733,10.733,0,0,1,.215-2.27,5.187,5.187,0,0,1,.633-1.651,2.822,2.822,0,0,1,1.035-1,2.918,2.918,0,0,1,1.419-.338Q433.468,11.433,433.469,16.458Zm-1.149.109q0-4.183-1.989-4.184-2.1,0-2.1,4.259,0,3.972,2.058,3.972Q432.321,20.614,432.32,16.567Z" fill="#2f2f2f"/>
      <path d="M438.454,21.4h-1.121V12.93a2.623,2.623,0,0,1-.379.3,6.384,6.384,0,0,1-.56.331q-.312.164-.657.308a4.757,4.757,0,0,1-.674.225V12.958a6.711,6.711,0,0,0,.784-.277c.275-.117.547-.246.812-.39s.519-.294.756-.451a5.852,5.852,0,0,0,.615-.462h.424Z" fill="#2f2f2f"/>
      <path d="M447.312,18.29a3.63,3.63,0,0,1-.233,1.319,3.182,3.182,0,0,1-.642,1.039,2.878,2.878,0,0,1-.978.68,3.089,3.089,0,0,1-1.23.243,2.711,2.711,0,0,1-2.314-1.193,4.266,4.266,0,0,1-.619-1.412,7.609,7.609,0,0,1-.212-1.88,8.828,8.828,0,0,1,.284-2.32,5.616,5.616,0,0,1,.807-1.785,3.7,3.7,0,0,1,1.261-1.145,3.376,3.376,0,0,1,1.647-.4,3.964,3.964,0,0,1,1.627.28v1.06a3.453,3.453,0,0,0-1.6-.39,2.38,2.38,0,0,0-1.182.294,2.719,2.719,0,0,0-.9.831,4.032,4.032,0,0,0-.577,1.3,6.551,6.551,0,0,0-.2,1.689h.027a2.356,2.356,0,0,1,2.236-1.224,2.933,2.933,0,0,1,1.158.219,2.508,2.508,0,0,1,.883.618,2.8,2.8,0,0,1,.563.954A3.633,3.633,0,0,1,447.312,18.29Zm-1.149.143a3.04,3.04,0,0,0-.13-.923,2.02,2.02,0,0,0-.372-.7,1.613,1.613,0,0,0-.6-.441,2.018,2.018,0,0,0-.806-.154,1.9,1.9,0,0,0-1.388.585,2.012,2.012,0,0,0-.554,1.391,3.035,3.035,0,0,0,.144.947,2.457,2.457,0,0,0,.4.769,1.945,1.945,0,0,0,.618.516,1.7,1.7,0,0,0,.8.188,1.828,1.828,0,0,0,.773-.161,1.729,1.729,0,0,0,.6-.448,2.044,2.044,0,0,0,.382-.687A2.721,2.721,0,0,0,446.163,18.433Z" fill="#2f2f2f"/>
      <path d="M459.664,20.99a5.748,5.748,0,0,1-2.707.574,4.366,4.366,0,0,1-3.35-1.347,4.97,4.97,0,0,1-1.257-3.534,5.207,5.207,0,0,1,1.415-3.8,4.8,4.8,0,0,1,3.589-1.449,5.75,5.75,0,0,1,2.31.4V13.06a4.684,4.684,0,0,0-2.324-.588A3.567,3.567,0,0,0,454.6,13.6a4.248,4.248,0,0,0-1.049,3.015,4.048,4.048,0,0,0,.98,2.854,3.343,3.343,0,0,0,2.574,1.063,4.824,4.824,0,0,0,2.557-.657Z" fill="#2f2f2f"/>
      <path d="M464.213,21.564a3.252,3.252,0,0,1-2.479-.981,3.635,3.635,0,0,1-.925-2.6,3.787,3.787,0,0,1,.963-2.755,3.466,3.466,0,0,1,2.605-.991,3.135,3.135,0,0,1,2.443.964,3.818,3.818,0,0,1,.879,2.673,3.759,3.759,0,0,1-.947,2.683A3.318,3.318,0,0,1,464.213,21.564Zm.082-6.385a2.132,2.132,0,0,0-1.709.735,3.021,3.021,0,0,0-.629,2.027,2.854,2.854,0,0,0,.636,1.962,2.162,2.162,0,0,0,1.7.718,2.053,2.053,0,0,0,1.672-.7,3.068,3.068,0,0,0,.584-2,3.119,3.119,0,0,0-.584-2.024A2.043,2.043,0,0,0,464.3,15.179Z" fill="#2f2f2f"/>
      <path d="M473.065,15.535a1.365,1.365,0,0,0-.847-.226,1.428,1.428,0,0,0-1.2.677,3.116,3.116,0,0,0-.483,1.846V21.4h-1.121v-7h1.121v1.442h.027a2.453,2.453,0,0,1,.732-1.152,1.671,1.671,0,0,1,1.1-.413,1.819,1.819,0,0,1,.669.1Z" fill="#2f2f2f"/>
      <path d="M479.908,18.18h-4.942a2.614,2.614,0,0,0,.629,1.8,2.167,2.167,0,0,0,1.654.636,3.439,3.439,0,0,0,2.174-.78v1.053a4.061,4.061,0,0,1-2.441.67,2.959,2.959,0,0,1-2.331-.954,3.9,3.9,0,0,1-.847-2.683,3.828,3.828,0,0,1,.925-2.662,2.973,2.973,0,0,1,2.3-1.029,2.63,2.63,0,0,1,2.126.889,3.705,3.705,0,0,1,.752,2.467Zm-1.148-.95a2.288,2.288,0,0,0-.468-1.511,1.6,1.6,0,0,0-1.282-.54,1.809,1.809,0,0,0-1.347.568,2.576,2.576,0,0,0-.684,1.483Z" fill="#2f2f2f"/>
      <path d="M485.84,11.6l-4.7,11.43h-1.046L484.78,11.6Z" fill="#2f2f2f"/>
      <path d="M493.825,21.4h-1.271l-1.039-2.748h-4.157l-.977,2.748H485.1l3.759-9.8h1.19Zm-2.686-3.78L489.6,13.443a4.009,4.009,0,0,1-.151-.656h-.027a3.753,3.753,0,0,1-.157.656l-1.525,4.177Z" fill="#2f2f2f"/>
      <path d="M500.437,14.721l-4.143,5.722h4.1V21.4h-5.75v-.349l4.143-5.694h-3.753V14.4h5.4Z" fill="#2f2f2f"/>
      <path d="M507.533,21.4h-1.121V20.292h-.027a2.3,2.3,0,0,1-2.16,1.272q-2.5,0-2.5-2.981V14.4h1.114v4.006q0,2.214,1.695,2.215a1.719,1.719,0,0,0,1.351-.605,2.322,2.322,0,0,0,.529-1.583V14.4h1.121Z" fill="#2f2f2f"/>
      <path d="M513.291,15.535a1.368,1.368,0,0,0-.848-.226,1.429,1.429,0,0,0-1.2.677,3.123,3.123,0,0,0-.482,1.846V21.4h-1.121v-7h1.121v1.442h.027a2.437,2.437,0,0,1,.732-1.152,1.67,1.67,0,0,1,1.1-.413,1.824,1.824,0,0,1,.67.1Z" fill="#2f2f2f"/>
      <path d="M520.134,18.18h-4.943a2.624,2.624,0,0,0,.629,1.8,2.169,2.169,0,0,0,1.655.636,3.436,3.436,0,0,0,2.173-.78v1.053a4.058,4.058,0,0,1-2.44.67,2.958,2.958,0,0,1-2.331-.954,3.9,3.9,0,0,1-.848-2.683,3.829,3.829,0,0,1,.926-2.662,2.972,2.972,0,0,1,2.3-1.029,2.63,2.63,0,0,1,2.126.889,3.705,3.705,0,0,1,.752,2.467Zm-1.149-.95a2.293,2.293,0,0,0-.467-1.511,1.6,1.6,0,0,0-1.283-.54,1.808,1.808,0,0,0-1.346.568,2.576,2.576,0,0,0-.684,1.483Z" fill="#2f2f2f"/>
      <path d="M527.613,17.579l-5.879,2.953V19.513l4.4-2.133v-.041l-4.4-2.433V13.88l5.879,3.3Z" fill="#2f2f2f"/>
      <path d="M535.234,17.579l-5.879,2.953V19.513l4.4-2.133v-.041l-4.4-2.433V13.88l5.879,3.3Z" fill="#2f2f2f"/>
    </g>
    <g>
      <path d="M357.708,43.024V40.836a4.193,4.193,0,0,0,2.7,1,3.069,3.069,0,0,0,.728-.075,1.678,1.678,0,0,0,.519-.208.91.91,0,0,0,.312-.315.786.786,0,0,0,.1-.393.844.844,0,0,0-.164-.512,1.753,1.753,0,0,0-.447-.417,4.679,4.679,0,0,0-.674-.37q-.39-.177-.841-.362a4.28,4.28,0,0,1-1.712-1.169,2.546,2.546,0,0,1-.564-1.668,2.659,2.659,0,0,1,.308-1.316,2.609,2.609,0,0,1,.837-.905,3.737,3.737,0,0,1,1.227-.523,6.288,6.288,0,0,1,1.477-.168,8.931,8.931,0,0,1,1.356.092,5.405,5.405,0,0,1,1.091.284v2.044a3.344,3.344,0,0,0-.536-.3,4.407,4.407,0,0,0-.6-.215,4.658,4.658,0,0,0-.612-.127,4.373,4.373,0,0,0-.577-.041,3,3,0,0,0-.684.072,1.741,1.741,0,0,0-.519.2,1,1,0,0,0-.329.311.741.741,0,0,0-.116.407.774.774,0,0,0,.13.441,1.534,1.534,0,0,0,.369.369,3.9,3.9,0,0,0,.581.341q.342.168.773.346a8.5,8.5,0,0,1,1.055.523,3.75,3.75,0,0,1,.8.625,2.422,2.422,0,0,1,.513.8,2.821,2.821,0,0,1,.178,1.042,2.793,2.793,0,0,1-.311,1.377,2.524,2.524,0,0,1-.845.9,3.645,3.645,0,0,1-1.241.5,7.11,7.11,0,0,1-1.493.151,8.3,8.3,0,0,1-1.534-.137A4.619,4.619,0,0,1,357.708,43.024Z" fill="#2f2f2f"/>
      <path d="M372.084,40.515h-4.566q.11,1.524,1.92,1.525a3.755,3.755,0,0,0,2.031-.547v1.558a5.344,5.344,0,0,1-2.523.52,3.258,3.258,0,0,1-3.568-3.562,3.743,3.743,0,0,1,1.012-2.761,3.366,3.366,0,0,1,2.488-1.019,3.063,3.063,0,0,1,2.369.909,3.5,3.5,0,0,1,.837,2.468Zm-2-1.326q0-1.5-1.217-1.5a1.16,1.16,0,0,0-.9.431,1.95,1.95,0,0,0-.462,1.073Z" fill="#2f2f2f"/>
      <path d="M375.6,43.4h-2.161V33.037H375.6Z" fill="#2f2f2f"/>
      <path d="M381.95,34.691a2.192,2.192,0,0,0-.8-.164q-1.038,0-1.039,1.128V36.4h1.6v1.593h-1.6V43.4h-2.153V37.993h-1.176V36.4h1.176v-.868a2.522,2.522,0,0,1,.779-1.928,2.971,2.971,0,0,1,2.119-.731,3.73,3.73,0,0,1,1.094.136Z" fill="#2f2f2f"/>
      <path d="M385.967,40.419h-3.739v-1.51h3.739Z" fill="#2f2f2f"/>
      <path d="M394.4,43.4h-2.153V39.421q0-1.538-1.121-1.538a1.15,1.15,0,0,0-.93.431,1.661,1.661,0,0,0-.355,1.094V43.4h-2.16V33.037h2.16v4.4h.027a2.454,2.454,0,0,1,2.154-1.21q2.379,0,2.378,2.871Z" fill="#2f2f2f"/>
      <path d="M399.441,43.571a3.76,3.76,0,0,1-2.751-.981,4.055,4.055,0,0,1,.038-5.38,3.922,3.922,0,0,1,2.809-.981,3.717,3.717,0,0,1,2.734.981,3.483,3.483,0,0,1,.992,2.594,3.7,3.7,0,0,1-1.022,2.755A3.808,3.808,0,0,1,399.441,43.571Zm.055-5.688a1.439,1.439,0,0,0-1.189.527,2.317,2.317,0,0,0-.424,1.49q0,2.016,1.627,2.017,1.551,0,1.552-2.072Q401.062,37.883,399.5,37.883Z" fill="#2f2f2f"/>
      <path d="M404.25,43.215v-1.75a4.582,4.582,0,0,0,1.062.479,3.528,3.528,0,0,0,1,.157,2.154,2.154,0,0,0,.907-.157.509.509,0,0,0,.331-.479.44.44,0,0,0-.151-.341,1.4,1.4,0,0,0-.385-.24,4.446,4.446,0,0,0-.517-.184q-.281-.082-.54-.185a5.221,5.221,0,0,1-.734-.338,2.1,2.1,0,0,1-.534-.421,1.64,1.64,0,0,1-.328-.553,2.191,2.191,0,0,1-.113-.745,1.926,1.926,0,0,1,.256-1.012,2.107,2.107,0,0,1,.683-.694,3.16,3.16,0,0,1,.979-.4,5.1,5.1,0,0,1,1.144-.126,6.341,6.341,0,0,1,.944.072,7.05,7.05,0,0,1,.943.208v1.668a3.421,3.421,0,0,0-.879-.359,3.728,3.728,0,0,0-.919-.119,2.033,2.033,0,0,0-.4.037,1.307,1.307,0,0,0-.332.11.613.613,0,0,0-.226.184.43.43,0,0,0-.082.257.476.476,0,0,0,.123.328,1.075,1.075,0,0,0,.322.236,3.068,3.068,0,0,0,.441.177c.161.053.322.106.481.161a6.144,6.144,0,0,1,.78.328,2.513,2.513,0,0,1,.6.417,1.658,1.658,0,0,1,.383.561,2.248,2.248,0,0,1-.136,1.828,2.174,2.174,0,0,1-.719.718,3.241,3.241,0,0,1-1.031.4,5.7,5.7,0,0,1-1.214.127A6.252,6.252,0,0,1,404.25,43.215Z" fill="#2f2f2f"/>
      <path d="M415.056,43.318a3.206,3.206,0,0,1-1.443.253q-2.283,0-2.283-2.372V37.993H410.2V36.4h1.135V34.889l2.153-.615V36.4h1.573v1.593h-1.573v2.83q0,1.093.869,1.094a1.459,1.459,0,0,0,.7-.2Z" fill="#2f2f2f"/>
      <path d="M422.542,40.515h-4.566q.109,1.524,1.92,1.525a3.755,3.755,0,0,0,2.031-.547v1.558a5.344,5.344,0,0,1-2.523.52,3.258,3.258,0,0,1-3.568-3.562,3.743,3.743,0,0,1,1.012-2.761,3.366,3.366,0,0,1,2.488-1.019,3.063,3.063,0,0,1,2.369.909,3.5,3.5,0,0,1,.837,2.468Zm-2-1.326q0-1.5-1.217-1.5a1.16,1.16,0,0,0-.9.431,1.95,1.95,0,0,0-.462,1.073Z" fill="#2f2f2f"/>
      <path d="M430.788,43.4h-2.16v-.964H428.6a2.425,2.425,0,0,1-2.167,1.135,2.656,2.656,0,0,1-2.113-.926,3.837,3.837,0,0,1-.8-2.588,4.171,4.171,0,0,1,.882-2.782,2.879,2.879,0,0,1,2.311-1.046,1.967,1.967,0,0,1,1.887.971h.027V33.037h2.16ZM428.669,40v-.527a1.656,1.656,0,0,0-.4-1.135,1.4,1.4,0,0,0-2.153.113,2.626,2.626,0,0,0-.4,1.549,2.267,2.267,0,0,0,.389,1.421,1.383,1.383,0,0,0,2.151-.027A2.2,2.2,0,0,0,428.669,40Z" fill="#2f2f2f"/>
      <path d="M441.035,38.348a1.875,1.875,0,0,0-.909-.212,1.311,1.311,0,0,0-1.1.516,2.257,2.257,0,0,0-.4,1.405V43.4h-2.16v-7h2.16v1.3h.027a1.869,1.869,0,0,1,1.846-1.422,1.388,1.388,0,0,1,.533.082Z" fill="#2f2f2f"/>
      <path d="M448.727,43.4h-2.154V42.333h-.034a2.443,2.443,0,0,1-2.14,1.238q-2.433,0-2.433-2.946V36.4h2.153v4.033q0,1.483,1.176,1.484a1.164,1.164,0,0,0,.93-.407,1.642,1.642,0,0,0,.348-1.1V36.4h2.154Z" fill="#2f2f2f"/>
      <path d="M457.255,43.4H455.1V39.51q0-1.626-1.163-1.627a1.151,1.151,0,0,0-.922.431,1.639,1.639,0,0,0-.363,1.094V43.4h-2.16v-7h2.16v1.107h.028a2.474,2.474,0,0,1,2.249-1.278q2.324,0,2.324,2.885Z" fill="#2f2f2f"/>
      <path d="M465.713,43.4H463.56V39.51q0-1.626-1.163-1.627a1.151,1.151,0,0,0-.922.431,1.639,1.639,0,0,0-.363,1.094V43.4h-2.16v-7h2.16v1.107h.028a2.474,2.474,0,0,1,2.249-1.278q2.323,0,2.324,2.885Z" fill="#2f2f2f"/>
      <path d="M473.735,40.515h-4.566q.11,1.524,1.921,1.525a3.754,3.754,0,0,0,2.03-.547v1.558a5.337,5.337,0,0,1-2.522.52,3.259,3.259,0,0,1-3.569-3.562,3.743,3.743,0,0,1,1.012-2.761,3.368,3.368,0,0,1,2.488-1.019,3.06,3.06,0,0,1,2.369.909,3.5,3.5,0,0,1,.837,2.468Zm-2-1.326q0-1.5-1.216-1.5a1.16,1.16,0,0,0-.9.431,1.95,1.95,0,0,0-.462,1.073Z" fill="#2f2f2f"/>
      <path d="M479.667,38.348a1.878,1.878,0,0,0-.909-.212,1.311,1.311,0,0,0-1.1.516,2.257,2.257,0,0,0-.4,1.405V43.4H475.1v-7h2.16v1.3h.027a1.869,1.869,0,0,1,1.846-1.422,1.388,1.388,0,0,1,.533.082Z" fill="#2f2f2f"/>
    </g>
    <g>
      <path d="M374.305,77.732l-5.879-2.953v-.4l5.879-3.294v1.025l-4.389,2.434v.027l4.389,2.146Z" fill="#2f2f2f"/>
      <path d="M381.926,77.732l-5.879-2.953v-.4l5.879-3.294v1.025l-4.389,2.434v.027l4.389,2.146Z" fill="#2f2f2f"/>
      <path d="M388.964,78.279a3.64,3.64,0,0,1-1.914.485,3.168,3.168,0,0,1-2.416-.974,3.529,3.529,0,0,1-.92-2.526,3.881,3.881,0,0,1,.991-2.779,3.47,3.47,0,0,1,2.646-1.049,3.683,3.683,0,0,1,1.627.342v1.148a2.857,2.857,0,0,0-1.668-.547,2.254,2.254,0,0,0-1.76.769,2.914,2.914,0,0,0-.688,2.02,2.773,2.773,0,0,0,.647,1.942,2.223,2.223,0,0,0,1.732.711,2.809,2.809,0,0,0,1.723-.609Z" fill="#2f2f2f"/>
      <path d="M393.4,78.764a3.248,3.248,0,0,1-2.478-.981,3.636,3.636,0,0,1-.926-2.6,3.784,3.784,0,0,1,.964-2.755,3.467,3.467,0,0,1,2.6-.991,3.137,3.137,0,0,1,2.444.964,3.82,3.82,0,0,1,.879,2.673,3.76,3.76,0,0,1-.948,2.683A3.316,3.316,0,0,1,393.4,78.764Zm.082-6.385a2.136,2.136,0,0,0-1.709.735,3.021,3.021,0,0,0-.629,2.027,2.852,2.852,0,0,0,.636,1.962,2.159,2.159,0,0,0,1.7.718,2.052,2.052,0,0,0,1.672-.7,3.062,3.062,0,0,0,.584-2,3.113,3.113,0,0,0-.584-2.024A2.042,2.042,0,0,0,393.486,72.379Z" fill="#2f2f2f"/>
      <path d="M408.546,78.6h-1.121V74.581a3.016,3.016,0,0,0-.36-1.682,1.359,1.359,0,0,0-1.206-.52,1.491,1.491,0,0,0-1.219.657,2.5,2.5,0,0,0-.5,1.572V78.6h-1.121V74.444q0-2.066-1.593-2.065a1.475,1.475,0,0,0-1.217.619,2.558,2.558,0,0,0-.478,1.61V78.6h-1.122v-7h1.122v1.108h.027a2.379,2.379,0,0,1,2.174-1.272,2.021,2.021,0,0,1,1.982,1.449,2.5,2.5,0,0,1,2.324-1.449q2.31,0,2.311,2.851Z" fill="#2f2f2f"/>
      <path d="M411.721,77.588h-.028V81.82h-1.121V71.6h1.121v1.231h.028a2.65,2.65,0,0,1,2.42-1.395,2.565,2.565,0,0,1,2.112.94,3.891,3.891,0,0,1,.759,2.519,4.337,4.337,0,0,1-.855,2.813,2.843,2.843,0,0,1-2.338,1.056A2.341,2.341,0,0,1,411.721,77.588Zm-.028-2.823v.978a2.08,2.08,0,0,0,.565,1.473,2.011,2.011,0,0,0,3.027-.174,3.57,3.57,0,0,0,.578-2.167,2.818,2.818,0,0,0-.54-1.833,1.789,1.789,0,0,0-1.463-.663,1.986,1.986,0,0,0-1.572.681A2.5,2.5,0,0,0,411.693,74.765Z" fill="#2f2f2f"/>
      <path d="M421.718,78.764a3.251,3.251,0,0,1-2.479-.981,3.636,3.636,0,0,1-.926-2.6,3.788,3.788,0,0,1,.964-2.755,3.47,3.47,0,0,1,2.605-.991,3.135,3.135,0,0,1,2.443.964,3.82,3.82,0,0,1,.879,2.673,3.759,3.759,0,0,1-.947,2.683A3.318,3.318,0,0,1,421.718,78.764Zm.082-6.385a2.135,2.135,0,0,0-1.709.735,3.021,3.021,0,0,0-.629,2.027A2.852,2.852,0,0,0,420.1,77.1a2.158,2.158,0,0,0,1.7.718,2.055,2.055,0,0,0,1.672-.7,3.068,3.068,0,0,0,.584-2,3.119,3.119,0,0,0-.584-2.024A2.044,2.044,0,0,0,421.8,72.379Z" fill="#2f2f2f"/>
      <path d="M432.729,78.6h-1.121V74.608q0-2.229-1.627-2.229a1.761,1.761,0,0,0-1.39.633,2.341,2.341,0,0,0-.551,1.6V78.6h-1.121v-7h1.121v1.162h.027a2.527,2.527,0,0,1,2.3-1.326,2.139,2.139,0,0,1,1.757.742,3.307,3.307,0,0,1,.608,2.143Z" fill="#2f2f2f"/>
      <path d="M440.434,75.38h-4.943a2.622,2.622,0,0,0,.629,1.805,2.167,2.167,0,0,0,1.654.636,3.444,3.444,0,0,0,2.174-.779v1.052a4.058,4.058,0,0,1-2.44.67,2.96,2.96,0,0,1-2.331-.953,3.9,3.9,0,0,1-.848-2.684,3.829,3.829,0,0,1,.926-2.662,2.972,2.972,0,0,1,2.3-1.029,2.63,2.63,0,0,1,2.126.889,3.705,3.705,0,0,1,.752,2.467Zm-1.149-.95a2.288,2.288,0,0,0-.468-1.511,1.6,1.6,0,0,0-1.282-.54,1.812,1.812,0,0,0-1.347.568,2.575,2.575,0,0,0-.683,1.483Z" fill="#2f2f2f"/>
      <path d="M447.927,78.6h-1.121V74.608q0-2.229-1.627-2.229a1.762,1.762,0,0,0-1.391.633,2.341,2.341,0,0,0-.551,1.6V78.6h-1.121v-7h1.121v1.162h.028a2.526,2.526,0,0,1,2.3-1.326,2.139,2.139,0,0,1,1.756.742,3.3,3.3,0,0,1,.609,2.143Z" fill="#2f2f2f"/>
      <path d="M453.155,78.532a2.159,2.159,0,0,1-1.046.218q-1.837,0-1.838-2.05V72.557h-1.2V71.6h1.2V69.891l1.121-.362V71.6h1.763v.957h-1.763V76.5a1.637,1.637,0,0,0,.239,1,.953.953,0,0,0,.793.3,1.184,1.184,0,0,0,.731-.232Z" fill="#2f2f2f"/>
      <path d="M460.774,74.779,454.9,77.732V76.713l4.4-2.132V74.54l-4.4-2.434V71.081l5.878,3.294Z" fill="#2f2f2f"/>
      <path d="M468.4,74.779l-5.879,2.953V76.713l4.4-2.132V74.54l-4.4-2.434V71.081l5.879,3.294Z" fill="#2f2f2f"/>
    </g>
    <g>
      <path d="M403.943,100.6h-2.536l-1.524-2.522c-.114-.192-.224-.363-.328-.513a2.885,2.885,0,0,0-.318-.386,1.241,1.241,0,0,0-.336-.246.831.831,0,0,0-.379-.086h-.594V100.6H395.72V90.8h3.5q3.568,0,3.568,2.666a2.779,2.779,0,0,1-.157.947,2.643,2.643,0,0,1-.444.783,2.825,2.825,0,0,1-.694.6,3.571,3.571,0,0,1-.906.4v.027a1.441,1.441,0,0,1,.424.222,3.2,3.2,0,0,1,.4.359,4.8,4.8,0,0,1,.365.441c.118.157.223.311.319.462Zm-6.015-8.148v2.727h.957a1.588,1.588,0,0,0,1.141-.41,1.368,1.368,0,0,0,.438-1.032q0-1.285-1.538-1.285Z" fill="#2f2f2f"/>
      <path d="M411.166,100.6h-2.153V99.534h-.034a2.446,2.446,0,0,1-2.14,1.237q-2.433,0-2.434-2.946V93.6h2.154v4.033q0,1.484,1.175,1.484a1.163,1.163,0,0,0,.93-.407,1.642,1.642,0,0,0,.349-1.1V93.6h2.153Z" fill="#2f2f2f"/>
      <path d="M419.694,100.6h-2.153V96.71q0-1.626-1.162-1.627a1.153,1.153,0,0,0-.923.431,1.644,1.644,0,0,0-.362,1.094V100.6h-2.16v-7h2.16v1.108h.027a2.475,2.475,0,0,1,2.249-1.279q2.325,0,2.324,2.885Z" fill="#2f2f2f"/>
      <path d="M428.153,100.6H426V96.71q0-1.626-1.162-1.627a1.153,1.153,0,0,0-.923.431,1.644,1.644,0,0,0-.362,1.094V100.6h-2.16v-7h2.16v1.108h.027a2.475,2.475,0,0,1,2.249-1.279q2.325,0,2.324,2.885Z" fill="#2f2f2f"/>
      <path d="M436.175,97.715h-4.567q.111,1.524,1.921,1.525a3.746,3.746,0,0,0,2.031-.547v1.558a5.332,5.332,0,0,1-2.523.52,3.258,3.258,0,0,1-3.568-3.562,3.746,3.746,0,0,1,1.011-2.761,3.372,3.372,0,0,1,2.489-1.019,3.063,3.063,0,0,1,2.369.909,3.5,3.5,0,0,1,.837,2.468Zm-2-1.326q0-1.5-1.217-1.5a1.158,1.158,0,0,0-.9.431,1.943,1.943,0,0,0-.462,1.073Z" fill="#2f2f2f"/>
      <path d="M442.106,95.548a1.872,1.872,0,0,0-.909-.212,1.307,1.307,0,0,0-1.1.517,2.246,2.246,0,0,0-.4,1.4V100.6h-2.16v-7h2.16v1.3h.028a1.868,1.868,0,0,1,1.845-1.422,1.381,1.381,0,0,1,.533.082Z" fill="#2f2f2f"/>
    </g>
    <g>
      <path d="M232.022,52.2h-1.148V47.729H225.8V52.2h-1.149V42.4H225.8v4.3h5.072V42.4h1.148Z" fill="#2f2f2f"/>
      <path d="M240.231,43.437H237.4V52.2h-1.148V43.437H233.43V42.4h6.8Z" fill="#2f2f2f"/>
      <path d="M247.921,43.437h-2.83V52.2h-1.149V43.437h-2.823V42.4h6.8Z" fill="#2f2f2f"/>
      <path d="M250.463,48.5V52.2h-1.149V42.4h2.694a3.558,3.558,0,0,1,2.437.766,2.735,2.735,0,0,1,.865,2.16,2.973,2.973,0,0,1-.96,2.283,3.671,3.671,0,0,1-2.595.889Zm0-5.058v4.019h1.2a2.687,2.687,0,0,0,1.814-.543,1.923,1.923,0,0,0,.626-1.535q0-1.943-2.3-1.941Z" fill="#2f2f2f"/>
      <path d="M256.622,51.8V50.45a2.6,2.6,0,0,0,.558.369,4.375,4.375,0,0,0,.683.277,5.645,5.645,0,0,0,.721.175,4.015,4.015,0,0,0,.67.061,2.622,2.622,0,0,0,1.582-.393,1.326,1.326,0,0,0,.523-1.131,1.34,1.34,0,0,0-.173-.691,1.985,1.985,0,0,0-.483-.536,4.718,4.718,0,0,0-.728-.465q-.42-.222-.906-.469c-.341-.173-.661-.348-.957-.526a4.136,4.136,0,0,1-.772-.588,2.441,2.441,0,0,1-.516-.728,2.481,2.481,0,0,1,.106-2.119,2.513,2.513,0,0,1,.772-.817,3.512,3.512,0,0,1,1.091-.478,4.974,4.974,0,0,1,1.247-.158,4.785,4.785,0,0,1,2.112.349v1.292a3.828,3.828,0,0,0-2.228-.6,3.7,3.7,0,0,0-.752.079,2.123,2.123,0,0,0-.67.256,1.489,1.489,0,0,0-.479.458,1.217,1.217,0,0,0-.184.684,1.409,1.409,0,0,0,.14.649,1.566,1.566,0,0,0,.414.5,4.045,4.045,0,0,0,.666.438q.393.211.906.465t1,.547a4.575,4.575,0,0,1,.827.635,2.829,2.829,0,0,1,.564.773,2.173,2.173,0,0,1,.208.971,2.466,2.466,0,0,1-.283,1.227,2.34,2.34,0,0,1-.765.817,3.371,3.371,0,0,1-1.112.454,6.105,6.105,0,0,1-1.326.14,5.382,5.382,0,0,1-.574-.037q-.342-.037-.7-.11a5.862,5.862,0,0,1-.674-.177A2.153,2.153,0,0,1,256.622,51.8Z" fill="#2f2f2f"/>
    </g>
    <g>
      <path d="M581.622,52.2h-1.148V47.729H575.4V52.2h-1.148V42.4H575.4v4.3h5.073V42.4h1.148Z" fill="#2f2f2f"/>
      <path d="M589.831,43.437H587V52.2h-1.148V43.437h-2.824V42.4h6.8Z" fill="#2f2f2f"/>
      <path d="M597.521,43.437H594.69V52.2h-1.148V43.437h-2.823V42.4h6.8Z" fill="#2f2f2f"/>
      <path d="M600.062,48.5V52.2h-1.148V42.4h2.693a3.561,3.561,0,0,1,2.438.766,2.735,2.735,0,0,1,.864,2.16,2.97,2.97,0,0,1-.96,2.283,3.669,3.669,0,0,1-2.595.889Zm0-5.058v4.019h1.2a2.687,2.687,0,0,0,1.814-.543,1.923,1.923,0,0,0,.626-1.535q0-1.943-2.3-1.941Z" fill="#2f2f2f"/>
      <path d="M606.222,51.8V50.45a2.591,2.591,0,0,0,.557.369,4.387,4.387,0,0,0,.684.277,5.564,5.564,0,0,0,.721.175,4.006,4.006,0,0,0,.67.061,2.622,2.622,0,0,0,1.582-.393,1.475,1.475,0,0,0,.349-1.822,1.964,1.964,0,0,0-.482-.536,4.73,4.73,0,0,0-.729-.465c-.279-.148-.582-.3-.9-.469q-.513-.26-.957-.526a4.144,4.144,0,0,1-.773-.588,2.456,2.456,0,0,1-.515-.728,2.476,2.476,0,0,1,.105-2.119,2.516,2.516,0,0,1,.773-.817,3.5,3.5,0,0,1,1.091-.478,4.974,4.974,0,0,1,1.247-.158,4.788,4.788,0,0,1,2.112.349v1.292a3.829,3.829,0,0,0-2.229-.6,3.7,3.7,0,0,0-.752.079,2.127,2.127,0,0,0-.669.256,1.479,1.479,0,0,0-.479.458,1.218,1.218,0,0,0-.185.684,1.409,1.409,0,0,0,.14.649,1.593,1.593,0,0,0,.414.5,4.088,4.088,0,0,0,.666.438q.394.211.906.465.527.26,1,.547a4.583,4.583,0,0,1,.828.635,2.825,2.825,0,0,1,.563.773,2.16,2.16,0,0,1,.209.971,2.476,2.476,0,0,1-.283,1.227,2.343,2.343,0,0,1-.766.817,3.357,3.357,0,0,1-1.111.454,6.105,6.105,0,0,1-1.326.14,5.382,5.382,0,0,1-.574-.037c-.228-.025-.46-.062-.7-.11a5.916,5.916,0,0,1-.674-.177A2.163,2.163,0,0,1,606.222,51.8Z" fill="#2f2f2f"/>
    </g>
    <g>
      <path d="M655.133,20.532l-5.879-2.953v-.4l5.879-3.295v1.026l-4.389,2.433v.028l4.389,2.146Z" fill="#2f2f2f"/>
      <path d="M662.754,20.532l-5.879-2.953v-.4l5.879-3.295v1.026l-4.389,2.433v.028l4.389,2.146Z" fill="#2f2f2f"/>
      <path d="M672.936,21.4h-1.272l-1.039-2.748h-4.156L665.49,21.4h-1.277l3.76-9.8h1.189Zm-2.688-3.78-1.537-4.177a3.733,3.733,0,0,1-.15-.656h-.028a3.653,3.653,0,0,1-.158.656l-1.523,4.177Z" fill="#2f2f2f"/>
      <path d="M679.547,14.721,675.4,20.443h4.1V21.4h-5.75v-.349l4.142-5.694h-3.752V14.4h5.4Z" fill="#2f2f2f"/>
      <path d="M686.643,21.4h-1.122V20.292h-.027a2.3,2.3,0,0,1-2.16,1.272q-2.5,0-2.5-2.981V14.4h1.115v4.006q0,2.214,1.7,2.215a1.715,1.715,0,0,0,1.349-.605,2.312,2.312,0,0,0,.529-1.583V14.4h1.122Z" fill="#2f2f2f"/>
      <path d="M692.4,15.535a1.363,1.363,0,0,0-.847-.226,1.428,1.428,0,0,0-1.2.677,3.116,3.116,0,0,0-.483,1.846V21.4H688.75v-7h1.121v1.442h.027a2.462,2.462,0,0,1,.733-1.152,1.67,1.67,0,0,1,1.1-.413,1.817,1.817,0,0,1,.67.1Z" fill="#2f2f2f"/>
      <path d="M699.244,18.18H694.3a2.624,2.624,0,0,0,.629,1.8,2.17,2.17,0,0,0,1.654.636,3.435,3.435,0,0,0,2.174-.78v1.053a4.058,4.058,0,0,1-2.44.67,2.961,2.961,0,0,1-2.332-.954,3.907,3.907,0,0,1-.847-2.683,3.828,3.828,0,0,1,.925-2.662,2.975,2.975,0,0,1,2.3-1.029,2.633,2.633,0,0,1,2.127.889,3.71,3.71,0,0,1,.752,2.467Zm-1.148-.95a2.293,2.293,0,0,0-.469-1.511,1.6,1.6,0,0,0-1.281-.54,1.809,1.809,0,0,0-1.348.568,2.582,2.582,0,0,0-.684,1.483Z" fill="#2f2f2f"/>
      <path d="M704.467,21V19.65a2.583,2.583,0,0,0,.556.369,4.529,4.529,0,0,0,.684.277,5.477,5.477,0,0,0,.721.174,4.032,4.032,0,0,0,.67.062,2.62,2.62,0,0,0,1.582-.393,1.475,1.475,0,0,0,.349-1.822,1.982,1.982,0,0,0-.482-.537,4.757,4.757,0,0,0-.729-.465c-.279-.148-.582-.3-.9-.468-.342-.173-.662-.348-.957-.526a4.121,4.121,0,0,1-.773-.588,2.441,2.441,0,0,1-.516-.728,2.485,2.485,0,0,1,.105-2.119,2.529,2.529,0,0,1,.774-.817,3.475,3.475,0,0,1,1.09-.479,4.987,4.987,0,0,1,1.248-.157,4.765,4.765,0,0,1,2.111.349v1.292a3.823,3.823,0,0,0-2.228-.6,3.71,3.71,0,0,0-.752.079,2.118,2.118,0,0,0-.67.256,1.489,1.489,0,0,0-.479.458,1.217,1.217,0,0,0-.183.684,1.425,1.425,0,0,0,.138.649,1.618,1.618,0,0,0,.414.5,4.177,4.177,0,0,0,.666.438c.264.141.565.3.907.465s.683.355,1,.546a4.706,4.706,0,0,1,.828.636,2.822,2.822,0,0,1,.562.773,2.142,2.142,0,0,1,.209.97,2.463,2.463,0,0,1-.283,1.227,2.325,2.325,0,0,1-.766.817,3.329,3.329,0,0,1-1.111.455,6.1,6.1,0,0,1-1.326.14,5.45,5.45,0,0,1-.574-.038c-.227-.025-.459-.061-.7-.109a5.749,5.749,0,0,1-.673-.178A2.087,2.087,0,0,1,704.467,21Z" fill="#2f2f2f"/>
      <path d="M715.078,21.332a2.166,2.166,0,0,1-1.047.218q-1.836,0-1.838-2.05V15.357h-1.2V14.4h1.2V12.691l1.121-.362V14.4h1.764v.957h-1.764V19.3a1.646,1.646,0,0,0,.239,1.005.954.954,0,0,0,.793.3,1.185,1.185,0,0,0,.732-.232Z" fill="#2f2f2f"/>
      <path d="M721.693,21.4h-1.121V20.306h-.027a2.344,2.344,0,0,1-2.152,1.258,2.3,2.3,0,0,1-1.637-.554,1.915,1.915,0,0,1-.592-1.469q0-1.963,2.311-2.284l2.1-.294q0-1.784-1.441-1.784a3.437,3.437,0,0,0-2.283.862V14.892a4.337,4.337,0,0,1,2.379-.656q2.466,0,2.466,2.611Zm-1.121-3.541-1.687.232a2.733,2.733,0,0,0-1.176.387,1.108,1.108,0,0,0-.4.98,1.068,1.068,0,0,0,.366.838,1.415,1.415,0,0,0,.974.325,1.8,1.8,0,0,0,1.377-.585,2.081,2.081,0,0,0,.543-1.48Z" fill="#2f2f2f"/>
      <path d="M728.537,21.079a3.646,3.646,0,0,1-1.914.485,3.169,3.169,0,0,1-2.416-.974,3.531,3.531,0,0,1-.92-2.526,3.877,3.877,0,0,1,.992-2.779,3.465,3.465,0,0,1,2.645-1.049,3.68,3.68,0,0,1,1.627.342v1.148a2.845,2.845,0,0,0-1.668-.547,2.255,2.255,0,0,0-1.76.769,2.914,2.914,0,0,0-.687,2.02,2.773,2.773,0,0,0,.646,1.942,2.224,2.224,0,0,0,1.732.711,2.8,2.8,0,0,0,1.723-.609Z" fill="#2f2f2f"/>
      <path d="M735.836,21.4h-1.572l-3.09-3.363h-.028V21.4h-1.121V11.037h1.121v6.569h.028l2.939-3.206h1.471l-3.248,3.377Z" fill="#2f2f2f"/>
      <path d="M748.34,21.4h-1.149V16.929h-5.072V21.4h-1.148V11.6h1.148v4.3h5.072V11.6h1.149Z" fill="#2f2f2f"/>
      <path d="M756.324,21.4H755.2V20.292h-.027a2.3,2.3,0,0,1-2.16,1.272q-2.5,0-2.5-2.981V14.4h1.113v4.006q0,2.214,1.7,2.215a1.721,1.721,0,0,0,1.352-.605,2.327,2.327,0,0,0,.529-1.583V14.4h1.121Z" fill="#2f2f2f"/>
      <path d="M759.58,20.388h-.027V21.4h-1.121V11.037h1.121V15.63h.027A2.651,2.651,0,0,1,762,14.236a2.568,2.568,0,0,1,2.109.94,3.88,3.88,0,0,1,.762,2.519,4.337,4.337,0,0,1-.855,2.813,2.843,2.843,0,0,1-2.338,1.056A2.3,2.3,0,0,1,759.58,20.388Zm-.027-2.823v.977a2.08,2.08,0,0,0,.564,1.474,2.011,2.011,0,0,0,3.028-.175,3.58,3.58,0,0,0,.578-2.167,2.817,2.817,0,0,0-.541-1.832,1.788,1.788,0,0,0-1.463-.663,1.991,1.991,0,0,0-1.573.68A2.5,2.5,0,0,0,759.553,17.565Z" fill="#2f2f2f"/>
      <path d="M770.674,11.6l-4.7,11.43h-1.047l4.689-11.43Z" fill="#2f2f2f"/>
      <path d="M776.975,21.4h-5.086V11.6h1.148v8.764h3.938Z" fill="#2f2f2f"/>
      <path d="M781.16,21.564a3.251,3.251,0,0,1-2.478-.981,3.631,3.631,0,0,1-.926-2.6,3.784,3.784,0,0,1,.965-2.755,3.46,3.46,0,0,1,2.6-.991,3.134,3.134,0,0,1,2.444.964,3.818,3.818,0,0,1,.878,2.673,3.755,3.755,0,0,1-.947,2.683A3.315,3.315,0,0,1,781.16,21.564Zm.082-6.385a2.135,2.135,0,0,0-1.709.735,3.026,3.026,0,0,0-.629,2.027,2.854,2.854,0,0,0,.637,1.962,2.16,2.16,0,0,0,1.7.718,2.053,2.053,0,0,0,1.672-.7,3.062,3.062,0,0,0,.584-2,3.113,3.113,0,0,0-.584-2.024A2.043,2.043,0,0,0,781.242,15.179Z" fill="#2f2f2f"/>
      <path d="M791.2,21.079a3.651,3.651,0,0,1-1.914.485,3.166,3.166,0,0,1-2.416-.974,3.531,3.531,0,0,1-.92-2.526,3.885,3.885,0,0,1,.99-2.779,3.471,3.471,0,0,1,2.647-1.049,3.686,3.686,0,0,1,1.627.342v1.148a2.85,2.85,0,0,0-1.668-.547,2.252,2.252,0,0,0-1.76.769,2.914,2.914,0,0,0-.687,2.02,2.773,2.773,0,0,0,.646,1.942,2.225,2.225,0,0,0,1.733.711,2.812,2.812,0,0,0,1.722-.609Z" fill="#2f2f2f"/>
      <path d="M797.941,21.4H796.82V20.306h-.027a2.344,2.344,0,0,1-2.152,1.258A2.3,2.3,0,0,1,793,21.01a1.915,1.915,0,0,1-.592-1.469q0-1.963,2.311-2.284l2.1-.294q0-1.784-1.441-1.784a3.437,3.437,0,0,0-2.283.862V14.892a4.337,4.337,0,0,1,2.379-.656q2.466,0,2.466,2.611Zm-1.121-3.541-1.687.232a2.733,2.733,0,0,0-1.176.387,1.107,1.107,0,0,0-.4.98,1.068,1.068,0,0,0,.365.838,1.415,1.415,0,0,0,.974.325,1.8,1.8,0,0,0,1.377-.585,2.081,2.081,0,0,0,.543-1.48Z" fill="#2f2f2f"/>
      <path d="M801.084,21.4h-1.121V11.037h1.121Z" fill="#2f2f2f"/>
      <path d="M809.146,17.579l-5.878,2.953V19.513l4.4-2.133v-.041l-4.4-2.433V13.88l5.878,3.3Z" fill="#2f2f2f"/>
      <path d="M816.768,17.579l-5.879,2.953V19.513l4.4-2.133v-.041l-4.4-2.433V13.88l5.879,3.3Z" fill="#2f2f2f"/>
    </g>
    <g>
      <path d="M687.981,43.4h-2.406l-.7-2.181h-3.486L680.7,43.4h-2.392l3.568-9.8H684.5Zm-3.609-3.876-1.053-3.3a4.4,4.4,0,0,1-.164-.882H683.1a3.769,3.769,0,0,1-.171.855l-1.067,3.322Z" fill="#2f2f2f"/>
      <path d="M694.887,43.4H688.6v-.9l3.514-4.511h-3.165V36.4h5.906v1.066l-3.329,4.341h3.357Z" fill="#2f2f2f"/>
      <path d="M702.77,43.4h-2.154V42.333h-.034a2.443,2.443,0,0,1-2.14,1.238q-2.433,0-2.433-2.946V36.4h2.153v4.033q0,1.483,1.176,1.484a1.164,1.164,0,0,0,.93-.407,1.642,1.642,0,0,0,.348-1.1V36.4h2.154Z" fill="#2f2f2f"/>
      <path d="M709.1,38.348a1.879,1.879,0,0,0-.91-.212,1.309,1.309,0,0,0-1.1.516,2.251,2.251,0,0,0-.4,1.405V43.4h-2.16v-7h2.16v1.3h.028a1.868,1.868,0,0,1,1.845-1.422,1.39,1.39,0,0,1,.534.082Z" fill="#2f2f2f"/>
      <path d="M716.476,40.515h-4.567q.109,1.524,1.921,1.525a3.752,3.752,0,0,0,2.03-.547v1.558a5.337,5.337,0,0,1-2.522.52,3.258,3.258,0,0,1-3.568-3.562,3.742,3.742,0,0,1,1.011-2.761,3.369,3.369,0,0,1,2.489-1.019,3.063,3.063,0,0,1,2.369.909,3.507,3.507,0,0,1,.837,2.468Zm-2-1.326q0-1.5-1.217-1.5a1.16,1.16,0,0,0-.9.431,1.949,1.949,0,0,0-.461,1.073Z" fill="#2f2f2f"/>
      <path d="M721.384,43.024V40.836a4.2,4.2,0,0,0,1.292.749,4.16,4.16,0,0,0,1.408.249,3.081,3.081,0,0,0,.728-.075,1.689,1.689,0,0,0,.519-.208.91.91,0,0,0,.312-.315.786.786,0,0,0,.1-.393.85.85,0,0,0-.164-.512,1.753,1.753,0,0,0-.447-.417,4.733,4.733,0,0,0-.674-.37q-.39-.177-.841-.362a4.28,4.28,0,0,1-1.712-1.169,2.546,2.546,0,0,1-.564-1.668,2.659,2.659,0,0,1,.307-1.316,2.619,2.619,0,0,1,.837-.905,3.752,3.752,0,0,1,1.228-.523,6.286,6.286,0,0,1,1.476-.168,8.945,8.945,0,0,1,1.357.092,5.423,5.423,0,0,1,1.091.284v2.044a3.344,3.344,0,0,0-.536-.3,4.407,4.407,0,0,0-.6-.215,4.658,4.658,0,0,0-.612-.127,4.387,4.387,0,0,0-.578-.041,3,3,0,0,0-.683.072,1.758,1.758,0,0,0-.52.2.993.993,0,0,0-.328.311.741.741,0,0,0-.116.407.774.774,0,0,0,.13.441,1.534,1.534,0,0,0,.369.369,3.9,3.9,0,0,0,.581.341c.228.112.485.227.773.346a8.5,8.5,0,0,1,1.055.523,3.75,3.75,0,0,1,.8.625,2.438,2.438,0,0,1,.513.8,2.822,2.822,0,0,1,.177,1.042,2.793,2.793,0,0,1-.31,1.377,2.524,2.524,0,0,1-.845.9,3.645,3.645,0,0,1-1.241.5,7.11,7.11,0,0,1-1.493.151,8.3,8.3,0,0,1-1.534-.137A4.619,4.619,0,0,1,721.384,43.024Z" fill="#2f2f2f"/>
      <path d="M733.481,43.318a3.2,3.2,0,0,1-1.442.253q-2.283,0-2.283-2.372V37.993h-1.135V36.4h1.135V34.889l2.153-.615V36.4h1.572v1.593h-1.572v2.83q0,1.093.868,1.094a1.453,1.453,0,0,0,.7-.2Z" fill="#2f2f2f"/>
      <path d="M740.662,43.4h-2.044v-1h-.027a2.281,2.281,0,0,1-2.085,1.176,2.18,2.18,0,0,1-1.6-.578,2.068,2.068,0,0,1-.585-1.541q0-2.037,2.413-2.352l1.9-.253q0-1.148-1.244-1.148a4.245,4.245,0,0,0-2.379.745V36.817a5.328,5.328,0,0,1,1.234-.41,6.451,6.451,0,0,1,1.425-.178,2.643,2.643,0,0,1,2.994,2.987Zm-2.03-2.844v-.472l-1.272.165q-1.053.137-1.052.95a.792.792,0,0,0,.255.605.99.99,0,0,0,.7.236,1.28,1.28,0,0,0,.991-.421A1.52,1.52,0,0,0,738.632,40.556Z" fill="#2f2f2f"/>
      <path d="M747.676,43.147a4.269,4.269,0,0,1-2.113.424,3.571,3.571,0,0,1-2.611-.978,3.377,3.377,0,0,1-1-2.522,3.72,3.72,0,0,1,1.07-2.813,3.952,3.952,0,0,1,2.861-1.029,3.667,3.667,0,0,1,1.791.328v1.832a2.465,2.465,0,0,0-1.511-.506,1.987,1.987,0,0,0-1.473.544,2.024,2.024,0,0,0-.544,1.5,1.993,1.993,0,0,0,.52,1.46,1.911,1.911,0,0,0,1.429.53,2.852,2.852,0,0,0,1.579-.506Z" fill="#2f2f2f"/>
      <path d="M756.207,43.4h-2.591l-2.235-3.473h-.027V43.4h-2.161V33.037h2.161v6.6h.027l2.085-3.233h2.563l-2.508,3.288Z" fill="#2f2f2f"/>
      <path d="M769.578,43.4h-2.215V39.408H763.3V43.4H761.1V33.6H763.3v3.91h4.06V33.6h2.215Z" fill="#2f2f2f"/>
      <path d="M778.219,43.4h-2.154V42.333h-.034a2.442,2.442,0,0,1-2.139,1.238q-2.433,0-2.434-2.946V36.4h2.153v4.033q0,1.483,1.176,1.484a1.164,1.164,0,0,0,.93-.407,1.642,1.642,0,0,0,.348-1.1V36.4h2.154Z" fill="#2f2f2f"/>
      <path d="M782.175,42.586h-.028V43.4h-2.16V33.037h2.16v4.416h.028a2.563,2.563,0,0,1,2.276-1.224,2.5,2.5,0,0,1,2.085.93,4.011,4.011,0,0,1,.732,2.543,4.344,4.344,0,0,1-.855,2.809,2.781,2.781,0,0,1-2.283,1.06A2.2,2.2,0,0,1,782.175,42.586Zm-.062-2.953v.718a1.637,1.637,0,0,0,.39,1.121,1.267,1.267,0,0,0,1,.445,1.326,1.326,0,0,0,1.145-.571,2.76,2.76,0,0,0,.407-1.617,2.189,2.189,0,0,0-.373-1.357,1.257,1.257,0,0,0-1.063-.489,1.371,1.371,0,0,0-1.076.486A1.841,1.841,0,0,0,782.113,39.633Z" fill="#2f2f2f"/>
    </g>
  </g>
</svg>
