<svg xmlns="http://www.w3.org/2000/svg" xmlns:xlink="http://www.w3.org/1999/xlink" viewBox="0 0 358.49 110">
  <defs>
    <radialGradient id="radial-gradient" cx="18.36" cy="56" r="9" gradientUnits="userSpaceOnUse">
      <stop offset="0.45" stop-color="#0078d4"/>
      <stop offset="0.81" stop-color="#0063af"/>
      <stop offset="1" stop-color="#005ba1"/>
    </radialGradient>
    <radialGradient id="radial-gradient-2" cx="151" xlink:href="#radial-gradient"/>
    <radialGradient id="radial-gradient-3" cx="289" xlink:href="#radial-gradient"/>
    <radialGradient id="radial-gradient-4" cx="18.18" cy="439.47" r="24.8" gradientTransform="matrix(0.94, 0, 0, -0.94, 35.31, 438.32)" gradientUnits="userSpaceOnUse">
      <stop offset="0.27" stop-color="#ffd70f"/>
      <stop offset="0.49" stop-color="#ffcb12"/>
      <stop offset="0.88" stop-color="#feac19"/>
      <stop offset="1" stop-color="#fea11b"/>
    </radialGradient>
    <linearGradient id="linear-gradient" x1="188.18" y1="477.88" x2="188.18" y2="438.1" gradientTransform="matrix(1, 0, 0, -1, 0, 484)" gradientUnits="userSpaceOnUse">
      <stop offset="0" stop-color="#5ea0ef"/>
      <stop offset="0.18" stop-color="#559cec"/>
      <stop offset="0.47" stop-color="#3c91e5"/>
      <stop offset="0.84" stop-color="#1380da"/>
      <stop offset="1" stop-color="#0078d4"/>
    </linearGradient>
    <linearGradient id="linear-gradient-2" x1="181.53" y1="437.67" x2="181.53" y2="456.95" gradientTransform="matrix(1, 0, 0, -1, 0, 484)" gradientUnits="userSpaceOnUse">
      <stop offset="0" stop-color="#198ab3"/>
      <stop offset="0.14" stop-color="#22a5cb"/>
      <stop offset="0.3" stop-color="#29bade"/>
      <stop offset="0.47" stop-color="#2ec9eb"/>
      <stop offset="0.68" stop-color="#31d1f3"/>
      <stop offset="1" stop-color="#32d4f5"/>
    </linearGradient>
    <linearGradient id="linear-gradient-3" x1="315" y1="462.59" x2="315" y2="432.44" gradientTransform="matrix(1, 0, 0, -1, 0, 484)" gradientUnits="userSpaceOnUse">
      <stop offset="0.22" stop-color="#32d4f5"/>
      <stop offset="0.47" stop-color="#31d1f3"/>
      <stop offset="0.63" stop-color="#2ec9eb"/>
      <stop offset="0.77" stop-color="#29bade"/>
      <stop offset="0.89" stop-color="#22a5cb"/>
      <stop offset="1" stop-color="#198ab3"/>
    </linearGradient>
    <linearGradient id="linear-gradient-4" x1="314.13" y1="478.77" x2="316.33" y2="451.39" xlink:href="#linear-gradient-3"/>
  </defs>
  <g id="Shapes">
    <rect width="358.49" height="110" fill="#fff"/>
    <g>
      <line x1="72.88" y1="26.12" x2="152.5" y2="26.12" fill="none" stroke="#3c3c41" stroke-miterlimit="10"/>
      <polygon points="151.4 29.86 157.88 26.12 151.4 22.38 151.4 29.86" fill="#3c3c41"/>
    </g>
    <g>
      <line x1="206.88" y1="26.12" x2="286.5" y2="26.12" fill="none" stroke="#3c3c41" stroke-miterlimit="10"/>
      <polygon points="285.4 29.86 291.88 26.12 285.4 22.38 285.4 29.86" fill="#3c3c41"/>
    </g>
    <g>
      <circle cx="18.36" cy="56" r="9" fill="url(#radial-gradient)"/>
      <path d="M19.54,51.71V60.3H18.19V53.38a4.78,4.78,0,0,1-.8.44,5.5,5.5,0,0,1-1,.33V53c.23-.08.45-.15.66-.24s.42-.17.62-.27.41-.22.62-.34.43-.27.65-.43Z" fill="#fff"/>
    </g>
    <g>
      <circle cx="151" cy="56" r="9" fill="url(#radial-gradient-2)"/>
      <path d="M153.52,60.3h-5.28v-.65a2.67,2.67,0,0,1,.11-.75,3.5,3.5,0,0,1,.3-.65,3.54,3.54,0,0,1,.44-.58c.17-.18.35-.36.54-.53s.39-.33.59-.49l.58-.48c.18-.15.35-.3.5-.45a3.94,3.94,0,0,0,.38-.45,2.3,2.3,0,0,0,.24-.5,1.69,1.69,0,0,0,.09-.56,1.52,1.52,0,0,0-.1-.59,1.22,1.22,0,0,0-.29-.41,1.12,1.12,0,0,0-.44-.25,1.59,1.59,0,0,0-.55-.09,2.58,2.58,0,0,0-1,.24,3.67,3.67,0,0,0-1,.72v-1.3a3.85,3.85,0,0,1,.52-.34,3,3,0,0,1,.55-.24,2.68,2.68,0,0,1,.59-.14,3.47,3.47,0,0,1,.66-.05,3.33,3.33,0,0,1,1,.15,2.1,2.1,0,0,1,.79.44,1.89,1.89,0,0,1,.51.72,2.59,2.59,0,0,1,.18,1,2.86,2.86,0,0,1-.13.91,2.53,2.53,0,0,1-.36.76,3.5,3.5,0,0,1-.56.67c-.21.21-.46.43-.73.65l-.67.54a6.57,6.57,0,0,0-.61.51,2.78,2.78,0,0,0-.44.49.93.93,0,0,0-.16.51v0h3.79Z" fill="#fff"/>
    </g>
    <g>
      <circle cx="289" cy="56" r="9" fill="url(#radial-gradient-3)"/>
      <path d="M286.39,60V58.71a2.86,2.86,0,0,0,1.85.65,2.11,2.11,0,0,0,1.34-.38,1.22,1.22,0,0,0,.5-1c0-1-.73-1.43-2.18-1.43h-.65V55.43h.62c1.29,0,1.94-.45,1.94-1.35s-.51-1.24-1.52-1.24a2.42,2.42,0,0,0-1.58.61V52.24a4.05,4.05,0,0,1,2-.48,2.74,2.74,0,0,1,1.79.56,1.8,1.8,0,0,1,.67,1.44,2.06,2.06,0,0,1-1.68,2.14v0a2.23,2.23,0,0,1,1.43.63,1.93,1.93,0,0,1,.53,1.37,2.24,2.24,0,0,1-.85,1.83,3.44,3.44,0,0,1-2.24.69A3.83,3.83,0,0,1,286.39,60Z" fill="#fff"/>
    </g>
    <g>
      <path id="e3d1e58c-f78e-4fb5-9857-0c9331da9979" d="M66,21.89a4.6,4.6,0,0,0,0-6.5h0l-7.9-7.92a4.57,4.57,0,0,0-6.46,0l0,0h0l-7.9,7.92a4.64,4.64,0,0,0,0,6.5l6.66,6.65a1.36,1.36,0,0,1,.38.91V41.7a1.51,1.51,0,0,0,.44,1.1l3,3a1,1,0,0,0,1.41.05s0,0,0-.05l2.91-2.91h0l1.7-1.7a.57.57,0,0,0,0-.82l0,0L59,39.1a.66.66,0,0,1,0-.91l0,0,1.22-1.24a.57.57,0,0,0,0-.82l0,0L59,34.77a.61.61,0,0,1,0-.87l0,0,1.33-1.3a.59.59,0,0,0,0-.82l0,0L58.57,30v-.62ZM54.87,9.37A2.62,2.62,0,1,1,52.23,12,2.6,2.6,0,0,1,54.8,9.37h.07Z" fill="url(#radial-gradient-4)"/>
      <path id="a21a8f7a-61cc-4035-8449-e5c8fe4d4d5e" d="M52.78,41.9h0a.56.56,0,0,0,.76-.19.54.54,0,0,0,.08-.28V31.56a.59.59,0,0,0-.24-.49h0a.55.55,0,0,0-.77.15.59.59,0,0,0-.1.34v9.87A.61.61,0,0,0,52.78,41.9Z" fill="#ff9300" opacity="0.75" style="isolation: isolate"/>
      <rect id="ecd3189c-fb1e-4a0e-a2b6-ba2f11dda484" x="48.5" y="18.03" width="13" height="1.53" rx="0.71" fill="#ff9300" opacity="0.75" style="isolation: isolate"/>
      <rect id="a1949a3c-4818-4bd1-b236-0d970b92fc62" x="48.5" y="20.51" width="13" height="1.53" rx="0.71" fill="#ff9300" opacity="0.75" style="isolation: isolate"/>
    </g>
    <g id="b1186d34-5ca3-4e43-992d-40ecef5e891b">
      <g>
        <path d="M198.54,6.12H177.85a1.34,1.34,0,0,0-1.35,1.32V36.93a24.78,24.78,0,0,1,3.36-2.37h3.92L186,37.45v4.37l-2.74,2-3.8-.47-2.91-2.74v4a1.34,1.34,0,0,0,1.35,1.32h20.69a1.33,1.33,0,0,0,1.33-1.32V7.44A1.33,1.33,0,0,0,198.54,6.12Z" fill="url(#linear-gradient)"/>
        <path id="af47f827-8b1b-4acd-8974-8eafe35490c9" d="M179.6,10.25h3.8a.33.33,0,0,1,.33.33h0V15.5a.33.33,0,0,1-.33.33h-3.8a.33.33,0,0,1-.33-.33h0V10.58a.33.33,0,0,1,.33-.33Zm6.68,0h3.81a.33.33,0,0,1,.33.33h0V15.5a.33.33,0,0,1-.33.33h-3.81a.33.33,0,0,1-.33-.33h0V10.58a.33.33,0,0,1,.33-.33Zm6.71,0h3.81a.33.33,0,0,1,.33.33h0V15.5a.33.33,0,0,1-.33.33H193a.33.33,0,0,1-.33-.33h0V10.58a.33.33,0,0,1,.33-.33ZM179.6,19.14h3.8a.33.33,0,0,1,.33.33h0v5a.33.33,0,0,1-.33.33h-3.8a.33.33,0,0,1-.33-.33h0V19.52a.32.32,0,0,1,.28-.38Zm6.68,0h3.81a.33.33,0,0,1,.33.33h0v5a.33.33,0,0,1-.33.33h-3.81a.33.33,0,0,1-.33-.33h0V19.52a.34.34,0,0,1,.28-.38Zm6.71,0h3.81a.33.33,0,0,1,.33.33h0v5a.33.33,0,0,1-.33.33H193a.33.33,0,0,1-.33-.33h0V19.52a.33.33,0,0,1,.28-.38Zm-13.39,9h3.8a.34.34,0,0,1,.33.34h0v4.86a.33.33,0,0,1-.33.33h-3.8a.33.33,0,0,1-.33-.33V28.45A.33.33,0,0,1,179.6,28.11Zm6.68,0h3.81a.34.34,0,0,1,.33.34h0v4.86a.33.33,0,0,1-.33.33h-3.81a.33.33,0,0,1-.33-.33h0V28.45A.34.34,0,0,1,186.28,28.11Zm0,8.94h3.81a.33.33,0,0,1,.33.33h0v7.27a.33.33,0,0,1-.33.33h-3.81a.33.33,0,0,1-.33-.33V37.38a.33.33,0,0,1,.33-.33ZM193,28.11h3.81a.34.34,0,0,1,.33.34h0v4.86a.33.33,0,0,1-.33.33H193a.33.33,0,0,1-.33-.33h0V28.45A.34.34,0,0,1,193,28.11Z" fill="#f2f2f2"/>
        <path d="M181.58,35.67A3.07,3.07,0,0,0,178.65,38H168a6.61,6.61,0,0,0-.19,1.53v.14h10.82a3,3,0,1,0,2.93-4Z" fill="#50e6ff"/>
        <path d="M189.85,34.4a7.7,7.7,0,0,0-8-7.35,7.88,7.88,0,0,0-7.56,5.15,7.53,7.53,0,0,0-6,4.73H178A4,4,0,1,1,178,40.4H168a7.56,7.56,0,0,0,7.51,5.72h13.42a6.22,6.22,0,0,0,6.14-5.72A6.13,6.13,0,0,0,189.85,34.4Z" fill="url(#linear-gradient-2)"/>
        <path d="M181.58,35.67A3.07,3.07,0,0,0,178.65,38H168a5.91,5.91,0,0,1-1.11-.14,5.36,5.36,0,0,1,.59-10.59H168l.17-.47a6,6,0,0,1,5.81-4,6.22,6.22,0,0,1,5.38,3,7.11,7.11,0,0,1,1.78-.21,7.87,7.87,0,0,0-7.09-4.47,7.74,7.74,0,0,0-7.3,4.61,7,7,0,0,0-.55,13.61h0a4.87,4.87,0,0,0,1.73.28h10.7a3.05,3.05,0,1,0,2.93-3.95Z" fill="#50e6ff"/>
      </g>
    </g>
    <g>
      <path d="M329.93,46.12a3.23,3.23,0,0,0,3.23-3.22h0a1.21,1.21,0,0,0,0-.38C331.87,32.36,326.11,24.1,315,24.1s-17,7-18.15,18.44a3.25,3.25,0,0,0,2.87,3.58h30.21Z" fill="url(#linear-gradient-3)"/>
      <path d="M315,26.5a10.17,10.17,0,0,1-5.51-1.63L315,39.14,320.42,25A10.07,10.07,0,0,1,315,26.5Z" fill="#fff" opacity="0.8" style="isolation: isolate"/>
      <circle cx="315.02" cy="16.3" r="10.18" fill="url(#linear-gradient-4)"/>
    </g>
  </g>
  <g id="Text">
    <g>
      <path d="M40.84,63.53a5,5,0,0,1-2.32.49,3.75,3.75,0,0,1-2.88-1.15,4.3,4.3,0,0,1-1.07-3,4.47,4.47,0,0,1,1.21-3.26,4.1,4.1,0,0,1,3.07-1.24,5,5,0,0,1,2,.35v1a4.12,4.12,0,0,0-2-.5,3,3,0,0,0-2.34,1,3.62,3.62,0,0,0-.9,2.58,3.49,3.49,0,0,0,.84,2.45,2.87,2.87,0,0,0,2.2.91,4.21,4.21,0,0,0,2.2-.56Z" fill="#1e1e1e"/>
      <path d="M45.55,58.86a1.18,1.18,0,0,0-.73-.2,1.25,1.25,0,0,0-1,.58,2.74,2.74,0,0,0-.41,1.58v3.06h-1v-6h1v1.24h0a2.17,2.17,0,0,1,.63-1,1.44,1.44,0,0,1,.94-.35,1.52,1.52,0,0,1,.58.08Z" fill="#1e1e1e"/>
      <path d="M51.41,61.12H47.18a2.23,2.23,0,0,0,.53,1.55,1.88,1.88,0,0,0,1.42.54A3,3,0,0,0,51,62.55v.9a3.53,3.53,0,0,1-2.1.57,2.53,2.53,0,0,1-2-.81,3.34,3.34,0,0,1-.73-2.3A3.29,3.29,0,0,1,47,58.62a2.58,2.58,0,0,1,2-.88,2.29,2.29,0,0,1,1.83.76,3.19,3.19,0,0,1,.64,2.12Zm-1-.81A2,2,0,0,0,50,59a1.4,1.4,0,0,0-1.1-.46,1.54,1.54,0,0,0-1.16.49,2.21,2.21,0,0,0-.58,1.27Z" fill="#1e1e1e"/>
      <path d="M57.16,63.88h-1V63h0A2,2,0,0,1,54.33,64a1.93,1.93,0,0,1-1.4-.47,1.65,1.65,0,0,1-.51-1.26c0-1.12.66-1.77,2-2l1.8-.25c0-1-.41-1.53-1.24-1.53a3,3,0,0,0-2,.74v-1a3.73,3.73,0,0,1,2-.56c1.41,0,2.12.75,2.12,2.24Zm-1-3-1.45.2a2.35,2.35,0,0,0-1,.33,1,1,0,0,0-.34.84.93.93,0,0,0,.32.72,1.22,1.22,0,0,0,.83.27,1.51,1.51,0,0,0,1.18-.5,1.77,1.77,0,0,0,.47-1.26Z" fill="#1e1e1e"/>
      <path d="M61.75,63.82a1.76,1.76,0,0,1-.89.19c-1,0-1.58-.58-1.58-1.76V58.7h-1v-.82h1V56.42l1-.31v1.77h1.51v.82H60.24v3.38a1.41,1.41,0,0,0,.21.87.81.81,0,0,0,.68.25.94.94,0,0,0,.62-.2Z" fill="#1e1e1e"/>
      <path d="M67.86,61.12H63.62a2.28,2.28,0,0,0,.54,1.55,1.88,1.88,0,0,0,1.42.54,2.94,2.94,0,0,0,1.86-.66v.9a3.47,3.47,0,0,1-2.09.57,2.56,2.56,0,0,1-2-.81,3.39,3.39,0,0,1-.72-2.3,3.29,3.29,0,0,1,.79-2.29,2.58,2.58,0,0,1,2-.88,2.27,2.27,0,0,1,1.82.76,3.2,3.2,0,0,1,.65,2.12Zm-1-.81a1.91,1.91,0,0,0-.4-1.3,1.39,1.39,0,0,0-1.1-.46,1.54,1.54,0,0,0-1.15.49,2.22,2.22,0,0,0-.59,1.27Z" fill="#1e1e1e"/>
      <path d="M19,77.08H18v-.93h0a2,2,0,0,1-1.85,1.07,2,2,0,0,1-1.4-.47,1.65,1.65,0,0,1-.51-1.26c0-1.12.66-1.77,2-2l1.8-.25c0-1-.41-1.53-1.24-1.53a3,3,0,0,0-1.95.74v-1a3.76,3.76,0,0,1,2-.56c1.41,0,2.11.75,2.11,2.24Zm-1-3-1.45.2a2.25,2.25,0,0,0-1,.33,1,1,0,0,0-.34.84.92.92,0,0,0,.31.72,1.24,1.24,0,0,0,.83.28,1.52,1.52,0,0,0,1.18-.51A1.73,1.73,0,0,0,18,74.65Z" fill="#1e1e1e"/>
      <path d="M29.94,76.73a4.92,4.92,0,0,1-2.32.49,3.72,3.72,0,0,1-2.87-1.15,4.26,4.26,0,0,1-1.08-3,4.47,4.47,0,0,1,1.21-3.26A4.11,4.11,0,0,1,28,68.54a5,5,0,0,1,2,.35v1a4.09,4.09,0,0,0-2-.5,3,3,0,0,0-2.34,1A3.62,3.62,0,0,0,24.7,73a3.49,3.49,0,0,0,.84,2.45,2.86,2.86,0,0,0,2.21.91,4.2,4.2,0,0,0,2.19-.56Z" fill="#1e1e1e"/>
      <path d="M31.26,76.74V75.58a2,2,0,0,0,.47.32,5.19,5.19,0,0,0,.59.24,6.23,6.23,0,0,0,.62.15,4,4,0,0,0,.57,0A2.22,2.22,0,0,0,34.87,76a1.14,1.14,0,0,0,.45-1,1.15,1.15,0,0,0-.15-.59,1.64,1.64,0,0,0-.42-.46,3.91,3.91,0,0,0-.62-.4l-.78-.4-.82-.45a3.81,3.81,0,0,1-.66-.5,2.24,2.24,0,0,1-.44-.63,2.13,2.13,0,0,1,.09-1.81,2.24,2.24,0,0,1,.66-.71,3.08,3.08,0,0,1,.94-.41,4.24,4.24,0,0,1,1.07-.13,4.11,4.11,0,0,1,1.81.3V70a3.26,3.26,0,0,0-1.91-.52,2.88,2.88,0,0,0-.65.07,1.69,1.69,0,0,0-.57.22,1.18,1.18,0,0,0-.41.39,1,1,0,0,0-.16.59,1.18,1.18,0,0,0,.12.55,1.41,1.41,0,0,0,.35.43,4.69,4.69,0,0,0,.57.38l.78.39c.3.15.59.31.86.47a4.46,4.46,0,0,1,.71.55,2.53,2.53,0,0,1,.48.66,1.84,1.84,0,0,1,.18.83,2,2,0,0,1-.9,1.75,3,3,0,0,1-1,.39,5.24,5.24,0,0,1-1.14.12l-.49,0q-.3,0-.6-.09a4.91,4.91,0,0,1-.58-.15A1.72,1.72,0,0,1,31.26,76.74Z" fill="#1e1e1e"/>
      <path d="M39,73.91v3.17H38v-8.4h2.31a3,3,0,0,1,2.09.66,2.34,2.34,0,0,1,.74,1.85,2.54,2.54,0,0,1-.82,2,3.19,3.19,0,0,1-2.23.76Zm0-4.34V73h1a2.28,2.28,0,0,0,1.55-.47,1.64,1.64,0,0,0,.54-1.31c0-1.11-.66-1.67-2-1.67Z" fill="#1e1e1e"/>
      <path d="M50.41,77.22a2.76,2.76,0,0,1-2.12-.84,3.11,3.11,0,0,1-.8-2.23,3.26,3.26,0,0,1,.83-2.36,3,3,0,0,1,2.23-.85,2.73,2.73,0,0,1,2.1.83,3.27,3.27,0,0,1,.75,2.29,3.23,3.23,0,0,1-.81,2.3A2.83,2.83,0,0,1,50.41,77.22Zm.07-5.47a1.8,1.8,0,0,0-1.46.63,2.59,2.59,0,0,0-.54,1.74A2.46,2.46,0,0,0,49,75.8a1.85,1.85,0,0,0,1.46.62,1.76,1.76,0,0,0,1.43-.61,2.58,2.58,0,0,0,.5-1.72,2.62,2.62,0,0,0-.5-1.73A1.73,1.73,0,0,0,50.48,71.75Z" fill="#1e1e1e"/>
      <path d="M58.06,72.06a1.16,1.16,0,0,0-.72-.2,1.24,1.24,0,0,0-1,.58A2.67,2.67,0,0,0,55.89,74v3.06h-1v-6h1v1.24h0a2.08,2.08,0,0,1,.62-1,1.49,1.49,0,0,1,1-.35,1.44,1.44,0,0,1,.57.08Z" fill="#1e1e1e"/>
      <path d="M69,77.08H67.94L67,74.73H63.48l-.84,2.35H61.55l3.22-8.4h1Zm-2.3-3.24L65.4,70.26a4.39,4.39,0,0,1-.13-.56h0a3.13,3.13,0,0,1-.13.56l-1.31,3.58Z" fill="#1e1e1e"/>
      <path d="M71.25,73.91v3.17h-1v-8.4h2.31a3,3,0,0,1,2.09.66,2.34,2.34,0,0,1,.74,1.85,2.54,2.54,0,0,1-.82,2,3.19,3.19,0,0,1-2.23.76Zm0-4.34V73h1a2.28,2.28,0,0,0,1.55-.47,1.64,1.64,0,0,0,.54-1.31c0-1.11-.66-1.67-2-1.67Z" fill="#1e1e1e"/>
      <path d="M76.59,76.74V75.58a1.91,1.91,0,0,0,.48.32,5,5,0,0,0,.58.24c.21.06.41.11.62.15a4.13,4.13,0,0,0,.58,0A2.2,2.2,0,0,0,80.2,76a1.14,1.14,0,0,0,.45-1,1.15,1.15,0,0,0-.15-.59,1.76,1.76,0,0,0-.41-.46,4.57,4.57,0,0,0-.63-.4l-.77-.4c-.3-.15-.57-.3-.82-.45a3.54,3.54,0,0,1-.67-.5,2.47,2.47,0,0,1-.44-.63,1.88,1.88,0,0,1-.16-.82,2,2,0,0,1,.25-1,2.17,2.17,0,0,1,.67-.71,3,3,0,0,1,.93-.41,4.29,4.29,0,0,1,1.07-.13,4.08,4.08,0,0,1,1.81.3V70a3.24,3.24,0,0,0-1.91-.52,2.88,2.88,0,0,0-.65.07,1.78,1.78,0,0,0-.57.22,1.27,1.27,0,0,0-.41.39,1.1,1.1,0,0,0-.16.59,1.18,1.18,0,0,0,.12.55,1.31,1.31,0,0,0,.36.43,3.51,3.51,0,0,0,.57.38l.77.39c.31.15.59.31.86.47a4,4,0,0,1,.71.55,2.53,2.53,0,0,1,.48.66,1.84,1.84,0,0,1,.18.83A2.09,2.09,0,0,1,81.44,76a1.93,1.93,0,0,1-.66.7,2.8,2.8,0,0,1-1,.39,5.24,5.24,0,0,1-1.14.12l-.49,0-.6-.09A4.74,4.74,0,0,1,77,77,1.81,1.81,0,0,1,76.59,76.74Z" fill="#1e1e1e"/>
      <path d="M83,76.74V75.58a2.36,2.36,0,0,0,.48.32,5.19,5.19,0,0,0,.59.24,6.23,6.23,0,0,0,.62.15,3.88,3.88,0,0,0,.57,0A2.22,2.22,0,0,0,86.58,76,1.13,1.13,0,0,0,87,75a1.15,1.15,0,0,0-.14-.59,1.64,1.64,0,0,0-.42-.46,3.91,3.91,0,0,0-.62-.4l-.78-.4-.82-.45a3.81,3.81,0,0,1-.66-.5,2.05,2.05,0,0,1-.44-.63,2.13,2.13,0,0,1,.09-1.81,2.24,2.24,0,0,1,.66-.71,3.13,3.13,0,0,1,.93-.41,4.29,4.29,0,0,1,1.07-.13,4,4,0,0,1,1.81.3V70a3.22,3.22,0,0,0-1.91-.52,2.79,2.79,0,0,0-.64.07,1.69,1.69,0,0,0-.57.22,1.18,1.18,0,0,0-.41.39,1,1,0,0,0-.16.59,1.18,1.18,0,0,0,.12.55,1.41,1.41,0,0,0,.35.43,4.69,4.69,0,0,0,.57.38l.78.39c.3.15.59.31.86.47a4.36,4.36,0,0,1,.7.55,2.36,2.36,0,0,1,.49.66,1.84,1.84,0,0,1,.18.83,2,2,0,0,1-.9,1.75,2.94,2.94,0,0,1-1,.39,5.09,5.09,0,0,1-1.13.12l-.49,0q-.3,0-.6-.09A4.45,4.45,0,0,1,83.4,77,2,2,0,0,1,83,76.74Z" fill="#1e1e1e"/>
      <path d="M19.54,90.07V89a2.82,2.82,0,0,0,1.73.58q1.26,0,1.26-.84a.78.78,0,0,0-.11-.41,1,1,0,0,0-.29-.29,1.76,1.76,0,0,0-.43-.23l-.54-.22a5.16,5.16,0,0,1-.7-.32,2,2,0,0,1-.5-.36,1.29,1.29,0,0,1-.31-.46,1.57,1.57,0,0,1-.1-.6,1.44,1.44,0,0,1,.19-.75,1.7,1.7,0,0,1,.52-.55,2.71,2.71,0,0,1,.73-.33,3.49,3.49,0,0,1,.86-.11,3.45,3.45,0,0,1,1.39.27v1A2.78,2.78,0,0,0,21.72,85a1.83,1.83,0,0,0-.49.06,1.06,1.06,0,0,0-.37.18.66.66,0,0,0-.24.26.69.69,0,0,0-.09.34.78.78,0,0,0,.34.68,2.11,2.11,0,0,0,.4.22l.53.22a6.85,6.85,0,0,1,.71.31,2.82,2.82,0,0,1,.54.36,1.6,1.6,0,0,1,.35.47,1.54,1.54,0,0,1,.12.63,1.5,1.5,0,0,1-.2.77,1.74,1.74,0,0,1-.53.55,2.43,2.43,0,0,1-.75.32,3.82,3.82,0,0,1-.9.1A3.47,3.47,0,0,1,19.54,90.07Z" fill="#1e1e1e"/>
      <path d="M29.84,90.28h-1v-1h0A2,2,0,0,1,27,90.42c-1.43,0-2.15-.85-2.15-2.55V84.28h1v3.44c0,1.26.48,1.89,1.45,1.89a1.48,1.48,0,0,0,1.16-.51,2,2,0,0,0,.45-1.36V84.28h1Z" fill="#1e1e1e"/>
      <path d="M32.77,89.42h0v.86h-1V81.4h1v3.94h0a2.26,2.26,0,0,1,2.07-1.2,2.2,2.2,0,0,1,1.81.81,3.33,3.33,0,0,1,.65,2.16,3.72,3.72,0,0,1-.73,2.41,2.45,2.45,0,0,1-2,.9A2,2,0,0,1,32.77,89.42Zm0-2.42v.83a1.77,1.77,0,0,0,.49,1.27A1.73,1.73,0,0,0,35.82,89a3.09,3.09,0,0,0,.5-1.86,2.41,2.41,0,0,0-.47-1.57A1.51,1.51,0,0,0,34.6,85a1.73,1.73,0,0,0-1.35.58A2.16,2.16,0,0,0,32.74,87Z" fill="#1e1e1e"/>
      <path d="M38.47,90.07V89a2.84,2.84,0,0,0,1.73.58c.85,0,1.27-.28,1.27-.84a.78.78,0,0,0-.11-.41,1,1,0,0,0-.29-.29,1.83,1.83,0,0,0-.44-.23l-.53-.22a5.16,5.16,0,0,1-.7-.32,2.21,2.21,0,0,1-.51-.36,1.41,1.41,0,0,1-.3-.46,1.57,1.57,0,0,1-.1-.6,1.44,1.44,0,0,1,.19-.75,1.78,1.78,0,0,1,.51-.55,2.77,2.77,0,0,1,.74-.33,3.59,3.59,0,0,1,2.25.16v1A2.79,2.79,0,0,0,40.65,85a1.75,1.75,0,0,0-.48.06,1,1,0,0,0-.37.18.66.66,0,0,0-.24.26.69.69,0,0,0-.09.34.82.82,0,0,0,.09.4.78.78,0,0,0,.24.28,2.48,2.48,0,0,0,.4.22l.54.22a6.85,6.85,0,0,1,.71.31,2.82,2.82,0,0,1,.54.36,1.41,1.41,0,0,1,.34.47,1.54,1.54,0,0,1,.12.63,1.49,1.49,0,0,1-.19.77,1.74,1.74,0,0,1-.53.55,2.54,2.54,0,0,1-.75.32,3.82,3.82,0,0,1-.9.1A3.54,3.54,0,0,1,38.47,90.07Z" fill="#1e1e1e"/>
      <path d="M48,90a3.19,3.19,0,0,1-1.64.41,2.68,2.68,0,0,1-2.07-.83,3,3,0,0,1-.79-2.17A3.32,3.32,0,0,1,44.37,85a3,3,0,0,1,2.27-.9,3.09,3.09,0,0,1,1.39.3v1A2.45,2.45,0,0,0,46.6,85a1.93,1.93,0,0,0-1.51.66,2.52,2.52,0,0,0-.59,1.73A2.41,2.41,0,0,0,45.06,89a1.91,1.91,0,0,0,1.48.6A2.39,2.39,0,0,0,48,89.09Z" fill="#1e1e1e"/>
      <path d="M52.6,85.26a1.18,1.18,0,0,0-.73-.2,1.22,1.22,0,0,0-1,.58,2.67,2.67,0,0,0-.42,1.58v3.06h-1v-6h1v1.24h0a2.08,2.08,0,0,1,.62-1,1.47,1.47,0,0,1,1-.35,1.44,1.44,0,0,1,.57.08Z" fill="#1e1e1e"/>
      <path d="M54.14,82.76a.59.59,0,0,1-.44-.18.57.57,0,0,1-.18-.44.61.61,0,0,1,.18-.45.59.59,0,0,1,.44-.18.6.6,0,0,1,.44.18.58.58,0,0,1,.19.45.58.58,0,0,1-.19.44A.6.6,0,0,1,54.14,82.76Zm.46,7.52h-1v-6h1Z" fill="#1e1e1e"/>
      <path d="M57.53,89.42h0V93h-1V84.28h1v1.06h0a2.29,2.29,0,0,1,2.08-1.2,2.19,2.19,0,0,1,1.81.81,3.33,3.33,0,0,1,.65,2.16,3.72,3.72,0,0,1-.73,2.41,2.46,2.46,0,0,1-2,.9A2,2,0,0,1,57.53,89.42Zm0-2.42v.83A1.81,1.81,0,0,0,58,89.1a1.64,1.64,0,0,0,1.23.51A1.62,1.62,0,0,0,60.59,89a3.09,3.09,0,0,0,.5-1.86,2.41,2.41,0,0,0-.47-1.57A1.52,1.52,0,0,0,59.37,85a1.73,1.73,0,0,0-1.35.58A2.16,2.16,0,0,0,57.51,87Z" fill="#1e1e1e"/>
      <path d="M66.39,90.22a1.82,1.82,0,0,1-.9.19c-1,0-1.57-.58-1.57-1.76V85.1h-1v-.82h1V82.82l1-.31v1.77h1.51v.82H64.88v3.38a1.41,1.41,0,0,0,.2.87.82.82,0,0,0,.68.25,1,1,0,0,0,.63-.2Z" fill="#1e1e1e"/>
      <path d="M68.16,82.76a.62.62,0,0,1-.44-.18.57.57,0,0,1-.18-.44.61.61,0,0,1,.18-.45.62.62,0,0,1,.44-.18.61.61,0,0,1,.45.18.62.62,0,0,1,0,.89A.61.61,0,0,1,68.16,82.76Zm.47,7.52h-1v-6h1Z" fill="#1e1e1e"/>
      <path d="M73.09,90.42A2.79,2.79,0,0,1,71,89.58a3.1,3.1,0,0,1-.79-2.23A3.26,3.26,0,0,1,71,85a3,3,0,0,1,2.24-.85,2.69,2.69,0,0,1,2.09.83,3.27,3.27,0,0,1,.75,2.29,3.23,3.23,0,0,1-.81,2.3A2.81,2.81,0,0,1,73.09,90.42ZM73.16,85a1.84,1.84,0,0,0-1.47.63,2.59,2.59,0,0,0-.54,1.74A2.41,2.41,0,0,0,71.7,89a1.85,1.85,0,0,0,1.46.61,1.77,1.77,0,0,0,1.43-.6,2.63,2.63,0,0,0,.5-1.72,2.68,2.68,0,0,0-.5-1.73A1.74,1.74,0,0,0,73.16,85Z" fill="#1e1e1e"/>
      <path d="M82.59,90.28h-1V86.86c0-1.27-.47-1.91-1.4-1.91a1.52,1.52,0,0,0-1.19.54,2,2,0,0,0-.47,1.37v3.42h-1v-6h1v1h0a2.17,2.17,0,0,1,2-1.14,1.83,1.83,0,0,1,1.51.64,2.79,2.79,0,0,1,.52,1.83Z" fill="#1e1e1e"/>
    </g>
    <g>
      <path d="M174.17,63.88H173l-1.4-2.35a4.9,4.9,0,0,0-.38-.56,1.92,1.92,0,0,0-.37-.38,1.14,1.14,0,0,0-.41-.21,1.53,1.53,0,0,0-.49-.07h-.81v3.57h-1v-8.4h2.51a3.64,3.64,0,0,1,1,.14,2.23,2.23,0,0,1,.81.42,2,2,0,0,1,.53.7,2.58,2.58,0,0,1,.06,1.78,2.13,2.13,0,0,1-.37.66,2.37,2.37,0,0,1-.59.49,3,3,0,0,1-.77.31v0a2.58,2.58,0,0,1,.37.22,1.9,1.9,0,0,1,.29.28,3.58,3.58,0,0,1,.28.37c.09.14.2.3.31.49Zm-5-7.51v3.05h1.33a2.17,2.17,0,0,0,.69-.11,1.84,1.84,0,0,0,.54-.32,1.41,1.41,0,0,0,.35-.51,1.65,1.65,0,0,0,.13-.68,1.31,1.31,0,0,0-.43-1,1.91,1.91,0,0,0-1.27-.38Z" fill="#1e1e1e"/>
      <path d="M179.66,61.12h-4.23a2.23,2.23,0,0,0,.53,1.55,1.88,1.88,0,0,0,1.42.54,3,3,0,0,0,1.87-.66v.9a3.53,3.53,0,0,1-2.1.57,2.53,2.53,0,0,1-2-.81,3.34,3.34,0,0,1-.73-2.3,3.29,3.29,0,0,1,.79-2.29,2.58,2.58,0,0,1,2-.88,2.29,2.29,0,0,1,1.83.76,3.19,3.19,0,0,1,.64,2.12Zm-1-.81a2,2,0,0,0-.4-1.3,1.4,1.4,0,0,0-1.1-.46A1.54,1.54,0,0,0,176,59a2.21,2.21,0,0,0-.58,1.27Z" fill="#1e1e1e"/>
      <path d="M186.24,63.4q0,3.32-3.17,3.31a4.23,4.23,0,0,1-1.94-.42v-1a3.94,3.94,0,0,0,1.93.57c1.48,0,2.21-.79,2.21-2.36v-.65h0A2.25,2.25,0,0,1,183.19,64a2.22,2.22,0,0,1-1.8-.8,3.16,3.16,0,0,1-.69-2.14,3.78,3.78,0,0,1,.74-2.44,2.46,2.46,0,0,1,2-.9,2,2,0,0,1,1.8,1h0v-.83h1Zm-1-2.23v-.88a1.73,1.73,0,0,0-.48-1.23,1.58,1.58,0,0,0-1.2-.51,1.68,1.68,0,0,0-1.4.65,2.91,2.91,0,0,0-.5,1.81,2.48,2.48,0,0,0,.48,1.6,1.56,1.56,0,0,0,1.28.6,1.69,1.69,0,0,0,1.32-.57A2.12,2.12,0,0,0,185.27,61.17Z" fill="#1e1e1e"/>
      <path d="M188.67,56.36a.6.6,0,0,1-.44-.18.57.57,0,0,1-.18-.44.61.61,0,0,1,.18-.45.6.6,0,0,1,.44-.18.61.61,0,0,1,.45.18.62.62,0,0,1,0,.89A.61.61,0,0,1,188.67,56.36Zm.47,7.52h-1v-6h1Z" fill="#1e1e1e"/>
      <path d="M190.72,63.67v-1a2.84,2.84,0,0,0,1.73.58c.85,0,1.27-.28,1.27-.84a.78.78,0,0,0-.11-.41,1,1,0,0,0-.29-.29,1.83,1.83,0,0,0-.44-.23l-.53-.22a5.16,5.16,0,0,1-.7-.32,2.21,2.21,0,0,1-.51-.36,1.41,1.41,0,0,1-.3-.46,1.57,1.57,0,0,1-.1-.6,1.44,1.44,0,0,1,.19-.75,1.78,1.78,0,0,1,.51-.55,2.77,2.77,0,0,1,.74-.33,3.59,3.59,0,0,1,2.25.16v1a2.79,2.79,0,0,0-1.53-.43,1.75,1.75,0,0,0-.48.06,1,1,0,0,0-.37.18.66.66,0,0,0-.24.26.69.69,0,0,0-.09.34.82.82,0,0,0,.09.4.78.78,0,0,0,.24.28,2.48,2.48,0,0,0,.4.22l.54.22a6.85,6.85,0,0,1,.71.31,2.82,2.82,0,0,1,.54.36,1.41,1.41,0,0,1,.34.47,1.54,1.54,0,0,1,.12.63,1.49,1.49,0,0,1-.19.77,1.74,1.74,0,0,1-.53.55,2.54,2.54,0,0,1-.75.32,3.82,3.82,0,0,1-.9.1A3.54,3.54,0,0,1,190.72,63.67Z" fill="#1e1e1e"/>
      <path d="M199,63.82a1.76,1.76,0,0,1-.89.19c-1.06,0-1.58-.58-1.58-1.76V58.7h-1v-.82h1V56.42l1-.31v1.77H199v.82h-1.51v3.38a1.41,1.41,0,0,0,.21.87.8.8,0,0,0,.67.25A1,1,0,0,0,199,63Z" fill="#1e1e1e"/>
      <path d="M205.07,61.12h-4.24a2.28,2.28,0,0,0,.54,1.55,1.87,1.87,0,0,0,1.42.54,3,3,0,0,0,1.86-.66v.9a3.5,3.5,0,0,1-2.09.57,2.56,2.56,0,0,1-2-.81,3.39,3.39,0,0,1-.73-2.3,3.29,3.29,0,0,1,.8-2.29,2.58,2.58,0,0,1,2-.88,2.27,2.27,0,0,1,1.82.76,3.2,3.2,0,0,1,.65,2.12Zm-1-.81a1.91,1.91,0,0,0-.4-1.3,1.39,1.39,0,0,0-1.1-.46,1.54,1.54,0,0,0-1.15.49,2.22,2.22,0,0,0-.59,1.27Z" fill="#1e1e1e"/>
      <path d="M209.65,58.86a1.18,1.18,0,0,0-.73-.2,1.25,1.25,0,0,0-1,.58,2.74,2.74,0,0,0-.41,1.58v3.06h-1v-6h1v1.24h0a2.17,2.17,0,0,1,.63-1,1.47,1.47,0,0,1,1-.35,1.44,1.44,0,0,1,.57.08Z" fill="#1e1e1e"/>
      <path d="M139.62,77.08h-1.09l-.89-2.35h-3.56l-.84,2.35h-1.1l3.22-8.4h1Zm-2.3-3.24L136,70.26a2.44,2.44,0,0,1-.13-.56h0a3,3,0,0,1-.14.56l-1.31,3.58Z" fill="#1e1e1e"/>
      <path d="M144.91,71.36l-3.55,4.9h3.51v.82H140v-.3l3.55-4.88h-3.22v-.82h4.63Z" fill="#1e1e1e"/>
      <path d="M151,77.08h-1v-1h0a2,2,0,0,1-1.85,1.09c-1.43,0-2.15-.85-2.15-2.55V71.08h1v3.44c0,1.26.48,1.9,1.45,1.9a1.49,1.49,0,0,0,1.16-.52,2,2,0,0,0,.45-1.36V71.08h1Z" fill="#1e1e1e"/>
      <path d="M156.07,72.06a1.16,1.16,0,0,0-.72-.2,1.24,1.24,0,0,0-1,.58A2.67,2.67,0,0,0,153.9,74v3.06h-1v-6h1v1.24h0a2.08,2.08,0,0,1,.62-1,1.49,1.49,0,0,1,.95-.35,1.44,1.44,0,0,1,.57.08Z" fill="#1e1e1e"/>
      <path d="M161.94,74.32H157.7a2.28,2.28,0,0,0,.54,1.55,1.87,1.87,0,0,0,1.42.55,3,3,0,0,0,1.86-.67v.9a3.5,3.5,0,0,1-2.09.57,2.56,2.56,0,0,1-2-.81,3.39,3.39,0,0,1-.73-2.3,3.29,3.29,0,0,1,.8-2.29,2.58,2.58,0,0,1,2-.88,2.27,2.27,0,0,1,1.82.76,3.2,3.2,0,0,1,.65,2.12Zm-1-.81a2,2,0,0,0-.4-1.3,1.39,1.39,0,0,0-1.1-.46,1.52,1.52,0,0,0-1.15.49,2.22,2.22,0,0,0-.59,1.27Z" fill="#1e1e1e"/>
      <path d="M166.41,76.74V75.58a2.36,2.36,0,0,0,.48.32,5.19,5.19,0,0,0,.59.24,6.23,6.23,0,0,0,.62.15,3.88,3.88,0,0,0,.57,0A2.24,2.24,0,0,0,170,76a1.27,1.27,0,0,0,.29-1.56,1.47,1.47,0,0,0-.41-.46,3.91,3.91,0,0,0-.62-.4l-.78-.4c-.29-.15-.57-.3-.82-.45a3.81,3.81,0,0,1-.66-.5,2.05,2.05,0,0,1-.44-.63,2.13,2.13,0,0,1,.09-1.81,2.24,2.24,0,0,1,.66-.71,3,3,0,0,1,.93-.41,4.29,4.29,0,0,1,1.07-.13,4.08,4.08,0,0,1,1.81.3V70a3.22,3.22,0,0,0-1.91-.52,2.79,2.79,0,0,0-.64.07,1.75,1.75,0,0,0-.58.22,1.38,1.38,0,0,0-.41.39,1.1,1.1,0,0,0-.15.59,1.18,1.18,0,0,0,.12.55,1.28,1.28,0,0,0,.35.43,4.69,4.69,0,0,0,.57.38l.78.39c.3.15.58.31.85.47a4,4,0,0,1,.71.55,2.36,2.36,0,0,1,.49.66,1.84,1.84,0,0,1,.18.83,2.09,2.09,0,0,1-.25,1.05,2,2,0,0,1-.65.7,2.94,2.94,0,0,1-1,.39,5.15,5.15,0,0,1-1.13.12l-.5,0-.59-.09a4.45,4.45,0,0,1-.58-.15A2,2,0,0,1,166.41,76.74Z" fill="#1e1e1e"/>
      <path d="M175.45,77a1.82,1.82,0,0,1-.9.19c-1.05,0-1.57-.58-1.57-1.76V71.9h-1v-.82h1V69.62l1-.31v1.77h1.51v.82h-1.51v3.38a1.49,1.49,0,0,0,.2.87.83.83,0,0,0,.68.25,1,1,0,0,0,.63-.2Z" fill="#1e1e1e"/>
      <path d="M181,77.08h-1v-.93h0a2,2,0,0,1-1.84,1.07,2,2,0,0,1-1.41-.47,1.68,1.68,0,0,1-.5-1.26c0-1.12.66-1.77,2-2l1.8-.25c0-1-.42-1.53-1.24-1.53a3,3,0,0,0-2,.74v-1a3.76,3.76,0,0,1,2-.56c1.41,0,2.12.75,2.12,2.24Zm-1-3-1.45.2a2.3,2.3,0,0,0-1,.33,1,1,0,0,0-.34.84,1,1,0,0,0,.31.72,1.25,1.25,0,0,0,.84.28,1.52,1.52,0,0,0,1.18-.51,1.77,1.77,0,0,0,.47-1.26Z" fill="#1e1e1e"/>
      <path d="M186.93,76.81a3.19,3.19,0,0,1-1.64.41,2.68,2.68,0,0,1-2.07-.83,3,3,0,0,1-.79-2.17,3.32,3.32,0,0,1,.85-2.38,3,3,0,0,1,2.26-.9,3.1,3.1,0,0,1,1.4.3v1a2.47,2.47,0,0,0-1.43-.47,1.93,1.93,0,0,0-1.51.66,2.52,2.52,0,0,0-.59,1.73,2.41,2.41,0,0,0,.56,1.67,1.91,1.91,0,0,0,1.48.61,2.42,2.42,0,0,0,1.48-.53Z" fill="#1e1e1e"/>
      <path d="M193.36,77.08H192l-2.65-2.88h0v2.88h-1V68.2h1v5.63h0l2.52-2.75h1.26L190.36,74Z" fill="#1e1e1e"/>
      <path d="M204.08,77.08h-1V73.25h-4.34v3.83h-1v-8.4h1v3.69h4.34V68.68h1Z" fill="#1e1e1e"/>
      <path d="M211,77.08h-1v-1h0a2,2,0,0,1-1.85,1.09c-1.43,0-2.15-.85-2.15-2.55V71.08h1v3.44c0,1.26.48,1.9,1.45,1.9a1.49,1.49,0,0,0,1.16-.52,2,2,0,0,0,.45-1.36V71.08h1Z" fill="#1e1e1e"/>
      <path d="M213.93,76.22h0v.86h-1V68.2h1v3.94h0a2.26,2.26,0,0,1,2.07-1.2,2.2,2.2,0,0,1,1.81.81,3.35,3.35,0,0,1,.65,2.16,3.72,3.72,0,0,1-.73,2.41,2.45,2.45,0,0,1-2,.9A2,2,0,0,1,213.93,76.22Zm0-2.42v.83a1.77,1.77,0,0,0,.49,1.27,1.71,1.71,0,0,0,2.59-.15,3.09,3.09,0,0,0,.5-1.86,2.41,2.41,0,0,0-.47-1.57,1.51,1.51,0,0,0-1.25-.57,1.73,1.73,0,0,0-1.35.58A2.16,2.16,0,0,0,213.9,73.8Z" fill="#1e1e1e"/>
      <path d="M230.84,71.08l-1.8,6h-1l-1.24-4.29a2.34,2.34,0,0,1-.09-.56h0a2.64,2.64,0,0,1-.12.55l-1.34,4.3h-1l-1.82-6h1l1.24,4.51a2.38,2.38,0,0,1,.08.54h.05a2.43,2.43,0,0,1,.11-.55l1.38-4.5h.88l1.24,4.53a3,3,0,0,1,.09.54h.05a2.34,2.34,0,0,1,.09-.54l1.22-4.53Z" fill="#1e1e1e"/>
      <path d="M232.45,69.56a.6.6,0,0,1-.44-.18.57.57,0,0,1-.18-.44.61.61,0,0,1,.18-.45.6.6,0,0,1,.44-.18.64.64,0,0,1,.45.18.61.61,0,0,1,.18.45.6.6,0,0,1-.18.44A.64.64,0,0,1,232.45,69.56Zm.47,7.52h-1v-6h1Z" fill="#1e1e1e"/>
      <path d="M237.65,77a1.82,1.82,0,0,1-.9.19c-1.05,0-1.58-.58-1.58-1.76V71.9h-1v-.82h1V69.62l1-.31v1.77h1.52v.82h-1.52v3.38a1.41,1.41,0,0,0,.21.87.82.82,0,0,0,.68.25,1,1,0,0,0,.63-.2Z" fill="#1e1e1e"/>
      <path d="M243.91,77.08h-1V73.63c0-1.25-.47-1.88-1.4-1.88a1.51,1.51,0,0,0-1.18.54,2,2,0,0,0-.48,1.39v3.4h-1V68.2h1v3.88h0a2.18,2.18,0,0,1,2-1.14c1.35,0,2,.82,2,2.45Z" fill="#1e1e1e"/>
      <path d="M149,90.07V89a2.84,2.84,0,0,0,1.73.58c.85,0,1.27-.28,1.27-.84a.78.78,0,0,0-.11-.41,1,1,0,0,0-.29-.29,1.83,1.83,0,0,0-.44-.23l-.53-.22a5.16,5.16,0,0,1-.7-.32,2.21,2.21,0,0,1-.51-.36,1.41,1.41,0,0,1-.3-.46,1.57,1.57,0,0,1-.1-.6,1.44,1.44,0,0,1,.19-.75,1.78,1.78,0,0,1,.51-.55,2.77,2.77,0,0,1,.74-.33,3.41,3.41,0,0,1,.85-.11,3.46,3.46,0,0,1,1.4.27v1a2.79,2.79,0,0,0-1.53-.43,1.75,1.75,0,0,0-.48.06,1.11,1.11,0,0,0-.38.18.85.85,0,0,0-.24.26.81.81,0,0,0-.08.34,1,1,0,0,0,.08.4.94.94,0,0,0,.25.28,2.48,2.48,0,0,0,.4.22l.54.22a6.85,6.85,0,0,1,.71.31,2.82,2.82,0,0,1,.54.36,1.41,1.41,0,0,1,.34.47,1.54,1.54,0,0,1,.12.63,1.49,1.49,0,0,1-.19.77,1.85,1.85,0,0,1-.53.55,2.54,2.54,0,0,1-.75.32,3.82,3.82,0,0,1-.9.1A3.54,3.54,0,0,1,149,90.07Z" fill="#1e1e1e"/>
      <path d="M159.48,90.28h-1V86.83c0-1.25-.47-1.88-1.4-1.88a1.51,1.51,0,0,0-1.18.54,2,2,0,0,0-.48,1.39v3.4h-1V81.4h1v3.88h0a2.18,2.18,0,0,1,2-1.14c1.35,0,2,.82,2,2.45Z" fill="#1e1e1e"/>
      <path d="M165.58,90.28h-1v-.93h0a2,2,0,0,1-1.85,1.07,2,2,0,0,1-1.4-.47,1.65,1.65,0,0,1-.51-1.26c0-1.12.66-1.77,2-2l1.8-.25q0-1.53-1.23-1.53a3,3,0,0,0-2,.74v-1a3.76,3.76,0,0,1,2-.56c1.41,0,2.11.75,2.11,2.24Zm-1-3-1.44.2a2.3,2.3,0,0,0-1,.33,1,1,0,0,0-.34.84.92.92,0,0,0,.31.72,1.25,1.25,0,0,0,.84.27,1.53,1.53,0,0,0,1.18-.5,1.76,1.76,0,0,0,.46-1.26Z" fill="#1e1e1e"/>
      <path d="M170.52,85.26a1.14,1.14,0,0,0-.72-.2,1.24,1.24,0,0,0-1,.58,2.67,2.67,0,0,0-.41,1.58v3.06h-1v-6h1v1.24h0a2.17,2.17,0,0,1,.63-1,1.61,1.61,0,0,1,1.51-.27Z" fill="#1e1e1e"/>
      <path d="M176.39,87.52h-4.24a2.28,2.28,0,0,0,.54,1.55,1.88,1.88,0,0,0,1.42.54A2.94,2.94,0,0,0,176,89v.9a3.47,3.47,0,0,1-2.09.57,2.56,2.56,0,0,1-2-.81,3.39,3.39,0,0,1-.72-2.3A3.29,3.29,0,0,1,172,85a2.58,2.58,0,0,1,2-.88,2.27,2.27,0,0,1,1.82.76,3.2,3.2,0,0,1,.65,2.12Zm-1-.81a1.91,1.91,0,0,0-.4-1.3,1.36,1.36,0,0,0-1.1-.46,1.54,1.54,0,0,0-1.15.49,2.22,2.22,0,0,0-.59,1.27Z" fill="#1e1e1e"/>
      <path d="M183,90.28h-1v-1h0a2.21,2.21,0,0,1-2.06,1.16,2.25,2.25,0,0,1-1.81-.8,3.33,3.33,0,0,1-.68-2.2,3.59,3.59,0,0,1,.75-2.38,2.48,2.48,0,0,1,2-.9,2,2,0,0,1,1.8,1h0V81.4h1Zm-1-2.71v-.88a1.74,1.74,0,0,0-.48-1.24,1.62,1.62,0,0,0-1.22-.5,1.67,1.67,0,0,0-1.38.65,2.77,2.77,0,0,0-.5,1.78A2.53,2.53,0,0,0,178.9,89a1.57,1.57,0,0,0,1.3.6,1.63,1.63,0,0,0,1.3-.58A2.11,2.11,0,0,0,182,87.57Z" fill="#1e1e1e"/>
      <path d="M187.83,90.07V89a2.84,2.84,0,0,0,1.73.58c.84,0,1.27-.28,1.27-.84a.78.78,0,0,0-.11-.41,1,1,0,0,0-.29-.29,1.83,1.83,0,0,0-.44-.23l-.53-.22a5.16,5.16,0,0,1-.7-.32,2,2,0,0,1-.51-.36,1.41,1.41,0,0,1-.3-.46,1.57,1.57,0,0,1-.11-.6,1.45,1.45,0,0,1,.2-.75,1.78,1.78,0,0,1,.51-.55,2.77,2.77,0,0,1,.74-.33,3.41,3.41,0,0,1,.85-.11,3.46,3.46,0,0,1,1.4.27v1A2.82,2.82,0,0,0,190,85a1.75,1.75,0,0,0-.48.06,1.11,1.11,0,0,0-.38.18.85.85,0,0,0-.24.26.81.81,0,0,0-.08.34,1,1,0,0,0,.08.4.94.94,0,0,0,.25.28,2.11,2.11,0,0,0,.4.22l.53.22a6.21,6.21,0,0,1,.72.31,2.82,2.82,0,0,1,.54.36,1.41,1.41,0,0,1,.34.47,1.54,1.54,0,0,1,.12.63,1.41,1.41,0,0,1-.2.77,1.7,1.7,0,0,1-.52.55,2.49,2.49,0,0,1-.76.32,3.68,3.68,0,0,1-.89.1A3.54,3.54,0,0,1,187.83,90.07Z" fill="#1e1e1e"/>
      <path d="M198.11,87.52h-4.24a2.28,2.28,0,0,0,.54,1.55,1.88,1.88,0,0,0,1.42.54,2.94,2.94,0,0,0,1.86-.66v.9a3.47,3.47,0,0,1-2.09.57,2.56,2.56,0,0,1-2-.81,3.39,3.39,0,0,1-.72-2.3,3.29,3.29,0,0,1,.79-2.29,2.58,2.58,0,0,1,2-.88,2.25,2.25,0,0,1,1.82.76,3.2,3.2,0,0,1,.65,2.12Zm-1-.81a2,2,0,0,0-.41-1.3,1.35,1.35,0,0,0-1.09-.46,1.54,1.54,0,0,0-1.16.49,2.15,2.15,0,0,0-.58,1.27Z" fill="#1e1e1e"/>
      <path d="M202.69,85.26a1.18,1.18,0,0,0-.73-.2,1.22,1.22,0,0,0-1,.58,2.67,2.67,0,0,0-.42,1.58v3.06h-1v-6h1v1.24h0a2.08,2.08,0,0,1,.62-1,1.49,1.49,0,0,1,1-.35,1.44,1.44,0,0,1,.57.08Z" fill="#1e1e1e"/>
      <path d="M208.45,84.28l-2.39,6h-.94l-2.28-6h1.06l1.52,4.36a3.21,3.21,0,0,1,.21.84h0a4.41,4.41,0,0,1,.18-.81l1.6-4.39Z" fill="#1e1e1e"/>
      <path d="M210,82.76a.58.58,0,0,1-.43-.18.55.55,0,0,1-.19-.44.63.63,0,0,1,.62-.63.61.61,0,0,1,.45.18.58.58,0,0,1,.19.45.58.58,0,0,1-.19.44A.61.61,0,0,1,210,82.76Zm.47,7.52h-1v-6h1Z" fill="#1e1e1e"/>
      <path d="M216.48,90a3.19,3.19,0,0,1-1.64.41,2.68,2.68,0,0,1-2.07-.83,3,3,0,0,1-.79-2.17,3.32,3.32,0,0,1,.85-2.38,3,3,0,0,1,2.27-.9,3.09,3.09,0,0,1,1.39.3v1a2.47,2.47,0,0,0-1.43-.47,1.93,1.93,0,0,0-1.51.66,2.52,2.52,0,0,0-.59,1.73,2.41,2.41,0,0,0,.56,1.67,1.91,1.91,0,0,0,1.48.6,2.39,2.39,0,0,0,1.48-.52Z" fill="#1e1e1e"/>
      <path d="M222.75,87.52h-4.23a2.19,2.19,0,0,0,.54,1.55,1.85,1.85,0,0,0,1.41.54,3,3,0,0,0,1.87-.66v.9a3.52,3.52,0,0,1-2.09.57,2.54,2.54,0,0,1-2-.81,3.34,3.34,0,0,1-.73-2.3,3.29,3.29,0,0,1,.8-2.29,2.55,2.55,0,0,1,2-.88,2.28,2.28,0,0,1,1.82.76,3.19,3.19,0,0,1,.64,2.12Zm-1-.81a2,2,0,0,0-.4-1.3,1.37,1.37,0,0,0-1.1-.46,1.52,1.52,0,0,0-1.15.49,2.16,2.16,0,0,0-.59,1.27Z" fill="#1e1e1e"/>
      <path d="M223.84,90.07V89a2.84,2.84,0,0,0,1.73.58c.85,0,1.27-.28,1.27-.84a.78.78,0,0,0-.11-.41,1,1,0,0,0-.29-.29,1.83,1.83,0,0,0-.44-.23l-.53-.22a5.16,5.16,0,0,1-.7-.32,2.21,2.21,0,0,1-.51-.36,1.41,1.41,0,0,1-.3-.46,1.57,1.57,0,0,1-.1-.6,1.44,1.44,0,0,1,.19-.75,1.78,1.78,0,0,1,.51-.55,2.77,2.77,0,0,1,.74-.33,3.59,3.59,0,0,1,2.25.16v1A2.79,2.79,0,0,0,226,85a1.75,1.75,0,0,0-.48.06,1,1,0,0,0-.37.18.77.77,0,0,0-.25.26.81.81,0,0,0-.08.34,1,1,0,0,0,.08.4.94.94,0,0,0,.25.28,2.48,2.48,0,0,0,.4.22l.54.22a6.85,6.85,0,0,1,.71.31,2.82,2.82,0,0,1,.54.36,1.41,1.41,0,0,1,.34.47,1.54,1.54,0,0,1,.12.63,1.49,1.49,0,0,1-.19.77,1.74,1.74,0,0,1-.53.55,2.54,2.54,0,0,1-.75.32,3.82,3.82,0,0,1-.9.1A3.54,3.54,0,0,1,223.84,90.07Z" fill="#1e1e1e"/>
      <path d="M156.74,103.27v-1a2.82,2.82,0,0,0,1.73.58q1.26,0,1.26-.84a.78.78,0,0,0-.1-.41,1,1,0,0,0-.3-.29,1.76,1.76,0,0,0-.43-.23l-.54-.22a5.79,5.79,0,0,1-.7-.32,2,2,0,0,1-.5-.36,1.29,1.29,0,0,1-.31-.46,1.79,1.79,0,0,1-.1-.6,1.55,1.55,0,0,1,.19-.75,1.82,1.82,0,0,1,.52-.55,2.77,2.77,0,0,1,.74-.33,3.56,3.56,0,0,1,2.24.16v1a2.78,2.78,0,0,0-1.52-.43,1.88,1.88,0,0,0-.49.06,1.06,1.06,0,0,0-.37.18.85.85,0,0,0-.24.26.68.68,0,0,0-.08.34.82.82,0,0,0,.08.4.94.94,0,0,0,.25.28,2.11,2.11,0,0,0,.4.22l.53.22a6.21,6.21,0,0,1,.72.31,2.82,2.82,0,0,1,.54.36,1.57,1.57,0,0,1,.34.47,1.54,1.54,0,0,1,.12.63,1.5,1.5,0,0,1-.2.77,1.7,1.7,0,0,1-.52.55,2.49,2.49,0,0,1-.76.32,3.68,3.68,0,0,1-.89.1A3.51,3.51,0,0,1,156.74,103.27Z" fill="#1e1e1e"/>
      <path d="M167.05,103.48h-1v-1h0a2,2,0,0,1-1.85,1.09c-1.43,0-2.14-.85-2.14-2.55V97.48h1v3.44c0,1.26.49,1.89,1.45,1.89a1.48,1.48,0,0,0,1.16-.51,2,2,0,0,0,.46-1.36V97.48h1Z" fill="#1e1e1e"/>
      <path d="M170,102.62h0v.86h-1V94.6h1v3.94h0a2.26,2.26,0,0,1,2.07-1.2,2.19,2.19,0,0,1,1.81.81,3.3,3.3,0,0,1,.66,2.16,3.73,3.73,0,0,1-.74,2.41,2.44,2.44,0,0,1-2,.9A2,2,0,0,1,170,102.62Zm0-2.42V101a1.81,1.81,0,0,0,.48,1.27,1.75,1.75,0,0,0,2.6-.15,3.09,3.09,0,0,0,.49-1.86,2.41,2.41,0,0,0-.46-1.57,1.54,1.54,0,0,0-1.26-.57,1.72,1.72,0,0,0-1.34.58A2.16,2.16,0,0,0,170,100.2Z" fill="#1e1e1e"/>
      <path d="M175.68,103.27v-1a2.82,2.82,0,0,0,1.73.58q1.26,0,1.26-.84a.7.7,0,0,0-.11-.41,1,1,0,0,0-.29-.29,1.76,1.76,0,0,0-.43-.23l-.54-.22a5.16,5.16,0,0,1-.7-.32,2,2,0,0,1-.5-.36,1.29,1.29,0,0,1-.31-.46,1.57,1.57,0,0,1-.1-.6,1.44,1.44,0,0,1,.19-.75,1.7,1.7,0,0,1,.52-.55,2.71,2.71,0,0,1,.73-.33,3.49,3.49,0,0,1,.86-.11,3.41,3.41,0,0,1,1.39.27v1a2.78,2.78,0,0,0-1.52-.43,1.88,1.88,0,0,0-.49.06,1.06,1.06,0,0,0-.37.18.74.74,0,0,0-.24.26.69.69,0,0,0-.09.34.78.78,0,0,0,.34.68,2.11,2.11,0,0,0,.4.22l.53.22a6.85,6.85,0,0,1,.71.31,2.82,2.82,0,0,1,.54.36,1.45,1.45,0,0,1,.35.47,1.54,1.54,0,0,1,.12.63,1.5,1.5,0,0,1-.2.77,1.82,1.82,0,0,1-.52.55,2.6,2.6,0,0,1-.76.32,3.76,3.76,0,0,1-.9.1A3.49,3.49,0,0,1,175.68,103.27Z" fill="#1e1e1e"/>
      <path d="M185.22,103.21a3.19,3.19,0,0,1-1.64.41,2.71,2.71,0,0,1-2.07-.83,3,3,0,0,1-.79-2.17,3.36,3.36,0,0,1,.85-2.38,3,3,0,0,1,2.27-.9,3.06,3.06,0,0,1,1.39.3v1a2.45,2.45,0,0,0-1.43-.47,1.91,1.91,0,0,0-1.5.66,2.47,2.47,0,0,0-.59,1.73,2.4,2.4,0,0,0,.55,1.67,1.92,1.92,0,0,0,1.49.6,2.38,2.38,0,0,0,1.47-.52Z" fill="#1e1e1e"/>
      <path d="M189.8,98.46a1.14,1.14,0,0,0-.72-.2,1.24,1.24,0,0,0-1,.58,2.67,2.67,0,0,0-.41,1.58v3.06h-1v-6h1v1.24h0a2.17,2.17,0,0,1,.63-1,1.61,1.61,0,0,1,1.51-.27Z" fill="#1e1e1e"/>
      <path d="M191.34,96a.6.6,0,0,1-.44-.18.57.57,0,0,1-.18-.44.61.61,0,0,1,.18-.45.6.6,0,0,1,.44-.18.63.63,0,0,1,.45.18.61.61,0,0,1,.18.45.6.6,0,0,1-.18.44A.63.63,0,0,1,191.34,96Zm.47,7.52h-1v-6h1Z" fill="#1e1e1e"/>
      <path d="M194.74,102.62h0v3.62h-1V97.48h1v1.06h0a2.26,2.26,0,0,1,2.07-1.2,2.19,2.19,0,0,1,1.81.81,3.29,3.29,0,0,1,.65,2.16,3.72,3.72,0,0,1-.73,2.41,2.45,2.45,0,0,1-2,.9A2,2,0,0,1,194.74,102.62Zm0-2.42V101a1.82,1.82,0,0,0,.49,1.27,1.73,1.73,0,0,0,2.59-.15,3.09,3.09,0,0,0,.5-1.86,2.47,2.47,0,0,0-.46-1.57,1.54,1.54,0,0,0-1.26-.57,1.73,1.73,0,0,0-1.35.58A2.16,2.16,0,0,0,194.71,100.2Z" fill="#1e1e1e"/>
      <path d="M203.59,103.42a1.8,1.8,0,0,1-.9.19c-1.05,0-1.57-.58-1.57-1.76V98.3h-1v-.82h1V96l1-.31v1.77h1.51v.82h-1.51v3.38a1.49,1.49,0,0,0,.2.87.83.83,0,0,0,.68.25,1,1,0,0,0,.63-.2Z" fill="#1e1e1e"/>
      <path d="M205.37,96a.59.59,0,0,1-.44-.18.57.57,0,0,1-.18-.44.61.61,0,0,1,.18-.45.59.59,0,0,1,.44-.18.6.6,0,0,1,.44.18.58.58,0,0,1,.19.45.58.58,0,0,1-.19.44A.6.6,0,0,1,205.37,96Zm.46,7.52h-1v-6h1Z" fill="#1e1e1e"/>
      <path d="M210.29,103.62a2.79,2.79,0,0,1-2.13-.84,3.1,3.1,0,0,1-.79-2.23,3.26,3.26,0,0,1,.83-2.36,3,3,0,0,1,2.23-.85,2.69,2.69,0,0,1,2.09.83,3.23,3.23,0,0,1,.76,2.29,3.19,3.19,0,0,1-.82,2.3A2.81,2.81,0,0,1,210.29,103.62Zm.07-5.47a1.84,1.84,0,0,0-1.47.63,2.59,2.59,0,0,0-.54,1.74,2.46,2.46,0,0,0,.55,1.68,1.85,1.85,0,0,0,1.46.61,1.75,1.75,0,0,0,1.43-.6,2.58,2.58,0,0,0,.5-1.72,2.62,2.62,0,0,0-.5-1.73A1.73,1.73,0,0,0,210.36,98.15Z" fill="#1e1e1e"/>
      <path d="M219.79,103.48h-1v-3.42c0-1.27-.46-1.91-1.39-1.91a1.54,1.54,0,0,0-1.2.54,2,2,0,0,0-.47,1.37v3.42h-1v-6h1v1h0a2.16,2.16,0,0,1,2-1.14,1.83,1.83,0,0,1,1.51.64,2.79,2.79,0,0,1,.52,1.83Z" fill="#1e1e1e"/>
    </g>
    <g>
      <path d="M311.67,63.88h-1.09l-.89-2.35h-3.56l-.84,2.35h-1.1l3.23-8.4h1Zm-2.3-3.24-1.32-3.58a2.44,2.44,0,0,1-.13-.56h0a3,3,0,0,1-.14.56l-1.31,3.58Z" fill="#1e1e1e"/>
      <path d="M317.9,63.88h-1v-1h0A2.2,2.2,0,0,1,314.85,64a2.27,2.27,0,0,1-1.81-.8,3.32,3.32,0,0,1-.67-2.2,3.59,3.59,0,0,1,.75-2.38,2.46,2.46,0,0,1,2-.9,1.93,1.93,0,0,1,1.8,1h0V55h1Zm-1-2.71v-.88a1.74,1.74,0,0,0-.48-1.24,1.64,1.64,0,0,0-1.22-.5,1.68,1.68,0,0,0-1.39.65,2.85,2.85,0,0,0-.5,1.78,2.53,2.53,0,0,0,.48,1.63,1.6,1.6,0,0,0,1.3.6,1.65,1.65,0,0,0,1.31-.58A2.16,2.16,0,0,0,316.94,61.17Z" fill="#1e1e1e"/>
      <path d="M325,63.88h-1v-1h0A2.21,2.21,0,0,1,321.92,64a2.25,2.25,0,0,1-1.81-.8,3.33,3.33,0,0,1-.68-2.2,3.59,3.59,0,0,1,.75-2.38,2.48,2.48,0,0,1,2-.9,2,2,0,0,1,1.8,1h0V55h1Zm-1-2.71v-.88a1.74,1.74,0,0,0-.48-1.24,1.62,1.62,0,0,0-1.22-.5,1.67,1.67,0,0,0-1.38.65,2.79,2.79,0,0,0-.5,1.78,2.53,2.53,0,0,0,.48,1.63,1.59,1.59,0,0,0,1.3.6,1.63,1.63,0,0,0,1.3-.58A2.11,2.11,0,0,0,324,61.17Z" fill="#1e1e1e"/>
      <path d="M292,77a1.82,1.82,0,0,1-.9.19c-1.05,0-1.57-.58-1.57-1.76V71.9h-1v-.82h1V69.62l1-.31v1.77H292v.82h-1.51v3.38a1.49,1.49,0,0,0,.2.87.83.83,0,0,0,.68.25,1,1,0,0,0,.63-.2Z" fill="#1e1e1e"/>
      <path d="M298.08,74.32h-4.24a2.19,2.19,0,0,0,.54,1.55,1.86,1.86,0,0,0,1.42.55,3,3,0,0,0,1.86-.67v.9a3.52,3.52,0,0,1-2.09.57,2.54,2.54,0,0,1-2-.81,3.34,3.34,0,0,1-.73-2.3,3.29,3.29,0,0,1,.8-2.29,2.56,2.56,0,0,1,2-.88,2.28,2.28,0,0,1,1.82.76,3.2,3.2,0,0,1,.65,2.12Zm-1-.81a2,2,0,0,0-.4-1.3,1.39,1.39,0,0,0-1.1-.46,1.52,1.52,0,0,0-1.15.49,2.16,2.16,0,0,0-.59,1.27Z" fill="#1e1e1e"/>
      <path d="M304.51,77.08h-1V73.66c0-1.27-.47-1.91-1.4-1.91a1.52,1.52,0,0,0-1.19.54,2,2,0,0,0-.47,1.37v3.42h-1v-6h1v1h0a2.17,2.17,0,0,1,2-1.14,1.83,1.83,0,0,1,1.51.64,2.86,2.86,0,0,1,.52,1.84Z" fill="#1e1e1e"/>
      <path d="M310.61,77.08h-1v-.93h0a2,2,0,0,1-1.85,1.07,2,2,0,0,1-1.4-.47,1.65,1.65,0,0,1-.51-1.26c0-1.12.66-1.77,2-2l1.8-.25q0-1.53-1.23-1.53a3,3,0,0,0-2,.74v-1a3.76,3.76,0,0,1,2-.56c1.41,0,2.11.75,2.11,2.24Zm-1-3-1.44.2a2.25,2.25,0,0,0-1,.33,1,1,0,0,0-.34.84.92.92,0,0,0,.31.72,1.25,1.25,0,0,0,.84.28,1.54,1.54,0,0,0,1.18-.51,1.76,1.76,0,0,0,.46-1.26Z" fill="#1e1e1e"/>
      <path d="M317.41,77.08h-1V73.66c0-1.27-.46-1.91-1.39-1.91a1.5,1.5,0,0,0-1.19.54,2,2,0,0,0-.47,1.37v3.42h-1v-6h1v1h0a2.16,2.16,0,0,1,2-1.14,1.81,1.81,0,0,1,1.5.64,2.8,2.8,0,0,1,.53,1.84Z" fill="#1e1e1e"/>
      <path d="M322,77a1.82,1.82,0,0,1-.9.19c-1.05,0-1.57-.58-1.57-1.76V71.9h-1v-.82h1V69.62l1-.31v1.77H322v.82h-1.51v3.38a1.49,1.49,0,0,0,.2.87.83.83,0,0,0,.68.25,1,1,0,0,0,.63-.2Z" fill="#1e1e1e"/>
      <path d="M322.92,76.87v-1a2.83,2.83,0,0,0,1.73.59c.84,0,1.26-.29,1.26-.85a.7.7,0,0,0-.11-.41,1,1,0,0,0-.29-.29,2.18,2.18,0,0,0-.43-.23l-.54-.22a5.79,5.79,0,0,1-.7-.32,1.74,1.74,0,0,1-.5-.36,1.29,1.29,0,0,1-.31-.46,1.57,1.57,0,0,1-.1-.6,1.55,1.55,0,0,1,.19-.75,1.7,1.7,0,0,1,.52-.55,2.64,2.64,0,0,1,.74-.33,3.35,3.35,0,0,1,.85-.11,3.41,3.41,0,0,1,1.39.27v1a2.78,2.78,0,0,0-1.52-.43,1.88,1.88,0,0,0-.49.06,1.06,1.06,0,0,0-.37.18.85.85,0,0,0-.24.26.68.68,0,0,0-.08.34.82.82,0,0,0,.08.4.94.94,0,0,0,.25.28,2.11,2.11,0,0,0,.4.22l.53.22a7.07,7.07,0,0,1,.72.31,2.45,2.45,0,0,1,.53.36,1.45,1.45,0,0,1,.35.47,1.54,1.54,0,0,1,.12.63,1.5,1.5,0,0,1-.2.77,1.7,1.7,0,0,1-.52.55,2.49,2.49,0,0,1-.76.32,3.71,3.71,0,0,1-.9.1A3.49,3.49,0,0,1,322.92,76.87Z" fill="#1e1e1e"/>
      <path d="M334.44,77a1.76,1.76,0,0,1-.89.19c-1.05,0-1.58-.58-1.58-1.76V71.9h-1v-.82h1V69.62l1-.31v1.77h1.51v.82h-1.51v3.38a1.41,1.41,0,0,0,.21.87.81.81,0,0,0,.68.25.94.94,0,0,0,.62-.2Z" fill="#1e1e1e"/>
      <path d="M338.24,77.22a2.79,2.79,0,0,1-2.13-.84,3.1,3.1,0,0,1-.79-2.23,3.26,3.26,0,0,1,.82-2.36,3,3,0,0,1,2.24-.85,2.69,2.69,0,0,1,2.09.83,3.27,3.27,0,0,1,.75,2.29,3.23,3.23,0,0,1-.81,2.3A2.81,2.81,0,0,1,338.24,77.22Zm.07-5.47a1.84,1.84,0,0,0-1.47.63,2.59,2.59,0,0,0-.54,1.74,2.41,2.41,0,0,0,.55,1.68,1.85,1.85,0,0,0,1.46.62,1.77,1.77,0,0,0,1.43-.61,2.63,2.63,0,0,0,.5-1.72,2.68,2.68,0,0,0-.5-1.73A1.74,1.74,0,0,0,338.31,71.75Z" fill="#1e1e1e"/>
      <path d="M288.78,85.26a1.18,1.18,0,0,0-.73-.2,1.25,1.25,0,0,0-1,.58,2.74,2.74,0,0,0-.41,1.58v3.06h-1v-6h1v1.24h0a2.17,2.17,0,0,1,.63-1,1.44,1.44,0,0,1,.94-.35,1.52,1.52,0,0,1,.58.08Z" fill="#1e1e1e"/>
      <path d="M294.64,87.52h-4.23a2.23,2.23,0,0,0,.53,1.55,1.88,1.88,0,0,0,1.42.54,3,3,0,0,0,1.87-.66v.9a3.53,3.53,0,0,1-2.1.57,2.53,2.53,0,0,1-2-.81,3.34,3.34,0,0,1-.73-2.3A3.29,3.29,0,0,1,290.2,85a2.58,2.58,0,0,1,2-.88,2.29,2.29,0,0,1,1.83.76,3.19,3.19,0,0,1,.64,2.12Zm-1-.81a2,2,0,0,0-.4-1.3,1.37,1.37,0,0,0-1.1-.46,1.54,1.54,0,0,0-1.16.49,2.21,2.21,0,0,0-.58,1.27Z" fill="#1e1e1e"/>
      <path d="M301.22,89.8q0,3.32-3.17,3.31a4.23,4.23,0,0,1-1.94-.42v-1a3.94,3.94,0,0,0,1.93.57c1.48,0,2.21-.79,2.21-2.36v-.66h0a2.42,2.42,0,0,1-3.86.35,3.16,3.16,0,0,1-.69-2.14,3.78,3.78,0,0,1,.74-2.44,2.46,2.46,0,0,1,2-.9,2,2,0,0,1,1.8,1h0v-.83h1Zm-1-2.23v-.88a1.73,1.73,0,0,0-.48-1.23,1.58,1.58,0,0,0-1.2-.51,1.68,1.68,0,0,0-1.4.65,2.91,2.91,0,0,0-.5,1.81,2.48,2.48,0,0,0,.48,1.6,1.56,1.56,0,0,0,1.28.6,1.69,1.69,0,0,0,1.32-.57A2.12,2.12,0,0,0,300.25,87.57Z" fill="#1e1e1e"/>
      <path d="M303.65,82.76a.6.6,0,0,1-.44-.18.57.57,0,0,1-.18-.44.61.61,0,0,1,.18-.45.6.6,0,0,1,.44-.18.61.61,0,0,1,.45.18.62.62,0,0,1,0,.89A.61.61,0,0,1,303.65,82.76Zm.47,7.52h-1v-6h1Z" fill="#1e1e1e"/>
      <path d="M305.7,90.07V89a2.84,2.84,0,0,0,1.73.58c.85,0,1.27-.28,1.27-.84a.78.78,0,0,0-.11-.41,1,1,0,0,0-.29-.29,1.83,1.83,0,0,0-.44-.23l-.53-.22a5.16,5.16,0,0,1-.7-.32,2.21,2.21,0,0,1-.51-.36,1.41,1.41,0,0,1-.3-.46,1.57,1.57,0,0,1-.1-.6,1.44,1.44,0,0,1,.19-.75,1.78,1.78,0,0,1,.51-.55,2.77,2.77,0,0,1,.74-.33,3.59,3.59,0,0,1,2.25.16v1a2.79,2.79,0,0,0-1.53-.43,1.75,1.75,0,0,0-.48.06,1,1,0,0,0-.37.18.66.66,0,0,0-.24.26.69.69,0,0,0-.09.34.82.82,0,0,0,.09.4.78.78,0,0,0,.24.28,2.48,2.48,0,0,0,.4.22l.54.22a6.85,6.85,0,0,1,.71.31,2.82,2.82,0,0,1,.54.36,1.41,1.41,0,0,1,.34.47,1.54,1.54,0,0,1,.12.63,1.49,1.49,0,0,1-.19.77A1.74,1.74,0,0,1,309,90a2.54,2.54,0,0,1-.75.32,3.82,3.82,0,0,1-.9.1A3.54,3.54,0,0,1,305.7,90.07Z" fill="#1e1e1e"/>
      <path d="M313.94,90.22a1.76,1.76,0,0,1-.89.19c-1.05,0-1.58-.58-1.58-1.76V85.1h-1v-.82h1V82.82l1-.31v1.77h1.51v.82h-1.51v3.38a1.41,1.41,0,0,0,.21.87.81.81,0,0,0,.68.25.94.94,0,0,0,.62-.2Z" fill="#1e1e1e"/>
      <path d="M318.35,85.26a1.14,1.14,0,0,0-.72-.2,1.25,1.25,0,0,0-1,.58,2.67,2.67,0,0,0-.41,1.58v3.06h-1v-6h1v1.24h0a2.17,2.17,0,0,1,.63-1,1.61,1.61,0,0,1,1.51-.27Z" fill="#1e1e1e"/>
      <path d="M323.69,90.28h-1v-.93h0a2,2,0,0,1-1.85,1.07,2,2,0,0,1-1.4-.47,1.65,1.65,0,0,1-.51-1.26c0-1.12.66-1.77,2-2l1.8-.25q0-1.53-1.23-1.53a3,3,0,0,0-2,.74v-1a3.76,3.76,0,0,1,2-.56c1.41,0,2.11.75,2.11,2.24Zm-1-3-1.45.2a2.25,2.25,0,0,0-1,.33,1,1,0,0,0-.34.84.92.92,0,0,0,.31.72,1.24,1.24,0,0,0,.83.27,1.54,1.54,0,0,0,1.19-.5,1.76,1.76,0,0,0,.46-1.26Z" fill="#1e1e1e"/>
      <path d="M328.29,90.22a1.82,1.82,0,0,1-.9.19c-1.05,0-1.58-.58-1.58-1.76V85.1h-1v-.82h1V82.82l1-.31v1.77h1.52v.82h-1.52v3.38a1.41,1.41,0,0,0,.21.87.82.82,0,0,0,.68.25,1,1,0,0,0,.63-.2Z" fill="#1e1e1e"/>
      <path d="M330.06,82.76a.6.6,0,0,1-.44-.18.57.57,0,0,1-.18-.44.61.61,0,0,1,.18-.45.6.6,0,0,1,.44-.18.62.62,0,0,1,.63.63.6.6,0,0,1-.18.44A.61.61,0,0,1,330.06,82.76Zm.47,7.52h-1v-6h1Z" fill="#1e1e1e"/>
      <path d="M335,90.42a2.79,2.79,0,0,1-2.12-.84,3.1,3.1,0,0,1-.79-2.23,3.26,3.26,0,0,1,.82-2.36,3,3,0,0,1,2.23-.85,2.7,2.7,0,0,1,2.1.83,3.27,3.27,0,0,1,.75,2.29,3.23,3.23,0,0,1-.81,2.3A2.83,2.83,0,0,1,335,90.42Zm.07-5.47a1.83,1.83,0,0,0-1.46.63,2.59,2.59,0,0,0-.54,1.74,2.46,2.46,0,0,0,.54,1.68,1.86,1.86,0,0,0,1.46.61,1.79,1.79,0,0,0,1.44-.6,2.63,2.63,0,0,0,.5-1.72,2.68,2.68,0,0,0-.5-1.73A1.76,1.76,0,0,0,335.05,85Z" fill="#1e1e1e"/>
      <path d="M344.49,90.28h-1V86.86c0-1.27-.47-1.91-1.4-1.91a1.5,1.5,0,0,0-1.19.54,2,2,0,0,0-.47,1.37v3.42h-1v-6h1v1h0a2.16,2.16,0,0,1,2-1.14,1.83,1.83,0,0,1,1.51.64,2.85,2.85,0,0,1,.52,1.83Z" fill="#1e1e1e"/>
    </g>
  </g>
</svg>
