<svg xmlns="http://www.w3.org/2000/svg" xmlns:xlink="http://www.w3.org/1999/xlink" viewBox="0 0 315.58 333.5">
  <defs>
    <linearGradient id="linear-gradient" x1="12.91" y1="9.53" x2="12.91" y2="14.03" gradientUnits="userSpaceOnUse">
      <stop offset="0" stop-color="#005ba1"/>
      <stop offset="0.26" stop-color="#00589d"/>
      <stop offset="0.53" stop-color="#004f90"/>
      <stop offset="0.8" stop-color="#003f7c"/>
      <stop offset="1" stop-color="#003067"/>
    </linearGradient>
    <linearGradient id="linear-gradient-2" x1="12.91" y1="5.02" x2="12.91" y2="8.17" xlink:href="#linear-gradient"/>
    <linearGradient id="linear-gradient-3" x1="20.86" y1="3.07" x2="25" y2="3.07" xlink:href="#linear-gradient"/>
    <linearGradient id="linear-gradient-4" x1="20.86" y1="17.41" x2="25" y2="17.41" xlink:href="#linear-gradient"/>
    <linearGradient id="linear-gradient-5" x1="1.56" y1="3.07" x2="5.71" y2="3.07" xlink:href="#linear-gradient"/>
    <linearGradient id="linear-gradient-6" x1="1.11" y1="17.41" x2="5.26" y2="17.41" xlink:href="#linear-gradient"/>
    <linearGradient id="linear-gradient-7" x1="130.73" y1="508.89" x2="130.73" y2="474.5" gradientTransform="matrix(1, 0, 0, -1, 0, 510.49)" gradientUnits="userSpaceOnUse">
      <stop offset="0.18" stop-color="#5ea0ef"/>
      <stop offset="1" stop-color="#0078d4"/>
    </linearGradient>
    <linearGradient id="linear-gradient-8" x1="199.27" y1="510.49" x2="199.27" y2="484.99" gradientTransform="matrix(1, 0, 0, -1, 0, 510.49)" gradientUnits="userSpaceOnUse">
      <stop offset="0" stop-color="#b3b2b3"/>
      <stop offset="0.38" stop-color="#afaeaf"/>
      <stop offset="0.76" stop-color="#a2a2a2"/>
      <stop offset="1" stop-color="#979797"/>
    </linearGradient>
    <linearGradient id="linear-gradient-9" x1="191.21" y1="505.99" x2="191.21" y2="480.49" xlink:href="#linear-gradient-8"/>
    <linearGradient id="linear-gradient-10" x1="162.86" y1="399.17" x2="162.86" y2="433.94" gradientTransform="matrix(1, 0, 0, -1, 0, 510.49)" gradientUnits="userSpaceOnUse">
      <stop offset="0" stop-color="#5e9624"/>
      <stop offset="0.02" stop-color="#5f9724"/>
      <stop offset="1" stop-color="#76bc2d"/>
    </linearGradient>
    <linearGradient id="linear-gradient-11" x1="162.86" y1="432.04" x2="162.86" y2="457.2" gradientTransform="matrix(1, 0, 0, -1, 0, 510.49)" gradientUnits="userSpaceOnUse">
      <stop offset="0" stop-color="#0078d4"/>
      <stop offset="0.82" stop-color="#5ea0ef"/>
    </linearGradient>
    <linearGradient id="linear-gradient-12" x1="56.98" y1="326.25" x2="56.98" y2="302.37" gradientTransform="matrix(1, 0, 0, -1, 0, 510.49)" gradientUnits="userSpaceOnUse">
      <stop offset="0" stop-color="#5ea0ef"/>
      <stop offset="0.18" stop-color="#559cec"/>
      <stop offset="0.47" stop-color="#3c91e5"/>
      <stop offset="0.84" stop-color="#1380da"/>
      <stop offset="1" stop-color="#0078d4"/>
    </linearGradient>
    <linearGradient id="linear-gradient-13" x1="52.99" y1="302.12" x2="52.99" y2="313.69" gradientTransform="matrix(1, 0, 0, -1, 0, 510.49)" gradientUnits="userSpaceOnUse">
      <stop offset="0" stop-color="#198ab3"/>
      <stop offset="0.14" stop-color="#22a5cb"/>
      <stop offset="0.3" stop-color="#29bade"/>
      <stop offset="0.47" stop-color="#2ec9eb"/>
      <stop offset="0.68" stop-color="#31d1f3"/>
      <stop offset="1" stop-color="#32d4f5"/>
    </linearGradient>
    <symbol id="New_Symbol_5" data-name="New Symbol 5" viewBox="0 0 25.89 20.48">
      <g>
        <path d="M21.68,8.14,18.42,5H7.35L4.1,8.14h.16a.88.88,0,0,0-.16.51V13.1a.87.87,0,0,0,.84.9H20.83a.87.87,0,0,0,.85-.9V8.65a.88.88,0,0,0-.16-.51Z" fill="#fff" stroke="#fff" stroke-linejoin="round" stroke-width="2" fill-rule="evenodd"/>
        <circle cx="10.86" cy="11.74" r="0.9" fill="none"/>
        <path d="M20.85,9.53H5a.76.76,0,0,0-.84.64v3.22A.77.77,0,0,0,5,14H20.85a.76.76,0,0,0,.84-.64V10.17C21.69,9.81,21.32,9.53,20.85,9.53Zm-14,3.15a.9.9,0,1,1,.9-.9A.9.9,0,0,1,6.82,12.68Zm4.06,0a.9.9,0,1,1,.9-.9A.9.9,0,0,1,10.88,12.68Zm4,0a.9.9,0,1,1,.91-.9A.9.9,0,0,1,14.93,12.68Zm4.06,0a.9.9,0,1,1,.9-.9A.9.9,0,0,1,19,12.68Z" fill-rule="evenodd" fill="url(#linear-gradient)"/>
        <polygon points="18.44 5.02 7.37 5.02 4.12 8.17 21.7 8.17 18.44 5.02" fill-rule="evenodd" fill="url(#linear-gradient-2)"/>
      </g>
      <g id="lowPriority40x40">
        <polygon points="24.09 2.43 24.09 4.98 24.89 4.19 24.89 1 21.7 1 20.9 1.8 23.45 1.8 20.74 4.5 21.38 5.14 24.09 2.43" fill="none" stroke="#fff" stroke-miterlimit="10" stroke-width="2"/>
      </g>
      <g id="lowPriority40x40-2" data-name="lowPriority40x40">
        <polygon points="24.09 18.05 24.09 15.49 24.89 16.29 24.89 19.48 21.7 19.48 20.9 18.68 23.45 18.68 20.74 15.97 21.38 15.34 24.09 18.05" fill="none" stroke="#fff" stroke-miterlimit="10" stroke-width="2"/>
      </g>
      <g id="lowPriority40x40-3" data-name="lowPriority40x40">
        <polygon points="2.25 2.43 2.25 4.98 1.45 4.19 1.45 1 4.64 1 5.43 1.8 2.88 1.8 5.59 4.5 4.96 5.14 2.25 2.43" fill="none" stroke="#fff" stroke-miterlimit="10" stroke-width="2"/>
      </g>
      <g id="lowPriority40x40-4" data-name="lowPriority40x40">
        <polygon points="1.8 18.05 1.8 15.49 1 16.29 1 19.48 4.19 19.48 4.98 18.68 2.43 18.68 5.14 15.97 4.5 15.34 1.8 18.05" fill="none" stroke="#fff" stroke-miterlimit="10" stroke-width="2"/>
      </g>
      <path d="M6.86,12.72a.9.9,0,1,1,.9-.9A.9.9,0,0,1,6.86,12.72Zm4.06,0a.9.9,0,1,1,.9-.9A.91.91,0,0,1,10.92,12.72Zm4.05,0a.9.9,0,1,1,.9-.9A.9.9,0,0,1,15,12.72Zm4.06,0a.9.9,0,1,1,.9-.9A.9.9,0,0,1,19,12.72Z" fill="none"/>
      <circle cx="10.92" cy="11.82" r="0.9" fill="none"/>
      <g id="lowPriority40x40-5" data-name="lowPriority40x40">
        <polygon points="24.2 2.43 24.2 4.98 25 4.19 25 1 21.81 1 21.02 1.8 23.57 1.8 20.86 4.5 21.5 5.14 24.2 2.43" fill="url(#linear-gradient-3)"/>
      </g>
      <g id="lowPriority40x40-6" data-name="lowPriority40x40">
        <polygon points="24.2 18.05 24.2 15.49 25 16.29 25 19.48 21.81 19.48 21.02 18.68 23.57 18.68 20.86 15.97 21.5 15.34 24.2 18.05" fill="url(#linear-gradient-4)"/>
      </g>
      <g id="lowPriority40x40-7" data-name="lowPriority40x40">
        <polygon points="2.36 2.43 2.36 4.98 1.56 4.19 1.56 1 4.75 1 5.55 1.8 3 1.8 5.71 4.5 5.07 5.14 2.36 2.43" fill="url(#linear-gradient-5)"/>
      </g>
      <g id="lowPriority40x40-8" data-name="lowPriority40x40">
        <polygon points="1.91 18.05 1.91 15.49 1.11 16.29 1.11 19.48 4.3 19.48 5.1 18.68 2.55 18.68 5.25 15.97 4.62 15.34 1.91 18.05" fill="url(#linear-gradient-6)"/>
      </g>
    </symbol>
  </defs>
  <g id="Shapes">
    <rect width="315.58" height="333.5" fill="#fff"/>
    <g>
      <rect x="52.94" y="93.25" width="219.84" height="60" fill="#fff"/>
      <rect x="52.94" y="93.25" width="219.84" height="60" fill="#3c3c41" opacity="0.15"/>
    </g>
    <path d="M40.89,102.25l2-6.09c.11-.31.21-.56.31-.81a4.11,4.11,0,0,0,.25-.72c.1-.25.15-.45.26-.71a3.69,3.69,0,0,0,.2-.81V87l4.57-2.28V80.93l5.32-2.68,5.33,2.68v7.62l.31,1.21c.1.36.25.71.35,1.07s.25.71.41,1.06.3.77.45,1.22l3,9.14ZM58.65,91.79l-4.06,2v2.69L49.27,99.2l-4.92-2.43-1.32,4H51.4l8.78-4.36ZM45.46,95.55l3,1.52V90.12l-3-1.52ZM49.27,86l-2.79,1.42,2.79,1.37,2.79-1.37Zm.76-3.5v2.18l3,1.52V84Zm0,14.56,3-1.52v-7l-3,1.52Zm3.8-17.15L51,81.34l2.79,1.37,2.79-1.37Zm3.81,2.59-3,1.52v8.12l3-1.52Zm4,18.21-1-2.94-5.88,2.94Z" fill="#0f467c"/>
    <path d="M147.94,22.7a7.85,7.85,0,0,0-6.72-7.6,9.88,9.88,0,0,0-10.06-9.56,10.11,10.11,0,0,0-9.56,6.69,9.31,9.31,0,0,0-8.08,9.09,9.57,9.57,0,0,0,9.71,9.22h17A7.94,7.94,0,0,0,147.94,22.7Z" fill="url(#linear-gradient-7)"/>
    <g>
      <g>
        <path d="M207.55,24.63a.92.92,0,0,1-1,.87H192a.93.93,0,0,1-1-.87V.87A.93.93,0,0,1,192,0H206.6a.92.92,0,0,1,1,.87Z" fill="url(#linear-gradient-8)"/>
        <path d="M193.43,10.9a1.91,1.91,0,0,1,1.77-2h8.27a1.91,1.91,0,0,1,1.77,2h0A1.9,1.9,0,0,1,203.53,13h-8.3a1.89,1.89,0,0,1-1.76-2Z" fill="#003067"/>
        <path d="M193.43,5a1.9,1.9,0,0,1,1.77-2h8.27a1.9,1.9,0,0,1,1.77,2h0a1.92,1.92,0,0,1-1.77,2h-8.24a1.91,1.91,0,0,1-1.76-2Z" fill="#003067"/>
        <circle cx="195.75" cy="5" r="1.33" fill="#50e6ff"/>
        <circle cx="195.75" cy="10.9" r="1.33" fill="#50e6ff"/>
      </g>
      <g>
        <path d="M199.49,29.13a.92.92,0,0,1-1,.87H183.89a.91.91,0,0,1-.95-.87V5.37a.91.91,0,0,1,.95-.87h14.65a.92.92,0,0,1,1,.87Z" fill="url(#linear-gradient-9)"/>
        <path d="M185.37,15.4a1.91,1.91,0,0,1,1.77-2h8.27a1.91,1.91,0,0,1,1.77,2h0a1.9,1.9,0,0,1-1.7,2.07h-8.3a1.9,1.9,0,0,1-1.77-2Z" fill="#003067"/>
        <path d="M185.37,9.5a1.9,1.9,0,0,1,1.77-2h8.27a1.9,1.9,0,0,1,1.77,2h0a1.92,1.92,0,0,1-1.77,2h-8.23a1.91,1.91,0,0,1-1.77-2Z" fill="#003067"/>
        <circle cx="187.69" cy="9.5" r="1.33" fill="#50e6ff"/>
        <circle cx="187.69" cy="15.4" r="1.33" fill="#50e6ff"/>
      </g>
    </g>
    <path d="M133.44,33.25v6.64a5.57,5.57,0,0,0,1.41,3.42l14.57,14.57" fill="none" stroke="#4f4f4f" stroke-miterlimit="10" stroke-width="0.75"/>
    <path d="M192.44,33.25v6.64A5.58,5.58,0,0,1,191,43.31L176.45,57.88" fill="none" stroke="#4f4f4f" stroke-miterlimit="10" stroke-width="0.75"/>
    <g>
      <path d="M148.16,92.53l14-14a1,1,0,0,1,1.41,0l0,0,14,14a1,1,0,0,1,0,1.41l0,0-14,14a1,1,0,0,1-1.4,0l-14-14a1,1,0,0,1,0-1.41Z" fill="url(#linear-gradient-10)"/>
      <path d="M166.52,84.91,163,81.4a.2.2,0,0,0-.27,0l-3.53,3.51a.17.17,0,0,0,0,.24.16.16,0,0,0,.17.06h2.07a.19.19,0,0,1,.18.19v3.33a.19.19,0,0,0,.19.18H164a.18.18,0,0,0,.18-.18V85.4a.19.19,0,0,1,.18-.19h2.07a.16.16,0,0,0,.2-.12A.16.16,0,0,0,166.52,84.91Z" fill="#b4ec36"/>
      <path d="M154.53,89.26,151,92.81a.18.18,0,0,0,0,.25l3.5,3.52a.18.18,0,0,0,.25,0,.2.2,0,0,0,.06-.14v-2a.18.18,0,0,1,.19-.19h3.33a.17.17,0,0,0,.17-.16s0,0,0,0v-2.2a.16.16,0,0,0-.05-.23l-.06,0h-3.33a.17.17,0,0,1-.19-.15v-2a.19.19,0,0,0-.11-.25A.18.18,0,0,0,154.53,89.26Z" fill="#b4ec36"/>
      <path d="M171.32,96.58l3.55-3.53a.18.18,0,0,0,0-.25l-3.55-3.54a.19.19,0,0,0-.26,0,.21.21,0,0,0,0,.11v2.08a.17.17,0,0,1-.16.17h-3.35a.16.16,0,0,0-.17.16V94a.17.17,0,0,0,.15.18h3.35a.18.18,0,0,1,.18.19v2.06a.2.2,0,0,0,.21.16A.15.15,0,0,0,171.32,96.58Z" fill="#b4ec36"/>
      <path d="M167.51,93.25a4.65,4.65,0,1,0-5.9,4.44v1.59a2.86,2.86,0,1,0,2.61,0V97.61A4.63,4.63,0,0,0,167.51,93.25Z" fill="#fff"/>
      <circle id="e99c3387-15c3-4f28-bd4b-cb209b430e06" cx="162.87" cy="93.23" r="2.7" fill="#5ea0ef"/>
    </g>
    <g>
      <path d="M180.59,70.56a8,8,0,0,0-6.91-7.67,10.05,10.05,0,0,0-10.35-9.59A10.28,10.28,0,0,0,153.48,60a9.49,9.49,0,0,0-8.36,9.14,9.65,9.65,0,0,0,10,9.28h17a3.09,3.09,0,0,0,.43,0A8.07,8.07,0,0,0,180.59,70.56Z" fill="url(#linear-gradient-11)"/>
      <path d="M173.28,72.63a.83.83,0,0,0-.83-.81H153.26a.83.83,0,0,0-.83.81v9.85a.83.83,0,0,0,.83.81h19.19a.83.83,0,0,0,.83-.81Z" fill="#821010"/>
      <rect x="153.59" y="72.96" width="5.66" height="2.5" fill="#e62323"/>
      <rect x="160.1" y="72.96" width="5.66" height="2.5" fill="#ff7381"/>
      <rect x="166.6" y="72.96" width="5.66" height="2.5" fill="#e62323"/>
      <rect x="153.59" y="76.31" width="2.35" height="2.5" fill="#e62323"/>
      <rect x="169.91" y="76.31" width="2.35" height="2.5" fill="#ff7381"/>
      <rect x="156.79" y="76.31" width="5.66" height="2.5" fill="#ff7381"/>
      <rect x="163.31" y="76.31" width="5.66" height="2.5" fill="#e62323"/>
      <rect x="153.59" y="79.66" width="5.66" height="2.5" fill="#e62323"/>
      <rect x="160.1" y="79.66" width="5.66" height="2.5" fill="#ff7381"/>
      <rect x="166.6" y="79.66" width="5.66" height="2.5" fill="#e62323"/>
    </g>
    <g>
      <rect x="51.83" y="197.45" width="221.11" height="135.79" fill="#fff"/>
      <rect x="51.83" y="197.45" width="221.11" height="135.79" fill="#0072c6" opacity="0.05"/>
      <rect x="51.83" y="197.45" width="221.11" height="135.79" fill="none" stroke="#0072c6" stroke-miterlimit="10" stroke-width="0.5" opacity="0.6"/>
    </g>
    <g id="b1186d34-5ca3-4e43-992d-40ecef5e891b">
      <g>
        <path d="M63.2,184.25H50.78A.81.81,0,0,0,50,185v17.69a15,15,0,0,1,2-1.42h2.35l1.3,1.73v2.62L54,206.86l-2.28-.29L50,204.93v2.39a.82.82,0,0,0,.81.8H63.2a.79.79,0,0,0,.79-.8V185A.79.79,0,0,0,63.2,184.25Z" fill="url(#linear-gradient-12)"/>
        <path id="af47f827-8b1b-4acd-8974-8eafe35490c9" d="M51.83,186.73h2.28a.2.2,0,0,1,.2.19h0v3a.2.2,0,0,1-.2.2H51.83a.2.2,0,0,1-.2-.2h0v-3a.2.2,0,0,1,.2-.19Zm4,0h2.28a.2.2,0,0,1,.2.19h0v3a.2.2,0,0,1-.2.2H55.84a.2.2,0,0,1-.2-.2h0v-3a.2.2,0,0,1,.2-.19Zm4,0h2.28a.2.2,0,0,1,.2.19h0v3a.2.2,0,0,1-.2.2H59.87a.2.2,0,0,1-.2-.2h0v-3a.2.2,0,0,1,.2-.19Zm-8,5.33h2.28a.2.2,0,0,1,.2.19h0v3a.2.2,0,0,1-.2.2H51.83a.2.2,0,0,1-.2-.2h0v-2.95a.19.19,0,0,1,.17-.22Zm4,0h2.28a.2.2,0,0,1,.2.19h0v3a.2.2,0,0,1-.2.2H55.84a.2.2,0,0,1-.2-.2h0v-2.95a.19.19,0,0,1,.17-.22Zm4,0h2.28a.2.2,0,0,1,.2.19h0v3a.2.2,0,0,1-.2.2H59.87a.2.2,0,0,1-.2-.2h0v-2.95a.19.19,0,0,1,.17-.22Zm-8,5.38h2.28a.2.2,0,0,1,.2.2h0v2.92a.2.2,0,0,1-.2.2H51.83a.2.2,0,0,1-.2-.2v-2.92A.2.2,0,0,1,51.83,197.44Zm4,0h2.28a.2.2,0,0,1,.2.2h0v2.92a.2.2,0,0,1-.2.2H55.84a.2.2,0,0,1-.2-.2h0v-2.92A.2.2,0,0,1,55.84,197.44Zm0,5.36h2.28a.2.2,0,0,1,.2.2h0v4.37a.19.19,0,0,1-.2.19H55.84a.19.19,0,0,1-.2-.19V203a.2.2,0,0,1,.2-.2Zm4-5.36h2.28a.2.2,0,0,1,.2.2h0v2.92a.2.2,0,0,1-.2.2H59.87a.2.2,0,0,1-.2-.2h0v-2.92A.2.2,0,0,1,59.87,197.44Z" fill="#f2f2f2"/>
        <path d="M53,202a1.86,1.86,0,0,0-1.76,1.42H44.88a4.06,4.06,0,0,0-.11.92v.08h6.49A1.83,1.83,0,1,0,53,202Z" fill="#50e6ff"/>
        <path d="M58,201.21a4.62,4.62,0,0,0-4.82-4.41,4.73,4.73,0,0,0-4.53,3.1,4.47,4.47,0,0,0-3.6,2.83h5.86a2.42,2.42,0,1,1,0,2.08h-6a4.54,4.54,0,0,0,4.51,3.43h8a3.53,3.53,0,0,0,.55-7Z" fill="url(#linear-gradient-13)"/>
        <path d="M53,202a1.86,1.86,0,0,0-1.76,1.42H44.88a3.74,3.74,0,0,1-.66-.09,3.21,3.21,0,0,1,.35-6.35h.31l.1-.28a3.64,3.64,0,0,1,3.49-2.43,3.75,3.75,0,0,1,3.23,1.8,4.28,4.28,0,0,1,1.07-.12,4.71,4.71,0,0,0-4.26-2.68A4.65,4.65,0,0,0,44.13,196a4.17,4.17,0,0,0-.32,8.17h0a3,3,0,0,0,1,.17h6.42A1.83,1.83,0,1,0,53,202Z" fill="#50e6ff"/>
      </g>
    </g>
    <g>
      <g>
        <rect x="64.74" y="221.67" width="35" height="30" fill="#fff"/>
        <rect x="64.74" y="221.67" width="35" height="30" fill="#3c3c41" opacity="0.02"/>
        <rect x="64.74" y="221.67" width="35" height="30" fill="none" stroke="#75757a" stroke-miterlimit="10" stroke-width="0.5" opacity="0.5"/>
      </g>
      <use width="25.89" height="20.48" transform="translate(69.68 226.43)" xlink:href="#New_Symbol_5"/>
    </g>
    <g>
      <g>
        <rect x="226.09" y="221.67" width="35" height="30" fill="#fff"/>
        <rect x="226.09" y="221.67" width="35" height="30" fill="#3c3c41" opacity="0.02"/>
        <rect x="226.09" y="221.67" width="35" height="30" fill="none" stroke="#75757a" stroke-miterlimit="10" stroke-width="0.5" opacity="0.5"/>
      </g>
      <use width="25.89" height="20.48" transform="translate(231.03 226.43)" xlink:href="#New_Symbol_5"/>
    </g>
    <path d="M152.94,102.75H84.44a2,2,0,0,0-2,2v12.5" fill="none" stroke="#4f4f4f" stroke-miterlimit="10" stroke-width="0.75"/>
    <path d="M173.94,102.75h68.5a2,2,0,0,1,2,2v12.5" fill="none" stroke="#4f4f4f" stroke-miterlimit="10" stroke-width="0.75"/>
    <g>
      <line x1="80.63" y1="144.6" x2="80.63" y2="221.46" fill="none" stroke="#767676" stroke-linecap="round" stroke-linejoin="round" stroke-width="0.5"/>
      <path d="M239,145.25,86.68,208.36a4.87,4.87,0,0,0-2.77,4.15v9" fill="none" stroke="#767676" stroke-linecap="round" stroke-linejoin="round" stroke-width="0.5"/>
    </g>
    <g>
      <line x1="245.22" y1="144.6" x2="245.22" y2="221.46" fill="none" stroke="#767676" stroke-linecap="round" stroke-linejoin="round" stroke-width="0.5"/>
      <path d="M86.85,145.25l152.31,63.11a4.88,4.88,0,0,1,2.78,4.15v9" fill="none" stroke="#767676" stroke-linecap="round" stroke-linejoin="round" stroke-width="0.5"/>
    </g>
    <g>
      <g>
        <rect x="64.74" y="114.6" width="35" height="30" fill="#fff"/>
        <rect x="64.74" y="114.6" width="35" height="30" fill="#3c3c41" opacity="0.02"/>
        <rect x="64.74" y="114.6" width="35" height="30" fill="none" stroke="#75757a" stroke-miterlimit="10" stroke-width="0.5" opacity="0.5"/>
      </g>
      <use width="25.89" height="20.48" transform="translate(69.68 119.36)" xlink:href="#New_Symbol_5"/>
    </g>
    <g>
      <g>
        <rect x="226.09" y="114.6" width="35" height="30" fill="#fff"/>
        <rect x="226.09" y="114.6" width="35" height="30" fill="#3c3c41" opacity="0.02"/>
        <rect x="226.09" y="114.6" width="35" height="30" fill="none" stroke="#75757a" stroke-miterlimit="10" stroke-width="0.5" opacity="0.5"/>
      </g>
      <use width="25.89" height="20.48" transform="translate(231.03 119.36)" xlink:href="#New_Symbol_5"/>
    </g>
    <g>
      <line x1="102.44" y1="243.84" x2="223.44" y2="243.84" fill="none" stroke="#231f20" stroke-width="4"/>
      <line x1="102.44" y1="243.84" x2="223.44" y2="243.84" fill="none" stroke="#fff" stroke-width="2"/>
    </g>
    <g>
      <line x1="102.44" y1="226.45" x2="223.44" y2="226.45" fill="none" stroke="#231f20" stroke-width="4"/>
      <line x1="102.44" y1="226.45" x2="223.44" y2="226.45" fill="none" stroke="#fff" stroke-width="2"/>
    </g>
    <path d="M82.24,268.43v28.38a2,2,0,0,0,2,2h60.88" fill="none" stroke="#767676" stroke-linecap="round" stroke-linejoin="round" stroke-width="0.5"/>
    <path d="M243.59,268.43v28.38a2,2,0,0,1-2,2H180.87" fill="none" stroke="#767676" stroke-linecap="round" stroke-linejoin="round" stroke-width="0.5"/>
    <g>
      <g>
        <rect x="145.94" y="282.31" width="35" height="30" fill="#fff"/>
        <rect x="145.94" y="282.31" width="35" height="30" fill="#3c3c41" opacity="0.02"/>
        <rect x="145.94" y="282.31" width="35" height="30" fill="none" stroke="#75757a" stroke-miterlimit="10" stroke-width="0.5" opacity="0.5"/>
      </g>
      <use width="25.89" height="20.48" transform="translate(150.88 287.07)" xlink:href="#New_Symbol_5"/>
    </g>
  </g>
  <g id="Text">
    <g>
      <path d="M12.47,88.91v-8.4h3q4.49,0,4.48,4.1a4.14,4.14,0,0,1-1.22,3.13,4.52,4.52,0,0,1-3.26,1.17Zm1.89-6.86v5.33h.94a2.55,2.55,0,0,0,1.93-.74,2.82,2.82,0,0,0,.7-2,2.56,2.56,0,0,0-.7-1.89,2.64,2.64,0,0,0-2-.69Z" fill="#231f20"/>
      <path d="M26.12,88.91H24.37v-.86h0a2,2,0,0,1-1.79,1,1.86,1.86,0,0,1-1.37-.5,1.75,1.75,0,0,1-.5-1.32c0-1.16.69-1.83,2.06-2L24.38,85c0-.66-.35-1-1.06-1a3.59,3.59,0,0,0-2,.64v-1.4a4.67,4.67,0,0,1,1.06-.35,5.56,5.56,0,0,1,1.22-.15,2.26,2.26,0,0,1,2.56,2.56Zm-1.74-2.43v-.41l-1.09.14c-.6.08-.9.35-.9.82a.67.67,0,0,0,.22.52.89.89,0,0,0,.6.2,1.11,1.11,0,0,0,.85-.36A1.35,1.35,0,0,0,24.38,86.48Z" fill="#231f20"/>
      <path d="M31.22,88.84a2.7,2.7,0,0,1-1.24.22,1.76,1.76,0,0,1-2-2V84.28h-1V82.91h1V81.62l1.85-.53v1.82h1.35v1.37H29.87V86.7c0,.63.25.94.74.94a1.2,1.2,0,0,0,.61-.17Z" fill="#231f20"/>
      <path d="M37.25,88.91H35.5v-.86h0a2,2,0,0,1-1.79,1,1.9,1.9,0,0,1-1.38-.5,1.79,1.79,0,0,1-.5-1.32q0-1.74,2.07-2L35.51,85c0-.66-.36-1-1.07-1a3.64,3.64,0,0,0-2,.64v-1.4a4.85,4.85,0,0,1,1.06-.35,5.7,5.7,0,0,1,1.22-.15,2.26,2.26,0,0,1,2.57,2.56Zm-1.74-2.43v-.41l-1.09.14c-.6.08-.9.35-.9.82a.67.67,0,0,0,.22.52.84.84,0,0,0,.59.2,1.1,1.1,0,0,0,.85-.36A1.31,1.31,0,0,0,35.51,86.48Z" fill="#231f20"/>
      <path d="M7.86,101.9a3.69,3.69,0,0,1-1.81.36,3.06,3.06,0,0,1-2.24-.84A2.89,2.89,0,0,1,3,99.26a3.19,3.19,0,0,1,.91-2.41A3.38,3.38,0,0,1,6.32,96a3.14,3.14,0,0,1,1.54.28v1.57a2.12,2.12,0,0,0-1.29-.44,1.71,1.71,0,0,0-1.27.47,2,2,0,0,0,0,2.54,1.66,1.66,0,0,0,1.23.45,2.42,2.42,0,0,0,1.35-.43Z" fill="#231f20"/>
      <path d="M14.46,99.64H10.55c.06.87.61,1.31,1.65,1.31a3.24,3.24,0,0,0,1.74-.47v1.33a4.57,4.57,0,0,1-2.17.45,3,3,0,0,1-2.25-.81,3,3,0,0,1-.8-2.24,3.2,3.2,0,0,1,.86-2.37A2.9,2.9,0,0,1,11.72,96a2.63,2.63,0,0,1,2,.78,3,3,0,0,1,.71,2.11ZM12.75,98.5q0-1.29-1.05-1.29a1,1,0,0,0-.77.37,1.71,1.71,0,0,0-.39.92Z" fill="#231f20"/>
      <path d="M21.36,102.11H19.51V98.78c0-.93-.33-1.4-1-1.4a1,1,0,0,0-.79.37,1.4,1.4,0,0,0-.31.94v3.42H15.57v-6h1.85v1h0A2.11,2.11,0,0,1,19.37,96c1.33,0,2,.82,2,2.47Z" fill="#231f20"/>
      <path d="M26.45,102a2.62,2.62,0,0,1-1.23.22,1.76,1.76,0,0,1-2-2V97.48h-1V96.11h1V94.82l1.84-.53v1.82h1.35v1.37H25.1V99.9c0,.63.25.94.75.94a1.19,1.19,0,0,0,.6-.17Z" fill="#231f20"/>
      <path d="M32.84,99.64H28.92c.07.87.62,1.31,1.65,1.31a3.24,3.24,0,0,0,1.74-.47v1.33a4.5,4.5,0,0,1-2.16.45,2.79,2.79,0,0,1-3.06-3.05A3.2,3.2,0,0,1,28,96.84,2.9,2.9,0,0,1,30.09,96a2.62,2.62,0,0,1,2,.78,3,3,0,0,1,.72,2.11ZM31.12,98.5c0-.86-.35-1.29-1-1.29a1,1,0,0,0-.77.37,1.72,1.72,0,0,0-.4.92Z" fill="#231f20"/>
      <path d="M37.85,97.78a1.61,1.61,0,0,0-.78-.18,1.14,1.14,0,0,0-.94.44,1.93,1.93,0,0,0-.34,1.21v2.86H33.94v-6h1.85v1.12h0A1.59,1.59,0,0,1,37.4,96a1.12,1.12,0,0,1,.45.07Z" fill="#231f20"/>
    </g>
    <g>
      <path d="M185.19,128.25v-8.41h2.39a2.6,2.6,0,0,1,1.73.54,1.69,1.69,0,0,1,.64,1.39,2,2,0,0,1-.39,1.24,2.11,2.11,0,0,1-1.06.75v0a2.18,2.18,0,0,1,1.36.64,2,2,0,0,1,.5,1.41,2.19,2.19,0,0,1-.77,1.75,2.88,2.88,0,0,1-2,.67Zm1-7.52v2.72h1a1.89,1.89,0,0,0,1.27-.39,1.36,1.36,0,0,0,.47-1.1c0-.82-.54-1.23-1.61-1.23Zm0,3.6v3h1.33a2,2,0,0,0,1.35-.42,1.41,1.41,0,0,0,.47-1.12c0-1-.67-1.49-2-1.49Z" fill="#1e1e1e"/>
      <path d="M194.45,128.39a2.79,2.79,0,0,1-2.13-.84,3.18,3.18,0,0,1-.79-2.23,3.27,3.27,0,0,1,.83-2.37,3,3,0,0,1,2.23-.84,2.68,2.68,0,0,1,2.09.82,3.25,3.25,0,0,1,.76,2.29,3.21,3.21,0,0,1-.81,2.3A2.85,2.85,0,0,1,194.45,128.39Zm.07-5.48a1.84,1.84,0,0,0-1.47.63,2.59,2.59,0,0,0-.53,1.74,2.46,2.46,0,0,0,.54,1.68,1.85,1.85,0,0,0,1.46.62A1.73,1.73,0,0,0,196,127a2.57,2.57,0,0,0,.5-1.71,2.65,2.65,0,0,0-.5-1.74A1.76,1.76,0,0,0,194.52,122.91Z" fill="#1e1e1e"/>
      <path d="M202.1,123.22a1.18,1.18,0,0,0-.73-.2,1.21,1.21,0,0,0-1,.59,2.62,2.62,0,0,0-.42,1.58v3.06h-1v-6h1v1.23h0a2.08,2.08,0,0,1,.62-1,1.47,1.47,0,0,1,.95-.35,1.65,1.65,0,0,1,.57.08Z" fill="#1e1e1e"/>
      <path d="M208.27,128.25h-1v-1h0a2.42,2.42,0,0,1-3.87.35,3.32,3.32,0,0,1-.68-2.19,3.6,3.6,0,0,1,.75-2.39,2.47,2.47,0,0,1,2-.89,1.91,1.91,0,0,1,1.8,1h0v-3.72h1Zm-1-2.72v-.88a1.7,1.7,0,0,0-.48-1.23,1.59,1.59,0,0,0-1.21-.51,1.68,1.68,0,0,0-1.39.65,2.85,2.85,0,0,0-.5,1.78,2.56,2.56,0,0,0,.48,1.64,1.59,1.59,0,0,0,1.3.6,1.66,1.66,0,0,0,1.3-.58A2.15,2.15,0,0,0,207.3,125.53Z" fill="#1e1e1e"/>
      <path d="M215,125.49H210.8a2.18,2.18,0,0,0,.54,1.54,1.82,1.82,0,0,0,1.41.55,2.94,2.94,0,0,0,1.87-.67v.9a3.52,3.52,0,0,1-2.09.58,2.55,2.55,0,0,1-2-.82,3.83,3.83,0,0,1,.06-4.58,2.55,2.55,0,0,1,2-.88,2.25,2.25,0,0,1,1.82.76A3.15,3.15,0,0,1,215,125Zm-1-.82a2,2,0,0,0-.4-1.29,1.38,1.38,0,0,0-1.1-.47,1.6,1.6,0,0,0-1.16.49,2.21,2.21,0,0,0-.58,1.27Z" fill="#1e1e1e"/>
      <path d="M219.61,123.22a1.14,1.14,0,0,0-.72-.2,1.24,1.24,0,0,0-1,.59,2.62,2.62,0,0,0-.41,1.58v3.06h-1v-6h1v1.23h0a2.17,2.17,0,0,1,.63-1,1.44,1.44,0,0,1,.94-.35,1.65,1.65,0,0,1,.57.08Z" fill="#1e1e1e"/>
      <path d="M217.74,135.25a1.76,1.76,0,0,0-.12-.68,1.25,1.25,0,0,0-.33-.47,1.28,1.28,0,0,0-.49-.29,2,2,0,0,0-.61-.09,2.08,2.08,0,0,0-.55.07,2.57,2.57,0,0,0-.52.21,2.63,2.63,0,0,0-.49.33,3.47,3.47,0,0,0-.45.41v-1a2.88,2.88,0,0,1,.91-.6,3.14,3.14,0,0,1,1.22-.21,3,3,0,0,1,1,.15,2.3,2.3,0,0,1,.76.44,2,2,0,0,1,.5.71,2.25,2.25,0,0,1,.19,1,3.18,3.18,0,0,1-.12.91,2.73,2.73,0,0,1-.34.76,3.67,3.67,0,0,1-.58.68,7.54,7.54,0,0,1-.83.67c-.4.28-.72.52-1,.72a5,5,0,0,0-.61.56,1.7,1.7,0,0,0-.31.52,1.89,1.89,0,0,0-.09.6H219v.87h-5.18V141a3.4,3.4,0,0,1,.11-.95,2.59,2.59,0,0,1,.39-.78,4.4,4.4,0,0,1,.71-.74c.29-.24.64-.52,1.06-.83a6.87,6.87,0,0,0,.77-.63,3.19,3.19,0,0,0,.49-.59,1.93,1.93,0,0,0,.27-.61A2.75,2.75,0,0,0,217.74,135.25Z" fill="#1e1e1e"/>
    </g>
    <g>
      <path d="M105.38,127.54v-8.41h2.39a2.58,2.58,0,0,1,1.73.54,1.71,1.71,0,0,1,.64,1.39,2,2,0,0,1-.39,1.24,2.07,2.07,0,0,1-1.06.75v0a2.18,2.18,0,0,1,1.36.64,2,2,0,0,1,.51,1.41,2.2,2.2,0,0,1-.78,1.75,2.88,2.88,0,0,1-2,.67Zm1-7.52v2.72h1a1.93,1.93,0,0,0,1.27-.39,1.36,1.36,0,0,0,.46-1.1c0-.82-.54-1.23-1.61-1.23Zm0,3.6v3h1.33a2,2,0,0,0,1.35-.41,1.42,1.42,0,0,0,.48-1.13c0-1-.68-1.49-2-1.49Z" fill="#1e1e1e"/>
      <path d="M114.64,127.68a2.77,2.77,0,0,1-2.12-.84,3.12,3.12,0,0,1-.8-2.23,3.23,3.23,0,0,1,.83-2.36,3,3,0,0,1,2.23-.85,2.71,2.71,0,0,1,2.1.82,3.29,3.29,0,0,1,.75,2.29,3.21,3.21,0,0,1-.81,2.3A2.84,2.84,0,0,1,114.64,127.68Zm.07-5.48a1.81,1.81,0,0,0-1.46.63,2.59,2.59,0,0,0-.54,1.74,2.46,2.46,0,0,0,.54,1.68,1.87,1.87,0,0,0,1.46.62,1.75,1.75,0,0,0,1.43-.6,2.61,2.61,0,0,0,.5-1.72,2.65,2.65,0,0,0-.5-1.74A1.76,1.76,0,0,0,114.71,122.2Z" fill="#1e1e1e"/>
      <path d="M122.29,122.51a1.14,1.14,0,0,0-.72-.19,1.21,1.21,0,0,0-1,.58,2.62,2.62,0,0,0-.41,1.58v3.06h-1v-6h1v1.23h0a2,2,0,0,1,.63-1,1.4,1.4,0,0,1,.94-.36,1.65,1.65,0,0,1,.57.08Z" fill="#1e1e1e"/>
      <path d="M128.46,127.54h-1v-1h0a2.21,2.21,0,0,1-2.06,1.16,2.24,2.24,0,0,1-1.81-.81,3.31,3.31,0,0,1-.67-2.19,3.62,3.62,0,0,1,.75-2.39,2.45,2.45,0,0,1,2-.89,1.91,1.91,0,0,1,1.8,1h0v-3.72h1Zm-1-2.72v-.88a1.7,1.7,0,0,0-.48-1.23,1.61,1.61,0,0,0-1.22-.51,1.68,1.68,0,0,0-1.39.65,2.85,2.85,0,0,0-.5,1.78,2.56,2.56,0,0,0,.48,1.64,1.6,1.6,0,0,0,1.3.6,1.65,1.65,0,0,0,1.31-.58A2.2,2.2,0,0,0,127.5,124.82Z" fill="#1e1e1e"/>
      <path d="M135.22,124.78H131a2.18,2.18,0,0,0,.54,1.54,1.82,1.82,0,0,0,1.42.55,2.93,2.93,0,0,0,1.86-.67v.9a3.45,3.45,0,0,1-2.09.58,2.55,2.55,0,0,1-2-.82,3.81,3.81,0,0,1,.07-4.58,2.53,2.53,0,0,1,2-.88,2.25,2.25,0,0,1,1.82.76,3.17,3.17,0,0,1,.64,2.11Zm-1-.82a2,2,0,0,0-.4-1.29,1.36,1.36,0,0,0-1.1-.47,1.56,1.56,0,0,0-1.15.49A2.19,2.19,0,0,0,131,124Z" fill="#1e1e1e"/>
      <path d="M139.81,122.51a1.18,1.18,0,0,0-.73-.19,1.23,1.23,0,0,0-1,.58,2.7,2.7,0,0,0-.41,1.58v3.06h-1v-6h1v1.23h0a2.09,2.09,0,0,1,.63-1,1.4,1.4,0,0,1,.94-.36,1.75,1.75,0,0,1,.58.08Z" fill="#1e1e1e"/>
      <path d="M108.52,140.74h-1v-7.26a2,2,0,0,1-.32.25l-.48.29c-.18.09-.37.18-.57.26a3.46,3.46,0,0,1-.57.19v-1a6.12,6.12,0,0,0,.67-.24c.23-.1.47-.21.7-.33a6.82,6.82,0,0,0,.64-.39,4.05,4.05,0,0,0,.53-.39h.36Z" fill="#1e1e1e"/>
    </g>
    <g>
      <path d="M66.22,23.07h-1V14.66h1Z" fill="#1e1e1e"/>
      <path d="M73.28,23.07h-1V19.64c0-1.27-.46-1.91-1.39-1.91a1.5,1.5,0,0,0-1.2.55,2,2,0,0,0-.47,1.36v3.43h-1v-6h1v1h0a2.16,2.16,0,0,1,2-1.13,1.85,1.85,0,0,1,1.51.63,2.82,2.82,0,0,1,.52,1.84Z" fill="#1e1e1e"/>
      <path d="M77.87,23a1.87,1.87,0,0,1-.89.18c-1,0-1.58-.58-1.58-1.75V17.89h-1v-.82h1V15.6l1-.31v1.78h1.51v.82H76.36v3.38a1.37,1.37,0,0,0,.21.86.81.81,0,0,0,.68.26,1,1,0,0,0,.62-.2Z" fill="#1e1e1e"/>
      <path d="M84,20.31H79.74a2.27,2.27,0,0,0,.54,1.54,1.85,1.85,0,0,0,1.42.55,2.89,2.89,0,0,0,1.86-.67v.9a3.41,3.41,0,0,1-2.09.58,2.56,2.56,0,0,1-2-.82,3.37,3.37,0,0,1-.72-2.3,3.28,3.28,0,0,1,.79-2.28,2.54,2.54,0,0,1,2-.88,2.26,2.26,0,0,1,1.83.76A3.15,3.15,0,0,1,84,19.8Zm-1-.82a2,2,0,0,0-.41-1.29,1.36,1.36,0,0,0-1.09-.47,1.58,1.58,0,0,0-1.16.49,2.21,2.21,0,0,0-.58,1.27Z" fill="#1e1e1e"/>
      <path d="M88.56,18a1.16,1.16,0,0,0-.72-.19,1.21,1.21,0,0,0-1,.58A2.62,2.62,0,0,0,86.39,20v3.06h-1v-6h1V18.3h0a2,2,0,0,1,.62-1A1.45,1.45,0,0,1,88,17a1.65,1.65,0,0,1,.57.08Z" fill="#1e1e1e"/>
      <path d="M94.59,23.07h-1V19.64c0-1.27-.46-1.91-1.39-1.91a1.48,1.48,0,0,0-1.19.55,2,2,0,0,0-.47,1.36v3.43h-1v-6h1v1h0a2.15,2.15,0,0,1,2-1.13,1.83,1.83,0,0,1,1.5.63,2.82,2.82,0,0,1,.53,1.84Z" fill="#1e1e1e"/>
      <path d="M101.22,20.31H97a2.27,2.27,0,0,0,.54,1.54,1.84,1.84,0,0,0,1.42.55,2.91,2.91,0,0,0,1.86-.67v.9a3.41,3.41,0,0,1-2.09.58,2.56,2.56,0,0,1-2-.82,3.37,3.37,0,0,1-.72-2.3,3.28,3.28,0,0,1,.79-2.28,2.54,2.54,0,0,1,2-.88,2.24,2.24,0,0,1,1.82.76,3.15,3.15,0,0,1,.65,2.11Zm-1-.82a1.9,1.9,0,0,0-.4-1.29,1.36,1.36,0,0,0-1.1-.47,1.57,1.57,0,0,0-1.15.49A2.22,2.22,0,0,0,97,19.49Z" fill="#1e1e1e"/>
      <path d="M105.45,23a1.87,1.87,0,0,1-.89.18c-1,0-1.58-.58-1.58-1.75V17.89h-1v-.82h1V15.6l1-.31v1.78h1.51v.82h-1.51v3.38a1.37,1.37,0,0,0,.21.86.81.81,0,0,0,.68.26,1,1,0,0,0,.62-.2Z" fill="#1e1e1e"/>
    </g>
    <g>
      <path d="M214,13.87V5.46h2.32q4.44,0,4.44,4.1a4.14,4.14,0,0,1-1.23,3.13,4.64,4.64,0,0,1-3.31,1.18Zm1-7.52V13h1.25a3.58,3.58,0,0,0,2.58-.89,3.32,3.32,0,0,0,.92-2.51q0-3.23-3.44-3.23Z" fill="#1e1e1e"/>
      <path d="M230.94,13.87h-1V8.23c0-.45,0-1,.08-1.64h0a6.66,6.66,0,0,1-.25.82l-2.88,6.46h-.48l-2.86-6.41a4.83,4.83,0,0,1-.25-.87h0c0,.34,0,.89,0,1.65v5.63h-.95V5.46h1.3l2.58,5.86a7.92,7.92,0,0,1,.39,1h0c.17-.46.3-.8.41-1l2.63-5.84h1.23Z" fill="#1e1e1e"/>
      <path d="M238.63,5.7,233.71,13h4.8v.89h-6.27v-.28l4.88-7.24h-4.49V5.46h6Z" fill="#1e1e1e"/>
      <path d="M243.65,5.46l-4,9.8h-.9l4-9.8Z" fill="#1e1e1e"/>
      <path d="M254.63,5.46l-2.38,8.41H251.1l-1.73-6.14a3.87,3.87,0,0,1-.13-.86h0a3.89,3.89,0,0,1-.15.84l-1.74,6.16h-1.14l-2.46-8.41h1.08l1.79,6.45a4.6,4.6,0,0,1,.14.84h0a5.16,5.16,0,0,1,.18-.84l1.86-6.45h.94l1.78,6.5a4.78,4.78,0,0,1,.14.78h0a4.18,4.18,0,0,1,.15-.81l1.72-6.47Z" fill="#1e1e1e"/>
      <path d="M260.33,13.87h-4.46V5.46h4.27v.89h-3.28v2.8h3V10h-3v3h3.47Z" fill="#1e1e1e"/>
      <path d="M261.94,13.87V5.46h2.4a2.57,2.57,0,0,1,1.72.54,1.71,1.71,0,0,1,.64,1.39,2.1,2.1,0,0,1-.38,1.24,2.14,2.14,0,0,1-1.07.75v0a2.15,2.15,0,0,1,1.36.64,2,2,0,0,1,.51,1.41,2.22,2.22,0,0,1-.77,1.75,2.93,2.93,0,0,1-2,.67Zm1-7.52V9.07h1a1.91,1.91,0,0,0,1.27-.39,1.36,1.36,0,0,0,.46-1.1c0-.82-.54-1.23-1.61-1.23Zm0,3.6v3h1.34a2,2,0,0,0,1.34-.41,1.42,1.42,0,0,0,.48-1.13c0-1-.68-1.49-2-1.49Z" fill="#1e1e1e"/>
      <path d="M271.72,13.53V12.37a2.21,2.21,0,0,0,.48.31,3,3,0,0,0,.58.24c.21.06.41.11.62.15a4.13,4.13,0,0,0,.57,0,2.29,2.29,0,0,0,1.36-.33,1.15,1.15,0,0,0,.45-1,1.16,1.16,0,0,0-.15-.6,1.94,1.94,0,0,0-.41-.46,4.56,4.56,0,0,0-.63-.39l-.77-.41a7,7,0,0,1-.82-.45,3.54,3.54,0,0,1-.67-.5,2.16,2.16,0,0,1-.44-.63,1.86,1.86,0,0,1-.16-.81,1.88,1.88,0,0,1,.25-1,2.21,2.21,0,0,1,.66-.7,3,3,0,0,1,.94-.41,4.24,4.24,0,0,1,1.07-.14,4.08,4.08,0,0,1,1.81.3V6.73a3.31,3.31,0,0,0-1.91-.52,3.59,3.59,0,0,0-.65.07,2,2,0,0,0-.57.22,1.27,1.27,0,0,0-.41.39,1,1,0,0,0-.16.59,1.25,1.25,0,0,0,.12.56,1.28,1.28,0,0,0,.36.42,3,3,0,0,0,.57.38l.77.4c.3.15.59.3.86.47a3.9,3.9,0,0,1,.71.54,2.53,2.53,0,0,1,.48.66,1.89,1.89,0,0,1,.18.84,2.14,2.14,0,0,1-.24,1.05,2.1,2.1,0,0,1-.66.7,2.8,2.8,0,0,1-1,.39,5.24,5.24,0,0,1-1.14.12,3.29,3.29,0,0,1-.49,0l-.6-.09a5.47,5.47,0,0,1-.58-.15A1.93,1.93,0,0,1,271.72,13.53Z" fill="#1e1e1e"/>
      <path d="M283.18,11.11h-4.24a2.27,2.27,0,0,0,.54,1.54,1.85,1.85,0,0,0,1.42.55,2.89,2.89,0,0,0,1.86-.67v.9a3.41,3.41,0,0,1-2.09.58,2.56,2.56,0,0,1-2-.82,3.37,3.37,0,0,1-.72-2.3,3.28,3.28,0,0,1,.79-2.28,2.54,2.54,0,0,1,2-.88,2.22,2.22,0,0,1,1.82.76,3.17,3.17,0,0,1,.65,2.11Zm-1-.82a1.9,1.9,0,0,0-.4-1.29,1.36,1.36,0,0,0-1.1-.47,1.57,1.57,0,0,0-1.15.49,2.22,2.22,0,0,0-.59,1.27Z" fill="#1e1e1e"/>
      <path d="M287.76,8.84a1.18,1.18,0,0,0-.73-.19,1.2,1.2,0,0,0-1,.58,2.62,2.62,0,0,0-.42,1.58v3.06h-1v-6h1V9.1h0a2,2,0,0,1,.62-1,1.45,1.45,0,0,1,.95-.36,1.65,1.65,0,0,1,.57.08Z" fill="#1e1e1e"/>
      <path d="M293.52,7.87l-2.39,6h-.94l-2.28-6H289l1.52,4.36a3.25,3.25,0,0,1,.21.83h0a4.41,4.41,0,0,1,.18-.81l1.6-4.38Z" fill="#1e1e1e"/>
      <path d="M299.37,11.11h-4.23a2.18,2.18,0,0,0,.54,1.54,1.82,1.82,0,0,0,1.42.55,2.93,2.93,0,0,0,1.86-.67v.9a3.45,3.45,0,0,1-2.09.58,2.55,2.55,0,0,1-2-.82,3.33,3.33,0,0,1-.73-2.3,3.29,3.29,0,0,1,.8-2.28,2.53,2.53,0,0,1,2-.88,2.25,2.25,0,0,1,1.82.76,3.17,3.17,0,0,1,.64,2.11Zm-1-.82A2,2,0,0,0,298,9a1.36,1.36,0,0,0-1.1-.47,1.56,1.56,0,0,0-1.15.49,2.16,2.16,0,0,0-.59,1.27Z" fill="#1e1e1e"/>
      <path d="M304,8.84a1.18,1.18,0,0,0-.73-.19,1.23,1.23,0,0,0-1,.58,2.7,2.7,0,0,0-.41,1.58v3.06h-1v-6h1V9.1h0a2.09,2.09,0,0,1,.63-1,1.4,1.4,0,0,1,.94-.36,1.75,1.75,0,0,1,.58.08Z" fill="#1e1e1e"/>
      <path d="M308.79,5.46l-4,9.8h-.9l4-9.8Z" fill="#1e1e1e"/>
      <path d="M217.34,27.21A3.71,3.71,0,0,1,214.48,26,4.37,4.37,0,0,1,213.41,23a4.63,4.63,0,0,1,1.09-3.23,3.85,3.85,0,0,1,3-1.21,3.6,3.6,0,0,1,2.81,1.18,4.37,4.37,0,0,1,1.06,3.06A4.63,4.63,0,0,1,220.26,26,3.76,3.76,0,0,1,217.34,27.21Zm.07-7.8a2.7,2.7,0,0,0-2.15,1,3.7,3.7,0,0,0-.82,2.51,3.77,3.77,0,0,0,.8,2.5,2.63,2.63,0,0,0,2.1.94,2.75,2.75,0,0,0,2.18-.9,3.69,3.69,0,0,0,.8-2.53,3.9,3.9,0,0,0-.77-2.57A2.69,2.69,0,0,0,217.41,19.41Z" fill="#1e1e1e"/>
      <path d="M225.66,27a1.94,1.94,0,0,1-.9.19c-1,0-1.57-.59-1.57-1.76V21.89h-1v-.82h1V19.6l1-.31v1.78h1.51v.82h-1.51v3.38a1.38,1.38,0,0,0,.2.86.83.83,0,0,0,.68.26,1.05,1.05,0,0,0,.63-.2Z" fill="#1e1e1e"/>
      <path d="M231.92,27.07h-1V23.61c0-1.25-.46-1.88-1.39-1.88a1.54,1.54,0,0,0-1.19.55,2,2,0,0,0-.48,1.39v3.4h-1V18.18h1v3.88h0a2.16,2.16,0,0,1,2-1.13c1.36,0,2,.81,2,2.44Z" fill="#1e1e1e"/>
      <path d="M238.55,24.31h-4.23a2.18,2.18,0,0,0,.54,1.54,1.82,1.82,0,0,0,1.42.55,2.93,2.93,0,0,0,1.86-.67v.9a3.45,3.45,0,0,1-2.09.58,2.55,2.55,0,0,1-2-.82,3.33,3.33,0,0,1-.73-2.3,3.29,3.29,0,0,1,.8-2.28,2.53,2.53,0,0,1,2-.88,2.25,2.25,0,0,1,1.82.76,3.17,3.17,0,0,1,.64,2.11Zm-1-.82a2,2,0,0,0-.4-1.29,1.38,1.38,0,0,0-1.1-.47,1.56,1.56,0,0,0-1.15.49,2.19,2.19,0,0,0-.59,1.27Z" fill="#1e1e1e"/>
      <path d="M243.14,22a1.18,1.18,0,0,0-.73-.19,1.23,1.23,0,0,0-1,.58A2.7,2.7,0,0,0,241,24v3.06h-1v-6h1V22.3h0a2.09,2.09,0,0,1,.63-1,1.4,1.4,0,0,1,.94-.36,1.75,1.75,0,0,1,.58.08Z" fill="#1e1e1e"/>
      <path d="M247.1,26.85v-1a2.84,2.84,0,0,0,1.73.58c.85,0,1.27-.28,1.27-.85a.72.72,0,0,0-.11-.4,1.17,1.17,0,0,0-.29-.3,3,3,0,0,0-.44-.23l-.53-.21c-.27-.11-.5-.22-.7-.32a2,2,0,0,1-.51-.37,1.31,1.31,0,0,1-.3-.46,1.57,1.57,0,0,1-.11-.6,1.45,1.45,0,0,1,.2-.75,1.75,1.75,0,0,1,.51-.54,2.26,2.26,0,0,1,.74-.33,3,3,0,0,1,.85-.11,3.46,3.46,0,0,1,1.4.27v1a2.74,2.74,0,0,0-1.53-.44,1.43,1.43,0,0,0-.48.07,1.1,1.1,0,0,0-.38.17.78.78,0,0,0-.24.27.74.74,0,0,0-.08.34.9.9,0,0,0,.08.39.83.83,0,0,0,.25.28,1.89,1.89,0,0,0,.4.22l.53.22c.27.1.51.21.72.31a2.44,2.44,0,0,1,.54.37,1.38,1.38,0,0,1,.34.46,1.54,1.54,0,0,1,.12.63,1.44,1.44,0,0,1-.19.77,1.85,1.85,0,0,1-.53.55,2.54,2.54,0,0,1-.75.32,3.82,3.82,0,0,1-.9.11A3.41,3.41,0,0,1,247.1,26.85Z" fill="#1e1e1e"/>
      <path d="M257.38,24.31h-4.24a2.27,2.27,0,0,0,.54,1.54,1.85,1.85,0,0,0,1.42.55,2.89,2.89,0,0,0,1.86-.67v.9a3.41,3.41,0,0,1-2.09.58,2.58,2.58,0,0,1-2-.82,3.37,3.37,0,0,1-.72-2.3,3.28,3.28,0,0,1,.79-2.28,2.54,2.54,0,0,1,2-.88,2.26,2.26,0,0,1,1.83.76,3.17,3.17,0,0,1,.64,2.11Zm-1-.82A2,2,0,0,0,256,22.2a1.36,1.36,0,0,0-1.09-.47,1.58,1.58,0,0,0-1.16.49,2.24,2.24,0,0,0-.58,1.27Z" fill="#1e1e1e"/>
      <path d="M262,22a1.16,1.16,0,0,0-.72-.19,1.21,1.21,0,0,0-1,.58,2.62,2.62,0,0,0-.42,1.58v3.06h-1v-6h1V22.3h0a2,2,0,0,1,.62-1,1.45,1.45,0,0,1,.95-.36A1.65,1.65,0,0,1,262,21Z" fill="#1e1e1e"/>
      <path d="M267.72,21.07l-2.39,6h-.94l-2.28-6h1.06l1.52,4.36a3.25,3.25,0,0,1,.21.83h0a4.41,4.41,0,0,1,.18-.81l1.6-4.38Z" fill="#1e1e1e"/>
      <path d="M269.25,19.54a.62.62,0,0,1-.44-1.07.58.58,0,0,1,.44-.17.6.6,0,0,1,.44.17.58.58,0,0,1,.19.45.58.58,0,0,1-.19.44A.6.6,0,0,1,269.25,19.54Zm.46,7.53h-1v-6h1Z" fill="#1e1e1e"/>
      <path d="M275.75,26.79a3.1,3.1,0,0,1-1.64.42,2.69,2.69,0,0,1-2.07-.84,3,3,0,0,1-.79-2.16,3.29,3.29,0,0,1,.85-2.38,3,3,0,0,1,2.27-.9,3.09,3.09,0,0,1,1.39.29v1a2.45,2.45,0,0,0-1.43-.47,2,2,0,0,0-1.51.66,2.53,2.53,0,0,0-.59,1.74,2.38,2.38,0,0,0,.56,1.66,1.89,1.89,0,0,0,1.48.61,2.45,2.45,0,0,0,1.48-.52Z" fill="#1e1e1e"/>
      <path d="M282,24.31h-4.24a2.18,2.18,0,0,0,.54,1.54,1.82,1.82,0,0,0,1.42.55,2.93,2.93,0,0,0,1.86-.67v.9a3.45,3.45,0,0,1-2.09.58,2.55,2.55,0,0,1-2-.82,3.33,3.33,0,0,1-.73-2.3,3.29,3.29,0,0,1,.8-2.28,2.53,2.53,0,0,1,2-.88,2.25,2.25,0,0,1,1.82.76A3.17,3.17,0,0,1,282,23.8Zm-1-.82a2,2,0,0,0-.4-1.29,1.36,1.36,0,0,0-1.1-.47,1.56,1.56,0,0,0-1.15.49,2.19,2.19,0,0,0-.59,1.27Z" fill="#1e1e1e"/>
      <path d="M283.11,26.85v-1a2.84,2.84,0,0,0,1.73.58c.85,0,1.27-.28,1.27-.85a.72.72,0,0,0-.11-.4,1.17,1.17,0,0,0-.29-.3,3,3,0,0,0-.44-.23l-.53-.21c-.27-.11-.5-.22-.7-.32a2.23,2.23,0,0,1-.51-.37,1.31,1.31,0,0,1-.3-.46,1.57,1.57,0,0,1-.1-.6,1.44,1.44,0,0,1,.19-.75,1.67,1.67,0,0,1,.52-.54,2.21,2.21,0,0,1,.73-.33,3.05,3.05,0,0,1,.85-.11,3.46,3.46,0,0,1,1.4.27v1a2.72,2.72,0,0,0-1.53-.44,1.43,1.43,0,0,0-.48.07,1,1,0,0,0-.37.17.62.62,0,0,0-.24.27.64.64,0,0,0-.09.34.78.78,0,0,0,.09.39.8.8,0,0,0,.24.28,1.89,1.89,0,0,0,.4.22l.54.22c.26.1.5.21.71.31a2.44,2.44,0,0,1,.54.37,1.38,1.38,0,0,1,.34.46,1.54,1.54,0,0,1,.12.63,1.44,1.44,0,0,1-.19.77,1.74,1.74,0,0,1-.53.55,2.54,2.54,0,0,1-.75.32,3.82,3.82,0,0,1-.9.11A3.41,3.41,0,0,1,283.11,26.85Z" fill="#1e1e1e"/>
    </g>
    <g>
      <path d="M192.55,59.34h-3.28v2.9h3v.89h-3v3.72h-1V58.44h4.26Z" fill="#1e1e1e"/>
      <path d="M194.51,59.32a.64.64,0,0,1-.44-.17.65.65,0,0,1,0-.9.6.6,0,0,1,.44-.17.6.6,0,0,1,.45.17.61.61,0,0,1,.18.45.6.6,0,0,1-.18.44A.61.61,0,0,1,194.51,59.32Zm.47,7.53h-1v-6h1Z" fill="#1e1e1e"/>
      <path d="M200.05,61.82a1.14,1.14,0,0,0-.72-.19,1.21,1.21,0,0,0-1,.58,2.62,2.62,0,0,0-.41,1.58v3.06h-1v-6h1v1.23h0a2,2,0,0,1,.63-1,1.4,1.4,0,0,1,.94-.36,1.65,1.65,0,0,1,.57.08Z" fill="#1e1e1e"/>
      <path d="M205.92,64.09h-4.24a2.27,2.27,0,0,0,.54,1.54,1.85,1.85,0,0,0,1.42.55,2.89,2.89,0,0,0,1.86-.67v.9a3.41,3.41,0,0,1-2.09.58,2.56,2.56,0,0,1-2-.82,3.35,3.35,0,0,1-.72-2.3,3.28,3.28,0,0,1,.79-2.28,2.54,2.54,0,0,1,2-.88,2.24,2.24,0,0,1,1.82.76,3.17,3.17,0,0,1,.65,2.11Zm-1-.82a1.9,1.9,0,0,0-.4-1.29,1.36,1.36,0,0,0-1.1-.47,1.57,1.57,0,0,0-1.15.49,2.25,2.25,0,0,0-.59,1.27Z" fill="#1e1e1e"/>
      <path d="M214.93,60.85l-1.8,6h-1l-1.24-4.3a2.26,2.26,0,0,1-.09-.55h0a2.44,2.44,0,0,1-.12.54l-1.34,4.31h-1l-1.82-6h1l1.24,4.51a2.29,2.29,0,0,1,.08.54h0a2.91,2.91,0,0,1,.1-.55l1.39-4.5h.88l1.24,4.52a3,3,0,0,1,.09.54h0a2.61,2.61,0,0,1,.1-.54L214,60.85Z" fill="#1e1e1e"/>
      <path d="M220.34,66.85h-1v-.94h0A2,2,0,0,1,217.51,67a1.93,1.93,0,0,1-1.4-.48,1.62,1.62,0,0,1-.51-1.26q0-1.68,2-2l1.8-.26c0-1-.41-1.53-1.24-1.53a3,3,0,0,0-2,.74v-1a3.68,3.68,0,0,1,2-.56c1.41,0,2.12.74,2.12,2.23Zm-1-3-1.45.2a2.35,2.35,0,0,0-1,.33,1,1,0,0,0-.34.84.92.92,0,0,0,.32.72,1.18,1.18,0,0,0,.83.28,1.55,1.55,0,0,0,1.18-.5,1.81,1.81,0,0,0,.47-1.27Z" fill="#1e1e1e"/>
      <path d="M223.11,66.85h-1V58h1Z" fill="#1e1e1e"/>
      <path d="M226,66.85h-1V58h1Z" fill="#1e1e1e"/>
      <path d="M228.84,65.51l-.94,2.88h-.68l.68-2.88Z" fill="#1e1e1e"/>
      <path d="M240,66.85h-1.17l-1.41-2.36a4.53,4.53,0,0,0-.37-.56,2.69,2.69,0,0,0-.37-.38,1.45,1.45,0,0,0-.41-.21,1.89,1.89,0,0,0-.5-.07H235v3.58h-1V58.44h2.51a3.62,3.62,0,0,1,1,.14,2.23,2.23,0,0,1,.81.42,2,2,0,0,1,.54.7,2.61,2.61,0,0,1,.06,1.79,2,2,0,0,1-.38.65,2.13,2.13,0,0,1-.58.49,2.76,2.76,0,0,1-.77.31v0a1.55,1.55,0,0,1,.36.21,1.64,1.64,0,0,1,.3.29,4,4,0,0,1,.28.37l.31.48Zm-5-7.51v3h1.34a2.11,2.11,0,0,0,.68-.11,1.46,1.46,0,0,0,.54-.32,1.32,1.32,0,0,0,.36-.51,1.65,1.65,0,0,0,.13-.68,1.33,1.33,0,0,0-.44-1,1.88,1.88,0,0,0-1.26-.37Z" fill="#1e1e1e"/>
      <path d="M243.18,67a2.79,2.79,0,0,1-2.12-.84,3.12,3.12,0,0,1-.79-2.23,3.23,3.23,0,0,1,.82-2.36,3,3,0,0,1,2.23-.85,2.69,2.69,0,0,1,2.1.82,3.29,3.29,0,0,1,.75,2.29,3.21,3.21,0,0,1-.81,2.3A2.84,2.84,0,0,1,243.18,67Zm.07-5.48a1.83,1.83,0,0,0-1.46.63,2.59,2.59,0,0,0-.54,1.74,2.41,2.41,0,0,0,.55,1.68,1.85,1.85,0,0,0,1.45.62,1.77,1.77,0,0,0,1.44-.6,2.67,2.67,0,0,0,.5-1.72,2.71,2.71,0,0,0-.5-1.74A1.78,1.78,0,0,0,243.25,61.51Z" fill="#1e1e1e"/>
      <path d="M252.56,66.85h-1V65.9h0A2,2,0,0,1,249.72,67c-1.43,0-2.14-.85-2.14-2.56V60.85h.95v3.43c0,1.27.49,1.9,1.46,1.9a1.44,1.44,0,0,0,1.15-.52,2,2,0,0,0,.46-1.36V60.85h1Z" fill="#1e1e1e"/>
      <path d="M257.28,66.79a1.87,1.87,0,0,1-.89.19c-1.06,0-1.58-.59-1.58-1.76V61.67h-1v-.82h1V59.38l1-.31v1.78h1.51v.82h-1.51v3.38a1.37,1.37,0,0,0,.21.86.8.8,0,0,0,.67.26,1,1,0,0,0,.63-.2Z" fill="#1e1e1e"/>
      <path d="M263.39,64.09h-4.24a2.27,2.27,0,0,0,.54,1.54,1.84,1.84,0,0,0,1.42.55,2.93,2.93,0,0,0,1.86-.67v.9a3.43,3.43,0,0,1-2.09.58,2.56,2.56,0,0,1-2-.82,3.36,3.36,0,0,1-.73-2.3,3.29,3.29,0,0,1,.8-2.28,2.54,2.54,0,0,1,2-.88,2.24,2.24,0,0,1,1.82.76,3.17,3.17,0,0,1,.65,2.11Zm-1-.82A1.9,1.9,0,0,0,262,62a1.36,1.36,0,0,0-1.1-.47,1.57,1.57,0,0,0-1.15.49,2.25,2.25,0,0,0-.59,1.27Z" fill="#1e1e1e"/>
      <path d="M268,61.82a1.18,1.18,0,0,0-.73-.19,1.23,1.23,0,0,0-1,.58,2.7,2.7,0,0,0-.41,1.58v3.06h-1v-6h1v1.23h0a2.09,2.09,0,0,1,.63-1,1.43,1.43,0,0,1,.95-.36,1.65,1.65,0,0,1,.57.08Z" fill="#1e1e1e"/>
      <path d="M190.67,80.19a2.79,2.79,0,0,1-2.13-.84,3.12,3.12,0,0,1-.79-2.23,3.23,3.23,0,0,1,.82-2.36,3,3,0,0,1,2.24-.85,2.68,2.68,0,0,1,2.09.82,3.29,3.29,0,0,1,.75,2.29,3.21,3.21,0,0,1-.81,2.3A2.82,2.82,0,0,1,190.67,80.19Zm.07-5.48a1.84,1.84,0,0,0-1.47.63,2.59,2.59,0,0,0-.54,1.74,2.41,2.41,0,0,0,.55,1.68,1.85,1.85,0,0,0,1.46.62,1.75,1.75,0,0,0,1.43-.6,2.67,2.67,0,0,0,.5-1.72,2.71,2.71,0,0,0-.5-1.74A1.76,1.76,0,0,0,190.74,74.71Z" fill="#1e1e1e"/>
      <path d="M198.32,75a1.18,1.18,0,0,0-.73-.19,1.23,1.23,0,0,0-1,.58,2.7,2.7,0,0,0-.41,1.58v3.06h-1v-6h1v1.23h0a2.09,2.09,0,0,1,.63-1,1.42,1.42,0,0,1,.94-.36,1.71,1.71,0,0,1,.58.08Z" fill="#1e1e1e"/>
      <path d="M203.76,76.87v3.18h-1V71.64h2.31a3,3,0,0,1,2.09.66,2.37,2.37,0,0,1,.74,1.85,2.55,2.55,0,0,1-.83,2,3.13,3.13,0,0,1-2.22.76Zm0-4.33V76h1a2.27,2.27,0,0,0,1.56-.47,1.63,1.63,0,0,0,.54-1.31c0-1.11-.66-1.66-2-1.66Z" fill="#1e1e1e"/>
      <path d="M212.5,75a1.18,1.18,0,0,0-.73-.19,1.23,1.23,0,0,0-1,.58,2.7,2.7,0,0,0-.41,1.58v3.06h-1v-6h1v1.23h0a2.09,2.09,0,0,1,.63-1,1.42,1.42,0,0,1,.94-.36,1.71,1.71,0,0,1,.58.08Z" fill="#1e1e1e"/>
      <path d="M216.05,80.19a2.76,2.76,0,0,1-2.12-.84,3.12,3.12,0,0,1-.8-2.23,3.23,3.23,0,0,1,.83-2.36,3,3,0,0,1,2.23-.85,2.68,2.68,0,0,1,2.09.82A3.25,3.25,0,0,1,219,77a3.21,3.21,0,0,1-.81,2.3A2.84,2.84,0,0,1,216.05,80.19Zm.07-5.48a1.84,1.84,0,0,0-1.47.63,2.64,2.64,0,0,0-.53,1.74,2.46,2.46,0,0,0,.54,1.68,1.85,1.85,0,0,0,1.46.62,1.75,1.75,0,0,0,1.43-.6,2.61,2.61,0,0,0,.5-1.72,2.65,2.65,0,0,0-.5-1.74A1.76,1.76,0,0,0,216.12,74.71Z" fill="#1e1e1e"/>
      <path d="M225,74.05l-2,3,2,3H223.8l-1.18-2c-.07-.12-.16-.27-.26-.46h0l-.28.46-1.2,2h-1.11l2.05-2.94-2-3.06H221l1.16,2c.09.15.17.31.25.47h0l1.5-2.52Z" fill="#1e1e1e"/>
      <path d="M230.86,74.05l-2.76,7c-.5,1.24-1.19,1.86-2.08,1.86a2.16,2.16,0,0,1-.62-.07v-.87A1.73,1.73,0,0,0,226,82a1.17,1.17,0,0,0,1.09-.87l.48-1.13-2.34-6h1.07l1.62,4.61c0,.06.06.22.12.46h0l.11-.44,1.71-4.63Z" fill="#1e1e1e"/>
    </g>
    <g>
      <path d="M13.62,185.82H11.56L11,184H8l-.59,1.87h-2l3.06-8.4h2.24Zm-3.09-3.32-.91-2.82a4.51,4.51,0,0,1-.14-.76h0a3.06,3.06,0,0,1-.15.73l-.91,2.85Z" fill="#231f20"/>
      <path d="M19.24,185.82H13.85v-.76l3-3.87H14.15v-1.37h5.07v.92l-2.86,3.72h2.88Z" fill="#231f20"/>
      <path d="M25.94,185.82H24.09v-.91h0A2.09,2.09,0,0,1,22.23,186c-1.39,0-2.09-.84-2.09-2.53v-3.62H22v3.46c0,.85.33,1.27,1,1.27a1,1,0,0,0,.8-.35,1.38,1.38,0,0,0,.3-.94v-3.44h1.85Z" fill="#231f20"/>
      <path d="M31.41,181.49a1.61,1.61,0,0,0-.78-.18,1.12,1.12,0,0,0-.94.44,1.93,1.93,0,0,0-.34,1.21v2.86H27.49v-6h1.86v1.12h0A1.59,1.59,0,0,1,31,179.72a1.14,1.14,0,0,1,.46.07Z" fill="#231f20"/>
      <path d="M37.61,183.35H33.7c.06.87.61,1.31,1.65,1.31a3.24,3.24,0,0,0,1.74-.47v1.33a4.57,4.57,0,0,1-2.17.45,2.79,2.79,0,0,1-3.05-3.05,3.2,3.2,0,0,1,.86-2.37,2.9,2.9,0,0,1,2.14-.87,2.63,2.63,0,0,1,2,.78,3,3,0,0,1,.71,2.11Zm-1.71-1.14c0-.85-.35-1.28-1-1.28a1,1,0,0,0-.77.36,1.78,1.78,0,0,0-.39.92Z" fill="#231f20"/>
      <path d="M8.49,198.7v-1.87a3.72,3.72,0,0,0,1.1.64,3.67,3.67,0,0,0,1.21.21,2.93,2.93,0,0,0,.63-.06,1.62,1.62,0,0,0,.44-.18.87.87,0,0,0,.27-.27.67.67,0,0,0,.09-.34.71.71,0,0,0-.15-.44,1.44,1.44,0,0,0-.38-.35,3.43,3.43,0,0,0-.58-.32c-.22-.1-.46-.21-.72-.31a3.68,3.68,0,0,1-1.46-1A2.16,2.16,0,0,1,8.45,193a2.22,2.22,0,0,1,1-1.91,3.5,3.5,0,0,1,1.06-.45,5.66,5.66,0,0,1,1.26-.14,7.82,7.82,0,0,1,1.16.08,4.46,4.46,0,0,1,.94.24v1.76a2.59,2.59,0,0,0-.46-.26,3.52,3.52,0,0,0-.51-.19,5,5,0,0,0-.53-.11l-.49,0a2.68,2.68,0,0,0-.59.06,1.69,1.69,0,0,0-.45.17,1,1,0,0,0-.28.27.68.68,0,0,0-.1.35.64.64,0,0,0,.12.38,1.3,1.3,0,0,0,.31.31,3.66,3.66,0,0,0,.5.3l.66.29a7,7,0,0,1,.91.45,3.75,3.75,0,0,1,.69.54,2.21,2.21,0,0,1,.44.68,2.4,2.4,0,0,1,.15.89,2.37,2.37,0,0,1-.27,1.18,2.25,2.25,0,0,1-.72.78,3.19,3.19,0,0,1-1.07.42,5.85,5.85,0,0,1-1.28.13,6.86,6.86,0,0,1-1.31-.12A3.52,3.52,0,0,1,8.49,198.7Z" fill="#231f20"/>
      <path d="M18.75,199a2.7,2.7,0,0,1-1.24.22,1.77,1.77,0,0,1-2-2v-2.75h-1V193h1v-1.29l1.85-.53V193h1.35v1.37H17.4v2.43c0,.62.25.93.74.93a1.2,1.2,0,0,0,.61-.17Z" fill="#231f20"/>
      <path d="M24.78,199H23v-.86h0a2,2,0,0,1-1.79,1,1.85,1.85,0,0,1-1.37-.49,1.78,1.78,0,0,1-.51-1.33q0-1.74,2.07-2l1.63-.22c0-.65-.35-1-1.06-1a3.59,3.59,0,0,0-2,.64v-1.4a4.57,4.57,0,0,1,1-.35,5.71,5.71,0,0,1,1.23-.15,2.26,2.26,0,0,1,2.56,2.56ZM23,196.59v-.41l-1.09.14c-.6.08-.9.35-.9.82a.67.67,0,0,0,.22.52.86.86,0,0,0,.59.2,1.1,1.1,0,0,0,.85-.36A1.31,1.31,0,0,0,23,196.59Z" fill="#231f20"/>
      <path d="M30.79,198.81a3.66,3.66,0,0,1-1.81.36,3.08,3.08,0,0,1-2.24-.84,2.89,2.89,0,0,1-.85-2.16,3.16,3.16,0,0,1,.92-2.41,3.38,3.38,0,0,1,2.45-.88,3.07,3.07,0,0,1,1.53.28v1.57a2.07,2.07,0,0,0-1.29-.43,1.7,1.7,0,0,0-1.26.46,1.75,1.75,0,0,0-.47,1.29,1.69,1.69,0,0,0,.45,1.25,1.62,1.62,0,0,0,1.22.45,2.42,2.42,0,0,0,1.35-.43Z" fill="#231f20"/>
      <path d="M38,199H35.8l-1.92-3h0v3H32v-8.88h1.85v5.66h0L35.67,193h2.2l-2.15,2.82Z" fill="#231f20"/>
      <path d="M22.27,212.22H20.38V208.8H16.9v3.42H15v-8.4h1.9v3.35h3.48v-3.35h1.89Z" fill="#231f20"/>
      <path d="M29.72,212.22H27.87v-.91h0A2.09,2.09,0,0,1,26,212.37c-1.39,0-2.09-.84-2.09-2.52v-3.63h1.85v3.46c0,.85.33,1.27,1,1.27a1,1,0,0,0,.8-.35,1.38,1.38,0,0,0,.3-.94v-3.44h1.85Z" fill="#231f20"/>
      <path d="M33.15,211.53h0v.69H31.27v-8.88h1.86v3.79h0a2.2,2.2,0,0,1,2-1,2.15,2.15,0,0,1,1.79.79,3.44,3.44,0,0,1,.62,2.18,3.71,3.71,0,0,1-.73,2.41,2.38,2.38,0,0,1-2,.91A1.89,1.89,0,0,1,33.15,211.53Zm0-2.53v.61a1.4,1.4,0,0,0,.33,1,1.07,1.07,0,0,0,.86.38,1.14,1.14,0,0,0,1-.49,2.34,2.34,0,0,0,.35-1.38,1.91,1.91,0,0,0-.32-1.17,1.11,1.11,0,0,0-.91-.41,1.17,1.17,0,0,0-.93.41A1.61,1.61,0,0,0,33.1,209Z" fill="#231f20"/>
    </g>
    <g>
      <path d="M74.9,255.73H72.47v7.52h-1v-7.52H69.07v-.89H74.9Z" fill="#1e1e1e"/>
      <path d="M79.05,263.39a3.72,3.72,0,0,1-2.87-1.18,4.42,4.42,0,0,1-1.07-3.07,4.61,4.61,0,0,1,1.09-3.23,3.86,3.86,0,0,1,3-1.21,3.6,3.6,0,0,1,2.8,1.17,4.41,4.41,0,0,1,1.06,3.07A4.63,4.63,0,0,1,82,262.19,3.73,3.73,0,0,1,79.05,263.39Zm.07-7.8a2.69,2.69,0,0,0-2.15,1,3.66,3.66,0,0,0-.83,2.51,3.79,3.79,0,0,0,.8,2.5,2.64,2.64,0,0,0,2.11.94,2.78,2.78,0,0,0,2.18-.9,3.69,3.69,0,0,0,.79-2.53,3.88,3.88,0,0,0-.77-2.57A2.68,2.68,0,0,0,79.12,255.59Z" fill="#1e1e1e"/>
      <path d="M90.73,263.25H89.56l-1.41-2.36a5,5,0,0,0-.37-.56,2.72,2.72,0,0,0-.38-.38,1.23,1.23,0,0,0-.41-.21,1.49,1.49,0,0,0-.49-.07h-.81v3.58h-1v-8.41h2.5a3.64,3.64,0,0,1,1,.14,2.23,2.23,0,0,1,.81.42,1.84,1.84,0,0,1,.53.7,2.32,2.32,0,0,1,.2,1,2.64,2.64,0,0,1-.13.81,2.22,2.22,0,0,1-.38.65,2.29,2.29,0,0,1-.58.49,3,3,0,0,1-.78.31v0a1.44,1.44,0,0,1,.37.21,3.84,3.84,0,0,1,.3.28c.09.11.18.24.28.38l.3.48Zm-5-7.52v3H87a2.15,2.15,0,0,0,.68-.11,1.46,1.46,0,0,0,.54-.32,1.57,1.57,0,0,0,.36-.51,1.83,1.83,0,0,0,.13-.68,1.32,1.32,0,0,0-.44-1.05,1.88,1.88,0,0,0-1.26-.38Z" fill="#1e1e1e"/>
      <path d="M97.42,263.25h-1V256a2,2,0,0,1-.32.25,3.57,3.57,0,0,1-.48.28,5,5,0,0,1-.57.27,3.18,3.18,0,0,1-.57.19v-1a6.12,6.12,0,0,0,.67-.24c.23-.1.47-.21.7-.33a6.82,6.82,0,0,0,.64-.39,5.23,5.23,0,0,0,.53-.39h.36Z" fill="#1e1e1e"/>
    </g>
    <g>
      <path d="M236.24,255.73h-2.42v7.52h-1v-7.52h-2.42v-.89h5.83Z" fill="#1e1e1e"/>
      <path d="M240.39,263.39a3.71,3.71,0,0,1-2.86-1.18,4.38,4.38,0,0,1-1.08-3.07,4.62,4.62,0,0,1,1.1-3.23,3.85,3.85,0,0,1,3-1.21,3.62,3.62,0,0,1,2.81,1.17,4.41,4.41,0,0,1,1.06,3.07,4.63,4.63,0,0,1-1.09,3.25A3.76,3.76,0,0,1,240.39,263.39Zm.07-7.8a2.7,2.7,0,0,0-2.15,1,4.28,4.28,0,0,0,0,5,2.63,2.63,0,0,0,2.1.94,2.76,2.76,0,0,0,2.18-.9,3.69,3.69,0,0,0,.8-2.53,3.88,3.88,0,0,0-.77-2.57A2.69,2.69,0,0,0,240.46,255.59Z" fill="#1e1e1e"/>
      <path d="M252.08,263.25H250.9l-1.4-2.36a4.9,4.9,0,0,0-.38-.56,2.23,2.23,0,0,0-.37-.38,1.33,1.33,0,0,0-.41-.21,1.53,1.53,0,0,0-.49-.07H247v3.58h-1v-8.41h2.51a3.64,3.64,0,0,1,1,.14,2.23,2.23,0,0,1,.81.42,2.06,2.06,0,0,1,.53.7,2.32,2.32,0,0,1,.19,1,2.37,2.37,0,0,1-.13.81,2,2,0,0,1-.37.65,2.17,2.17,0,0,1-.59.49,3,3,0,0,1-.77.31v0a1.88,1.88,0,0,1,.37.21,2.54,2.54,0,0,1,.29.28,2.88,2.88,0,0,1,.28.38l.31.48Zm-5-7.52v3h1.33a2.17,2.17,0,0,0,.69-.11,1.64,1.64,0,0,0,.54-.32,1.41,1.41,0,0,0,.35-.51,1.65,1.65,0,0,0,.13-.68,1.31,1.31,0,0,0-.43-1.05,1.89,1.89,0,0,0-1.27-.38Z" fill="#1e1e1e"/>
      <path d="M259.05,257.05a1.76,1.76,0,0,0-.12-.68,1.25,1.25,0,0,0-.33-.47,1.21,1.21,0,0,0-.49-.29,1.93,1.93,0,0,0-.6-.09,2.1,2.1,0,0,0-.56.07,2.83,2.83,0,0,0-.52.21,3,3,0,0,0-.49.33,2.85,2.85,0,0,0-.44.41v-1a3,3,0,0,1,.9-.6,3.17,3.17,0,0,1,1.22-.21,3,3,0,0,1,1,.15,2.3,2.3,0,0,1,.76.44,2.19,2.19,0,0,1,.51.71,2.42,2.42,0,0,1,.18,1,3.6,3.6,0,0,1-.11.91,2.75,2.75,0,0,1-.35.76,3.33,3.33,0,0,1-.58.68,7.54,7.54,0,0,1-.83.67c-.39.28-.72.52-1,.72a4.34,4.34,0,0,0-.61.56,1.75,1.75,0,0,0-.32.52,1.89,1.89,0,0,0-.09.6h4.18v.87h-5.18v-.42a3.82,3.82,0,0,1,.11-.95,2.59,2.59,0,0,1,.39-.78,4.83,4.83,0,0,1,.71-.74c.29-.24.65-.52,1.07-.83a6.69,6.69,0,0,0,.76-.63,3.27,3.27,0,0,0,.5-.59,2.29,2.29,0,0,0,.26-.61A2.32,2.32,0,0,0,259.05,257.05Z" fill="#1e1e1e"/>
    </g>
    <g>
      <path d="M152,323.89v-8.41h2.39a2.57,2.57,0,0,1,1.72.54,1.71,1.71,0,0,1,.64,1.39,2.1,2.1,0,0,1-.38,1.24,2.14,2.14,0,0,1-1.07.75v0a2.15,2.15,0,0,1,1.36.64,2,2,0,0,1,.51,1.41,2.22,2.22,0,0,1-.77,1.75,2.93,2.93,0,0,1-2,.67Zm1-7.51v2.71h1a1.91,1.91,0,0,0,1.27-.39,1.36,1.36,0,0,0,.46-1.1c0-.82-.53-1.22-1.61-1.22Zm0,3.59v3h1.34a2,2,0,0,0,1.34-.41,1.42,1.42,0,0,0,.48-1.13c0-1-.68-1.49-2-1.49Z" fill="#1e1e1e"/>
      <path d="M167.44,323.89h-1v-5.64c0-.44,0-1,.08-1.63h0a5.42,5.42,0,0,1-.25.81l-2.87,6.46h-.48l-2.87-6.41a6,6,0,0,1-.25-.86h0c0,.33,0,.88,0,1.64v5.63h-.95v-8.41h1.31l2.57,5.86a7.92,7.92,0,0,1,.39,1h0c.16-.46.3-.8.4-1l2.63-5.84h1.23Z" fill="#1e1e1e"/>
      <path d="M175.37,323.54a5,5,0,0,1-2.32.49,3.74,3.74,0,0,1-2.87-1.16,4.26,4.26,0,0,1-1.08-3,4.43,4.43,0,0,1,1.21-3.25,4.13,4.13,0,0,1,3.08-1.25,4.91,4.91,0,0,1,2,.35v1.05a4,4,0,0,0-2-.51,3.08,3.08,0,0,0-2.35,1,3.66,3.66,0,0,0-.9,2.59,3.46,3.46,0,0,0,.84,2.44,2.86,2.86,0,0,0,2.21.91,4.1,4.1,0,0,0,2.19-.56Z" fill="#1e1e1e"/>
    </g>
    <g>
      <path d="M131.43,221.25h-1v-5.64c0-.45,0-1,.08-1.64h0a5.64,5.64,0,0,1-.25.82l-2.87,6.46h-.48L124,214.84a4.83,4.83,0,0,1-.25-.87h0c0,.34,0,.89,0,1.65v5.63h-1v-8.41h1.3l2.58,5.86a7.92,7.92,0,0,1,.39,1h0c.17-.46.31-.8.41-1l2.63-5.84h1.23Z" fill="#1e1e1e"/>
      <path d="M138,221.25h-4.36v-8.41h1v7.52H138Z" fill="#1e1e1e"/>
      <path d="M146.14,221.25h-1.09l-.89-2.36H140.6l-.84,2.36h-1.09l3.22-8.41h1Zm-2.3-3.24-1.32-3.58a5.16,5.16,0,0,1-.13-.57h0a3.38,3.38,0,0,1-.14.57l-1.3,3.58Z" fill="#1e1e1e"/>
      <path d="M153.43,220.67a5.64,5.64,0,0,1-2.82.72,3.86,3.86,0,0,1-2.91-1.16,4.27,4.27,0,0,1-1.11-3.07,4.37,4.37,0,0,1,1.24-3.21A4.2,4.2,0,0,1,151,212.7a5.31,5.31,0,0,1,2.31.45v1.09a4.44,4.44,0,0,0-2.42-.65,3,3,0,0,0-2.31,1,4,4,0,0,0-.07,5,2.94,2.94,0,0,0,2.28.91,3.53,3.53,0,0,0,1.7-.39v-2.36H150.6v-.89h2.83Z" fill="#1e1e1e"/>
      <path d="M159.65,218.07v3.18h-1v-8.41H161a3,3,0,0,1,2.09.66,2.32,2.32,0,0,1,.74,1.85,2.54,2.54,0,0,1-.82,2,3.13,3.13,0,0,1-2.22.76Zm0-4.34v3.45h1a2.33,2.33,0,0,0,1.56-.47,1.67,1.67,0,0,0,.53-1.31c0-1.11-.66-1.67-2-1.67Z" fill="#1e1e1e"/>
      <path d="M169.63,218.49H165.4a2.18,2.18,0,0,0,.54,1.54,1.82,1.82,0,0,0,1.41.55,2.94,2.94,0,0,0,1.87-.67v.9a3.53,3.53,0,0,1-2.1.58,2.54,2.54,0,0,1-2-.82,3.33,3.33,0,0,1-.73-2.3,3.26,3.26,0,0,1,.79-2.28,2.55,2.55,0,0,1,2-.88,2.25,2.25,0,0,1,1.82.76,3.15,3.15,0,0,1,.64,2.11Zm-1-.82a2,2,0,0,0-.4-1.29,1.38,1.38,0,0,0-1.1-.47,1.58,1.58,0,0,0-1.16.49,2.21,2.21,0,0,0-.58,1.27Z" fill="#1e1e1e"/>
      <path d="M175.91,218.49h-4.24a2.27,2.27,0,0,0,.54,1.54,1.84,1.84,0,0,0,1.42.55,2.91,2.91,0,0,0,1.86-.67v.9a3.5,3.5,0,0,1-2.09.58,2.56,2.56,0,0,1-2-.82,3.37,3.37,0,0,1-.72-2.3,3.26,3.26,0,0,1,.79-2.28,2.54,2.54,0,0,1,2-.88,2.24,2.24,0,0,1,1.82.76,3.15,3.15,0,0,1,.65,2.11Zm-1-.82a1.9,1.9,0,0,0-.4-1.29,1.36,1.36,0,0,0-1.1-.47,1.57,1.57,0,0,0-1.15.49,2.22,2.22,0,0,0-.59,1.27Z" fill="#1e1e1e"/>
      <path d="M180.49,216.22a1.18,1.18,0,0,0-.73-.2,1.21,1.21,0,0,0-1,.59,2.62,2.62,0,0,0-.42,1.58v3.06h-1v-6h1v1.23h0a2.08,2.08,0,0,1,.62-1,1.47,1.47,0,0,1,.95-.35,1.65,1.65,0,0,1,.57.08Z" fill="#1e1e1e"/>
      <path d="M189.31,221.25H185v-8.41h1v7.52h3.38Z" fill="#1e1e1e"/>
      <path d="M191,213.72a.64.64,0,0,1-.44-.17.65.65,0,0,1,0-.9.6.6,0,0,1,.44-.18.62.62,0,0,1,.63.63.6.6,0,0,1-.18.44A.61.61,0,0,1,191,213.72Zm.47,7.53h-1v-6h1Z" fill="#1e1e1e"/>
      <path d="M198.36,221.25h-1v-3.43c0-1.27-.46-1.91-1.39-1.91a1.48,1.48,0,0,0-1.19.55,2,2,0,0,0-.47,1.36v3.43h-1v-6h1v1h0a2.15,2.15,0,0,1,2-1.13,1.83,1.83,0,0,1,1.5.63,2.82,2.82,0,0,1,.53,1.84Z" fill="#1e1e1e"/>
      <path d="M205.15,221.25H203.8l-2.65-2.89h0v2.89h-1v-8.89h1V218h0l2.52-2.74h1.26l-2.78,2.89Z" fill="#1e1e1e"/>
    </g>
    <g>
      <path d="M119.4,258.25h-1v-8.41h1Z" fill="#1e1e1e"/>
      <path d="M121.61,258.25v-8.41H124a2.61,2.61,0,0,1,1.73.54,1.71,1.71,0,0,1,.63,1.39A2,2,0,0,1,126,253a2.14,2.14,0,0,1-1.07.75v0a2.15,2.15,0,0,1,1.36.64,2,2,0,0,1,.51,1.41,2.22,2.22,0,0,1-.77,1.75,2.92,2.92,0,0,1-2,.67Zm1-7.52v2.72h1a1.91,1.91,0,0,0,1.27-.39,1.36,1.36,0,0,0,.46-1.1c0-.82-.53-1.23-1.61-1.23Zm0,3.6v3h1.34a2,2,0,0,0,1.34-.42,1.38,1.38,0,0,0,.48-1.12c0-1-.68-1.49-2-1.49Z" fill="#1e1e1e"/>
      <path d="M134.77,257.67a5.61,5.61,0,0,1-2.82.72,3.85,3.85,0,0,1-2.9-1.16,4.27,4.27,0,0,1-1.11-3.07,4.41,4.41,0,0,1,1.23-3.21,4.2,4.2,0,0,1,3.12-1.25,5.28,5.28,0,0,1,2.31.45v1.09a4.44,4.44,0,0,0-2.42-.65,3,3,0,0,0-2.31,1,3.54,3.54,0,0,0-.9,2.52,3.59,3.59,0,0,0,.83,2.5,2.94,2.94,0,0,0,2.28.91,3.53,3.53,0,0,0,1.7-.39v-2.36h-1.84v-.89h2.83Z" fill="#1e1e1e"/>
      <path d="M137.7,255.07v3.18h-1v-8.41H139a3,3,0,0,1,2.09.66,2.35,2.35,0,0,1,.74,1.85,2.55,2.55,0,0,1-.83,2,3.12,3.12,0,0,1-2.22.76Zm0-4.34v3.45h1a2.33,2.33,0,0,0,1.56-.47,1.64,1.64,0,0,0,.54-1.31c0-1.11-.66-1.67-2-1.67Z" fill="#1e1e1e"/>
      <path d="M146.73,258.25v-8.41h2.39a2.61,2.61,0,0,1,1.73.54,1.71,1.71,0,0,1,.63,1.39,2,2,0,0,1-.38,1.24,2.14,2.14,0,0,1-1.07.75v0a2.15,2.15,0,0,1,1.36.64,2,2,0,0,1,.51,1.41,2.22,2.22,0,0,1-.77,1.75,2.92,2.92,0,0,1-1.95.67Zm1-7.52v2.72h1a1.91,1.91,0,0,0,1.27-.39,1.36,1.36,0,0,0,.46-1.1c0-.82-.53-1.23-1.61-1.23Zm0,3.6v3h1.34a2,2,0,0,0,1.34-.42,1.38,1.38,0,0,0,.48-1.12c0-1-.68-1.49-2-1.49Z" fill="#1e1e1e"/>
      <path d="M157.77,258.25h-1v-.94h0a2,2,0,0,1-1.85,1.08,2,2,0,0,1-1.4-.48,1.62,1.62,0,0,1-.51-1.26c0-1.12.66-1.77,2-2l1.8-.25c0-1-.41-1.53-1.24-1.53a3,3,0,0,0-1.95.74v-1a3.68,3.68,0,0,1,2-.56c1.41,0,2.11.74,2.11,2.23Zm-1-3-1.45.2a2.25,2.25,0,0,0-1,.33,1,1,0,0,0-.34.84.92.92,0,0,0,.31.72,1.24,1.24,0,0,0,.83.28,1.55,1.55,0,0,0,1.18-.5,1.81,1.81,0,0,0,.47-1.27Z" fill="#1e1e1e"/>
      <path d="M163.67,258a3.1,3.1,0,0,1-1.64.42,2.72,2.72,0,0,1-2.07-.84,3,3,0,0,1-.79-2.16A3.33,3.33,0,0,1,160,253a3,3,0,0,1,2.27-.89,3.06,3.06,0,0,1,1.39.29v1a2.45,2.45,0,0,0-1.43-.47,2,2,0,0,0-1.51.66,2.51,2.51,0,0,0-.58,1.73,2.39,2.39,0,0,0,.55,1.67,1.92,1.92,0,0,0,1.48.61,2.45,2.45,0,0,0,1.48-.52Z" fill="#1e1e1e"/>
      <path d="M170.11,258.25h-1.35l-2.65-2.89h0v2.89h-1v-8.89h1V255h0l2.52-2.74h1.26l-2.78,2.89Z" fill="#1e1e1e"/>
      <path d="M175.94,258.25h-1v-.95h0a2,2,0,0,1-1.85,1.09c-1.43,0-2.15-.86-2.15-2.56v-3.58h1v3.43c0,1.26.48,1.9,1.45,1.9a1.5,1.5,0,0,0,1.16-.52,2,2,0,0,0,.45-1.36v-3.45h1Z" fill="#1e1e1e"/>
      <path d="M178.86,257.38h0V261h-1v-8.76h1v1.05h0a2.28,2.28,0,0,1,2.08-1.19,2.18,2.18,0,0,1,1.81.8,3.37,3.37,0,0,1,.65,2.16,3.71,3.71,0,0,1-.73,2.41,2.46,2.46,0,0,1-2,.91A2,2,0,0,1,178.86,257.38Zm0-2.42v.84a1.8,1.8,0,0,0,.48,1.26,1.65,1.65,0,0,0,1.23.52,1.6,1.6,0,0,0,1.37-.67,3.07,3.07,0,0,0,.5-1.86,2.41,2.41,0,0,0-.47-1.57,1.52,1.52,0,0,0-1.25-.57,1.71,1.71,0,0,0-1.35.59A2.13,2.13,0,0,0,178.84,255Z" fill="#1e1e1e"/>
      <path d="M192.71,258.25h-4.36v-8.41h1v7.52h3.37Z" fill="#1e1e1e"/>
      <path d="M194.36,250.72a.64.64,0,0,1-.44-.17.65.65,0,0,1,0-.9.6.6,0,0,1,.44-.18.61.61,0,0,1,.45.18.62.62,0,0,1,0,.89A.61.61,0,0,1,194.36,250.72Zm.47,7.53h-1v-6h1Z" fill="#1e1e1e"/>
      <path d="M201.76,258.25h-1v-3.43c0-1.27-.47-1.91-1.4-1.91a1.48,1.48,0,0,0-1.19.55,2,2,0,0,0-.47,1.36v3.43h-1v-6h1v1h0a2.15,2.15,0,0,1,2-1.13,1.85,1.85,0,0,1,1.51.63,2.88,2.88,0,0,1,.52,1.84Z" fill="#1e1e1e"/>
      <path d="M208.55,258.25H207.2l-2.65-2.89h0v2.89h-1v-8.89h1V255h0l2.52-2.74h1.26l-2.78,2.89Z" fill="#1e1e1e"/>
    </g>
  </g>
</svg>
