<svg xmlns="http://www.w3.org/2000/svg" xmlns:xlink="http://www.w3.org/1999/xlink" viewBox="0 0 488.89 197.57">
  <defs>
    <linearGradient id="linear-gradient" x1="20.44" y1="636.82" x2="20.44" y2="606.98" gradientTransform="matrix(1, 0, 0, -1, 0, 639.14)" gradientUnits="userSpaceOnUse">
      <stop offset="0" stop-color="#5ea0ef"/>
      <stop offset="0.18" stop-color="#559cec"/>
      <stop offset="0.47" stop-color="#3c91e5"/>
      <stop offset="0.84" stop-color="#1380da"/>
      <stop offset="1" stop-color="#0078d4"/>
    </linearGradient>
    <linearGradient id="linear-gradient-2" x1="15.45" y1="606.66" x2="15.45" y2="621.12" gradientTransform="matrix(1, 0, 0, -1, 0, 639.14)" gradientUnits="userSpaceOnUse">
      <stop offset="0" stop-color="#198ab3"/>
      <stop offset="0.14" stop-color="#22a5cb"/>
      <stop offset="0.3" stop-color="#29bade"/>
      <stop offset="0.47" stop-color="#2ec9eb"/>
      <stop offset="0.68" stop-color="#31d1f3"/>
      <stop offset="1" stop-color="#32d4f5"/>
    </linearGradient>
    <linearGradient id="linear-gradient-3" x1="46.89" y1="470.82" x2="46.89" y2="486.82" gradientTransform="matrix(1, 0, 0, -1, 0, 639.14)" gradientUnits="userSpaceOnUse">
      <stop offset="0" stop-color="#0078d4"/>
      <stop offset="0.16" stop-color="#1380da"/>
      <stop offset="0.53" stop-color="#3c91e5"/>
      <stop offset="0.82" stop-color="#559cec"/>
      <stop offset="1" stop-color="#5ea0ef"/>
    </linearGradient>
    <linearGradient id="linear-gradient-4" x1="240.98" y1="469.22" x2="240.98" y2="452.63" gradientTransform="matrix(1, 0, 0, -1, 0, 639.14)" gradientUnits="userSpaceOnUse">
      <stop offset="0.22" stop-color="#32d4f5"/>
      <stop offset="0.47" stop-color="#31d1f3"/>
      <stop offset="0.63" stop-color="#2ec9eb"/>
      <stop offset="0.77" stop-color="#29bade"/>
      <stop offset="0.89" stop-color="#22a5cb"/>
      <stop offset="1" stop-color="#198ab3"/>
    </linearGradient>
    <linearGradient id="linear-gradient-5" x1="240.57" y1="478.09" x2="241.78" y2="463.04" xlink:href="#linear-gradient-4"/>
    <linearGradient id="linear-gradient-6" x1="412.93" y1="469.22" x2="412.93" y2="452.63" xlink:href="#linear-gradient-4"/>
    <linearGradient id="linear-gradient-7" x1="412.52" y1="478.09" x2="413.73" y2="463.04" xlink:href="#linear-gradient-4"/>
  </defs>
  <g id="Shapes">
    <rect width="488.89" height="197.57" fill="#fff"/>
    <g>
      <rect x="18.89" y="17.32" width="310" height="180" fill="#fff"/>
      <rect x="18.89" y="17.32" width="310" height="180" fill="#0072c6" opacity="0.05"/>
      <rect x="18.89" y="17.32" width="310" height="180" fill="none" stroke="#0072c6" stroke-miterlimit="10" stroke-width="0.5" opacity="0.6"/>
    </g>
    <g id="b1186d34-5ca3-4e43-992d-40ecef5e891b">
      <g>
        <path d="M28.21,2.32H12.69a1,1,0,0,0-1,1V25.42a18.94,18.94,0,0,1,2.51-1.77h2.94l1.63,2.16v3.28l-2.05,1.49-2.85-.35-2.18-2.06v3a1,1,0,0,0,1,1H28.21a1,1,0,0,0,1-1V3.31A1,1,0,0,0,28.21,2.32Z" fill="url(#linear-gradient)"/>
        <path id="af47f827-8b1b-4acd-8974-8eafe35490c9" d="M14,5.42h2.85a.25.25,0,0,1,.25.25h0V9.35a.25.25,0,0,1-.25.25H14a.25.25,0,0,1-.25-.25h0V5.67A.25.25,0,0,1,14,5.42Zm5,0h2.86a.25.25,0,0,1,.24.25h0V9.35a.25.25,0,0,1-.24.25H19a.25.25,0,0,1-.25-.25h0V5.67A.25.25,0,0,1,19,5.42Zm5,0H26.9a.25.25,0,0,1,.25.25h0V9.35a.25.25,0,0,1-.25.25H24a.25.25,0,0,1-.24-.25h0V5.67A.25.25,0,0,1,24,5.42ZM14,12.08h2.85a.25.25,0,0,1,.25.25h0v3.72a.25.25,0,0,1-.25.25H14a.25.25,0,0,1-.25-.25h0V12.37a.25.25,0,0,1,.21-.29Zm5,0h2.86a.25.25,0,0,1,.24.25h0v3.72a.25.25,0,0,1-.24.25H19a.25.25,0,0,1-.25-.25h0V12.37a.26.26,0,0,1,.21-.29Zm5,0H26.9a.25.25,0,0,1,.25.25h0v3.72a.25.25,0,0,1-.25.25H24a.25.25,0,0,1-.24-.25h0V12.37a.25.25,0,0,1,.21-.29ZM14,18.81h2.85a.25.25,0,0,1,.25.25h0v3.65a.25.25,0,0,1-.25.25H14a.25.25,0,0,1-.25-.25V19.06A.25.25,0,0,1,14,18.81Zm5,0h2.86a.25.25,0,0,1,.24.25h0v3.65a.25.25,0,0,1-.24.25H19a.25.25,0,0,1-.25-.25h0V19.06A.26.26,0,0,1,19,18.81Zm0,6.7h2.86a.25.25,0,0,1,.24.25h0v5.46a.25.25,0,0,1-.24.25H19a.25.25,0,0,1-.25-.25V25.76a.25.25,0,0,1,.25-.25Zm5-6.7H26.9a.26.26,0,0,1,.25.25h0v3.65a.25.25,0,0,1-.25.25H24a.25.25,0,0,1-.24-.25h0V19.06A.25.25,0,0,1,24,18.81Z" fill="#f2f2f2"/>
        <path d="M15.49,24.48a2.32,2.32,0,0,0-2.2,1.78h-8a4.9,4.9,0,0,0-.15,1.15v.1h8.12a2.28,2.28,0,1,0,2.2-3Z" fill="#50e6ff"/>
        <path d="M21.69,23.53a5.78,5.78,0,0,0-6-5.51A5.93,5.93,0,0,0,10,21.88a5.64,5.64,0,0,0-4.5,3.54h7.34A3,3,0,1,1,12.78,28H5.3a5.67,5.67,0,0,0,5.63,4.29H21A4.65,4.65,0,0,0,25.6,28,4.6,4.6,0,0,0,21.69,23.53Z" fill="url(#linear-gradient-2)"/>
        <path d="M15.49,24.48a2.32,2.32,0,0,0-2.2,1.78h-8a4,4,0,0,1-.84-.11,4,4,0,0,1,.45-7.94h.39l.12-.35a4.52,4.52,0,0,1,4.36-3,4.67,4.67,0,0,1,4,2.25,5.38,5.38,0,0,1,1.33-.16,5.89,5.89,0,0,0-5.32-3.35A5.79,5.79,0,0,0,4.38,17,5.21,5.21,0,0,0,4,27.23H4a3.53,3.53,0,0,0,1.29.21h8a2.29,2.29,0,0,0,4.37-1.34A2.3,2.3,0,0,0,15.49,24.48Z" fill="#50e6ff"/>
      </g>
    </g>
    <rect x="33.89" y="87.32" width="115" height="55" fill="#fff" stroke="#75757a" stroke-miterlimit="10" stroke-opacity="0.3" stroke-width="0.5"/>
    <rect x="33.89" y="56.77" width="115" height="25.05" fill="#fff" stroke="#75757a" stroke-miterlimit="10" stroke-opacity="0.3" stroke-width="0.5"/>
    <g>
      <rect x="173.89" y="57.32" width="115" height="55" fill="#fff"/>
      <rect x="173.89" y="57.32" width="115" height="55" fill="#0072c6" opacity="0.25"/>
    </g>
    <g>
      <rect x="173.89" y="127.32" width="145" height="60" fill="#fff"/>
      <rect x="173.89" y="127.32" width="145" height="60" fill="#0072c6" opacity="0.25"/>
    </g>
    <g>
      <rect x="173.89" y="26.77" width="115" height="25.05" fill="#fff"/>
      <rect x="173.89" y="26.77" width="115" height="25.05" fill="#0072c6" opacity="0.25"/>
    </g>
    <rect x="33.89" y="147.32" width="115" height="25.05" fill="#fff" stroke="#75757a" stroke-miterlimit="10" stroke-opacity="0.3" stroke-width="0.5"/>
    <g>
      <g>
        <path d="M28.89,106.38a.16.16,0,0,0,.08.14l1.16.65,1.95,1.13a.17.17,0,0,0,.23-.06l.66-1.12a.16.16,0,0,0-.06-.21l-2.29-1.3a.16.16,0,0,1-.08-.14V95.18a.16.16,0,0,1,.08-.14l2.29-1.29a.16.16,0,0,0,.06-.21l-.66-1.12a.17.17,0,0,0-.22-.08h0l-1.91,1.11-1.2.67a.14.14,0,0,0-.08.13Z" fill="#949494"/>
        <path d="M30.53,95.1l.06-.06,2.29-1.29a.15.15,0,0,0,.08-.19l0,0-.66-1.12a.14.14,0,0,0-.19-.09h0l-1.92,1.11L29,94.12a.06.06,0,0,0-.06.06l.9.5Z" fill="#a3a3a3"/>
        <path d="M32.88,106.89l-2.29-1.3a.16.16,0,0,1-.07-.09l-1.62,1H29l1.15.65,2,1.11a.17.17,0,0,0,.21,0v0l.66-1.12a.14.14,0,0,0-.07-.18Z" fill="#a3a3a3"/>
      </g>
      <path d="M45.85,106.38a.16.16,0,0,1-.08.14l-1.16.65-2,1.13a.17.17,0,0,1-.23-.06l-.66-1.12a.16.16,0,0,1,.06-.21l2.29-1.3a.16.16,0,0,0,.08-.14V95.18a.16.16,0,0,0-.08-.14l-2.29-1.29a.16.16,0,0,1-.06-.21l.66-1.12a.17.17,0,0,1,.22-.08h0l1.91,1.09,1.2.67a.14.14,0,0,1,.08.13Z" fill="#949494"/>
      <path d="M44.21,95.1,44.15,95l-2.29-1.29a.15.15,0,0,1-.08-.19l0,0,.66-1.12a.14.14,0,0,1,.19-.09h0l1.92,1.09,1.19.67.06.06-.9.5Z" fill="#a3a3a3"/>
      <path d="M41.86,106.89l2.29-1.3a.16.16,0,0,0,.07-.09l1.62,1h0l-1.15.65-2,1.11a.17.17,0,0,1-.21,0v0l-.66-1.12A.14.14,0,0,1,41.86,106.89Z" fill="#a3a3a3"/>
      <polygon points="42.66 97.26 42.66 103.38 37.36 106.46 37.36 100.33 42.66 97.26" fill="#32bedd"/>
      <polygon points="42.66 97.26 37.37 100.34 32.06 97.26 37.37 94.17 42.66 97.26" fill="#9cebff"/>
      <polygon points="37.36 100.34 37.36 106.46 32.06 103.38 32.06 97.26 37.36 100.34" fill="#50e6ff"/>
      <polygon points="32.06 103.38 37.36 100.33 37.36 106.46 32.06 103.38" fill="#9cebff"/>
      <polygon points="42.66 103.38 37.36 100.33 37.36 106.46 42.66 103.38" fill="#50e6ff"/>
    </g>
    <path d="M44.49,163.52h4.8v4.8h-4.8Zm-5.6-6.4h4.8v-4.8H39.56a.67.67,0,0,0-.67.67Zm.67,11.2h4.13v-4.8h-4.8v4.13a.67.67,0,0,0,.67.67Zm-.67-5.6h4.8v-4.8h-4.8Zm11.2,5.6h4.13a.67.67,0,0,0,.67-.67h0v-4.13h-4.8Zm-5.6-5.6h4.8v-4.8h-4.8Zm5.6,0h4.8v-4.8h-4.8Zm0-10.4v4.8h4.8V153a.67.67,0,0,0-.67-.67H50.09Zm-5.6,4.8h4.8v-4.8h-4.8Z" fill="url(#linear-gradient-3)"/>
    <g>
      <line x1="149.53" y1="68.32" x2="168.51" y2="68.32" fill="none" stroke="#3c3c41" stroke-miterlimit="10"/>
      <polygon points="167.42 72.06 173.89 68.32 167.42 64.58 167.42 72.06" fill="#3c3c41"/>
    </g>
    <g>
      <line x1="289.53" y1="82.32" x2="368.51" y2="82.32" fill="none" stroke="#3c3c41" stroke-miterlimit="10"/>
      <polygon points="367.42 86.06 373.89 82.32 367.42 78.58 367.42 86.06" fill="#3c3c41"/>
    </g>
    <g>
      <line x1="231.39" y1="112.32" x2="231.39" y2="113.07" fill="none" stroke="#3c3c41" stroke-miterlimit="10"/>
      <line x1="231.39" y1="116.19" x2="231.39" y2="119.63" fill="none" stroke="#3c3c41" stroke-miterlimit="10" stroke-dasharray="1.87 3.12"/>
      <line x1="231.39" y1="121.19" x2="231.39" y2="121.94" fill="none" stroke="#3c3c41" stroke-miterlimit="10"/>
      <polygon points="227.65 120.84 231.39 127.32 235.13 120.84 227.65 120.84" fill="#3c3c41"/>
    </g>
    <g>
      <line x1="431.39" y1="112.32" x2="431.39" y2="113.07" fill="none" stroke="#3c3c41" stroke-miterlimit="10"/>
      <line x1="431.39" y1="116.19" x2="431.39" y2="119.63" fill="none" stroke="#3c3c41" stroke-miterlimit="10" stroke-dasharray="1.87 3.12"/>
      <line x1="431.39" y1="121.19" x2="431.39" y2="121.94" fill="none" stroke="#3c3c41" stroke-miterlimit="10"/>
      <polygon points="427.65 120.84 431.39 127.32 435.13 120.84 427.65 120.84" fill="#3c3c41"/>
    </g>
    <g>
      <line x1="149.53" y1="92.32" x2="168.51" y2="92.32" fill="none" stroke="#3c3c41" stroke-miterlimit="10"/>
      <polygon points="167.42 96.06 173.89 92.32 167.42 88.58 167.42 96.06" fill="#3c3c41"/>
    </g>
    <g>
      <path d="M148.89,157.32h7a3,3,0,0,0,3-3v-49a3,3,0,0,1,3-3h6.62" fill="none" stroke="#3c3c41" stroke-miterlimit="10"/>
      <polygon points="167.42 106.06 173.89 102.32 167.42 98.58 167.42 106.06" fill="#3c3c41"/>
    </g>
    <g>
      <path d="M256.72,179.87a1.18,1.18,0,0,0,1.2-1.16v0a.63.63,0,0,0,0-.19c-.47-3.74-2.6-6.79-6.67-6.79s-6.26,2.63-6.68,6.79a1.21,1.21,0,0,0,1.08,1.31h11.1Z" fill="#0078d4"/>
      <path d="M251.24,172.66a3.77,3.77,0,0,1-2-.6l2,5.26,2-5.22A3.84,3.84,0,0,1,251.24,172.66Z" fill="#fff" opacity="0.8" style="isolation: isolate"/>
      <circle cx="251.24" cy="168.9" r="3.75" fill="#0078d4"/>
      <path d="M249.2,183.52a1.78,1.78,0,0,0,1.78-1.78.74.74,0,0,0,0-.21c-.7-5.59-3.88-10.13-9.95-10.13s-9.39,3.86-10.05,10.09a1.81,1.81,0,0,0,1.6,2h16.59Z" fill="url(#linear-gradient-4)"/>
      <path d="M241.1,172.73a5.58,5.58,0,0,1-3-.9l3,7.85,3-7.79A5.72,5.72,0,0,1,241.1,172.73Z" fill="#fff" opacity="0.8" style="isolation: isolate"/>
      <circle cx="241.06" cy="167.13" r="5.6" fill="url(#linear-gradient-5)"/>
    </g>
    <g>
      <rect x="373.89" y="57.32" width="115" height="55" fill="#fff"/>
      <rect x="373.89" y="57.32" width="115" height="55" fill="#0072c6" opacity="0.25"/>
    </g>
    <g>
      <rect x="343.89" y="127.32" width="145" height="60" fill="#fff"/>
      <rect x="343.89" y="127.32" width="145" height="60" fill="#0072c6" opacity="0.25"/>
    </g>
    <g>
      <path d="M428.67,179.87a1.17,1.17,0,0,0,1.19-1.16v0a.32.32,0,0,0,0-.19c-.46-3.74-2.6-6.79-6.66-6.79s-6.26,2.63-6.68,6.79a1.2,1.2,0,0,0,1.07,1.31h11.11Z" fill="#0078d4"/>
      <path d="M423.18,172.66a3.74,3.74,0,0,1-2-.6l2,5.26,2-5.22A3.85,3.85,0,0,1,423.18,172.66Z" fill="#fff" opacity="0.8" style="isolation: isolate"/>
      <circle cx="423.18" cy="168.9" r="3.75" fill="#0078d4"/>
      <path d="M421.15,183.52a1.78,1.78,0,0,0,1.78-1.78.74.74,0,0,0,0-.21c-.7-5.59-3.89-10.13-10-10.13s-9.38,3.86-10,10.09a1.81,1.81,0,0,0,1.6,2h16.59Z" fill="url(#linear-gradient-6)"/>
      <path d="M413.05,172.73a5.58,5.58,0,0,1-3-.9l3,7.85,3-7.79A5.75,5.75,0,0,1,413.05,172.73Z" fill="#fff" opacity="0.8" style="isolation: isolate"/>
      <circle cx="413" cy="167.13" r="5.6" fill="url(#linear-gradient-7)"/>
    </g>
    <g>
      <line x1="288.89" y1="44.04" x2="289.64" y2="44.04" fill="none" stroke="#3c3c41" stroke-miterlimit="10"/>
      <path d="M292.16,44h13.63a3,3,0,0,1,3,3v72.89" fill="none" stroke="#3c3c41" stroke-miterlimit="10" stroke-dasharray="1.51 2.51"/>
      <line x1="308.79" y1="121.19" x2="308.79" y2="121.94" fill="none" stroke="#3c3c41" stroke-miterlimit="10"/>
      <polygon points="305.05 120.84 308.79 127.32 312.52 120.84 305.05 120.84" fill="#3c3c41"/>
    </g>
    <g>
      <line x1="288.89" y1="34.82" x2="289.64" y2="34.82" fill="none" stroke="#3c3c41" stroke-miterlimit="10"/>
      <path d="M292.12,34.82h58.77a3,3,0,0,1,3,3V120" fill="none" stroke="#3c3c41" stroke-miterlimit="10" stroke-dasharray="1.49 2.48"/>
      <line x1="353.89" y1="121.19" x2="353.89" y2="121.94" fill="none" stroke="#3c3c41" stroke-miterlimit="10"/>
      <polygon points="350.15 120.84 353.89 127.32 357.63 120.84 350.15 120.84" fill="#3c3c41"/>
    </g>
  </g>
  <g id="Text">
    <g>
      <path d="M41.5,10.2H40.41l-.89-2.35H36l-.84,2.35H34l3.23-8.4h1ZM39.2,7,37.88,3.38a2.59,2.59,0,0,1-.13-.56h0a3.23,3.23,0,0,1-.14.56L36.28,7Z" fill="#1e1e1e"/>
      <path d="M46.79,4.48l-3.55,4.9h3.51v.82H41.83V9.9L45.38,5H42.16V4.2h4.63Z" fill="#1e1e1e"/>
      <path d="M52.88,10.2h-1V9.25h0a2,2,0,0,1-1.85,1.09c-1.43,0-2.15-.85-2.15-2.55V4.2h1V7.63c0,1.27.48,1.9,1.45,1.9A1.46,1.46,0,0,0,51.47,9a2,2,0,0,0,.45-1.35V4.2h1Z" fill="#1e1e1e"/>
      <path d="M58,5.17A1.16,1.16,0,0,0,57.23,5a1.21,1.21,0,0,0-1,.58,2.64,2.64,0,0,0-.42,1.58V10.2h-1v-6h1V5.44h0a2.08,2.08,0,0,1,.62-1A1.63,1.63,0,0,1,58,4.18Z" fill="#1e1e1e"/>
      <path d="M63.82,7.44H59.58A2.3,2.3,0,0,0,60.12,9a1.87,1.87,0,0,0,1.42.54,3,3,0,0,0,1.86-.66v.9a3.5,3.5,0,0,1-2.09.57,2.53,2.53,0,0,1-2-.82,3.36,3.36,0,0,1-.73-2.3,3.29,3.29,0,0,1,.8-2.28,2.54,2.54,0,0,1,2-.88,2.24,2.24,0,0,1,1.82.76,3.2,3.2,0,0,1,.65,2.12Zm-1-.81a1.91,1.91,0,0,0-.4-1.3,1.36,1.36,0,0,0-1.1-.46,1.54,1.54,0,0,0-1.15.49,2.19,2.19,0,0,0-.59,1.27Z" fill="#1e1e1e"/>
      <path d="M68.29,9.86V8.7a2.86,2.86,0,0,0,.48.32,3.8,3.8,0,0,0,.59.23A3.3,3.3,0,0,0,70,9.4a2.91,2.91,0,0,0,.57.06,2.29,2.29,0,0,0,1.36-.34,1.15,1.15,0,0,0,.44-1,1.13,1.13,0,0,0-.15-.59,1.47,1.47,0,0,0-.41-.46,3.91,3.91,0,0,0-.62-.4l-.78-.4-.82-.45a3.4,3.4,0,0,1-.66-.51,1.89,1.89,0,0,1-.6-1.44,1.93,1.93,0,0,1,.25-1,2.32,2.32,0,0,1,.66-.7,3,3,0,0,1,.93-.41,4.29,4.29,0,0,1,1.07-.13A4,4,0,0,1,73,2v1.1a3.29,3.29,0,0,0-1.91-.51,2.79,2.79,0,0,0-.64.07,1.45,1.45,0,0,0-.57.22,1.18,1.18,0,0,0-.41.39,1,1,0,0,0-.16.58,1.22,1.22,0,0,0,.12.56,1.41,1.41,0,0,0,.35.43,3.75,3.75,0,0,0,.57.37l.78.4c.3.15.59.31.85.47a4,4,0,0,1,.71.55,2.36,2.36,0,0,1,.49.66,1.84,1.84,0,0,1,.18.83,2.15,2.15,0,0,1-.25,1.05,2,2,0,0,1-.65.7,2.94,2.94,0,0,1-1,.39,5.15,5.15,0,0,1-1.13.12l-.49,0-.6-.09c-.21-.05-.4-.1-.58-.16A1.65,1.65,0,0,1,68.29,9.86Z" fill="#1e1e1e"/>
      <path d="M77.33,10.14a1.82,1.82,0,0,1-.9.19c-1.05,0-1.57-.59-1.57-1.76V5h-1V4.2h1V2.74l1-.31V4.2h1.51V5H75.82V8.4a1.45,1.45,0,0,0,.2.86.81.81,0,0,0,.68.26,1,1,0,0,0,.63-.2Z" fill="#1e1e1e"/>
      <path d="M82.91,10.2H82V9.26h0a2.2,2.2,0,0,1-3.25.61,1.68,1.68,0,0,1-.5-1.26c0-1.12.66-1.78,2-2L82,6.4c0-1-.42-1.53-1.24-1.53a3,3,0,0,0-2,.74v-1a3.76,3.76,0,0,1,2-.56c1.41,0,2.12.75,2.12,2.24Zm-1-3-1.45.2a2.3,2.3,0,0,0-1,.33.93.93,0,0,0-.34.84.92.92,0,0,0,.31.71,1.2,1.2,0,0,0,.84.28A1.51,1.51,0,0,0,81.48,9,1.78,1.78,0,0,0,82,7.76Z" fill="#1e1e1e"/>
      <path d="M88.81,9.93a3.19,3.19,0,0,1-1.64.41,2.72,2.72,0,0,1-2.07-.83,3,3,0,0,1-.79-2.17A3.3,3.3,0,0,1,85.16,5a3,3,0,0,1,2.26-.9,3.24,3.24,0,0,1,1.4.29v1a2.47,2.47,0,0,0-1.43-.47,1.93,1.93,0,0,0-1.51.66,2.5,2.5,0,0,0-.59,1.73,2.36,2.36,0,0,0,.56,1.66,1.87,1.87,0,0,0,1.48.61A2.41,2.41,0,0,0,88.81,9Z" fill="#1e1e1e"/>
      <path d="M95.24,10.2H93.89L91.25,7.32h0V10.2h-1V1.32h1V7h0L93.76,4.2H95L92.24,7.1Z" fill="#1e1e1e"/>
      <path d="M106,10.2h-1V6.37h-4.34V10.2h-1V1.8h1V5.48H105V1.8h1Z" fill="#1e1e1e"/>
      <path d="M112.88,10.2h-1V9.25h0a2,2,0,0,1-1.85,1.09c-1.43,0-2.15-.85-2.15-2.55V4.2h1V7.63c0,1.27.48,1.9,1.45,1.9A1.46,1.46,0,0,0,111.47,9a2,2,0,0,0,.45-1.35V4.2h1Z" fill="#1e1e1e"/>
      <path d="M115.81,9.33h0v.87h-1V1.32h1V5.26h0a2.26,2.26,0,0,1,2.07-1.2,2.2,2.2,0,0,1,1.81.81A3.33,3.33,0,0,1,120.34,7a3.72,3.72,0,0,1-.73,2.41,2.45,2.45,0,0,1-2,.9A2,2,0,0,1,115.81,9.33Zm0-2.42v.84A1.78,1.78,0,0,0,116.27,9a1.72,1.72,0,0,0,2.59-.14,3.09,3.09,0,0,0,.5-1.86,2.47,2.47,0,0,0-.46-1.57,1.54,1.54,0,0,0-1.26-.57,1.7,1.7,0,0,0-1.35.58A2.15,2.15,0,0,0,115.78,6.91Z" fill="#1e1e1e"/>
    </g>
    <g>
      <path d="M58.15,104.25H57.06l-.89-2.36H52.61l-.84,2.36h-1.1l3.23-8.41h1ZM55.85,101l-1.32-3.58a3.55,3.55,0,0,1-.13-.57h0a3.38,3.38,0,0,1-.14.57L52.94,101Z" fill="#1e1e1e"/>
      <path d="M63.44,98.52l-3.55,4.91h3.52v.82H58.48V104L62,99.07H58.81v-.82h4.63Z" fill="#1e1e1e"/>
      <path d="M69.54,104.25h-1v-1h0a2,2,0,0,1-1.85,1.09c-1.43,0-2.15-.85-2.15-2.56V98.25h1v3.43c0,1.27.48,1.9,1.45,1.9a1.46,1.46,0,0,0,1.16-.52,2,2,0,0,0,.45-1.36V98.25h1Z" fill="#1e1e1e"/>
      <path d="M74.6,99.22a1.14,1.14,0,0,0-.72-.19,1.21,1.21,0,0,0-1,.58,2.62,2.62,0,0,0-.41,1.58v3.06h-1v-6h1v1.23h0a2,2,0,0,1,.63-1,1.4,1.4,0,0,1,.94-.36,1.65,1.65,0,0,1,.57.08Z" fill="#1e1e1e"/>
      <path d="M80.47,101.49H76.23a2.27,2.27,0,0,0,.54,1.54,1.85,1.85,0,0,0,1.42.55,2.89,2.89,0,0,0,1.86-.67v.9a3.41,3.41,0,0,1-2.09.58,2.56,2.56,0,0,1-2-.82,3.37,3.37,0,0,1-.72-2.3A3.28,3.28,0,0,1,76,99a2.54,2.54,0,0,1,2-.88,2.24,2.24,0,0,1,1.82.76,3.15,3.15,0,0,1,.65,2.11Zm-1-.82a1.9,1.9,0,0,0-.4-1.29,1.36,1.36,0,0,0-1.1-.47,1.57,1.57,0,0,0-1.15.49,2.22,2.22,0,0,0-.59,1.27Z" fill="#1e1e1e"/>
      <path d="M91.36,104.25H90.19l-1.41-2.36a6.05,6.05,0,0,0-.37-.56A2.69,2.69,0,0,0,88,101a1.45,1.45,0,0,0-.41-.21,1.59,1.59,0,0,0-.5-.07h-.81v3.58h-1V95.84h2.51a3.62,3.62,0,0,1,1,.14,2.23,2.23,0,0,1,.81.42,2,2,0,0,1,.54.7,2.32,2.32,0,0,1,.19,1,2.37,2.37,0,0,1-.13.81,2,2,0,0,1-.38.65,2.13,2.13,0,0,1-.58.49,2.76,2.76,0,0,1-.77.31v0a1.55,1.55,0,0,1,.36.21,1.64,1.64,0,0,1,.3.29,3,3,0,0,1,.28.37l.31.48Zm-5-7.52v3h1.34a2.15,2.15,0,0,0,.68-.11,1.46,1.46,0,0,0,.54-.32,1.43,1.43,0,0,0,.36-.51,1.65,1.65,0,0,0,.13-.68,1.32,1.32,0,0,0-.44-1,1.88,1.88,0,0,0-1.26-.38Z" fill="#1e1e1e"/>
      <path d="M96.86,101.49H92.62a2.27,2.27,0,0,0,.54,1.54,1.84,1.84,0,0,0,1.42.55,2.93,2.93,0,0,0,1.86-.67v.9a3.43,3.43,0,0,1-2.09.58,2.56,2.56,0,0,1-2-.82,3.37,3.37,0,0,1-.73-2.3,3.29,3.29,0,0,1,.8-2.28,2.54,2.54,0,0,1,2-.88,2.24,2.24,0,0,1,1.82.76,3.15,3.15,0,0,1,.65,2.11Zm-1-.82a1.9,1.9,0,0,0-.4-1.29,1.36,1.36,0,0,0-1.1-.47,1.57,1.57,0,0,0-1.15.49,2.22,2.22,0,0,0-.59,1.27Z" fill="#1e1e1e"/>
      <path d="M98,104v-1a2.88,2.88,0,0,0,1.73.58c.84,0,1.26-.28,1.26-.85a.65.65,0,0,0-.11-.4,1.17,1.17,0,0,0-.29-.3,2.86,2.86,0,0,0-.43-.23l-.54-.21c-.27-.11-.5-.22-.7-.32a2,2,0,0,1-.5-.37,1.21,1.21,0,0,1-.31-.46,1.57,1.57,0,0,1-.1-.6,1.44,1.44,0,0,1,.19-.75,1.67,1.67,0,0,1,.52-.54,2.21,2.21,0,0,1,.73-.33,3.07,3.07,0,0,1,.86-.11,3.59,3.59,0,0,1,1.39.26v1a2.71,2.71,0,0,0-1.52-.44,1.53,1.53,0,0,0-.49.07,1.05,1.05,0,0,0-.37.17.62.62,0,0,0-.24.27.64.64,0,0,0-.09.34.8.8,0,0,0,.09.39.74.74,0,0,0,.25.28,1.67,1.67,0,0,0,.4.22l.53.22c.26.1.5.21.71.31a2.44,2.44,0,0,1,.54.37,1.41,1.41,0,0,1,.35.46,1.54,1.54,0,0,1,.12.63,1.45,1.45,0,0,1-.2.77,1.74,1.74,0,0,1-.53.55,2.43,2.43,0,0,1-.75.32,3.76,3.76,0,0,1-.9.11A3.37,3.37,0,0,1,98,104Z" fill="#1e1e1e"/>
      <path d="M105.91,104.39a2.77,2.77,0,0,1-2.12-.84,3.12,3.12,0,0,1-.8-2.23,3.23,3.23,0,0,1,.83-2.36,3,3,0,0,1,2.23-.85,2.71,2.71,0,0,1,2.1.82,3.29,3.29,0,0,1,.75,2.29,3.21,3.21,0,0,1-.81,2.3A2.84,2.84,0,0,1,105.91,104.39Zm.07-5.48a1.8,1.8,0,0,0-1.46.63,2.59,2.59,0,0,0-.54,1.74,2.46,2.46,0,0,0,.54,1.68,1.85,1.85,0,0,0,1.46.62,1.73,1.73,0,0,0,1.43-.61,2.57,2.57,0,0,0,.5-1.71,2.65,2.65,0,0,0-.5-1.74A1.76,1.76,0,0,0,106,98.91Z" fill="#1e1e1e"/>
      <path d="M115.29,104.25h-1v-1h0a2,2,0,0,1-1.85,1.09c-1.43,0-2.15-.85-2.15-2.56V98.25h1v3.43c0,1.27.48,1.9,1.45,1.9a1.46,1.46,0,0,0,1.16-.52,2,2,0,0,0,.45-1.36V98.25h1Z" fill="#1e1e1e"/>
      <path d="M120.35,99.22a1.14,1.14,0,0,0-.72-.19,1.21,1.21,0,0,0-1,.58,2.62,2.62,0,0,0-.41,1.58v3.06h-1v-6h1v1.23h0a2,2,0,0,1,.63-1,1.4,1.4,0,0,1,.94-.36,1.65,1.65,0,0,1,.57.08Z" fill="#1e1e1e"/>
      <path d="M125.49,104a3.1,3.1,0,0,1-1.64.42,2.73,2.73,0,0,1-2.08-.84,3,3,0,0,1-.78-2.16,3.33,3.33,0,0,1,.85-2.39,3,3,0,0,1,2.26-.89,3.1,3.1,0,0,1,1.4.29v1a2.47,2.47,0,0,0-1.43-.47,1.92,1.92,0,0,0-1.51.66,2.52,2.52,0,0,0-.59,1.73,2.43,2.43,0,0,0,.55,1.67,1.94,1.94,0,0,0,1.49.61,2.47,2.47,0,0,0,1.48-.52Z" fill="#1e1e1e"/>
      <path d="M131.76,101.49h-4.23a2.22,2.22,0,0,0,.53,1.54,1.85,1.85,0,0,0,1.42.55,2.94,2.94,0,0,0,1.87-.67v.9a3.46,3.46,0,0,1-2.1.58,2.54,2.54,0,0,1-2-.82,3.33,3.33,0,0,1-.73-2.3,3.28,3.28,0,0,1,.79-2.28,2.54,2.54,0,0,1,2-.88,2.26,2.26,0,0,1,1.83.76,3.15,3.15,0,0,1,.64,2.11Zm-1-.82a2,2,0,0,0-.4-1.29,1.38,1.38,0,0,0-1.1-.47,1.58,1.58,0,0,0-1.16.49,2.21,2.21,0,0,0-.58,1.27Z" fill="#1e1e1e"/>
      <path d="M65.79,116.75h-1v-5.64c0-.45,0-1,.08-1.64h0a5.64,5.64,0,0,1-.25.82l-2.87,6.46h-.48l-2.87-6.41a5.84,5.84,0,0,1-.25-.87h0c0,.34,0,.89,0,1.65v5.63h-1v-8.41h1.31l2.57,5.86a7.92,7.92,0,0,1,.39,1h0c.16-.46.3-.8.4-1l2.63-5.84h1.23Z" fill="#1e1e1e"/>
      <path d="M72.17,116.75h-1v-.94h0a2,2,0,0,1-1.84,1.08,2,2,0,0,1-1.41-.48,1.61,1.61,0,0,1-.5-1.26q0-1.68,2-2l1.79-.26q0-1.53-1.23-1.53a3,3,0,0,0-2,.74v-1a3.68,3.68,0,0,1,2-.56c1.41,0,2.12.74,2.12,2.23Zm-1-3-1.44.2a2.3,2.3,0,0,0-1,.33,1,1,0,0,0-.34.84.92.92,0,0,0,.31.72,1.2,1.2,0,0,0,.84.28,1.55,1.55,0,0,0,1.18-.5,1.8,1.8,0,0,0,.46-1.27Z" fill="#1e1e1e"/>
      <path d="M79,116.75H78v-3.43c0-1.27-.47-1.91-1.4-1.91a1.48,1.48,0,0,0-1.19.55,2,2,0,0,0-.47,1.36v3.43H74v-6h1v1h0a2.15,2.15,0,0,1,2-1.13,1.85,1.85,0,0,1,1.51.63,2.9,2.9,0,0,1,.52,1.84Z" fill="#1e1e1e"/>
      <path d="M85.06,116.75h-1v-.94h0a2,2,0,0,1-1.85,1.08,2,2,0,0,1-1.4-.48,1.62,1.62,0,0,1-.51-1.26q0-1.68,2-2l1.8-.26q0-1.53-1.23-1.53a3,3,0,0,0-2,.74v-1a3.68,3.68,0,0,1,2-.56c1.41,0,2.11.74,2.11,2.23Zm-1-3-1.45.2a2.25,2.25,0,0,0-1,.33,1,1,0,0,0-.34.84.92.92,0,0,0,.31.72,1.19,1.19,0,0,0,.83.28,1.57,1.57,0,0,0,1.19-.5,1.8,1.8,0,0,0,.46-1.27Z" fill="#1e1e1e"/>
      <path d="M92,116.27q0,3.3-3.16,3.3a4.31,4.31,0,0,1-2-.42v-1a4.06,4.06,0,0,0,1.94.56c1.47,0,2.21-.79,2.21-2.36v-.65h0a2.42,2.42,0,0,1-3.86.35,3.19,3.19,0,0,1-.69-2.15,3.73,3.73,0,0,1,.74-2.43,2.46,2.46,0,0,1,2-.9,2,2,0,0,1,1.8,1h0v-.83h1ZM91,114v-.88a1.73,1.73,0,0,0-.48-1.23,1.58,1.58,0,0,0-1.2-.51,1.68,1.68,0,0,0-1.4.65,2.93,2.93,0,0,0-.5,1.81,2.51,2.51,0,0,0,.48,1.61,1.56,1.56,0,0,0,1.28.6,1.67,1.67,0,0,0,1.32-.58A2.16,2.16,0,0,0,91,114Z" fill="#1e1e1e"/>
      <path d="M98.76,114H94.53a2.22,2.22,0,0,0,.53,1.54,1.85,1.85,0,0,0,1.42.55,2.94,2.94,0,0,0,1.87-.67v.9a3.46,3.46,0,0,1-2.1.58,2.54,2.54,0,0,1-2-.82,3.33,3.33,0,0,1-.73-2.3,3.28,3.28,0,0,1,.79-2.28,2.54,2.54,0,0,1,2-.88,2.26,2.26,0,0,1,1.83.76,3.15,3.15,0,0,1,.64,2.11Zm-1-.82a2,2,0,0,0-.4-1.29,1.38,1.38,0,0,0-1.1-.47,1.58,1.58,0,0,0-1.16.49,2.21,2.21,0,0,0-.58,1.27Z" fill="#1e1e1e"/>
      <path d="M103.34,111.72a1.14,1.14,0,0,0-.72-.19,1.21,1.21,0,0,0-1,.58,2.62,2.62,0,0,0-.41,1.58v3.06h-1v-6h1V112h0a2,2,0,0,1,.63-1,1.4,1.4,0,0,1,.94-.36,1.65,1.65,0,0,1,.57.08Z" fill="#1e1e1e"/>
      <path d="M112,116.75h-1v-.94h0a2,2,0,0,1-1.84,1.08,1.93,1.93,0,0,1-1.4-.48,1.62,1.62,0,0,1-.51-1.26q0-1.68,2-2l1.8-.26c0-1-.41-1.53-1.24-1.53a3,3,0,0,0-2,.74v-1a3.68,3.68,0,0,1,2-.56c1.41,0,2.12.74,2.12,2.23Zm-1-3-1.45.2a2.35,2.35,0,0,0-1,.33,1,1,0,0,0-.34.84.93.93,0,0,0,.32.72,1.18,1.18,0,0,0,.83.28,1.55,1.55,0,0,0,1.18-.5,1.81,1.81,0,0,0,.47-1.27Z" fill="#1e1e1e"/>
      <path d="M118.76,116.75h-1v-3.43c0-1.27-.47-1.91-1.4-1.91a1.5,1.5,0,0,0-1.19.55,2,2,0,0,0-.47,1.36v3.43h-1v-6h1v1h0a2.16,2.16,0,0,1,2-1.13,1.85,1.85,0,0,1,1.51.63,2.84,2.84,0,0,1,.52,1.84Z" fill="#1e1e1e"/>
      <path d="M125.69,116.75h-1v-1h0a2.42,2.42,0,0,1-3.87.35,3.32,3.32,0,0,1-.68-2.19,3.6,3.6,0,0,1,.75-2.39,2.47,2.47,0,0,1,2-.89,1.93,1.93,0,0,1,1.8,1h0v-3.72h1Zm-1-2.72v-.88a1.7,1.7,0,0,0-.48-1.23,1.61,1.61,0,0,0-1.22-.51,1.66,1.66,0,0,0-1.38.65,2.79,2.79,0,0,0-.51,1.78,2.56,2.56,0,0,0,.49,1.64,1.57,1.57,0,0,0,1.3.6,1.66,1.66,0,0,0,1.3-.58A2.2,2.2,0,0,0,124.73,114Z" fill="#1e1e1e"/>
      <path d="M46.42,124.22a1.18,1.18,0,0,0-.73-.19,1.23,1.23,0,0,0-1,.58,2.7,2.7,0,0,0-.41,1.58v3.06h-1v-6h1v1.23h0a2.09,2.09,0,0,1,.63-1,1.42,1.42,0,0,1,.94-.36,1.75,1.75,0,0,1,.58.08Z" fill="#1e1e1e"/>
      <path d="M52.28,126.49H48.05a2.22,2.22,0,0,0,.53,1.54,1.85,1.85,0,0,0,1.42.55,2.94,2.94,0,0,0,1.87-.67v.9a3.46,3.46,0,0,1-2.1.58,2.54,2.54,0,0,1-2-.82,3.33,3.33,0,0,1-.73-2.3,3.28,3.28,0,0,1,.79-2.28,2.55,2.55,0,0,1,2-.88,2.25,2.25,0,0,1,1.82.76,3.15,3.15,0,0,1,.64,2.11Zm-1-.82a2,2,0,0,0-.4-1.29,1.38,1.38,0,0,0-1.1-.47,1.58,1.58,0,0,0-1.16.49,2.21,2.21,0,0,0-.58,1.27Z" fill="#1e1e1e"/>
      <path d="M53.37,129v-1a2.9,2.9,0,0,0,1.73.58c.84,0,1.27-.28,1.27-.85a.72.72,0,0,0-.11-.4,1.07,1.07,0,0,0-.3-.3,2.44,2.44,0,0,0-.43-.23l-.53-.21c-.27-.11-.5-.22-.71-.32a2.16,2.16,0,0,1-.5-.37,1.19,1.19,0,0,1-.3-.46,1.57,1.57,0,0,1-.11-.6,1.45,1.45,0,0,1,.2-.75,1.75,1.75,0,0,1,.51-.54,2.26,2.26,0,0,1,.74-.33,3,3,0,0,1,.85-.11,3.68,3.68,0,0,1,1.4.26v1a2.74,2.74,0,0,0-1.53-.44,1.43,1.43,0,0,0-.48.07,1.1,1.1,0,0,0-.38.17.78.78,0,0,0-.24.27.74.74,0,0,0-.08.34.93.93,0,0,0,.08.39.83.83,0,0,0,.25.28,1.67,1.67,0,0,0,.4.22l.53.22c.27.1.51.21.72.31a2.44,2.44,0,0,1,.54.37,1.38,1.38,0,0,1,.34.46,1.54,1.54,0,0,1,.12.63,1.36,1.36,0,0,1-.2.77,1.7,1.7,0,0,1-.52.55,2.49,2.49,0,0,1-.76.32,3.68,3.68,0,0,1-.89.11A3.41,3.41,0,0,1,53.37,129Z" fill="#1e1e1e"/>
      <path d="M61.33,129.39a2.79,2.79,0,0,1-2.12-.84,3.12,3.12,0,0,1-.79-2.23,3.23,3.23,0,0,1,.82-2.36,3,3,0,0,1,2.24-.85,2.68,2.68,0,0,1,2.09.82,3.29,3.29,0,0,1,.75,2.29,3.21,3.21,0,0,1-.81,2.3A2.83,2.83,0,0,1,61.33,129.39Zm.08-5.48a1.84,1.84,0,0,0-1.47.63,2.59,2.59,0,0,0-.54,1.74A2.41,2.41,0,0,0,60,128a1.85,1.85,0,0,0,1.46.62,1.74,1.74,0,0,0,1.43-.61,2.62,2.62,0,0,0,.5-1.71,2.71,2.71,0,0,0-.5-1.74A1.77,1.77,0,0,0,61.41,123.91Z" fill="#1e1e1e"/>
      <path d="M70.71,129.25h-1v-.95h0a2,2,0,0,1-1.86,1.09c-1.43,0-2.14-.85-2.14-2.56v-3.58h1v3.43c0,1.27.49,1.9,1.46,1.9a1.44,1.44,0,0,0,1.15-.52,2,2,0,0,0,.46-1.36v-3.45h1Z" fill="#1e1e1e"/>
      <path d="M75.78,124.22a1.18,1.18,0,0,0-.73-.19,1.23,1.23,0,0,0-1,.58,2.7,2.7,0,0,0-.41,1.58v3.06h-1v-6h1v1.23h0a2.09,2.09,0,0,1,.63-1,1.42,1.42,0,0,1,.94-.36,1.71,1.71,0,0,1,.58.08Z" fill="#1e1e1e"/>
      <path d="M80.91,129a3.1,3.1,0,0,1-1.64.42,2.69,2.69,0,0,1-2.07-.84,3,3,0,0,1-.79-2.16,3.33,3.33,0,0,1,.85-2.39,3,3,0,0,1,2.27-.89,3.06,3.06,0,0,1,1.39.29v1a2.45,2.45,0,0,0-1.43-.47,2,2,0,0,0-1.51.66,2.51,2.51,0,0,0-.58,1.73A2.39,2.39,0,0,0,78,128a1.92,1.92,0,0,0,1.48.61,2.45,2.45,0,0,0,1.48-.52Z" fill="#1e1e1e"/>
      <path d="M87.19,126.49H83a2.27,2.27,0,0,0,.54,1.54,1.84,1.84,0,0,0,1.42.55,2.93,2.93,0,0,0,1.86-.67v.9a3.43,3.43,0,0,1-2.09.58,2.55,2.55,0,0,1-2-.82,3.37,3.37,0,0,1-.73-2.3,3.29,3.29,0,0,1,.8-2.28,2.53,2.53,0,0,1,2-.88,2.25,2.25,0,0,1,1.82.76,3.15,3.15,0,0,1,.65,2.11Zm-1-.82a2,2,0,0,0-.4-1.29,1.36,1.36,0,0,0-1.1-.47,1.56,1.56,0,0,0-1.15.49,2.22,2.22,0,0,0-.59,1.27Z" fill="#1e1e1e"/>
      <path d="M92.91,128.38h0V132h-1v-8.76h1v1h0A2.27,2.27,0,0,1,95,123.11a2.2,2.2,0,0,1,1.81.8,3.37,3.37,0,0,1,.65,2.16,3.71,3.71,0,0,1-.74,2.41,2.43,2.43,0,0,1-2,.91A2,2,0,0,1,92.91,128.38Zm0-2.42v.84a1.8,1.8,0,0,0,.48,1.26,1.59,1.59,0,0,0,1.23.52,1.6,1.6,0,0,0,1.37-.67,3.07,3.07,0,0,0,.49-1.86,2.41,2.41,0,0,0-.46-1.57,1.53,1.53,0,0,0-1.25-.57,1.71,1.71,0,0,0-1.35.59A2.13,2.13,0,0,0,92.89,126Z" fill="#1e1e1e"/>
      <path d="M102.11,124.22a1.18,1.18,0,0,0-.73-.19,1.2,1.2,0,0,0-1,.58,2.62,2.62,0,0,0-.42,1.58v3.06H99v-6h1v1.23h0a2,2,0,0,1,.62-1,1.43,1.43,0,0,1,1-.36,1.65,1.65,0,0,1,.57.08Z" fill="#1e1e1e"/>
      <path d="M105.66,129.39a2.77,2.77,0,0,1-2.12-.84,3.12,3.12,0,0,1-.8-2.23,3.23,3.23,0,0,1,.83-2.36,3,3,0,0,1,2.23-.85,2.71,2.71,0,0,1,2.1.82,3.29,3.29,0,0,1,.75,2.29,3.21,3.21,0,0,1-.81,2.3A2.84,2.84,0,0,1,105.66,129.39Zm.07-5.48a1.81,1.81,0,0,0-1.46.63,2.59,2.59,0,0,0-.54,1.74,2.46,2.46,0,0,0,.54,1.68,1.87,1.87,0,0,0,1.46.62,1.73,1.73,0,0,0,1.43-.61,2.57,2.57,0,0,0,.5-1.71,2.65,2.65,0,0,0-.5-1.74A1.76,1.76,0,0,0,105.73,123.91Z" fill="#1e1e1e"/>
      <path d="M114.9,123.25l-2.39,6h-.94l-2.28-6h1.06l1.52,4.36a3.25,3.25,0,0,1,.21.83h0a4.41,4.41,0,0,1,.18-.81l1.6-4.38Z" fill="#1e1e1e"/>
      <path d="M116.42,121.72a.61.61,0,0,1-.43-.17.63.63,0,0,1,.43-1.08.61.61,0,0,1,.45.18.58.58,0,0,1,.19.45.58.58,0,0,1-.19.44A.61.61,0,0,1,116.42,121.72Zm.47,7.53h-1v-6h1Z" fill="#1e1e1e"/>
      <path d="M124,129.25h-1v-1h0a2.42,2.42,0,0,1-3.87.35,3.26,3.26,0,0,1-.68-2.19,3.6,3.6,0,0,1,.75-2.39,2.45,2.45,0,0,1,2-.89,1.93,1.93,0,0,1,1.8,1h0v-3.72h1Zm-1-2.72v-.88a1.7,1.7,0,0,0-.48-1.23,1.61,1.61,0,0,0-1.22-.51,1.64,1.64,0,0,0-1.38.65,2.79,2.79,0,0,0-.51,1.78,2.51,2.51,0,0,0,.49,1.64,1.57,1.57,0,0,0,1.29.6,1.68,1.68,0,0,0,1.31-.58A2.2,2.2,0,0,0,123,126.53Z" fill="#1e1e1e"/>
      <path d="M130.73,126.49h-4.24A2.27,2.27,0,0,0,127,128a1.84,1.84,0,0,0,1.42.55,2.91,2.91,0,0,0,1.86-.67v.9a3.43,3.43,0,0,1-2.09.58,2.56,2.56,0,0,1-2-.82,3.37,3.37,0,0,1-.72-2.3,3.28,3.28,0,0,1,.79-2.28,2.54,2.54,0,0,1,2-.88,2.24,2.24,0,0,1,1.82.76,3.15,3.15,0,0,1,.65,2.11Zm-1-.82a1.9,1.9,0,0,0-.4-1.29,1.36,1.36,0,0,0-1.1-.47,1.57,1.57,0,0,0-1.15.49,2.22,2.22,0,0,0-.59,1.27Z" fill="#1e1e1e"/>
      <path d="M135.31,124.22a1.18,1.18,0,0,0-.73-.19,1.23,1.23,0,0,0-1,.58,2.7,2.7,0,0,0-.41,1.58v3.06h-1v-6h1v1.23h0a2.09,2.09,0,0,1,.63-1,1.43,1.43,0,0,1,1-.36,1.65,1.65,0,0,1,.57.08Z" fill="#1e1e1e"/>
      <path d="M136,129v-1a2.88,2.88,0,0,0,1.73.58c.84,0,1.26-.28,1.26-.85a.65.65,0,0,0-.11-.4,1.17,1.17,0,0,0-.29-.3,2.86,2.86,0,0,0-.43-.23l-.54-.21-.7-.32a2,2,0,0,1-.5-.37,1.21,1.21,0,0,1-.31-.46,1.79,1.79,0,0,1-.1-.6,1.55,1.55,0,0,1,.19-.75,1.78,1.78,0,0,1,.52-.54,2.17,2.17,0,0,1,.74-.33,3,3,0,0,1,.85-.11,3.59,3.59,0,0,1,1.39.26v1a2.71,2.71,0,0,0-1.52-.44,1.53,1.53,0,0,0-.49.07,1.05,1.05,0,0,0-.37.17.78.78,0,0,0-.24.27.63.63,0,0,0-.08.34.8.8,0,0,0,.08.39.83.83,0,0,0,.25.28,1.67,1.67,0,0,0,.4.22l.53.22c.27.1.5.21.72.31a2.16,2.16,0,0,1,.53.37,1.41,1.41,0,0,1,.35.46,1.54,1.54,0,0,1,.12.63,1.45,1.45,0,0,1-.2.77,1.7,1.7,0,0,1-.52.55,2.49,2.49,0,0,1-.76.32,3.7,3.7,0,0,1-.9.11A3.37,3.37,0,0,1,136,129Z" fill="#1e1e1e"/>
    </g>
    <g>
      <path d="M75.66,70.53V73.7h-1V65.3H77a3,3,0,0,1,2.09.66,2.34,2.34,0,0,1,.74,1.85,2.52,2.52,0,0,1-.82,2,3.15,3.15,0,0,1-2.23.77Zm0-4.34v3.44h1a2.3,2.3,0,0,0,1.55-.46,1.65,1.65,0,0,0,.54-1.32c0-1.11-.66-1.66-2-1.66Z" fill="#1e1e1e"/>
      <path d="M83.33,73.84A2.79,2.79,0,0,1,81.2,73a3.1,3.1,0,0,1-.79-2.23,3.24,3.24,0,0,1,.82-2.36,3,3,0,0,1,2.24-.85,2.69,2.69,0,0,1,2.09.83A3.77,3.77,0,0,1,85.5,73,2.85,2.85,0,0,1,83.33,73.84Zm.07-5.47a1.84,1.84,0,0,0-1.47.63,2.59,2.59,0,0,0-.54,1.74,2.41,2.41,0,0,0,.55,1.68A1.85,1.85,0,0,0,83.4,73a1.77,1.77,0,0,0,1.43-.6,2.63,2.63,0,0,0,.5-1.72,2.66,2.66,0,0,0-.5-1.73A1.74,1.74,0,0,0,83.4,68.37Z" fill="#1e1e1e"/>
      <path d="M91,68.67a1.18,1.18,0,0,0-.73-.19,1.23,1.23,0,0,0-1,.58,2.72,2.72,0,0,0-.41,1.58V73.7h-1v-6h1v1.24h0a2.17,2.17,0,0,1,.63-1,1.41,1.41,0,0,1,.94-.35,1.52,1.52,0,0,1,.58.08Z" fill="#1e1e1e"/>
      <path d="M94.8,73.64a1.76,1.76,0,0,1-.89.19c-1,0-1.58-.59-1.58-1.76V68.52h-1V67.7h1V66.24l1-.31V67.7H94.8v.82H93.29V71.9a1.37,1.37,0,0,0,.21.86.78.78,0,0,0,.68.26.94.94,0,0,0,.62-.2Z" fill="#1e1e1e"/>
      <path d="M100.38,73.7h-1v-.94h0a2,2,0,0,1-1.85,1.08,2,2,0,0,1-1.4-.47,1.65,1.65,0,0,1-.51-1.26c0-1.12.66-1.78,2-2l1.8-.25c0-1-.41-1.53-1.24-1.53a3,3,0,0,0-2,.74v-1a3.76,3.76,0,0,1,2-.56c1.41,0,2.11.75,2.11,2.24Zm-1-3-1.45.2a2.25,2.25,0,0,0-1,.33.93.93,0,0,0-.34.84.89.89,0,0,0,.31.71,1.19,1.19,0,0,0,.83.28,1.51,1.51,0,0,0,1.18-.5,1.74,1.74,0,0,0,.47-1.27Z" fill="#1e1e1e"/>
      <path d="M103.15,73.7h-1V64.82h1Z" fill="#1e1e1e"/>
      <path d="M104.74,73.48v-1a2.79,2.79,0,0,0,1.72.58c.85,0,1.27-.28,1.27-.84a.76.76,0,0,0-.11-.41,1,1,0,0,0-.29-.29,2.28,2.28,0,0,0-.44-.24l-.53-.21a5.16,5.16,0,0,1-.7-.32,2.55,2.55,0,0,1-.51-.36,1.52,1.52,0,0,1-.3-.46,1.59,1.59,0,0,1-.1-.61,1.38,1.38,0,0,1,.19-.74,1.7,1.7,0,0,1,.52-.55,2.71,2.71,0,0,1,.73-.33,3.59,3.59,0,0,1,2.25.16v1a2.71,2.71,0,0,0-1.53-.43,1.8,1.8,0,0,0-.48.06,1.15,1.15,0,0,0-.37.17.76.76,0,0,0-.24.27.67.67,0,0,0-.09.34.82.82,0,0,0,.09.4.92.92,0,0,0,.25.28,2,2,0,0,0,.39.22l.54.22a6.85,6.85,0,0,1,.71.31,2.82,2.82,0,0,1,.54.36,1.41,1.41,0,0,1,.34.47,1.48,1.48,0,0,1,.12.63,1.49,1.49,0,0,1-.19.77,1.61,1.61,0,0,1-.53.54,2.32,2.32,0,0,1-.75.33,3.82,3.82,0,0,1-.9.1A3.34,3.34,0,0,1,104.74,73.48Z" fill="#1e1e1e"/>
    </g>
    <g>
      <path d="M197.85,85.86V84.7a2.42,2.42,0,0,0,.47.32,3.8,3.8,0,0,0,.59.23,3.3,3.3,0,0,0,.62.15,3,3,0,0,0,.57.06,2.29,2.29,0,0,0,1.36-.34,1.26,1.26,0,0,0,.3-1.56,1.64,1.64,0,0,0-.42-.46,3.91,3.91,0,0,0-.62-.4l-.78-.4-.82-.45a3.4,3.4,0,0,1-.66-.51,2.06,2.06,0,0,1-.44-.62,1.91,1.91,0,0,1-.16-.82,1.93,1.93,0,0,1,.25-1,2.32,2.32,0,0,1,.66-.7,3.08,3.08,0,0,1,.94-.41,4.24,4.24,0,0,1,1.07-.13,4.11,4.11,0,0,1,1.81.3v1.1a3.33,3.33,0,0,0-1.91-.51,2.88,2.88,0,0,0-.65.07,1.51,1.51,0,0,0-.57.22,1.18,1.18,0,0,0-.41.39,1,1,0,0,0-.16.58,1.22,1.22,0,0,0,.12.56,1.41,1.41,0,0,0,.35.43,3.75,3.75,0,0,0,.57.37l.78.4c.3.15.59.31.86.47a4.46,4.46,0,0,1,.71.55,2.53,2.53,0,0,1,.48.66,1.84,1.84,0,0,1,.18.83,2,2,0,0,1-.25,1,2,2,0,0,1-.65.7,2.88,2.88,0,0,1-.95.39,5.24,5.24,0,0,1-1.14.12l-.49,0q-.3,0-.6-.09c-.2,0-.4-.1-.58-.16A1.44,1.44,0,0,1,197.85,85.86Z" fill="#1e1e1e"/>
      <path d="M206.88,86.14a1.8,1.8,0,0,1-.9.19c-1,0-1.57-.59-1.57-1.76V81h-1V80.2h1V78.74l1-.31V80.2h1.51V81h-1.51V84.4a1.45,1.45,0,0,0,.2.86.81.81,0,0,0,.68.26,1,1,0,0,0,.63-.2Z" fill="#1e1e1e"/>
      <path d="M212.46,86.2h-1v-.94h0a2,2,0,0,1-1.84,1.08,2,2,0,0,1-1.4-.47,1.65,1.65,0,0,1-.51-1.26c0-1.12.66-1.78,2-2l1.8-.25c0-1-.41-1.53-1.24-1.53a3,3,0,0,0-2,.74v-1a3.76,3.76,0,0,1,2-.56c1.41,0,2.12.75,2.12,2.24Zm-1-3-1.45.2a2.35,2.35,0,0,0-1,.33,1,1,0,0,0-.34.84.9.9,0,0,0,.32.71,1.18,1.18,0,0,0,.83.28A1.51,1.51,0,0,0,211,85a1.78,1.78,0,0,0,.47-1.27Z" fill="#1e1e1e"/>
      <path d="M222.79,86.2h-1V82.76a2.58,2.58,0,0,0-.31-1.45,1.17,1.17,0,0,0-1-.44,1.3,1.3,0,0,0-1.05.56,2.16,2.16,0,0,0-.43,1.35V86.2h-1V82.64c0-1.18-.46-1.77-1.37-1.77a1.27,1.27,0,0,0-1,.53,2.2,2.2,0,0,0-.41,1.38V86.2h-1v-6h1v1h0a2,2,0,0,1,1.87-1.09,1.73,1.73,0,0,1,1.07.34,1.81,1.81,0,0,1,.63.9,2.13,2.13,0,0,1,2-1.24c1.32,0,2,.81,2,2.44Z" fill="#1e1e1e"/>
      <path d="M225.59,85.33h0V89h-1V80.2h1v1.06h0a2.26,2.26,0,0,1,2.07-1.2,2.18,2.18,0,0,1,1.81.81,3.28,3.28,0,0,1,.65,2.16,3.72,3.72,0,0,1-.73,2.41,2.44,2.44,0,0,1-2,.9A2,2,0,0,1,225.59,85.33Zm0-2.42v.84a1.77,1.77,0,0,0,.48,1.26,1.59,1.59,0,0,0,1.23.52,1.62,1.62,0,0,0,1.37-.66,3.09,3.09,0,0,0,.49-1.86,2.41,2.41,0,0,0-.46-1.57,1.54,1.54,0,0,0-1.26-.57,1.69,1.69,0,0,0-1.34.58A2.15,2.15,0,0,0,225.57,82.91Z" fill="#1e1e1e"/>
      <path d="M241.58,86.2h-1.09l-.89-2.35H236l-.84,2.35h-1.1l3.23-8.4h1ZM239.28,83,238,79.38a3.38,3.38,0,0,1-.13-.56h0a3.23,3.23,0,0,1-.14.56L236.37,83Z" fill="#1e1e1e"/>
      <path d="M242.82,86.2V77.8h2.32q4.44,0,4.44,4.09A4.11,4.11,0,0,1,248.34,85,4.55,4.55,0,0,1,245,86.2Zm1-7.51v6.62h1.25a3.57,3.57,0,0,0,2.58-.88,3.34,3.34,0,0,0,.92-2.51q0-3.23-3.44-3.23Z" fill="#1e1e1e"/>
      <path d="M258.78,78.69H255.5V81.6h3v.88h-3V86.2h-1V77.8h4.26Z" fill="#1e1e1e"/>
      <path d="M260,85.86V84.7a2.86,2.86,0,0,0,.48.32,3.8,3.8,0,0,0,.59.23,3.3,3.3,0,0,0,.62.15,2.91,2.91,0,0,0,.57.06,2.29,2.29,0,0,0,1.36-.34,1.3,1.3,0,0,0,.3-1.56,1.64,1.64,0,0,0-.42-.46,3.91,3.91,0,0,0-.62-.4l-.78-.4-.82-.45a3.4,3.4,0,0,1-.66-.51,1.89,1.89,0,0,1-.6-1.44,1.93,1.93,0,0,1,.25-1,2.32,2.32,0,0,1,.66-.7,3.13,3.13,0,0,1,.93-.41,4.29,4.29,0,0,1,1.07-.13,4,4,0,0,1,1.81.3v1.1a3.29,3.29,0,0,0-1.91-.51,2.79,2.79,0,0,0-.64.07,1.45,1.45,0,0,0-.57.22,1.18,1.18,0,0,0-.41.39,1,1,0,0,0-.16.58,1.22,1.22,0,0,0,.12.56,1.41,1.41,0,0,0,.35.43,3.75,3.75,0,0,0,.57.37l.78.4c.3.15.59.31.85.47a4,4,0,0,1,.71.55,2.36,2.36,0,0,1,.49.66,1.84,1.84,0,0,1,.18.83,2,2,0,0,1-.25,1,2,2,0,0,1-.65.7,2.94,2.94,0,0,1-1,.39,5.09,5.09,0,0,1-1.13.12l-.49,0q-.3,0-.6-.09c-.21,0-.4-.1-.58-.16A1.65,1.65,0,0,1,260,85.86Z" fill="#1e1e1e"/>
    </g>
    <g>
      <path d="M221.29,140.86V139.7a2.23,2.23,0,0,0,.48.32,3.69,3.69,0,0,0,.58.23,3.5,3.5,0,0,0,.62.15,3.07,3.07,0,0,0,.57.06,2.29,2.29,0,0,0,1.36-.34,1.26,1.26,0,0,0,.3-1.56,1.76,1.76,0,0,0-.41-.46,4.57,4.57,0,0,0-.63-.4l-.77-.4c-.3-.15-.57-.3-.82-.45a3.2,3.2,0,0,1-.67-.51,2.26,2.26,0,0,1-.44-.62,1.91,1.91,0,0,1-.16-.82,1.93,1.93,0,0,1,.25-1,2.32,2.32,0,0,1,.66-.7,3.19,3.19,0,0,1,.94-.41,4.29,4.29,0,0,1,1.07-.13,4.08,4.08,0,0,1,1.81.3v1.1a3.31,3.31,0,0,0-1.91-.51,2.88,2.88,0,0,0-.65.07,1.58,1.58,0,0,0-.57.22,1.27,1.27,0,0,0-.41.39,1,1,0,0,0-.16.58,1.22,1.22,0,0,0,.12.56,1.31,1.31,0,0,0,.36.43,3,3,0,0,0,.57.37c.22.12.48.26.77.4s.59.31.86.47a4,4,0,0,1,.71.55,2.53,2.53,0,0,1,.48.66,1.84,1.84,0,0,1,.18.83,2.14,2.14,0,0,1-.24,1,1.93,1.93,0,0,1-.66.7,2.8,2.8,0,0,1-.95.39,5.24,5.24,0,0,1-1.14.12l-.49,0-.6-.09-.57-.16A1.51,1.51,0,0,1,221.29,140.86Z" fill="#1e1e1e"/>
      <path d="M230.32,141.14a1.76,1.76,0,0,1-.89.19c-1.05,0-1.58-.59-1.58-1.76V136h-1v-.82h1v-1.46l1-.31v1.77h1.51V136h-1.51v3.38a1.37,1.37,0,0,0,.21.86.78.78,0,0,0,.68.26.94.94,0,0,0,.62-.2Z" fill="#1e1e1e"/>
      <path d="M235.9,141.2h-1v-.94h0a2,2,0,0,1-1.85,1.08,2,2,0,0,1-1.4-.47,1.65,1.65,0,0,1-.51-1.26c0-1.12.66-1.78,2-2l1.8-.25c0-1-.41-1.53-1.24-1.53a3,3,0,0,0-1.95.74v-1a3.76,3.76,0,0,1,2-.56c1.41,0,2.11.75,2.11,2.24Zm-1-3-1.45.2a2.25,2.25,0,0,0-1,.33.93.93,0,0,0-.34.84.89.89,0,0,0,.31.71,1.19,1.19,0,0,0,.83.28,1.55,1.55,0,0,0,1.19-.5,1.77,1.77,0,0,0,.46-1.27Z" fill="#1e1e1e"/>
      <path d="M246.23,141.2h-1v-3.44a2.58,2.58,0,0,0-.31-1.45,1.17,1.17,0,0,0-1-.44,1.3,1.3,0,0,0-1.05.56,2.22,2.22,0,0,0-.43,1.35v3.42h-1v-3.56c0-1.18-.45-1.77-1.36-1.77a1.28,1.28,0,0,0-1,.53,2.2,2.2,0,0,0-.41,1.38v3.42h-1v-6h1v1h0a2,2,0,0,1,1.86-1.09,1.73,1.73,0,0,1,1.7,1.24,2.13,2.13,0,0,1,2-1.24c1.32,0,2,.81,2,2.44Z" fill="#1e1e1e"/>
      <path d="M249,140.33h0V144h-1V135.2h1v1.06h0a2.29,2.29,0,0,1,2.08-1.2,2.2,2.2,0,0,1,1.81.81,3.33,3.33,0,0,1,.65,2.16,3.78,3.78,0,0,1-.73,2.41,2.46,2.46,0,0,1-2,.9A2,2,0,0,1,249,140.33Zm0-2.42v.84a1.77,1.77,0,0,0,.48,1.26,1.6,1.6,0,0,0,1.23.52,1.62,1.62,0,0,0,1.37-.66,3.09,3.09,0,0,0,.49-1.86,2.41,2.41,0,0,0-.46-1.57,1.53,1.53,0,0,0-1.25-.57,1.7,1.7,0,0,0-1.35.58A2.15,2.15,0,0,0,249,137.91Z" fill="#1e1e1e"/>
      <path d="M258.52,141.2v-8.4h2.32q4.44,0,4.44,4.09a4.14,4.14,0,0,1-1.23,3.13,4.57,4.57,0,0,1-3.3,1.18Zm1-7.51v6.62h1.26a3.55,3.55,0,0,0,2.57-.88,3.34,3.34,0,0,0,.92-2.51q0-3.22-3.43-3.23Z" fill="#1e1e1e"/>
      <path d="M266.54,140.86V139.7a2.23,2.23,0,0,0,.48.32,4.51,4.51,0,0,0,1.2.38,3.09,3.09,0,0,0,.58.06,2.27,2.27,0,0,0,1.35-.34,1.26,1.26,0,0,0,.3-1.56,1.76,1.76,0,0,0-.41-.46,4,4,0,0,0-.63-.4l-.77-.4c-.29-.15-.57-.3-.82-.45a2.89,2.89,0,0,1-.66-.51,2.1,2.1,0,0,1-.45-.62,2.07,2.07,0,0,1-.16-.82,2,2,0,0,1,.25-1,2.24,2.24,0,0,1,.67-.7,3,3,0,0,1,.93-.41,4.29,4.29,0,0,1,1.07-.13,4.08,4.08,0,0,1,1.81.3v1.1a3.29,3.29,0,0,0-1.91-.51,2.79,2.79,0,0,0-.64.07,1.56,1.56,0,0,0-.58.22,1.27,1.27,0,0,0-.41.39,1.07,1.07,0,0,0-.16.58,1.22,1.22,0,0,0,.12.56,1.31,1.31,0,0,0,.36.43,3.31,3.31,0,0,0,.57.37c.22.12.48.26.78.4s.58.31.85.47a4,4,0,0,1,.71.55,2.53,2.53,0,0,1,.48.66,1.84,1.84,0,0,1,.18.83,2.14,2.14,0,0,1-.24,1,1.93,1.93,0,0,1-.66.7,2.8,2.8,0,0,1-1,.39,5.24,5.24,0,0,1-1.14.12l-.49,0-.6-.09-.57-.16A1.65,1.65,0,0,1,266.54,140.86Z" fill="#1e1e1e"/>
      <path d="M187.71,153.7h-1v-.94h0a2.2,2.2,0,0,1-3.25.61,1.65,1.65,0,0,1-.51-1.26c0-1.12.66-1.78,2-2l1.8-.25q0-1.53-1.23-1.53a3,3,0,0,0-2,.74v-1a3.76,3.76,0,0,1,2-.56c1.41,0,2.11.75,2.11,2.24Zm-1-3-1.44.2a2.3,2.3,0,0,0-1,.33.93.93,0,0,0-.34.84.89.89,0,0,0,.31.71,1.2,1.2,0,0,0,.84.28,1.53,1.53,0,0,0,1.18-.5,1.77,1.77,0,0,0,.46-1.27Z" fill="#1e1e1e"/>
      <path d="M194.65,153.7h-1v-1h0a2.2,2.2,0,0,1-2.06,1.16,2.27,2.27,0,0,1-1.81-.8,3.32,3.32,0,0,1-.67-2.2,3.57,3.57,0,0,1,.75-2.38,2.46,2.46,0,0,1,2-.9,1.91,1.91,0,0,1,1.8,1h0v-3.71h1Zm-1-2.71v-.89a1.7,1.7,0,0,0-.49-1.23,1.61,1.61,0,0,0-1.21-.5,1.67,1.67,0,0,0-1.39.64,2.87,2.87,0,0,0-.5,1.78,2.54,2.54,0,0,0,.48,1.64,1.73,1.73,0,0,0,2.6,0A2.11,2.11,0,0,0,193.69,151Z" fill="#1e1e1e"/>
      <path d="M199.56,145.66a1.35,1.35,0,0,0-.64-.16c-.67,0-1,.43-1,1.28v.92h1.41v.82h-1.41v5.18h-1v-5.18h-1v-.82h1v-1a2,2,0,0,1,.55-1.49,1.82,1.82,0,0,1,1.36-.55,2,2,0,0,1,.7.1Z" fill="#1e1e1e"/>
      <path d="M200,153.48v-1a2.84,2.84,0,0,0,1.73.58c.85,0,1.27-.28,1.27-.84a.76.76,0,0,0-.11-.41,1,1,0,0,0-.29-.29,2.28,2.28,0,0,0-.44-.24l-.53-.21a5.16,5.16,0,0,1-.7-.32,2.55,2.55,0,0,1-.51-.36,1.52,1.52,0,0,1-.3-.46,1.59,1.59,0,0,1-.1-.61,1.38,1.38,0,0,1,.19-.74,1.78,1.78,0,0,1,.51-.55,2.77,2.77,0,0,1,.74-.33,3.59,3.59,0,0,1,2.25.16v1a2.71,2.71,0,0,0-1.53-.43,1.75,1.75,0,0,0-.48.06,1.15,1.15,0,0,0-.37.17.76.76,0,0,0-.24.27.67.67,0,0,0-.09.34.82.82,0,0,0,.09.4.88.88,0,0,0,.24.28,2.48,2.48,0,0,0,.4.22l.54.22a6.85,6.85,0,0,1,.71.31,2.82,2.82,0,0,1,.54.36,1.41,1.41,0,0,1,.34.47,1.48,1.48,0,0,1,.12.63,1.49,1.49,0,0,1-.19.77,1.61,1.61,0,0,1-.53.54,2.32,2.32,0,0,1-.75.33,3.82,3.82,0,0,1-.9.1A3.41,3.41,0,0,1,200,153.48Z" fill="#1e1e1e"/>
      <path d="M205.77,153.83a.62.62,0,0,1-.46-.19.68.68,0,0,1-.19-.47.66.66,0,0,1,.19-.46.67.67,0,0,1,1.13.46.65.65,0,0,1-.2.47A.63.63,0,0,1,205.77,153.83Z" fill="#1e1e1e"/>
      <path d="M212.34,153.7h-1v-.94h0a2.2,2.2,0,0,1-3.25.61,1.64,1.64,0,0,1-.5-1.26c0-1.12.66-1.78,2-2l1.79-.25q0-1.53-1.23-1.53a3,3,0,0,0-2,.74v-1a3.76,3.76,0,0,1,2-.56c1.41,0,2.12.75,2.12,2.24Zm-1-3-1.44.2a2.3,2.3,0,0,0-1,.33.93.93,0,0,0-.34.84.89.89,0,0,0,.31.71,1.2,1.2,0,0,0,.84.28,1.53,1.53,0,0,0,1.18-.5,1.77,1.77,0,0,0,.46-1.27Z" fill="#1e1e1e"/>
      <path d="M218.33,148l-3.55,4.9h3.51v.82h-4.92v-.3l3.55-4.88H213.7v-.82h4.63Z" fill="#1e1e1e"/>
      <path d="M224.42,153.7h-1v-.95h0a2,2,0,0,1-1.85,1.09c-1.43,0-2.15-.85-2.15-2.55V147.7h1v3.43c0,1.27.48,1.9,1.45,1.9a1.46,1.46,0,0,0,1.16-.52,2,2,0,0,0,.45-1.35V147.7h1Z" fill="#1e1e1e"/>
      <path d="M229.49,148.67a1.16,1.16,0,0,0-.72-.19,1.21,1.21,0,0,0-1,.58,2.64,2.64,0,0,0-.42,1.58v3.06h-1v-6h1v1.24h0a2.08,2.08,0,0,1,.62-1,1.63,1.63,0,0,1,1.52-.27Z" fill="#1e1e1e"/>
      <path d="M235.36,150.94h-4.24a2.3,2.3,0,0,0,.54,1.55,1.87,1.87,0,0,0,1.42.54,3,3,0,0,0,1.86-.66v.9a3.5,3.5,0,0,1-2.09.57,2.53,2.53,0,0,1-2-.82,3.36,3.36,0,0,1-.73-2.3,3.29,3.29,0,0,1,.8-2.28,2.54,2.54,0,0,1,2-.88,2.24,2.24,0,0,1,1.82.76,3.2,3.2,0,0,1,.65,2.12Zm-1-.81a1.91,1.91,0,0,0-.4-1.3,1.36,1.36,0,0,0-1.1-.46,1.54,1.54,0,0,0-1.15.49,2.19,2.19,0,0,0-.59,1.27Z" fill="#1e1e1e"/>
      <path d="M236.45,153.48v-1a2.82,2.82,0,0,0,1.73.58q1.26,0,1.26-.84a.68.68,0,0,0-.11-.41,1,1,0,0,0-.29-.29,2.19,2.19,0,0,0-.43-.24l-.54-.21a5.16,5.16,0,0,1-.7-.32,2.22,2.22,0,0,1-.5-.36,1.38,1.38,0,0,1-.31-.46,1.59,1.59,0,0,1-.1-.61,1.38,1.38,0,0,1,.19-.74,1.7,1.7,0,0,1,.52-.55,2.71,2.71,0,0,1,.73-.33,3.49,3.49,0,0,1,.86-.11,3.41,3.41,0,0,1,1.39.27v1a2.7,2.7,0,0,0-1.52-.43,1.88,1.88,0,0,0-.49.06,1.26,1.26,0,0,0-.37.17.76.76,0,0,0-.24.27.67.67,0,0,0-.09.34.82.82,0,0,0,.09.4.92.92,0,0,0,.25.28,2.11,2.11,0,0,0,.4.22l.53.22a6.85,6.85,0,0,1,.71.31,2.82,2.82,0,0,1,.54.36,1.45,1.45,0,0,1,.35.47,1.48,1.48,0,0,1,.12.63,1.5,1.5,0,0,1-.2.77,1.61,1.61,0,0,1-.53.54,2.22,2.22,0,0,1-.75.33,3.76,3.76,0,0,1-.9.1A3.37,3.37,0,0,1,236.45,153.48Z" fill="#1e1e1e"/>
      <path d="M244.69,153.64a1.82,1.82,0,0,1-.9.19c-1,0-1.58-.59-1.58-1.76v-3.55h-1v-.82h1v-1.46l1-.31v1.77h1.52v.82h-1.52v3.38a1.37,1.37,0,0,0,.21.86.8.8,0,0,0,.68.26,1,1,0,0,0,.63-.2Z" fill="#1e1e1e"/>
      <path d="M250.26,153.7h-1v-.94h0a2.2,2.2,0,0,1-3.25.61,1.65,1.65,0,0,1-.51-1.26c0-1.12.66-1.78,2-2l1.8-.25q0-1.53-1.23-1.53a3,3,0,0,0-2,.74v-1a3.76,3.76,0,0,1,2-.56c1.41,0,2.11.75,2.11,2.24Zm-1-3-1.44.2a2.25,2.25,0,0,0-1,.33.93.93,0,0,0-.34.84.89.89,0,0,0,.31.71,1.2,1.2,0,0,0,.84.28,1.53,1.53,0,0,0,1.18-.5,1.77,1.77,0,0,0,.46-1.27Z" fill="#1e1e1e"/>
      <path d="M256.16,153.43a3.17,3.17,0,0,1-1.64.41,2.75,2.75,0,0,1-2.07-.83,3.06,3.06,0,0,1-.79-2.17,3.35,3.35,0,0,1,.85-2.38,3,3,0,0,1,2.27-.9,3.27,3.27,0,0,1,1.4.29v1a2.49,2.49,0,0,0-1.43-.47,1.92,1.92,0,0,0-1.51.66,2.46,2.46,0,0,0-.59,1.73,2.36,2.36,0,0,0,.55,1.66,1.91,1.91,0,0,0,1.49.61,2.38,2.38,0,0,0,1.47-.52Z" fill="#1e1e1e"/>
      <path d="M262.6,153.7h-1.35l-2.65-2.88h0v2.88h-1v-8.88h1v5.63h0l2.52-2.75h1.26l-2.78,2.9Z" fill="#1e1e1e"/>
      <path d="M268.56,153.7h-1v-3.46c0-1.25-.46-1.87-1.39-1.87a1.53,1.53,0,0,0-1.19.54,2,2,0,0,0-.48,1.39v3.4h-1v-8.88h1v3.88h0a2.17,2.17,0,0,1,2-1.14c1.35,0,2,.81,2,2.44Z" fill="#1e1e1e"/>
      <path d="M275.22,153.7h-1v-.95h0a2,2,0,0,1-1.85,1.09c-1.43,0-2.15-.85-2.15-2.55V147.7h1v3.43c0,1.27.48,1.9,1.45,1.9a1.46,1.46,0,0,0,1.16-.52,2,2,0,0,0,.45-1.35V147.7h1Z" fill="#1e1e1e"/>
      <path d="M278.15,152.83h0v.87h-1v-8.88h1v3.94h0a2.26,2.26,0,0,1,2.07-1.2,2.2,2.2,0,0,1,1.81.81,3.28,3.28,0,0,1,.65,2.16,3.72,3.72,0,0,1-.73,2.41,2.45,2.45,0,0,1-2,.9A2,2,0,0,1,278.15,152.83Zm0-2.42v.84a1.78,1.78,0,0,0,.49,1.26,1.72,1.72,0,0,0,2.59-.14,3.09,3.09,0,0,0,.5-1.86,2.47,2.47,0,0,0-.46-1.57,1.54,1.54,0,0,0-1.26-.57,1.7,1.7,0,0,0-1.35.58A2.15,2.15,0,0,0,278.12,150.41Z" fill="#1e1e1e"/>
      <path d="M284.55,153.83a.62.62,0,0,1-.46-.19.68.68,0,0,1-.19-.47.66.66,0,0,1,.19-.46.64.64,0,0,1,.93,0,.62.62,0,0,1,.19.46.64.64,0,0,1-.19.47A.63.63,0,0,1,284.55,153.83Z" fill="#1e1e1e"/>
      <path d="M287.78,153.7h-1v-8.88h1Z" fill="#1e1e1e"/>
      <path d="M292.23,153.84a2.79,2.79,0,0,1-2.12-.84,3.1,3.1,0,0,1-.79-2.23,3.24,3.24,0,0,1,.82-2.36,3,3,0,0,1,2.23-.85,2.7,2.7,0,0,1,2.1.83,3.77,3.77,0,0,1-.06,4.59A2.87,2.87,0,0,1,292.23,153.84Zm.07-5.47a1.83,1.83,0,0,0-1.46.63,2.59,2.59,0,0,0-.54,1.74,2.41,2.41,0,0,0,.55,1.68,1.84,1.84,0,0,0,1.45.61,1.77,1.77,0,0,0,1.44-.6,2.63,2.63,0,0,0,.5-1.72,2.66,2.66,0,0,0-.5-1.73A1.75,1.75,0,0,0,292.3,148.37Z" fill="#1e1e1e"/>
      <path d="M300.85,153.43a3.19,3.19,0,0,1-1.64.41,2.72,2.72,0,0,1-2.07-.83,3,3,0,0,1-.79-2.17,3.3,3.3,0,0,1,.85-2.38,3,3,0,0,1,2.26-.9,3.24,3.24,0,0,1,1.4.29v1a2.47,2.47,0,0,0-1.43-.47,1.93,1.93,0,0,0-1.51.66,2.5,2.5,0,0,0-.59,1.73,2.36,2.36,0,0,0,.56,1.66,1.87,1.87,0,0,0,1.48.61,2.41,2.41,0,0,0,1.48-.52Z" fill="#1e1e1e"/>
      <path d="M306.6,153.7h-1v-.94h0a2.2,2.2,0,0,1-3.25.61,1.64,1.64,0,0,1-.5-1.26c0-1.12.66-1.78,2-2l1.79-.25q0-1.53-1.23-1.53a3,3,0,0,0-2,.74v-1a3.76,3.76,0,0,1,2-.56c1.41,0,2.12.75,2.12,2.24Zm-1-3-1.44.2a2.3,2.3,0,0,0-1,.33.93.93,0,0,0-.34.84.89.89,0,0,0,.31.71,1.2,1.2,0,0,0,.84.28,1.53,1.53,0,0,0,1.18-.5,1.77,1.77,0,0,0,.46-1.27Z" fill="#1e1e1e"/>
      <path d="M309.37,153.7h-1v-8.88h1Z" fill="#1e1e1e"/>
    </g>
    <g>
      <path d="M412.62,81.88a4.92,4.92,0,0,1-2.32.49,3.72,3.72,0,0,1-2.87-1.15,4.26,4.26,0,0,1-1.08-3,4.47,4.47,0,0,1,1.21-3.26,4.11,4.11,0,0,1,3.08-1.24,4.81,4.81,0,0,1,2,.35v1a4.09,4.09,0,0,0-2-.5,3,3,0,0,0-2.34,1,3.62,3.62,0,0,0-.9,2.58,3.49,3.49,0,0,0,.84,2.45,2.89,2.89,0,0,0,2.21.91,4.2,4.2,0,0,0,2.19-.56Z" fill="#1e1e1e"/>
      <path d="M419.05,82.23h-1v-1h0a2,2,0,0,1-1.86,1.09c-1.42,0-2.14-.85-2.14-2.55V76.23h1v3.44c0,1.26.48,1.89,1.45,1.89a1.5,1.5,0,0,0,1.16-.51,2,2,0,0,0,.45-1.36V76.23h1Z" fill="#1e1e1e"/>
      <path d="M420.63,82V81a2.82,2.82,0,0,0,1.73.58q1.26,0,1.26-.84a.76.76,0,0,0-.11-.41,1,1,0,0,0-.29-.29,1.76,1.76,0,0,0-.43-.23l-.54-.22a5.16,5.16,0,0,1-.7-.32,2,2,0,0,1-.5-.36,1.38,1.38,0,0,1-.31-.46,1.57,1.57,0,0,1-.1-.6,1.42,1.42,0,0,1,.19-.75,1.7,1.7,0,0,1,.52-.55,2.71,2.71,0,0,1,.73-.33,3.49,3.49,0,0,1,.86-.11,3.45,3.45,0,0,1,1.39.27v1a2.7,2.7,0,0,0-1.52-.43,1.83,1.83,0,0,0-.49.06,1.26,1.26,0,0,0-.37.17.76.76,0,0,0-.24.27.67.67,0,0,0-.09.34.78.78,0,0,0,.34.68,2.11,2.11,0,0,0,.4.22l.53.22a6.85,6.85,0,0,1,.71.31,2.82,2.82,0,0,1,.54.36,1.45,1.45,0,0,1,.35.47,1.64,1.64,0,0,1-.08,1.4,1.74,1.74,0,0,1-.53.55,2.43,2.43,0,0,1-.75.32,3.82,3.82,0,0,1-.9.1A3.49,3.49,0,0,1,420.63,82Z" fill="#1e1e1e"/>
      <path d="M428.87,82.17a1.82,1.82,0,0,1-.9.19c-1.05,0-1.58-.58-1.58-1.76V77.05h-1v-.82h1V74.77l1-.31v1.77h1.52v.82h-1.52v3.38a1.35,1.35,0,0,0,.21.86.8.8,0,0,0,.68.26,1,1,0,0,0,.63-.2Z" fill="#1e1e1e"/>
      <path d="M432.66,82.37a2.79,2.79,0,0,1-2.13-.84,3.1,3.1,0,0,1-.79-2.23,3.24,3.24,0,0,1,.82-2.36,3,3,0,0,1,2.24-.85,2.69,2.69,0,0,1,2.09.83,3.27,3.27,0,0,1,.75,2.29,3.23,3.23,0,0,1-.81,2.3A2.85,2.85,0,0,1,432.66,82.37Zm.07-5.47a1.84,1.84,0,0,0-1.47.63,2.59,2.59,0,0,0-.54,1.74,2.41,2.41,0,0,0,.55,1.68,1.85,1.85,0,0,0,1.46.61,1.75,1.75,0,0,0,1.43-.6,2.63,2.63,0,0,0,.5-1.72,2.68,2.68,0,0,0-.5-1.73A1.73,1.73,0,0,0,432.73,76.9Z" fill="#1e1e1e"/>
      <path d="M445.7,82.23h-1V78.79a2.52,2.52,0,0,0-.31-1.44,1.15,1.15,0,0,0-1-.45,1.3,1.3,0,0,0-1,.56,2.16,2.16,0,0,0-.43,1.35v3.42h-1V78.67c0-1.18-.46-1.77-1.37-1.77a1.27,1.27,0,0,0-1,.53,2.2,2.2,0,0,0-.41,1.38v3.42h-1v-6h1v1h0A2.06,2.06,0,0,1,440,76.09a1.73,1.73,0,0,1,1.7,1.24,2.15,2.15,0,0,1,2-1.24c1.32,0,2,.82,2,2.45Z" fill="#1e1e1e"/>
      <path d="M452.34,79.47H448.1a2.28,2.28,0,0,0,.54,1.55,1.87,1.87,0,0,0,1.42.54,3,3,0,0,0,1.86-.66v.9a3.5,3.5,0,0,1-2.09.57,2.56,2.56,0,0,1-2-.81,3.39,3.39,0,0,1-.72-2.3A3.29,3.29,0,0,1,447.9,77a2.58,2.58,0,0,1,2-.88,2.27,2.27,0,0,1,1.82.76,3.2,3.2,0,0,1,.65,2.12Zm-1-.81a1.91,1.91,0,0,0-.4-1.3,1.36,1.36,0,0,0-1.1-.46,1.54,1.54,0,0,0-1.15.49,2.19,2.19,0,0,0-.59,1.27Z" fill="#1e1e1e"/>
      <path d="M456.92,77.21a1.18,1.18,0,0,0-.73-.2,1.25,1.25,0,0,0-1,.58,2.74,2.74,0,0,0-.41,1.58v3.06h-1v-6h1v1.24h0a2.08,2.08,0,0,1,.62-1,1.47,1.47,0,0,1,1-.35,1.44,1.44,0,0,1,.57.08Z" fill="#1e1e1e"/>
      <path d="M423.16,94.73h-1.09l-.89-2.35h-3.56l-.84,2.35h-1.1l3.23-8.4h1Zm-2.3-3.24-1.32-3.58a3.38,3.38,0,0,1-.13-.56h0a3,3,0,0,1-.14.56L418,91.49Z" fill="#1e1e1e"/>
      <path d="M424.4,94.73v-8.4h2.32q4.44,0,4.44,4.1a4.13,4.13,0,0,1-1.23,3.12,4.59,4.59,0,0,1-3.31,1.18Zm1-7.51v6.62h1.26a3.56,3.56,0,0,0,2.57-.88,3.34,3.34,0,0,0,.92-2.51q0-3.23-3.44-3.23Z" fill="#1e1e1e"/>
      <path d="M440.36,87.22h-3.28v2.91h3V91h-3v3.72h-1v-8.4h4.26Z" fill="#1e1e1e"/>
      <path d="M441.57,94.39V93.23a2,2,0,0,0,.47.32,5.19,5.19,0,0,0,.59.24,6.23,6.23,0,0,0,.62.15,4,4,0,0,0,.57,0,2.22,2.22,0,0,0,1.36-.34,1.14,1.14,0,0,0,.45-1,1.15,1.15,0,0,0-.15-.59,1.64,1.64,0,0,0-.42-.46,3.91,3.91,0,0,0-.62-.4l-.78-.4-.82-.45a3.4,3.4,0,0,1-.66-.51,2.06,2.06,0,0,1-.44-.62,1.88,1.88,0,0,1-.16-.82,1.93,1.93,0,0,1,.25-1,2.32,2.32,0,0,1,.66-.7,3.08,3.08,0,0,1,.94-.41,4.24,4.24,0,0,1,1.07-.13,4.11,4.11,0,0,1,1.81.3V87.6a3.26,3.26,0,0,0-1.91-.52,2.88,2.88,0,0,0-.65.07,1.69,1.69,0,0,0-.57.22,1.18,1.18,0,0,0-.41.39,1,1,0,0,0-.16.59,1.18,1.18,0,0,0,.12.55,1.41,1.41,0,0,0,.35.43,4.69,4.69,0,0,0,.57.38l.78.39c.3.15.59.31.86.47a4.46,4.46,0,0,1,.71.55,2.53,2.53,0,0,1,.48.66,1.84,1.84,0,0,1,.18.83,2,2,0,0,1-.9,1.75,3,3,0,0,1-.95.39,5.24,5.24,0,0,1-1.14.12l-.49,0q-.3,0-.6-.09a3.53,3.53,0,0,1-.58-.16A1.44,1.44,0,0,1,441.57,94.39Z" fill="#1e1e1e"/>
    </g>
    <g>
      <path d="M387.9,140.85a4.92,4.92,0,0,1-2.32.49,3.75,3.75,0,0,1-2.88-1.15,4.3,4.3,0,0,1-1.07-3,4.45,4.45,0,0,1,1.21-3.26,4.11,4.11,0,0,1,3.08-1.24,5,5,0,0,1,2,.34v1.05a4.12,4.12,0,0,0-2-.5,3,3,0,0,0-2.34,1,3.62,3.62,0,0,0-.9,2.58,3.49,3.49,0,0,0,.84,2.45,2.87,2.87,0,0,0,2.2.91,4.12,4.12,0,0,0,2.2-.57Z" fill="#1e1e1e"/>
      <path d="M394.33,141.2h-1v-.95h0a2,2,0,0,1-1.86,1.09c-1.43,0-2.14-.85-2.14-2.55V135.2h.95v3.43c0,1.27.49,1.9,1.46,1.9a1.44,1.44,0,0,0,1.15-.52,1.92,1.92,0,0,0,.46-1.35V135.2h1Z" fill="#1e1e1e"/>
      <path d="M395.91,141v-1a2.81,2.81,0,0,0,1.72.58c.85,0,1.27-.28,1.27-.84a.76.76,0,0,0-.11-.41,1,1,0,0,0-.29-.29,2.19,2.19,0,0,0-.43-.24l-.54-.21a5.16,5.16,0,0,1-.7-.32,2.22,2.22,0,0,1-.5-.36,1.38,1.38,0,0,1-.31-.46,1.59,1.59,0,0,1-.1-.61,1.38,1.38,0,0,1,.19-.74,1.7,1.7,0,0,1,.52-.55,2.71,2.71,0,0,1,.73-.33,3.59,3.59,0,0,1,2.25.16v1a2.7,2.7,0,0,0-1.52-.43,1.83,1.83,0,0,0-.49.06,1.15,1.15,0,0,0-.37.17.76.76,0,0,0-.24.27.67.67,0,0,0-.09.34.82.82,0,0,0,.09.4.92.92,0,0,0,.25.28,2.36,2.36,0,0,0,.39.22l.54.22a6.85,6.85,0,0,1,.71.31,2.82,2.82,0,0,1,.54.36,1.41,1.41,0,0,1,.34.47,1.48,1.48,0,0,1,.12.63,1.49,1.49,0,0,1-.19.77,1.61,1.61,0,0,1-.53.54,2.22,2.22,0,0,1-.75.33,3.82,3.82,0,0,1-.9.1A3.34,3.34,0,0,1,395.91,141Z" fill="#1e1e1e"/>
      <path d="M404.14,141.14a1.76,1.76,0,0,1-.89.19c-1.05,0-1.58-.59-1.58-1.76V136h-1v-.82h1v-1.46l1-.31v1.77h1.51V136h-1.51v3.38a1.37,1.37,0,0,0,.21.86.78.78,0,0,0,.68.26.94.94,0,0,0,.62-.2Z" fill="#1e1e1e"/>
      <path d="M407.94,141.34a2.79,2.79,0,0,1-2.13-.84,3.1,3.1,0,0,1-.79-2.23,3.24,3.24,0,0,1,.82-2.36,3,3,0,0,1,2.24-.85,2.69,2.69,0,0,1,2.09.83,3.77,3.77,0,0,1-.06,4.59A2.85,2.85,0,0,1,407.94,141.34Zm.07-5.47a1.84,1.84,0,0,0-1.47.63,2.59,2.59,0,0,0-.54,1.74,2.41,2.41,0,0,0,.55,1.68,1.85,1.85,0,0,0,1.46.61,1.77,1.77,0,0,0,1.43-.6,2.63,2.63,0,0,0,.5-1.72,2.66,2.66,0,0,0-.5-1.73A1.74,1.74,0,0,0,408,135.87Z" fill="#1e1e1e"/>
      <path d="M421,141.2h-1v-3.44a2.67,2.67,0,0,0-.31-1.45,1.18,1.18,0,0,0-1-.44,1.3,1.3,0,0,0-1.05.56,2.16,2.16,0,0,0-.43,1.35v3.42h-1v-3.56c0-1.18-.46-1.77-1.37-1.77a1.27,1.27,0,0,0-1,.53,2.2,2.2,0,0,0-.41,1.38v3.42h-1v-6h1v1h0a2,2,0,0,1,1.87-1.09,1.73,1.73,0,0,1,1.07.34,1.81,1.81,0,0,1,.63.9,2.13,2.13,0,0,1,2-1.24c1.32,0,2,.81,2,2.44Z" fill="#1e1e1e"/>
      <path d="M427.62,138.44h-4.24a2.3,2.3,0,0,0,.54,1.55,1.87,1.87,0,0,0,1.42.54,3,3,0,0,0,1.86-.66v.9a3.5,3.5,0,0,1-2.09.57,2.53,2.53,0,0,1-2-.82,3.36,3.36,0,0,1-.73-2.3,3.29,3.29,0,0,1,.8-2.28,2.54,2.54,0,0,1,2-.88,2.24,2.24,0,0,1,1.82.76,3.2,3.2,0,0,1,.65,2.12Zm-1-.81a1.91,1.91,0,0,0-.4-1.3,1.36,1.36,0,0,0-1.1-.46,1.52,1.52,0,0,0-1.15.49,2.19,2.19,0,0,0-.59,1.27Z" fill="#1e1e1e"/>
      <path d="M432.2,136.17a1.18,1.18,0,0,0-.73-.19,1.23,1.23,0,0,0-1,.58,2.72,2.72,0,0,0-.41,1.58v3.06h-1v-6h1v1.24h0a2.17,2.17,0,0,1,.63-1,1.41,1.41,0,0,1,.94-.35,1.49,1.49,0,0,1,.58.08Z" fill="#1e1e1e"/>
      <path d="M443.16,141.2h-1.09l-.89-2.35h-3.56l-.84,2.35h-1.09l3.22-8.4h1Zm-2.3-3.24-1.32-3.58a3.38,3.38,0,0,1-.13-.56h0a3.23,3.23,0,0,1-.14.56L438,138Z" fill="#1e1e1e"/>
      <path d="M444.4,141.2v-8.4h2.32q4.44,0,4.44,4.09a4.14,4.14,0,0,1-1.23,3.13,4.59,4.59,0,0,1-3.31,1.18Zm1-7.51v6.62h1.26a3.55,3.55,0,0,0,2.57-.88,3.34,3.34,0,0,0,.92-2.51c0-2.15-1.15-3.23-3.43-3.23Z" fill="#1e1e1e"/>
      <path d="M362.1,153.7h-1v-.94h0a2,2,0,0,1-1.85,1.08,2,2,0,0,1-1.4-.47,1.65,1.65,0,0,1-.51-1.26c0-1.12.66-1.78,2-2l1.8-.25c0-1-.41-1.53-1.24-1.53a3,3,0,0,0-1.95.74v-1a3.76,3.76,0,0,1,2-.56c1.41,0,2.11.75,2.11,2.24Zm-1-3-1.45.2a2.35,2.35,0,0,0-1,.33,1,1,0,0,0-.34.84.9.9,0,0,0,.32.71,1.19,1.19,0,0,0,.83.28,1.51,1.51,0,0,0,1.18-.5,1.78,1.78,0,0,0,.47-1.27Z" fill="#1e1e1e"/>
      <path d="M369,153.7h-1v-1h0a2.22,2.22,0,0,1-2.06,1.16,2.25,2.25,0,0,1-1.81-.8,3.33,3.33,0,0,1-.68-2.2,3.57,3.57,0,0,1,.75-2.38,2.48,2.48,0,0,1,2-.9,1.93,1.93,0,0,1,1.8,1h0v-3.71h1Zm-1-2.71v-.89a1.73,1.73,0,0,0-.48-1.23,1.64,1.64,0,0,0-1.22-.5A1.66,1.66,0,0,0,365,149a2.81,2.81,0,0,0-.5,1.78,2.54,2.54,0,0,0,.48,1.64,1.57,1.57,0,0,0,1.3.6,1.63,1.63,0,0,0,1.3-.58A2.16,2.16,0,0,0,368.07,151Z" fill="#1e1e1e"/>
      <path d="M373.94,145.66a1.35,1.35,0,0,0-.64-.16c-.67,0-1,.43-1,1.28v.92h1.4v.82h-1.4v5.18h-1v-5.18h-1v-.82h1v-1a2,2,0,0,1,.55-1.49,1.81,1.81,0,0,1,1.36-.55,1.86,1.86,0,0,1,.69.1Z" fill="#1e1e1e"/>
      <path d="M374.37,153.48v-1a2.82,2.82,0,0,0,1.73.58q1.26,0,1.26-.84a.76.76,0,0,0-.1-.41,1,1,0,0,0-.3-.29,1.94,1.94,0,0,0-.43-.24L376,151a5.79,5.79,0,0,1-.7-.32,2.22,2.22,0,0,1-.5-.36,1.38,1.38,0,0,1-.31-.46,1.81,1.81,0,0,1-.1-.61,1.39,1.39,0,0,1,.2-.74,1.67,1.67,0,0,1,.51-.55,2.77,2.77,0,0,1,.74-.33,3.56,3.56,0,0,1,2.24.16v1a2.7,2.7,0,0,0-1.52-.43,1.88,1.88,0,0,0-.49.06,1.26,1.26,0,0,0-.37.17,1,1,0,0,0-.24.27.66.66,0,0,0-.08.34.82.82,0,0,0,.08.4,1.07,1.07,0,0,0,.25.28,2.11,2.11,0,0,0,.4.22l.53.22a6.21,6.21,0,0,1,.72.31,2.82,2.82,0,0,1,.54.36,1.57,1.57,0,0,1,.34.47,1.48,1.48,0,0,1,.12.63,1.5,1.5,0,0,1-.2.77,1.58,1.58,0,0,1-.52.54,2.28,2.28,0,0,1-.76.33,3.68,3.68,0,0,1-.89.1A3.39,3.39,0,0,1,374.37,153.48Z" fill="#1e1e1e"/>
      <path d="M380.16,153.83a.62.62,0,0,1-.46-.19.64.64,0,0,1-.19-.47.62.62,0,0,1,.19-.46.63.63,0,0,1,.46-.2.65.65,0,0,1,.47.2.62.62,0,0,1,.19.46.65.65,0,0,1-.66.66Z" fill="#1e1e1e"/>
      <path d="M386.52,153.43a3.19,3.19,0,0,1-1.64.41,2.76,2.76,0,0,1-2.08-.83,3.06,3.06,0,0,1-.78-2.17,3.3,3.3,0,0,1,.85-2.38,3,3,0,0,1,2.26-.9,3.24,3.24,0,0,1,1.4.29v1a2.47,2.47,0,0,0-1.43-.47,1.93,1.93,0,0,0-1.51.66,2.5,2.5,0,0,0-.59,1.73,2.41,2.41,0,0,0,.55,1.66A1.91,1.91,0,0,0,385,153a2.41,2.41,0,0,0,1.48-.52Z" fill="#1e1e1e"/>
      <path d="M390.48,153.84a2.79,2.79,0,0,1-2.13-.84,3.1,3.1,0,0,1-.79-2.23,3.21,3.21,0,0,1,.83-2.36,3,3,0,0,1,2.23-.85,2.69,2.69,0,0,1,2.09.83,3.28,3.28,0,0,1,.76,2.29,3.21,3.21,0,0,1-.82,2.3A2.85,2.85,0,0,1,390.48,153.84Zm.07-5.47a1.84,1.84,0,0,0-1.47.63,2.59,2.59,0,0,0-.54,1.74,2.46,2.46,0,0,0,.55,1.68,1.85,1.85,0,0,0,1.46.61,1.75,1.75,0,0,0,1.43-.6,2.63,2.63,0,0,0,.5-1.72A2.66,2.66,0,0,0,392,149,1.73,1.73,0,0,0,390.55,148.37Z" fill="#1e1e1e"/>
      <path d="M398.13,148.67a1.18,1.18,0,0,0-.73-.19,1.23,1.23,0,0,0-1,.58,2.72,2.72,0,0,0-.41,1.58v3.06h-1v-6h1v1.24h0a2.08,2.08,0,0,1,.62-1,1.42,1.42,0,0,1,.95-.35,1.44,1.44,0,0,1,.57.08Z" fill="#1e1e1e"/>
      <path d="M400.16,152.83h0v3.63h-1V147.7h1v1.06h0a2.26,2.26,0,0,1,2.07-1.2,2.19,2.19,0,0,1,1.81.81,3.28,3.28,0,0,1,.65,2.16,3.72,3.72,0,0,1-.73,2.41,2.45,2.45,0,0,1-2,.9A2,2,0,0,1,400.16,152.83Zm0-2.42v.84a1.73,1.73,0,0,0,.49,1.26,1.58,1.58,0,0,0,1.22.52,1.61,1.61,0,0,0,1.37-.66,3.09,3.09,0,0,0,.5-1.86,2.47,2.47,0,0,0-.46-1.57,1.54,1.54,0,0,0-1.26-.57,1.7,1.7,0,0,0-1.35.58A2.15,2.15,0,0,0,400.13,150.41Z" fill="#1e1e1e"/>
      <path d="M406.56,153.83a.62.62,0,0,1-.46-.19.64.64,0,0,1-.19-.47.62.62,0,0,1,.19-.46.64.64,0,0,1,.93,0,.62.62,0,0,1,.19.46.64.64,0,0,1-.19.47A.63.63,0,0,1,406.56,153.83Z" fill="#1e1e1e"/>
      <path d="M412.92,153.43a3.19,3.19,0,0,1-1.64.41,2.72,2.72,0,0,1-2.07-.83,3,3,0,0,1-.79-2.17,3.3,3.3,0,0,1,.85-2.38,3,3,0,0,1,2.27-.9,3.23,3.23,0,0,1,1.39.29v1a2.45,2.45,0,0,0-1.43-.47A1.93,1.93,0,0,0,410,149a2.5,2.5,0,0,0-.59,1.73,2.36,2.36,0,0,0,.56,1.66,1.89,1.89,0,0,0,1.48.61,2.39,2.39,0,0,0,1.48-.52Z" fill="#1e1e1e"/>
      <path d="M416.88,153.84a2.77,2.77,0,0,1-2.12-.84,3.11,3.11,0,0,1-.8-2.23,3.25,3.25,0,0,1,.83-2.36,3,3,0,0,1,2.23-.85,2.73,2.73,0,0,1,2.1.83,3.77,3.77,0,0,1-.06,4.59A2.87,2.87,0,0,1,416.88,153.84Zm.07-5.47a1.8,1.8,0,0,0-1.46.63,2.59,2.59,0,0,0-.54,1.74,2.46,2.46,0,0,0,.54,1.68A1.85,1.85,0,0,0,417,153a1.75,1.75,0,0,0,1.43-.6,2.58,2.58,0,0,0,.5-1.72,2.61,2.61,0,0,0-.5-1.73A1.73,1.73,0,0,0,417,148.37Z" fill="#1e1e1e"/>
      <path d="M426.38,153.7h-1v-3.42c0-1.27-.46-1.91-1.39-1.91a1.5,1.5,0,0,0-1.19.54,2,2,0,0,0-.48,1.37v3.42h-1v-6h1v1h0a2.16,2.16,0,0,1,2-1.14,1.82,1.82,0,0,1,1.5.64,2.79,2.79,0,0,1,.52,1.83Z" fill="#1e1e1e"/>
      <path d="M431,153.64a1.82,1.82,0,0,1-.9.19c-1.05,0-1.58-.59-1.58-1.76v-3.55h-1v-.82h1v-1.46l1-.31v1.77H431v.82h-1.51v3.38a1.38,1.38,0,0,0,.2.86.8.8,0,0,0,.68.26,1,1,0,0,0,.63-.2Z" fill="#1e1e1e"/>
      <path d="M434.77,153.84a2.79,2.79,0,0,1-2.13-.84,3.15,3.15,0,0,1-.79-2.23,3.25,3.25,0,0,1,.83-2.36,3,3,0,0,1,2.23-.85,2.69,2.69,0,0,1,2.09.83A3.75,3.75,0,0,1,437,153,2.88,2.88,0,0,1,434.77,153.84Zm.07-5.47a1.84,1.84,0,0,0-1.47.63,2.59,2.59,0,0,0-.54,1.74,2.46,2.46,0,0,0,.55,1.68,1.85,1.85,0,0,0,1.46.61,1.75,1.75,0,0,0,1.43-.6,2.58,2.58,0,0,0,.5-1.72,2.61,2.61,0,0,0-.5-1.73A1.73,1.73,0,0,0,434.84,148.37Z" fill="#1e1e1e"/>
      <path d="M438.93,153.48v-1a2.82,2.82,0,0,0,1.73.58q1.26,0,1.26-.84a.68.68,0,0,0-.11-.41,1,1,0,0,0-.29-.29,2.19,2.19,0,0,0-.43-.24l-.54-.21a5.79,5.79,0,0,1-.7-.32,2.22,2.22,0,0,1-.5-.36,1.38,1.38,0,0,1-.31-.46,1.59,1.59,0,0,1-.1-.61,1.38,1.38,0,0,1,.19-.74,1.7,1.7,0,0,1,.52-.55,2.71,2.71,0,0,1,.73-.33,3.49,3.49,0,0,1,.86-.11,3.41,3.41,0,0,1,1.39.27v1a2.7,2.7,0,0,0-1.52-.43,1.88,1.88,0,0,0-.49.06,1.26,1.26,0,0,0-.37.17,1,1,0,0,0-.24.27.67.67,0,0,0-.09.34.82.82,0,0,0,.09.4,1.07,1.07,0,0,0,.25.28,2.11,2.11,0,0,0,.4.22l.53.22a7.07,7.07,0,0,1,.72.31,2.45,2.45,0,0,1,.53.36,1.45,1.45,0,0,1,.35.47,1.48,1.48,0,0,1,.12.63,1.5,1.5,0,0,1-.2.77,1.58,1.58,0,0,1-.52.54,2.28,2.28,0,0,1-.76.33,3.71,3.71,0,0,1-.9.1A3.37,3.37,0,0,1,438.93,153.48Z" fill="#1e1e1e"/>
      <path d="M446.89,153.84a2.77,2.77,0,0,1-2.12-.84,3.11,3.11,0,0,1-.8-2.23,3.25,3.25,0,0,1,.83-2.36,3,3,0,0,1,2.23-.85,2.71,2.71,0,0,1,2.1.83,3.77,3.77,0,0,1-.06,4.59A2.87,2.87,0,0,1,446.89,153.84Zm.07-5.47a1.81,1.81,0,0,0-1.46.63,2.59,2.59,0,0,0-.54,1.74,2.46,2.46,0,0,0,.54,1.68A1.86,1.86,0,0,0,447,153a1.75,1.75,0,0,0,1.43-.6,2.58,2.58,0,0,0,.51-1.72,2.61,2.61,0,0,0-.51-1.73A1.73,1.73,0,0,0,447,148.37Z" fill="#1e1e1e"/>
      <path d="M451.75,153.83a.62.62,0,0,1-.46-.19.64.64,0,0,1-.19-.47.62.62,0,0,1,.19-.46.63.63,0,0,1,.46-.2.65.65,0,0,1,.47.2.62.62,0,0,1,.19.46.65.65,0,0,1-.66.66Z" fill="#1e1e1e"/>
      <path d="M458.11,153.43a3.19,3.19,0,0,1-1.64.41,2.76,2.76,0,0,1-2.08-.83,3.06,3.06,0,0,1-.78-2.17,3.3,3.3,0,0,1,.85-2.38,3,3,0,0,1,2.26-.9,3.24,3.24,0,0,1,1.4.29v1a2.47,2.47,0,0,0-1.43-.47,1.93,1.93,0,0,0-1.51.66,2.5,2.5,0,0,0-.59,1.73,2.41,2.41,0,0,0,.55,1.66,1.91,1.91,0,0,0,1.49.61,2.41,2.41,0,0,0,1.48-.52Z" fill="#1e1e1e"/>
      <path d="M462.07,153.84a2.79,2.79,0,0,1-2.13-.84,3.1,3.1,0,0,1-.79-2.23,3.21,3.21,0,0,1,.83-2.36,3,3,0,0,1,2.23-.85,2.69,2.69,0,0,1,2.09.83,3.28,3.28,0,0,1,.76,2.29,3.21,3.21,0,0,1-.82,2.3A2.85,2.85,0,0,1,462.07,153.84Zm.07-5.47a1.84,1.84,0,0,0-1.47.63,2.59,2.59,0,0,0-.54,1.74,2.46,2.46,0,0,0,.55,1.68,1.85,1.85,0,0,0,1.46.61,1.75,1.75,0,0,0,1.43-.6,2.63,2.63,0,0,0,.5-1.72,2.66,2.66,0,0,0-.5-1.73A1.73,1.73,0,0,0,462.14,148.37Z" fill="#1e1e1e"/>
      <path d="M475.11,153.7h-1v-3.44a2.58,2.58,0,0,0-.31-1.45,1.17,1.17,0,0,0-1-.44,1.3,1.3,0,0,0-1.05.56,2.16,2.16,0,0,0-.43,1.35v3.42h-1v-3.56c0-1.18-.46-1.77-1.37-1.77a1.28,1.28,0,0,0-1,.53,2.2,2.2,0,0,0-.41,1.38v3.42h-1v-6h1v1h0a2,2,0,0,1,1.86-1.09,1.71,1.71,0,0,1,1.07.34,1.75,1.75,0,0,1,.63.9,2.13,2.13,0,0,1,2-1.24c1.32,0,2,.81,2,2.44Z" fill="#1e1e1e"/>
    </g>
    <g>
      <path d="M213.1,43.7H212l-.89-2.35h-3.56l-.84,2.35h-1.1l3.23-8.4h1Zm-2.3-3.24-1.32-3.58a3.38,3.38,0,0,1-.13-.56h0a3.23,3.23,0,0,1-.14.56l-1.3,3.58Z" fill="#1e1e1e"/>
      <path d="M214.34,43.7V35.3h2.32q4.44,0,4.44,4.09a4.14,4.14,0,0,1-1.23,3.13,4.59,4.59,0,0,1-3.31,1.18Zm1-7.51v6.62h1.26a3.56,3.56,0,0,0,2.57-.88,3.34,3.34,0,0,0,.92-2.51q0-3.22-3.44-3.23Z" fill="#1e1e1e"/>
      <path d="M232.32,43.13a5.67,5.67,0,0,1-2.81.71,3.82,3.82,0,0,1-2.91-1.16,4.26,4.26,0,0,1-1.11-3.07,4.37,4.37,0,0,1,1.23-3.2,4.21,4.21,0,0,1,3.13-1.25,5.42,5.42,0,0,1,2.3.44v1.09a4.43,4.43,0,0,0-2.41-.64,3,3,0,0,0-2.32,1,4.07,4.07,0,0,0-.06,5,2.94,2.94,0,0,0,2.27.91,3.39,3.39,0,0,0,1.7-.4V40.21H229.5v-.89h2.82Z" fill="#1e1e1e"/>
      <path d="M237.27,38.67a1.18,1.18,0,0,0-.73-.19,1.2,1.2,0,0,0-1,.58,2.64,2.64,0,0,0-.42,1.58V43.7h-1v-6h1v1.24h0a2.08,2.08,0,0,1,.62-1,1.42,1.42,0,0,1,.95-.35,1.44,1.44,0,0,1,.57.08Z" fill="#1e1e1e"/>
      <path d="M242.61,43.7h-1v-.94h0a2.2,2.2,0,0,1-3.25.61,1.68,1.68,0,0,1-.5-1.26c0-1.12.66-1.78,2-2l1.8-.25c0-1-.41-1.53-1.24-1.53a3,3,0,0,0-2,.74v-1a3.76,3.76,0,0,1,2-.56c1.41,0,2.12.75,2.12,2.24Zm-1-3-1.45.2a2.3,2.3,0,0,0-1,.33,1,1,0,0,0-.34.84.9.9,0,0,0,.32.71A1.16,1.16,0,0,0,240,43a1.51,1.51,0,0,0,1.18-.5,1.78,1.78,0,0,0,.47-1.27Z" fill="#1e1e1e"/>
      <path d="M245.4,42.83h0v3.63h-1V37.7h1v1.06h0a2.29,2.29,0,0,1,2.08-1.2,2.2,2.2,0,0,1,1.81.81,3.33,3.33,0,0,1,.65,2.16,3.78,3.78,0,0,1-.73,2.41,2.46,2.46,0,0,1-2,.9A2,2,0,0,1,245.4,42.83Zm0-2.42v.84a1.77,1.77,0,0,0,.48,1.26,1.6,1.6,0,0,0,1.23.52,1.62,1.62,0,0,0,1.37-.66,3.09,3.09,0,0,0,.49-1.86,2.41,2.41,0,0,0-.46-1.57,1.53,1.53,0,0,0-1.25-.57,1.7,1.7,0,0,0-1.35.58A2.15,2.15,0,0,0,245.38,40.41Z" fill="#1e1e1e"/>
      <path d="M256.45,43.7h-1V40.24c0-1.25-.46-1.87-1.39-1.87a1.55,1.55,0,0,0-1.19.54,2,2,0,0,0-.48,1.39v3.4h-1V34.82h1V38.7h0a2.18,2.18,0,0,1,2-1.14c1.35,0,2,.81,2,2.44Z" fill="#1e1e1e"/>
    </g>
    <g>
      <path d="M71.5,164.25H70.41l-.89-2.36H66l-.84,2.36H64l3.23-8.41h1ZM69.2,161l-1.32-3.58a2.71,2.71,0,0,1-.13-.57h0a3.38,3.38,0,0,1-.14.57L66.28,161Z" fill="#1e1e1e"/>
      <path d="M73.59,163.38h0V167h-1v-8.76h1v1.05h0a2.25,2.25,0,0,1,2.07-1.19,2.2,2.2,0,0,1,1.82.8,3.37,3.37,0,0,1,.65,2.16,3.71,3.71,0,0,1-.74,2.41,2.43,2.43,0,0,1-2,.91A2,2,0,0,1,73.59,163.38Zm0-2.42v.84a1.8,1.8,0,0,0,.48,1.26,1.59,1.59,0,0,0,1.23.52,1.6,1.6,0,0,0,1.37-.67,3.07,3.07,0,0,0,.49-1.86,2.41,2.41,0,0,0-.46-1.57,1.54,1.54,0,0,0-1.26-.57,1.7,1.7,0,0,0-1.34.59A2.13,2.13,0,0,0,73.57,161Z" fill="#1e1e1e"/>
      <path d="M80.65,163.38h0V167h-1v-8.76h1v1.05h0a2.25,2.25,0,0,1,2.07-1.19,2.18,2.18,0,0,1,1.81.8,3.37,3.37,0,0,1,.65,2.16,3.71,3.71,0,0,1-.73,2.41,2.46,2.46,0,0,1-2,.91A2,2,0,0,1,80.65,163.38Zm0-2.42v.84a1.77,1.77,0,0,0,.49,1.26,1.58,1.58,0,0,0,1.22.52,1.6,1.6,0,0,0,1.37-.67,3.07,3.07,0,0,0,.5-1.86,2.41,2.41,0,0,0-.47-1.57,1.52,1.52,0,0,0-1.25-.57,1.71,1.71,0,0,0-1.35.59A2.13,2.13,0,0,0,80.62,161Z" fill="#1e1e1e"/>
      <path d="M87.68,164.25h-1v-8.89h1Z" fill="#1e1e1e"/>
      <path d="M90.11,156.72a.66.66,0,0,1-.44-.17.65.65,0,0,1,0-.9.62.62,0,0,1,.44-.18.61.61,0,0,1,.45.18.58.58,0,0,1,.19.45.58.58,0,0,1-.19.44A.61.61,0,0,1,90.11,156.72Zm.47,7.53h-1v-6h1Z" fill="#1e1e1e"/>
      <path d="M96.62,164a3.1,3.1,0,0,1-1.64.42,2.69,2.69,0,0,1-2.07-.84,3,3,0,0,1-.79-2.16A3.33,3.33,0,0,1,93,159a3,3,0,0,1,2.27-.89,3.09,3.09,0,0,1,1.39.29v1a2.47,2.47,0,0,0-1.43-.47,1.93,1.93,0,0,0-1.51.66,2.52,2.52,0,0,0-.59,1.73,2.39,2.39,0,0,0,.56,1.67,1.92,1.92,0,0,0,1.48.61,2.47,2.47,0,0,0,1.48-.52Z" fill="#1e1e1e"/>
      <path d="M102.37,164.25h-1v-.94h0a2,2,0,0,1-1.84,1.08,2,2,0,0,1-1.41-.48,1.61,1.61,0,0,1-.5-1.26q0-1.68,2-2l1.8-.26c0-1-.42-1.53-1.24-1.53a3,3,0,0,0-2,.74v-1a3.68,3.68,0,0,1,2-.56c1.41,0,2.12.74,2.12,2.23Zm-1-3-1.45.2a2.3,2.3,0,0,0-1,.33,1,1,0,0,0-.34.84.92.92,0,0,0,.31.72,1.2,1.2,0,0,0,.84.28,1.55,1.55,0,0,0,1.18-.5,1.81,1.81,0,0,0,.47-1.27Z" fill="#1e1e1e"/>
      <path d="M107,164.19a2,2,0,0,1-.9.18c-1,0-1.57-.58-1.57-1.75v-3.55h-1v-.82h1v-1.47l1-.31v1.78H107v.82h-1.51v3.38a1.45,1.45,0,0,0,.2.86.84.84,0,0,0,.68.26,1,1,0,0,0,.63-.2Z" fill="#1e1e1e"/>
      <path d="M108.74,156.72a.62.62,0,0,1-.44-.17.63.63,0,0,1,.44-1.08.6.6,0,0,1,.44.18.58.58,0,0,1,.19.45.58.58,0,0,1-.19.44A.6.6,0,0,1,108.74,156.72Zm.46,7.53h-1v-6h1Z" fill="#1e1e1e"/>
      <path d="M113.66,164.39a2.79,2.79,0,0,1-2.13-.84,3.12,3.12,0,0,1-.79-2.23,3.19,3.19,0,0,1,.83-2.36,3,3,0,0,1,2.23-.85,2.68,2.68,0,0,1,2.09.82,3.29,3.29,0,0,1,.76,2.29,3.22,3.22,0,0,1-.82,2.3A2.82,2.82,0,0,1,113.66,164.39Zm.07-5.48a1.84,1.84,0,0,0-1.47.63,2.59,2.59,0,0,0-.54,1.74,2.46,2.46,0,0,0,.55,1.68,1.85,1.85,0,0,0,1.46.62,1.73,1.73,0,0,0,1.43-.61,2.62,2.62,0,0,0,.5-1.71,2.71,2.71,0,0,0-.5-1.74A1.76,1.76,0,0,0,113.73,158.91Z" fill="#1e1e1e"/>
      <path d="M123.16,164.25h-1v-3.43c0-1.27-.46-1.91-1.39-1.91a1.52,1.52,0,0,0-1.2.55,2,2,0,0,0-.47,1.36v3.43h-1v-6h1v1h0a2.16,2.16,0,0,1,2-1.13,1.85,1.85,0,0,1,1.51.63,2.84,2.84,0,0,1,.52,1.84Z" fill="#1e1e1e"/>
      <path d="M124.61,164v-1a2.88,2.88,0,0,0,1.73.58c.84,0,1.26-.28,1.26-.85a.65.65,0,0,0-.11-.4,1.17,1.17,0,0,0-.29-.3,2.86,2.86,0,0,0-.43-.23l-.54-.21-.7-.32a2,2,0,0,1-.5-.37,1.21,1.21,0,0,1-.31-.46,1.57,1.57,0,0,1-.1-.6,1.44,1.44,0,0,1,.19-.75,1.67,1.67,0,0,1,.52-.54,2.21,2.21,0,0,1,.73-.33,3.07,3.07,0,0,1,.86-.11,3.59,3.59,0,0,1,1.39.26v1a2.71,2.71,0,0,0-1.52-.44,1.53,1.53,0,0,0-.49.07,1.05,1.05,0,0,0-.37.17.78.78,0,0,0-.24.27.64.64,0,0,0-.09.34.8.8,0,0,0,.09.39.83.83,0,0,0,.25.28,1.67,1.67,0,0,0,.4.22l.53.22c.27.1.5.21.71.31a2,2,0,0,1,.54.37,1.41,1.41,0,0,1,.35.46,1.54,1.54,0,0,1,.12.63,1.45,1.45,0,0,1-.2.77,1.82,1.82,0,0,1-.52.55,2.49,2.49,0,0,1-.76.32,3.7,3.7,0,0,1-.9.11A3.37,3.37,0,0,1,124.61,164Z" fill="#1e1e1e"/>
    </g>
  </g>
</svg>
