<svg xmlns="http://www.w3.org/2000/svg" xmlns:xlink="http://www.w3.org/1999/xlink" viewBox="0 0 728.21 180.66">
  <defs>
    <linearGradient id="linear-gradient" x1="299.35" y1="1402.21" x2="299.35" y2="1372.37" gradientTransform="matrix(1, 0, 0, -1, 0, 1418.81)" gradientUnits="userSpaceOnUse">
      <stop offset="0" stop-color="#5ea0ef"/>
      <stop offset="0.18" stop-color="#559cec"/>
      <stop offset="0.47" stop-color="#3c91e5"/>
      <stop offset="0.84" stop-color="#1380da"/>
      <stop offset="1" stop-color="#0078d4"/>
    </linearGradient>
    <linearGradient id="linear-gradient-2" x1="294.36" y1="1372.05" x2="294.36" y2="1386.51" gradientTransform="matrix(1, 0, 0, -1, 0, 1418.81)" gradientUnits="userSpaceOnUse">
      <stop offset="0" stop-color="#198ab3"/>
      <stop offset="0.14" stop-color="#22a5cb"/>
      <stop offset="0.3" stop-color="#29bade"/>
      <stop offset="0.47" stop-color="#2ec9eb"/>
      <stop offset="0.68" stop-color="#31d1f3"/>
      <stop offset="1" stop-color="#32d4f5"/>
    </linearGradient>
    <radialGradient id="radial-gradient" cx="331.37" cy="1370.54" r="14.17" gradientTransform="matrix(0.91, 0, 0, -0.91, 20.87, 1298.11)" gradientUnits="userSpaceOnUse">
      <stop offset="0.27" stop-color="#ffd70f"/>
      <stop offset="0.49" stop-color="#ffcb12"/>
      <stop offset="0.88" stop-color="#feac19"/>
      <stop offset="1" stop-color="#fea11b"/>
    </radialGradient>
    <linearGradient id="linear-gradient-3" x1="400.51" y1="1295.77" x2="400.51" y2="1317.42" gradientTransform="matrix(1, 0, 0, -1, 0, 1418.81)" gradientUnits="userSpaceOnUse">
      <stop offset="0" stop-color="#0078d4"/>
      <stop offset="0.82" stop-color="#5ea0ef"/>
    </linearGradient>
    <linearGradient id="linear-gradient-4" x1="400.51" y1="1287.42" x2="400.51" y2="1295.77" gradientTransform="matrix(1, 0, 0, -1, 0, 1418.81)" gradientUnits="userSpaceOnUse">
      <stop offset="0.15" stop-color="#ccc"/>
      <stop offset="1" stop-color="#707070"/>
    </linearGradient>
    <linearGradient id="linear-gradient-5" x1="20.44" y1="1402.21" x2="20.44" y2="1372.37" xlink:href="#linear-gradient"/>
    <linearGradient id="linear-gradient-6" x1="15.45" y1="1372.05" x2="15.45" y2="1386.51" xlink:href="#linear-gradient-2"/>
    <radialGradient id="radial-gradient-2" cx="23.25" cy="1370.54" r="14.17" xlink:href="#radial-gradient"/>
    <linearGradient id="linear-gradient-7" x1="121.6" y1="1295.77" x2="121.6" y2="1317.42" xlink:href="#linear-gradient-3"/>
    <linearGradient id="linear-gradient-8" x1="121.6" y1="1287.42" x2="121.6" y2="1295.77" xlink:href="#linear-gradient-4"/>
    <linearGradient id="linear-gradient-9" x1="246.76" y1="121.61" x2="246.76" y2="105.61" gradientUnits="userSpaceOnUse">
      <stop offset="0" stop-color="#1989b2"/>
      <stop offset="1" stop-color="#50c7e8"/>
    </linearGradient>
    <linearGradient id="linear-gradient-10" x1="215.03" y1="117.59" x2="223.01" y2="109.62" gradientUnits="userSpaceOnUse">
      <stop offset="0" stop-color="#b3b3b3"/>
      <stop offset="1" stop-color="#4f4f4f"/>
    </linearGradient>
    <linearGradient id="linear-gradient-11" x1="528.11" y1="121.61" x2="528.11" y2="105.61" xlink:href="#linear-gradient-9"/>
    <linearGradient id="linear-gradient-12" x1="495.87" y1="117.59" x2="503.85" y2="109.62" xlink:href="#linear-gradient-10"/>
    <linearGradient id="Grey_Gradient" data-name="Grey Gradient" x1="655.11" y1="30.81" x2="655.11" y2="180.66" gradientUnits="userSpaceOnUse">
      <stop offset="0" stop-color="#b3b2b3"/>
      <stop offset="0.38" stop-color="#afaeaf"/>
      <stop offset="0.76" stop-color="#a2a2a2"/>
      <stop offset="1" stop-color="#979797"/>
    </linearGradient>
    <linearGradient id="linear-gradient-13" x1="654.93" y1="1295.77" x2="654.93" y2="1317.42" xlink:href="#linear-gradient-3"/>
    <linearGradient id="linear-gradient-14" x1="654.93" y1="1287.42" x2="654.93" y2="1295.77" xlink:href="#linear-gradient-4"/>
    <linearGradient id="linear-gradient-15" x1="582.53" y1="1402.21" x2="582.53" y2="1372.21" xlink:href="#linear-gradient"/>
  </defs>
  <g id="Shapes">
    <rect width="727.71" height="176.01" fill="#fff"/>
    <g>
      <rect x="297.34" y="30.81" width="181.28" height="149.6" fill="#fff"/>
      <rect x="297.34" y="30.81" width="181.28" height="149.6" fill="#0072c6" opacity="0.05"/>
      <rect x="297.34" y="30.81" width="181.28" height="149.6" fill="none" stroke="#0072c6" stroke-miterlimit="10" stroke-width="0.5" opacity="0.6"/>
    </g>
    <g id="b1186d34-5ca3-4e43-992d-40ecef5e891b">
      <g>
        <path d="M307.12,16.61H291.59a1,1,0,0,0-1,1V39.71a18.41,18.41,0,0,1,2.52-1.77H296l1.63,2.16v3.28l-2.05,1.49-2.86-.36-2.18-2v3a1,1,0,0,0,1,1h15.53a1,1,0,0,0,1-1V17.6A1,1,0,0,0,307.12,16.61Z" fill="url(#linear-gradient)"/>
        <path id="af47f827-8b1b-4acd-8974-8eafe35490c9" d="M292.91,19.71h2.85A.25.25,0,0,1,296,20h0v3.69a.25.25,0,0,1-.25.25h-2.85a.25.25,0,0,1-.25-.25h0V20a.25.25,0,0,1,.25-.24Zm5,0h2.85A.25.25,0,0,1,301,20h0v3.69a.25.25,0,0,1-.25.25h-2.85a.25.25,0,0,1-.25-.25h0V20a.25.25,0,0,1,.25-.24Zm5,0h2.86a.24.24,0,0,1,.24.24h0v3.69a.25.25,0,0,1-.24.25H303a.25.25,0,0,1-.25-.25h0V20a.25.25,0,0,1,.25-.24Zm-10,6.66h2.85a.25.25,0,0,1,.25.25h0v3.72a.25.25,0,0,1-.25.25h-2.85a.25.25,0,0,1-.25-.25h0V26.65a.25.25,0,0,1,.21-.28Zm5,0h2.85a.25.25,0,0,1,.25.25h0v3.72a.25.25,0,0,1-.25.25h-2.85a.25.25,0,0,1-.25-.25h0V26.65a.25.25,0,0,1,.21-.28Zm5,0h2.86a.25.25,0,0,1,.24.25h0v3.72a.25.25,0,0,1-.24.25H303a.26.26,0,0,1-.25-.25h0V26.65a.25.25,0,0,1,.21-.28Zm-10,6.73h2.85a.25.25,0,0,1,.25.25h0V37a.25.25,0,0,1-.25.25h-2.85a.25.25,0,0,1-.25-.25V33.35A.25.25,0,0,1,292.91,33.1Zm5,0h2.85a.25.25,0,0,1,.25.25h0V37a.25.25,0,0,1-.25.25h-2.85a.25.25,0,0,1-.25-.25h0V33.35A.25.25,0,0,1,297.92,33.1Zm0,6.7h2.85a.25.25,0,0,1,.25.25h0v5.46a.25.25,0,0,1-.25.24h-2.85a.25.25,0,0,1-.25-.24V40.05a.25.25,0,0,1,.25-.25Zm5-6.7h2.86a.25.25,0,0,1,.24.25h0V37a.25.25,0,0,1-.24.25H303a.25.25,0,0,1-.25-.25h0V33.35A.25.25,0,0,1,303,33.1Z" fill="#f2f2f2"/>
        <path d="M294.39,38.77a2.3,2.3,0,0,0-2.19,1.77h-8a5,5,0,0,0-.14,1.16v.1h8.12a2.28,2.28,0,1,0,2.19-3Z" fill="#50e6ff"/>
        <path d="M300.6,37.81a5.78,5.78,0,0,0-6-5.51,5.92,5.92,0,0,0-5.67,3.87,5.63,5.63,0,0,0-4.5,3.54h7.34a3,3,0,1,1,2.65,4.38,3.1,3.1,0,0,1-2.71-1.77h-7.47a5.65,5.65,0,0,0,5.63,4.28H299.9a4.66,4.66,0,0,0,4.61-4.28A4.61,4.61,0,0,0,300.6,37.81Z" fill="url(#linear-gradient-2)"/>
        <path d="M294.39,38.77a2.3,2.3,0,0,0-2.19,1.77h-8a3.85,3.85,0,0,1-.83-.1,4,4,0,0,1,.44-7.94h.39l.13-.36a4.54,4.54,0,0,1,4.36-3,4.7,4.7,0,0,1,4,2.26,4.94,4.94,0,0,1,1.33-.16,5.88,5.88,0,0,0-5.32-3.35,5.82,5.82,0,0,0-5.48,3.45,5.21,5.21,0,0,0-.4,10.21h0a3.53,3.53,0,0,0,1.29.21h8a2.29,2.29,0,0,0,4.37-1.35A2.31,2.31,0,0,0,294.39,38.77Z" fill="#50e6ff"/>
      </g>
    </g>
    <g>
      <rect x="320.22" y="61.61" width="149.6" height="110" fill="#fff"/>
      <rect x="320.22" y="61.61" width="149.6" height="110" fill="#ffe452" opacity="0.35"/>
      <rect x="320.22" y="61.61" width="149.6" height="110" fill="none" stroke="#fff" stroke-miterlimit="10"/>
    </g>
    <g>
      <path id="e3d1e58c-f78e-4fb5-9857-0c9331da9979" d="M328.27,55.68a2.54,2.54,0,0,0,0-3.58h0l-4.34-4.35a2.5,2.5,0,0,0-3.55,0h0L316,52.1a2.57,2.57,0,0,0,0,3.58l3.66,3.66a.71.71,0,0,1,.21.5v6.73a.86.86,0,0,0,.25.61l1.64,1.65a.55.55,0,0,0,.78,0l0,0,1.6-1.6h0l.94-.94a.33.33,0,0,0,0-.45h0l-.67-.69a.35.35,0,0,1,0-.5h0l.67-.68a.33.33,0,0,0,0-.45h0l-.71-.72a.35.35,0,0,1,0-.49h0l.73-.72a.32.32,0,0,0,0-.45l0,0-.94-.95v-.34Zm-6.1-6.89a1.44,1.44,0,1,1-1.45,1.44,1.44,1.44,0,0,1,1.45-1.44h0Z" fill="url(#radial-gradient)"/>
      <path id="a21a8f7a-61cc-4035-8449-e5c8fe4d4d5e" d="M321,66.68h0a.31.31,0,0,0,.42-.1.42.42,0,0,0,0-.15V61a.34.34,0,0,0-.13-.27h0a.31.31,0,0,0-.43.08.38.38,0,0,0-.05.19v5.43A.33.33,0,0,0,321,66.68Z" fill="#ff9300" opacity="0.75" style="isolation: isolate"/>
      <rect id="ecd3189c-fb1e-4a0e-a2b6-ba2f11dda484" x="318.67" y="53.55" width="7.15" height="0.84" rx="0.39" fill="#ff9300" opacity="0.75" style="isolation: isolate"/>
      <rect id="a1949a3c-4818-4bd1-b236-0d970b92fc62" x="318.67" y="54.92" width="7.15" height="0.84" rx="0.39" fill="#ff9300" opacity="0.75" style="isolation: isolate"/>
    </g>
    <g>
      <rect x="338.9" y="87.73" width="122.12" height="75.07" fill="#fff"/>
      <rect x="338.9" y="87.73" width="122.12" height="75.07" fill="#0078d4" opacity="0.22"/>
      <rect x="338.9" y="87.73" width="122.12" height="75.07" fill="none" stroke="#fff"/>
    </g>
    <g>
      <g>
        <path d="M327.33,95.74a.21.21,0,0,0,.11.19l1.59.9,2.69,1.54a.23.23,0,0,0,.32-.08l.9-1.53a.22.22,0,0,0-.08-.29l-3.15-1.78a.24.24,0,0,1-.11-.2V80.34a.21.21,0,0,1,.11-.19l3.15-1.78a.22.22,0,0,0,.08-.29l-.9-1.54a.25.25,0,0,0-.31-.11h0L329.09,78l-1.65.92a.21.21,0,0,0-.11.19Z" fill="#949494"/>
        <path d="M329.58,80.23l.08-.08,3.16-1.78a.19.19,0,0,0,.1-.25.05.05,0,0,0,0,0l-.9-1.54a.22.22,0,0,0-.27-.12l0,0L329.05,78l-1.63.92a.1.1,0,0,0-.09.08l1.24.7Z" fill="#a3a3a3"/>
        <path d="M332.82,96.44l-3.16-1.78a.34.34,0,0,1-.09-.12l-2.22,1.37h.07l1.57.89,2.74,1.52a.22.22,0,0,0,.29,0l0,0,.9-1.54a.19.19,0,0,0-.1-.25Z" fill="#a3a3a3"/>
      </g>
      <path d="M350.64,95.74a.21.21,0,0,1-.11.19l-1.59.9-2.68,1.54a.23.23,0,0,1-.32-.08l-.9-1.53a.21.21,0,0,1,.08-.29l3.15-1.78a.24.24,0,0,0,.11-.2V80.34a.21.21,0,0,0-.11-.19l-3.15-1.78a.21.21,0,0,1-.08-.29l.9-1.54a.24.24,0,0,1,.31-.11h0l2.63,1.49,1.64.92a.21.21,0,0,1,.11.19Z" fill="#949494"/>
      <path d="M348.39,80.23l-.08-.08-3.15-1.78a.19.19,0,0,1-.1-.25.05.05,0,0,1,0,0l.9-1.54a.2.2,0,0,1,.26-.12.05.05,0,0,1,0,0l2.65,1.49,1.63.92.08.08-1.23.7Z" fill="#a3a3a3"/>
      <path d="M345.16,96.44l3.15-1.78a.38.38,0,0,0,.1-.12l2.22,1.37h0l-1.58.89-2.74,1.52a.22.22,0,0,1-.29,0s0,0,0,0l-.91-1.54A.19.19,0,0,1,345.16,96.44Z" fill="#a3a3a3"/>
      <polygon points="346.27 83.19 346.27 91.61 338.98 95.85 338.98 87.42 346.27 83.19" fill="#32bedd"/>
      <polygon points="346.27 83.19 338.99 87.43 331.69 83.19 338.99 78.96 346.27 83.19" fill="#9cebff"/>
      <polygon points="338.98 87.43 338.98 95.85 331.69 91.61 331.69 83.19 338.98 87.43" fill="#50e6ff"/>
      <polygon points="331.69 91.61 338.98 87.42 338.98 95.85 331.69 91.61" fill="#9cebff"/>
      <polygon points="346.27 91.61 338.98 87.42 338.98 95.85 346.27 91.61" fill="#50e6ff"/>
    </g>
    <g>
      <rect x="384.27" y="101.4" width="32.47" height="21.65" rx="1.08" fill="url(#linear-gradient-3)"/>
      <polygon points="405.92 109.06 405.92 115.36 400.51 118.53 400.51 112.22 405.92 109.06" fill="#50e6ff"/>
      <polygon points="405.92 109.06 400.51 112.24 395.1 109.06 400.51 105.91 405.92 109.06" fill="#c3f1ff"/>
      <polygon points="400.51 112.24 400.51 118.53 395.1 115.36 395.1 109.06 400.51 112.24" fill="#9cebff"/>
      <polygon points="395.1 115.36 400.51 112.22 400.51 118.53 395.1 115.36" fill="#c3f1ff"/>
      <polygon points="405.92 115.36 400.51 112.22 400.51 118.53 405.92 115.36" fill="#9cebff"/>
      <path d="M407,129.59c-3.21-.5-3.33-2.81-3.33-6.55h-6.37c0,3.74-.11,6-3.32,6.55a1.81,1.81,0,0,0-1.61,1.81h16.24A1.81,1.81,0,0,0,407,129.59Z" fill="url(#linear-gradient-4)"/>
    </g>
    <g>
      <rect x="18.43" y="30.81" width="181.28" height="149.6" fill="#fff"/>
      <rect x="18.43" y="30.81" width="181.28" height="149.6" fill="#0072c6" opacity="0.05"/>
      <rect x="18.43" y="30.81" width="181.28" height="149.6" fill="none" stroke="#0072c6" stroke-miterlimit="10" stroke-width="0.5" opacity="0.6"/>
    </g>
    <g id="b1186d34-5ca3-4e43-992d-40ecef5e891b-2" data-name="b1186d34-5ca3-4e43-992d-40ecef5e891b">
      <g>
        <path d="M28.21,16.61H12.69a1,1,0,0,0-1,1V39.71a18.94,18.94,0,0,1,2.51-1.77h2.94l1.63,2.16v3.28l-2.05,1.49-2.85-.36-2.18-2v3a1,1,0,0,0,1,1H28.21a1,1,0,0,0,1-1V17.6A1,1,0,0,0,28.21,16.61Z" fill="url(#linear-gradient-5)"/>
        <path id="af47f827-8b1b-4acd-8974-8eafe35490c9-2" data-name="af47f827-8b1b-4acd-8974-8eafe35490c9" d="M14,19.71h2.85a.25.25,0,0,1,.25.24h0v3.69a.25.25,0,0,1-.25.25H14a.25.25,0,0,1-.25-.25h0V20a.25.25,0,0,1,.25-.24Zm5,0h2.86a.24.24,0,0,1,.24.24h0v3.69a.25.25,0,0,1-.24.25H19a.25.25,0,0,1-.25-.25h0V20a.25.25,0,0,1,.25-.24Zm5,0H26.9a.25.25,0,0,1,.25.24h0v3.69a.25.25,0,0,1-.25.25H24a.25.25,0,0,1-.24-.25h0V20a.24.24,0,0,1,.24-.24ZM14,26.37h2.85a.25.25,0,0,1,.25.25h0v3.72a.25.25,0,0,1-.25.25H14a.25.25,0,0,1-.25-.25h0V26.65a.25.25,0,0,1,.21-.28Zm5,0h2.86a.25.25,0,0,1,.24.25h0v3.72a.25.25,0,0,1-.24.25H19a.26.26,0,0,1-.25-.25h0V26.65a.25.25,0,0,1,.21-.28Zm5,0H26.9a.25.25,0,0,1,.25.25h0v3.72a.26.26,0,0,1-.25.25H24a.25.25,0,0,1-.24-.25h0V26.65a.25.25,0,0,1,.21-.28ZM14,33.1h2.85a.25.25,0,0,1,.25.25h0V37a.25.25,0,0,1-.25.25H14a.25.25,0,0,1-.25-.25V33.35A.25.25,0,0,1,14,33.1Zm5,0h2.86a.25.25,0,0,1,.24.25h0V37a.25.25,0,0,1-.24.25H19a.25.25,0,0,1-.25-.25h0V33.35A.25.25,0,0,1,19,33.1Zm0,6.7h2.86a.25.25,0,0,1,.24.25h0v5.46a.24.24,0,0,1-.24.24H19a.25.25,0,0,1-.25-.24V40.05A.25.25,0,0,1,19,39.8Zm5-6.7H26.9a.25.25,0,0,1,.25.25h0V37a.25.25,0,0,1-.25.25H24A.25.25,0,0,1,23.8,37h0V33.35A.25.25,0,0,1,24,33.1Z" fill="#f2f2f2"/>
        <path d="M15.49,38.77a2.31,2.31,0,0,0-2.2,1.77h-8a5.05,5.05,0,0,0-.15,1.16v.1h8.12a2.28,2.28,0,1,0,2.2-3Z" fill="#50e6ff"/>
        <path d="M21.69,37.81a5.78,5.78,0,0,0-6-5.51A5.92,5.92,0,0,0,10,36.17a5.64,5.64,0,0,0-4.5,3.54h7.34a3,3,0,1,1,2.66,4.38,3.08,3.08,0,0,1-2.71-1.77H5.3a5.65,5.65,0,0,0,5.63,4.28H21a4.65,4.65,0,0,0,4.6-4.28A4.61,4.61,0,0,0,21.69,37.81Z" fill="url(#linear-gradient-6)"/>
        <path d="M15.49,38.77a2.31,2.31,0,0,0-2.2,1.77h-8a4,4,0,0,1-.84-.1,4,4,0,0,1,.45-7.94h.39l.12-.36a4.54,4.54,0,0,1,4.36-3,4.7,4.7,0,0,1,4,2.26,4.94,4.94,0,0,1,1.33-.16,5.88,5.88,0,0,0-5.32-3.35,5.79,5.79,0,0,0-5.47,3.45A5.21,5.21,0,0,0,4,41.52H4a3.53,3.53,0,0,0,1.29.21h8a2.29,2.29,0,1,0,2.2-3Z" fill="#50e6ff"/>
      </g>
    </g>
    <g>
      <rect x="41.31" y="61.61" width="149.6" height="110" fill="#fff"/>
      <rect x="41.31" y="61.61" width="149.6" height="110" fill="#ffe452" opacity="0.35"/>
      <rect x="41.31" y="61.61" width="149.6" height="110" fill="none" stroke="#fff" stroke-miterlimit="10"/>
    </g>
    <g>
      <path id="e3d1e58c-f78e-4fb5-9857-0c9331da9979-2" data-name="e3d1e58c-f78e-4fb5-9857-0c9331da9979" d="M49.37,55.68a2.54,2.54,0,0,0,0-3.58h0L45,47.75a2.5,2.5,0,0,0-3.55,0h0L37.12,52.1a2.55,2.55,0,0,0,0,3.58l3.66,3.66a.7.7,0,0,1,.2.5v6.73a.86.86,0,0,0,.25.61l1.65,1.65a.54.54,0,0,0,.77,0l0,0,1.6-1.6h0l.94-.94a.32.32,0,0,0,0-.45h0l-.67-.69a.35.35,0,0,1,0-.5h0l.67-.68a.32.32,0,0,0,0-.45h0l-.71-.72a.35.35,0,0,1,0-.49h0l.73-.72a.32.32,0,0,0,0-.45l0,0-.94-.95v-.34Zm-6.1-6.89a1.44,1.44,0,0,1,1.42,1.46,1.44,1.44,0,0,1-2.88,0,1.44,1.44,0,0,1,1.42-1.44h0Z" fill="url(#radial-gradient-2)"/>
      <path id="a21a8f7a-61cc-4035-8449-e5c8fe4d4d5e-2" data-name="a21a8f7a-61cc-4035-8449-e5c8fe4d4d5e" d="M42.12,66.68h0a.31.31,0,0,0,.42-.1.28.28,0,0,0,0-.15V61a.34.34,0,0,0-.13-.27h0a.31.31,0,0,0-.43.08A.38.38,0,0,0,42,61v5.43A.33.33,0,0,0,42.12,66.68Z" fill="#ff9300" opacity="0.75" style="isolation: isolate"/>
      <rect id="ecd3189c-fb1e-4a0e-a2b6-ba2f11dda484-2" data-name="ecd3189c-fb1e-4a0e-a2b6-ba2f11dda484" x="39.76" y="53.55" width="7.15" height="0.84" rx="0.39" fill="#ff9300" opacity="0.75" style="isolation: isolate"/>
      <rect id="a1949a3c-4818-4bd1-b236-0d970b92fc62-2" data-name="a1949a3c-4818-4bd1-b236-0d970b92fc62" x="39.76" y="54.92" width="7.15" height="0.84" rx="0.39" fill="#ff9300" opacity="0.75" style="isolation: isolate"/>
    </g>
    <g>
      <rect x="59.99" y="87.73" width="122.12" height="75.07" fill="#fff"/>
      <rect x="59.99" y="87.73" width="122.12" height="75.07" fill="#0078d4" opacity="0.22"/>
      <rect x="59.99" y="87.73" width="122.12" height="75.07" fill="none" stroke="#fff"/>
    </g>
    <g>
      <g>
        <path d="M48.43,95.74a.2.2,0,0,0,.11.19l1.59.9,2.68,1.54a.23.23,0,0,0,.32-.08l.9-1.53a.21.21,0,0,0-.08-.29L50.8,94.69a.24.24,0,0,1-.11-.2V80.34a.21.21,0,0,1,.11-.19L54,78.37a.21.21,0,0,0,.08-.29l-.9-1.54a.24.24,0,0,0-.31-.11h0L50.18,78l-1.64.92a.2.2,0,0,0-.11.19Z" fill="#949494"/>
        <path d="M50.67,80.23l.09-.08,3.15-1.78a.19.19,0,0,0,.1-.25.05.05,0,0,0,0,0l-.9-1.54a.21.21,0,0,0-.26-.12l0,0L50.14,78l-1.63.92a.08.08,0,0,0-.08.08l1.23.7Z" fill="#a3a3a3"/>
        <path d="M53.91,96.44l-3.15-1.78a.28.28,0,0,1-.1-.12l-2.22,1.37h.07l1.57.89,2.75,1.52a.2.2,0,0,0,.28,0l0,0L54,96.7a.18.18,0,0,0-.1-.25Z" fill="#a3a3a3"/>
      </g>
      <path d="M71.74,95.74a.24.24,0,0,1-.11.19l-1.59.9-2.69,1.54a.23.23,0,0,1-.32-.08l-.9-1.53a.22.22,0,0,1,.08-.29l3.15-1.78a.24.24,0,0,0,.11-.2V80.34a.21.21,0,0,0-.11-.19l-3.15-1.78a.22.22,0,0,1-.08-.29l.9-1.54a.25.25,0,0,1,.31-.11h0L70,77.93l1.65.92a.24.24,0,0,1,.11.19Z" fill="#949494"/>
      <path d="M69.49,80.23l-.09-.08-3.15-1.78a.19.19,0,0,1-.1-.25.05.05,0,0,1,0,0l.9-1.54a.21.21,0,0,1,.26-.12l0,0L70,77.93l1.63.92.09.08-1.24.7Z" fill="#a3a3a3"/>
      <path d="M66.25,96.44l3.15-1.78a.28.28,0,0,0,.1-.12l2.22,1.37h0l-1.57.89L67.4,98.32a.2.2,0,0,1-.28,0l0,0-.9-1.54A.19.19,0,0,1,66.25,96.44Z" fill="#a3a3a3"/>
      <polygon points="67.36 83.19 67.36 91.61 60.07 95.85 60.07 87.42 67.36 83.19" fill="#32bedd"/>
      <polygon points="67.36 83.19 60.08 87.43 52.79 83.19 60.08 78.96 67.36 83.19" fill="#9cebff"/>
      <polygon points="60.07 87.43 60.07 95.85 52.79 91.61 52.79 83.19 60.07 87.43" fill="#50e6ff"/>
      <polygon points="52.79 91.61 60.07 87.42 60.07 95.85 52.79 91.61" fill="#9cebff"/>
      <polygon points="67.36 91.61 60.07 87.42 60.07 95.85 67.36 91.61" fill="#50e6ff"/>
    </g>
    <g>
      <rect x="105.37" y="101.4" width="32.47" height="21.65" rx="1.08" fill="url(#linear-gradient-7)"/>
      <polygon points="127.02 109.06 127.02 115.36 121.6 118.53 121.6 112.22 127.02 109.06" fill="#50e6ff"/>
      <polygon points="127.02 109.06 121.6 112.24 116.19 109.06 121.6 105.91 127.02 109.06" fill="#c3f1ff"/>
      <polygon points="121.6 112.24 121.6 118.53 116.19 115.36 116.19 109.06 121.6 112.24" fill="#9cebff"/>
      <polygon points="116.19 115.36 121.6 112.22 121.6 118.53 116.19 115.36" fill="#c3f1ff"/>
      <polygon points="127.02 115.36 121.6 112.22 121.6 118.53 127.02 115.36" fill="#9cebff"/>
      <path d="M128.11,129.59c-3.21-.5-3.33-2.81-3.33-6.55h-6.37c0,3.74-.11,6-3.32,6.55a1.81,1.81,0,0,0-1.61,1.81h16.24A1.8,1.8,0,0,0,128.11,129.59Z" fill="url(#linear-gradient-8)"/>
    </g>
    <line x1="137.84" y1="113.61" x2="213.99" y2="113.61" fill="none" stroke="#231f20"/>
    <line x1="272.69" y1="113.61" x2="384.62" y2="113.61" fill="none" stroke="#231f20"/>
    <g>
      <path d="M275,105.61H219c-2.43,0-4.34,3.51-4.34,8s1.91,8,4.34,8h56c2.13,0,3.85-3.85,3.85-8S277.12,105.61,275,105.61Z" fill="url(#linear-gradient-9)"/>
      <ellipse cx="219.02" cy="113.61" rx="3.64" ry="7.1" fill="url(#linear-gradient-10)"/>
    </g>
    <g>
      <path d="M556.84,105.61h-57c-2.44,0-4.34,3.51-4.34,8s1.9,8,4.34,8h57c2.13,0,3.85-3.85,3.85-8S559,105.61,556.84,105.61Z" fill="url(#linear-gradient-11)"/>
      <ellipse cx="499.86" cy="113.61" rx="3.64" ry="7.1" fill="url(#linear-gradient-12)"/>
    </g>
    <g>
      <rect x="582.51" y="30.81" width="145.2" height="149.85" fill="#fff"/>
      <rect x="582.51" y="30.81" width="145.2" height="149.85" opacity="0.4" fill="url(#Grey_Gradient)"/>
      <rect x="582.51" y="30.81" width="145.2" height="149.85" fill="none" stroke="#fff"/>
    </g>
    <g>
      <rect x="595.53" y="72.61" width="118.8" height="94.6" fill="#fff"/>
      <rect x="595.53" y="72.61" width="118.8" height="94.6" fill="#ccc" opacity="0.15"/>
      <rect x="595.53" y="72.61" width="118.8" height="94.6" fill="none" stroke="#fff"/>
    </g>
    <g>
      <rect x="638.7" y="101.4" width="32.47" height="21.65" rx="1.08" fill="url(#linear-gradient-13)"/>
      <polygon points="660.34 109.06 660.34 115.36 654.93 118.53 654.93 112.22 660.34 109.06" fill="#50e6ff"/>
      <polygon points="660.34 109.06 654.93 112.24 649.52 109.06 654.93 105.91 660.34 109.06" fill="#c3f1ff"/>
      <polygon points="654.93 112.24 654.93 118.53 649.52 115.36 649.52 109.06 654.93 112.24" fill="#9cebff"/>
      <polygon points="649.52 115.36 654.93 112.22 654.93 118.53 649.52 115.36" fill="#c3f1ff"/>
      <polygon points="660.34 115.36 654.93 112.22 654.93 118.53 660.34 115.36" fill="#9cebff"/>
      <path d="M661.44,129.59c-3.21-.5-3.33-2.81-3.33-6.55h-6.37c0,3.74-.11,6-3.32,6.55a1.81,1.81,0,0,0-1.61,1.81h16.24A1.81,1.81,0,0,0,661.44,129.59Z" fill="url(#linear-gradient-14)"/>
    </g>
    <line x1="560.79" y1="113.61" x2="638.41" y2="113.61" fill="none" stroke="#231f20"/>
    <g>
      <path d="M591.35,17.61v28a1,1,0,0,1-1,1H574.71a1,1,0,0,1-1-1v-28a1,1,0,0,1,1-1h15.67a1,1,0,0,1,1,1A0,0,0,0,1,591.35,17.61Z" fill="url(#linear-gradient-15)"/>
      <path id="a1bc77ea-5288-41a0-8f9a-2d282cf54a86" d="M576.05,19.73h3a.25.25,0,0,1,.25.25v3.7a.25.25,0,0,1-.25.25h-3a.27.27,0,0,1-.26-.25V20A.27.27,0,0,1,576.05,19.73Zm5.05,0H584a.25.25,0,0,1,.25.25h0v3.7a.25.25,0,0,1-.25.25H581.1a.25.25,0,0,1-.25-.25h0V20a.25.25,0,0,1,.25-.25Zm5,0H589a.26.26,0,0,1,.26.25v3.7a.26.26,0,0,1-.26.25h-2.86a.25.25,0,0,1-.25-.25h0V20a.25.25,0,0,1,.25-.25Zm-10.1,6.72h3a.25.25,0,0,1,.25.25v3.71a.27.27,0,0,1-.25.26h-3a.26.26,0,0,1-.26-.26V26.7A.27.27,0,0,1,576.05,26.45Zm5.05,0H584a.25.25,0,0,1,.25.25h0v3.71a.27.27,0,0,1-.25.26H581.1a.27.27,0,0,1-.25-.26V26.7a.25.25,0,0,1,.25-.25Zm5,0H589a.26.26,0,0,1,.26.25v3.71a.26.26,0,0,1-.26.26h-2.86a.27.27,0,0,1-.25-.26V26.7a.25.25,0,0,1,.25-.25Zm-10.1,6.74h3a.25.25,0,0,1,.25.25h0v3.71a.25.25,0,0,1-.25.24h-3a.26.26,0,0,1-.26-.24V33.37A.28.28,0,0,1,576.05,33.19Zm5.05,0H584a.24.24,0,0,1,.32.14s0,0,0,0v3.71a.25.25,0,0,1-.25.24H581.1a.25.25,0,0,1-.25-.24h0V33.37A.27.27,0,0,1,581.1,33.19Zm0,6.73H584a.25.25,0,0,1,.25.24h0v5.56A.25.25,0,0,1,584,46H581.1a.25.25,0,0,1-.25-.25V40.16A.25.25,0,0,1,581.1,39.92Zm5-6.73H589a.26.26,0,0,1,.26.25v3.71a.25.25,0,0,1-.26.24h-2.86a.25.25,0,0,1-.25-.24h0V33.37A.26.26,0,0,1,586.15,33.19Z" fill="#f2f2f2"/>
    </g>
    <g>
      <polygon points="604.51 67.13 604.51 78.1 595.03 83.61 595.03 72.63 604.51 67.13" fill="#32bedd"/>
      <polygon points="604.51 67.13 595.03 72.64 585.54 67.11 595.03 61.6 604.51 67.13" fill="#9cebff"/>
      <polygon points="595.03 72.64 595.03 83.61 585.54 78.1 585.54 67.11 595.03 72.64" fill="#50e6ff"/>
      <polygon points="585.54 78.1 595.03 72.63 595.03 83.61 585.54 78.1" fill="#9cebff"/>
      <polygon points="604.51 78.1 595.03 72.63 595.03 83.61 604.51 78.1" fill="#50e6ff"/>
    </g>
    <line x1="417.1" y1="113.61" x2="495.51" y2="113.61" fill="none" stroke="#231f20"/>
  </g>
  <g id="Text">
    <g>
      <path d="M323.64,10.2h-2.06L321,8.33h-3l-.59,1.87h-2l3.06-8.4h2.24Zm-3.09-3.32-.9-2.83a3,3,0,0,1-.14-.75h-.05a3.16,3.16,0,0,1-.15.73l-.91,2.85Z" fill="#1e1e1e"/>
      <path d="M329.57,10.2h-5.38V9.43l3-3.86h-2.72V4.2h5.07v.92l-2.86,3.72h2.88Z" fill="#1e1e1e"/>
      <path d="M336.33,10.2h-1.84V9.29h0a2.11,2.11,0,0,1-1.83,1.06c-1.39,0-2.09-.84-2.09-2.53V4.2h1.85V7.66c0,.85.33,1.27,1,1.27a1,1,0,0,0,.8-.35,1.41,1.41,0,0,0,.3-1V4.2h1.84Z" fill="#1e1e1e"/>
      <path d="M341.77,5.87a1.59,1.59,0,0,0-.77-.18,1.14,1.14,0,0,0-.95.44,2,2,0,0,0-.34,1.21V10.2h-1.85v-6h1.85V5.31h0a1.59,1.59,0,0,1,1.58-1.21,1.09,1.09,0,0,1,.45.07Z" fill="#1e1e1e"/>
      <path d="M348.1,7.73h-3.91c.06.87.61,1.31,1.64,1.31a3.25,3.25,0,0,0,1.75-.47V9.9a4.57,4.57,0,0,1-2.17.45,3,3,0,0,1-2.25-.81,3,3,0,0,1-.81-2.25,3.19,3.19,0,0,1,.87-2.36,2.91,2.91,0,0,1,2.13-.88,2.6,2.6,0,0,1,2,.78A3,3,0,0,1,348.1,7Zm-1.71-1.14q0-1.29-1.05-1.29a1,1,0,0,0-.77.37,1.67,1.67,0,0,0-.39.92Z" fill="#1e1e1e"/>
      <path d="M352.31,9.88V8a3.68,3.68,0,0,0,1.11.65,3.61,3.61,0,0,0,1.2.21,2.38,2.38,0,0,0,.63-.07,1.5,1.5,0,0,0,.44-.17.87.87,0,0,0,.27-.27.69.69,0,0,0,.09-.34.77.77,0,0,0-.14-.44,1.52,1.52,0,0,0-.39-.36A3.74,3.74,0,0,0,355,6.9c-.23-.11-.47-.21-.72-.31a3.66,3.66,0,0,1-1.47-1,2.19,2.19,0,0,1-.49-1.43A2.21,2.21,0,0,1,352.54,3a2.07,2.07,0,0,1,.72-.78,3.33,3.33,0,0,1,1.05-.45,5.72,5.72,0,0,1,1.26-.14,6.86,6.86,0,0,1,1.17.08,4.37,4.37,0,0,1,.93.24V3.73a2.9,2.9,0,0,0-.46-.26,5.17,5.17,0,0,0-.51-.18,5,5,0,0,0-.53-.11l-.49,0a2.68,2.68,0,0,0-.59.06,1.62,1.62,0,0,0-.44.17.81.81,0,0,0-.28.27.6.6,0,0,0-.1.35.6.6,0,0,0,.11.37,1.17,1.17,0,0,0,.31.32,3.3,3.3,0,0,0,.5.29l.66.3a7,7,0,0,1,.91.45,3.15,3.15,0,0,1,.69.53,2.08,2.08,0,0,1,.44.69,2.4,2.4,0,0,1,.15.89A2.37,2.37,0,0,1,357.77,9a2.05,2.05,0,0,1-.72.77,3.15,3.15,0,0,1-1.06.43,6.61,6.61,0,0,1-1.28.13,7,7,0,0,1-1.32-.12A3.81,3.81,0,0,1,352.31,9.88Z" fill="#1e1e1e"/>
      <path d="M362.69,10.13a2.7,2.7,0,0,1-1.24.22c-1.3,0-2-.68-2-2V5.57h-1V4.2h1V2.91l1.85-.53V4.2h1.35V5.57h-1.35V8c0,.63.25.94.74.94a1.31,1.31,0,0,0,.61-.17Z" fill="#1e1e1e"/>
      <path d="M368.85,10.2H367.1V9.34h0a2,2,0,0,1-1.79,1,1.9,1.9,0,0,1-1.38-.5,1.79,1.79,0,0,1-.5-1.32q0-1.74,2.07-2l1.63-.22c0-.66-.36-1-1.07-1A3.72,3.72,0,0,0,364,6V4.56a4.85,4.85,0,0,1,1.06-.35,5.77,5.77,0,0,1,1.22-.16,2.27,2.27,0,0,1,2.57,2.57Zm-1.74-2.44v-.4L366,7.5q-.9.12-.9.81a.65.65,0,0,0,.22.52.8.8,0,0,0,.59.21,1.07,1.07,0,0,0,.85-.37A1.29,1.29,0,0,0,367.11,7.76Z" fill="#1e1e1e"/>
      <path d="M374.87,10a3.57,3.57,0,0,1-1.81.37,3.06,3.06,0,0,1-2.24-.84A2.89,2.89,0,0,1,370,7.35a3.17,3.17,0,0,1,.91-2.41,3.38,3.38,0,0,1,2.45-.89,3.13,3.13,0,0,1,1.54.29V5.91a2.12,2.12,0,0,0-1.29-.44,1.71,1.71,0,0,0-1.27.47,1.73,1.73,0,0,0-.46,1.28,1.76,1.76,0,0,0,.44,1.26,1.66,1.66,0,0,0,1.23.45,2.42,2.42,0,0,0,1.35-.43Z" fill="#1e1e1e"/>
      <path d="M382.19,10.2H380l-1.91-3h0v3h-1.85V1.32H378V7h0l1.78-2.77H382L379.89,7Z" fill="#1e1e1e"/>
      <path d="M393.65,10.2h-1.9V6.78h-3.48V10.2h-1.89V1.8h1.89V5.15h3.48V1.8h1.9Z" fill="#1e1e1e"/>
      <path d="M401.07,10.2h-1.85V9.29h0a2.09,2.09,0,0,1-1.83,1.06c-1.39,0-2.09-.84-2.09-2.53V4.2h1.85V7.66c0,.85.34,1.27,1,1.27a1,1,0,0,0,.79-.35,1.41,1.41,0,0,0,.3-1V4.2h1.85Z" fill="#1e1e1e"/>
      <path d="M404.47,9.5h0v.7H402.6V1.32h1.85V5.1h0a2.2,2.2,0,0,1,1.95-1,2.15,2.15,0,0,1,1.79.8A3.43,3.43,0,0,1,408.84,7a3.73,3.73,0,0,1-.74,2.41,2.39,2.39,0,0,1-2,.91A1.89,1.89,0,0,1,404.47,9.5ZM404.42,7v.62a1.44,1.44,0,0,0,.33,1,1.1,1.1,0,0,0,.86.38,1.12,1.12,0,0,0,1-.49,2.4,2.4,0,0,0,.35-1.39,1.9,1.9,0,0,0-.32-1.16,1.08,1.08,0,0,0-.91-.42,1.2,1.2,0,0,0-.93.42A1.6,1.6,0,0,0,404.42,7Z" fill="#1e1e1e"/>
      <path d="M318.15,24.6h-1.9V16.2h1.9Z" fill="#1e1e1e"/>
      <path d="M325.61,24.6h-1.84V21.27c0-.93-.34-1.4-1-1.4a1,1,0,0,0-.79.37,1.4,1.4,0,0,0-.31.94V24.6h-1.85v-6h1.85v.95h0a2.13,2.13,0,0,1,1.93-1.1c1.33,0,2,.83,2,2.48Z" fill="#1e1e1e"/>
      <path d="M326.8,24.44v-1.5a3.66,3.66,0,0,0,.91.41,3,3,0,0,0,.86.14,1.84,1.84,0,0,0,.78-.14.42.42,0,0,0,.28-.41.37.37,0,0,0-.13-.29,1.17,1.17,0,0,0-.33-.21,3.76,3.76,0,0,0-.44-.15l-.47-.16a6.21,6.21,0,0,1-.63-.29,2.09,2.09,0,0,1-.45-.36,1.29,1.29,0,0,1-.28-.48,1.76,1.76,0,0,1-.1-.64,1.6,1.6,0,0,1,.22-.86,1.88,1.88,0,0,1,.59-.6,3,3,0,0,1,.83-.34,4.53,4.53,0,0,1,1-.11,5.54,5.54,0,0,1,.81.07,6.83,6.83,0,0,1,.81.17v1.43a3.09,3.09,0,0,0-.75-.3,3.13,3.13,0,0,0-.79-.11,1.86,1.86,0,0,0-.34,0,1.23,1.23,0,0,0-.29.09.49.49,0,0,0-.19.16.34.34,0,0,0-.07.22.41.41,0,0,0,.11.28.79.79,0,0,0,.27.2,1.88,1.88,0,0,0,.38.15l.41.14a6.16,6.16,0,0,1,.67.28,1.94,1.94,0,0,1,.51.36,1.42,1.42,0,0,1,.33.48,1.62,1.62,0,0,1,.12.66,1.67,1.67,0,0,1-.24.91,1.78,1.78,0,0,1-.61.61,2.72,2.72,0,0,1-.89.35,5,5,0,0,1-1,.11A5.17,5.17,0,0,1,326.8,24.44Z" fill="#1e1e1e"/>
      <path d="M336.07,24.53a2.62,2.62,0,0,1-1.23.22c-1.31,0-2-.68-2-2V20h-1V18.6h1V17.31l1.84-.53V18.6h1.35V20h-1.35v2.42c0,.63.25.94.75.94a1.27,1.27,0,0,0,.6-.17Z" fill="#1e1e1e"/>
      <path d="M342.24,24.6h-1.76v-.86h0a2,2,0,0,1-1.79,1,1.86,1.86,0,0,1-1.37-.5,1.75,1.75,0,0,1-.5-1.32q0-1.74,2.07-2l1.63-.22c0-.66-.36-1-1.07-1a3.67,3.67,0,0,0-2,.64V19a4.67,4.67,0,0,1,1.06-.35,5.61,5.61,0,0,1,1.22-.16A2.27,2.27,0,0,1,342.24,21Zm-1.74-2.44v-.4l-1.09.14c-.61.08-.91.35-.91.81a.68.68,0,0,0,.22.52.84.84,0,0,0,.6.21,1.1,1.1,0,0,0,.85-.37A1.29,1.29,0,0,0,340.5,22.16Z" fill="#1e1e1e"/>
      <path d="M349.5,24.6h-1.85V21.27c0-.93-.33-1.4-1-1.4a1,1,0,0,0-.79.37,1.46,1.46,0,0,0-.31.94V24.6H343.7v-6h1.85v.95h0a2.12,2.12,0,0,1,1.92-1.1c1.33,0,2,.83,2,2.48Z" fill="#1e1e1e"/>
      <path d="M355.52,24.38a3.57,3.57,0,0,1-1.81.37,3,3,0,0,1-2.24-.84,2.9,2.9,0,0,1-.86-2.16,3.18,3.18,0,0,1,.92-2.41,3.38,3.38,0,0,1,2.45-.89,3.13,3.13,0,0,1,1.54.29v1.57a2.13,2.13,0,0,0-1.3-.44,1.71,1.71,0,0,0-1.26.47,1.74,1.74,0,0,0-.47,1.28,1.72,1.72,0,0,0,.45,1.26,1.64,1.64,0,0,0,1.22.45,2.45,2.45,0,0,0,1.36-.43Z" fill="#1e1e1e"/>
      <path d="M362.14,22.13h-3.91c.06.87.61,1.31,1.64,1.31a3.24,3.24,0,0,0,1.74-.47V24.3a4.5,4.5,0,0,1-2.16.45,2.8,2.8,0,0,1-3.06-3.06,3.19,3.19,0,0,1,.87-2.36,2.91,2.91,0,0,1,2.13-.88,2.62,2.62,0,0,1,2,.78,3,3,0,0,1,.72,2.12ZM360.42,21c0-.86-.34-1.29-1-1.29a1,1,0,0,0-.77.37,1.68,1.68,0,0,0-.4.92Z" fill="#1e1e1e"/>
    </g>
    <g>
      <path d="M336.31,56.37V55.21a2.21,2.21,0,0,0,.48.31,3.72,3.72,0,0,0,.58.24c.21.06.41.11.62.15a4.13,4.13,0,0,0,.57.05,2.22,2.22,0,0,0,1.36-.34,1.12,1.12,0,0,0,.45-1,1.15,1.15,0,0,0-.15-.59,1.94,1.94,0,0,0-.41-.46,4.57,4.57,0,0,0-.63-.4l-.77-.4c-.3-.15-.57-.3-.83-.45a3.81,3.81,0,0,1-.66-.5,2.3,2.3,0,0,1-.44-.63,1.86,1.86,0,0,1-.16-.81,1.88,1.88,0,0,1,.25-1,2.11,2.11,0,0,1,.66-.7,3,3,0,0,1,.94-.41,4.24,4.24,0,0,1,1.07-.14,4.08,4.08,0,0,1,1.81.3v1.11a3.31,3.31,0,0,0-1.91-.52,3.59,3.59,0,0,0-.65.07,2,2,0,0,0-.57.22,1.18,1.18,0,0,0-.41.39,1,1,0,0,0-.16.59,1.25,1.25,0,0,0,.12.56,1.39,1.39,0,0,0,.36.42,3,3,0,0,0,.57.38l.77.4c.3.15.59.3.86.47a3.9,3.9,0,0,1,.71.54,2.53,2.53,0,0,1,.48.66,1.84,1.84,0,0,1,.18.83,2.16,2.16,0,0,1-.24,1.06,2.1,2.1,0,0,1-.66.7,2.88,2.88,0,0,1-.95.39,5.24,5.24,0,0,1-1.14.12,3.2,3.2,0,0,1-.49,0l-.6-.09a5.47,5.47,0,0,1-.58-.15A1.93,1.93,0,0,1,336.31,56.37Z" fill="#1e1e1e"/>
      <path d="M347.66,56.71h-1v-1h0a2,2,0,0,1-1.85,1.09c-1.43,0-2.14-.86-2.14-2.56V50.71h.95v3.43c0,1.26.49,1.9,1.45,1.9a1.49,1.49,0,0,0,1.16-.52,2,2,0,0,0,.46-1.36V50.71h1Z" fill="#1e1e1e"/>
      <path d="M350.46,55.84h0v.87h-1V47.82h1v3.94h0a2.26,2.26,0,0,1,2.07-1.2,2.2,2.2,0,0,1,1.81.81,3.37,3.37,0,0,1,.65,2.16,3.71,3.71,0,0,1-.73,2.41,2.46,2.46,0,0,1-2,.91A2,2,0,0,1,350.46,55.84Zm0-2.42v.84a1.77,1.77,0,0,0,.49,1.26,1.71,1.71,0,0,0,2.59-.15,3.07,3.07,0,0,0,.5-1.86,2.41,2.41,0,0,0-.47-1.57,1.51,1.51,0,0,0-1.25-.57,1.71,1.71,0,0,0-1.35.59A2.13,2.13,0,0,0,350.43,53.42Z" fill="#1e1e1e"/>
      <path d="M356.1,56.49v-1a2.88,2.88,0,0,0,1.73.58c.84,0,1.26-.28,1.26-.85a.65.65,0,0,0-.11-.4,1.17,1.17,0,0,0-.29-.3,2.18,2.18,0,0,0-.43-.23l-.54-.21-.7-.32a2,2,0,0,1-.5-.37,1.29,1.29,0,0,1-.31-.46,1.57,1.57,0,0,1-.1-.6,1.44,1.44,0,0,1,.19-.75,1.67,1.67,0,0,1,.52-.54,2.21,2.21,0,0,1,.73-.33,3.08,3.08,0,0,1,.86-.12,3.41,3.41,0,0,1,1.39.27v1a2.71,2.71,0,0,0-1.52-.44,1.53,1.53,0,0,0-.49.07,1.05,1.05,0,0,0-.37.17.85.85,0,0,0-.24.26.7.7,0,0,0-.09.35.8.8,0,0,0,.09.39.83.83,0,0,0,.25.28,1.67,1.67,0,0,0,.4.22l.53.22c.27.1.5.21.72.31a2.16,2.16,0,0,1,.53.37,1.41,1.41,0,0,1,.35.46,1.54,1.54,0,0,1,.12.63,1.47,1.47,0,0,1-.2.77,1.7,1.7,0,0,1-.52.55,2.49,2.49,0,0,1-.76.32,3.7,3.7,0,0,1-.9.11A3.37,3.37,0,0,1,356.1,56.49Z" fill="#1e1e1e"/>
      <path d="M365.63,56.43a3.1,3.1,0,0,1-1.64.42,2.69,2.69,0,0,1-2.07-.84,3,3,0,0,1-.79-2.16,3.33,3.33,0,0,1,.85-2.39,3,3,0,0,1,2.27-.9,3.09,3.09,0,0,1,1.39.3v1a2.45,2.45,0,0,0-1.43-.47,1.93,1.93,0,0,0-1.51.66,2.52,2.52,0,0,0-.59,1.73,2.39,2.39,0,0,0,.56,1.67,1.92,1.92,0,0,0,1.48.61,2.45,2.45,0,0,0,1.48-.52Z" fill="#1e1e1e"/>
      <path d="M370,51.68a1.16,1.16,0,0,0-.72-.2,1.24,1.24,0,0,0-1,.58,2.68,2.68,0,0,0-.42,1.59v3.06h-1v-6h1v1.23h0a2.09,2.09,0,0,1,.63-1,1.44,1.44,0,0,1,.94-.35,1.65,1.65,0,0,1,.57.08Z" fill="#1e1e1e"/>
      <path d="M371.61,49.18a.64.64,0,0,1-.44-.17.65.65,0,0,1,0-.9.6.6,0,0,1,.44-.18.63.63,0,0,1,.45.18.61.61,0,0,1,.18.45.6.6,0,0,1-.18.44A.63.63,0,0,1,371.61,49.18Zm.47,7.53h-1v-6h1Z" fill="#1e1e1e"/>
      <path d="M374.89,55.84h0v3.63h-1V50.71h1v1h0a2.26,2.26,0,0,1,2.07-1.2,2.18,2.18,0,0,1,1.81.81,3.31,3.31,0,0,1,.65,2.16,3.71,3.71,0,0,1-.73,2.41,2.44,2.44,0,0,1-2,.91A2,2,0,0,1,374.89,55.84Zm0-2.42v.84a1.8,1.8,0,0,0,.48,1.26,1.72,1.72,0,0,0,2.59-.15,3.07,3.07,0,0,0,.5-1.86,2.41,2.41,0,0,0-.46-1.57,1.54,1.54,0,0,0-1.26-.57,1.71,1.71,0,0,0-1.35.59A2.17,2.17,0,0,0,374.87,53.42Z" fill="#1e1e1e"/>
      <path d="M383.67,56.65a1.92,1.92,0,0,1-.9.18c-1,0-1.57-.58-1.57-1.75V51.53h-1v-.82h1V49.24l1-.31v1.78h1.51v.82h-1.51v3.38a1.45,1.45,0,0,0,.2.86A.84.84,0,0,0,383,56a1,1,0,0,0,.63-.2Z" fill="#1e1e1e"/>
      <path d="M385.36,49.18a.62.62,0,0,1-.44-.17.63.63,0,0,1,.44-1.08.6.6,0,0,1,.44.18.58.58,0,0,1,.19.45.58.58,0,0,1-.19.44A.6.6,0,0,1,385.36,49.18Zm.46,7.53h-1v-6h1Z" fill="#1e1e1e"/>
      <path d="M390.2,56.85a2.77,2.77,0,0,1-2.12-.84,3.14,3.14,0,0,1-.8-2.23,3.27,3.27,0,0,1,.83-2.37,3,3,0,0,1,2.23-.85,2.71,2.71,0,0,1,2.1.83,3.29,3.29,0,0,1,.75,2.29,3.21,3.21,0,0,1-.81,2.3A2.84,2.84,0,0,1,390.2,56.85Zm.07-5.48a1.81,1.81,0,0,0-1.46.63,2.59,2.59,0,0,0-.54,1.74,2.46,2.46,0,0,0,.54,1.68,1.87,1.87,0,0,0,1.46.62,1.73,1.73,0,0,0,1.43-.61,2.57,2.57,0,0,0,.51-1.71A2.65,2.65,0,0,0,391.7,52,1.76,1.76,0,0,0,390.27,51.37Z" fill="#1e1e1e"/>
      <path d="M399.65,56.71h-1V53.28c0-1.27-.46-1.91-1.39-1.91a1.52,1.52,0,0,0-1.2.55,2,2,0,0,0-.47,1.36v3.43h-1v-6h1v1h0a2.15,2.15,0,0,1,2-1.14,1.86,1.86,0,0,1,1.51.64,2.82,2.82,0,0,1,.52,1.84Z" fill="#1e1e1e"/>
    </g>
    <g>
      <path d="M364.12,82.61H363l-1.41-2.36a3.88,3.88,0,0,0-.37-.56,2.69,2.69,0,0,0-.37-.38,1.23,1.23,0,0,0-.41-.21,1.55,1.55,0,0,0-.5-.07h-.81v3.58h-1V74.2h2.51a3.62,3.62,0,0,1,1,.14,2.23,2.23,0,0,1,.81.42,2,2,0,0,1,.54.7,2.32,2.32,0,0,1,.19,1,2.37,2.37,0,0,1-.13.81,2.2,2.2,0,0,1-.37.65,2.57,2.57,0,0,1-.59.49,3.1,3.1,0,0,1-.77.31v0a1.88,1.88,0,0,1,.37.21,2.54,2.54,0,0,1,.29.28,4.17,4.17,0,0,1,.28.38l.31.48Zm-5-7.52v3h1.34a2.11,2.11,0,0,0,.68-.11,1.46,1.46,0,0,0,.54-.32,1.32,1.32,0,0,0,.36-.51,1.65,1.65,0,0,0,.13-.68,1.28,1.28,0,0,0-.44-1,1.88,1.88,0,0,0-1.26-.38Z" fill="#1e1e1e"/>
      <path d="M369.8,79.85h-4.24a2.27,2.27,0,0,0,.54,1.54,1.85,1.85,0,0,0,1.42.55,3,3,0,0,0,1.86-.67v.9a3.48,3.48,0,0,1-2.09.58,2.58,2.58,0,0,1-2-.82,3.37,3.37,0,0,1-.72-2.3,3.26,3.26,0,0,1,.79-2.28,2.55,2.55,0,0,1,2-.89,2.26,2.26,0,0,1,1.83.77,3.15,3.15,0,0,1,.64,2.11Zm-1-.82a2,2,0,0,0-.4-1.29,1.38,1.38,0,0,0-1.1-.47,1.58,1.58,0,0,0-1.16.49,2.21,2.21,0,0,0-.58,1.27Z" fill="#1e1e1e"/>
      <path d="M370.87,82.39v-1a2.9,2.9,0,0,0,1.73.58c.85,0,1.27-.28,1.27-.85a.72.72,0,0,0-.11-.4,1.17,1.17,0,0,0-.29-.3,2.27,2.27,0,0,0-.44-.23L372.5,80c-.27-.11-.5-.22-.7-.32a2.23,2.23,0,0,1-.51-.37,1.41,1.41,0,0,1-.3-.46,1.57,1.57,0,0,1-.1-.6,1.44,1.44,0,0,1,.19-.75,1.67,1.67,0,0,1,.52-.54,2.21,2.21,0,0,1,.73-.33,3.06,3.06,0,0,1,.85-.12,3.46,3.46,0,0,1,1.4.27v1a2.72,2.72,0,0,0-1.53-.44,1.75,1.75,0,0,0-.48.06,1.16,1.16,0,0,0-.37.18.66.66,0,0,0-.24.26.7.7,0,0,0-.09.35.8.8,0,0,0,.09.39.74.74,0,0,0,.25.28,1.59,1.59,0,0,0,.39.22l.54.22c.26.1.5.21.71.31a2.44,2.44,0,0,1,.54.37,1.38,1.38,0,0,1,.34.46,1.54,1.54,0,0,1,.12.63,1.47,1.47,0,0,1-.19.77,1.74,1.74,0,0,1-.53.55,2.54,2.54,0,0,1-.75.32,3.82,3.82,0,0,1-.9.11A3.41,3.41,0,0,1,370.87,82.39Z" fill="#1e1e1e"/>
      <path d="M378.82,82.75a2.79,2.79,0,0,1-2.12-.84,3.14,3.14,0,0,1-.8-2.23,3.27,3.27,0,0,1,.83-2.37,3,3,0,0,1,2.23-.85,2.7,2.7,0,0,1,2.1.83,3.29,3.29,0,0,1,.75,2.29,3.21,3.21,0,0,1-.81,2.3A2.84,2.84,0,0,1,378.82,82.75Zm.07-5.48a1.83,1.83,0,0,0-1.46.63,2.59,2.59,0,0,0-.54,1.74,2.46,2.46,0,0,0,.54,1.68,1.87,1.87,0,0,0,1.46.62,1.76,1.76,0,0,0,1.44-.61,2.62,2.62,0,0,0,.5-1.71,2.71,2.71,0,0,0-.5-1.74A1.79,1.79,0,0,0,378.89,77.27Z" fill="#1e1e1e"/>
      <path d="M388.17,82.61h-1v-1h0a2,2,0,0,1-1.86,1.09c-1.42,0-2.14-.86-2.14-2.56V76.61h1V80c0,1.26.48,1.9,1.45,1.9a1.5,1.5,0,0,0,1.16-.52,2,2,0,0,0,.45-1.36V76.61h1Z" fill="#1e1e1e"/>
      <path d="M393.12,77.58a1.18,1.18,0,0,0-.73-.2,1.25,1.25,0,0,0-1,.58,2.68,2.68,0,0,0-.41,1.59v3.06h-1v-6h1v1.23h0a2.17,2.17,0,0,1,.63-1,1.44,1.44,0,0,1,.94-.35,1.75,1.75,0,0,1,.58.08Z" fill="#1e1e1e"/>
      <path d="M398.23,82.33a3.1,3.1,0,0,1-1.64.42,2.71,2.71,0,0,1-2.07-.84,3,3,0,0,1-.79-2.16,3.33,3.33,0,0,1,.85-2.39,3,3,0,0,1,2.27-.9,3.06,3.06,0,0,1,1.39.3v1a2.45,2.45,0,0,0-1.43-.47,2,2,0,0,0-1.51.66,2.51,2.51,0,0,0-.58,1.73,2.39,2.39,0,0,0,.55,1.67,1.92,1.92,0,0,0,1.48.61,2.45,2.45,0,0,0,1.48-.52Z" fill="#1e1e1e"/>
      <path d="M404.39,79.85h-4.24a2.27,2.27,0,0,0,.54,1.54,1.84,1.84,0,0,0,1.42.55,3,3,0,0,0,1.86-.67v.9a3.5,3.5,0,0,1-2.09.58,2.56,2.56,0,0,1-2-.82,3.37,3.37,0,0,1-.73-2.3,3.27,3.27,0,0,1,.8-2.28,2.54,2.54,0,0,1,2-.89,2.24,2.24,0,0,1,1.82.77,3.15,3.15,0,0,1,.65,2.11Zm-1-.82a1.93,1.93,0,0,0-.4-1.29,1.36,1.36,0,0,0-1.1-.47,1.56,1.56,0,0,0-1.15.49,2.22,2.22,0,0,0-.59,1.27Z" fill="#1e1e1e"/>
      <path d="M415.54,82a5.61,5.61,0,0,1-2.82.72,3.85,3.85,0,0,1-2.9-1.16,4.27,4.27,0,0,1-1.11-3.07,4.39,4.39,0,0,1,1.23-3.21,4.2,4.2,0,0,1,3.12-1.25,5.28,5.28,0,0,1,2.31.45V75.6A4.44,4.44,0,0,0,413,75a3,3,0,0,0-2.31,1,3.54,3.54,0,0,0-.9,2.52,3.59,3.59,0,0,0,.83,2.5,2.94,2.94,0,0,0,2.28.91,3.53,3.53,0,0,0,1.7-.39V79.11h-1.84v-.89h2.83Z" fill="#1e1e1e"/>
      <path d="M420.46,77.58a1.16,1.16,0,0,0-.72-.2,1.24,1.24,0,0,0-1,.58,2.68,2.68,0,0,0-.42,1.59v3.06h-1v-6h1v1.23h0a2.08,2.08,0,0,1,.62-1,1.49,1.49,0,0,1,.95-.35,1.65,1.65,0,0,1,.57.08Z" fill="#1e1e1e"/>
      <path d="M424,82.75a2.79,2.79,0,0,1-2.13-.84,3.14,3.14,0,0,1-.79-2.23,3.27,3.27,0,0,1,.82-2.37,3,3,0,0,1,2.24-.85,2.69,2.69,0,0,1,2.09.83,3.29,3.29,0,0,1,.75,2.29,3.21,3.21,0,0,1-.81,2.3A2.82,2.82,0,0,1,424,82.75Zm.07-5.48a1.84,1.84,0,0,0-1.47.63,2.59,2.59,0,0,0-.54,1.74,2.41,2.41,0,0,0,.55,1.68,1.85,1.85,0,0,0,1.46.62,1.73,1.73,0,0,0,1.43-.61,2.62,2.62,0,0,0,.5-1.71,2.71,2.71,0,0,0-.5-1.74A1.76,1.76,0,0,0,424.1,77.27Z" fill="#1e1e1e"/>
      <path d="M433.37,82.61h-1v-1h0a2,2,0,0,1-1.85,1.09c-1.43,0-2.15-.86-2.15-2.56V76.61h1V80c0,1.26.48,1.9,1.45,1.9a1.49,1.49,0,0,0,1.16-.52,2,2,0,0,0,.45-1.36V76.61h1Z" fill="#1e1e1e"/>
      <path d="M436.17,81.74h0v3.63h-1V76.61h1v1h0a2.29,2.29,0,0,1,2.08-1.2,2.19,2.19,0,0,1,1.81.81,3.37,3.37,0,0,1,.65,2.16,3.71,3.71,0,0,1-.73,2.41,2.46,2.46,0,0,1-2,.91A2,2,0,0,1,436.17,81.74Zm0-2.42v.84a1.8,1.8,0,0,0,.48,1.26,1.65,1.65,0,0,0,1.23.52,1.63,1.63,0,0,0,1.37-.67,3.07,3.07,0,0,0,.5-1.86,2.41,2.41,0,0,0-.47-1.57,1.52,1.52,0,0,0-1.25-.57,1.71,1.71,0,0,0-1.35.59A2.13,2.13,0,0,0,436.15,79.32Z" fill="#1e1e1e"/>
    </g>
    <g>
      <path d="M393.14,147.27H392l-1.41-2.35a5,5,0,0,0-.37-.56,2.24,2.24,0,0,0-.37-.38,1.49,1.49,0,0,0-.41-.22,2,2,0,0,0-.5-.06h-.81v3.57h-1v-8.4h2.51a3.29,3.29,0,0,1,1,.14,2.23,2.23,0,0,1,.81.42,1.88,1.88,0,0,1,.54.7,2.58,2.58,0,0,1,.06,1.78,2.07,2.07,0,0,1-.38.66,2.32,2.32,0,0,1-.58.49,3.54,3.54,0,0,1-.77.31v0a2.06,2.06,0,0,1,.66.5,4,4,0,0,1,.28.37l.31.49Zm-5-7.51v3.05h1.34a1.91,1.91,0,0,0,.68-.12,1.59,1.59,0,0,0,.54-.31,1.43,1.43,0,0,0,.36-.51,1.68,1.68,0,0,0,.13-.68,1.32,1.32,0,0,0-.44-1.05,1.88,1.88,0,0,0-1.26-.38Z" fill="#1e1e1e"/>
      <path d="M400.29,147.27h-1.17l-1.41-2.35a3.88,3.88,0,0,0-.38-.56A1.92,1.92,0,0,0,397,144a1.25,1.25,0,0,0-.41-.22,1.83,1.83,0,0,0-.49-.06h-.81v3.57h-1v-8.4h2.51a3.31,3.31,0,0,1,1,.14,2.23,2.23,0,0,1,.81.42,1.86,1.86,0,0,1,.53.7,2.25,2.25,0,0,1,.2,1,2.53,2.53,0,0,1-.13.8,2.27,2.27,0,0,1-.38.66,2.37,2.37,0,0,1-.59.49,3.17,3.17,0,0,1-.77.31v0a1.65,1.65,0,0,1,.37.22,2.56,2.56,0,0,1,.3.28,4,4,0,0,1,.27.37c.1.14.2.3.31.49Zm-5-7.51v3.05h1.33a1.92,1.92,0,0,0,.69-.12,1.59,1.59,0,0,0,.54-.31,1.57,1.57,0,0,0,.36-.51,1.87,1.87,0,0,0,.13-.68,1.32,1.32,0,0,0-.44-1.05,1.88,1.88,0,0,0-1.26-.38Z" fill="#1e1e1e"/>
      <path d="M408.4,147.27h-1.09l-.89-2.35h-3.56l-.84,2.35h-1.1l3.23-8.4h1ZM406.1,144l-1.32-3.58a3.38,3.38,0,0,1-.13-.56h0a3.23,3.23,0,0,1-.14.56l-1.3,3.58Z" fill="#1e1e1e"/>
      <path d="M409.34,146.93v-1.16a2.23,2.23,0,0,0,.48.32,3.69,3.69,0,0,0,.58.23,3.5,3.5,0,0,0,.62.15,3.09,3.09,0,0,0,.58.06,2.27,2.27,0,0,0,1.35-.34,1.26,1.26,0,0,0,.3-1.56,1.76,1.76,0,0,0-.41-.46,4.57,4.57,0,0,0-.63-.4l-.77-.4c-.3-.15-.57-.3-.82-.45a2.89,2.89,0,0,1-.66-.51,2.1,2.1,0,0,1-.45-.62,2.07,2.07,0,0,1-.16-.82,2,2,0,0,1,.25-1,2.24,2.24,0,0,1,.67-.7,3,3,0,0,1,.93-.41,4.29,4.29,0,0,1,1.07-.13,4.08,4.08,0,0,1,1.81.3v1.1a3.31,3.31,0,0,0-1.91-.51,2.79,2.79,0,0,0-.64.07,1.56,1.56,0,0,0-.58.22,1.27,1.27,0,0,0-.41.39,1.07,1.07,0,0,0-.16.58,1.22,1.22,0,0,0,.12.56,1.31,1.31,0,0,0,.36.43,3,3,0,0,0,.57.37c.22.12.48.26.78.4s.58.31.85.47a3.62,3.62,0,0,1,.71.55,2.38,2.38,0,0,1,.48.66,1.84,1.84,0,0,1,.18.83,2.14,2.14,0,0,1-.24,1,1.93,1.93,0,0,1-.66.7,2.8,2.8,0,0,1-.95.39,5.24,5.24,0,0,1-1.14.12l-.49,0-.6-.09-.57-.16A1.51,1.51,0,0,1,409.34,146.93Z" fill="#1e1e1e"/>
    </g>
    <g>
      <path d="M44.74,10.2H42.67l-.59-1.87h-3L38.5,10.2H36.44L39.5,1.8h2.25Zm-3.1-3.32-.9-2.83a3.59,3.59,0,0,1-.14-.75h-.05a3.76,3.76,0,0,1-.14.73l-.92,2.85Z" fill="#1e1e1e"/>
      <path d="M50.66,10.2H45.28V9.43l3-3.86H45.58V4.2h5.06v.92L47.79,8.84h2.87Z" fill="#1e1e1e"/>
      <path d="M57.43,10.2H55.58V9.29h0a2.1,2.1,0,0,1-1.83,1.06c-1.39,0-2.09-.84-2.09-2.53V4.2h1.85V7.66c0,.85.33,1.27,1,1.27a1,1,0,0,0,.79-.35,1.41,1.41,0,0,0,.3-1V4.2h1.85Z" fill="#1e1e1e"/>
      <path d="M62.87,5.87a1.66,1.66,0,0,0-.78-.18,1.15,1.15,0,0,0-1,.44,2,2,0,0,0-.34,1.21V10.2H59v-6H60.8V5.31h0A1.59,1.59,0,0,1,62.41,4.1a1.14,1.14,0,0,1,.46.07Z" fill="#1e1e1e"/>
      <path d="M69.2,7.73H65.28c.06.87.61,1.31,1.65,1.31a3.24,3.24,0,0,0,1.74-.47V9.9a4.56,4.56,0,0,1-2.16.45,3,3,0,0,1-2.26-.81,3,3,0,0,1-.8-2.25,3.23,3.23,0,0,1,.86-2.36,2.91,2.91,0,0,1,2.14-.88,2.63,2.63,0,0,1,2,.78A3,3,0,0,1,69.2,7ZM67.48,6.59c0-.86-.35-1.29-1-1.29a1,1,0,0,0-.77.37,1.68,1.68,0,0,0-.4.92Z" fill="#1e1e1e"/>
      <path d="M73.4,9.88V8a3.68,3.68,0,0,0,1.11.65,3.63,3.63,0,0,0,1.21.21,2.3,2.3,0,0,0,.62-.07,1.57,1.57,0,0,0,.45-.17.83.83,0,0,0,.26-.27A.69.69,0,0,0,77.14,8,.77.77,0,0,0,77,7.57a1.47,1.47,0,0,0-.38-.36A4.45,4.45,0,0,0,76,6.9c-.22-.11-.46-.21-.72-.31a3.66,3.66,0,0,1-1.47-1,2.19,2.19,0,0,1-.48-1.43A2.32,2.32,0,0,1,73.63,3a2.25,2.25,0,0,1,.72-.78A3.33,3.33,0,0,1,75.4,1.8a5.75,5.75,0,0,1,1.27-.14,6.81,6.81,0,0,1,1.16.08,4.22,4.22,0,0,1,.93.24V3.73a2.9,2.9,0,0,0-.46-.26,3.82,3.82,0,0,0-.51-.18,4.82,4.82,0,0,0-.52-.11l-.5,0a2.58,2.58,0,0,0-.58.06,1.57,1.57,0,0,0-.45.17.91.91,0,0,0-.28.27.6.6,0,0,0-.1.35.67.67,0,0,0,.11.37,1.08,1.08,0,0,0,.32.32,2.54,2.54,0,0,0,.5.29,7,7,0,0,0,.66.3,7.55,7.55,0,0,1,.9.45,3.15,3.15,0,0,1,.69.53A2.08,2.08,0,0,1,79,7a2.4,2.4,0,0,1,.15.89A2.48,2.48,0,0,1,78.87,9a2.08,2.08,0,0,1-.73.77,3.15,3.15,0,0,1-1.06.43,6.61,6.61,0,0,1-1.28.13,7,7,0,0,1-1.32-.12A4,4,0,0,1,73.4,9.88Z" fill="#1e1e1e"/>
      <path d="M83.78,10.13a2.67,2.67,0,0,1-1.24.22q-2,0-2-2V5.57h-1V4.2h1V2.91l1.84-.53V4.2h1.35V5.57H82.43V8c0,.63.25.94.75.94a1.31,1.31,0,0,0,.6-.17Z" fill="#1e1e1e"/>
      <path d="M89.94,10.2H88.19V9.34h0a2,2,0,0,1-1.79,1A1.86,1.86,0,0,1,85,9.85a1.75,1.75,0,0,1-.5-1.32c0-1.16.69-1.83,2.06-2L88.2,6.3c0-.66-.35-1-1.06-1a3.67,3.67,0,0,0-2,.64V4.56a4.67,4.67,0,0,1,1.06-.35,5.61,5.61,0,0,1,1.22-.16,2.27,2.27,0,0,1,2.56,2.57ZM88.2,7.76v-.4l-1.09.14q-.9.12-.9.81a.65.65,0,0,0,.22.52A.84.84,0,0,0,87,9a1.05,1.05,0,0,0,.84-.37A1.29,1.29,0,0,0,88.2,7.76Z" fill="#1e1e1e"/>
      <path d="M96,10a3.57,3.57,0,0,1-1.81.37,3.06,3.06,0,0,1-2.24-.84,2.89,2.89,0,0,1-.85-2.16A3.14,3.14,0,0,1,92,4.94a3.37,3.37,0,0,1,2.45-.89A3.08,3.08,0,0,1,96,4.34V5.91a2.1,2.1,0,0,0-1.29-.44,1.62,1.62,0,0,0-1.73,1.75,1.76,1.76,0,0,0,.44,1.26,1.66,1.66,0,0,0,1.23.45A2.42,2.42,0,0,0,96,8.5Z" fill="#1e1e1e"/>
      <path d="M103.29,10.2h-2.23l-1.91-3h0v3H97.27V1.32h1.85V7h0l1.79-2.77h2.19L101,7Z" fill="#1e1e1e"/>
      <path d="M114.75,10.2h-1.9V6.78h-3.48V10.2h-1.9V1.8h1.9V5.15h3.48V1.8h1.9Z" fill="#1e1e1e"/>
      <path d="M122.16,10.2h-1.84V9.29h0a2.12,2.12,0,0,1-1.84,1.06c-1.39,0-2.08-.84-2.08-2.53V4.2h1.84V7.66c0,.85.34,1.27,1,1.27a1,1,0,0,0,.8-.35,1.41,1.41,0,0,0,.3-1V4.2h1.84Z" fill="#1e1e1e"/>
      <path d="M125.56,9.5h0v.7h-1.85V1.32h1.85V5.1h0a2.2,2.2,0,0,1,2-1,2.15,2.15,0,0,1,1.79.8A3.43,3.43,0,0,1,129.93,7a3.78,3.78,0,0,1-.73,2.41,2.41,2.41,0,0,1-2,.91A1.89,1.89,0,0,1,125.56,9.5Zm0-2.53v.62a1.44,1.44,0,0,0,.33,1,1.2,1.2,0,0,0,1.84-.11A2.4,2.4,0,0,0,128,7.05a1.9,1.9,0,0,0-.32-1.16,1.08,1.08,0,0,0-.91-.42,1.16,1.16,0,0,0-.92.42A1.56,1.56,0,0,0,125.51,7Z" fill="#1e1e1e"/>
      <path d="M39.24,24.6H37.35V16.2h1.89Z" fill="#1e1e1e"/>
      <path d="M46.71,24.6H44.86V21.27c0-.93-.33-1.4-1-1.4a1,1,0,0,0-.79.37,1.46,1.46,0,0,0-.31.94V24.6H40.91v-6h1.85v.95h0a2.12,2.12,0,0,1,1.92-1.1c1.33,0,2,.83,2,2.48Z" fill="#1e1e1e"/>
      <path d="M47.89,24.44v-1.5a3.82,3.82,0,0,0,.91.41,3.08,3.08,0,0,0,.86.14,1.84,1.84,0,0,0,.78-.14.42.42,0,0,0,.28-.41.37.37,0,0,0-.13-.29,1,1,0,0,0-.33-.21,3.76,3.76,0,0,0-.44-.15l-.46-.16a4.68,4.68,0,0,1-.63-.29,2.16,2.16,0,0,1-.46-.36A1.44,1.44,0,0,1,48,21a1.76,1.76,0,0,1-.1-.64,1.69,1.69,0,0,1,.22-.86,1.88,1.88,0,0,1,.59-.6,2.9,2.9,0,0,1,.84-.34,4.46,4.46,0,0,1,1-.11,5.78,5.78,0,0,1,.81.07,7.1,7.1,0,0,1,.8.17v1.43a3.09,3.09,0,0,0-.75-.3,3.13,3.13,0,0,0-.79-.11,1.86,1.86,0,0,0-.34,0,1,1,0,0,0-.28.09.46.46,0,0,0-.2.16.4.4,0,0,0,0,.5.79.79,0,0,0,.27.2,2.15,2.15,0,0,0,.38.15l.41.14a6.16,6.16,0,0,1,.67.28,2.18,2.18,0,0,1,.52.36,1.39,1.39,0,0,1,.32.48,1.62,1.62,0,0,1,.12.66,1.76,1.76,0,0,1-.23.91,1.81,1.81,0,0,1-.62.61,2.66,2.66,0,0,1-.88.35,5.1,5.1,0,0,1-1,.11A5.27,5.27,0,0,1,47.89,24.44Z" fill="#1e1e1e"/>
      <path d="M57.17,24.53a2.7,2.7,0,0,1-1.24.22c-1.31,0-2-.68-2-2V20H53V18.6h1V17.31l1.85-.53V18.6h1.35V20H55.82v2.42c0,.63.25.94.74.94a1.31,1.31,0,0,0,.61-.17Z" fill="#1e1e1e"/>
      <path d="M63.33,24.6H61.58v-.86h0a2,2,0,0,1-1.78,1,1.88,1.88,0,0,1-1.38-.5,1.79,1.79,0,0,1-.5-1.32q0-1.74,2.07-2l1.63-.22c0-.66-.36-1-1.07-1a3.72,3.72,0,0,0-2,.64V19a4.67,4.67,0,0,1,1.06-.35,5.69,5.69,0,0,1,1.22-.16A2.27,2.27,0,0,1,63.33,21Zm-1.74-2.44v-.4l-1.09.14q-.9.12-.9.81a.65.65,0,0,0,.22.52.8.8,0,0,0,.59.21,1.1,1.1,0,0,0,.85-.37A1.29,1.29,0,0,0,61.59,22.16Z" fill="#1e1e1e"/>
      <path d="M70.59,24.6H68.74V21.27c0-.93-.33-1.4-1-1.4a1,1,0,0,0-.79.37,1.41,1.41,0,0,0-.32.94V24.6H64.79v-6h1.85v.95h0a2.12,2.12,0,0,1,1.93-1.1c1.32,0,2,.83,2,2.48Z" fill="#1e1e1e"/>
      <path d="M76.61,24.38a3.57,3.57,0,0,1-1.81.37,3.06,3.06,0,0,1-2.24-.84,2.89,2.89,0,0,1-.85-2.16,3.17,3.17,0,0,1,.91-2.41,3.38,3.38,0,0,1,2.45-.89,3.13,3.13,0,0,1,1.54.29v1.57a2.13,2.13,0,0,0-1.3-.44,1.71,1.71,0,0,0-1.26.47,1.73,1.73,0,0,0-.46,1.28A1.71,1.71,0,0,0,74,22.88a1.66,1.66,0,0,0,1.23.45,2.42,2.42,0,0,0,1.35-.43Z" fill="#1e1e1e"/>
      <path d="M83.23,22.13H79.32c.06.87.61,1.31,1.64,1.31A3.27,3.27,0,0,0,82.71,23V24.3a4.57,4.57,0,0,1-2.17.45,2.81,2.81,0,0,1-3.06-3.06,3.19,3.19,0,0,1,.87-2.36,2.91,2.91,0,0,1,2.13-.88,2.6,2.6,0,0,1,2,.78,3,3,0,0,1,.72,2.12ZM81.52,21q0-1.29-1-1.29a1,1,0,0,0-.77.37,1.67,1.67,0,0,0-.39.92Z" fill="#1e1e1e"/>
    </g>
    <g>
      <path d="M57.4,56.37V55.21a2.21,2.21,0,0,0,.48.31,3.72,3.72,0,0,0,.58.24c.21.06.41.11.62.15a4.13,4.13,0,0,0,.58.05A2.2,2.2,0,0,0,61,55.62a1.12,1.12,0,0,0,.45-1,1.15,1.15,0,0,0-.15-.59,1.94,1.94,0,0,0-.41-.46,4.57,4.57,0,0,0-.63-.4l-.77-.4c-.3-.15-.57-.3-.82-.45a3.54,3.54,0,0,1-.67-.5,2.3,2.3,0,0,1-.44-.63,1.86,1.86,0,0,1-.16-.81,2,2,0,0,1,.25-1,2,2,0,0,1,.67-.7,2.8,2.8,0,0,1,.93-.41,4.3,4.3,0,0,1,1.07-.14,4.08,4.08,0,0,1,1.81.3v1.11a3.31,3.31,0,0,0-1.91-.52,3.59,3.59,0,0,0-.65.07,2,2,0,0,0-.57.22,1.27,1.27,0,0,0-.41.39,1.1,1.1,0,0,0-.16.59,1.25,1.25,0,0,0,.12.56,1.39,1.39,0,0,0,.36.42,3,3,0,0,0,.57.38l.77.4a8.72,8.72,0,0,1,.86.47,3.59,3.59,0,0,1,.71.54,2.53,2.53,0,0,1,.48.66,1.84,1.84,0,0,1,.18.83,2.16,2.16,0,0,1-.24,1.06,2,2,0,0,1-.66.7,2.8,2.8,0,0,1-1,.39,5.24,5.24,0,0,1-1.14.12,3.29,3.29,0,0,1-.49,0l-.6-.09a4.74,4.74,0,0,1-.57-.15A1.83,1.83,0,0,1,57.4,56.37Z" fill="#1e1e1e"/>
      <path d="M68.75,56.71h-1v-1h0a2,2,0,0,1-1.85,1.09c-1.43,0-2.14-.86-2.14-2.56V50.71h.95v3.43c0,1.26.49,1.9,1.46,1.9a1.47,1.47,0,0,0,1.15-.52,2,2,0,0,0,.46-1.36V50.71h1Z" fill="#1e1e1e"/>
      <path d="M71.55,55.84h0v.87h-1V47.82h1v3.94h0a2.26,2.26,0,0,1,2.07-1.2,2.19,2.19,0,0,1,1.81.81,3.31,3.31,0,0,1,.65,2.16,3.71,3.71,0,0,1-.73,2.41,2.44,2.44,0,0,1-2,.91A2,2,0,0,1,71.55,55.84Zm0-2.42v.84A1.8,1.8,0,0,0,72,55.52a1.73,1.73,0,0,0,2.6-.15,3.07,3.07,0,0,0,.49-1.86,2.41,2.41,0,0,0-.46-1.57,1.54,1.54,0,0,0-1.26-.57A1.7,1.7,0,0,0,72,52,2.13,2.13,0,0,0,71.53,53.42Z" fill="#1e1e1e"/>
      <path d="M77.19,56.49v-1a2.88,2.88,0,0,0,1.73.58c.84,0,1.26-.28,1.26-.85a.72.72,0,0,0-.1-.4,1.22,1.22,0,0,0-.3-.3,1.93,1.93,0,0,0-.43-.23l-.54-.21-.7-.32a2,2,0,0,1-.5-.37,1.29,1.29,0,0,1-.31-.46,1.79,1.79,0,0,1-.1-.6,1.45,1.45,0,0,1,.2-.75,1.64,1.64,0,0,1,.51-.54,2.26,2.26,0,0,1,.74-.33,3,3,0,0,1,.85-.12,3.41,3.41,0,0,1,1.39.27v1a2.71,2.71,0,0,0-1.52-.44,1.53,1.53,0,0,0-.49.07,1.14,1.14,0,0,0-.37.17.85.85,0,0,0-.24.26.69.69,0,0,0-.08.35.8.8,0,0,0,.08.39.83.83,0,0,0,.25.28,1.67,1.67,0,0,0,.4.22l.53.22c.27.1.51.21.72.31a2.44,2.44,0,0,1,.54.37,1.36,1.36,0,0,1,.46,1.09,1.47,1.47,0,0,1-.2.77,1.7,1.7,0,0,1-.52.55,2.49,2.49,0,0,1-.76.32,3.68,3.68,0,0,1-.89.11A3.39,3.39,0,0,1,77.19,56.49Z" fill="#1e1e1e"/>
      <path d="M86.72,56.43a3.1,3.1,0,0,1-1.64.42A2.72,2.72,0,0,1,83,56a3,3,0,0,1-.79-2.16,3.33,3.33,0,0,1,.85-2.39,3,3,0,0,1,2.27-.9,3.06,3.06,0,0,1,1.39.3v1a2.45,2.45,0,0,0-1.43-.47,2,2,0,0,0-1.51.66,2.51,2.51,0,0,0-.58,1.73,2.39,2.39,0,0,0,.55,1.67,1.93,1.93,0,0,0,1.49.61,2.44,2.44,0,0,0,1.47-.52Z" fill="#1e1e1e"/>
      <path d="M91.14,51.68a1.18,1.18,0,0,0-.73-.2,1.25,1.25,0,0,0-1,.58A2.75,2.75,0,0,0,89,53.65v3.06H88v-6h1v1.23h0a2.17,2.17,0,0,1,.63-1,1.44,1.44,0,0,1,.94-.35,1.75,1.75,0,0,1,.58.08Z" fill="#1e1e1e"/>
      <path d="M92.7,49.18a.64.64,0,0,1-.44-.17.65.65,0,0,1,0-.9.6.6,0,0,1,.44-.18.62.62,0,0,1,.63.63.6.6,0,0,1-.18.44A.61.61,0,0,1,92.7,49.18Zm.47,7.53h-1v-6h1Z" fill="#1e1e1e"/>
      <path d="M96,55.84h0v3.63H95V50.71h1v1h0a2.28,2.28,0,0,1,2.08-1.2,2.2,2.2,0,0,1,1.81.81,3.37,3.37,0,0,1,.65,2.16,3.71,3.71,0,0,1-.74,2.41,2.43,2.43,0,0,1-2,.91A2,2,0,0,1,96,55.84Zm0-2.42v.84a1.8,1.8,0,0,0,.48,1.26,1.73,1.73,0,0,0,2.6-.15,3.07,3.07,0,0,0,.49-1.86,2.41,2.41,0,0,0-.46-1.57,1.53,1.53,0,0,0-1.25-.57,1.71,1.71,0,0,0-1.35.59A2.13,2.13,0,0,0,96,53.42Z" fill="#1e1e1e"/>
      <path d="M104.76,56.65a1.87,1.87,0,0,1-.89.18c-1.05,0-1.58-.58-1.58-1.75V51.53h-1v-.82h1V49.24l1-.31v1.78h1.51v.82h-1.51v3.38a1.37,1.37,0,0,0,.21.86.81.81,0,0,0,.68.26,1,1,0,0,0,.62-.2Z" fill="#1e1e1e"/>
      <path d="M106.45,49.18A.64.64,0,0,1,106,49a.65.65,0,0,1,0-.9.6.6,0,0,1,.44-.18.64.64,0,0,1,.45.18.61.61,0,0,1,.18.45.6.6,0,0,1-.18.44A.64.64,0,0,1,106.45,49.18Zm.47,7.53h-1v-6h1Z" fill="#1e1e1e"/>
      <path d="M111.29,56.85a2.79,2.79,0,0,1-2.12-.84,3.14,3.14,0,0,1-.8-2.23,3.27,3.27,0,0,1,.83-2.37,3,3,0,0,1,2.23-.85,2.7,2.7,0,0,1,2.1.83,3.29,3.29,0,0,1,.75,2.29,3.21,3.21,0,0,1-.81,2.3A2.84,2.84,0,0,1,111.29,56.85Zm.07-5.48a1.83,1.83,0,0,0-1.46.63,2.59,2.59,0,0,0-.54,1.74,2.46,2.46,0,0,0,.54,1.68,1.87,1.87,0,0,0,1.46.62,1.76,1.76,0,0,0,1.44-.61,2.62,2.62,0,0,0,.5-1.71,2.71,2.71,0,0,0-.5-1.74A1.79,1.79,0,0,0,111.36,51.37Z" fill="#1e1e1e"/>
      <path d="M120.74,56.71h-1V53.28c0-1.27-.46-1.91-1.39-1.91a1.48,1.48,0,0,0-1.19.55,2,2,0,0,0-.48,1.36v3.43h-1v-6h1v1h0a2.16,2.16,0,0,1,2-1.14,1.85,1.85,0,0,1,1.5.64,2.82,2.82,0,0,1,.52,1.84Z" fill="#1e1e1e"/>
    </g>
    <g>
      <path d="M85.22,82.61H84l-1.4-2.36a4.9,4.9,0,0,0-.38-.56,2.23,2.23,0,0,0-.37-.38,1.14,1.14,0,0,0-.41-.21A1.53,1.53,0,0,0,81,79h-.81v3.58h-1V74.2H81.7a3.64,3.64,0,0,1,1,.14,2.23,2.23,0,0,1,.81.42,2.06,2.06,0,0,1,.53.7,2.32,2.32,0,0,1,.19,1,2.37,2.37,0,0,1-.13.81,2,2,0,0,1-.37.65,2.37,2.37,0,0,1-.59.49,3,3,0,0,1-.77.31v0a1.88,1.88,0,0,1,.37.21,2.54,2.54,0,0,1,.29.28,2.88,2.88,0,0,1,.28.38l.31.48Zm-5-7.52v3h1.33A2.17,2.17,0,0,0,82.2,78a1.64,1.64,0,0,0,.54-.32,1.41,1.41,0,0,0,.35-.51,1.65,1.65,0,0,0,.13-.68,1.31,1.31,0,0,0-.43-1,1.89,1.89,0,0,0-1.27-.38Z" fill="#1e1e1e"/>
      <path d="M90.89,79.85H86.66a2.18,2.18,0,0,0,.54,1.54,1.82,1.82,0,0,0,1.41.55,3,3,0,0,0,1.87-.67v.9a3.53,3.53,0,0,1-2.1.58,2.54,2.54,0,0,1-2-.82,3.33,3.33,0,0,1-.73-2.3,3.26,3.26,0,0,1,.79-2.28,2.56,2.56,0,0,1,2-.89,2.26,2.26,0,0,1,1.82.77,3.15,3.15,0,0,1,.64,2.11Zm-1-.82a2,2,0,0,0-.4-1.29,1.38,1.38,0,0,0-1.1-.47,1.6,1.6,0,0,0-1.16.49A2.21,2.21,0,0,0,86.67,79Z" fill="#1e1e1e"/>
      <path d="M92,82.39v-1a2.88,2.88,0,0,0,1.73.58c.84,0,1.26-.28,1.26-.85a.72.72,0,0,0-.11-.4,1.17,1.17,0,0,0-.29-.3,2.18,2.18,0,0,0-.43-.23L93.59,80c-.27-.11-.5-.22-.7-.32a2,2,0,0,1-.5-.37,1.29,1.29,0,0,1-.31-.46,1.57,1.57,0,0,1-.1-.6,1.44,1.44,0,0,1,.19-.75,1.67,1.67,0,0,1,.52-.54,2.21,2.21,0,0,1,.73-.33,3.08,3.08,0,0,1,.86-.12,3.45,3.45,0,0,1,1.39.27v1a2.71,2.71,0,0,0-1.52-.44,1.83,1.83,0,0,0-.49.06,1.28,1.28,0,0,0-.37.18.66.66,0,0,0-.24.26.7.7,0,0,0-.09.35.8.8,0,0,0,.09.39.74.74,0,0,0,.25.28,1.67,1.67,0,0,0,.4.22l.53.22c.26.1.5.21.71.31a2.44,2.44,0,0,1,.54.37,1.41,1.41,0,0,1,.35.46A1.54,1.54,0,0,1,96,81a1.47,1.47,0,0,1-.2.77,1.74,1.74,0,0,1-.53.55,2.43,2.43,0,0,1-.75.32,3.82,3.82,0,0,1-.9.11A3.37,3.37,0,0,1,92,82.39Z" fill="#1e1e1e"/>
      <path d="M99.91,82.75a2.79,2.79,0,0,1-2.12-.84A3.14,3.14,0,0,1,97,79.68a3.27,3.27,0,0,1,.82-2.37,3,3,0,0,1,2.23-.85,2.7,2.7,0,0,1,2.1.83,3.29,3.29,0,0,1,.75,2.29,3.21,3.21,0,0,1-.81,2.3A2.84,2.84,0,0,1,99.91,82.75Zm.07-5.48a1.83,1.83,0,0,0-1.46.63A2.59,2.59,0,0,0,98,79.64a2.41,2.41,0,0,0,.55,1.68,1.83,1.83,0,0,0,1.45.62,1.75,1.75,0,0,0,1.44-.61,2.62,2.62,0,0,0,.5-1.71,2.71,2.71,0,0,0-.5-1.74A1.78,1.78,0,0,0,100,77.27Z" fill="#1e1e1e"/>
      <path d="M109.26,82.61h-1v-1h0a2,2,0,0,1-1.85,1.09c-1.43,0-2.15-.86-2.15-2.56V76.61h1V80c0,1.26.48,1.9,1.45,1.9a1.5,1.5,0,0,0,1.16-.52,2,2,0,0,0,.45-1.36V76.61h1Z" fill="#1e1e1e"/>
      <path d="M114.21,77.58a1.18,1.18,0,0,0-.73-.2,1.25,1.25,0,0,0-1,.58,2.75,2.75,0,0,0-.41,1.59v3.06h-1v-6h1v1.23h0a2.17,2.17,0,0,1,.63-1,1.46,1.46,0,0,1,.94-.35,1.71,1.71,0,0,1,.58.08Z" fill="#1e1e1e"/>
      <path d="M119.32,82.33a3.08,3.08,0,0,1-1.64.42,2.72,2.72,0,0,1-2.07-.84,3.06,3.06,0,0,1-.79-2.16,3.37,3.37,0,0,1,.85-2.39,3,3,0,0,1,2.27-.9,3.13,3.13,0,0,1,1.4.3v1a2.49,2.49,0,0,0-1.43-.47,1.92,1.92,0,0,0-1.51.66,2.47,2.47,0,0,0-.59,1.73,2.39,2.39,0,0,0,.55,1.67,1.94,1.94,0,0,0,1.49.61,2.44,2.44,0,0,0,1.47-.52Z" fill="#1e1e1e"/>
      <path d="M125.48,79.85h-4.24a2.27,2.27,0,0,0,.54,1.54,1.85,1.85,0,0,0,1.42.55,3,3,0,0,0,1.86-.67v.9a3.48,3.48,0,0,1-2.09.58,2.56,2.56,0,0,1-2-.82,3.37,3.37,0,0,1-.72-2.3,3.26,3.26,0,0,1,.79-2.28,2.55,2.55,0,0,1,2-.89,2.23,2.23,0,0,1,1.82.77,3.15,3.15,0,0,1,.65,2.11Zm-1-.82a1.93,1.93,0,0,0-.41-1.29,1.36,1.36,0,0,0-1.09-.47,1.58,1.58,0,0,0-1.16.49,2.22,2.22,0,0,0-.59,1.27Z" fill="#1e1e1e"/>
      <path d="M136.63,82a5.57,5.57,0,0,1-2.81.72,3.86,3.86,0,0,1-2.91-1.16,4.27,4.27,0,0,1-1.11-3.07A4.39,4.39,0,0,1,131,75.31a4.23,4.23,0,0,1,3.13-1.25,5.27,5.27,0,0,1,2.3.45V75.6a4.41,4.41,0,0,0-2.41-.65,3,3,0,0,0-2.32,1,4.06,4.06,0,0,0-.06,5,2.92,2.92,0,0,0,2.27.91,3.54,3.54,0,0,0,1.71-.39V79.11h-1.84v-.89h2.82Z" fill="#1e1e1e"/>
      <path d="M141.55,77.58a1.14,1.14,0,0,0-.72-.2,1.25,1.25,0,0,0-1,.58,2.68,2.68,0,0,0-.41,1.59v3.06h-1v-6h1v1.23h0a2.17,2.17,0,0,1,.63-1,1.44,1.44,0,0,1,.94-.35,1.65,1.65,0,0,1,.57.08Z" fill="#1e1e1e"/>
      <path d="M145.12,82.75a2.76,2.76,0,0,1-2.12-.84,3.1,3.1,0,0,1-.8-2.23,3.27,3.27,0,0,1,.83-2.37,3,3,0,0,1,2.23-.85,2.69,2.69,0,0,1,2.09.83,3.25,3.25,0,0,1,.76,2.29,3.21,3.21,0,0,1-.81,2.3A2.85,2.85,0,0,1,145.12,82.75Zm.07-5.48a1.84,1.84,0,0,0-1.47.63,2.59,2.59,0,0,0-.54,1.74,2.46,2.46,0,0,0,.55,1.68,1.85,1.85,0,0,0,1.46.62,1.73,1.73,0,0,0,1.43-.61,2.57,2.57,0,0,0,.5-1.71,2.65,2.65,0,0,0-.5-1.74A1.76,1.76,0,0,0,145.19,77.27Z" fill="#1e1e1e"/>
      <path d="M154.47,82.61h-1v-1h0a2,2,0,0,1-1.85,1.09c-1.43,0-2.14-.86-2.14-2.56V76.61h.95V80c0,1.26.49,1.9,1.45,1.9a1.49,1.49,0,0,0,1.16-.52,2,2,0,0,0,.46-1.36V76.61h1Z" fill="#1e1e1e"/>
      <path d="M157.27,81.74h0v3.63h-1V76.61h1v1h0a2.26,2.26,0,0,1,2.07-1.2,2.18,2.18,0,0,1,1.81.81,3.31,3.31,0,0,1,.65,2.16,3.71,3.71,0,0,1-.73,2.41,2.46,2.46,0,0,1-2,.91A2,2,0,0,1,157.27,81.74Zm0-2.42v.84a1.81,1.81,0,0,0,.49,1.26,1.72,1.72,0,0,0,2.59-.15,3.07,3.07,0,0,0,.5-1.86,2.47,2.47,0,0,0-.46-1.57,1.54,1.54,0,0,0-1.26-.57,1.71,1.71,0,0,0-1.35.59A2.13,2.13,0,0,0,157.24,79.32Z" fill="#1e1e1e"/>
    </g>
    <g>
      <path d="M114.23,147.27h-1.17l-1.4-2.35a4.9,4.9,0,0,0-.38-.56,1.92,1.92,0,0,0-.37-.38,1.49,1.49,0,0,0-.41-.22,1.9,1.9,0,0,0-.5-.06h-.81v3.57h-1v-8.4h2.51a3.29,3.29,0,0,1,1,.14,2.23,2.23,0,0,1,.81.42,1.88,1.88,0,0,1,.54.7,2.37,2.37,0,0,1-.31,2.44,2.57,2.57,0,0,1-.59.49,3.54,3.54,0,0,1-.77.31v0a1.81,1.81,0,0,1,.66.5,2.75,2.75,0,0,1,.28.37l.31.49Zm-5-7.51v3.05h1.34a1.87,1.87,0,0,0,.68-.12,1.59,1.59,0,0,0,.54-.31,1.32,1.32,0,0,0,.36-.51,1.68,1.68,0,0,0,.13-.68,1.28,1.28,0,0,0-.44-1.05,1.88,1.88,0,0,0-1.26-.38Z" fill="#1e1e1e"/>
      <path d="M121.38,147.27h-1.17l-1.41-2.35a5,5,0,0,0-.37-.56,2,2,0,0,0-.38-.38,1.25,1.25,0,0,0-.41-.22,1.83,1.83,0,0,0-.49-.06h-.81v3.57h-1v-8.4h2.5a3.31,3.31,0,0,1,1,.14,2.23,2.23,0,0,1,.81.42,1.88,1.88,0,0,1,.54.7,2.41,2.41,0,0,1,.19,1,2.53,2.53,0,0,1-.13.8,2.27,2.27,0,0,1-.38.66,2.51,2.51,0,0,1-.58.49,3.54,3.54,0,0,1-.77.31v0a1.57,1.57,0,0,1,.36.22,2,2,0,0,1,.3.28l.28.37c.09.14.19.3.3.49Zm-5-7.51v3.05h1.34a1.91,1.91,0,0,0,.68-.12,1.59,1.59,0,0,0,.54-.31,1.57,1.57,0,0,0,.36-.51,1.87,1.87,0,0,0,.13-.68,1.32,1.32,0,0,0-.44-1.05,1.88,1.88,0,0,0-1.26-.38Z" fill="#1e1e1e"/>
      <path d="M129.49,147.27H128.4l-.89-2.35H124l-.84,2.35H122l3.22-8.4h1Zm-2.3-3.24-1.32-3.58a4.87,4.87,0,0,1-.13-.56h0a2.52,2.52,0,0,1-.14.56l-1.3,3.58Z" fill="#1e1e1e"/>
      <path d="M130.43,146.93v-1.16a2.23,2.23,0,0,0,.48.32,3.45,3.45,0,0,0,.59.23,3.39,3.39,0,0,0,.61.15,3.09,3.09,0,0,0,.58.06,2.25,2.25,0,0,0,1.35-.34,1.26,1.26,0,0,0,.3-1.56,1.6,1.6,0,0,0-.41-.46,4.43,4.43,0,0,0-.62-.4l-.78-.4c-.29-.15-.57-.3-.82-.45a3.13,3.13,0,0,1-.66-.51,2.1,2.1,0,0,1-.45-.62,2.07,2.07,0,0,1-.16-.82,1.93,1.93,0,0,1,.26-1,2.1,2.1,0,0,1,.66-.7,3,3,0,0,1,.93-.41,4.29,4.29,0,0,1,1.07-.13,4.08,4.08,0,0,1,1.81.3v1.1a3.29,3.29,0,0,0-1.91-.51,2.79,2.79,0,0,0-.64.07,1.56,1.56,0,0,0-.58.22,1.27,1.27,0,0,0-.41.39,1.07,1.07,0,0,0-.16.58,1.22,1.22,0,0,0,.12.56,1.31,1.31,0,0,0,.36.43,3.75,3.75,0,0,0,.57.37c.23.12.48.26.78.4s.58.31.85.47a3.62,3.62,0,0,1,.71.55,2.19,2.19,0,0,1,.48.66,1.84,1.84,0,0,1,.18.83,2.14,2.14,0,0,1-.24,1,1.93,1.93,0,0,1-.66.7,2.8,2.8,0,0,1-1,.39,5.22,5.22,0,0,1-1.13.12l-.5,0-.59-.09c-.21,0-.4-.1-.58-.16A1.65,1.65,0,0,1,130.43,146.93Z" fill="#1e1e1e"/>
    </g>
    <g>
      <path d="M242.68,131.23l-3.11,8.4h-1.08l-3.05-8.4h1.1l2.32,6.66a3.51,3.51,0,0,1,.17.74h0a4.21,4.21,0,0,1,.2-.75l2.37-6.65Z" fill="#1e1e1e"/>
      <path d="M244.82,136.45v3.18h-1v-8.4h2.31a3.08,3.08,0,0,1,2.09.65,2.37,2.37,0,0,1,.74,1.85,2.54,2.54,0,0,1-.82,2,3.14,3.14,0,0,1-2.23.76Zm0-4.33v3.44h1a2.28,2.28,0,0,0,1.55-.46,1.65,1.65,0,0,0,.54-1.32c0-1.11-.66-1.66-2-1.66Z" fill="#1e1e1e"/>
      <path d="M257.09,139.63h-1.21l-4.33-6.7a3.26,3.26,0,0,1-.26-.53h0a8.79,8.79,0,0,1,.05,1.16v6.07h-1v-8.4h1.28l4.21,6.59c.17.27.29.46.34.56h0a8.58,8.58,0,0,1-.06-1.23v-5.92h1Z" fill="#1e1e1e"/>
    </g>
    <g>
      <path d="M524,131.23l-3.11,8.4h-1.09l-3-8.4h1.09l2.33,6.66a4.27,4.27,0,0,1,.17.74h0a4.13,4.13,0,0,1,.19-.75l2.38-6.65Z" fill="#1e1e1e"/>
      <path d="M526.16,136.45v3.18h-1v-8.4h2.31a3.09,3.09,0,0,1,2.09.65,2.37,2.37,0,0,1,.74,1.85,2.58,2.58,0,0,1-.82,2,3.14,3.14,0,0,1-2.23.76Zm0-4.33v3.44h1a2.31,2.31,0,0,0,1.55-.46,1.65,1.65,0,0,0,.54-1.32c0-1.11-.66-1.66-2-1.66Z" fill="#1e1e1e"/>
      <path d="M538.43,139.63h-1.2l-4.33-6.7a2.65,2.65,0,0,1-.27-.53h0a9.48,9.48,0,0,1,0,1.16v6.07h-1v-8.4h1.28l4.2,6.59a5.88,5.88,0,0,1,.34.56h0a8.58,8.58,0,0,1-.06-1.23v-5.92h1Z" fill="#1e1e1e"/>
    </g>
    <g>
      <path d="M604.87,25.92a3.92,3.92,0,0,1-2.94-1.17,4.23,4.23,0,0,1-1.14-3.06A4.54,4.54,0,0,1,602,18.46,4,4,0,0,1,605,17.23a3.8,3.8,0,0,1,2.91,1.18A4.34,4.34,0,0,1,609,21.52a4.44,4.44,0,0,1-1.16,3.19A3.92,3.92,0,0,1,604.87,25.92Zm.08-7.06a1.9,1.9,0,0,0-1.58.75,3.13,3.13,0,0,0-.58,2,3,3,0,0,0,.58,2,2,2,0,0,0,3.09,0,3,3,0,0,0,.57-2,3.27,3.27,0,0,0-.55-2A1.81,1.81,0,0,0,605,18.86Z" fill="#1e1e1e"/>
      <path d="M616.09,25.77h-1.85V22.44c0-.93-.33-1.39-1-1.39a1,1,0,0,0-.79.37,1.41,1.41,0,0,0-.31.93v3.42h-1.85v-6h1.85v.95h0a2.11,2.11,0,0,1,1.92-1.09c1.33,0,2,.82,2,2.47Z" fill="#1e1e1e"/>
      <path d="M620.73,23.22h-3.2V21.93h3.2Z" fill="#1e1e1e"/>
      <path d="M624.08,25.08h0v3.45h-1.85V19.77h1.85v.91h0a2.36,2.36,0,0,1,3.73-.25,3.36,3.36,0,0,1,.64,2.17,3.71,3.71,0,0,1-.74,2.41,2.41,2.41,0,0,1-2,.91A1.88,1.88,0,0,1,624.08,25.08ZM624,22.62v.48a1.52,1.52,0,0,0,.33,1,1.08,1.08,0,0,0,.86.39,1.12,1.12,0,0,0,1-.49,2.34,2.34,0,0,0,.35-1.38c0-1.06-.41-1.58-1.23-1.58a1.15,1.15,0,0,0-.93.43A1.69,1.69,0,0,0,624,22.62Z" fill="#1e1e1e"/>
      <path d="M633.59,21.44a1.66,1.66,0,0,0-.78-.18,1.14,1.14,0,0,0-.95.45,1.94,1.94,0,0,0-.34,1.2v2.86h-1.85v-6h1.85v1.12h0a1.6,1.6,0,0,1,1.58-1.22,1.14,1.14,0,0,1,.46.07Z" fill="#1e1e1e"/>
      <path d="M639.92,23.3H636c.06.87.61,1.31,1.65,1.31a3.24,3.24,0,0,0,1.74-.47v1.34a4.68,4.68,0,0,1-2.16.44,3.07,3.07,0,0,1-2.26-.8,3,3,0,0,1-.8-2.25A3.24,3.24,0,0,1,635,20.5a2.9,2.9,0,0,1,2.14-.87,2.63,2.63,0,0,1,2,.78,3,3,0,0,1,.72,2.11Zm-1.72-1.13c0-.86-.35-1.29-1-1.29a1,1,0,0,0-.78.37,1.71,1.71,0,0,0-.39.92Z" fill="#1e1e1e"/>
      <path d="M650.62,25.77h-1.85V22.35c0-.87-.32-1.3-1-1.3a.88.88,0,0,0-.74.39,1.63,1.63,0,0,0-.29,1v3.35h-1.85V22.32c0-.85-.31-1.27-.94-1.27a.9.9,0,0,0-.76.37,1.65,1.65,0,0,0-.29,1v3.33h-1.85v-6h1.85v.94h0a2.22,2.22,0,0,1,.8-.78,2.26,2.26,0,0,1,1.14-.3,1.74,1.74,0,0,1,1.74,1.12,2.2,2.2,0,0,1,2-1.12c1.31,0,2,.8,2,2.41Z" fill="#1e1e1e"/>
      <path d="M653,18.83a1.09,1.09,0,0,1-.76-.28.92.92,0,0,1-.3-.69.85.85,0,0,1,.3-.67,1.22,1.22,0,0,1,1.53,0,.85.85,0,0,1,.3.67.89.89,0,0,1-.3.7A1.08,1.08,0,0,1,653,18.83Zm.92,6.94h-1.85v-6h1.85Z" fill="#1e1e1e"/>
      <path d="M655.16,25.62v-1.5a4.06,4.06,0,0,0,.91.41,3,3,0,0,0,.86.13,1.86,1.86,0,0,0,.78-.13.43.43,0,0,0,.28-.41.38.38,0,0,0-.13-.3,1.25,1.25,0,0,0-.33-.2,3.72,3.72,0,0,0-.44-.16l-.47-.16A4,4,0,0,1,656,23a1.54,1.54,0,0,1-.46-.36,1.31,1.31,0,0,1-.28-.47,1.79,1.79,0,0,1-.1-.64,1.61,1.61,0,0,1,.22-.87,1.75,1.75,0,0,1,.59-.59,2.46,2.46,0,0,1,.83-.34,4.06,4.06,0,0,1,1-.11,5.49,5.49,0,0,1,.8.06,5.3,5.3,0,0,1,.81.18V21.3a2.76,2.76,0,0,0-.75-.31,3.11,3.11,0,0,0-.79-.1,1.87,1.87,0,0,0-.34,0,1.23,1.23,0,0,0-.29.09.77.77,0,0,0-.19.16.36.36,0,0,0-.07.22.39.39,0,0,0,.11.28,1,1,0,0,0,.27.21l.38.15.41.14a4.66,4.66,0,0,1,.67.28,2.18,2.18,0,0,1,.51.35,1.29,1.29,0,0,1,.33.48,1.69,1.69,0,0,1,.12.66,1.65,1.65,0,0,1-.24.91,1.9,1.9,0,0,1-.61.62,2.7,2.7,0,0,1-.89.34,4.42,4.42,0,0,1-1,.11A5.4,5.4,0,0,1,655.16,25.62Z" fill="#1e1e1e"/>
      <path d="M666.27,23.3h-3.92c.07.87.62,1.31,1.65,1.31a3.24,3.24,0,0,0,1.74-.47v1.34a4.63,4.63,0,0,1-2.16.44,2.78,2.78,0,0,1-3.06-3.05,3.2,3.2,0,0,1,.87-2.37,2.9,2.9,0,0,1,2.13-.87,2.62,2.62,0,0,1,2,.78,3,3,0,0,1,.72,2.11Zm-1.72-1.13c0-.86-.35-1.29-1-1.29a1,1,0,0,0-.77.37,1.65,1.65,0,0,0-.4.92Z" fill="#1e1e1e"/>
      <path d="M667.12,25.62v-1.5a4.13,4.13,0,0,0,.92.41,2.93,2.93,0,0,0,.85.13,1.86,1.86,0,0,0,.78-.13.43.43,0,0,0,.28-.41.41.41,0,0,0-.12-.3,1.53,1.53,0,0,0-.34-.2,3.72,3.72,0,0,0-.44-.16l-.46-.16A3.71,3.71,0,0,1,668,23a1.67,1.67,0,0,1-.46-.36,1.47,1.47,0,0,1-.28-.47,2,2,0,0,1-.1-.64,1.7,1.7,0,0,1,.22-.87,1.85,1.85,0,0,1,.59-.59,2.43,2.43,0,0,1,.84-.34,3.93,3.93,0,0,1,1-.11,5.73,5.73,0,0,1,.81.06,5.88,5.88,0,0,1,.81.18V21.3a3,3,0,0,0-.76-.31,3,3,0,0,0-.78-.1,1.9,1.9,0,0,0-.35,0,1,1,0,0,0-.28.09.83.83,0,0,0-.2.16.44.44,0,0,0-.07.22.39.39,0,0,0,.11.28.89.89,0,0,0,.28.21l.37.15.42.14a4.52,4.52,0,0,1,.66.28,2.49,2.49,0,0,1,.52.35,1.58,1.58,0,0,1,.33.48,1.9,1.9,0,0,1,.11.66,1.73,1.73,0,0,1-.23.91,1.93,1.93,0,0,1-.62.62,2.65,2.65,0,0,1-.88.34,4.48,4.48,0,0,1-1,.11A5.5,5.5,0,0,1,667.12,25.62Z" fill="#1e1e1e"/>
    </g>
    <g>
      <path d="M617.77,67h-4.36V58.6h1v7.51h3.38Z" fill="#1e1e1e"/>
      <path d="M621.37,67.15a2.79,2.79,0,0,1-2.13-.84,3.14,3.14,0,0,1-.79-2.23,3.27,3.27,0,0,1,.82-2.37,3,3,0,0,1,2.24-.85,2.69,2.69,0,0,1,2.09.83,3.29,3.29,0,0,1,.75,2.29,3.21,3.21,0,0,1-.81,2.3A2.82,2.82,0,0,1,621.37,67.15Zm.07-5.48a1.84,1.84,0,0,0-1.47.63,2.59,2.59,0,0,0-.54,1.74,2.41,2.41,0,0,0,.55,1.68,1.85,1.85,0,0,0,1.46.62,1.74,1.74,0,0,0,1.43-.61,2.62,2.62,0,0,0,.5-1.71,2.71,2.71,0,0,0-.5-1.74A1.77,1.77,0,0,0,621.44,61.67Z" fill="#1e1e1e"/>
      <path d="M630,66.73a3.1,3.1,0,0,1-1.64.42,2.69,2.69,0,0,1-2.07-.84,3,3,0,0,1-.79-2.16,3.33,3.33,0,0,1,.85-2.39,3,3,0,0,1,2.27-.9,3.09,3.09,0,0,1,1.39.3v1a2.47,2.47,0,0,0-1.43-.47,1.93,1.93,0,0,0-1.51.66,2.52,2.52,0,0,0-.59,1.73,2.39,2.39,0,0,0,.56,1.67,1.92,1.92,0,0,0,1.48.61,2.45,2.45,0,0,0,1.48-.52Z" fill="#1e1e1e"/>
      <path d="M635.77,67h-1v-.94h0a2,2,0,0,1-1.84,1.08,1.93,1.93,0,0,1-1.4-.48,1.64,1.64,0,0,1-.51-1.26c0-1.12.66-1.77,2-2l1.8-.25c0-1-.41-1.53-1.24-1.53a3,3,0,0,0-2,.74v-1a3.68,3.68,0,0,1,2-.57c1.41,0,2.12.75,2.12,2.24Zm-1-3-1.45.2a2.35,2.35,0,0,0-1,.33,1,1,0,0,0-.34.84.93.93,0,0,0,.32.72,1.22,1.22,0,0,0,.83.28,1.55,1.55,0,0,0,1.18-.5,1.81,1.81,0,0,0,.47-1.27Z" fill="#1e1e1e"/>
      <path d="M638.47,67h-1V58.12h1Z" fill="#1e1e1e"/>
      <path d="M646.83,62a1.14,1.14,0,0,0-.72-.2,1.24,1.24,0,0,0-1,.58,2.68,2.68,0,0,0-.41,1.59V67h-1V61h1v1.23h0a2.09,2.09,0,0,1,.63-1,1.44,1.44,0,0,1,.94-.35,1.65,1.65,0,0,1,.57.08Z" fill="#1e1e1e"/>
      <path d="M652.71,64.25h-4.23a2.22,2.22,0,0,0,.53,1.54,1.85,1.85,0,0,0,1.42.55,3,3,0,0,0,1.87-.67v.9a3.53,3.53,0,0,1-2.1.58,2.54,2.54,0,0,1-2-.82,3.33,3.33,0,0,1-.73-2.3,3.26,3.26,0,0,1,.79-2.28,2.56,2.56,0,0,1,2-.89,2.26,2.26,0,0,1,1.82.77,3.15,3.15,0,0,1,.64,2.11Zm-1-.82a2,2,0,0,0-.4-1.29,1.38,1.38,0,0,0-1.1-.47,1.58,1.58,0,0,0-1.16.49,2.21,2.21,0,0,0-.58,1.27Z" fill="#1e1e1e"/>
      <path d="M653.79,66.79v-1a2.87,2.87,0,0,0,1.72.58c.85,0,1.27-.28,1.27-.85a.72.72,0,0,0-.11-.4,1.17,1.17,0,0,0-.29-.3,2.18,2.18,0,0,0-.43-.23l-.54-.21c-.27-.11-.5-.22-.7-.32a2,2,0,0,1-.5-.37,1.29,1.29,0,0,1-.31-.46,1.57,1.57,0,0,1-.1-.6,1.44,1.44,0,0,1,.19-.75,1.67,1.67,0,0,1,.52-.54,2.21,2.21,0,0,1,.73-.33,3.06,3.06,0,0,1,.85-.12,3.46,3.46,0,0,1,1.4.27v1a2.71,2.71,0,0,0-1.52-.44,1.83,1.83,0,0,0-.49.06,1.16,1.16,0,0,0-.37.18.66.66,0,0,0-.24.26.7.7,0,0,0-.09.35.8.8,0,0,0,.09.39.74.74,0,0,0,.25.28,1.81,1.81,0,0,0,.39.22l.54.22c.26.1.5.21.71.31a2.44,2.44,0,0,1,.54.37,1.38,1.38,0,0,1,.34.46,1.54,1.54,0,0,1,.12.63,1.47,1.47,0,0,1-.19.77,1.74,1.74,0,0,1-.53.55,2.43,2.43,0,0,1-.75.32,3.82,3.82,0,0,1-.9.11A3.34,3.34,0,0,1,653.79,66.79Z" fill="#1e1e1e"/>
      <path d="M661.73,67.15a2.79,2.79,0,0,1-2.12-.84,3.14,3.14,0,0,1-.79-2.23,3.27,3.27,0,0,1,.82-2.37,3,3,0,0,1,2.23-.85,2.7,2.7,0,0,1,2.1.83,3.29,3.29,0,0,1,.75,2.29,3.21,3.21,0,0,1-.81,2.3A2.84,2.84,0,0,1,661.73,67.15Zm.07-5.48a1.83,1.83,0,0,0-1.46.63A2.59,2.59,0,0,0,659.8,64a2.46,2.46,0,0,0,.54,1.68,1.87,1.87,0,0,0,1.46.62,1.76,1.76,0,0,0,1.44-.61,2.62,2.62,0,0,0,.5-1.71,2.71,2.71,0,0,0-.5-1.74A1.79,1.79,0,0,0,661.8,61.67Z" fill="#1e1e1e"/>
      <path d="M671.08,67h-1v-1h0a2,2,0,0,1-1.85,1.09c-1.43,0-2.15-.86-2.15-2.56V61h1v3.43c0,1.26.48,1.9,1.45,1.9a1.5,1.5,0,0,0,1.16-.52,2,2,0,0,0,.45-1.36V61h1Z" fill="#1e1e1e"/>
      <path d="M676,62a1.18,1.18,0,0,0-.73-.2,1.25,1.25,0,0,0-1,.58,2.75,2.75,0,0,0-.41,1.59V67h-1V61h1v1.23h0a2.17,2.17,0,0,1,.63-1,1.44,1.44,0,0,1,.94-.35A1.75,1.75,0,0,1,676,61Z" fill="#1e1e1e"/>
      <path d="M681.14,66.73a3.1,3.1,0,0,1-1.64.42,2.72,2.72,0,0,1-2.07-.84,3.06,3.06,0,0,1-.79-2.16,3.37,3.37,0,0,1,.85-2.39,3,3,0,0,1,2.27-.9,3.06,3.06,0,0,1,1.39.3v1a2.45,2.45,0,0,0-1.43-.47,1.91,1.91,0,0,0-1.5.66,2.47,2.47,0,0,0-.59,1.73,2.39,2.39,0,0,0,.55,1.67,1.93,1.93,0,0,0,1.49.61,2.44,2.44,0,0,0,1.47-.52Z" fill="#1e1e1e"/>
      <path d="M687.3,64.25h-4.24a2.27,2.27,0,0,0,.54,1.54,1.84,1.84,0,0,0,1.42.55,3,3,0,0,0,1.86-.67v.9a3.5,3.5,0,0,1-2.09.58,2.56,2.56,0,0,1-2-.82,3.37,3.37,0,0,1-.72-2.3,3.26,3.26,0,0,1,.79-2.28,2.55,2.55,0,0,1,2-.89,2.24,2.24,0,0,1,1.82.77,3.15,3.15,0,0,1,.65,2.11Zm-1-.82a1.88,1.88,0,0,0-.4-1.29,1.36,1.36,0,0,0-1.1-.47,1.57,1.57,0,0,0-1.15.49,2.22,2.22,0,0,0-.59,1.27Z" fill="#1e1e1e"/>
      <path d="M688.37,66.79v-1a2.9,2.9,0,0,0,1.73.58c.84,0,1.27-.28,1.27-.85a.72.72,0,0,0-.11-.4,1.07,1.07,0,0,0-.3-.3,1.93,1.93,0,0,0-.43-.23l-.53-.21c-.27-.11-.5-.22-.71-.32a2.16,2.16,0,0,1-.5-.37,1.26,1.26,0,0,1-.3-.46,1.57,1.57,0,0,1-.11-.6,1.45,1.45,0,0,1,.2-.75,1.75,1.75,0,0,1,.51-.54,2.26,2.26,0,0,1,.74-.33,3,3,0,0,1,.85-.12,3.46,3.46,0,0,1,1.4.27v1a2.74,2.74,0,0,0-1.53-.44,1.75,1.75,0,0,0-.48.06,1.34,1.34,0,0,0-.38.18.85.85,0,0,0-.24.26.82.82,0,0,0-.08.35.93.93,0,0,0,.08.39.83.83,0,0,0,.25.28,1.67,1.67,0,0,0,.4.22l.53.22c.27.1.51.21.72.31a2.44,2.44,0,0,1,.54.37,1.38,1.38,0,0,1,.34.46,1.54,1.54,0,0,1,.12.63,1.38,1.38,0,0,1-.2.77,1.7,1.7,0,0,1-.52.55,2.49,2.49,0,0,1-.76.32,3.68,3.68,0,0,1-.89.11A3.41,3.41,0,0,1,688.37,66.79Z" fill="#1e1e1e"/>
    </g>
    <g>
      <path d="M647.56,147.27h-1.17L645,144.92a5,5,0,0,0-.37-.56,2.24,2.24,0,0,0-.37-.38,1.49,1.49,0,0,0-.41-.22,2,2,0,0,0-.5-.06h-.81v3.57h-1v-8.4h2.51a3.29,3.29,0,0,1,1,.14,2.23,2.23,0,0,1,.81.42,1.88,1.88,0,0,1,.54.7,2.58,2.58,0,0,1,.06,1.78,2.07,2.07,0,0,1-.38.66,2.32,2.32,0,0,1-.58.49,3.54,3.54,0,0,1-.77.31v0a2.06,2.06,0,0,1,.66.5,4,4,0,0,1,.28.37l.31.49Zm-5-7.51v3.05h1.34a1.91,1.91,0,0,0,.68-.12,1.59,1.59,0,0,0,.54-.31,1.43,1.43,0,0,0,.36-.51,1.68,1.68,0,0,0,.13-.68,1.32,1.32,0,0,0-.44-1.05,1.88,1.88,0,0,0-1.26-.38Z" fill="#1e1e1e"/>
      <path d="M654.71,147.27h-1.17l-1.41-2.35a3.88,3.88,0,0,0-.38-.56,1.92,1.92,0,0,0-.37-.38,1.25,1.25,0,0,0-.41-.22,1.83,1.83,0,0,0-.49-.06h-.81v3.57h-1v-8.4h2.51a3.31,3.31,0,0,1,1,.14,2.23,2.23,0,0,1,.81.42,1.86,1.86,0,0,1,.53.7,2.25,2.25,0,0,1,.2,1,2.53,2.53,0,0,1-.13.8,2.27,2.27,0,0,1-.38.66,2.37,2.37,0,0,1-.59.49,3.17,3.17,0,0,1-.77.31v0a1.65,1.65,0,0,1,.37.22,2.56,2.56,0,0,1,.3.28,4,4,0,0,1,.27.37c.1.14.2.3.31.49Zm-5-7.51v3.05H651a1.92,1.92,0,0,0,.69-.12,1.59,1.59,0,0,0,.54-.31,1.57,1.57,0,0,0,.36-.51,1.87,1.87,0,0,0,.13-.68,1.32,1.32,0,0,0-.44-1.05,1.88,1.88,0,0,0-1.26-.38Z" fill="#1e1e1e"/>
      <path d="M662.82,147.27h-1.09l-.89-2.35h-3.56l-.84,2.35h-1.1l3.23-8.4h1Zm-2.3-3.24-1.32-3.58a3.38,3.38,0,0,1-.13-.56h0a3.23,3.23,0,0,1-.14.56l-1.3,3.58Z" fill="#1e1e1e"/>
      <path d="M663.76,146.93v-1.16a2.23,2.23,0,0,0,.48.32,3.69,3.69,0,0,0,.58.23,3.5,3.5,0,0,0,.62.15,3.09,3.09,0,0,0,.58.06,2.27,2.27,0,0,0,1.35-.34,1.26,1.26,0,0,0,.3-1.56,1.76,1.76,0,0,0-.41-.46,4.57,4.57,0,0,0-.63-.4l-.77-.4c-.3-.15-.57-.3-.82-.45a3.2,3.2,0,0,1-.67-.51,2.26,2.26,0,0,1-.44-.62,2.07,2.07,0,0,1-.16-.82,2,2,0,0,1,.25-1,2.24,2.24,0,0,1,.67-.7,3,3,0,0,1,.93-.41,4.29,4.29,0,0,1,1.07-.13,4.08,4.08,0,0,1,1.81.3v1.1a3.31,3.31,0,0,0-1.91-.51,2.73,2.73,0,0,0-.64.07,1.56,1.56,0,0,0-.58.22,1.27,1.27,0,0,0-.41.39,1.07,1.07,0,0,0-.16.58,1.22,1.22,0,0,0,.12.56,1.31,1.31,0,0,0,.36.43,3,3,0,0,0,.57.37c.22.12.48.26.77.4s.59.31.86.47a3.62,3.62,0,0,1,.71.55,2.38,2.38,0,0,1,.48.66,1.84,1.84,0,0,1,.18.83,2.14,2.14,0,0,1-.24,1,1.93,1.93,0,0,1-.66.7,2.8,2.8,0,0,1-1,.39,5.24,5.24,0,0,1-1.14.12l-.49,0-.6-.09-.57-.16A1.51,1.51,0,0,1,663.76,146.93Z" fill="#1e1e1e"/>
    </g>
  </g>
</svg>
