<svg xmlns="http://www.w3.org/2000/svg" viewBox="0 0 670.5 36.42">
  <g id="Shapes">
    <rect x="0.25" y="0.25" width="670" height="35" fill="#fff"/>
    <g>
      <rect x="0.25" y="0.25" width="140" height="35" fill="#fff"/>
      <rect x="0.25" y="0.25" width="140" height="35" fill="#3c3c41" opacity="0.15"/>
      <rect x="0.25" y="0.25" width="140" height="35" fill="none" stroke="#3c3c41" stroke-miterlimit="10" stroke-width="0.5" opacity="0.5"/>
    </g>
    <g>
      <rect x="155.25" y="0.25" width="140" height="35" fill="#fff"/>
      <rect x="155.25" y="0.25" width="140" height="35" fill="#3c3c41" opacity="0.15"/>
      <rect x="155.25" y="0.25" width="140" height="35" fill="none" stroke="#3c3c41" stroke-miterlimit="10" stroke-width="0.5" opacity="0.5"/>
    </g>
    <g>
      <line x1="140.25" y1="17.75" x2="149.87" y2="17.75" fill="none" stroke="#3c3c41" stroke-miterlimit="10"/>
      <polygon points="148.77 21.49 155.25 17.75 148.77 14.01 148.77 21.49" fill="#3c3c41"/>
    </g>
    <g>
      <line x1="295.25" y1="17.75" x2="304.87" y2="17.75" fill="none" stroke="#3c3c41" stroke-miterlimit="10"/>
      <polygon points="303.77 21.49 310.25 17.75 303.77 14.01 303.77 21.49" fill="#3c3c41"/>
    </g>
    <g>
      <rect x="310.25" y="0.25" width="110" height="35" fill="#fff"/>
      <rect x="310.25" y="0.25" width="110" height="35" fill="#3c3c41" opacity="0.15"/>
      <rect x="310.25" y="0.25" width="110" height="35" fill="none" stroke="#3c3c41" stroke-miterlimit="10" stroke-width="0.5" opacity="0.5"/>
    </g>
    <g>
      <line x1="420.25" y1="17.75" x2="429.87" y2="17.75" fill="none" stroke="#3c3c41" stroke-miterlimit="10"/>
      <polygon points="428.77 21.49 435.25 17.75 428.77 14.01 428.77 21.49" fill="#3c3c41"/>
    </g>
    <g>
      <rect x="435.25" y="0.25" width="110" height="35" fill="#fff"/>
      <rect x="435.25" y="0.25" width="110" height="35" fill="#0078d4" opacity="0.2"/>
      <rect x="435.25" y="0.25" width="110" height="35" fill="none" stroke="#0078d4" stroke-miterlimit="10" stroke-width="0.5" opacity="0.6"/>
    </g>
    <g>
      <line x1="545.25" y1="17.75" x2="554.87" y2="17.75" fill="none" stroke="#3c3c41" stroke-miterlimit="10"/>
      <polygon points="553.77 21.49 560.25 17.75 553.77 14.01 553.77 21.49" fill="#3c3c41"/>
    </g>
    <g>
      <rect x="560.25" y="0.25" width="110" height="35" fill="#fff"/>
      <rect x="560.25" y="0.25" width="110" height="35" fill="#0078d4" opacity="0.2"/>
      <rect x="560.25" y="0.25" width="110" height="35" fill="none" stroke="#0078d4" stroke-miterlimit="10" stroke-width="0.5" opacity="0.6"/>
    </g>
  </g>
  <g id="Text">
    <g>
      <path d="M15,15.3H13.78l-1.4-2.36c-.13-.21-.26-.4-.38-.56a1.85,1.85,0,0,0-.37-.37,1.36,1.36,0,0,0-.41-.22,1.9,1.9,0,0,0-.5-.06h-.8V15.3h-1V6.9h2.51a3.65,3.65,0,0,1,1,.13,2.43,2.43,0,0,1,.8.42,2,2,0,0,1,.54.7,2.33,2.33,0,0,1,.19,1,2.28,2.28,0,0,1-.13.8,2.08,2.08,0,0,1-.37.65,2,2,0,0,1-.59.49,3,3,0,0,1-.77.32v0a1.88,1.88,0,0,1,.37.21,2,2,0,0,1,.29.29,2.75,2.75,0,0,1,.28.37l.31.48Zm-5-7.51v3h1.33a1.83,1.83,0,0,0,.68-.11,1.59,1.59,0,0,0,.55-.32,1.26,1.26,0,0,0,.35-.51A1.6,1.6,0,0,0,13,9.22a1.31,1.31,0,0,0-.43-1.05,1.85,1.85,0,0,0-1.27-.38Z" fill="#1e1e1e"/>
      <path d="M20.28,15.3h-1v-.94h0A2.2,2.2,0,0,1,16,15a1.64,1.64,0,0,1-.5-1.26c0-1.13.66-1.78,2-2l1.79-.25q0-1.53-1.23-1.53a2.92,2.92,0,0,0-2,.74v-1a3.76,3.76,0,0,1,2-.56c1.41,0,2.12.74,2.12,2.24Zm-1-3-1.44.2a2.59,2.59,0,0,0-1,.33,1,1,0,0,0-.34.85.89.89,0,0,0,.31.71,1.2,1.2,0,0,0,.84.28,1.56,1.56,0,0,0,1.18-.5,1.79,1.79,0,0,0,.46-1.27Z" fill="#1e1e1e"/>
      <path d="M26.18,15a3.13,3.13,0,0,1-1.64.42,2.73,2.73,0,0,1-2.08-.84,3,3,0,0,1-.78-2.16,3.3,3.3,0,0,1,.85-2.38,3,3,0,0,1,2.26-.9,3.24,3.24,0,0,1,1.4.29v1A2.4,2.4,0,0,0,24.76,10a1.92,1.92,0,0,0-1.51.66,2.5,2.5,0,0,0-.59,1.73A2.36,2.36,0,0,0,23.21,14a1.91,1.91,0,0,0,1.49.61,2.43,2.43,0,0,0,1.48-.52Z" fill="#1e1e1e"/>
      <path d="M32.61,15.3H31.26l-2.65-2.88h0V15.3h-1V6.42h1v5.63h0L31.13,9.3h1.26l-2.78,2.89Z" fill="#1e1e1e"/>
      <path d="M37.87,14.43h0v3.63h-1V9.3h1v1h0a2.27,2.27,0,0,1,2.07-1.19,2.21,2.21,0,0,1,1.81.8,3.37,3.37,0,0,1,.65,2.16,3.69,3.69,0,0,1-.73,2.41,2.44,2.44,0,0,1-2,.91A2,2,0,0,1,37.87,14.43Zm0-2.42v.84a1.73,1.73,0,0,0,.49,1.26,1.58,1.58,0,0,0,1.22.52A1.6,1.6,0,0,0,40.92,14a3,3,0,0,0,.5-1.85A2.39,2.39,0,0,0,41,10.54,1.52,1.52,0,0,0,39.7,10a1.7,1.7,0,0,0-1.35.58A2.15,2.15,0,0,0,37.84,12Z" fill="#1e1e1e"/>
      <path d="M48.92,15.3H48V11.84c0-1.25-.47-1.87-1.4-1.87a1.51,1.51,0,0,0-1.18.54,2,2,0,0,0-.48,1.39v3.4h-1V6.42h1V10.3h0a2.18,2.18,0,0,1,2-1.14c1.35,0,2,.81,2,2.44Z" fill="#1e1e1e"/>
      <path d="M55.5,9.3l-2.76,7q-.74,1.86-2.07,1.86a2.28,2.28,0,0,1-.63-.07v-.86a1.8,1.8,0,0,0,.57.1,1.18,1.18,0,0,0,1.09-.87l.48-1.13-2.34-6H50.9l1.63,4.62q0,.09.12.45h0c0-.09.06-.24.12-.44L54.51,9.3Z" fill="#1e1e1e"/>
      <path d="M56.17,15.08v-1a2.82,2.82,0,0,0,1.73.58q1.26,0,1.26-.84a.76.76,0,0,0-.1-.41,1.22,1.22,0,0,0-.3-.3,2.44,2.44,0,0,0-.43-.23l-.54-.21c-.26-.11-.5-.21-.7-.32a2.22,2.22,0,0,1-.5-.36,1.38,1.38,0,0,1-.31-.46,1.9,1.9,0,0,1-.1-.61,1.39,1.39,0,0,1,.2-.74,1.67,1.67,0,0,1,.51-.55,2.26,2.26,0,0,1,.74-.33,3.56,3.56,0,0,1,2.24.16v1A2.7,2.7,0,0,0,58.35,10a1.88,1.88,0,0,0-.49.06,1.26,1.26,0,0,0-.37.17.88.88,0,0,0-.24.27.66.66,0,0,0-.08.34.75.75,0,0,0,.08.39.83.83,0,0,0,.25.28,1.68,1.68,0,0,0,.4.23l.53.21c.27.11.51.21.72.32a2.82,2.82,0,0,1,.54.36,1.57,1.57,0,0,1,.34.47,1.46,1.46,0,0,1,.12.62,1.51,1.51,0,0,1-.2.78,1.58,1.58,0,0,1-.52.54,2.26,2.26,0,0,1-.76.32,3.68,3.68,0,0,1-.89.11A3.39,3.39,0,0,1,56.17,15.08Z" fill="#1e1e1e"/>
      <path d="M62.12,7.78a.6.6,0,0,1-.44-.18.61.61,0,0,1-.18-.45.61.61,0,0,1,.62-.62.64.64,0,0,1,.45.18.6.6,0,0,1,.18.44.59.59,0,0,1-.18.44A.61.61,0,0,1,62.12,7.78Zm.47,7.52h-1v-6h1Z" fill="#1e1e1e"/>
      <path d="M68.62,15a3.1,3.1,0,0,1-1.64.42,2.71,2.71,0,0,1-2.07-.84,3,3,0,0,1-.79-2.16A3.3,3.3,0,0,1,65,10.06a3,3,0,0,1,2.27-.9,3.2,3.2,0,0,1,1.39.29v1A2.38,2.38,0,0,0,67.2,10a2,2,0,0,0-1.51.66,2.5,2.5,0,0,0-.58,1.73A2.36,2.36,0,0,0,65.66,14a1.89,1.89,0,0,0,1.48.61,2.39,2.39,0,0,0,1.48-.52Z" fill="#1e1e1e"/>
      <path d="M74.37,15.3h-1v-.94h0a2,2,0,0,1-1.84,1.08,2,2,0,0,1-1.4-.47,1.65,1.65,0,0,1-.51-1.26c0-1.13.66-1.78,2-2l1.8-.25c0-1-.41-1.53-1.24-1.53a2.94,2.94,0,0,0-2,.74v-1a3.76,3.76,0,0,1,2-.56c1.41,0,2.12.74,2.12,2.24Zm-1-3-1.45.2a2.65,2.65,0,0,0-1,.33,1,1,0,0,0-.34.85.9.9,0,0,0,.32.71,1.18,1.18,0,0,0,.83.28,1.55,1.55,0,0,0,1.18-.5,1.8,1.8,0,0,0,.47-1.27Z" fill="#1e1e1e"/>
      <path d="M77.14,15.3h-1V6.42h1Z" fill="#1e1e1e"/>
      <path d="M86.46,15a3.08,3.08,0,0,1-1.64.42,2.72,2.72,0,0,1-2.07-.84A3,3,0,0,1,82,12.44a3.35,3.35,0,0,1,.85-2.38,3,3,0,0,1,2.27-.9,3.2,3.2,0,0,1,1.39.29v1A2.37,2.37,0,0,0,85.05,10a1.92,1.92,0,0,0-1.51.66A2.46,2.46,0,0,0,83,12.36,2.36,2.36,0,0,0,83.5,14a1.91,1.91,0,0,0,1.49.61,2.38,2.38,0,0,0,1.47-.52Z" fill="#1e1e1e"/>
      <path d="M90.42,15.44a2.79,2.79,0,0,1-2.12-.84,3.1,3.1,0,0,1-.79-2.23A3.23,3.23,0,0,1,88.33,10a3,3,0,0,1,2.23-.85,2.69,2.69,0,0,1,2.1.82,3.32,3.32,0,0,1,.75,2.3,3.25,3.25,0,0,1-.81,2.3A2.87,2.87,0,0,1,90.42,15.44ZM90.49,10A1.83,1.83,0,0,0,89,10.6a2.58,2.58,0,0,0-.54,1.73A2.42,2.42,0,0,0,89,14a1.82,1.82,0,0,0,1.45.61,1.77,1.77,0,0,0,1.44-.6,2.65,2.65,0,0,0,.5-1.72,2.66,2.66,0,0,0-.5-1.73A1.75,1.75,0,0,0,90.49,10Z" fill="#1e1e1e"/>
      <path d="M103.47,15.3h-1V11.85a2.65,2.65,0,0,0-.31-1.44,1.19,1.19,0,0,0-1-.44,1.26,1.26,0,0,0-1,.56,2.12,2.12,0,0,0-.43,1.35V15.3h-1V11.74c0-1.18-.46-1.77-1.37-1.77a1.24,1.24,0,0,0-1,.53,2.2,2.2,0,0,0-.41,1.38V15.3H95v-6h1v.95h0A2,2,0,0,1,97.8,9.16a1.71,1.71,0,0,1,1.69,1.24,2.14,2.14,0,0,1,2-1.24c1.32,0,2,.81,2,2.44Z" fill="#1e1e1e"/>
      <path d="M106.27,14.43h0v3.63h-1V9.3h1v1h0a2.27,2.27,0,0,1,2.07-1.19,2.2,2.2,0,0,1,1.81.8,3.31,3.31,0,0,1,.65,2.16,3.69,3.69,0,0,1-.73,2.41,2.43,2.43,0,0,1-2,.91A2,2,0,0,1,106.27,14.43Zm0-2.42v.84a1.78,1.78,0,0,0,.49,1.26,1.72,1.72,0,0,0,2.59-.15,3,3,0,0,0,.5-1.85,2.45,2.45,0,0,0-.46-1.57A1.54,1.54,0,0,0,108.1,10a1.7,1.7,0,0,0-1.35.58A2.15,2.15,0,0,0,106.24,12Z" fill="#1e1e1e"/>
      <path d="M117.19,15.3h-1v-1h0a2,2,0,0,1-1.86,1.09c-1.43,0-2.14-.85-2.14-2.55V9.3h1v3.43c0,1.27.49,1.9,1.46,1.9a1.44,1.44,0,0,0,1.15-.52,1.94,1.94,0,0,0,.46-1.35V9.3h1Z" fill="#1e1e1e"/>
      <path d="M121.91,15.24a1.76,1.76,0,0,1-.89.19c-1.06,0-1.58-.59-1.58-1.76V10.12h-1V9.3h1V7.83l1-.31V9.3h1.51v.82H120.4V13.5a1.37,1.37,0,0,0,.21.86.81.81,0,0,0,.68.26,1,1,0,0,0,.62-.2Z" fill="#1e1e1e"/>
      <path d="M128,12.54h-4.24a2.3,2.3,0,0,0,.54,1.55,1.87,1.87,0,0,0,1.42.54A2.91,2.91,0,0,0,127.6,14v.91a3.5,3.5,0,0,1-2.09.57,2.53,2.53,0,0,1-2-.82,3.35,3.35,0,0,1-.72-2.3,3.28,3.28,0,0,1,.79-2.28,2.54,2.54,0,0,1,2-.88,2.24,2.24,0,0,1,1.82.76A3.18,3.18,0,0,1,128,12Zm-1-.81a1.91,1.91,0,0,0-.4-1.3,1.36,1.36,0,0,0-1.1-.46,1.56,1.56,0,0,0-1.15.48,2.25,2.25,0,0,0-.59,1.28Z" fill="#1e1e1e"/>
      <path d="M132.6,10.27a1.18,1.18,0,0,0-.73-.19,1.23,1.23,0,0,0-1,.58,2.72,2.72,0,0,0-.41,1.58V15.3h-1v-6h1v1.24h0a2,2,0,0,1,.62-1,1.43,1.43,0,0,1,.95-.36,1.41,1.41,0,0,1,.57.09Z" fill="#1e1e1e"/>
      <path d="M54.67,30.41h-.85A7.5,7.5,0,0,1,52,25.29a7.77,7.77,0,0,1,1.82-5.19h.86a7.91,7.91,0,0,0-1.84,5.18A7.75,7.75,0,0,0,54.67,30.41Z" fill="#1e1e1e"/>
      <path d="M59.29,28.64a3.66,3.66,0,0,1-2.86-1.18,4.33,4.33,0,0,1-1.08-3.06,4.66,4.66,0,0,1,1.1-3.24,3.83,3.83,0,0,1,3-1.2,3.59,3.59,0,0,1,2.8,1.17,4.37,4.37,0,0,1,1.07,3.06,4.66,4.66,0,0,1-1.09,3.25A3.76,3.76,0,0,1,59.29,28.64Zm.07-7.79a2.73,2.73,0,0,0-2.15.95,3.71,3.71,0,0,0-.83,2.51,3.7,3.7,0,0,0,.81,2.5,2.64,2.64,0,0,0,2.1,1,2.77,2.77,0,0,0,2.18-.91,3.68,3.68,0,0,0,.8-2.52,3.81,3.81,0,0,0-.78-2.57A2.62,2.62,0,0,0,59.36,20.85Z" fill="#1e1e1e"/>
      <path d="M69.4,28.5H65V20.1h4.27V21H65.93v2.79h3v.89h-3v2.94H69.4Z" fill="#1e1e1e"/>
      <path d="M79.59,28.5h-1V22.86c0-.44,0-1,.08-1.63h0a6.37,6.37,0,0,1-.25.81L75.54,28.5h-.48L72.2,22.09a4.93,4.93,0,0,1-.25-.86h0c0,.33,0,.88,0,1.64V28.5H71V20.1h1.3L74.9,26a7.92,7.92,0,0,1,.39,1h0c.17-.46.3-.8.41-1l2.63-5.83h1.23Z" fill="#1e1e1e"/>
      <path d="M85.26,22l-1.6.33,1.11,1.42-.64.45-.92-1.55-.92,1.55-.65-.45,1.12-1.42L81.14,22l.26-.73,1.54.58L82.8,20.1h.81l-.13,1.78L85,21.3Z" fill="#1e1e1e"/>
      <path d="M86.69,30.41h-.85a7.75,7.75,0,0,0,1.83-5.13,7.91,7.91,0,0,0-1.84-5.18h.86a7.73,7.73,0,0,1,1.83,5.19A7.46,7.46,0,0,1,86.69,30.41Z" fill="#1e1e1e"/>
    </g>
    <g>
      <path d="M176.69,15a4.89,4.89,0,0,1-2.32.49,3.73,3.73,0,0,1-2.87-1.15,4.26,4.26,0,0,1-1.08-3A4.5,4.5,0,0,1,171.63,8a4.12,4.12,0,0,1,3.08-1.24,4.92,4.92,0,0,1,2,.34V8.15a4,4,0,0,0-2-.5,3.07,3.07,0,0,0-2.35,1,3.66,3.66,0,0,0-.9,2.59,3.44,3.44,0,0,0,.84,2.44,2.87,2.87,0,0,0,2.21.92,4.11,4.11,0,0,0,2.19-.57Z" fill="#1e1e1e"/>
      <path d="M180.78,15.44a2.77,2.77,0,0,1-2.12-.84,3.11,3.11,0,0,1-.8-2.23,3.23,3.23,0,0,1,.83-2.36,3,3,0,0,1,2.23-.85A2.71,2.71,0,0,1,183,10a3.32,3.32,0,0,1,.75,2.3,3.25,3.25,0,0,1-.81,2.3A2.87,2.87,0,0,1,180.78,15.44Zm.07-5.47a1.81,1.81,0,0,0-1.46.63,2.58,2.58,0,0,0-.54,1.73,2.47,2.47,0,0,0,.54,1.69,1.85,1.85,0,0,0,1.46.61,1.75,1.75,0,0,0,1.43-.6,2.59,2.59,0,0,0,.5-1.72,2.61,2.61,0,0,0-.5-1.73A1.73,1.73,0,0,0,180.85,10Z" fill="#1e1e1e"/>
      <path d="M190.28,15.3h-1V11.88c0-1.28-.46-1.91-1.39-1.91a1.5,1.5,0,0,0-1.19.54,2,2,0,0,0-.48,1.37V15.3h-1v-6h1v1h0a2.16,2.16,0,0,1,2-1.14,1.83,1.83,0,0,1,1.5.63,2.84,2.84,0,0,1,.52,1.84Z" fill="#1e1e1e"/>
      <path d="M195.06,7.26a1.24,1.24,0,0,0-.64-.16c-.67,0-1,.43-1,1.27V9.3h1.41v.82h-1.41V15.3h-.95V10.12h-1V9.3h1v-1A2,2,0,0,1,193,6.84a1.84,1.84,0,0,1,1.36-.55,1.89,1.89,0,0,1,.7.1Z" fill="#1e1e1e"/>
      <path d="M196.34,7.78a.6.6,0,0,1-.44-.18.61.61,0,0,1-.18-.45.61.61,0,0,1,.62-.62.63.63,0,0,1,.64.62.6.6,0,0,1-.19.44A.58.58,0,0,1,196.34,7.78Zm.47,7.52h-1v-6h1Z" fill="#1e1e1e"/>
      <path d="M203.88,14.82q0,3.3-3.17,3.3a4.23,4.23,0,0,1-1.94-.42v-1a3.92,3.92,0,0,0,1.93.56c1.48,0,2.22-.78,2.22-2.35v-.66h0a2.23,2.23,0,0,1-2.06,1.15,2.26,2.26,0,0,1-1.8-.8,3.17,3.17,0,0,1-.68-2.15,3.73,3.73,0,0,1,.73-2.43,2.46,2.46,0,0,1,2-.9,2,2,0,0,1,1.8,1h0V9.3h1Zm-1-2.23V11.7a1.69,1.69,0,0,0-.49-1.22,1.58,1.58,0,0,0-1.2-.51,1.66,1.66,0,0,0-1.39.64,2.9,2.9,0,0,0-.51,1.82,2.48,2.48,0,0,0,.48,1.6,1.57,1.57,0,0,0,1.28.6,1.69,1.69,0,0,0,1.32-.57A2.16,2.16,0,0,0,202.92,12.59Z" fill="#1e1e1e"/>
      <path d="M210.67,15.3h-1v-1h0a2,2,0,0,1-1.85,1.09c-1.43,0-2.15-.85-2.15-2.55V9.3h1v3.43c0,1.27.48,1.9,1.45,1.9a1.46,1.46,0,0,0,1.16-.52,2,2,0,0,0,.45-1.35V9.3h1Z" fill="#1e1e1e"/>
      <path d="M215.74,10.27a1.14,1.14,0,0,0-.72-.19,1.21,1.21,0,0,0-1,.58,2.64,2.64,0,0,0-.41,1.58V15.3h-1v-6h1v1.24h0a2,2,0,0,1,.63-1,1.54,1.54,0,0,1,1.51-.27Z" fill="#1e1e1e"/>
      <path d="M221.61,12.54h-4.24a2.3,2.3,0,0,0,.54,1.55,1.87,1.87,0,0,0,1.42.54,2.91,2.91,0,0,0,1.86-.67v.91a3.47,3.47,0,0,1-2.09.57,2.53,2.53,0,0,1-2-.82,3.35,3.35,0,0,1-.72-2.3,3.28,3.28,0,0,1,.79-2.28,2.54,2.54,0,0,1,2-.88,2.24,2.24,0,0,1,1.82.76,3.18,3.18,0,0,1,.65,2.12Zm-1-.81a1.91,1.91,0,0,0-.4-1.3,1.36,1.36,0,0,0-1.1-.46,1.56,1.56,0,0,0-1.15.48,2.25,2.25,0,0,0-.59,1.28Z" fill="#1e1e1e"/>
      <path d="M226.48,15.3V6.9h2.39a2.61,2.61,0,0,1,1.73.53,1.75,1.75,0,0,1,.64,1.39,2,2,0,0,1-.39,1.24,2.09,2.09,0,0,1-1.07.75v0a2.11,2.11,0,0,1,1.36.65,2,2,0,0,1,.51,1.41,2.2,2.2,0,0,1-.77,1.74,2.87,2.87,0,0,1-1.95.67Zm1-7.51V10.5h1a1.91,1.91,0,0,0,1.27-.39A1.36,1.36,0,0,0,230.2,9c0-.81-.53-1.22-1.61-1.22Zm0,3.6v3h1.34a2,2,0,0,0,1.34-.41,1.4,1.4,0,0,0,.48-1.13c0-1-.68-1.48-2-1.48Z" fill="#1e1e1e"/>
      <path d="M241.92,15.3h-1V9.66c0-.44,0-1,.09-1.63h0a4.19,4.19,0,0,1-.25.81l-2.87,6.46h-.48l-2.87-6.41a6,6,0,0,1-.25-.86h0c0,.33.05.88.05,1.64V15.3h-.95V6.9h1.3l2.58,5.86a9.27,9.27,0,0,1,.38,1h0c.17-.46.3-.8.4-1l2.63-5.83h1.23Z" fill="#1e1e1e"/>
      <path d="M249.85,15a4.89,4.89,0,0,1-2.32.49,3.74,3.74,0,0,1-2.87-1.15,4.26,4.26,0,0,1-1.08-3A4.5,4.5,0,0,1,244.79,8a4.12,4.12,0,0,1,3.08-1.24,4.92,4.92,0,0,1,2,.34V8.15a4,4,0,0,0-2-.5,3.07,3.07,0,0,0-2.35,1,3.66,3.66,0,0,0-.9,2.59,3.44,3.44,0,0,0,.84,2.44,2.87,2.87,0,0,0,2.21.92,4.11,4.11,0,0,0,2.19-.57Z" fill="#1e1e1e"/>
      <path d="M255.22,6.9l-4,9.79h-.89l4-9.79Z" fill="#1e1e1e"/>
      <path d="M256.24,15.3V6.9h2.39a2.61,2.61,0,0,1,1.73.53A1.75,1.75,0,0,1,261,8.82a2,2,0,0,1-.39,1.24,2.09,2.09,0,0,1-1.07.75v0a2.11,2.11,0,0,1,1.36.65,2,2,0,0,1,.51,1.41,2.2,2.2,0,0,1-.77,1.74,2.87,2.87,0,0,1-1.95.67Zm1-7.51V10.5h1a1.91,1.91,0,0,0,1.27-.39A1.36,1.36,0,0,0,260,9c0-.81-.53-1.22-1.61-1.22Zm0,3.6v3h1.34A2,2,0,0,0,259.9,14a1.4,1.4,0,0,0,.48-1.13c0-1-.68-1.48-2-1.48Z" fill="#1e1e1e"/>
      <path d="M264.1,15.3h-1V6.9h1Z" fill="#1e1e1e"/>
      <path d="M269.7,15.44a3.68,3.68,0,0,1-2.87-1.18,4.37,4.37,0,0,1-1.07-3.06A4.65,4.65,0,0,1,266.85,8a3.87,3.87,0,0,1,3-1.2,3.6,3.6,0,0,1,2.8,1.17A4.37,4.37,0,0,1,273.7,11a4.61,4.61,0,0,1-1.09,3.25A3.72,3.72,0,0,1,269.7,15.44Zm.07-7.79a2.71,2.71,0,0,0-2.15.95,3.71,3.71,0,0,0-.83,2.51,3.7,3.7,0,0,0,.81,2.5,2.61,2.61,0,0,0,2.1,1,2.78,2.78,0,0,0,2.18-.91,3.68,3.68,0,0,0,.79-2.52,3.81,3.81,0,0,0-.77-2.57A2.65,2.65,0,0,0,269.77,7.65Z" fill="#1e1e1e"/>
      <path d="M275,15V13.8a2.86,2.86,0,0,0,.48.32,3.8,3.8,0,0,0,.59.23,3.3,3.3,0,0,0,.62.15,2.91,2.91,0,0,0,.57.06,2.29,2.29,0,0,0,1.36-.34,1.14,1.14,0,0,0,.44-1,1.2,1.2,0,0,0-.14-.59,1.64,1.64,0,0,0-.42-.46,3.91,3.91,0,0,0-.62-.4l-.78-.4-.82-.45a3.85,3.85,0,0,1-.66-.51A1.89,1.89,0,0,1,275,9a1.9,1.9,0,0,1,.25-1,2.21,2.21,0,0,1,.66-.7,3,3,0,0,1,.93-.41,4.29,4.29,0,0,1,1.07-.13,4,4,0,0,1,1.81.3v1.1a3.29,3.29,0,0,0-1.91-.51,3.47,3.47,0,0,0-.64.06,1.83,1.83,0,0,0-.57.22,1.31,1.31,0,0,0-.41.4,1,1,0,0,0-.16.58,1.22,1.22,0,0,0,.12.56,1.41,1.41,0,0,0,.35.43,3.75,3.75,0,0,0,.57.37l.78.4c.3.15.59.31.85.47a3.59,3.59,0,0,1,.71.54,2.27,2.27,0,0,1,.49.67,1.84,1.84,0,0,1,.18.83,2.15,2.15,0,0,1-.25,1.05,2,2,0,0,1-.65.7,2.94,2.94,0,0,1-1,.39,5.15,5.15,0,0,1-1.13.12l-.49,0c-.2,0-.4-.06-.6-.1a4.45,4.45,0,0,1-.58-.15A2,2,0,0,1,275,15Z" fill="#1e1e1e"/>
      <path d="M209.67,30.41h-.85A7.5,7.5,0,0,1,207,25.29a7.77,7.77,0,0,1,1.82-5.19h.86a7.91,7.91,0,0,0-1.84,5.18A7.75,7.75,0,0,0,209.67,30.41Z" fill="#1e1e1e"/>
      <path d="M214.29,28.64a3.66,3.66,0,0,1-2.86-1.18,4.33,4.33,0,0,1-1.08-3.06,4.66,4.66,0,0,1,1.1-3.24,3.83,3.83,0,0,1,3-1.2,3.59,3.59,0,0,1,2.8,1.17,4.37,4.37,0,0,1,1.07,3.06,4.66,4.66,0,0,1-1.09,3.25A3.76,3.76,0,0,1,214.29,28.64Zm.07-7.79a2.73,2.73,0,0,0-2.15.95,3.71,3.71,0,0,0-.83,2.51,3.7,3.7,0,0,0,.81,2.5,2.64,2.64,0,0,0,2.1,1,2.77,2.77,0,0,0,2.18-.91,3.68,3.68,0,0,0,.8-2.52,3.81,3.81,0,0,0-.78-2.57A2.62,2.62,0,0,0,214.36,20.85Z" fill="#1e1e1e"/>
      <path d="M224.4,28.5H220V20.1h4.27V21h-3.29v2.79h3v.89h-3v2.94h3.47Z" fill="#1e1e1e"/>
      <path d="M234.59,28.5h-1V22.86c0-.44,0-1,.08-1.63h0a6.37,6.37,0,0,1-.25.81l-2.88,6.46h-.48l-2.86-6.41a4.93,4.93,0,0,1-.25-.86h0c0,.33.05.88.05,1.64V28.5H226V20.1h1.3L229.9,26a7.92,7.92,0,0,1,.39,1h0c.17-.46.3-.8.41-1l2.63-5.83h1.23Z" fill="#1e1e1e"/>
      <path d="M240.26,22l-1.6.33,1.11,1.42-.64.45-.92-1.55-.92,1.55-.65-.45,1.12-1.42L236.14,22l.26-.73,1.54.58-.14-1.78h.81l-.13,1.78L240,21.3Z" fill="#1e1e1e"/>
      <path d="M241.69,30.41h-.85a7.75,7.75,0,0,0,1.83-5.13,7.91,7.91,0,0,0-1.84-5.18h.86a7.73,7.73,0,0,1,1.83,5.19A7.46,7.46,0,0,1,241.69,30.41Z" fill="#1e1e1e"/>
    </g>
    <g>
      <path d="M327.2,11.73c0,2.36-1.07,3.54-3.19,3.54S321,14.14,321,11.87V6.73h1V11.8c0,1.73.73,2.59,2.18,2.59s2.1-.83,2.1-2.5V6.73h1Z" fill="#1e1e1e"/>
      <path d="M330.15,14.27h0v3.62h-1V9.13h1v1.06h0A2.29,2.29,0,0,1,332.23,9,2.2,2.2,0,0,1,334,9.8a3.33,3.33,0,0,1,.65,2.16,3.78,3.78,0,0,1-.73,2.41,2.46,2.46,0,0,1-2,.9A2,2,0,0,1,330.15,14.27Zm0-2.42v.83a1.81,1.81,0,0,0,.48,1.27,1.75,1.75,0,0,0,2.6-.15,3.09,3.09,0,0,0,.49-1.86,2.41,2.41,0,0,0-.46-1.57A1.53,1.53,0,0,0,332,9.8a1.73,1.73,0,0,0-1.35.58A2.16,2.16,0,0,0,330.13,11.85Z" fill="#1e1e1e"/>
      <path d="M341.34,15.13h-1v-1h0a2.21,2.21,0,0,1-2.06,1.16,2.25,2.25,0,0,1-1.81-.8,3.33,3.33,0,0,1-.68-2.2,3.59,3.59,0,0,1,.75-2.38,2.48,2.48,0,0,1,2-.9,2,2,0,0,1,1.8,1h0V6.25h1Zm-1-2.71v-.88a1.74,1.74,0,0,0-.48-1.24,1.62,1.62,0,0,0-1.22-.5,1.67,1.67,0,0,0-1.38.65,2.77,2.77,0,0,0-.5,1.78,2.53,2.53,0,0,0,.48,1.63,1.59,1.59,0,0,0,1.3.6,1.63,1.63,0,0,0,1.3-.58A2.11,2.11,0,0,0,340.38,12.42Z" fill="#1e1e1e"/>
      <path d="M347.58,15.13h-1V14.2h0a2,2,0,0,1-1.85,1.07,2,2,0,0,1-1.4-.47,1.65,1.65,0,0,1-.51-1.26c0-1.12.66-1.77,2-2l1.8-.25q0-1.53-1.23-1.53a3,3,0,0,0-2,.74v-1a3.76,3.76,0,0,1,2-.56c1.41,0,2.11.75,2.11,2.24Zm-1-3-1.44.2a2.25,2.25,0,0,0-1,.33,1,1,0,0,0-.34.84.92.92,0,0,0,.31.72,1.25,1.25,0,0,0,.84.27,1.53,1.53,0,0,0,1.18-.5,1.76,1.76,0,0,0,.46-1.26Z" fill="#1e1e1e"/>
      <path d="M352.18,15.07a1.82,1.82,0,0,1-.9.19c-1,0-1.57-.58-1.57-1.76V10h-1V9.13h1V7.67l1-.31V9.13h1.51V10h-1.51v3.38a1.41,1.41,0,0,0,.2.87.82.82,0,0,0,.68.25,1,1,0,0,0,.63-.2Z" fill="#1e1e1e"/>
      <path d="M358.28,12.37h-4.23a2.19,2.19,0,0,0,.54,1.55,1.85,1.85,0,0,0,1.41.54,3,3,0,0,0,1.87-.66v.9a3.52,3.52,0,0,1-2.09.57,2.54,2.54,0,0,1-2-.81,3.34,3.34,0,0,1-.73-2.3,3.34,3.34,0,0,1,.79-2.29,2.58,2.58,0,0,1,2-.88,2.28,2.28,0,0,1,1.82.76,3.19,3.19,0,0,1,.64,2.12Zm-1-.81a2,2,0,0,0-.4-1.3,1.4,1.4,0,0,0-1.1-.46,1.56,1.56,0,0,0-1.16.49,2.21,2.21,0,0,0-.58,1.27Z" fill="#1e1e1e"/>
      <path d="M367.42,7.62h-3.28v2.91h3v.88h-3v3.72h-1V6.73h4.27Z" fill="#1e1e1e"/>
      <path d="M369.38,7.61a.59.59,0,0,1-.44-.18.55.55,0,0,1-.19-.44.63.63,0,0,1,.63-.63.6.6,0,0,1,.44.18A.58.58,0,0,1,370,7a.58.58,0,0,1-.19.44A.6.6,0,0,1,369.38,7.61Zm.46,7.52h-1v-6h1Z" fill="#1e1e1e"/>
      <path d="M374.92,10.11a1.18,1.18,0,0,0-.73-.2,1.25,1.25,0,0,0-1,.58,2.74,2.74,0,0,0-.41,1.58v3.06h-1v-6h1v1.24h0a2.17,2.17,0,0,1,.63-1,1.46,1.46,0,0,1,.94-.35,1.49,1.49,0,0,1,.58.08Z" fill="#1e1e1e"/>
      <path d="M384.48,15.13h-1V11.69a2.52,2.52,0,0,0-.31-1.44,1.15,1.15,0,0,0-1-.45,1.3,1.3,0,0,0-1.05.56,2.16,2.16,0,0,0-.43,1.35v3.42h-1V11.57c0-1.18-.45-1.77-1.36-1.77a1.28,1.28,0,0,0-1.05.53,2.2,2.2,0,0,0-.41,1.38v3.42h-1v-6h1v.95h0A2,2,0,0,1,378.81,9a1.77,1.77,0,0,1,1.07.34,1.75,1.75,0,0,1,.63.9,2.15,2.15,0,0,1,2-1.24c1.32,0,2,.82,2,2.45Z" fill="#1e1e1e"/>
      <path d="M393.86,9.13l-1.8,6h-1l-1.24-4.29a4.1,4.1,0,0,1-.09-.56h0a2.78,2.78,0,0,1-.13.55l-1.34,4.3h-1l-1.82-6h1l1.24,4.51a3,3,0,0,1,.09.54h0a3.14,3.14,0,0,1,.11-.55l1.38-4.5h.88l1.24,4.53a3,3,0,0,1,.09.54h0a2.4,2.4,0,0,1,.1-.54l1.22-4.53Z" fill="#1e1e1e"/>
      <path d="M399.26,15.13h-1V14.2h0a2,2,0,0,1-1.85,1.07,2,2,0,0,1-1.4-.47,1.65,1.65,0,0,1-.51-1.26c0-1.12.66-1.77,2-2l1.8-.25q0-1.53-1.23-1.53a3,3,0,0,0-2,.74v-1a3.76,3.76,0,0,1,2-.56c1.41,0,2.11.75,2.11,2.24Zm-1-3-1.44.2a2.25,2.25,0,0,0-1,.33,1,1,0,0,0-.34.84.92.92,0,0,0,.31.72,1.25,1.25,0,0,0,.84.27,1.53,1.53,0,0,0,1.18-.5,1.76,1.76,0,0,0,.46-1.26Z" fill="#1e1e1e"/>
      <path d="M404.2,10.11a1.14,1.14,0,0,0-.72-.2,1.24,1.24,0,0,0-1,.58,2.67,2.67,0,0,0-.41,1.58v3.06h-1v-6h1v1.24h0a2.09,2.09,0,0,1,.63-1,1.61,1.61,0,0,1,1.51-.27Z" fill="#1e1e1e"/>
      <path d="M410.07,12.37h-4.24a2.28,2.28,0,0,0,.54,1.55,1.87,1.87,0,0,0,1.42.54,3,3,0,0,0,1.86-.66v.9a3.47,3.47,0,0,1-2.09.57,2.56,2.56,0,0,1-2-.81,3.39,3.39,0,0,1-.72-2.3,3.29,3.29,0,0,1,.79-2.29,2.58,2.58,0,0,1,2-.88,2.27,2.27,0,0,1,1.82.76,3.2,3.2,0,0,1,.65,2.12Zm-1-.81a1.91,1.91,0,0,0-.4-1.3,1.39,1.39,0,0,0-1.1-.46,1.54,1.54,0,0,0-1.15.49,2.22,2.22,0,0,0-.59,1.27Z" fill="#1e1e1e"/>
      <path d="M349.67,30.24h-.85A7.47,7.47,0,0,1,347,25.13a7.78,7.78,0,0,1,1.82-5.2h.86a7.94,7.94,0,0,0-1.84,5.19A7.75,7.75,0,0,0,349.67,30.24Z" fill="#1e1e1e"/>
      <path d="M354.29,28.47a3.69,3.69,0,0,1-2.86-1.17,4.38,4.38,0,0,1-1.08-3.07,4.62,4.62,0,0,1,1.1-3.23,3.8,3.8,0,0,1,3-1.21,3.59,3.59,0,0,1,2.8,1.17A4.38,4.38,0,0,1,358.3,24a4.68,4.68,0,0,1-1.09,3.25A3.75,3.75,0,0,1,354.29,28.47Zm.07-7.79a2.7,2.7,0,0,0-2.15,1,3.68,3.68,0,0,0-.83,2.5,3.7,3.7,0,0,0,.81,2.5,2.64,2.64,0,0,0,2.1.95,2.76,2.76,0,0,0,2.18-.9,3.73,3.73,0,0,0,.8-2.53,3.81,3.81,0,0,0-.78-2.57A2.62,2.62,0,0,0,354.36,20.68Z" fill="#1e1e1e"/>
      <path d="M364.4,28.33H360v-8.4h4.27v.89h-3.29v2.8h3v.88h-3v2.94h3.47Z" fill="#1e1e1e"/>
      <path d="M374.59,28.33h-1V22.7c0-.45,0-1,.08-1.64h0a7.28,7.28,0,0,1-.25.82l-2.88,6.45h-.48l-2.86-6.41a4.44,4.44,0,0,1-.25-.86h0c0,.34.05.89.05,1.65v5.62h-1v-8.4h1.3l2.58,5.86a7.92,7.92,0,0,1,.39,1h0c.17-.46.3-.81.41-1l2.63-5.84h1.23Z" fill="#1e1e1e"/>
      <path d="M380.26,21.86l-1.6.33,1.11,1.43-.64.44-.92-1.55-.92,1.55-.65-.44,1.12-1.43-1.62-.33.26-.73,1.54.58-.14-1.78h.81l-.13,1.78,1.54-.58Z" fill="#1e1e1e"/>
      <path d="M381.69,30.24h-.85a7.75,7.75,0,0,0,1.83-5.12,7.94,7.94,0,0,0-1.84-5.19h.86a7.74,7.74,0,0,1,1.83,5.2A7.43,7.43,0,0,1,381.69,30.24Z" fill="#1e1e1e"/>
    </g>
    <g>
      <path d="M471.67,15.13h-1.09l-.89-2.35h-3.56l-.84,2.35H464.2l3.22-8.4h1Zm-2.3-3.24-1.32-3.58a4.39,4.39,0,0,1-.13-.56h0a2.38,2.38,0,0,1-.14.56l-1.3,3.58Z" fill="#1e1e1e"/>
      <path d="M477.9,15.13h-1v-1h0a2.22,2.22,0,0,1-2.07,1.16,2.25,2.25,0,0,1-1.8-.8,3.33,3.33,0,0,1-.68-2.2,3.59,3.59,0,0,1,.75-2.38,2.48,2.48,0,0,1,2-.9,2,2,0,0,1,1.8,1h0V6.25h1Zm-1-2.71v-.88a1.74,1.74,0,0,0-.48-1.24,1.64,1.64,0,0,0-1.22-.5,1.66,1.66,0,0,0-1.38.65,2.77,2.77,0,0,0-.51,1.78,2.53,2.53,0,0,0,.49,1.63,1.57,1.57,0,0,0,1.3.6,1.63,1.63,0,0,0,1.3-.58A2.16,2.16,0,0,0,476.94,12.42Z" fill="#1e1e1e"/>
      <path d="M485,15.13h-1v-1h0a2.2,2.2,0,0,1-2.06,1.16,2.27,2.27,0,0,1-1.81-.8,3.32,3.32,0,0,1-.67-2.2,3.59,3.59,0,0,1,.75-2.38,2.46,2.46,0,0,1,2-.9,1.93,1.93,0,0,1,1.8,1h0V6.25h1Zm-1-2.71v-.88a1.74,1.74,0,0,0-.48-1.24,1.64,1.64,0,0,0-1.22-.5,1.68,1.68,0,0,0-1.39.65,2.83,2.83,0,0,0-.5,1.78,2.53,2.53,0,0,0,.48,1.63,1.6,1.6,0,0,0,1.3.6,1.65,1.65,0,0,0,1.31-.58A2.16,2.16,0,0,0,484,12.42Z" fill="#1e1e1e"/>
      <path d="M489.94,14.79V13.63a2,2,0,0,0,.47.32,6.07,6.07,0,0,0,.59.24c.21.06.41.11.62.15a4.13,4.13,0,0,0,.57.05,2.22,2.22,0,0,0,1.36-.34,1.14,1.14,0,0,0,.45-1,1.15,1.15,0,0,0-.15-.59,1.64,1.64,0,0,0-.42-.46,3.91,3.91,0,0,0-.62-.4l-.78-.4-.82-.45a3.81,3.81,0,0,1-.66-.5,2.24,2.24,0,0,1-.44-.63,1.88,1.88,0,0,1-.16-.82,1.93,1.93,0,0,1,.25-1,2.32,2.32,0,0,1,.66-.7,3.19,3.19,0,0,1,.94-.41,4.24,4.24,0,0,1,1.07-.13,4.11,4.11,0,0,1,1.81.3V8a3.26,3.26,0,0,0-1.91-.52,2.88,2.88,0,0,0-.65.07,1.78,1.78,0,0,0-.57.22,1.18,1.18,0,0,0-.41.39,1,1,0,0,0-.16.59,1.18,1.18,0,0,0,.12.55,1.41,1.41,0,0,0,.35.43,4.17,4.17,0,0,0,.58.38l.77.39c.3.15.59.31.86.47a4.46,4.46,0,0,1,.71.55,2.53,2.53,0,0,1,.48.66A1.84,1.84,0,0,1,495,13a1.94,1.94,0,0,1-.9,1.75,2.88,2.88,0,0,1-.95.39,5.24,5.24,0,0,1-1.14.12l-.49,0q-.3,0-.6-.09a4.91,4.91,0,0,1-.58-.15A1.91,1.91,0,0,1,489.94,14.79Z" fill="#1e1e1e"/>
      <path d="M500.67,14.86a3.23,3.23,0,0,1-1.65.41,2.71,2.71,0,0,1-2.07-.83,3.06,3.06,0,0,1-.78-2.17A3.36,3.36,0,0,1,497,9.89a3,3,0,0,1,2.27-.9,3.13,3.13,0,0,1,1.4.3v1a2.49,2.49,0,0,0-1.43-.47,1.92,1.92,0,0,0-1.51.66,2.52,2.52,0,0,0-.59,1.73,2.4,2.4,0,0,0,.55,1.67,1.94,1.94,0,0,0,1.49.6,2.43,2.43,0,0,0,1.48-.52Z" fill="#1e1e1e"/>
      <path d="M506.41,15.13h-1V14.2h0a2,2,0,0,1-1.85,1.07,2,2,0,0,1-1.4-.47,1.65,1.65,0,0,1-.51-1.26c0-1.12.66-1.77,2-2l1.8-.25q0-1.53-1.23-1.53a3,3,0,0,0-2,.74v-1a3.76,3.76,0,0,1,2-.56c1.41,0,2.11.75,2.11,2.24Zm-1-3-1.45.2a2.25,2.25,0,0,0-1,.33,1,1,0,0,0-.34.84.92.92,0,0,0,.31.72,1.25,1.25,0,0,0,.84.27A1.53,1.53,0,0,0,505,14a1.76,1.76,0,0,0,.46-1.26Z" fill="#1e1e1e"/>
      <path d="M509.18,15.13h-1V6.25h1Z" fill="#1e1e1e"/>
      <path d="M516,12.37h-4.23a2.23,2.23,0,0,0,.53,1.55,1.88,1.88,0,0,0,1.42.54,3,3,0,0,0,1.87-.66v.9a3.53,3.53,0,0,1-2.1.57,2.53,2.53,0,0,1-2-.81,3.34,3.34,0,0,1-.73-2.3,3.29,3.29,0,0,1,.79-2.29,2.58,2.58,0,0,1,2-.88,2.28,2.28,0,0,1,1.82.76,3.19,3.19,0,0,1,.64,2.12Zm-1-.81a2,2,0,0,0-.4-1.3,1.4,1.4,0,0,0-1.1-.46,1.54,1.54,0,0,0-1.16.49,2.21,2.21,0,0,0-.58,1.27Z" fill="#1e1e1e"/>
      <path d="M470.18,24.93q0,3.54-3.2,3.54t-3.06-3.4V19.93h1V25c0,1.73.72,2.59,2.18,2.59s2.1-.83,2.1-2.5V19.93h1Z" fill="#1e1e1e"/>
      <path d="M477.13,28.33h-1V24.91c0-1.27-.46-1.91-1.39-1.91a1.5,1.5,0,0,0-1.19.54,2,2,0,0,0-.47,1.37v3.42h-1v-6h1v1h0a2.16,2.16,0,0,1,2-1.14,1.81,1.81,0,0,1,1.5.64,2.8,2.8,0,0,1,.53,1.84Z" fill="#1e1e1e"/>
      <path d="M479.43,20.81a.6.6,0,0,1-.44-.18.57.57,0,0,1-.18-.44.61.61,0,0,1,.18-.45.6.6,0,0,1,.44-.18.64.64,0,0,1,.45.18.61.61,0,0,1,.18.45.6.6,0,0,1-.18.44A.64.64,0,0,1,479.43,20.81Zm.47,7.52h-1v-6h1Z" fill="#1e1e1e"/>
      <path d="M484.63,28.27a1.82,1.82,0,0,1-.9.19c-1.05,0-1.58-.58-1.58-1.76V23.15h-1v-.82h1V20.87l1-.31v1.77h1.52v.82h-1.52v3.38a1.41,1.41,0,0,0,.21.87.82.82,0,0,0,.68.25,1,1,0,0,0,.63-.2Z" fill="#1e1e1e"/>
      <path d="M496.1,28.33h-1.21l-4.32-6.69a2.94,2.94,0,0,1-.27-.53h0a8.6,8.6,0,0,1,.05,1.15v6.07h-1v-8.4h1.28l4.21,6.59c.17.28.29.46.34.56h0a8.58,8.58,0,0,1-.06-1.23V19.93h1Z" fill="#1e1e1e"/>
      <path d="M500.68,28.47a2.77,2.77,0,0,1-2.12-.84,3.11,3.11,0,0,1-.8-2.23,3.26,3.26,0,0,1,.83-2.36,3,3,0,0,1,2.23-.85,2.73,2.73,0,0,1,2.1.83,3.27,3.27,0,0,1,.75,2.29,3.23,3.23,0,0,1-.81,2.3A2.83,2.83,0,0,1,500.68,28.47Zm.07-5.47a1.8,1.8,0,0,0-1.46.63,2.59,2.59,0,0,0-.54,1.74,2.46,2.46,0,0,0,.54,1.68,1.85,1.85,0,0,0,1.46.62,1.76,1.76,0,0,0,1.43-.61,2.58,2.58,0,0,0,.5-1.72,2.62,2.62,0,0,0-.5-1.73A1.73,1.73,0,0,0,500.75,23Z" fill="#1e1e1e"/>
      <path d="M510.32,28.33h-1v-1h0a2.43,2.43,0,0,1-3.87.36,3.33,3.33,0,0,1-.68-2.2,3.59,3.59,0,0,1,.75-2.38,2.48,2.48,0,0,1,2-.9,1.93,1.93,0,0,1,1.8,1h0V19.45h1Zm-1-2.71v-.88a1.74,1.74,0,0,0-.48-1.24,1.62,1.62,0,0,0-1.22-.5,1.67,1.67,0,0,0-1.38.65,2.85,2.85,0,0,0-.5,1.78,2.53,2.53,0,0,0,.48,1.63,1.59,1.59,0,0,0,1.3.61,1.63,1.63,0,0,0,1.3-.59A2.11,2.11,0,0,0,509.36,25.62Z" fill="#1e1e1e"/>
      <path d="M517.09,25.57h-4.23a2.23,2.23,0,0,0,.53,1.55,1.89,1.89,0,0,0,1.42.55,3,3,0,0,0,1.87-.67v.9a3.53,3.53,0,0,1-2.1.57,2.53,2.53,0,0,1-2-.81,3.34,3.34,0,0,1-.73-2.3,3.29,3.29,0,0,1,.79-2.29,2.58,2.58,0,0,1,2-.88,2.28,2.28,0,0,1,1.82.76,3.19,3.19,0,0,1,.64,2.12Zm-1-.81a2,2,0,0,0-.4-1.3,1.4,1.4,0,0,0-1.1-.46,1.54,1.54,0,0,0-1.16.49,2.21,2.21,0,0,0-.58,1.27Z" fill="#1e1e1e"/>
    </g>
    <g>
      <path d="M601.59,13l-3.11,8.41H597.4l-3-8.41h1.1l2.32,6.67a3,3,0,0,1,.17.74h0a3.52,3.52,0,0,1,.19-.76L600.53,13Z" fill="#1e1e1e"/>
      <path d="M606.09,21.42h-1v-.94h0a2,2,0,0,1-1.84,1.08,1.93,1.93,0,0,1-1.4-.48,1.62,1.62,0,0,1-.51-1.26q0-1.68,2-1.95l1.8-.26c0-1-.41-1.53-1.24-1.53a3,3,0,0,0-2,.74v-1a3.68,3.68,0,0,1,2-.56c1.41,0,2.12.74,2.12,2.23Zm-1-3-1.45.2a2.35,2.35,0,0,0-1,.33,1,1,0,0,0-.34.84.92.92,0,0,0,.32.72,1.18,1.18,0,0,0,.83.28,1.55,1.55,0,0,0,1.18-.5,1.81,1.81,0,0,0,.47-1.27Z" fill="#1e1e1e"/>
      <path d="M608.86,21.42h-1V12.53h1Z" fill="#1e1e1e"/>
      <path d="M611.3,13.89a.64.64,0,0,1-.44-.17.65.65,0,0,1,0-.9.6.6,0,0,1,.44-.17.63.63,0,0,1,.45.17.61.61,0,0,1,.18.45.6.6,0,0,1-.18.44A.64.64,0,0,1,611.3,13.89Zm.47,7.53h-1v-6h1Z" fill="#1e1e1e"/>
      <path d="M618.83,21.42h-1v-1h0a2.42,2.42,0,0,1-3.87.35,3.32,3.32,0,0,1-.68-2.19,3.6,3.6,0,0,1,.75-2.39,2.47,2.47,0,0,1,2-.89,1.93,1.93,0,0,1,1.8,1h0V12.53h1Zm-1-2.72v-.88a1.7,1.7,0,0,0-.48-1.23,1.59,1.59,0,0,0-1.22-.51,1.67,1.67,0,0,0-1.38.65,2.79,2.79,0,0,0-.5,1.78,2.56,2.56,0,0,0,.48,1.64,1.57,1.57,0,0,0,1.3.6,1.63,1.63,0,0,0,1.3-.58A2.15,2.15,0,0,0,617.87,18.7Z" fill="#1e1e1e"/>
      <path d="M625.07,21.42h-1v-.94h0a2,2,0,0,1-1.85,1.08,2,2,0,0,1-1.4-.48,1.62,1.62,0,0,1-.51-1.26q0-1.68,2-1.95l1.8-.26q0-1.53-1.23-1.53a3,3,0,0,0-2,.74v-1a3.68,3.68,0,0,1,2-.56c1.41,0,2.11.74,2.11,2.23Zm-1-3-1.44.2a2.25,2.25,0,0,0-1,.33,1,1,0,0,0-.34.84.91.91,0,0,0,.31.72,1.2,1.2,0,0,0,.84.28,1.56,1.56,0,0,0,1.18-.5,1.8,1.8,0,0,0,.46-1.27Z" fill="#1e1e1e"/>
      <path d="M629.67,21.36a1.94,1.94,0,0,1-.9.19c-1,0-1.58-.59-1.58-1.76V16.24h-1v-.82h1V14l1-.31v1.78h1.51v.82h-1.51v3.38a1.38,1.38,0,0,0,.2.86.83.83,0,0,0,.68.26,1.05,1.05,0,0,0,.63-.2Z" fill="#1e1e1e"/>
      <path d="M635.77,18.66h-4.23a2.18,2.18,0,0,0,.54,1.54,1.82,1.82,0,0,0,1.41.55,2.94,2.94,0,0,0,1.87-.67V21a3.46,3.46,0,0,1-2.1.58,2.54,2.54,0,0,1-2-.82,3.33,3.33,0,0,1-.73-2.3,3.28,3.28,0,0,1,.79-2.28,2.55,2.55,0,0,1,2-.88,2.25,2.25,0,0,1,1.82.76,3.17,3.17,0,0,1,.64,2.11Zm-1-.82a2,2,0,0,0-.4-1.29,1.38,1.38,0,0,0-1.1-.47,1.6,1.6,0,0,0-1.16.49,2.24,2.24,0,0,0-.58,1.27Z" fill="#1e1e1e"/>
    </g>
  </g>
</svg>
