<svg xmlns="http://www.w3.org/2000/svg" xmlns:xlink="http://www.w3.org/1999/xlink" viewBox="0 0 426 243">
  <defs>
    <linearGradient id="linear-gradient" x1="110.64" y1="488.72" x2="110.64" y2="510.37" gradientTransform="matrix(1, 0, 0, -1, 0, 586.73)" gradientUnits="userSpaceOnUse">
      <stop offset="0" stop-color="#0078d4"/>
      <stop offset="0.82" stop-color="#5ea0ef"/>
    </linearGradient>
    <linearGradient id="linear-gradient-2" x1="110.64" y1="480.37" x2="110.64" y2="488.72" gradientTransform="matrix(1, 0, 0, -1, 0, 586.73)" gradientUnits="userSpaceOnUse">
      <stop offset="0.15" stop-color="#ccc"/>
      <stop offset="1" stop-color="#707070"/>
    </linearGradient>
    <linearGradient id="linear-gradient-3" x1="23.7" y1="390.97" x2="26.16" y2="388.51" gradientTransform="matrix(1, 0, 0, -1, 2.99, 586.22)" gradientUnits="userSpaceOnUse">
      <stop offset="0" stop-color="#86d633"/>
      <stop offset="0.24" stop-color="#83d232"/>
      <stop offset="0.5" stop-color="#7cc52f"/>
      <stop offset="0.76" stop-color="#6fb02a"/>
      <stop offset="1" stop-color="#5e9624"/>
    </linearGradient>
    <linearGradient id="linear-gradient-4" x1="18.15" y1="390.97" x2="20.59" y2="388.51" xlink:href="#linear-gradient-3"/>
    <linearGradient id="linear-gradient-5" x1="12.6" y1="390.97" x2="15.05" y2="388.51" xlink:href="#linear-gradient-3"/>
    <linearGradient id="linear-gradient-6" x1="312.49" y1="488.72" x2="312.49" y2="510.37" xlink:href="#linear-gradient"/>
    <linearGradient id="linear-gradient-7" x1="312.49" y1="480.37" x2="312.49" y2="488.72" xlink:href="#linear-gradient-2"/>
    <linearGradient id="linear-gradient-8" x1="301.18" y1="390.58" x2="303.64" y2="388.12" xlink:href="#linear-gradient-3"/>
    <linearGradient id="linear-gradient-9" x1="295.63" y1="390.58" x2="298.08" y2="388.12" xlink:href="#linear-gradient-3"/>
    <linearGradient id="linear-gradient-10" x1="290.09" y1="390.58" x2="292.53" y2="388.13" xlink:href="#linear-gradient-3"/>
    <linearGradient id="linear-gradient-11" x1="211.76" y1="94.94" x2="211.76" y2="78.94" gradientUnits="userSpaceOnUse">
      <stop offset="0" stop-color="#1989b2"/>
      <stop offset="1" stop-color="#50c7e8"/>
    </linearGradient>
    <linearGradient id="linear-gradient-12" x1="173.4" y1="90.93" x2="181.37" y2="82.96" gradientUnits="userSpaceOnUse">
      <stop offset="0" stop-color="#b3b3b3"/>
      <stop offset="1" stop-color="#4f4f4f"/>
    </linearGradient>
  </defs>
  <g id="Shapes">
    <rect x="1.26" width="424.74" height="243" fill="#fff"/>
    <g>
      <g>
        <rect x="278.84" y="1.87" width="145" height="195" rx="5" fill="#fff"/>
        <rect x="278.84" y="1.87" width="145" height="195" rx="5" fill="#3c3c41" opacity="0.05"/>
      </g>
      <path d="M417.7,197.37h-1v-1h1Zm-3,0h-1v-1h1Zm-3,0h-1v-1h1Zm-3,0h-1v-1h1Zm-3,0h-1v-1h1Zm-3,0h-1v-1h1Zm-3,0h-1v-1h1Zm-3,0h-1v-1h1Zm-3,0h-1v-1h1Zm-3,0h-1v-1h1Zm-3,0h-1v-1h1Zm-3,0h-1v-1h1Zm-3,0h-1v-1h1Zm-3,0h-1v-1h1Zm-3,0h-1v-1h1Zm-3,0h-1v-1h1Zm-3,0h-1v-1h1Zm-3,0h-1v-1h1Zm-3,0h-1v-1h1Zm-3,0h-1v-1h1Zm-3,0h-1v-1h1Zm-3,0h-1v-1h1Zm-3,0h-1v-1h1Zm-3,0h-1v-1h1Zm-3,0h-1v-1h1Zm-3,0h-1v-1h1Zm-3,0h-1v-1h1Zm-3,0h-1v-1h1Zm-3,0h-1v-1h1Zm-3,0h-1v-1h1Zm-3,0h-1v-1h1Zm-3,0h-1v-1h1Zm-3,0h-1v-1h1Zm-3,0h-1v-1h1Zm101-.08-.17-1a4,4,0,0,0,.86-.24l.37.93A6.41,6.41,0,0,1,419.78,197.29Zm-137,0a6.4,6.4,0,0,1-1.05-.33l.4-.92a4.2,4.2,0,0,0,.85.27Zm139.93-1.45-.7-.72a3.79,3.79,0,0,0,.58-.69l.83.57A5.64,5.64,0,0,1,422.67,195.81Zm-142.77-.12a5.2,5.2,0,0,1-.69-.86l.84-.54a4.77,4.77,0,0,0,.56.7ZM424.23,193l-1-.2a4.41,4.41,0,0,0,.09-.89l1-.06v.06A5.68,5.68,0,0,1,424.23,193Zm-145.81-.16a5.84,5.84,0,0,1-.08-.93v-.15h1v.15a3.91,3.91,0,0,0,.07.76Zm145.92-3h-1v-1h1Zm-145-.09h-1v-1h1Zm145-2.91h-1v-1h1Zm-145-.09h-1v-1h1Zm145-2.9h-1v-1h1Zm-145-.09h-1v-1h1Zm145-2.91h-1v-1h1Zm-145-.09h-1v-1h1Zm145-2.91h-1v-1h1Zm-145-.09h-1v-1h1Zm145-2.9h-1v-1h1Zm-145-.1h-1v-1h1Zm145-2.9h-1v-1h1Zm-145-.09h-1v-1h1Zm145-2.91h-1v-1h1Zm-145-.09h-1v-1h1Zm145-2.91h-1v-1h1Zm-145-.09h-1v-1h1Zm145-2.9h-1v-1h1Zm-145-.09h-1v-1h1Zm145-2.91h-1v-1h1Zm-145-.09h-1v-1h1Zm145-2.91h-1v-1h1Zm-145-.09h-1v-1h1Zm145-2.9h-1v-1h1Zm-145-.1h-1v-1h1Zm145-2.9h-1v-1h1Zm-145-.09h-1v-1h1Zm145-2.91h-1v-1h1Zm-145-.09h-1v-1h1Zm145-2.91h-1v-1h1Zm-145-.09h-1v-1h1Zm145-2.9h-1v-1h1Zm-145-.09h-1v-1h1Zm145-2.91h-1v-1h1Zm-145-.09h-1v-1h1Zm145-2.91h-1v-1h1Zm-145-.09h-1v-1h1Zm145-2.9h-1v-1h1Zm-145-.1h-1v-1h1Zm145-2.9h-1v-1h1Zm-145-.09h-1v-1h1Zm145-2.91h-1v-1h1Zm-145-.09h-1v-1h1Zm145-2.91h-1v-1h1Zm-145-.09h-1v-1h1Zm145-2.9h-1v-1h1Zm-145-.09h-1v-1h1Zm145-2.91h-1v-1h1Zm-145-.09h-1v-1h1Zm145-2.91h-1v-1h1Zm-145-.09h-1v-1h1Zm145-2.9h-1v-1h1Zm-145-.09h-1v-1h1Zm145-2.91h-1v-1h1Zm-145-.09h-1v-1h1Zm145-2.91h-1v-1h1Zm-145-.09h-1v-1h1Zm145-2.9h-1v-1h1Zm-145-.1h-1v-1h1Zm145-2.9h-1v-1h1Zm-145-.09h-1v-1h1Zm145-2.91h-1v-1h1Zm-145-.09h-1v-1h1Zm145-2.91h-1v-1h1Zm-145-.09h-1v-1h1Zm145-2.9h-1v-1h1Zm-145-.09h-1v-1h1Zm145-2.91h-1v-1h1Zm-145-.09h-1v-1h1Zm145-2.91h-1v-1h1Zm-145-.09h-1v-1h1Zm145-2.9h-1v-1h1Zm-145-.1h-1v-1h1Zm145-2.9h-1v-1h1Zm-145-.09h-1v-1h1Zm145-2.91h-1v-1h1Zm-145-.09h-1v-1h1Zm145-2.91h-1v-1h1Zm-145-.09h-1v-1h1Zm145-2.9h-1v-1h1Zm-145-.09h-1v-1h1Zm145-2.91h-1v-1h1Zm-145-.09h-1v-1h1Zm145-2.91h-1v-1h1Zm-145-.09h-1v-1h1Zm145-2.9h-1v-1h1Zm-145-.1h-1v-1h1Zm145-2.9h-1v-1h1Zm-145-.09h-1v-1h1Zm145-2.91h-1v-1h1Zm-145-.09h-1v-1h1Zm145-2.91h-1V51h1Zm-145-.09h-1v-1h1Zm145-2.9h-1V48h1Zm-145-.09h-1v-1h1Zm145-2.91h-1V45h1Zm-145-.09h-1v-1h1Zm145-2.91h-1V42h1Zm-145-.09h-1v-1h1Zm145-2.9h-1V39h1Zm-145-.1h-1v-1h1Zm145-2.9h-1V36h1Zm-145-.09h-1v-1h1Zm145-2.91h-1V33h1Zm-145-.09h-1v-1h1Zm145-2.91h-1V30h1Zm-145-.09h-1v-1h1Zm145-2.9h-1V27h1Zm-145-.09h-1v-1h1Zm145-2.91h-1V24h1Zm-145-.09h-1v-1h1Zm145-2.91h-1V21h1Zm-145-.09h-1v-1h1Zm145-2.9h-1V18h1Zm-145-.09h-1v-1h1Zm145-2.91h-1V15h1Zm-145-.09h-1v-1h1Zm145-2.91h-1V12h1Zm-145-.09h-1v-1h1Zm145-2.9h-1V9h1Zm-145-.1h-1v-1h1Zm145-2.9h-1V6.87a4.15,4.15,0,0,0-.07-.79l1-.17a6,6,0,0,1,.08,1Zm-146-.09v0a6.14,6.14,0,0,1,.1-1.06l1,.19a4.21,4.21,0,0,0-.09.87ZM422.61,4.42a4.65,4.65,0,0,0-.56-.7l.72-.7a5.72,5.72,0,0,1,.68.86Zm-142.5-.07-.82-.56A5.57,5.57,0,0,1,280,3l.7.71A5.43,5.43,0,0,0,280.11,4.35ZM420.57,2.72a4.2,4.2,0,0,0-.85-.27l.19-1a5.53,5.53,0,0,1,1,.32Zm-138.39,0-.37-.92a5.6,5.6,0,0,1,1.06-.31l.18,1A4.31,4.31,0,0,0,282.18,2.68Zm135.64-.31h-1v-1h1Zm-3,0h-1v-1h1Zm-3,0h-1v-1h1Zm-3,0h-1v-1h1Zm-3,0h-1v-1h1Zm-3,0h-1v-1h1Zm-3,0h-1v-1h1Zm-3,0h-1v-1h1Zm-3,0h-1v-1h1Zm-3,0h-1v-1h1Zm-3,0h-1v-1h1Zm-3,0h-1v-1h1Zm-3,0h-1v-1h1Zm-3,0h-1v-1h1Zm-3,0h-1v-1h1Zm-3,0h-1v-1h1Zm-3,0h-1v-1h1Zm-3,0h-1v-1h1Zm-3,0h-1v-1h1Zm-3,0h-1v-1h1Zm-3,0h-1v-1h1Zm-3,0h-1v-1h1Zm-3,0h-1v-1h1Zm-3,0h-1v-1h1Zm-3,0h-1v-1h1Zm-3,0h-1v-1h1Zm-3,0h-1v-1h1Zm-3,0h-1v-1h1Zm-3,0h-1v-1h1Zm-3,0h-1v-1h1Zm-3,0h-1v-1h1Zm-3,0h-1v-1h1Zm-3,0h-1v-1h1Zm-3,0h-1v-1h1Zm-3,0h-1v-1h1Zm-3,0h-1v-1h1Zm-3,0h-1v-1h1Zm-3,0h-1v-1h1Zm-3,0h-1v-1h1Zm-3,0h-1v-1h1Zm-3,0h-1v-1h1Zm-3,0h-1v-1h1Zm-3,0h-1v-1h1Zm-3,0h-1v-1h1Zm-3,0h-1v-1h1Z" fill="#3c3c41"/>
    </g>
    <g>
      <g>
        <rect x="1.36" y="1.87" width="145" height="195" rx="5" fill="#fff"/>
        <rect x="1.36" y="1.87" width="145" height="195" rx="5" fill="#3c3c41" opacity="0.05"/>
      </g>
      <path d="M140.22,197.37h-1v-1h1Zm-3,0h-1v-1h1Zm-3,0h-1v-1h1Zm-3,0h-1v-1h1Zm-3,0h-1v-1h1Zm-3,0h-1v-1h1Zm-3,0h-1v-1h1Zm-3,0h-1v-1h1Zm-3,0h-1v-1h1Zm-3,0h-1v-1h1Zm-3,0h-1v-1h1Zm-3,0h-1v-1h1Zm-3,0h-1v-1h1Zm-3,0h-1v-1h1Zm-3,0h-1v-1h1Zm-3,0h-1v-1h1Zm-3,0h-1v-1h1Zm-3,0h-1v-1h1Zm-3,0h-1v-1h1Zm-3,0h-1v-1h1Zm-3,0h-1v-1h1Zm-3,0h-1v-1h1Zm-3,0h-1v-1h1Zm-3,0h-1v-1h1Zm-3,0h-1v-1h1Zm-3,0h-1v-1h1Zm-3,0h-1v-1h1Zm-3,0h-1v-1h1Zm-3,0h-1v-1h1Zm-3,0h-1v-1h1Zm-3,0h-1v-1h1Zm-3,0h-1v-1h1Zm-3,0h-1v-1h1Zm-3,0h-1v-1h1Zm101-.08-.17-1a4.4,4.4,0,0,0,.86-.24l.37.93A6.41,6.41,0,0,1,142.3,197.29Zm-137,0a6.4,6.4,0,0,1-1-.33L4.6,196a4.51,4.51,0,0,0,.86.27Zm139.93-1.45-.7-.72a4.24,4.24,0,0,0,.58-.69l.83.57A6.31,6.31,0,0,1,145.19,195.81ZM2.41,195.69a5.72,5.72,0,0,1-.68-.86l.84-.54a4.2,4.2,0,0,0,.56.7ZM146.75,193l-1-.2a4.41,4.41,0,0,0,.09-.89l1-.06v.06A5.68,5.68,0,0,1,146.75,193ZM.94,192.8a4.87,4.87,0,0,1-.08-.93v-.15h1v.15a4.87,4.87,0,0,0,.06.76Zm145.92-3h-1v-1h1Zm-145-.09h-1v-1h1Zm145-2.91h-1v-1h1Zm-145-.09h-1v-1h1Zm145-2.9h-1v-1h1Zm-145-.09h-1v-1h1Zm145-2.91h-1v-1h1Zm-145-.09h-1v-1h1Zm145-2.91h-1v-1h1Zm-145-.09h-1v-1h1Zm145-2.9h-1v-1h1Zm-145-.1h-1v-1h1Zm145-2.9h-1v-1h1Zm-145-.09h-1v-1h1Zm145-2.91h-1v-1h1Zm-145-.09h-1v-1h1Zm145-2.91h-1v-1h1Zm-145-.09h-1v-1h1Zm145-2.9h-1v-1h1Zm-145-.09h-1v-1h1Zm145-2.91h-1v-1h1Zm-145-.09h-1v-1h1Zm145-2.91h-1v-1h1Zm-145-.09h-1v-1h1Zm145-2.9h-1v-1h1Zm-145-.1h-1v-1h1Zm145-2.9h-1v-1h1Zm-145-.09h-1v-1h1Zm145-2.91h-1v-1h1Zm-145-.09h-1v-1h1Zm145-2.91h-1v-1h1Zm-145-.09h-1v-1h1Zm145-2.9h-1v-1h1Zm-145-.09h-1v-1h1Zm145-2.91h-1v-1h1Zm-145-.09h-1v-1h1Zm145-2.91h-1v-1h1Zm-145-.09h-1v-1h1Zm145-2.9h-1v-1h1Zm-145-.1h-1v-1h1Zm145-2.9h-1v-1h1Zm-145-.09h-1v-1h1Zm145-2.91h-1v-1h1Zm-145-.09h-1v-1h1Zm145-2.91h-1v-1h1Zm-145-.09h-1v-1h1Zm145-2.9h-1v-1h1Zm-145-.09h-1v-1h1Zm145-2.91h-1v-1h1Zm-145-.09h-1v-1h1Zm145-2.91h-1v-1h1Zm-145-.09h-1v-1h1Zm145-2.9h-1v-1h1Zm-145-.09h-1v-1h1Zm145-2.91h-1v-1h1Zm-145-.09h-1v-1h1Zm145-2.91h-1v-1h1Zm-145-.09h-1v-1h1Zm145-2.9h-1v-1h1Zm-145-.1h-1v-1h1Zm145-2.9h-1v-1h1Zm-145-.09h-1v-1h1Zm145-2.91h-1v-1h1Zm-145-.09h-1v-1h1Zm145-2.91h-1v-1h1Zm-145-.09h-1v-1h1Zm145-2.9h-1v-1h1Zm-145-.09h-1v-1h1Zm145-2.91h-1v-1h1Zm-145-.09h-1v-1h1Zm145-2.91h-1v-1h1Zm-145-.09h-1v-1h1Zm145-2.9h-1v-1h1Zm-145-.1h-1v-1h1Zm145-2.9h-1v-1h1Zm-145-.09h-1v-1h1Zm145-2.91h-1v-1h1Zm-145-.09h-1v-1h1Zm145-2.91h-1v-1h1Zm-145-.09h-1v-1h1Zm145-2.9h-1v-1h1Zm-145-.09h-1v-1h1Zm145-2.91h-1v-1h1Zm-145-.09h-1v-1h1Zm145-2.91h-1v-1h1Zm-145-.09h-1v-1h1Zm145-2.9h-1v-1h1Zm-145-.1h-1v-1h1Zm145-2.9h-1v-1h1Zm-145-.09h-1v-1h1Zm145-2.91h-1v-1h1Zm-145-.09h-1v-1h1Zm145-2.91h-1V51h1Zm-145-.09h-1v-1h1Zm145-2.9h-1V48h1Zm-145-.09h-1v-1h1Zm145-2.91h-1V45h1Zm-145-.09h-1v-1h1Zm145-2.91h-1V42h1Zm-145-.09h-1v-1h1Zm145-2.9h-1V39h1Zm-145-.1h-1v-1h1Zm145-2.9h-1V36h1Zm-145-.09h-1v-1h1Zm145-2.91h-1V33h1Zm-145-.09h-1v-1h1Zm145-2.91h-1V30h1Zm-145-.09h-1v-1h1Zm145-2.9h-1V27h1Zm-145-.09h-1v-1h1Zm145-2.91h-1V24h1Zm-145-.09h-1v-1h1Zm145-2.91h-1V21h1Zm-145-.09h-1v-1h1Zm145-2.9h-1V18h1Zm-145-.09h-1v-1h1Zm145-2.91h-1V15h1Zm-145-.09h-1v-1h1Zm145-2.91h-1V12h1Zm-145-.09h-1v-1h1Zm145-2.9h-1V9h1Zm-145-.1h-1v-1h1Zm145-2.9h-1V6.87a5.16,5.16,0,0,0-.07-.79l1-.17a5,5,0,0,1,.09,1ZM.86,6.9v0A5.29,5.29,0,0,1,1,5.81l1,.19a5,5,0,0,0-.08.87ZM145.13,4.42a4.65,4.65,0,0,0-.56-.7l.71-.7a5.2,5.2,0,0,1,.69.86ZM2.63,4.35,1.8,3.79A6.31,6.31,0,0,1,2.51,3l.7.71A4.71,4.71,0,0,0,2.63,4.35ZM143.09,2.72a4.29,4.29,0,0,0-.86-.27l.2-1a5.53,5.53,0,0,1,1,.32ZM4.7,2.68l-.37-.92a5.6,5.6,0,0,1,1.06-.31l.17,1A4.4,4.4,0,0,0,4.7,2.68Zm135.64-.31h-1v-1h1Zm-3,0h-1v-1h1Zm-3,0h-1v-1h1Zm-3,0h-1v-1h1Zm-3,0h-1v-1h1Zm-3,0h-1v-1h1Zm-3,0h-1v-1h1Zm-3,0h-1v-1h1Zm-3,0h-1v-1h1Zm-3,0h-1v-1h1Zm-3,0h-1v-1h1Zm-3,0h-1v-1h1Zm-3,0h-1v-1h1Zm-3,0h-1v-1h1Zm-3,0h-1v-1h1Zm-3,0h-1v-1h1Zm-3,0h-1v-1h1Zm-3,0h-1v-1h1Zm-3,0h-1v-1h1Zm-3,0h-1v-1h1Zm-3,0h-1v-1h1Zm-3,0h-1v-1h1Zm-3,0h-1v-1h1Zm-3,0h-1v-1h1Zm-3,0h-1v-1h1Zm-3,0h-1v-1h1Zm-3,0h-1v-1h1Zm-3,0h-1v-1h1Zm-3,0h-1v-1h1Zm-3,0h-1v-1h1Zm-3,0h-1v-1h1Zm-3,0h-1v-1h1Zm-3,0h-1v-1h1Zm-3,0h-1v-1h1Zm-3,0h-1v-1h1Zm-3,0h-1v-1h1Zm-3,0h-1v-1h1Zm-3,0h-1v-1h1Zm-3,0h-1v-1h1Zm-3,0h-1v-1h1Zm-3,0h-1v-1h1Zm-3,0h-1v-1h1Zm-3,0h-1v-1h1Zm-3,0h-1v-1h1Zm-3,0h-1v-1h1Z" fill="#3c3c41"/>
    </g>
    <g>
      <rect x="16.36" y="12.12" width="115" height="44.25" fill="#fff"/>
      <rect x="16.36" y="12.12" width="115" height="44.25" fill="#3c3c41" opacity="0.26"/>
    </g>
    <g>
      <rect x="16.36" y="132.12" width="115" height="44.25" fill="#fff"/>
      <rect x="16.36" y="132.12" width="115" height="44.25" fill="#3c3c41" opacity="0.26"/>
    </g>
    <line x1="110.64" y1="131.37" x2="110.64" y2="56.37" fill="none" stroke="#231f20"/>
    <line x1="126.26" y1="84.37" x2="175.26" y2="84.37" fill="none" stroke="#231f20"/>
    <line x1="126.26" y1="89.37" x2="175.26" y2="89.37" fill="none" stroke="#231f20"/>
    <line x1="247.22" y1="84.37" x2="295.45" y2="84.37" fill="none" stroke="#231f20"/>
    <line x1="247.22" y1="89.37" x2="295.45" y2="89.37" fill="none" stroke="#231f20"/>
    <g>
      <rect x="94.4" y="76.37" width="32.47" height="21.65" rx="1.08" fill="url(#linear-gradient)"/>
      <polygon points="116.05 84.03 116.05 90.33 110.64 93.5 110.64 87.19 116.05 84.03" fill="#50e6ff"/>
      <polygon points="116.05 84.03 110.64 87.21 105.23 84.03 110.64 80.88 116.05 84.03" fill="#c3f1ff"/>
      <polygon points="110.64 87.21 110.64 93.5 105.23 90.33 105.23 84.03 110.64 87.21" fill="#9cebff"/>
      <polygon points="105.23 90.33 110.64 87.19 110.64 93.5 105.23 90.33" fill="#c3f1ff"/>
      <polygon points="116.05 90.33 110.64 87.19 110.64 93.5 116.05 90.33" fill="#9cebff"/>
      <path d="M117.15,104.56c-3.21-.5-3.33-2.81-3.33-6.54h-6.37c0,3.73-.11,6-3.32,6.54a1.82,1.82,0,0,0-1.61,1.81h16.24A1.82,1.82,0,0,0,117.15,104.56Z" fill="url(#linear-gradient-2)"/>
    </g>
    <g>
      <circle cx="27.37" cy="196.44" r="1.74" fill="url(#linear-gradient-3)"/>
      <circle cx="21.82" cy="196.45" r="1.74" fill="url(#linear-gradient-4)"/>
      <circle cx="16.27" cy="196.45" r="1.74" fill="url(#linear-gradient-5)"/>
      <path d="M17.53,203.41l-1,1a.47.47,0,0,1-.64,0h0l-7.37-7.35a.9.9,0,0,1,0-1.27h0l1-1h0l8,8a.45.45,0,0,1,0,.64Z" fill="#50e6ff"/>
      <path d="M16.39,188.52l1,1a.47.47,0,0,1,0,.64L9.52,198h0l-1-1a.9.9,0,0,1,0-1.27h0l7.23-7.25A.45.45,0,0,1,16.39,188.52Z" fill="#1490df"/>
      <path d="M34,194.77l1,1a.9.9,0,0,1,0,1.28h0l-7.36,7.34a.45.45,0,0,1-.64,0h0l-1-1a.44.44,0,0,1,0-.63h0l8-8Z" fill="#50e6ff"/>
      <path d="M35,197l-1,1h0l-7.87-7.89a.45.45,0,0,1,0-.64h0l1-1a.43.43,0,0,1,.63,0h0L35,195.75A.89.89,0,0,1,35,197h0Z" fill="#1490df"/>
    </g>
    <g>
      <rect x="293.84" y="12.12" width="115" height="44.25" fill="#fff"/>
      <rect x="293.84" y="12.12" width="115" height="44.25" fill="#3c3c41" opacity="0.26"/>
    </g>
    <g>
      <rect x="293.84" y="132.12" width="115" height="44.25" fill="#fff"/>
      <rect x="293.84" y="132.12" width="115" height="44.25" fill="#3c3c41" opacity="0.26"/>
    </g>
    <line x1="312.49" y1="131.37" x2="312.49" y2="56.37" fill="none" stroke="#231f20"/>
    <g>
      <rect x="296.26" y="76.37" width="32.47" height="21.65" rx="1.08" fill="url(#linear-gradient-6)"/>
      <polygon points="317.91 84.03 317.91 90.33 312.49 93.5 312.49 87.19 317.91 84.03" fill="#50e6ff"/>
      <polygon points="317.91 84.03 312.49 87.21 307.08 84.03 312.49 80.88 317.91 84.03" fill="#c3f1ff"/>
      <polygon points="312.49 87.21 312.49 93.5 307.08 90.33 307.08 84.03 312.49 87.21" fill="#9cebff"/>
      <polygon points="307.08 90.33 312.49 87.19 312.49 93.5 307.08 90.33" fill="#c3f1ff"/>
      <polygon points="317.91 90.33 312.49 87.19 312.49 93.5 317.91 90.33" fill="#9cebff"/>
      <path d="M319,104.56c-3.21-.5-3.34-2.81-3.34-6.54H309.3c0,3.73-.11,6-3.32,6.54a1.8,1.8,0,0,0-1.6,1.81h16.23A1.81,1.81,0,0,0,319,104.56Z" fill="url(#linear-gradient-7)"/>
    </g>
    <g>
      <circle cx="304.85" cy="196.44" r="1.74" fill="url(#linear-gradient-8)"/>
      <circle cx="299.3" cy="196.45" r="1.74" fill="url(#linear-gradient-9)"/>
      <circle cx="293.76" cy="196.45" r="1.74" fill="url(#linear-gradient-10)"/>
      <path d="M295,203.41l-1,1a.45.45,0,0,1-.63,0h0L286,197.06a.9.9,0,0,1,0-1.27h0l1-1h0l8,8a.47.47,0,0,1,0,.64Z" fill="#50e6ff"/>
      <path d="M293.87,188.52l1,1a.45.45,0,0,1,0,.64L287,198h0l-1-1a.89.89,0,0,1,0-1.27h0l7.24-7.25A.44.44,0,0,1,293.87,188.52Z" fill="#1490df"/>
      <path d="M311.47,194.77l1,1a.91.91,0,0,1,0,1.28h0l-7.37,7.34a.45.45,0,0,1-.64,0h0l-1-1a.44.44,0,0,1,0-.63h0l8-8Z" fill="#50e6ff"/>
      <path d="M312.47,197l-1,1h0l-7.87-7.89a.47.47,0,0,1,0-.64h0l1-1a.45.45,0,0,1,.64,0h0l7.23,7.25a.9.9,0,0,1,0,1.27h0Z" fill="#1490df"/>
    </g>
    <g>
      <path d="M246.62,78.94H177.38c-2.43,0-4.34,3.52-4.34,8s1.91,8,4.34,8h69.24c2.13,0,3.85-3.85,3.85-8S248.75,78.94,246.62,78.94Z" fill="url(#linear-gradient-11)"/>
      <ellipse cx="177.38" cy="86.94" rx="3.64" ry="7.1" fill="url(#linear-gradient-12)"/>
    </g>
  </g>
  <g id="Text">
    <g>
      <path d="M180.57,110.93v-1.88a3.45,3.45,0,0,0,1.11.64,3.35,3.35,0,0,0,1.2.22,2.38,2.38,0,0,0,.63-.07,1.62,1.62,0,0,0,.44-.17.87.87,0,0,0,.27-.27.69.69,0,0,0,.09-.34.74.74,0,0,0-.14-.44,1.7,1.7,0,0,0-.39-.36,3.44,3.44,0,0,0-.58-.31c-.22-.11-.46-.21-.72-.31a3.7,3.7,0,0,1-1.46-1,2.14,2.14,0,0,1-.49-1.43,2.21,2.21,0,0,1,.27-1.12,2.13,2.13,0,0,1,.71-.78,3.5,3.5,0,0,1,1.06-.45,5.66,5.66,0,0,1,1.26-.14,6.67,6.67,0,0,1,1.16.08,4.46,4.46,0,0,1,.94.24v1.75a2.9,2.9,0,0,0-.46-.26,5.17,5.17,0,0,0-.51-.18,3.33,3.33,0,0,0-.53-.11l-.49,0a2.68,2.68,0,0,0-.59.06,1.62,1.62,0,0,0-.44.17.76.76,0,0,0-.29.27.68.68,0,0,0-.1.35.61.61,0,0,0,.12.37,1.33,1.33,0,0,0,.31.32,3.3,3.3,0,0,0,.5.29l.66.3a7,7,0,0,1,.91.45,2.87,2.87,0,0,1,.69.53,2.26,2.26,0,0,1,.44.69,2.4,2.4,0,0,1,.15.89,2.37,2.37,0,0,1-.27,1.18,2.13,2.13,0,0,1-.72.77,3.2,3.2,0,0,1-1.07.43,6.53,6.53,0,0,1-1.28.13,6.94,6.94,0,0,1-1.31-.12A4.15,4.15,0,0,1,180.57,110.93Z" fill="#1e1e1e"/>
      <path d="M188.42,104.3a1.06,1.06,0,0,1-.77-.28.88.88,0,0,1-.3-.68.87.87,0,0,1,.3-.68,1.09,1.09,0,0,1,.77-.26,1.11,1.11,0,0,1,.77.26.89.89,0,0,1,.29.68.91.91,0,0,1-.29.69A1.11,1.11,0,0,1,188.42,104.3Zm.91,7h-1.85v-6h1.85Z" fill="#1e1e1e"/>
      <path d="M194.43,111.18a2.83,2.83,0,0,1-1.24.22c-1.3,0-2-.68-2-2v-2.74h-1v-1.37h1V104l1.85-.53v1.82h1.35v1.37h-1.35V109c0,.63.25.94.74.94a1.31,1.31,0,0,0,.61-.17Z" fill="#1e1e1e"/>
      <path d="M200.85,108.78h-3.91c.06.87.61,1.3,1.65,1.3a3.23,3.23,0,0,0,1.74-.46V111a4.57,4.57,0,0,1-2.17.45,2.79,2.79,0,0,1-3-3.06A3.23,3.23,0,0,1,196,106a2.87,2.87,0,0,1,2.14-.88,2.63,2.63,0,0,1,2,.78,3.05,3.05,0,0,1,.71,2.12Zm-1.71-1.14q0-1.29-1-1.29a1,1,0,0,0-.77.37,1.75,1.75,0,0,0-.39.92Z" fill="#1e1e1e"/>
      <path d="M205.28,108.7h-3.2v-1.3h3.2Z" fill="#1e1e1e"/>
      <path d="M210.13,111.18a2.8,2.8,0,0,1-1.24.22q-1.95,0-1.95-2v-2.74h-1v-1.37h1V104l1.84-.53v1.82h1.35v1.37h-1.35V109c0,.63.25.94.74.94a1.31,1.31,0,0,0,.61-.17Z" fill="#1e1e1e"/>
      <path d="M214,111.4a3.24,3.24,0,0,1-2.36-.84,3.5,3.5,0,0,1,0-4.62,3.35,3.35,0,0,1,2.41-.84,3.19,3.19,0,0,1,2.34.84,3,3,0,0,1,.85,2.23,3.16,3.16,0,0,1-.88,2.36A3.24,3.24,0,0,1,214,111.4Zm0-4.88a1.23,1.23,0,0,0-1,.45,2,2,0,0,0-.36,1.28c0,1.15.46,1.73,1.39,1.73s1.33-.59,1.33-1.78S215,106.52,214.07,106.52Z" fill="#1e1e1e"/>
      <path d="M221.78,108.7h-3.21v-1.3h3.21Z" fill="#1e1e1e"/>
      <path d="M222.91,110.93v-1.88a3.45,3.45,0,0,0,1.11.64,3.4,3.4,0,0,0,1.21.22,2.25,2.25,0,0,0,.62-.07,1.57,1.57,0,0,0,.45-.17.87.87,0,0,0,.27-.27.81.81,0,0,0,.08-.34.68.68,0,0,0-.14-.44,1.47,1.47,0,0,0-.38-.36,3.88,3.88,0,0,0-.58-.31c-.22-.11-.46-.21-.72-.31a3.74,3.74,0,0,1-1.47-1,2.19,2.19,0,0,1-.48-1.43,2.32,2.32,0,0,1,.26-1.12,2.25,2.25,0,0,1,.72-.78,3.33,3.33,0,0,1,1-.45,5.75,5.75,0,0,1,1.27-.14,6.74,6.74,0,0,1,1.16.08,4.46,4.46,0,0,1,.94.24v1.75a3.42,3.42,0,0,0-.46-.26,4.56,4.56,0,0,0-.52-.18,3.21,3.21,0,0,0-.52-.11l-.5,0a2.58,2.58,0,0,0-.58.06,1.57,1.57,0,0,0-.45.17.81.81,0,0,0-.28.27.6.6,0,0,0-.1.35.67.67,0,0,0,.11.37,1.38,1.38,0,0,0,.32.32,2.87,2.87,0,0,0,.5.29,7,7,0,0,0,.66.3,6.29,6.29,0,0,1,.9.45,2.87,2.87,0,0,1,.69.53,2.08,2.08,0,0,1,.44.69,2.4,2.4,0,0,1,.16.89,2.37,2.37,0,0,1-.27,1.18,2.08,2.08,0,0,1-.73.77,3.07,3.07,0,0,1-1.06.43,6.53,6.53,0,0,1-1.28.13,6.86,6.86,0,0,1-1.31-.12A4.36,4.36,0,0,1,222.91,110.93Z" fill="#1e1e1e"/>
      <path d="M230.76,104.3A1,1,0,0,1,230,104a.88.88,0,0,1-.3-.68.87.87,0,0,1,.3-.68,1.26,1.26,0,0,1,1.53,0,.87.87,0,0,1,.3.68.89.89,0,0,1-.3.69A1.08,1.08,0,0,1,230.76,104.3Zm.92,7h-1.85v-6h1.85Z" fill="#1e1e1e"/>
      <path d="M236.77,111.18a2.75,2.75,0,0,1-1.23.22c-1.31,0-2-.68-2-2v-2.74h-1v-1.37h1V104l1.85-.53v1.82h1.34v1.37h-1.34V109c0,.63.25.94.74.94a1.24,1.24,0,0,0,.6-.17Z" fill="#1e1e1e"/>
      <path d="M243.2,108.78h-3.91c.06.87.61,1.3,1.64,1.3a3.23,3.23,0,0,0,1.74-.46V111a4.5,4.5,0,0,1-2.16.45,2.8,2.8,0,0,1-3.06-3.06,3.19,3.19,0,0,1,.87-2.36,2.87,2.87,0,0,1,2.13-.88,2.62,2.62,0,0,1,2,.78,3,3,0,0,1,.72,2.12Zm-1.72-1.14c0-.86-.34-1.29-1-1.29a1,1,0,0,0-.77.37,1.68,1.68,0,0,0-.4.92Z" fill="#1e1e1e"/>
      <path d="M186.79,117.25l-2.9,8.4h-2.14l-2.86-8.4h2l1.75,5.85a4.37,4.37,0,0,1,.17.83h0a3.78,3.78,0,0,1,.18-.86l1.74-5.82Z" fill="#1e1e1e"/>
      <path d="M189.62,122.76v2.89h-1.89v-8.4h3c2.12,0,3.18.89,3.18,2.68a2.55,2.55,0,0,1-.91,2,3.63,3.63,0,0,1-2.44.79Zm0-4.06v2.62h.74c1,0,1.52-.44,1.52-1.32s-.51-1.3-1.52-1.3Z" fill="#1e1e1e"/>
      <path d="M202.47,125.65h-1.91l-3.46-5.28c-.2-.31-.34-.54-.42-.7h0a11.68,11.68,0,0,1,0,1.36v4.62h-1.79v-8.4h2l3.34,5.11q.22.35.42.69h0a9.81,9.81,0,0,1,0-1.16v-4.64h1.78Z" fill="#1e1e1e"/>
      <path d="M213.61,118.79h-2.4v6.86h-1.9v-6.86h-2.38v-1.54h6.68Z" fill="#1e1e1e"/>
      <path d="M219.42,125.65h-1.85v-.91h0a2.11,2.11,0,0,1-1.83,1.06c-1.39,0-2.09-.85-2.09-2.53v-3.62h1.85v3.46c0,.84.33,1.27,1,1.27a1,1,0,0,0,.8-.35,1.41,1.41,0,0,0,.3-1v-3.43h1.85Z" fill="#1e1e1e"/>
      <path d="M226.74,125.65h-1.85v-3.33c0-.93-.33-1.4-1-1.4a1,1,0,0,0-.79.37,1.46,1.46,0,0,0-.31.94v3.42h-1.85v-6h1.85v.95h0a2.12,2.12,0,0,1,1.92-1.1c1.33,0,2,.83,2,2.48Z" fill="#1e1e1e"/>
      <path d="M234,125.65h-1.85v-3.33c0-.93-.33-1.4-1-1.4a1,1,0,0,0-.79.37,1.46,1.46,0,0,0-.31.94v3.42H228.2v-6h1.85v.95h0a2.12,2.12,0,0,1,1.92-1.1c1.33,0,2,.83,2,2.48Z" fill="#1e1e1e"/>
      <path d="M240.88,123.18H237c.06.87.61,1.3,1.64,1.3a3.23,3.23,0,0,0,1.74-.46v1.33a4.5,4.5,0,0,1-2.16.45,3,3,0,0,1-2.25-.81,3,3,0,0,1-.81-2.25,3.19,3.19,0,0,1,.87-2.36,2.87,2.87,0,0,1,2.13-.88,2.6,2.6,0,0,1,2,.78,3,3,0,0,1,.72,2.12ZM239.16,122c0-.86-.34-1.29-1-1.29a1,1,0,0,0-.77.37,1.6,1.6,0,0,0-.39.92Z" fill="#1e1e1e"/>
      <path d="M243.91,125.65h-1.86v-8.88h1.86Z" fill="#1e1e1e"/>
    </g>
    <g>
      <path d="M38.07,22.77H35.64v7.52h-1V22.77H32.24v-.89h5.83Z" fill="#1e1e1e"/>
      <path d="M44.11,30.29h-1v-.95h0a2,2,0,0,1-1.85,1.09c-1.43,0-2.14-.85-2.14-2.56V24.29h.95v3.43c0,1.27.49,1.9,1.45,1.9a1.46,1.46,0,0,0,1.16-.52,2,2,0,0,0,.46-1.36V24.29h1Z" fill="#1e1e1e"/>
      <path d="M51,30.29h-1V26.86c0-1.27-.47-1.91-1.4-1.91a1.51,1.51,0,0,0-1.19.55A2,2,0,0,0,47,26.86v3.43h-1v-6h1v1h0a2.15,2.15,0,0,1,2-1.13,1.85,1.85,0,0,1,1.51.63A2.9,2.9,0,0,1,51,26.62Z" fill="#1e1e1e"/>
      <path d="M57.82,30.29h-1V26.86c0-1.27-.47-1.91-1.4-1.91a1.51,1.51,0,0,0-1.19.55,2,2,0,0,0-.47,1.36v3.43h-1v-6h1v1h0a2.15,2.15,0,0,1,2-1.13,1.85,1.85,0,0,1,1.51.63,2.9,2.9,0,0,1,.52,1.84Z" fill="#1e1e1e"/>
      <path d="M64.45,27.53H60.21a2.27,2.27,0,0,0,.54,1.54,1.85,1.85,0,0,0,1.42.55A2.89,2.89,0,0,0,64,29v.9a3.41,3.41,0,0,1-2.09.58,2.58,2.58,0,0,1-2-.82,3.37,3.37,0,0,1-.72-2.3A3.28,3.28,0,0,1,60,25a2.54,2.54,0,0,1,2-.88,2.26,2.26,0,0,1,1.83.76A3.17,3.17,0,0,1,64.45,27Zm-1-.82a2,2,0,0,0-.4-1.29A1.38,1.38,0,0,0,62,25a1.58,1.58,0,0,0-1.16.49,2.21,2.21,0,0,0-.58,1.27Z" fill="#1e1e1e"/>
      <path d="M66.86,30.29h-1V21.4h1Z" fill="#1e1e1e"/>
      <path d="M74.62,32.2h-.86a7.52,7.52,0,0,1-1.82-5.12,7.8,7.8,0,0,1,1.82-5.2h.87a7.91,7.91,0,0,0-1.84,5.19A7.75,7.75,0,0,0,74.62,32.2Z" fill="#1e1e1e"/>
      <path d="M75.45,30V28.79a2.83,2.83,0,0,0,.48.31,3,3,0,0,0,.59.24,6.23,6.23,0,0,0,.62.15,3.88,3.88,0,0,0,.57.05,2.29,2.29,0,0,0,1.36-.33,1.15,1.15,0,0,0,.45-1,1.16,1.16,0,0,0-.15-.6,1.79,1.79,0,0,0-.42-.46,3.91,3.91,0,0,0-.62-.39l-.78-.41a9.13,9.13,0,0,1-.82-.45,3.81,3.81,0,0,1-.66-.5,1.84,1.84,0,0,1-.44-.63,1.86,1.86,0,0,1-.16-.81,1.88,1.88,0,0,1,.25-1,2.21,2.21,0,0,1,.66-.7,2.86,2.86,0,0,1,.94-.41,4.17,4.17,0,0,1,1.06-.14,4,4,0,0,1,1.81.3v1.11a3.29,3.29,0,0,0-1.91-.52,3.58,3.58,0,0,0-.64.07,1.93,1.93,0,0,0-.57.22,1.18,1.18,0,0,0-.41.39,1,1,0,0,0-.16.59,1.25,1.25,0,0,0,.12.56,1.38,1.38,0,0,0,.35.42,3.76,3.76,0,0,0,.57.38l.78.4c.3.15.59.3.86.47a3.82,3.82,0,0,1,.7.54,2.36,2.36,0,0,1,.49.66,1.89,1.89,0,0,1,.18.84,2,2,0,0,1-.25,1,2.07,2.07,0,0,1-.65.7,2.94,2.94,0,0,1-1,.39,5.09,5.09,0,0,1-1.13.12,3.2,3.2,0,0,1-.49,0l-.6-.09a4.91,4.91,0,0,1-.58-.15A2,2,0,0,1,75.45,30Z" fill="#1e1e1e"/>
      <path d="M86.94,30.29H86v-.95h0a2,2,0,0,1-1.85,1.09c-1.43,0-2.15-.85-2.15-2.56V24.29h1v3.43c0,1.27.48,1.9,1.45,1.9a1.46,1.46,0,0,0,1.16-.52A2,2,0,0,0,86,27.74V24.29h1Z" fill="#1e1e1e"/>
      <path d="M89.87,29.42h0v.87h-1V21.4h1v3.94h0a2.25,2.25,0,0,1,2.07-1.19,2.18,2.18,0,0,1,1.81.8,3.31,3.31,0,0,1,.65,2.16,3.71,3.71,0,0,1-.73,2.41,2.42,2.42,0,0,1-2,.91A2,2,0,0,1,89.87,29.42Zm0-2.42v.84a1.8,1.8,0,0,0,.48,1.26A1.72,1.72,0,0,0,92.92,29a3,3,0,0,0,.5-1.86A2.43,2.43,0,0,0,93,25.52,1.54,1.54,0,0,0,91.7,25a1.67,1.67,0,0,0-1.34.59A2.13,2.13,0,0,0,89.85,27Z" fill="#1e1e1e"/>
      <path d="M100.92,30.29h-1V26.86c0-1.27-.47-1.91-1.4-1.91a1.53,1.53,0,0,0-1.19.55,2,2,0,0,0-.47,1.36v3.43h-1v-6h1v1h0a2.16,2.16,0,0,1,2-1.13,1.85,1.85,0,0,1,1.51.63,2.84,2.84,0,0,1,.52,1.84Z" fill="#1e1e1e"/>
      <path d="M107.55,27.53h-4.23a2.18,2.18,0,0,0,.54,1.54,1.82,1.82,0,0,0,1.41.55,2.94,2.94,0,0,0,1.87-.67v.9a3.46,3.46,0,0,1-2.1.58,2.54,2.54,0,0,1-2-.82,3.33,3.33,0,0,1-.73-2.3,3.28,3.28,0,0,1,.79-2.28,2.55,2.55,0,0,1,2-.88,2.25,2.25,0,0,1,1.82.76,3.17,3.17,0,0,1,.64,2.11Zm-1-.82a2,2,0,0,0-.4-1.29,1.38,1.38,0,0,0-1.1-.47,1.58,1.58,0,0,0-1.16.49,2.21,2.21,0,0,0-.58,1.27Z" fill="#1e1e1e"/>
      <path d="M111.79,30.23a1.94,1.94,0,0,1-.9.19c-1,0-1.57-.59-1.57-1.76V25.11h-1v-.82h1V22.82l1-.31v1.78h1.51v.82h-1.51v3.38a1.45,1.45,0,0,0,.2.86.84.84,0,0,0,.68.26,1.05,1.05,0,0,0,.63-.2Z" fill="#1e1e1e"/>
      <path d="M113.1,32.2h-.86a7.75,7.75,0,0,0,1.83-5.13,8,8,0,0,0-1.84-5.19h.87a7.8,7.8,0,0,1,1.82,5.2A7.52,7.52,0,0,1,113.1,32.2Z" fill="#1e1e1e"/>
      <path d="M42.75,43.49h-1V36.23a1.74,1.74,0,0,1-.33.25,5.06,5.06,0,0,1-.48.29,5.85,5.85,0,0,1-.56.26,3.56,3.56,0,0,1-.58.19v-1a5.58,5.58,0,0,0,.68-.24l.69-.33a5.88,5.88,0,0,0,.65-.39,4.87,4.87,0,0,0,.53-.39h.36Z" fill="#1e1e1e"/>
      <path d="M51,39.25a8.09,8.09,0,0,1-.19,1.87,4.18,4.18,0,0,1-.55,1.37,2.34,2.34,0,0,1-2.07,1.14A2.2,2.2,0,0,1,47,43.35a2.32,2.32,0,0,1-.84-.81,4,4,0,0,1-.51-1.31,7.84,7.84,0,0,1-.18-1.77,8.71,8.71,0,0,1,.19-2,4.48,4.48,0,0,1,.54-1.42,2.44,2.44,0,0,1,.89-.86,2.49,2.49,0,0,1,1.21-.29Q51,34.94,51,39.25Zm-1,.09c0-2.39-.57-3.58-1.71-3.58S46.47,37,46.47,39.41c0,2.27.58,3.4,1.76,3.4S50,41.66,50,39.34Z" fill="#1e1e1e"/>
      <path d="M52.75,43.62a.63.63,0,0,1-.46-.2A.66.66,0,0,1,52.1,43a.68.68,0,0,1,.19-.47.62.62,0,0,1,.46-.19.63.63,0,0,1,.47.19.64.64,0,0,1,.19.47.62.62,0,0,1-.19.46A.63.63,0,0,1,52.75,43.62Z" fill="#1e1e1e"/>
      <path d="M58.29,43.49h-1V36.23a2.14,2.14,0,0,1-.33.25,5.06,5.06,0,0,1-.48.29A5.85,5.85,0,0,1,56,37a3.56,3.56,0,0,1-.58.19v-1a5.46,5.46,0,0,0,.67-.24c.24-.1.47-.21.7-.33a5.88,5.88,0,0,0,.65-.39,4.87,4.87,0,0,0,.53-.39h.36Z" fill="#1e1e1e"/>
      <path d="M61.82,43.62a.63.63,0,0,1-.46-.2.66.66,0,0,1-.19-.46.68.68,0,0,1,.19-.47.62.62,0,0,1,.46-.19.63.63,0,0,1,.47.19.64.64,0,0,1,.19.47.62.62,0,0,1-.19.46A.63.63,0,0,1,61.82,43.62Z" fill="#1e1e1e"/>
      <path d="M67.64,37.29a1.76,1.76,0,0,0-.12-.68,1.25,1.25,0,0,0-.33-.47,1.28,1.28,0,0,0-.49-.29,2,2,0,0,0-.61-.09,2.08,2.08,0,0,0-.55.07,3.38,3.38,0,0,0-.52.22,2.94,2.94,0,0,0-.49.32,3.47,3.47,0,0,0-.45.41v-1a3,3,0,0,1,.91-.6,3.14,3.14,0,0,1,1.22-.21,3,3,0,0,1,1,.15,2.3,2.3,0,0,1,.76.44,2.19,2.19,0,0,1,.51.71,2.43,2.43,0,0,1,.18,1,3.58,3.58,0,0,1-.11.9,3.08,3.08,0,0,1-.35.76,3.33,3.33,0,0,1-.58.68,7.54,7.54,0,0,1-.83.67l-1,.72a4.82,4.82,0,0,0-.6.56,1.75,1.75,0,0,0-.32.52,1.91,1.91,0,0,0-.09.61h4.18v.86H63.76v-.42a3.82,3.82,0,0,1,.11-1,2.59,2.59,0,0,1,.39-.78A4.83,4.83,0,0,1,65,40.6c.29-.24.64-.52,1.07-.83a6.69,6.69,0,0,0,.76-.63,3,3,0,0,0,.5-.59,2.16,2.16,0,0,0,.26-.61A2.69,2.69,0,0,0,67.64,37.29Z" fill="#1e1e1e"/>
      <path d="M75.26,40.92A2.82,2.82,0,0,1,75.05,42a2.38,2.38,0,0,1-.6.86,2.65,2.65,0,0,1-.94.55,3.59,3.59,0,0,1-1.22.19,3.33,3.33,0,0,1-1.74-.35v-1a3.16,3.16,0,0,0,1.75.55,2.35,2.35,0,0,0,.82-.13,1.89,1.89,0,0,0,.63-.38,1.56,1.56,0,0,0,.39-.58,2,2,0,0,0,.14-.74,1.59,1.59,0,0,0-.55-1.29,2.42,2.42,0,0,0-1.6-.46h-.36l-.37,0-.37,0-.32,0L71,35.08h3.89V36H71.82l-.17,2.47.4,0h.38a4,4,0,0,1,1.19.17,2.55,2.55,0,0,1,.9.51,2,2,0,0,1,.55.79A2.78,2.78,0,0,1,75.26,40.92Z" fill="#1e1e1e"/>
      <path d="M81,35.08v5.55h1.07v.88H81v2h-1v-2h-4v-.83c.36-.41.74-.86,1.11-1.33s.73-1,1.08-1.43.65-1,.94-1.45A11.14,11.14,0,0,0,80,35.08Zm-3.82,5.55h2.87V36.52c-.3.51-.57,1-.84,1.37s-.51.77-.74,1.1-.46.62-.68.89Z" fill="#1e1e1e"/>
      <path d="M83.83,43.62a.63.63,0,0,1-.46-.2.62.62,0,0,1-.19-.46.64.64,0,0,1,.19-.47.62.62,0,0,1,.46-.19.65.65,0,0,1,.66.66.62.62,0,0,1-.19.46A.65.65,0,0,1,83.83,43.62Z" fill="#1e1e1e"/>
      <path d="M91.1,39.25a8.09,8.09,0,0,1-.19,1.87,4.41,4.41,0,0,1-.55,1.37,2.34,2.34,0,0,1-2.08,1.14,2.19,2.19,0,0,1-1.12-.28,2.32,2.32,0,0,1-.84-.81,3.82,3.82,0,0,1-.51-1.31,7.84,7.84,0,0,1-.18-1.77,9.38,9.38,0,0,1,.18-2,4.73,4.73,0,0,1,.55-1.42,2.41,2.41,0,0,1,.88-.86,2.56,2.56,0,0,1,1.22-.29Q91.1,34.94,91.1,39.25Zm-1,.09c0-2.39-.57-3.58-1.71-3.58s-1.8,1.21-1.8,3.65c0,2.27.59,3.4,1.77,3.4S90.12,41.66,90.12,39.34Z" fill="#1e1e1e"/>
      <path d="M96.36,35.08l-4,9.8h-.9l4-9.8Z" fill="#1e1e1e"/>
      <path d="M100.79,37.29a1.76,1.76,0,0,0-.12-.68,1.31,1.31,0,0,0-.81-.76,2,2,0,0,0-.61-.09,2,2,0,0,0-.55.07,3.49,3.49,0,0,0-.53.22,2.94,2.94,0,0,0-.49.32,2.85,2.85,0,0,0-.44.41v-1a3,3,0,0,1,.9-.6,3.17,3.17,0,0,1,1.22-.21,2.93,2.93,0,0,1,1,.15,2.2,2.2,0,0,1,.76.44,2.05,2.05,0,0,1,.51.71,2.43,2.43,0,0,1,.18,1,3.58,3.58,0,0,1-.11.9,2.75,2.75,0,0,1-.35.76,3.33,3.33,0,0,1-.58.68,7.54,7.54,0,0,1-.83.67c-.39.28-.72.52-1,.72a4.34,4.34,0,0,0-.61.56A1.75,1.75,0,0,0,98,42a1.91,1.91,0,0,0-.09.61h4.18v.86H96.91v-.42a3.38,3.38,0,0,1,.12-1,2.35,2.35,0,0,1,.38-.78,4.83,4.83,0,0,1,.71-.74c.29-.24.65-.52,1.07-.83a6.69,6.69,0,0,0,.76-.63,3,3,0,0,0,.5-.59,2.16,2.16,0,0,0,.26-.61A2.27,2.27,0,0,0,100.79,37.29Z" fill="#1e1e1e"/>
      <path d="M107.72,35.08v5.55h1.08v.88h-1.08v2h-1v-2h-4v-.83c.37-.41.74-.86,1.11-1.33s.74-1,1.08-1.43.66-1,.95-1.45a12.5,12.5,0,0,0,.73-1.39Zm-3.82,5.55h2.87V36.52c-.29.51-.57,1-.83,1.37s-.51.77-.75,1.1-.46.62-.68.89Z" fill="#1e1e1e"/>
    </g>
    <g>
      <path d="M31.85,150.29h-1v-8.41h1Z" fill="#1e1e1e"/>
      <path d="M38.91,150.29H38v-3.43c0-1.27-.46-1.91-1.39-1.91a1.55,1.55,0,0,0-1.2.55,2,2,0,0,0-.47,1.36v3.43h-1v-6h1v1h0a2.15,2.15,0,0,1,2-1.13,1.84,1.84,0,0,1,1.5.63,2.84,2.84,0,0,1,.52,1.84Z" fill="#1e1e1e"/>
      <path d="M43.51,150.23a1.94,1.94,0,0,1-.9.19c-1,0-1.58-.59-1.58-1.76v-3.55H40v-.82h1v-1.47l1-.31v1.78h1.52v.82H42v3.38a1.37,1.37,0,0,0,.21.86.83.83,0,0,0,.68.26,1.05,1.05,0,0,0,.63-.2Z" fill="#1e1e1e"/>
      <path d="M49.61,147.53H45.38a2.22,2.22,0,0,0,.53,1.54,1.85,1.85,0,0,0,1.42.55A2.94,2.94,0,0,0,49.2,149v.9a3.46,3.46,0,0,1-2.1.58,2.54,2.54,0,0,1-2-.82,3.33,3.33,0,0,1-.73-2.3,3.28,3.28,0,0,1,.79-2.28,2.55,2.55,0,0,1,2-.88,2.25,2.25,0,0,1,1.82.76,3.17,3.17,0,0,1,.64,2.11Zm-1-.82a2,2,0,0,0-.4-1.29,1.38,1.38,0,0,0-1.1-.47,1.58,1.58,0,0,0-1.16.49,2.21,2.21,0,0,0-.58,1.27Z" fill="#1e1e1e"/>
      <path d="M54.19,145.26a1.14,1.14,0,0,0-.72-.19,1.21,1.21,0,0,0-1,.58,2.62,2.62,0,0,0-.41,1.58v3.06h-1v-6h1v1.23h0a2.09,2.09,0,0,1,.63-1,1.4,1.4,0,0,1,.94-.36,1.65,1.65,0,0,1,.57.08Z" fill="#1e1e1e"/>
      <path d="M60.22,150.29h-1v-3.43c0-1.27-.47-1.91-1.4-1.91a1.51,1.51,0,0,0-1.19.55,2,2,0,0,0-.47,1.36v3.43h-1v-6h1v1h0a2.15,2.15,0,0,1,2-1.13,1.85,1.85,0,0,1,1.51.63,2.9,2.9,0,0,1,.52,1.84Z" fill="#1e1e1e"/>
      <path d="M66.32,150.29h-1v-.94h0a2,2,0,0,1-1.85,1.08,2,2,0,0,1-1.4-.48,1.62,1.62,0,0,1-.51-1.26q0-1.68,2-1.95l1.8-.26q0-1.53-1.23-1.53a3,3,0,0,0-2,.74v-1a3.68,3.68,0,0,1,2-.56c1.41,0,2.11.74,2.11,2.23Zm-1-3-1.45.2a2.25,2.25,0,0,0-1,.33,1,1,0,0,0-.34.84.91.91,0,0,0,.31.72,1.2,1.2,0,0,0,.84.28,1.56,1.56,0,0,0,1.18-.5,1.8,1.8,0,0,0,.46-1.27Z" fill="#1e1e1e"/>
      <path d="M69.09,150.29h-1V141.4h1Z" fill="#1e1e1e"/>
      <path d="M76.85,152.2H76a7.52,7.52,0,0,1-1.82-5.12,7.8,7.8,0,0,1,1.82-5.2h.87A7.91,7.91,0,0,0,75,147.07,7.75,7.75,0,0,0,76.85,152.2Z" fill="#1e1e1e"/>
      <path d="M77.68,150v-1.16a2.83,2.83,0,0,0,.48.31,3,3,0,0,0,.59.24,6.23,6.23,0,0,0,.62.15,3.88,3.88,0,0,0,.57,0,2.29,2.29,0,0,0,1.36-.33,1.14,1.14,0,0,0,.44-1,1.27,1.27,0,0,0-.14-.6,1.79,1.79,0,0,0-.42-.46,3.91,3.91,0,0,0-.62-.39l-.78-.41a9.13,9.13,0,0,1-.82-.45,3.81,3.81,0,0,1-.66-.5,1.84,1.84,0,0,1-.44-.63,1.86,1.86,0,0,1-.16-.81,1.88,1.88,0,0,1,.25-1,2.21,2.21,0,0,1,.66-.7,2.8,2.8,0,0,1,.93-.41,4.3,4.3,0,0,1,1.07-.14,4,4,0,0,1,1.81.3v1.11a3.29,3.29,0,0,0-1.91-.52,3.48,3.48,0,0,0-.64.07,1.83,1.83,0,0,0-.57.22,1.18,1.18,0,0,0-.41.39,1,1,0,0,0-.16.59,1.25,1.25,0,0,0,.12.56,1.38,1.38,0,0,0,.35.42,3.76,3.76,0,0,0,.57.38l.78.4a8.54,8.54,0,0,1,.85.47,3.59,3.59,0,0,1,.71.54,2.36,2.36,0,0,1,.49.66,1.89,1.89,0,0,1,.18.84,2.15,2.15,0,0,1-.25,1.05,2.07,2.07,0,0,1-.65.7,2.94,2.94,0,0,1-1,.39,5.09,5.09,0,0,1-1.13.12,3.1,3.1,0,0,1-.49,0q-.3,0-.6-.09a4.45,4.45,0,0,1-.58-.15A2,2,0,0,1,77.68,150Z" fill="#1e1e1e"/>
      <path d="M89.17,150.29h-1v-.95h0a2,2,0,0,1-1.85,1.09c-1.43,0-2.15-.85-2.15-2.56v-3.58h1v3.43c0,1.27.48,1.9,1.45,1.9a1.46,1.46,0,0,0,1.16-.52,2,2,0,0,0,.45-1.36v-3.45h1Z" fill="#1e1e1e"/>
      <path d="M92.1,149.42h0v.87h-1V141.4h1v3.94h0a2.25,2.25,0,0,1,2.07-1.19A2.2,2.2,0,0,1,96,145a3.31,3.31,0,0,1,.65,2.16,3.71,3.71,0,0,1-.73,2.41,2.43,2.43,0,0,1-2,.91A2,2,0,0,1,92.1,149.42Zm0-2.42v.84a1.81,1.81,0,0,0,.49,1.26,1.72,1.72,0,0,0,2.59-.15,3,3,0,0,0,.5-1.86,2.49,2.49,0,0,0-.46-1.57,1.54,1.54,0,0,0-1.26-.57,1.71,1.71,0,0,0-1.35.59A2.13,2.13,0,0,0,92.07,147Z" fill="#1e1e1e"/>
      <path d="M103.15,150.29h-1v-3.43c0-1.27-.47-1.91-1.4-1.91a1.53,1.53,0,0,0-1.19.55,2,2,0,0,0-.47,1.36v3.43h-1v-6h1v1h0a2.16,2.16,0,0,1,2-1.13,1.85,1.85,0,0,1,1.51.63,2.84,2.84,0,0,1,.52,1.84Z" fill="#1e1e1e"/>
      <path d="M109.78,147.53h-4.23a2.22,2.22,0,0,0,.53,1.54,1.85,1.85,0,0,0,1.42.55,2.94,2.94,0,0,0,1.87-.67v.9a3.46,3.46,0,0,1-2.1.58,2.54,2.54,0,0,1-2-.82,3.33,3.33,0,0,1-.73-2.3,3.28,3.28,0,0,1,.79-2.28,2.55,2.55,0,0,1,2-.88,2.25,2.25,0,0,1,1.82.76,3.17,3.17,0,0,1,.64,2.11Zm-1-.82a2,2,0,0,0-.4-1.29,1.38,1.38,0,0,0-1.1-.47,1.58,1.58,0,0,0-1.16.49,2.21,2.21,0,0,0-.58,1.27Z" fill="#1e1e1e"/>
      <path d="M114,150.23a1.94,1.94,0,0,1-.9.19c-1.05,0-1.57-.59-1.57-1.76v-3.55h-1v-.82h1v-1.47l1-.31v1.78H114v.82h-1.51v3.38a1.38,1.38,0,0,0,.2.86.83.83,0,0,0,.68.26,1.05,1.05,0,0,0,.63-.2Z" fill="#1e1e1e"/>
      <path d="M115.32,152.2h-.85a7.75,7.75,0,0,0,1.83-5.13,8,8,0,0,0-1.84-5.19h.86a7.75,7.75,0,0,1,1.83,5.2A7.47,7.47,0,0,1,115.32,152.2Z" fill="#1e1e1e"/>
      <path d="M49.22,163.49h-1v-7.26a2.14,2.14,0,0,1-.33.25,5.06,5.06,0,0,1-.48.29c-.18.09-.36.18-.56.26a3.56,3.56,0,0,1-.58.19v-1A5.46,5.46,0,0,0,47,156c.24-.1.47-.21.7-.33a5.88,5.88,0,0,0,.65-.39,4.87,4.87,0,0,0,.53-.39h.36Z" fill="#1e1e1e"/>
      <path d="M57.42,159.25a8.09,8.09,0,0,1-.19,1.87,4.18,4.18,0,0,1-.55,1.37,2.34,2.34,0,0,1-2.08,1.14,2.19,2.19,0,0,1-1.12-.28,2.32,2.32,0,0,1-.84-.81,3.82,3.82,0,0,1-.51-1.31,7.84,7.84,0,0,1-.18-1.77,9.38,9.38,0,0,1,.18-2,4.73,4.73,0,0,1,.55-1.42,2.41,2.41,0,0,1,.88-.86,2.56,2.56,0,0,1,1.22-.29Q57.42,154.94,57.42,159.25Zm-1,.09c0-2.39-.57-3.58-1.71-3.58s-1.8,1.21-1.8,3.65c0,2.27.59,3.4,1.77,3.4S56.44,161.66,56.44,159.34Z" fill="#1e1e1e"/>
      <path d="M59.22,163.62a.63.63,0,0,1-.46-.2.62.62,0,0,1-.19-.46.64.64,0,0,1,.19-.47.62.62,0,0,1,.46-.19.65.65,0,0,1,.66.66.62.62,0,0,1-.19.46A.65.65,0,0,1,59.22,163.62Z" fill="#1e1e1e"/>
      <path d="M64.76,163.49h-1v-7.26a2.79,2.79,0,0,1-.33.25,5.06,5.06,0,0,1-.48.29c-.18.09-.36.18-.56.26a3.56,3.56,0,0,1-.58.19v-1a5.46,5.46,0,0,0,.67-.24c.24-.1.47-.21.7-.33a7,7,0,0,0,.65-.39,4.87,4.87,0,0,0,.53-.39h.36Z" fill="#1e1e1e"/>
      <path d="M68.29,163.62a.63.63,0,0,1-.46-.2.62.62,0,0,1-.19-.46.64.64,0,0,1,.19-.47.62.62,0,0,1,.46-.19.63.63,0,0,1,.47.19A.64.64,0,0,1,69,163a.62.62,0,0,1-.19.46A.63.63,0,0,1,68.29,163.62Z" fill="#1e1e1e"/>
      <path d="M75.56,159.25a8.09,8.09,0,0,1-.19,1.87,4.18,4.18,0,0,1-.55,1.37,2.34,2.34,0,0,1-2.08,1.14,2.19,2.19,0,0,1-1.12-.28,2.32,2.32,0,0,1-.84-.81,4,4,0,0,1-.51-1.31,7.84,7.84,0,0,1-.18-1.77,9.38,9.38,0,0,1,.18-2,4.73,4.73,0,0,1,.55-1.42,2.49,2.49,0,0,1,.88-.86,2.56,2.56,0,0,1,1.22-.29Q75.56,154.94,75.56,159.25Zm-1,.09c0-2.39-.57-3.58-1.71-3.58s-1.8,1.21-1.8,3.65c0,2.27.59,3.4,1.77,3.4S74.58,161.66,74.58,159.34Z" fill="#1e1e1e"/>
      <path d="M77.36,163.62a.63.63,0,0,1-.46-.2.62.62,0,0,1-.19-.46.64.64,0,0,1,.19-.47.62.62,0,0,1,.46-.19.63.63,0,0,1,.47.19A.64.64,0,0,1,78,163a.62.62,0,0,1-.19.46A.63.63,0,0,1,77.36,163.62Z" fill="#1e1e1e"/>
      <path d="M84.63,159.25a8.09,8.09,0,0,1-.19,1.87,4.18,4.18,0,0,1-.55,1.37,2.34,2.34,0,0,1-2.07,1.14,2.2,2.2,0,0,1-1.13-.28,2.32,2.32,0,0,1-.84-.81,4,4,0,0,1-.51-1.31,7.84,7.84,0,0,1-.18-1.77,8.71,8.71,0,0,1,.19-2,4.48,4.48,0,0,1,.54-1.42,2.49,2.49,0,0,1,.88-.86,2.56,2.56,0,0,1,1.22-.29Q84.63,154.94,84.63,159.25Zm-1,.09c0-2.39-.57-3.58-1.71-3.58s-1.79,1.21-1.79,3.65c0,2.27.58,3.4,1.76,3.4S83.65,161.66,83.65,159.34Z" fill="#1e1e1e"/>
      <path d="M89.89,155.08l-4,9.8H85l4-9.8Z" fill="#1e1e1e"/>
      <path d="M94.32,157.29a1.76,1.76,0,0,0-.12-.68,1.23,1.23,0,0,0-.32-.47,1.36,1.36,0,0,0-.49-.29,2,2,0,0,0-.61-.09,2,2,0,0,0-.55.07,3.49,3.49,0,0,0-.53.22,2.94,2.94,0,0,0-.49.32,2.85,2.85,0,0,0-.44.41v-1a3,3,0,0,1,.9-.6,3.19,3.19,0,0,1,1.23-.21,2.91,2.91,0,0,1,.95.15,2.2,2.2,0,0,1,.76.44,1.93,1.93,0,0,1,.51.71,2.43,2.43,0,0,1,.18,1,3.17,3.17,0,0,1-.11.9,2.75,2.75,0,0,1-.35.76,3.33,3.33,0,0,1-.58.68,6.7,6.7,0,0,1-.83.67c-.39.28-.72.52-1,.72a4.34,4.34,0,0,0-.61.56,1.75,1.75,0,0,0-.32.52,1.91,1.91,0,0,0-.09.61h4.19v.86H90.44v-.42a3.38,3.38,0,0,1,.12-.95,2.56,2.56,0,0,1,.38-.78,4.83,4.83,0,0,1,.71-.74c.29-.24.65-.52,1.07-.83a6.69,6.69,0,0,0,.76-.63,3,3,0,0,0,.5-.59,2.53,2.53,0,0,0,.27-.61A2.7,2.7,0,0,0,94.32,157.29Z" fill="#1e1e1e"/>
      <path d="M101.25,155.08v5.55h1.08v.88h-1.08v2h-1v-2h-4v-.83c.37-.41.74-.86,1.12-1.33s.73-.95,1.07-1.43.66-1,.95-1.45a12.65,12.65,0,0,0,.74-1.39Zm-3.81,5.55h2.86v-4.11c-.29.51-.57,1-.83,1.37s-.51.77-.75,1.1-.46.62-.67.89S97.63,160.39,97.44,160.63Z" fill="#1e1e1e"/>
    </g>
    <g>
      <path d="M21.63,83l-3.11,8.4H17.43l-3-8.4h1.09l2.33,6.66a4.27,4.27,0,0,1,.17.74h0a4.13,4.13,0,0,1,.19-.75L20.57,83Z" fill="#1e1e1e"/>
      <path d="M29.61,91.37H28.4l-4.32-6.7a2.65,2.65,0,0,1-.27-.53h0a8.79,8.79,0,0,1,.05,1.16v6.07h-1V83h1.28l4.21,6.59c.17.27.29.46.34.56h0a8.65,8.65,0,0,1-.06-1.24V83h1Z" fill="#1e1e1e"/>
      <path d="M36.5,88.61H32.27a2.16,2.16,0,0,0,.54,1.54,1.82,1.82,0,0,0,1.42.55A2.93,2.93,0,0,0,36.09,90v.9a3.45,3.45,0,0,1-2.09.58,2.52,2.52,0,0,1-2-.82,3.81,3.81,0,0,1,.07-4.58,2.53,2.53,0,0,1,2-.88,2.25,2.25,0,0,1,1.82.76,3.17,3.17,0,0,1,.64,2.11Zm-1-.82a2,2,0,0,0-.4-1.29A1.36,1.36,0,0,0,34,86a1.55,1.55,0,0,0-1.15.48,2.19,2.19,0,0,0-.59,1.27Z" fill="#1e1e1e"/>
      <path d="M40.74,91.31a1.91,1.91,0,0,1-.9.19c-1.05,0-1.57-.59-1.57-1.76V86.19h-1v-.82h1V83.9l1-.31v1.78h1.51v.82H39.23v3.38a1.45,1.45,0,0,0,.2.86.84.84,0,0,0,.68.26,1,1,0,0,0,.63-.2Z" fill="#1e1e1e"/>
      <path d="M45.29,91.37h-1V84.11a2,2,0,0,1-.32.25l-.48.29c-.18.09-.37.18-.57.26a3.46,3.46,0,0,1-.57.19v-1a6.12,6.12,0,0,0,.67-.24c.23-.1.47-.21.7-.33a6.82,6.82,0,0,0,.64-.39,4.05,4.05,0,0,0,.53-.39h.36Z" fill="#1e1e1e"/>
      <path d="M51.56,88.4h-3.2v-.75h3.2Z" fill="#1e1e1e"/>
      <path d="M59.44,91.37H58.27L56.87,89a6,6,0,0,0-.38-.56,2.23,2.23,0,0,0-.37-.38,1.59,1.59,0,0,0-.41-.21,1.89,1.89,0,0,0-.5-.07H54.4v3.58h-1V83h2.51a3.58,3.58,0,0,1,1,.13,2.15,2.15,0,0,1,.81.42,2,2,0,0,1,.54.7A2.61,2.61,0,0,1,58.35,86a2.2,2.2,0,0,1-.37.65,2.34,2.34,0,0,1-.59.49,3.12,3.12,0,0,1-.77.32v0a1.88,1.88,0,0,1,.37.21,2,2,0,0,1,.29.29,2.75,2.75,0,0,1,.28.37l.31.48Zm-5-7.51v3h1.34a1.87,1.87,0,0,0,.68-.11,1.59,1.59,0,0,0,.55-.32,1.41,1.41,0,0,0,.35-.51,1.6,1.6,0,0,0,.13-.67A1.34,1.34,0,0,0,57,84.23a1.92,1.92,0,0,0-1.27-.37Z" fill="#1e1e1e"/>
      <path d="M66.62,91.37H65.45L64,89a6.05,6.05,0,0,0-.37-.56,2.69,2.69,0,0,0-.37-.38,1.77,1.77,0,0,0-.41-.21,2,2,0,0,0-.5-.07h-.81v3.58h-1V83h2.51a3.63,3.63,0,0,1,1,.13,2.23,2.23,0,0,1,.81.42,2,2,0,0,1,.54.7A2.61,2.61,0,0,1,65.53,86a2,2,0,0,1-.38.65,2.13,2.13,0,0,1-.58.49,3.12,3.12,0,0,1-.77.32v0a1.55,1.55,0,0,1,.36.21,1.64,1.64,0,0,1,.3.29,4,4,0,0,1,.28.37l.31.48Zm-5-7.51v3h1.34a1.9,1.9,0,0,0,.68-.11,1.46,1.46,0,0,0,.54-.32A1.43,1.43,0,0,0,64.5,86a1.6,1.6,0,0,0,.13-.67,1.35,1.35,0,0,0-.44-1.06,1.88,1.88,0,0,0-1.26-.37Z" fill="#1e1e1e"/>
      <path d="M74.28,91.37H73.19L72.3,89H68.74l-.84,2.36H66.8L70,83h1ZM72,88.13l-1.32-3.58a3.55,3.55,0,0,1-.13-.57h0a3.38,3.38,0,0,1-.14.57l-1.3,3.58Z" fill="#1e1e1e"/>
      <path d="M75.12,91V89.87a2.83,2.83,0,0,0,.48.31,3,3,0,0,0,.59.24,3.3,3.3,0,0,0,.62.15,2.87,2.87,0,0,0,.57.05,2.31,2.31,0,0,0,1.36-.33A1.28,1.28,0,0,0,79,88.72a1.58,1.58,0,0,0-.41-.46,3.91,3.91,0,0,0-.62-.39l-.78-.4c-.29-.15-.57-.3-.82-.46a3.81,3.81,0,0,1-.66-.5,1.9,1.9,0,0,1-.44-.62,1.94,1.94,0,0,1-.16-.82,1.9,1.9,0,0,1,.25-1,2.21,2.21,0,0,1,.66-.7A3,3,0,0,1,77,83a4.3,4.3,0,0,1,1.07-.14,4.08,4.08,0,0,1,1.81.3v1.11A3.29,3.29,0,0,0,78,83.72a3.47,3.47,0,0,0-.64.06,2,2,0,0,0-.58.22,1.38,1.38,0,0,0-.41.39,1.1,1.1,0,0,0-.15.59,1.22,1.22,0,0,0,.12.56,1.38,1.38,0,0,0,.35.43,4.7,4.7,0,0,0,.57.37l.78.4c.3.15.58.3.85.47a3.59,3.59,0,0,1,.71.54,2.36,2.36,0,0,1,.49.66,1.89,1.89,0,0,1,.18.84,2.15,2.15,0,0,1-.25,1,2,2,0,0,1-.65.7,2.94,2.94,0,0,1-1,.39,5.15,5.15,0,0,1-1.13.12l-.5,0-.59-.1a4.45,4.45,0,0,1-.58-.15A2,2,0,0,1,75.12,91Z" fill="#1e1e1e"/>
      <path d="M85,91.37h-1V84.11a2,2,0,0,1-.32.25l-.48.29c-.18.09-.37.18-.57.26a3.46,3.46,0,0,1-.57.19v-1a6.12,6.12,0,0,0,.67-.24c.23-.1.47-.21.69-.33a5.88,5.88,0,0,0,.65-.39,4.87,4.87,0,0,0,.53-.39H85Z" fill="#1e1e1e"/>
    </g>
    <g>
      <path d="M18.61,213.9l-3.12,8.4H14.41l-3.05-8.4h1.1l2.33,6.66a4.27,4.27,0,0,1,.17.74h0a3.44,3.44,0,0,1,.19-.75l2.38-6.65Z" fill="#1e1e1e"/>
      <path d="M26.53,222.3H25.32L21,215.6a2.65,2.65,0,0,1-.27-.53h0a9.48,9.48,0,0,1,0,1.16v6.07h-1v-8.4H21l4.2,6.59a5.88,5.88,0,0,1,.34.56h0a8.65,8.65,0,0,1-.06-1.24V213.9h1Z" fill="#1e1e1e"/>
      <path d="M33.38,219.54H29.14a2.3,2.3,0,0,0,.54,1.55,1.88,1.88,0,0,0,1.42.54A2.89,2.89,0,0,0,33,221v.91a3.47,3.47,0,0,1-2.09.57,2.53,2.53,0,0,1-2-.82,3.35,3.35,0,0,1-.72-2.3,3.28,3.28,0,0,1,.79-2.28,2.54,2.54,0,0,1,2-.88,2.26,2.26,0,0,1,1.83.76,3.18,3.18,0,0,1,.64,2.12Zm-1-.82a2,2,0,0,0-.41-1.29A1.35,1.35,0,0,0,30.9,217a1.57,1.57,0,0,0-1.16.48,2.24,2.24,0,0,0-.58,1.27Z" fill="#1e1e1e"/>
      <path d="M37.61,222.24a1.82,1.82,0,0,1-.9.19c-1.05,0-1.57-.59-1.57-1.76v-3.55h-1v-.82h1v-1.47l1-.31v1.78h1.51v.82H36.1v3.38a1.45,1.45,0,0,0,.2.86.84.84,0,0,0,.68.26,1,1,0,0,0,.63-.2Z" fill="#1e1e1e"/>
      <path d="M41.78,222.3h-1V215a2.14,2.14,0,0,1-.33.25,5.06,5.06,0,0,1-.48.29c-.18.09-.36.18-.56.26a5,5,0,0,1-.58.2v-1a5.34,5.34,0,0,0,.67-.23c.24-.1.47-.22.7-.34a5.88,5.88,0,0,0,.65-.39,4.87,4.87,0,0,0,.53-.39h.36Z" fill="#1e1e1e"/>
      <path d="M47.44,219.33h-3.2v-.75h3.2Z" fill="#1e1e1e"/>
      <path d="M53.76,216.3l-2.39,6h-.94l-2.28-6h1.06l1.52,4.36a4.27,4.27,0,0,1,.21.84h0a3.81,3.81,0,0,1,.18-.82l1.6-4.38Z" fill="#1e1e1e"/>
      <path d="M59.81,222.3h-1v-3.42c0-1.28-.46-1.91-1.39-1.91a1.5,1.5,0,0,0-1.19.54,2,2,0,0,0-.48,1.37v3.42h-1v-6h1v1h0a2.16,2.16,0,0,1,2-1.14,1.84,1.84,0,0,1,1.5.63,2.84,2.84,0,0,1,.52,1.84Z" fill="#1e1e1e"/>
      <path d="M66.43,219.54H62.19a2.3,2.3,0,0,0,.54,1.55,1.87,1.87,0,0,0,1.42.54A2.93,2.93,0,0,0,66,221v.91a3.5,3.5,0,0,1-2.09.57,2.52,2.52,0,0,1-2-.82,3.36,3.36,0,0,1-.73-2.3A3.29,3.29,0,0,1,62,217a2.53,2.53,0,0,1,2-.88,2.25,2.25,0,0,1,1.82.76,3.18,3.18,0,0,1,.65,2.12Zm-1-.82a2,2,0,0,0-.4-1.29,1.36,1.36,0,0,0-1.1-.46,1.55,1.55,0,0,0-1.15.48,2.25,2.25,0,0,0-.59,1.27Z" fill="#1e1e1e"/>
      <path d="M70.66,222.24a1.82,1.82,0,0,1-.9.19c-1.05,0-1.58-.59-1.58-1.76v-3.55h-1v-.82h1v-1.47l1-.31v1.78h1.52v.82H69.14v3.38a1.37,1.37,0,0,0,.21.86.83.83,0,0,0,.68.26,1.05,1.05,0,0,0,.63-.2Z" fill="#1e1e1e"/>
      <path d="M15.5,236.7h-1v-7.26a1.74,1.74,0,0,1-.33.25,5.06,5.06,0,0,1-.48.29,5.85,5.85,0,0,1-.56.26,5,5,0,0,1-.58.2v-1c.22-.06.44-.14.68-.23s.46-.22.69-.34a5.88,5.88,0,0,0,.65-.39,4.87,4.87,0,0,0,.53-.39h.36Z" fill="#1e1e1e"/>
      <path d="M23.19,232.46a8,8,0,0,1-.19,1.87,4.57,4.57,0,0,1-.55,1.38,2.57,2.57,0,0,1-.89.85,2.44,2.44,0,0,1-1.19.29,2.34,2.34,0,0,1-1.13-.28,2.38,2.38,0,0,1-.83-.81,4.22,4.22,0,0,1-.52-1.31,8,8,0,0,1-.17-1.78,9.38,9.38,0,0,1,.18-1.95,4.32,4.32,0,0,1,.54-1.41,2.36,2.36,0,0,1,2.11-1.15Q23.19,228.16,23.19,232.46Zm-1,.1c0-2.39-.56-3.59-1.7-3.59s-1.8,1.22-1.8,3.65c0,2.27.59,3.41,1.76,3.41S22.2,234.87,22.2,232.56Z" fill="#1e1e1e"/>
      <path d="M24.89,236.83a.63.63,0,0,1-.46-.2.64.64,0,0,1-.19-.46.66.66,0,0,1,.19-.46.59.59,0,0,1,.46-.2.6.6,0,0,1,.47.2.63.63,0,0,1,.2.46.61.61,0,0,1-.2.46A.63.63,0,0,1,24.89,236.83Z" fill="#1e1e1e"/>
      <path d="M29.37,236.7h-1v-7.26a2,2,0,0,1-.32.25l-.48.29c-.18.09-.37.18-.57.26a4.87,4.87,0,0,1-.57.2v-1c.21-.06.43-.14.67-.23s.47-.22.69-.34a5.88,5.88,0,0,0,.65-.39,4.05,4.05,0,0,0,.53-.39h.36Z" fill="#1e1e1e"/>
      <path d="M32.38,236.83a.61.61,0,0,1-.46-.2.6.6,0,0,1-.19-.46.62.62,0,0,1,.19-.46.63.63,0,0,1,.92,0,.63.63,0,0,1,.2.46.68.68,0,0,1-.66.66Z" fill="#1e1e1e"/>
      <path d="M39.6,232.46a8.62,8.62,0,0,1-.19,1.87,4.57,4.57,0,0,1-.55,1.38,2.57,2.57,0,0,1-.89.85,2.47,2.47,0,0,1-1.19.29,2.34,2.34,0,0,1-1.13-.28,2.38,2.38,0,0,1-.83-.81,4.22,4.22,0,0,1-.52-1.31,7.93,7.93,0,0,1-.18-1.78,9.33,9.33,0,0,1,.19-1.95,4.32,4.32,0,0,1,.54-1.41,2.43,2.43,0,0,1,.89-.86,2.41,2.41,0,0,1,1.21-.29Q39.6,228.16,39.6,232.46Zm-1,.1c0-2.39-.57-3.59-1.7-3.59s-1.8,1.22-1.8,3.65c0,2.27.59,3.41,1.76,3.41S38.61,234.87,38.61,232.56Z" fill="#1e1e1e"/>
      <path d="M41.3,236.83a.63.63,0,0,1-.46-.2.64.64,0,0,1-.19-.46.66.66,0,0,1,.19-.46.59.59,0,0,1,.46-.2.6.6,0,0,1,.47.2.62.62,0,0,1,.19.46.6.6,0,0,1-.19.46A.63.63,0,0,1,41.3,236.83Z" fill="#1e1e1e"/>
      <path d="M48.52,232.46a8,8,0,0,1-.19,1.87,4.33,4.33,0,0,1-.55,1.38,2.55,2.55,0,0,1-.88.85,2.48,2.48,0,0,1-1.2.29,2.3,2.3,0,0,1-1.12-.28,2.49,2.49,0,0,1-.84-.81,4.22,4.22,0,0,1-.51-1.31,7.93,7.93,0,0,1-.18-1.78,9.38,9.38,0,0,1,.18-1.95,4.56,4.56,0,0,1,.55-1.41,2.41,2.41,0,0,1,.88-.86,2.45,2.45,0,0,1,1.22-.29Q48.52,228.16,48.52,232.46Zm-1,.1c0-2.39-.57-3.59-1.71-3.59s-1.8,1.22-1.8,3.65c0,2.27.59,3.41,1.77,3.41S47.54,234.87,47.54,232.56Z" fill="#1e1e1e"/>
      <path d="M53.38,228.3l-4,9.79h-.89l4-9.79Z" fill="#1e1e1e"/>
      <path d="M57.25,236.7h-1v-7.26a2.14,2.14,0,0,1-.33.25,5.06,5.06,0,0,1-.48.29,5.85,5.85,0,0,1-.56.26,5,5,0,0,1-.58.2v-1c.21-.06.44-.14.67-.23s.47-.22.7-.34a5.88,5.88,0,0,0,.65-.39,4.87,4.87,0,0,0,.53-.39h.36Z" fill="#1e1e1e"/>
      <path d="M64.85,234a3,3,0,0,1-.2,1.13,2.52,2.52,0,0,1-.55.89,2.46,2.46,0,0,1-.83.59,2.67,2.67,0,0,1-1.06.21,2.33,2.33,0,0,1-1.13-.27,2.29,2.29,0,0,1-.85-.76,3.44,3.44,0,0,1-.53-1.21,6.55,6.55,0,0,1-.18-1.61,7.7,7.7,0,0,1,.24-2,4.88,4.88,0,0,1,.69-1.53,3.24,3.24,0,0,1,1.08-1,2.88,2.88,0,0,1,1.41-.34,3.42,3.42,0,0,1,1.4.24v.9A3,3,0,0,0,63,229a2,2,0,0,0-1,.25,2.47,2.47,0,0,0-.77.71,3.78,3.78,0,0,0-.5,1.11,6,6,0,0,0-.17,1.45h0a2,2,0,0,1,1.92-1.05,2.57,2.57,0,0,1,1,.19,2.17,2.17,0,0,1,.76.53,2.31,2.31,0,0,1,.48.82A2.93,2.93,0,0,1,64.85,234Zm-1,.13a2.81,2.81,0,0,0-.11-.8,1.76,1.76,0,0,0-.32-.59,1.37,1.37,0,0,0-.51-.38,1.75,1.75,0,0,0-.7-.13,1.65,1.65,0,0,0-.66.13,1.5,1.5,0,0,0-.52.37,1.53,1.53,0,0,0-.35.54,1.57,1.57,0,0,0-.13.65,2.64,2.64,0,0,0,.12.81,2.31,2.31,0,0,0,.35.66,1.49,1.49,0,0,0,.53.44,1.4,1.4,0,0,0,.68.17,1.56,1.56,0,0,0,.66-.14,1.39,1.39,0,0,0,.51-.39,1.62,1.62,0,0,0,.33-.59A2.23,2.23,0,0,0,63.87,234.16Z" fill="#1e1e1e"/>
    </g>
    <g>
      <path d="M315.55,22.77h-2.43v7.52h-1V22.77h-2.42v-.89h5.83Z" fill="#1e1e1e"/>
      <path d="M321.59,30.29h-1v-.95h0a2,2,0,0,1-1.86,1.09c-1.43,0-2.14-.85-2.14-2.56V24.29h1v3.43c0,1.27.48,1.9,1.45,1.9a1.47,1.47,0,0,0,1.16-.52,2,2,0,0,0,.45-1.36V24.29h1Z" fill="#1e1e1e"/>
      <path d="M328.51,30.29h-1V26.86c0-1.27-.47-1.91-1.4-1.91a1.53,1.53,0,0,0-1.19.55,2,2,0,0,0-.47,1.36v3.43h-1v-6h1v1h0a2.16,2.16,0,0,1,2-1.13,1.85,1.85,0,0,1,1.51.63,2.84,2.84,0,0,1,.52,1.84Z" fill="#1e1e1e"/>
      <path d="M335.3,30.29h-1V26.86c0-1.27-.46-1.91-1.39-1.91a1.55,1.55,0,0,0-1.2.55,2,2,0,0,0-.47,1.36v3.43h-1v-6h1v1h0a2.14,2.14,0,0,1,2-1.13,1.85,1.85,0,0,1,1.51.63,2.84,2.84,0,0,1,.52,1.84Z" fill="#1e1e1e"/>
      <path d="M341.93,27.53H337.7a2.18,2.18,0,0,0,.54,1.54,1.82,1.82,0,0,0,1.41.55,2.94,2.94,0,0,0,1.87-.67v.9a3.45,3.45,0,0,1-2.09.58,2.55,2.55,0,0,1-2-.82,3.33,3.33,0,0,1-.73-2.3,3.29,3.29,0,0,1,.8-2.28,2.51,2.51,0,0,1,2-.88,2.25,2.25,0,0,1,1.82.76,3.17,3.17,0,0,1,.64,2.11Zm-1-.82a2,2,0,0,0-.4-1.29,1.38,1.38,0,0,0-1.1-.47,1.56,1.56,0,0,0-1.15.49,2.16,2.16,0,0,0-.59,1.27Z" fill="#1e1e1e"/>
      <path d="M344.35,30.29h-1V21.4h1Z" fill="#1e1e1e"/>
      <path d="M352.1,32.2h-.86a7.51,7.51,0,0,1-1.81-5.12,7.79,7.79,0,0,1,1.81-5.2h.87a8,8,0,0,0-1.84,5.19A7.75,7.75,0,0,0,352.1,32.2Z" fill="#1e1e1e"/>
      <path d="M352.94,30V28.79a2.21,2.21,0,0,0,.48.31,3,3,0,0,0,.58.24c.21.06.41.11.62.15a4.13,4.13,0,0,0,.57.05,2.29,2.29,0,0,0,1.36-.33,1.15,1.15,0,0,0,.45-1,1.16,1.16,0,0,0-.15-.6,1.94,1.94,0,0,0-.41-.46,4.56,4.56,0,0,0-.63-.39l-.77-.41a7,7,0,0,1-.82-.45,3.54,3.54,0,0,1-.67-.5,2.16,2.16,0,0,1-.44-.63A1.86,1.86,0,0,1,353,24a1.88,1.88,0,0,1,.25-1,2.21,2.21,0,0,1,.66-.7,3,3,0,0,1,.94-.41,4.24,4.24,0,0,1,1.07-.14,4.08,4.08,0,0,1,1.81.3v1.11a3.31,3.31,0,0,0-1.91-.52,3.59,3.59,0,0,0-.65.07,2,2,0,0,0-.57.22,1.18,1.18,0,0,0-.41.39,1,1,0,0,0-.16.59,1.25,1.25,0,0,0,.12.56,1.28,1.28,0,0,0,.36.42,3,3,0,0,0,.57.38l.77.4c.3.15.59.3.86.47a3.9,3.9,0,0,1,.71.54,2.53,2.53,0,0,1,.48.66,1.89,1.89,0,0,1,.18.84,2.14,2.14,0,0,1-.24,1,2.1,2.1,0,0,1-.66.7,2.8,2.8,0,0,1-.95.39,5.24,5.24,0,0,1-1.14.12,3.2,3.2,0,0,1-.49,0q-.3,0-.6-.09a5.47,5.47,0,0,1-.58-.15A1.93,1.93,0,0,1,352.94,30Z" fill="#1e1e1e"/>
      <path d="M364.43,30.29h-1v-.95h0a2,2,0,0,1-1.85,1.09c-1.43,0-2.14-.85-2.14-2.56V24.29h.95v3.43c0,1.27.49,1.9,1.46,1.9A1.45,1.45,0,0,0,363,29.1a2,2,0,0,0,.46-1.36V24.29h1Z" fill="#1e1e1e"/>
      <path d="M367.35,29.42h0v.87h-1V21.4h1v3.94h0a2.27,2.27,0,0,1,2.08-1.19,2.16,2.16,0,0,1,1.8.8,3.32,3.32,0,0,1,.66,2.16,3.71,3.71,0,0,1-.74,2.41,2.4,2.4,0,0,1-2,.91A2,2,0,0,1,367.35,29.42Zm0-2.42v.84a1.8,1.8,0,0,0,.48,1.26,1.59,1.59,0,0,0,1.23.52,1.6,1.6,0,0,0,1.37-.67,3,3,0,0,0,.49-1.86,2.43,2.43,0,0,0-.46-1.57,1.53,1.53,0,0,0-1.25-.57,1.71,1.71,0,0,0-1.35.59A2.13,2.13,0,0,0,367.33,27Z" fill="#1e1e1e"/>
      <path d="M378.4,30.29h-1V26.86c0-1.27-.46-1.91-1.39-1.91a1.51,1.51,0,0,0-1.19.55,2,2,0,0,0-.48,1.36v3.43h-1v-6h1v1h0a2.15,2.15,0,0,1,2-1.13,1.84,1.84,0,0,1,1.5.63,2.84,2.84,0,0,1,.52,1.84Z" fill="#1e1e1e"/>
      <path d="M385,27.53H380.8a2.23,2.23,0,0,0,.54,1.54,1.82,1.82,0,0,0,1.42.55,2.93,2.93,0,0,0,1.86-.67v.9a3.43,3.43,0,0,1-2.09.58,2.55,2.55,0,0,1-2-.82,3.37,3.37,0,0,1-.73-2.3,3.29,3.29,0,0,1,.8-2.28,2.53,2.53,0,0,1,2-.88,2.25,2.25,0,0,1,1.82.76A3.17,3.17,0,0,1,385,27Zm-1-.82a2,2,0,0,0-.4-1.29,1.36,1.36,0,0,0-1.1-.47,1.56,1.56,0,0,0-1.15.49,2.22,2.22,0,0,0-.59,1.27Z" fill="#1e1e1e"/>
      <path d="M389.27,30.23a1.87,1.87,0,0,1-.89.19c-1.06,0-1.58-.59-1.58-1.76V25.11h-1v-.82h1V22.82l1-.31v1.78h1.51v.82h-1.51v3.38a1.37,1.37,0,0,0,.21.86.81.81,0,0,0,.68.26,1,1,0,0,0,.62-.2Z" fill="#1e1e1e"/>
      <path d="M390.58,32.2h-.86a7.75,7.75,0,0,0,1.83-5.13,7.91,7.91,0,0,0-1.84-5.19h.87a7.75,7.75,0,0,1,1.83,5.2A7.47,7.47,0,0,1,390.58,32.2Z" fill="#1e1e1e"/>
      <path d="M320.23,43.49h-1V36.23a2,2,0,0,1-.32.25,5.06,5.06,0,0,1-.48.29c-.18.09-.37.18-.57.26a3.18,3.18,0,0,1-.57.19v-1A6.12,6.12,0,0,0,318,36c.23-.1.47-.21.7-.33a6.82,6.82,0,0,0,.64-.39,4.05,4.05,0,0,0,.53-.39h.36Z" fill="#1e1e1e"/>
      <path d="M328.44,39.25a8.68,8.68,0,0,1-.19,1.87,4.41,4.41,0,0,1-.55,1.37,2.4,2.4,0,0,1-.89.85,2.36,2.36,0,0,1-1.19.29,2.22,2.22,0,0,1-2-1.09,4,4,0,0,1-.52-1.31,7.84,7.84,0,0,1-.18-1.77,9.33,9.33,0,0,1,.19-2,4.48,4.48,0,0,1,.54-1.42,2.36,2.36,0,0,1,2.1-1.15Q328.45,34.94,328.44,39.25Zm-1,.09c0-2.39-.57-3.58-1.7-3.58S324,37,324,39.41c0,2.27.59,3.4,1.76,3.4S327.45,41.66,327.45,39.34Z" fill="#1e1e1e"/>
      <path d="M330.24,43.62a.61.61,0,0,1-.46-.2.62.62,0,0,1-.19-.46.64.64,0,0,1,.19-.47.65.65,0,0,1,.92,0,.65.65,0,0,1,.2.47.63.63,0,0,1-.2.46A.61.61,0,0,1,330.24,43.62Z" fill="#1e1e1e"/>
      <path d="M336.05,37.29a1.76,1.76,0,0,0-.12-.68,1.31,1.31,0,0,0-.81-.76,2,2,0,0,0-.61-.09,2,2,0,0,0-.55.07,3.49,3.49,0,0,0-.53.22,2.94,2.94,0,0,0-.49.32,2.85,2.85,0,0,0-.44.41v-1a3,3,0,0,1,.9-.6,3.17,3.17,0,0,1,1.22-.21,2.93,2.93,0,0,1,1,.15,2.2,2.2,0,0,1,.76.44,1.93,1.93,0,0,1,.51.71,2.43,2.43,0,0,1,.18,1,3.58,3.58,0,0,1-.11.9,2.75,2.75,0,0,1-.35.76,3.33,3.33,0,0,1-.58.68,6.7,6.7,0,0,1-.83.67c-.39.28-.72.52-1,.72a4.34,4.34,0,0,0-.61.56,1.75,1.75,0,0,0-.32.52,1.91,1.91,0,0,0-.09.61h4.19v.86h-5.19v-.42a3.38,3.38,0,0,1,.12-1,2.35,2.35,0,0,1,.38-.78,4.83,4.83,0,0,1,.71-.74c.29-.24.65-.52,1.07-.83a6.69,6.69,0,0,0,.76-.63,3,3,0,0,0,.5-.59,2.53,2.53,0,0,0,.27-.61A2.7,2.7,0,0,0,336.05,37.29Z" fill="#1e1e1e"/>
      <path d="M339.31,43.62a.61.61,0,0,1-.46-.2.62.62,0,0,1-.19-.46.64.64,0,0,1,.19-.47.65.65,0,0,1,.92,0,.65.65,0,0,1,.2.47.63.63,0,0,1-.2.46A.61.61,0,0,1,339.31,43.62Z" fill="#1e1e1e"/>
      <path d="M345.12,37.29a1.76,1.76,0,0,0-.12-.68,1.23,1.23,0,0,0-.32-.47,1.36,1.36,0,0,0-.49-.29,2,2,0,0,0-.61-.09,2,2,0,0,0-.55.07,3.49,3.49,0,0,0-.53.22,2.94,2.94,0,0,0-.49.32,2.85,2.85,0,0,0-.44.41v-1a3,3,0,0,1,.9-.6,3.17,3.17,0,0,1,1.22-.21,2.93,2.93,0,0,1,1,.15,2.2,2.2,0,0,1,.76.44,1.93,1.93,0,0,1,.51.71,2.43,2.43,0,0,1,.18,1,3.17,3.17,0,0,1-.11.9,2.75,2.75,0,0,1-.35.76,3.33,3.33,0,0,1-.58.68,6.7,6.7,0,0,1-.83.67c-.39.28-.72.52-1,.72a4.34,4.34,0,0,0-.61.56,1.75,1.75,0,0,0-.32.52,1.91,1.91,0,0,0-.09.61h4.19v.86h-5.19v-.42a3.38,3.38,0,0,1,.12-1,2.56,2.56,0,0,1,.38-.78,4.83,4.83,0,0,1,.71-.74c.29-.24.65-.52,1.07-.83a6.69,6.69,0,0,0,.76-.63,3,3,0,0,0,.5-.59,2.53,2.53,0,0,0,.27-.61A2.7,2.7,0,0,0,345.12,37.29Z" fill="#1e1e1e"/>
      <path d="M352.75,40.92a2.82,2.82,0,0,1-.21,1.11,2.38,2.38,0,0,1-.6.86,2.74,2.74,0,0,1-.94.55,3.69,3.69,0,0,1-1.23.19,3.33,3.33,0,0,1-1.74-.35v-1a3.19,3.19,0,0,0,1.75.55,2.41,2.41,0,0,0,.83-.13,1.85,1.85,0,0,0,.62-.38,1.72,1.72,0,0,0,.4-.58,2,2,0,0,0,.13-.74,1.59,1.59,0,0,0-.55-1.29,2.4,2.4,0,0,0-1.6-.46h-.35l-.38,0-.37,0-.32,0,.29-4.22h3.88V36h-3.05l-.17,2.47.4,0h.37a4,4,0,0,1,1.2.17,2.5,2.5,0,0,1,.89.51,2.15,2.15,0,0,1,.56.79A3,3,0,0,1,352.75,40.92Z" fill="#1e1e1e"/>
      <path d="M358.52,35.08v5.55h1.08v.88h-1.08v2h-.95v-2h-3.95v-.83c.37-.41.74-.86,1.11-1.33s.74-1,1.08-1.43.66-1,.95-1.45a12.5,12.5,0,0,0,.73-1.39Zm-3.82,5.55h2.87V36.52c-.29.51-.57,1-.83,1.37s-.51.77-.75,1.1-.46.62-.68.89Z" fill="#1e1e1e"/>
      <path d="M361.31,43.62a.63.63,0,0,1-.46-.2.66.66,0,0,1-.19-.46.68.68,0,0,1,.19-.47.62.62,0,0,1,.46-.19.63.63,0,0,1,.47.19.65.65,0,0,1,.2.47.68.68,0,0,1-.67.66Z" fill="#1e1e1e"/>
      <path d="M368.59,39.25a8.68,8.68,0,0,1-.19,1.87,4.41,4.41,0,0,1-.56,1.37,2.34,2.34,0,0,1-2.07,1.14,2.23,2.23,0,0,1-1.13-.28,2.32,2.32,0,0,1-.84-.81,4.26,4.26,0,0,1-.51-1.31,7.84,7.84,0,0,1-.18-1.77,8.71,8.71,0,0,1,.19-2,4.48,4.48,0,0,1,.54-1.42,2.44,2.44,0,0,1,.89-.86,2.52,2.52,0,0,1,1.21-.29C367.7,34.94,368.59,36.38,368.59,39.25Zm-1,.09c0-2.39-.57-3.58-1.7-3.58s-1.8,1.21-1.8,3.65c0,2.27.59,3.4,1.76,3.4S367.6,41.66,367.6,39.34Z" fill="#1e1e1e"/>
      <path d="M373.84,35.08l-4,9.8h-.9l4-9.8Z" fill="#1e1e1e"/>
      <path d="M378.28,37.29a1.76,1.76,0,0,0-.12-.68,1.25,1.25,0,0,0-.33-.47,1.28,1.28,0,0,0-.49-.29,2,2,0,0,0-.61-.09,2,2,0,0,0-.55.07,3.49,3.49,0,0,0-.53.22,2.94,2.94,0,0,0-.49.32,3.39,3.39,0,0,0-.44.41v-1a2.88,2.88,0,0,1,.91-.6,3.14,3.14,0,0,1,1.22-.21,2.91,2.91,0,0,1,.95.15,2.11,2.11,0,0,1,.76.44,1.93,1.93,0,0,1,.51.71,2.43,2.43,0,0,1,.19,1,3.16,3.16,0,0,1-.12.9,2.73,2.73,0,0,1-.34.76,3.39,3.39,0,0,1-.59.68,7.38,7.38,0,0,1-.82.67c-.4.28-.72.52-1,.72a4.34,4.34,0,0,0-.61.56,2,2,0,0,0-.32.52,1.91,1.91,0,0,0-.09.61h4.19v.86h-5.19v-.42a3.38,3.38,0,0,1,.12-1,2.59,2.59,0,0,1,.39-.78,4.73,4.73,0,0,1,.7-.74c.29-.24.65-.52,1.07-.83a6.87,6.87,0,0,0,.77-.63,2.89,2.89,0,0,0,.49-.59,1.93,1.93,0,0,0,.27-.61A2.69,2.69,0,0,0,378.28,37.29Z" fill="#1e1e1e"/>
      <path d="M385.2,35.08v5.55h1.08v.88H385.2v2h-.95v-2H380.3v-.83c.37-.41.74-.86,1.12-1.33s.73-1,1.07-1.43.66-1,.95-1.45a12.65,12.65,0,0,0,.74-1.39Zm-3.81,5.55h2.86V36.52c-.29.51-.57,1-.83,1.37s-.51.77-.75,1.1-.46.62-.67.89S381.58,40.39,381.39,40.63Z" fill="#1e1e1e"/>
    </g>
    <g>
      <path d="M309.34,150.29h-1v-8.41h1Z" fill="#1e1e1e"/>
      <path d="M316.4,150.29h-1v-3.43c0-1.27-.47-1.91-1.4-1.91a1.51,1.51,0,0,0-1.19.55,2,2,0,0,0-.47,1.36v3.43h-1v-6h1v1h0a2.15,2.15,0,0,1,2-1.13,1.83,1.83,0,0,1,1.5.63,2.84,2.84,0,0,1,.53,1.84Z" fill="#1e1e1e"/>
      <path d="M321,150.23a1.94,1.94,0,0,1-.9.19c-1,0-1.57-.59-1.57-1.76v-3.55h-1v-.82h1v-1.47l1-.31v1.78H321v.82h-1.51v3.38a1.45,1.45,0,0,0,.2.86.84.84,0,0,0,.68.26,1,1,0,0,0,.63-.2Z" fill="#1e1e1e"/>
      <path d="M327.1,147.53h-4.24a2.18,2.18,0,0,0,.54,1.54,1.82,1.82,0,0,0,1.42.55,2.93,2.93,0,0,0,1.86-.67v.9a3.45,3.45,0,0,1-2.09.58,2.55,2.55,0,0,1-2-.82,3.37,3.37,0,0,1-.73-2.3,3.29,3.29,0,0,1,.8-2.28,2.53,2.53,0,0,1,2-.88,2.25,2.25,0,0,1,1.82.76,3.17,3.17,0,0,1,.65,2.11Zm-1-.82a2,2,0,0,0-.4-1.29,1.36,1.36,0,0,0-1.1-.47,1.56,1.56,0,0,0-1.15.49,2.16,2.16,0,0,0-.59,1.27Z" fill="#1e1e1e"/>
      <path d="M331.68,145.26a1.18,1.18,0,0,0-.73-.19,1.23,1.23,0,0,0-1,.58,2.7,2.7,0,0,0-.41,1.58v3.06h-1v-6h1v1.23h0a2.09,2.09,0,0,1,.63-1,1.42,1.42,0,0,1,.94-.36,1.75,1.75,0,0,1,.58.08Z" fill="#1e1e1e"/>
      <path d="M337.7,150.29h-1v-3.43c0-1.27-.47-1.91-1.39-1.91a1.53,1.53,0,0,0-1.2.55,2,2,0,0,0-.47,1.36v3.43h-1v-6h1v1h0a2.16,2.16,0,0,1,2-1.13,1.85,1.85,0,0,1,1.51.63,2.84,2.84,0,0,1,.52,1.84Z" fill="#1e1e1e"/>
      <path d="M343.81,150.29h-1v-.94h0a2,2,0,0,1-1.84,1.08,2,2,0,0,1-1.41-.48,1.61,1.61,0,0,1-.5-1.26q0-1.68,2-1.95l1.8-.26c0-1-.42-1.53-1.24-1.53a3,3,0,0,0-2,.74v-1a3.68,3.68,0,0,1,2-.56c1.41,0,2.12.74,2.12,2.23Zm-1-3-1.45.2a2.3,2.3,0,0,0-1,.33,1,1,0,0,0-.34.84.91.91,0,0,0,.31.72,1.2,1.2,0,0,0,.84.28,1.55,1.55,0,0,0,1.18-.5,1.81,1.81,0,0,0,.47-1.27Z" fill="#1e1e1e"/>
      <path d="M346.58,150.29h-1V141.4h1Z" fill="#1e1e1e"/>
      <path d="M354.33,152.2h-.86a7.51,7.51,0,0,1-1.81-5.12,7.79,7.79,0,0,1,1.81-5.2h.87a7.91,7.91,0,0,0-1.84,5.19A7.75,7.75,0,0,0,354.33,152.2Z" fill="#1e1e1e"/>
      <path d="M355.17,150v-1.16a2.21,2.21,0,0,0,.48.31,3,3,0,0,0,.58.24c.21.06.41.11.62.15a4.13,4.13,0,0,0,.57,0,2.29,2.29,0,0,0,1.36-.33,1.15,1.15,0,0,0,.45-1,1.16,1.16,0,0,0-.15-.6,1.94,1.94,0,0,0-.41-.46,4.56,4.56,0,0,0-.63-.39l-.77-.41a8.11,8.11,0,0,1-.83-.45,3.81,3.81,0,0,1-.66-.5,2.16,2.16,0,0,1-.44-.63,1.86,1.86,0,0,1-.16-.81,1.88,1.88,0,0,1,.25-1,2.21,2.21,0,0,1,.66-.7,3,3,0,0,1,.94-.41,4.24,4.24,0,0,1,1.07-.14,4.08,4.08,0,0,1,1.81.3v1.11a3.34,3.34,0,0,0-1.91-.52,3.59,3.59,0,0,0-.65.07,2,2,0,0,0-.57.22,1.18,1.18,0,0,0-.41.39,1,1,0,0,0-.16.59,1.25,1.25,0,0,0,.12.56,1.28,1.28,0,0,0,.36.42,3,3,0,0,0,.57.38l.77.4c.3.15.59.3.86.47a3.9,3.9,0,0,1,.71.54,2.53,2.53,0,0,1,.48.66,1.89,1.89,0,0,1,.18.84,2.14,2.14,0,0,1-.24,1.05,2.1,2.1,0,0,1-.66.7,2.88,2.88,0,0,1-.95.39,5.24,5.24,0,0,1-1.14.12,3.2,3.2,0,0,1-.49,0q-.3,0-.6-.09a5.47,5.47,0,0,1-.58-.15A1.93,1.93,0,0,1,355.17,150Z" fill="#1e1e1e"/>
      <path d="M366.66,150.29h-1v-.95h0a2,2,0,0,1-1.85,1.09c-1.43,0-2.14-.85-2.14-2.56v-3.58h.95v3.43c0,1.27.49,1.9,1.46,1.9a1.45,1.45,0,0,0,1.15-.52,2,2,0,0,0,.46-1.36v-3.45h1Z" fill="#1e1e1e"/>
      <path d="M369.58,149.42h0v.87h-1V141.4h1v3.94h0a2.27,2.27,0,0,1,2.08-1.19,2.16,2.16,0,0,1,1.8.8,3.32,3.32,0,0,1,.66,2.16,3.71,3.71,0,0,1-.74,2.41,2.4,2.4,0,0,1-2,.91A2,2,0,0,1,369.58,149.42Zm0-2.42v.84a1.8,1.8,0,0,0,.48,1.26,1.59,1.59,0,0,0,1.23.52,1.6,1.6,0,0,0,1.37-.67,3,3,0,0,0,.49-1.86,2.43,2.43,0,0,0-.46-1.57,1.53,1.53,0,0,0-1.25-.57,1.71,1.71,0,0,0-1.35.59A2.13,2.13,0,0,0,369.56,147Z" fill="#1e1e1e"/>
      <path d="M380.63,150.29h-1v-3.43c0-1.27-.46-1.91-1.39-1.91a1.55,1.55,0,0,0-1.2.55,2,2,0,0,0-.47,1.36v3.43h-1v-6h1v1h0a2.15,2.15,0,0,1,2-1.13,1.84,1.84,0,0,1,1.5.63,2.84,2.84,0,0,1,.52,1.84Z" fill="#1e1e1e"/>
      <path d="M387.27,147.53H383a2.18,2.18,0,0,0,.54,1.54,1.82,1.82,0,0,0,1.42.55,2.93,2.93,0,0,0,1.86-.67v.9a3.45,3.45,0,0,1-2.09.58,2.55,2.55,0,0,1-2-.82,3.33,3.33,0,0,1-.73-2.3,3.29,3.29,0,0,1,.8-2.28,2.53,2.53,0,0,1,2-.88,2.25,2.25,0,0,1,1.82.76,3.17,3.17,0,0,1,.65,2.11Zm-1-.82a2,2,0,0,0-.4-1.29,1.36,1.36,0,0,0-1.1-.47,1.56,1.56,0,0,0-1.15.49,2.16,2.16,0,0,0-.59,1.27Z" fill="#1e1e1e"/>
      <path d="M391.5,150.23a1.9,1.9,0,0,1-.89.19c-1.06,0-1.58-.59-1.58-1.76v-3.55h-1v-.82h1v-1.47l1-.31v1.78h1.51v.82H390v3.38a1.45,1.45,0,0,0,.2.86.84.84,0,0,0,.68.26,1,1,0,0,0,.63-.2Z" fill="#1e1e1e"/>
      <path d="M392.81,152.2H392a7.75,7.75,0,0,0,1.83-5.13,7.91,7.91,0,0,0-1.84-5.19h.87a7.75,7.75,0,0,1,1.83,5.2A7.47,7.47,0,0,1,392.81,152.2Z" fill="#1e1e1e"/>
      <path d="M326.7,163.49h-1v-7.26a2,2,0,0,1-.32.25l-.48.29c-.18.09-.37.18-.57.26a3.46,3.46,0,0,1-.57.19v-1a6.12,6.12,0,0,0,.67-.24c.23-.1.47-.21.69-.33a5.88,5.88,0,0,0,.65-.39,4.05,4.05,0,0,0,.53-.39h.36Z" fill="#1e1e1e"/>
      <path d="M334.91,159.25a8.68,8.68,0,0,1-.19,1.87,4.41,4.41,0,0,1-.56,1.37,2.34,2.34,0,0,1-2.07,1.14,2.23,2.23,0,0,1-1.13-.28,2.32,2.32,0,0,1-.84-.81,4.26,4.26,0,0,1-.51-1.31,7.84,7.84,0,0,1-.18-1.77,8.71,8.71,0,0,1,.19-2,4.48,4.48,0,0,1,.54-1.42,2.44,2.44,0,0,1,.89-.86,2.52,2.52,0,0,1,1.21-.29C334,154.94,334.91,156.38,334.91,159.25Zm-1,.09c0-2.39-.57-3.58-1.7-3.58s-1.8,1.21-1.8,3.65c0,2.27.59,3.4,1.76,3.4S333.92,161.66,333.92,159.34Z" fill="#1e1e1e"/>
      <path d="M336.7,163.62a.63.63,0,0,1-.46-.2.66.66,0,0,1-.19-.46.68.68,0,0,1,.19-.47.62.62,0,0,1,.46-.19.63.63,0,0,1,.47.19.65.65,0,0,1,.2.47.68.68,0,0,1-.67.66Z" fill="#1e1e1e"/>
      <path d="M342.52,157.29a1.76,1.76,0,0,0-.12-.68,1.38,1.38,0,0,0-.81-.76,2,2,0,0,0-.61-.09,2,2,0,0,0-.55.07,3.49,3.49,0,0,0-.53.22,2.94,2.94,0,0,0-.49.32,2.85,2.85,0,0,0-.44.41v-1a3,3,0,0,1,.9-.6,3.17,3.17,0,0,1,1.22-.21,2.93,2.93,0,0,1,1,.15,2.09,2.09,0,0,1,1.27,1.15,2.43,2.43,0,0,1,.18,1,3.58,3.58,0,0,1-.11.9,2.75,2.75,0,0,1-.35.76,3.33,3.33,0,0,1-.58.68,7.54,7.54,0,0,1-.83.67c-.39.28-.72.52-1,.72a4.34,4.34,0,0,0-.61.56,1.75,1.75,0,0,0-.32.52,1.91,1.91,0,0,0-.09.61h4.18v.86h-5.18v-.42a3.38,3.38,0,0,1,.12-.95,2.35,2.35,0,0,1,.38-.78,4.83,4.83,0,0,1,.71-.74c.29-.24.65-.52,1.07-.83a6.69,6.69,0,0,0,.76-.63,3,3,0,0,0,.5-.59,2.16,2.16,0,0,0,.26-.61A2.27,2.27,0,0,0,342.52,157.29Z" fill="#1e1e1e"/>
      <path d="M345.77,163.62a.61.61,0,0,1-.45-.2.63.63,0,0,1-.2-.46.65.65,0,0,1,.2-.47.6.6,0,0,1,.45-.19.63.63,0,0,1,.47.19.65.65,0,0,1,.2.47.68.68,0,0,1-.67.66Z" fill="#1e1e1e"/>
      <path d="M353.05,159.25a8.68,8.68,0,0,1-.19,1.87,4.41,4.41,0,0,1-.55,1.37,2.4,2.4,0,0,1-.89.85,2.36,2.36,0,0,1-1.19.29,2.22,2.22,0,0,1-2-1.09,4,4,0,0,1-.52-1.31,7.84,7.84,0,0,1-.18-1.77,9.33,9.33,0,0,1,.19-2,4.48,4.48,0,0,1,.54-1.42,2.44,2.44,0,0,1,.89-.86,2.52,2.52,0,0,1,1.21-.29Q353.06,154.94,353.05,159.25Zm-1,.09c0-2.39-.57-3.58-1.7-3.58s-1.8,1.21-1.8,3.65c0,2.27.59,3.4,1.76,3.4S352.06,161.66,352.06,159.34Z" fill="#1e1e1e"/>
      <path d="M354.85,163.62a.61.61,0,0,1-.46-.2.63.63,0,0,1-.2-.46.65.65,0,0,1,.2-.47.65.65,0,0,1,.92,0,.65.65,0,0,1,.2.47.63.63,0,0,1-.2.46A.61.61,0,0,1,354.85,163.62Z" fill="#1e1e1e"/>
      <path d="M362.12,159.25a8.68,8.68,0,0,1-.19,1.87,4.41,4.41,0,0,1-.55,1.37,2.4,2.4,0,0,1-.89.85,2.36,2.36,0,0,1-1.19.29,2.22,2.22,0,0,1-2-1.09,4,4,0,0,1-.52-1.31,7.84,7.84,0,0,1-.18-1.77,9.33,9.33,0,0,1,.19-2,4.48,4.48,0,0,1,.54-1.42,2.44,2.44,0,0,1,.89-.86,2.52,2.52,0,0,1,1.21-.29Q362.13,154.94,362.12,159.25Zm-1,.09c0-2.39-.57-3.58-1.7-3.58s-1.8,1.21-1.8,3.65c0,2.27.59,3.4,1.76,3.4S361.13,161.66,361.13,159.34Z" fill="#1e1e1e"/>
      <path d="M367.37,155.08l-4,9.8h-.9l4-9.8Z" fill="#1e1e1e"/>
      <path d="M371.81,157.29a1.76,1.76,0,0,0-.12-.68,1.25,1.25,0,0,0-.33-.47,1.28,1.28,0,0,0-.49-.29,2,2,0,0,0-.61-.09,2,2,0,0,0-.55.07,3.38,3.38,0,0,0-.52.22,3,3,0,0,0-.5.32,4.2,4.2,0,0,0-.44.41v-1a2.88,2.88,0,0,1,.91-.6,3.14,3.14,0,0,1,1.22-.21,2.91,2.91,0,0,1,.95.15,2.25,2.25,0,0,1,.77.44,2,2,0,0,1,.5.71,2.27,2.27,0,0,1,.19,1,3.16,3.16,0,0,1-.12.9,2.73,2.73,0,0,1-.34.76,3.39,3.39,0,0,1-.59.68,7.38,7.38,0,0,1-.82.67c-.4.28-.72.52-1,.72a5,5,0,0,0-.61.56,1.7,1.7,0,0,0-.31.52,1.91,1.91,0,0,0-.09.61h4.18v.86h-5.19v-.42a3.38,3.38,0,0,1,.12-.95,2.59,2.59,0,0,1,.39-.78,4.73,4.73,0,0,1,.7-.74c.29-.24.65-.52,1.07-.83a6.87,6.87,0,0,0,.77-.63,2.89,2.89,0,0,0,.49-.59,1.93,1.93,0,0,0,.27-.61A2.69,2.69,0,0,0,371.81,157.29Z" fill="#1e1e1e"/>
      <path d="M378.73,155.08v5.55h1.08v.88h-1.08v2h-1v-2h-3.94v-.83c.36-.41.73-.86,1.11-1.33s.73-.95,1.07-1.43.66-1,1-1.45a12.65,12.65,0,0,0,.74-1.39Zm-3.81,5.55h2.86v-4.11c-.29.51-.57,1-.83,1.37s-.51.77-.74,1.1l-.68.89C375.31,160.14,375.11,160.39,374.92,160.63Z" fill="#1e1e1e"/>
    </g>
    <g>
      <path d="M341.53,83l-3.11,8.4h-1.08l-3-8.4h1.1l2.32,6.66a3.51,3.51,0,0,1,.17.74h0a4.21,4.21,0,0,1,.2-.75L340.47,83Z" fill="#1e1e1e"/>
      <path d="M349.51,91.37h-1.2L344,84.67a2.65,2.65,0,0,1-.27-.53h0a9.48,9.48,0,0,1,0,1.16v6.07h-1V83H344l4.2,6.59a5.88,5.88,0,0,1,.34.56h0a8.65,8.65,0,0,1-.06-1.24V83h1Z" fill="#1e1e1e"/>
      <path d="M356.41,88.61h-4.24a2.26,2.26,0,0,0,.54,1.54,1.85,1.85,0,0,0,1.42.55A2.89,2.89,0,0,0,356,90v.9a3.41,3.41,0,0,1-2.09.58,2.53,2.53,0,0,1-2-.82,3.35,3.35,0,0,1-.72-2.3,3.28,3.28,0,0,1,.79-2.28,2.54,2.54,0,0,1,2-.88,2.24,2.24,0,0,1,1.82.76,3.17,3.17,0,0,1,.65,2.11Zm-1-.82a1.9,1.9,0,0,0-.4-1.29,1.36,1.36,0,0,0-1.1-.46,1.56,1.56,0,0,0-1.15.48,2.25,2.25,0,0,0-.59,1.27Z" fill="#1e1e1e"/>
      <path d="M360.65,91.31a1.94,1.94,0,0,1-.9.19c-1.05,0-1.58-.59-1.58-1.76V86.19h-1v-.82h1V83.9l1-.31v1.78h1.52v.82h-1.52v3.38a1.37,1.37,0,0,0,.21.86.83.83,0,0,0,.68.26,1.05,1.05,0,0,0,.63-.2Z" fill="#1e1e1e"/>
      <path d="M365.48,85.17a1.79,1.79,0,0,0-.12-.68A1.25,1.25,0,0,0,365,84a1.42,1.42,0,0,0-.49-.29,2,2,0,0,0-.61-.09,1.7,1.7,0,0,0-.55.08,2.57,2.57,0,0,0-.52.21,3,3,0,0,0-.5.32,4.2,4.2,0,0,0-.44.41v-1a2.88,2.88,0,0,1,.91-.6,3.14,3.14,0,0,1,1.22-.21A2.91,2.91,0,0,1,365,83a2.25,2.25,0,0,1,.77.44,2,2,0,0,1,.5.71,2.27,2.27,0,0,1,.19,1,3.16,3.16,0,0,1-.12.9,2.73,2.73,0,0,1-.34.76,3.73,3.73,0,0,1-.59.69,8.7,8.7,0,0,1-.82.66l-1,.72a5,5,0,0,0-.61.56,1.63,1.63,0,0,0-.31.53,1.8,1.8,0,0,0-.09.6h4.18v.86h-5.19V91a3.43,3.43,0,0,1,.12-1,2.59,2.59,0,0,1,.39-.78,4.73,4.73,0,0,1,.7-.74c.3-.24.65-.52,1.07-.83a8.24,8.24,0,0,0,.77-.62,3.23,3.23,0,0,0,.49-.6,1.93,1.93,0,0,0,.27-.61A2.69,2.69,0,0,0,365.48,85.17Z" fill="#1e1e1e"/>
      <path d="M371.67,91.37h-1V84.11a2.79,2.79,0,0,1-.33.25,5.06,5.06,0,0,1-.48.29l-.56.26a3.56,3.56,0,0,1-.58.19v-1a6.12,6.12,0,0,0,.67-.24c.24-.1.47-.21.7-.33a7,7,0,0,0,.65-.39,4.69,4.69,0,0,0,.52-.39h.37Z" fill="#1e1e1e"/>
      <path d="M377.94,88.4h-3.2v-.75h3.2Z" fill="#1e1e1e"/>
      <path d="M385.82,91.37h-1.17L383.24,89a6,6,0,0,0-.38-.56,2.23,2.23,0,0,0-.37-.38,1.59,1.59,0,0,0-.41-.21,1.81,1.81,0,0,0-.49-.07h-.81v3.58h-1V83h2.51a3.65,3.65,0,0,1,1,.13,2.23,2.23,0,0,1,.81.42,1.94,1.94,0,0,1,.53.7,2.46,2.46,0,0,1,.06,1.79,2,2,0,0,1-.37.65,2.17,2.17,0,0,1-.59.49,3,3,0,0,1-.77.32v0a1.63,1.63,0,0,1,.37.21,2,2,0,0,1,.29.29,2.75,2.75,0,0,1,.28.37l.31.48Zm-5-7.51v3h1.33a1.92,1.92,0,0,0,.69-.11,1.46,1.46,0,0,0,.54-.32,1.57,1.57,0,0,0,.36-.51,1.78,1.78,0,0,0,.12-.67,1.34,1.34,0,0,0-.43-1.06,1.88,1.88,0,0,0-1.26-.37Z" fill="#1e1e1e"/>
      <path d="M393,91.37h-1.17L390.42,89a6,6,0,0,0-.38-.56,2.23,2.23,0,0,0-.37-.38,1.59,1.59,0,0,0-.41-.21,1.89,1.89,0,0,0-.5-.07H388v3.58h-1V83h2.51a3.65,3.65,0,0,1,1,.13,2.11,2.11,0,0,1,.8.42,2,2,0,0,1,.54.7A2.61,2.61,0,0,1,391.9,86a2.2,2.2,0,0,1-.37.65,2.34,2.34,0,0,1-.59.49,3,3,0,0,1-.77.32v0a1.88,1.88,0,0,1,.37.21,2,2,0,0,1,.29.29,2.75,2.75,0,0,1,.28.37l.31.48Zm-5-7.51v3h1.33a1.83,1.83,0,0,0,.68-.11,1.59,1.59,0,0,0,.55-.32,1.41,1.41,0,0,0,.35-.51,1.6,1.6,0,0,0,.13-.67,1.34,1.34,0,0,0-.43-1.06,1.92,1.92,0,0,0-1.27-.37Z" fill="#1e1e1e"/>
      <path d="M400.65,91.37h-1.09L398.67,89h-3.56l-.84,2.36h-1.09L396.4,83h1Zm-2.3-3.24L397,84.55a5.16,5.16,0,0,1-.13-.57h0a2.62,2.62,0,0,1-.14.57l-1.3,3.58Z" fill="#1e1e1e"/>
      <path d="M401.5,91V89.87a2.39,2.39,0,0,0,.47.31,3.32,3.32,0,0,0,.59.24,3.5,3.5,0,0,0,.62.15,3,3,0,0,0,.57.05,2.29,2.29,0,0,0,1.36-.33,1.15,1.15,0,0,0,.45-1,1.16,1.16,0,0,0-.15-.6,1.79,1.79,0,0,0-.42-.46,3.91,3.91,0,0,0-.62-.39l-.78-.4c-.29-.15-.56-.3-.82-.46a3.81,3.81,0,0,1-.66-.5,2.06,2.06,0,0,1-.44-.62,1.94,1.94,0,0,1-.16-.82,1.9,1.9,0,0,1,.25-1,2.21,2.21,0,0,1,.66-.7,3.19,3.19,0,0,1,.94-.41,4.24,4.24,0,0,1,1.07-.14,4.11,4.11,0,0,1,1.81.3v1.11a3.33,3.33,0,0,0-1.91-.51,3.57,3.57,0,0,0-.65.06,2,2,0,0,0-.57.22,1.18,1.18,0,0,0-.41.39,1,1,0,0,0-.16.59,1.22,1.22,0,0,0,.12.56A1.54,1.54,0,0,0,403,86a4.18,4.18,0,0,0,.58.37l.77.4c.3.15.59.3.86.47a3.9,3.9,0,0,1,.71.54,2.53,2.53,0,0,1,.48.66,1.89,1.89,0,0,1,.18.84,2.14,2.14,0,0,1-.24,1,2.11,2.11,0,0,1-.66.7,2.88,2.88,0,0,1-.95.39,5.24,5.24,0,0,1-1.14.12l-.49,0-.6-.1a4.91,4.91,0,0,1-.58-.15A1.93,1.93,0,0,1,401.5,91Z" fill="#1e1e1e"/>
      <path d="M411.4,91.37h-1V84.11a2,2,0,0,1-.32.25,5.06,5.06,0,0,1-.48.29l-.56.26a3.56,3.56,0,0,1-.58.19v-1a6.12,6.12,0,0,0,.67-.24c.24-.1.47-.21.7-.33a5.73,5.73,0,0,0,.64-.39,4.05,4.05,0,0,0,.53-.39h.36Z" fill="#1e1e1e"/>
    </g>
    <g>
      <path d="M296.09,213.9,293,222.3h-1.09l-3-8.4h1.09l2.33,6.66a4.27,4.27,0,0,1,.17.74h0a3.5,3.5,0,0,1,.2-.75L295,213.9Z" fill="#1e1e1e"/>
      <path d="M304,222.3h-1.21l-4.33-6.7a2.65,2.65,0,0,1-.27-.53h0a8.79,8.79,0,0,1,.05,1.16v6.07h-1v-8.4h1.28l4.21,6.59c.17.27.29.46.34.56h0a8.65,8.65,0,0,1-.06-1.24V213.9h1Z" fill="#1e1e1e"/>
      <path d="M310.86,219.54h-4.23a2.21,2.21,0,0,0,.54,1.55,1.85,1.85,0,0,0,1.41.54,2.94,2.94,0,0,0,1.87-.67v.91a3.52,3.52,0,0,1-2.09.57,2.52,2.52,0,0,1-2-.82,3.81,3.81,0,0,1,.07-4.58,2.51,2.51,0,0,1,2-.88,2.25,2.25,0,0,1,1.82.76,3.18,3.18,0,0,1,.64,2.12Zm-1-.82a2,2,0,0,0-.4-1.29,1.37,1.37,0,0,0-1.1-.46,1.55,1.55,0,0,0-1.15.48,2.19,2.19,0,0,0-.59,1.27Z" fill="#1e1e1e"/>
      <path d="M315.09,222.24a1.76,1.76,0,0,1-.89.19c-1.05,0-1.58-.59-1.58-1.76v-3.55h-1v-.82h1v-1.47l1-.31v1.78h1.51v.82h-1.51v3.38a1.37,1.37,0,0,0,.21.86.81.81,0,0,0,.68.26,1,1,0,0,0,.62-.2Z" fill="#1e1e1e"/>
      <path d="M320,216.1a1.71,1.71,0,0,0-.12-.67,1.28,1.28,0,0,0-.33-.48,1.42,1.42,0,0,0-.49-.29,2,2,0,0,0-.61-.09,2.09,2.09,0,0,0-.55.08,2.95,2.95,0,0,0-1,.53,3,3,0,0,0-.45.42v-1a2.88,2.88,0,0,1,.91-.6,3.35,3.35,0,0,1,1.22-.2,2.91,2.91,0,0,1,.95.15,2.23,2.23,0,0,1,.77.43,2,2,0,0,1,.5.71,2.27,2.27,0,0,1,.19,1,3.16,3.16,0,0,1-.12.9,2.73,2.73,0,0,1-.34.76,4.09,4.09,0,0,1-.58.69,8.92,8.92,0,0,1-.83.67c-.4.28-.72.52-1,.72a4.3,4.3,0,0,0-.61.56,1.49,1.49,0,0,0-.31.52,1.8,1.8,0,0,0-.09.6h4.18v.86h-5.19v-.42a3.43,3.43,0,0,1,.12-.95,2.59,2.59,0,0,1,.39-.78,4.3,4.3,0,0,1,.7-.73c.3-.25.65-.53,1.07-.84a5.92,5.92,0,0,0,.77-.62,3.23,3.23,0,0,0,.49-.6,1.93,1.93,0,0,0,.27-.61A2.69,2.69,0,0,0,320,216.1Z" fill="#1e1e1e"/>
      <path d="M325.4,219.33h-3.2v-.75h3.2Z" fill="#1e1e1e"/>
      <path d="M331.72,216.3l-2.39,6h-.94l-2.28-6h1.06l1.52,4.36a4.27,4.27,0,0,1,.21.84h0a4.5,4.5,0,0,1,.19-.82l1.6-4.38Z" fill="#1e1e1e"/>
      <path d="M337.77,222.3h-1v-3.42c0-1.28-.46-1.91-1.39-1.91a1.54,1.54,0,0,0-1.2.54,2,2,0,0,0-.47,1.37v3.42h-1v-6h1v1h0a2.16,2.16,0,0,1,2-1.14,1.85,1.85,0,0,1,1.51.63,2.84,2.84,0,0,1,.52,1.84Z" fill="#1e1e1e"/>
      <path d="M344.38,219.54h-4.23a2.21,2.21,0,0,0,.54,1.55,1.85,1.85,0,0,0,1.42.54A2.93,2.93,0,0,0,344,221v.91a3.52,3.52,0,0,1-2.09.57,2.52,2.52,0,0,1-2-.82A3.81,3.81,0,0,1,340,217a2.53,2.53,0,0,1,2-.88,2.25,2.25,0,0,1,1.82.76,3.18,3.18,0,0,1,.64,2.12Zm-1-.82a2,2,0,0,0-.4-1.29,1.37,1.37,0,0,0-1.1-.46,1.55,1.55,0,0,0-1.15.48,2.19,2.19,0,0,0-.59,1.27Z" fill="#1e1e1e"/>
      <path d="M348.61,222.24a1.76,1.76,0,0,1-.89.19c-1.05,0-1.58-.59-1.58-1.76v-3.55h-1v-.82h1v-1.47l1-.31v1.78h1.51v.82H347.1v3.38a1.37,1.37,0,0,0,.21.86.81.81,0,0,0,.68.26,1,1,0,0,0,.62-.2Z" fill="#1e1e1e"/>
      <path d="M293,236.7h-1v-7.26a2,2,0,0,1-.32.25,5.06,5.06,0,0,1-.48.29c-.18.09-.37.18-.57.26a4.3,4.3,0,0,1-.57.2v-1c.21-.06.43-.14.67-.23s.47-.22.7-.34a6.82,6.82,0,0,0,.64-.39,4.05,4.05,0,0,0,.53-.39H293Z" fill="#1e1e1e"/>
      <path d="M300.67,232.46a8,8,0,0,1-.19,1.87,4.33,4.33,0,0,1-.55,1.38,2.55,2.55,0,0,1-.88.85,2.48,2.48,0,0,1-1.2.29,2.3,2.3,0,0,1-1.12-.28,2.49,2.49,0,0,1-.84-.81,4,4,0,0,1-.51-1.31,7.93,7.93,0,0,1-.18-1.78,9.38,9.38,0,0,1,.18-1.95,4.56,4.56,0,0,1,.55-1.41,2.34,2.34,0,0,1,.88-.86,2.45,2.45,0,0,1,1.22-.29Q300.67,228.16,300.67,232.46Zm-1,.1c0-2.39-.57-3.59-1.71-3.59s-1.8,1.22-1.8,3.65c0,2.27.59,3.41,1.77,3.41S299.69,234.87,299.69,232.56Z" fill="#1e1e1e"/>
      <path d="M302.38,236.83a.61.61,0,0,1-.46-.2.6.6,0,0,1-.19-.46.62.62,0,0,1,.19-.46.58.58,0,0,1,.46-.2.67.67,0,0,1,.66.66.6.6,0,0,1-.19.46A.65.65,0,0,1,302.38,236.83Z" fill="#1e1e1e"/>
      <path d="M308.44,230.5a1.71,1.71,0,0,0-.12-.67,1.28,1.28,0,0,0-.33-.48,1.37,1.37,0,0,0-.48-.29,2,2,0,0,0-.61-.09,2,2,0,0,0-.55.08,2.66,2.66,0,0,0-.53.21,2.94,2.94,0,0,0-.49.32,2.49,2.49,0,0,0-.44.42v-1a3,3,0,0,1,.9-.6,3.39,3.39,0,0,1,1.22-.2,2.93,2.93,0,0,1,1,.15,2,2,0,0,1,1.27,1.14,2.43,2.43,0,0,1,.18,1,3.58,3.58,0,0,1-.11.9,2.75,2.75,0,0,1-.35.76,3.67,3.67,0,0,1-.58.69,8.92,8.92,0,0,1-.83.67c-.39.28-.72.52-1,.72a3.81,3.81,0,0,0-.61.56,1.53,1.53,0,0,0-.32.52,1.8,1.8,0,0,0-.09.6h4.18v.86h-5.18v-.42a3.43,3.43,0,0,1,.12-.95,2.35,2.35,0,0,1,.38-.78,4.38,4.38,0,0,1,.71-.73c.29-.25.65-.53,1.07-.84a5.77,5.77,0,0,0,.76-.62,3.31,3.31,0,0,0,.5-.6,2.16,2.16,0,0,0,.26-.61A2.27,2.27,0,0,0,308.44,230.5Z" fill="#1e1e1e"/>
      <path d="M311.65,236.83a.67.67,0,0,1-.65-.66.66.66,0,0,1,.19-.46.61.61,0,0,1,.46-.2.6.6,0,0,1,.47.2.63.63,0,0,1,.2.46.61.61,0,0,1-.2.46A.63.63,0,0,1,311.65,236.83Z" fill="#1e1e1e"/>
      <path d="M318.88,232.46a8.62,8.62,0,0,1-.19,1.87,4.58,4.58,0,0,1-.56,1.38,2.55,2.55,0,0,1-.88.85,2.47,2.47,0,0,1-1.19.29,2.34,2.34,0,0,1-1.13-.28,2.49,2.49,0,0,1-.84-.81,4.48,4.48,0,0,1-.51-1.31,7.93,7.93,0,0,1-.18-1.78,8.71,8.71,0,0,1,.19-1.95,4.32,4.32,0,0,1,.54-1.41,2.36,2.36,0,0,1,.89-.86,2.41,2.41,0,0,1,1.21-.29C318,228.16,318.88,229.59,318.88,232.46Zm-1,.1c0-2.39-.57-3.59-1.7-3.59s-1.8,1.22-1.8,3.65c0,2.27.59,3.41,1.76,3.41S317.89,234.87,317.89,232.56Z" fill="#1e1e1e"/>
      <path d="M320.58,236.83a.63.63,0,0,1-.46-.2.6.6,0,0,1-.19-.46.62.62,0,0,1,.19-.46.59.59,0,0,1,.46-.2.67.67,0,0,1,.66.66.6.6,0,0,1-.19.46A.65.65,0,0,1,320.58,236.83Z" fill="#1e1e1e"/>
      <path d="M327.8,232.46a8,8,0,0,1-.19,1.87,4.57,4.57,0,0,1-.55,1.38,2.55,2.55,0,0,1-.88.85,2.48,2.48,0,0,1-1.2.29,2.3,2.3,0,0,1-1.12-.28,2.49,2.49,0,0,1-.84-.81,4,4,0,0,1-.51-1.31,7.93,7.93,0,0,1-.18-1.78,9.38,9.38,0,0,1,.18-1.95,4.56,4.56,0,0,1,.55-1.41,2.34,2.34,0,0,1,.88-.86,2.45,2.45,0,0,1,1.22-.29Q327.8,228.16,327.8,232.46Zm-1,.1c0-2.39-.57-3.59-1.71-3.59s-1.8,1.22-1.8,3.65c0,2.27.59,3.41,1.77,3.41S326.82,234.87,326.82,232.56Z" fill="#1e1e1e"/>
      <path d="M332.65,228.3l-4,9.79h-.89l4-9.79Z" fill="#1e1e1e"/>
      <path d="M336.53,236.7h-1v-7.26a2.79,2.79,0,0,1-.33.25,5.06,5.06,0,0,1-.48.29c-.18.09-.36.18-.56.26a5,5,0,0,1-.58.2v-1c.21-.06.44-.14.67-.23s.47-.22.7-.34a7,7,0,0,0,.65-.39,3.91,3.91,0,0,0,.52-.39h.37Z" fill="#1e1e1e"/>
      <path d="M344.13,234a3,3,0,0,1-.2,1.13,2.52,2.52,0,0,1-.55.89,2.41,2.41,0,0,1-.84.59,2.59,2.59,0,0,1-1.05.21,2.33,2.33,0,0,1-1.13-.27,2.29,2.29,0,0,1-.85-.76,3.44,3.44,0,0,1-.53-1.21,6.52,6.52,0,0,1-.19-1.61,7.68,7.68,0,0,1,.25-2,4.88,4.88,0,0,1,.69-1.53,3.24,3.24,0,0,1,1.08-1,2.88,2.88,0,0,1,1.41-.34,3.42,3.42,0,0,1,1.4.24v.9a3,3,0,0,0-1.37-.33,2,2,0,0,0-1,.25,2.36,2.36,0,0,0-.77.71A3.54,3.54,0,0,0,340,231a6,6,0,0,0-.17,1.45h0a2,2,0,0,1,1.92-1.05,2.57,2.57,0,0,1,1,.19,2.17,2.17,0,0,1,.76.53,2.31,2.31,0,0,1,.48.82A2.93,2.93,0,0,1,344.13,234Zm-1,.13a2.81,2.81,0,0,0-.11-.8,1.76,1.76,0,0,0-.32-.59,1.33,1.33,0,0,0-.52-.38,1.67,1.67,0,0,0-.69-.13,1.59,1.59,0,0,0-.66.13,1.64,1.64,0,0,0-.53.37,1.66,1.66,0,0,0-.34.54,1.57,1.57,0,0,0-.13.65,2.64,2.64,0,0,0,.12.81,2.08,2.08,0,0,0,.35.66,1.49,1.49,0,0,0,.53.44,1.4,1.4,0,0,0,.68.17,1.59,1.59,0,0,0,.66-.14,1.39,1.39,0,0,0,.51-.39,1.77,1.77,0,0,0,.33-.59A2.23,2.23,0,0,0,343.15,234.16Z" fill="#1e1e1e"/>
    </g>
  </g>
</svg>
