<svg xmlns="http://www.w3.org/2000/svg" xmlns:xlink="http://www.w3.org/1999/xlink" viewBox="0 0 406 350">
  <defs>
    <linearGradient id="linear-gradient" x1="12.91" y1="9.53" x2="12.91" y2="14.03" gradientUnits="userSpaceOnUse">
      <stop offset="0" stop-color="#005ba1"/>
      <stop offset="0.26" stop-color="#00589d"/>
      <stop offset="0.53" stop-color="#004f90"/>
      <stop offset="0.8" stop-color="#003f7c"/>
      <stop offset="1" stop-color="#003067"/>
    </linearGradient>
    <linearGradient id="linear-gradient-2" x1="12.91" y1="5.02" x2="12.91" y2="8.17" xlink:href="#linear-gradient"/>
    <linearGradient id="linear-gradient-3" x1="20.86" y1="3.07" x2="25" y2="3.07" xlink:href="#linear-gradient"/>
    <linearGradient id="linear-gradient-4" x1="20.86" y1="17.41" x2="25" y2="17.41" xlink:href="#linear-gradient"/>
    <linearGradient id="linear-gradient-5" x1="1.56" y1="3.07" x2="5.71" y2="3.07" xlink:href="#linear-gradient"/>
    <linearGradient id="linear-gradient-6" x1="1.11" y1="17.41" x2="5.26" y2="17.41" xlink:href="#linear-gradient"/>
    <linearGradient id="linear-gradient-7" x1="41.4" x2="41.4" gradientUnits="userSpaceOnUse">
      <stop offset="0" stop-color="#949494"/>
      <stop offset="0.53" stop-color="#a2a1a1"/>
      <stop offset="1" stop-color="#b3b4b4"/>
    </linearGradient>
    <linearGradient id="linear-gradient-8" x1="41.4" y1="1.39" x2="41.4" y2="13.5" gradientUnits="userSpaceOnUse">
      <stop offset="0" stop-color="#b3b4b4"/>
      <stop offset="0.47" stop-color="#a2a1a1"/>
      <stop offset="1" stop-color="#949494"/>
    </linearGradient>
    <linearGradient id="linear-gradient-9" x1="249.66" y1="1505.32" x2="249.66" y2="1470.94" gradientTransform="matrix(1, 0, 0, -1, 0, 1524.2)" gradientUnits="userSpaceOnUse">
      <stop offset="0.18" stop-color="#5ea0ef"/>
      <stop offset="1" stop-color="#0078d4"/>
    </linearGradient>
    <linearGradient id="linear-gradient-10" x1="98.17" y1="1322.45" x2="98.17" y2="1298.58" gradientTransform="matrix(1, 0, 0, -1, 0, 1524.2)" gradientUnits="userSpaceOnUse">
      <stop offset="0" stop-color="#5ea0ef"/>
      <stop offset="0.18" stop-color="#559cec"/>
      <stop offset="0.47" stop-color="#3c91e5"/>
      <stop offset="0.84" stop-color="#1380da"/>
      <stop offset="1" stop-color="#0078d4"/>
    </linearGradient>
    <linearGradient id="linear-gradient-11" x1="94.18" y1="1298.32" x2="94.18" y2="1309.89" gradientTransform="matrix(1, 0, 0, -1, 0, 1524.2)" gradientUnits="userSpaceOnUse">
      <stop offset="0" stop-color="#198ab3"/>
      <stop offset="0.14" stop-color="#22a5cb"/>
      <stop offset="0.3" stop-color="#29bade"/>
      <stop offset="0.47" stop-color="#2ec9eb"/>
      <stop offset="0.68" stop-color="#31d1f3"/>
      <stop offset="1" stop-color="#32d4f5"/>
    </linearGradient>
    <linearGradient id="linear-gradient-12" x1="152.45" y1="1441.53" x2="152.45" y2="1459.98" gradientTransform="matrix(1, 0, 0, -1, 0, 1524.2)" gradientUnits="userSpaceOnUse">
      <stop offset="0" stop-color="#0078d4"/>
      <stop offset="0.82" stop-color="#5ea0ef"/>
    </linearGradient>
    <linearGradient id="linear-gradient-13" x1="341.23" y1="1441.53" x2="341.23" y2="1459.98" xlink:href="#linear-gradient-12"/>
    <symbol id="New_Symbol_5" data-name="New Symbol 5" viewBox="0 0 25.89 20.48">
      <g>
        <path d="M21.68,8.14,18.42,5H7.35L4.1,8.14h.16a.88.88,0,0,0-.16.51V13.1a.87.87,0,0,0,.84.9H20.83a.87.87,0,0,0,.85-.9V8.65a.88.88,0,0,0-.16-.51Z" fill="#fff" stroke="#fff" stroke-linejoin="round" stroke-width="2" fill-rule="evenodd"/>
        <circle cx="10.86" cy="11.74" r="0.9" fill="none"/>
        <path d="M20.85,9.53H5a.76.76,0,0,0-.84.64v3.22A.77.77,0,0,0,5,14H20.85a.76.76,0,0,0,.84-.64V10.17C21.69,9.81,21.32,9.53,20.85,9.53Zm-14,3.15a.9.9,0,1,1,.9-.9A.9.9,0,0,1,6.82,12.68Zm4.06,0a.9.9,0,1,1,.9-.9A.9.9,0,0,1,10.88,12.68Zm4,0a.9.9,0,1,1,.91-.9A.9.9,0,0,1,14.93,12.68Zm4.06,0a.9.9,0,1,1,.9-.9A.9.9,0,0,1,19,12.68Z" fill-rule="evenodd" fill="url(#linear-gradient)"/>
        <polygon points="18.44 5.02 7.37 5.02 4.12 8.17 21.7 8.17 18.44 5.02" fill-rule="evenodd" fill="url(#linear-gradient-2)"/>
      </g>
      <g id="lowPriority40x40">
        <polygon points="24.09 2.43 24.09 4.98 24.89 4.19 24.89 1 21.7 1 20.9 1.8 23.45 1.8 20.74 4.5 21.38 5.14 24.09 2.43" fill="none" stroke="#fff" stroke-miterlimit="10" stroke-width="2"/>
      </g>
      <g id="lowPriority40x40-2" data-name="lowPriority40x40">
        <polygon points="24.09 18.05 24.09 15.49 24.89 16.29 24.89 19.48 21.7 19.48 20.9 18.68 23.45 18.68 20.74 15.97 21.38 15.34 24.09 18.05" fill="none" stroke="#fff" stroke-miterlimit="10" stroke-width="2"/>
      </g>
      <g id="lowPriority40x40-3" data-name="lowPriority40x40">
        <polygon points="2.25 2.43 2.25 4.98 1.45 4.19 1.45 1 4.64 1 5.43 1.8 2.88 1.8 5.59 4.5 4.96 5.14 2.25 2.43" fill="none" stroke="#fff" stroke-miterlimit="10" stroke-width="2"/>
      </g>
      <g id="lowPriority40x40-4" data-name="lowPriority40x40">
        <polygon points="1.8 18.05 1.8 15.49 1 16.29 1 19.48 4.19 19.48 4.98 18.68 2.43 18.68 5.14 15.97 4.5 15.34 1.8 18.05" fill="none" stroke="#fff" stroke-miterlimit="10" stroke-width="2"/>
      </g>
      <path d="M6.86,12.72a.9.9,0,1,1,.9-.9A.9.9,0,0,1,6.86,12.72Zm4.06,0a.9.9,0,1,1,.9-.9A.91.91,0,0,1,10.92,12.72Zm4.05,0a.9.9,0,1,1,.9-.9A.9.9,0,0,1,15,12.72Zm4.06,0a.9.9,0,1,1,.9-.9A.9.9,0,0,1,19,12.72Z" fill="none"/>
      <circle cx="10.92" cy="11.82" r="0.9" fill="none"/>
      <g id="lowPriority40x40-5" data-name="lowPriority40x40">
        <polygon points="24.2 2.43 24.2 4.98 25 4.19 25 1 21.81 1 21.02 1.8 23.57 1.8 20.86 4.5 21.5 5.14 24.2 2.43" fill="url(#linear-gradient-3)"/>
      </g>
      <g id="lowPriority40x40-6" data-name="lowPriority40x40">
        <polygon points="24.2 18.05 24.2 15.49 25 16.29 25 19.48 21.81 19.48 21.02 18.68 23.57 18.68 20.86 15.97 21.5 15.34 24.2 18.05" fill="url(#linear-gradient-4)"/>
      </g>
      <g id="lowPriority40x40-7" data-name="lowPriority40x40">
        <polygon points="2.36 2.43 2.36 4.98 1.56 4.19 1.56 1 4.75 1 5.55 1.8 3 1.8 5.71 4.5 5.07 5.14 2.36 2.43" fill="url(#linear-gradient-5)"/>
      </g>
      <g id="lowPriority40x40-8" data-name="lowPriority40x40">
        <polygon points="1.91 18.05 1.91 15.49 1.11 16.29 1.11 19.48 4.3 19.48 5.1 18.68 2.55 18.68 5.25 15.97 4.62 15.34 1.91 18.05" fill="url(#linear-gradient-6)"/>
      </g>
    </symbol>
    <symbol id="PHOTON" data-name="PHOTON" viewBox="0 0 82.5 15">
      <polyline points="78.31 0 82.5 0 82.5 15 0 15 0 0 3.86 0" fill="#e6e6e6"/>
      <g>
        <line x1="75.16" x2="7.64" fill="#fff"/>
        <line x1="75.16" x2="7.64" fill="url(#linear-gradient-7)"/>
      </g>
      <g>
        <g>
          <rect x="1.97" y="1.39" width="78.84" height="12.11" fill="#fff"/>
          <rect x="1.97" y="1.39" width="78.84" height="12.11" fill="url(#linear-gradient-8)"/>
        </g>
        <circle cx="59.32" cy="5.6" r="1.64" fill="#8bc63f"/>
        <circle cx="67.54" cy="5.6" r="1.64" fill="#ffcb06"/>
        <circle cx="75.77" cy="5.6" r="1.64" fill="#b32025"/>
      </g>
      <g>
        <rect x="4.54" y="4.23" width="2.78" height="2.78"/>
        <rect x="4.54" y="7.88" width="2.78" height="2.78"/>
      </g>
      <g>
        <rect x="8.22" y="4.23" width="2.78" height="2.78"/>
        <rect x="8.22" y="7.88" width="2.78" height="2.78"/>
      </g>
      <g>
        <rect x="11.9" y="4.23" width="2.78" height="2.78"/>
        <rect x="11.9" y="7.88" width="2.78" height="2.78"/>
      </g>
      <g>
        <rect x="15.58" y="4.23" width="2.78" height="2.78"/>
        <rect x="15.58" y="7.88" width="2.78" height="2.78"/>
      </g>
      <g>
        <rect x="19.26" y="4.23" width="2.78" height="2.78"/>
        <rect x="19.26" y="7.88" width="2.78" height="2.78"/>
      </g>
      <g>
        <rect x="22.94" y="4.23" width="2.78" height="2.78"/>
        <rect x="22.94" y="7.88" width="2.78" height="2.78"/>
      </g>
      <g>
        <rect x="26.62" y="4.23" width="2.78" height="2.78"/>
        <rect x="26.62" y="7.88" width="2.78" height="2.78"/>
      </g>
      <g>
        <rect x="30.29" y="4.23" width="2.78" height="2.78"/>
        <rect x="30.29" y="7.88" width="2.78" height="2.78"/>
      </g>
      <g>
        <rect x="33.97" y="4.23" width="2.78" height="2.78"/>
        <rect x="33.97" y="7.88" width="2.78" height="2.78"/>
      </g>
      <g>
        <rect x="37.65" y="4.23" width="2.78" height="2.78"/>
        <rect x="37.65" y="7.88" width="2.78" height="2.78"/>
      </g>
      <g>
        <rect x="41.33" y="4.23" width="2.78" height="2.78"/>
        <rect x="41.33" y="7.88" width="2.78" height="2.78"/>
      </g>
    </symbol>
  </defs>
  <g id="Shapes">
    <rect width="406" height="350" fill="#fff"/>
    <g>
      <rect x="95.11" y="55.96" width="308.21" height="127.86" fill="#fff"/>
      <rect x="95.11" y="55.96" width="308.21" height="127.86" fill="#3c3c41" opacity="0.15"/>
    </g>
    <path d="M266.87,40a7.85,7.85,0,0,0-6.72-7.6,9.88,9.88,0,0,0-10.06-9.56,10.11,10.11,0,0,0-9.56,6.69,9.29,9.29,0,0,0-8.07,9.08,9.56,9.56,0,0,0,9.7,9.23h17A7.94,7.94,0,0,0,266.87,40Z" fill="url(#linear-gradient-9)"/>
    <g>
      <rect x="95.11" y="213.82" width="308.21" height="134.01" fill="#fff"/>
      <rect x="95.11" y="213.82" width="308.21" height="134.01" fill="#0072c6" opacity="0.05"/>
      <rect x="95.11" y="213.82" width="308.21" height="134.01" fill="none" stroke="#0072c6" stroke-miterlimit="10" stroke-width="0.5" opacity="0.6"/>
    </g>
    <g id="b1186d34-5ca3-4e43-992d-40ecef5e891b">
      <g>
        <path d="M104.39,201.76H92a.81.81,0,0,0-.81.79v17.69a14.87,14.87,0,0,1,2-1.42h2.36l1.3,1.73v2.63l-1.64,1.19-2.29-.29-1.74-1.64v2.39a.81.81,0,0,0,.81.8h12.42a.8.8,0,0,0,.79-.8V202.55A.79.79,0,0,0,104.39,201.76Z" fill="url(#linear-gradient-10)"/>
        <path id="af47f827-8b1b-4acd-8974-8eafe35490c9" d="M93,204.24H95.3a.2.2,0,0,1,.2.2h0v2.94a.2.2,0,0,1-.2.2H93a.2.2,0,0,1-.2-.2h0v-2.94a.2.2,0,0,1,.2-.2Zm4,0h2.28a.2.2,0,0,1,.2.2h0v2.94a.2.2,0,0,1-.2.2H97a.2.2,0,0,1-.2-.2h0v-2.94a.2.2,0,0,1,.2-.2Zm4,0h2.28a.2.2,0,0,1,.2.2h0v2.94a.2.2,0,0,1-.2.2h-2.28a.2.2,0,0,1-.2-.2h0v-2.94a.2.2,0,0,1,.2-.2Zm-8,5.33H95.3a.2.2,0,0,1,.2.2h0v3a.2.2,0,0,1-.2.2H93a.2.2,0,0,1-.2-.2h0v-3a.2.2,0,0,1,.17-.22Zm4,0h2.28a.2.2,0,0,1,.2.2h0v3a.2.2,0,0,1-.2.2H97a.2.2,0,0,1-.2-.2h0v-3a.21.21,0,0,1,.17-.22Zm4,0h2.28a.2.2,0,0,1,.2.2h0v3a.2.2,0,0,1-.2.2h-2.28a.2.2,0,0,1-.2-.2h0v-3a.2.2,0,0,1,.16-.22ZM93,215H95.3a.2.2,0,0,1,.2.2h0v2.92a.2.2,0,0,1-.2.2H93a.2.2,0,0,1-.2-.2v-2.92A.2.2,0,0,1,93,215Zm4,0h2.28a.2.2,0,0,1,.2.2h0v2.92a.2.2,0,0,1-.2.2H97a.2.2,0,0,1-.2-.2h0v-2.92A.2.2,0,0,1,97,215Zm0,5.36h2.28a.2.2,0,0,1,.2.2h0v4.37a.2.2,0,0,1-.2.2H97a.2.2,0,0,1-.2-.2v-4.37a.2.2,0,0,1,.2-.2Zm4-5.36h2.28a.2.2,0,0,1,.2.2h0v2.92a.2.2,0,0,1-.2.2h-2.28a.2.2,0,0,1-.2-.2h0v-2.92A.2.2,0,0,1,101.06,215Z" fill="#f2f2f2"/>
        <path d="M94.21,219.49a1.85,1.85,0,0,0-1.76,1.42H86.07a4.06,4.06,0,0,0-.11.92v.08h6.49a1.83,1.83,0,1,0,1.76-2.42Z" fill="#50e6ff"/>
        <path d="M99.17,218.73a4.61,4.61,0,0,0-4.82-4.41,4.74,4.74,0,0,0-4.54,3.09,4.52,4.52,0,0,0-3.6,2.83h5.87a2.41,2.41,0,1,1,0,2.09h-6a4.54,4.54,0,0,0,4.51,3.43h8.05a3.73,3.73,0,0,0,3.68-3.43A3.67,3.67,0,0,0,99.17,218.73Z" fill="url(#linear-gradient-11)"/>
        <path d="M94.21,219.49a1.85,1.85,0,0,0-1.76,1.42H86.07a3.62,3.62,0,0,1-.66-.09,3.21,3.21,0,0,1,.35-6.35h.31l.1-.28a3.64,3.64,0,0,1,3.49-2.43,3.74,3.74,0,0,1,3.23,1.81,4.27,4.27,0,0,1,1.06-.13,4.78,4.78,0,0,0-8.63.08,4.17,4.17,0,0,0-.33,8.17h0a2.87,2.87,0,0,0,1,.17h6.42a1.83,1.83,0,1,0,1.76-2.37Z" fill="#50e6ff"/>
      </g>
    </g>
    <g>
      <rect x="134.95" y="236.25" width="35" height="30" fill="#fff"/>
      <rect x="134.95" y="236.25" width="35" height="30" fill="#3c3c41" opacity="0.02"/>
      <rect x="134.95" y="236.25" width="35" height="30" fill="none" stroke="#75767a" stroke-miterlimit="10" stroke-width="0.5" opacity="0.5"/>
    </g>
    <use width="25.89" height="20.48" transform="translate(139.62 241.01)" xlink:href="#New_Symbol_5"/>
    <g>
      <rect x="324.52" y="236.25" width="35" height="30" fill="#fff"/>
      <rect x="324.52" y="236.25" width="35" height="30" fill="#3c3c41" opacity="0.02"/>
      <rect x="324.52" y="236.25" width="35" height="30" fill="none" stroke="#75767a" stroke-miterlimit="10" stroke-width="0.5" opacity="0.5"/>
    </g>
    <use width="25.89" height="20.48" transform="translate(329.21 241.01)" xlink:href="#New_Symbol_5"/>
    <g>
      <g>
        <line x1="152.37" y1="100.48" x2="152.37" y2="144.81" fill="none" stroke="#767676" stroke-linecap="round" stroke-linejoin="round" stroke-width="0.5"/>
        <path d="M338.58,100.48,159.83,134.26a3.76,3.76,0,0,0-3,3.55v7" fill="none" stroke="#767676" stroke-linecap="round" stroke-linejoin="round" stroke-width="0.5"/>
      </g>
      <g>
        <line x1="342.02" y1="100.48" x2="342.02" y2="144.81" fill="none" stroke="#767676" stroke-linecap="round" stroke-linejoin="round" stroke-width="0.5"/>
        <path d="M154.37,100.48l180,33.78a3.76,3.76,0,0,1,2.95,3.55v7" fill="none" stroke="#767676" stroke-linecap="round" stroke-linejoin="round" stroke-width="0.5"/>
      </g>
    </g>
    <g>
      <g>
        <line x1="152.37" y1="177.82" x2="152.37" y2="234.81" fill="none" stroke="#767676" stroke-linecap="round" stroke-linejoin="round" stroke-width="0.5"/>
        <path d="M332.84,178.81l-173,37.79a3.91,3.91,0,0,0-2.93,3.64v14.57" fill="none" stroke="#767676" stroke-linecap="round" stroke-linejoin="round" stroke-width="0.5"/>
      </g>
      <g>
        <line x1="342.02" y1="177.82" x2="342.02" y2="234.81" fill="none" stroke="#767676" stroke-linecap="round" stroke-linejoin="round" stroke-width="0.5"/>
        <path d="M160.23,178.81,334.38,216.6a3.91,3.91,0,0,1,2.93,3.64v14.57" fill="none" stroke="#767676" stroke-linecap="round" stroke-linejoin="round" stroke-width="0.5"/>
      </g>
    </g>
    <g>
      <rect x="134.95" y="146.17" width="35" height="30" fill="#fff"/>
      <rect x="134.95" y="146.17" width="35" height="30" fill="#3c3c41" opacity="0.02"/>
      <rect x="134.95" y="146.17" width="35" height="30" fill="none" stroke="#75767a" stroke-miterlimit="10" stroke-width="0.5" opacity="0.5"/>
    </g>
    <use width="25.89" height="20.48" transform="translate(139.62 150.93)" xlink:href="#New_Symbol_5"/>
    <g>
      <rect x="324.52" y="146.17" width="35" height="30" fill="#fff"/>
      <rect x="324.52" y="146.17" width="35" height="30" fill="#3c3c41" opacity="0.02"/>
      <rect x="324.52" y="146.17" width="35" height="30" fill="none" stroke="#75767a" stroke-miterlimit="10" stroke-width="0.5" opacity="0.5"/>
    </g>
    <use width="25.89" height="20.48" transform="translate(329.21 150.93)" xlink:href="#New_Symbol_5"/>
    <g>
      <line x1="172.57" y1="258.42" x2="321.87" y2="258.42" fill="none" stroke="#231f20" stroke-width="4"/>
      <line x1="172.57" y1="258.42" x2="321.87" y2="258.42" fill="none" stroke="#fff" stroke-width="2"/>
    </g>
    <g>
      <line x1="172.57" y1="241.03" x2="321.87" y2="241.03" fill="none" stroke="#231f20" stroke-width="4"/>
      <line x1="172.57" y1="241.03" x2="321.87" y2="241.03" fill="none" stroke="#fff" stroke-width="2"/>
    </g>
    <path d="M152.37,287.45v23.94a2,2,0,0,0,2,2H230" fill="none" stroke="#767676" stroke-linecap="round" stroke-linejoin="round" stroke-width="0.5"/>
    <path d="M342,287.45v23.94a2,2,0,0,1-2,2H269.73" fill="none" stroke="#767676" stroke-linecap="round" stroke-linejoin="round" stroke-width="0.5"/>
    <g>
      <g>
        <rect x="232.79" y="296.89" width="35" height="30" fill="#fff"/>
        <rect x="232.79" y="296.89" width="35" height="30" fill="#3c3c41" opacity="0.02"/>
        <rect x="232.79" y="296.89" width="35" height="30" fill="none" stroke="#75767a" stroke-miterlimit="10" stroke-width="0.5" opacity="0.5"/>
      </g>
      <use width="25.89" height="20.48" transform="translate(237.73 301.65)" xlink:href="#New_Symbol_5"/>
    </g>
    <line x1="171.57" y1="94.81" x2="320.91" y2="94.81" fill="none" stroke="#767676" stroke-linecap="round" stroke-linejoin="round" stroke-width="0.5"/>
    <path d="M227.61,37.82H157.37a5,5,0,0,0-5,5V61.46" fill="none" stroke="#3c3c41"/>
    <path d="M272.11,37.82H337a5,5,0,0,1,5,5V61.46" fill="none" stroke="#3c3c41"/>
    <path d="M89.88,65.62l2-6.09c.1-.31.2-.56.3-.81a4.31,4.31,0,0,0,.25-.71c.11-.26.16-.46.26-.71a3.94,3.94,0,0,0,.2-.82V50.34l4.57-2.28V44.31l5.33-2.69,5.32,2.69v7.61l.31,1.21c.1.36.25.72.35,1.07s.26.71.41,1.07.3.76.46,1.21l3,9.14Zm17.76-10.46-4.06,2v2.69l-5.33,2.69-4.92-2.43-1.32,4h8.37l8.78-4.37Zm-13.2,3.76,3,1.52V53.49l-3-1.52Zm3.81-9.54L95.46,50.8l2.79,1.37L101,50.8Zm.76-3.5v2.18l3,1.52V47.4Zm0,14.56,3-1.52V52l-3,1.52Zm3.81-17.15L100,44.71l2.79,1.37,2.79-1.37Zm3.8,2.59-3,1.52v8.12l3-1.52Zm4,18.21-1-2.94-5.88,2.94Z" fill="#505150"/>
    <use width="82.5" height="15" transform="translate(111.92 85.48)" xlink:href="#PHOTON"/>
    <use width="82.5" height="15" transform="translate(299.67 85.48)" xlink:href="#PHOTON"/>
    <g>
      <path d="M165.45,76.89a5.87,5.87,0,0,0-5.07-5.63,7.36,7.36,0,0,0-7.59-7,7.54,7.54,0,0,0-7.22,4.92,7,7,0,0,0-6.13,6.71,7.09,7.09,0,0,0,7.33,6.81h12.82A5.92,5.92,0,0,0,165.45,76.89Z" fill="url(#linear-gradient-12)"/>
      <path d="M160.09,78.4a.6.6,0,0,0-.6-.59H145.41a.61.61,0,0,0-.61.59v7.23a.61.61,0,0,0,.61.59h14.08a.6.6,0,0,0,.6-.59Z" fill="#821010"/>
      <rect x="145.65" y="78.65" width="4.15" height="1.84" fill="#e62323"/>
      <rect x="150.42" y="78.65" width="4.15" height="1.84" fill="#ff7381"/>
      <rect x="155.19" y="78.65" width="4.15" height="1.84" fill="#e62323"/>
      <rect x="145.65" y="81.11" width="1.72" height="1.84" fill="#e62323"/>
      <rect x="148" y="81.11" width="4.15" height="1.84" fill="#ff7381"/>
      <rect x="152.78" y="81.11" width="4.15" height="1.84" fill="#e62323"/>
      <rect x="145.65" y="83.56" width="4.15" height="1.84" fill="#e62323"/>
      <rect x="150.42" y="83.56" width="4.15" height="1.84" fill="#ff7381"/>
      <rect x="155.19" y="83.56" width="4.15" height="1.84" fill="#e62323"/>
    </g>
    <g>
      <path d="M354.23,76.89a5.87,5.87,0,0,0-5.07-5.63,7.36,7.36,0,0,0-7.59-7,7.54,7.54,0,0,0-7.22,4.92,7,7,0,0,0-6.13,6.71,7.09,7.09,0,0,0,7.33,6.81h12.81A5.93,5.93,0,0,0,354.23,76.89Z" fill="url(#linear-gradient-13)"/>
      <path d="M348.87,78.4a.61.61,0,0,0-.61-.59H334.19a.61.61,0,0,0-.61.59v7.23a.61.61,0,0,0,.61.59h14.07a.61.61,0,0,0,.61-.59Z" fill="#821010"/>
      <rect x="334.43" y="78.65" width="4.15" height="1.84" fill="#e62323"/>
      <rect x="339.2" y="78.65" width="4.15" height="1.84" fill="#ff7381"/>
      <rect x="343.97" y="78.65" width="4.15" height="1.84" fill="#e62323"/>
      <rect x="334.43" y="81.11" width="1.72" height="1.84" fill="#e62323"/>
      <rect x="346.4" y="81.11" width="1.72" height="1.84" fill="#ff7381"/>
      <rect x="336.77" y="81.11" width="4.15" height="1.84" fill="#ff7381"/>
      <rect x="341.56" y="81.11" width="4.15" height="1.84" fill="#e62323"/>
      <rect x="334.43" y="83.56" width="4.15" height="1.84" fill="#e62323"/>
      <rect x="339.2" y="83.56" width="4.15" height="1.84" fill="#ff7381"/>
      <rect x="343.97" y="83.56" width="4.15" height="1.84" fill="#e62323"/>
    </g>
  </g>
  <g id="Text">
    <g>
      <path d="M268.15,166.3v-9.8h2.79a3.09,3.09,0,0,1,2,.62,2,2,0,0,1,.75,1.62,2.33,2.33,0,0,1-.46,1.45,2.46,2.46,0,0,1-1.24.88v0a2.54,2.54,0,0,1,1.59.75,2.33,2.33,0,0,1,.59,1.65,2.56,2.56,0,0,1-.9,2,3.36,3.36,0,0,1-2.28.78Zm1.15-8.76v3.16h1.18a2.24,2.24,0,0,0,1.48-.45,1.58,1.58,0,0,0,.54-1.28c0-1-.62-1.43-1.88-1.43Zm0,4.2v3.52h1.56a2.32,2.32,0,0,0,1.57-.48,1.62,1.62,0,0,0,.56-1.31c0-1.16-.79-1.73-2.37-1.73Z" fill="#1e1e1e"/>
      <path d="M279,166.47a3.23,3.23,0,0,1-2.48-1,3.62,3.62,0,0,1-.93-2.6,3.75,3.75,0,0,1,1-2.75,3.46,3.46,0,0,1,2.6-1,3.13,3.13,0,0,1,2.44,1,4.4,4.4,0,0,1-.06,5.36A3.34,3.34,0,0,1,279,166.47Zm.08-6.39a2.14,2.14,0,0,0-1.71.74,3,3,0,0,0-.63,2,2.81,2.81,0,0,0,.64,2,2.15,2.15,0,0,0,1.7.72,2,2,0,0,0,1.67-.7,3.06,3.06,0,0,0,.58-2,3.13,3.13,0,0,0-.58-2A2.06,2.06,0,0,0,279,160.08Z" fill="#1e1e1e"/>
      <path d="M287.88,160.44a1.35,1.35,0,0,0-.84-.23,1.43,1.43,0,0,0-1.2.68,3,3,0,0,0-.49,1.84v3.57h-1.12v-7h1.12v1.44h0a2.46,2.46,0,0,1,.73-1.15,1.71,1.71,0,0,1,1.1-.41,1.92,1.92,0,0,1,.67.09Z" fill="#1e1e1e"/>
      <path d="M295.07,166.3H294v-1.19h0a2.61,2.61,0,0,1-2.41,1.36,2.64,2.64,0,0,1-2.11-.94,3.84,3.84,0,0,1-.79-2.56,4.18,4.18,0,0,1,.88-2.79,2.9,2.9,0,0,1,2.33-1,2.26,2.26,0,0,1,2.1,1.13h0v-4.33h1.12ZM294,163.14v-1a2,2,0,0,0-.56-1.43,1.87,1.87,0,0,0-1.42-.59,1.93,1.93,0,0,0-1.61.75,3.32,3.32,0,0,0-.59,2.08,3,3,0,0,0,.56,1.91,1.84,1.84,0,0,0,1.52.7,1.92,1.92,0,0,0,1.52-.67A2.55,2.55,0,0,0,294,163.14Z" fill="#1e1e1e"/>
      <path d="M303,163.08H298a2.66,2.66,0,0,0,.63,1.81,2.17,2.17,0,0,0,1.65.63,3.42,3.42,0,0,0,2.17-.78v1.06a4.08,4.08,0,0,1-2.44.67,3,3,0,0,1-2.33-1,3.91,3.91,0,0,1-.84-2.68,3.79,3.79,0,0,1,.92-2.66,3,3,0,0,1,2.3-1,2.61,2.61,0,0,1,2.13.89,3.69,3.69,0,0,1,.75,2.46Zm-1.15-1a2.24,2.24,0,0,0-.47-1.51,1.58,1.58,0,0,0-1.28-.54,1.78,1.78,0,0,0-1.34.57,2.59,2.59,0,0,0-.69,1.48Z" fill="#1e1e1e"/>
      <path d="M308.32,160.44a1.39,1.39,0,0,0-.85-.23,1.43,1.43,0,0,0-1.2.68,3.12,3.12,0,0,0-.48,1.84v3.57h-1.12v-7h1.12v1.44h0a2.47,2.47,0,0,1,.74-1.15,1.67,1.67,0,0,1,1.1-.41,2,2,0,0,1,.67.09Z" fill="#1e1e1e"/>
      <path d="M317.51,159.07a2.14,2.14,0,0,0-.14-.79,1.46,1.46,0,0,0-.38-.55,1.63,1.63,0,0,0-.57-.34,2.62,2.62,0,0,0-1.36,0,3.38,3.38,0,0,0-1.18.63,3.37,3.37,0,0,0-.52.48v-1.2a3.31,3.31,0,0,1,1.06-.7,3.72,3.72,0,0,1,1.42-.25,3.42,3.42,0,0,1,1.12.18,2.79,2.79,0,0,1,.89.51,2.41,2.41,0,0,1,.59.83,2.8,2.8,0,0,1,.21,1.12,3.9,3.9,0,0,1-.13,1.06,3.12,3.12,0,0,1-.41.89,4,4,0,0,1-.67.79,9.15,9.15,0,0,1-1,.78l-1.14.84a5.94,5.94,0,0,0-.71.66,1.88,1.88,0,0,0-.37.61,2.11,2.11,0,0,0-.1.7H319v1h-6v-.48a4.13,4.13,0,0,1,.13-1.11,3.12,3.12,0,0,1,.46-.91,4.65,4.65,0,0,1,.82-.86c.34-.29.76-.61,1.25-1a9.45,9.45,0,0,0,.89-.73,4.38,4.38,0,0,0,.58-.7,2.6,2.6,0,0,0,.31-.71A3.1,3.1,0,0,0,317.51,159.07Z" fill="#1e1e1e"/>
    </g>
    <g>
      <path d="M178.35,166.3v-9.8h2.79a3.09,3.09,0,0,1,2,.62,2,2,0,0,1,.74,1.62,2.38,2.38,0,0,1-.45,1.45,2.51,2.51,0,0,1-1.24.88v0a2.51,2.51,0,0,1,1.58.75,2.29,2.29,0,0,1,.6,1.65,2.54,2.54,0,0,1-.91,2,3.35,3.35,0,0,1-2.27.78Zm1.15-8.76v3.16h1.17a2.27,2.27,0,0,0,1.49-.45,1.58,1.58,0,0,0,.54-1.28c0-1-.63-1.43-1.88-1.43Zm0,4.2v3.52h1.56a2.36,2.36,0,0,0,1.57-.48,1.62,1.62,0,0,0,.55-1.31c0-1.16-.79-1.73-2.36-1.73Z" fill="#1e1e1e"/>
      <path d="M189.15,166.47a3.25,3.25,0,0,1-2.48-1,3.61,3.61,0,0,1-.92-2.6,3.79,3.79,0,0,1,1-2.75,3.46,3.46,0,0,1,2.6-1,3.16,3.16,0,0,1,2.45,1,3.85,3.85,0,0,1,.88,2.67,3.78,3.78,0,0,1-.95,2.69A3.33,3.33,0,0,1,189.15,166.47Zm.08-6.39a2.14,2.14,0,0,0-1.71.74,3,3,0,0,0-.63,2,2.85,2.85,0,0,0,.64,2,2.15,2.15,0,0,0,1.7.72,2,2,0,0,0,1.67-.7,3.06,3.06,0,0,0,.59-2,3.13,3.13,0,0,0-.59-2A2,2,0,0,0,189.23,160.08Z" fill="#1e1e1e"/>
      <path d="M198.08,160.44a1.39,1.39,0,0,0-.85-.23,1.43,1.43,0,0,0-1.2.68,3.12,3.12,0,0,0-.48,1.84v3.57h-1.12v-7h1.12v1.44h0a2.46,2.46,0,0,1,.73-1.15,1.69,1.69,0,0,1,1.1-.41,2,2,0,0,1,.67.09Z" fill="#1e1e1e"/>
      <path d="M205.27,166.3h-1.12v-1.19h0a2.82,2.82,0,0,1-4.51.42,3.84,3.84,0,0,1-.79-2.56,4.23,4.23,0,0,1,.87-2.79,2.9,2.9,0,0,1,2.33-1,2.26,2.26,0,0,1,2.1,1.13h0v-4.33h1.12Zm-1.12-3.16v-1a2,2,0,0,0-.56-1.43,1.9,1.9,0,0,0-1.42-.59,1.94,1.94,0,0,0-1.62.75,3.32,3.32,0,0,0-.59,2.08,2.94,2.94,0,0,0,.57,1.91,1.82,1.82,0,0,0,1.51.7,1.9,1.9,0,0,0,1.52-.67A2.56,2.56,0,0,0,204.15,163.14Z" fill="#1e1e1e"/>
      <path d="M213.17,163.08h-4.95a2.66,2.66,0,0,0,.63,1.81,2.18,2.18,0,0,0,1.66.63,3.44,3.44,0,0,0,2.17-.78v1.06a4.12,4.12,0,0,1-2.44.67,2.94,2.94,0,0,1-2.33-1,3.87,3.87,0,0,1-.85-2.68,3.8,3.8,0,0,1,.93-2.66,2.94,2.94,0,0,1,2.3-1,2.6,2.6,0,0,1,2.12.89,3.69,3.69,0,0,1,.76,2.46Zm-1.15-1a2.29,2.29,0,0,0-.47-1.51,1.6,1.6,0,0,0-1.28-.54,1.81,1.81,0,0,0-1.35.57,2.52,2.52,0,0,0-.68,1.48Z" fill="#1e1e1e"/>
      <path d="M218.51,160.44a1.37,1.37,0,0,0-.85-.23,1.43,1.43,0,0,0-1.2.68,3.12,3.12,0,0,0-.48,1.84v3.57h-1.12v-7H216v1.44h0a2.46,2.46,0,0,1,.73-1.15,1.71,1.71,0,0,1,1.1-.41,1.92,1.92,0,0,1,.67.09Z" fill="#1e1e1e"/>
      <path d="M227.38,166.3h-1.12v-8.47a2.8,2.8,0,0,1-.38.3l-.56.33c-.21.11-.43.21-.66.31a4.76,4.76,0,0,1-.67.22v-1.13a6.81,6.81,0,0,0,.78-.28,6.68,6.68,0,0,0,.81-.39,8,8,0,0,0,.76-.45,6.9,6.9,0,0,0,.61-.46h.43Z" fill="#1e1e1e"/>
    </g>
    <g>
      <path d="M172.36,75.3V79h-1.15V69.2h2.7a3.54,3.54,0,0,1,2.43.77,2.72,2.72,0,0,1,.87,2.16,3,3,0,0,1-1,2.28,3.69,3.69,0,0,1-2.6.89Zm0-5.06v4h1.2a2.66,2.66,0,0,0,1.82-.55,1.9,1.9,0,0,0,.62-1.53c0-1.29-.76-1.94-2.29-1.94Z" fill="#1e1e1e"/>
      <path d="M182.55,73.14a1.35,1.35,0,0,0-.84-.23,1.43,1.43,0,0,0-1.2.68,3,3,0,0,0-.49,1.84V79H178.9V72H180v1.44h0a2.46,2.46,0,0,1,.73-1.15,1.71,1.71,0,0,1,1.1-.41,1.68,1.68,0,0,1,.67.1Z" fill="#1e1e1e"/>
      <path d="M186.7,79.17a3.26,3.26,0,0,1-2.48-1,3.66,3.66,0,0,1-.93-2.61,3.75,3.75,0,0,1,1-2.75,3.46,3.46,0,0,1,2.6-1,3.13,3.13,0,0,1,2.44,1,3.82,3.82,0,0,1,.88,2.68,3.76,3.76,0,0,1-.94,2.68A3.34,3.34,0,0,1,186.7,79.17Zm.08-6.39a2.14,2.14,0,0,0-1.71.74,3,3,0,0,0-.63,2,2.85,2.85,0,0,0,.64,2,2.17,2.17,0,0,0,1.7.71,2,2,0,0,0,1.67-.7,3.06,3.06,0,0,0,.58-2,3.13,3.13,0,0,0-.58-2A2.06,2.06,0,0,0,186.78,72.78Z" fill="#1e1e1e"/>
      <path d="M197.09,72l-2.36,3.54L197.05,79h-1.31l-1.37-2.27c-.09-.14-.19-.32-.31-.53h0l-.32.53L192.31,79H191l2.38-3.43L191.12,72h1.3l1.36,2.4c.1.17.2.35.29.54h0L195.85,72Z" fill="#1e1e1e"/>
      <path d="M204,72l-3.22,8.12c-.57,1.45-1.38,2.18-2.42,2.18a2.5,2.5,0,0,1-.73-.09v-1a1.88,1.88,0,0,0,.66.13,1.37,1.37,0,0,0,1.27-1l.56-1.32-2.73-7h1.24l1.9,5.39c0,.07.07.25.14.53h0c0-.11.07-.28.14-.52l2-5.4Z" fill="#1e1e1e"/>
    </g>
    <g>
      <path d="M291.05,75.3V79H289.9V69.2h2.69A3.57,3.57,0,0,1,295,70a2.72,2.72,0,0,1,.87,2.16,3,3,0,0,1-1,2.28,3.69,3.69,0,0,1-2.6.89Zm0-5.06v4h1.2a2.66,2.66,0,0,0,1.82-.55,1.93,1.93,0,0,0,.62-1.53c0-1.29-.76-1.94-2.29-1.94Z" fill="#1e1e1e"/>
      <path d="M301.24,73.14a1.37,1.37,0,0,0-.85-.23,1.46,1.46,0,0,0-1.2.68,3.12,3.12,0,0,0-.48,1.84V79h-1.12V72h1.12v1.44h0a2.46,2.46,0,0,1,.73-1.15,1.71,1.71,0,0,1,1.1-.41,1.68,1.68,0,0,1,.67.1Z" fill="#1e1e1e"/>
      <path d="M305.38,79.17a3.24,3.24,0,0,1-2.47-1,3.66,3.66,0,0,1-.93-2.61,3.79,3.79,0,0,1,1-2.75,3.48,3.48,0,0,1,2.61-1,3.13,3.13,0,0,1,2.44,1,3.82,3.82,0,0,1,.88,2.68,3.72,3.72,0,0,1-.95,2.68A3.31,3.31,0,0,1,305.38,79.17Zm.09-6.39a2.14,2.14,0,0,0-1.71.74,3,3,0,0,0-.63,2,2.89,2.89,0,0,0,.63,2,2.21,2.21,0,0,0,1.71.71,2,2,0,0,0,1.67-.7,3.06,3.06,0,0,0,.58-2,3.13,3.13,0,0,0-.58-2A2.06,2.06,0,0,0,305.47,72.78Z" fill="#1e1e1e"/>
      <path d="M315.77,72l-2.35,3.54L315.73,79h-1.3l-1.38-2.27c-.08-.14-.19-.32-.3-.53h0l-.32.53L311,79h-1.3l2.39-3.43L309.81,72h1.3l1.36,2.4c.1.17.19.35.29.54h0L314.54,72Z" fill="#1e1e1e"/>
      <path d="M322.66,72l-3.22,8.12c-.58,1.45-1.38,2.18-2.42,2.18a2.5,2.5,0,0,1-.73-.09v-1a1.88,1.88,0,0,0,.66.13,1.37,1.37,0,0,0,1.27-1l.56-1.32-2.73-7h1.24l1.9,5.39c0,.07.07.25.14.53h0c0-.11.07-.28.14-.52l2-5.4Z" fill="#1e1e1e"/>
    </g>
    <g>
      <path d="M227.81,13.68h-1.15V3.87h1.15Z" fill="#1e1e1e"/>
      <path d="M236.05,13.68h-1.12v-4c0-1.49-.54-2.23-1.63-2.23a1.77,1.77,0,0,0-1.39.63,2.32,2.32,0,0,0-.55,1.6v4h-1.12v-7h1.12V7.84h0a2.53,2.53,0,0,1,2.29-1.33,2.15,2.15,0,0,1,1.76.74,3.3,3.3,0,0,1,.61,2.15Z" fill="#1e1e1e"/>
      <path d="M241.41,13.61a2.24,2.24,0,0,1-1,.22c-1.22,0-1.84-.69-1.84-2.05V7.63h-1.2v-1h1.2V5l1.13-.36V6.68h1.76v1h-1.76v4a1.62,1.62,0,0,0,.23,1,1,1,0,0,0,.8.3,1.16,1.16,0,0,0,.73-.23Z" fill="#1e1e1e"/>
      <path d="M248.53,10.46h-4.94a2.61,2.61,0,0,0,.63,1.8,2.14,2.14,0,0,0,1.65.64,3.45,3.45,0,0,0,2.18-.78v1.05a4.05,4.05,0,0,1-2.44.67,3,3,0,0,1-2.34-.95,3.94,3.94,0,0,1-.84-2.69,3.88,3.88,0,0,1,.92-2.66,3,3,0,0,1,2.3-1,2.64,2.64,0,0,1,2.13.89,3.72,3.72,0,0,1,.75,2.47Zm-1.15-1A2.29,2.29,0,0,0,246.92,8a1.61,1.61,0,0,0-1.29-.54,1.82,1.82,0,0,0-1.34.56,2.62,2.62,0,0,0-.69,1.49Z" fill="#1e1e1e"/>
      <path d="M253.88,7.81a1.39,1.39,0,0,0-.85-.22,1.42,1.42,0,0,0-1.2.67,3.15,3.15,0,0,0-.48,1.85v3.57h-1.12v-7h1.12V8.12h0A2.41,2.41,0,0,1,252.11,7a1.65,1.65,0,0,1,1.1-.42,1.93,1.93,0,0,1,.67.1Z" fill="#1e1e1e"/>
      <path d="M260.9,13.68h-1.12v-4c0-1.49-.54-2.23-1.62-2.23a1.76,1.76,0,0,0-1.39.63,2.32,2.32,0,0,0-.55,1.6v4h-1.13v-7h1.13V7.84h0a2.55,2.55,0,0,1,2.3-1.33,2.16,2.16,0,0,1,1.76.74,3.36,3.36,0,0,1,.6,2.15Z" fill="#1e1e1e"/>
      <path d="M268.64,10.46H263.7a2.61,2.61,0,0,0,.63,1.8,2.14,2.14,0,0,0,1.65.64,3.45,3.45,0,0,0,2.18-.78v1.05a4.05,4.05,0,0,1-2.44.67,3,3,0,0,1-2.33-.95,3.89,3.89,0,0,1-.85-2.69,3.88,3.88,0,0,1,.92-2.66,3,3,0,0,1,2.31-1,2.63,2.63,0,0,1,2.12.89,3.72,3.72,0,0,1,.75,2.47Zm-1.15-1A2.29,2.29,0,0,0,267,8a1.61,1.61,0,0,0-1.29-.54A1.84,1.84,0,0,0,264.4,8a2.62,2.62,0,0,0-.69,1.49Z" fill="#1e1e1e"/>
      <path d="M273.59,13.61a2.27,2.27,0,0,1-1,.22c-1.23,0-1.84-.69-1.84-2.05V7.63h-1.2v-1h1.2V5l1.12-.36V6.68h1.77v1h-1.77v4a1.61,1.61,0,0,0,.24,1,1,1,0,0,0,.79.3,1.17,1.17,0,0,0,.74-.23Z" fill="#1e1e1e"/>
    </g>
    <g>
      <path d="M49.54,209.34H47.13l-.69-2.18H43l-.69,2.18H39.87l3.57-9.8h2.61Zm-3.61-3.88-1-3.29a4.74,4.74,0,0,1-.17-.88h-.05a3.66,3.66,0,0,1-.17.85l-1.07,3.32Z" fill="#231f20"/>
      <path d="M56.1,209.34H49.81v-.9l3.52-4.51H50.16v-1.59h5.91v1.07l-3.33,4.34H56.1Z" fill="#231f20"/>
      <path d="M63.91,209.34H61.76v-1.07h0a2.42,2.42,0,0,1-2.14,1.24c-1.62,0-2.43-1-2.43-2.95v-4.22H59.3v4c0,1,.39,1.49,1.18,1.49a1.18,1.18,0,0,0,.93-.41,1.65,1.65,0,0,0,.35-1.1v-4h2.15Z" fill="#231f20"/>
      <path d="M70.29,204.29a1.87,1.87,0,0,0-.9-.21,1.34,1.34,0,0,0-1.11.51,2.29,2.29,0,0,0-.39,1.41v3.34H65.73v-7h2.16v1.3h0a1.86,1.86,0,0,1,1.84-1.42,1.25,1.25,0,0,1,.53.08Z" fill="#231f20"/>
      <path d="M77.53,206.46H73c.07,1,.71,1.52,1.92,1.52a3.72,3.72,0,0,0,2-.55V209a5.3,5.3,0,0,1-2.52.52A3.25,3.25,0,0,1,70.83,206a3.72,3.72,0,0,1,1-2.76,3.36,3.36,0,0,1,2.49-1,3.05,3.05,0,0,1,2.37.91,3.55,3.55,0,0,1,.83,2.47Zm-2-1.33c0-1-.41-1.5-1.22-1.5a1.17,1.17,0,0,0-.9.43,2,2,0,0,0-.46,1.07Z" fill="#231f20"/>
      <path d="M11.81,225.76v-2.18a4.36,4.36,0,0,0,1.3.75,4.25,4.25,0,0,0,1.4.24,3.17,3.17,0,0,0,.73-.07,1.66,1.66,0,0,0,.52-.21.92.92,0,0,0,.31-.31.77.77,0,0,0,.1-.4.84.84,0,0,0-.16-.51,1.83,1.83,0,0,0-.45-.42,5.76,5.76,0,0,0-.67-.37l-.84-.36a4.22,4.22,0,0,1-1.71-1.17,2.52,2.52,0,0,1-.57-1.66,2.6,2.6,0,0,1,.31-1.32,2.52,2.52,0,0,1,.84-.91,3.84,3.84,0,0,1,1.22-.52,6.45,6.45,0,0,1,1.48-.17,8,8,0,0,1,1.36.1,5.27,5.27,0,0,1,1.09.28v2a4,4,0,0,0-.54-.3,3.86,3.86,0,0,0-.6-.21,4.42,4.42,0,0,0-.61-.13,3.86,3.86,0,0,0-.58,0,2.9,2.9,0,0,0-.68.07,2.09,2.09,0,0,0-.52.2,1.1,1.1,0,0,0-.33.31.72.72,0,0,0-.11.41.76.76,0,0,0,.13.44,1.3,1.3,0,0,0,.37.37,3.06,3.06,0,0,0,.58.34c.22.11.48.23.77.35a8.56,8.56,0,0,1,1.05.52,3.44,3.44,0,0,1,.81.63,2.44,2.44,0,0,1,.51.79,2.82,2.82,0,0,1,.18,1,2.75,2.75,0,0,1-.31,1.37,2.56,2.56,0,0,1-.85.91,3.62,3.62,0,0,1-1.24.49,7.17,7.17,0,0,1-1.49.15,7.67,7.67,0,0,1-1.54-.14A4.44,4.44,0,0,1,11.81,225.76Z" fill="#231f20"/>
      <path d="M23.78,226.06a3.18,3.18,0,0,1-1.44.25q-2.28,0-2.28-2.37v-3.21H18.92v-1.59h1.14v-1.51l2.15-.62v2.13h1.57v1.59H22.21v2.83c0,.73.29,1.1.87,1.1a1.46,1.46,0,0,0,.7-.2Z" fill="#231f20"/>
      <path d="M30.82,226.14h-2v-1h0a2.28,2.28,0,0,1-2.08,1.17,2.18,2.18,0,0,1-1.61-.58,2.06,2.06,0,0,1-.58-1.54c0-1.36.8-2.14,2.41-2.35l1.9-.25c0-.77-.41-1.15-1.24-1.15a4.3,4.3,0,0,0-2.38.74v-1.62a5.17,5.17,0,0,1,1.23-.41,6.49,6.49,0,0,1,1.43-.18,2.64,2.64,0,0,1,3,3Zm-2-2.84v-.48l-1.27.17c-.7.09-1.05.41-1.05.95a.73.73,0,0,0,.26.6,1,1,0,0,0,.69.24,1.29,1.29,0,0,0,1-.42A1.48,1.48,0,0,0,28.79,223.3Z" fill="#231f20"/>
      <path d="M37.84,225.89a4.3,4.3,0,0,1-2.11.42,3.6,3.6,0,0,1-2.62-1,3.38,3.38,0,0,1-1-2.52A3.68,3.68,0,0,1,33.19,220a3.92,3.92,0,0,1,2.86-1,3.66,3.66,0,0,1,1.79.33v1.83a2.46,2.46,0,0,0-1.51-.51,2,2,0,0,0-1.48.55,2,2,0,0,0-.54,1.5,2,2,0,0,0,.52,1.46,1.92,1.92,0,0,0,1.43.53,2.84,2.84,0,0,0,1.58-.51Z" fill="#231f20"/>
      <path d="M46.27,226.14H43.68l-2.24-3.47h0v3.47H39.25V215.78h2.16v6.59h0l2.08-3.23h2.57l-2.51,3.29Z" fill="#231f20"/>
      <path d="M59.64,226.14H57.42v-4H53.36v4H51.15v-9.8h2.21v3.91h4.06v-3.91h2.22Z" fill="#231f20"/>
      <path d="M68.32,226.14H66.17v-1.07h0A2.44,2.44,0,0,1,64,226.31c-1.62,0-2.43-1-2.43-2.95v-4.22h2.15v4c0,1,.39,1.49,1.18,1.49a1.19,1.19,0,0,0,.93-.41,1.65,1.65,0,0,0,.35-1.1v-4h2.15Z" fill="#231f20"/>
      <path d="M72.32,225.33h0v.81H70.14V215.78H72.3v4.41h0A2.59,2.59,0,0,1,74.6,219a2.51,2.51,0,0,1,2.09.93,4.06,4.06,0,0,1,.73,2.54,4.32,4.32,0,0,1-.86,2.81,2.77,2.77,0,0,1-2.28,1.06A2.24,2.24,0,0,1,72.32,225.33Zm-.06-3v.72a1.63,1.63,0,0,0,.39,1.12,1.26,1.26,0,0,0,1,.45,1.35,1.35,0,0,0,1.15-.57,2.77,2.77,0,0,0,.4-1.62,2.2,2.2,0,0,0-.37-1.36,1.27,1.27,0,0,0-1.06-.49,1.39,1.39,0,0,0-1.08.49A1.85,1.85,0,0,0,72.26,222.37Z" fill="#231f20"/>
    </g>
    <g>
      <path d="M143.48,273.06h-2.83v8.77H139.5v-8.77h-2.83v-1h6.81Z" fill="#1e1e1e"/>
      <path d="M148.32,282a4.31,4.31,0,0,1-3.34-1.37,5.1,5.1,0,0,1-1.26-3.58,5.42,5.42,0,0,1,1.28-3.77,4.46,4.46,0,0,1,3.48-1.41,4.22,4.22,0,0,1,3.27,1.37A5.09,5.09,0,0,1,153,276.8a5.42,5.42,0,0,1-1.27,3.8A4.37,4.37,0,0,1,148.32,282Zm.08-9.09a3.16,3.16,0,0,0-2.51,1.11,4.94,4.94,0,0,0,0,5.84,3.08,3.08,0,0,0,2.46,1.11,3.22,3.22,0,0,0,2.54-1,4.33,4.33,0,0,0,.93-3,4.51,4.51,0,0,0-.9-3A3.11,3.11,0,0,0,148.4,272.9Z" fill="#1e1e1e"/>
      <path d="M162,281.83h-1.37l-1.64-2.75a5.6,5.6,0,0,0-.44-.65,3.11,3.11,0,0,0-.43-.45,1.54,1.54,0,0,0-.48-.24,1.73,1.73,0,0,0-.58-.08h-.94v4.17h-1.15V272h2.92a4.07,4.07,0,0,1,1.19.17,2.46,2.46,0,0,1,.94.48,2.23,2.23,0,0,1,.63.82,2.74,2.74,0,0,1,.23,1.15,2.85,2.85,0,0,1-.16.94,2.52,2.52,0,0,1-.44.76,2.71,2.71,0,0,1-.68.57,3.26,3.26,0,0,1-.9.36v0a2,2,0,0,1,.43.25,2.63,2.63,0,0,1,.34.33,4.2,4.2,0,0,1,.33.44c.11.16.23.35.36.56Zm-5.88-8.77v3.56h1.56a2.52,2.52,0,0,0,.79-.13,1.78,1.78,0,0,0,.63-.37,1.71,1.71,0,0,0,.42-.6,2,2,0,0,0,.15-.79,1.56,1.56,0,0,0-.51-1.23,2.21,2.21,0,0,0-1.47-.44Z" fill="#1e1e1e"/>
      <path d="M169.76,281.83h-1.12v-8.47a4,4,0,0,1-.38.29,5.93,5.93,0,0,1-.56.34,6.62,6.62,0,0,1-.66.3,4.84,4.84,0,0,1-.67.23v-1.14a6.64,6.64,0,0,0,.78-.27c.27-.12.55-.25.81-.39l.76-.45a6.9,6.9,0,0,0,.61-.46h.43Z" fill="#1e1e1e"/>
    </g>
    <g>
      <path d="M333.12,273.06h-2.83v8.77h-1.15v-8.77h-2.82v-1h6.8Z" fill="#1e1e1e"/>
      <path d="M338,282a4.33,4.33,0,0,1-3.34-1.37,5.14,5.14,0,0,1-1.25-3.58,5.42,5.42,0,0,1,1.28-3.77,4.46,4.46,0,0,1,3.48-1.41,4.22,4.22,0,0,1,3.27,1.37,5.09,5.09,0,0,1,1.24,3.57,5.47,5.47,0,0,1-1.27,3.8A4.4,4.4,0,0,1,338,282Zm.08-9.09a3.16,3.16,0,0,0-2.5,1.11,4.3,4.3,0,0,0-1,2.93,4.35,4.35,0,0,0,.94,2.91A3.07,3.07,0,0,0,338,281a3.23,3.23,0,0,0,2.55-1,4.33,4.33,0,0,0,.93-3,4.52,4.52,0,0,0-.91-3A3.08,3.08,0,0,0,338,272.9Z" fill="#1e1e1e"/>
      <path d="M351.59,281.83h-1.36l-1.64-2.75a5.6,5.6,0,0,0-.44-.65,2.69,2.69,0,0,0-.44-.45,1.4,1.4,0,0,0-.47-.24,1.77,1.77,0,0,0-.58-.08h-1v4.17h-1.14V272h2.92a4.07,4.07,0,0,1,1.19.17,2.46,2.46,0,0,1,.94.48,2.23,2.23,0,0,1,.63.82,2.74,2.74,0,0,1,.22,1.15,2.85,2.85,0,0,1-.15.94,2.52,2.52,0,0,1-.44.76,2.9,2.9,0,0,1-.68.57,3.26,3.26,0,0,1-.9.36v0a2.21,2.21,0,0,1,.43.25,2.63,2.63,0,0,1,.34.33,4.2,4.2,0,0,1,.33.44l.35.56Zm-5.88-8.77v3.56h1.56a2.53,2.53,0,0,0,.8-.13,2,2,0,0,0,.63-.37,1.71,1.71,0,0,0,.42-.6,2,2,0,0,0,.15-.79,1.56,1.56,0,0,0-.51-1.23,2.21,2.21,0,0,0-1.47-.44Z" fill="#1e1e1e"/>
      <path d="M359.73,274.59a1.87,1.87,0,0,0-.14-.78,1.59,1.59,0,0,0-.38-.56,1.47,1.47,0,0,0-.57-.33,2.35,2.35,0,0,0-.71-.11,2.37,2.37,0,0,0-.65.09,3.14,3.14,0,0,0-.61.25,4,4,0,0,0-.57.37,4,4,0,0,0-.52.49V272.8a3.49,3.49,0,0,1,1.06-.7,3.73,3.73,0,0,1,1.42-.24,3.6,3.6,0,0,1,1.12.17,2.69,2.69,0,0,1,.89.51,2.37,2.37,0,0,1,.59.83,2.85,2.85,0,0,1,.21,1.13,3.77,3.77,0,0,1-.13,1.05,3.24,3.24,0,0,1-.4.89,4.52,4.52,0,0,1-.68.8,9.15,9.15,0,0,1-1,.78c-.46.33-.84.61-1.13.84a5.37,5.37,0,0,0-.72.65,2.07,2.07,0,0,0-.36.61,1.91,1.91,0,0,0-.11.7h4.88v1H355.2v-.49a4.1,4.1,0,0,1,.14-1.11,3,3,0,0,1,.45-.91,5.39,5.39,0,0,1,.82-.86c.34-.28.76-.61,1.25-1a8.11,8.11,0,0,0,.89-.73,3.65,3.65,0,0,0,.58-.7,2.28,2.28,0,0,0,.31-.7A3.19,3.19,0,0,0,359.73,274.59Z" fill="#1e1e1e"/>
    </g>
    <g>
      <path d="M236.94,342.47v-9.8h2.79a3,3,0,0,1,2,.62,2,2,0,0,1,.74,1.62,2.35,2.35,0,0,1-1.69,2.32v0a2.49,2.49,0,0,1,1.58.75,2.29,2.29,0,0,1,.6,1.64,2.57,2.57,0,0,1-.9,2,3.36,3.36,0,0,1-2.28.78Zm1.15-8.77v3.17h1.18a2.24,2.24,0,0,0,1.48-.45,1.61,1.61,0,0,0,.54-1.29c0-.95-.63-1.43-1.88-1.43Zm0,4.2v3.53h1.56a2.34,2.34,0,0,0,1.57-.48,1.65,1.65,0,0,0,.56-1.31q0-1.74-2.37-1.74Z" fill="#1e1e1e"/>
      <path d="M255,342.47h-1.14v-6.58c0-.52,0-1.15.1-1.91h0a7.44,7.44,0,0,1-.29,1l-3.35,7.53h-.56L246.34,335a6.33,6.33,0,0,1-.29-1h0c0,.4.06,1,.06,1.93v6.56H245v-9.8h1.52l3,6.83a8.57,8.57,0,0,1,.46,1.18h0c.19-.54.35-.94.47-1.21l3.07-6.8H255Z" fill="#1e1e1e"/>
      <path d="M264.21,342.06a5.76,5.76,0,0,1-2.71.57,4.36,4.36,0,0,1-3.34-1.34,5,5,0,0,1-1.26-3.54,5.22,5.22,0,0,1,1.41-3.8,4.8,4.8,0,0,1,3.59-1.45,5.91,5.91,0,0,1,2.31.4v1.23a4.68,4.68,0,0,0-2.32-.59,3.57,3.57,0,0,0-2.74,1.13,4.25,4.25,0,0,0-1,3,4.07,4.07,0,0,0,1,2.86,3.34,3.34,0,0,0,2.58,1.06,4.79,4.79,0,0,0,2.55-.66Z" fill="#1e1e1e"/>
    </g>
    <g>
      <path d="M212.94,233.83H211.8v-6.58c0-.52,0-1.15.1-1.91h0a6.71,6.71,0,0,1-.29.95l-3.35,7.54h-.56l-3.35-7.48a6.67,6.67,0,0,1-.29-1h0q.06.6.06,1.92v6.57H203V224h1.52l3,6.84a9.07,9.07,0,0,1,.45,1.18h0c.19-.54.35-.94.47-1.21l3.07-6.81h1.43Z" fill="#1e1e1e"/>
      <path d="M220.61,233.83h-5.09V224h1.15v8.77h3.94Z" fill="#1e1e1e"/>
      <path d="M230.11,233.83h-1.27l-1-2.75h-4.16l-1,2.75h-1.28l3.76-9.81h1.19Zm-2.69-3.78-1.53-4.18a5.33,5.33,0,0,1-.16-.66h0a4,4,0,0,1-.16.66L224,230.05Z" fill="#1e1e1e"/>
      <path d="M238.61,233.16a6.63,6.63,0,0,1-3.28.83,4.51,4.51,0,0,1-3.4-1.35,5,5,0,0,1-1.29-3.58,5.1,5.1,0,0,1,1.44-3.74,4.89,4.89,0,0,1,3.64-1.46,6.17,6.17,0,0,1,2.69.52v1.27a5.16,5.16,0,0,0-2.82-.75,3.53,3.53,0,0,0-2.7,1.13,4.75,4.75,0,0,0-.07,5.87,3.44,3.44,0,0,0,2.65,1.06,4.06,4.06,0,0,0,2-.46v-2.75h-2.15v-1h3.3Z" fill="#1e1e1e"/>
      <path d="M245.87,230.12v3.71h-1.15V224h2.69a3.57,3.57,0,0,1,2.44.77,2.72,2.72,0,0,1,.86,2.16,3,3,0,0,1-1,2.28,3.62,3.62,0,0,1-2.59.89Zm0-5.06v4h1.2a2.68,2.68,0,0,0,1.81-.54,1.91,1.91,0,0,0,.63-1.54c0-1.29-.77-1.94-2.3-1.94Z" fill="#1e1e1e"/>
      <path d="M257.52,230.61h-4.95a2.61,2.61,0,0,0,.63,1.8,2.15,2.15,0,0,0,1.66.64,3.44,3.44,0,0,0,2.17-.78v1a4.05,4.05,0,0,1-2.44.67,3,3,0,0,1-2.33-1,3.89,3.89,0,0,1-.85-2.69,3.83,3.83,0,0,1,.93-2.66,3,3,0,0,1,2.3-1,2.63,2.63,0,0,1,2.12.89,3.72,3.72,0,0,1,.76,2.47Zm-1.15-1a2.29,2.29,0,0,0-.47-1.51,1.6,1.6,0,0,0-1.28-.54,1.84,1.84,0,0,0-1.35.56,2.55,2.55,0,0,0-.68,1.49Z" fill="#1e1e1e"/>
      <path d="M264.84,230.61h-4.95a2.61,2.61,0,0,0,.63,1.8,2.16,2.16,0,0,0,1.66.64,3.42,3.42,0,0,0,2.17-.78v1a4,4,0,0,1-2.44.67,3,3,0,0,1-2.33-1,3.89,3.89,0,0,1-.85-2.69,3.83,3.83,0,0,1,.93-2.66,3,3,0,0,1,2.3-1,2.63,2.63,0,0,1,2.12.89,3.67,3.67,0,0,1,.76,2.47Zm-1.15-1a2.29,2.29,0,0,0-.47-1.51,1.6,1.6,0,0,0-1.28-.54,1.84,1.84,0,0,0-1.35.56,2.55,2.55,0,0,0-.68,1.49Z" fill="#1e1e1e"/>
      <path d="M270.18,228a1.37,1.37,0,0,0-.85-.22,1.45,1.45,0,0,0-1.2.67,3.15,3.15,0,0,0-.48,1.85v3.57h-1.12v-7h1.12v1.44h0a2.41,2.41,0,0,1,.73-1.15,1.67,1.67,0,0,1,1.1-.42,1.89,1.89,0,0,1,.67.1Z" fill="#1e1e1e"/>
      <path d="M280.47,233.83h-5.09V224h1.15v8.77h3.94Z" fill="#1e1e1e"/>
      <path d="M282.4,225.05a.69.69,0,0,1-.51-.21.64.64,0,0,1-.22-.51.73.73,0,0,1,.73-.74.72.72,0,0,1,.52.21.73.73,0,0,1,.22.53.7.7,0,0,1-.22.51A.72.72,0,0,1,282.4,225.05Zm.54,8.78h-1.12v-7h1.12Z" fill="#1e1e1e"/>
      <path d="M291,233.83H289.9v-4q0-2.22-1.62-2.22a1.76,1.76,0,0,0-1.39.63,2.31,2.31,0,0,0-.55,1.59v4h-1.13v-7h1.13V228h0a2.55,2.55,0,0,1,2.3-1.33,2.14,2.14,0,0,1,1.76.75,3.31,3.31,0,0,1,.6,2.14Z" fill="#1e1e1e"/>
      <path d="M299,233.83h-1.57l-3.09-3.37h0v3.37h-1.12V223.46h1.12V230h0l2.94-3.2h1.46l-3.24,3.37Z" fill="#1e1e1e"/>
    </g>
    <g>
      <path d="M199,275.33h-1.15v-9.81H199Z" fill="#1e1e1e"/>
      <path d="M201.57,275.33v-9.81h2.79a3,3,0,0,1,2,.63,2,2,0,0,1,.74,1.62,2.35,2.35,0,0,1-1.69,2.32v0a2.49,2.49,0,0,1,1.58.75,2.29,2.29,0,0,1,.6,1.64,2.57,2.57,0,0,1-.9,2,3.36,3.36,0,0,1-2.28.78Zm1.15-8.77v3.17h1.18a2.19,2.19,0,0,0,1.48-.46,1.58,1.58,0,0,0,.54-1.28c0-.95-.63-1.43-1.88-1.43Zm0,4.2v3.53h1.56a2.34,2.34,0,0,0,1.57-.48,1.65,1.65,0,0,0,.56-1.31q0-1.74-2.37-1.74Z" fill="#1e1e1e"/>
      <path d="M216.93,274.66a6.63,6.63,0,0,1-3.28.83,4.5,4.5,0,0,1-3.4-1.35,5,5,0,0,1-1.29-3.58,5.13,5.13,0,0,1,1.43-3.74,4.93,4.93,0,0,1,3.65-1.46,6.17,6.17,0,0,1,2.69.52v1.27a5.16,5.16,0,0,0-2.82-.75,3.53,3.53,0,0,0-2.7,1.13,4.75,4.75,0,0,0-.07,5.87,3.44,3.44,0,0,0,2.65,1.06,4.06,4.06,0,0,0,2-.46v-2.75h-2.15v-1h3.3Z" fill="#1e1e1e"/>
      <path d="M220.35,271.62v3.71H219.2v-9.81h2.7a3.54,3.54,0,0,1,2.43.77,2.72,2.72,0,0,1,.87,2.16,3,3,0,0,1-1,2.28,3.65,3.65,0,0,1-2.6.89Zm0-5.06v4h1.2a2.71,2.71,0,0,0,1.82-.54,1.91,1.91,0,0,0,.62-1.54c0-1.29-.76-1.94-2.29-1.94Z" fill="#1e1e1e"/>
      <path d="M230.88,275.33v-9.81h2.79a3,3,0,0,1,2,.63,2,2,0,0,1,.75,1.62,2.34,2.34,0,0,1-1.7,2.32v0a2.54,2.54,0,0,1,1.59.75,2.28,2.28,0,0,1,.59,1.64,2.57,2.57,0,0,1-.9,2,3.35,3.35,0,0,1-2.27.78Zm1.15-8.77v3.17h1.17a2.21,2.21,0,0,0,1.49-.46,1.58,1.58,0,0,0,.54-1.28c0-.95-.63-1.43-1.88-1.43Zm0,4.2v3.53h1.56a2.31,2.31,0,0,0,1.56-.48,1.62,1.62,0,0,0,.56-1.31c0-1.16-.79-1.74-2.36-1.74Z" fill="#1e1e1e"/>
      <path d="M243.76,275.33h-1.12v-1.1h0a2.36,2.36,0,0,1-2.16,1.26,2.28,2.28,0,0,1-1.63-.55,1.91,1.91,0,0,1-.6-1.47c0-1.31.77-2.07,2.31-2.29l2.1-.29c0-1.19-.48-1.78-1.44-1.78a3.42,3.42,0,0,0-2.28.86v-1.15a4.32,4.32,0,0,1,2.38-.66q2.46,0,2.46,2.61Zm-1.12-3.54L241,272a2.63,2.63,0,0,0-1.17.39,1.09,1.09,0,0,0-.4,1,1,1,0,0,0,.37.83,1.39,1.39,0,0,0,1,.33,1.8,1.8,0,0,0,1.38-.59,2.09,2.09,0,0,0,.54-1.48Z" fill="#1e1e1e"/>
      <path d="M250.65,275a3.7,3.7,0,0,1-1.92.48,3.16,3.16,0,0,1-2.41-1,3.5,3.5,0,0,1-.92-2.53,3.89,3.89,0,0,1,1-2.78,3.46,3.46,0,0,1,2.64-1,3.8,3.8,0,0,1,1.63.34v1.15a2.87,2.87,0,0,0-1.67-.54,2.24,2.24,0,0,0-1.76.77,2.94,2.94,0,0,0-.68,2,2.79,2.79,0,0,0,.64,1.94,2.25,2.25,0,0,0,1.74.71,2.85,2.85,0,0,0,1.72-.61Z" fill="#1e1e1e"/>
      <path d="M258.15,275.33h-1.57L253.49,272h0v3.37h-1.12V265h1.12v6.57h0l2.94-3.2h1.47l-3.25,3.37Z" fill="#1e1e1e"/>
      <path d="M265,275.33h-1.12v-1.11h0a2.29,2.29,0,0,1-2.16,1.27c-1.66,0-2.5-1-2.5-3v-4.18h1.12v4c0,1.48.56,2.22,1.69,2.22a1.69,1.69,0,0,0,1.35-.61,2.32,2.32,0,0,0,.53-1.58v-4H265Z" fill="#1e1e1e"/>
      <path d="M268.37,274.32h0v4.23h-1.12V268.33h1.12v1.23h0a2.66,2.66,0,0,1,2.42-1.4,2.59,2.59,0,0,1,2.12.94,3.94,3.94,0,0,1,.75,2.52,4.32,4.32,0,0,1-.85,2.81,2.83,2.83,0,0,1-2.34,1.06A2.36,2.36,0,0,1,268.37,274.32Zm0-2.83v1a2,2,0,0,0,.56,1.47,1.85,1.85,0,0,0,1.43.61,1.89,1.89,0,0,0,1.6-.78,3.61,3.61,0,0,0,.58-2.17,2.81,2.81,0,0,0-.54-1.83,1.8,1.8,0,0,0-1.47-.66,2,2,0,0,0-1.57.68A2.46,2.46,0,0,0,268.35,271.49Z" fill="#1e1e1e"/>
      <path d="M284.53,275.33h-5.09v-9.81h1.15v8.77h3.94Z" fill="#1e1e1e"/>
      <path d="M286.45,266.55a.69.69,0,0,1-.51-.21.66.66,0,0,1-.21-.51.72.72,0,0,1,.21-.53.69.69,0,0,1,.51-.21.74.74,0,0,1,.53.21.72.72,0,0,1,.21.53.69.69,0,0,1-.21.51A.74.74,0,0,1,286.45,266.55Zm.55,8.78h-1.12v-7H287Z" fill="#1e1e1e"/>
      <path d="M295.08,275.33H294v-4c0-1.48-.54-2.22-1.63-2.22a1.77,1.77,0,0,0-1.39.63,2.36,2.36,0,0,0-.55,1.59v4h-1.12v-7h1.12v1.16h0a2.54,2.54,0,0,1,2.3-1.33,2.12,2.12,0,0,1,1.75.75,3.25,3.25,0,0,1,.61,2.14Z" fill="#1e1e1e"/>
      <path d="M303,275.33h-1.57L298.34,272h0v3.37h-1.13V265h1.13v6.57h0l2.94-3.2h1.47l-3.25,3.37Z" fill="#1e1e1e"/>
    </g>
    <g>
      <path d="M247.39,111.81h-1.15v-4.47h-5.07v4.47H240V102h1.15v4.3h5.07V102h1.15Z" fill="#767676"/>
      <path d="M257.55,111.81h-1.27l-1-2.74h-4.16l-1,2.74h-1.28l3.76-9.8h1.19ZM254.86,108l-1.54-4.17a4.18,4.18,0,0,1-.15-.66h0a3.27,3.27,0,0,1-.15.66L251.46,108Z" fill="#767676"/>
    </g>
    <g>
      <path d="M8.67,60.2V50.4h3.48q5.22,0,5.22,4.78a4.85,4.85,0,0,1-1.43,3.66,5.24,5.24,0,0,1-3.79,1.36Zm2.21-8v6.21H12a3,3,0,0,0,2.25-.86,3.27,3.27,0,0,0,.82-2.34A3,3,0,0,0,14.24,53,3.12,3.12,0,0,0,12,52.2Z" fill="#231f20"/>
      <path d="M24.61,60.2h-2v-1h0a2.29,2.29,0,0,1-2.09,1.17,2.19,2.19,0,0,1-1.6-.57,2.07,2.07,0,0,1-.58-1.54c0-1.36.8-2.15,2.41-2.36l1.9-.25c0-.76-.42-1.15-1.25-1.15a4.2,4.2,0,0,0-2.37.75V53.62a5.66,5.66,0,0,1,1.23-.41A6.41,6.41,0,0,1,21.61,53c2,0,3,1,3,3Zm-2-2.84v-.47l-1.27.16c-.7.09-1.06.41-1.06,1a.8.8,0,0,0,.26.61,1,1,0,0,0,.69.23,1.3,1.3,0,0,0,1-.42A1.53,1.53,0,0,0,22.58,57.36Z" fill="#231f20"/>
      <path d="M30.55,60.12a3.18,3.18,0,0,1-1.44.25A2.06,2.06,0,0,1,26.82,58V54.8H25.69V53.2h1.13V51.69L29,51.08V53.2h1.57v1.6H29v2.83c0,.73.29,1.09.87,1.09a1.5,1.5,0,0,0,.7-.2Z" fill="#231f20"/>
      <path d="M37.59,60.2h-2v-1h0a2.29,2.29,0,0,1-2.09,1.17,2.19,2.19,0,0,1-1.6-.57,2.07,2.07,0,0,1-.58-1.54c0-1.36.8-2.15,2.41-2.36l1.9-.25c0-.76-.41-1.15-1.24-1.15a4.21,4.21,0,0,0-2.38.75V53.62a5.66,5.66,0,0,1,1.23-.41A6.42,6.42,0,0,1,34.6,53a2.65,2.65,0,0,1,3,3Zm-2-2.84v-.47l-1.27.16c-.7.09-1,.41-1,1a.79.79,0,0,0,.25.61,1,1,0,0,0,.7.23,1.29,1.29,0,0,0,1-.42A1.53,1.53,0,0,0,35.56,57.36Z" fill="#231f20"/>
      <path d="M48.47,60a4.34,4.34,0,0,1-2.12.42,3.59,3.59,0,0,1-2.61-1,3.41,3.41,0,0,1-1-2.53,3.75,3.75,0,0,1,1.07-2.81,4,4,0,0,1,2.87-1,3.66,3.66,0,0,1,1.79.33v1.83a2.51,2.51,0,0,0-1.51-.5,1.87,1.87,0,0,0-2,2,2,2,0,0,0,.52,1.46,1.91,1.91,0,0,0,1.43.53,2.87,2.87,0,0,0,1.58-.51Z" fill="#231f20"/>
      <path d="M56.17,57.32H51.6c.08,1,.72,1.52,1.92,1.52a3.84,3.84,0,0,0,2-.54v1.55a5.31,5.31,0,0,1-2.53.52,3.26,3.26,0,0,1-3.57-3.56,3.73,3.73,0,0,1,1-2.76A3.35,3.35,0,0,1,53,53a3.07,3.07,0,0,1,2.37.91,3.51,3.51,0,0,1,.84,2.47Zm-2-1.33c0-1-.41-1.5-1.22-1.5a1.14,1.14,0,0,0-.9.43A2,2,0,0,0,51.59,56Z" fill="#231f20"/>
      <path d="M64.22,60.2H62.06V56.31c0-1.08-.38-1.62-1.16-1.62a1.14,1.14,0,0,0-.92.43,1.63,1.63,0,0,0-.36,1.09v4H57.46v-7h2.16v1.11h0A2.49,2.49,0,0,1,61.89,53c1.55,0,2.33,1,2.33,2.89Z" fill="#231f20"/>
      <path d="M70.16,60.12a3.2,3.2,0,0,1-1.45.25q-2.28,0-2.28-2.37V54.8H65.3V53.2h1.13V51.69l2.15-.61V53.2h1.58v1.6H68.58v2.83c0,.73.29,1.09.87,1.09a1.5,1.5,0,0,0,.71-.2Z" fill="#231f20"/>
      <path d="M77.61,57.32H73c.07,1,.71,1.52,1.92,1.52a3.78,3.78,0,0,0,2-.54v1.55a5.27,5.27,0,0,1-2.52.52,3.26,3.26,0,0,1-3.57-3.56,3.76,3.76,0,0,1,1-2.76,3.39,3.39,0,0,1,2.49-1,3.09,3.09,0,0,1,2.37.91,3.51,3.51,0,0,1,.84,2.47Zm-2-1.33c0-1-.41-1.5-1.22-1.5a1.14,1.14,0,0,0-.9.43A1.93,1.93,0,0,0,73,56Z" fill="#231f20"/>
      <path d="M83.46,55.15a1.88,1.88,0,0,0-.91-.21,1.29,1.29,0,0,0-1.1.52,2.26,2.26,0,0,0-.4,1.4V60.2H78.89v-7h2.16v1.3h0a1.87,1.87,0,0,1,1.85-1.42,1.52,1.52,0,0,1,.53.08Z" fill="#231f20"/>
    </g>
  </g>
</svg>
