<svg data-slug-id="azure-stack-hci" viewBox="0 0 36 28" xmlns="http://www.w3.org/2000/svg">
<path d="M34.3022 10.3211C33.2396 9.11914 31.7839 8.34223 30.2026 8.12742C30.1066 5.89708 29.1446 3.79475 27.5267 2.27288C25.9066 0.753269 23.7609 -0.0625235 21.5489 0.00374334C19.7504 -0.0236777 17.9886 0.513326 16.5078 1.54392C15.0271 2.57452 13.9005 4.04386 13.2858 5.7486C11.3914 5.9771 9.64099 6.88659 8.35444 8.3102C7.59806 9.1466 7.03823 10.1292 6.6886 11.1872H18.7747V21.452H28.9252H29.2931C31.0664 21.436 32.762 20.7162 34.0165 19.4502C35.2711 18.1843 35.9817 16.4727 36 14.6812C35.9681 13.0701 35.3647 11.5231 34.3022 10.3211Z" fill="url(#azure-stack-hci_6a11934d-7557-48ea-8112-64abeb905a10)"/>
<path d="M18.8478 10.5107H0V15.3575H18.8478V10.5107Z" fill="#0078D4"/>
<path d="M2.86553 14.087C3.5016 14.087 4.01724 13.5714 4.01724 12.9353C4.01724 12.2992 3.5016 11.7836 2.86553 11.7836C2.22946 11.7836 1.71382 12.2992 1.71382 12.9353C1.71382 13.5714 2.22946 14.087 2.86553 14.087Z" fill="#50E6FF"/>
<path d="M18.8478 16.6074H0V21.4542H18.8478V16.6074Z" fill="#0078D4"/>
<path d="M2.86553 20.1836C3.5016 20.1836 4.01724 19.668 4.01724 19.0319C4.01724 18.3959 3.5016 17.8802 2.86553 17.8802C2.22946 17.8802 1.71382 18.3959 1.71382 19.0319C1.71382 19.668 2.22946 20.1836 2.86553 20.1836Z" fill="#50E6FF"/>
<path d="M18.8478 22.7638H0V27.6106H18.8478V22.7638Z" fill="#0078D4"/>
<path d="M2.86553 26.3399C3.5016 26.3399 4.01724 25.8242 4.01724 25.1882C4.01724 24.5521 3.5016 24.0365 2.86553 24.0365C2.22946 24.0365 1.71382 24.5521 1.71382 25.1882C1.71382 25.8242 2.22946 26.3399 2.86553 26.3399Z" fill="#50E6FF"/>
<path d="M34.3022 10.3211C33.2396 9.11914 31.7839 8.34223 30.2026 8.12742C30.1066 5.89708 29.1446 3.79475 27.5267 2.27288C25.9066 0.753269 23.7609 -0.0625235 21.5489 0.00374334C19.7504 -0.0236777 17.9886 0.513326 16.5078 1.54392C15.0271 2.57452 13.9005 4.04386 13.2858 5.7486C11.3914 5.9771 9.64099 6.88659 8.35444 8.3102C7.59806 9.1466 7.03823 10.1292 6.6886 11.1872H18.7747V21.452H28.9252H29.2931C31.0664 21.436 32.762 20.7162 34.0165 19.4502C35.2711 18.1843 35.9817 16.4727 36 14.6812C35.9681 13.0701 35.3647 11.5231 34.3022 10.3211Z" fill="url(#azure-stack-hci_69b5f558-531a-46d2-8437-16827ce7221c)"/>
<path d="M18.8478 10.5107H0V15.3575H18.8478V10.5107Z" fill="#0078D4"/>
<path d="M2.86553 14.087C3.5016 14.087 4.01724 13.5714 4.01724 12.9353C4.01724 12.2992 3.5016 11.7836 2.86553 11.7836C2.22946 11.7836 1.71382 12.2992 1.71382 12.9353C1.71382 13.5714 2.22946 14.087 2.86553 14.087Z" fill="#50E6FF"/>
<path d="M18.8478 16.6074H0V21.4542H18.8478V16.6074Z" fill="#0078D4"/>
<path d="M2.86553 20.1836C3.5016 20.1836 4.01724 19.668 4.01724 19.0319C4.01724 18.3959 3.5016 17.8802 2.86553 17.8802C2.22946 17.8802 1.71382 18.3959 1.71382 19.0319C1.71382 19.668 2.22946 20.1836 2.86553 20.1836Z" fill="#50E6FF"/>
<path d="M18.8478 22.7638H0V27.6106H18.8478V22.7638Z" fill="#0078D4"/>
<path d="M2.86553 26.3399C3.5016 26.3399 4.01724 25.8242 4.01724 25.1882C4.01724 24.5521 3.5016 24.0365 2.86553 24.0365C2.22946 24.0365 1.71382 24.5521 1.71382 25.1882C1.71382 25.8242 2.22946 26.3399 2.86553 26.3399Z" fill="#50E6FF"/>
<path d="M34.3022 10.3211C33.2396 9.11914 31.7839 8.34223 30.2026 8.12742C30.1066 5.89708 29.1446 3.79475 27.5267 2.27288C25.9066 0.753269 23.7609 -0.0625235 21.5489 0.00374334C19.7504 -0.0236777 17.9886 0.513326 16.5078 1.54392C15.0271 2.57452 13.9005 4.04386 13.2858 5.7486C11.3914 5.9771 9.64099 6.88659 8.35444 8.3102C7.59806 9.1466 7.03823 10.1292 6.6886 11.1872H18.7747V21.452H28.9252H29.2931C31.0664 21.436 32.762 20.7162 34.0165 19.4502C35.2711 18.1843 35.9817 16.4727 36 14.6812C35.9681 13.0701 35.3647 11.5231 34.3022 10.3211Z" fill="url(#azure-stack-hci_05499cad-a3cc-473a-be9f-483769b21f67)"/>
<path d="M18.8478 10.5107H0V15.3575H18.8478V10.5107Z" fill="#0078D4"/>
<path d="M2.86553 14.087C3.5016 14.087 4.01724 13.5714 4.01724 12.9353C4.01724 12.2992 3.5016 11.7836 2.86553 11.7836C2.22946 11.7836 1.71382 12.2992 1.71382 12.9353C1.71382 13.5714 2.22946 14.087 2.86553 14.087Z" fill="#50E6FF"/>
<path d="M18.8478 16.6074H0V21.4542H18.8478V16.6074Z" fill="#0078D4"/>
<path d="M2.86553 20.1836C3.5016 20.1836 4.01724 19.668 4.01724 19.0319C4.01724 18.3959 3.5016 17.8802 2.86553 17.8802C2.22946 17.8802 1.71382 18.3959 1.71382 19.0319C1.71382 19.668 2.22946 20.1836 2.86553 20.1836Z" fill="#50E6FF"/>
<path d="M18.8478 22.7638H0V27.6106H18.8478V22.7638Z" fill="#0078D4"/>
<path d="M2.86553 26.3399C3.5016 26.3399 4.01724 25.8242 4.01724 25.1882C4.01724 24.5521 3.5016 24.0365 2.86553 24.0365C2.22946 24.0365 1.71382 24.5521 1.71382 25.1882C1.71382 25.8242 2.22946 26.3399 2.86553 26.3399Z" fill="#50E6FF"/>
<path d="M34.3022 10.3211C33.2396 9.11914 31.7839 8.34223 30.2026 8.12742C30.1066 5.89708 29.1446 3.79475 27.5267 2.27288C25.9066 0.753269 23.7609 -0.0625235 21.5489 0.00374334C19.7504 -0.0236777 17.9886 0.513326 16.5078 1.54392C15.0271 2.57452 13.9005 4.04386 13.2858 5.7486C11.3914 5.9771 9.64099 6.88659 8.35444 8.3102C7.59806 9.1466 7.03823 10.1292 6.6886 11.1872H18.7747V21.452H28.9252H29.2931C31.0664 21.436 32.762 20.7162 34.0165 19.4502C35.2711 18.1843 35.9817 16.4727 36 14.6812C35.9681 13.0701 35.3647 11.5231 34.3022 10.3211Z" fill="url(#azure-stack-hci_7891e48f-14c8-42dd-b87d-9dca3ec4c48c)"/>
<path d="M18.8478 10.5107H0V15.3575H18.8478V10.5107Z" fill="#0078D4"/>
<path d="M2.86553 14.087C3.5016 14.087 4.01724 13.5714 4.01724 12.9353C4.01724 12.2992 3.5016 11.7836 2.86553 11.7836C2.22946 11.7836 1.71382 12.2992 1.71382 12.9353C1.71382 13.5714 2.22946 14.087 2.86553 14.087Z" fill="#50E6FF"/>
<path d="M18.8478 16.6074H0V21.4542H18.8478V16.6074Z" fill="#0078D4"/>
<path d="M2.86553 20.1836C3.5016 20.1836 4.01724 19.668 4.01724 19.0319C4.01724 18.3959 3.5016 17.8802 2.86553 17.8802C2.22946 17.8802 1.71382 18.3959 1.71382 19.0319C1.71382 19.668 2.22946 20.1836 2.86553 20.1836Z" fill="#50E6FF"/>
<path d="M18.8478 22.7638H0V27.6106H18.8478V22.7638Z" fill="#0078D4"/>
<path d="M2.86553 26.3399C3.5016 26.3399 4.01724 25.8242 4.01724 25.1882C4.01724 24.5521 3.5016 24.0365 2.86553 24.0365C2.22946 24.0365 1.71382 24.5521 1.71382 25.1882C1.71382 25.8242 2.22946 26.3399 2.86553 26.3399Z" fill="#50E6FF"/>
<path d="M34.3022 10.3211C33.2396 9.11914 31.7839 8.34223 30.2026 8.12742C30.1066 5.89708 29.1446 3.79475 27.5267 2.27288C25.9066 0.753269 23.7609 -0.0625235 21.5489 0.00374334C19.7504 -0.0236777 17.9886 0.513326 16.5078 1.54392C15.0271 2.57452 13.9005 4.04386 13.2858 5.7486C11.3914 5.9771 9.64099 6.88659 8.35444 8.3102C7.59806 9.1466 7.03823 10.1292 6.6886 11.1872H18.7747V21.452H28.9252H29.2931C31.0664 21.436 32.762 20.7162 34.0165 19.4502C35.2711 18.1843 35.9817 16.4727 36 14.6812C35.9681 13.0701 35.3647 11.5231 34.3022 10.3211Z" fill="url(#azure-stack-hci_d40a3a8b-cb4d-4e53-9cb2-02a6dda99ffe)"/>
<path d="M18.8478 10.5107H0V15.3575H18.8478V10.5107Z" fill="#0078D4"/>
<path d="M2.86553 14.087C3.5016 14.087 4.01724 13.5714 4.01724 12.9353C4.01724 12.2992 3.5016 11.7836 2.86553 11.7836C2.22946 11.7836 1.71382 12.2992 1.71382 12.9353C1.71382 13.5714 2.22946 14.087 2.86553 14.087Z" fill="#50E6FF"/>
<path d="M18.8478 16.6074H0V21.4542H18.8478V16.6074Z" fill="#0078D4"/>
<path d="M2.86553 20.1836C3.5016 20.1836 4.01724 19.668 4.01724 19.0319C4.01724 18.3959 3.5016 17.8802 2.86553 17.8802C2.22946 17.8802 1.71382 18.3959 1.71382 19.0319C1.71382 19.668 2.22946 20.1836 2.86553 20.1836Z" fill="#50E6FF"/>
<path d="M18.8478 22.7638H0V27.6106H18.8478V22.7638Z" fill="#0078D4"/>
<path d="M2.86553 26.3399C3.5016 26.3399 4.01724 25.8242 4.01724 25.1882C4.01724 24.5521 3.5016 24.0365 2.86553 24.0365C2.22946 24.0365 1.71382 24.5521 1.71382 25.1882C1.71382 25.8242 2.22946 26.3399 2.86553 26.3399Z" fill="#50E6FF"/>
<path d="M34.3022 10.3211C33.2396 9.11914 31.7839 8.34223 30.2026 8.12742C30.1066 5.89708 29.1446 3.79475 27.5267 2.27288C25.9066 0.753269 23.7609 -0.0625235 21.5489 0.00374334C19.7504 -0.0236777 17.9886 0.513326 16.5078 1.54392C15.0271 2.57452 13.9005 4.04386 13.2858 5.7486C11.3914 5.9771 9.64099 6.88659 8.35444 8.3102C7.59806 9.1466 7.03823 10.1292 6.6886 11.1872H18.7747V21.452H28.9252H29.2931C31.0664 21.436 32.762 20.7162 34.0165 19.4502C35.2711 18.1843 35.9817 16.4727 36 14.6812C35.9681 13.0701 35.3647 11.5231 34.3022 10.3211Z" fill="url(#azure-stack-hci_ef06d980-c6dd-4e1f-b800-ff6587aa1fd8)"/>
<path d="M18.8478 10.5107H0V15.3575H18.8478V10.5107Z" fill="#0078D4"/>
<path d="M2.86553 14.087C3.5016 14.087 4.01724 13.5714 4.01724 12.9353C4.01724 12.2992 3.5016 11.7836 2.86553 11.7836C2.22946 11.7836 1.71382 12.2992 1.71382 12.9353C1.71382 13.5714 2.22946 14.087 2.86553 14.087Z" fill="#50E6FF"/>
<path d="M18.8478 16.6074H0V21.4542H18.8478V16.6074Z" fill="#0078D4"/>
<path d="M2.86553 20.1836C3.5016 20.1836 4.01724 19.668 4.01724 19.0319C4.01724 18.3959 3.5016 17.8802 2.86553 17.8802C2.22946 17.8802 1.71382 18.3959 1.71382 19.0319C1.71382 19.668 2.22946 20.1836 2.86553 20.1836Z" fill="#50E6FF"/>
<path d="M18.8478 22.7638H0V27.6106H18.8478V22.7638Z" fill="#0078D4"/>
<path d="M2.86553 26.3399C3.5016 26.3399 4.01724 25.8242 4.01724 25.1882C4.01724 24.5521 3.5016 24.0365 2.86553 24.0365C2.22946 24.0365 1.71382 24.5521 1.71382 25.1882C1.71382 25.8242 2.22946 26.3399 2.86553 26.3399Z" fill="#50E6FF"/>
<path d="M34.3022 10.3211C33.2396 9.11914 31.7839 8.34223 30.2026 8.12742C30.1066 5.89708 29.1446 3.79475 27.5267 2.27288C25.9066 0.753269 23.7609 -0.0625235 21.5489 0.00374334C19.7504 -0.0236777 17.9886 0.513326 16.5078 1.54392C15.0271 2.57452 13.9005 4.04386 13.2858 5.7486C11.3914 5.9771 9.64099 6.88659 8.35444 8.3102C7.59806 9.1466 7.03823 10.1292 6.6886 11.1872H18.7747V21.452H28.9252H29.2931C31.0664 21.436 32.762 20.7162 34.0165 19.4502C35.2711 18.1843 35.9817 16.4727 36 14.6812C35.9681 13.0701 35.3647 11.5231 34.3022 10.3211Z" fill="url(#azure-stack-hci_d1ef1007-bc68-40cb-b1ef-7396be72c7e7)"/>
<path d="M18.8478 10.5107H0V15.3575H18.8478V10.5107Z" fill="#0078D4"/>
<path d="M2.86553 14.087C3.5016 14.087 4.01724 13.5714 4.01724 12.9353C4.01724 12.2992 3.5016 11.7836 2.86553 11.7836C2.22946 11.7836 1.71382 12.2992 1.71382 12.9353C1.71382 13.5714 2.22946 14.087 2.86553 14.087Z" fill="#50E6FF"/>
<path d="M18.8478 16.6074H0V21.4542H18.8478V16.6074Z" fill="#0078D4"/>
<path d="M2.86553 20.1836C3.5016 20.1836 4.01724 19.668 4.01724 19.0319C4.01724 18.3959 3.5016 17.8802 2.86553 17.8802C2.22946 17.8802 1.71382 18.3959 1.71382 19.0319C1.71382 19.668 2.22946 20.1836 2.86553 20.1836Z" fill="#50E6FF"/>
<path d="M18.8478 22.7638H0V27.6106H18.8478V22.7638Z" fill="#0078D4"/>
<path d="M2.86553 26.3399C3.5016 26.3399 4.01724 25.8242 4.01724 25.1882C4.01724 24.5521 3.5016 24.0365 2.86553 24.0365C2.22946 24.0365 1.71382 24.5521 1.71382 25.1882C1.71382 25.8242 2.22946 26.3399 2.86553 26.3399Z" fill="#50E6FF"/>
<path d="M34.3022 10.3211C33.2396 9.11914 31.7839 8.34223 30.2026 8.12742C30.1066 5.89708 29.1446 3.79475 27.5267 2.27288C25.9066 0.753269 23.7609 -0.0625235 21.5489 0.00374334C19.7504 -0.0236777 17.9886 0.513326 16.5078 1.54392C15.0271 2.57452 13.9005 4.04386 13.2858 5.7486C11.3914 5.9771 9.64099 6.88659 8.35444 8.3102C7.59806 9.1466 7.03823 10.1292 6.6886 11.1872H18.7747V21.452H28.9252H29.2931C31.0664 21.436 32.762 20.7162 34.0165 19.4502C35.2711 18.1843 35.9817 16.4727 36 14.6812C35.9681 13.0701 35.3647 11.5231 34.3022 10.3211Z" fill="url(#azure-stack-hci_a1883467-0827-4469-bfa4-6ee320e53eec)"/>
<path d="M18.8478 10.5107H0V15.3575H18.8478V10.5107Z" fill="#0078D4"/>
<path d="M2.86553 14.087C3.5016 14.087 4.01724 13.5714 4.01724 12.9353C4.01724 12.2992 3.5016 11.7836 2.86553 11.7836C2.22946 11.7836 1.71382 12.2992 1.71382 12.9353C1.71382 13.5714 2.22946 14.087 2.86553 14.087Z" fill="#50E6FF"/>
<path d="M18.8478 16.6074H0V21.4542H18.8478V16.6074Z" fill="#0078D4"/>
<path d="M2.86553 20.1836C3.5016 20.1836 4.01724 19.668 4.01724 19.0319C4.01724 18.3959 3.5016 17.8802 2.86553 17.8802C2.22946 17.8802 1.71382 18.3959 1.71382 19.0319C1.71382 19.668 2.22946 20.1836 2.86553 20.1836Z" fill="#50E6FF"/>
<path d="M18.8478 22.7638H0V27.6106H18.8478V22.7638Z" fill="#0078D4"/>
<path d="M2.86553 26.3399C3.5016 26.3399 4.01724 25.8242 4.01724 25.1882C4.01724 24.5521 3.5016 24.0365 2.86553 24.0365C2.22946 24.0365 1.71382 24.5521 1.71382 25.1882C1.71382 25.8242 2.22946 26.3399 2.86553 26.3399Z" fill="#50E6FF"/>
<path d="M34.3022 10.3211C33.2396 9.11914 31.7839 8.34223 30.2026 8.12742C30.1066 5.89708 29.1446 3.79475 27.5267 2.27288C25.9066 0.753269 23.7609 -0.0625235 21.5489 0.00374334C19.7504 -0.0236777 17.9886 0.513326 16.5078 1.54392C15.0271 2.57452 13.9005 4.04386 13.2858 5.7486C11.3914 5.9771 9.64099 6.88659 8.35444 8.3102C7.59806 9.1466 7.03823 10.1292 6.6886 11.1872H18.7747V21.452H28.9252H29.2931C31.0664 21.436 32.762 20.7162 34.0165 19.4502C35.2711 18.1843 35.9817 16.4727 36 14.6812C35.9681 13.0701 35.3647 11.5231 34.3022 10.3211Z" fill="url(#azure-stack-hci_4bb6119a-818a-42fd-98bf-0fd6ca3bfd19)"/>
<path d="M18.8478 10.5107H0V15.3575H18.8478V10.5107Z" fill="#50E6FF"/>
<path d="M2.86553 14.087C3.5016 14.087 4.01724 13.5714 4.01724 12.9353C4.01724 12.2992 3.5016 11.7836 2.86553 11.7836C2.22946 11.7836 1.71382 12.2992 1.71382 12.9353C1.71382 13.5714 2.22946 14.087 2.86553 14.087Z" fill="white"/>
<path d="M18.8478 16.6074H0V21.4542H18.8478V16.6074Z" fill="#50E6FF"/>
<path d="M2.86553 20.1836C3.5016 20.1836 4.01724 19.668 4.01724 19.0319C4.01724 18.3959 3.5016 17.8802 2.86553 17.8802C2.22946 17.8802 1.71382 18.3959 1.71382 19.0319C1.71382 19.668 2.22946 20.1836 2.86553 20.1836Z" fill="white"/>
<path d="M18.8478 22.7638H0V27.6106H18.8478V22.7638Z" fill="#50E6FF"/>
<path d="M2.86553 26.3399C3.5016 26.3399 4.01724 25.8242 4.01724 25.1882C4.01724 24.5521 3.5016 24.0365 2.86553 24.0365C2.22946 24.0365 1.71382 24.5521 1.71382 25.1882C1.71382 25.8242 2.22946 26.3399 2.86553 26.3399Z" fill="white"/>
<defs>
<linearGradient id="azure-stack-hci_6a11934d-7557-48ea-8112-64abeb905a10" x1="22.1371" y1="24.8777" x2="20.4845" y2="-0.146163" gradientUnits="userSpaceOnUse">
<stop stop-color="#0078D4"/>
<stop offset="0.16" stop-color="#1380DA"/>
<stop offset="0.53" stop-color="#3C91E5"/>
<stop offset="0.82" stop-color="#559CEC"/>
<stop offset="1" stop-color="#5EA0EF"/>
</linearGradient>
<linearGradient id="azure-stack-hci_69b5f558-531a-46d2-8437-16827ce7221c" x1="22.1371" y1="24.8777" x2="20.4845" y2="-0.146163" gradientUnits="userSpaceOnUse">
<stop stop-color="#0078D4"/>
<stop offset="0.16" stop-color="#1380DA"/>
<stop offset="0.53" stop-color="#3C91E5"/>
<stop offset="0.82" stop-color="#559CEC"/>
<stop offset="1" stop-color="#5EA0EF"/>
</linearGradient>
<linearGradient id="azure-stack-hci_05499cad-a3cc-473a-be9f-483769b21f67" x1="22.1371" y1="24.8777" x2="20.4845" y2="-0.146163" gradientUnits="userSpaceOnUse">
<stop stop-color="#0078D4"/>
<stop offset="0.16" stop-color="#1380DA"/>
<stop offset="0.53" stop-color="#3C91E5"/>
<stop offset="0.82" stop-color="#559CEC"/>
<stop offset="1" stop-color="#5EA0EF"/>
</linearGradient>
<linearGradient id="azure-stack-hci_7891e48f-14c8-42dd-b87d-9dca3ec4c48c" x1="22.1371" y1="24.8777" x2="20.4845" y2="-0.146163" gradientUnits="userSpaceOnUse">
<stop stop-color="#0078D4"/>
<stop offset="0.16" stop-color="#1380DA"/>
<stop offset="0.53" stop-color="#3C91E5"/>
<stop offset="0.82" stop-color="#559CEC"/>
<stop offset="1" stop-color="#5EA0EF"/>
</linearGradient>
<linearGradient id="azure-stack-hci_d40a3a8b-cb4d-4e53-9cb2-02a6dda99ffe" x1="22.1371" y1="24.8777" x2="20.4845" y2="-0.146163" gradientUnits="userSpaceOnUse">
<stop stop-color="#0078D4"/>
<stop offset="0.16" stop-color="#1380DA"/>
<stop offset="0.53" stop-color="#3C91E5"/>
<stop offset="0.82" stop-color="#559CEC"/>
<stop offset="1" stop-color="#5EA0EF"/>
</linearGradient>
<linearGradient id="azure-stack-hci_ef06d980-c6dd-4e1f-b800-ff6587aa1fd8" x1="22.1371" y1="24.8777" x2="20.4845" y2="-0.146163" gradientUnits="userSpaceOnUse">
<stop stop-color="#0078D4"/>
<stop offset="0.16" stop-color="#1380DA"/>
<stop offset="0.53" stop-color="#3C91E5"/>
<stop offset="0.82" stop-color="#559CEC"/>
<stop offset="1" stop-color="#5EA0EF"/>
</linearGradient>
<linearGradient id="azure-stack-hci_d1ef1007-bc68-40cb-b1ef-7396be72c7e7" x1="22.1371" y1="24.8777" x2="20.4845" y2="-0.146163" gradientUnits="userSpaceOnUse">
<stop stop-color="#0078D4"/>
<stop offset="0.16" stop-color="#1380DA"/>
<stop offset="0.53" stop-color="#3C91E5"/>
<stop offset="0.82" stop-color="#559CEC"/>
<stop offset="1" stop-color="#5EA0EF"/>
</linearGradient>
<linearGradient id="azure-stack-hci_a1883467-0827-4469-bfa4-6ee320e53eec" x1="22.1371" y1="24.8777" x2="20.4845" y2="-0.146163" gradientUnits="userSpaceOnUse">
<stop stop-color="#0078D4"/>
<stop offset="0.16" stop-color="#1380DA"/>
<stop offset="0.53" stop-color="#3C91E5"/>
<stop offset="0.82" stop-color="#559CEC"/>
<stop offset="1" stop-color="#5EA0EF"/>
</linearGradient>
<linearGradient id="azure-stack-hci_4bb6119a-818a-42fd-98bf-0fd6ca3bfd19" x1="22.1371" y1="24.8777" x2="20.4845" y2="-0.146163" gradientUnits="userSpaceOnUse">
<stop stop-color="#0078D4"/>
<stop offset="0.16" stop-color="#1380DA"/>
<stop offset="0.53" stop-color="#3C91E5"/>
<stop offset="0.82" stop-color="#559CEC"/>
<stop offset="1" stop-color="#5EA0EF"/>
</linearGradient>
</defs>
</svg>
