<svg width="281" height="320" viewBox="0 0 281 320" fill="none" xmlns="http://www.w3.org/2000/svg">
<path fill-rule="evenodd" clip-rule="evenodd" d="M37.9731 255.645C37.9393 252.155 39.945 248.007 45.425 243.455C50.8575 238.942 59.0593 234.612 69.6725 230.839C90.847 223.312 120.487 218.398 153.519 218.07C186.55 217.741 216.28 222.065 237.596 229.169C248.28 232.731 256.564 236.897 262.083 241.3C267.65 245.742 269.736 249.851 269.769 253.34C269.803 256.83 267.798 260.979 262.318 265.531C256.885 270.043 248.683 274.373 238.07 278.146C216.896 285.673 187.255 290.587 154.224 290.915C121.193 291.244 91.4628 286.921 70.1467 279.816C59.4625 276.255 51.1784 272.089 45.6596 267.685C40.0925 263.243 38.0068 259.135 37.9731 255.645ZM153.416 207.502C119.559 207.839 88.7334 212.864 66.22 220.867C54.9891 224.859 45.5414 229.693 38.8133 235.282C32.1327 240.831 27.4666 247.721 27.5443 255.749C27.622 263.776 32.4206 270.572 39.2074 275.988C46.0425 281.442 55.582 286.086 66.8879 289.855C89.552 297.409 120.469 301.82 154.326 301.483C188.184 301.146 219.009 296.122 241.523 288.118C252.753 284.126 262.201 279.292 268.929 273.704C275.61 268.154 280.276 261.264 280.198 253.236C280.12 245.209 275.322 238.413 268.535 232.997C261.7 227.543 252.161 222.899 240.855 219.131C218.191 211.576 187.274 207.165 153.416 207.502ZM251.336 252.753C251.447 267.694 207.897 280.14 154.063 280.553C100.23 280.966 56.4989 269.188 56.3873 254.247C56.2758 239.306 99.826 226.86 153.659 226.447C207.493 226.034 251.224 237.812 251.336 252.753Z" fill="url(#paint0_linear)"/>
<path d="M276.212 137.955C275.517 112.593 256.884 91.3166 231.994 87.6532C230.882 51.7235 201.403 23.2615 165.806 23.966C137.44 23.5433 111.994 41.4377 102.538 68.4907C72.5036 72.4359 49.9775 98.0799 49.2822 128.655C50.1165 163.458 78.7608 190.934 113.106 190.088H118.668H222.121H224.902C253.269 189.666 275.934 166.558 276.212 137.955Z" fill="url(#paint1_linear)"/>
<path d="M227.129 114.002C226.434 88.6395 207.801 67.3635 182.911 63.7C181.799 27.7703 152.32 -0.691703 116.723 0.0128013C88.3569 -0.409902 62.9108 17.4845 53.4554 44.5375C23.4206 48.4827 0.894469 74.1267 0.199219 104.702C1.03352 139.505 29.6778 166.98 64.0232 166.135H69.5852H173.038H175.819C204.186 165.712 226.851 142.464 227.129 114.002Z" fill="url(#paint2_linear)"/>
<path d="M118.808 313.8C118.808 317.182 116.166 320 112.829 320C112.69 320 112.69 320 112.551 320H16.6064C13.2692 320 10.4882 317.182 10.4882 313.8V313.659V139.647C10.4882 136.265 13.1301 133.447 16.4673 133.447H16.6064H112.551C115.888 133.447 118.669 136.124 118.669 139.506C118.669 139.647 118.669 139.647 118.669 139.788L118.808 313.8Z" fill="url(#paint3_linear)"/>
<path d="M26.0618 198.825C26.0618 192.343 31.3458 186.989 37.7421 186.989C37.8811 186.989 38.1592 186.989 38.2983 186.989H92.5278C98.9241 187.13 103.93 192.484 103.93 198.825C103.93 205.306 98.785 210.801 92.3887 210.801H92.2497H38.0202C31.4848 210.942 26.2009 205.588 26.0618 198.825C26.0618 198.965 26.0618 198.965 26.0618 198.825Z" fill="url(#paint4_linear)"/>
<path d="M26.0618 163.599C26.0618 156.977 31.3457 151.623 37.8811 151.623C38.0201 151.623 38.1592 151.623 38.2983 151.623H92.5278C98.9241 151.764 103.93 157.118 103.93 163.599C103.93 170.081 98.646 175.435 92.2497 175.435H38.0202C31.6238 175.576 26.2009 170.363 26.0618 163.74V163.599Z" fill="url(#paint5_linear)"/>
<path d="M38.8517 171.631C43.229 171.631 46.7776 168.036 46.7776 163.6C46.7776 159.164 43.229 155.569 38.8517 155.569C34.4744 155.569 30.9258 159.164 30.9258 163.6C30.9258 168.036 34.4744 171.631 38.8517 171.631Z" fill="#50E6FF"/>
<path d="M38.8517 206.857C43.229 206.857 46.7776 203.261 46.7776 198.825C46.7776 194.39 43.229 190.794 38.8517 190.794C34.4744 190.794 30.9258 194.39 30.9258 198.825C30.9258 203.261 34.4744 206.857 38.8517 206.857Z" fill="#50E6FF"/>
<path fill-rule="evenodd" clip-rule="evenodd" d="M158.235 166.497L158.235 239.898L149.58 239.898L149.58 166.497L158.235 166.497Z" fill="#50E6FF"/>
<path d="M153.851 267.444C163.835 267.444 171.928 259.243 171.928 249.126C171.928 239.01 163.835 230.809 153.851 230.809C143.868 230.809 135.775 239.01 135.775 249.126C135.775 259.243 143.868 267.444 153.851 267.444Z" fill="url(#paint6_linear)"/>
<defs>
<linearGradient id="paint0_linear" x1="95.6037" y1="269.438" x2="149.029" y2="253.294" gradientUnits="userSpaceOnUse">
<stop stop-color="#003067"/>
<stop offset="0.806933" stop-color="#0078D4"/>
</linearGradient>
<linearGradient id="paint1_linear" x1="162.908" y1="48.8115" x2="162.908" y2="243.138" gradientUnits="userSpaceOnUse">
<stop offset="0.1789" stop-color="#50E6FF"/>
<stop offset="1" stop-color="#0078D4"/>
</linearGradient>
<linearGradient id="paint2_linear" x1="113.721" y1="12.5214" x2="113.721" y2="168.244" gradientUnits="userSpaceOnUse">
<stop offset="0.18" stop-color="#5EA0EF"/>
<stop offset="1" stop-color="#0078D4"/>
</linearGradient>
<linearGradient id="paint3_linear" x1="64.7248" y1="161.357" x2="64.7248" y2="379.541" gradientUnits="userSpaceOnUse">
<stop offset="0.1789" stop-color="#50E6FF"/>
<stop offset="1" stop-color="#0078D4"/>
</linearGradient>
<linearGradient id="paint4_linear" x1="65.0201" y1="199.617" x2="65.0201" y2="176.343" gradientUnits="userSpaceOnUse">
<stop offset="0.0226994" stop-color="#0078D4"/>
<stop offset="0.986298" stop-color="#003067"/>
</linearGradient>
<linearGradient id="paint5_linear" x1="65.0201" y1="164.251" x2="65.0201" y2="140.977" gradientUnits="userSpaceOnUse">
<stop offset="0.0226994" stop-color="#0078D4"/>
<stop offset="0.986298" stop-color="#003067"/>
</linearGradient>
<linearGradient id="paint6_linear" x1="153.877" y1="236.29" x2="153.877" y2="279.136" gradientUnits="userSpaceOnUse">
<stop offset="0.1789" stop-color="#50E6FF"/>
<stop offset="1" stop-color="#0078D4"/>
</linearGradient>
</defs>
</svg>
