<svg width="28" height="32" viewBox="0 0 28 32" fill="none" xmlns="http://www.w3.org/2000/svg">
<path fill-rule="evenodd" clip-rule="evenodd" d="M3.77738 25.5645C3.774 25.2155 3.97457 24.8007 4.52257 24.3455C5.06582 23.8942 5.886 23.4612 6.94732 23.0839C9.06477 22.3312 12.0288 21.8398 15.3319 21.807C18.6351 21.7741 21.608 22.2065 23.7397 22.9169C24.8081 23.2731 25.6365 23.6897 26.1884 24.13C26.7451 24.5742 26.9536 24.9851 26.957 25.334C26.9604 25.683 26.7598 26.0979 26.2118 26.5531C25.6686 27.0043 24.8484 27.4373 23.7871 27.8146C21.6696 28.5673 18.7056 29.0587 15.4025 29.0915C12.0993 29.1244 9.12635 28.6921 6.99474 27.9816C5.92632 27.6255 5.09791 27.2089 4.54603 26.7685C3.98932 26.3243 3.78076 25.9135 3.77738 25.5645ZM15.3217 20.7502C11.936 20.7839 8.85341 21.2864 6.60207 22.0867C5.47899 22.4859 4.53421 22.9693 3.8614 23.5282C3.19334 24.0831 2.72673 24.7721 2.7345 25.5749C2.74227 26.3776 3.22213 27.0572 3.90081 27.5988C4.58432 28.1442 5.53827 28.6086 6.66886 28.9855C8.93528 29.7409 12.027 30.182 15.4127 30.1483C18.7984 30.1146 21.881 29.6122 24.1323 28.8118C25.2554 28.4126 26.2002 27.9292 26.873 27.3704C27.5411 26.8154 28.0077 26.1264 27.9999 25.3236C27.9921 24.5209 27.5123 23.8413 26.8336 23.2997C26.1501 22.7543 25.1961 22.2899 24.0655 21.9131C21.7991 21.1576 18.7074 20.7165 15.3217 20.7502ZM25.1136 25.2753C25.1248 26.7694 20.7698 28.014 15.3864 28.0553C10.0031 28.0966 5.62996 26.9188 5.61881 25.4247C5.60765 23.9306 9.96267 22.686 15.346 22.6447C20.7294 22.6034 25.1025 23.7812 25.1136 25.2753Z" fill="url(#paint0_linear)"/>
<path d="M27.6013 13.7955C27.5317 11.2593 25.6685 9.13167 23.1795 8.76532C23.0682 5.17235 20.1204 2.32615 16.5607 2.3966C13.7241 2.35433 11.1795 4.14377 10.2339 6.84907C7.23043 7.24359 4.97782 9.80799 4.90829 12.8655C4.99172 16.3458 7.85616 19.0934 11.2907 19.0088H11.8469H22.1922H22.4703C25.3069 18.9666 27.5735 16.6558 27.6013 13.7955Z" fill="url(#paint1_linear)"/>
<path d="M22.693 11.4002C22.6234 8.86395 20.7602 6.73635 18.2712 6.37C18.1599 2.77703 15.2121 -0.0691704 11.6524 0.00128013C8.81577 -0.0409902 6.27116 1.74845 5.32562 4.45375C2.32213 4.84827 0.069525 7.41267 0 10.4702C0.08343 13.9505 2.94786 16.698 6.3824 16.6135H6.9386H17.2839H17.562C20.3986 16.5712 22.6652 14.2464 22.693 11.4002Z" fill="url(#paint2_linear)"/>
<path d="M11.8609 31.38C11.8609 31.7182 11.5967 32 11.263 32C11.2491 32 11.2491 32 11.2352 32H1.64072C1.307 32 1.0289 31.7182 1.0289 31.38V31.3659V13.9647C1.0289 13.6265 1.29309 13.3447 1.62681 13.3447H1.64072H11.2352C11.5689 13.3447 11.847 13.6124 11.847 13.9506C11.847 13.9647 11.847 13.9647 11.847 13.9788L11.8609 31.38Z" fill="url(#paint3_linear)"/>
<path d="M2.58624 19.8825C2.58624 19.2343 3.11464 18.6989 3.75427 18.6989C3.76817 18.6989 3.79598 18.6989 3.80989 18.6989H9.23284C9.87247 18.713 10.373 19.2484 10.373 19.8825C10.373 20.5306 9.85856 21.0801 9.21893 21.0801H9.20503H3.78207C3.12854 21.0942 2.60015 20.5588 2.58624 19.8825C2.58624 19.8965 2.58624 19.8965 2.58624 19.8825Z" fill="url(#paint4_linear)"/>
<path d="M2.58624 16.3599C2.58624 15.6977 3.11463 15.1623 3.76817 15.1623C3.78207 15.1623 3.79598 15.1623 3.80989 15.1623H9.23284C9.87247 15.1764 10.373 15.7118 10.373 16.3599C10.373 17.0081 9.84466 17.5435 9.20503 17.5435H3.78207C3.14244 17.5576 2.60015 17.0363 2.58624 16.374V16.3599Z" fill="url(#paint5_linear)"/>
<path d="M3.86522 17.1631C4.30295 17.1631 4.65781 16.8036 4.65781 16.36C4.65781 15.9164 4.30295 15.5569 3.86522 15.5569C3.42749 15.5569 3.07263 15.9164 3.07263 16.36C3.07263 16.8036 3.42749 17.1631 3.86522 17.1631Z" fill="#50E6FF"/>
<path d="M3.86522 20.6857C4.30295 20.6857 4.65781 20.3261 4.65781 19.8825C4.65781 19.439 4.30295 19.0794 3.86522 19.0794C3.42749 19.0794 3.07263 19.439 3.07263 19.8825C3.07263 20.3261 3.42749 20.6857 3.86522 20.6857Z" fill="#50E6FF"/>
<path fill-rule="evenodd" clip-rule="evenodd" d="M15.8036 16.6497L15.8036 23.9898L14.938 23.9898L14.938 16.6497L15.8036 16.6497Z" fill="#50E6FF"/>
<path d="M15.3652 26.7444C16.3635 26.7444 17.1729 25.9243 17.1729 24.9126C17.1729 23.901 16.3635 23.0809 15.3652 23.0809C14.3669 23.0809 13.5576 23.901 13.5576 24.9126C13.5576 25.9243 14.3669 26.7444 15.3652 26.7444Z" fill="url(#paint6_linear)"/>
<defs>
<linearGradient id="paint0_linear" x1="9.54044" y1="26.9438" x2="14.883" y2="25.3294" gradientUnits="userSpaceOnUse">
<stop stop-color="#003067"/>
<stop offset="0.806933" stop-color="#0078D4"/>
</linearGradient>
<linearGradient id="paint1_linear" x1="16.2708" y1="4.88115" x2="16.2708" y2="24.3138" gradientUnits="userSpaceOnUse">
<stop offset="0.1789" stop-color="#50E6FF"/>
<stop offset="1" stop-color="#0078D4"/>
</linearGradient>
<linearGradient id="paint2_linear" x1="11.3522" y1="1.25214" x2="11.3522" y2="16.8244" gradientUnits="userSpaceOnUse">
<stop offset="0.18" stop-color="#5EA0EF"/>
<stop offset="1" stop-color="#0078D4"/>
</linearGradient>
<linearGradient id="paint3_linear" x1="6.45256" y1="16.1357" x2="6.45256" y2="37.9541" gradientUnits="userSpaceOnUse">
<stop offset="0.1789" stop-color="#50E6FF"/>
<stop offset="1" stop-color="#0078D4"/>
</linearGradient>
<linearGradient id="paint4_linear" x1="6.48207" y1="19.9617" x2="6.48207" y2="17.6343" gradientUnits="userSpaceOnUse">
<stop offset="0.0226994" stop-color="#0078D4"/>
<stop offset="0.986298" stop-color="#003067"/>
</linearGradient>
<linearGradient id="paint5_linear" x1="6.48207" y1="16.4251" x2="6.48207" y2="14.0977" gradientUnits="userSpaceOnUse">
<stop offset="0.0226994" stop-color="#0078D4"/>
<stop offset="0.986298" stop-color="#003067"/>
</linearGradient>
<linearGradient id="paint6_linear" x1="15.3678" y1="23.629" x2="15.3678" y2="27.9136" gradientUnits="userSpaceOnUse">
<stop offset="0.1789" stop-color="#50E6FF"/>
<stop offset="1" stop-color="#0078D4"/>
</linearGradient>
</defs>
</svg>
