<svg xmlns="http://www.w3.org/2000/svg" class="fxs-portal-svg" id="FxSymbol0-064" role="presentation" viewBox="0 0 50 50" focusable="false" xmlns:xlink="http://www.w3.org/1999/xlink" xmlns:svg="http://www.w3.org/2000/svg">
<g>
<title/>
<path class="msportalfx-svg-c04" fill="#7a7a7a" d="M 31 38 H 19 c 1.634 5.768 -0.386 7 -10 7 v 3 h 32 v -3 c -9.614 0 -11.636 -1.229 -10 -7 Z"/>
<path class="msportalfx-svg-c03" fill="#a0a1a2" d="M 46.979 2 H 2.717 C 1.213 2 0 3.325 0 4.805 v 30.412 c 0 1.471 1.213 2.782 2.717 2.782 h 44.262 c 1.501 0 3.021 -1.31 3.021 -2.782 V 4.805 C 50 3.321 48.48 2 46.979 2"/>
<path class="msportalfx-svg-c01" opacity="0.2" fill="#ffffff" d="M 47.01 2.003 l -0.031 -0.002 H 2.716 c -1.504 0 -2.717 1.324 -2.717 2.805 v 30.411 C -0.001 36.69 1.212 38 2.716 38 h 1.053 L 47.01 2.003 Z"/>
<path class="msportalfx-svg-c15" fill="#59b4d9" d="M 46 6 v 28 H 4 V 6 Z"/>
<path class="msportalfx-svg-c03" fill="#a0a1a2" d="M 9 44.979 L 41 45 v 3 H 9 Z"/>
<path class="msportalfx-svg-c13" fill="#b8d432" d="M 25.517 4.095 a 0.71 0.71 0 1 1 -1.42 0 a 0.71 0.71 0 0 1 1.42 0"/>
<path class="msportalfx-svg-c01" fill="#ffffff" d="M 25.027 18.802 a 0.271 0.271 0 0 1 -0.13 -0.036 l -8.56 -4.858 a 0.257 0.257 0 0 1 -0.128 -0.221 c 0 -0.091 0.05 -0.175 0.128 -0.22 l 8.508 -4.826 a 0.265 0.265 0 0 1 0.256 0 l 8.563 4.859 a 0.25 0.25 0 0 1 0.127 0.22 a 0.251 0.251 0 0 1 -0.127 0.22 l -8.505 4.825 a 0.274 0.274 0 0 1 -0.132 0.037"/>
<path class="msportalfx-svg-c01" opacity="0.7" fill="#ffffff" d="M 23.797 30.608 a 0.245 0.245 0 0 1 -0.13 -0.034 l -8.534 -4.842 a 0.25 0.25 0 0 1 -0.133 -0.221 v -9.717 c 0 -0.092 0.05 -0.175 0.132 -0.221 a 0.26 0.26 0 0 1 0.261 0 l 8.533 4.84 a 0.265 0.265 0 0 1 0.126 0.223 v 9.717 a 0.26 0.26 0 0 1 -0.126 0.221 a 0.274 0.274 0 0 1 -0.129 0.034"/>
<path class="msportalfx-svg-c01" opacity="0.4" fill="#ffffff" d="M 26.213 30.608 a 0.28 0.28 0 0 1 -0.134 -0.034 a 0.257 0.257 0 0 1 -0.125 -0.221 v -9.656 c 0 -0.09 0.05 -0.174 0.125 -0.221 l 8.533 -4.84 a 0.257 0.257 0 0 1 0.257 0 a 0.252 0.252 0 0 1 0.131 0.22 v 9.655 a 0.25 0.25 0 0 1 -0.131 0.221 l -8.53 4.842 a 0.236 0.236 0 0 1 -0.126 0.034"/>
<path class="msportalfx-svg-c01" fill="#ffffff" d="M 15 8 H 6 v 9 h 3 v -6 h 6 Z M 6 23 v 9 h 9 v -3 H 9 v -6 Z m 29 9 h 9 v -9 h -3 v 6 h -6 Z m 9 -15 V 8 h -9 v 3 h 6 v 6 Z"/>
</g>
</svg>