<?xml version="1.0" encoding="UTF-8"?>
<svg class="switchless-diagram__svg" viewBox="0 0 1162 763" role="img" aria-label="Disaggregated host networking diagram" xmlns="http://www.w3.org/2000/svg"><defs><style>:root { --bg-dark: #000000; --card-bg: #111111; --text-primary: #ffffff; --text-secondary: #a1a1aa; --accent-blue: #0078d4; --accent-purple: #8b5cf6; --success: #10b981; --glass-border: rgba(255, 255, 255, 0.1); }</style></defs><rect fill="#000000" x="0" y="0" width="1162" height="763"/><rect x="30" y="55" width="1102" height="678" rx="18" fill="rgba(255,255,255,0.02)" stroke="rgba(0,120,212,0.35)" stroke-dasharray="6 4"/><text x="581" y="42" text-anchor="middle" font-size="13" fill="var(--text-secondary)">Disaggregated FC SAN connectivity — 6 ports + Backup — Total nodes: 64</text><rect x="386" y="100" width="160" height="50" rx="10" fill="rgba(59,130,246,0.15)" stroke="rgba(59,130,246,0.6)" stroke-width="2"/><text x="466" y="130" text-anchor="middle" font-size="13" fill="var(--text-primary)" font-weight="600">Leaf-A</text><rect x="616" y="100" width="160" height="50" rx="10" fill="rgba(59,130,246,0.15)" stroke="rgba(59,130,246,0.6)" stroke-width="2"/><text x="696" y="130" text-anchor="middle" font-size="13" fill="var(--text-primary)" font-weight="600">Leaf-B</text><line x1="546" y1="125" x2="616" y2="125" stroke="rgba(250,204,21,0.7)" stroke-width="2" stroke-dasharray="6 3"/><text x="581" y="117" text-anchor="middle" font-size="9" fill="rgba(250,204,21,0.9)">iBGP P49</text><rect x="50" y="240" width="506" height="343" rx="16" fill="rgba(255,255,255,0.03)" stroke="var(--glass-border)"/><text x="303" y="268" text-anchor="middle" font-size="14" fill="var(--text-primary)" font-weight="700">node1</text><rect x="481" y="252" width="55" height="22" rx="5" fill="rgba(160,160,160,0.12)" stroke="rgba(160,160,160,0.4)"/><text x="508" y="266" text-anchor="middle" font-size="7.5" fill="var(--text-secondary)">BMC</text><text x="508" y="283" text-anchor="middle" font-size="7" fill="var(--text-secondary)">BMC Switch</text><rect x="72" y="306" width="150" height="114" rx="10" fill="rgba(59,130,246,0.08)" stroke="rgba(59,130,246,0.45)" stroke-dasharray="5 3"/><text x="147" y="301" text-anchor="middle" font-size="9" fill="rgba(59,130,246,0.85)" font-weight="600">Mgmt + Compute</text><rect x="107" y="316" width="80" height="30" rx="6" fill="rgba(59,130,246,0.10)" stroke="rgba(59,130,246,0.55)" stroke-dasharray="4 2"/><text x="147" y="329" text-anchor="middle" font-size="8" fill="var(--text-primary)" font-weight="600">Mgmt vNIC</text><text x="147" y="340" text-anchor="middle" font-size="7" fill="var(--text-secondary)">VLAN 7</text><line x1="78" y1="362" x2="216" y2="362" stroke="rgba(59,130,246,0.3)" stroke-dasharray="3 2"/><rect x="80" y="368" width="62" height="38" rx="6" fill="rgba(59,130,246,0.20)" stroke="rgba(59,130,246,0.60)"/><text x="111" y="384" text-anchor="middle" font-size="8" fill="var(--text-primary)" font-weight="600">OCP-NIC1</text><text x="111" y="396" text-anchor="middle" font-size="7" fill="var(--text-secondary)">25GbE</text><rect x="152" y="368" width="62" height="38" rx="6" fill="rgba(59,130,246,0.20)" stroke="rgba(59,130,246,0.60)"/><text x="183" y="384" text-anchor="middle" font-size="8" fill="var(--text-primary)" font-weight="600">OCP-NIC2</text><text x="183" y="396" text-anchor="middle" font-size="7" fill="var(--text-secondary)">25GbE</text><rect x="224" y="354" width="78" height="66" rx="10" fill="rgba(34,197,94,0.08)" stroke="rgba(34,197,94,0.45)" stroke-dasharray="5 3"/><text x="263" y="349" text-anchor="middle" font-size="9" fill="rgba(34,197,94,0.85)" font-weight="600">Cluster 1</text><rect x="232" y="368" width="62" height="38" rx="6" fill="rgba(34,197,94,0.20)" stroke="rgba(34,197,94,0.60)"/><text x="263" y="384" text-anchor="middle" font-size="8" fill="var(--text-primary)" font-weight="600">PCIe1-NIC3</text><text x="263" y="396" text-anchor="middle" font-size="7" fill="var(--text-secondary)">25GbE</text><text x="263" y="432" text-anchor="middle" font-size="8" fill="rgba(34,197,94,0.75)" font-style="italic">VLAN 711</text><rect x="304" y="354" width="78" height="66" rx="10" fill="rgba(34,197,94,0.08)" stroke="rgba(34,197,94,0.45)" stroke-dasharray="5 3"/><text x="343" y="349" text-anchor="middle" font-size="9" fill="rgba(34,197,94,0.85)" font-weight="600">Cluster 2</text><rect x="312" y="368" width="62" height="38" rx="6" fill="rgba(34,197,94,0.20)" stroke="rgba(34,197,94,0.60)"/><text x="343" y="384" text-anchor="middle" font-size="8" fill="var(--text-primary)" font-weight="600">PCIe1-NIC4</text><text x="343" y="396" text-anchor="middle" font-size="7" fill="var(--text-secondary)">25GbE</text><text x="343" y="432" text-anchor="middle" font-size="8" fill="rgba(34,197,94,0.75)" font-style="italic">VLAN 712</text><rect x="384" y="354" width="150" height="66" rx="10" fill="rgba(249,115,22,0.08)" stroke="rgba(249,115,22,0.45)" stroke-dasharray="5 3"/><text x="459" y="349" text-anchor="middle" font-size="9" fill="rgba(249,115,22,0.85)" font-weight="600">In-Guest Backup Compute Intent</text><rect x="392" y="368" width="62" height="38" rx="6" fill="rgba(249,115,22,0.20)" stroke="rgba(249,115,22,0.60)"/><text x="423" y="384" text-anchor="middle" font-size="8" fill="var(--text-primary)" font-weight="600">BK-NIC1</text><text x="423" y="396" text-anchor="middle" font-size="7" fill="var(--text-secondary)">25GbE</text><rect x="464" y="368" width="62" height="38" rx="6" fill="rgba(249,115,22,0.20)" stroke="rgba(249,115,22,0.60)"/><text x="495" y="384" text-anchor="middle" font-size="8" fill="var(--text-primary)" font-weight="600">BK-NIC2</text><text x="495" y="396" text-anchor="middle" font-size="7" fill="var(--text-secondary)">25GbE</text><text x="303" y="507" text-anchor="middle" font-size="9" fill="rgba(139,92,246,0.85)" font-weight="600">FC HBA — SAN Fabric</text><line x1="70" y1="501" x2="536" y2="501" stroke="rgba(139,92,246,0.2)" stroke-dasharray="4 3"/><rect x="236" y="525" width="62" height="38" rx="6" fill="rgba(139,92,246,0.15)" stroke="rgba(139,92,246,0.55)" stroke-dasharray="4 2"/><text x="267" y="541" text-anchor="middle" font-size="7.5" fill="var(--text-primary)" font-weight="600">FC-HBA1</text><text x="267" y="553" text-anchor="middle" font-size="7" fill="var(--text-secondary)">32G FC</text><rect x="308" y="525" width="62" height="38" rx="6" fill="rgba(139,92,246,0.15)" stroke="rgba(139,92,246,0.55)" stroke-dasharray="4 2"/><text x="339" y="541" text-anchor="middle" font-size="7.5" fill="var(--text-primary)" font-weight="600">FC-HBA2</text><text x="339" y="553" text-anchor="middle" font-size="7" fill="var(--text-secondary)">32G FC</text><line x1="111" y1="368" x2="466" y2="150" stroke="rgba(59,130,246,0.35)" stroke-width="1.5" stroke-dasharray="4 2"/><line x1="183" y1="368" x2="696" y2="150" stroke="rgba(59,130,246,0.35)" stroke-width="1.5" stroke-dasharray="4 2"/><line x1="263" y1="368" x2="466" y2="150" stroke="rgba(34,197,94,0.35)" stroke-width="1.5" stroke-dasharray="4 2"/><line x1="343" y1="368" x2="696" y2="150" stroke="rgba(34,197,94,0.35)" stroke-width="1.5" stroke-dasharray="4 2"/><line x1="423" y1="368" x2="466" y2="150" stroke="rgba(249,115,22,0.35)" stroke-width="1.5" stroke-dasharray="4 2"/><line x1="495" y1="368" x2="696" y2="150" stroke="rgba(249,115,22,0.35)" stroke-width="1.5" stroke-dasharray="4 2"/><rect x="606" y="240" width="506" height="343" rx="16" fill="rgba(255,255,255,0.03)" stroke="var(--glass-border)"/><text x="859" y="268" text-anchor="middle" font-size="14" fill="var(--text-primary)" font-weight="700">node2</text><rect x="1037" y="252" width="55" height="22" rx="5" fill="rgba(160,160,160,0.12)" stroke="rgba(160,160,160,0.4)"/><text x="1064" y="266" text-anchor="middle" font-size="7.5" fill="var(--text-secondary)">BMC</text><text x="1064" y="283" text-anchor="middle" font-size="7" fill="var(--text-secondary)">BMC Switch</text><rect x="628" y="306" width="150" height="114" rx="10" fill="rgba(59,130,246,0.08)" stroke="rgba(59,130,246,0.45)" stroke-dasharray="5 3"/><text x="703" y="301" text-anchor="middle" font-size="9" fill="rgba(59,130,246,0.85)" font-weight="600">Mgmt + Compute</text><rect x="663" y="316" width="80" height="30" rx="6" fill="rgba(59,130,246,0.10)" stroke="rgba(59,130,246,0.55)" stroke-dasharray="4 2"/><text x="703" y="329" text-anchor="middle" font-size="8" fill="var(--text-primary)" font-weight="600">Mgmt vNIC</text><text x="703" y="340" text-anchor="middle" font-size="7" fill="var(--text-secondary)">VLAN 7</text><line x1="634" y1="362" x2="772" y2="362" stroke="rgba(59,130,246,0.3)" stroke-dasharray="3 2"/><rect x="636" y="368" width="62" height="38" rx="6" fill="rgba(59,130,246,0.20)" stroke="rgba(59,130,246,0.60)"/><text x="667" y="384" text-anchor="middle" font-size="8" fill="var(--text-primary)" font-weight="600">OCP-NIC1</text><text x="667" y="396" text-anchor="middle" font-size="7" fill="var(--text-secondary)">25GbE</text><rect x="708" y="368" width="62" height="38" rx="6" fill="rgba(59,130,246,0.20)" stroke="rgba(59,130,246,0.60)"/><text x="739" y="384" text-anchor="middle" font-size="8" fill="var(--text-primary)" font-weight="600">OCP-NIC2</text><text x="739" y="396" text-anchor="middle" font-size="7" fill="var(--text-secondary)">25GbE</text><rect x="780" y="354" width="78" height="66" rx="10" fill="rgba(34,197,94,0.08)" stroke="rgba(34,197,94,0.45)" stroke-dasharray="5 3"/><text x="819" y="349" text-anchor="middle" font-size="9" fill="rgba(34,197,94,0.85)" font-weight="600">Cluster 1</text><rect x="788" y="368" width="62" height="38" rx="6" fill="rgba(34,197,94,0.20)" stroke="rgba(34,197,94,0.60)"/><text x="819" y="384" text-anchor="middle" font-size="8" fill="var(--text-primary)" font-weight="600">PCIe1-NIC3</text><text x="819" y="396" text-anchor="middle" font-size="7" fill="var(--text-secondary)">25GbE</text><text x="819" y="432" text-anchor="middle" font-size="8" fill="rgba(34,197,94,0.75)" font-style="italic">VLAN 711</text><rect x="860" y="354" width="78" height="66" rx="10" fill="rgba(34,197,94,0.08)" stroke="rgba(34,197,94,0.45)" stroke-dasharray="5 3"/><text x="899" y="349" text-anchor="middle" font-size="9" fill="rgba(34,197,94,0.85)" font-weight="600">Cluster 2</text><rect x="868" y="368" width="62" height="38" rx="6" fill="rgba(34,197,94,0.20)" stroke="rgba(34,197,94,0.60)"/><text x="899" y="384" text-anchor="middle" font-size="8" fill="var(--text-primary)" font-weight="600">PCIe1-NIC4</text><text x="899" y="396" text-anchor="middle" font-size="7" fill="var(--text-secondary)">25GbE</text><text x="899" y="432" text-anchor="middle" font-size="8" fill="rgba(34,197,94,0.75)" font-style="italic">VLAN 712</text><rect x="940" y="354" width="150" height="66" rx="10" fill="rgba(249,115,22,0.08)" stroke="rgba(249,115,22,0.45)" stroke-dasharray="5 3"/><text x="1015" y="349" text-anchor="middle" font-size="9" fill="rgba(249,115,22,0.85)" font-weight="600">In-Guest Backup Compute Intent</text><rect x="948" y="368" width="62" height="38" rx="6" fill="rgba(249,115,22,0.20)" stroke="rgba(249,115,22,0.60)"/><text x="979" y="384" text-anchor="middle" font-size="8" fill="var(--text-primary)" font-weight="600">BK-NIC1</text><text x="979" y="396" text-anchor="middle" font-size="7" fill="var(--text-secondary)">25GbE</text><rect x="1020" y="368" width="62" height="38" rx="6" fill="rgba(249,115,22,0.20)" stroke="rgba(249,115,22,0.60)"/><text x="1051" y="384" text-anchor="middle" font-size="8" fill="var(--text-primary)" font-weight="600">BK-NIC2</text><text x="1051" y="396" text-anchor="middle" font-size="7" fill="var(--text-secondary)">25GbE</text><text x="859" y="507" text-anchor="middle" font-size="9" fill="rgba(139,92,246,0.85)" font-weight="600">FC HBA — SAN Fabric</text><line x1="626" y1="501" x2="1092" y2="501" stroke="rgba(139,92,246,0.2)" stroke-dasharray="4 3"/><rect x="792" y="525" width="62" height="38" rx="6" fill="rgba(139,92,246,0.15)" stroke="rgba(139,92,246,0.55)" stroke-dasharray="4 2"/><text x="823" y="541" text-anchor="middle" font-size="7.5" fill="var(--text-primary)" font-weight="600">FC-HBA1</text><text x="823" y="553" text-anchor="middle" font-size="7" fill="var(--text-secondary)">32G FC</text><rect x="864" y="525" width="62" height="38" rx="6" fill="rgba(139,92,246,0.15)" stroke="rgba(139,92,246,0.55)" stroke-dasharray="4 2"/><text x="895" y="541" text-anchor="middle" font-size="7.5" fill="var(--text-primary)" font-weight="600">FC-HBA2</text><text x="895" y="553" text-anchor="middle" font-size="7" fill="var(--text-secondary)">32G FC</text><line x1="667" y1="368" x2="466" y2="150" stroke="rgba(59,130,246,0.35)" stroke-width="1.5" stroke-dasharray="4 2"/><line x1="739" y1="368" x2="696" y2="150" stroke="rgba(59,130,246,0.35)" stroke-width="1.5" stroke-dasharray="4 2"/><line x1="819" y1="368" x2="466" y2="150" stroke="rgba(34,197,94,0.35)" stroke-width="1.5" stroke-dasharray="4 2"/><line x1="899" y1="368" x2="696" y2="150" stroke="rgba(34,197,94,0.35)" stroke-width="1.5" stroke-dasharray="4 2"/><line x1="979" y1="368" x2="466" y2="150" stroke="rgba(249,115,22,0.35)" stroke-width="1.5" stroke-dasharray="4 2"/><line x1="1051" y1="368" x2="696" y2="150" stroke="rgba(249,115,22,0.35)" stroke-width="1.5" stroke-dasharray="4 2"/><rect x="391" y="603" width="160" height="36" rx="10" fill="rgba(139,92,246,0.12)" stroke="rgba(139,92,246,0.55)" stroke-width="1.5"/><text x="471" y="625" text-anchor="middle" font-size="11" fill="rgba(139,92,246,0.9)" font-weight="600">SAN Fabric A</text><rect x="611" y="603" width="160" height="36" rx="10" fill="rgba(139,92,246,0.12)" stroke="rgba(139,92,246,0.55)" stroke-width="1.5"/><text x="691" y="625" text-anchor="middle" font-size="11" fill="rgba(139,92,246,0.9)" font-weight="600">SAN Fabric B</text><line x1="267" y1="563" x2="471" y2="603" stroke="rgba(139,92,246,0.4)" stroke-width="1.5" stroke-dasharray="5 3"/><line x1="339" y1="563" x2="691" y2="603" stroke="rgba(139,92,246,0.4)" stroke-width="1.5" stroke-dasharray="5 3"/><line x1="823" y1="563" x2="471" y2="603" stroke="rgba(139,92,246,0.4)" stroke-width="1.5" stroke-dasharray="5 3"/><line x1="895" y1="563" x2="691" y2="603" stroke="rgba(139,92,246,0.4)" stroke-width="1.5" stroke-dasharray="5 3"/><rect x="922" y="667" width="180" height="26" rx="13" fill="rgba(255,255,255,0.05)" stroke="var(--glass-border)"/><text x="1012" y="684" text-anchor="middle" font-size="12" fill="var(--text-secondary)">+62 more nodes</text></svg>