<svg xmlns="http://www.w3.org/2000/svg" xmlns:xlink="http://www.w3.org/1999/xlink" viewBox="0 0 335 158">
  <defs>
    <linearGradient id="linear-gradient" x1="45" y1="33" x2="45" y2="153" gradientUnits="userSpaceOnUse">
      <stop offset="0" stop-color="#5ea0ef"/>
      <stop offset="0.18" stop-color="#559cec"/>
      <stop offset="0.47" stop-color="#3c91e5"/>
      <stop offset="0.84" stop-color="#1380da"/>
      <stop offset="1" stop-color="#0078d4"/>
    </linearGradient>
    <linearGradient id="linear-gradient-2" x1="285" y1="33" x2="285" y2="63" xlink:href="#linear-gradient"/>
    <linearGradient id="linear-gradient-3" x1="285" y1="78" x2="285" y2="108" xlink:href="#linear-gradient"/>
    <linearGradient id="linear-gradient-4" x1="285" y1="123" x2="285" y2="153" xlink:href="#linear-gradient"/>
    <linearGradient id="linear-gradient-5" x1="165" y1="78" x2="165" y2="108" xlink:href="#linear-gradient"/>
    <linearGradient id="linear-gradient-6" x1="165" y1="33" x2="165" y2="63" xlink:href="#linear-gradient"/>
    <linearGradient id="linear-gradient-7" x1="165" y1="123" x2="165" y2="153" xlink:href="#linear-gradient"/>
    <linearGradient id="linear-gradient-8" x1="14.92" y1="506" x2="14.92" y2="523.64" gradientTransform="matrix(1, 0, 0, -1, 0, 530)" gradientUnits="userSpaceOnUse">
      <stop offset="0" stop-color="#b3b3b3"/>
      <stop offset="0.26" stop-color="#c1c1c1"/>
      <stop offset="1" stop-color="#e6e6e6"/>
    </linearGradient>
  </defs>
  <g id="Shapes">
    <g>
      <rect x="115" y="28" width="100" height="130" fill="#fff"/>
      <rect x="115" y="28" width="100" height="130" fill="#3c3c41" opacity="0.15"/>
    </g>
    <g>
      <rect x="235" y="28" width="100" height="130" fill="#fff"/>
      <rect x="235" y="28" width="100" height="130" fill="#3c3c41" opacity="0.15"/>
    </g>
    <g>
      <rect y="33" width="90" height="120" fill="#fff"/>
      <rect y="33" width="90" height="120" opacity="0.5" fill="url(#linear-gradient)"/>
    </g>
    <g>
      <rect x="240" y="33" width="90" height="30" fill="#fff"/>
      <rect x="240" y="33" width="90" height="30" opacity="0.5" fill="url(#linear-gradient-2)"/>
    </g>
    <g>
      <rect x="240" y="78" width="90" height="30" fill="#fff"/>
      <rect x="240" y="78" width="90" height="30" opacity="0.5" fill="url(#linear-gradient-3)"/>
    </g>
    <g>
      <rect x="240" y="123" width="90" height="30" fill="#fff"/>
      <rect x="240" y="123" width="90" height="30" opacity="0.5" fill="url(#linear-gradient-4)"/>
    </g>
    <line x1="90" y1="93" x2="240" y2="93" fill="none" stroke="#505050" stroke-miterlimit="10"/>
    <g>
      <rect x="120" y="78" width="90" height="30" fill="#fff"/>
      <rect x="120" y="78" width="90" height="30" opacity="0.5" fill="url(#linear-gradient-5)"/>
    </g>
    <path d="M240,138H108a3,3,0,0,1-3-3V51a3,3,0,0,1,3-3H240" fill="none" stroke="#505050" stroke-miterlimit="10"/>
    <g>
      <rect x="120" y="33" width="90" height="30" fill="#fff"/>
      <rect x="120" y="33" width="90" height="30" opacity="0.5" fill="url(#linear-gradient-6)"/>
    </g>
    <g>
      <rect x="120" y="123" width="90" height="30" fill="#fff"/>
      <rect x="120" y="123" width="90" height="30" opacity="0.5" fill="url(#linear-gradient-7)"/>
    </g>
    <g>
      <path d="M0,6.36H29.85V23a1,1,0,0,1-1,1H1a1,1,0,0,1-1-1Z" fill="url(#linear-gradient-8)"/>
      <path d="M1,0H28.85a1,1,0,0,1,1,1V6.36H0V1A1,1,0,0,1,1,0Z" fill="#37c2b1"/>
      <path d="M4.06,8.29H25.77a.47.47,0,0,1,.46.47v2.46a.47.47,0,0,1-.46.47H4.06a.47.47,0,0,1-.46-.47V8.76A.47.47,0,0,1,4.06,8.29Z" fill="#fff"/>
      <path d="M4.07,13.19H25.79a.46.46,0,0,1,.46.47v2.47a.48.48,0,0,1-.46.48H4.07a.47.47,0,0,1-.45-.48V13.75A.48.48,0,0,1,4,13.19Z" fill="#37c2b1"/>
      <path d="M4.07,18.14H25.79a.47.47,0,0,1,.46.47v2.48a.47.47,0,0,1-.46.47H4.07a.47.47,0,0,1-.45-.47V18.61A.47.47,0,0,1,4.07,18.14Z" fill="#258277"/>
    </g>
  </g>
  <g id="Text">
    <g>
      <path d="M29.83,97.83H27.76L27.17,96h-3l-.59,1.87H21.54l3.05-8.4h2.25Zm-3.1-3.32-.9-2.82a3.82,3.82,0,0,1-.14-.76h-.05a3,3,0,0,1-.14.73l-.92,2.85Z" fill="#1e1e1e"/>
      <path d="M35.09,97.62a3.66,3.66,0,0,1-1.81.36,3,3,0,0,1-2.23-.84A2.9,2.9,0,0,1,30.19,95a3.19,3.19,0,0,1,.92-2.41,3.38,3.38,0,0,1,2.45-.88,3.07,3.07,0,0,1,1.53.28v1.57a2.08,2.08,0,0,0-1.29-.44,1.71,1.71,0,0,0-1.26.47,1.75,1.75,0,0,0-.47,1.29,1.71,1.71,0,0,0,.45,1.25,1.62,1.62,0,0,0,1.22.45,2.42,2.42,0,0,0,1.35-.43Z" fill="#1e1e1e"/>
      <path d="M40.85,97.62A3.69,3.69,0,0,1,39,98a3,3,0,0,1-2.24-.84A2.9,2.9,0,0,1,35.94,95a3.19,3.19,0,0,1,.92-2.41,3.38,3.38,0,0,1,2.45-.88,3.14,3.14,0,0,1,1.54.28v1.57a2.13,2.13,0,0,0-1.3-.44,1.71,1.71,0,0,0-1.26.47,1.75,1.75,0,0,0-.47,1.29,1.71,1.71,0,0,0,.45,1.25,1.64,1.64,0,0,0,1.22.45,2.45,2.45,0,0,0,1.36-.43Z" fill="#1e1e1e"/>
      <path d="M44.91,98a3.23,3.23,0,0,1-2.36-.84,3.47,3.47,0,0,1,0-4.61A3.38,3.38,0,0,1,45,91.69a3.2,3.2,0,0,1,2.35.84,3,3,0,0,1,.85,2.22,3.18,3.18,0,0,1-.88,2.36A3.24,3.24,0,0,1,44.91,98ZM45,93.1a1.23,1.23,0,0,0-1,.45,2,2,0,0,0-.37,1.28c0,1.15.47,1.73,1.4,1.73S46.3,96,46.3,94.79,45.85,93.1,45,93.1Z" fill="#1e1e1e"/>
      <path d="M55.08,97.83H53.23v-.91h0A2.09,2.09,0,0,1,51.37,98c-1.39,0-2.08-.84-2.08-2.53V91.83h1.84v3.46c0,.85.34,1.27,1,1.27a1,1,0,0,0,.8-.35,1.45,1.45,0,0,0,.29-.94V91.83h1.85Z" fill="#1e1e1e"/>
      <path d="M62.4,97.83H60.55V94.5c0-.93-.33-1.4-1-1.4a1,1,0,0,0-.79.37,1.4,1.4,0,0,0-.31.94v3.42H56.61v-6h1.85v1h0a2.11,2.11,0,0,1,1.93-1.09c1.33,0,2,.82,2,2.47Z" fill="#1e1e1e"/>
      <path d="M67.42,97.76a2.62,2.62,0,0,1-1.23.22,1.76,1.76,0,0,1-2-2V93.2h-1V91.83h1V90.54L66.08,90v1.82h1.34V93.2H66.08v2.42c0,.63.24.94.74.94a1.24,1.24,0,0,0,.6-.17Z" fill="#1e1e1e"/>
    </g>
    <g>
      <path d="M144,52.53a5.54,5.54,0,0,1-2.41.45,4.06,4.06,0,0,1-3-1.14,4.19,4.19,0,0,1-1.1-3,4.45,4.45,0,0,1,1.24-3.27,4.38,4.38,0,0,1,3.23-1.25,6,6,0,0,1,2.08.31v1.82a3.78,3.78,0,0,0-1.93-.5,2.59,2.59,0,0,0-1.91.74,2.79,2.79,0,0,0-.72,2,2.73,2.73,0,0,0,.68,1.94,2.45,2.45,0,0,0,1.85.72,4,4,0,0,0,2-.54Z" fill="#1e1e1e"/>
      <path d="M148,53a3.23,3.23,0,0,1-2.36-.84,3.47,3.47,0,0,1,0-4.61,3.38,3.38,0,0,1,2.41-.84,3.16,3.16,0,0,1,2.34.84,3,3,0,0,1,.85,2.22,3.18,3.18,0,0,1-.87,2.36A3.27,3.27,0,0,1,148,53Zm.05-4.88a1.23,1.23,0,0,0-1,.45,2,2,0,0,0-.37,1.28c0,1.15.47,1.73,1.4,1.73s1.33-.59,1.33-1.77S149,48.1,148.09,48.1Z" fill="#1e1e1e"/>
      <path d="M158.3,52.83h-1.84V49.5c0-.93-.33-1.4-1-1.4a1,1,0,0,0-.79.37,1.4,1.4,0,0,0-.31.94v3.42h-1.85v-6h1.85v1h0a2.12,2.12,0,0,1,1.93-1.09c1.33,0,2,.82,2,2.47Z" fill="#1e1e1e"/>
      <path d="M163.33,52.76a2.7,2.7,0,0,1-1.24.22,1.77,1.77,0,0,1-2-2V48.2h-1V46.83h1V45.54L162,45v1.82h1.35V48.2H162v2.42c0,.63.25.94.74.94a1.31,1.31,0,0,0,.61-.17Z" fill="#1e1e1e"/>
      <path d="M169.49,52.83h-1.75V52h0a2,2,0,0,1-1.78,1,1.88,1.88,0,0,1-1.38-.5,1.79,1.79,0,0,1-.5-1.32q0-1.74,2.07-2l1.63-.22c0-.66-.36-1-1.07-1a3.7,3.7,0,0,0-2,.63V47.19a4.67,4.67,0,0,1,1.06-.35,5.7,5.7,0,0,1,1.22-.15,2.27,2.27,0,0,1,2.57,2.56Zm-1.74-2.44V50l-1.09.14c-.6.08-.9.35-.9.82a.64.64,0,0,0,.22.51.8.8,0,0,0,.59.21,1.1,1.1,0,0,0,.85-.36A1.31,1.31,0,0,0,167.75,50.39Z" fill="#1e1e1e"/>
      <path d="M171.87,45.88a1.05,1.05,0,0,1-.76-.28.88.88,0,0,1-.3-.68.87.87,0,0,1,.3-.68,1.26,1.26,0,0,1,1.53,0,.87.87,0,0,1,.3.68.89.89,0,0,1-.3.69A1.08,1.08,0,0,1,171.87,45.88Zm.92,6.95h-1.85v-6h1.85Z" fill="#1e1e1e"/>
      <path d="M180.12,52.83h-1.84V49.5c0-.93-.33-1.4-1-1.4a1,1,0,0,0-.79.37,1.4,1.4,0,0,0-.31.94v3.42h-1.85v-6h1.85v1h0a2.12,2.12,0,0,1,1.93-1.09c1.33,0,2,.82,2,2.47Z" fill="#1e1e1e"/>
      <path d="M187,50.36h-3.92c.07.87.62,1.31,1.65,1.31a3.24,3.24,0,0,0,1.74-.47v1.33a4.5,4.5,0,0,1-2.16.45,2.79,2.79,0,0,1-3.06-3,3.2,3.2,0,0,1,.87-2.37,2.9,2.9,0,0,1,2.13-.87,2.65,2.65,0,0,1,2,.77,3,3,0,0,1,.72,2.12Zm-1.72-1.14c0-.86-.35-1.29-1-1.29a1,1,0,0,0-.77.37,1.72,1.72,0,0,0-.4.92Z" fill="#1e1e1e"/>
      <path d="M192.1,48.5a1.61,1.61,0,0,0-.78-.18,1.14,1.14,0,0,0-.94.44A1.93,1.93,0,0,0,190,50v2.86h-1.85v-6H190V48h0a1.6,1.6,0,0,1,1.58-1.22,1.14,1.14,0,0,1,.46.07Z" fill="#1e1e1e"/>
    </g>
    <g>
      <path d="M156.42,91H154v6.86h-1.9V91h-2.38V89.43h6.68Z" fill="#1e1e1e"/>
      <path d="M161.53,97.83h-1.75V97h0A2,2,0,0,1,158,98a1.9,1.9,0,0,1-1.38-.5,1.79,1.79,0,0,1-.5-1.32q0-1.74,2.07-2l1.63-.22c0-.66-.35-1-1.07-1a3.65,3.65,0,0,0-2,.63V92.19a4.57,4.57,0,0,1,1.05-.35,5.7,5.7,0,0,1,1.22-.15,2.26,2.26,0,0,1,2.57,2.56Zm-1.74-2.44V95l-1.09.14c-.6.08-.9.35-.9.82a.64.64,0,0,0,.22.51.82.82,0,0,0,.59.21,1.1,1.1,0,0,0,.85-.36A1.31,1.31,0,0,0,159.79,95.39Z" fill="#1e1e1e"/>
      <path d="M164.87,97.13h0v.7H163V89h1.85v3.78h0a2.21,2.21,0,0,1,1.95-1,2.14,2.14,0,0,1,1.79.79,3.43,3.43,0,0,1,.63,2.18,3.73,3.73,0,0,1-.74,2.41,2.36,2.36,0,0,1-1.95.91A1.89,1.89,0,0,1,164.87,97.13Zm-.05-2.53v.62a1.4,1.4,0,0,0,.33,1,1.2,1.2,0,0,0,1.84-.11,2.36,2.36,0,0,0,.35-1.38,1.91,1.91,0,0,0-.32-1.17,1.08,1.08,0,0,0-.91-.42,1.2,1.2,0,0,0-.93.42A1.6,1.6,0,0,0,164.82,94.6Z" fill="#1e1e1e"/>
      <path d="M172.32,97.83h-1.85V89h1.85Z" fill="#1e1e1e"/>
      <path d="M179.29,95.36h-3.92c.07.87.61,1.31,1.65,1.31a3.24,3.24,0,0,0,1.74-.47v1.33a4.53,4.53,0,0,1-2.16.45,2.79,2.79,0,0,1-3.06-3,3.2,3.2,0,0,1,.87-2.37,2.88,2.88,0,0,1,2.13-.87,2.66,2.66,0,0,1,2,.77,3,3,0,0,1,.72,2.12Zm-1.72-1.14c0-.86-.35-1.29-1-1.29a1,1,0,0,0-.77.37,1.72,1.72,0,0,0-.4.92Z" fill="#1e1e1e"/>
    </g>
    <g>
      <path d="M150.71,143a3.89,3.89,0,0,1-2.94-1.17,4.24,4.24,0,0,1-1.14-3.07,4.52,4.52,0,0,1,1.15-3.22,4,4,0,0,1,3.06-1.23,3.8,3.8,0,0,1,2.91,1.18,4.31,4.31,0,0,1,1.11,3.1,4.47,4.47,0,0,1-1.15,3.2l-.08.07a.6.6,0,0,1-.08.08l2.13,2H153l-1.11-1.13A4.61,4.61,0,0,1,150.71,143Zm.08-7.06a1.9,1.9,0,0,0-1.58.75,3.6,3.6,0,0,0,0,4,2,2,0,0,0,3.08,0,3,3,0,0,0,.58-2,3.32,3.32,0,0,0-.56-2A1.79,1.79,0,0,0,150.79,135.92Z" fill="#1e1e1e"/>
      <path d="M161.85,142.83H160v-.91h0a2.09,2.09,0,0,1-1.84,1.06c-1.39,0-2.08-.84-2.08-2.53v-3.62h1.84v3.46c0,.85.34,1.27,1,1.27a1,1,0,0,0,.8-.35,1.4,1.4,0,0,0,.3-.94v-3.44h1.84Z" fill="#1e1e1e"/>
      <path d="M168.81,140.36h-3.92c.07.87.61,1.31,1.65,1.31a3.24,3.24,0,0,0,1.74-.47v1.33a4.53,4.53,0,0,1-2.16.45,2.79,2.79,0,0,1-3.06-3,3.2,3.2,0,0,1,.87-2.37,2.88,2.88,0,0,1,2.13-.87,2.66,2.66,0,0,1,2,.77,3,3,0,0,1,.72,2.12Zm-1.72-1.14c0-.86-.35-1.29-1-1.29a1,1,0,0,0-.77.37,1.72,1.72,0,0,0-.4.92Z" fill="#1e1e1e"/>
      <path d="M175.69,142.83h-1.84v-.91h0A2.09,2.09,0,0,1,172,143c-1.39,0-2.08-.84-2.08-2.53v-3.62h1.84v3.46c0,.85.34,1.27,1,1.27a1,1,0,0,0,.8-.35,1.4,1.4,0,0,0,.3-.94v-3.44h1.84Z" fill="#1e1e1e"/>
      <path d="M182.65,140.36h-3.92c.07.87.62,1.31,1.65,1.31a3.24,3.24,0,0,0,1.74-.47v1.33A4.5,4.5,0,0,1,180,143a2.79,2.79,0,0,1-3.06-3,3.2,3.2,0,0,1,.87-2.37,2.9,2.9,0,0,1,2.13-.87,2.65,2.65,0,0,1,2,.77,3,3,0,0,1,.72,2.12Zm-1.72-1.14c0-.86-.35-1.29-1-1.29a1,1,0,0,0-.77.37,1.72,1.72,0,0,0-.4.92Z" fill="#1e1e1e"/>
    </g>
    <g>
      <path d="M269.91,52.83v-8.4H273a3.77,3.77,0,0,1,2.16.52,1.65,1.65,0,0,1,.75,1.45,1.71,1.71,0,0,1-.46,1.19,2.41,2.41,0,0,1-1.17.71v0a2.31,2.31,0,0,1,1.43.66,1.86,1.86,0,0,1,.54,1.34,2.28,2.28,0,0,1-.83,1.84,3.45,3.45,0,0,1-2.25.67Zm1.89-7v2h.83a1.42,1.42,0,0,0,.93-.29,1,1,0,0,0,.33-.78q0-.93-1.38-.93Zm0,3.4v2.22h1a1.52,1.52,0,0,0,1-.31,1,1,0,0,0,.38-.83,1,1,0,0,0-.37-.79,1.61,1.61,0,0,0-1-.29Z" fill="#1e1e1e"/>
      <path d="M279.3,52.83h-1.85V44h1.85Z" fill="#1e1e1e"/>
      <path d="M283.72,53a3.23,3.23,0,0,1-2.36-.84,3.47,3.47,0,0,1,0-4.61,3.37,3.37,0,0,1,2.41-.84,3.18,3.18,0,0,1,2.34.84,3,3,0,0,1,.85,2.22,3.18,3.18,0,0,1-.87,2.36A3.27,3.27,0,0,1,283.72,53Zm0-4.88a1.26,1.26,0,0,0-1,.45,2,2,0,0,0-.36,1.28c0,1.15.46,1.73,1.39,1.73s1.33-.59,1.33-1.77S284.66,48.1,283.76,48.1Z" fill="#1e1e1e"/>
      <path d="M290.06,52.13h0v.7h-1.86V44H290v3.78h0a2.21,2.21,0,0,1,1.95-1,2.15,2.15,0,0,1,1.79.79,3.43,3.43,0,0,1,.62,2.18,3.72,3.72,0,0,1-.73,2.41,2.37,2.37,0,0,1-1.95.91A1.89,1.89,0,0,1,290.06,52.13ZM290,49.6v.62a1.4,1.4,0,0,0,.33,1,1.1,1.1,0,0,0,.86.38,1.12,1.12,0,0,0,1-.49,2.36,2.36,0,0,0,.35-1.38,1.91,1.91,0,0,0-.32-1.17,1.09,1.09,0,0,0-.91-.42,1.18,1.18,0,0,0-.93.42A1.6,1.6,0,0,0,290,49.6Z" fill="#1e1e1e"/>
      <path d="M295.33,52.67v-1.5a3.5,3.5,0,0,0,.91.41,3,3,0,0,0,.85.14,1.84,1.84,0,0,0,.78-.14.43.43,0,0,0,.29-.41.41.41,0,0,0-.13-.29,1.08,1.08,0,0,0-.33-.2,3,3,0,0,0-.45-.16l-.46-.16a4.68,4.68,0,0,1-.63-.29,1.84,1.84,0,0,1-.46-.36,1.64,1.64,0,0,1-.28-.48,2,2,0,0,1-.09-.63,1.7,1.7,0,0,1,.21-.87,2,2,0,0,1,.59-.6,3,3,0,0,1,.84-.34,4.46,4.46,0,0,1,1-.1,5.52,5.52,0,0,1,.81.06,5.88,5.88,0,0,1,.81.18v1.43a3,3,0,0,0-.76-.31A3,3,0,0,0,298,48a2,2,0,0,0-.35,0,1.15,1.15,0,0,0-.28.09.51.51,0,0,0-.19.16.34.34,0,0,0-.07.22.4.4,0,0,0,.1.28.75.75,0,0,0,.28.2,2,2,0,0,0,.37.15l.42.14a7.13,7.13,0,0,1,.67.28,2.44,2.44,0,0,1,.51.36,1.58,1.58,0,0,1,.33.48,1.86,1.86,0,0,1,.11.66,1.76,1.76,0,0,1-.23.91,1.81,1.81,0,0,1-.62.61,2.66,2.66,0,0,1-.88.35,5,5,0,0,1-1,.11A5.17,5.17,0,0,1,295.33,52.67Z" fill="#1e1e1e"/>
    </g>
    <g>
      <path d="M269.7,97.83h-5v-8.4h4.85V91h-3v1.87h2.75v1.54h-2.75V96.3h3.15Z" fill="#1e1e1e"/>
      <path d="M276.75,97.83H274.9V94.5c0-.93-.33-1.4-1-1.4a1,1,0,0,0-.79.37,1.4,1.4,0,0,0-.31.94v3.42H271v-6h1.85v1h0a2.11,2.11,0,0,1,1.93-1.09c1.33,0,2,.82,2,2.47Z" fill="#1e1e1e"/>
      <path d="M281.77,97.76a2.62,2.62,0,0,1-1.23.22,1.76,1.76,0,0,1-2-2V93.2h-1V91.83h1V90.54l1.85-.53v1.82h1.34V93.2h-1.34v2.42c0,.63.24.94.74.94a1.24,1.24,0,0,0,.6-.17Z" fill="#1e1e1e"/>
      <path d="M283.82,90.88a1.07,1.07,0,0,1-.77-.28.88.88,0,0,1-.3-.68.87.87,0,0,1,.3-.68,1.16,1.16,0,0,1,.77-.26,1.14,1.14,0,0,1,.77.26.87.87,0,0,1,.3.68.89.89,0,0,1-.3.69A1.1,1.1,0,0,1,283.82,90.88Zm.92,7h-1.86v-6h1.86Z" fill="#1e1e1e"/>
      <path d="M289.83,97.76a2.62,2.62,0,0,1-1.23.22,1.76,1.76,0,0,1-2-2V93.2h-1V91.83h1V90.54l1.85-.53v1.82h1.34V93.2h-1.34v2.42c0,.63.24.94.74.94a1.27,1.27,0,0,0,.6-.17Z" fill="#1e1e1e"/>
      <path d="M291.88,90.88a1.07,1.07,0,0,1-.77-.28.88.88,0,0,1-.3-.68.87.87,0,0,1,.3-.68,1.16,1.16,0,0,1,.77-.26,1.14,1.14,0,0,1,.77.26.87.87,0,0,1,.3.68.89.89,0,0,1-.3.69A1.1,1.1,0,0,1,291.88,90.88Zm.91,7h-1.85v-6h1.85Z" fill="#1e1e1e"/>
      <path d="M299.72,95.36H295.8c.07.87.61,1.31,1.65,1.31a3.24,3.24,0,0,0,1.74-.47v1.33A4.56,4.56,0,0,1,297,98a2.79,2.79,0,0,1-3.06-3,3.2,3.2,0,0,1,.87-2.37,2.88,2.88,0,0,1,2.13-.87,2.66,2.66,0,0,1,2,.77,3,3,0,0,1,.72,2.12ZM298,94.22c0-.86-.35-1.29-1-1.29a1,1,0,0,0-.77.37,1.72,1.72,0,0,0-.4.92Z" fill="#1e1e1e"/>
      <path d="M300.57,97.67v-1.5a3.82,3.82,0,0,0,.91.41,3.08,3.08,0,0,0,.86.14,1.84,1.84,0,0,0,.78-.14.42.42,0,0,0,.28-.41.37.37,0,0,0-.13-.29.88.88,0,0,0-.33-.2,2.52,2.52,0,0,0-.44-.16c-.16,0-.32-.1-.46-.16a4.68,4.68,0,0,1-.63-.29,1.54,1.54,0,0,1-.46-.36,1.44,1.44,0,0,1-.28-.48,1.74,1.74,0,0,1-.1-.63,1.61,1.61,0,0,1,.22-.87,1.88,1.88,0,0,1,.59-.6,3,3,0,0,1,.83-.34,4.62,4.62,0,0,1,1-.1,5.49,5.49,0,0,1,.8.06,5.3,5.3,0,0,1,.81.18v1.43a2.76,2.76,0,0,0-.75-.31,3.11,3.11,0,0,0-.79-.1,1.87,1.87,0,0,0-.34,0,1,1,0,0,0-.28.09.54.54,0,0,0-.2.16.4.4,0,0,0,0,.5.79.79,0,0,0,.27.2,2.15,2.15,0,0,0,.38.15l.41.14a6.16,6.16,0,0,1,.67.28,2.21,2.21,0,0,1,.51.36,1.29,1.29,0,0,1,.33.48,1.66,1.66,0,0,1,.12.66,1.76,1.76,0,0,1-.23.91,1.81,1.81,0,0,1-.62.61,2.75,2.75,0,0,1-.88.35,5.17,5.17,0,0,1-1,.11A5.23,5.23,0,0,1,300.57,97.67Z" fill="#1e1e1e"/>
    </g>
    <g>
      <path d="M267.74,142.83h-1.87v-5c0-.54,0-1.14.07-1.79h-.05a9.45,9.45,0,0,1-.26,1.11l-2,5.71h-1.55l-2-5.65a9.31,9.31,0,0,1-.27-1.17h0c0,.82.08,1.55.08,2.18v4.64h-1.71v-8.4h2.77l1.72,5a6.58,6.58,0,0,1,.3,1.2h0a12.46,12.46,0,0,1,.34-1.21l1.72-5h2.7Z" fill="#1e1e1e"/>
      <path d="M274.84,140.36h-3.92c.06.87.61,1.31,1.65,1.31a3.24,3.24,0,0,0,1.74-.47v1.33a4.56,4.56,0,0,1-2.16.45,2.79,2.79,0,0,1-3.06-3,3.2,3.2,0,0,1,.87-2.37,2.87,2.87,0,0,1,2.13-.87,2.66,2.66,0,0,1,2,.77,3,3,0,0,1,.72,2.12Zm-1.72-1.14c0-.86-.35-1.29-1-1.29a1,1,0,0,0-.77.37,1.72,1.72,0,0,0-.4.92Z" fill="#1e1e1e"/>
      <path d="M275.69,142.67v-1.5a3.82,3.82,0,0,0,.91.41,3.08,3.08,0,0,0,.86.14,1.84,1.84,0,0,0,.78-.14.42.42,0,0,0,.28-.41.37.37,0,0,0-.13-.29.88.88,0,0,0-.33-.2,2.52,2.52,0,0,0-.44-.16c-.16-.05-.32-.1-.46-.16a4.68,4.68,0,0,1-.63-.29,1.54,1.54,0,0,1-.46-.36,1.44,1.44,0,0,1-.28-.48,1.74,1.74,0,0,1-.1-.63,1.61,1.61,0,0,1,.22-.87,1.88,1.88,0,0,1,.59-.6,3,3,0,0,1,.83-.34,4.62,4.62,0,0,1,1-.1,5.73,5.73,0,0,1,.81.06,5.45,5.45,0,0,1,.8.18v1.43a2.76,2.76,0,0,0-.75-.31,3.11,3.11,0,0,0-.79-.1,1.87,1.87,0,0,0-.34,0,1,1,0,0,0-.28.09.54.54,0,0,0-.2.16.4.4,0,0,0,0,.5.79.79,0,0,0,.27.2,2.15,2.15,0,0,0,.38.15l.41.14a6.16,6.16,0,0,1,.67.28,2.21,2.21,0,0,1,.51.36,1.29,1.29,0,0,1,.33.48,1.66,1.66,0,0,1,.12.66,1.76,1.76,0,0,1-.23.91,1.81,1.81,0,0,1-.62.61,2.75,2.75,0,0,1-.88.35,5.17,5.17,0,0,1-1,.11A5.23,5.23,0,0,1,275.69,142.67Z" fill="#1e1e1e"/>
      <path d="M281.11,142.67v-1.5a3.82,3.82,0,0,0,.91.41,3.08,3.08,0,0,0,.86.14,1.84,1.84,0,0,0,.78-.14.42.42,0,0,0,.28-.41.37.37,0,0,0-.13-.29.88.88,0,0,0-.33-.2,2.52,2.52,0,0,0-.44-.16c-.16-.05-.32-.1-.46-.16a4.68,4.68,0,0,1-.63-.29,1.54,1.54,0,0,1-.46-.36,1.44,1.44,0,0,1-.28-.48,1.74,1.74,0,0,1-.1-.63,1.61,1.61,0,0,1,.22-.87,1.88,1.88,0,0,1,.59-.6,3,3,0,0,1,.83-.34,4.62,4.62,0,0,1,1-.1,5.49,5.49,0,0,1,.8.06,5.3,5.3,0,0,1,.81.18v1.43a2.76,2.76,0,0,0-.75-.31,3.11,3.11,0,0,0-.79-.1,1.87,1.87,0,0,0-.34,0,1,1,0,0,0-.28.09.54.54,0,0,0-.2.16.4.4,0,0,0,0,.5.79.79,0,0,0,.27.2,2.15,2.15,0,0,0,.38.15l.41.14a6.16,6.16,0,0,1,.67.28,2.21,2.21,0,0,1,.51.36,1.29,1.29,0,0,1,.33.48,1.66,1.66,0,0,1,.12.66,1.76,1.76,0,0,1-.23.91,1.81,1.81,0,0,1-.62.61,2.75,2.75,0,0,1-.88.35,5.17,5.17,0,0,1-1,.11A5.23,5.23,0,0,1,281.11,142.67Z" fill="#1e1e1e"/>
      <path d="M291.89,142.83h-1.75V142h0a2,2,0,0,1-1.79,1,1.86,1.86,0,0,1-1.37-.5,1.75,1.75,0,0,1-.5-1.32c0-1.16.68-1.83,2.06-2l1.63-.22c0-.66-.35-1-1.06-1a3.65,3.65,0,0,0-2,.63v-1.39a4.57,4.57,0,0,1,1.05-.35,5.71,5.71,0,0,1,1.23-.15,2.26,2.26,0,0,1,2.56,2.56Zm-1.74-2.44V140l-1.09.14c-.6.08-.9.35-.9.82a.64.64,0,0,0,.22.51.82.82,0,0,0,.59.21,1.08,1.08,0,0,0,.85-.36A1.31,1.31,0,0,0,290.15,140.39Z" fill="#1e1e1e"/>
      <path d="M299.27,142.15a3.36,3.36,0,0,1-1,2.58,3.92,3.92,0,0,1-2.8.92,4.28,4.28,0,0,1-1.92-.35v-1.55a3.68,3.68,0,0,0,1.87.54,2,2,0,0,0,1.45-.5,1.76,1.76,0,0,0,.52-1.34V142h0a2.06,2.06,0,0,1-1.86,1,2.26,2.26,0,0,1-1.83-.81A3.27,3.27,0,0,1,293,140a3.67,3.67,0,0,1,.75-2.42,2.44,2.44,0,0,1,2-.89,1.82,1.82,0,0,1,1.64.84h0v-.7h1.85Zm-1.83-2.2v-.48a1.45,1.45,0,0,0-.34-1,1.09,1.09,0,0,0-.87-.4,1.15,1.15,0,0,0-1,.48,2.32,2.32,0,0,0-.35,1.36,1.9,1.9,0,0,0,.33,1.18,1.08,1.08,0,0,0,.92.44,1.16,1.16,0,0,0,.93-.44A1.87,1.87,0,0,0,297.44,140Z" fill="#1e1e1e"/>
      <path d="M306.22,140.36H302.3c.07.87.62,1.31,1.65,1.31a3.24,3.24,0,0,0,1.74-.47v1.33a4.5,4.5,0,0,1-2.16.45,2.79,2.79,0,0,1-3.06-3,3.2,3.2,0,0,1,.87-2.37,2.9,2.9,0,0,1,2.13-.87,2.66,2.66,0,0,1,2,.77,3,3,0,0,1,.72,2.12Zm-1.72-1.14c0-.86-.35-1.29-1-1.29a1,1,0,0,0-.77.37,1.72,1.72,0,0,0-.4.92Z" fill="#1e1e1e"/>
      <path d="M307.07,142.67v-1.5a3.82,3.82,0,0,0,.91.41,3.08,3.08,0,0,0,.86.14,1.84,1.84,0,0,0,.78-.14.42.42,0,0,0,.28-.41.37.37,0,0,0-.13-.29.88.88,0,0,0-.33-.2,2.52,2.52,0,0,0-.44-.16l-.46-.16a4.68,4.68,0,0,1-.63-.29,1.67,1.67,0,0,1-.46-.36,1.44,1.44,0,0,1-.28-.48,2,2,0,0,1-.1-.63,1.7,1.7,0,0,1,.22-.87,1.88,1.88,0,0,1,.59-.6,2.9,2.9,0,0,1,.84-.34,4.46,4.46,0,0,1,1-.1,5.73,5.73,0,0,1,.81.06,5.88,5.88,0,0,1,.81.18v1.43a3,3,0,0,0-.76-.31,3.11,3.11,0,0,0-.79-.1,1.87,1.87,0,0,0-.34,0,1,1,0,0,0-.28.09.64.64,0,0,0-.2.16.4.4,0,0,0,0,.5.79.79,0,0,0,.27.2,2.15,2.15,0,0,0,.38.15l.42.14a6.9,6.9,0,0,1,.66.28,2.52,2.52,0,0,1,.52.36,1.39,1.39,0,0,1,.32.48,1.66,1.66,0,0,1,.12.66,1.76,1.76,0,0,1-.23.91,1.81,1.81,0,0,1-.62.61,2.66,2.66,0,0,1-.88.35,5.1,5.1,0,0,1-1,.11A5.27,5.27,0,0,1,307.07,142.67Z" fill="#1e1e1e"/>
    </g>
    <g>
      <path d="M42.35,15H40.29l-.6-1.87h-3L36.11,15h-2l3.06-8.4h2.24Zm-3.09-3.32-.91-2.83a4.38,4.38,0,0,1-.14-.75h0a3.16,3.16,0,0,1-.15.73l-.91,2.85Z" fill="#1e1e1e"/>
      <path d="M48,15H42.58v-.77l3-3.86H42.88V9H48v.91l-2.86,3.72H48Z" fill="#1e1e1e"/>
      <path d="M54.67,15H52.82v-.91h0A2.11,2.11,0,0,1,51,15.15c-1.39,0-2.09-.85-2.09-2.53V9h1.85v3.46c0,.84.33,1.27,1,1.27a1,1,0,0,0,.8-.35,1.41,1.41,0,0,0,.3-1V9h1.85Z" fill="#1e1e1e"/>
      <path d="M60.14,10.67a1.61,1.61,0,0,0-.78-.18,1.12,1.12,0,0,0-.94.44,1.92,1.92,0,0,0-.34,1.2V15H56.22V9h1.86v1.11h0a1.6,1.6,0,0,1,1.58-1.22,1.35,1.35,0,0,1,.46.07Z" fill="#1e1e1e"/>
      <path d="M66.34,12.53H62.43c.06.87.61,1.3,1.65,1.3a3.23,3.23,0,0,0,1.74-.46V14.7a4.57,4.57,0,0,1-2.17.45,3,3,0,0,1-2.25-.81,3,3,0,0,1-.8-2.25,3.19,3.19,0,0,1,.86-2.36,2.87,2.87,0,0,1,2.14-.88,2.63,2.63,0,0,1,2,.78,3.05,3.05,0,0,1,.71,2.12Zm-1.71-1.14q0-1.29-1-1.29a1,1,0,0,0-.77.37,1.67,1.67,0,0,0-.39.92Z" fill="#1e1e1e"/>
      <path d="M70.55,14.68V12.8a3.45,3.45,0,0,0,1.11.64,3.4,3.4,0,0,0,1.21.22,2.35,2.35,0,0,0,.62-.07,1.39,1.39,0,0,0,.44-.17.87.87,0,0,0,.27-.27.69.69,0,0,0,.09-.34.74.74,0,0,0-.14-.44,1.52,1.52,0,0,0-.39-.36,3.74,3.74,0,0,0-.57-.31l-.72-.32a3.56,3.56,0,0,1-1.47-1A2.19,2.19,0,0,1,70.52,9a2.21,2.21,0,0,1,.26-1.12,2.16,2.16,0,0,1,.72-.78,3.33,3.33,0,0,1,1-.45,5.18,5.18,0,0,1,1.26-.14A6.86,6.86,0,0,1,75,6.54a4.22,4.22,0,0,1,.93.24V8.53a2.9,2.9,0,0,0-.46-.26,3.82,3.82,0,0,0-.51-.18A3.46,3.46,0,0,0,74.42,8l-.5,0a2.74,2.74,0,0,0-.59.06,1.62,1.62,0,0,0-.44.17.73.73,0,0,0-.28.27.59.59,0,0,0-.1.34.61.61,0,0,0,.11.38,1.21,1.21,0,0,0,.32.32,2.76,2.76,0,0,0,.49.29c.2.1.42.2.67.3a7.55,7.55,0,0,1,.9.45,2.87,2.87,0,0,1,.69.53,2.08,2.08,0,0,1,.44.69,2.4,2.4,0,0,1,.15.89A2.37,2.37,0,0,1,76,13.82a2,2,0,0,1-.72.77,3.15,3.15,0,0,1-1.06.43,6.61,6.61,0,0,1-1.28.13A7,7,0,0,1,71.63,15,4.42,4.42,0,0,1,70.55,14.68Z" fill="#1e1e1e"/>
      <path d="M80.81,14.93a2.77,2.77,0,0,1-1.24.22q-1.95,0-1.95-2V10.37h-1V9h1V7.71l1.84-.53V9h1.35v1.37H79.46v2.42c0,.63.25.94.75.94a1.31,1.31,0,0,0,.6-.17Z" fill="#1e1e1e"/>
      <path d="M86.85,15H85.09v-.86h0a2,2,0,0,1-1.79,1,1.86,1.86,0,0,1-1.37-.5,1.79,1.79,0,0,1-.5-1.32c0-1.16.69-1.84,2.07-2l1.63-.21c0-.66-.36-1-1.07-1a3.67,3.67,0,0,0-2,.64V9.36A4.22,4.22,0,0,1,83.06,9a5.05,5.05,0,0,1,1.22-.16,2.27,2.27,0,0,1,2.57,2.56Zm-1.74-2.44v-.4L84,12.3c-.61.08-.91.35-.91.81a.69.69,0,0,0,.22.52.84.84,0,0,0,.6.2,1.1,1.1,0,0,0,.85-.36A1.29,1.29,0,0,0,85.11,12.56Z" fill="#1e1e1e"/>
      <path d="M92.86,14.78a3.57,3.57,0,0,1-1.81.37,3.06,3.06,0,0,1-2.24-.84A2.9,2.9,0,0,1,88,12.15a3.18,3.18,0,0,1,.92-2.41,3.38,3.38,0,0,1,2.45-.89,3.26,3.26,0,0,1,1.54.28v1.58a2.13,2.13,0,0,0-1.3-.44,1.71,1.71,0,0,0-1.26.47A1.74,1.74,0,0,0,89.83,12a1.69,1.69,0,0,0,.45,1.25,1.61,1.61,0,0,0,1.22.46,2.46,2.46,0,0,0,1.36-.44Z" fill="#1e1e1e"/>
      <path d="M100.08,15H97.86L96,12h0v3H94.07V6.12h1.85v5.65h0L97.73,9h2.2l-2.15,2.82Z" fill="#1e1e1e"/>
      <path d="M111.54,15h-1.9V11.58h-3.48V15h-1.89V6.6h1.89V10h3.48V6.6h1.9Z" fill="#1e1e1e"/>
      <path d="M119,15h-1.84v-.91h0a2.11,2.11,0,0,1-1.83,1.06c-1.4,0-2.09-.85-2.09-2.53V9H115v3.46c0,.84.33,1.27,1,1.27a1,1,0,0,0,.8-.35,1.41,1.41,0,0,0,.3-1V9H119Z" fill="#1e1e1e"/>
      <path d="M122.42,14.3h0V15h-1.85V6.12h1.85V9.9h0a2.2,2.2,0,0,1,2-1.05,2.16,2.16,0,0,1,1.79.8,3.49,3.49,0,0,1,.62,2.18,3.72,3.72,0,0,1-.73,2.41,2.41,2.41,0,0,1-2,.91A1.88,1.88,0,0,1,122.42,14.3Zm0-2.53v.62a1.44,1.44,0,0,0,.33,1,1.09,1.09,0,0,0,.85.38,1.14,1.14,0,0,0,1-.49,2.4,2.4,0,0,0,.34-1.39,1.9,1.9,0,0,0-.31-1.16,1.1,1.1,0,0,0-.92-.42,1.18,1.18,0,0,0-.92.42A1.58,1.58,0,0,0,122.37,11.77Z" fill="#1e1e1e"/>
      <path d="M131.09,14.68V12.8a3.45,3.45,0,0,0,1.11.64,3.39,3.39,0,0,0,1.2.22,2.38,2.38,0,0,0,.63-.07,1.5,1.5,0,0,0,.44-.17.87.87,0,0,0,.27-.27.69.69,0,0,0,.09-.34.74.74,0,0,0-.14-.44,1.52,1.52,0,0,0-.39-.36,3.74,3.74,0,0,0-.57-.31l-.72-.32a3.56,3.56,0,0,1-1.47-1A2.19,2.19,0,0,1,131.05,9a2.21,2.21,0,0,1,.27-1.12,2.07,2.07,0,0,1,.72-.78,3.33,3.33,0,0,1,1.05-.45,5.18,5.18,0,0,1,1.26-.14,6.86,6.86,0,0,1,1.17.08,4.37,4.37,0,0,1,.93.24V8.53a2.9,2.9,0,0,0-.46-.26,4.4,4.4,0,0,0-.51-.18A3.33,3.33,0,0,0,135,8l-.49,0a2.68,2.68,0,0,0-.59.06,1.62,1.62,0,0,0-.44.17.73.73,0,0,0-.28.27.59.59,0,0,0-.1.34.61.61,0,0,0,.11.38,1.33,1.33,0,0,0,.31.32,3.3,3.3,0,0,0,.5.29l.66.3a7,7,0,0,1,.91.45,2.87,2.87,0,0,1,.69.53,2.08,2.08,0,0,1,.44.69,2.4,2.4,0,0,1,.15.89,2.37,2.37,0,0,1-.27,1.18,2.05,2.05,0,0,1-.72.77,3.15,3.15,0,0,1-1.06.43,6.61,6.61,0,0,1-1.28.13,7,7,0,0,1-1.32-.12A4.15,4.15,0,0,1,131.09,14.68Z" fill="#1e1e1e"/>
      <path d="M141.35,14.93a2.8,2.8,0,0,1-1.24.22q-2,0-2-2V10.37h-1V9h1V7.71L140,7.18V9h1.35v1.37H140v2.42c0,.63.25.94.75.94a1.31,1.31,0,0,0,.6-.17Z" fill="#1e1e1e"/>
      <path d="M145.21,15.15a3.23,3.23,0,0,1-2.36-.84A3,3,0,0,1,142,12a3.07,3.07,0,0,1,.89-2.33,3.37,3.37,0,0,1,2.41-.84,3.19,3.19,0,0,1,2.34.84,3,3,0,0,1,.85,2.23,3.16,3.16,0,0,1-.88,2.36A3.23,3.23,0,0,1,145.21,15.15Zm0-4.88a1.23,1.23,0,0,0-1,.45,2,2,0,0,0-.36,1.28c0,1.15.46,1.73,1.39,1.73s1.33-.59,1.33-1.78S146.15,10.27,145.25,10.27Z" fill="#1e1e1e"/>
      <path d="M153.6,10.67a1.66,1.66,0,0,0-.78-.18,1.14,1.14,0,0,0-.95.44,2,2,0,0,0-.34,1.2V15h-1.85V9h1.85v1.11h0a1.6,1.6,0,0,1,1.58-1.22,1.39,1.39,0,0,1,.46.07Z" fill="#1e1e1e"/>
      <path d="M159.45,15H157.7v-.86h0a2,2,0,0,1-1.78,1,1.88,1.88,0,0,1-1.38-.5,1.79,1.79,0,0,1-.5-1.32c0-1.16.69-1.84,2.07-2l1.63-.21c0-.66-.36-1-1.07-1a3.72,3.72,0,0,0-2,.64V9.36A4.22,4.22,0,0,1,155.66,9a5.18,5.18,0,0,1,1.22-.16,2.27,2.27,0,0,1,2.57,2.56Zm-1.74-2.44v-.4l-1.09.14q-.9.12-.9.81a.66.66,0,0,0,.22.52.8.8,0,0,0,.59.2,1.1,1.1,0,0,0,.85-.36A1.29,1.29,0,0,0,157.71,12.56Z" fill="#1e1e1e"/>
      <path d="M166.8,14.31a3.41,3.41,0,0,1-1,2.59,3.92,3.92,0,0,1-2.8.92,4.42,4.42,0,0,1-1.92-.35V15.91a3.66,3.66,0,0,0,1.87.54,2,2,0,0,0,1.45-.49,1.8,1.8,0,0,0,.52-1.35v-.47h0a2.07,2.07,0,0,1-1.87,1,2.25,2.25,0,0,1-1.82-.81,3.27,3.27,0,0,1-.67-2.17,3.65,3.65,0,0,1,.75-2.42,2.43,2.43,0,0,1,2-.9,1.81,1.81,0,0,1,1.64.85h0V9h1.85ZM165,12.12v-.48a1.44,1.44,0,0,0-.34-1,1.09,1.09,0,0,0-.87-.4,1.13,1.13,0,0,0-1,.48,2.23,2.23,0,0,0-.35,1.36,1.9,1.9,0,0,0,.33,1.18,1.1,1.1,0,0,0,.92.44,1.12,1.12,0,0,0,.92-.44A1.82,1.82,0,0,0,165,12.12Z" fill="#1e1e1e"/>
      <path d="M173.73,12.53h-3.91c.06.87.61,1.3,1.65,1.3a3.23,3.23,0,0,0,1.74-.46V14.7a4.57,4.57,0,0,1-2.17.45,3,3,0,0,1-2.25-.81,3,3,0,0,1-.8-2.25,3.23,3.23,0,0,1,.86-2.36A2.87,2.87,0,0,1,171,8.85a2.63,2.63,0,0,1,2,.78,3,3,0,0,1,.71,2.12ZM172,11.39q0-1.29-1.05-1.29a1,1,0,0,0-.77.37,1.75,1.75,0,0,0-.39.92Z" fill="#1e1e1e"/>
      <path d="M184.35,14.7a5.46,5.46,0,0,1-2.4.45,4,4,0,0,1-3-1.14,4.16,4.16,0,0,1-1.11-3,4.46,4.46,0,0,1,1.25-3.27,4.36,4.36,0,0,1,3.23-1.25,5.94,5.94,0,0,1,2.07.31V8.59a3.62,3.62,0,0,0-1.92-.5,2.52,2.52,0,0,0-1.91.74,2.79,2.79,0,0,0-.73,2,2.69,2.69,0,0,0,.69,1.94,2.43,2.43,0,0,0,1.84.72,3.93,3.93,0,0,0,2-.54Z" fill="#1e1e1e"/>
      <path d="M188.49,15.15a3.2,3.2,0,0,1-2.35-.84,3,3,0,0,1-.86-2.29,3,3,0,0,1,.89-2.33,3.35,3.35,0,0,1,2.41-.84,3.19,3.19,0,0,1,2.34.84,3,3,0,0,1,.85,2.23,3.16,3.16,0,0,1-.88,2.36A3.24,3.24,0,0,1,188.49,15.15Zm0-4.88a1.23,1.23,0,0,0-1,.45,2,2,0,0,0-.36,1.28c0,1.15.46,1.73,1.39,1.73s1.33-.59,1.33-1.78S189.44,10.27,188.54,10.27Z" fill="#1e1e1e"/>
      <path d="M198.77,15h-1.85V11.67c0-.93-.33-1.4-1-1.4a1,1,0,0,0-.79.37,1.46,1.46,0,0,0-.31.94V15H193V9h1.85V10h0a2.12,2.12,0,0,1,1.92-1.1c1.33,0,2,.83,2,2.48Z" fill="#1e1e1e"/>
      <path d="M204.78,14.78a3.57,3.57,0,0,1-1.81.37,3,3,0,0,1-2.24-.84,2.9,2.9,0,0,1-.86-2.16,3.18,3.18,0,0,1,.92-2.41,3.38,3.38,0,0,1,2.45-.89,3.26,3.26,0,0,1,1.54.28v1.58a2.13,2.13,0,0,0-1.3-.44,1.71,1.71,0,0,0-1.26.47,1.74,1.74,0,0,0-.47,1.28,1.69,1.69,0,0,0,.45,1.25,1.61,1.61,0,0,0,1.22.46,2.46,2.46,0,0,0,1.36-.44Z" fill="#1e1e1e"/>
      <path d="M211.38,12.53h-3.91c.06.87.61,1.3,1.64,1.3a3.23,3.23,0,0,0,1.74-.46V14.7a4.5,4.5,0,0,1-2.16.45,3,3,0,0,1-2.25-.81,3,3,0,0,1-.81-2.25,3.19,3.19,0,0,1,.87-2.36,2.87,2.87,0,0,1,2.13-.88,2.62,2.62,0,0,1,2,.78,3,3,0,0,1,.72,2.12Zm-1.72-1.14c0-.86-.34-1.29-1-1.29a1,1,0,0,0-.77.37,1.6,1.6,0,0,0-.39.92Z" fill="#1e1e1e"/>
      <path d="M214.36,14.3h0v3.46h-1.85V9h1.85v.9h0a2.17,2.17,0,0,1,1.93-1.05,2.19,2.19,0,0,1,1.8.8,3.45,3.45,0,0,1,.63,2.18,3.67,3.67,0,0,1-.74,2.41,2.43,2.43,0,0,1-2,.91A1.86,1.86,0,0,1,214.36,14.3Zm-.06-2.46v.48a1.54,1.54,0,0,0,.33,1,1.08,1.08,0,0,0,.86.39,1.14,1.14,0,0,0,1-.49,2.4,2.4,0,0,0,.34-1.39c0-1-.41-1.58-1.23-1.58a1.16,1.16,0,0,0-.92.43A1.68,1.68,0,0,0,214.3,11.84Z" fill="#1e1e1e"/>
      <path d="M223.55,14.93a2.77,2.77,0,0,1-1.24.22q-2,0-1.95-2V10.37h-1V9h1V7.71l1.84-.53V9h1.35v1.37H222.2v2.42c0,.63.25.94.75.94a1.31,1.31,0,0,0,.6-.17Z" fill="#1e1e1e"/>
      <path d="M224.2,14.84v-1.5a3.82,3.82,0,0,0,.91.41,3.08,3.08,0,0,0,.86.14,1.84,1.84,0,0,0,.78-.14.42.42,0,0,0,.28-.41.36.36,0,0,0-.13-.29,1,1,0,0,0-.33-.21,3.76,3.76,0,0,0-.44-.15c-.16,0-.32-.1-.46-.16a4.68,4.68,0,0,1-.63-.29,1.94,1.94,0,0,1-.46-.36,1.44,1.44,0,0,1-.28-.48,1.76,1.76,0,0,1-.1-.64,1.6,1.6,0,0,1,.22-.86,1.78,1.78,0,0,1,.59-.6,2.68,2.68,0,0,1,.83-.34,4.62,4.62,0,0,1,1-.11,4.4,4.4,0,0,1,.8.07,6.83,6.83,0,0,1,.81.17v1.43a2.74,2.74,0,0,0-.75-.3,3.13,3.13,0,0,0-.79-.11,1.27,1.27,0,0,0-.34,0,1,1,0,0,0-.28.09.46.46,0,0,0-.2.16.4.4,0,0,0,0,.5,1,1,0,0,0,.27.2,2.15,2.15,0,0,0,.38.15l.41.14a6.16,6.16,0,0,1,.67.28,1.94,1.94,0,0,1,.51.36,1.29,1.29,0,0,1,.33.48,1.62,1.62,0,0,1,.12.66,1.76,1.76,0,0,1-.23.91,1.9,1.9,0,0,1-.62.61,2.75,2.75,0,0,1-.88.35,5.17,5.17,0,0,1-1,.11A5.46,5.46,0,0,1,224.2,14.84Z" fill="#1e1e1e"/>
    </g>
  </g>
</svg>
