<svg xmlns="http://www.w3.org/2000/svg" xmlns:xlink="http://www.w3.org/1999/xlink" viewBox="0 0 850.21 74">
  <defs>
    <linearGradient id="linear-gradient" x1="17.64" y1="517.93" x2="20.37" y2="515.2" gradientTransform="matrix(1, 0, 0, -1, 2.95, 531.6)" gradientUnits="userSpaceOnUse">
      <stop offset="0" stop-color="#86d633"/>
      <stop offset="0.24" stop-color="#83d232"/>
      <stop offset="0.5" stop-color="#7cc52f"/>
      <stop offset="0.76" stop-color="#6fb02a"/>
      <stop offset="1" stop-color="#5e9624"/>
    </linearGradient>
    <linearGradient id="linear-gradient-2" x1="11.48" y1="517.93" x2="14.19" y2="515.2" xlink:href="#linear-gradient"/>
    <linearGradient id="linear-gradient-3" x1="5.32" y1="517.94" x2="8.03" y2="515.2" xlink:href="#linear-gradient"/>
    <linearGradient id="linear-gradient-4" x1="532" y1="507.59" x2="532" y2="530.14" gradientTransform="matrix(0.71, 0.71, 0.71, -0.71, -211.88, 3.51)" gradientUnits="userSpaceOnUse">
      <stop offset="0" stop-color="#258277"/>
      <stop offset="0.42" stop-color="#49a498"/>
      <stop offset="0.78" stop-color="#60baad"/>
      <stop offset="1" stop-color="#68c2b5"/>
    </linearGradient>
    <linearGradient id="linear-gradient-5" x1="60.06" y1="29" x2="60.06" y2="74" gradientUnits="userSpaceOnUse">
      <stop offset="0" stop-color="#5ea0ef"/>
      <stop offset="0.18" stop-color="#559cec"/>
      <stop offset="0.47" stop-color="#3c91e5"/>
      <stop offset="0.84" stop-color="#1380da"/>
      <stop offset="1" stop-color="#0078d4"/>
    </linearGradient>
    <linearGradient id="linear-gradient-6" x1="310.06" y1="29" x2="310.06" y2="74" xlink:href="#linear-gradient-5"/>
    <linearGradient id="linear-gradient-7" x1="445.06" y1="29" x2="445.06" y2="74" xlink:href="#linear-gradient-5"/>
    <linearGradient id="linear-gradient-8" x1="685" y1="29" x2="685" y2="74" xlink:href="#linear-gradient-5"/>
    <linearGradient id="linear-gradient-9" x1="185" y1="29" x2="185" y2="74" xlink:href="#linear-gradient-5"/>
    <linearGradient id="linear-gradient-10" x1="267.01" y1="536.85" x2="267.64" y2="503.99" gradientTransform="matrix(1, 0, 0, -1, 0, 532)" gradientUnits="userSpaceOnUse">
      <stop offset="0.22" stop-color="#32d4f5"/>
      <stop offset="0.47" stop-color="#31d1f3"/>
      <stop offset="0.63" stop-color="#2ec9eb"/>
      <stop offset="0.77" stop-color="#29bade"/>
      <stop offset="0.89" stop-color="#22a5cb"/>
      <stop offset="1" stop-color="#198ab3"/>
    </linearGradient>
    <linearGradient id="linear-gradient-11" x1="152.5" y1="512.94" x2="152.5" y2="526.27" gradientTransform="matrix(1, 0, 0, -1, 0, 532)" gradientUnits="userSpaceOnUse">
      <stop offset="0" stop-color="#0078d4"/>
      <stop offset="0.82" stop-color="#5ea0ef"/>
    </linearGradient>
    <linearGradient id="linear-gradient-12" x1="152.5" y1="507.79" x2="152.5" y2="512.94" gradientTransform="matrix(1, 0, 0, -1, 0, 532)" gradientUnits="userSpaceOnUse">
      <stop offset="0.15" stop-color="#ccc"/>
      <stop offset="1" stop-color="#707070"/>
    </linearGradient>
    <linearGradient id="linear-gradient-13" x1="393.45" y1="542.24" x2="394.16" y2="505.28" xlink:href="#linear-gradient-10"/>
    <linearGradient id="linear-gradient-14" x1="572.5" y1="29" x2="572.5" y2="74" xlink:href="#linear-gradient-5"/>
    <linearGradient id="linear-gradient-15" x1="797.71" y1="29" x2="797.71" y2="74" xlink:href="#linear-gradient-5"/>
    <linearGradient id="linear-gradient-16" x1="655.61" y1="508.66" x2="655.61" y2="519.06" gradientTransform="matrix(1, 0, 0, -1, 0, 532)" gradientUnits="userSpaceOnUse">
      <stop offset="0" stop-color="#5e9624"/>
      <stop offset="0.01" stop-color="#5e9724"/>
      <stop offset="0.35" stop-color="#6cab29"/>
      <stop offset="0.68" stop-color="#73b82c"/>
      <stop offset="1" stop-color="#76bc2d"/>
    </linearGradient>
    <linearGradient id="linear-gradient-17" x1="648.39" y1="512.93" x2="648.39" y2="523.32" xlink:href="#linear-gradient-11"/>
    <linearGradient id="linear-gradient-18" x1="653.88" y1="518.63" x2="650.73" y2="514.14" gradientTransform="matrix(1, 0, 0, -1, 0, 532)" gradientUnits="userSpaceOnUse">
      <stop offset="0" stop-color="#005ba1"/>
      <stop offset="0.14" stop-color="#035da3" stop-opacity="0.97"/>
      <stop offset="0.3" stop-color="#0b63aa" stop-opacity="0.88"/>
      <stop offset="0.47" stop-color="#196eb6" stop-opacity="0.73"/>
      <stop offset="0.65" stop-color="#2d7cc6" stop-opacity="0.52"/>
      <stop offset="0.84" stop-color="#468edb" stop-opacity="0.26"/>
      <stop offset="1" stop-color="#5ea0ef" stop-opacity="0"/>
    </linearGradient>
    <linearGradient id="linear-gradient-19" x1="756.71" y1="514.17" x2="756.71" y2="530.17" xlink:href="#linear-gradient-11"/>
    <linearGradient id="linear-gradient-20" x1="756.71" y1="508" x2="756.71" y2="514.17" xlink:href="#linear-gradient-12"/>
  </defs>
  <g id="Shapes">
    <rect width="850.21" height="74" fill="#fff"/>
    <g>
      <circle cx="21.23" cy="15" r="1.93" fill="url(#linear-gradient)"/>
      <circle cx="15.07" cy="15.02" r="1.93" fill="url(#linear-gradient-2)"/>
      <circle cx="8.9" cy="15.02" r="1.93" fill="url(#linear-gradient-3)"/>
      <path d="M10.31,22.74,9.2,23.85a.5.5,0,0,1-.71,0h0L.31,15.69a1,1,0,0,1,0-1.41h0l1.11-1.11h0L10.31,22a.5.5,0,0,1,0,.7Z" fill="#50e6ff"/>
      <path d="M9,6.2l1.11,1.11a.48.48,0,0,1,0,.7L1.4,16.78h0L.29,15.67a1,1,0,0,1,0-1.41h0l8-8.06A.5.5,0,0,1,9,6.2Z" fill="#1490df"/>
      <path d="M28.59,13.15l1.11,1.11a1,1,0,0,1,0,1.41h0l-8.19,8.17a.51.51,0,0,1-.71,0h0l-1.1-1.11a.5.5,0,0,1,0-.71h0l8.89-8.87Z" fill="#50e6ff"/>
      <path d="M29.69,15.66l-1.1,1.11h0L19.84,8a.49.49,0,0,1,0-.7h0L21,6.18a.48.48,0,0,1,.7,0h0l8,8.06a1,1,0,0,1,0,1.41h0Z" fill="#1490df"/>
    </g>
    <g>
      <rect x="523.28" y="3.28" width="17.44" height="17.44" rx="0.81" transform="translate(147.33 379.7) rotate(-45)" fill="url(#linear-gradient-4)"/>
      <path d="M529.26,5.9l2.65-2.66a.15.15,0,0,1,.2,0l2.73,2.66a.14.14,0,0,1,0,.18.13.13,0,0,1-.12,0h-1.63a.15.15,0,0,0-.14.15h0V9.7a.12.12,0,0,1-.12.13h-1.66a.14.14,0,0,1-.14-.12h0V6.27a.14.14,0,0,0-.12-.15h-1.57a.13.13,0,0,1-.13-.15A.09.09,0,0,1,529.26,5.9Zm5.58,12.2-2.73,2.66a.15.15,0,0,1-.2,0l-2.65-2.66a.14.14,0,0,1,0-.2l.07,0h1.57a.14.14,0,0,0,.12-.15V14.3a.13.13,0,0,1,.13-.13h1.67a.12.12,0,0,1,.12.13h0v3.43a.15.15,0,0,0,.14.15h1.56a.14.14,0,0,1,.2,0A.15.15,0,0,1,534.84,18.1Zm-8-3.5V13.05a.15.15,0,0,0-.14-.15h-3.43a.14.14,0,0,1-.14-.12V11.12a.17.17,0,0,1,.14-.14h3.43a.13.13,0,0,0,.14-.12V9.29a.12.12,0,0,1,.08-.16.11.11,0,0,1,.15,0l2.65,2.68a.12.12,0,0,1,0,.18h0l-2.65,2.66a.14.14,0,0,1-.18,0A.15.15,0,0,1,526.84,14.6Zm10.34-5.31v1.57a.14.14,0,0,0,.14.12h3.44a.17.17,0,0,1,.14.14v1.66a.14.14,0,0,1-.14.12h-3.44a.17.17,0,0,0-.14.15V14.6a.13.13,0,0,1-.1.15.15.15,0,0,1-.12-.05L534.3,12a.13.13,0,0,1,0-.18h0L537,9.18a.12.12,0,0,1,.17,0A.12.12,0,0,1,537.18,9.29Z" fill="#fff"/>
    </g>
    <g>
      <rect y="29" width="120.11" height="45" fill="#fff"/>
      <rect y="29" width="120.11" height="45" opacity="0.5" fill="url(#linear-gradient-5)"/>
    </g>
    <g>
      <line x1="120" y1="51.5" x2="129.62" y2="51.5" fill="none" stroke="#3c3c41" stroke-miterlimit="10"/>
      <polygon points="128.52 55.24 135 51.5 128.52 47.76 128.52 55.24" fill="#3c3c41"/>
    </g>
    <g>
      <rect x="250" y="29" width="120.11" height="45" fill="#fff"/>
      <rect x="250" y="29" width="120.11" height="45" opacity="0.5" fill="url(#linear-gradient-6)"/>
    </g>
    <g>
      <line x1="370" y1="51.5" x2="379.62" y2="51.5" fill="none" stroke="#3c3c41" stroke-miterlimit="10"/>
      <polygon points="378.52 55.24 385 51.5 378.52 47.76 378.52 55.24" fill="#3c3c41"/>
    </g>
    <g>
      <rect x="385" y="29" width="120.11" height="45" fill="#fff"/>
      <rect x="385" y="29" width="120.11" height="45" opacity="0.5" fill="url(#linear-gradient-7)"/>
    </g>
    <g>
      <line x1="505" y1="51.5" x2="514.62" y2="51.5" fill="none" stroke="#3c3c41" stroke-miterlimit="10"/>
      <polygon points="513.52 55.24 520 51.5 513.52 47.76 513.52 55.24" fill="#3c3c41"/>
    </g>
    <g>
      <rect x="640" y="29" width="90" height="45" fill="#fff"/>
      <rect x="640" y="29" width="90" height="45" opacity="0.5" fill="url(#linear-gradient-8)"/>
    </g>
    <g>
      <line x1="730" y1="51.5" x2="739.62" y2="51.5" fill="none" stroke="#3c3c41" stroke-miterlimit="10"/>
      <polygon points="738.52 55.24 745 51.5 738.52 47.76 738.52 55.24" fill="#3c3c41"/>
    </g>
    <g>
      <rect x="135" y="29" width="100" height="45" fill="#fff"/>
      <rect x="135" y="29" width="100" height="45" opacity="0.5" fill="url(#linear-gradient-9)"/>
    </g>
    <g>
      <line x1="235" y1="51.5" x2="244.62" y2="51.5" fill="none" stroke="#3c3c41" stroke-miterlimit="10"/>
      <polygon points="243.52 55.24 250 51.5 243.52 47.76 243.52 55.24" fill="#3c3c41"/>
    </g>
    <g>
      <g>
        <rect x="250" y="7.97" width="35" height="10" fill="#fff"/>
        <rect x="250" y="7.97" width="35" height="10" fill="#3c3c41" opacity="0.25"/>
      </g>
      <g>
        <path d="M274.65,14.58h-1.13V11a6.87,6.87,0,0,0-1.76-4.63,5.59,5.59,0,0,0-4.36-2,5.7,5.7,0,0,0-4.37,2A6.77,6.77,0,0,0,261.26,11v3.63h-.95a.83.83,0,0,0-.81.81v9.39a.83.83,0,0,0,.81.81h14.34a.85.85,0,0,0,.83-.81V15.39A.83.83,0,0,0,274.65,14.58Zm-4,0h-6.56V10.84a3.7,3.7,0,0,1,1-2.5,3,3,0,0,1,2.23-1,2.9,2.9,0,0,1,2.22,1,3.14,3.14,0,0,1,.39.51h0a3.37,3.37,0,0,1,.71,2Z" fill="url(#linear-gradient-10)"/>
        <path d="M274.69,14.58H260.34a.82.82,0,0,0-.54.2l15.41,10.67a.83.83,0,0,0,.29-.62V15.4A.82.82,0,0,0,274.69,14.58Z" fill="#50e6ff"/>
        <path d="M260.35,14.58H274.7a.81.81,0,0,1,.53.2L259.82,25.45a.86.86,0,0,1-.3-.62V15.4A.85.85,0,0,1,260.35,14.58Z" fill="#fff" opacity="0.2" style="isolation: isolate"/>
        <path d="M266.09,16.85l1.41-1.41a.08.08,0,0,1,.11,0l1.4,1.41a.09.09,0,0,1,0,.11l0,0h-.89a.07.07,0,0,0-.07.07h0v1.89h-.95V17.05A.07.07,0,0,0,267,17h-.89a.08.08,0,0,1-.07-.08A.08.08,0,0,1,266.09,16.85ZM269,23.32l-1.4,1.41a.11.11,0,0,1-.11,0l-1.4-1.41V23.2h.82a.08.08,0,0,0,.08-.07h0V21.31a.06.06,0,0,1,0-.08h.88a.06.06,0,0,1,0,.08v1.82a.08.08,0,0,0,.08.07h.82C269,23.2,269.05,23.28,269,23.32Zm-5.54-1.83v-.82a.08.08,0,0,0-.08-.07h-1.82a.11.11,0,0,1,0-.08v-.87a.11.11,0,0,1,0-.08h1.82a.06.06,0,0,0,.08,0v-.86a.08.08,0,0,1,.1,0s0,0,0,0L265,20m0,.1-1.42,1.41a.07.07,0,0,1-.1,0s0,0,0-.05Zm6.63-1.42v.84h1.9s.06,0,.06.07v.88a.09.09,0,0,1-.06.07h-1.82a.07.07,0,0,0-.08.08h0v.82a.08.08,0,0,1-.1,0s0,0,0,0l-1.41-1.41a.07.07,0,0,1,0-.1l1.41-1.41a.09.09,0,0,1,.14,0A.1.1,0,0,1,271.63,18.71Z" fill="#fff"/>
      </g>
    </g>
    <g>
      <g>
        <rect x="135" y="7.97" width="35" height="10" fill="#fff"/>
        <rect x="135" y="7.97" width="35" height="10" fill="#3c3c41" opacity="0.25"/>
      </g>
      <g>
        <rect x="142.5" y="5.73" width="20" height="13.33" rx="0.67" fill="url(#linear-gradient-11)"/>
        <polygon points="155.83 10.45 155.83 14.33 152.5 16.28 152.5 12.39 155.83 10.45" fill="#50e6ff"/>
        <polygon points="155.83 10.45 152.5 12.41 149.17 10.45 152.5 8.51 155.83 10.45" fill="#c3f1ff"/>
        <polygon points="152.5 12.41 152.5 16.28 149.17 14.33 149.17 10.45 152.5 12.41" fill="#9cebff"/>
        <polygon points="149.17 14.33 152.5 12.39 152.5 16.28 149.17 14.33" fill="#c3f1ff"/>
        <polygon points="155.83 14.33 152.5 12.39 152.5 16.28 155.83 14.33" fill="#9cebff"/>
        <path d="M156.51,23.09c-2-.31-2-1.73-2-4h-3.93c0,2.3-.06,3.72-2,4a1.12,1.12,0,0,0-1,1.12h10A1.12,1.12,0,0,0,156.51,23.09Z" fill="url(#linear-gradient-12)"/>
      </g>
    </g>
    <g>
      <path d="M402.05,11.62h-1.28V7.53a7.71,7.71,0,0,0-2-5.21A6.35,6.35,0,0,0,393.89.1,6.44,6.44,0,0,0,389,2.32a7.59,7.59,0,0,0-2,5.21v4.09h-1.07a.92.92,0,0,0-.91.91V23.09a.93.93,0,0,0,.91.91h16.14a.94.94,0,0,0,.92-.91V12.53A.92.92,0,0,0,402.05,11.62Zm-4.47,0H390.2V7.4a4.17,4.17,0,0,1,1.13-2.8,3.39,3.39,0,0,1,2.52-1.16,3.31,3.31,0,0,1,2.49,1.16,2.71,2.71,0,0,1,.44.57h0a3.92,3.92,0,0,1,.8,2.28Z" fill="url(#linear-gradient-13)"/>
      <path d="M402.09,11.62H385.94a.94.94,0,0,0-.6.22l17.34,12a1,1,0,0,0,.32-.71V12.54A.92.92,0,0,0,402.09,11.62Z" fill="#50e6ff"/>
      <path d="M386,11.62H402.1a.9.9,0,0,1,.59.22l-17.32,12a.9.9,0,0,1-.34-.71V12.54A.93.93,0,0,1,386,11.62Z" fill="#fff" opacity="0.2" style="isolation: isolate"/>
      <path d="M392.41,14.17,394,12.59a.09.09,0,0,1,.13,0l1.57,1.58a.08.08,0,0,1,0,.12,0,0,0,0,1,0,0h-1a.09.09,0,0,0-.08.09h0v2.12h-1.07V14.4a.09.09,0,0,0-.08-.09h-1a.08.08,0,0,1-.08-.09S392.4,14.19,392.41,14.17Zm3.27,7.27L394.11,23a.09.09,0,0,1-.12,0l-1.58-1.59v-.12h.93a.08.08,0,0,0,.08-.09h0V19.18a.11.11,0,0,1,0-.08h1a.06.06,0,0,1,0,.08v2.05a.09.09,0,0,0,.09.09h.92C395.7,21.32,395.74,21.4,395.68,21.44Zm-6.23-2.05v-.92a.09.09,0,0,0-.08-.09h-2.05a.06.06,0,0,1,0-.08v-1a.07.07,0,0,1,0-.09h2.05a.06.06,0,0,0,.08,0v-1a.08.08,0,0,1,.12,0s0,0,0,0l1.6,1.49m0,.11-1.6,1.59a.08.08,0,0,1-.12,0,.08.08,0,0,1,0-.05Zm7.46-1.6v.94a.06.06,0,0,0,.08,0h2a.1.1,0,0,1,.07.09v1a.1.1,0,0,1-.07.09h-2a.08.08,0,0,0-.08.08h0v.93a.08.08,0,0,1-.12,0l0,0-1.59-1.59a.08.08,0,0,1,0-.11l1.59-1.59a.11.11,0,1,1,.14.18Z" fill="#fff"/>
    </g>
    <g>
      <rect x="520" y="29" width="105" height="45" fill="#fff"/>
      <rect x="520" y="29" width="105" height="45" opacity="0.5" fill="url(#linear-gradient-14)"/>
    </g>
    <g>
      <line x1="625" y1="51.5" x2="634.62" y2="51.5" fill="none" stroke="#3c3c41" stroke-miterlimit="10"/>
      <polygon points="633.52 55.24 640 51.5 633.52 47.76 633.52 55.24" fill="#3c3c41"/>
    </g>
    <g>
      <rect x="745.21" y="29" width="105" height="45" fill="#fff"/>
      <rect x="745.21" y="29" width="105" height="45" opacity="0.5" fill="url(#linear-gradient-15)"/>
    </g>
    <g>
      <path d="M658.33,12.94h-5.54a4.89,4.89,0,0,0-4.58,4.29H650a3,3,0,0,1,2.84-2.44h5.54a3.16,3.16,0,0,1,3,3.31,3.19,3.19,0,0,1-3,3.32h-5.54A3,3,0,0,1,650,19h-1.74a4.91,4.91,0,0,0,4.58,4.37h5.54A5,5,0,0,0,663,18.13,5,5,0,0,0,658.33,12.94Z" fill="url(#linear-gradient-16)"/>
      <path d="M651.21,17.23h-5.54a3.17,3.17,0,0,1-3-3.34h0a3.17,3.17,0,0,1,3-3.32h5.54A3,3,0,0,1,654.05,13h1.74a4.89,4.89,0,0,0-4.58-4.32h-5.54a5,5,0,0,0-4.66,5.2,5,5,0,0,0,4.66,5.19h5.54a4.88,4.88,0,0,0,4.58-4.28h-1.74A3,3,0,0,1,651.21,17.23Z" fill="url(#linear-gradient-17)"/>
      <path d="M651.21,17.23h-3.67v1.88h3.67a4.89,4.89,0,0,0,4.58-4.32h-1.74A3,3,0,0,1,651.21,17.23Z" fill="url(#linear-gradient-18)"/>
      <rect x="641.01" y="5.01" width="21.99" height="21.99" fill="none"/>
    </g>
    <g>
      <rect x="744.71" y="1.83" width="24" height="16" rx="0.8" fill="url(#linear-gradient-19)"/>
      <polygon points="760.71 7.49 760.71 12.15 756.71 14.49 756.71 9.83 760.71 7.49" fill="#50e6ff"/>
      <polygon points="760.71 7.49 756.71 9.84 752.71 7.49 756.71 5.16 760.71 7.49" fill="#c3f1ff"/>
      <polygon points="756.71 9.84 756.71 14.49 752.71 12.15 752.71 7.49 756.71 9.84" fill="#9cebff"/>
      <polygon points="752.71 12.15 756.71 9.83 756.71 14.49 752.71 12.15" fill="#c3f1ff"/>
      <polygon points="760.71 12.15 756.71 9.83 756.71 14.49 760.71 12.15" fill="#9cebff"/>
      <path d="M761.52,22.67c-2.37-.38-2.47-2.08-2.47-4.84h-4.7c0,2.76-.08,4.46-2.46,4.84A1.32,1.32,0,0,0,750.71,24h12A1.33,1.33,0,0,0,761.52,22.67Z" fill="url(#linear-gradient-20)"/>
    </g>
  </g>
  <g id="Text">
    <g>
      <path d="M39.51,48.78a5,5,0,0,1-2.32.49,3.75,3.75,0,0,1-2.88-1.15,4.3,4.3,0,0,1-1.07-3,4.47,4.47,0,0,1,1.21-3.26,4.1,4.1,0,0,1,3.07-1.24,5,5,0,0,1,2,.35v1a4.12,4.12,0,0,0-2-.5,3,3,0,0,0-2.34,1,3.62,3.62,0,0,0-.9,2.58,3.49,3.49,0,0,0,.84,2.45,2.87,2.87,0,0,0,2.2.91,4.21,4.21,0,0,0,2.2-.56Z" fill="#1e1e1e"/>
      <path d="M44.22,44.11a1.18,1.18,0,0,0-.73-.2,1.25,1.25,0,0,0-1,.58,2.74,2.74,0,0,0-.41,1.58v3.06h-1v-6h1v1.24h0a2.17,2.17,0,0,1,.63-1,1.44,1.44,0,0,1,.94-.35,1.52,1.52,0,0,1,.58.08Z" fill="#1e1e1e"/>
      <path d="M50.08,46.37H45.85a2.23,2.23,0,0,0,.53,1.55,1.88,1.88,0,0,0,1.42.54,3,3,0,0,0,1.87-.66v.9a3.53,3.53,0,0,1-2.1.57,2.53,2.53,0,0,1-2-.81,3.34,3.34,0,0,1-.73-2.3,3.29,3.29,0,0,1,.79-2.29,2.58,2.58,0,0,1,2-.88,2.29,2.29,0,0,1,1.83.76,3.19,3.19,0,0,1,.64,2.12Zm-1-.81a2,2,0,0,0-.4-1.3,1.4,1.4,0,0,0-1.1-.46,1.54,1.54,0,0,0-1.16.49,2.21,2.21,0,0,0-.58,1.27Z" fill="#1e1e1e"/>
      <path d="M55.83,49.13h-1V48.2h0A2,2,0,0,1,53,49.27a1.93,1.93,0,0,1-1.4-.47,1.65,1.65,0,0,1-.51-1.26c0-1.12.66-1.77,2-2l1.8-.25c0-1-.41-1.53-1.24-1.53a3,3,0,0,0-2,.74v-1a3.73,3.73,0,0,1,2-.56c1.41,0,2.12.75,2.12,2.24Zm-1-3-1.45.2a2.35,2.35,0,0,0-1,.33,1,1,0,0,0-.34.84.93.93,0,0,0,.32.72,1.22,1.22,0,0,0,.83.27A1.51,1.51,0,0,0,54.4,48a1.77,1.77,0,0,0,.47-1.26Z" fill="#1e1e1e"/>
      <path d="M60.42,49.07a1.76,1.76,0,0,1-.89.19c-1.05,0-1.58-.58-1.58-1.76V44h-1v-.82h1V41.67l1-.31v1.77h1.51V44H58.91v3.38a1.41,1.41,0,0,0,.21.87.81.81,0,0,0,.68.25.94.94,0,0,0,.62-.2Z" fill="#1e1e1e"/>
      <path d="M66.53,46.37H62.29a2.28,2.28,0,0,0,.54,1.55,1.88,1.88,0,0,0,1.42.54,2.94,2.94,0,0,0,1.86-.66v.9a3.47,3.47,0,0,1-2.09.57,2.56,2.56,0,0,1-2-.81,3.39,3.39,0,0,1-.72-2.3,3.29,3.29,0,0,1,.79-2.29,2.58,2.58,0,0,1,2-.88,2.27,2.27,0,0,1,1.82.76,3.2,3.2,0,0,1,.65,2.12Zm-1-.81a1.91,1.91,0,0,0-.4-1.3A1.39,1.39,0,0,0,64,43.8a1.54,1.54,0,0,0-1.15.49,2.22,2.22,0,0,0-.59,1.27Z" fill="#1e1e1e"/>
      <path d="M74.05,49.07a1.76,1.76,0,0,1-.89.19c-1.06,0-1.58-.58-1.58-1.76V44h-1v-.82h1V41.67l1-.31v1.77h1.51V44H72.54v3.38a1.41,1.41,0,0,0,.21.87.81.81,0,0,0,.68.25.94.94,0,0,0,.62-.2Z" fill="#1e1e1e"/>
      <path d="M80.32,49.13h-1V45.68c0-1.25-.46-1.88-1.39-1.88a1.51,1.51,0,0,0-1.18.54,2,2,0,0,0-.48,1.39v3.4h-1V40.25h1v3.88h0a2.18,2.18,0,0,1,2-1.14c1.35,0,2,.82,2,2.45Z" fill="#1e1e1e"/>
      <path d="M87,46.37H82.71a2.28,2.28,0,0,0,.54,1.55,1.88,1.88,0,0,0,1.42.54,2.94,2.94,0,0,0,1.86-.66v.9a3.47,3.47,0,0,1-2.09.57,2.56,2.56,0,0,1-2-.81,3.39,3.39,0,0,1-.72-2.3,3.29,3.29,0,0,1,.79-2.29,2.58,2.58,0,0,1,2-.88,2.27,2.27,0,0,1,1.82.76A3.2,3.2,0,0,1,87,45.87Zm-1-.81a1.91,1.91,0,0,0-.4-1.3,1.39,1.39,0,0,0-1.1-.46,1.54,1.54,0,0,0-1.15.49,2.22,2.22,0,0,0-.59,1.27Z" fill="#1e1e1e"/>
      <path d="M22.71,53.93l-2.9,8.4H17.67l-2.86-8.4h2l1.75,5.85a4.31,4.31,0,0,1,.17.84h0a4.58,4.58,0,0,1,.19-.87l1.74-5.82Z" fill="#1e1e1e"/>
      <path d="M24.47,55.38a1.11,1.11,0,0,1-.77-.27.92.92,0,0,1-.3-.69.88.88,0,0,1,.3-.68,1.16,1.16,0,0,1,.77-.26,1.14,1.14,0,0,1,.77.26.93.93,0,0,1,0,1.37A1.1,1.1,0,0,1,24.47,55.38Zm.91,6.95H23.53v-6h1.85Z" fill="#1e1e1e"/>
      <path d="M30.86,58a1.66,1.66,0,0,0-.78-.18,1.15,1.15,0,0,0-.95.44,2,2,0,0,0-.34,1.21v2.86H26.94v-6h1.85v1.12h0a1.59,1.59,0,0,1,1.58-1.22,1.14,1.14,0,0,1,.46.07Z" fill="#1e1e1e"/>
      <path d="M35.69,62.26a2.64,2.64,0,0,1-1.24.22c-1.3,0-2-.68-2-2V57.7h-1V56.33h1V55l1.84-.53v1.82h1.35V57.7H34.34v2.42c0,.63.25.94.75.94a1.31,1.31,0,0,0,.6-.17Z" fill="#1e1e1e"/>
      <path d="M42.44,62.33H40.59v-.91h0a2.09,2.09,0,0,1-1.83,1.06c-1.39,0-2.09-.84-2.09-2.53V56.33h1.85v3.46c0,.85.33,1.27,1,1.27a1,1,0,0,0,.8-.35,1.38,1.38,0,0,0,.3-.94V56.33h1.85Z" fill="#1e1e1e"/>
      <path d="M49,62.33H47.23v-.86h0a2,2,0,0,1-1.79,1,1.86,1.86,0,0,1-1.37-.5,1.79,1.79,0,0,1-.5-1.32q0-1.74,2.07-2l1.63-.22c0-.66-.36-1-1.07-1a3.65,3.65,0,0,0-2,.63V56.69a4.67,4.67,0,0,1,1.06-.35,5.63,5.63,0,0,1,1.22-.15A2.27,2.27,0,0,1,49,58.75ZM47.25,59.9v-.41l-1.09.14c-.61.08-.91.35-.91.82a.67.67,0,0,0,.22.51.84.84,0,0,0,.6.21,1.1,1.1,0,0,0,.85-.36A1.31,1.31,0,0,0,47.25,59.9Z" fill="#1e1e1e"/>
      <path d="M52.3,62.33H50.45V53.45H52.3Z" fill="#1e1e1e"/>
      <path d="M64.91,62.33H63l-3.46-5.28a6.37,6.37,0,0,1-.42-.69h0c0,.29,0,.75,0,1.36v4.61H57.35v-8.4h2l3.34,5.12c.15.23.29.45.42.68h0a8.94,8.94,0,0,1-.05-1.15V53.93h1.79Z" fill="#1e1e1e"/>
      <path d="M72,59.86H68.13c.06.87.61,1.31,1.64,1.31a3.25,3.25,0,0,0,1.75-.47V62a4.57,4.57,0,0,1-2.17.45,2.81,2.81,0,0,1-3.06-3,3.2,3.2,0,0,1,.87-2.37,2.9,2.9,0,0,1,2.13-.87,2.6,2.6,0,0,1,2,.78A3,3,0,0,1,72,59.08Zm-1.71-1.14q0-1.29-1-1.29a1,1,0,0,0-.77.37,1.71,1.71,0,0,0-.39.92Z" fill="#1e1e1e"/>
      <path d="M76.77,62.26a2.64,2.64,0,0,1-1.24.22c-1.3,0-2-.68-2-2V57.7h-1V56.33h1V55l1.84-.53v1.82h1.35V57.7H75.42v2.42c0,.63.25.94.75.94a1.31,1.31,0,0,0,.6-.17Z" fill="#1e1e1e"/>
      <path d="M86.5,56.33l-1.73,6H82.83l-.89-3.51a3.7,3.7,0,0,1-.09-.77h0a5,5,0,0,1-.12.74l-1,3.54H78.82l-1.69-6H79l.82,3.92a4.75,4.75,0,0,1,.09.67h0a3.82,3.82,0,0,1,.11-.7l1-3.89h1.76l.93,3.92a6.6,6.6,0,0,1,.08.68h0a5.06,5.06,0,0,1,.1-.68l.78-3.92Z" fill="#1e1e1e"/>
      <path d="M90.18,62.48a3.24,3.24,0,0,1-2.36-.84A3,3,0,0,1,87,59.36,3,3,0,0,1,87.86,57a3.35,3.35,0,0,1,2.41-.84,3.19,3.19,0,0,1,2.34.84,3,3,0,0,1,.85,2.22,3.15,3.15,0,0,1-.88,2.36A3.24,3.24,0,0,1,90.18,62.48Zm0-4.88a1.21,1.21,0,0,0-1,.46,2,2,0,0,0-.36,1.27c0,1.16.46,1.73,1.39,1.73s1.33-.59,1.33-1.77S91.12,57.6,90.23,57.6Z" fill="#1e1e1e"/>
      <path d="M98.57,58a1.61,1.61,0,0,0-.78-.18,1.14,1.14,0,0,0-.94.44,1.93,1.93,0,0,0-.34,1.21v2.86H94.66v-6h1.85v1.12h0a1.6,1.6,0,0,1,1.59-1.22,1.12,1.12,0,0,1,.45.07Z" fill="#1e1e1e"/>
      <path d="M105.45,62.33h-2.22l-1.92-3h0v3H99.44V53.45h1.85V59.1h0l1.79-2.77h2.19l-2.15,2.82Z" fill="#1e1e1e"/>
    </g>
    <g>
      <path d="M164.45,48.78a4.92,4.92,0,0,1-2.32.49,3.73,3.73,0,0,1-2.87-1.15,4.26,4.26,0,0,1-1.08-3,4.47,4.47,0,0,1,1.21-3.26,4.12,4.12,0,0,1,3.08-1.24,5,5,0,0,1,2,.35v1a4.08,4.08,0,0,0-2-.5,3,3,0,0,0-2.35,1,3.62,3.62,0,0,0-.9,2.58,3.49,3.49,0,0,0,.84,2.45,2.89,2.89,0,0,0,2.21.91,4.2,4.2,0,0,0,2.19-.56Z" fill="#1e1e1e"/>
      <path d="M169.16,44.11a1.18,1.18,0,0,0-.73-.2,1.25,1.25,0,0,0-1,.58,2.74,2.74,0,0,0-.41,1.58v3.06h-1v-6h1v1.24h0a2.17,2.17,0,0,1,.63-1,1.46,1.46,0,0,1,.94-.35,1.49,1.49,0,0,1,.58.08Z" fill="#1e1e1e"/>
      <path d="M175,46.37h-4.23a2.19,2.19,0,0,0,.54,1.55,1.85,1.85,0,0,0,1.42.54,3,3,0,0,0,1.86-.66v.9a3.52,3.52,0,0,1-2.09.57,2.54,2.54,0,0,1-2-.81,3.34,3.34,0,0,1-.73-2.3,3.29,3.29,0,0,1,.8-2.29,2.56,2.56,0,0,1,2-.88,2.28,2.28,0,0,1,1.82.76,3.19,3.19,0,0,1,.64,2.12Zm-1-.81a2,2,0,0,0-.4-1.3,1.39,1.39,0,0,0-1.1-.46,1.52,1.52,0,0,0-1.15.49,2.16,2.16,0,0,0-.59,1.27Z" fill="#1e1e1e"/>
      <path d="M180.77,49.13h-1V48.2h0a2,2,0,0,1-1.85,1.07,2,2,0,0,1-1.4-.47,1.65,1.65,0,0,1-.51-1.26c0-1.12.66-1.77,2-2l1.8-.25q0-1.53-1.23-1.53a3,3,0,0,0-2,.74v-1a3.76,3.76,0,0,1,2-.56c1.41,0,2.11.75,2.11,2.24Zm-1-3-1.45.2a2.25,2.25,0,0,0-1,.33,1,1,0,0,0-.34.84.92.92,0,0,0,.31.72,1.25,1.25,0,0,0,.84.27,1.53,1.53,0,0,0,1.18-.5,1.76,1.76,0,0,0,.46-1.26Z" fill="#1e1e1e"/>
      <path d="M185.37,49.07a1.82,1.82,0,0,1-.9.19c-1.05,0-1.58-.58-1.58-1.76V44h-1v-.82h1V41.67l1-.31v1.77h1.52V44h-1.52v3.38a1.41,1.41,0,0,0,.21.87.82.82,0,0,0,.68.25,1,1,0,0,0,.63-.2Z" fill="#1e1e1e"/>
      <path d="M191.47,46.37h-4.23a2.23,2.23,0,0,0,.53,1.55,1.88,1.88,0,0,0,1.42.54,3,3,0,0,0,1.87-.66v.9a3.53,3.53,0,0,1-2.1.57,2.53,2.53,0,0,1-2-.81,3.34,3.34,0,0,1-.73-2.3,3.29,3.29,0,0,1,.79-2.29,2.58,2.58,0,0,1,2-.88,2.29,2.29,0,0,1,1.83.76,3.19,3.19,0,0,1,.64,2.12Zm-1-.81a2,2,0,0,0-.4-1.3,1.4,1.4,0,0,0-1.1-.46,1.54,1.54,0,0,0-1.16.49,2.21,2.21,0,0,0-.58,1.27Z" fill="#1e1e1e"/>
      <path d="M199,49.07a1.82,1.82,0,0,1-.9.19c-1,0-1.58-.58-1.58-1.76V44h-1v-.82h1V41.67l1-.31v1.77H199V44h-1.52v3.38a1.41,1.41,0,0,0,.21.87.82.82,0,0,0,.68.25,1,1,0,0,0,.63-.2Z" fill="#1e1e1e"/>
      <path d="M205.26,49.13h-1V45.68c0-1.25-.47-1.88-1.4-1.88a1.51,1.51,0,0,0-1.18.54,2,2,0,0,0-.48,1.39v3.4h-1V40.25h1v3.88h0a2.18,2.18,0,0,1,2-1.14c1.35,0,2,.82,2,2.45Z" fill="#1e1e1e"/>
      <path d="M211.89,46.37h-4.23a2.23,2.23,0,0,0,.53,1.55,1.88,1.88,0,0,0,1.42.54,3,3,0,0,0,1.87-.66v.9a3.53,3.53,0,0,1-2.1.57,2.53,2.53,0,0,1-2-.81,3.34,3.34,0,0,1-.73-2.3,3.29,3.29,0,0,1,.79-2.29,2.58,2.58,0,0,1,2-.88,2.29,2.29,0,0,1,1.83.76,3.19,3.19,0,0,1,.64,2.12Zm-1-.81a2,2,0,0,0-.4-1.3,1.4,1.4,0,0,0-1.1-.46,1.54,1.54,0,0,0-1.16.49,2.21,2.21,0,0,0-.58,1.27Z" fill="#1e1e1e"/>
      <path d="M161.63,53.93l-2.89,8.4h-2.15l-2.86-8.4h2l1.76,5.85a4.31,4.31,0,0,1,.17.84h0a5.41,5.41,0,0,1,.18-.87l1.74-5.82Z" fill="#1e1e1e"/>
      <path d="M172.21,62.33h-1.86v-5c0-.55,0-1.15.07-1.8h0c-.1.51-.19.88-.26,1.11l-2,5.71h-1.55l-2-5.65a8.85,8.85,0,0,1-.27-1.17h0c0,.82.08,1.55.08,2.18v4.64h-1.71v-8.4h2.77l1.72,5a6.58,6.58,0,0,1,.3,1.2h0a12.46,12.46,0,0,1,.34-1.21l1.71-5h2.7Z" fill="#1e1e1e"/>
      <path d="M177.05,62V60.14a3.86,3.86,0,0,0,1.11.64,3.57,3.57,0,0,0,1.2.21,2.93,2.93,0,0,0,.63-.06,1.82,1.82,0,0,0,.44-.18.87.87,0,0,0,.27-.27.69.69,0,0,0,.09-.34.77.77,0,0,0-.14-.44,1.7,1.7,0,0,0-.39-.36,4.88,4.88,0,0,0-.57-.31c-.23-.1-.47-.21-.73-.31a3.79,3.79,0,0,1-1.46-1,2.18,2.18,0,0,1-.49-1.43,2.22,2.22,0,0,1,.27-1.13,2.07,2.07,0,0,1,.72-.78,3.33,3.33,0,0,1,1.05-.45,5.72,5.72,0,0,1,1.26-.14,8.06,8.06,0,0,1,1.17.08,4.37,4.37,0,0,1,.93.24v1.75a2.87,2.87,0,0,0-.46-.25,3.52,3.52,0,0,0-.51-.19,5,5,0,0,0-.53-.11l-.49,0a2.68,2.68,0,0,0-.59.06,1.62,1.62,0,0,0-.44.17.91.91,0,0,0-.28.27.6.6,0,0,0-.1.35.65.65,0,0,0,.11.38,1.3,1.3,0,0,0,.31.31,4.4,4.4,0,0,0,.5.3l.66.29a7,7,0,0,1,.91.45,3.18,3.18,0,0,1,.69.54,2,2,0,0,1,.44.68,2.4,2.4,0,0,1,.15.89,2.37,2.37,0,0,1-.27,1.18,2.25,2.25,0,0,1-.72.78,3.46,3.46,0,0,1-1.06.42,6,6,0,0,1-1.28.13,7,7,0,0,1-1.32-.12A3.81,3.81,0,0,1,177.05,62Z" fill="#1e1e1e"/>
      <path d="M189.68,62.33h-1.84v-.91h0A2.09,2.09,0,0,1,186,62.48c-1.39,0-2.08-.84-2.08-2.53V56.33h1.84v3.46c0,.85.34,1.27,1,1.27a1,1,0,0,0,.8-.35,1.38,1.38,0,0,0,.3-.94V56.33h1.84Z" fill="#1e1e1e"/>
      <path d="M193.12,61.64h0v.69h-1.85V53.45h1.85v3.79h0a2.18,2.18,0,0,1,1.95-1.05,2.12,2.12,0,0,1,1.78.79,3.43,3.43,0,0,1,.63,2.18,3.71,3.71,0,0,1-.73,2.41,2.38,2.38,0,0,1-2,.91A1.87,1.87,0,0,1,193.12,61.64Zm-.06-2.54v.62a1.36,1.36,0,0,0,.34,1,1.08,1.08,0,0,0,.85.38,1.12,1.12,0,0,0,1-.49,2.29,2.29,0,0,0,.35-1.38,1.85,1.85,0,0,0-.32-1.17,1.06,1.06,0,0,0-.91-.42,1.16,1.16,0,0,0-.92.42A1.56,1.56,0,0,0,193.06,59.1Z" fill="#1e1e1e"/>
      <path d="M204.48,62.33h-1.85V59c0-.93-.33-1.4-1-1.4a1,1,0,0,0-.79.37,1.46,1.46,0,0,0-.31.94v3.42h-1.85v-6h1.85v1h0a2.11,2.11,0,0,1,1.92-1.09c1.33,0,2,.82,2,2.47Z" fill="#1e1e1e"/>
      <path d="M211.33,59.86h-3.91c.06.87.61,1.31,1.64,1.31a3.24,3.24,0,0,0,1.74-.47V62a4.5,4.5,0,0,1-2.16.45,2.81,2.81,0,0,1-3.06-3,3.2,3.2,0,0,1,.87-2.37,2.9,2.9,0,0,1,2.13-.87,2.6,2.6,0,0,1,2,.78,3,3,0,0,1,.72,2.11Zm-1.71-1.14q0-1.29-1.05-1.29a1,1,0,0,0-.77.37,1.63,1.63,0,0,0-.39.92Z" fill="#1e1e1e"/>
      <path d="M216.06,62.26a2.64,2.64,0,0,1-1.24.22c-1.3,0-1.95-.68-1.95-2V57.7h-1V56.33h1V55l1.84-.53v1.82h1.35V57.7h-1.35v2.42c0,.63.25.94.75.94a1.31,1.31,0,0,0,.6-.17Z" fill="#1e1e1e"/>
    </g>
    <g>
      <path d="M289.51,48.78a5,5,0,0,1-2.32.49,3.75,3.75,0,0,1-2.88-1.15,4.3,4.3,0,0,1-1.07-3,4.47,4.47,0,0,1,1.21-3.26,4.1,4.1,0,0,1,3.07-1.24,5,5,0,0,1,2,.35v1a4.12,4.12,0,0,0-2-.5,3,3,0,0,0-2.34,1,3.62,3.62,0,0,0-.9,2.58,3.49,3.49,0,0,0,.84,2.45,2.87,2.87,0,0,0,2.2.91,4.21,4.21,0,0,0,2.2-.56Z" fill="#1e1e1e"/>
      <path d="M294.22,44.11a1.18,1.18,0,0,0-.73-.2,1.25,1.25,0,0,0-1,.58,2.74,2.74,0,0,0-.41,1.58v3.06h-1v-6h1v1.24h0a2.17,2.17,0,0,1,.63-1,1.44,1.44,0,0,1,.94-.35,1.52,1.52,0,0,1,.58.08Z" fill="#1e1e1e"/>
      <path d="M300.08,46.37h-4.23a2.23,2.23,0,0,0,.53,1.55,1.88,1.88,0,0,0,1.42.54,3,3,0,0,0,1.87-.66v.9a3.53,3.53,0,0,1-2.1.57,2.53,2.53,0,0,1-2-.81,3.34,3.34,0,0,1-.73-2.3,3.29,3.29,0,0,1,.79-2.29,2.58,2.58,0,0,1,2-.88,2.29,2.29,0,0,1,1.83.76,3.19,3.19,0,0,1,.64,2.12Zm-1-.81a2,2,0,0,0-.4-1.3,1.4,1.4,0,0,0-1.1-.46,1.54,1.54,0,0,0-1.16.49,2.21,2.21,0,0,0-.58,1.27Z" fill="#1e1e1e"/>
      <path d="M305.83,49.13h-1V48.2h0A2,2,0,0,1,303,49.27a1.93,1.93,0,0,1-1.4-.47,1.65,1.65,0,0,1-.51-1.26c0-1.12.66-1.77,2-2l1.8-.25c0-1-.41-1.53-1.24-1.53a3,3,0,0,0-1.95.74v-1a3.73,3.73,0,0,1,2-.56c1.41,0,2.12.75,2.12,2.24Zm-1-3-1.45.2a2.35,2.35,0,0,0-1,.33,1,1,0,0,0-.34.84.93.93,0,0,0,.32.72,1.22,1.22,0,0,0,.83.27,1.51,1.51,0,0,0,1.18-.5,1.77,1.77,0,0,0,.47-1.26Z" fill="#1e1e1e"/>
      <path d="M310.42,49.07a1.76,1.76,0,0,1-.89.19c-1,0-1.58-.58-1.58-1.76V44h-1v-.82h1V41.67l1-.31v1.77h1.51V44h-1.51v3.38a1.41,1.41,0,0,0,.21.87.81.81,0,0,0,.68.25.94.94,0,0,0,.62-.2Z" fill="#1e1e1e"/>
      <path d="M316.53,46.37h-4.24a2.28,2.28,0,0,0,.54,1.55,1.87,1.87,0,0,0,1.42.54,3,3,0,0,0,1.86-.66v.9a3.5,3.5,0,0,1-2.09.57,2.56,2.56,0,0,1-2-.81,3.39,3.39,0,0,1-.72-2.3,3.29,3.29,0,0,1,.79-2.29,2.58,2.58,0,0,1,2-.88,2.27,2.27,0,0,1,1.82.76,3.2,3.2,0,0,1,.65,2.12Zm-1-.81a1.91,1.91,0,0,0-.4-1.3,1.39,1.39,0,0,0-1.1-.46,1.54,1.54,0,0,0-1.15.49,2.22,2.22,0,0,0-.59,1.27Z" fill="#1e1e1e"/>
      <path d="M324.05,49.07a1.76,1.76,0,0,1-.89.19c-1.06,0-1.58-.58-1.58-1.76V44h-1v-.82h1V41.67l1-.31v1.77h1.51V44h-1.51v3.38a1.41,1.41,0,0,0,.21.87.8.8,0,0,0,.67.25,1,1,0,0,0,.63-.2Z" fill="#1e1e1e"/>
      <path d="M330.32,49.13h-1V45.68c0-1.25-.46-1.88-1.39-1.88a1.51,1.51,0,0,0-1.18.54,2,2,0,0,0-.48,1.39v3.4h-1V40.25h1v3.88h0a2.18,2.18,0,0,1,2-1.14c1.35,0,2,.82,2,2.45Z" fill="#1e1e1e"/>
      <path d="M337,46.37h-4.24a2.28,2.28,0,0,0,.54,1.55,1.87,1.87,0,0,0,1.42.54,3,3,0,0,0,1.86-.66v.9a3.5,3.5,0,0,1-2.09.57,2.56,2.56,0,0,1-2-.81,3.39,3.39,0,0,1-.72-2.3,3.29,3.29,0,0,1,.79-2.29,2.58,2.58,0,0,1,2-.88,2.27,2.27,0,0,1,1.82.76,3.2,3.2,0,0,1,.65,2.12Zm-1-.81a1.91,1.91,0,0,0-.4-1.3,1.39,1.39,0,0,0-1.1-.46,1.54,1.54,0,0,0-1.15.49,2.22,2.22,0,0,0-.59,1.27Z" fill="#1e1e1e"/>
      <path d="M272,61.77a6.08,6.08,0,0,1-3.06.71,4.4,4.4,0,0,1-3.19-1.12,4.08,4.08,0,0,1-1.17-3.09A4.29,4.29,0,0,1,265.9,55a4.65,4.65,0,0,1,3.39-1.25,6.84,6.84,0,0,1,2.36.37v1.77a4.73,4.73,0,0,0-2.38-.56,2.56,2.56,0,0,0-1.92.77,3.27,3.27,0,0,0-.08,4,2.34,2.34,0,0,0,1.8.71,2.52,2.52,0,0,0,1.08-.19V59.06h-1.68V57.55H272Z" fill="#1e1e1e"/>
      <path d="M278.49,62.33h-1.76v-.86h0a2,2,0,0,1-1.79,1,1.86,1.86,0,0,1-1.37-.5,1.79,1.79,0,0,1-.5-1.32q0-1.74,2.07-2l1.63-.22c0-.66-.36-1-1.07-1a3.7,3.7,0,0,0-2,.63V56.69a4.67,4.67,0,0,1,1.06-.35,5.63,5.63,0,0,1,1.22-.15,2.27,2.27,0,0,1,2.57,2.56Zm-1.74-2.43v-.41l-1.09.14c-.6.08-.91.35-.91.82A.67.67,0,0,0,275,61a.84.84,0,0,0,.6.21,1.1,1.1,0,0,0,.85-.36A1.31,1.31,0,0,0,276.75,59.9Z" fill="#1e1e1e"/>
      <path d="M283.58,62.26a2.67,2.67,0,0,1-1.24.22c-1.3,0-1.95-.68-1.95-2V57.7h-1V56.33h1V55l1.84-.53v1.82h1.35V57.7h-1.35v2.42c0,.63.25.94.75.94a1.31,1.31,0,0,0,.6-.17Z" fill="#1e1e1e"/>
      <path d="M290,59.86h-3.92c.06.87.61,1.31,1.65,1.31a3.24,3.24,0,0,0,1.74-.47V62a4.56,4.56,0,0,1-2.16.45,3,3,0,0,1-2.26-.81,3,3,0,0,1-.8-2.24,3.24,3.24,0,0,1,.86-2.37,2.9,2.9,0,0,1,2.14-.87,2.63,2.63,0,0,1,2,.78,3,3,0,0,1,.72,2.11Zm-1.72-1.14c0-.86-.35-1.29-1-1.29a1,1,0,0,0-.77.37,1.72,1.72,0,0,0-.4.92Z" fill="#1e1e1e"/>
      <path d="M299.76,56.33l-1.73,6h-1.95l-.88-3.51a3.68,3.68,0,0,1-.1-.77h0a4,4,0,0,1-.11.74L294,62.33h-1.93l-1.69-6h1.89l.82,3.92a4.75,4.75,0,0,1,.09.67h0a3.9,3.9,0,0,1,.1-.7l1-3.89h1.77l.92,3.92a5.62,5.62,0,0,1,.09.68h0c0-.23.05-.46.09-.68l.78-3.92Z" fill="#1e1e1e"/>
      <path d="M305.63,62.33h-1.75v-.86h0a2,2,0,0,1-1.79,1,1.86,1.86,0,0,1-1.37-.5,1.79,1.79,0,0,1-.5-1.32q0-1.74,2.07-2l1.63-.22c0-.66-.36-1-1.07-1a3.7,3.7,0,0,0-2,.63V56.69a4.67,4.67,0,0,1,1.06-.35,5.63,5.63,0,0,1,1.22-.15,2.27,2.27,0,0,1,2.57,2.56Zm-1.74-2.43v-.41l-1.09.14c-.6.08-.9.35-.9.82a.66.66,0,0,0,.21.51.84.84,0,0,0,.6.21,1.1,1.1,0,0,0,.85-.36A1.31,1.31,0,0,0,303.89,59.9Z" fill="#1e1e1e"/>
      <path d="M312.8,56.33l-2.43,6.48c-.59,1.56-1.47,2.34-2.65,2.34a3.46,3.46,0,0,1-1.11-.15V63.52a1.53,1.53,0,0,0,.8.22,1,1,0,0,0,1-.67l.32-.75-2.44-6h2L309.46,60a5,5,0,0,1,.16.81h0a5.22,5.22,0,0,1,.19-.79L311,56.33Z" fill="#1e1e1e"/>
      <path d="M316.65,62V60.14a3.86,3.86,0,0,0,1.11.64A3.63,3.63,0,0,0,319,61a2.77,2.77,0,0,0,.62-.06,1.91,1.91,0,0,0,.45-.18.74.74,0,0,0,.26-.27.69.69,0,0,0,.09-.34.7.7,0,0,0-.14-.44,1.47,1.47,0,0,0-.38-.36,5.08,5.08,0,0,0-.58-.31c-.22-.1-.46-.21-.72-.31a3.76,3.76,0,0,1-1.47-1,2.23,2.23,0,0,1-.48-1.43,2.33,2.33,0,0,1,.26-1.13,2.25,2.25,0,0,1,.72-.78,3.33,3.33,0,0,1,1-.45,5.75,5.75,0,0,1,1.27-.14,7.92,7.92,0,0,1,1.16.08,4.46,4.46,0,0,1,.94.24v1.75a3.37,3.37,0,0,0-.46-.25,3.24,3.24,0,0,0-.52-.19,4.82,4.82,0,0,0-.52-.11l-.5,0a2.58,2.58,0,0,0-.58.06,1.57,1.57,0,0,0-.45.17,1,1,0,0,0-.28.27.6.6,0,0,0-.1.35.73.73,0,0,0,.11.38,1.36,1.36,0,0,0,.32.31,3.66,3.66,0,0,0,.5.3l.66.29a6.29,6.29,0,0,1,.9.45,3.18,3.18,0,0,1,.69.54,2,2,0,0,1,.44.68,2.4,2.4,0,0,1,.15.89,2.37,2.37,0,0,1-.26,1.18,2.18,2.18,0,0,1-.73.78,3.27,3.27,0,0,1-1.06.42,5.85,5.85,0,0,1-1.28.13,6.86,6.86,0,0,1-1.31-.12A4,4,0,0,1,316.65,62Z" fill="#1e1e1e"/>
      <path d="M329.29,62.33h-1.85v-.91h0a2.08,2.08,0,0,1-1.83,1.06c-1.39,0-2.09-.84-2.09-2.53V56.33h1.85v3.46c0,.85.33,1.27,1,1.27a1,1,0,0,0,.79-.35,1.38,1.38,0,0,0,.3-.94V56.33h1.85Z" fill="#1e1e1e"/>
      <path d="M332.72,61.64h0v.69h-1.85V53.45h1.85v3.79h0a2.2,2.2,0,0,1,1.95-1.05,2.14,2.14,0,0,1,1.79.79,3.43,3.43,0,0,1,.63,2.18,3.71,3.71,0,0,1-.74,2.41,2.36,2.36,0,0,1-2,.91A1.9,1.9,0,0,1,332.72,61.64Zm-.05-2.54v.62a1.4,1.4,0,0,0,.33,1,1.1,1.1,0,0,0,.86.38,1.12,1.12,0,0,0,1-.49,2.36,2.36,0,0,0,.35-1.38,1.91,1.91,0,0,0-.32-1.17,1.08,1.08,0,0,0-.91-.42A1.2,1.2,0,0,0,333,58,1.6,1.6,0,0,0,332.67,59.1Z" fill="#1e1e1e"/>
      <path d="M344.08,62.33h-1.84V59c0-.93-.34-1.4-1-1.4a1,1,0,0,0-.79.37,1.4,1.4,0,0,0-.31.94v3.42h-1.85v-6h1.85v1h0a2.12,2.12,0,0,1,1.93-1.09c1.33,0,2,.82,2,2.47Z" fill="#1e1e1e"/>
      <path d="M350.94,59.86H347c.07.87.61,1.31,1.65,1.31a3.24,3.24,0,0,0,1.74-.47V62a4.53,4.53,0,0,1-2.16.45,2.79,2.79,0,0,1-3.06-3,3.2,3.2,0,0,1,.87-2.37,2.88,2.88,0,0,1,2.13-.87,2.63,2.63,0,0,1,2,.78,3,3,0,0,1,.72,2.11Zm-1.72-1.14c0-.86-.35-1.29-1-1.29a1,1,0,0,0-.77.37,1.72,1.72,0,0,0-.4.92Z" fill="#1e1e1e"/>
      <path d="M355.67,62.26a2.7,2.7,0,0,1-1.24.22,1.77,1.77,0,0,1-2-2V57.7h-1V56.33h1V55l1.85-.53v1.82h1.35V57.7h-1.35v2.42c0,.63.25.94.74.94a1.31,1.31,0,0,0,.61-.17Z" fill="#1e1e1e"/>
    </g>
    <g>
      <path d="M424.5,41.53a4.89,4.89,0,0,1-2.32.49,3.74,3.74,0,0,1-2.87-1.15,4.25,4.25,0,0,1-1.07-3,4.47,4.47,0,0,1,1.21-3.26,4.1,4.1,0,0,1,3.07-1.24,4.91,4.91,0,0,1,2,.35v1a4.05,4.05,0,0,0-2-.5,3,3,0,0,0-2.34,1,3.62,3.62,0,0,0-.9,2.58,3.49,3.49,0,0,0,.84,2.45,2.87,2.87,0,0,0,2.2.91,4.15,4.15,0,0,0,2.19-.56Z" fill="#1e1e1e"/>
      <path d="M429.22,36.86a1.18,1.18,0,0,0-.73-.2,1.25,1.25,0,0,0-1,.58,2.74,2.74,0,0,0-.41,1.58v3.06h-1v-6h1v1.24h0a2.17,2.17,0,0,1,.63-1,1.44,1.44,0,0,1,.94-.35,1.52,1.52,0,0,1,.58.08Z" fill="#1e1e1e"/>
      <path d="M435.08,39.12h-4.24a2.28,2.28,0,0,0,.54,1.55,1.88,1.88,0,0,0,1.42.54,3,3,0,0,0,1.87-.66v.9a3.53,3.53,0,0,1-2.1.57,2.53,2.53,0,0,1-2-.81,3.34,3.34,0,0,1-.73-2.3,3.29,3.29,0,0,1,.79-2.29,2.58,2.58,0,0,1,2-.88,2.29,2.29,0,0,1,1.83.76,3.19,3.19,0,0,1,.64,2.12Zm-1-.81a2,2,0,0,0-.4-1.3,1.4,1.4,0,0,0-1.1-.46,1.54,1.54,0,0,0-1.16.49,2.21,2.21,0,0,0-.58,1.27Z" fill="#1e1e1e"/>
      <path d="M440.83,41.88h-1V41h0A2,2,0,0,1,438,42a1.93,1.93,0,0,1-1.4-.47,1.65,1.65,0,0,1-.51-1.26c0-1.12.66-1.77,2-2l1.8-.25c0-1-.41-1.53-1.24-1.53a3,3,0,0,0-2,.74v-1a3.76,3.76,0,0,1,2-.56c1.41,0,2.12.75,2.12,2.24Zm-1-3-1.45.2a2.35,2.35,0,0,0-1,.33,1,1,0,0,0-.34.84.93.93,0,0,0,.32.72,1.22,1.22,0,0,0,.83.27,1.51,1.51,0,0,0,1.18-.5,1.77,1.77,0,0,0,.47-1.26Z" fill="#1e1e1e"/>
      <path d="M445.42,41.82a1.76,1.76,0,0,1-.89.19c-1,0-1.58-.58-1.58-1.76V36.7h-1v-.82h1V34.42l1-.31v1.77h1.51v.82h-1.51v3.38a1.41,1.41,0,0,0,.21.87.81.81,0,0,0,.68.25.94.94,0,0,0,.62-.2Z" fill="#1e1e1e"/>
      <path d="M451.53,39.12h-4.24a2.28,2.28,0,0,0,.54,1.55,1.87,1.87,0,0,0,1.42.54,3,3,0,0,0,1.86-.66v.9A3.5,3.5,0,0,1,449,42a2.56,2.56,0,0,1-2-.81,3.39,3.39,0,0,1-.72-2.3,3.29,3.29,0,0,1,.79-2.29,2.58,2.58,0,0,1,2-.88,2.27,2.27,0,0,1,1.82.76,3.2,3.2,0,0,1,.65,2.12Zm-1-.81a1.91,1.91,0,0,0-.4-1.3,1.39,1.39,0,0,0-1.1-.46,1.54,1.54,0,0,0-1.15.49,2.22,2.22,0,0,0-.59,1.27Z" fill="#1e1e1e"/>
      <path d="M459.05,41.82a1.76,1.76,0,0,1-.89.19c-1.06,0-1.58-.58-1.58-1.76V36.7h-1v-.82h1V34.42l1-.31v1.77h1.51v.82h-1.51v3.38a1.41,1.41,0,0,0,.21.87.8.8,0,0,0,.67.25,1,1,0,0,0,.63-.2Z" fill="#1e1e1e"/>
      <path d="M465.32,41.88h-1V38.43c0-1.25-.46-1.88-1.39-1.88a1.51,1.51,0,0,0-1.18.54,2,2,0,0,0-.48,1.39v3.4h-1V33h1v3.88h0a2.18,2.18,0,0,1,2-1.14c1.35,0,2,.82,2,2.45Z" fill="#1e1e1e"/>
      <path d="M472,39.12h-4.24a2.28,2.28,0,0,0,.54,1.55,1.87,1.87,0,0,0,1.42.54,3,3,0,0,0,1.86-.66v.9a3.5,3.5,0,0,1-2.09.57,2.56,2.56,0,0,1-2-.81,3.39,3.39,0,0,1-.72-2.3,3.29,3.29,0,0,1,.79-2.29,2.58,2.58,0,0,1,2-.88,2.27,2.27,0,0,1,1.82.76,3.2,3.2,0,0,1,.65,2.12Zm-1-.81a1.91,1.91,0,0,0-.4-1.3,1.39,1.39,0,0,0-1.1-.46,1.54,1.54,0,0,0-1.15.49,2.22,2.22,0,0,0-.59,1.27Z" fill="#1e1e1e"/>
      <path d="M407.71,46.68l-2.9,8.4h-2.14l-2.86-8.4h2l1.75,5.85a4.31,4.31,0,0,1,.17.84h0a4.58,4.58,0,0,1,.19-.87l1.74-5.82Z" fill="#1e1e1e"/>
      <path d="M409.47,48.13a1.11,1.11,0,0,1-.77-.27.92.92,0,0,1-.3-.69.88.88,0,0,1,.3-.68,1.16,1.16,0,0,1,.77-.26,1.14,1.14,0,0,1,.77.26.93.93,0,0,1,0,1.37A1.1,1.1,0,0,1,409.47,48.13Zm.91,6.95h-1.85v-6h1.85Z" fill="#1e1e1e"/>
      <path d="M415.86,50.75a1.66,1.66,0,0,0-.78-.18,1.14,1.14,0,0,0-.95.44,2,2,0,0,0-.34,1.21v2.86h-1.85v-6h1.85V50.2h0A1.59,1.59,0,0,1,415.4,49a1.17,1.17,0,0,1,.46.07Z" fill="#1e1e1e"/>
      <path d="M420.69,55a2.67,2.67,0,0,1-1.24.22c-1.3,0-1.95-.68-1.95-2V50.45h-1V49.08h1V47.79l1.84-.53v1.82h1.35v1.37h-1.35v2.42c0,.63.25.94.75.94a1.31,1.31,0,0,0,.6-.17Z" fill="#1e1e1e"/>
      <path d="M427.43,55.08h-1.84v-.91h0a2.09,2.09,0,0,1-1.83,1.06c-1.4,0-2.09-.84-2.09-2.53V49.08h1.85v3.46c0,.85.33,1.27,1,1.27a1,1,0,0,0,.8-.35,1.38,1.38,0,0,0,.3-.94V49.08h1.84Z" fill="#1e1e1e"/>
      <path d="M434,55.08h-1.76v-.86h0a2,2,0,0,1-1.79,1,1.86,1.86,0,0,1-1.37-.5,1.75,1.75,0,0,1-.5-1.32q0-1.74,2.07-2l1.63-.22c0-.66-.36-1-1.07-1a3.65,3.65,0,0,0-2,.63V49.44a4.67,4.67,0,0,1,1.06-.35,5.56,5.56,0,0,1,1.22-.15A2.27,2.27,0,0,1,434,51.5Zm-1.74-2.43v-.41l-1.09.14c-.61.08-.91.35-.91.82a.67.67,0,0,0,.22.51.84.84,0,0,0,.6.21,1.1,1.1,0,0,0,.85-.36A1.31,1.31,0,0,0,432.25,52.65Z" fill="#1e1e1e"/>
      <path d="M437.3,55.08h-1.85V46.2h1.85Z" fill="#1e1e1e"/>
      <path d="M449.91,55.08H448l-3.46-5.28a5.06,5.06,0,0,1-.42-.69h0c0,.29.05.75.05,1.36v4.61h-1.79v-8.4h2l3.34,5.12c.15.23.29.45.42.68h0a8.94,8.94,0,0,1-.05-1.15V46.68h1.79Z" fill="#1e1e1e"/>
      <path d="M457,52.61h-3.91c.06.87.61,1.31,1.64,1.31a3.24,3.24,0,0,0,1.74-.47v1.33a4.5,4.5,0,0,1-2.16.45,2.81,2.81,0,0,1-3.06-3,3.2,3.2,0,0,1,.87-2.37,2.9,2.9,0,0,1,2.13-.87,2.6,2.6,0,0,1,2,.78,3,3,0,0,1,.72,2.11Zm-1.71-1.14q0-1.29-1.05-1.29a1,1,0,0,0-.77.37,1.63,1.63,0,0,0-.39.92Z" fill="#1e1e1e"/>
      <path d="M461.77,55a2.67,2.67,0,0,1-1.24.22c-1.3,0-1.95-.68-1.95-2V50.45h-1V49.08h1V47.79l1.84-.53v1.82h1.35v1.37h-1.35v2.42c0,.63.25.94.75.94a1.31,1.31,0,0,0,.6-.17Z" fill="#1e1e1e"/>
      <path d="M471.5,49.08l-1.73,6h-1.94l-.89-3.51a4.49,4.49,0,0,1-.1-.77h0a5,5,0,0,1-.12.74l-.95,3.54h-1.92l-1.69-6H464l.83,3.92a4.75,4.75,0,0,1,.09.67h0a3.82,3.82,0,0,1,.11-.7l1-3.89h1.76l.93,3.92a6.6,6.6,0,0,1,.08.68h0A5.06,5.06,0,0,1,469,53l.78-3.92Z" fill="#1e1e1e"/>
      <path d="M475.18,55.23a3.24,3.24,0,0,1-2.36-.84,3,3,0,0,1-.85-2.28,3,3,0,0,1,.89-2.33,3.34,3.34,0,0,1,2.4-.84,3.2,3.2,0,0,1,2.35.84,3,3,0,0,1,.85,2.22,3.15,3.15,0,0,1-.88,2.36A3.24,3.24,0,0,1,475.18,55.23Zm.05-4.88a1.21,1.21,0,0,0-1,.46,2,2,0,0,0-.36,1.27c0,1.16.46,1.73,1.39,1.73s1.33-.59,1.33-1.77S476.12,50.35,475.23,50.35Z" fill="#1e1e1e"/>
      <path d="M483.57,50.75a1.61,1.61,0,0,0-.78-.18,1.14,1.14,0,0,0-.94.44,1.93,1.93,0,0,0-.34,1.21v2.86h-1.85v-6h1.85V50.2h0A1.6,1.6,0,0,1,483.12,49a1.12,1.12,0,0,1,.45.07Z" fill="#1e1e1e"/>
      <path d="M490.45,55.08h-2.22l-1.92-3h0v3h-1.86V46.2h1.86v5.65h0l1.79-2.77h2.19l-2.15,2.82Z" fill="#1e1e1e"/>
      <path d="M428.62,67.72a6.08,6.08,0,0,1-3.06.71,4.4,4.4,0,0,1-3.19-1.12,4.08,4.08,0,0,1-1.17-3.09A4.32,4.32,0,0,1,422.47,61a4.69,4.69,0,0,1,3.4-1.25,6.84,6.84,0,0,1,2.36.37v1.77a4.73,4.73,0,0,0-2.38-.56,2.55,2.55,0,0,0-1.92.77,3.27,3.27,0,0,0-.08,4,2.38,2.38,0,0,0,1.8.71,2.52,2.52,0,0,0,1.08-.19V65h-1.68V63.5h3.57Z" fill="#1e1e1e"/>
      <path d="M435.07,68.28h-1.76v-.86h0a2,2,0,0,1-1.79,1,1.86,1.86,0,0,1-1.37-.5,1.79,1.79,0,0,1-.5-1.32q0-1.74,2.07-2l1.63-.22c0-.66-.36-1-1.07-1a3.68,3.68,0,0,0-2,.63V62.64a4.67,4.67,0,0,1,1.06-.35,5.63,5.63,0,0,1,1.22-.15,2.27,2.27,0,0,1,2.57,2.56Zm-1.74-2.43v-.41l-1.09.14c-.61.08-.91.35-.91.82a.67.67,0,0,0,.22.51.84.84,0,0,0,.6.21,1.1,1.1,0,0,0,.85-.36A1.31,1.31,0,0,0,433.33,65.85Z" fill="#1e1e1e"/>
      <path d="M440.16,68.21a2.7,2.7,0,0,1-1.24.22,1.77,1.77,0,0,1-2-2V63.65h-1V62.28h1V61l1.85-.53v1.82h1.35v1.37h-1.35v2.42c0,.63.25.94.74.94a1.31,1.31,0,0,0,.61-.17Z" fill="#1e1e1e"/>
      <path d="M446.54,65.81h-3.91c.06.87.61,1.31,1.65,1.31a3.24,3.24,0,0,0,1.74-.47V68a4.56,4.56,0,0,1-2.16.45,3,3,0,0,1-2.26-.81,3,3,0,0,1-.8-2.24,3.24,3.24,0,0,1,.86-2.37,2.9,2.9,0,0,1,2.14-.87,2.63,2.63,0,0,1,2,.78,3,3,0,0,1,.71,2.11Zm-1.71-1.14c0-.86-.35-1.29-1-1.29a1,1,0,0,0-.78.37,1.78,1.78,0,0,0-.39.92Z" fill="#1e1e1e"/>
      <path d="M456.34,62.28l-1.73,6h-1.95l-.88-3.51a3.68,3.68,0,0,1-.1-.77h0a4,4,0,0,1-.11.74l-.95,3.54h-1.93l-1.69-6h1.89l.82,3.92a4.8,4.8,0,0,1,.09.66h0a3.92,3.92,0,0,1,.1-.69l1-3.89h1.77l.92,3.92a5.62,5.62,0,0,1,.09.68h0c0-.23.05-.46.09-.68l.78-3.92Z" fill="#1e1e1e"/>
      <path d="M462.21,68.28h-1.75v-.86h0a2,2,0,0,1-1.79,1,1.86,1.86,0,0,1-1.37-.5,1.79,1.79,0,0,1-.5-1.32q0-1.74,2.07-2l1.63-.22c0-.66-.36-1-1.07-1a3.7,3.7,0,0,0-2,.63V62.64a4.67,4.67,0,0,1,1.06-.35,5.63,5.63,0,0,1,1.22-.15,2.27,2.27,0,0,1,2.57,2.56Zm-1.74-2.43v-.41l-1.09.14c-.6.08-.91.35-.91.82a.67.67,0,0,0,.22.51.84.84,0,0,0,.6.21,1.1,1.1,0,0,0,.85-.36A1.31,1.31,0,0,0,460.47,65.85Z" fill="#1e1e1e"/>
      <path d="M469.38,62.28,467,68.76c-.59,1.56-1.47,2.34-2.65,2.34a3.46,3.46,0,0,1-1.11-.15V69.47a1.53,1.53,0,0,0,.8.22,1,1,0,0,0,1-.67l.32-.75-2.44-6h2.05L466,65.93a5,5,0,0,1,.16.81h0a5.62,5.62,0,0,1,.19-.8l1.13-3.66Z" fill="#1e1e1e"/>
    </g>
    <g>
      <path d="M552,41.53a4.92,4.92,0,0,1-2.32.49,3.73,3.73,0,0,1-2.87-1.15,4.26,4.26,0,0,1-1.08-3,4.47,4.47,0,0,1,1.21-3.26A4.12,4.12,0,0,1,550,33.34a5,5,0,0,1,2,.35v1a4.08,4.08,0,0,0-2-.5,3,3,0,0,0-2.35,1,3.62,3.62,0,0,0-.9,2.58,3.49,3.49,0,0,0,.84,2.45,2.89,2.89,0,0,0,2.21.91,4.2,4.2,0,0,0,2.19-.56Z" fill="#1e1e1e"/>
      <path d="M556.66,36.86a1.18,1.18,0,0,0-.73-.2,1.25,1.25,0,0,0-1,.58,2.74,2.74,0,0,0-.41,1.58v3.06h-1v-6h1v1.24h0a2.17,2.17,0,0,1,.63-1,1.46,1.46,0,0,1,.94-.35,1.49,1.49,0,0,1,.58.08Z" fill="#1e1e1e"/>
      <path d="M562.52,39.12h-4.23a2.19,2.19,0,0,0,.54,1.55,1.85,1.85,0,0,0,1.42.54,3,3,0,0,0,1.86-.66v.9A3.52,3.52,0,0,1,560,42a2.54,2.54,0,0,1-2-.81,3.34,3.34,0,0,1-.73-2.3,3.29,3.29,0,0,1,.8-2.29,2.56,2.56,0,0,1,2-.88,2.28,2.28,0,0,1,1.82.76,3.19,3.19,0,0,1,.64,2.12Zm-1-.81a2,2,0,0,0-.4-1.3,1.39,1.39,0,0,0-1.1-.46,1.52,1.52,0,0,0-1.15.49,2.16,2.16,0,0,0-.59,1.27Z" fill="#1e1e1e"/>
      <path d="M568.27,41.88h-1V41h0A2,2,0,0,1,565.44,42a2,2,0,0,1-1.4-.47,1.65,1.65,0,0,1-.51-1.26c0-1.12.66-1.77,2-2l1.8-.25q0-1.53-1.23-1.53a3,3,0,0,0-2,.74v-1a3.76,3.76,0,0,1,2-.56c1.41,0,2.11.75,2.11,2.24Zm-1-3-1.45.2a2.25,2.25,0,0,0-1,.33,1,1,0,0,0-.34.84.92.92,0,0,0,.31.72,1.25,1.25,0,0,0,.84.27,1.53,1.53,0,0,0,1.18-.5,1.76,1.76,0,0,0,.46-1.26Z" fill="#1e1e1e"/>
      <path d="M572.87,41.82a1.82,1.82,0,0,1-.9.19c-1.05,0-1.58-.58-1.58-1.76V36.7h-1v-.82h1V34.42l1-.31v1.77h1.52v.82h-1.52v3.38a1.41,1.41,0,0,0,.21.87.82.82,0,0,0,.68.25,1,1,0,0,0,.63-.2Z" fill="#1e1e1e"/>
      <path d="M579,39.12h-4.23a2.23,2.23,0,0,0,.53,1.55,1.88,1.88,0,0,0,1.42.54,3,3,0,0,0,1.87-.66v.9a3.53,3.53,0,0,1-2.1.57,2.53,2.53,0,0,1-2-.81,3.34,3.34,0,0,1-.73-2.3,3.29,3.29,0,0,1,.79-2.29,2.58,2.58,0,0,1,2-.88,2.29,2.29,0,0,1,1.83.76,3.19,3.19,0,0,1,.64,2.12Zm-1-.81a2,2,0,0,0-.4-1.3,1.4,1.4,0,0,0-1.1-.46,1.54,1.54,0,0,0-1.16.49,2.21,2.21,0,0,0-.58,1.27Z" fill="#1e1e1e"/>
      <path d="M586.5,41.82a1.82,1.82,0,0,1-.9.19c-1.05,0-1.58-.58-1.58-1.76V36.7h-1v-.82h1V34.42l1-.31v1.77h1.52v.82H585v3.38a1.41,1.41,0,0,0,.21.87.82.82,0,0,0,.68.25,1,1,0,0,0,.63-.2Z" fill="#1e1e1e"/>
      <path d="M592.76,41.88h-1V38.43c0-1.25-.47-1.88-1.4-1.88a1.51,1.51,0,0,0-1.18.54,2,2,0,0,0-.48,1.39v3.4h-1V33h1v3.88h0a2.18,2.18,0,0,1,2-1.14c1.35,0,2,.82,2,2.45Z" fill="#1e1e1e"/>
      <path d="M599.39,39.12h-4.23a2.23,2.23,0,0,0,.53,1.55,1.88,1.88,0,0,0,1.42.54,3,3,0,0,0,1.87-.66v.9a3.53,3.53,0,0,1-2.1.57,2.53,2.53,0,0,1-2-.81,3.34,3.34,0,0,1-.73-2.3,3.29,3.29,0,0,1,.79-2.29,2.58,2.58,0,0,1,2-.88,2.29,2.29,0,0,1,1.83.76,3.19,3.19,0,0,1,.64,2.12Zm-1-.81A2,2,0,0,0,598,37a1.4,1.4,0,0,0-1.1-.46,1.54,1.54,0,0,0-1.16.49,2.21,2.21,0,0,0-.58,1.27Z" fill="#1e1e1e"/>
      <path d="M537.77,55.08h-5v-8.4h1.89v6.87h3.11Z" fill="#1e1e1e"/>
      <path d="M541.58,55.23a3.24,3.24,0,0,1-2.36-.84,3,3,0,0,1-.85-2.28,3,3,0,0,1,.89-2.33,3.35,3.35,0,0,1,2.41-.84,3.19,3.19,0,0,1,2.34.84,3,3,0,0,1,.85,2.22,3.15,3.15,0,0,1-.88,2.36A3.24,3.24,0,0,1,541.58,55.23Zm0-4.88a1.21,1.21,0,0,0-1,.46,2,2,0,0,0-.36,1.27c0,1.16.46,1.73,1.39,1.73S543,53.22,543,52,542.52,50.35,541.63,50.35Z" fill="#1e1e1e"/>
      <path d="M550.61,54.87a3.72,3.72,0,0,1-1.81.36,3,3,0,0,1-2.24-.84,2.9,2.9,0,0,1-.86-2.16,3.19,3.19,0,0,1,.92-2.41,3.38,3.38,0,0,1,2.45-.88,3.14,3.14,0,0,1,1.54.28v1.57a2.13,2.13,0,0,0-1.3-.44,1.71,1.71,0,0,0-1.26.47,1.75,1.75,0,0,0-.47,1.29,1.71,1.71,0,0,0,.45,1.25,1.64,1.64,0,0,0,1.22.45,2.45,2.45,0,0,0,1.36-.43Z" fill="#1e1e1e"/>
      <path d="M556.81,55.08h-1.75v-.86h0a2,2,0,0,1-1.79,1,1.86,1.86,0,0,1-1.37-.5,1.76,1.76,0,0,1-.51-1.32q0-1.74,2.07-2l1.63-.22c0-.66-.35-1-1.07-1a3.65,3.65,0,0,0-2,.63V49.44a4.57,4.57,0,0,1,1-.35,5.71,5.71,0,0,1,1.23-.15,2.26,2.26,0,0,1,2.56,2.56Zm-1.74-2.43v-.41l-1.09.14c-.6.08-.9.35-.9.82a.64.64,0,0,0,.22.51.82.82,0,0,0,.59.21,1.1,1.1,0,0,0,.85-.36A1.31,1.31,0,0,0,555.07,52.65Z" fill="#1e1e1e"/>
      <path d="M560.13,55.08h-1.85V46.2h1.85Z" fill="#1e1e1e"/>
      <path d="M572.74,55.08h-1.91l-3.47-5.28c-.2-.3-.34-.54-.42-.69h0c0,.29.05.75.05,1.36v4.61h-1.79v-8.4h2l3.33,5.12c.15.23.29.45.42.68h0a8.94,8.94,0,0,1,0-1.15V46.68h1.79Z" fill="#1e1e1e"/>
      <path d="M579.87,52.61H576c.07.87.62,1.31,1.65,1.31a3.24,3.24,0,0,0,1.74-.47v1.33a4.5,4.5,0,0,1-2.16.45,2.79,2.79,0,0,1-3.06-3,3.2,3.2,0,0,1,.87-2.37,2.9,2.9,0,0,1,2.13-.87,2.62,2.62,0,0,1,2,.78,3,3,0,0,1,.72,2.11Zm-1.72-1.14c0-.86-.35-1.29-1-1.29a1,1,0,0,0-.77.37,1.72,1.72,0,0,0-.4.92Z" fill="#1e1e1e"/>
      <path d="M584.6,55a2.7,2.7,0,0,1-1.24.22,1.77,1.77,0,0,1-2-2V50.45h-1V49.08h1V47.79l1.85-.53v1.82h1.35v1.37h-1.35v2.42c0,.63.25.94.74.94a1.31,1.31,0,0,0,.61-.17Z" fill="#1e1e1e"/>
      <path d="M594.33,49.08l-1.73,6h-1.94l-.89-3.51a3.68,3.68,0,0,1-.1-.77h0a5,5,0,0,1-.12.74l-.95,3.54h-1.92l-1.7-6h1.89l.83,3.92a3.72,3.72,0,0,1,.08.67h0a3.12,3.12,0,0,1,.11-.7l1-3.89h1.76l.93,3.92a6.6,6.6,0,0,1,.08.68h0c0-.23,0-.46.09-.68l.78-3.92Z" fill="#1e1e1e"/>
      <path d="M598,55.23a3.23,3.23,0,0,1-2.36-.84,3.47,3.47,0,0,1,0-4.61,3.38,3.38,0,0,1,2.41-.84,3.16,3.16,0,0,1,2.34.84,3,3,0,0,1,.85,2.22,3.18,3.18,0,0,1-.87,2.36A3.27,3.27,0,0,1,598,55.23Zm0-4.88a1.21,1.21,0,0,0-1,.46,1.92,1.92,0,0,0-.37,1.27c0,1.16.47,1.73,1.4,1.73s1.33-.59,1.33-1.77S599,50.35,598.06,50.35Z" fill="#1e1e1e"/>
      <path d="M606.4,50.75a1.61,1.61,0,0,0-.78-.18,1.12,1.12,0,0,0-.94.44,1.93,1.93,0,0,0-.34,1.21v2.86h-1.85v-6h1.85V50.2h0A1.59,1.59,0,0,1,605.94,49a1.14,1.14,0,0,1,.46.07Z" fill="#1e1e1e"/>
      <path d="M613.27,55.08h-2.22l-1.91-3h0v3h-1.85V46.2h1.85v5.65h0l1.78-2.77h2.2L611,51.9Z" fill="#1e1e1e"/>
      <path d="M556.06,67.72a6.06,6.06,0,0,1-3,.71,4.41,4.41,0,0,1-3.2-1.12,4.08,4.08,0,0,1-1.17-3.09A4.32,4.32,0,0,1,549.92,61a4.66,4.66,0,0,1,3.4-1.25,6.78,6.78,0,0,1,2.35.37v1.77a4.73,4.73,0,0,0-2.38-.56,2.58,2.58,0,0,0-1.92.77,2.82,2.82,0,0,0-.74,2,2.78,2.78,0,0,0,.67,2,2.34,2.34,0,0,0,1.79.71,2.46,2.46,0,0,0,1.08-.19V65h-1.68V63.5h3.57Z" fill="#1e1e1e"/>
      <path d="M562.51,68.28h-1.75v-.86h0a2,2,0,0,1-1.78,1,1.9,1.9,0,0,1-1.38-.5,1.79,1.79,0,0,1-.5-1.32q0-1.74,2.07-2l1.63-.22c0-.66-.36-1-1.07-1a3.7,3.7,0,0,0-2,.63V62.64a4.67,4.67,0,0,1,1.06-.35,5.7,5.7,0,0,1,1.22-.15,2.27,2.27,0,0,1,2.57,2.56Zm-1.74-2.43v-.41l-1.09.14c-.6.08-.9.35-.9.82a.64.64,0,0,0,.22.51.8.8,0,0,0,.59.21,1.1,1.1,0,0,0,.85-.36A1.31,1.31,0,0,0,560.77,65.85Z" fill="#1e1e1e"/>
      <path d="M567.6,68.21a2.62,2.62,0,0,1-1.23.22,1.76,1.76,0,0,1-2-2V63.65h-1V62.28h1V61l1.84-.53v1.82h1.35v1.37h-1.35v2.42c0,.63.25.94.75.94a1.31,1.31,0,0,0,.6-.17Z" fill="#1e1e1e"/>
      <path d="M574,65.81h-3.92c.07.87.62,1.31,1.65,1.31a3.24,3.24,0,0,0,1.74-.47V68a4.5,4.5,0,0,1-2.16.45,2.79,2.79,0,0,1-3.06-3.05,3.2,3.2,0,0,1,.87-2.37,2.9,2.9,0,0,1,2.13-.87,2.62,2.62,0,0,1,2,.78A3,3,0,0,1,574,65Zm-1.72-1.14c0-.86-.35-1.29-1-1.29a1,1,0,0,0-.77.37,1.72,1.72,0,0,0-.4.92Z" fill="#1e1e1e"/>
      <path d="M583.78,62.28l-1.73,6h-1.94l-.89-3.51a3.68,3.68,0,0,1-.1-.77h0a5,5,0,0,1-.12.74l-1,3.54H576.1l-1.7-6h1.89l.83,3.92a4.8,4.8,0,0,1,.09.66h0a3.11,3.11,0,0,1,.11-.69l1-3.89h1.76l.93,3.92a6.6,6.6,0,0,1,.08.68h0c0-.23,0-.46.09-.68l.78-3.92Z" fill="#1e1e1e"/>
      <path d="M589.65,68.28H587.9v-.86h0a2,2,0,0,1-1.79,1,1.9,1.9,0,0,1-1.38-.5,1.79,1.79,0,0,1-.5-1.32q0-1.74,2.07-2l1.63-.22c0-.66-.36-1-1.07-1a3.7,3.7,0,0,0-2,.63V62.64a4.85,4.85,0,0,1,1.06-.35,5.7,5.7,0,0,1,1.22-.15,2.27,2.27,0,0,1,2.57,2.56Zm-1.74-2.43v-.41l-1.09.14c-.6.08-.9.35-.9.82a.64.64,0,0,0,.22.51.8.8,0,0,0,.59.21,1.1,1.1,0,0,0,.85-.36A1.31,1.31,0,0,0,587.91,65.85Z" fill="#1e1e1e"/>
      <path d="M596.83,62.28l-2.44,6.48c-.59,1.56-1.47,2.34-2.65,2.34a3.46,3.46,0,0,1-1.11-.15V69.47a1.54,1.54,0,0,0,.81.22,1,1,0,0,0,1-.67l.32-.75-2.44-6h2.05l1.12,3.65a5,5,0,0,1,.17.81h0a7.43,7.43,0,0,1,.19-.8L595,62.28Z" fill="#1e1e1e"/>
    </g>
    <g>
      <path d="M664.45,47.53a4.92,4.92,0,0,1-2.32.49,3.73,3.73,0,0,1-2.87-1.15,4.26,4.26,0,0,1-1.08-3,4.47,4.47,0,0,1,1.21-3.26,4.12,4.12,0,0,1,3.08-1.24,5,5,0,0,1,2,.35v1a4.08,4.08,0,0,0-2-.5,3,3,0,0,0-2.35,1,3.62,3.62,0,0,0-.9,2.58,3.49,3.49,0,0,0,.84,2.45,2.89,2.89,0,0,0,2.21.91,4.2,4.2,0,0,0,2.19-.56Z" fill="#1e1e1e"/>
      <path d="M669.16,42.86a1.18,1.18,0,0,0-.73-.2,1.25,1.25,0,0,0-1,.58,2.74,2.74,0,0,0-.41,1.58v3.06h-1v-6h1v1.24h0a2.17,2.17,0,0,1,.63-1,1.46,1.46,0,0,1,.94-.35,1.49,1.49,0,0,1,.58.08Z" fill="#1e1e1e"/>
      <path d="M675,45.12h-4.23a2.19,2.19,0,0,0,.54,1.55,1.85,1.85,0,0,0,1.42.54,3,3,0,0,0,1.86-.66v.9a3.52,3.52,0,0,1-2.09.57,2.54,2.54,0,0,1-2-.81,3.34,3.34,0,0,1-.73-2.3,3.29,3.29,0,0,1,.8-2.29,2.56,2.56,0,0,1,2-.88,2.28,2.28,0,0,1,1.82.76,3.19,3.19,0,0,1,.64,2.12Zm-1-.81a2,2,0,0,0-.4-1.3,1.39,1.39,0,0,0-1.1-.46,1.52,1.52,0,0,0-1.15.49,2.16,2.16,0,0,0-.59,1.27Z" fill="#1e1e1e"/>
      <path d="M680.77,47.88h-1V47h0A2,2,0,0,1,677.94,48a2,2,0,0,1-1.4-.47,1.65,1.65,0,0,1-.51-1.26c0-1.12.66-1.77,2-2l1.8-.25q0-1.53-1.23-1.53a3,3,0,0,0-2,.74v-1a3.76,3.76,0,0,1,2-.56c1.41,0,2.11.75,2.11,2.24Zm-1-3-1.45.2a2.25,2.25,0,0,0-1,.33,1,1,0,0,0-.34.84.92.92,0,0,0,.31.72,1.25,1.25,0,0,0,.84.27,1.53,1.53,0,0,0,1.18-.5,1.76,1.76,0,0,0,.46-1.26Z" fill="#1e1e1e"/>
      <path d="M685.37,47.82a1.82,1.82,0,0,1-.9.19c-1.05,0-1.58-.58-1.58-1.76V42.7h-1v-.82h1V40.42l1-.31v1.77h1.52v.82h-1.52v3.38a1.41,1.41,0,0,0,.21.87.82.82,0,0,0,.68.25,1,1,0,0,0,.63-.2Z" fill="#1e1e1e"/>
      <path d="M691.47,45.12h-4.23a2.23,2.23,0,0,0,.53,1.55,1.88,1.88,0,0,0,1.42.54,3,3,0,0,0,1.87-.66v.9A3.53,3.53,0,0,1,689,48a2.53,2.53,0,0,1-2-.81,3.34,3.34,0,0,1-.73-2.3,3.29,3.29,0,0,1,.79-2.29,2.58,2.58,0,0,1,2-.88,2.29,2.29,0,0,1,1.83.76,3.19,3.19,0,0,1,.64,2.12Zm-1-.81a2,2,0,0,0-.4-1.3,1.4,1.4,0,0,0-1.1-.46,1.54,1.54,0,0,0-1.16.49,2.21,2.21,0,0,0-.58,1.27Z" fill="#1e1e1e"/>
      <path d="M699,47.82a1.82,1.82,0,0,1-.9.19c-1.05,0-1.58-.58-1.58-1.76V42.7h-1v-.82h1V40.42l1-.31v1.77H699v.82h-1.52v3.38a1.41,1.41,0,0,0,.21.87.82.82,0,0,0,.68.25A1,1,0,0,0,699,47Z" fill="#1e1e1e"/>
      <path d="M705.26,47.88h-1V44.43c0-1.25-.47-1.88-1.4-1.88a1.51,1.51,0,0,0-1.18.54,2,2,0,0,0-.48,1.39v3.4h-1V39h1v3.88h0a2.18,2.18,0,0,1,2-1.14c1.35,0,2,.82,2,2.45Z" fill="#1e1e1e"/>
      <path d="M711.89,45.12h-4.23a2.23,2.23,0,0,0,.53,1.55,1.88,1.88,0,0,0,1.42.54,3,3,0,0,0,1.87-.66v.9a3.53,3.53,0,0,1-2.1.57,2.53,2.53,0,0,1-2-.81,3.34,3.34,0,0,1-.73-2.3,3.29,3.29,0,0,1,.79-2.29,2.58,2.58,0,0,1,2-.88,2.29,2.29,0,0,1,1.83.76,3.19,3.19,0,0,1,.64,2.12Zm-1-.81a2,2,0,0,0-.4-1.3,1.4,1.4,0,0,0-1.1-.46,1.54,1.54,0,0,0-1.16.49,2.21,2.21,0,0,0-.58,1.27Z" fill="#1e1e1e"/>
      <path d="M659.85,60.78a5.49,5.49,0,0,1-2.4.45,4,4,0,0,1-3-1.14,4.14,4.14,0,0,1-1.11-3,4.45,4.45,0,0,1,1.24-3.27,4.38,4.38,0,0,1,3.23-1.25,6,6,0,0,1,2.08.31v1.82a3.71,3.71,0,0,0-1.92-.5,2.56,2.56,0,0,0-1.91.74,2.75,2.75,0,0,0-.73,2,2.69,2.69,0,0,0,.69,1.94,2.41,2.41,0,0,0,1.84.72,3.92,3.92,0,0,0,2-.53Z" fill="#1e1e1e"/>
      <path d="M664,61.23a3.24,3.24,0,0,1-2.36-.84,3.05,3.05,0,0,1-.86-2.28,3,3,0,0,1,.9-2.33,3.34,3.34,0,0,1,2.4-.84,3.2,3.2,0,0,1,2.35.84,3,3,0,0,1,.85,2.22,3.18,3.18,0,0,1-.88,2.36A3.24,3.24,0,0,1,664,61.23Zm0-4.88a1.21,1.21,0,0,0-1,.46,2,2,0,0,0-.36,1.27c0,1.16.46,1.73,1.39,1.73s1.33-.59,1.33-1.77S664.93,56.35,664,56.35Z" fill="#1e1e1e"/>
      <path d="M674.26,61.08h-1.84V57.75c0-.93-.34-1.4-1-1.4a1,1,0,0,0-.79.37,1.4,1.4,0,0,0-.31.94v3.42h-1.85v-6h1.85v1h0a2.12,2.12,0,0,1,1.93-1.09c1.33,0,2,.82,2,2.47Z" fill="#1e1e1e"/>
      <path d="M681.52,61.08h-1.84V57.75c0-.93-.34-1.4-1-1.4a1,1,0,0,0-.79.37,1.4,1.4,0,0,0-.31.94v3.42h-1.85v-6h1.85v1h0a2.12,2.12,0,0,1,1.93-1.09c1.33,0,2,.82,2,2.47Z" fill="#1e1e1e"/>
      <path d="M688.38,58.61h-3.92c.07.87.62,1.31,1.65,1.31a3.24,3.24,0,0,0,1.74-.47v1.33a4.5,4.5,0,0,1-2.16.45,2.79,2.79,0,0,1-3.06-3,3.2,3.2,0,0,1,.87-2.37,2.9,2.9,0,0,1,2.13-.87,2.63,2.63,0,0,1,2,.78,3,3,0,0,1,.72,2.11Zm-1.72-1.14c0-.86-.35-1.29-1-1.29a1,1,0,0,0-.77.37,1.72,1.72,0,0,0-.4.92Z" fill="#1e1e1e"/>
      <path d="M694,60.87a3.72,3.72,0,0,1-1.81.36,3,3,0,0,1-2.24-.84,2.9,2.9,0,0,1-.86-2.16,3.19,3.19,0,0,1,.92-2.41,3.38,3.38,0,0,1,2.45-.88,3.14,3.14,0,0,1,1.54.28v1.57a2.13,2.13,0,0,0-1.3-.44,1.71,1.71,0,0,0-1.26.47,1.75,1.75,0,0,0-.47,1.29,1.71,1.71,0,0,0,.45,1.25,1.64,1.64,0,0,0,1.22.45,2.47,2.47,0,0,0,1.36-.43Z" fill="#1e1e1e"/>
      <path d="M698.87,61a2.7,2.7,0,0,1-1.24.22,1.77,1.77,0,0,1-2-2V56.45h-1V55.08h1V53.79l1.85-.53v1.82h1.35v1.37h-1.35v2.42c0,.63.25.94.74.94a1.31,1.31,0,0,0,.61-.17Z" fill="#1e1e1e"/>
      <path d="M700.85,54.13a1.1,1.1,0,0,1-.77-.27.92.92,0,0,1-.3-.69.88.88,0,0,1,.3-.68,1.14,1.14,0,0,1,.77-.26,1.16,1.16,0,0,1,.77.26,1,1,0,0,1,0,1.37A1.11,1.11,0,0,1,700.85,54.13Zm.91,6.95h-1.85v-6h1.85Z" fill="#1e1e1e"/>
      <path d="M706.18,61.23a3.23,3.23,0,0,1-2.36-.84,3.47,3.47,0,0,1,0-4.61,3.38,3.38,0,0,1,2.41-.84,3.16,3.16,0,0,1,2.34.84,3,3,0,0,1,.85,2.22,3.18,3.18,0,0,1-.87,2.36A3.27,3.27,0,0,1,706.18,61.23Zm.05-4.88a1.21,1.21,0,0,0-1,.46,1.92,1.92,0,0,0-.37,1.27c0,1.16.47,1.73,1.4,1.73s1.33-.59,1.33-1.77S707.12,56.35,706.23,56.35Z" fill="#1e1e1e"/>
      <path d="M716.45,61.08H714.6V57.75c0-.93-.33-1.4-1-1.4a1,1,0,0,0-.79.37,1.4,1.4,0,0,0-.31.94v3.42h-1.85v-6h1.85v1h0a2.11,2.11,0,0,1,1.93-1.09c1.33,0,2,.82,2,2.47Z" fill="#1e1e1e"/>
    </g>
    <g>
      <path d="M782.67,47.53a4.92,4.92,0,0,1-2.32.49,3.73,3.73,0,0,1-2.87-1.15,4.26,4.26,0,0,1-1.08-3,4.47,4.47,0,0,1,1.21-3.26,4.12,4.12,0,0,1,3.08-1.24,5,5,0,0,1,2,.35v1a4.08,4.08,0,0,0-2-.5,3,3,0,0,0-2.35,1,3.62,3.62,0,0,0-.9,2.58,3.49,3.49,0,0,0,.84,2.45,2.89,2.89,0,0,0,2.21.91,4.2,4.2,0,0,0,2.19-.56Z" fill="#1e1e1e"/>
      <path d="M787.38,42.86a1.18,1.18,0,0,0-.73-.2,1.25,1.25,0,0,0-1,.58,2.74,2.74,0,0,0-.41,1.58v3.06h-1v-6h1v1.24h0a2.17,2.17,0,0,1,.63-1,1.46,1.46,0,0,1,.94-.35,1.49,1.49,0,0,1,.58.08Z" fill="#1e1e1e"/>
      <path d="M793.24,45.12H789a2.19,2.19,0,0,0,.54,1.55,1.85,1.85,0,0,0,1.41.54,3,3,0,0,0,1.87-.66v.9a3.52,3.52,0,0,1-2.09.57,2.54,2.54,0,0,1-2-.81,3.34,3.34,0,0,1-.73-2.3,3.29,3.29,0,0,1,.8-2.29,2.55,2.55,0,0,1,2-.88,2.28,2.28,0,0,1,1.82.76,3.19,3.19,0,0,1,.64,2.12Zm-1-.81a2,2,0,0,0-.4-1.3,1.4,1.4,0,0,0-1.1-.46,1.52,1.52,0,0,0-1.15.49,2.16,2.16,0,0,0-.59,1.27Z" fill="#1e1e1e"/>
      <path d="M799,47.88h-1V47h0A2,2,0,0,1,796.16,48a2,2,0,0,1-1.4-.47,1.65,1.65,0,0,1-.51-1.26c0-1.12.66-1.77,2-2l1.8-.25c0-1-.41-1.53-1.24-1.53a3,3,0,0,0-1.95.74v-1a3.76,3.76,0,0,1,2-.56c1.41,0,2.11.75,2.11,2.24Zm-1-3-1.45.2a2.25,2.25,0,0,0-1,.33,1,1,0,0,0-.34.84.92.92,0,0,0,.31.72,1.24,1.24,0,0,0,.83.27,1.55,1.55,0,0,0,1.19-.5,1.76,1.76,0,0,0,.46-1.26Z" fill="#1e1e1e"/>
      <path d="M803.59,47.82a1.82,1.82,0,0,1-.9.19c-1.05,0-1.58-.58-1.58-1.76V42.7h-1v-.82h1V40.42l1-.31v1.77h1.52v.82h-1.52v3.38a1.41,1.41,0,0,0,.21.87.82.82,0,0,0,.68.25,1,1,0,0,0,.63-.2Z" fill="#1e1e1e"/>
      <path d="M809.69,45.12h-4.23a2.23,2.23,0,0,0,.53,1.55,1.88,1.88,0,0,0,1.42.54,3,3,0,0,0,1.87-.66v.9a3.53,3.53,0,0,1-2.1.57,2.53,2.53,0,0,1-2-.81,3.34,3.34,0,0,1-.73-2.3,3.29,3.29,0,0,1,.79-2.29,2.58,2.58,0,0,1,2-.88,2.29,2.29,0,0,1,1.83.76,3.19,3.19,0,0,1,.64,2.12Zm-1-.81a2,2,0,0,0-.4-1.3,1.4,1.4,0,0,0-1.1-.46,1.54,1.54,0,0,0-1.16.49,2.21,2.21,0,0,0-.58,1.27Z" fill="#1e1e1e"/>
      <path d="M818.73,47.88h-1V47h0A2,2,0,0,1,815.9,48a2,2,0,0,1-1.41-.47,1.68,1.68,0,0,1-.5-1.26c0-1.12.66-1.77,2-2l1.8-.25c0-1-.42-1.53-1.24-1.53a3,3,0,0,0-2,.74v-1a3.76,3.76,0,0,1,2-.56c1.41,0,2.12.75,2.12,2.24Zm-1-3-1.45.2a2.3,2.3,0,0,0-1,.33,1,1,0,0,0-.34.84,1,1,0,0,0,.31.72,1.25,1.25,0,0,0,.84.27,1.51,1.51,0,0,0,1.18-.5,1.77,1.77,0,0,0,.47-1.26Z" fill="#1e1e1e"/>
      <path d="M760.8,52.68l-2.9,8.4h-2.14l-2.86-8.4h2l1.75,5.85a4.31,4.31,0,0,1,.17.84h0a3.86,3.86,0,0,1,.18-.87l1.74-5.82Z" fill="#1e1e1e"/>
      <path d="M762.56,54.13a1.11,1.11,0,0,1-.77-.27.91.91,0,0,1-.29-.69.87.87,0,0,1,.29-.68,1.16,1.16,0,0,1,.77-.26,1.14,1.14,0,0,1,.77.26.93.93,0,0,1,0,1.37A1.1,1.1,0,0,1,762.56,54.13Zm.92,6.95h-1.86v-6h1.86Z" fill="#1e1e1e"/>
      <path d="M769,56.75a1.61,1.61,0,0,0-.78-.18,1.12,1.12,0,0,0-.94.44,1.93,1.93,0,0,0-.34,1.21v2.86H765v-6h1.86V56.2h0A1.59,1.59,0,0,1,768.49,55a1.14,1.14,0,0,1,.46.07Z" fill="#1e1e1e"/>
      <path d="M773.78,61a2.62,2.62,0,0,1-1.23.22,1.76,1.76,0,0,1-2-2V56.45h-1V55.08h1V53.79l1.84-.53v1.82h1.35v1.37h-1.35v2.42c0,.63.25.94.75.94a1.27,1.27,0,0,0,.6-.17Z" fill="#1e1e1e"/>
      <path d="M780.53,61.08h-1.85v-.91h0a2.09,2.09,0,0,1-1.83,1.06c-1.39,0-2.09-.84-2.09-2.53V55.08h1.85v3.46c0,.85.33,1.27,1,1.27a1,1,0,0,0,.8-.35,1.38,1.38,0,0,0,.3-.94V55.08h1.85Z" fill="#1e1e1e"/>
      <path d="M787.08,61.08h-1.75v-.86h0a2,2,0,0,1-1.79,1,1.86,1.86,0,0,1-1.37-.5,1.79,1.79,0,0,1-.5-1.32q0-1.74,2.07-2l1.63-.22c0-.66-.36-1-1.07-1a3.7,3.7,0,0,0-2,.63V55.44a4.67,4.67,0,0,1,1.06-.35,5.63,5.63,0,0,1,1.22-.15,2.27,2.27,0,0,1,2.57,2.56Zm-1.74-2.43v-.41l-1.09.14c-.6.08-.91.35-.91.82a.67.67,0,0,0,.22.51.84.84,0,0,0,.6.21,1.1,1.1,0,0,0,.85-.36A1.31,1.31,0,0,0,785.34,58.65Z" fill="#1e1e1e"/>
      <path d="M790.39,61.08h-1.85V52.2h1.85Z" fill="#1e1e1e"/>
      <path d="M805,61.08h-1.87v-5c0-.55,0-1.15.07-1.8h-.05a7.75,7.75,0,0,1-.26,1.11l-2,5.71h-1.55l-2-5.65a9.57,9.57,0,0,1-.26-1.17h-.06c0,.82.08,1.55.08,2.18v4.64h-1.71v-8.4h2.78l1.71,5a6.58,6.58,0,0,1,.3,1.2h0a10.27,10.27,0,0,1,.33-1.21l1.72-5H805Z" fill="#1e1e1e"/>
      <path d="M811.74,61.08H810v-.86h0a2,2,0,0,1-1.78,1,1.88,1.88,0,0,1-1.38-.5,1.79,1.79,0,0,1-.5-1.32q0-1.74,2.07-2l1.63-.22c0-.66-.36-1-1.07-1a3.7,3.7,0,0,0-2,.63V55.44a4.67,4.67,0,0,1,1.06-.35,5.7,5.7,0,0,1,1.22-.15,2.27,2.27,0,0,1,2.57,2.56ZM810,58.65v-.41l-1.09.14c-.6.08-.9.35-.9.82a.64.64,0,0,0,.22.51.8.8,0,0,0,.59.21,1.1,1.1,0,0,0,.85-.36A1.31,1.31,0,0,0,810,58.65Z" fill="#1e1e1e"/>
      <path d="M817.75,60.87a3.69,3.69,0,0,1-1.81.36,3.06,3.06,0,0,1-2.24-.84,2.89,2.89,0,0,1-.85-2.16,3.19,3.19,0,0,1,.91-2.41,3.4,3.4,0,0,1,2.46-.88,3.12,3.12,0,0,1,1.53.28v1.57a2.12,2.12,0,0,0-1.29-.44,1.71,1.71,0,0,0-1.27.47,2,2,0,0,0,0,2.54,1.66,1.66,0,0,0,1.23.45,2.42,2.42,0,0,0,1.35-.43Z" fill="#1e1e1e"/>
      <path d="M824.72,61.08h-1.84V57.67q0-1.32-1-1.32a1,1,0,0,0-.8.37,1.45,1.45,0,0,0-.3.94v3.42H819V52.2h1.86V56h0a2.1,2.1,0,0,1,1.84-1q2,0,2,2.46Z" fill="#1e1e1e"/>
      <path d="M827.13,54.13a1.1,1.1,0,0,1-.77-.27.92.92,0,0,1-.3-.69.88.88,0,0,1,.3-.68,1.14,1.14,0,0,1,.77-.26,1.16,1.16,0,0,1,.77.26,1,1,0,0,1,0,1.37A1.11,1.11,0,0,1,827.13,54.13Zm.91,6.95h-1.85v-6H828Z" fill="#1e1e1e"/>
      <path d="M835.39,61.08h-1.84V57.75c0-.93-.33-1.4-1-1.4a1,1,0,0,0-.79.37,1.4,1.4,0,0,0-.31.94v3.42H829.6v-6h1.85v1h0a2.13,2.13,0,0,1,1.93-1.09c1.33,0,2,.82,2,2.47Z" fill="#1e1e1e"/>
      <path d="M842.25,58.61h-3.92c.07.87.62,1.31,1.65,1.31a3.24,3.24,0,0,0,1.74-.47v1.33a4.5,4.5,0,0,1-2.16.45,2.79,2.79,0,0,1-3.06-3,3.2,3.2,0,0,1,.87-2.37,2.9,2.9,0,0,1,2.13-.87,2.62,2.62,0,0,1,2,.78,3,3,0,0,1,.72,2.11Zm-1.72-1.14c0-.86-.35-1.29-1-1.29a1,1,0,0,0-.77.37,1.72,1.72,0,0,0-.4.92Z" fill="#1e1e1e"/>
    </g>
  </g>
</svg>
