<svg xmlns="http://www.w3.org/2000/svg" xmlns:xlink="http://www.w3.org/1999/xlink" viewBox="0 0 243.76 223.31">
  <defs>
    <linearGradient id="linear-gradient" x1="13.76" y1="613.57" x2="13.76" y2="586.06" gradientTransform="matrix(1, 0, 0, -1, 0, 610.62)" gradientUnits="userSpaceOnUse">
      <stop offset="0.18" stop-color="#5ea0ef"/>
      <stop offset="1" stop-color="#0078d4"/>
    </linearGradient>
    <linearGradient id="linear-gradient-2" x1="81.1" y1="521.88" x2="81.1" y2="539.2" gradientTransform="matrix(1, 0, 0, -1, 0, 610.62)" gradientUnits="userSpaceOnUse">
      <stop offset="0" stop-color="#0078d4"/>
      <stop offset="0.82" stop-color="#5ea0ef"/>
    </linearGradient>
    <linearGradient id="linear-gradient-3" x1="81.1" y1="515.2" x2="81.1" y2="521.88" gradientTransform="matrix(1, 0, 0, -1, 0, 610.62)" gradientUnits="userSpaceOnUse">
      <stop offset="0.15" stop-color="#ccc"/>
      <stop offset="1" stop-color="#707070"/>
    </linearGradient>
    <linearGradient id="linear-gradient-4" x1="96.21" y1="492.04" x2="97.73" y2="490.52" gradientTransform="matrix(1, 0, 0, -1, 3.01, 610.2)" gradientUnits="userSpaceOnUse">
      <stop offset="0" stop-color="#86d633"/>
      <stop offset="0.24" stop-color="#83d232"/>
      <stop offset="0.5" stop-color="#7cc52f"/>
      <stop offset="0.76" stop-color="#6fb02a"/>
      <stop offset="1" stop-color="#5e9624"/>
    </linearGradient>
    <linearGradient id="linear-gradient-5" x1="92.78" y1="492.04" x2="94.29" y2="490.52" xlink:href="#linear-gradient-4"/>
    <linearGradient id="linear-gradient-6" x1="89.35" y1="492.04" x2="90.86" y2="490.52" xlink:href="#linear-gradient-4"/>
    <linearGradient id="linear-gradient-7" x1="80.64" y1="471.87" x2="81.23" y2="440.93" gradientTransform="matrix(1, 0, 0, -1, 0, 610.62)" gradientUnits="userSpaceOnUse">
      <stop offset="0.22" stop-color="#32d4f5"/>
      <stop offset="0.47" stop-color="#31d1f3"/>
      <stop offset="0.63" stop-color="#2ec9eb"/>
      <stop offset="0.77" stop-color="#29bade"/>
      <stop offset="0.89" stop-color="#22a5cb"/>
      <stop offset="1" stop-color="#198ab3"/>
    </linearGradient>
    <linearGradient id="linear-gradient-8" x1="190.24" y1="463.6" x2="194.77" y2="459.07" gradientTransform="matrix(1, 0, 0, -1, 3.01, 609.23)" gradientUnits="userSpaceOnUse">
      <stop offset="0" stop-color="#86d633"/>
      <stop offset="1" stop-color="#5e9624"/>
    </linearGradient>
    <linearGradient id="linear-gradient-9" x1="200.85" y1="450.11" x2="205.37" y2="445.57" gradientTransform="matrix(1, 0, 0, -1, 0, 610.62)" xlink:href="#linear-gradient-8"/>
    <linearGradient id="linear-gradient-10" x1="183.3" y1="450.11" x2="187.82" y2="445.59" gradientTransform="matrix(1, 0, 0, -1, 0, 610.62)" xlink:href="#linear-gradient-8"/>
  </defs>
  <g id="Shapes">
    <rect width="243.76" height="223.31" fill="#fff"/>
    <g>
      <rect x="13.76" y="13.42" width="230" height="209.89" fill="#fff"/>
      <rect x="13.76" y="13.42" width="230" height="209.89" fill="#0072c6" opacity="0.25"/>
    </g>
    <g>
      <rect x="18.76" y="38.42" width="220" height="180" fill="#fff"/>
      <rect x="18.76" y="38.42" width="220" height="180" fill="#0072c6" opacity="0.06"/>
    </g>
    <g>
      <rect x="28.6" y="63.42" width="105" height="40" rx="5" fill="#fff"/>
      <rect x="28.6" y="63.42" width="105" height="40" rx="5" fill="#3c3c41" opacity="0.05"/>
      <rect x="28.6" y="63.42" width="105" height="40" rx="5" fill="none" stroke="#3c3c41" stroke-dasharray="1 2"/>
    </g>
    <path d="M27.53,13.93a6.27,6.27,0,0,0-5.37-6.08,7.91,7.91,0,0,0-8-7.65A8.09,8.09,0,0,0,6.46,5.56,7.42,7.42,0,0,0,0,12.82,7.65,7.65,0,0,0,7.76,20.2H21.35A6.35,6.35,0,0,0,27.53,13.93Z" fill="url(#linear-gradient)"/>
    <g>
      <rect x="68.11" y="71.42" width="25.98" height="17.32" rx="0.87" fill="url(#linear-gradient-2)"/>
      <polygon points="85.43 77.56 85.43 82.59 81.1 85.13 81.1 80.08 85.43 77.56" fill="#50e6ff"/>
      <polygon points="85.43 77.56 81.1 80.09 76.77 77.56 81.1 75.03 85.43 77.56" fill="#c3f1ff"/>
      <polygon points="81.1 80.09 81.1 85.13 76.77 82.59 76.77 77.56 81.1 80.09" fill="#9cebff"/>
      <polygon points="76.77 82.59 81.1 80.08 81.1 85.13 76.77 82.59" fill="#c3f1ff"/>
      <polygon points="85.43 82.59 81.1 80.08 81.1 85.13 85.43 82.59" fill="#9cebff"/>
      <path d="M86.31,94c-2.57-.41-2.67-2.25-2.67-5.24h-5.1c0,3-.08,4.83-2.65,5.24a1.44,1.44,0,0,0-1.29,1.44h13A1.43,1.43,0,0,0,86.31,94Z" fill="url(#linear-gradient-3)"/>
    </g>
    <line x1="81.1" y1="103.42" x2="81.1" y2="147.4" fill="none" stroke="#000"/>
    <g>
      <circle cx="99.29" cy="118.78" r="1.08" fill="url(#linear-gradient-4)"/>
      <circle cx="95.86" cy="118.79" r="1.08" fill="url(#linear-gradient-5)"/>
      <circle cx="92.43" cy="118.79" r="1.08" fill="url(#linear-gradient-6)"/>
      <path d="M93.21,123.09l-.61.62a.28.28,0,0,1-.4,0h0l-4.55-4.54a.56.56,0,0,1,0-.79h0l.62-.62h0l4.95,4.94a.27.27,0,0,1,0,.39Z" fill="#50e6ff"/>
      <path d="M92.5,113.89l.62.61a.27.27,0,0,1,0,.39l-4.86,4.88h0l-.62-.61a.56.56,0,0,1,0-.79h0l4.47-4.48A.27.27,0,0,1,92.5,113.89Z" fill="#1490df"/>
      <path d="M103.39,117.75l.61.62a.56.56,0,0,1,0,.79h0l-4.56,4.54a.27.27,0,0,1-.39,0h0l-.61-.62a.27.27,0,0,1,0-.39h0l5-4.94Z" fill="#50e6ff"/>
      <path d="M104,119.15l-.62.62h0l-4.86-4.88a.27.27,0,0,1,0-.39h0l.62-.63a.28.28,0,0,1,.4,0h0l4.47,4.49a.54.54,0,0,1,0,.78h0Z" fill="#1490df"/>
    </g>
    <g>
      <rect x="28.6" y="153.62" width="105" height="39.8" fill="#fff"/>
      <rect x="28.6" y="153.62" width="105" height="39.8" fill="#3c3c41" opacity="0.02"/>
      <rect x="28.6" y="153.62" width="105" height="39.8" fill="none" stroke="#75757a" stroke-miterlimit="10" stroke-width="0.5" opacity="0.5"/>
    </g>
    <line x1="88.81" y1="163.42" x2="183.76" y2="163.42" fill="none" stroke="#000"/>
    <g>
      <path d="M87.83,157H86.76v-3.42a6.44,6.44,0,0,0-1.65-4.36A5.28,5.28,0,0,0,81,147.41a5.36,5.36,0,0,0-4.11,1.85,6.39,6.39,0,0,0-1.67,4.36V157h-.89a.77.77,0,0,0-.76.76v8.84a.76.76,0,0,0,.76.76h13.5a.8.8,0,0,0,.78-.76V157.8A.78.78,0,0,0,87.83,157Zm-3.73,0H77.91v-3.52a3.52,3.52,0,0,1,1-2.35,2.82,2.82,0,0,1,2.1-1,2.76,2.76,0,0,1,2.09,1,2.55,2.55,0,0,1,.37.48h0a3.32,3.32,0,0,1,.67,1.9Z" fill="url(#linear-gradient-7)"/>
      <path d="M87.87,157H74.35a.78.78,0,0,0-.5.19l14.51,10.05a.8.8,0,0,0,.27-.59v-8.87A.78.78,0,0,0,87.87,157Z" fill="#50e6ff"/>
      <path d="M74.37,157H87.88a.75.75,0,0,1,.49.19l-14.5,10.05a.79.79,0,0,1-.28-.59v-8.87A.79.79,0,0,1,74.37,157Z" fill="#fff" opacity="0.2" style="isolation: isolate"/>
      <path d="M79.77,159.18l1.33-1.33a.09.09,0,0,1,.1,0l1.32,1.33a.08.08,0,0,1,0,.1l0,0h-.83a.07.07,0,0,0-.07.07h0v1.77h-.9v-1.77a.07.07,0,0,0-.07-.07h-.83a.08.08,0,0,1-.07-.08Zm2.74,6.09-1.32,1.32a.07.07,0,0,1-.1,0l-1.32-1.32v-.11h.78a.07.07,0,0,0,.07-.07h0v-1.72s0,0,0-.07h.83a.08.08,0,0,1,0,.07v1.72a.07.07,0,0,0,.07.07h.78C82.52,165.16,82.56,165.23,82.51,165.27Zm-5.22-1.72v-.77a.08.08,0,0,0-.07-.08H75.51s0,0,0-.07v-.82a0,0,0,0,1,0-.07h1.78v-.81a.08.08,0,0,1,.1,0l0,0,1.34,1.25m0,.09-1.34,1.33a.08.08,0,0,1-.1,0,.05.05,0,0,1,0,0ZM85,160.93v.79h1.78s.06,0,.06.07v.82s0,.07-.06.07H85.06a.07.07,0,0,0-.07.07h0v.78a.08.08,0,0,1-.1,0l0,0-1.33-1.33a.07.07,0,0,1,0-.09l1.33-1.33a.1.1,0,0,1,.14,0A.09.09,0,0,1,85,160.93Z" fill="#fff"/>
    </g>
    <g>
      <rect x="184.12" y="154.06" width="12.64" height="2.63" transform="translate(-39.34 242.61) rotate(-60)" fill="#a67af4"/>
      <rect x="197.73" y="149.26" width="2.63" height="12.64" transform="translate(-51.12 120.37) rotate(-30)" fill="#a67af4"/>
      <rect x="188.32" y="161.7" width="12.64" height="2.63" fill="#773adc"/>
      <circle cx="194.87" cy="147.63" r="3.21" fill="url(#linear-gradient-8)"/>
      <circle cx="203.54" cy="163.22" r="3.21" fill="url(#linear-gradient-9)"/>
      <circle cx="186.01" cy="163.22" r="3.21" fill="url(#linear-gradient-10)"/>
    </g>
  </g>
  <g id="Text">
    <g>
      <path d="M37.84,10.2H35.77l-.59-1.87h-3L31.6,10.2H29.55L32.6,1.8h2.25Zm-3.1-3.32-.9-2.83a3.59,3.59,0,0,1-.14-.75h-.05a3.76,3.76,0,0,1-.14.73l-.92,2.85Z" fill="#231f20"/>
      <path d="M43.46,10.2H38.07V9.43l3-3.86H38.37V4.2h5.06v.92L40.58,8.84h2.88Z" fill="#231f20"/>
      <path d="M50.15,10.2H48.31V9.29h0a2.12,2.12,0,0,1-1.84,1.06c-1.39,0-2.08-.84-2.08-2.53V4.2H46.2V7.66c0,.85.34,1.27,1,1.27a1,1,0,0,0,.8-.35,1.41,1.41,0,0,0,.3-1V4.2h1.84Z" fill="#231f20"/>
      <path d="M55.63,5.87a1.66,1.66,0,0,0-.78-.18,1.14,1.14,0,0,0-1,.44,2,2,0,0,0-.34,1.21V10.2H51.71v-6h1.85V5.31h0A1.59,1.59,0,0,1,55.17,4.1a1.17,1.17,0,0,1,.46.07Z" fill="#231f20"/>
      <path d="M61.83,7.73H57.92C58,8.6,58.53,9,59.56,9a3.24,3.24,0,0,0,1.74-.47V9.9a4.5,4.5,0,0,1-2.16.45,3,3,0,0,1-2.25-.81,3,3,0,0,1-.81-2.25A3.19,3.19,0,0,1,57,4.93a2.91,2.91,0,0,1,2.13-.88,2.62,2.62,0,0,1,2,.78A3,3,0,0,1,61.83,7ZM60.11,6.59c0-.86-.34-1.29-1-1.29a1,1,0,0,0-.77.37,1.6,1.6,0,0,0-.39.92Z" fill="#231f20"/>
    </g>
    <g>
      <path d="M52.11,58.42h-1V51.16a2.72,2.72,0,0,1-.33.26,5.1,5.1,0,0,1-.48.28c-.18.1-.36.18-.56.27a4.89,4.89,0,0,1-.58.19v-1a5.46,5.46,0,0,0,.67-.24,6.44,6.44,0,0,0,.7-.34c.23-.12.44-.25.65-.38a5,5,0,0,0,.52-.4h.37Z" fill="#1e1e1e"/>
      <path d="M59.8,54.19a8.75,8.75,0,0,1-.19,1.87,4.41,4.41,0,0,1-.56,1.37A2.34,2.34,0,0,1,57,58.57a2.23,2.23,0,0,1-1.13-.28,2.49,2.49,0,0,1-.84-.81,4.37,4.37,0,0,1-.51-1.31,7.93,7.93,0,0,1-.18-1.78,8.67,8.67,0,0,1,.19-1.94A4.3,4.3,0,0,1,55.05,51a2.36,2.36,0,0,1,.89-.86,2.52,2.52,0,0,1,1.21-.29C58.91,49.88,59.8,51.31,59.8,54.19Zm-1,.09c0-2.39-.57-3.59-1.7-3.59s-1.8,1.22-1.8,3.65c0,2.27.59,3.41,1.76,3.41S58.81,56.59,58.81,54.28Z" fill="#1e1e1e"/>
      <path d="M61.5,58.55a.62.62,0,0,1-.46-.19.67.67,0,0,1,.46-1.13.65.65,0,0,1,.47.2.66.66,0,0,1-.47,1.12Z" fill="#1e1e1e"/>
      <path d="M66,58.42H65V51.16a2.11,2.11,0,0,1-.33.26,5.1,5.1,0,0,1-.48.28,5.85,5.85,0,0,1-.56.27,4.89,4.89,0,0,1-.58.19v-1a5.46,5.46,0,0,0,.67-.24,6.44,6.44,0,0,0,.7-.34c.23-.12.45-.25.65-.38a6.62,6.62,0,0,0,.53-.4H66Z" fill="#1e1e1e"/>
      <path d="M73.67,54.19a8.75,8.75,0,0,1-.19,1.87,4.41,4.41,0,0,1-.55,1.37,2.37,2.37,0,0,1-2.08,1.14,2.23,2.23,0,0,1-1.13-.28,2.38,2.38,0,0,1-.83-.81,4.12,4.12,0,0,1-.52-1.31,8,8,0,0,1-.17-1.78,9.35,9.35,0,0,1,.18-1.94A4.3,4.3,0,0,1,68.92,51a2.43,2.43,0,0,1,.89-.86A2.53,2.53,0,0,1,71,49.88C72.79,49.88,73.67,51.31,73.67,54.19Zm-1,.09c0-2.39-.56-3.59-1.7-3.59s-1.8,1.22-1.8,3.65c0,2.27.59,3.41,1.76,3.41S72.68,56.59,72.68,54.28Z" fill="#1e1e1e"/>
      <path d="M80.36,54.19a8.15,8.15,0,0,1-.19,1.87,4.41,4.41,0,0,1-.55,1.37,2.34,2.34,0,0,1-2.08,1.14,2.19,2.19,0,0,1-1.12-.28,2.49,2.49,0,0,1-.84-.81,3.9,3.9,0,0,1-.51-1.31,7.93,7.93,0,0,1-.18-1.78,9.35,9.35,0,0,1,.18-1.94A4.53,4.53,0,0,1,75.62,51a2.34,2.34,0,0,1,.88-.86,2.56,2.56,0,0,1,1.22-.29C79.48,49.88,80.36,51.31,80.36,54.19Zm-1,.09c0-2.39-.57-3.59-1.71-3.59s-1.8,1.22-1.8,3.65c0,2.27.59,3.41,1.77,3.41S79.38,56.59,79.38,54.28Z" fill="#1e1e1e"/>
      <path d="M82.07,58.55a.6.6,0,0,1-.46-.19.66.66,0,0,1,0-.93.61.61,0,0,1,.46-.2.65.65,0,0,1,.47.2.66.66,0,0,1,0,.93A.64.64,0,0,1,82.07,58.55Z" fill="#1e1e1e"/>
      <path d="M88.85,52.42l-2,3,2,3H87.69l-1.18-1.94L86.25,56h0l-.28.46-1.2,1.94H83.64l2-2.94-2-3.06h1.12l1.16,2,.25.47h0l1.5-2.52Z" fill="#1e1e1e"/>
      <path d="M90.4,58.55a.62.62,0,0,1-.46-.19.67.67,0,0,1,.46-1.13.65.65,0,0,1,.47.2.66.66,0,0,1-.47,1.12Z" fill="#1e1e1e"/>
      <path d="M97.18,52.42l-2,3,2,3H96l-1.17-1.94c-.08-.12-.17-.28-.27-.46h0l-.28.46-1.2,1.94H92l2-2.94-2-3.06h1.12l1.16,2,.25.47h0l1.5-2.52Z" fill="#1e1e1e"/>
      <path d="M102.37,50l-4,9.8h-.89l4-9.8Z" fill="#1e1e1e"/>
      <path d="M106.25,58.42h-1V51.16a2.72,2.72,0,0,1-.33.26,5.1,5.1,0,0,1-.48.28c-.18.1-.36.18-.56.27a4.89,4.89,0,0,1-.58.19v-1A5.46,5.46,0,0,0,104,51a6.44,6.44,0,0,0,.7-.34c.23-.12.44-.25.65-.38a6.62,6.62,0,0,0,.53-.4h.36Z" fill="#1e1e1e"/>
      <path d="M113.85,55.76a3,3,0,0,1-.2,1.13,2.62,2.62,0,0,1-.55.89,2.38,2.38,0,0,1-.84.58,2.59,2.59,0,0,1-1.05.21,2.44,2.44,0,0,1-1.13-.26,2.38,2.38,0,0,1-.85-.76,3.53,3.53,0,0,1-.53-1.21,6.18,6.18,0,0,1-.19-1.61,7.57,7.57,0,0,1,.25-2,4.68,4.68,0,0,1,.69-1.53,3.14,3.14,0,0,1,1.08-1,2.78,2.78,0,0,1,1.41-.35,3.45,3.45,0,0,1,1.4.24V51a3,3,0,0,0-1.37-.34,2,2,0,0,0-1,.26,2.17,2.17,0,0,0-.77.71,3.34,3.34,0,0,0-.5,1.11,5.83,5.83,0,0,0-.17,1.45h0a2,2,0,0,1,1.92-1,2.57,2.57,0,0,1,1,.18,2.31,2.31,0,0,1,.76.53,2.4,2.4,0,0,1,.48.82A3,3,0,0,1,113.85,55.76Zm-1,.12a2.74,2.74,0,0,0-.11-.79,1.71,1.71,0,0,0-.32-.6,1.43,1.43,0,0,0-.52-.38,1.67,1.67,0,0,0-.69-.13,1.59,1.59,0,0,0-.66.14,1.77,1.77,0,0,0-.53.36,1.93,1.93,0,0,0-.35.54,1.78,1.78,0,0,0-.12.65,2.76,2.76,0,0,0,.12.82,2.08,2.08,0,0,0,.35.66,1.73,1.73,0,0,0,.53.44,1.51,1.51,0,0,0,.68.16,1.59,1.59,0,0,0,.66-.14,1.48,1.48,0,0,0,.51-.38,1.88,1.88,0,0,0,.33-.59A2.29,2.29,0,0,0,112.87,55.88Z" fill="#1e1e1e"/>
    </g>
    <g>
      <path d="M48.47,207.4h-1v-7.25a2.78,2.78,0,0,1-.32.25,5.5,5.5,0,0,1-.48.28,5,5,0,0,1-.57.27,4.76,4.76,0,0,1-.57.19v-1a6.12,6.12,0,0,0,.67-.24c.23-.1.47-.21.69-.33s.45-.25.65-.39a4.06,4.06,0,0,0,.53-.4h.36Z" fill="#1e1e1e"/>
      <path d="M55.89,202.7a8.45,8.45,0,0,1-.23,2.05,4.47,4.47,0,0,1-.67,1.53,3,3,0,0,1-1.07.95,3.18,3.18,0,0,1-1.44.32,3.57,3.57,0,0,1-1.47-.29v-.92a3,3,0,0,0,1.49.39,2.25,2.25,0,0,0,1-.23,2.17,2.17,0,0,0,.76-.69,3.38,3.38,0,0,0,.47-1.1,6.22,6.22,0,0,0,.17-1.51h0A1.91,1.91,0,0,1,53,204.29a2.64,2.64,0,0,1-1-.19,2.37,2.37,0,0,1-.78-.54,2.41,2.41,0,0,1-.51-.83,3.28,3.28,0,0,1,0-2.2,2.64,2.64,0,0,1,.56-.89,2.54,2.54,0,0,1,.86-.57,2.74,2.74,0,0,1,1.08-.21,2.4,2.4,0,0,1,1.12.26,2.15,2.15,0,0,1,.82.74,3.45,3.45,0,0,1,.51,1.2A6.8,6.8,0,0,1,55.89,202.7Zm-1-.86a3.09,3.09,0,0,0-.12-.89,2.3,2.3,0,0,0-.35-.68,1.71,1.71,0,0,0-.53-.44,1.53,1.53,0,0,0-.67-.15,1.57,1.57,0,0,0-.65.13,1.65,1.65,0,0,0-.52.39,1.9,1.9,0,0,0-.34.59,2,2,0,0,0-.13.75,2.49,2.49,0,0,0,.12.8,1.79,1.79,0,0,0,.34.59,1.45,1.45,0,0,0,.54.37,1.73,1.73,0,0,0,.69.13,1.61,1.61,0,0,0,.63-.12,1.87,1.87,0,0,0,.52-.34,1.65,1.65,0,0,0,.35-.51A1.59,1.59,0,0,0,54.85,201.84Z" fill="#1e1e1e"/>
      <path d="M60.75,201.21a1.76,1.76,0,0,0-.12-.68,1.24,1.24,0,0,0-.81-.76,2,2,0,0,0-.61-.09,2,2,0,0,0-.55.07,2.66,2.66,0,0,0-.53.21,3,3,0,0,0-.49.33,2.85,2.85,0,0,0-.44.41v-1a3,3,0,0,1,.9-.6,3.17,3.17,0,0,1,1.22-.21,2.93,2.93,0,0,1,1,.15,2.2,2.2,0,0,1,.76.44,2.05,2.05,0,0,1,.51.71,2.42,2.42,0,0,1,.18,1,3.6,3.6,0,0,1-.11.91,2.75,2.75,0,0,1-.35.76,3.62,3.62,0,0,1-.58.68,8.92,8.92,0,0,1-.83.67c-.39.28-.72.52-1,.72a4.34,4.34,0,0,0-.61.56,1.75,1.75,0,0,0-.32.52,1.89,1.89,0,0,0-.09.6h4.18v.86H56.87V207a3.38,3.38,0,0,1,.12-1,2.35,2.35,0,0,1,.38-.78,4.42,4.42,0,0,1,.71-.74c.29-.24.65-.52,1.07-.83a6.69,6.69,0,0,0,.76-.63,3.65,3.65,0,0,0,.5-.59,2.29,2.29,0,0,0,.26-.61A2.32,2.32,0,0,0,60.75,201.21Z" fill="#1e1e1e"/>
      <path d="M64,207.53a.63.63,0,0,1-.46-.19.66.66,0,0,1-.19-.46.68.68,0,0,1,.19-.47.63.63,0,0,1,.46-.19.63.63,0,0,1,.47.19.65.65,0,0,1,.2.47.67.67,0,0,1-.67.65Z" fill="#1e1e1e"/>
      <path d="M68.44,207.4h-1v-7.25a2.78,2.78,0,0,1-.32.25,5.5,5.5,0,0,1-.48.28,5,5,0,0,1-.57.27,4.76,4.76,0,0,1-.57.19v-1a6.12,6.12,0,0,0,.67-.24c.23-.1.47-.21.7-.33s.44-.25.64-.39a4.06,4.06,0,0,0,.53-.4h.36Z" fill="#1e1e1e"/>
      <path d="M76.05,204.74a3.15,3.15,0,0,1-.2,1.13,2.78,2.78,0,0,1-.55.89,2.58,2.58,0,0,1-.84.58,2.64,2.64,0,0,1-1.06.21,2.31,2.31,0,0,1-2-1,3.63,3.63,0,0,1-.53-1.21,6.61,6.61,0,0,1-.18-1.61,7.64,7.64,0,0,1,.24-2,4.9,4.9,0,0,1,.69-1.53,3.24,3.24,0,0,1,1.08-1,3,3,0,0,1,1.42-.35,3.37,3.37,0,0,1,1.39.24V200a3,3,0,0,0-1.37-.33,2,2,0,0,0-1,.25,2.38,2.38,0,0,0-.78.71,3.53,3.53,0,0,0-.49,1.11,5.44,5.44,0,0,0-.17,1.45h0a2,2,0,0,1,1.91-1,2.48,2.48,0,0,1,1,.19,2.09,2.09,0,0,1,.75.53,2.54,2.54,0,0,1,.49.81A3.23,3.23,0,0,1,76.05,204.74Zm-1,.12a2.48,2.48,0,0,0-.11-.79,1.73,1.73,0,0,0-.32-.6,1.34,1.34,0,0,0-.51-.37,1.67,1.67,0,0,0-.69-.14,1.59,1.59,0,0,0-.66.14,1.66,1.66,0,0,0-.53.36,1.73,1.73,0,0,0-.35.54,1.85,1.85,0,0,0-.13.66,2.64,2.64,0,0,0,.13.81,2.06,2.06,0,0,0,.34.66,1.86,1.86,0,0,0,.53.44,1.6,1.6,0,0,0,1.35,0,1.48,1.48,0,0,0,.51-.38,1.77,1.77,0,0,0,.33-.59A2.58,2.58,0,0,0,75.06,204.86Z" fill="#1e1e1e"/>
      <path d="M77.1,205.06a2.22,2.22,0,0,1,.1-.67,2.6,2.6,0,0,1,.3-.63,2.45,2.45,0,0,1,.49-.53,2.15,2.15,0,0,1,.66-.38,2.65,2.65,0,0,1-.87-.79,1.86,1.86,0,0,1-.32-1.05,2,2,0,0,1,.18-.86,2.08,2.08,0,0,1,.49-.68,2.34,2.34,0,0,1,.75-.45,2.85,2.85,0,0,1,.94-.16,2.62,2.62,0,0,1,.94.17,2.34,2.34,0,0,1,.75.45,2.1,2.1,0,0,1,.5.68,2.15,2.15,0,0,1,.17.85,1.86,1.86,0,0,1-.32,1.05,2.62,2.62,0,0,1-.86.79,2.1,2.1,0,0,1,.65.38,2.22,2.22,0,0,1,.49.53,2.6,2.6,0,0,1,.3.63,2.24,2.24,0,0,1,.11.67,2.56,2.56,0,0,1-.2,1,2.43,2.43,0,0,1-.56.78,2.55,2.55,0,0,1-.86.51,3.31,3.31,0,0,1-1.11.18,3.25,3.25,0,0,1-1.1-.18,2.65,2.65,0,0,1-.86-.51,2.29,2.29,0,0,1-.56-.78A2.4,2.4,0,0,1,77.1,205.06Zm1-.08a2,2,0,0,0,.12.71,1.5,1.5,0,0,0,.34.54,1.46,1.46,0,0,0,.53.34,1.94,1.94,0,0,0,.7.12,1.91,1.91,0,0,0,.68-.12,1.75,1.75,0,0,0,.53-.35,1.53,1.53,0,0,0,.35-.54,1.91,1.91,0,0,0,0-1.36,1.5,1.5,0,0,0-.34-.54,1.58,1.58,0,0,0-.54-.37,1.7,1.7,0,0,0-.69-.14,1.78,1.78,0,0,0-.67.13,1.54,1.54,0,0,0-.89.89A1.73,1.73,0,0,0,78.14,205Zm.3-3.9a1.3,1.3,0,0,0,.11.56,1.32,1.32,0,0,0,.3.44,1.23,1.23,0,0,0,.44.3,1.38,1.38,0,0,0,1.08,0,1.55,1.55,0,0,0,.44-.3,1.37,1.37,0,0,0,.3-.45,1.42,1.42,0,0,0,.11-.55,1.47,1.47,0,0,0-.11-.56,1.27,1.27,0,0,0-.74-.74,1.41,1.41,0,0,0-.54-.11,1.48,1.48,0,0,0-.57.11,1.55,1.55,0,0,0-.44.3,1.31,1.31,0,0,0-.28.45A1.45,1.45,0,0,0,78.44,201.08Z" fill="#1e1e1e"/>
      <path d="M84.44,207.53a.65.65,0,0,1-.65-.65.64.64,0,0,1,.19-.47.62.62,0,0,1,.46-.19.65.65,0,0,1,.66.66.62.62,0,0,1-.19.46A.64.64,0,0,1,84.44,207.53Z" fill="#1e1e1e"/>
      <path d="M90.5,201.21a1.76,1.76,0,0,0-.12-.68,1.24,1.24,0,0,0-.81-.76,2,2,0,0,0-.61-.09,2,2,0,0,0-.55.07,2.66,2.66,0,0,0-.53.21,3,3,0,0,0-.49.33,2.85,2.85,0,0,0-.44.41v-1a3,3,0,0,1,.9-.6,3.17,3.17,0,0,1,1.22-.21,2.93,2.93,0,0,1,1,.15,2.2,2.2,0,0,1,.76.44,1.93,1.93,0,0,1,.51.71,2.42,2.42,0,0,1,.18,1,3.6,3.6,0,0,1-.11.91,2.75,2.75,0,0,1-.35.76,3.62,3.62,0,0,1-.58.68,7.77,7.77,0,0,1-.83.67c-.39.28-.72.52-1,.72a4.34,4.34,0,0,0-.61.56,1.75,1.75,0,0,0-.32.52,1.89,1.89,0,0,0-.09.6h4.19v.86H86.62V207a3.38,3.38,0,0,1,.12-1,2.35,2.35,0,0,1,.38-.78,4.42,4.42,0,0,1,.71-.74c.29-.24.65-.52,1.07-.83a6.69,6.69,0,0,0,.76-.63,3.65,3.65,0,0,0,.5-.59,2.71,2.71,0,0,0,.27-.61A2.76,2.76,0,0,0,90.5,201.21Z" fill="#1e1e1e"/>
      <path d="M93.71,207.53a.6.6,0,0,1-.45-.19.63.63,0,0,1-.2-.46.65.65,0,0,1,.2-.47.6.6,0,0,1,.45-.19.63.63,0,0,1,.47.19.65.65,0,0,1,.2.47.67.67,0,0,1-.67.65Z" fill="#1e1e1e"/>
      <path d="M100.49,201.4l-2,3,2,3H99.34l-1.18-1.94c-.07-.12-.16-.27-.26-.46h0l-.27.46-1.2,1.94H95.29l2-2.94-2-3.06H96.5l1.16,2.06c.08.15.17.3.25.46h0l1.5-2.52Z" fill="#1e1e1e"/>
      <path d="M105.69,199l-4,9.8h-.9l4-9.8Z" fill="#1e1e1e"/>
      <path d="M110.13,201.21a1.76,1.76,0,0,0-.12-.68,1.37,1.37,0,0,0-.33-.48,1.35,1.35,0,0,0-.48-.28,2,2,0,0,0-.61-.09,2,2,0,0,0-.55.07,2.66,2.66,0,0,0-.53.21,3,3,0,0,0-.49.33,2.85,2.85,0,0,0-.44.41v-1a3,3,0,0,1,.9-.6,3.17,3.17,0,0,1,1.22-.21,2.93,2.93,0,0,1,1,.15,2.3,2.3,0,0,1,.76.44,2.19,2.19,0,0,1,.51.71,2.42,2.42,0,0,1,.18,1,3.6,3.6,0,0,1-.11.91,2.75,2.75,0,0,1-.35.76,3.62,3.62,0,0,1-.58.68,8.92,8.92,0,0,1-.83.67c-.39.28-.72.52-1,.72a4.34,4.34,0,0,0-.61.56,1.75,1.75,0,0,0-.32.52,1.89,1.89,0,0,0-.09.6h4.18v.86h-5.18V207a3.38,3.38,0,0,1,.12-1,2.35,2.35,0,0,1,.38-.78,4.42,4.42,0,0,1,.71-.74c.29-.24.65-.52,1.07-.83a6.69,6.69,0,0,0,.76-.63,3.65,3.65,0,0,0,.5-.59,2.29,2.29,0,0,0,.26-.61A2.32,2.32,0,0,0,110.13,201.21Z" fill="#1e1e1e"/>
      <path d="M116.81,199v5.55h1.08v.88h-1.08v2h-1v-2h-4v-.83c.37-.42.74-.86,1.12-1.33s.73-1,1.07-1.43.66-1,1-1.45a13.62,13.62,0,0,0,.74-1.39ZM113,204.55h2.86v-4.11c-.29.51-.57,1-.83,1.37s-.51.77-.75,1.09-.46.63-.67.9S113.19,204.31,113,204.55Z" fill="#1e1e1e"/>
    </g>
    <g>
      <path d="M25.43,33.07a4.89,4.89,0,0,1-2.32.49,3.74,3.74,0,0,1-2.87-1.15,4.26,4.26,0,0,1-1.08-3,4.48,4.48,0,0,1,1.22-3.26,4.08,4.08,0,0,1,3.07-1.24,4.75,4.75,0,0,1,2,.35v1a4.05,4.05,0,0,0-2-.5,3.06,3.06,0,0,0-2.35,1,3.62,3.62,0,0,0-.9,2.58A3.45,3.45,0,0,0,21,31.77a2.87,2.87,0,0,0,2.2.91,4.15,4.15,0,0,0,2.19-.56Z" fill="#1e1e1e"/>
      <path d="M31.64,33.42h-1v-1h0a2,2,0,0,1-1.85,1.09c-1.43,0-2.15-.85-2.15-2.55V27.42h1v3.44c0,1.26.48,1.89,1.45,1.89a1.48,1.48,0,0,0,1.16-.51,2,2,0,0,0,.45-1.36V27.42h1Z" fill="#1e1e1e"/>
      <path d="M33.16,33.21v-1a2.84,2.84,0,0,0,1.73.58c.85,0,1.27-.28,1.27-.84a.76.76,0,0,0-.11-.41,1,1,0,0,0-.29-.29,1.83,1.83,0,0,0-.44-.23l-.53-.22a5.16,5.16,0,0,1-.7-.32,2.21,2.21,0,0,1-.51-.36,1.52,1.52,0,0,1-.3-.46,1.57,1.57,0,0,1-.1-.6,1.42,1.42,0,0,1,.19-.75,1.7,1.7,0,0,1,.52-.55,2.71,2.71,0,0,1,.73-.33,3.59,3.59,0,0,1,2.25.16v1a2.71,2.71,0,0,0-1.53-.43,1.75,1.75,0,0,0-.48.06,1.15,1.15,0,0,0-.37.17.76.76,0,0,0-.24.27.67.67,0,0,0-.09.34.82.82,0,0,0,.09.4.9.9,0,0,0,.24.28,2.48,2.48,0,0,0,.4.22l.54.22a6.85,6.85,0,0,1,.71.31,2.82,2.82,0,0,1,.54.36,1.41,1.41,0,0,1,.34.47,1.51,1.51,0,0,1,.12.63,1.49,1.49,0,0,1-.19.77,1.74,1.74,0,0,1-.53.55,2.54,2.54,0,0,1-.75.32,3.82,3.82,0,0,1-.9.1A3.54,3.54,0,0,1,33.16,33.21Z" fill="#1e1e1e"/>
      <path d="M41.45,33.36a1.82,1.82,0,0,1-.9.19c-1,0-1.57-.58-1.57-1.76V28.24h-1v-.82h1V26l1-.31v1.77h1.51v.82H39.94v3.38a1.36,1.36,0,0,0,.2.86.8.8,0,0,0,.68.26,1,1,0,0,0,.63-.2Z" fill="#1e1e1e"/>
      <path d="M45.11,33.56A2.79,2.79,0,0,1,43,32.72a3.1,3.1,0,0,1-.79-2.23A3.21,3.21,0,0,1,43,28.13a3,3,0,0,1,2.23-.85,2.69,2.69,0,0,1,2.09.83,3.28,3.28,0,0,1,.76,2.29,3.19,3.19,0,0,1-.82,2.3A2.85,2.85,0,0,1,45.11,33.56Zm.07-5.47a1.84,1.84,0,0,0-1.47.63,2.59,2.59,0,0,0-.54,1.74,2.46,2.46,0,0,0,.55,1.68,1.85,1.85,0,0,0,1.46.61,1.75,1.75,0,0,0,1.43-.6,2.63,2.63,0,0,0,.5-1.72,2.68,2.68,0,0,0-.5-1.73A1.73,1.73,0,0,0,45.18,28.09Z" fill="#1e1e1e"/>
      <path d="M58.1,33.42h-1V30a2.61,2.61,0,0,0-.31-1.44,1.17,1.17,0,0,0-1-.45,1.27,1.27,0,0,0-1,.56A2.16,2.16,0,0,0,54.32,30v3.42h-1V29.86c0-1.18-.46-1.77-1.37-1.77a1.27,1.27,0,0,0-1,.53A2.14,2.14,0,0,0,50.54,30v3.42h-1v-6h1v.95h0a2.06,2.06,0,0,1,1.86-1.09,1.83,1.83,0,0,1,1.08.34,1.73,1.73,0,0,1,.62.9,2.16,2.16,0,0,1,2-1.24c1.32,0,2,.82,2,2.45Z" fill="#1e1e1e"/>
      <path d="M64.71,30.66H60.48A2.23,2.23,0,0,0,61,32.21a1.88,1.88,0,0,0,1.42.54,3,3,0,0,0,1.87-.66V33a3.53,3.53,0,0,1-2.1.57,2.53,2.53,0,0,1-2-.81,3.34,3.34,0,0,1-.73-2.3,3.29,3.29,0,0,1,.79-2.29,2.58,2.58,0,0,1,2-.88,2.28,2.28,0,0,1,1.82.76,3.19,3.19,0,0,1,.64,2.12Zm-1-.81a2,2,0,0,0-.4-1.3,1.37,1.37,0,0,0-1.1-.46,1.54,1.54,0,0,0-1.16.49,2.18,2.18,0,0,0-.58,1.27Z" fill="#1e1e1e"/>
      <path d="M69.29,28.4a1.14,1.14,0,0,0-.72-.2,1.24,1.24,0,0,0-1,.58,2.67,2.67,0,0,0-.41,1.58v3.06h-1v-6h1v1.24h0a2.17,2.17,0,0,1,.63-1,1.61,1.61,0,0,1,1.51-.27Z" fill="#1e1e1e"/>
      <path d="M76.89,33.42h-1V26.16a2,2,0,0,1-.32.26l-.48.28c-.18.1-.37.18-.57.27a4.76,4.76,0,0,1-.57.19v-1a6.12,6.12,0,0,0,.67-.24,7.48,7.48,0,0,0,.7-.34c.22-.12.44-.25.64-.38a5.2,5.2,0,0,0,.53-.4h.36Z" fill="#1e1e1e"/>
    </g>
    <g>
      <path d="M114.34,114l-3.11,8.4h-1.08L107.1,114h1.09l2.33,6.66a3.77,3.77,0,0,1,.17.75h0a4.09,4.09,0,0,1,.2-.76l2.37-6.65Z" fill="#1e1e1e"/>
      <path d="M122.32,122.4h-1.21l-4.32-6.69a2.94,2.94,0,0,1-.27-.53h0a9.28,9.28,0,0,1,0,1.15v6.07h-1V114h1.28l4.2,6.59c.18.28.29.47.34.57h0a8.84,8.84,0,0,1-.06-1.24V114h1Z" fill="#1e1e1e"/>
      <path d="M129.22,119.65H125a2.27,2.27,0,0,0,.54,1.54,1.84,1.84,0,0,0,1.42.55,3,3,0,0,0,1.86-.67v.9a3.5,3.5,0,0,1-2.09.58,2.56,2.56,0,0,1-2-.82,3.37,3.37,0,0,1-.72-2.3,3.25,3.25,0,0,1,.79-2.28,2.55,2.55,0,0,1,2-.89,2.24,2.24,0,0,1,1.82.77,3.15,3.15,0,0,1,.65,2.11Zm-1-.82a1.88,1.88,0,0,0-.4-1.29,1.36,1.36,0,0,0-1.1-.47,1.54,1.54,0,0,0-1.15.49,2.22,2.22,0,0,0-.59,1.27Z" fill="#1e1e1e"/>
      <path d="M133.45,122.35a1.87,1.87,0,0,1-.89.18c-1.05,0-1.58-.58-1.58-1.75v-3.55h-1v-.83h1v-1.46l1-.31v1.77h1.51v.83h-1.51v3.38a1.37,1.37,0,0,0,.21.86.81.81,0,0,0,.68.26,1,1,0,0,0,.62-.2Z" fill="#1e1e1e"/>
      <path d="M95.18,134.74h0v3.62h-1V129.6h1v1.06h0a2.28,2.28,0,0,1,2.08-1.2,2.2,2.2,0,0,1,1.81.81,3.37,3.37,0,0,1,.65,2.16,3.71,3.71,0,0,1-.74,2.41,2.43,2.43,0,0,1-2,.91A2,2,0,0,1,95.18,134.74Zm0-2.42v.84a1.8,1.8,0,0,0,.48,1.26,1.73,1.73,0,0,0,2.6-.15,3.09,3.09,0,0,0,.49-1.86,2.41,2.41,0,0,0-.46-1.57,1.54,1.54,0,0,0-1.26-.57,1.7,1.7,0,0,0-1.34.59A2.11,2.11,0,0,0,95.16,132.32Z" fill="#1e1e1e"/>
      <path d="M106.07,132.85h-4.23a2.18,2.18,0,0,0,.54,1.54,1.82,1.82,0,0,0,1.41.55,3,3,0,0,0,1.87-.67v.9a3.52,3.52,0,0,1-2.09.58,2.55,2.55,0,0,1-2-.82,3.33,3.33,0,0,1-.73-2.3,3.25,3.25,0,0,1,.8-2.28,2.52,2.52,0,0,1,2-.89,2.26,2.26,0,0,1,1.82.77,3.15,3.15,0,0,1,.64,2.11Zm-1-.82a1.93,1.93,0,0,0-.4-1.29,1.38,1.38,0,0,0-1.1-.47,1.6,1.6,0,0,0-1.16.49,2.21,2.21,0,0,0-.58,1.27Z" fill="#1e1e1e"/>
      <path d="M112.35,132.85h-4.24a2.27,2.27,0,0,0,.54,1.54,1.85,1.85,0,0,0,1.42.55,3,3,0,0,0,1.86-.67v.9a3.48,3.48,0,0,1-2.09.58,2.56,2.56,0,0,1-2-.82,3.37,3.37,0,0,1-.72-2.3,3.25,3.25,0,0,1,.79-2.28,2.55,2.55,0,0,1,2-.89,2.24,2.24,0,0,1,1.82.77,3.15,3.15,0,0,1,.65,2.11Zm-1-.82a1.88,1.88,0,0,0-.4-1.29,1.36,1.36,0,0,0-1.1-.47,1.57,1.57,0,0,0-1.15.49,2.22,2.22,0,0,0-.59,1.27Z" fill="#1e1e1e"/>
      <path d="M116.93,130.58a1.18,1.18,0,0,0-.73-.2,1.22,1.22,0,0,0-1,.58,2.68,2.68,0,0,0-.42,1.59v3h-1v-6h1v1.24h0a2.08,2.08,0,0,1,.62-1,1.47,1.47,0,0,1,1-.35,1.65,1.65,0,0,1,.57.08Z" fill="#1e1e1e"/>
      <path d="M118.47,128.08a.62.62,0,0,1-.44-.17.65.65,0,0,1,0-.9.59.59,0,0,1,.44-.18.6.6,0,0,1,.44.18.58.58,0,0,1,.19.45.58.58,0,0,1-.19.44A.6.6,0,0,1,118.47,128.08Zm.46,7.52h-1v-6h1Z" fill="#1e1e1e"/>
      <path d="M125.86,135.6h-1v-3.42c0-1.27-.47-1.91-1.39-1.91a1.52,1.52,0,0,0-1.2.54,2.05,2.05,0,0,0-.47,1.37v3.42h-1v-6h1v1h0a2.17,2.17,0,0,1,2-1.14,1.86,1.86,0,0,1,1.51.64,2.82,2.82,0,0,1,.52,1.84Z" fill="#1e1e1e"/>
      <path d="M132.79,135.12q0,3.31-3.16,3.31a4.31,4.31,0,0,1-1.95-.42v-1a4.06,4.06,0,0,0,1.94.56c1.47,0,2.21-.79,2.21-2.36v-.65h0a2.43,2.43,0,0,1-3.87.35,3.24,3.24,0,0,1-.68-2.15,3.73,3.73,0,0,1,.74-2.43,2.46,2.46,0,0,1,2-.91,2,2,0,0,1,1.8,1h0v-.84h1Zm-1-2.23V132a1.73,1.73,0,0,0-.48-1.23,1.6,1.6,0,0,0-1.21-.51,1.68,1.68,0,0,0-1.39.65,2.86,2.86,0,0,0-.5,1.81,2.51,2.51,0,0,0,.48,1.61,1.56,1.56,0,0,0,1.28.6,1.63,1.63,0,0,0,1.31-.58A2.12,2.12,0,0,0,131.83,132.89Z" fill="#1e1e1e"/>
    </g>
    <g>
      <path d="M56.09,182.4H51.64V174h4.27v.89H52.63v2.8h3v.88h-3v2.94h3.46Z" fill="#1e1e1e"/>
      <path d="M63.53,182.4H62.36L61,180.05a4.9,4.9,0,0,0-.38-.56,2.23,2.23,0,0,0-.37-.38,1.23,1.23,0,0,0-.41-.21,1.55,1.55,0,0,0-.5-.07h-.81v3.57h-1V174H60a3.57,3.57,0,0,1,1,.14,2.15,2.15,0,0,1,.81.42,2,2,0,0,1,.54.7,2.32,2.32,0,0,1,.19,1,2.37,2.37,0,0,1-.13.81,2.2,2.2,0,0,1-.37.65,2.57,2.57,0,0,1-.59.49,3.1,3.1,0,0,1-.77.31v0a1.88,1.88,0,0,1,.37.21,1.9,1.9,0,0,1,.29.28,2.88,2.88,0,0,1,.28.38l.31.48Zm-5-7.51v3.05h1.34a2.11,2.11,0,0,0,.68-.11,1.77,1.77,0,0,0,.55-.32,1.41,1.41,0,0,0,.35-.51,1.65,1.65,0,0,0,.13-.68,1.28,1.28,0,0,0-.44-1,1.88,1.88,0,0,0-1.26-.38Z" fill="#1e1e1e"/>
      <path d="M74.26,181.83a5.64,5.64,0,0,1-2.82.72,3.86,3.86,0,0,1-2.91-1.16,4.28,4.28,0,0,1-1.11-3.08,4.39,4.39,0,0,1,1.24-3.2,4.2,4.2,0,0,1,3.12-1.25,5.28,5.28,0,0,1,2.31.45v1.09a4.44,4.44,0,0,0-2.42-.65,3,3,0,0,0-2.31,1,4.08,4.08,0,0,0-.07,5,2.94,2.94,0,0,0,2.28.91,3.53,3.53,0,0,0,1.7-.39v-2.36H71.43V178h2.83Z" fill="#1e1e1e"/>
      <path d="M80.34,182.4h-1v-.93h0a2,2,0,0,1-1.84,1.08,1.93,1.93,0,0,1-1.4-.48,1.65,1.65,0,0,1-.51-1.26c0-1.12.66-1.77,2-2l1.8-.25c0-1-.41-1.53-1.24-1.53a3,3,0,0,0-2,.74v-1a3.68,3.68,0,0,1,2-.57c1.41,0,2.12.75,2.12,2.24Zm-1-3-1.45.2a2.35,2.35,0,0,0-1,.33,1,1,0,0,0-.34.84.93.93,0,0,0,.32.72,1.22,1.22,0,0,0,.83.28,1.55,1.55,0,0,0,1.18-.5,1.81,1.81,0,0,0,.47-1.27Z" fill="#1e1e1e"/>
      <path d="M84.86,182.35a2,2,0,0,1-.9.18c-1,0-1.58-.58-1.58-1.75v-3.55h-1v-.83h1v-1.46l1-.31v1.77h1.51v.83H83.35v3.38a1.38,1.38,0,0,0,.2.86.83.83,0,0,0,.68.26,1.05,1.05,0,0,0,.63-.2Z" fill="#1e1e1e"/>
      <path d="M90.86,179.65H86.62a2.27,2.27,0,0,0,.54,1.54,1.85,1.85,0,0,0,1.42.55,3,3,0,0,0,1.86-.67v.9a3.48,3.48,0,0,1-2.09.58,2.56,2.56,0,0,1-2-.82,3.37,3.37,0,0,1-.72-2.3,3.25,3.25,0,0,1,.79-2.28,2.55,2.55,0,0,1,2-.89,2.26,2.26,0,0,1,1.83.77,3.2,3.2,0,0,1,.64,2.11Zm-1-.82a1.93,1.93,0,0,0-.41-1.29,1.36,1.36,0,0,0-1.09-.47,1.54,1.54,0,0,0-1.16.49,2.15,2.15,0,0,0-.58,1.27Z" fill="#1e1e1e"/>
      <path d="M99.85,176.4l-1.8,6h-1l-1.23-4.29a2.81,2.81,0,0,1-.1-.56h0a2.51,2.51,0,0,1-.12.55l-1.35,4.3h-1l-1.81-6h1l1.24,4.52a2.84,2.84,0,0,1,.08.54h0a2.37,2.37,0,0,1,.1-.56l1.38-4.5h.88l1.25,4.53a4.55,4.55,0,0,1,.08.54h0a2.5,2.5,0,0,1,.1-.54l1.22-4.53Z" fill="#1e1e1e"/>
      <path d="M105.15,182.4h-1v-.93h0a2,2,0,0,1-1.84,1.08,1.93,1.93,0,0,1-1.4-.48,1.65,1.65,0,0,1-.51-1.26c0-1.12.66-1.77,2-2l1.8-.25c0-1-.41-1.53-1.24-1.53a3,3,0,0,0-2,.74v-1a3.68,3.68,0,0,1,2-.57c1.41,0,2.12.75,2.12,2.24Zm-1-3-1.45.2a2.35,2.35,0,0,0-1,.33,1,1,0,0,0-.34.84.93.93,0,0,0,.32.72,1.22,1.22,0,0,0,.83.28,1.55,1.55,0,0,0,1.18-.5,1.81,1.81,0,0,0,.47-1.27Z" fill="#1e1e1e"/>
      <path d="M111.6,176.4l-2.76,7c-.49,1.24-1.19,1.86-2.08,1.86a2.17,2.17,0,0,1-.62-.08v-.86a1.74,1.74,0,0,0,.57.11,1.19,1.19,0,0,0,1.09-.87l.48-1.14-2.35-6H107l1.62,4.62c0,.06.06.21.12.46h0q0-.14.12-.45l1.7-4.63Z" fill="#1e1e1e"/>
    </g>
    <g>
      <path d="M29.47,117.08v-1.16a2.86,2.86,0,0,0,.48.32,5.19,5.19,0,0,0,.59.24,4.29,4.29,0,0,0,.62.14,2.91,2.91,0,0,0,.57.06,2.31,2.31,0,0,0,1.36-.34,1.15,1.15,0,0,0,.44-1,1.13,1.13,0,0,0-.15-.59,1.47,1.47,0,0,0-.41-.46,3.91,3.91,0,0,0-.62-.4l-.78-.4c-.29-.15-.57-.3-.82-.45a3.4,3.4,0,0,1-.66-.51,1.9,1.9,0,0,1-.44-.62,1.88,1.88,0,0,1-.16-.82,1.93,1.93,0,0,1,.25-1,2.32,2.32,0,0,1,.66-.7,3,3,0,0,1,.93-.41,4.29,4.29,0,0,1,1.07-.13,4.08,4.08,0,0,1,1.81.3v1.1a3.29,3.29,0,0,0-1.91-.51,2.79,2.79,0,0,0-.64.07,1.56,1.56,0,0,0-.58.22,1.38,1.38,0,0,0-.41.39,1.06,1.06,0,0,0-.15.58,1.19,1.19,0,0,0,.12.56A1.28,1.28,0,0,0,31,112a3.75,3.75,0,0,0,.57.37c.23.13.49.26.78.4s.58.31.85.47a4,4,0,0,1,.71.55,2.36,2.36,0,0,1,.49.66,1.84,1.84,0,0,1,.18.83,2.15,2.15,0,0,1-.25,1,2,2,0,0,1-.65.7,2.94,2.94,0,0,1-1,.39,5.15,5.15,0,0,1-1.13.12l-.5,0-.59-.09a4.43,4.43,0,0,1-.58-.16A1.65,1.65,0,0,1,29.47,117.08Z" fill="#1e1e1e"/>
      <path d="M37.1,116.55h0v3.63h-1v-8.76h1v1.06h0a2.26,2.26,0,0,1,2.07-1.2,2.19,2.19,0,0,1,1.81.81,3.33,3.33,0,0,1,.65,2.16,3.72,3.72,0,0,1-.73,2.41,2.45,2.45,0,0,1-2,.9A2,2,0,0,1,37.1,116.55Zm0-2.42V115a1.73,1.73,0,0,0,.49,1.26,1.58,1.58,0,0,0,1.22.52,1.61,1.61,0,0,0,1.37-.66,3.09,3.09,0,0,0,.5-1.86,2.41,2.41,0,0,0-.47-1.57,1.51,1.51,0,0,0-1.25-.57,1.7,1.7,0,0,0-1.35.58A2.15,2.15,0,0,0,37.07,114.13Z" fill="#1e1e1e"/>
      <path d="M45.67,117.56a2.79,2.79,0,0,1-2.12-.84,3.1,3.1,0,0,1-.79-2.23,3.24,3.24,0,0,1,.82-2.36,3,3,0,0,1,2.24-.85,2.69,2.69,0,0,1,2.09.83,3.77,3.77,0,0,1-.06,4.59A2.87,2.87,0,0,1,45.67,117.56Zm.07-5.47a1.83,1.83,0,0,0-1.46.63,2.59,2.59,0,0,0-.54,1.74,2.41,2.41,0,0,0,.55,1.68,1.84,1.84,0,0,0,1.45.61,1.77,1.77,0,0,0,1.44-.6,2.63,2.63,0,0,0,.5-1.72,2.66,2.66,0,0,0-.5-1.73A1.75,1.75,0,0,0,45.74,112.09Z" fill="#1e1e1e"/>
      <path d="M55.18,117.42H53.83l-2.65-2.88h0v2.88h-1v-8.88h1v5.63h0l2.52-2.75H55l-2.78,2.9Z" fill="#1e1e1e"/>
      <path d="M61,114.66H56.75a2.19,2.19,0,0,0,.54,1.55,1.85,1.85,0,0,0,1.42.54,3,3,0,0,0,1.86-.66v.9a3.52,3.52,0,0,1-2.09.57,2.52,2.52,0,0,1-2-.82,3.81,3.81,0,0,1,.07-4.58,2.53,2.53,0,0,1,2-.88,2.25,2.25,0,0,1,1.82.76,3.2,3.2,0,0,1,.65,2.12Zm-1-.81a2,2,0,0,0-.4-1.3,1.36,1.36,0,0,0-1.1-.46,1.52,1.52,0,0,0-1.15.49,2.13,2.13,0,0,0-.59,1.27Z" fill="#1e1e1e"/>
    </g>
    <g>
      <path d="M36.18,150.42h-1v-3.83H30.85v3.83h-1V142h1v3.68H35.2V142h1Z" fill="#1e1e1e"/>
      <path d="M43.11,150.42h-1v-.95h0a2,2,0,0,1-1.85,1.09c-1.43,0-2.14-.85-2.14-2.55v-3.59h.95v3.43c0,1.27.49,1.9,1.46,1.9a1.45,1.45,0,0,0,1.15-.52,1.92,1.92,0,0,0,.46-1.35v-3.46h1Z" fill="#1e1e1e"/>
      <path d="M46,149.55h0v.87h-1v-8.88h1v3.94h0a2.28,2.28,0,0,1,2.08-1.2,2.17,2.17,0,0,1,1.8.81,3.28,3.28,0,0,1,.66,2.16,3.73,3.73,0,0,1-.74,2.41,2.42,2.42,0,0,1-2,.9A2,2,0,0,1,46,149.55Zm0-2.42V148a1.77,1.77,0,0,0,.48,1.26,1.59,1.59,0,0,0,1.23.52,1.62,1.62,0,0,0,1.37-.66,3.09,3.09,0,0,0,.49-1.86,2.41,2.41,0,0,0-.46-1.57,1.53,1.53,0,0,0-1.25-.57,1.7,1.7,0,0,0-1.35.58A2.15,2.15,0,0,0,46,147.13Z" fill="#1e1e1e"/>
    </g>
    <g>
      <path d="M165.21,181.07h-4.46v-8.4H165v.89h-3.28v2.79h3v.89h-3v2.94h3.47Z" fill="#1e1e1e"/>
      <path d="M171.08,175.07l-2,3,2,3h-1.12l-1.17-1.94-.27-.46h0l-.28.46-1.2,1.94h-1.11l2-2.94-2-3.06h1.12l1.16,2.05c.09.15.17.31.25.47h0l1.5-2.52Z" fill="#1e1e1e"/>
      <path d="M173.19,180.2h0v3.63h-1v-8.76h1v1.06h0a2.26,2.26,0,0,1,2.07-1.2,2.18,2.18,0,0,1,1.81.81,3.27,3.27,0,0,1,.65,2.15,3.73,3.73,0,0,1-.73,2.42,2.45,2.45,0,0,1-2,.9A2,2,0,0,1,173.19,180.2Zm0-2.42v.84a1.78,1.78,0,0,0,.49,1.26,1.71,1.71,0,0,0,2.59-.15,3,3,0,0,0,.5-1.85,2.47,2.47,0,0,0-.46-1.57,1.54,1.54,0,0,0-1.26-.57,1.7,1.7,0,0,0-1.35.58A2.15,2.15,0,0,0,173.16,177.78Z" fill="#1e1e1e"/>
      <path d="M182.39,176a1.18,1.18,0,0,0-.73-.19,1.23,1.23,0,0,0-1,.58,2.72,2.72,0,0,0-.41,1.58v3.06h-1v-6h1v1.24h0a2.12,2.12,0,0,1,.63-1,1.4,1.4,0,0,1,.94-.36,1.5,1.5,0,0,1,.58.09Z" fill="#1e1e1e"/>
      <path d="M188.25,178.31H184a2.25,2.25,0,0,0,.53,1.55,1.88,1.88,0,0,0,1.42.54,2.94,2.94,0,0,0,1.87-.67v.91a3.53,3.53,0,0,1-2.1.57,2.51,2.51,0,0,1-2-.82,3.83,3.83,0,0,1,.06-4.58,2.55,2.55,0,0,1,2-.88,2.25,2.25,0,0,1,1.82.76,3.18,3.18,0,0,1,.64,2.12Zm-1-.81a2,2,0,0,0-.4-1.3,1.37,1.37,0,0,0-1.1-.46,1.57,1.57,0,0,0-1.16.48,2.24,2.24,0,0,0-.58,1.28Z" fill="#1e1e1e"/>
      <path d="M189.34,180.85v-1a2.84,2.84,0,0,0,1.73.58c.84,0,1.27-.28,1.27-.84a.76.76,0,0,0-.11-.41.93.93,0,0,0-.3-.29,1.94,1.94,0,0,0-.43-.24l-.54-.21c-.26-.11-.49-.21-.7-.32a2.47,2.47,0,0,1-.5-.36,1.35,1.35,0,0,1-.3-.46,1.62,1.62,0,0,1-.11-.61,1.39,1.39,0,0,1,.2-.74,1.78,1.78,0,0,1,.51-.55,2.77,2.77,0,0,1,.74-.33,3.56,3.56,0,0,1,2.24.16v1a2.68,2.68,0,0,0-1.52-.43,1.75,1.75,0,0,0-.48.06,1.33,1.33,0,0,0-.38.17,1,1,0,0,0-.24.27.77.77,0,0,0-.08.34.87.87,0,0,0,.08.39,1,1,0,0,0,.25.29,2.11,2.11,0,0,0,.4.22l.53.22a6.21,6.21,0,0,1,.72.31,2.82,2.82,0,0,1,.54.36,1.41,1.41,0,0,1,.34.47,1.46,1.46,0,0,1,.12.62,1.51,1.51,0,0,1-.2.78,1.58,1.58,0,0,1-.52.54,2.28,2.28,0,0,1-.76.33,3.68,3.68,0,0,1-.89.1A3.39,3.39,0,0,1,189.34,180.85Z" fill="#1e1e1e"/>
      <path d="M194.43,180.85v-1a2.84,2.84,0,0,0,1.73.58c.85,0,1.27-.28,1.27-.84a.76.76,0,0,0-.11-.41,1,1,0,0,0-.29-.29,2.28,2.28,0,0,0-.44-.24l-.53-.21a6.76,6.76,0,0,1-.7-.32,2.55,2.55,0,0,1-.51-.36,1.52,1.52,0,0,1-.3-.46,1.63,1.63,0,0,1-.1-.61,1.38,1.38,0,0,1,.19-.74,1.78,1.78,0,0,1,.51-.55,2.77,2.77,0,0,1,.74-.33,3.41,3.41,0,0,1,.85-.11,3.46,3.46,0,0,1,1.4.27v1a2.71,2.71,0,0,0-1.53-.43,1.75,1.75,0,0,0-.48.06,1.33,1.33,0,0,0-.38.17,1,1,0,0,0-.24.27.77.77,0,0,0-.08.34.87.87,0,0,0,.08.39,1,1,0,0,0,.25.29,2.48,2.48,0,0,0,.4.22l.54.22a6.85,6.85,0,0,1,.71.31,2.82,2.82,0,0,1,.54.36,1.41,1.41,0,0,1,.34.47,1.46,1.46,0,0,1,.12.62,1.5,1.5,0,0,1-.19.78,1.71,1.71,0,0,1-.53.54,2.32,2.32,0,0,1-.75.33,3.82,3.82,0,0,1-.9.1A3.41,3.41,0,0,1,194.43,180.85Z" fill="#1e1e1e"/>
      <path d="M206,181.07h-1.17l-1.41-2.36a5.8,5.8,0,0,0-.37-.55,2.24,2.24,0,0,0-.37-.38,1.49,1.49,0,0,0-.41-.22,2,2,0,0,0-.5-.06H201v3.57h-1v-8.4h2.51a3.29,3.29,0,0,1,1,.14,2.38,2.38,0,0,1,.81.41,2.06,2.06,0,0,1,.54.7,2.33,2.33,0,0,1,.19,1,2.28,2.28,0,0,1-.13.8,2.07,2.07,0,0,1-.38.66,2.1,2.1,0,0,1-.58.48,3.12,3.12,0,0,1-.77.32v0a2.06,2.06,0,0,1,.66.5,4,4,0,0,1,.28.37l.3.48Zm-5-7.51v3.05h1.34a1.91,1.91,0,0,0,.68-.12,1.46,1.46,0,0,0,.54-.32,1.43,1.43,0,0,0,.36-.5,1.68,1.68,0,0,0,.13-.68,1.32,1.32,0,0,0-.44-1.05,1.83,1.83,0,0,0-1.26-.38Z" fill="#1e1e1e"/>
      <path d="M209.22,181.21a2.79,2.79,0,0,1-2.12-.84,3.11,3.11,0,0,1-.8-2.23,3.25,3.25,0,0,1,.83-2.36,3,3,0,0,1,2.23-.85,2.7,2.7,0,0,1,2.1.83,3.77,3.77,0,0,1-.06,4.59A2.87,2.87,0,0,1,209.22,181.21Zm.07-5.47a1.83,1.83,0,0,0-1.46.63,2.59,2.59,0,0,0-.54,1.74,2.46,2.46,0,0,0,.54,1.68,1.86,1.86,0,0,0,1.46.61,1.79,1.79,0,0,0,1.44-.6,3.23,3.23,0,0,0,0-3.45A1.76,1.76,0,0,0,209.29,175.74Z" fill="#1e1e1e"/>
      <path d="M218.6,181.07h-1v-.95h0a2,2,0,0,1-1.85,1.09c-1.43,0-2.14-.85-2.14-2.55v-3.59h.95v3.43c0,1.27.49,1.9,1.46,1.9a1.45,1.45,0,0,0,1.15-.52,1.92,1.92,0,0,0,.46-1.35v-3.46h1Z" fill="#1e1e1e"/>
      <path d="M223.32,181a1.82,1.82,0,0,1-.9.19c-1,0-1.57-.59-1.57-1.76v-3.55h-1v-.82h1v-1.46l1-.32v1.78h1.51v.82h-1.51v3.38a1.45,1.45,0,0,0,.2.86.84.84,0,0,0,.68.26,1,1,0,0,0,.63-.2Z" fill="#1e1e1e"/>
      <path d="M229.43,178.31h-4.24a2.21,2.21,0,0,0,.54,1.55,1.85,1.85,0,0,0,1.42.54,2.93,2.93,0,0,0,1.86-.67v.91a3.5,3.5,0,0,1-2.09.57,2.52,2.52,0,0,1-2-.82,3.36,3.36,0,0,1-.73-2.3,3.29,3.29,0,0,1,.8-2.28,2.53,2.53,0,0,1,2-.88,2.25,2.25,0,0,1,1.82.76,3.18,3.18,0,0,1,.65,2.12Zm-1-.81a2,2,0,0,0-.4-1.3,1.36,1.36,0,0,0-1.1-.46,1.55,1.55,0,0,0-1.15.48,2.25,2.25,0,0,0-.59,1.28Z" fill="#1e1e1e"/>
    </g>
  </g>
</svg>
