<svg xmlns="http://www.w3.org/2000/svg" xmlns:xlink="http://www.w3.org/1999/xlink" viewBox="0 0 358.49 98">
  <defs>
    <linearGradient id="linear-gradient" x1="52.67" y1="584.33" x2="52.67" y2="624.33" gradientTransform="matrix(1, 0, 0, -1, 0, 627.33)" gradientUnits="userSpaceOnUse">
      <stop offset="0" stop-color="#0078d4"/>
      <stop offset="0.82" stop-color="#5ea0ef"/>
    </linearGradient>
    <linearGradient id="linear-gradient-2" x1="184.57" y1="584.33" x2="184.57" y2="612.9" gradientTransform="matrix(1, 0, 0, -1, 0, 627.33)" gradientUnits="userSpaceOnUse">
      <stop offset="0" stop-color="#0078d4"/>
      <stop offset="0.16" stop-color="#1380da"/>
      <stop offset="0.53" stop-color="#3c91e5"/>
      <stop offset="0.82" stop-color="#559cec"/>
      <stop offset="1" stop-color="#5ea0ef"/>
    </linearGradient>
    <linearGradient id="linear-gradient-3" x1="321.51" y1="590.78" x2="321.51" y2="615.27" xlink:href="#linear-gradient"/>
    <linearGradient id="linear-gradient-4" x1="321.52" y1="581.33" x2="321.52" y2="590.78" gradientTransform="matrix(1, 0, 0, -1, 0, 627.33)" gradientUnits="userSpaceOnUse">
      <stop offset="0.15" stop-color="#ccc"/>
      <stop offset="1" stop-color="#707070"/>
    </linearGradient>
    <radialGradient id="radial-gradient" cx="28.78" cy="56" r="9" gradientUnits="userSpaceOnUse">
      <stop offset="0.45" stop-color="#0078d4"/>
      <stop offset="0.81" stop-color="#0063af"/>
      <stop offset="1" stop-color="#005ba1"/>
    </radialGradient>
    <radialGradient id="radial-gradient-2" cx="156.78" xlink:href="#radial-gradient"/>
    <radialGradient id="radial-gradient-3" cx="293.78" xlink:href="#radial-gradient"/>
  </defs>
  <g id="Shapes">
    <rect width="358.49" height="98" fill="#fff"/>
    <g id="fd3ce364-0de3-4a49-9ae3-702f411d286b">
      <g>
        <g>
          <path d="M55.05,3.29H37.91a1.36,1.36,0,0,0-1.36,1.36v36.7a1.36,1.36,0,0,0,1.36,1.36H67.42a1.36,1.36,0,0,0,1.36-1.36V17.06a1.35,1.35,0,0,0-1.36-1.35h-9.8a1.34,1.34,0,0,1-1.33-1.34h0V4.65A1.33,1.33,0,0,0,55.05,3.29Z" fill="#fff"/>
          <path d="M54.31,5v9.23a3.38,3.38,0,0,0,3.39,3.38H67V41H38.36V5h16m.72-2H37.7a1.36,1.36,0,0,0-1.39,1.33V41.64A1.36,1.36,0,0,0,37.67,43h30A1.36,1.36,0,0,0,69,41.67V17a1.36,1.36,0,0,0-1.36-1.36h-10a1.36,1.36,0,0,1-1.36-1.36V4.36A1.37,1.37,0,0,0,55.05,3Z" fill="url(#linear-gradient)"/>
          <path d="M68.49,15.85,55.86,3.29V13.46a2.39,2.39,0,0,0,2.38,2.39Z" fill="#0078d4"/>
        </g>
        <path d="M62.82,21.78H47.9a1,1,0,1,0,0,2h15a1,1,0,0,0,0-2Zm0,5.82H47.9a1,1,0,0,0-.31,1.93.81.81,0,0,0,.31,0h15A1,1,0,0,0,64,28.72a1,1,0,0,0-.81-1.12.76.76,0,0,0-.3,0Zm0,5.84H47.9a1,1,0,1,0,0,2h15a1,1,0,0,0,0-2h-.1Z" fill="#83b9f9"/>
        <path d="M42.63,24.72V21.57a1.44,1.44,0,0,1-.45.17l-.53.14v-1a5.94,5.94,0,0,0,.74-.28,2.92,2.92,0,0,0,.74-.34h.76v4.44Zm-.93,6.19v-.35a2.15,2.15,0,0,1,0-.62c.08-.18.17-.36.26-.53a4.92,4.92,0,0,1,.67-.62,2,2,0,0,0,.5-.4.24.24,0,0,1,.17-.22.39.39,0,0,0,0-.26c0-.31-.17-.45-.53-.45a1.59,1.59,0,0,0-1,.4V26.79a2.28,2.28,0,0,1,.67-.26,2.43,2.43,0,0,1,.66,0,1.62,1.62,0,0,1,1.1.36,1.2,1.2,0,0,1,.4.93,1.78,1.78,0,0,1-.21.81,2.83,2.83,0,0,1-.76.66l-.48.29a.42.42,0,0,0-.14.24h1.74v1Zm3,5a1.08,1.08,0,0,1-.46,1,2.16,2.16,0,0,1-1.26.36,3.21,3.21,0,0,1-.62,0L41.77,37V36a1.21,1.21,0,0,0,.45.16,1.57,1.57,0,0,0,.53,0,1.4,1.4,0,0,0,.5,0,.5.5,0,0,0,.17-.31.37.37,0,0,0-.29-.36,2.21,2.21,0,0,0-.57-.11h-.34v-.93h.36a.73.73,0,0,0,.55-.15A.29.29,0,0,0,43.3,34v-.26s-.22,0-.41,0a1.86,1.86,0,0,0-.83.24V33a2.93,2.93,0,0,1,1.09-.24,2,2,0,0,1,1.17.31.91.91,0,0,1,.38.81,1.07,1.07,0,0,1-.21.67,1.09,1.09,0,0,1-.62.36.94.94,0,0,1,.71.36A1.32,1.32,0,0,1,44.66,35.87Z" fill="#0078d4"/>
      </g>
    </g>
    <g>
      <line x1="77.78" y1="31" x2="157.4" y2="31" fill="none" stroke="#3c3c41" stroke-miterlimit="10"/>
      <polygon points="156.31 34.74 162.78 31 156.31 27.26 156.31 34.74" fill="#3c3c41"/>
    </g>
    <g>
      <line x1="211.78" y1="31" x2="291.4" y2="31" fill="none" stroke="#3c3c41" stroke-miterlimit="10"/>
      <polygon points="290.31 34.74 296.78 31 290.31 27.26 290.31 34.74" fill="#3c3c41"/>
    </g>
    <g>
      <path d="M180.28,34.43h8.57V43h-8.57ZM170.28,23h8.57V14.43h-7.37a1.19,1.19,0,0,0-1.2,1.19Zm1.2,20h7.37V34.43h-8.57V41.8a1.2,1.2,0,0,0,1.2,1.2Zm-1.2-10h8.57V24.43h-8.57Zm20,10h7.38a1.19,1.19,0,0,0,1.19-1.2h0V34.43h-8.57Zm-10-10h8.57V24.43h-8.57Zm10,0h8.57V24.43h-8.57Zm0-18.57V23h8.57V15.62a1.19,1.19,0,0,0-1.19-1.19h-7.38Zm-10,8.57h8.57V14.43h-8.57Z" fill="url(#linear-gradient-2)"/>
      <g>
        <circle cx="202.19" cy="15.86" r="12.86" fill="#76bc2d"/>
        <path d="M194.51,13.88a8.2,8.2,0,0,0-.24,3,8.09,8.09,0,0,0,1.09,3,7.63,7.63,0,0,0,1.47,1.83,9.24,9.24,0,0,0,1.85,1.31,11.45,11.45,0,0,0,2.2.76,8.13,8.13,0,0,0,2.31,0L203,21.65a.43.43,0,0,0-.43-.43h-1.18a6,6,0,0,1-1.47-.52,7,7,0,0,1-1.28-.73,4.58,4.58,0,0,1-1-1.22,5,5,0,0,1-.73-2,5.61,5.61,0,0,1,0-2.16l.76,1.28a.46.46,0,0,0,.61.15l.94-.55a.45.45,0,0,0,.15-.61l-2.55-4.33a.5.5,0,0,0-.64-.15l-4.3,2.56a.44.44,0,0,0,0,.61h0l.52.92a.45.45,0,0,0,.61.19h0Z" fill="#fff"/>
        <path d="M203.5,10.46A8.46,8.46,0,0,1,205,11a6.39,6.39,0,0,1,1.28.92,4.94,4.94,0,0,1,1,1.22,5.62,5.62,0,0,1,.7,2,6,6,0,0,1,0,2.16L207.18,16a.44.44,0,0,0-.6-.18l-.92.55a.44.44,0,0,0-.16.62v0L208,21.34a.48.48,0,0,0,.64.18L213,19a.44.44,0,0,0,.2-.61v0l-.55-.91a.49.49,0,0,0-.64-.15l-1.5.88a8,8,0,0,0,.25-3.29,8.9,8.9,0,0,0-1.07-3,9.06,9.06,0,0,0-1.46-1.8A8.51,8.51,0,0,0,204,7.78a8.26,8.26,0,0,0-1.86,0,.43.43,0,0,0-.4.46V10a.45.45,0,0,0,.43.39A10,10,0,0,1,203.5,10.46Z" fill="#fff"/>
      </g>
    </g>
    <g>
      <rect x="333.44" width="3.61" height="0.49" rx="0.23" fill="#f2f2f2"/>
      <g>
        <rect x="303.14" y="12.05" width="36.73" height="24.5" rx="1.23" fill="url(#linear-gradient-3)"/>
        <path d="M328.89,44c-3.64-.57-3.77-3.2-3.77-7.41h-7.2c0,4.21-.13,6.84-3.77,7.41a2.19,2.19,0,0,0-1.82,2h18.38A2.19,2.19,0,0,0,328.89,44Z" fill="url(#linear-gradient-4)"/>
      </g>
      <polygon points="329.82 22.98 320.72 14.14 324.28 10.48 329.82 15.86 339.87 6.1 343.42 9.76 329.82 22.98" fill="#89c402"/>
    </g>
    <g>
      <circle cx="28.78" cy="56" r="9" fill="url(#radial-gradient)"/>
      <path d="M30,51.71V60.3H28.61V53.38a4.33,4.33,0,0,1-.79.44,5.5,5.5,0,0,1-1,.33V53c.23-.08.44-.15.66-.24s.41-.17.62-.27l.62-.34c.21-.13.43-.27.65-.43Z" fill="#fff"/>
    </g>
    <g>
      <circle cx="156.78" cy="56" r="9" fill="url(#radial-gradient-2)"/>
      <path d="M159.3,60.3H154v-.65a2.35,2.35,0,0,1,.11-.75,2.56,2.56,0,0,1,.3-.65,3.06,3.06,0,0,1,.44-.58,6.62,6.62,0,0,1,.53-.53l.59-.49.59-.48c.18-.15.34-.3.49-.45a3.13,3.13,0,0,0,.38-.45,2,2,0,0,0,.25-.5,2,2,0,0,0,.08-.56,1.52,1.52,0,0,0-.1-.59A1.18,1.18,0,0,0,157,53a1.63,1.63,0,0,0-.55-.09,2.51,2.51,0,0,0-1,.24,3.57,3.57,0,0,0-1,.72v-1.3a3.85,3.85,0,0,1,.52-.34,3,3,0,0,1,.55-.24,2.82,2.82,0,0,1,.59-.14,3.53,3.53,0,0,1,.66-.05,3.28,3.28,0,0,1,1,.15,2.14,2.14,0,0,1,.8.44,2,2,0,0,1,.5.72,2.59,2.59,0,0,1,.18,1A2.86,2.86,0,0,1,159,55a2.78,2.78,0,0,1-.35.76,3.91,3.91,0,0,1-.56.67c-.22.21-.47.43-.73.65l-.68.54a6.57,6.57,0,0,0-.61.51,2.69,2.69,0,0,0-.43.49.87.87,0,0,0-.17.51v0h3.79Z" fill="#fff"/>
    </g>
    <g>
      <circle cx="293.78" cy="56" r="9" fill="url(#radial-gradient-3)"/>
      <path d="M291.17,60V58.71a2.88,2.88,0,0,0,1.85.65,2.11,2.11,0,0,0,1.34-.38,1.2,1.2,0,0,0,.5-1c0-1-.72-1.43-2.18-1.43H292V55.43h.62c1.29,0,1.94-.45,1.94-1.35s-.51-1.24-1.51-1.24a2.44,2.44,0,0,0-1.59.61V52.24a4.05,4.05,0,0,1,2-.48,2.72,2.72,0,0,1,1.79.56,1.81,1.81,0,0,1,.68,1.44,2,2,0,0,1-1.69,2.13v0a2.26,2.26,0,0,1,1.44.63,1.92,1.92,0,0,1,.52,1.37,2.24,2.24,0,0,1-.85,1.83,3.43,3.43,0,0,1-2.24.69A3.83,3.83,0,0,1,291.17,60Z" fill="#fff"/>
    </g>
  </g>
  <g id="Text">
    <g>
      <path d="M43.49,60.71v3.17h-1v-8.4h2.3a3,3,0,0,1,2.09.66A2.31,2.31,0,0,1,47.64,58a2.54,2.54,0,0,1-.82,2,3.18,3.18,0,0,1-2.22.76Zm0-4.34v3.45h1a2.33,2.33,0,0,0,1.56-.47A1.67,1.67,0,0,0,46.61,58c0-1.11-.65-1.67-2-1.67Z" fill="#1e1e1e"/>
      <path d="M50.06,63.88h-1V55h1Z" fill="#1e1e1e"/>
      <path d="M56.3,63.88h-1V63h0A2,2,0,0,1,53.47,64a2,2,0,0,1-1.41-.47,1.68,1.68,0,0,1-.5-1.26c0-1.12.66-1.77,2-2l1.8-.25c0-1-.42-1.53-1.24-1.53a3,3,0,0,0-2,.74v-1a3.76,3.76,0,0,1,2-.56c1.41,0,2.12.75,2.12,2.24Zm-1-3-1.45.2a2.3,2.3,0,0,0-1,.33,1,1,0,0,0-.34.84.93.93,0,0,0,.32.72,1.2,1.2,0,0,0,.83.27,1.51,1.51,0,0,0,1.18-.5,1.77,1.77,0,0,0,.47-1.26Z" fill="#1e1e1e"/>
      <path d="M63.09,63.88h-1V60.46c0-1.27-.47-1.91-1.4-1.91a1.52,1.52,0,0,0-1.19.54,2,2,0,0,0-.47,1.37v3.42h-1v-6h1v1h0a2.17,2.17,0,0,1,2-1.14,1.83,1.83,0,0,1,1.51.64,2.79,2.79,0,0,1,.52,1.83Z" fill="#1e1e1e"/>
      <path d="M18.59,69a1.34,1.34,0,0,0-.64-.15c-.67,0-1,.42-1,1.27v.92h1.41v.82H16.94v5.18H16V71.9H15v-.82h1v-1a2,2,0,0,1,.54-1.49,1.84,1.84,0,0,1,1.36-.55,1.86,1.86,0,0,1,.7.11Z" fill="#1e1e1e"/>
      <path d="M21.89,77.22a2.79,2.79,0,0,1-2.13-.84A3.15,3.15,0,0,1,19,74.15a3.26,3.26,0,0,1,.83-2.36A3,3,0,0,1,22,70.94a2.69,2.69,0,0,1,2.09.83,3.75,3.75,0,0,1-.05,4.59A2.85,2.85,0,0,1,21.89,77.22ZM22,71.75a1.84,1.84,0,0,0-1.47.63A2.59,2.59,0,0,0,20,74.12a2.46,2.46,0,0,0,.54,1.68,1.85,1.85,0,0,0,1.46.61,1.75,1.75,0,0,0,1.43-.6,2.58,2.58,0,0,0,.5-1.72,2.62,2.62,0,0,0-.5-1.73A1.73,1.73,0,0,0,22,71.75Z" fill="#1e1e1e"/>
      <path d="M29.54,72.06a1.18,1.18,0,0,0-.73-.2,1.22,1.22,0,0,0-1,.58A2.67,2.67,0,0,0,27.37,74v3.06h-1v-6h1v1.24h0a2.08,2.08,0,0,1,.62-1A1.47,1.47,0,0,1,29,71a1.44,1.44,0,0,1,.57.08Z" fill="#1e1e1e"/>
      <path d="M36.65,77a1.76,1.76,0,0,1-.89.19c-1,0-1.58-.58-1.58-1.76V71.9h-1v-.82h1V69.62l1-.31v1.77h1.51v.82H35.14v3.38a1.41,1.41,0,0,0,.21.87.81.81,0,0,0,.68.25.94.94,0,0,0,.62-.2Z" fill="#1e1e1e"/>
      <path d="M42.92,77.08H42V73.63c0-1.25-.47-1.88-1.4-1.88a1.51,1.51,0,0,0-1.18.54,2,2,0,0,0-.48,1.39v3.4h-1V68.2h1v3.88h0a2.18,2.18,0,0,1,2-1.14c1.35,0,2,.82,2,2.45Z" fill="#1e1e1e"/>
      <path d="M49.55,74.32H45.31a2.28,2.28,0,0,0,.54,1.55,1.88,1.88,0,0,0,1.42.54,2.94,2.94,0,0,0,1.86-.66v.9a3.47,3.47,0,0,1-2.09.57,2.53,2.53,0,0,1-2-.81,3.34,3.34,0,0,1-.73-2.3,3.29,3.29,0,0,1,.79-2.29,2.58,2.58,0,0,1,2-.88,2.29,2.29,0,0,1,1.83.76,3.19,3.19,0,0,1,.64,2.12Zm-1-.81a2,2,0,0,0-.4-1.3,1.4,1.4,0,0,0-1.1-.46,1.54,1.54,0,0,0-1.16.49,2.21,2.21,0,0,0-.58,1.27Z" fill="#1e1e1e"/>
      <path d="M59.14,77.08h-1v-1h0a2,2,0,0,1-1.85,1.09c-1.43,0-2.15-.85-2.15-2.55V71.08h1v3.44c0,1.26.48,1.89,1.45,1.89a1.5,1.5,0,0,0,1.16-.51,2,2,0,0,0,.45-1.36V71.08h1Z" fill="#1e1e1e"/>
      <path d="M62.07,76.22h0v3.62h-1V71.08h1v1.06h0a2.26,2.26,0,0,1,2.07-1.2,2.19,2.19,0,0,1,1.81.81,3.35,3.35,0,0,1,.65,2.16,3.72,3.72,0,0,1-.73,2.41,2.45,2.45,0,0,1-2,.9A2,2,0,0,1,62.07,76.22Zm0-2.42v.83a1.77,1.77,0,0,0,.49,1.27,1.73,1.73,0,0,0,2.59-.15,3.09,3.09,0,0,0,.5-1.86,2.41,2.41,0,0,0-.47-1.57,1.51,1.51,0,0,0-1.25-.57,1.73,1.73,0,0,0-1.35.58A2.16,2.16,0,0,0,62,73.8Z" fill="#1e1e1e"/>
      <path d="M73.26,77.08h-1v-1h0a2.2,2.2,0,0,1-2.06,1.16,2.24,2.24,0,0,1-1.81-.8,3.32,3.32,0,0,1-.67-2.2,3.59,3.59,0,0,1,.75-2.38,2.46,2.46,0,0,1,2-.9,1.93,1.93,0,0,1,1.8,1h0V68.2h1Zm-1-2.71v-.88a1.74,1.74,0,0,0-.48-1.24,1.64,1.64,0,0,0-1.22-.5,1.68,1.68,0,0,0-1.39.65,2.85,2.85,0,0,0-.5,1.78,2.53,2.53,0,0,0,.48,1.63,1.6,1.6,0,0,0,1.3.6,1.65,1.65,0,0,0,1.31-.58A2.16,2.16,0,0,0,72.3,74.37Z" fill="#1e1e1e"/>
      <path d="M79.5,77.08h-1v-.93h0a2,2,0,0,1-1.84,1.07,2,2,0,0,1-1.41-.47,1.68,1.68,0,0,1-.5-1.26c0-1.12.66-1.77,2-2l1.8-.25c0-1-.41-1.53-1.24-1.53a3,3,0,0,0-2,.74v-1a3.76,3.76,0,0,1,2-.56c1.41,0,2.12.75,2.12,2.24Zm-1-3-1.45.2a2.3,2.3,0,0,0-1,.33,1,1,0,0,0-.34.84.93.93,0,0,0,.32.72,1.2,1.2,0,0,0,.83.27,1.51,1.51,0,0,0,1.18-.5,1.77,1.77,0,0,0,.47-1.26Z" fill="#1e1e1e"/>
      <path d="M84.09,77a1.76,1.76,0,0,1-.89.19c-1.06,0-1.58-.58-1.58-1.76V71.9h-1v-.82h1V69.62l1-.31v1.77h1.51v.82H82.58v3.38a1.41,1.41,0,0,0,.21.87.8.8,0,0,0,.67.25,1,1,0,0,0,.63-.2Z" fill="#1e1e1e"/>
      <path d="M90.2,74.32H86a2.28,2.28,0,0,0,.54,1.55,1.87,1.87,0,0,0,1.42.54,3,3,0,0,0,1.86-.66v.9a3.5,3.5,0,0,1-2.09.57,2.56,2.56,0,0,1-2-.81,3.39,3.39,0,0,1-.73-2.3,3.29,3.29,0,0,1,.8-2.29,2.58,2.58,0,0,1,2-.88,2.27,2.27,0,0,1,1.82.76,3.2,3.2,0,0,1,.65,2.12Zm-1-.81a1.91,1.91,0,0,0-.4-1.3,1.39,1.39,0,0,0-1.1-.46,1.54,1.54,0,0,0-1.15.49A2.22,2.22,0,0,0,86,73.51Z" fill="#1e1e1e"/>
    </g>
    <g>
      <path d="M176.33,60.48q0,3.54-3.2,3.54-3,0-3-3.4V55.48h1v5.07c0,1.73.73,2.59,2.18,2.59s2.1-.83,2.1-2.5V55.48h1Z" fill="#1e1e1e"/>
      <path d="M179.28,63h0v3.62h-1V57.88h1v1.06h0a2.27,2.27,0,0,1,2.08-1.2,2.2,2.2,0,0,1,1.81.81,3.33,3.33,0,0,1,.65,2.16,3.73,3.73,0,0,1-.74,2.41,2.42,2.42,0,0,1-2,.9A2,2,0,0,1,179.28,63Zm0-2.42v.83a1.81,1.81,0,0,0,.48,1.27,1.75,1.75,0,0,0,2.6-.15,3.09,3.09,0,0,0,.49-1.86,2.41,2.41,0,0,0-.46-1.57,1.54,1.54,0,0,0-1.26-.57,1.72,1.72,0,0,0-1.34.58A2.16,2.16,0,0,0,179.26,60.6Z" fill="#1e1e1e"/>
      <path d="M186.31,63.88h-1V55h1Z" fill="#1e1e1e"/>
      <path d="M190.77,64a2.79,2.79,0,0,1-2.13-.84,3.1,3.1,0,0,1-.79-2.23,3.26,3.26,0,0,1,.82-2.36,3,3,0,0,1,2.24-.85,2.69,2.69,0,0,1,2.09.83,3.27,3.27,0,0,1,.75,2.29,3.23,3.23,0,0,1-.81,2.3A2.81,2.81,0,0,1,190.77,64Zm.07-5.47a1.84,1.84,0,0,0-1.47.63,2.59,2.59,0,0,0-.54,1.74,2.41,2.41,0,0,0,.55,1.68,1.85,1.85,0,0,0,1.46.61,1.77,1.77,0,0,0,1.43-.6,2.63,2.63,0,0,0,.5-1.72,2.68,2.68,0,0,0-.5-1.73A1.74,1.74,0,0,0,190.84,58.55Z" fill="#1e1e1e"/>
      <path d="M199.58,63.88h-1V63h0A2,2,0,0,1,196.75,64a2,2,0,0,1-1.4-.47,1.65,1.65,0,0,1-.51-1.26c0-1.12.66-1.77,2-2l1.8-.25q0-1.53-1.23-1.53a3,3,0,0,0-2,.74v-1a3.76,3.76,0,0,1,2-.56c1.41,0,2.11.75,2.11,2.24Zm-1-3-1.44.2a2.25,2.25,0,0,0-1,.33,1,1,0,0,0-.34.84.92.92,0,0,0,.31.72,1.25,1.25,0,0,0,.84.27,1.53,1.53,0,0,0,1.18-.5,1.76,1.76,0,0,0,.46-1.26Z" fill="#1e1e1e"/>
      <path d="M206.52,63.88h-1v-1h0A2.2,2.2,0,0,1,203.47,64a2.25,2.25,0,0,1-1.81-.8A3.33,3.33,0,0,1,201,61a3.59,3.59,0,0,1,.75-2.38,2.48,2.48,0,0,1,2-.9,1.93,1.93,0,0,1,1.8,1h0V55h1Zm-1-2.71v-.88a1.74,1.74,0,0,0-.48-1.24,1.61,1.61,0,0,0-1.21-.5,1.68,1.68,0,0,0-1.39.65A2.83,2.83,0,0,0,202,61a2.53,2.53,0,0,0,.48,1.63,1.59,1.59,0,0,0,1.3.6,1.63,1.63,0,0,0,1.3-.58A2.11,2.11,0,0,0,205.55,61.17Z" fill="#1e1e1e"/>
      <path d="M151.16,77.08h-1v-.93h0a2,2,0,0,1-1.85,1.07,2,2,0,0,1-1.4-.47,1.65,1.65,0,0,1-.51-1.26c0-1.12.66-1.77,2-2l1.8-.25c0-1-.41-1.53-1.24-1.53a3,3,0,0,0-2,.74v-1a3.76,3.76,0,0,1,2-.56c1.41,0,2.11.75,2.11,2.24Zm-1-3-1.45.2a2.25,2.25,0,0,0-1,.33,1,1,0,0,0-.34.84.92.92,0,0,0,.31.72,1.24,1.24,0,0,0,.83.27,1.55,1.55,0,0,0,1.19-.5,1.76,1.76,0,0,0,.46-1.26Z" fill="#1e1e1e"/>
      <path d="M158,77.08h-1V73.66c0-1.27-.46-1.91-1.39-1.91a1.54,1.54,0,0,0-1.2.54,2,2,0,0,0-.47,1.37v3.42h-1v-6h1v1h0a2.16,2.16,0,0,1,2-1.14,1.82,1.82,0,0,1,1.5.64,2.79,2.79,0,0,1,.52,1.83Z" fill="#1e1e1e"/>
      <path d="M164.88,77.08h-1v-1h0a2.43,2.43,0,0,1-3.87.36,3.33,3.33,0,0,1-.68-2.2,3.59,3.59,0,0,1,.75-2.38,2.48,2.48,0,0,1,2-.9,1.93,1.93,0,0,1,1.8,1h0V68.2h1Zm-1-2.71v-.88a1.74,1.74,0,0,0-.48-1.24,1.62,1.62,0,0,0-1.22-.5,1.67,1.67,0,0,0-1.38.65,2.85,2.85,0,0,0-.5,1.78,2.53,2.53,0,0,0,.48,1.63,1.59,1.59,0,0,0,1.3.6,1.63,1.63,0,0,0,1.3-.58A2.11,2.11,0,0,0,163.92,74.37Z" fill="#1e1e1e"/>
      <path d="M171.1,76.22h0v3.62h-1V71.08h1v1.06h0a2.28,2.28,0,0,1,2.08-1.2,2.2,2.2,0,0,1,1.81.81,3.35,3.35,0,0,1,.65,2.16,3.73,3.73,0,0,1-.74,2.41,2.42,2.42,0,0,1-2,.9A2,2,0,0,1,171.1,76.22Zm0-2.42v.83a1.81,1.81,0,0,0,.48,1.27,1.75,1.75,0,0,0,2.6-.15,3.09,3.09,0,0,0,.49-1.86,2.41,2.41,0,0,0-.46-1.57,1.53,1.53,0,0,0-1.25-.57,1.73,1.73,0,0,0-1.35.58A2.16,2.16,0,0,0,171.08,73.8Z" fill="#1e1e1e"/>
      <path d="M180.3,72.06a1.18,1.18,0,0,0-.73-.2,1.22,1.22,0,0,0-1,.58,2.67,2.67,0,0,0-.42,1.58v3.06h-1v-6h1v1.24h0a2.08,2.08,0,0,1,.62-1,1.47,1.47,0,0,1,.95-.35,1.44,1.44,0,0,1,.57.08Z" fill="#1e1e1e"/>
      <path d="M186.17,74.32h-4.24a2.19,2.19,0,0,0,.54,1.55,1.85,1.85,0,0,0,1.42.54,3,3,0,0,0,1.86-.66v.9a3.5,3.5,0,0,1-2.09.57,2.54,2.54,0,0,1-2-.81,3.39,3.39,0,0,1-.73-2.3,3.29,3.29,0,0,1,.8-2.29,2.56,2.56,0,0,1,2-.88,2.28,2.28,0,0,1,1.82.76,3.2,3.2,0,0,1,.65,2.12Zm-1-.81a2,2,0,0,0-.4-1.3,1.39,1.39,0,0,0-1.1-.46,1.52,1.52,0,0,0-1.15.49,2.22,2.22,0,0,0-.59,1.27Z" fill="#1e1e1e"/>
      <path d="M188.6,76.22h0v3.62h-1V71.08h1v1.06h0a2.29,2.29,0,0,1,2.08-1.2,2.2,2.2,0,0,1,1.81.81,3.35,3.35,0,0,1,.65,2.16,3.78,3.78,0,0,1-.73,2.41,2.46,2.46,0,0,1-2,.9A2,2,0,0,1,188.6,76.22Zm0-2.42v.83a1.81,1.81,0,0,0,.48,1.27,1.75,1.75,0,0,0,2.6-.15,3.09,3.09,0,0,0,.49-1.86,2.41,2.41,0,0,0-.46-1.57,1.53,1.53,0,0,0-1.25-.57,1.73,1.73,0,0,0-1.35.58A2.16,2.16,0,0,0,188.58,73.8Z" fill="#1e1e1e"/>
      <path d="M199,77.08h-1v-.93h0a2,2,0,0,1-1.84,1.07,1.93,1.93,0,0,1-1.4-.47,1.65,1.65,0,0,1-.51-1.26c0-1.12.66-1.77,2-2l1.8-.25c0-1-.41-1.53-1.24-1.53a3,3,0,0,0-2,.74v-1a3.76,3.76,0,0,1,2-.56c1.41,0,2.12.75,2.12,2.24Zm-1-3-1.45.2a2.3,2.3,0,0,0-1,.33,1,1,0,0,0-.34.84.93.93,0,0,0,.32.72,1.22,1.22,0,0,0,.83.27,1.51,1.51,0,0,0,1.18-.5,1.77,1.77,0,0,0,.47-1.26Z" fill="#1e1e1e"/>
      <path d="M203.91,72.06a1.18,1.18,0,0,0-.73-.2,1.25,1.25,0,0,0-1,.58,2.74,2.74,0,0,0-.41,1.58v3.06h-1v-6h1v1.24h0a2.17,2.17,0,0,1,.63-1,1.46,1.46,0,0,1,.94-.35,1.49,1.49,0,0,1,.58.08Z" fill="#1e1e1e"/>
      <path d="M209.77,74.32h-4.23a2.19,2.19,0,0,0,.54,1.55,1.85,1.85,0,0,0,1.41.54,3,3,0,0,0,1.87-.66v.9a3.52,3.52,0,0,1-2.09.57,2.54,2.54,0,0,1-2-.81,3.85,3.85,0,0,1,.06-4.59,2.58,2.58,0,0,1,2-.88,2.28,2.28,0,0,1,1.82.76,3.19,3.19,0,0,1,.64,2.12Zm-1-.81a2,2,0,0,0-.4-1.3,1.4,1.4,0,0,0-1.1-.46,1.56,1.56,0,0,0-1.16.49,2.21,2.21,0,0,0-.58,1.27Z" fill="#1e1e1e"/>
      <path d="M217.3,77a1.82,1.82,0,0,1-.9.19c-1.05,0-1.58-.58-1.58-1.76V71.9h-1v-.82h1V69.62l1-.31v1.77h1.52v.82h-1.52v3.38a1.41,1.41,0,0,0,.21.87.82.82,0,0,0,.68.25,1,1,0,0,0,.63-.2Z" fill="#1e1e1e"/>
      <path d="M223.56,77.08h-1V73.63c0-1.25-.47-1.88-1.4-1.88a1.53,1.53,0,0,0-1.18.54,2,2,0,0,0-.48,1.39v3.4h-1V68.2h1v3.88h0a2.19,2.19,0,0,1,2-1.14c1.35,0,2,.82,2,2.45Z" fill="#1e1e1e"/>
      <path d="M230.19,74.32H226a2.19,2.19,0,0,0,.54,1.55,1.85,1.85,0,0,0,1.41.54,3,3,0,0,0,1.87-.66v.9a3.52,3.52,0,0,1-2.09.57,2.54,2.54,0,0,1-2-.81,3.85,3.85,0,0,1,.06-4.59,2.58,2.58,0,0,1,2-.88,2.28,2.28,0,0,1,1.82.76,3.19,3.19,0,0,1,.64,2.12Zm-1-.81a2,2,0,0,0-.4-1.3,1.4,1.4,0,0,0-1.1-.46,1.56,1.56,0,0,0-1.16.49,2.21,2.21,0,0,0-.58,1.27Z" fill="#1e1e1e"/>
      <path d="M151.73,90.28h-1v-1h0a2,2,0,0,1-1.85,1.09c-1.43,0-2.14-.85-2.14-2.55V84.28h.95v3.44c0,1.26.49,1.89,1.45,1.89a1.48,1.48,0,0,0,1.16-.51,2,2,0,0,0,.46-1.36V84.28h1Z" fill="#1e1e1e"/>
      <path d="M154.65,89.42h0V93h-1V84.28h1v1.06h0a2.28,2.28,0,0,1,2.08-1.2,2.2,2.2,0,0,1,1.81.81,3.33,3.33,0,0,1,.65,2.16,3.73,3.73,0,0,1-.74,2.41,2.42,2.42,0,0,1-2,.9A2,2,0,0,1,154.65,89.42Zm0-2.42v.83a1.81,1.81,0,0,0,.48,1.27,1.75,1.75,0,0,0,2.6-.15,3.09,3.09,0,0,0,.49-1.86,2.41,2.41,0,0,0-.46-1.57,1.53,1.53,0,0,0-1.25-.57,1.7,1.7,0,0,0-1.35.58A2.16,2.16,0,0,0,154.63,87Z" fill="#1e1e1e"/>
      <path d="M165.84,90.28h-1v-1h0a2.21,2.21,0,0,1-2.06,1.16,2.25,2.25,0,0,1-1.81-.8,3.33,3.33,0,0,1-.68-2.2,3.59,3.59,0,0,1,.75-2.38,2.48,2.48,0,0,1,2-.9,2,2,0,0,1,1.8,1h0V81.4h1Zm-1-2.71v-.88a1.74,1.74,0,0,0-.48-1.24,1.64,1.64,0,0,0-1.22-.5,1.67,1.67,0,0,0-1.38.65,2.77,2.77,0,0,0-.5,1.78,2.53,2.53,0,0,0,.48,1.63,1.57,1.57,0,0,0,1.3.6,1.63,1.63,0,0,0,1.3-.58A2.16,2.16,0,0,0,164.88,87.57Z" fill="#1e1e1e"/>
      <path d="M172.08,90.28h-1v-.93h0a2,2,0,0,1-1.85,1.07,2,2,0,0,1-1.4-.47,1.65,1.65,0,0,1-.51-1.26c0-1.12.66-1.77,2-2l1.8-.25q0-1.53-1.23-1.53a3,3,0,0,0-2,.74v-1a3.76,3.76,0,0,1,2-.56c1.41,0,2.11.75,2.11,2.24Zm-1-3-1.45.2a2.25,2.25,0,0,0-1,.33,1,1,0,0,0-.34.84.92.92,0,0,0,.31.72,1.25,1.25,0,0,0,.84.27,1.53,1.53,0,0,0,1.18-.5,1.76,1.76,0,0,0,.46-1.26Z" fill="#1e1e1e"/>
      <path d="M176.68,90.22a1.82,1.82,0,0,1-.9.19c-1.05,0-1.58-.58-1.58-1.76V85.1h-1v-.82h1V82.82l1-.31v1.77h1.52v.82h-1.52v3.38a1.41,1.41,0,0,0,.21.87.82.82,0,0,0,.68.25,1,1,0,0,0,.63-.2Z" fill="#1e1e1e"/>
      <path d="M182.78,87.52h-4.23a2.23,2.23,0,0,0,.53,1.55,1.88,1.88,0,0,0,1.42.54,3,3,0,0,0,1.87-.66v.9a3.53,3.53,0,0,1-2.1.57,2.53,2.53,0,0,1-2-.81,3.34,3.34,0,0,1-.73-2.3,3.29,3.29,0,0,1,.79-2.29,2.58,2.58,0,0,1,2-.88,2.28,2.28,0,0,1,1.82.76,3.19,3.19,0,0,1,.64,2.12Zm-1-.81a2,2,0,0,0-.4-1.3,1.37,1.37,0,0,0-1.1-.46,1.54,1.54,0,0,0-1.16.49,2.21,2.21,0,0,0-.58,1.27Z" fill="#1e1e1e"/>
      <path d="M188.51,89.42h0V93h-1V84.28h1v1.06h0a2.26,2.26,0,0,1,2.07-1.2,2.19,2.19,0,0,1,1.81.81,3.33,3.33,0,0,1,.65,2.16,3.72,3.72,0,0,1-.73,2.41,2.45,2.45,0,0,1-2,.9A2,2,0,0,1,188.51,89.42Zm0-2.42v.83A1.77,1.77,0,0,0,189,89.1a1.73,1.73,0,0,0,2.59-.15,3.09,3.09,0,0,0,.5-1.86,2.41,2.41,0,0,0-.47-1.57,1.51,1.51,0,0,0-1.25-.57,1.7,1.7,0,0,0-1.35.58A2.16,2.16,0,0,0,188.48,87Z" fill="#1e1e1e"/>
      <path d="M198.87,90.28h-1v-.93h0A2,2,0,0,1,196,90.42a2,2,0,0,1-1.4-.47,1.65,1.65,0,0,1-.51-1.26c0-1.12.66-1.77,2-2l1.8-.25c0-1-.41-1.53-1.24-1.53a3,3,0,0,0-1.95.74v-1a3.76,3.76,0,0,1,2-.56c1.41,0,2.11.75,2.11,2.24Zm-1-3-1.45.2a2.25,2.25,0,0,0-1,.33,1,1,0,0,0-.34.84.92.92,0,0,0,.31.72,1.24,1.24,0,0,0,.83.27,1.51,1.51,0,0,0,1.18-.5,1.73,1.73,0,0,0,.47-1.26Z" fill="#1e1e1e"/>
      <path d="M204.77,90a3.19,3.19,0,0,1-1.64.41,2.75,2.75,0,0,1-2.07-.83,3,3,0,0,1-.79-2.17,3.36,3.36,0,0,1,.85-2.38,3,3,0,0,1,2.27-.9,3.06,3.06,0,0,1,1.39.3v1a2.45,2.45,0,0,0-1.43-.47,1.91,1.91,0,0,0-1.5.66,2.47,2.47,0,0,0-.59,1.73,2.4,2.4,0,0,0,.55,1.67,1.92,1.92,0,0,0,1.49.6,2.38,2.38,0,0,0,1.47-.52Z" fill="#1e1e1e"/>
      <path d="M211.21,90.28h-1.35l-2.65-2.88h0v2.88h-1V81.4h1V87h0l2.52-2.75H211l-2.78,2.9Z" fill="#1e1e1e"/>
      <path d="M216.49,90.28h-1v-.93h0a2,2,0,0,1-1.85,1.07,2,2,0,0,1-1.4-.47,1.65,1.65,0,0,1-.51-1.26c0-1.12.66-1.77,2-2l1.79-.25q0-1.53-1.23-1.53a3,3,0,0,0-2,.74v-1a3.76,3.76,0,0,1,2-.56c1.41,0,2.12.75,2.12,2.24Zm-1-3-1.44.2a2.3,2.3,0,0,0-1,.33,1,1,0,0,0-.34.84.92.92,0,0,0,.31.72,1.25,1.25,0,0,0,.84.27,1.53,1.53,0,0,0,1.18-.5,1.76,1.76,0,0,0,.46-1.26Z" fill="#1e1e1e"/>
      <path d="M223.42,89.8q0,3.32-3.17,3.31a4.23,4.23,0,0,1-1.94-.42v-1a3.94,3.94,0,0,0,1.93.57c1.48,0,2.22-.79,2.22-2.36v-.66h0a2.42,2.42,0,0,1-3.86.35,3.16,3.16,0,0,1-.68-2.14,3.77,3.77,0,0,1,.73-2.44,2.46,2.46,0,0,1,2-.9,2,2,0,0,1,1.8,1h0v-.83h1Zm-1-2.23v-.88a1.74,1.74,0,0,0-.49-1.23,1.58,1.58,0,0,0-1.2-.51,1.68,1.68,0,0,0-1.4.65,2.91,2.91,0,0,0-.5,1.81,2.48,2.48,0,0,0,.48,1.6,1.57,1.57,0,0,0,1.28.6A1.69,1.69,0,0,0,222,89,2.12,2.12,0,0,0,222.46,87.57Z" fill="#1e1e1e"/>
      <path d="M230.18,87.52H226a2.19,2.19,0,0,0,.54,1.55,1.85,1.85,0,0,0,1.41.54,3,3,0,0,0,1.87-.66v.9a3.52,3.52,0,0,1-2.09.57,2.54,2.54,0,0,1-2-.81,3.34,3.34,0,0,1-.73-2.3,3.29,3.29,0,0,1,.8-2.29,2.56,2.56,0,0,1,2-.88,2.28,2.28,0,0,1,1.82.76,3.19,3.19,0,0,1,.64,2.12Zm-1-.81a2,2,0,0,0-.4-1.3,1.37,1.37,0,0,0-1.1-.46,1.52,1.52,0,0,0-1.15.49,2.16,2.16,0,0,0-.59,1.27Z" fill="#1e1e1e"/>
    </g>
    <g>
      <path d="M315.61,63.88h-1.09l-.89-2.35h-3.57l-.83,2.35h-1.1l3.22-8.4h1Zm-2.31-3.24L312,57.06a2.44,2.44,0,0,1-.13-.56h0a3.13,3.13,0,0,1-.13.56l-1.31,3.58Z" fill="#1e1e1e"/>
      <path d="M317.7,63h0v3.62h-1V57.88h1v1.06h0a2.26,2.26,0,0,1,2.07-1.2,2.18,2.18,0,0,1,1.81.81,3.28,3.28,0,0,1,.65,2.16,3.72,3.72,0,0,1-.73,2.41,2.44,2.44,0,0,1-2,.9A2,2,0,0,1,317.7,63Zm0-2.42v.83a1.81,1.81,0,0,0,.48,1.27,1.73,1.73,0,0,0,2.59-.15,3.09,3.09,0,0,0,.5-1.86,2.41,2.41,0,0,0-.46-1.57,1.54,1.54,0,0,0-1.26-.57,1.71,1.71,0,0,0-1.34.58A2.16,2.16,0,0,0,317.68,60.6Z" fill="#1e1e1e"/>
      <path d="M324.75,63h0v3.62h-1V57.88h1v1.06h0a2.29,2.29,0,0,1,2.08-1.2,2.2,2.2,0,0,1,1.81.81,3.33,3.33,0,0,1,.65,2.16,3.78,3.78,0,0,1-.73,2.41,2.46,2.46,0,0,1-2,.9A2,2,0,0,1,324.75,63Zm0-2.42v.83a1.81,1.81,0,0,0,.48,1.27,1.75,1.75,0,0,0,2.6-.15,3.09,3.09,0,0,0,.49-1.86,2.41,2.41,0,0,0-.46-1.57,1.53,1.53,0,0,0-1.25-.57,1.73,1.73,0,0,0-1.35.58A2.16,2.16,0,0,0,324.73,60.6Z" fill="#1e1e1e"/>
      <path d="M331.78,63.88h-1V55h1Z" fill="#1e1e1e"/>
      <path d="M338.51,57.88l-2.76,7c-.5,1.25-1.19,1.87-2.08,1.87a2.25,2.25,0,0,1-.63-.08v-.86a1.8,1.8,0,0,0,.57.1A1.16,1.16,0,0,0,334.7,65l.48-1.14-2.34-6h1.07l1.62,4.62c0,.06.06.21.12.46h0c0-.1.06-.25.11-.45l1.71-4.63Z" fill="#1e1e1e"/>
      <path d="M298.15,77a1.82,1.82,0,0,1-.9.19c-1.05,0-1.57-.58-1.57-1.76V71.9h-1v-.82h1V69.62l1-.31v1.77h1.51v.82h-1.51v3.38a1.49,1.49,0,0,0,.2.87.83.83,0,0,0,.68.25,1,1,0,0,0,.63-.2Z" fill="#1e1e1e"/>
      <path d="M304.41,77.08h-1V73.63c0-1.25-.46-1.88-1.39-1.88a1.53,1.53,0,0,0-1.19.54,2,2,0,0,0-.48,1.39v3.4h-1V68.2h1v3.88h0a2.17,2.17,0,0,1,2-1.14c1.35,0,2,.82,2,2.45Z" fill="#1e1e1e"/>
      <path d="M311.05,74.32h-4.24a2.19,2.19,0,0,0,.54,1.55,1.85,1.85,0,0,0,1.42.54,3,3,0,0,0,1.86-.66v.9a3.52,3.52,0,0,1-2.09.57,2.54,2.54,0,0,1-2-.81,3.39,3.39,0,0,1-.73-2.3,3.29,3.29,0,0,1,.8-2.29,2.56,2.56,0,0,1,2-.88,2.28,2.28,0,0,1,1.82.76,3.2,3.2,0,0,1,.65,2.12Zm-1-.81a2,2,0,0,0-.4-1.3,1.39,1.39,0,0,0-1.1-.46,1.52,1.52,0,0,0-1.15.49,2.22,2.22,0,0,0-.59,1.27Z" fill="#1e1e1e"/>
      <path d="M320.64,77.08h-1v-1h0a2,2,0,0,1-1.85,1.09c-1.43,0-2.14-.85-2.14-2.55V71.08h.95v3.44c0,1.26.49,1.89,1.46,1.89a1.47,1.47,0,0,0,1.15-.51,2,2,0,0,0,.46-1.36V71.08h1Z" fill="#1e1e1e"/>
      <path d="M323.56,76.22h0v3.62h-1V71.08h1v1.06h0a2.28,2.28,0,0,1,2.08-1.2,2.2,2.2,0,0,1,1.81.81,3.35,3.35,0,0,1,.65,2.16,3.73,3.73,0,0,1-.74,2.41,2.42,2.42,0,0,1-2,.9A2,2,0,0,1,323.56,76.22Zm0-2.42v.83A1.81,1.81,0,0,0,324,75.9a1.75,1.75,0,0,0,2.6-.15,3.09,3.09,0,0,0,.49-1.86,2.41,2.41,0,0,0-.46-1.57,1.53,1.53,0,0,0-1.25-.57,1.73,1.73,0,0,0-1.35.58A2.16,2.16,0,0,0,323.54,73.8Z" fill="#1e1e1e"/>
      <path d="M334.75,77.08h-1v-1h0a2.43,2.43,0,0,1-3.87.36,3.33,3.33,0,0,1-.68-2.2,3.59,3.59,0,0,1,.75-2.38,2.48,2.48,0,0,1,2-.9,2,2,0,0,1,1.8,1h0V68.2h1Zm-1-2.71v-.88a1.74,1.74,0,0,0-.48-1.24,1.64,1.64,0,0,0-1.22-.5,1.67,1.67,0,0,0-1.38.65,2.79,2.79,0,0,0-.5,1.78,2.53,2.53,0,0,0,.48,1.63,1.57,1.57,0,0,0,1.3.6,1.63,1.63,0,0,0,1.3-.58A2.16,2.16,0,0,0,333.79,74.37Z" fill="#1e1e1e"/>
      <path d="M341,77.08h-1v-.93h0a2,2,0,0,1-1.85,1.07,2,2,0,0,1-1.4-.47,1.65,1.65,0,0,1-.51-1.26c0-1.12.66-1.77,2-2l1.8-.25q0-1.53-1.23-1.53a3,3,0,0,0-2,.74v-1a3.76,3.76,0,0,1,2-.56c1.41,0,2.11.75,2.11,2.24Zm-1-3-1.45.2a2.25,2.25,0,0,0-1,.33,1,1,0,0,0-.34.84.92.92,0,0,0,.31.72,1.25,1.25,0,0,0,.84.27,1.53,1.53,0,0,0,1.18-.5,1.76,1.76,0,0,0,.46-1.26Z" fill="#1e1e1e"/>
      <path d="M345.59,77a1.82,1.82,0,0,1-.9.19c-1.05,0-1.58-.58-1.58-1.76V71.9h-1v-.82h1V69.62l1-.31v1.77h1.52v.82h-1.52v3.38a1.41,1.41,0,0,0,.21.87.82.82,0,0,0,.68.25,1,1,0,0,0,.63-.2Z" fill="#1e1e1e"/>
      <path d="M351.69,74.32h-4.23a2.23,2.23,0,0,0,.53,1.55,1.88,1.88,0,0,0,1.42.54,3,3,0,0,0,1.87-.66v.9a3.53,3.53,0,0,1-2.1.57,2.53,2.53,0,0,1-2-.81,3.34,3.34,0,0,1-.73-2.3,3.29,3.29,0,0,1,.79-2.29,2.58,2.58,0,0,1,2-.88,2.28,2.28,0,0,1,1.82.76,3.19,3.19,0,0,1,.64,2.12Zm-1-.81a2,2,0,0,0-.4-1.3,1.4,1.4,0,0,0-1.1-.46,1.54,1.54,0,0,0-1.16.49,2.21,2.21,0,0,0-.58,1.27Z" fill="#1e1e1e"/>
    </g>
  </g>
</svg>
