<svg xmlns="http://www.w3.org/2000/svg" xmlns:xlink="http://www.w3.org/1999/xlink" viewBox="0 0 512.27 283.77">
  <defs>
    <linearGradient id="linear-gradient" x1="433.68" y1="413.58" x2="358.68" y2="413.58" gradientTransform="translate(690.32 -273.27) rotate(90)" gradientUnits="userSpaceOnUse">
      <stop offset="0" stop-color="#68c2b5"/>
      <stop offset="0.22" stop-color="#60baad"/>
      <stop offset="0.58" stop-color="#49a498"/>
      <stop offset="1" stop-color="#258277"/>
    </linearGradient>
    <linearGradient id="linear-gradient-2" x1="58.32" y1="470.99" x2="58.32" y2="492.64" gradientTransform="matrix(1, 0, 0, -1, 0, 661.05)" gradientUnits="userSpaceOnUse">
      <stop offset="0" stop-color="#0078d4"/>
      <stop offset="0.82" stop-color="#5ea0ef"/>
    </linearGradient>
    <linearGradient id="linear-gradient-3" x1="58.32" y1="462.64" x2="58.32" y2="470.99" gradientTransform="matrix(1, 0, 0, -1, 0, 661.05)" gradientUnits="userSpaceOnUse">
      <stop offset="0.15" stop-color="#ccc"/>
      <stop offset="1" stop-color="#707070"/>
    </linearGradient>
    <linearGradient id="linear-gradient-4" x1="19.08" y1="661.05" x2="19.08" y2="633.2" gradientTransform="matrix(1, 0, 0, -1, 0, 661.05)" gradientUnits="userSpaceOnUse">
      <stop offset="0" stop-color="#5ea0ef"/>
      <stop offset="0.18" stop-color="#559cec"/>
      <stop offset="0.47" stop-color="#3c91e5"/>
      <stop offset="0.84" stop-color="#1380da"/>
      <stop offset="1" stop-color="#0078d4"/>
    </linearGradient>
    <linearGradient id="linear-gradient-5" x1="14.42" y1="632.9" x2="14.42" y2="646.4" gradientTransform="matrix(1, 0, 0, -1, 0, 661.05)" gradientUnits="userSpaceOnUse">
      <stop offset="0" stop-color="#198ab3"/>
      <stop offset="0.14" stop-color="#22a5cb"/>
      <stop offset="0.3" stop-color="#29bade"/>
      <stop offset="0.47" stop-color="#2ec9eb"/>
      <stop offset="0.68" stop-color="#31d1f3"/>
      <stop offset="1" stop-color="#32d4f5"/>
    </linearGradient>
    <linearGradient id="linear-gradient-6" x1="88.88" y1="179.93" x2="88.88" y2="180.93" gradientUnits="userSpaceOnUse">
      <stop offset="0" stop-color="#258277"/>
      <stop offset="0.42" stop-color="#49a498"/>
      <stop offset="0.78" stop-color="#60baad"/>
      <stop offset="1" stop-color="#68c2b5"/>
    </linearGradient>
    <linearGradient id="linear-gradient-7" x1="192" y1="180.43" x2="246.74" y2="180.43" xlink:href="#linear-gradient-6"/>
    <linearGradient id="linear-gradient-8" x1="194.29" y1="273.52" x2="214.29" y2="273.52" xlink:href="#linear-gradient-6"/>
    <linearGradient id="linear-gradient-9" x1="328.29" y1="272.52" x2="328.29" y2="274.52" gradientUnits="userSpaceOnUse">
      <stop offset="0.16" stop-color="#6f4bb2"/>
      <stop offset="0.32" stop-color="#7450b5"/>
      <stop offset="0.51" stop-color="#825dbf"/>
      <stop offset="0.72" stop-color="#9a72ce"/>
      <stop offset="0.94" stop-color="#bb90e4"/>
      <stop offset="1" stop-color="#c69aeb"/>
    </linearGradient>
    <linearGradient id="linear-gradient-10" x1="325.87" y1="67.74" x2="325.87" y2="69.74" xlink:href="#linear-gradient-9"/>
    <linearGradient id="linear-gradient-11" x1="174.42" y1="586.05" x2="174.42" y2="610.05" gradientTransform="matrix(1, 0, 0, -1, 0, 661.05)" gradientUnits="userSpaceOnUse">
      <stop offset="0" stop-color="#5e9641"/>
      <stop offset="0.34" stop-color="#6baa42"/>
      <stop offset="0.67" stop-color="#73b743"/>
      <stop offset="1" stop-color="#76bb43"/>
    </linearGradient>
    <linearGradient id="linear-gradient-12" x1="222.62" y1="97.91" x2="222.62" y2="160.41" xlink:href="#linear-gradient-6"/>
    <radialGradient id="radial-gradient" cx="-6122.38" cy="-5523.15" r="30.05" gradientTransform="translate(3417.31 2945.31) scale(0.5)" gradientUnits="userSpaceOnUse">
      <stop offset="0.18" stop-color="#5ea0ef"/>
      <stop offset="1" stop-color="#0078d4"/>
    </radialGradient>
    <linearGradient id="linear-gradient-13" x1="412.75" y1="492.03" x2="412.75" y2="462.64" gradientTransform="matrix(1, 0, 0, -1, 0, 661.05)" gradientUnits="userSpaceOnUse">
      <stop offset="0" stop-color="#b3b2b3"/>
      <stop offset="0.38" stop-color="#afaeaf"/>
      <stop offset="0.76" stop-color="#a2a2a2"/>
      <stop offset="1" stop-color="#979797"/>
    </linearGradient>
    <radialGradient id="radial-gradient-2" cx="438.33" cy="468.9" r="9.53" gradientTransform="matrix(0.94, 0, 0, -0.94, 16.31, 610.09)" gradientUnits="userSpaceOnUse">
      <stop offset="0.18" stop-color="#5ea0ef"/>
      <stop offset="0.56" stop-color="#5c9fee"/>
      <stop offset="0.69" stop-color="#559ced"/>
      <stop offset="0.78" stop-color="#4a97e9"/>
      <stop offset="0.86" stop-color="#3990e4"/>
      <stop offset="0.93" stop-color="#2387de"/>
      <stop offset="0.99" stop-color="#087bd6"/>
      <stop offset="1" stop-color="#0078d4"/>
    </radialGradient>
    <radialGradient id="radial-gradient-3" cx="438.71" cy="467.82" r="1.33" gradientTransform="matrix(0.94, 0, 0, -0.94, 15.97, 609.12)" gradientUnits="userSpaceOnUse">
      <stop offset="0" stop-color="#7f7f7f"/>
      <stop offset="1" stop-color="#5e5e5e"/>
    </radialGradient>
    <linearGradient id="linear-gradient-14" x1="484.94" y1="615.17" x2="484.94" y2="573.9" gradientTransform="matrix(1, 0, 0, -1, 0, 661.05)" xlink:href="#radial-gradient"/>
    <linearGradient id="linear-gradient-15" x1="119.51" y1="510.67" x2="120.1" y2="479.73" gradientTransform="matrix(1, 0, 0, -1, 0, 661.05)" gradientUnits="userSpaceOnUse">
      <stop offset="0.22" stop-color="#32d4f5"/>
      <stop offset="0.47" stop-color="#31d1f3"/>
      <stop offset="0.63" stop-color="#2ec9eb"/>
      <stop offset="0.77" stop-color="#29bade"/>
      <stop offset="0.89" stop-color="#22a5cb"/>
      <stop offset="1" stop-color="#198ab3"/>
    </linearGradient>
  </defs>
  <g id="Shapes">
    <rect width="512.27" height="283.77" fill="#fff"/>
    <rect x="19.29" y="263.48" width="490" height="20.05" fill="#fff" stroke="#75757a" stroke-miterlimit="10" stroke-opacity="0.3" stroke-width="0.5"/>
    <g>
      <rect x="329.29" y="150.41" width="120" height="85" fill="#fff"/>
      <rect x="329.29" y="150.41" width="120" height="85" fill="#0072c6" opacity="0.25"/>
    </g>
    <line x1="276.74" y1="160.41" x2="276.74" y2="85.41" fill="none" stroke-miterlimit="10" stroke="url(#linear-gradient)"/>
    <g>
      <rect x="18" y="150.41" width="180" height="86" fill="#fff"/>
      <rect x="18" y="150.41" width="180" height="86" fill="#3c3c41" opacity="0.15"/>
    </g>
    <rect x="102.5" y="205.41" width="90" height="25.05" fill="#fff" stroke="#75757a" stroke-miterlimit="10" stroke-opacity="0.3" stroke-width="0.5"/>
    <g>
      <rect x="42.08" y="168.41" width="32.47" height="21.65" rx="1.08" fill="url(#linear-gradient-2)"/>
      <polygon points="63.73 176.07 63.73 182.37 58.32 185.54 58.32 179.23 63.73 176.07" fill="#50e6ff"/>
      <polygon points="63.73 176.07 58.32 179.25 52.91 176.07 58.32 172.92 63.73 176.07" fill="#c3f1ff"/>
      <polygon points="58.32 179.25 58.32 185.54 52.91 182.37 52.91 176.07 58.32 179.25" fill="#9cebff"/>
      <polygon points="52.91 182.37 58.32 179.23 58.32 185.54 52.91 182.37" fill="#c3f1ff"/>
      <polygon points="63.73 182.37 58.32 179.23 58.32 185.54 63.73 182.37" fill="#9cebff"/>
      <path d="M64.83,196.6c-3.21-.5-3.33-2.81-3.33-6.55H55.13c0,3.74-.11,6-3.32,6.55a1.81,1.81,0,0,0-1.61,1.81H66.44A1.81,1.81,0,0,0,64.83,196.6Z" fill="url(#linear-gradient-3)"/>
    </g>
    <g>
      <rect x="18" y="20.23" width="155" height="81.22" fill="#fff"/>
      <rect x="18" y="20.23" width="155" height="81.22" fill="#0072c6" opacity="0.05"/>
      <rect x="18" y="20.23" width="155" height="81.22" fill="none" stroke="#0072c6" stroke-miterlimit="10" stroke-width="0.5" opacity="0.6"/>
    </g>
    <g>
      <rect x="28" y="30.23" width="155" height="81.22" fill="#fff"/>
      <rect x="28" y="30.23" width="155" height="81.22" fill="#0072c6" opacity="0.05"/>
      <rect x="28" y="30.23" width="155" height="81.22" fill="none" stroke="#0072c6" stroke-miterlimit="10" stroke-width="0.5" opacity="0.6"/>
    </g>
    <g>
      <rect x="33" y="35.23" width="155" height="81.22" fill="#fff"/>
      <rect x="33" y="35.23" width="155" height="81.22" fill="#0072c6" opacity="0.05"/>
      <rect x="33" y="35.23" width="155" height="81.22" fill="none" stroke="#0072c6" stroke-miterlimit="10" stroke-width="0.5" opacity="0.6"/>
    </g>
    <g>
      <rect x="38" y="39.23" width="155" height="81.22" fill="#fff"/>
      <rect x="38" y="39.23" width="155" height="81.22" fill="#0072c6" opacity="0.05"/>
      <rect x="38" y="39.23" width="155" height="81.22" fill="none" stroke="#0072c6" stroke-miterlimit="10" stroke-width="0.5" opacity="0.6"/>
    </g>
    <g id="b1186d34-5ca3-4e43-992d-40ecef5e891b">
      <g>
        <path d="M26.33,0H11.84a.94.94,0,0,0-.94.93V21.57a16.87,16.87,0,0,1,2.35-1.66H16l1.52,2V25L15.6,26.38l-2.67-.33-2-1.92v2.79a.94.94,0,0,0,.94.93H26.33a.92.92,0,0,0,.92-.93V.93A.92.92,0,0,0,26.33,0Z" fill="url(#linear-gradient-4)"/>
        <path id="af47f827-8b1b-4acd-8974-8eafe35490c9" d="M13.06,2.89h2.67a.23.23,0,0,1,.23.24h0V6.57a.23.23,0,0,1-.23.23H13.06a.24.24,0,0,1-.23-.23h0V3.13a.24.24,0,0,1,.23-.24Zm4.69,0h2.66a.23.23,0,0,1,.23.24h0V6.57a.23.23,0,0,1-.23.23H17.75a.24.24,0,0,1-.24-.23h0V3.13a.24.24,0,0,1,.24-.24Zm4.69,0H25.1a.24.24,0,0,1,.24.24h0V6.57a.24.24,0,0,1-.24.23H22.44a.23.23,0,0,1-.23-.23h0V3.13a.23.23,0,0,1,.23-.24ZM13.06,9.11h2.67a.23.23,0,0,1,.23.23h0v3.48a.23.23,0,0,1-.23.23H13.06a.24.24,0,0,1-.23-.23h0V9.38a.24.24,0,0,1,.2-.27Zm4.69,0h2.66a.23.23,0,0,1,.23.23h0v3.48a.23.23,0,0,1-.23.23H17.75a.24.24,0,0,1-.24-.23h0V9.38a.24.24,0,0,1,.2-.27Zm4.69,0H25.1a.24.24,0,0,1,.24.23h0v3.48a.24.24,0,0,1-.24.23H22.44a.23.23,0,0,1-.23-.23h0V9.38a.24.24,0,0,1,.2-.27ZM13.06,15.4h2.67a.23.23,0,0,1,.23.23h0V19a.23.23,0,0,1-.23.24H13.06a.24.24,0,0,1-.23-.24v-3.4A.23.23,0,0,1,13.06,15.4Zm4.69,0h2.66a.23.23,0,0,1,.23.23h0V19a.23.23,0,0,1-.23.24H17.75a.24.24,0,0,1-.24-.24h0v-3.4A.23.23,0,0,1,17.75,15.4Zm0,6.25h2.66a.23.23,0,0,1,.23.23h0V27a.23.23,0,0,1-.23.23H17.75a.23.23,0,0,1-.24-.23V21.88a.23.23,0,0,1,.24-.23Zm4.69-6.25H25.1a.23.23,0,0,1,.24.23h0V19a.24.24,0,0,1-.24.24H22.44a.23.23,0,0,1-.23-.24h0v-3.4A.23.23,0,0,1,22.44,15.4Z" fill="#f2f2f2"/>
        <path d="M14.45,20.69a2.16,2.16,0,0,0-2,1.65H5a4.91,4.91,0,0,0-.13,1.08v.1H12.4a2.14,2.14,0,1,0,2-2.83Z" fill="#50e6ff"/>
        <path d="M20.24,19.8a5.39,5.39,0,0,0-5.62-5.15,5.51,5.51,0,0,0-5.29,3.61,5.23,5.23,0,0,0-4.2,3.31H12A2.81,2.81,0,1,1,11.92,24h-7a5.3,5.3,0,0,0,5.26,4h9.4a4.36,4.36,0,0,0,4.3-4A4.29,4.29,0,0,0,20.24,19.8Z" fill="url(#linear-gradient-5)"/>
        <path d="M14.45,20.69a2.16,2.16,0,0,0-2,1.65H5a3.47,3.47,0,0,1-.78-.1,3.75,3.75,0,0,1,.42-7.41H5l.12-.33a4.21,4.21,0,0,1,4.07-2.82,4.35,4.35,0,0,1,3.77,2.1,5.13,5.13,0,0,1,1.24-.15,5.52,5.52,0,0,0-5-3.13,5.44,5.44,0,0,0-5.12,3.23,4.86,4.86,0,0,0-.38,9.52h0a3.34,3.34,0,0,0,1.21.2H12.4a2.14,2.14,0,1,0,2-2.76Z" fill="#50e6ff"/>
      </g>
    </g>
    <g>
      <rect x="247.05" y="160.41" width="40" height="40.05" fill="#fff" stroke="#75757a" stroke-miterlimit="10" stroke-opacity="0.7" stroke-width="0.5"/>
      <g>
        <path d="M270.26,177.26h-6.34v6.33h6.34Z" fill="#0078d4"/>
        <path d="M279.05,168.41h-5v1.24h2.87L271,175.52l.88.88,5.91-5.91v3h1.25v-5.05Z" fill="#50e6ff"/>
        <path d="M279,192.4h0v-5h-1.25v2.87l-5.87-5.87-.88.88,5.91,5.91h-3v1.24Z" fill="#50e6ff"/>
        <path d="M255,192.4h5v-1.25H257.2l5.87-5.87-.88-.88-5.91,5.91v-3H255v5Z" fill="#50e6ff"/>
        <path d="M255.06,168.41h0v5h1.24v-2.88l5.87,5.87.88-.88-5.91-5.91h3v-1.24Z" fill="#50e6ff"/>
      </g>
    </g>
    <g>
      <g>
        <rect x="243" y="47.21" width="32" height="32.04" fill="#fff" stroke="#75757a" stroke-miterlimit="10" stroke-opacity="0.7" stroke-width="0.5"/>
        <g>
          <path d="M261.57,60.69H256.5v5.07h5.07Z" fill="#0078d4"/>
          <path d="M268.6,53.62h-4v1h2.29l-4.69,4.69.7.71,4.73-4.73v2.37h1v-4Z" fill="#50e6ff"/>
          <path d="M268.59,72.81h0v-4h-1v2.3l-4.69-4.7-.7.71,4.72,4.73h-2.37v1Z" fill="#50e6ff"/>
          <path d="M249.4,72.81h4v-1h-2.3l4.69-4.7-.7-.7-4.73,4.73V68.78h-1v4Z" fill="#50e6ff"/>
          <path d="M249.41,53.62h0v4h1v-2.3L255.1,60l.7-.7-4.72-4.73h2.37v-1h-4Z" fill="#50e6ff"/>
        </g>
      </g>
      <g>
        <rect x="257.44" y="55.18" width="32" height="32.04" fill="#fff" stroke="#75757a" stroke-miterlimit="10" stroke-opacity="0.7" stroke-width="0.5"/>
        <g>
          <path d="M276,68.66h-5.07v5.07H276Z" fill="#0078d4"/>
          <path d="M283.05,61.58h-4v1h2.3l-4.7,4.7.71.7,4.72-4.73v2.38h1v-4Z" fill="#50e6ff"/>
          <path d="M283,80.77h0v-4h-1V79l-4.7-4.69-.7.7,4.73,4.73H279v1h4Z" fill="#50e6ff"/>
          <path d="M263.84,80.77h4v-1h-2.3l4.69-4.69-.7-.71-4.73,4.73V76.74h-1v4Z" fill="#50e6ff"/>
          <path d="M263.85,61.58h0v4h1v-2.3l4.69,4.7.7-.71-4.72-4.73h2.37v-1Z" fill="#50e6ff"/>
        </g>
      </g>
    </g>
    <line x1="103" y1="180.43" x2="74.76" y2="180.43" fill="none" stroke-miterlimit="10" stroke="url(#linear-gradient-6)"/>
    <line x1="246.74" y1="180.43" x2="192" y2="180.43" fill="none" stroke-miterlimit="10" stroke="url(#linear-gradient-7)"/>
    <g>
      <line x1="243" y1="68.74" x2="188" y2="68.74" fill="none" stroke="#003067" stroke-miterlimit="10" stroke-width="2"/>
      <line x1="243" y1="68.74" x2="188" y2="68.74" fill="none" stroke="#fff" stroke-miterlimit="10" stroke-width="0.75"/>
    </g>
    <g>
      <line x1="44.29" y1="273.52" x2="24.29" y2="273.52" fill="none" stroke="#003067" stroke-miterlimit="10" stroke-width="2"/>
      <line x1="44.29" y1="273.52" x2="24.29" y2="273.52" fill="none" stroke="#fff" stroke-miterlimit="10" stroke-width="0.75"/>
    </g>
    <line x1="214.29" y1="273.52" x2="194.29" y2="273.52" fill="none" stroke-miterlimit="10" stroke="url(#linear-gradient-8)"/>
    <g>
      <line x1="338.29" y1="273.52" x2="318.29" y2="273.52" fill="none" stroke-miterlimit="10" stroke-width="2" stroke="url(#linear-gradient-9)"/>
      <line x1="338.29" y1="273.52" x2="318.29" y2="273.52" fill="none" stroke="#b796f9" stroke-miterlimit="10" stroke-dasharray="10 4"/>
    </g>
    <g>
      <line x1="290.57" y1="68.74" x2="361.17" y2="68.74" fill="none" stroke-miterlimit="10" stroke-width="2" stroke="url(#linear-gradient-10)"/>
      <line x1="290.57" y1="68.74" x2="361.17" y2="68.74" fill="none" stroke="#b796f9" stroke-miterlimit="10" stroke-dasharray="10 4"/>
    </g>
    <rect x="103" y="85.41" width="85" height="25.05" fill="#fff" stroke="#75757a" stroke-miterlimit="10" stroke-opacity="0.7" stroke-width="0.5"/>
    <g>
      <path d="M185.42,53.26h2a.54.54,0,0,1,.54.54h0v5.6a.54.54,0,0,1-.54.54h-2V53.26Z" fill="#ffca00"/>
      <path d="M185.42,63h2a.54.54,0,0,1,.54.54h0v9.38a.54.54,0,0,1-.54.54h-2V63Z" fill="#ffca00"/>
      <rect x="163.41" y="51" width="22.02" height="24" rx="1.1" fill="url(#linear-gradient-11)"/>
      <path d="M169.44,69.24H168.3a.32.32,0,0,1-.3-.34h0V55.54a.31.31,0,0,1,.29-.32h3.1a.31.31,0,0,1,.31.31h0a.32.32,0,0,1-.31.34h-2.78V68.57h.83a.31.31,0,0,1,.3.33h0A.34.34,0,0,1,169.44,69.24Z" fill="#b4ec36"/>
      <path d="M169.6,70.87H167a.31.31,0,0,1-.3-.33h0L166.53,54a.3.3,0,0,1,.09-.24.28.28,0,0,1,.21-.1h4.56v.66h-4.24l.19,15.87h2.26Z" fill="#b4ec36"/>
      <path d="M179.2,69.4h-2.54a.3.3,0,0,1-.23-.11.28.28,0,0,1-.09-.23V61.24a.3.3,0,0,1,.28-.32h1.48v-3.6h.6v3.9a.31.31,0,0,1-.28.34H177v7.07h2.24Z" fill="#b4ec36"/>
      <rect x="171.31" y="52.26" width="9.82" height="4.98" rx="0.42" fill="#365615"/>
      <rect x="172.42" y="65.86" width="1.74" height="7.84" rx="0.42" fill="#365615"/>
      <rect x="169.44" y="65.9" width="1.74" height="7.84" rx="0.42" fill="#365615"/>
      <rect x="179.01" y="65.9" width="1.74" height="7.84" rx="0.42" fill="#f2f2f2"/>
      <ellipse cx="172.98" cy="61.5" rx="1.66" ry="1.79" fill="#f2f2f2"/>
      <path d="M163.38,68.2h-2a.54.54,0,0,1-.54-.48V58.34a.54.54,0,0,1,.54-.54h2V68.2Z" fill="#3b3b3b"/>
    </g>
    <path d="M256.74,160.41v-59a3,3,0,0,0-3-3H188" fill="none" stroke-miterlimit="10" stroke="url(#linear-gradient-12)"/>
    <g>
      <path id="f57e105d-6d2d-4ad7-b8c3-c10684c9f9b8" d="M365,195.25a15,15,0,1,1-18.42-23.75l.16-.11A15,15,0,0,1,365,195.25" fill="url(#radial-gradient)"/>
      <path d="M355.75,169.78a13.6,13.6,0,1,0,13.59,13.6A13.6,13.6,0,0,0,355.75,169.78Zm9.1,4.58a13,13,0,0,1-3.8,1.42,15.65,15.65,0,0,0-2.21-4.78A12.8,12.8,0,0,1,364.85,174.36Zm-9.1-3.82a12.33,12.33,0,0,1,1.92.16h0a13.18,13.18,0,0,1,2.71,5.3,26.47,26.47,0,0,1-9.64,0,13.12,13.12,0,0,1,2.67-5.19h0A13.11,13.11,0,0,1,355.75,170.54Zm-3.54.46a15.4,15.4,0,0,0-2.24,4.74,9.67,9.67,0,0,1-3.36-1.36A13,13,0,0,1,352.21,171Zm-5.8,21.21a9.55,9.55,0,0,1,3.15-1.34,12.43,12.43,0,0,0,2.39,4.81A12.79,12.79,0,0,1,346.41,192.21Zm11.33,3.89a14.19,14.19,0,0,1-4.54-.16h0a10.6,10.6,0,0,1-2.95-5.3,26,26,0,0,1,10.39,0,10.53,10.53,0,0,1-3,5.3Zm1.29-.28a12.49,12.49,0,0,0,2.44-4.95,11.7,11.7,0,0,1,3.54,1.47,12.62,12.62,0,0,1-6,3.41Zm2.62-5.69a19.89,19.89,0,0,0,.35-2l-.81.19c-.09.55-.18,1.1-.3,1.61a27.07,27.07,0,0,0-10.76,0,13.63,13.63,0,0,1-.3-1.52.43.43,0,0,1,0-.16L349,188a4.17,4.17,0,0,0,0,.5,8.48,8.48,0,0,0,.3,1.61,10.13,10.13,0,0,0-3.53,1.5A12.8,12.8,0,0,1,346,175a11,11,0,0,0,3.68,1.52c-.13.43-.23.89-.32,1.35s0,.44-.14.65l.83-.19v-.3c.11-.46.21-.91.34-1.33a25.58,25.58,0,0,0,5.39.42,26.09,26.09,0,0,0,4.91-.46c.12.48.25,1,.35,1.51l.82.19c-.13-.64-.27-1.22-.43-1.77a13.5,13.5,0,0,0,4.07-1.6,12.76,12.76,0,0,1,.1,16.77,12.73,12.73,0,0,0-3.92-1.72Z" fill="#5ea0ef"/>
      <path d="M346.36,179.84a14.13,14.13,0,0,1,2.05-.14,4.27,4.27,0,0,1,3,.92,3.52,3.52,0,0,1,1.05,2.58,4,4,0,0,1-1.08,2.9,4.63,4.63,0,0,1-3.29,1.08,17.48,17.48,0,0,1-1.77-.09Zm1,6.59a5.35,5.35,0,0,0,1,0,2.86,2.86,0,0,0,3.16-2.52,2.58,2.58,0,0,0,0-.68,2.66,2.66,0,0,0-2.4-2.88,3.19,3.19,0,0,0-.62,0,5.24,5.24,0,0,0-1.12,0Z" fill="#fff"/>
      <path d="M353.73,187.11v-7.45h1l2.39,3.72a19.62,19.62,0,0,1,1.34,2.42h0c-.08-1-.1-1.89-.1-3.06v-3.08h.88v7.45h-1L356,183.38c-.52-.83-1-1.77-1.4-2.48h0v6.26Z" fill="#fff"/>
      <path d="M360.86,185.94a3.6,3.6,0,0,0,1.76.48c1,0,1.56-.52,1.56-1.28s-.39-1.09-1.4-1.46-2-1.06-2-2.12a2.16,2.16,0,0,1,2.28-2h.14a3.6,3.6,0,0,1,1.65.35l-.29.8a2.78,2.78,0,0,0-1.41-.35c-1,0-1.41.6-1.41,1.11s.46,1,1.48,1.43a2.51,2.51,0,0,1,1.91,2.19c0,1.1-.85,2.14-2.62,2.14a3.8,3.8,0,0,1-1.89-.48Z" fill="#fff"/>
    </g>
    <g>
      <path d="M422.29,197.41a1.06,1.06,0,0,1-1.09,1H404.31a1.06,1.06,0,0,1-1.1-1V170a1,1,0,0,1,1.1-1H421.2a1,1,0,0,1,1.09,1Z" fill="url(#linear-gradient-13)"/>
      <path d="M406,181.58a2.2,2.2,0,0,1,2-2.3h9.53a2.2,2.2,0,0,1,2,2.3h0a2.19,2.19,0,0,1-2,2.38H408.1a2.19,2.19,0,0,1-2-2.29Z" fill="#003067"/>
      <path d="M406,174.78a2.17,2.17,0,0,1,2-2.28h9.53a2.18,2.18,0,0,1,2,2.28h0a2.2,2.2,0,0,1-2,2.3H408.1a2.2,2.2,0,0,1-2-2.3Z" fill="#003067"/>
      <circle cx="408.69" cy="174.78" r="1.53" fill="#50e6ff"/>
      <circle cx="408.69" cy="181.58" r="1.53" fill="#50e6ff"/>
    </g>
    <g>
      <circle cx="428.29" cy="169.41" r="9" fill="url(#radial-gradient-2)"/>
      <circle cx="428.34" cy="169.41" r="7.84" fill="#fff"/>
      <rect id="aceb7cb9-58cb-48fa-8e61-5ef12bf99b74" x="431.92" y="164.91" width="1.34" height="0.43" transform="translate(9.95 354.25) rotate(-45)" fill="#7a7a7a"/>
      <rect id="ebb8133f-edd1-4f29-a441-eb0a438d6dc2" x="433.64" y="169.18" width="1.34" height="0.43" fill="#7a7a7a"/>
      <rect id="af989baf-d5e3-49e7-86f6-e72de83ca00b" x="432.32" y="172.94" width="0.43" height="1.34" transform="translate(3.93 356.7) rotate(-45)" fill="#7a7a7a"/>
      <rect id="a05e3ec9-3b82-44cd-81fb-376dc2152cdb" x="428.11" y="174.69" width="0.43" height="1.34" fill="#7a7a7a"/>
      <rect id="b16f4a81-ab50-4cf1-9c62-0a7141b15bae" x="423.81" y="164.41" width="0.43" height="1.34" transform="translate(7.46 348.18) rotate(-45)" fill="#7a7a7a"/>
      <rect id="a2d229fb-1605-4450-a05f-6e35f6de0534" x="423.42" y="173.43" width="1.34" height="0.43" transform="translate(1.43 350.74) rotate(-45)" fill="#7a7a7a"/>
      <rect id="b198c913-4b35-4230-bc4f-74b3884eed78" x="421.59" y="169.18" width="1.34" height="0.43" fill="#7a7a7a"/>
      <rect x="427.79" y="162.78" width="1.21" height="6.9" rx="0.55" fill="#7a7a7a"/>
      <rect x="429.4" y="168.93" width="1.21" height="4.32" rx="0.55" transform="translate(4.97 354.17) rotate(-45)" fill="#7a7a7a"/>
      <circle cx="428.34" cy="169.4" r="1.27" fill="url(#radial-gradient-3)"/>
    </g>
    <line x1="389.29" y1="87.21" x2="389.29" y2="150.41" fill="none" stroke="#231f20"/>
    <line x1="464.29" y1="68.74" x2="405.81" y2="68.74" fill="none" stroke="#231f20"/>
    <path d="M505.59,71.2a9.4,9.4,0,0,0-8.06-9.12,11.84,11.84,0,0,0-12.07-11.47,12.12,12.12,0,0,0-11.47,8,11.16,11.16,0,0,0-9.7,10.9,11.49,11.49,0,0,0,11.65,11.07h20.39A9.53,9.53,0,0,0,505.59,71.2Z" fill="url(#linear-gradient-14)"/>
    <rect x="102.5" y="160.41" width="90" height="40.05" fill="#fff" stroke="#75757a" stroke-miterlimit="10" stroke-opacity="0.3" stroke-width="0.5"/>
    <g>
      <path d="M126.7,168.68h-1.07v-3.42A6.43,6.43,0,0,0,124,160.9a5.28,5.28,0,0,0-4.1-1.86,5.4,5.4,0,0,0-4.11,1.86,6.39,6.39,0,0,0-1.67,4.36v3.42h-.89a.76.76,0,0,0-.76.76v8.84a.76.76,0,0,0,.76.76h13.5a.8.8,0,0,0,.78-.76v-8.84A.78.78,0,0,0,126.7,168.68Zm-3.74,0h-6.18v-3.53a3.56,3.56,0,0,1,1-2.35,2.81,2.81,0,0,1,2.1-1,3,3,0,0,1,2.45,1.44h0a3.23,3.23,0,0,1,.67,1.91Z" fill="url(#linear-gradient-15)"/>
      <path d="M126.74,168.68H113.22a.78.78,0,0,0-.5.19l14.51,10a.78.78,0,0,0,.27-.59v-8.87A.77.77,0,0,0,126.74,168.68Z" fill="#50e6ff"/>
      <path d="M113.23,168.68h13.52a.75.75,0,0,1,.49.19l-14.5,10a.74.74,0,0,1-.28-.59v-8.87A.78.78,0,0,1,113.23,168.68Z" fill="#fff" opacity="0.2" style="isolation: isolate"/>
      <path d="M118.64,170.82l1.33-1.33a.07.07,0,0,1,.1,0l1.32,1.33a.07.07,0,0,1,0,.09s0,0,0,0h-.83a.09.09,0,0,0-.08.07h0v1.78h-.89V171a.08.08,0,0,0-.07-.07h-.83a.07.07,0,0,1-.07-.07A.05.05,0,0,1,118.64,170.82Zm2.74,6.08-1.32,1.33a.07.07,0,0,1-.1,0l-1.32-1.33v-.1h.78a.08.08,0,0,0,.07-.07h0V175a0,0,0,0,1,0-.07h.83a.09.09,0,0,1,0,.07v1.72a.07.07,0,0,0,.07.07h.78C121.39,176.8,121.42,176.87,121.38,176.9Zm-5.22-1.71v-.78a.07.07,0,0,0-.07-.07h-1.72a.09.09,0,0,1,0-.07v-.82a.09.09,0,0,1,0-.07h1.79v-.81a.07.07,0,0,1,.1,0l0,0,1.34,1.24m0,.1-1.34,1.32a.07.07,0,0,1-.1,0,.08.08,0,0,1,0,0Zm6.24-1.34v.78a0,0,0,0,0,.07,0h1.71a.07.07,0,0,1,.06.07v.83a.07.07,0,0,1-.06.07h-1.71a.07.07,0,0,0-.07.07h0v.77a.06.06,0,0,1-.1,0l0,0-1.33-1.32a.09.09,0,0,1,0-.1l1.33-1.33a.09.09,0,0,1,.13,0A.1.1,0,0,1,123.86,172.57Z" fill="#fff"/>
    </g>
    <g>
      <g>
        <rect x="359.97" y="47.21" width="32" height="32.04" fill="#fff" stroke="#75757a" stroke-miterlimit="10" stroke-opacity="0.7" stroke-width="0.5"/>
        <g>
          <path d="M378.54,60.69h-5.07v5.07h5.07Z" fill="#0078d4"/>
          <path d="M385.57,53.62h-4v1h2.29l-4.69,4.69.7.71,4.73-4.73v2.37h1v-4Z" fill="#50e6ff"/>
          <path d="M385.56,72.81h0v-4h-1v2.3l-4.69-4.7-.7.71,4.72,4.73h-2.37v1Z" fill="#50e6ff"/>
          <path d="M366.36,72.81h4v-1h-2.3l4.69-4.7-.7-.7-4.73,4.73V68.78h-1v4Z" fill="#50e6ff"/>
          <path d="M366.38,53.62h0v4h1v-2.3l4.7,4.69.7-.7L368,54.61h2.38v-1h-4Z" fill="#50e6ff"/>
        </g>
      </g>
      <g>
        <rect x="374.41" y="55.18" width="32" height="32.04" fill="#fff" stroke="#75757a" stroke-miterlimit="10" stroke-opacity="0.7" stroke-width="0.5"/>
        <g>
          <path d="M393,68.66h-5.07v5.07H393Z" fill="#0078d4"/>
          <path d="M400,61.58h-4v1h2.3l-4.7,4.7.7.7L399,63.24v2.38h1v-4Z" fill="#50e6ff"/>
          <path d="M400,80.77h0v-4h-1V79l-4.7-4.69-.7.7,4.73,4.73H396v1h4Z" fill="#50e6ff"/>
          <path d="M380.81,80.77h4v-1h-2.3l4.69-4.69-.7-.71-4.73,4.73V76.74h-1v4Z" fill="#50e6ff"/>
          <path d="M380.82,61.58h0v4h1v-2.3l4.69,4.7.7-.71-4.72-4.73h2.37v-1Z" fill="#50e6ff"/>
        </g>
      </g>
    </g>
  </g>
  <g id="Text">
    <g>
      <path d="M40.75,13.71H38.69l-.6-1.87h-3l-.59,1.87h-2l3.06-8.4h2.24Zm-3.09-3.32-.91-2.83a4.38,4.38,0,0,1-.14-.75h0a3.16,3.16,0,0,1-.15.73l-.91,2.85Z" fill="#1e1e1e"/>
      <path d="M46.37,13.71H41v-.77l3-3.87H41.28V7.71h5.07v.91l-2.86,3.72h2.88Z" fill="#1e1e1e"/>
      <path d="M53.07,13.71H51.22v-.92h0a2.09,2.09,0,0,1-1.83,1.07c-1.39,0-2.09-.85-2.09-2.53V7.71h1.85v3.46c0,.84.33,1.27,1,1.27a1,1,0,0,0,.79-.35,1.41,1.41,0,0,0,.3-.95V7.71h1.85Z" fill="#1e1e1e"/>
      <path d="M58.54,9.38a1.61,1.61,0,0,0-.78-.18,1.1,1.1,0,0,0-.94.44,1.9,1.9,0,0,0-.34,1.2v2.87H54.63v-6h1.85V8.82h0A1.6,1.6,0,0,1,58.08,7.6a1.35,1.35,0,0,1,.46.07Z" fill="#1e1e1e"/>
      <path d="M64.75,11.24H60.83c.06.87.61,1.3,1.65,1.3a3.15,3.15,0,0,0,1.74-.47v1.34a4.56,4.56,0,0,1-2.16.45,3,3,0,0,1-2.26-.81A3,3,0,0,1,59,10.8a3.23,3.23,0,0,1,.86-2.36A2.87,2.87,0,0,1,62,7.56a2.63,2.63,0,0,1,2,.78,3,3,0,0,1,.72,2.12ZM63,10.1c0-.86-.35-1.29-1-1.29a1,1,0,0,0-.78.37,1.75,1.75,0,0,0-.39.92Z" fill="#1e1e1e"/>
      <path d="M69,13.39V11.51a3.45,3.45,0,0,0,1.11.64,3.4,3.4,0,0,0,1.21.22,2.35,2.35,0,0,0,.62-.07,1.32,1.32,0,0,0,.45-.18.67.67,0,0,0,.26-.27.63.63,0,0,0,.09-.33.74.74,0,0,0-.14-.44,1.47,1.47,0,0,0-.38-.36,6,6,0,0,0-.58-.32l-.72-.31a3.56,3.56,0,0,1-1.47-1,2.19,2.19,0,0,1-.48-1.43,2.25,2.25,0,0,1,.26-1.13,2.31,2.31,0,0,1,.72-.77,3.12,3.12,0,0,1,1-.45,5.21,5.21,0,0,1,1.27-.14,6.81,6.81,0,0,1,1.16.08,4.22,4.22,0,0,1,.93.24V7.24A2.9,2.9,0,0,0,73.85,7a3.82,3.82,0,0,0-.51-.18,3.21,3.21,0,0,0-.52-.11,4.57,4.57,0,0,0-.5,0,2.1,2.1,0,0,0-.58.07,1.32,1.32,0,0,0-.45.17.81.81,0,0,0-.28.27.59.59,0,0,0-.1.34.7.7,0,0,0,.11.38,1.21,1.21,0,0,0,.32.32,2.76,2.76,0,0,0,.49.29c.2.1.42.2.67.3a7.55,7.55,0,0,1,.9.45,2.87,2.87,0,0,1,.69.53,2.15,2.15,0,0,1,.44.68,2.5,2.5,0,0,1,.15.9,2.48,2.48,0,0,1-.26,1.18,2.15,2.15,0,0,1-.73.77,3.15,3.15,0,0,1-1.06.43,6.61,6.61,0,0,1-1.28.13A7,7,0,0,1,70,13.74,4.42,4.42,0,0,1,69,13.39Z" fill="#1e1e1e"/>
      <path d="M79.21,13.64a2.75,2.75,0,0,1-1.23.22c-1.31,0-2-.68-2-2V9.07h-1V7.71h1V6.41l1.84-.52V7.71h1.35V9.07H77.86V11.5c0,.63.25.94.75.94a1.31,1.31,0,0,0,.6-.17Z" fill="#1e1e1e"/>
      <path d="M85.25,13.71H83.5v-.86h0a2,2,0,0,1-1.79,1,1.86,1.86,0,0,1-1.37-.5,1.79,1.79,0,0,1-.5-1.32c0-1.16.69-1.84,2.07-2l1.63-.21c0-.66-.36-1-1.07-1a3.72,3.72,0,0,0-2,.64V8.07a4.62,4.62,0,0,1,1.06-.36,5.63,5.63,0,0,1,1.22-.15,2.27,2.27,0,0,1,2.57,2.56Zm-1.74-2.44v-.4L82.42,11c-.6.08-.91.35-.91.81a.69.69,0,0,0,.22.52.84.84,0,0,0,.6.2,1.1,1.1,0,0,0,.85-.36A1.29,1.29,0,0,0,83.51,11.27Z" fill="#1e1e1e"/>
      <path d="M91.26,13.49a3.68,3.68,0,0,1-1.81.37A3.06,3.06,0,0,1,87.21,13a2.9,2.9,0,0,1-.86-2.16,3.22,3.22,0,0,1,.92-2.42,3.42,3.42,0,0,1,2.45-.88,3.26,3.26,0,0,1,1.54.28V9.41A2.18,2.18,0,0,0,90,9a1.71,1.71,0,0,0-1.26.47,1.73,1.73,0,0,0-.46,1.28A1.69,1.69,0,0,0,88.68,12a1.63,1.63,0,0,0,1.23.46A2.43,2.43,0,0,0,91.26,12Z" fill="#1e1e1e"/>
      <path d="M98.48,13.71H96.26l-1.91-3h0v3H92.47V4.83h1.85v5.65h0l1.78-2.77h2.2l-2.15,2.82Z" fill="#1e1e1e"/>
      <path d="M109.94,13.71h-1.89V10.29h-3.48v3.42h-1.9V5.31h1.9V8.66h3.48V5.31h1.89Z" fill="#1e1e1e"/>
      <path d="M117.39,13.71h-1.85v-.92h0a2.1,2.1,0,0,1-1.83,1.07c-1.39,0-2.09-.85-2.09-2.53V7.71h1.85v3.46c0,.84.33,1.27,1,1.27a1,1,0,0,0,.8-.35,1.41,1.41,0,0,0,.3-.95V7.71h1.85Z" fill="#1e1e1e"/>
      <path d="M120.82,13h0v.7h-1.86V4.83h1.86V8.61h0a2.2,2.2,0,0,1,2-1,2.16,2.16,0,0,1,1.79.8,3.43,3.43,0,0,1,.62,2.18,3.72,3.72,0,0,1-.73,2.41,2.4,2.4,0,0,1-2,.91A1.91,1.91,0,0,1,120.82,13Zm0-2.53v.62a1.44,1.44,0,0,0,.33,1,1.1,1.1,0,0,0,.86.38,1.15,1.15,0,0,0,1-.49,2.4,2.4,0,0,0,.35-1.39A1.9,1.9,0,0,0,123,9.4a1.09,1.09,0,0,0-.91-.42,1.18,1.18,0,0,0-.93.42A1.58,1.58,0,0,0,120.77,10.48Z" fill="#1e1e1e"/>
      <path d="M137.15,13.71h-1.9V10.29h-3.48v3.42h-1.89V5.31h1.89V8.66h3.48V5.31h1.9Z" fill="#1e1e1e"/>
      <path d="M141.75,13.86a3.19,3.19,0,0,1-2.36-.85,3.05,3.05,0,0,1-.86-2.28,3.07,3.07,0,0,1,.89-2.33,3.38,3.38,0,0,1,2.41-.84,3.16,3.16,0,0,1,2.34.84,3,3,0,0,1,.85,2.23,3.19,3.19,0,0,1-.87,2.36A3.27,3.27,0,0,1,141.75,13.86ZM141.8,9a1.23,1.23,0,0,0-1,.45,2,2,0,0,0-.37,1.28c0,1.15.47,1.73,1.4,1.73s1.33-.59,1.33-1.78S142.69,9,141.8,9Z" fill="#1e1e1e"/>
      <path d="M145.83,13.55v-1.5a4.27,4.27,0,0,0,.91.41,3.08,3.08,0,0,0,.86.14,1.84,1.84,0,0,0,.78-.14.43.43,0,0,0,.28-.41.36.36,0,0,0-.13-.29,1,1,0,0,0-.33-.21,3.72,3.72,0,0,0-.44-.16c-.16,0-.31-.1-.46-.15a4.68,4.68,0,0,1-.63-.29,2.16,2.16,0,0,1-.46-.36,1.44,1.44,0,0,1-.28-.48,2,2,0,0,1-.1-.64,1.69,1.69,0,0,1,.22-.86,1.78,1.78,0,0,1,.59-.6,2.64,2.64,0,0,1,.84-.34,4.46,4.46,0,0,1,1-.11,5.73,5.73,0,0,1,.81.06,7.84,7.84,0,0,1,.81.18V9.23a3.37,3.37,0,0,0-.76-.31,3.64,3.64,0,0,0-.79-.1,1.87,1.87,0,0,0-.34,0,1.51,1.51,0,0,0-.28.1.53.53,0,0,0-.2.16.38.38,0,0,0-.07.22.41.41,0,0,0,.11.28,1,1,0,0,0,.27.2,2.15,2.15,0,0,0,.38.15l.42.14a6.9,6.9,0,0,1,.66.28,2.18,2.18,0,0,1,.52.36,1.39,1.39,0,0,1,.32.48,1.62,1.62,0,0,1,.12.66,1.78,1.78,0,0,1-.23.91,1.9,1.9,0,0,1-.62.61,2.89,2.89,0,0,1-.88.35,5.1,5.1,0,0,1-1,.11A5.51,5.51,0,0,1,145.83,13.55Z" fill="#1e1e1e"/>
      <path d="M155.13,13.64a2.75,2.75,0,0,1-1.23.22c-1.31,0-2-.68-2-2V9.07h-1V7.71h1V6.41l1.84-.52V7.71h1.35V9.07h-1.35V11.5c0,.63.25.94.75.94a1.31,1.31,0,0,0,.6-.17Z" fill="#1e1e1e"/>
      <path d="M155.78,13.55v-1.5a4.27,4.27,0,0,0,.91.41,3.08,3.08,0,0,0,.86.14,1.84,1.84,0,0,0,.78-.14.43.43,0,0,0,.28-.41.36.36,0,0,0-.13-.29,1,1,0,0,0-.33-.21,3.72,3.72,0,0,0-.44-.16c-.16,0-.31-.1-.46-.15a4.68,4.68,0,0,1-.63-.29,2.16,2.16,0,0,1-.46-.36,1.44,1.44,0,0,1-.28-.48,1.76,1.76,0,0,1-.1-.64,1.69,1.69,0,0,1,.22-.86,1.78,1.78,0,0,1,.59-.6,2.64,2.64,0,0,1,.84-.34,4.46,4.46,0,0,1,1-.11,5.73,5.73,0,0,1,.81.06,7.13,7.13,0,0,1,.8.18V9.23a3.12,3.12,0,0,0-.75-.31,3.64,3.64,0,0,0-.79-.1,1.87,1.87,0,0,0-.34,0,1.51,1.51,0,0,0-.28.1.46.46,0,0,0-.2.16.38.38,0,0,0-.07.22.41.41,0,0,0,.11.28,1,1,0,0,0,.27.2,2.15,2.15,0,0,0,.38.15l.41.14a6.16,6.16,0,0,1,.67.28,2.18,2.18,0,0,1,.52.36,1.39,1.39,0,0,1,.32.48,1.62,1.62,0,0,1,.12.66,1.78,1.78,0,0,1-.23.91,1.9,1.9,0,0,1-.62.61,2.89,2.89,0,0,1-.88.35,5.1,5.1,0,0,1-1,.11A5.46,5.46,0,0,1,155.78,13.55Z" fill="#1e1e1e"/>
    </g>
    <g>
      <path d="M145.84,179.29h-1v-3.83h-4.34v3.83h-1v-8.4h1v3.68h4.34v-3.68h1Z" fill="#1e1e1e"/>
      <path d="M152.69,173.29l-2.76,7c-.49,1.24-1.19,1.86-2.08,1.86a2.16,2.16,0,0,1-.62-.07v-.86a1.7,1.7,0,0,0,.56.1,1.17,1.17,0,0,0,1.09-.87l.48-1.13-2.34-6h1.07l1.62,4.62c0,.05.06.21.12.45h0c0-.09.06-.24.12-.44l1.7-4.63Z" fill="#1e1e1e"/>
      <path d="M154.7,178.42h0v3.63h-1v-8.76h1v1.05h0a2.3,2.3,0,0,1,2.08-1.19,2.23,2.23,0,0,1,1.81.8,3.37,3.37,0,0,1,.65,2.16,3.74,3.74,0,0,1-.73,2.41,2.44,2.44,0,0,1-2,.91A2,2,0,0,1,154.7,178.42Zm0-2.42v.84a1.77,1.77,0,0,0,.48,1.26,1.59,1.59,0,0,0,1.23.52,1.6,1.6,0,0,0,1.37-.67,3,3,0,0,0,.49-1.85,2.39,2.39,0,0,0-.46-1.57,1.53,1.53,0,0,0-1.25-.57,1.7,1.7,0,0,0-1.35.58A2.15,2.15,0,0,0,154.68,176Z" fill="#1e1e1e"/>
      <path d="M165.6,176.53h-4.24a2.21,2.21,0,0,0,.54,1.55,1.85,1.85,0,0,0,1.42.54,2.93,2.93,0,0,0,1.86-.67v.91a3.52,3.52,0,0,1-2.09.57,2.52,2.52,0,0,1-2-.82,3.36,3.36,0,0,1-.73-2.3,3.29,3.29,0,0,1,.8-2.28,2.53,2.53,0,0,1,2-.88,2.25,2.25,0,0,1,1.82.76,3.18,3.18,0,0,1,.65,2.12Zm-1-.82a2,2,0,0,0-.4-1.29,1.36,1.36,0,0,0-1.1-.46,1.55,1.55,0,0,0-1.15.48,2.19,2.19,0,0,0-.59,1.27Z" fill="#1e1e1e"/>
      <path d="M170.18,174.26a1.18,1.18,0,0,0-.73-.19,1.23,1.23,0,0,0-1,.58,2.72,2.72,0,0,0-.41,1.58v3.06h-1v-6h1v1.24h0a2.07,2.07,0,0,1,.63-1,1.42,1.42,0,0,1,.94-.36,1.5,1.5,0,0,1,.58.09Z" fill="#1e1e1e"/>
      <path d="M174.29,176.32h-3.2v-.75h3.2Z" fill="#1e1e1e"/>
      <path d="M182.39,170.89l-3.11,8.4H178.2l-3-8.4h1.1l2.32,6.66a3.51,3.51,0,0,1,.17.74h0a3.44,3.44,0,0,1,.19-.75l2.37-6.65Z" fill="#1e1e1e"/>
      <path d="M118,184.09l-3.11,8.4h-1.08l-3.05-8.4h1.1l2.32,6.66a3.51,3.51,0,0,1,.17.74h0a3.44,3.44,0,0,1,.19-.75l2.37-6.65Z" fill="#1e1e1e"/>
      <path d="M119.55,185a.6.6,0,0,1-.44-.18.61.61,0,0,1-.18-.45.61.61,0,0,1,.62-.62.63.63,0,0,1,.64.62.6.6,0,0,1-.19.44A.58.58,0,0,1,119.55,185Zm.47,7.52h-1v-6h1Z" fill="#1e1e1e"/>
      <path d="M125.1,187.46a1.18,1.18,0,0,0-.73-.19,1.23,1.23,0,0,0-1,.58,2.64,2.64,0,0,0-.41,1.58v3.06h-1v-6h1v1.24h0a2.07,2.07,0,0,1,.63-1,1.4,1.4,0,0,1,.94-.36,1.5,1.5,0,0,1,.58.09Z" fill="#1e1e1e"/>
      <path d="M128.92,192.43a1.8,1.8,0,0,1-.9.19c-1.05,0-1.57-.59-1.57-1.76v-3.55h-1v-.82h1V185l1-.31v1.78h1.51v.82h-1.51v3.38a1.45,1.45,0,0,0,.2.86.84.84,0,0,0,.68.26,1,1,0,0,0,.63-.2Z" fill="#1e1e1e"/>
      <path d="M135.06,192.49h-1v-1h0a2,2,0,0,1-1.85,1.09c-1.43,0-2.14-.85-2.14-2.55v-3.59H131v3.43c0,1.27.49,1.9,1.45,1.9a1.46,1.46,0,0,0,1.16-.52,2,2,0,0,0,.46-1.35v-3.46h1Z" fill="#1e1e1e"/>
      <path d="M141.29,192.49h-1v-.94h0a2,2,0,0,1-1.85,1.08,2,2,0,0,1-1.4-.47,1.65,1.65,0,0,1-.51-1.26c0-1.13.66-1.78,2-2l1.8-.25c0-1-.41-1.53-1.24-1.53a2.9,2.9,0,0,0-2,.74v-1a3.76,3.76,0,0,1,2-.56c1.41,0,2.11.74,2.11,2.24Zm-1-3-1.45.2a2.65,2.65,0,0,0-1,.33,1,1,0,0,0-.34.85.9.9,0,0,0,.32.71,1.19,1.19,0,0,0,.83.28,1.55,1.55,0,0,0,1.18-.5,1.8,1.8,0,0,0,.47-1.27Z" fill="#1e1e1e"/>
      <path d="M144.06,192.49h-1v-8.88h1Z" fill="#1e1e1e"/>
      <path d="M149,192.15V191a2.23,2.23,0,0,0,.48.32,4.51,4.51,0,0,0,1.2.38,3.09,3.09,0,0,0,.58.06,2.27,2.27,0,0,0,1.35-.34,1.15,1.15,0,0,0,.45-1,1.1,1.1,0,0,0-.15-.59,1.76,1.76,0,0,0-.41-.46,4,4,0,0,0-.63-.4l-.77-.4c-.29-.15-.57-.3-.82-.45a3.2,3.2,0,0,1-.66-.51,2.1,2.1,0,0,1-.45-.62,2.07,2.07,0,0,1-.16-.82,2,2,0,0,1,.25-1,2.13,2.13,0,0,1,.67-.7,3,3,0,0,1,.93-.41A4.29,4.29,0,0,1,152,184a4.08,4.08,0,0,1,1.81.3v1.1a3.31,3.31,0,0,0-1.91-.51,3.47,3.47,0,0,0-.64.06,2,2,0,0,0-.58.22,1.42,1.42,0,0,0-.41.4,1.07,1.07,0,0,0-.16.58,1.22,1.22,0,0,0,.12.56,1.31,1.31,0,0,0,.36.43,3.31,3.31,0,0,0,.57.37c.22.12.48.26.78.4s.58.31.85.47a3.59,3.59,0,0,1,.71.54,2.42,2.42,0,0,1,.48.67,1.84,1.84,0,0,1,.18.83,2.14,2.14,0,0,1-.24,1,1.93,1.93,0,0,1-.66.7,2.8,2.8,0,0,1-.95.39,5.24,5.24,0,0,1-1.14.12l-.49,0c-.19,0-.39-.06-.6-.1a4.74,4.74,0,0,1-.57-.15A2,2,0,0,1,149,192.15Z" fill="#1e1e1e"/>
      <path d="M163.05,186.49l-1.8,6h-1l-1.24-4.3a2.26,2.26,0,0,1-.09-.55h0a2.44,2.44,0,0,1-.12.54l-1.34,4.31h-1l-1.82-6h1l1.24,4.51a2.38,2.38,0,0,1,.08.54h0a2.33,2.33,0,0,1,.11-.55l1.38-4.5h.88l1.24,4.52a3.36,3.36,0,0,1,.09.54h0a3.52,3.52,0,0,1,.1-.54l1.22-4.52Z" fill="#1e1e1e"/>
      <path d="M164.66,185a.6.6,0,0,1-.44-.18.61.61,0,0,1-.18-.45.61.61,0,0,1,.62-.62.64.64,0,0,1,.45.18.6.6,0,0,1,.18.44.59.59,0,0,1-.18.44A.61.61,0,0,1,164.66,185Zm.47,7.52h-1v-6h1Z" fill="#1e1e1e"/>
      <path d="M169.86,192.43a1.82,1.82,0,0,1-.9.19c-1.05,0-1.58-.59-1.58-1.76v-3.55h-1v-.82h1V185l1-.31v1.78h1.52v.82h-1.52v3.38a1.37,1.37,0,0,0,.21.86.83.83,0,0,0,.68.26,1.05,1.05,0,0,0,.63-.2Z" fill="#1e1e1e"/>
      <path d="M175.23,192.21a3.1,3.1,0,0,1-1.64.42,2.69,2.69,0,0,1-2.07-.84,3,3,0,0,1-.79-2.16,3.3,3.3,0,0,1,.85-2.38,3,3,0,0,1,2.27-.9,3.23,3.23,0,0,1,1.39.29v1a2.4,2.4,0,0,0-1.43-.47,1.93,1.93,0,0,0-1.51.66,2.5,2.5,0,0,0-.59,1.73,2.36,2.36,0,0,0,.56,1.66,1.89,1.89,0,0,0,1.48.61,2.41,2.41,0,0,0,1.48-.52Z" fill="#1e1e1e"/>
      <path d="M181.66,192.49h-1V189c0-1.25-.46-1.87-1.39-1.87a1.53,1.53,0,0,0-1.19.54,2,2,0,0,0-.48,1.39v3.4h-1v-8.88h1v3.88h0a2.17,2.17,0,0,1,2-1.14c1.36,0,2,.81,2,2.44Z" fill="#1e1e1e"/>
    </g>
    <g>
      <path d="M136.06,222.45v-8.4h2.39a2.65,2.65,0,0,1,1.73.53,1.75,1.75,0,0,1,.64,1.39,2,2,0,0,1-.39,1.24,2.09,2.09,0,0,1-1.07.75v0a2.1,2.1,0,0,1,1.36.64,2,2,0,0,1,.51,1.41,2.16,2.16,0,0,1-.77,1.74,2.87,2.87,0,0,1-2,.67Zm1-7.51v2.71h1a1.91,1.91,0,0,0,1.27-.39,1.35,1.35,0,0,0,.47-1.1c0-.81-.54-1.22-1.62-1.22Zm0,3.6v3h1.34a2,2,0,0,0,1.34-.41,1.4,1.4,0,0,0,.48-1.12c0-1-.67-1.49-2-1.49Z" fill="#1e1e1e"/>
      <path d="M151.5,222.45h-1v-5.64c0-.44,0-1,.08-1.63h0a4.19,4.19,0,0,1-.25.81l-2.87,6.46H147L144.12,216a4.54,4.54,0,0,1-.26-.86h0c0,.34,0,.88,0,1.65v5.62h-.95v-8.4h1.3l2.58,5.86a6,6,0,0,1,.38,1h0c.17-.46.3-.81.4-1l2.63-5.83h1.23Z" fill="#1e1e1e"/>
      <path d="M159.43,222.1a4.89,4.89,0,0,1-2.32.49,3.74,3.74,0,0,1-2.87-1.15,4.26,4.26,0,0,1-1.08-3,4.46,4.46,0,0,1,1.22-3.26,4.08,4.08,0,0,1,3.07-1.24,4.92,4.92,0,0,1,2,.34v1.05a4.05,4.05,0,0,0-2-.5,3.06,3.06,0,0,0-2.35,1,3.62,3.62,0,0,0-.9,2.58,3.49,3.49,0,0,0,.84,2.45,2.91,2.91,0,0,0,2.21.91,4.11,4.11,0,0,0,2.19-.57Z" fill="#1e1e1e"/>
    </g>
    <g>
      <path d="M26.23,145.41h-1.9V142H20.85v3.43H19V137h1.89v3.36h3.48V137h1.9Z" fill="#1e1e1e"/>
      <path d="M33,145.41H31.21v-.87h0a1.94,1.94,0,0,1-1.79,1,1.85,1.85,0,0,1-1.37-.49,1.75,1.75,0,0,1-.5-1.32c0-1.17.69-1.84,2.07-2l1.62-.22c0-.65-.35-1-1.06-1a3.59,3.59,0,0,0-2,.64v-1.4a4.67,4.67,0,0,1,1.06-.35,5.56,5.56,0,0,1,1.22-.15A2.26,2.26,0,0,1,33,141.82ZM31.22,143v-.41l-1.09.15q-.9.1-.9.81a.71.71,0,0,0,.22.52.89.89,0,0,0,.6.2,1.11,1.11,0,0,0,.85-.36A1.33,1.33,0,0,0,31.22,143Z" fill="#1e1e1e"/>
      <path d="M38.34,141.08a1.61,1.61,0,0,0-.78-.19,1.12,1.12,0,0,0-.94.45,1.88,1.88,0,0,0-.34,1.2v2.87H34.43v-6h1.85v1.11h0a1.61,1.61,0,0,1,1.59-1.22,1.12,1.12,0,0,1,.45.07Z" fill="#1e1e1e"/>
      <path d="M45,145.41H43.18v-.83h0a2.06,2.06,0,0,1-1.85,1,2.26,2.26,0,0,1-1.81-.79,3.28,3.28,0,0,1-.69-2.22,3.52,3.52,0,0,1,.76-2.38,2.45,2.45,0,0,1,2-.9,1.68,1.68,0,0,1,1.61.83h0v-3.57H45Zm-1.82-2.92V142a1.43,1.43,0,0,0-.34-1,1.13,1.13,0,0,0-.88-.38,1.12,1.12,0,0,0-1,.48,2.26,2.26,0,0,0-.35,1.33,1.91,1.91,0,0,0,.34,1.22,1.19,1.19,0,0,0,1.84,0A1.91,1.91,0,0,0,43.21,142.49Z" fill="#1e1e1e"/>
      <path d="M55.28,139.41l-1.73,6H51.6l-.88-3.52a3.59,3.59,0,0,1-.1-.77h0a4,4,0,0,1-.11.75l-.95,3.54H47.6l-1.7-6h1.89l.82,3.91a5,5,0,0,1,.09.67h0a3.65,3.65,0,0,1,.1-.69l1-3.89h1.77l.92,3.91a6,6,0,0,1,.09.68h0c0-.23.05-.45.09-.68l.78-3.91Z" fill="#1e1e1e"/>
      <path d="M61.15,145.41H59.4v-.87h0a1.94,1.94,0,0,1-1.78,1,1.88,1.88,0,0,1-1.38-.49,1.79,1.79,0,0,1-.5-1.32c0-1.17.69-1.84,2.07-2l1.63-.22c0-.65-.36-1-1.07-1a3.64,3.64,0,0,0-2,.64v-1.4a4.67,4.67,0,0,1,1.06-.35,5.63,5.63,0,0,1,1.22-.15,2.27,2.27,0,0,1,2.57,2.56ZM59.41,143v-.41l-1.09.15q-.9.1-.9.81a.67.67,0,0,0,.22.52.84.84,0,0,0,.59.2,1.1,1.1,0,0,0,.85-.36A1.29,1.29,0,0,0,59.41,143Z" fill="#1e1e1e"/>
      <path d="M66.53,141.08a1.67,1.67,0,0,0-.78-.19,1.14,1.14,0,0,0-1,.45,1.94,1.94,0,0,0-.34,1.2v2.87H62.61v-6h1.85v1.11h0a1.6,1.6,0,0,1,1.58-1.22,1.14,1.14,0,0,1,.46.07Z" fill="#1e1e1e"/>
      <path d="M72.73,142.93H68.82c.06.87.61,1.31,1.64,1.31a3.24,3.24,0,0,0,1.74-.47v1.34a4.63,4.63,0,0,1-2.16.44A2.79,2.79,0,0,1,67,142.5a3.2,3.2,0,0,1,.87-2.37,2.9,2.9,0,0,1,2.13-.87,2.6,2.6,0,0,1,2,.78,3,3,0,0,1,.72,2.11ZM71,141.8q0-1.29-1-1.29a1,1,0,0,0-.77.37,1.58,1.58,0,0,0-.39.92Z" fill="#1e1e1e"/>
      <path d="M82.33,145.41h-5V137h1.89v6.87h3.11Z" fill="#1e1e1e"/>
      <path d="M84.22,138.46a1.1,1.1,0,0,1-.77-.28.9.9,0,0,1-.3-.68.85.85,0,0,1,.3-.68,1.1,1.1,0,0,1,.77-.27,1.11,1.11,0,0,1,.77.27.88.88,0,0,1,.29.68.91.91,0,0,1-.29.69A1.11,1.11,0,0,1,84.22,138.46Zm.91,6.95H83.28v-6h1.85Z" fill="#1e1e1e"/>
      <path d="M90.6,137.94a1.92,1.92,0,0,0-.68-.14c-.6,0-.89.32-.89,1v.64H90.4v1.36H89v4.64H87.18v-4.64h-1v-1.36h1v-.75a2.15,2.15,0,0,1,.67-1.65,2.53,2.53,0,0,1,1.82-.63,3.09,3.09,0,0,1,.93.12Z" fill="#1e1e1e"/>
      <path d="M96.68,142.93H92.77c.06.87.61,1.31,1.64,1.31a3.24,3.24,0,0,0,1.74-.47v1.34a4.63,4.63,0,0,1-2.16.44,2.78,2.78,0,0,1-3.06-3.05,3.2,3.2,0,0,1,.87-2.37,2.9,2.9,0,0,1,2.13-.87,2.62,2.62,0,0,1,2,.78,3,3,0,0,1,.72,2.11ZM95,141.8c0-.86-.35-1.29-1-1.29a1,1,0,0,0-.77.37,1.65,1.65,0,0,0-.4.92Z" fill="#1e1e1e"/>
      <path d="M102.33,145.19a3.69,3.69,0,0,1-1.81.36,3.06,3.06,0,0,1-2.24-.84,2.87,2.87,0,0,1-.86-2.16,3.19,3.19,0,0,1,.92-2.41,3.38,3.38,0,0,1,2.45-.88,3.14,3.14,0,0,1,1.54.28v1.57a2.12,2.12,0,0,0-1.3-.43,1.7,1.7,0,0,0-1.26.46,1.75,1.75,0,0,0-.47,1.29,1.69,1.69,0,0,0,.45,1.25,1.64,1.64,0,0,0,1.22.45,2.43,2.43,0,0,0,1.36-.43Z" fill="#1e1e1e"/>
      <path d="M109.25,139.41l-2.43,6.48c-.59,1.56-1.47,2.33-2.65,2.33a3.46,3.46,0,0,1-1.11-.15V146.6a1.59,1.59,0,0,0,.8.21,1,1,0,0,0,1-.67l.32-.75-2.44-6h2.05l1.12,3.65a4.7,4.7,0,0,1,.16.8h0a4.24,4.24,0,0,1,.19-.79l1.13-3.66Z" fill="#1e1e1e"/>
      <path d="M114.43,145.19a3.69,3.69,0,0,1-1.81.36,3,3,0,0,1-2.24-.84,2.87,2.87,0,0,1-.86-2.16,3.19,3.19,0,0,1,.92-2.41,3.38,3.38,0,0,1,2.45-.88,3.14,3.14,0,0,1,1.54.28v1.57a2.12,2.12,0,0,0-1.3-.43,1.7,1.7,0,0,0-1.26.46,1.75,1.75,0,0,0-.47,1.29,1.69,1.69,0,0,0,.45,1.25,1.64,1.64,0,0,0,1.22.45,2.45,2.45,0,0,0,1.36-.43Z" fill="#1e1e1e"/>
      <path d="M117.49,145.41h-1.85v-8.89h1.85Z" fill="#1e1e1e"/>
      <path d="M124.44,142.93h-3.91c.06.87.61,1.31,1.64,1.31a3.24,3.24,0,0,0,1.74-.47v1.34a4.63,4.63,0,0,1-2.16.44,2.79,2.79,0,0,1-3.06-3.05,3.2,3.2,0,0,1,.87-2.37,2.9,2.9,0,0,1,2.13-.87,2.62,2.62,0,0,1,2,.78,3,3,0,0,1,.72,2.11Zm-1.72-1.13c0-.86-.34-1.29-1-1.29a1,1,0,0,0-.77.37,1.58,1.58,0,0,0-.39.92Z" fill="#1e1e1e"/>
      <path d="M136.31,145.41h-1.9V142h-3.48v3.43H129V137h1.9v3.36h3.48V137h1.9Z" fill="#1e1e1e"/>
      <path d="M140.91,145.55a3.23,3.23,0,0,1-2.36-.84,3.47,3.47,0,0,1,0-4.61,3.37,3.37,0,0,1,2.41-.84,3.18,3.18,0,0,1,2.34.84,3,3,0,0,1,.85,2.22,3.2,3.2,0,0,1-.87,2.37A3.31,3.31,0,0,1,140.91,145.55Zm0-4.87a1.26,1.26,0,0,0-1,.45,2,2,0,0,0-.36,1.28c0,1.15.46,1.72,1.39,1.72s1.33-.59,1.33-1.77S141.85,140.68,141,140.68Z" fill="#1e1e1e"/>
      <path d="M145,145.25v-1.5a4.06,4.06,0,0,0,.91.41,3,3,0,0,0,.86.13,1.86,1.86,0,0,0,.78-.13.43.43,0,0,0,.28-.41.35.35,0,0,0-.13-.29,1.17,1.17,0,0,0-.33-.21,3.72,3.72,0,0,0-.44-.16l-.47-.16a4.6,4.6,0,0,1-.63-.29,1.62,1.62,0,0,1-.45-.36,1.18,1.18,0,0,1-.28-.47,1.76,1.76,0,0,1-.1-.64,1.61,1.61,0,0,1,.22-.87,1.75,1.75,0,0,1,.59-.59,2.46,2.46,0,0,1,.83-.34,4.53,4.53,0,0,1,1-.11,5.52,5.52,0,0,1,.81.06,5.3,5.3,0,0,1,.81.18v1.43a2.76,2.76,0,0,0-.75-.31,3.11,3.11,0,0,0-.79-.1,1.87,1.87,0,0,0-.34,0,.91.91,0,0,0-.29.1.58.58,0,0,0-.19.15.36.36,0,0,0-.07.22.39.39,0,0,0,.11.28,1,1,0,0,0,.27.21l.38.15.41.14a4.66,4.66,0,0,1,.67.28,1.94,1.94,0,0,1,.51.36,1.25,1.25,0,0,1,.33.48,1.6,1.6,0,0,1,.12.65,1.65,1.65,0,0,1-.24.91,1.81,1.81,0,0,1-.61.62,2.7,2.7,0,0,1-.89.34,4.42,4.42,0,0,1-1,.11A5.4,5.4,0,0,1,145,145.25Z" fill="#1e1e1e"/>
      <path d="M154.29,145.34a2.82,2.82,0,0,1-1.24.21c-1.3,0-2-.67-2-2v-2.75h-1v-1.36h1v-1.3l1.84-.53v1.83h1.35v1.36h-1.35v2.43q0,.93.75.93a1.19,1.19,0,0,0,.6-.17Z" fill="#1e1e1e"/>
    </g>
    <g>
      <path d="M26.94,215.41V207h2.32q4.45,0,4.45,4.1a4.15,4.15,0,0,1-1.24,3.13,4.6,4.6,0,0,1-3.3,1.18Zm1-7.51v6.62h1.25a3.55,3.55,0,0,0,2.57-.89,3.29,3.29,0,0,0,.92-2.51q0-3.23-3.43-3.22Z" fill="#1e1e1e"/>
      <path d="M40.05,212.65H35.81a2.26,2.26,0,0,0,.54,1.54,1.85,1.85,0,0,0,1.42.55,2.94,2.94,0,0,0,1.87-.67v.9a3.46,3.46,0,0,1-2.1.58,2.54,2.54,0,0,1-2-.82,3.83,3.83,0,0,1,.06-4.58,2.54,2.54,0,0,1,2-.88,2.26,2.26,0,0,1,1.83.76,3.17,3.17,0,0,1,.64,2.11Zm-1-.82a2,2,0,0,0-.4-1.29,1.38,1.38,0,0,0-1.1-.47,1.58,1.58,0,0,0-1.16.49,2.24,2.24,0,0,0-.58,1.27Z" fill="#1e1e1e"/>
      <path d="M42.49,214.54h0v3.63h-1v-8.76h1v1.05h0a2.25,2.25,0,0,1,2.07-1.19,2.17,2.17,0,0,1,1.81.8,3.31,3.31,0,0,1,.65,2.16,3.71,3.71,0,0,1-.73,2.41,2.42,2.42,0,0,1-2,.91A2,2,0,0,1,42.49,214.54Zm0-2.42V213a1.8,1.8,0,0,0,.48,1.26,1.72,1.72,0,0,0,2.59-.15,3,3,0,0,0,.5-1.86,2.43,2.43,0,0,0-.46-1.57,1.54,1.54,0,0,0-1.26-.57,1.67,1.67,0,0,0-1.34.59A2.13,2.13,0,0,0,42.47,212.12Z" fill="#1e1e1e"/>
      <path d="M49.52,215.41h-1v-8.89h1Z" fill="#1e1e1e"/>
      <path d="M54,215.55a2.79,2.79,0,0,1-2.12-.84,3.12,3.12,0,0,1-.79-2.23,3.23,3.23,0,0,1,.82-2.36,3,3,0,0,1,2.23-.85,2.69,2.69,0,0,1,2.1.82,3.29,3.29,0,0,1,.75,2.29,3.21,3.21,0,0,1-.81,2.3A2.84,2.84,0,0,1,54,215.55Zm.07-5.48a1.83,1.83,0,0,0-1.46.63,2.59,2.59,0,0,0-.54,1.74,2.46,2.46,0,0,0,.54,1.68,1.87,1.87,0,0,0,1.46.62,1.79,1.79,0,0,0,1.44-.6,2.67,2.67,0,0,0,.5-1.72,2.71,2.71,0,0,0-.5-1.74A1.79,1.79,0,0,0,54,210.07Z" fill="#1e1e1e"/>
      <path d="M63.27,209.41l-2.76,7q-.73,1.86-2.07,1.86a1.93,1.93,0,0,1-.63-.08v-.86a1.84,1.84,0,0,0,.57.11,1.18,1.18,0,0,0,1.09-.87L60,215.4l-2.34-6h1.06L60.3,214c0,.06.06.21.12.46h0c0-.09.06-.24.12-.44l1.71-4.63Z" fill="#1e1e1e"/>
      <path d="M72.82,215.41h-1V212a2.57,2.57,0,0,0-.31-1.44,1.15,1.15,0,0,0-1-.45,1.29,1.29,0,0,0-1,.57A2.17,2.17,0,0,0,69,212v3.43h-1v-3.57c0-1.18-.45-1.77-1.36-1.77a1.28,1.28,0,0,0-1,.54,2.19,2.19,0,0,0-.41,1.37v3.43h-1v-6h1v1h0a2,2,0,0,1,1.86-1.09,1.73,1.73,0,0,1,1.7,1.24,2.14,2.14,0,0,1,2-1.24c1.32,0,2,.81,2,2.44Z" fill="#1e1e1e"/>
      <path d="M79.46,212.65H75.23a2.2,2.2,0,0,0,.53,1.54,1.85,1.85,0,0,0,1.42.55,2.94,2.94,0,0,0,1.87-.67v.9a3.46,3.46,0,0,1-2.1.58,2.54,2.54,0,0,1-2-.82,3.83,3.83,0,0,1,.06-4.58,2.54,2.54,0,0,1,2-.88,2.26,2.26,0,0,1,1.83.76,3.17,3.17,0,0,1,.64,2.11Zm-1-.82a2,2,0,0,0-.4-1.29,1.38,1.38,0,0,0-1.1-.47,1.58,1.58,0,0,0-1.16.49,2.24,2.24,0,0,0-.58,1.27Z" fill="#1e1e1e"/>
      <path d="M85.9,215.41h-1V212c0-1.27-.46-1.91-1.39-1.91a1.51,1.51,0,0,0-1.19.55,2,2,0,0,0-.47,1.36v3.43h-1v-6h1v1h0a2.17,2.17,0,0,1,2-1.13,1.83,1.83,0,0,1,1.5.63,2.84,2.84,0,0,1,.53,1.84Z" fill="#1e1e1e"/>
      <path d="M90.49,215.35a1.94,1.94,0,0,1-.9.19c-1,0-1.57-.59-1.57-1.76v-3.55H87v-.82h1v-1.47l1-.31v1.78h1.51v.82H89v3.38a1.45,1.45,0,0,0,.2.86.84.84,0,0,0,.68.26,1.05,1.05,0,0,0,.63-.2Z" fill="#1e1e1e"/>
      <path d="M56.55,220.2l-3.11,8.41H52.36l-3-8.41h1.1l2.32,6.67a3.51,3.51,0,0,1,.17.74h0a3.3,3.3,0,0,1,.19-.75l2.37-6.66Z" fill="#1e1e1e"/>
      <path d="M66.33,228.61h-1V223c0-.45,0-1,.08-1.63h0a7,7,0,0,1-.25.81l-2.88,6.46H61.8l-2.86-6.41a4.93,4.93,0,0,1-.25-.86h0c0,.33.05.88.05,1.64v5.63h-1V220.2h1.3l2.58,5.86a7.92,7.92,0,0,1,.39,1h0c.17-.46.3-.8.41-1l2.63-5.84h1.23Z" fill="#1e1e1e"/>
    </g>
    <g>
      <path d="M242.58,32.32h-2.42v7.51h-1V32.32h-2.42v-.89h5.83Z" fill="#1e1e1e"/>
      <path d="M246.73,40a3.66,3.66,0,0,1-2.86-1.18,4.33,4.33,0,0,1-1.08-3.06,4.62,4.62,0,0,1,1.1-3.23,3.8,3.8,0,0,1,3-1.21,3.6,3.6,0,0,1,2.8,1.17,4.37,4.37,0,0,1,1.07,3.06,4.69,4.69,0,0,1-1.09,3.26A3.78,3.78,0,0,1,246.73,40Zm.07-7.79a2.73,2.73,0,0,0-2.15,1,4.24,4.24,0,0,0,0,5,2.64,2.64,0,0,0,2.1,1,2.76,2.76,0,0,0,2.18-.9,3.73,3.73,0,0,0,.8-2.53,3.81,3.81,0,0,0-.78-2.57A2.62,2.62,0,0,0,246.8,32.18Z" fill="#1e1e1e"/>
      <path d="M258.41,39.83h-1.17l-1.41-2.35a3.88,3.88,0,0,0-.37-.56,2.24,2.24,0,0,0-.37-.38,1.49,1.49,0,0,0-.41-.22,1.9,1.9,0,0,0-.5-.06h-.81v3.57h-1v-8.4h2.51a3.62,3.62,0,0,1,1,.14,2.23,2.23,0,0,1,.81.42,1.88,1.88,0,0,1,.54.7,2.58,2.58,0,0,1,.06,1.78,2.13,2.13,0,0,1-.37.66,2.57,2.57,0,0,1-.59.49,3.1,3.1,0,0,1-.77.31v0a2.58,2.58,0,0,1,.37.22,1.9,1.9,0,0,1,.29.28,4,4,0,0,1,.28.37l.31.49Zm-5-7.51v3h1.34a2.11,2.11,0,0,0,.68-.11,1.8,1.8,0,0,0,.54-.32,1.32,1.32,0,0,0,.36-.51,1.65,1.65,0,0,0,.13-.68,1.28,1.28,0,0,0-.44-1,1.88,1.88,0,0,0-1.26-.38Z" fill="#1e1e1e"/>
      <path d="M262.46,39.49V38.33a2.23,2.23,0,0,0,.48.32,5.19,5.19,0,0,0,.59.24,4.47,4.47,0,0,0,.61.14,3.09,3.09,0,0,0,.58.06,2.18,2.18,0,0,0,1.35-.34,1.26,1.26,0,0,0,.3-1.56,1.6,1.6,0,0,0-.41-.46,4.43,4.43,0,0,0-.62-.4l-.78-.4c-.29-.15-.57-.3-.82-.45a3.13,3.13,0,0,1-.66-.51,2.1,2.1,0,0,1-.45-.62,2,2,0,0,1-.16-.82,1.93,1.93,0,0,1,.26-1,2.1,2.1,0,0,1,.66-.7,3,3,0,0,1,.93-.41,4.29,4.29,0,0,1,1.07-.13,4.08,4.08,0,0,1,1.81.3v1.1a3.29,3.29,0,0,0-1.91-.51,2.79,2.79,0,0,0-.64.07,1.56,1.56,0,0,0-.58.22,1.38,1.38,0,0,0-.41.39,1.07,1.07,0,0,0-.16.58,1.08,1.08,0,0,0,.13.56,1.28,1.28,0,0,0,.35.43,3.75,3.75,0,0,0,.57.37c.23.13.48.26.78.4s.58.31.85.47a4,4,0,0,1,.71.55,2.57,2.57,0,0,1,.49.66,2,2,0,0,1,.17.83,2.12,2.12,0,0,1-.24,1,1.93,1.93,0,0,1-.66.7,2.8,2.8,0,0,1-.95.39,5.22,5.22,0,0,1-1.13.12l-.5,0-.59-.09a4.43,4.43,0,0,1-.58-.16A1.65,1.65,0,0,1,262.46,39.49Z" fill="#1e1e1e"/>
      <path d="M276.48,33.83l-1.8,6h-1l-1.24-4.29a3,3,0,0,1-.09-.56h0a2.44,2.44,0,0,1-.12.54l-1.34,4.31h-1l-1.82-6h1l1.24,4.51a2.38,2.38,0,0,1,.08.54h.05a2.43,2.43,0,0,1,.11-.55l1.38-4.5h.88l1.24,4.53a3,3,0,0,1,.09.53h.05a2,2,0,0,1,.1-.53l1.21-4.53Z" fill="#1e1e1e"/>
      <path d="M278.09,32.31a.6.6,0,0,1-.44-.18.57.57,0,0,1-.18-.44.61.61,0,0,1,.18-.45.6.6,0,0,1,.44-.18.64.64,0,0,1,.45.18.61.61,0,0,1,.18.45.6.6,0,0,1-.18.44A.64.64,0,0,1,278.09,32.31Zm.47,7.52h-1v-6h1Z" fill="#1e1e1e"/>
      <path d="M283.29,39.77a1.82,1.82,0,0,1-.9.19c-1.05,0-1.58-.59-1.58-1.76V34.65h-1v-.82h1V32.37l1-.31v1.77h1.52v.82h-1.52V38a1.35,1.35,0,0,0,.21.86.8.8,0,0,0,.68.26,1,1,0,0,0,.63-.2Z" fill="#1e1e1e"/>
      <path d="M288.66,39.56A3.19,3.19,0,0,1,287,40a2.72,2.72,0,0,1-2.07-.83,3,3,0,0,1-.79-2.17,3.3,3.3,0,0,1,.85-2.38,3,3,0,0,1,2.27-.9,3.23,3.23,0,0,1,1.39.29v1a2.45,2.45,0,0,0-1.43-.47,2,2,0,0,0-1.51.66,2.52,2.52,0,0,0-.59,1.73,2.36,2.36,0,0,0,.56,1.66,1.89,1.89,0,0,0,1.48.61,2.39,2.39,0,0,0,1.48-.52Z" fill="#1e1e1e"/>
      <path d="M295.09,39.83h-1V36.37c0-1.25-.46-1.87-1.39-1.87a1.53,1.53,0,0,0-1.19.54,2,2,0,0,0-.48,1.39v3.4h-1V31h1v3.88h0a2.17,2.17,0,0,1,2-1.14c1.35,0,2,.82,2,2.44Z" fill="#1e1e1e"/>
    </g>
    <g>
      <path d="M236.05,218.41V210h2.39a2.6,2.6,0,0,1,1.73.54,1.74,1.74,0,0,1,.64,1.39,2,2,0,0,1-.39,1.24,2.09,2.09,0,0,1-1.07.75v0a2.15,2.15,0,0,1,1.36.64,2,2,0,0,1,.51,1.41,2.22,2.22,0,0,1-.77,1.75,2.92,2.92,0,0,1-1.95.67Zm1-7.52v2.72h1a1.91,1.91,0,0,0,1.27-.39,1.36,1.36,0,0,0,.46-1.1c0-.82-.53-1.23-1.61-1.23Zm0,3.6v3h1.34a2,2,0,0,0,1.34-.41,1.42,1.42,0,0,0,.48-1.13c0-1-.68-1.49-2-1.49Z" fill="#1e1e1e"/>
      <path d="M251.49,218.41h-1v-5.64c0-.45,0-1,.09-1.64h0a4.34,4.34,0,0,1-.25.82l-2.87,6.46H247L244.1,212a5.84,5.84,0,0,1-.25-.87h0c0,.34,0,.89,0,1.65v5.63h-.95V210h1.3l2.58,5.86a9.24,9.24,0,0,1,.38,1h0c.17-.46.3-.8.4-1l2.63-5.84h1.23Z" fill="#1e1e1e"/>
      <path d="M259.42,218.05a4.89,4.89,0,0,1-2.32.5,3.75,3.75,0,0,1-2.87-1.16,4.26,4.26,0,0,1-1.08-3,4.47,4.47,0,0,1,1.21-3.25,4.13,4.13,0,0,1,3.08-1.25,4.91,4.91,0,0,1,2,.35v1a4,4,0,0,0-2-.51,3.08,3.08,0,0,0-2.35,1,3.65,3.65,0,0,0-.9,2.58,3.47,3.47,0,0,0,.84,2.45,2.86,2.86,0,0,0,2.21.91,4.2,4.2,0,0,0,2.19-.56Z" fill="#1e1e1e"/>
      <path d="M264,218.07v-1.16a2.39,2.39,0,0,0,.47.31,3,3,0,0,0,.59.24,6.23,6.23,0,0,0,.62.15,4.13,4.13,0,0,0,.57,0,2.29,2.29,0,0,0,1.36-.33,1.15,1.15,0,0,0,.45-1,1.16,1.16,0,0,0-.15-.6,1.79,1.79,0,0,0-.42-.46,3.91,3.91,0,0,0-.62-.39l-.78-.41a9.13,9.13,0,0,1-.82-.45,3.81,3.81,0,0,1-.66-.5,2,2,0,0,1-.44-.63,1.86,1.86,0,0,1-.16-.81,1.88,1.88,0,0,1,.25-1,2.21,2.21,0,0,1,.66-.7,3,3,0,0,1,.94-.41,4.24,4.24,0,0,1,1.07-.14,4.11,4.11,0,0,1,1.81.3v1.11a3.34,3.34,0,0,0-1.91-.52,3.59,3.59,0,0,0-.65.07,2,2,0,0,0-.57.22,1.18,1.18,0,0,0-.41.39,1,1,0,0,0-.16.59,1.25,1.25,0,0,0,.12.56,1.38,1.38,0,0,0,.35.42,3.43,3.43,0,0,0,.58.38l.77.4c.3.15.59.3.86.47a3.9,3.9,0,0,1,.71.54,2.53,2.53,0,0,1,.48.66,1.89,1.89,0,0,1,.18.84,2.14,2.14,0,0,1-.24,1.05,2.21,2.21,0,0,1-.66.7,2.88,2.88,0,0,1-1,.39,5.24,5.24,0,0,1-1.14.12,3.2,3.2,0,0,1-.49,0q-.3,0-.6-.09a4.91,4.91,0,0,1-.58-.15A1.93,1.93,0,0,1,264,218.07Z" fill="#1e1e1e"/>
      <path d="M278.05,212.41l-1.8,6h-1l-1.23-4.3a2.81,2.81,0,0,1-.1-.56h0a2.4,2.4,0,0,1-.12.55l-1.35,4.31h-1l-1.81-6h1l1.24,4.51a2.84,2.84,0,0,1,.08.54H272a2.29,2.29,0,0,1,.1-.55l1.38-4.5h.88l1.25,4.52a4.55,4.55,0,0,1,.08.54h0a2.61,2.61,0,0,1,.1-.54l1.22-4.52Z" fill="#1e1e1e"/>
      <path d="M279.65,210.88a.64.64,0,0,1-.44-.17.65.65,0,0,1,0-.9.6.6,0,0,1,.44-.18.61.61,0,0,1,.45.18.62.62,0,0,1,0,.89A.61.61,0,0,1,279.65,210.88Zm.47,7.53h-1v-6h1Z" fill="#1e1e1e"/>
      <path d="M284.85,218.35a1.91,1.91,0,0,1-.9.19c-1.05,0-1.57-.59-1.57-1.76v-3.55h-1v-.82h1v-1.47l1-.31v1.78h1.51v.82h-1.51v3.38a1.45,1.45,0,0,0,.2.86.84.84,0,0,0,.68.26,1,1,0,0,0,.63-.2Z" fill="#1e1e1e"/>
      <path d="M290.22,218.13a3.08,3.08,0,0,1-1.64.42,2.72,2.72,0,0,1-2.07-.84,3,3,0,0,1-.79-2.16,3.33,3.33,0,0,1,.85-2.38,3,3,0,0,1,2.27-.9,3.13,3.13,0,0,1,1.4.29v1a2.49,2.49,0,0,0-1.43-.47,1.92,1.92,0,0,0-1.51.66,2.47,2.47,0,0,0-.59,1.73,2.39,2.39,0,0,0,.55,1.67,1.91,1.91,0,0,0,1.49.61,2.44,2.44,0,0,0,1.47-.52Z" fill="#1e1e1e"/>
      <path d="M296.66,218.41h-1V215c0-1.25-.47-1.88-1.4-1.88a1.49,1.49,0,0,0-1.18.55,2,2,0,0,0-.48,1.39v3.4h-1v-8.89h1v3.88h0a2.17,2.17,0,0,1,2-1.13c1.35,0,2,.81,2,2.44Z" fill="#1e1e1e"/>
    </g>
    <g>
      <path d="M344.93,218.41V210h2.32q4.44,0,4.44,4.1a4.14,4.14,0,0,1-1.23,3.13,4.6,4.6,0,0,1-3.3,1.18Zm1-7.52v6.63h1.25a3.55,3.55,0,0,0,2.57-.89,3.29,3.29,0,0,0,.92-2.51q0-3.23-3.43-3.23Z" fill="#1e1e1e"/>
      <path d="M360.12,218.41h-1.21l-4.32-6.7a2.65,2.65,0,0,1-.27-.53h0a8.79,8.79,0,0,1,.05,1.16v6.07h-1V210h1.27l4.21,6.6a5.88,5.88,0,0,1,.34.56h0a8.74,8.74,0,0,1-.06-1.24V210h1Z" fill="#1e1e1e"/>
      <path d="M361.93,218.07v-1.16a2.21,2.21,0,0,0,.48.31,3,3,0,0,0,.58.24c.21.06.41.11.62.15a4.13,4.13,0,0,0,.58,0,2.28,2.28,0,0,0,1.35-.33,1.15,1.15,0,0,0,.45-1,1.16,1.16,0,0,0-.15-.6,1.94,1.94,0,0,0-.41-.46,4.56,4.56,0,0,0-.63-.39l-.77-.41a7,7,0,0,1-.82-.45,3.54,3.54,0,0,1-.67-.5,2.16,2.16,0,0,1-.44-.63,2,2,0,0,1-.16-.81,2,2,0,0,1,.25-1,2.13,2.13,0,0,1,.67-.7,2.8,2.8,0,0,1,.93-.41,4.3,4.3,0,0,1,1.07-.14,4.08,4.08,0,0,1,1.81.3v1.11a3.31,3.31,0,0,0-1.91-.52,3.39,3.39,0,0,0-.64.07,2,2,0,0,0-.58.22,1.27,1.27,0,0,0-.41.39,1.1,1.1,0,0,0-.16.59,1.25,1.25,0,0,0,.12.56,1.28,1.28,0,0,0,.36.42,3,3,0,0,0,.57.38l.77.4a8.72,8.72,0,0,1,.86.47,3.59,3.59,0,0,1,.71.54,2.53,2.53,0,0,1,.48.66,1.89,1.89,0,0,1,.18.84,2.14,2.14,0,0,1-.24,1.05,2,2,0,0,1-.66.7,2.8,2.8,0,0,1-.95.39,5.24,5.24,0,0,1-1.14.12,3.29,3.29,0,0,1-.49,0l-.6-.09a4.74,4.74,0,0,1-.57-.15A1.83,1.83,0,0,1,361.93,218.07Z" fill="#1e1e1e"/>
    </g>
    <g>
      <path d="M410.09,218.41h-1.2l-4.33-6.7a2.65,2.65,0,0,1-.27-.53h0a9.48,9.48,0,0,1,0,1.16v6.07h-1V210h1.28l4.2,6.6a5.88,5.88,0,0,1,.34.56h0a8.74,8.74,0,0,1-.06-1.24V210h1Z" fill="#1e1e1e"/>
      <path d="M417.27,210.89h-2.43v7.52h-1v-7.52h-2.42V210h5.83Z" fill="#1e1e1e"/>
      <path d="M419.57,215.23v3.18h-1V210h2.31a3,3,0,0,1,2.09.66,2.32,2.32,0,0,1,.74,1.85,2.54,2.54,0,0,1-.82,2,3.13,3.13,0,0,1-2.22.76Zm0-4.34v3.45h1a2.33,2.33,0,0,0,1.56-.47,1.65,1.65,0,0,0,.53-1.31c0-1.11-.65-1.67-2-1.67Z" fill="#1e1e1e"/>
    </g>
    <g>
      <path d="M347.76,39.83v-8.4h2.39a2.65,2.65,0,0,1,1.73.53,1.72,1.72,0,0,1,.64,1.39,2,2,0,0,1-.39,1.24,2.11,2.11,0,0,1-1.06.75v0a2.1,2.1,0,0,1,1.35.64,2,2,0,0,1,.51,1.41,2.16,2.16,0,0,1-.77,1.74,2.84,2.84,0,0,1-2,.67Zm1-7.51V35h1a1.89,1.89,0,0,0,1.27-.39,1.35,1.35,0,0,0,.47-1.1c0-.81-.54-1.22-1.61-1.22Zm0,3.6v3h1.33a2,2,0,0,0,1.35-.41,1.42,1.42,0,0,0,.47-1.12c0-1-.67-1.49-2-1.49Z" fill="#1e1e1e"/>
      <path d="M357,40a2.79,2.79,0,0,1-2.13-.84,3.15,3.15,0,0,1-.79-2.23,3.25,3.25,0,0,1,.83-2.36,3,3,0,0,1,2.23-.85,2.69,2.69,0,0,1,2.09.83,3.75,3.75,0,0,1-.05,4.59A2.88,2.88,0,0,1,357,40Zm.07-5.47a1.84,1.84,0,0,0-1.47.63,2.59,2.59,0,0,0-.54,1.74,2.46,2.46,0,0,0,.55,1.68,1.85,1.85,0,0,0,1.46.61,1.75,1.75,0,0,0,1.43-.6,2.58,2.58,0,0,0,.5-1.72,2.62,2.62,0,0,0-.5-1.73A1.73,1.73,0,0,0,357.09,34.5Z" fill="#1e1e1e"/>
      <path d="M364.67,34.8a1.25,1.25,0,0,0-.73-.19,1.2,1.2,0,0,0-1,.58,2.67,2.67,0,0,0-.42,1.58v3.06h-1v-6h1v1.24h0a2.08,2.08,0,0,1,.62-1,1.42,1.42,0,0,1,1-.35,1.44,1.44,0,0,1,.57.08Z" fill="#1e1e1e"/>
      <path d="M370.83,39.83h-1v-1h0A2.2,2.2,0,0,1,367.79,40a2.25,2.25,0,0,1-1.81-.8,3.33,3.33,0,0,1-.68-2.2,3.59,3.59,0,0,1,.75-2.38,2.48,2.48,0,0,1,2-.9,1.93,1.93,0,0,1,1.8,1h0V31h1Zm-1-2.71v-.89a1.73,1.73,0,0,0-.48-1.23,1.62,1.62,0,0,0-1.22-.5,1.66,1.66,0,0,0-1.38.64,2.88,2.88,0,0,0-.5,1.79,2.53,2.53,0,0,0,.48,1.63,1.59,1.59,0,0,0,1.3.6,1.63,1.63,0,0,0,1.3-.58A2.11,2.11,0,0,0,369.87,37.12Z" fill="#1e1e1e"/>
      <path d="M377.6,37.07h-4.23a2.19,2.19,0,0,0,.54,1.55,1.85,1.85,0,0,0,1.41.54,3,3,0,0,0,1.87-.66v.9a3.53,3.53,0,0,1-2.1.57,2.51,2.51,0,0,1-2-.82,3.83,3.83,0,0,1,.06-4.58,2.55,2.55,0,0,1,2-.88,2.25,2.25,0,0,1,1.82.76,3.19,3.19,0,0,1,.64,2.12Zm-1-.81a2,2,0,0,0-.4-1.3,1.37,1.37,0,0,0-1.1-.46A1.56,1.56,0,0,0,374,35a2.18,2.18,0,0,0-.58,1.27Z" fill="#1e1e1e"/>
      <path d="M382.18,34.8a1.21,1.21,0,0,0-.72-.19,1.23,1.23,0,0,0-1,.58,2.67,2.67,0,0,0-.41,1.58v3.06h-1v-6h1v1.24h0a2.17,2.17,0,0,1,.63-1,1.39,1.39,0,0,1,.94-.35,1.44,1.44,0,0,1,.57.08Z" fill="#1e1e1e"/>
      <path d="M386.25,39.49V38.33a2.23,2.23,0,0,0,.48.32,5,5,0,0,0,.58.24,5,5,0,0,0,.62.14,3.09,3.09,0,0,0,.58.06,2.2,2.2,0,0,0,1.35-.34,1.26,1.26,0,0,0,.3-1.56,1.76,1.76,0,0,0-.41-.46,4.43,4.43,0,0,0-.62-.4l-.78-.4c-.29-.15-.57-.3-.82-.45a2.89,2.89,0,0,1-.66-.51,2.1,2.1,0,0,1-.45-.62,2.15,2.15,0,0,1,.09-1.82,2.24,2.24,0,0,1,.67-.7,3,3,0,0,1,.93-.41,4.29,4.29,0,0,1,1.07-.13,4.08,4.08,0,0,1,1.81.3v1.1a3.29,3.29,0,0,0-1.91-.51,2.79,2.79,0,0,0-.64.07,1.56,1.56,0,0,0-.58.22,1.27,1.27,0,0,0-.41.39,1.07,1.07,0,0,0-.16.58,1.19,1.19,0,0,0,.12.56,1.31,1.31,0,0,0,.36.43,3.31,3.31,0,0,0,.57.37c.22.13.48.26.78.4s.58.31.85.47a4,4,0,0,1,.71.55,2.53,2.53,0,0,1,.48.66,1.84,1.84,0,0,1,.18.83,2.12,2.12,0,0,1-.24,1,1.93,1.93,0,0,1-.66.7,2.8,2.8,0,0,1-.95.39,5.24,5.24,0,0,1-1.14.12l-.49,0-.6-.09a4.74,4.74,0,0,1-.57-.16A1.65,1.65,0,0,1,386.25,39.49Z" fill="#1e1e1e"/>
      <path d="M400.27,33.83l-1.8,6h-1l-1.24-4.29a2.34,2.34,0,0,1-.09-.56h0a2.44,2.44,0,0,1-.12.54l-1.34,4.31h-1l-1.82-6h1l1.24,4.51a2.38,2.38,0,0,1,.08.54h.05a2.43,2.43,0,0,1,.11-.55l1.38-4.5h.88l1.24,4.53a3,3,0,0,1,.09.53h0a3.21,3.21,0,0,1,.1-.53l1.22-4.53Z" fill="#1e1e1e"/>
      <path d="M401.88,32.31a.6.6,0,0,1-.44-.18.57.57,0,0,1-.18-.44.61.61,0,0,1,.18-.45.6.6,0,0,1,.44-.18.64.64,0,0,1,.45.18.61.61,0,0,1,.18.45.6.6,0,0,1-.18.44A.64.64,0,0,1,401.88,32.31Zm.47,7.52h-1v-6h1Z" fill="#1e1e1e"/>
      <path d="M407.08,39.77a1.82,1.82,0,0,1-.9.19c-1.05,0-1.58-.59-1.58-1.76V34.65h-1v-.82h1V32.37l1-.31v1.77h1.52v.82h-1.52V38a1.35,1.35,0,0,0,.21.86.8.8,0,0,0,.68.26,1,1,0,0,0,.63-.2Z" fill="#1e1e1e"/>
      <path d="M412.45,39.56a3.19,3.19,0,0,1-1.64.41,2.72,2.72,0,0,1-2.07-.83A3,3,0,0,1,408,37a3.3,3.3,0,0,1,.85-2.38,3,3,0,0,1,2.27-.9,3.23,3.23,0,0,1,1.39.29v1A2.47,2.47,0,0,0,411,34.5a1.93,1.93,0,0,0-1.51.66,2.52,2.52,0,0,0-.59,1.73,2.36,2.36,0,0,0,.56,1.66,1.89,1.89,0,0,0,1.48.61,2.39,2.39,0,0,0,1.48-.52Z" fill="#1e1e1e"/>
      <path d="M418.88,39.83h-1V36.37c0-1.25-.46-1.87-1.39-1.87a1.53,1.53,0,0,0-1.19.54,2,2,0,0,0-.48,1.39v3.4h-1V31h1v3.88h0a2.17,2.17,0,0,1,2-1.14c1.36,0,2,.82,2,2.44Z" fill="#1e1e1e"/>
    </g>
    <g>
      <path d="M136.56,102.45v-8.4H139a2.65,2.65,0,0,1,1.73.53,1.75,1.75,0,0,1,.64,1.39,2,2,0,0,1-.39,1.24,2.09,2.09,0,0,1-1.07.75v0a2.1,2.1,0,0,1,1.36.64,2,2,0,0,1,.51,1.41,2.16,2.16,0,0,1-.77,1.74,2.87,2.87,0,0,1-2,.67Zm1-7.51v2.71h1a1.91,1.91,0,0,0,1.27-.39,1.35,1.35,0,0,0,.47-1.1c0-.81-.54-1.22-1.62-1.22Zm0,3.6v3h1.34a2,2,0,0,0,1.34-.41,1.4,1.4,0,0,0,.48-1.12c0-1-.67-1.49-2-1.49Z" fill="#1e1e1e"/>
      <path d="M152,102.45h-1V96.81c0-.44,0-1,.08-1.63h0a4.19,4.19,0,0,1-.25.81L148,102.45h-.48L144.62,96a4.54,4.54,0,0,1-.26-.86h0c0,.34,0,.88,0,1.65v5.62h-.95v-8.4h1.3l2.58,5.86a6,6,0,0,1,.38,1h0c.17-.46.3-.81.4-1l2.63-5.83H152Z" fill="#1e1e1e"/>
      <path d="M159.93,102.1a4.89,4.89,0,0,1-2.32.49,3.74,3.74,0,0,1-2.87-1.15,4.26,4.26,0,0,1-1.08-3,4.46,4.46,0,0,1,1.22-3.26A4.08,4.08,0,0,1,158,93.91a4.92,4.92,0,0,1,2,.34v1a4.05,4.05,0,0,0-2-.5,3.06,3.06,0,0,0-2.35,1,3.62,3.62,0,0,0-.9,2.58,3.45,3.45,0,0,0,.85,2.45,2.87,2.87,0,0,0,2.2.91,4.08,4.08,0,0,0,2.19-.57Z" fill="#1e1e1e"/>
    </g>
    <g>
      <path d="M112.82,68h-1V64.17h-4.35V68h-1V59.6h1v3.69h4.35V59.6h1Z" fill="#1e1e1e"/>
      <path d="M117.4,68.15a2.79,2.79,0,0,1-2.12-.84,3.14,3.14,0,0,1-.79-2.23,3.27,3.27,0,0,1,.82-2.37,3,3,0,0,1,2.23-.85,2.7,2.7,0,0,1,2.1.83,3.29,3.29,0,0,1,.75,2.29,3.21,3.21,0,0,1-.81,2.3A2.84,2.84,0,0,1,117.4,68.15Zm.07-5.48a1.83,1.83,0,0,0-1.46.63,2.59,2.59,0,0,0-.54,1.74,2.41,2.41,0,0,0,.55,1.68,1.85,1.85,0,0,0,1.45.62,1.75,1.75,0,0,0,1.44-.61,2.62,2.62,0,0,0,.5-1.71,2.71,2.71,0,0,0-.5-1.74A1.78,1.78,0,0,0,117.47,62.67Z" fill="#1e1e1e"/>
      <path d="M121.56,67.79v-1a2.9,2.9,0,0,0,1.73.58c.85,0,1.27-.28,1.27-.85a.72.72,0,0,0-.11-.4,1.17,1.17,0,0,0-.29-.3,2.27,2.27,0,0,0-.44-.23l-.53-.21c-.27-.11-.5-.22-.7-.32a2.23,2.23,0,0,1-.51-.37,1.41,1.41,0,0,1-.3-.46,1.57,1.57,0,0,1-.1-.6,1.44,1.44,0,0,1,.19-.75,1.67,1.67,0,0,1,.52-.54A2.21,2.21,0,0,1,123,62a3.06,3.06,0,0,1,.85-.12,3.46,3.46,0,0,1,1.4.27v1a2.72,2.72,0,0,0-1.53-.44,1.75,1.75,0,0,0-.48.06,1.16,1.16,0,0,0-.37.18.66.66,0,0,0-.24.26.7.7,0,0,0-.09.35.81.81,0,0,0,.33.67,1.89,1.89,0,0,0,.4.22l.54.22c.26.1.5.21.71.31a2.44,2.44,0,0,1,.54.37,1.38,1.38,0,0,1,.34.46,1.54,1.54,0,0,1,.12.63,1.47,1.47,0,0,1-.19.77,1.74,1.74,0,0,1-.53.55,2.54,2.54,0,0,1-.75.32,3.82,3.82,0,0,1-.9.11A3.41,3.41,0,0,1,121.56,67.79Z" fill="#1e1e1e"/>
      <path d="M129.8,68a1.87,1.87,0,0,1-.89.18c-1,0-1.58-.58-1.58-1.75V62.83h-1V62h1V60.54l1-.31V62h1.51v.82h-1.51v3.38a1.37,1.37,0,0,0,.21.86.81.81,0,0,0,.68.26,1,1,0,0,0,.62-.2Z" fill="#1e1e1e"/>
      <path d="M141.28,68h-1.21l-4.33-6.7a2.94,2.94,0,0,1-.27-.53h0a8.79,8.79,0,0,1,.05,1.16V68h-1V59.6h1.28L140,66.19c.17.28.29.47.34.57h0a8.74,8.74,0,0,1-.06-1.24V59.6h1Z" fill="#1e1e1e"/>
      <path d="M144.46,68h-1V59.6h1Z" fill="#1e1e1e"/>
      <path d="M152.39,67.65a4.89,4.89,0,0,1-2.32.5A3.75,3.75,0,0,1,147.2,67a4.26,4.26,0,0,1-1.08-3,4.51,4.51,0,0,1,1.21-3.26,4.16,4.16,0,0,1,3.08-1.24,4.91,4.91,0,0,1,2,.35v1a4,4,0,0,0-2-.51,3.08,3.08,0,0,0-2.35,1,3.64,3.64,0,0,0-.9,2.58,3.47,3.47,0,0,0,.84,2.45,2.86,2.86,0,0,0,2.21.91,4.2,4.2,0,0,0,2.19-.56Z" fill="#1e1e1e"/>
    </g>
    <g>
      <path d="M468.15,30.41h-1.87v-5c0-.54,0-1.14.07-1.8h0a8.14,8.14,0,0,1-.27,1.11l-2,5.72h-1.54l-2-5.66c0-.15-.14-.54-.26-1.17h-.05c.05.83.07,1.55.07,2.18v4.65h-1.7V22h2.77l1.72,5a8.55,8.55,0,0,1,.3,1.21h0c.11-.47.22-.87.33-1.22l1.72-5h2.7Z" fill="#231f20"/>
      <path d="M470.82,23.46a1.12,1.12,0,0,1-.77-.28.9.9,0,0,1-.3-.68.85.85,0,0,1,.3-.68,1.23,1.23,0,0,1,1.54,0,.84.84,0,0,1,.29.68.88.88,0,0,1-.29.69A1.11,1.11,0,0,1,470.82,23.46Zm.91,7h-1.85v-6h1.85Z" fill="#231f20"/>
      <path d="M477.84,30.19a3.69,3.69,0,0,1-1.81.36,3.06,3.06,0,0,1-2.24-.84,2.87,2.87,0,0,1-.86-2.16,3.19,3.19,0,0,1,.92-2.41,3.38,3.38,0,0,1,2.45-.88,3.14,3.14,0,0,1,1.54.28v1.57a2.12,2.12,0,0,0-1.3-.43,1.7,1.7,0,0,0-1.26.46,1.75,1.75,0,0,0-.47,1.29,1.69,1.69,0,0,0,.45,1.25,1.64,1.64,0,0,0,1.22.45,2.43,2.43,0,0,0,1.36-.43Z" fill="#231f20"/>
      <path d="M483,26.08a1.6,1.6,0,0,0-.77-.19,1.12,1.12,0,0,0-.95.45,1.94,1.94,0,0,0-.34,1.2v2.87h-1.85v-6h1.85v1.11h0a1.6,1.6,0,0,1,1.58-1.22,1.09,1.09,0,0,1,.45.07Z" fill="#231f20"/>
      <path d="M486.64,30.55a3.23,3.23,0,0,1-2.36-.84,3.05,3.05,0,0,1-.86-2.28,3.07,3.07,0,0,1,.89-2.33,3.38,3.38,0,0,1,2.41-.84,3.16,3.16,0,0,1,2.34.84,3,3,0,0,1,.85,2.22,3.2,3.2,0,0,1-.87,2.37A3.31,3.31,0,0,1,486.64,30.55Zm.05-4.87a1.23,1.23,0,0,0-1,.45,2,2,0,0,0-.37,1.28c0,1.15.47,1.72,1.4,1.72s1.33-.59,1.33-1.77S487.58,25.68,486.69,25.68Z" fill="#231f20"/>
      <path d="M490.72,30.25v-1.5a4.27,4.27,0,0,0,.91.41,3,3,0,0,0,.86.13,1.86,1.86,0,0,0,.78-.13.43.43,0,0,0,.28-.41.35.35,0,0,0-.13-.29,1,1,0,0,0-.33-.21,3.72,3.72,0,0,0-.44-.16l-.46-.16a3.71,3.71,0,0,1-.63-.29,1.67,1.67,0,0,1-.46-.36,1.31,1.31,0,0,1-.28-.47,1.76,1.76,0,0,1-.1-.64,1.7,1.7,0,0,1,.22-.87,1.75,1.75,0,0,1,.59-.59,2.43,2.43,0,0,1,.84-.34,4.46,4.46,0,0,1,1-.11,5.73,5.73,0,0,1,.81.06,5.45,5.45,0,0,1,.8.18v1.43a2.76,2.76,0,0,0-.75-.31,3.11,3.11,0,0,0-.79-.1,1.87,1.87,0,0,0-.34,0,.77.77,0,0,0-.28.1.53.53,0,0,0-.2.15.44.44,0,0,0-.07.22.39.39,0,0,0,.11.28,1,1,0,0,0,.27.21l.38.15.42.14a5,5,0,0,1,.66.28,2.18,2.18,0,0,1,.52.36,1.23,1.23,0,0,1,.32.48,1.6,1.6,0,0,1,.12.65,1.73,1.73,0,0,1-.23.91,1.84,1.84,0,0,1-.62.62,2.65,2.65,0,0,1-.88.34,4.48,4.48,0,0,1-1,.11A5.5,5.5,0,0,1,490.72,30.25Z" fill="#231f20"/>
      <path d="M499.25,30.55a3.2,3.2,0,0,1-2.35-.84,3,3,0,0,1-.86-2.28,3,3,0,0,1,.89-2.33,3.35,3.35,0,0,1,2.41-.84,3.19,3.19,0,0,1,2.34.84,3,3,0,0,1,.85,2.22,3.17,3.17,0,0,1-.88,2.37A3.28,3.28,0,0,1,499.25,30.55Zm.05-4.87a1.23,1.23,0,0,0-1,.45,2,2,0,0,0-.36,1.28c0,1.15.46,1.72,1.39,1.72s1.33-.59,1.33-1.77S500.2,25.68,499.3,25.68Z" fill="#231f20"/>
      <path d="M507.46,22.94a1.92,1.92,0,0,0-.68-.14c-.6,0-.89.32-.89,1v.64h1.37v1.36h-1.37v4.64H504V25.77h-1V24.41h1v-.75a2.15,2.15,0,0,1,.67-1.65,2.53,2.53,0,0,1,1.82-.63,3.09,3.09,0,0,1,.93.12Z" fill="#231f20"/>
      <path d="M512,30.34a2.78,2.78,0,0,1-1.23.21c-1.31,0-2-.67-2-2V25.77h-1V24.41h1v-1.3l1.85-.53v1.83H512v1.36h-1.34V28.2c0,.62.24.93.74.93A1.14,1.14,0,0,0,512,29Z" fill="#231f20"/>
      <path d="M477,43.61H474.9l-.6-1.87h-3l-.59,1.87h-2.05l3.06-8.41H474Zm-3.09-3.33L473,37.46a4.33,4.33,0,0,1-.14-.76h0a3.24,3.24,0,0,1-.15.74l-.92,2.84Z" fill="#231f20"/>
      <path d="M482.58,43.61h-5.39v-.77l3-3.87h-2.72V37.61h5.06v.91l-2.85,3.72h2.88Z" fill="#231f20"/>
      <path d="M489.28,43.61h-1.85v-.92h0a2.09,2.09,0,0,1-1.83,1.06c-1.39,0-2.09-.84-2.09-2.52V37.61h1.85v3.45c0,.85.33,1.28,1,1.28a1,1,0,0,0,.8-.35,1.42,1.42,0,0,0,.3-1V37.61h1.85Z" fill="#231f20"/>
      <path d="M494.75,39.28a1.61,1.61,0,0,0-.78-.19,1.1,1.1,0,0,0-.94.45,1.88,1.88,0,0,0-.34,1.2v2.87h-1.86v-6h1.86v1.11h0a1.6,1.6,0,0,1,1.58-1.22,1.14,1.14,0,0,1,.46.07Z" fill="#231f20"/>
      <path d="M501,41.13H497c.06.87.61,1.31,1.65,1.31a3.24,3.24,0,0,0,1.74-.47v1.34a4.7,4.7,0,0,1-2.17.44,2.78,2.78,0,0,1-3.05-3,3.21,3.21,0,0,1,.86-2.37,2.9,2.9,0,0,1,2.14-.87,2.63,2.63,0,0,1,2,.78,3,3,0,0,1,.71,2.11ZM499.24,40q0-1.29-1.05-1.29a1,1,0,0,0-.77.37A1.64,1.64,0,0,0,497,40Z" fill="#231f20"/>
    </g>
    <g>
      <path d="M51.38,277.41h-1V269h1Z" fill="#1e1e1e"/>
      <path d="M58.44,277.41h-1V274c0-1.27-.46-1.91-1.39-1.91a1.55,1.55,0,0,0-1.2.55,2,2,0,0,0-.47,1.36v3.43h-1v-6h1v1h0a2.16,2.16,0,0,1,2-1.13,1.85,1.85,0,0,1,1.51.63,2.84,2.84,0,0,1,.52,1.84Z" fill="#1e1e1e"/>
      <path d="M63.22,269.37a1.24,1.24,0,0,0-.64-.16c-.67,0-1,.42-1,1.27v.93H63v.82H61.57v5.18h-1v-5.18h-1v-.82h1v-1a2.05,2.05,0,0,1,.54-1.49,1.85,1.85,0,0,1,1.36-.54,2,2,0,0,1,.7.1Z" fill="#1e1e1e"/>
      <path d="M67.14,272.38a1.18,1.18,0,0,0-.73-.19,1.23,1.23,0,0,0-1,.58,2.7,2.7,0,0,0-.41,1.58v3.06H64v-6h1v1.23h0a2.09,2.09,0,0,1,.63-1,1.4,1.4,0,0,1,.94-.36,1.75,1.75,0,0,1,.58.08Z" fill="#1e1e1e"/>
      <path d="M72.47,277.41h-1v-.94h0a2,2,0,0,1-1.85,1.08,2,2,0,0,1-1.4-.48,1.62,1.62,0,0,1-.51-1.26q0-1.68,2-1.95l1.8-.26q0-1.53-1.23-1.53a3,3,0,0,0-2,.74v-1a3.68,3.68,0,0,1,2-.56c1.41,0,2.11.74,2.11,2.23Zm-1-3-1.44.2a2.3,2.3,0,0,0-1,.33,1,1,0,0,0-.34.84.91.91,0,0,0,.31.72,1.2,1.2,0,0,0,.84.28,1.56,1.56,0,0,0,1.18-.5,1.8,1.8,0,0,0,.46-1.27Z" fill="#1e1e1e"/>
      <path d="M73.92,277.19v-1a2.84,2.84,0,0,0,1.73.58c.84,0,1.27-.28,1.27-.84a.73.73,0,0,0-.11-.41,1.07,1.07,0,0,0-.3-.3,2.44,2.44,0,0,0-.43-.23l-.54-.21-.7-.32a2.16,2.16,0,0,1-.5-.37,1.19,1.19,0,0,1-.3-.46,1.57,1.57,0,0,1-.11-.6,1.45,1.45,0,0,1,.2-.75,1.87,1.87,0,0,1,.51-.54,2.26,2.26,0,0,1,.74-.33,3,3,0,0,1,.85-.11,3.5,3.5,0,0,1,1.4.27v1a2.74,2.74,0,0,0-1.53-.44,1.73,1.73,0,0,0-.48.07,1.1,1.1,0,0,0-.38.17.78.78,0,0,0-.24.27.74.74,0,0,0-.08.34.9.9,0,0,0,.08.39.83.83,0,0,0,.25.28,2.11,2.11,0,0,0,.4.23l.53.21a6.17,6.17,0,0,1,.72.32,2.12,2.12,0,0,1,.54.36,1.38,1.38,0,0,1,.34.46,1.54,1.54,0,0,1,.12.63,1.45,1.45,0,0,1-.2.77,1.61,1.61,0,0,1-.52.55,2.49,2.49,0,0,1-.76.32,3.68,3.68,0,0,1-.89.11A3.41,3.41,0,0,1,73.92,277.19Z" fill="#1e1e1e"/>
      <path d="M82.16,277.35a1.94,1.94,0,0,1-.9.19c-1.05,0-1.57-.59-1.57-1.76v-3.55h-1v-.82h1v-1.47l1-.31v1.78h1.51v.82H80.65v3.38a1.45,1.45,0,0,0,.2.86.84.84,0,0,0,.68.26,1,1,0,0,0,.63-.2Z" fill="#1e1e1e"/>
      <path d="M86.57,272.38a1.16,1.16,0,0,0-.72-.19,1.21,1.21,0,0,0-1,.58,2.62,2.62,0,0,0-.42,1.58v3.06h-1v-6h1v1.23h0a2,2,0,0,1,.62-1,1.45,1.45,0,0,1,1-.36,1.65,1.65,0,0,1,.57.08Z" fill="#1e1e1e"/>
      <path d="M92.47,277.41h-1v-1h0a2,2,0,0,1-1.85,1.09c-1.43,0-2.14-.85-2.14-2.56v-3.58h1v3.43c0,1.27.49,1.9,1.45,1.9a1.46,1.46,0,0,0,1.16-.52,2,2,0,0,0,.46-1.36v-3.45h1Z" fill="#1e1e1e"/>
      <path d="M98.5,277.13a3.1,3.1,0,0,1-1.64.42,2.73,2.73,0,0,1-2.08-.84,3,3,0,0,1-.78-2.16,3.3,3.3,0,0,1,.85-2.38,3,3,0,0,1,2.26-.9,3.1,3.1,0,0,1,1.4.29v1a2.47,2.47,0,0,0-1.43-.47,1.92,1.92,0,0,0-1.51.66,2.53,2.53,0,0,0-.59,1.74,2.43,2.43,0,0,0,.55,1.66,1.91,1.91,0,0,0,1.49.61,2.41,2.41,0,0,0,1.48-.52Z" fill="#1e1e1e"/>
      <path d="M102.73,277.35a1.87,1.87,0,0,1-.89.19c-1,0-1.58-.59-1.58-1.76v-3.55h-1v-.82h1v-1.47l1-.31v1.78h1.51v.82h-1.51v3.38a1.37,1.37,0,0,0,.21.86.81.81,0,0,0,.68.26,1,1,0,0,0,.62-.2Z" fill="#1e1e1e"/>
      <path d="M108.87,277.41h-1v-1h0a2,2,0,0,1-1.85,1.09c-1.43,0-2.14-.85-2.14-2.56v-3.58h1v3.43c0,1.27.49,1.9,1.45,1.9a1.46,1.46,0,0,0,1.16-.52,2,2,0,0,0,.46-1.36v-3.45h1Z" fill="#1e1e1e"/>
      <path d="M113.94,272.38a1.18,1.18,0,0,0-.73-.19,1.23,1.23,0,0,0-1,.58,2.7,2.7,0,0,0-.41,1.58v3.06h-1v-6h1v1.23h0a2.09,2.09,0,0,1,.63-1,1.4,1.4,0,0,1,.94-.36,1.75,1.75,0,0,1,.58.08Z" fill="#1e1e1e"/>
      <path d="M119.8,274.65h-4.24a2.26,2.26,0,0,0,.54,1.54,1.85,1.85,0,0,0,1.42.55,2.89,2.89,0,0,0,1.86-.67v.9a3.41,3.41,0,0,1-2.09.58,2.58,2.58,0,0,1-2-.82,3.35,3.35,0,0,1-.72-2.3,3.28,3.28,0,0,1,.79-2.28,2.54,2.54,0,0,1,2-.88,2.26,2.26,0,0,1,1.83.76,3.17,3.17,0,0,1,.64,2.11Zm-1-.82a2,2,0,0,0-.4-1.29,1.38,1.38,0,0,0-1.1-.47,1.58,1.58,0,0,0-1.16.49,2.24,2.24,0,0,0-.58,1.27Z" fill="#1e1e1e"/>
      <path d="M131.44,277.41h-1.2l-4.33-6.7a2.65,2.65,0,0,1-.27-.53h0a9.48,9.48,0,0,1,0,1.16v6.07h-1V269H126l4.2,6.6a5.88,5.88,0,0,1,.34.56h0a8.74,8.74,0,0,1-.06-1.24V269h1Z" fill="#1e1e1e"/>
      <path d="M138.34,274.65H134.1a2.26,2.26,0,0,0,.54,1.54,1.85,1.85,0,0,0,1.42.55,2.89,2.89,0,0,0,1.86-.67v.9a3.41,3.41,0,0,1-2.09.58,2.56,2.56,0,0,1-2-.82,3.35,3.35,0,0,1-.72-2.3,3.28,3.28,0,0,1,.79-2.28,2.54,2.54,0,0,1,2-.88,2.26,2.26,0,0,1,1.83.76,3.17,3.17,0,0,1,.64,2.11Zm-1-.82a2,2,0,0,0-.41-1.29,1.36,1.36,0,0,0-1.09-.47,1.58,1.58,0,0,0-1.16.49,2.18,2.18,0,0,0-.58,1.27Z" fill="#1e1e1e"/>
      <path d="M142.58,277.35a1.94,1.94,0,0,1-.9.19c-1.05,0-1.58-.59-1.58-1.76v-3.55h-1v-.82h1v-1.47l1-.31v1.78h1.52v.82h-1.52v3.38a1.37,1.37,0,0,0,.21.86.83.83,0,0,0,.68.26,1.05,1.05,0,0,0,.63-.2Z" fill="#1e1e1e"/>
      <path d="M151.42,271.41l-1.8,6h-1l-1.23-4.3a2.84,2.84,0,0,1-.1-.55h0a2.44,2.44,0,0,1-.12.54l-1.35,4.31h-1l-1.81-6h1l1.24,4.51a3,3,0,0,1,.08.54h0a2.29,2.29,0,0,1,.1-.55l1.38-4.5h.88l1.25,4.52a4.55,4.55,0,0,1,.08.54h.05a2.61,2.61,0,0,1,.1-.54l1.22-4.52Z" fill="#1e1e1e"/>
      <path d="M155,277.55a2.76,2.76,0,0,1-2.12-.84,3.12,3.12,0,0,1-.8-2.23,3.23,3.23,0,0,1,.83-2.36,3,3,0,0,1,2.23-.85,2.68,2.68,0,0,1,2.09.82,3.25,3.25,0,0,1,.76,2.29,3.21,3.21,0,0,1-.81,2.3A2.85,2.85,0,0,1,155,277.55Zm.07-5.48a1.84,1.84,0,0,0-1.47.63,2.64,2.64,0,0,0-.53,1.74,2.46,2.46,0,0,0,.54,1.68,1.85,1.85,0,0,0,1.46.62,1.75,1.75,0,0,0,1.43-.6,2.61,2.61,0,0,0,.5-1.72,2.65,2.65,0,0,0-.5-1.74A1.76,1.76,0,0,0,155.11,272.07Z" fill="#1e1e1e"/>
      <path d="M162.69,272.38a1.18,1.18,0,0,0-.73-.19,1.2,1.2,0,0,0-1,.58,2.62,2.62,0,0,0-.42,1.58v3.06h-1v-6h1v1.23h0a2,2,0,0,1,.62-1,1.45,1.45,0,0,1,1-.36,1.65,1.65,0,0,1,.57.08Z" fill="#1e1e1e"/>
      <path d="M168.71,277.41h-1.34l-2.65-2.89h0v2.89h-1v-8.89h1v5.63h0l2.52-2.74h1.26l-2.79,2.89Z" fill="#1e1e1e"/>
    </g>
    <g>
      <path d="M345,277.07v-1.16a2.83,2.83,0,0,0,.48.31,3,3,0,0,0,.59.24,6.23,6.23,0,0,0,.62.15,2.87,2.87,0,0,0,.57.05,2.29,2.29,0,0,0,1.36-.33,1.14,1.14,0,0,0,.44-1,1.27,1.27,0,0,0-.14-.6,1.79,1.79,0,0,0-.42-.46,3.91,3.91,0,0,0-.62-.39l-.78-.41a9.13,9.13,0,0,1-.82-.45,3.81,3.81,0,0,1-.66-.5,1.9,1.9,0,0,1-.44-.62,1.94,1.94,0,0,1-.16-.82,1.9,1.9,0,0,1,.25-1,2.21,2.21,0,0,1,.66-.7,3,3,0,0,1,.93-.41,4.3,4.3,0,0,1,1.07-.14,4,4,0,0,1,1.81.3v1.11a3.29,3.29,0,0,0-1.91-.52,3.48,3.48,0,0,0-.64.07,1.83,1.83,0,0,0-.57.22,1.18,1.18,0,0,0-.41.39,1,1,0,0,0-.16.59,1.25,1.25,0,0,0,.12.56,1.38,1.38,0,0,0,.35.42,3.76,3.76,0,0,0,.57.38l.78.4a8.54,8.54,0,0,1,.85.47,3.59,3.59,0,0,1,.71.54,2.36,2.36,0,0,1,.49.66,1.89,1.89,0,0,1,.18.84,2.15,2.15,0,0,1-.25,1,2.07,2.07,0,0,1-.65.7,2.94,2.94,0,0,1-1,.39,5.15,5.15,0,0,1-1.13.12l-.49,0-.6-.1a4.45,4.45,0,0,1-.58-.15A2,2,0,0,1,345,277.07Z" fill="#1e1e1e"/>
      <path d="M359,271.41l-1.8,6h-1l-1.24-4.3a4,4,0,0,1-.09-.55h0a2.56,2.56,0,0,1-.13.54l-1.34,4.31h-1l-1.82-6h1l1.24,4.51a2.86,2.86,0,0,1,.09.54h0a3,3,0,0,1,.11-.55l1.38-4.5h.88l1.24,4.52a3,3,0,0,1,.09.54h.05a2.61,2.61,0,0,1,.1-.54l1.22-4.52Z" fill="#1e1e1e"/>
      <path d="M360.63,269.88a.64.64,0,0,1-.44-.17.65.65,0,0,1,0-.9.6.6,0,0,1,.44-.17.6.6,0,0,1,.45.17.61.61,0,0,1,.18.45.6.6,0,0,1-.18.44A.61.61,0,0,1,360.63,269.88Zm.47,7.53h-1v-6h1Z" fill="#1e1e1e"/>
      <path d="M365.83,277.35a1.94,1.94,0,0,1-.9.19c-1.05,0-1.57-.59-1.57-1.76v-3.55h-1v-.82h1v-1.47l1-.31v1.78h1.51v.82h-1.51v3.38a1.38,1.38,0,0,0,.2.86.83.83,0,0,0,.68.26,1.05,1.05,0,0,0,.63-.2Z" fill="#1e1e1e"/>
      <path d="M371.2,277.13a3.1,3.1,0,0,1-1.64.42,2.71,2.71,0,0,1-2.07-.84,3,3,0,0,1-.79-2.16,3.3,3.3,0,0,1,.85-2.38,3,3,0,0,1,2.27-.9,3.06,3.06,0,0,1,1.39.29v1a2.45,2.45,0,0,0-1.43-.47,2,2,0,0,0-1.51.66,2.52,2.52,0,0,0-.58,1.74,2.38,2.38,0,0,0,.55,1.66,1.89,1.89,0,0,0,1.48.61,2.39,2.39,0,0,0,1.48-.52Z" fill="#1e1e1e"/>
      <path d="M377.63,277.41h-1V274c0-1.25-.46-1.88-1.39-1.88a1.52,1.52,0,0,0-1.18.55,2,2,0,0,0-.48,1.39v3.4h-1v-8.89h1v3.88h0a2.19,2.19,0,0,1,2-1.13c1.35,0,2,.81,2,2.44Z" fill="#1e1e1e"/>
      <path d="M383.85,277.41h-1V269h1Z" fill="#1e1e1e"/>
      <path d="M390.91,277.41h-1V274c0-1.27-.47-1.91-1.4-1.91a1.51,1.51,0,0,0-1.19.55,2,2,0,0,0-.47,1.36v3.43h-1v-6h1v1h0a2.17,2.17,0,0,1,2-1.13,1.82,1.82,0,0,1,1.5.63,2.84,2.84,0,0,1,.53,1.84Z" fill="#1e1e1e"/>
      <path d="M395.68,269.37a1.24,1.24,0,0,0-.64-.16c-.67,0-1,.42-1,1.27v.93h1.4v.82H394v5.18h-1v-5.18h-1v-.82h1v-1a2,2,0,0,1,.55-1.49,1.83,1.83,0,0,1,1.35-.54,1.89,1.89,0,0,1,.7.1Z" fill="#1e1e1e"/>
      <path d="M399.6,272.38a1.16,1.16,0,0,0-.72-.19,1.2,1.2,0,0,0-1,.58,2.62,2.62,0,0,0-.42,1.58v3.06h-1v-6h1v1.23h0a2,2,0,0,1,.62-1,1.45,1.45,0,0,1,.95-.36,1.65,1.65,0,0,1,.57.08Z" fill="#1e1e1e"/>
      <path d="M404.94,277.41h-1v-.94h0a2,2,0,0,1-1.85,1.08,1.93,1.93,0,0,1-1.4-.48,1.62,1.62,0,0,1-.51-1.26q0-1.68,2-1.95l1.8-.26c0-1-.41-1.53-1.24-1.53a3,3,0,0,0-1.95.74v-1a3.64,3.64,0,0,1,2-.56c1.41,0,2.12.74,2.12,2.23Zm-1-3-1.45.2a2.35,2.35,0,0,0-1,.33,1,1,0,0,0-.34.84.92.92,0,0,0,.32.72,1.18,1.18,0,0,0,.83.28,1.55,1.55,0,0,0,1.18-.5A1.81,1.81,0,0,0,404,275Z" fill="#1e1e1e"/>
      <path d="M406.39,277.19v-1a2.82,2.82,0,0,0,1.73.58q1.26,0,1.26-.84a.73.73,0,0,0-.11-.41,1.17,1.17,0,0,0-.29-.3,2.86,2.86,0,0,0-.43-.23l-.54-.21c-.27-.11-.5-.22-.7-.32a2,2,0,0,1-.5-.37,1.21,1.21,0,0,1-.31-.46,1.57,1.57,0,0,1-.1-.6,1.44,1.44,0,0,1,.19-.75,1.78,1.78,0,0,1,.52-.54,2.21,2.21,0,0,1,.73-.33,3.07,3.07,0,0,1,.86-.11,3.45,3.45,0,0,1,1.39.27v1a2.71,2.71,0,0,0-1.52-.44,1.81,1.81,0,0,0-.49.07,1.05,1.05,0,0,0-.37.17.62.62,0,0,0-.24.27.64.64,0,0,0-.09.34.78.78,0,0,0,.09.39.74.74,0,0,0,.25.28,2.11,2.11,0,0,0,.4.23l.53.21a6.81,6.81,0,0,1,.71.32,2.12,2.12,0,0,1,.54.36,1.41,1.41,0,0,1,.35.46,1.54,1.54,0,0,1,.12.63,1.45,1.45,0,0,1-.2.77,1.64,1.64,0,0,1-.53.55,2.43,2.43,0,0,1-.75.32,3.82,3.82,0,0,1-.9.11A3.37,3.37,0,0,1,406.39,277.19Z" fill="#1e1e1e"/>
      <path d="M414.63,277.35a1.94,1.94,0,0,1-.9.19c-1.05,0-1.58-.59-1.58-1.76v-3.55h-1v-.82h1v-1.47l1-.31v1.78h1.52v.82h-1.52v3.38a1.37,1.37,0,0,0,.21.86.83.83,0,0,0,.68.26,1.05,1.05,0,0,0,.63-.2Z" fill="#1e1e1e"/>
      <path d="M419,272.38a1.18,1.18,0,0,0-.73-.19,1.23,1.23,0,0,0-1,.58,2.7,2.7,0,0,0-.41,1.58v3.06h-1v-6h1v1.23h0a2.09,2.09,0,0,1,.63-1,1.42,1.42,0,0,1,.94-.36,1.75,1.75,0,0,1,.58.08Z" fill="#1e1e1e"/>
      <path d="M424.93,277.41h-1v-1h0a2,2,0,0,1-1.85,1.09c-1.43,0-2.15-.85-2.15-2.56v-3.58h1v3.43c0,1.27.48,1.9,1.45,1.9a1.47,1.47,0,0,0,1.16-.52,2,2,0,0,0,.45-1.36v-3.45h1Z" fill="#1e1e1e"/>
      <path d="M431,277.13a3.1,3.1,0,0,1-1.64.42,2.69,2.69,0,0,1-2.07-.84,3,3,0,0,1-.79-2.16,3.3,3.3,0,0,1,.85-2.38,3,3,0,0,1,2.27-.9,3.06,3.06,0,0,1,1.39.29v1a2.45,2.45,0,0,0-1.43-.47,2,2,0,0,0-1.51.66,2.52,2.52,0,0,0-.58,1.74,2.38,2.38,0,0,0,.55,1.66,1.89,1.89,0,0,0,1.48.61,2.39,2.39,0,0,0,1.48-.52Z" fill="#1e1e1e"/>
      <path d="M435.2,277.35a1.94,1.94,0,0,1-.9.19c-1.05,0-1.58-.59-1.58-1.76v-3.55h-1v-.82h1v-1.47l1-.31v1.78h1.51v.82h-1.51v3.38a1.38,1.38,0,0,0,.2.86.83.83,0,0,0,.68.26,1.05,1.05,0,0,0,.63-.2Z" fill="#1e1e1e"/>
      <path d="M441.33,277.41h-1v-1h0a2,2,0,0,1-1.85,1.09c-1.43,0-2.15-.85-2.15-2.56v-3.58h1v3.43c0,1.27.48,1.9,1.45,1.9a1.47,1.47,0,0,0,1.16-.52,2,2,0,0,0,.45-1.36v-3.45h1Z" fill="#1e1e1e"/>
      <path d="M446.4,272.38a1.18,1.18,0,0,0-.73-.19,1.2,1.2,0,0,0-1,.58,2.62,2.62,0,0,0-.42,1.58v3.06h-1v-6h1v1.23h0a2,2,0,0,1,.62-1,1.43,1.43,0,0,1,.95-.36,1.65,1.65,0,0,1,.57.08Z" fill="#1e1e1e"/>
      <path d="M452.27,274.65H448a2.16,2.16,0,0,0,.54,1.54,1.82,1.82,0,0,0,1.42.55,2.93,2.93,0,0,0,1.86-.67v.9a3.43,3.43,0,0,1-2.09.58,2.55,2.55,0,0,1-2-.82,3.36,3.36,0,0,1-.73-2.3,3.29,3.29,0,0,1,.8-2.28,2.53,2.53,0,0,1,2-.88,2.25,2.25,0,0,1,1.82.76,3.17,3.17,0,0,1,.65,2.11Zm-1-.82a2,2,0,0,0-.4-1.29,1.36,1.36,0,0,0-1.1-.47,1.56,1.56,0,0,0-1.15.49,2.25,2.25,0,0,0-.59,1.27Z" fill="#1e1e1e"/>
      <path d="M463.91,277.41H462.7l-4.32-6.7a2.65,2.65,0,0,1-.27-.53h0a8.79,8.79,0,0,1,.05,1.16v6.07h-1V269h1.28l4.21,6.6c.17.27.29.46.34.56h0a8.74,8.74,0,0,1-.06-1.24V269h1Z" fill="#1e1e1e"/>
      <path d="M470.8,274.65h-4.23a2.16,2.16,0,0,0,.54,1.54,1.82,1.82,0,0,0,1.42.55,2.93,2.93,0,0,0,1.86-.67v.9a3.45,3.45,0,0,1-2.09.58,2.55,2.55,0,0,1-2-.82,3.81,3.81,0,0,1,.07-4.58,2.53,2.53,0,0,1,2-.88,2.25,2.25,0,0,1,1.82.76,3.17,3.17,0,0,1,.64,2.11Zm-1-.82a2,2,0,0,0-.4-1.29,1.36,1.36,0,0,0-1.1-.47,1.56,1.56,0,0,0-1.15.49,2.19,2.19,0,0,0-.59,1.27Z" fill="#1e1e1e"/>
      <path d="M475,277.35a1.91,1.91,0,0,1-.9.19c-1.05,0-1.57-.59-1.57-1.76v-3.55h-1v-.82h1v-1.47l1-.31v1.78H475v.82h-1.51v3.38a1.45,1.45,0,0,0,.2.86.84.84,0,0,0,.68.26,1,1,0,0,0,.63-.2Z" fill="#1e1e1e"/>
      <path d="M483.88,271.41l-1.8,6h-1l-1.24-4.3a2.26,2.26,0,0,1-.09-.55h0a2.44,2.44,0,0,1-.12.54l-1.34,4.31h-1l-1.82-6h1l1.24,4.51a2.29,2.29,0,0,1,.08.54h.05a2.33,2.33,0,0,1,.11-.55l1.38-4.5h.88l1.24,4.52a3,3,0,0,1,.09.54h.05a2.52,2.52,0,0,1,.09-.54l1.22-4.52Z" fill="#1e1e1e"/>
      <path d="M487.5,277.55a2.79,2.79,0,0,1-2.12-.84,3.12,3.12,0,0,1-.79-2.23,3.23,3.23,0,0,1,.82-2.36,3,3,0,0,1,2.23-.85,2.69,2.69,0,0,1,2.1.82,3.29,3.29,0,0,1,.75,2.29,3.21,3.21,0,0,1-.81,2.3A2.84,2.84,0,0,1,487.5,277.55Zm.07-5.48a1.83,1.83,0,0,0-1.46.63,2.59,2.59,0,0,0-.54,1.74,2.41,2.41,0,0,0,.55,1.68,1.83,1.83,0,0,0,1.45.62,1.77,1.77,0,0,0,1.44-.6,2.67,2.67,0,0,0,.5-1.72,2.71,2.71,0,0,0-.5-1.74A1.78,1.78,0,0,0,487.57,272.07Z" fill="#1e1e1e"/>
      <path d="M495.16,272.38a1.18,1.18,0,0,0-.73-.19,1.23,1.23,0,0,0-1,.58,2.7,2.7,0,0,0-.41,1.58v3.06h-1v-6h1v1.23h0a2.09,2.09,0,0,1,.63-1,1.4,1.4,0,0,1,.94-.36,1.75,1.75,0,0,1,.58.08Z" fill="#1e1e1e"/>
      <path d="M501.18,277.41h-1.35l-2.65-2.89h0v2.89h-1v-8.89h1v5.63h0l2.52-2.74H501l-2.78,2.89Z" fill="#1e1e1e"/>
    </g>
    <g>
      <path d="M220.4,277.41V269h2.39a2.61,2.61,0,0,1,1.73.54,1.73,1.73,0,0,1,.63,1.39,2,2,0,0,1-.38,1.24,2.14,2.14,0,0,1-1.07.75v0a2.15,2.15,0,0,1,1.36.64,2,2,0,0,1,.51,1.41,2.22,2.22,0,0,1-.77,1.75,2.92,2.92,0,0,1-2,.67Zm1-7.51v2.71h1a1.91,1.91,0,0,0,1.27-.39,1.36,1.36,0,0,0,.46-1.1c0-.82-.53-1.22-1.61-1.22Zm0,3.59v3h1.34a2,2,0,0,0,1.34-.41,1.42,1.42,0,0,0,.48-1.13c0-1-.68-1.49-2-1.49Z" fill="#1e1e1e"/>
      <path d="M235.84,277.41h-1v-5.64c0-.45,0-1,.09-1.63h0a5.42,5.42,0,0,1-.25.81l-2.87,6.46h-.48L228.45,271a6,6,0,0,1-.25-.86h0c0,.33,0,.88,0,1.64v5.63h-.94V269h1.3l2.57,5.86a7.92,7.92,0,0,1,.39,1h0c.16-.46.3-.8.4-1l2.63-5.84h1.23Z" fill="#1e1e1e"/>
      <path d="M243.77,277.06a5,5,0,0,1-2.32.49,3.74,3.74,0,0,1-2.87-1.16,4.26,4.26,0,0,1-1.08-3,4.43,4.43,0,0,1,1.21-3.25,4.13,4.13,0,0,1,3.08-1.25,4.91,4.91,0,0,1,2,.35v1.05a4,4,0,0,0-2-.51,3.08,3.08,0,0,0-2.35,1,3.66,3.66,0,0,0-.9,2.59,3.46,3.46,0,0,0,.84,2.44,2.86,2.86,0,0,0,2.21.91,4.1,4.1,0,0,0,2.19-.56Z" fill="#1e1e1e"/>
      <path d="M255.54,277.41h-1.21l-4.32-6.7a2.65,2.65,0,0,1-.27-.53h0a9.48,9.48,0,0,1,0,1.16v6.07h-1V269H250l4.21,6.6a5.88,5.88,0,0,1,.34.56h0a8.74,8.74,0,0,1-.06-1.24V269h1Z" fill="#1e1e1e"/>
      <path d="M262.44,274.65H258.2a2.26,2.26,0,0,0,.54,1.54,1.84,1.84,0,0,0,1.42.55,2.91,2.91,0,0,0,1.86-.67v.9a3.43,3.43,0,0,1-2.09.58,2.56,2.56,0,0,1-2-.82,3.35,3.35,0,0,1-.72-2.3,3.28,3.28,0,0,1,.79-2.28,2.54,2.54,0,0,1,2-.88,2.24,2.24,0,0,1,1.82.76,3.17,3.17,0,0,1,.65,2.11Zm-1-.82a1.9,1.9,0,0,0-.4-1.29,1.36,1.36,0,0,0-1.1-.47,1.57,1.57,0,0,0-1.15.49,2.25,2.25,0,0,0-.59,1.27Z" fill="#1e1e1e"/>
      <path d="M266.67,277.35a1.87,1.87,0,0,1-.89.19c-1,0-1.58-.59-1.58-1.76v-3.55h-1v-.82h1v-1.47l1-.31v1.78h1.51v.82h-1.51v3.38a1.37,1.37,0,0,0,.21.86.81.81,0,0,0,.68.26,1,1,0,0,0,.62-.2Z" fill="#1e1e1e"/>
      <path d="M275.52,271.41l-1.8,6h-1l-1.24-4.3a4,4,0,0,1-.09-.55h0a2.56,2.56,0,0,1-.13.54l-1.34,4.31h-1l-1.81-6h1l1.25,4.51a4.25,4.25,0,0,1,.08.54h0a3,3,0,0,1,.11-.55l1.38-4.5h.88l1.24,4.52a3,3,0,0,1,.09.54h.05a2.61,2.61,0,0,1,.1-.54l1.22-4.52Z" fill="#1e1e1e"/>
      <path d="M279.14,277.55a2.79,2.79,0,0,1-2.13-.84,3.12,3.12,0,0,1-.79-2.23,3.23,3.23,0,0,1,.82-2.36,3,3,0,0,1,2.24-.85,2.68,2.68,0,0,1,2.09.82,3.29,3.29,0,0,1,.76,2.29,3.22,3.22,0,0,1-.82,2.3A2.82,2.82,0,0,1,279.14,277.55Zm.07-5.48a1.84,1.84,0,0,0-1.47.63,2.59,2.59,0,0,0-.54,1.74,2.41,2.41,0,0,0,.55,1.68,1.85,1.85,0,0,0,1.46.62,1.75,1.75,0,0,0,1.43-.6,2.67,2.67,0,0,0,.5-1.72,2.71,2.71,0,0,0-.5-1.74A1.76,1.76,0,0,0,279.21,272.07Z" fill="#1e1e1e"/>
      <path d="M286.79,272.38a1.18,1.18,0,0,0-.73-.19,1.23,1.23,0,0,0-1,.58,2.7,2.7,0,0,0-.41,1.58v3.06h-1v-6h1v1.23h0a2.09,2.09,0,0,1,.63-1,1.42,1.42,0,0,1,.94-.36,1.71,1.71,0,0,1,.58.08Z" fill="#1e1e1e"/>
      <path d="M292.81,277.41h-1.35l-2.64-2.89h0v2.89h-1v-8.89h1v5.63h0l2.52-2.74h1.26l-2.79,2.89Z" fill="#1e1e1e"/>
    </g>
  </g>
</svg>
