<svg xmlns="http://www.w3.org/2000/svg" xmlns:xlink="http://www.w3.org/1999/xlink" viewBox="0 0 497 249">
  <defs>
    <linearGradient id="linear-gradient" x1="20.68" y1="377.61" x2="23.05" y2="375.24" gradientTransform="matrix(1, 0, 0, -1, 2.99, 582.31)" gradientUnits="userSpaceOnUse">
      <stop offset="0" stop-color="#86d633"/>
      <stop offset="0.24" stop-color="#83d232"/>
      <stop offset="0.5" stop-color="#7cc52f"/>
      <stop offset="0.76" stop-color="#6fb02a"/>
      <stop offset="1" stop-color="#5e9624"/>
    </linearGradient>
    <linearGradient id="linear-gradient-2" x1="15.34" y1="377.61" x2="17.69" y2="375.24" xlink:href="#linear-gradient"/>
    <linearGradient id="linear-gradient-3" x1="10" y1="377.62" x2="12.35" y2="375.25" xlink:href="#linear-gradient"/>
    <linearGradient id="linear-gradient-4" x1="98.5" y1="484.83" x2="98.5" y2="502.15" gradientTransform="matrix(1, 0, 0, -1, 0, 582.79)" gradientUnits="userSpaceOnUse">
      <stop offset="0" stop-color="#0078d4"/>
      <stop offset="0.82" stop-color="#5ea0ef"/>
    </linearGradient>
    <linearGradient id="linear-gradient-5" x1="98.5" y1="478.15" x2="98.5" y2="484.83" gradientTransform="matrix(1, 0, 0, -1, 0, 582.79)" gradientUnits="userSpaceOnUse">
      <stop offset="0.15" stop-color="#ccc"/>
      <stop offset="1" stop-color="#707070"/>
    </linearGradient>
    <linearGradient id="linear-gradient-6" x1="98.5" y1="453.95" x2="98.5" y2="471.27" xlink:href="#linear-gradient-4"/>
    <linearGradient id="linear-gradient-7" x1="98.5" y1="447.27" x2="98.5" y2="453.95" xlink:href="#linear-gradient-5"/>
    <linearGradient id="linear-gradient-8" x1="98.5" y1="422.73" x2="98.5" y2="440.05" xlink:href="#linear-gradient-4"/>
    <linearGradient id="linear-gradient-9" x1="98.5" y1="416.05" x2="98.5" y2="422.73" xlink:href="#linear-gradient-5"/>
    <linearGradient id="linear-gradient-10" x1="25.45" y1="564.73" x2="25.45" y2="545.47" gradientTransform="matrix(1, 0, 0, -1, 0, 582.79)" gradientUnits="userSpaceOnUse">
      <stop offset="0" stop-color="#5ea0ef"/>
      <stop offset="0.18" stop-color="#559cec"/>
      <stop offset="0.47" stop-color="#3c91e5"/>
      <stop offset="0.84" stop-color="#1380da"/>
      <stop offset="1" stop-color="#0078d4"/>
    </linearGradient>
    <linearGradient id="linear-gradient-11" x1="262.86" y1="564.73" x2="262.86" y2="545.47" xlink:href="#linear-gradient-10"/>
    <linearGradient id="linear-gradient-12" x1="31.98" y1="441.18" x2="31.98" y2="475.96" gradientTransform="matrix(1, 0, 0, -1, 0, 582.79)" gradientUnits="userSpaceOnUse">
      <stop offset="0" stop-color="#5e9624"/>
      <stop offset="0.02" stop-color="#5f9724"/>
      <stop offset="1" stop-color="#76bc2d"/>
    </linearGradient>
    <linearGradient id="linear-gradient-13" x1="261.42" y1="441.18" x2="261.42" y2="475.96" xlink:href="#linear-gradient-12"/>
    <linearGradient id="linear-gradient-14" x1="309.36" y1="466.32" x2="309.36" y2="487.97" xlink:href="#linear-gradient-4"/>
    <linearGradient id="linear-gradient-15" x1="309.36" y1="457.97" x2="309.36" y2="466.32" xlink:href="#linear-gradient-5"/>
    <linearGradient id="linear-gradient-16" x1="309.36" y1="427.5" x2="309.36" y2="449.15" xlink:href="#linear-gradient-4"/>
    <linearGradient id="linear-gradient-17" x1="309.36" y1="419.15" x2="309.36" y2="427.5" xlink:href="#linear-gradient-5"/>
    <linearGradient id="linear-gradient-18" x1="458.53" y1="439.01" x2="458.53" y2="473.78" xlink:href="#linear-gradient-12"/>
  </defs>
  <g id="Shapes">
    <rect width="497" height="249" fill="#fff"/>
    <g>
      <g>
        <rect x="1.92" y="1.24" width="405" height="205" rx="5" fill="#fff"/>
        <rect x="1.92" y="1.24" width="405" height="205" rx="5" fill="#0072c6" opacity="0.05"/>
      </g>
      <path d="M400.78,206.74h-1v-1h1Zm-3,0h-1v-1h1Zm-3,0h-1v-1h1Zm-3,0h-1v-1h1Zm-3,0h-1v-1h1Zm-3,0h-1v-1h1Zm-3,0h-1v-1h1Zm-3,0h-1v-1h1Zm-3,0h-1v-1h1Zm-3,0h-1v-1h1Zm-3,0h-1v-1h1Zm-3,0h-1v-1h1Zm-3,0h-1v-1h1Zm-3,0h-1v-1h1Zm-3,0h-1v-1h1Zm-3,0h-1v-1h1Zm-3,0h-1v-1h1Zm-3,0h-1v-1h1Zm-3,0h-1v-1h1Zm-3,0h-1v-1h1Zm-3,0h-1v-1h1Zm-3,0h-1v-1h1Zm-3,0h-1v-1h1Zm-3,0h-1v-1h1Zm-3,0h-1v-1h1Zm-3,0h-1v-1h1Zm-3,0h-1v-1h1Zm-3,0h-1v-1h1Zm-3,0h-1v-1h1Zm-3,0h-1v-1h1Zm-3,0h-1v-1h1Zm-3,0h-1v-1h1Zm-3,0h-1v-1h1Zm-3,0h-1v-1h1Zm-3,0h-1v-1h1Zm-3,0h-1v-1h1Zm-3,0h-1v-1h1Zm-3,0h-1v-1h1Zm-3,0h-1v-1h1Zm-3,0h-1v-1h1Zm-3,0h-1v-1h1Zm-3,0h-1v-1h1Zm-3,0h-1v-1h1Zm-3,0h-1v-1h1Zm-3,0h-1v-1h1Zm-3,0h-1v-1h1Zm-3,0h-1v-1h1Zm-3,0h-1v-1h1Zm-3,0h-1v-1h1Zm-3,0h-1v-1h1Zm-3,0h-1v-1h1Zm-3,0h-1v-1h1Zm-3,0h-1v-1h1Zm-3,0h-1v-1h1Zm-3,0h-1v-1h1Zm-3,0h-1v-1h1Zm-3,0h-1v-1h1Zm-3,0h-1v-1h1Zm-3,0h-1v-1h1Zm-3,0h-1v-1h1Zm-3,0h-1v-1h1Zm-3,0h-1v-1h1Zm-3,0h-1v-1h1Zm-3,0h-1v-1h1Zm-3,0h-1v-1h1Zm-3,0h-1v-1h1Zm-3,0h-1v-1h1Zm-3,0h-1v-1h1Zm-3,0h-1v-1h1Zm-3,0h-1v-1h1Zm-3,0h-1v-1h1Zm-3,0h-1v-1h1Zm-3,0h-1v-1h1Zm-3,0h-1v-1h1Zm-3,0h-1v-1h1Zm-3,0h-1v-1h1Zm-3,0h-1v-1h1Zm-3,0h-1v-1h1Zm-3,0h-1v-1h1Zm-3,0h-1v-1h1Zm-3,0h-1v-1h1Zm-3,0h-1v-1h1Zm-3,0h-1v-1h1Zm-3,0h-1v-1h1Zm-3,0h-1v-1h1Zm-3,0h-1v-1h1Zm-3,0h-1v-1h1Zm-3,0h-1v-1h1Zm-3,0h-1v-1h1Zm-3,0h-1v-1h1Zm-3,0h-1v-1h1Zm-3,0h-1v-1h1Zm-3,0h-1v-1h1Zm-3,0h-1v-1h1Zm-3,0h-1v-1h1Zm-3,0h-1v-1h1Zm-3,0h-1v-1h1Zm-3,0h-1v-1h1Zm-3,0h-1v-1h1Zm-3,0h-1v-1h1Zm-3,0h-1v-1h1Zm-3,0h-1v-1h1Zm-3,0H94v-1h1Zm-3,0H91v-1h1Zm-3,0H88v-1h1Zm-3,0H85v-1h1Zm-3,0H82v-1h1Zm-3,0H79v-1h1Zm-3,0H76v-1h1Zm-3,0H73v-1h1Zm-3,0H70v-1h1Zm-3,0H67v-1h1Zm-3,0H64v-1h1Zm-3,0H61v-1h1Zm-3,0H58v-1h1Zm-3,0H55v-1h1Zm-3,0H52v-1h1Zm-3,0H49v-1h1Zm-3,0H46v-1h1Zm-3,0H43v-1h1Zm-3,0H40v-1h1Zm-3,0H37v-1h1Zm-3,0H34v-1h1Zm367.88-.09-.17-1a4.4,4.4,0,0,0,.86-.24l.37.93A5.54,5.54,0,0,1,402.86,206.65Zm-398-.32a5.34,5.34,0,0,1-1-.52l.56-.83a4,4,0,0,0,.79.42Zm400.9-1.15-.7-.72a4.24,4.24,0,0,0,.58-.69l.83.57A6.31,6.31,0,0,1,405.75,205.18ZM2.34,204.27a5.29,5.29,0,0,1-.51-1l.92-.38a6.09,6.09,0,0,0,.42.8Zm405-1.94-1-.2a4.41,4.41,0,0,0,.09-.89l1-.06v.06A5,5,0,0,1,407.31,202.33ZM2.42,201.16h-1v-1h1Zm405-2h-1v-1h1Zm-405-1h-1v-1h1Zm405-2h-1v-1h1Zm-405-1h-1v-1h1Zm405-2h-1v-1h1Zm-405-1h-1v-1h1Zm405-2h-1v-1h1Zm-405-1h-1v-1h1Zm405-2h-1v-1h1Zm-405-1h-1v-1h1Zm405-2h-1v-1h1Zm-405-1h-1v-1h1Zm405-2h-1v-1h1Zm-405-1h-1v-1h1Zm405-2h-1v-1h1Zm-405-1h-1v-1h1Zm405-2h-1v-1h1Zm-405-1h-1v-1h1Zm405-2h-1v-1h1Zm-405-1h-1v-1h1Zm405-2h-1v-1h1Zm-405-1h-1v-1h1Zm405-2h-1v-1h1Zm-405-1h-1v-1h1Zm405-2h-1v-1h1Zm-405-1h-1v-1h1Zm405-2h-1v-1h1Zm-405-1h-1v-1h1Zm405-2h-1v-1h1Zm-405-1h-1v-1h1Zm405-2h-1v-1h1Zm-405-1h-1v-1h1Zm405-2h-1v-1h1Zm-405-1h-1v-1h1Zm405-2h-1v-1h1Zm-405-1h-1v-1h1Zm405-2h-1v-1h1Zm-405-1h-1v-1h1Zm405-2h-1v-1h1Zm-405-1h-1v-1h1Zm405-2h-1v-1h1Zm-405-1h-1v-1h1Zm405-2h-1v-1h1Zm-405-1h-1v-1h1Zm405-2h-1v-1h1Zm-405-1h-1v-1h1Zm405-2h-1v-1h1Zm-405-1h-1v-1h1Zm405-2h-1v-1h1Zm-405-1h-1v-1h1Zm405-2h-1v-1h1Zm-405-1h-1v-1h1Zm405-2h-1v-1h1Zm-405-1h-1v-1h1Zm405-2h-1v-1h1Zm-405-1h-1v-1h1Zm405-2h-1v-1h1Zm-405-1h-1v-1h1Zm405-2h-1v-1h1Zm-405-1h-1v-1h1Zm405-2h-1v-1h1Zm-405-1h-1v-1h1Zm405-2h-1v-1h1Zm-405-1h-1v-1h1Zm405-2h-1v-1h1Zm-405-1h-1v-1h1Zm405-2h-1v-1h1Zm-405-1h-1v-1h1Zm405-2h-1v-1h1Zm-405-1h-1v-1h1Zm405-2h-1v-1h1Zm-405-1h-1v-1h1Zm405-2h-1v-1h1Zm-405-1h-1v-1h1Zm405-2h-1v-1h1Zm-405-1h-1v-1h1Zm405-2h-1v-1h1Zm-405-1h-1v-1h1Zm405-2h-1v-1h1Zm-405-1h-1v-1h1Zm405-2h-1v-1h1Zm-405-1h-1v-1h1Zm405-2h-1v-1h1Zm-405-1h-1v-1h1Zm405-2h-1v-1h1Zm-405-1h-1v-1h1Zm405-2h-1v-1h1Zm-405-1h-1v-1h1Zm405-2h-1v-1h1Zm-405-1h-1v-1h1Zm405-2h-1v-1h1Zm-405-1h-1v-1h1Zm405-2h-1v-1h1Zm-405-1h-1v-1h1Zm405-2h-1v-1h1Zm-405-1h-1v-1h1Zm405-2h-1v-1h1Zm-405-1h-1v-1h1Zm405-2h-1v-1h1Zm-405-1h-1v-1h1Zm405-2h-1v-1h1Zm-405-1h-1v-1h1Zm405-2h-1v-1h1Zm-405-1h-1v-1h1Zm405-2h-1v-1h1Zm-405-1h-1v-1h1Zm405-2h-1v-1h1Zm-405-1h-1v-1h1Zm405-2h-1v-1h1Zm-405-1h-1v-1h1Zm405-2h-1v-1h1Zm-405-1h-1v-1h1Zm405-2h-1v-1h1Zm-405-1h-1v-1h1Zm405-2h-1v-1h1Zm-405-1h-1v-1h1Zm405-2h-1v-1h1Zm-405-1h-1v-1h1Zm405-2h-1v-1h1Zm-405-1h-1v-1h1Zm405-2h-1v-1h1Zm-405-1h-1v-1h1Zm405-2h-1v-1h1Zm-405-1h-1v-1h1Zm405-2h-1v-1h1Zm-405-1h-1v-1h1Zm405-2h-1v-1h1Zm-405-1h-1v-1h1Zm405-2h-1v-1h1Zm-406-1v0a5.29,5.29,0,0,1,.11-1.06l1,.19a4.14,4.14,0,0,0-.09.87ZM406.08,4.52a4.29,4.29,0,0,0-.42-.79l.83-.56a6.49,6.49,0,0,1,.52,1ZM3.2,3.72l-.83-.56a5.12,5.12,0,0,1,.7-.84l.7.71A4.75,4.75,0,0,0,3.2,3.72ZM404.38,2.47a4.55,4.55,0,0,0-.79-.41l.37-.93a5.6,5.6,0,0,1,1,.51ZM5.27,2.05,4.9,1.12a6.3,6.3,0,0,1,1-.3l.18,1A4.4,4.4,0,0,0,5.27,2.05Zm396.55-.31h-1v-1h1Zm-3,0h-1v-1h1Zm-3,0h-1v-1h1Zm-3,0h-1v-1h1Zm-3,0h-1v-1h1Zm-3,0h-1v-1h1Zm-3,0h-1v-1h1Zm-3,0h-1v-1h1Zm-3,0h-1v-1h1Zm-3,0h-1v-1h1Zm-3,0h-1v-1h1Zm-3,0h-1v-1h1Zm-3,0h-1v-1h1Zm-3,0h-1v-1h1Zm-3,0h-1v-1h1Zm-3,0h-1v-1h1Zm-3,0h-1v-1h1Zm-3,0h-1v-1h1Zm-3,0h-1v-1h1Zm-3,0h-1v-1h1Zm-3,0h-1v-1h1Zm-3,0h-1v-1h1Zm-3,0h-1v-1h1Zm-3,0h-1v-1h1Zm-3,0h-1v-1h1Zm-3,0h-1v-1h1Zm-3,0h-1v-1h1Zm-3,0h-1v-1h1Zm-3,0h-1v-1h1Zm-3,0h-1v-1h1Zm-3,0h-1v-1h1Zm-3,0h-1v-1h1Zm-3,0h-1v-1h1Zm-3,0h-1v-1h1Zm-3,0h-1v-1h1Zm-3,0h-1v-1h1Zm-3,0h-1v-1h1Zm-3,0h-1v-1h1Zm-3,0h-1v-1h1Zm-3,0h-1v-1h1Zm-3,0h-1v-1h1Zm-3,0h-1v-1h1Zm-3,0h-1v-1h1Zm-3,0h-1v-1h1Zm-3,0h-1v-1h1Zm-3,0h-1v-1h1Zm-3,0h-1v-1h1Zm-3,0h-1v-1h1Zm-3,0h-1v-1h1Zm-3,0h-1v-1h1Zm-3,0h-1v-1h1Zm-3,0h-1v-1h1Zm-3,0h-1v-1h1Zm-3,0h-1v-1h1Zm-3,0h-1v-1h1Zm-3,0h-1v-1h1Zm-3,0h-1v-1h1Zm-3,0h-1v-1h1Zm-3,0h-1v-1h1Zm-3,0h-1v-1h1Zm-3,0h-1v-1h1Zm-3,0h-1v-1h1Zm-3,0h-1v-1h1Zm-3,0h-1v-1h1Zm-3,0h-1v-1h1Zm-3,0h-1v-1h1Zm-3,0h-1v-1h1Zm-3,0h-1v-1h1Zm-3,0h-1v-1h1Zm-3,0h-1v-1h1Zm-3,0h-1v-1h1Zm-3,0h-1v-1h1Zm-3,0h-1v-1h1Zm-3,0h-1v-1h1Zm-3,0h-1v-1h1Zm-3,0h-1v-1h1Zm-3,0h-1v-1h1Zm-3,0h-1v-1h1Zm-3,0h-1v-1h1Zm-3,0h-1v-1h1Zm-3,0h-1v-1h1Zm-3,0h-1v-1h1Zm-3,0h-1v-1h1Zm-3,0h-1v-1h1Zm-3,0h-1v-1h1Zm-3,0h-1v-1h1Zm-3,0h-1v-1h1Zm-3,0h-1v-1h1Zm-3,0h-1v-1h1Zm-3,0h-1v-1h1Zm-3,0h-1v-1h1Zm-3,0h-1v-1h1Zm-3,0h-1v-1h1Zm-3,0h-1v-1h1Zm-3,0h-1v-1h1Zm-3,0h-1v-1h1Zm-3,0h-1v-1h1Zm-3,0h-1v-1h1Zm-3,0h-1v-1h1Zm-3,0h-1v-1h1Zm-3,0h-1v-1h1Zm-3,0H98v-1h1Zm-3,0H95v-1h1Zm-3,0H92v-1h1Zm-3,0H89v-1h1Zm-3,0H86v-1h1Zm-3,0H83v-1h1Zm-3,0H80v-1h1Zm-3,0H77v-1h1Zm-3,0H74v-1h1Zm-3,0H71v-1h1Zm-3,0H68v-1h1Zm-3,0H65v-1h1Zm-3,0H62v-1h1Zm-3,0H59v-1h1Zm-3,0H56v-1h1Zm-3,0H53v-1h1Zm-3,0H50v-1h1Zm-3,0H47v-1h1Zm-3,0H44v-1h1Zm-3,0H41v-1h1Zm-3,0H38v-1h1Zm-3,0H35v-1h1Zm-3,0H32v-1h1Zm-3,0H29v-1h1Zm-3,0H26v-1h1Zm-3,0H23v-1h1Zm-3,0H20v-1h1Zm-3,0H17v-1h1Zm-3,0H14v-1h1Zm-3,0H11v-1h1Zm-3,0H8v-1H9Z" fill="#0072c6"/>
    </g>
    <g>
      <rect x="11.42" y="10.64" width="220" height="180" fill="#fff"/>
      <rect x="11.42" y="10.64" width="220" height="180" fill="#3c3c41" opacity="0.2"/>
    </g>
    <g>
      <circle cx="24.33" cy="205.84" r="1.67" fill="url(#linear-gradient)"/>
      <circle cx="18.98" cy="205.86" r="1.67" fill="url(#linear-gradient-2)"/>
      <circle cx="13.64" cy="205.86" r="1.67" fill="url(#linear-gradient-3)"/>
      <path d="M14.86,212.55l-1,1a.44.44,0,0,1-.62,0h0l-7.09-7.07a.87.87,0,0,1,0-1.23h0l1-1h0l7.7,7.69a.44.44,0,0,1,0,.61Z" fill="#50e6ff"/>
      <path d="M13.75,198.21l1,1a.44.44,0,0,1,0,.62l-7.57,7.59h0l-1-1a.86.86,0,0,1,0-1.22h0l7-7A.44.44,0,0,1,13.75,198.21Z" fill="#1490df"/>
      <path d="M30.7,204.24l1,1a.86.86,0,0,1,0,1.22h0l-7.1,7.08a.43.43,0,0,1-.61,0h0l-1-1a.43.43,0,0,1,0-.61h0l7.71-7.69Z" fill="#50e6ff"/>
      <path d="M31.66,206.41l-1,1h0l-7.58-7.59a.44.44,0,0,1,0-.62h0l1-1a.45.45,0,0,1,.62,0h0l7,7a.86.86,0,0,1,0,1.22h0Z" fill="#1490df"/>
    </g>
    <g>
      <rect x="61.49" y="50.64" width="89.94" height="130" fill="#fff"/>
      <rect x="61.49" y="50.64" width="89.94" height="130" fill="none" stroke="#3c3c41" stroke-width="0.25"/>
    </g>
    <g>
      <rect x="85.51" y="80.64" width="25.98" height="17.32" rx="0.87" fill="url(#linear-gradient-4)"/>
      <polygon points="102.83 86.77 102.83 91.81 98.5 94.35 98.5 89.3 102.83 86.77" fill="#50e6ff"/>
      <polygon points="102.83 86.77 98.5 89.31 94.17 86.77 98.5 84.25 102.83 86.77" fill="#c3f1ff"/>
      <polygon points="98.5 89.31 98.5 94.35 94.17 91.81 94.17 86.77 98.5 89.31" fill="#9cebff"/>
      <polygon points="94.17 91.81 98.5 89.3 98.5 94.35 94.17 91.81" fill="#c3f1ff"/>
      <polygon points="102.83 91.81 98.5 89.3 98.5 94.35 102.83 91.81" fill="#9cebff"/>
      <path d="M103.71,103.2C101.14,102.79,101,101,101,98h-5.1c0,3-.08,4.83-2.65,5.24A1.44,1.44,0,0,0,92,104.64h13A1.43,1.43,0,0,0,103.71,103.2Z" fill="url(#linear-gradient-5)"/>
    </g>
    <g>
      <rect x="85.51" y="111.52" width="25.98" height="17.32" rx="0.87" fill="url(#linear-gradient-6)"/>
      <polygon points="102.83 117.66 102.83 122.69 98.5 125.23 98.5 120.18 102.83 117.66" fill="#50e6ff"/>
      <polygon points="102.83 117.66 98.5 120.2 94.17 117.66 98.5 115.13 102.83 117.66" fill="#c3f1ff"/>
      <polygon points="98.5 120.2 98.5 125.23 94.17 122.69 94.17 117.66 98.5 120.2" fill="#9cebff"/>
      <polygon points="94.17 122.69 98.5 120.18 98.5 125.23 94.17 122.69" fill="#c3f1ff"/>
      <polygon points="102.83 122.69 98.5 120.18 98.5 125.23 102.83 122.69" fill="#9cebff"/>
      <path d="M103.71,134.08c-2.57-.41-2.67-2.25-2.67-5.24h-5.1c0,3-.08,4.83-2.65,5.24A1.44,1.44,0,0,0,92,135.52h13A1.43,1.43,0,0,0,103.71,134.08Z" fill="url(#linear-gradient-7)"/>
    </g>
    <g>
      <rect x="85.51" y="142.74" width="25.98" height="17.32" rx="0.87" fill="url(#linear-gradient-8)"/>
      <polygon points="102.83 148.87 102.83 153.91 98.5 156.44 98.5 151.39 102.83 148.87" fill="#50e6ff"/>
      <polygon points="102.83 148.87 98.5 151.41 94.17 148.87 98.5 146.34 102.83 148.87" fill="#c3f1ff"/>
      <polygon points="98.5 151.41 98.5 156.44 94.17 153.91 94.17 148.87 98.5 151.41" fill="#9cebff"/>
      <polygon points="94.17 153.91 98.5 151.39 98.5 156.44 94.17 153.91" fill="#c3f1ff"/>
      <polygon points="102.83 153.91 98.5 151.39 98.5 156.44 102.83 153.91" fill="#9cebff"/>
      <path d="M103.71,165.29c-2.57-.4-2.67-2.25-2.67-5.24h-5.1c0,3-.08,4.84-2.65,5.24A1.45,1.45,0,0,0,92,166.74h13A1.44,1.44,0,0,0,103.71,165.29Z" fill="url(#linear-gradient-9)"/>
    </g>
    <g>
      <line x1="45.91" y1="123.52" x2="79.53" y2="123.52" fill="none" stroke="#3c3c41" stroke-miterlimit="10"/>
      <polygon points="78.43 127.26 84.91 123.52 78.43 119.78 78.43 127.26" fill="#3c3c41"/>
    </g>
    <g>
      <path d="M79.53,152.92H49.91a5,5,0,0,1-5-5V95.64a5,5,0,0,1,5-5H79.53" fill="none" stroke="#3c3c41" stroke-miterlimit="10"/>
      <polygon points="78.43 149.18 84.91 152.91 78.43 156.66 78.43 149.18" fill="#3c3c41"/>
      <polygon points="78.43 94.38 84.91 90.64 78.43 86.9 78.43 94.38" fill="#3c3c41"/>
    </g>
    <g>
      <path d="M34,27c0,5.65-6.82,10.2-8.3,11.12a.56.56,0,0,1-.56,0c-1.49-.92-8.31-5.47-8.31-11.12V20.2a.54.54,0,0,1,.52-.54c5.31-.14,4.09-2.47,8.07-2.47s2.75,2.33,8.06,2.47a.54.54,0,0,1,.52.54Z" fill="#0078d4"/>
      <path d="M33.3,27.05c0,5.18-6.25,9.33-7.62,10.19a.47.47,0,0,1-.51,0c-1.37-.84-7.62-5-7.62-10.19V20.82a.48.48,0,0,1,.48-.49c4.86-.13,3.74-2.27,7.4-2.27S28,20.2,32.82,20.33a.48.48,0,0,1,.48.49Z" fill="#6bb9f2"/>
      <path d="M25.43,27.69V18.06c3.65,0,2.53,2.14,7.39,2.27a.5.5,0,0,1,.48.5v6.23q0,.32,0,.63Zm0,0H17.59c.46,4.88,6.27,8.75,7.58,9.55a.33.33,0,0,0,.21.07h.05Z" fill="url(#linear-gradient-10)"/>
      <path d="M18,20.33c4.86-.13,3.74-2.27,7.4-2.27v9.63H17.59a3.31,3.31,0,0,1,0-.63V20.83A.48.48,0,0,1,18,20.33Z" fill="#50e6ff"/>
      <path d="M33.27,27.69H25.43v9.62h0a.35.35,0,0,0,.21-.07C27,36.44,32.8,32.57,33.27,27.69Z" fill="#50e6ff"/>
    </g>
    <g>
      <rect x="246.42" y="10.64" width="150" height="180" fill="#fff"/>
      <rect x="246.42" y="10.64" width="150" height="180" fill="#3c3c41" opacity="0.2"/>
    </g>
    <g>
      <rect x="261.42" y="60.51" width="125" height="120.14" fill="#fff"/>
      <rect x="261.42" y="60.51" width="125" height="120.14" fill="none" stroke="#3c3c41" stroke-width="0.25"/>
    </g>
    <g>
      <path d="M271.42,27c0,5.65-6.82,10.2-8.3,11.12a.58.58,0,0,1-.57,0c-1.48-.92-8.3-5.47-8.3-11.12V20.2a.54.54,0,0,1,.52-.54c5.31-.14,4.09-2.47,8.07-2.47s2.75,2.33,8.06,2.47a.54.54,0,0,1,.52.54Z" fill="#0078d4"/>
      <path d="M270.71,27.05c0,5.18-6.25,9.33-7.62,10.19a.47.47,0,0,1-.51,0c-1.37-.84-7.62-5-7.62-10.19V20.82a.48.48,0,0,1,.48-.49c4.86-.13,3.74-2.27,7.4-2.27s2.53,2.14,7.39,2.27a.48.48,0,0,1,.48.49Z" fill="#6bb9f2"/>
      <path d="M262.84,27.69V18.06c3.65,0,2.53,2.14,7.39,2.27a.5.5,0,0,1,.48.5v6.23q0,.32,0,.63Zm0,0H255c.47,4.88,6.28,8.75,7.59,9.55a.31.31,0,0,0,.21.07h0Z" fill="url(#linear-gradient-11)"/>
      <path d="M255.44,20.33c4.86-.13,3.74-2.27,7.4-2.27v9.63H255q0-.32,0-.63V20.83A.5.5,0,0,1,255.44,20.33Z" fill="#50e6ff"/>
      <path d="M270.68,27.69h-7.84v9.62h0a.35.35,0,0,0,.21-.07C264.4,36.44,270.21,32.57,270.68,27.69Z" fill="#50e6ff"/>
    </g>
    <g>
      <rect x="280.97" y="85.64" width="85.91" height="85" fill="#fff"/>
      <rect x="280.97" y="85.64" width="85.91" height="85" fill="#3c3c41" opacity="0.3"/>
    </g>
    <g>
      <path d="M17.29,122.81l14-14a1,1,0,0,1,1.41,0h0l14,14a1,1,0,0,1,0,1.41l0,0-14,14a1,1,0,0,1-1.4,0l-14-14a1,1,0,0,1,0-1.42Z" fill="url(#linear-gradient-12)"/>
      <path d="M35.65,115.19l-3.53-3.52a.22.22,0,0,0-.27,0l-3.53,3.52a.17.17,0,0,0-.05.23.16.16,0,0,0,.18.07h2.07a.18.18,0,0,1,.18.18V119a.18.18,0,0,0,.18.18h2.2a.19.19,0,0,0,.19-.18v-3.34a.18.18,0,0,1,.18-.18h2.07a.16.16,0,0,0,.2-.12A.16.16,0,0,0,35.65,115.19Z" fill="#b4ec36"/>
      <path d="M23.65,119.54l-3.5,3.55a.2.2,0,0,0,0,.25l3.5,3.51a.18.18,0,0,0,.26,0,.18.18,0,0,0,.06-.14v-2a.18.18,0,0,1,.18-.18h3.33a.17.17,0,0,0,.17-.17h0v-2.2a.16.16,0,0,0-.06-.23l-.06,0H24.2a.17.17,0,0,1-.18-.15v-2a.2.2,0,0,0-.12-.25A.21.21,0,0,0,23.65,119.54Z" fill="#b4ec36"/>
      <path d="M40.45,126.85,44,123.32a.2.2,0,0,0,0-.25l-3.55-3.53a.2.2,0,0,0-.26,0,.21.21,0,0,0,0,.11v2.09a.16.16,0,0,1-.17.16H36.63a.17.17,0,0,0-.16.17v2.22a.16.16,0,0,0,.15.18H40a.18.18,0,0,1,.18.18v2.07a.18.18,0,0,0,.2.16A.19.19,0,0,0,40.45,126.85Z" fill="#b4ec36"/>
      <path d="M36.63,123.52a4.65,4.65,0,1,0-5.9,4.45v1.58a2.84,2.84,0,1,0,2.62,0v-1.66A4.61,4.61,0,0,0,36.63,123.52Z" fill="#fff"/>
      <circle id="e99c3387-15c3-4f28-bd4b-cb209b430e06" cx="32" cy="123.51" r="2.7" fill="#5ea0ef"/>
    </g>
    <g>
      <path d="M246.73,122.81l14-14a1,1,0,0,1,1.41,0h0l14,14a1,1,0,0,1,0,1.41l0,0-14,14a1,1,0,0,1-1.4,0l-14-14a1,1,0,0,1,0-1.42Z" fill="url(#linear-gradient-13)"/>
      <path d="M265.09,115.19l-3.53-3.52a.23.23,0,0,0-.27,0l-3.53,3.52a.17.17,0,0,0-.05.23.16.16,0,0,0,.18.07H260a.18.18,0,0,1,.18.18V119a.18.18,0,0,0,.18.18h2.2a.19.19,0,0,0,.19-.18v-3.34a.18.18,0,0,1,.18-.18H265a.17.17,0,0,0,.2-.12A.18.18,0,0,0,265.09,115.19Z" fill="#b4ec36"/>
      <path d="M253.09,119.54l-3.5,3.55a.2.2,0,0,0,0,.25l3.5,3.51a.18.18,0,0,0,.26,0,.18.18,0,0,0,.06-.14v-2a.18.18,0,0,1,.18-.18h3.33a.17.17,0,0,0,.17-.17h0v-2.2a.16.16,0,0,0-.06-.23l-.06,0h-3.33a.17.17,0,0,1-.18-.15v-2a.2.2,0,0,0-.37-.13Z" fill="#b4ec36"/>
      <path d="M269.89,126.85l3.55-3.53a.2.2,0,0,0,0-.25l-3.55-3.53a.2.2,0,0,0-.26,0,.15.15,0,0,0,0,.11v2.09a.17.17,0,0,1-.17.16h-3.35a.18.18,0,0,0-.17.17v2.22a.16.16,0,0,0,.14.18h3.35a.18.18,0,0,1,.19.18v2.07a.18.18,0,0,0,.2.16A.19.19,0,0,0,269.89,126.85Z" fill="#b4ec36"/>
      <path d="M266.07,123.52a4.65,4.65,0,1,0-5.9,4.45v1.58a2.85,2.85,0,1,0,3.84,1.23,2.9,2.9,0,0,0-1.22-1.23v-1.66A4.61,4.61,0,0,0,266.07,123.52Z" fill="#fff"/>
      <circle id="e99c3387-15c3-4f28-bd4b-cb209b430e06-2" data-name="e99c3387-15c3-4f28-bd4b-cb209b430e06" cx="261.44" cy="123.51" r="2.7" fill="#5ea0ef"/>
    </g>
    <g>
      <rect x="293.13" y="94.82" width="32.47" height="21.65" rx="1.08" fill="url(#linear-gradient-14)"/>
      <polygon points="314.77 102.49 314.77 108.78 309.36 111.96 309.36 105.64 314.77 102.49" fill="#50e6ff"/>
      <polygon points="314.77 102.49 309.36 105.66 303.95 102.49 309.36 99.33 314.77 102.49" fill="#c3f1ff"/>
      <polygon points="309.36 105.66 309.36 111.96 303.95 108.78 303.95 102.49 309.36 105.66" fill="#9cebff"/>
      <polygon points="303.95 108.78 309.36 105.64 309.36 111.96 303.95 108.78" fill="#c3f1ff"/>
      <polygon points="314.77 108.78 309.36 105.64 309.36 111.96 314.77 108.78" fill="#9cebff"/>
      <path d="M315.88,123c-3.22-.51-3.34-2.82-3.34-6.55h-6.37c0,3.73-.11,6-3.32,6.55a1.79,1.79,0,0,0-1.6,1.8h16.23A1.8,1.8,0,0,0,315.88,123Z" fill="url(#linear-gradient-15)"/>
    </g>
    <g>
      <rect x="293.13" y="133.64" width="32.47" height="21.65" rx="1.08" fill="url(#linear-gradient-16)"/>
      <polygon points="314.77 141.31 314.77 147.6 309.36 150.78 309.36 144.46 314.77 141.31" fill="#50e6ff"/>
      <polygon points="314.77 141.31 309.36 144.48 303.95 141.31 309.36 138.15 314.77 141.31" fill="#c3f1ff"/>
      <polygon points="309.36 144.48 309.36 150.78 303.95 147.6 303.95 141.31 309.36 144.48" fill="#9cebff"/>
      <polygon points="303.95 147.6 309.36 144.46 309.36 150.78 303.95 147.6" fill="#c3f1ff"/>
      <polygon points="314.77 147.6 309.36 144.46 309.36 150.78 314.77 147.6" fill="#9cebff"/>
      <path d="M315.88,161.84c-3.22-.51-3.34-2.82-3.34-6.55h-6.37c0,3.73-.11,6-3.32,6.55a1.79,1.79,0,0,0-1.6,1.8h16.23A1.8,1.8,0,0,0,315.88,161.84Z" fill="url(#linear-gradient-17)"/>
    </g>
    <g>
      <rect x="156.42" y="110.95" width="64.76" height="25.14" fill="#fff"/>
      <rect x="156.42" y="110.95" width="64.76" height="25.14" fill="#3c3c41" opacity="0.02"/>
      <rect x="156.42" y="110.95" width="64.76" height="25.14" fill="none" stroke="#75757a" stroke-miterlimit="10" stroke-width="0.5" opacity="0.5"/>
    </g>
    <g>
      <g>
        <line x1="241.42" y1="123.52" x2="221.42" y2="123.52" fill="none" stroke="#e62323" stroke-miterlimit="10"/>
        <polygon points="240.4 120.03 246.45 123.52 240.4 127.01 240.4 120.03" fill="#e62323"/>
      </g>
      <g>
        <line x1="241.42" y1="123.52" x2="239.92" y2="123.52" fill="none" stroke="#fff" stroke-miterlimit="10" stroke-width="0.5"/>
        <line x1="236.52" y1="123.52" x2="224.62" y2="123.52" fill="none" stroke="#fff" stroke-miterlimit="10" stroke-width="0.5" stroke-dasharray="3.4 3.4"/>
        <line x1="222.92" y1="123.52" x2="221.42" y2="123.52" fill="none" stroke="#fff" stroke-miterlimit="10" stroke-width="0.5"/>
      </g>
    </g>
    <g>
      <g>
        <polyline points="266.95 113.64 276.42 102.64 287.96 102.64" fill="none" stroke="#e62323" stroke-miterlimit="10"/>
        <polygon points="286.94 106.13 292.98 102.64 286.94 99.15 286.94 106.13" fill="#e62323"/>
      </g>
      <g>
        <line x1="266.95" y1="113.64" x2="267.93" y2="112.5" fill="none" stroke="#fff" stroke-miterlimit="10" stroke-width="0.5"/>
        <line x1="270.43" y1="109.59" x2="274.19" y2="105.23" fill="none" stroke="#fff" stroke-miterlimit="10" stroke-width="0.5" stroke-dasharray="3.84 3.84"/>
        <polyline points="275.44 103.78 276.42 102.64 277.92 102.64" fill="none" stroke="#fff" stroke-miterlimit="10" stroke-width="0.5"/>
        <line x1="280.77" y1="102.64" x2="285.04" y2="102.64" fill="none" stroke="#fff" stroke-miterlimit="10" stroke-width="0.5" stroke-dasharray="2.85 2.85"/>
        <line x1="286.46" y1="102.64" x2="287.96" y2="102.64" fill="none" stroke="#fff" stroke-miterlimit="10" stroke-width="0.5"/>
      </g>
    </g>
    <g>
      <g>
        <polyline points="266.95 133.12 276.42 144.12 287.96 144.12" fill="none" stroke="#e62323" stroke-miterlimit="10"/>
        <polygon points="286.94 147.61 292.98 144.12 286.94 140.63 286.94 147.61" fill="#e62323"/>
      </g>
      <g>
        <line x1="266.95" y1="133.12" x2="267.93" y2="134.26" fill="none" stroke="#fff" stroke-miterlimit="10" stroke-width="0.5"/>
        <line x1="270.43" y1="137.17" x2="274.19" y2="141.53" fill="none" stroke="#fff" stroke-miterlimit="10" stroke-width="0.5" stroke-dasharray="3.84 3.84"/>
        <polyline points="275.44 142.98 276.42 144.12 277.92 144.12" fill="none" stroke="#fff" stroke-miterlimit="10" stroke-width="0.5"/>
        <line x1="280.77" y1="144.12" x2="285.04" y2="144.12" fill="none" stroke="#fff" stroke-miterlimit="10" stroke-width="0.5" stroke-dasharray="2.85 2.85"/>
        <line x1="286.46" y1="144.12" x2="287.96" y2="144.12" fill="none" stroke="#fff" stroke-miterlimit="10" stroke-width="0.5"/>
      </g>
    </g>
    <g>
      <g>
        <line x1="456.42" y1="113.39" x2="326.42" y2="113.39" fill="none" stroke="#005ba1" stroke-miterlimit="10"/>
        <path d="M333.19,108.59a.5.5,0,0,1-.15.69l-6.45,4.11L333,117.5a.5.5,0,0,1-.54.85l-7.11-4.53a.51.51,0,0,1-.23-.43.48.48,0,0,1,.23-.42l7.11-4.53a.56.56,0,0,1,.27-.08A.48.48,0,0,1,333.19,108.59Z" fill="#005ba1"/>
      </g>
      <line x1="456.42" y1="113.39" x2="326.42" y2="113.39" fill="none" stroke="#b4ec36" stroke-miterlimit="10" stroke-width="0.25"/>
    </g>
    <g>
      <g>
        <line x1="456.42" y1="138.21" x2="326.42" y2="138.21" fill="none" stroke="#005ba1" stroke-miterlimit="10"/>
        <path d="M333.19,133.41a.5.5,0,0,1-.15.69l-6.45,4.11,6.45,4.11a.5.5,0,0,1-.54.84l-7.11-4.53a.5.5,0,0,1,0-.84l7.11-4.53a.47.47,0,0,1,.27-.08A.48.48,0,0,1,333.19,133.41Z" fill="#005ba1"/>
      </g>
      <line x1="456.42" y1="138.21" x2="326.42" y2="138.21" fill="none" stroke="#b4ec36" stroke-miterlimit="10" stroke-width="0.25"/>
    </g>
    <g>
      <path d="M443.83,125l14-14a1,1,0,0,1,1.42,0l0,0,14,14a1,1,0,0,1,0,1.42l0,0-14,14a1,1,0,0,1-1.4,0l-14-14a1,1,0,0,1,0-1.42Z" fill="url(#linear-gradient-18)"/>
      <path d="M462.2,117.37l-3.54-3.52a.21.21,0,0,0-.26,0l-3.53,3.52a.16.16,0,0,0-.05.23.16.16,0,0,0,.18.07h2.07a.18.18,0,0,1,.18.18v3.34a.18.18,0,0,0,.18.18h2.2a.18.18,0,0,0,.18-.18v-3.34a.19.19,0,0,1,.19-.18h2.06a.17.17,0,0,0,.14-.3Z" fill="#b4ec36"/>
      <path d="M450.2,121.72l-3.5,3.55a.18.18,0,0,0,0,.25l3.5,3.51a.18.18,0,0,0,.26,0,.18.18,0,0,0,.06-.14v-2.05a.18.18,0,0,1,.18-.18H454a.18.18,0,0,0,.17-.17v-2.22a.15.15,0,0,0-.06-.22l-.06,0h-3.33a.16.16,0,0,1-.18-.14v-2a.2.2,0,0,0-.37-.13Z" fill="#b4ec36"/>
      <path d="M467,129l3.55-3.53a.2.2,0,0,0,0-.25L467,121.72a.19.19,0,0,0-.26,0,.15.15,0,0,0,0,.11v2.08a.17.17,0,0,1-.17.17h-3.35a.18.18,0,0,0-.17.17h0v2.2a.17.17,0,0,0,.15.19h3.35a.19.19,0,0,1,.19.18v2.07a.18.18,0,0,0,.2.16A.19.19,0,0,0,467,129Z" fill="#b4ec36"/>
      <path d="M463.18,125.7a4.65,4.65,0,1,0-5.9,4.45v1.58a2.84,2.84,0,1,0,2.62,0v-1.66A4.61,4.61,0,0,0,463.18,125.7Z" fill="#fff"/>
      <circle id="e99c3387-15c3-4f28-bd4b-cb209b430e06-3" data-name="e99c3387-15c3-4f28-bd4b-cb209b430e06" cx="458.55" cy="125.68" r="2.7" fill="#5ea0ef"/>
    </g>
    <g>
      <g>
        <line x1="269.48" y1="221.7" x2="247.48" y2="221.7" fill="none" stroke="#005ba1" stroke-miterlimit="10"/>
        <path d="M262.71,216.9a.5.5,0,0,0,.15.69l6.46,4.11-6.46,4.11a.5.5,0,1,0,.54.84l7.12-4.53a.5.5,0,0,0,0-.84l-7.12-4.53a.45.45,0,0,0-.27-.08A.51.51,0,0,0,262.71,216.9Z" fill="#005ba1"/>
      </g>
      <line x1="269.48" y1="221.7" x2="247.48" y2="221.7" fill="none" stroke="#b4ec36" stroke-miterlimit="10" stroke-width="0.25"/>
    </g>
    <g>
      <g>
        <line x1="266.48" y1="240.25" x2="247.48" y2="240.25" fill="none" stroke="#e62323" stroke-miterlimit="10"/>
        <polygon points="265.46 236.75 271.5 240.25 265.46 243.74 265.46 236.75" fill="#e62323"/>
      </g>
      <g>
        <line x1="266.48" y1="240.25" x2="264.98" y2="240.25" fill="none" stroke="#fff" stroke-miterlimit="10" stroke-width="0.5"/>
        <line x1="261.78" y1="240.25" x2="250.58" y2="240.25" fill="none" stroke="#fff" stroke-miterlimit="10" stroke-width="0.5" stroke-dasharray="3.2 3.2"/>
        <line x1="248.98" y1="240.25" x2="247.48" y2="240.25" fill="none" stroke="#fff" stroke-miterlimit="10" stroke-width="0.5"/>
      </g>
    </g>
  </g>
  <g id="Text">
    <g>
      <path d="M52.89,17.44l-2.37,8.4H49.37L47.64,19.7a3.77,3.77,0,0,1-.14-.85h0a4.77,4.77,0,0,1-.15.84l-1.74,6.15H44.44L42,17.44h1.09l1.78,6.44a4,4,0,0,1,.14.85h0a4.51,4.51,0,0,1,.19-.85l1.85-6.44H48l1.78,6.49a4.92,4.92,0,0,1,.14.79h0a4.94,4.94,0,0,1,.16-.81l1.72-6.47Z" fill="#1e1e1e"/>
      <path d="M58.48,23.08H54.24a2.28,2.28,0,0,0,.54,1.55,1.88,1.88,0,0,0,1.42.54,2.94,2.94,0,0,0,1.86-.66v.9A3.47,3.47,0,0,1,56,26a2.51,2.51,0,0,1-2-.82,3.31,3.31,0,0,1-.73-2.3A3.28,3.28,0,0,1,54,20.58a2.54,2.54,0,0,1,2-.88,2.26,2.26,0,0,1,1.83.76,3.19,3.19,0,0,1,.64,2.12Zm-1-.81a2,2,0,0,0-.4-1.3,1.37,1.37,0,0,0-1.1-.46,1.54,1.54,0,0,0-1.16.49,2.18,2.18,0,0,0-.58,1.27Z" fill="#1e1e1e"/>
      <path d="M60.92,25h0v.87h-1V17h1V20.9h0A2.26,2.26,0,0,1,63,19.7a2.2,2.2,0,0,1,1.81.81,3.28,3.28,0,0,1,.65,2.16,3.72,3.72,0,0,1-.73,2.41,2.45,2.45,0,0,1-2,.9A2,2,0,0,1,60.92,25Zm0-2.42v.84a1.77,1.77,0,0,0,.48,1.26A1.72,1.72,0,0,0,64,24.51a3.09,3.09,0,0,0,.5-1.86A2.47,2.47,0,0,0,64,21.08a1.54,1.54,0,0,0-1.26-.57,1.7,1.7,0,0,0-1.35.58A2.14,2.14,0,0,0,60.9,22.55Z" fill="#1e1e1e"/>
      <path d="M73.06,25.78a1.82,1.82,0,0,1-.9.19c-1,0-1.57-.59-1.57-1.76V20.66h-1v-.82h1V18.38l1-.31v1.77h1.51v.82H71.55V24a1.45,1.45,0,0,0,.2.86.81.81,0,0,0,.68.26,1,1,0,0,0,.63-.2Z" fill="#1e1e1e"/>
      <path d="M74.74,18.32a.58.58,0,0,1-.43-.18.55.55,0,0,1-.19-.44.63.63,0,0,1,.62-.63.61.61,0,0,1,.45.18.58.58,0,0,1,.19.45.58.58,0,0,1-.19.44A.61.61,0,0,1,74.74,18.32Zm.47,7.52h-1v-6h1Z" fill="#1e1e1e"/>
      <path d="M81.9,23.08H77.67a2.19,2.19,0,0,0,.54,1.55,1.85,1.85,0,0,0,1.42.54,3,3,0,0,0,1.86-.66v.9A3.52,3.52,0,0,1,79.4,26a2.52,2.52,0,0,1-2-.82,3.31,3.31,0,0,1-.73-2.3,3.29,3.29,0,0,1,.8-2.28,2.53,2.53,0,0,1,2-.88,2.25,2.25,0,0,1,1.82.76,3.19,3.19,0,0,1,.64,2.12Zm-1-.81a2,2,0,0,0-.4-1.3,1.37,1.37,0,0,0-1.1-.46,1.52,1.52,0,0,0-1.15.49,2.13,2.13,0,0,0-.59,1.27Z" fill="#1e1e1e"/>
      <path d="M86.49,20.81a1.25,1.25,0,0,0-.73-.19,1.23,1.23,0,0,0-1,.58,2.72,2.72,0,0,0-.41,1.58v3.06h-1v-6h1v1.24h0a2.17,2.17,0,0,1,.63-1,1.39,1.39,0,0,1,.94-.35,1.52,1.52,0,0,1,.58.08Z" fill="#1e1e1e"/>
      <path d="M46.07,40.24h-1V33a2,2,0,0,1-.32.26l-.48.28c-.18.09-.37.18-.57.26a3.54,3.54,0,0,1-.57.2V33a6.12,6.12,0,0,0,.67-.24,6.3,6.3,0,0,0,.69-.34c.23-.12.45-.25.65-.38a6.62,6.62,0,0,0,.53-.4h.36Z" fill="#1e1e1e"/>
      <path d="M53.76,36a8,8,0,0,1-.19,1.86A4.37,4.37,0,0,1,53,39.25a2.57,2.57,0,0,1-.89.85,2.41,2.41,0,0,1-1.19.29,2.23,2.23,0,0,1-1.13-.28A2.46,2.46,0,0,1,49,39.3,4.12,4.12,0,0,1,48.46,38a8.61,8.61,0,0,1-.17-1.78,9.52,9.52,0,0,1,.18-2A4.83,4.83,0,0,1,49,32.85,2.43,2.43,0,0,1,49.9,32a2.56,2.56,0,0,1,1.22-.29C52.88,31.7,53.76,33.13,53.76,36Zm-1,.09c0-2.39-.57-3.59-1.71-3.59s-1.8,1.22-1.8,3.65c0,2.27.59,3.41,1.77,3.41S52.78,38.41,52.78,36.1Z" fill="#1e1e1e"/>
      <path d="M55.47,40.37a.6.6,0,0,1-.46-.19.64.64,0,0,1-.19-.47.62.62,0,0,1,.19-.46.63.63,0,0,1,.92,0,.63.63,0,0,1,.2.46.65.65,0,0,1-.2.47A.6.6,0,0,1,55.47,40.37Z" fill="#1e1e1e"/>
      <path d="M62.69,36a8.59,8.59,0,0,1-.19,1.86A4.37,4.37,0,0,1,62,39.25a2.57,2.57,0,0,1-.89.85,2.47,2.47,0,0,1-1.19.29,2.23,2.23,0,0,1-1.13-.28,2.38,2.38,0,0,1-.83-.81A4.12,4.12,0,0,1,57.39,38a7.93,7.93,0,0,1-.18-1.78,9.48,9.48,0,0,1,.19-2,4.32,4.32,0,0,1,.54-1.41,2.43,2.43,0,0,1,.89-.86A2.52,2.52,0,0,1,60,31.7C61.81,31.7,62.69,33.13,62.69,36Zm-1,.09c0-2.39-.57-3.59-1.7-3.59s-1.8,1.22-1.8,3.65c0,2.27.59,3.41,1.76,3.41S61.7,38.41,61.7,36.1Z" fill="#1e1e1e"/>
      <path d="M64.39,40.37a.62.62,0,0,1-.46-.19.68.68,0,0,1-.19-.47.66.66,0,0,1,.19-.46.64.64,0,0,1,.93,0,.62.62,0,0,1,.19.46.64.64,0,0,1-.19.47A.63.63,0,0,1,64.39,40.37Z" fill="#1e1e1e"/>
      <path d="M68.87,40.24h-1V33a1.72,1.72,0,0,1-.33.26,5.1,5.1,0,0,1-.48.28,5.85,5.85,0,0,1-.56.26A3.63,3.63,0,0,1,66,34V33a5.58,5.58,0,0,0,.68-.24,7.33,7.33,0,0,0,.69-.34c.23-.12.45-.25.65-.38a6.62,6.62,0,0,0,.53-.4h.36Z" fill="#1e1e1e"/>
      <path d="M71.87,40.37a.62.62,0,0,1-.46-.19.68.68,0,0,1-.19-.47.66.66,0,0,1,.19-.46.67.67,0,0,1,1.13.46.65.65,0,0,1-.2.47A.63.63,0,0,1,71.87,40.37Z" fill="#1e1e1e"/>
      <path d="M79.09,36a8,8,0,0,1-.19,1.86,4.15,4.15,0,0,1-.55,1.38,2.55,2.55,0,0,1-.88.85,2.47,2.47,0,0,1-1.19.29,2.2,2.2,0,0,1-1.13-.28,2.49,2.49,0,0,1-.84-.81A4.37,4.37,0,0,1,73.8,38a7.93,7.93,0,0,1-.18-1.78,8.83,8.83,0,0,1,.19-2,4.32,4.32,0,0,1,.54-1.41,2.36,2.36,0,0,1,.89-.86,2.52,2.52,0,0,1,1.21-.29C78.21,31.7,79.09,33.13,79.09,36Zm-1,.09c0-2.39-.57-3.59-1.7-3.59s-1.8,1.22-1.8,3.65c0,2.27.58,3.41,1.76,3.41S78.11,38.41,78.11,36.1Z" fill="#1e1e1e"/>
      <path d="M84,31.84l-4,9.8H79l4-9.8Z" fill="#1e1e1e"/>
      <path d="M88.39,34a1.71,1.71,0,0,0-.12-.67,1.37,1.37,0,0,0-.33-.48,1.26,1.26,0,0,0-.49-.28,1.7,1.7,0,0,0-.61-.1,2.09,2.09,0,0,0-.55.08,2.57,2.57,0,0,0-.52.21,3.17,3.17,0,0,0-.49.32,4.47,4.47,0,0,0-.45.42v-1a2.88,2.88,0,0,1,.91-.6A3.14,3.14,0,0,1,87,31.7a3,3,0,0,1,1,.15,2.27,2.27,0,0,1,.76.43,2.12,2.12,0,0,1,.5.71,2.3,2.3,0,0,1,.19,1,3.16,3.16,0,0,1-.12.9,2.6,2.6,0,0,1-.34.76,4.09,4.09,0,0,1-.58.69,8.92,8.92,0,0,1-.83.67c-.4.28-.72.52-1,.72a4.3,4.3,0,0,0-.61.56,1.59,1.59,0,0,0-.31.52,1.8,1.8,0,0,0-.09.6h4.18v.86H84.51v-.41a3.4,3.4,0,0,1,.11-.95A2.38,2.38,0,0,1,85,38.1a3.75,3.75,0,0,1,.71-.74c.29-.25.64-.52,1.06-.83a6.87,6.87,0,0,0,.77-.63,3.23,3.23,0,0,0,.49-.6,2,2,0,0,0,.27-.6A2.84,2.84,0,0,0,88.39,34Z" fill="#1e1e1e"/>
      <path d="M95.07,31.84v5.55h1.08v.88H95.07v2h-.95v-2h-4v-.84q.56-.61,1.11-1.32t1.08-1.44c.34-.48.66-1,1-1.45A13.34,13.34,0,0,0,94,31.84Zm-3.82,5.55h2.87V33.27c-.29.52-.57,1-.83,1.38s-.51.76-.75,1.09-.46.63-.68.89Z" fill="#1e1e1e"/>
    </g>
    <g>
      <path d="M14.27,228.18H12.21l-.6-1.87h-3L8,228.18H6L9,219.78h2.24Zm-3.09-3.32-.9-2.83a3,3,0,0,1-.14-.75h-.05a3.16,3.16,0,0,1-.15.73L9,224.86Z" fill="#231f20"/>
      <path d="M19.89,228.18H14.51v-.77l3-3.87H14.81v-1.36h5.06v.91L17,226.81h2.88Z" fill="#231f20"/>
      <path d="M26.59,228.18H24.74v-.92h0a2.07,2.07,0,0,1-1.83,1.06c-1.39,0-2.09-.84-2.09-2.52v-3.62h1.85v3.46c0,.84.34,1.27,1,1.27a1,1,0,0,0,.79-.35,1.41,1.41,0,0,0,.3-.95v-3.43h1.85Z" fill="#231f20"/>
      <path d="M32.06,223.85a1.61,1.61,0,0,0-.78-.18,1.11,1.11,0,0,0-.94.44,1.9,1.9,0,0,0-.34,1.2v2.87H28.15v-6H30v1.11h0a1.61,1.61,0,0,1,1.58-1.22,1.35,1.35,0,0,1,.46.07Z" fill="#231f20"/>
      <path d="M38.27,225.71H34.35c.07.87.61,1.3,1.65,1.3a3.15,3.15,0,0,0,1.74-.47v1.34a4.56,4.56,0,0,1-2.16.44,3,3,0,0,1-2.26-.8,3.08,3.08,0,0,1-.8-2.25,3.23,3.23,0,0,1,.87-2.37,2.87,2.87,0,0,1,2.13-.87,2.63,2.63,0,0,1,2,.78,3,3,0,0,1,.72,2.12Zm-1.72-1.14c0-.86-.35-1.29-1-1.29a1,1,0,0,0-.77.37,1.68,1.68,0,0,0-.4.92Z" fill="#231f20"/>
      <path d="M42.47,227.86V226a3.45,3.45,0,0,0,1.11.64,3.4,3.4,0,0,0,1.21.22,2.3,2.3,0,0,0,.62-.07,1.32,1.32,0,0,0,.45-.18.61.61,0,0,0,.26-.27.63.63,0,0,0,.09-.33.68.68,0,0,0-.14-.44,1.47,1.47,0,0,0-.38-.36,5,5,0,0,0-.58-.32l-.72-.31a3.56,3.56,0,0,1-1.47-1,2.19,2.19,0,0,1-.48-1.43A2.36,2.36,0,0,1,42.7,221a2.31,2.31,0,0,1,.72-.77,2.93,2.93,0,0,1,1-.45,5.21,5.21,0,0,1,1.27-.14,8.12,8.12,0,0,1,1.16.07,4.85,4.85,0,0,1,.93.25v1.75a3.3,3.3,0,0,0-.45-.26,4.56,4.56,0,0,0-.52-.18,3.21,3.21,0,0,0-.52-.11,4.57,4.57,0,0,0-.5,0,2.1,2.1,0,0,0-.58.07,1.32,1.32,0,0,0-.45.17.88.88,0,0,0-.28.26.62.62,0,0,0-.1.35.7.7,0,0,0,.11.38,1.38,1.38,0,0,0,.32.32,3.69,3.69,0,0,0,.5.29c.19.1.41.19.66.3a8.41,8.41,0,0,1,.9.44,3.18,3.18,0,0,1,.69.54,2.15,2.15,0,0,1,.44.68,2.5,2.5,0,0,1,.15.9,2.37,2.37,0,0,1-.26,1.18,2.15,2.15,0,0,1-.73.77,3.15,3.15,0,0,1-1.06.43,6.55,6.55,0,0,1-1.28.12,7.06,7.06,0,0,1-1.32-.11A4.42,4.42,0,0,1,42.47,227.86Z" fill="#231f20"/>
      <path d="M52.73,228.11a2.78,2.78,0,0,1-1.23.21c-1.31,0-2-.67-2-2v-2.75h-1v-1.36h1v-1.3l1.85-.52v1.82h1.34v1.36H51.39V226c0,.62.24.94.74.94a1.24,1.24,0,0,0,.6-.17Z" fill="#231f20"/>
      <path d="M58.77,228.18H57v-.86h0a1.94,1.94,0,0,1-1.78,1,1.88,1.88,0,0,1-1.38-.49,1.79,1.79,0,0,1-.5-1.32c0-1.17.69-1.84,2.07-2l1.63-.21c0-.66-.36-1-1.07-1a3.64,3.64,0,0,0-2,.64v-1.39a4.62,4.62,0,0,1,1.06-.36A5.63,5.63,0,0,1,56.2,222a2.27,2.27,0,0,1,2.57,2.56ZM57,225.74v-.4l-1.09.14q-.9.12-.9.81a.66.66,0,0,0,.22.52.84.84,0,0,0,.59.2,1.1,1.1,0,0,0,.85-.36A1.29,1.29,0,0,0,57,225.74Z" fill="#231f20"/>
      <path d="M64.78,228a3.69,3.69,0,0,1-1.81.36,3.06,3.06,0,0,1-2.24-.83,2.9,2.9,0,0,1-.85-2.17,3.2,3.2,0,0,1,.91-2.41,3.43,3.43,0,0,1,2.46-.88,3.24,3.24,0,0,1,1.53.28v1.57a2.11,2.11,0,0,0-1.29-.43,1.61,1.61,0,0,0-1.73,1.75,1.73,1.73,0,0,0,.44,1.25,1.63,1.63,0,0,0,1.23.46,2.43,2.43,0,0,0,1.35-.44Z" fill="#231f20"/>
      <path d="M72,228.18H69.78l-1.91-3h0v3H66V219.3h1.85V225h0l1.79-2.77h2.19L69.7,225Z" fill="#231f20"/>
      <path d="M83.47,228.18h-1.9v-3.42H78.09v3.42h-1.9v-8.4h1.9v3.35h3.48v-3.35h1.9Z" fill="#231f20"/>
      <path d="M90.91,228.18H89.06v-.92h0a2.08,2.08,0,0,1-1.83,1.06c-1.39,0-2.09-.84-2.09-2.52v-3.62H87v3.46c0,.84.33,1.27,1,1.27a1,1,0,0,0,.79-.35,1.41,1.41,0,0,0,.3-.95v-3.43h1.85Z" fill="#231f20"/>
      <path d="M94.34,227.48h0v.7H92.47V219.3h1.85v3.78h0a2.2,2.2,0,0,1,2-1.05,2.15,2.15,0,0,1,1.79.8,3.43,3.43,0,0,1,.63,2.18,3.73,3.73,0,0,1-.74,2.41,2.38,2.38,0,0,1-2,.9A1.9,1.9,0,0,1,94.34,227.48Zm0-2.53v.62a1.44,1.44,0,0,0,.33,1,1.1,1.1,0,0,0,.86.38,1.15,1.15,0,0,0,1-.49,2.4,2.4,0,0,0,.35-1.39,1.9,1.9,0,0,0-.32-1.16,1.08,1.08,0,0,0-.91-.42,1.2,1.2,0,0,0-.93.42A1.57,1.57,0,0,0,94.29,225Z" fill="#231f20"/>
      <path d="M110.4,219.78l-2.9,8.4h-2.14l-2.86-8.4h2l1.75,5.84a4.62,4.62,0,0,1,.17.84h0a5.3,5.3,0,0,1,.18-.86l1.75-5.82Z" fill="#231f20"/>
      <path d="M119,228.18h-1.91l-3.46-5.28c-.2-.31-.34-.54-.42-.7h0c0,.3,0,.75,0,1.36v4.62H111.4v-8.4h2l3.34,5.11q.23.35.42.69h0a9.13,9.13,0,0,1,0-1.16v-4.64H119Z" fill="#231f20"/>
      <path d="M126.09,225.71h-3.91c.06.87.61,1.3,1.65,1.3a3.15,3.15,0,0,0,1.74-.47v1.34a4.58,4.58,0,0,1-2.17.44,3,3,0,0,1-2.25-.8,3,3,0,0,1-.81-2.25,3.23,3.23,0,0,1,.87-2.37,2.9,2.9,0,0,1,2.13-.87,2.64,2.64,0,0,1,2,.78,3.05,3.05,0,0,1,.71,2.12Zm-1.71-1.14q0-1.29-1-1.29a1,1,0,0,0-.77.37,1.67,1.67,0,0,0-.39.92Z" fill="#231f20"/>
      <path d="M130.82,228.11a2.8,2.8,0,0,1-1.24.21c-1.3,0-2-.67-2-2v-2.75h-1v-1.36h1v-1.3l1.84-.52v1.82h1.35v1.36h-1.35V226c0,.62.25.94.75.94a1.31,1.31,0,0,0,.6-.17Z" fill="#231f20"/>
      <path d="M10.17,242.58h-1v-7.26a2,2,0,0,1-.32.25,5.06,5.06,0,0,1-.48.29l-.56.26a5,5,0,0,1-.58.2v-1c.21-.06.43-.14.67-.23s.47-.22.7-.34a5.73,5.73,0,0,0,.64-.39A4.05,4.05,0,0,0,9.8,234h.37Z" fill="#1e1e1e"/>
      <path d="M17.85,238.34a8,8,0,0,1-.19,1.87,4.33,4.33,0,0,1-.55,1.38,2.55,2.55,0,0,1-.88.85,2.47,2.47,0,0,1-1.19.29,2.31,2.31,0,0,1-1.13-.28,2.49,2.49,0,0,1-.84-.81,4.22,4.22,0,0,1-.51-1.31,7.93,7.93,0,0,1-.18-1.78,8.71,8.71,0,0,1,.19-2,4.32,4.32,0,0,1,.54-1.41,2.36,2.36,0,0,1,2.1-1.15Q17.85,234,17.85,238.34Zm-1,.1c0-2.39-.57-3.59-1.71-3.59s-1.79,1.22-1.79,3.65c0,2.27.58,3.4,1.76,3.4S16.87,240.75,16.87,238.44Z" fill="#1e1e1e"/>
      <path d="M19.56,242.71a.63.63,0,0,1-.46-.2.6.6,0,0,1-.19-.46.62.62,0,0,1,.19-.46.59.59,0,0,1,.46-.2.67.67,0,0,1,.66.66.6.6,0,0,1-.19.46A.65.65,0,0,1,19.56,242.71Z" fill="#1e1e1e"/>
      <path d="M26.78,238.34a8,8,0,0,1-.19,1.87,4.57,4.57,0,0,1-.55,1.38,2.57,2.57,0,0,1-.89.85,2.44,2.44,0,0,1-1.19.29,2.34,2.34,0,0,1-1.13-.28,2.46,2.46,0,0,1-.83-.81,4.22,4.22,0,0,1-.52-1.31,8.61,8.61,0,0,1-.17-1.78,9.38,9.38,0,0,1,.18-2,4.56,4.56,0,0,1,.54-1.41A2.36,2.36,0,0,1,24.14,234Q26.78,234,26.78,238.34Zm-1,.1c0-2.39-.57-3.59-1.71-3.59s-1.8,1.22-1.8,3.65c0,2.27.59,3.4,1.77,3.4S25.8,240.75,25.8,238.44Z" fill="#1e1e1e"/>
      <path d="M28.48,242.71a.67.67,0,0,1-.65-.66.66.66,0,0,1,.19-.46.61.61,0,0,1,.46-.2.6.6,0,0,1,.47.2.63.63,0,0,1,.2.46.61.61,0,0,1-.2.46A.63.63,0,0,1,28.48,242.71Z" fill="#1e1e1e"/>
      <path d="M35.71,238.34a8.62,8.62,0,0,1-.19,1.87,4.34,4.34,0,0,1-.56,1.38,2.55,2.55,0,0,1-.88.85,2.47,2.47,0,0,1-1.19.29,2.34,2.34,0,0,1-1.13-.28,2.49,2.49,0,0,1-.84-.81,4.48,4.48,0,0,1-.51-1.31,7.93,7.93,0,0,1-.18-1.78,8.71,8.71,0,0,1,.19-2,4.32,4.32,0,0,1,.54-1.41,2.36,2.36,0,0,1,.89-.86,2.41,2.41,0,0,1,1.21-.29Q35.71,234,35.71,238.34Zm-1,.1c0-2.39-.57-3.59-1.7-3.59s-1.8,1.22-1.8,3.65c0,2.27.59,3.4,1.76,3.4S34.72,240.75,34.72,238.44Z" fill="#1e1e1e"/>
      <path d="M37.41,242.71a.63.63,0,0,1-.46-.2.6.6,0,0,1-.19-.46.62.62,0,0,1,.19-.46.59.59,0,0,1,.46-.2.67.67,0,0,1,.66.66.6.6,0,0,1-.19.46A.65.65,0,0,1,37.41,242.71Z" fill="#1e1e1e"/>
      <path d="M44.63,238.34a8,8,0,0,1-.19,1.87,4.57,4.57,0,0,1-.55,1.38,2.55,2.55,0,0,1-.88.85,2.48,2.48,0,0,1-1.2.29,2.3,2.3,0,0,1-1.12-.28,2.49,2.49,0,0,1-.84-.81,4,4,0,0,1-.51-1.31,7.93,7.93,0,0,1-.18-1.78,9.38,9.38,0,0,1,.18-2,4.56,4.56,0,0,1,.55-1.41,2.34,2.34,0,0,1,.88-.86A2.45,2.45,0,0,1,42,234Q44.63,234,44.63,238.34Zm-1,.1c0-2.39-.57-3.59-1.71-3.59s-1.8,1.22-1.8,3.65c0,2.27.59,3.4,1.77,3.4S43.65,240.75,43.65,238.44Z" fill="#1e1e1e"/>
      <path d="M49.48,234.18l-4,9.79h-.89l4-9.79Z" fill="#1e1e1e"/>
      <path d="M53.36,242.58h-1v-7.26a2.79,2.79,0,0,1-.33.25,5.06,5.06,0,0,1-.48.29c-.18.09-.36.18-.56.26a5,5,0,0,1-.58.2v-1c.21-.06.44-.14.67-.23s.47-.22.7-.34a7,7,0,0,0,.65-.39A4.87,4.87,0,0,0,53,234h.36Z" fill="#1e1e1e"/>
      <path d="M61,239.91a3,3,0,0,1-.2,1.13,2.52,2.52,0,0,1-.55.89,2.41,2.41,0,0,1-.84.59,2.59,2.59,0,0,1-1,.21,2.33,2.33,0,0,1-1.13-.27,2.29,2.29,0,0,1-.85-.76,3.44,3.44,0,0,1-.53-1.21,6.52,6.52,0,0,1-.19-1.61,7.68,7.68,0,0,1,.25-2,4.88,4.88,0,0,1,.69-1.53,3.24,3.24,0,0,1,1.08-1,2.88,2.88,0,0,1,1.41-.34,3.42,3.42,0,0,1,1.4.24v.9a3,3,0,0,0-1.37-.33,2,2,0,0,0-1,.25,2.36,2.36,0,0,0-.77.71,3.54,3.54,0,0,0-.5,1.11,6,6,0,0,0-.17,1.45h0a2,2,0,0,1,1.92-1.05,2.57,2.57,0,0,1,1,.19,2.17,2.17,0,0,1,.76.53,2.31,2.31,0,0,1,.48.82A2.93,2.93,0,0,1,61,239.91ZM60,240a2.81,2.81,0,0,0-.11-.8,1.76,1.76,0,0,0-.32-.59,1.33,1.33,0,0,0-.52-.38,1.67,1.67,0,0,0-.69-.13,1.59,1.59,0,0,0-.66.13,1.64,1.64,0,0,0-.53.37,1.66,1.66,0,0,0-.34.54,1.57,1.57,0,0,0-.13.65,2.64,2.64,0,0,0,.12.81,2.08,2.08,0,0,0,.35.66,1.49,1.49,0,0,0,.53.44,1.39,1.39,0,0,0,.68.16,1.59,1.59,0,0,0,.66-.13,1.39,1.39,0,0,0,.51-.39,1.77,1.77,0,0,0,.33-.59A2.23,2.23,0,0,0,60,240Z" fill="#1e1e1e"/>
    </g>
    <g>
      <path d="M284.48,25.84H280v-8.4h4.27v.89H281v2.79h3V22h-3V25h3.47Z" fill="#1e1e1e"/>
      <path d="M290.9,25.36c0,2.2-1.06,3.31-3.16,3.31a4.13,4.13,0,0,1-1.95-.43v-1a4,4,0,0,0,1.93.57c1.48,0,2.22-.79,2.22-2.36v-.66h0a2.43,2.43,0,0,1-3.87.35,3.22,3.22,0,0,1-.68-2.15,3.75,3.75,0,0,1,.73-2.43,2.46,2.46,0,0,1,2-.9,2,2,0,0,1,1.8,1h0v-.83h1Zm-1-2.23v-.89a1.72,1.72,0,0,0-.48-1.22,1.62,1.62,0,0,0-1.21-.51,1.66,1.66,0,0,0-1.39.65,2.85,2.85,0,0,0-.51,1.81,2.43,2.43,0,0,0,.49,1.6,1.55,1.55,0,0,0,1.28.6,1.67,1.67,0,0,0,1.31-.57A2.12,2.12,0,0,0,289.94,23.13Z" fill="#1e1e1e"/>
      <path d="M295.84,20.81a1.29,1.29,0,0,0-1.75.39,2.64,2.64,0,0,0-.41,1.58v3.06h-1v-6h1v1.24h0a2.09,2.09,0,0,1,.63-1,1.39,1.39,0,0,1,.94-.35,1.44,1.44,0,0,1,.57.08Z" fill="#1e1e1e"/>
      <path d="M301.72,23.08h-4.23a2.19,2.19,0,0,0,.54,1.55,1.85,1.85,0,0,0,1.41.54,3,3,0,0,0,1.87-.66v.9a3.53,3.53,0,0,1-2.1.57,2.51,2.51,0,0,1-2-.82,3.31,3.31,0,0,1-.73-2.3,3.28,3.28,0,0,1,.79-2.28,2.55,2.55,0,0,1,2-.88,2.25,2.25,0,0,1,1.82.76,3.19,3.19,0,0,1,.64,2.12Zm-1-.81a2,2,0,0,0-.4-1.3,1.37,1.37,0,0,0-1.1-.46,1.56,1.56,0,0,0-1.16.49,2.18,2.18,0,0,0-.58,1.27Z" fill="#1e1e1e"/>
      <path d="M302.8,25.62v-1a2.82,2.82,0,0,0,1.73.58q1.26,0,1.26-.84a.76.76,0,0,0-.11-.41,1,1,0,0,0-.29-.29,1.76,1.76,0,0,0-.43-.23l-.54-.22a5.16,5.16,0,0,1-.7-.32,2.22,2.22,0,0,1-.5-.36,1.38,1.38,0,0,1-.31-.46,1.57,1.57,0,0,1-.1-.6,1.39,1.39,0,0,1,.19-.75,1.7,1.7,0,0,1,.52-.55,2.71,2.71,0,0,1,.73-.33,3.49,3.49,0,0,1,.86-.11,3.41,3.41,0,0,1,1.39.27v1a2.7,2.7,0,0,0-1.52-.43,1.83,1.83,0,0,0-.49.06,1.26,1.26,0,0,0-.37.17.76.76,0,0,0-.24.27.67.67,0,0,0-.09.34.82.82,0,0,0,.09.4.92.92,0,0,0,.25.28,2.11,2.11,0,0,0,.4.22l.53.22a6.85,6.85,0,0,1,.71.31,2.82,2.82,0,0,1,.54.36,1.45,1.45,0,0,1,.35.47,1.48,1.48,0,0,1,.12.63,1.5,1.5,0,0,1-.2.77,1.61,1.61,0,0,1-.53.54,2.22,2.22,0,0,1-.75.33,3.82,3.82,0,0,1-.9.1A3.37,3.37,0,0,1,302.8,25.62Z" fill="#1e1e1e"/>
      <path d="M307.89,25.62v-1a2.82,2.82,0,0,0,1.73.58q1.26,0,1.26-.84a.68.68,0,0,0-.11-.41,1,1,0,0,0-.29-.29,1.76,1.76,0,0,0-.43-.23l-.54-.22a5.79,5.79,0,0,1-.7-.32,2.22,2.22,0,0,1-.5-.36A1.38,1.38,0,0,1,308,22a1.57,1.57,0,0,1-.1-.6,1.39,1.39,0,0,1,.19-.75,1.7,1.7,0,0,1,.52-.55,2.71,2.71,0,0,1,.73-.33,3.49,3.49,0,0,1,.86-.11,3.41,3.41,0,0,1,1.39.27v1a2.7,2.7,0,0,0-1.52-.43,1.88,1.88,0,0,0-.49.06,1.26,1.26,0,0,0-.37.17A1,1,0,0,0,309,21a.67.67,0,0,0-.09.34.82.82,0,0,0,.09.4,1.07,1.07,0,0,0,.25.28,2.11,2.11,0,0,0,.4.22l.53.22a7.07,7.07,0,0,1,.72.31,2.45,2.45,0,0,1,.53.36,1.45,1.45,0,0,1,.35.47,1.48,1.48,0,0,1,.12.63,1.5,1.5,0,0,1-.2.77,1.58,1.58,0,0,1-.52.54,2.28,2.28,0,0,1-.76.33,3.71,3.71,0,0,1-.9.1A3.37,3.37,0,0,1,307.89,25.62Z" fill="#1e1e1e"/>
      <path d="M317.62,25h0V28.6h-1V19.84h1V20.9h0a2.26,2.26,0,0,1,2.07-1.2,2.19,2.19,0,0,1,1.81.81,3.33,3.33,0,0,1,.65,2.16,3.72,3.72,0,0,1-.73,2.41,2.46,2.46,0,0,1-2,.9A2,2,0,0,1,317.62,25Zm0-2.42v.84a1.73,1.73,0,0,0,.49,1.26,1.58,1.58,0,0,0,1.22.52,1.62,1.62,0,0,0,1.37-.66,3.09,3.09,0,0,0,.5-1.86,2.41,2.41,0,0,0-.47-1.57,1.52,1.52,0,0,0-1.25-.57,1.7,1.7,0,0,0-1.35.58A2.15,2.15,0,0,0,317.59,22.55Z" fill="#1e1e1e"/>
      <path d="M328.51,23.08h-4.24a2.28,2.28,0,0,0,.54,1.55,1.87,1.87,0,0,0,1.42.54,3,3,0,0,0,1.86-.66v.9A3.5,3.5,0,0,1,326,26a2.53,2.53,0,0,1-2-.82,3.35,3.35,0,0,1-.72-2.3,3.28,3.28,0,0,1,.79-2.28,2.54,2.54,0,0,1,2-.88,2.24,2.24,0,0,1,1.82.76,3.2,3.2,0,0,1,.65,2.12Zm-1-.81a1.91,1.91,0,0,0-.4-1.3,1.36,1.36,0,0,0-1.1-.46,1.54,1.54,0,0,0-1.15.49,2.19,2.19,0,0,0-.59,1.27Z" fill="#1e1e1e"/>
      <path d="M333.09,20.81a1.25,1.25,0,0,0-.73-.19,1.23,1.23,0,0,0-1,.58,2.72,2.72,0,0,0-.41,1.58v3.06h-1v-6h1v1.24h0a2.08,2.08,0,0,1,.62-1,1.42,1.42,0,0,1,.95-.35,1.44,1.44,0,0,1,.57.08Z" fill="#1e1e1e"/>
      <path d="M334.66,18.32a.59.59,0,0,1-.44-.18.57.57,0,0,1-.18-.44.61.61,0,0,1,.18-.45.59.59,0,0,1,.44-.18.6.6,0,0,1,.44.18.58.58,0,0,1,.19.45.58.58,0,0,1-.19.44A.6.6,0,0,1,334.66,18.32Zm.47,7.52h-1v-6h1Z" fill="#1e1e1e"/>
      <path d="M345.47,25.84h-1V22.4A2.58,2.58,0,0,0,344.2,21a1.17,1.17,0,0,0-1-.44,1.3,1.3,0,0,0-1.05.56,2.16,2.16,0,0,0-.43,1.35v3.42h-1V22.28c0-1.18-.45-1.77-1.36-1.77a1.28,1.28,0,0,0-1.05.53,2.2,2.2,0,0,0-.41,1.38v3.42h-1v-6h1v.95h0a2,2,0,0,1,1.86-1.09,1.77,1.77,0,0,1,1.07.34,1.75,1.75,0,0,1,.63.9,2.13,2.13,0,0,1,2-1.24c1.32,0,2,.82,2,2.44Z" fill="#1e1e1e"/>
      <path d="M352.09,23.08h-4.24a2.28,2.28,0,0,0,.54,1.55,1.87,1.87,0,0,0,1.42.54,3,3,0,0,0,1.86-.66v.9a3.5,3.5,0,0,1-2.09.57,2.53,2.53,0,0,1-2-.82,3.36,3.36,0,0,1-.73-2.3,3.29,3.29,0,0,1,.8-2.28,2.53,2.53,0,0,1,2-.88,2.24,2.24,0,0,1,1.82.76,3.2,3.2,0,0,1,.65,2.12Zm-1-.81a2,2,0,0,0-.4-1.3,1.36,1.36,0,0,0-1.1-.46,1.52,1.52,0,0,0-1.15.49,2.19,2.19,0,0,0-.59,1.27Z" fill="#1e1e1e"/>
      <path d="M356.32,25.78a1.82,1.82,0,0,1-.9.19c-1.05,0-1.58-.59-1.58-1.76V20.66h-1v-.82h1V18.38l1-.31v1.77h1.52v.82H354.8V24a1.37,1.37,0,0,0,.21.86.8.8,0,0,0,.68.26,1,1,0,0,0,.63-.2Z" fill="#1e1e1e"/>
      <path d="M362.32,23.08h-4.24a2.28,2.28,0,0,0,.54,1.55,1.88,1.88,0,0,0,1.42.54,2.94,2.94,0,0,0,1.86-.66v.9a3.47,3.47,0,0,1-2.09.57,2.53,2.53,0,0,1-2-.82,3.35,3.35,0,0,1-.72-2.3,3.28,3.28,0,0,1,.79-2.28,2.54,2.54,0,0,1,2-.88,2.26,2.26,0,0,1,1.83.76,3.19,3.19,0,0,1,.64,2.12Zm-1-.81a2,2,0,0,0-.41-1.3,1.35,1.35,0,0,0-1.09-.46,1.54,1.54,0,0,0-1.16.49,2.18,2.18,0,0,0-.58,1.27Z" fill="#1e1e1e"/>
      <path d="M366.9,20.81a1.23,1.23,0,0,0-.72-.19,1.21,1.21,0,0,0-1,.58,2.64,2.64,0,0,0-.42,1.58v3.06h-1v-6h1v1.24h0a2.08,2.08,0,0,1,.62-1,1.63,1.63,0,0,1,1.52-.27Z" fill="#1e1e1e"/>
      <path d="M284.87,38.84h-1V35.42c0-1.27-.46-1.91-1.39-1.91a1.5,1.5,0,0,0-1.19.54,2,2,0,0,0-.48,1.37v3.42h-1v-6h1v1h0a2.16,2.16,0,0,1,2-1.14,1.82,1.82,0,0,1,1.5.64,2.79,2.79,0,0,1,.52,1.83Z" fill="#1e1e1e"/>
      <path d="M291.49,36.08h-4.24a2.28,2.28,0,0,0,.54,1.55,1.87,1.87,0,0,0,1.42.54,3,3,0,0,0,1.86-.66v.9A3.5,3.5,0,0,1,289,39a2.52,2.52,0,0,1-2-.82,3.36,3.36,0,0,1-.73-2.3,3.29,3.29,0,0,1,.8-2.28,2.53,2.53,0,0,1,2-.88,2.25,2.25,0,0,1,1.82.76,3.2,3.2,0,0,1,.65,2.12Zm-1-.81a2,2,0,0,0-.4-1.3,1.36,1.36,0,0,0-1.1-.46,1.52,1.52,0,0,0-1.15.49,2.19,2.19,0,0,0-.59,1.27Z" fill="#1e1e1e"/>
      <path d="M295.72,38.78a1.82,1.82,0,0,1-.9.19c-1.05,0-1.58-.59-1.58-1.76V33.66h-1v-.82h1V31.38l1-.31v1.77h1.51v.82h-1.51V37a1.38,1.38,0,0,0,.2.86.8.8,0,0,0,.68.26,1,1,0,0,0,.63-.2Z" fill="#1e1e1e"/>
      <path d="M304.89,32.84l-1.8,6h-1l-1.23-4.29a3,3,0,0,1-.1-.56h0a2.44,2.44,0,0,1-.12.54l-1.34,4.31h-1l-1.81-6h1l1.24,4.51a3.12,3.12,0,0,1,.08.54h.05a2.38,2.38,0,0,1,.1-.55l1.39-4.5h.87l1.25,4.52a3.46,3.46,0,0,1,.08.54h.05a2.61,2.61,0,0,1,.1-.54l1.22-4.52Z" fill="#1e1e1e"/>
      <path d="M308.39,39a2.77,2.77,0,0,1-2.12-.84,3.11,3.11,0,0,1-.8-2.23,3.25,3.25,0,0,1,.83-2.36,3,3,0,0,1,2.23-.85,2.71,2.71,0,0,1,2.1.83,3.27,3.27,0,0,1,.75,2.29,3.23,3.23,0,0,1-.81,2.3A2.87,2.87,0,0,1,308.39,39Zm.07-5.47a1.81,1.81,0,0,0-1.46.63,2.59,2.59,0,0,0-.54,1.74,2.46,2.46,0,0,0,.54,1.68,1.86,1.86,0,0,0,1.46.61,1.75,1.75,0,0,0,1.43-.6,2.58,2.58,0,0,0,.5-1.72,2.62,2.62,0,0,0-.5-1.73A1.73,1.73,0,0,0,308.46,33.51Z" fill="#1e1e1e"/>
      <path d="M316,33.81a1.25,1.25,0,0,0-.73-.19,1.23,1.23,0,0,0-1,.58,2.72,2.72,0,0,0-.41,1.58v3.06h-1v-6h1v1.24h0a2.17,2.17,0,0,1,.63-1,1.42,1.42,0,0,1,.95-.35,1.44,1.44,0,0,1,.57.08Z" fill="#1e1e1e"/>
      <path d="M322,38.84H320.7L318.05,36h0v2.88h-1V30h1v5.63h0l2.52-2.75h1.26L319,35.74Z" fill="#1e1e1e"/>
      <path d="M283.16,51.84h-1V44.58a2,2,0,0,1-.32.26l-.48.28c-.18.09-.37.18-.57.26a3.54,3.54,0,0,1-.57.2v-1a6.12,6.12,0,0,0,.67-.24,7.48,7.48,0,0,0,.7-.34c.22-.12.44-.25.64-.38a5.2,5.2,0,0,0,.53-.4h.36Z" fill="#1e1e1e"/>
      <path d="M290.85,47.61a8,8,0,0,1-.19,1.86,4.37,4.37,0,0,1-.55,1.38,2.55,2.55,0,0,1-.88.85A2.48,2.48,0,0,1,288,52a2.19,2.19,0,0,1-1.12-.28,2.49,2.49,0,0,1-.84-.81,4.12,4.12,0,0,1-.52-1.31,8.61,8.61,0,0,1-.17-1.78,9.52,9.52,0,0,1,.18-2,4.56,4.56,0,0,1,.55-1.41,2.34,2.34,0,0,1,.88-.86,2.56,2.56,0,0,1,1.22-.29C290,43.3,290.85,44.73,290.85,47.61Zm-1,.09c0-2.39-.57-3.59-1.71-3.59s-1.8,1.22-1.8,3.65c0,2.27.59,3.41,1.77,3.41S289.87,50,289.87,47.7Z" fill="#1e1e1e"/>
      <path d="M292.56,52a.6.6,0,0,1-.46-.19.64.64,0,0,1-.19-.47.62.62,0,0,1,.19-.46.61.61,0,0,1,.46-.2.65.65,0,0,1,.47.2.66.66,0,0,1,.19.46.68.68,0,0,1-.19.47A.64.64,0,0,1,292.56,52Z" fill="#1e1e1e"/>
      <path d="M299.78,47.61a8.59,8.59,0,0,1-.19,1.86,4.37,4.37,0,0,1-.55,1.38,2.57,2.57,0,0,1-.89.85A2.44,2.44,0,0,1,297,52a2.23,2.23,0,0,1-1.13-.28,2.38,2.38,0,0,1-.83-.81,4.12,4.12,0,0,1-.52-1.31,8,8,0,0,1-.17-1.78,9.52,9.52,0,0,1,.18-2,4.32,4.32,0,0,1,.54-1.41,2.43,2.43,0,0,1,.89-.86,2.53,2.53,0,0,1,1.22-.29C298.9,43.3,299.78,44.73,299.78,47.61Zm-1,.09c0-2.39-.56-3.59-1.7-3.59s-1.8,1.22-1.8,3.65c0,2.27.59,3.41,1.76,3.41S298.79,50,298.79,47.7Z" fill="#1e1e1e"/>
      <path d="M301.48,52a.62.62,0,0,1-.46-.19.68.68,0,0,1-.19-.47.66.66,0,0,1,.19-.46.67.67,0,0,1,1.13.46.65.65,0,0,1-.2.47A.63.63,0,0,1,301.48,52Z" fill="#1e1e1e"/>
      <path d="M308.7,47.61a8,8,0,0,1-.19,1.86,4.15,4.15,0,0,1-.55,1.38,2.55,2.55,0,0,1-.88.85,2.47,2.47,0,0,1-1.19.29,2.2,2.2,0,0,1-1.13-.28,2.49,2.49,0,0,1-.84-.81,4.12,4.12,0,0,1-.51-1.31,7.93,7.93,0,0,1-.18-1.78,8.83,8.83,0,0,1,.19-2,4.32,4.32,0,0,1,.54-1.41,2.36,2.36,0,0,1,.89-.86,2.49,2.49,0,0,1,1.21-.29C307.82,43.3,308.7,44.73,308.7,47.61Zm-1,.09c0-2.39-.57-3.59-1.71-3.59s-1.79,1.22-1.79,3.65c0,2.27.58,3.41,1.76,3.41S307.72,50,307.72,47.7Z" fill="#1e1e1e"/>
      <path d="M310.41,52a.62.62,0,0,1-.46-.19.64.64,0,0,1-.19-.47.62.62,0,0,1,.19-.46.63.63,0,0,1,.46-.2.65.65,0,0,1,.47.2.62.62,0,0,1,.19.46.65.65,0,0,1-.66.66Z" fill="#1e1e1e"/>
      <path d="M314.89,51.84h-1V44.58a2.11,2.11,0,0,1-.33.26,5.1,5.1,0,0,1-.48.28c-.18.09-.36.18-.56.26a3.63,3.63,0,0,1-.58.2v-1a5.46,5.46,0,0,0,.67-.24,6.44,6.44,0,0,0,.7-.34c.23-.12.44-.25.65-.38a6.62,6.62,0,0,0,.53-.4h.36Z" fill="#1e1e1e"/>
      <path d="M320.87,45.64a1.71,1.71,0,0,0-.12-.67,1.37,1.37,0,0,0-.33-.48,1.26,1.26,0,0,0-.49-.28,1.74,1.74,0,0,0-.61-.1,2,2,0,0,0-.55.08,2.57,2.57,0,0,0-.52.21,3.84,3.84,0,0,0-.5.32,5.77,5.77,0,0,0-.44.42v-1a2.88,2.88,0,0,1,.91-.6,3.14,3.14,0,0,1,1.22-.21,2.91,2.91,0,0,1,.95.15,2.23,2.23,0,0,1,.77.43,2.12,2.12,0,0,1,.5.71,2.3,2.3,0,0,1,.19,1,3.16,3.16,0,0,1-.12.9,2.6,2.6,0,0,1-.34.76,3.73,3.73,0,0,1-.59.69,8.71,8.71,0,0,1-.82.67c-.4.28-.72.52-1,.72a4.3,4.3,0,0,0-.61.56,1.59,1.59,0,0,0-.31.52,1.8,1.8,0,0,0-.09.6h4.18v.86H317v-.41a3.38,3.38,0,0,1,.12-1,2.38,2.38,0,0,1,.39-.78,4,4,0,0,1,.7-.74c.3-.25.65-.52,1.07-.83a6.87,6.87,0,0,0,.77-.63,3.23,3.23,0,0,0,.49-.6,2,2,0,0,0,.27-.6A2.84,2.84,0,0,0,320.87,45.64Z" fill="#1e1e1e"/>
      <path d="M323.14,49.5a2.22,2.22,0,0,1,.1-.67,2.29,2.29,0,0,1,.3-.63,2.5,2.5,0,0,1,.49-.54,2.37,2.37,0,0,1,.66-.38,2.52,2.52,0,0,1-.87-.78,1.89,1.89,0,0,1-.32-1.06,2,2,0,0,1,.18-.85,2.08,2.08,0,0,1,.49-.68,2.34,2.34,0,0,1,.75-.45,2.65,2.65,0,0,1,.94-.16,2.58,2.58,0,0,1,.94.16,2.34,2.34,0,0,1,.75.45,2.07,2.07,0,0,1,.5.68,2.22,2.22,0,0,1,.17.85,1.81,1.81,0,0,1-.32,1.06,2.4,2.4,0,0,1-.86.78,2.53,2.53,0,0,1,.66.38,2.45,2.45,0,0,1,.48.54,2.29,2.29,0,0,1,.3.63,2.24,2.24,0,0,1,.11.67,2.6,2.6,0,0,1-.2,1,2.43,2.43,0,0,1-.56.78,2.7,2.7,0,0,1-.86.5,3.08,3.08,0,0,1-1.11.19,2.94,2.94,0,0,1-1.09-.19,2.75,2.75,0,0,1-.87-.5,2.29,2.29,0,0,1-.56-.78A2.43,2.43,0,0,1,323.14,49.5Zm1-.08a1.94,1.94,0,0,0,.12.7,1.35,1.35,0,0,0,.34.54,1.49,1.49,0,0,0,.53.35,1.94,1.94,0,0,0,.7.12,1.72,1.72,0,0,0,.68-.13,1.55,1.55,0,0,0,.53-.34,1.53,1.53,0,0,0,.35-.54,1.78,1.78,0,0,0,.13-.7,1.76,1.76,0,0,0-.12-.66,1.64,1.64,0,0,0-.34-.55,1.7,1.7,0,0,0-.54-.36,1.67,1.67,0,0,0-.69-.14,1.63,1.63,0,0,0-.67.13,1.54,1.54,0,0,0-.89.89A1.73,1.73,0,0,0,324.18,49.42Zm.3-3.9a1.26,1.26,0,0,0,.11.55,1.4,1.4,0,0,0,.74.75,1.41,1.41,0,0,0,.54.11,1.25,1.25,0,0,0,.54-.12,1.43,1.43,0,0,0,.74-.74,1.46,1.46,0,0,0,.11-.55,1.3,1.3,0,0,0-.11-.56,1.39,1.39,0,0,0-.29-.45,1.6,1.6,0,0,0-.44-.29,1.29,1.29,0,0,0-.55-.11,1.32,1.32,0,0,0-1.29.86A1.42,1.42,0,0,0,324.48,45.52Z" fill="#1e1e1e"/>
      <path d="M333.61,43.44l-4,9.8h-.9l4-9.8Z" fill="#1e1e1e"/>
      <path d="M338.05,45.64a1.71,1.71,0,0,0-.12-.67,1.35,1.35,0,0,0-.32-.48,1.33,1.33,0,0,0-.49-.28,1.74,1.74,0,0,0-.61-.1,2,2,0,0,0-.55.08,2.66,2.66,0,0,0-.53.21,3.74,3.74,0,0,0-.49.32,3.51,3.51,0,0,0-.44.42v-1a3,3,0,0,1,.9-.6,3.19,3.19,0,0,1,1.23-.21,2.91,2.91,0,0,1,.95.15,2.18,2.18,0,0,1,.76.43,2,2,0,0,1,.51.71,2.47,2.47,0,0,1,.18,1,3.17,3.17,0,0,1-.11.9,2.63,2.63,0,0,1-.35.76,3.67,3.67,0,0,1-.58.69,7.77,7.77,0,0,1-.83.67c-.39.28-.72.52-1,.72a3.81,3.81,0,0,0-.61.56,1.63,1.63,0,0,0-.32.52,1.8,1.8,0,0,0-.09.6h4.19v.86h-5.19v-.41a3.38,3.38,0,0,1,.12-1,2.36,2.36,0,0,1,.38-.78,4.07,4.07,0,0,1,.71-.74c.29-.25.65-.52,1.07-.83a6.69,6.69,0,0,0,.76-.63,3.31,3.31,0,0,0,.5-.6,2.65,2.65,0,0,0,.27-.6A2.84,2.84,0,0,0,338.05,45.64Z" fill="#1e1e1e"/>
      <path d="M345.59,44c-.13.22-.29.5-.47.83s-.37.7-.58,1.12-.41.86-.62,1.33-.41,1-.59,1.48-.34,1-.48,1.54a11,11,0,0,0-.3,1.54h-1a11,11,0,0,1,.33-1.53c.15-.52.31-1,.5-1.54s.38-1,.59-1.45.4-.89.6-1.28.37-.73.54-1,.29-.54.39-.7h-4.22v-.87h5.35Z" fill="#1e1e1e"/>
    </g>
    <g>
      <path d="M75.63,66.64H74.54l-.89-2.36H70.09l-.84,2.36h-1.1l3.22-8.4h1Zm-2.3-3.24L72,59.82a2.59,2.59,0,0,1-.13-.56h0a2.59,2.59,0,0,1-.13.56L70.41,63.4Z" fill="#1e1e1e"/>
      <path d="M81.22,60.64l-2.39,6h-1l-2.27-6h1.06L78.19,65a4.27,4.27,0,0,1,.21.84h0a3.94,3.94,0,0,1,.19-.82l1.59-4.38Z" fill="#1e1e1e"/>
      <path d="M86.54,66.64h-1V65.7h0a2.2,2.2,0,0,1-3.25.61,1.65,1.65,0,0,1-.51-1.26c0-1.12.66-1.78,2-2l1.8-.25q0-1.53-1.23-1.53a2.91,2.91,0,0,0-2,.74v-1a3.76,3.76,0,0,1,2-.56c1.41,0,2.11.75,2.11,2.24Zm-1-3-1.44.19a2.37,2.37,0,0,0-1,.34.93.93,0,0,0-.34.84.89.89,0,0,0,.31.71,1.2,1.2,0,0,0,.84.28,1.53,1.53,0,0,0,1.18-.5,1.79,1.79,0,0,0,.46-1.27Z" fill="#1e1e1e"/>
      <path d="M88.85,59.12a.6.6,0,0,1-.44-.18.59.59,0,0,1-.18-.44.61.61,0,0,1,.18-.45.6.6,0,0,1,.44-.18.64.64,0,0,1,.45.18.61.61,0,0,1,.18.45.62.62,0,0,1-.18.44A.64.64,0,0,1,88.85,59.12Zm.47,7.52h-1v-6h1Z" fill="#1e1e1e"/>
      <path d="M92.22,66.64h-1V57.76h1Z" fill="#1e1e1e"/>
      <path d="M98.46,66.64h-1V65.7h0a2,2,0,0,1-1.85,1.08,2,2,0,0,1-1.4-.47,1.65,1.65,0,0,1-.51-1.26c0-1.12.66-1.78,2-2l1.8-.25q0-1.53-1.23-1.53a2.91,2.91,0,0,0-2,.74v-1a3.76,3.76,0,0,1,2-.56c1.41,0,2.11.75,2.11,2.24Zm-1-3-1.45.19a2.37,2.37,0,0,0-1,.34.93.93,0,0,0-.34.84.89.89,0,0,0,.31.71,1.19,1.19,0,0,0,.83.28,1.54,1.54,0,0,0,1.19-.5,1.79,1.79,0,0,0,.46-1.27Z" fill="#1e1e1e"/>
      <path d="M101.26,65.77h0v.87h-1V57.76h1v3.93h0a2.27,2.27,0,0,1,2.07-1.19,2.2,2.2,0,0,1,1.81.81,3.32,3.32,0,0,1,.65,2.15,3.73,3.73,0,0,1-.73,2.42,2.45,2.45,0,0,1-2,.9A2,2,0,0,1,101.26,65.77Zm0-2.42v.84a1.78,1.78,0,0,0,.49,1.26,1.71,1.71,0,0,0,2.59-.15,3,3,0,0,0,.5-1.85,2.47,2.47,0,0,0-.46-1.57,1.54,1.54,0,0,0-1.26-.57,1.7,1.7,0,0,0-1.35.58A2.15,2.15,0,0,0,101.23,63.35Z" fill="#1e1e1e"/>
      <path d="M107.82,59.12a.6.6,0,0,1-.44-.18.59.59,0,0,1-.18-.44.61.61,0,0,1,.18-.45.6.6,0,0,1,.44-.18.62.62,0,0,1,.63.63.62.62,0,0,1-.18.44A.61.61,0,0,1,107.82,59.12Zm.47,7.52h-1v-6h1Z" fill="#1e1e1e"/>
      <path d="M111.19,66.64h-1V57.76h1Z" fill="#1e1e1e"/>
      <path d="M113.63,59.12a.6.6,0,0,1-.44-.18.59.59,0,0,1-.18-.44.61.61,0,0,1,.18-.45.6.6,0,0,1,.44-.18.61.61,0,0,1,.45.18.62.62,0,0,1,.19.45.63.63,0,0,1-.19.44A.61.61,0,0,1,113.63,59.12Zm.47,7.52h-1v-6h1Z" fill="#1e1e1e"/>
      <path d="M118.83,66.58a1.82,1.82,0,0,1-.9.19c-1.05,0-1.57-.59-1.57-1.76V61.46h-1v-.82h1V59.18l1-.32v1.78h1.51v.82h-1.51v3.38a1.45,1.45,0,0,0,.2.86.84.84,0,0,0,.68.26,1.05,1.05,0,0,0,.63-.2Z" fill="#1e1e1e"/>
      <path d="M124.89,60.64l-2.76,7c-.49,1.24-1.19,1.86-2.08,1.86a2.21,2.21,0,0,1-.62-.07v-.86a1.71,1.71,0,0,0,.57.1,1.19,1.19,0,0,0,1.09-.86l.48-1.14-2.35-6h1.07l1.62,4.62q0,.09.12.45h0c0-.09.06-.24.12-.44l1.7-4.63Z" fill="#1e1e1e"/>
      <path d="M128.94,66.3V65.14a2.5,2.5,0,0,0,.48.32,3.8,3.8,0,0,0,.59.23,3.39,3.39,0,0,0,.61.15,3.09,3.09,0,0,0,.58.06,2.31,2.31,0,0,0,1.36-.34,1.17,1.17,0,0,0,.44-1,1.13,1.13,0,0,0-.15-.59,1.6,1.6,0,0,0-.41-.46,3.91,3.91,0,0,0-.62-.4l-.78-.4c-.29-.15-.57-.3-.82-.45a3.85,3.85,0,0,1-.66-.51,1.95,1.95,0,0,1-.61-1.44,1.93,1.93,0,0,1,.26-1,2.2,2.2,0,0,1,.66-.7,3,3,0,0,1,.93-.41,4.29,4.29,0,0,1,1.07-.13,4.08,4.08,0,0,1,1.81.3v1.1a3.29,3.29,0,0,0-1.91-.51,2.79,2.79,0,0,0-.64.07,1.56,1.56,0,0,0-.58.22,1.38,1.38,0,0,0-.41.39,1.06,1.06,0,0,0-.15.58,1.22,1.22,0,0,0,.12.56,1.28,1.28,0,0,0,.35.43,3.75,3.75,0,0,0,.57.37l.78.4c.3.15.58.31.85.47a3.62,3.62,0,0,1,.71.55,2.11,2.11,0,0,1,.49.66,1.84,1.84,0,0,1,.17.83,2.14,2.14,0,0,1-.24,1,2,2,0,0,1-.65.7,2.94,2.94,0,0,1-1,.39,5.22,5.22,0,0,1-1.13.12l-.5,0a4.28,4.28,0,0,1-.59-.1,4.45,4.45,0,0,1-.58-.15A2,2,0,0,1,128.94,66.3Z" fill="#1e1e1e"/>
      <path d="M140.4,63.88h-4.23a2.21,2.21,0,0,0,.54,1.55,1.85,1.85,0,0,0,1.41.54A2.94,2.94,0,0,0,140,65.3v.91a3.52,3.52,0,0,1-2.09.57,2.52,2.52,0,0,1-2-.82,3.81,3.81,0,0,1,.07-4.58,2.51,2.51,0,0,1,2-.88,2.25,2.25,0,0,1,1.82.76,3.18,3.18,0,0,1,.64,2.12Zm-1-.81a2,2,0,0,0-.4-1.3,1.37,1.37,0,0,0-1.1-.46,1.55,1.55,0,0,0-1.15.48,2.19,2.19,0,0,0-.59,1.28Z" fill="#1e1e1e"/>
      <path d="M144.64,66.58a1.82,1.82,0,0,1-.9.19c-1.05,0-1.57-.59-1.57-1.76V61.46h-1v-.82h1V59.18l1-.32v1.78h1.51v.82h-1.51v3.38a1.45,1.45,0,0,0,.2.86A.84.84,0,0,0,144,66a1,1,0,0,0,.63-.2Z" fill="#1e1e1e"/>
    </g>
    <g>
      <path d="M123.66,85.24l-3.11,8.41h-1.09l-3-8.41h1.09l2.33,6.67a4.27,4.27,0,0,1,.17.74h0a3.36,3.36,0,0,1,.2-.75l2.37-6.66Z" fill="#1e1e1e"/>
      <path d="M133.43,93.65h-1V88c0-.44,0-1,.08-1.63h0a4.44,4.44,0,0,1-.25.81l-2.87,6.46h-.48L126,87.24a6,6,0,0,1-.25-.86h0c0,.33,0,.88,0,1.64v5.63h-.95V85.24h1.3l2.58,5.86a7.5,7.5,0,0,1,.38,1h0c.17-.46.3-.8.4-1l2.63-5.84h1.23Z" fill="#1e1e1e"/>
    </g>
    <g>
      <path d="M123.66,118l-3.11,8.41h-1.09l-3-8.41h1.09l2.33,6.67a4.27,4.27,0,0,1,.17.74h0a3.36,3.36,0,0,1,.2-.75L122.6,118Z" fill="#1e1e1e"/>
      <path d="M133.43,126.38h-1v-5.64c0-.44,0-1,.08-1.63h0a4.44,4.44,0,0,1-.25.81l-2.87,6.46h-.48L126,120a6,6,0,0,1-.25-.86h0c0,.33,0,.88,0,1.64v5.63h-.95V118h1.3l2.58,5.86a7.5,7.5,0,0,1,.38,1h0c.17-.46.3-.8.4-1L132.2,118h1.23Z" fill="#1e1e1e"/>
    </g>
    <g>
      <path d="M123.66,149.7l-3.11,8.41h-1.09l-3-8.41h1.09l2.33,6.67a4.27,4.27,0,0,1,.17.74h0a3.58,3.58,0,0,1,.2-.76l2.37-6.65Z" fill="#1e1e1e"/>
      <path d="M133.43,158.11h-1v-5.64c0-.45,0-1,.08-1.63h0a4.44,4.44,0,0,1-.25.81l-2.87,6.46h-.48L126,151.7a6,6,0,0,1-.25-.86h0c0,.33,0,.88,0,1.64v5.63h-.95V149.7h1.3l2.58,5.86a7.5,7.5,0,0,1,.38,1h0c.17-.46.3-.8.4-1l2.63-5.84h1.23Z" fill="#1e1e1e"/>
    </g>
    <g>
      <path d="M293.06,77.64H292l-.89-2.35h-3.56l-.84,2.35h-1.09l3.22-8.4h1Zm-2.3-3.24-1.32-3.58a4.87,4.87,0,0,1-.13-.56h0a3.36,3.36,0,0,1-.13.56l-1.31,3.58Z" fill="#1e1e1e"/>
      <path d="M298.65,71.64l-2.39,6h-.94l-2.27-6h1.05L295.63,76a4.27,4.27,0,0,1,.21.84h0a3.94,3.94,0,0,1,.19-.82l1.59-4.38Z" fill="#1e1e1e"/>
      <path d="M304,77.64h-1V76.7h0a2,2,0,0,1-1.85,1.08,2,2,0,0,1-1.4-.47,1.65,1.65,0,0,1-.51-1.26c0-1.12.66-1.78,2-2l1.8-.25c0-1-.41-1.53-1.24-1.53a2.9,2.9,0,0,0-1.95.74v-1a3.76,3.76,0,0,1,2-.56c1.41,0,2.11.75,2.11,2.24Zm-1-3-1.45.19a2.48,2.48,0,0,0-1,.34,1,1,0,0,0-.34.84.9.9,0,0,0,.32.71,1.19,1.19,0,0,0,.83.28,1.51,1.51,0,0,0,1.18-.5A1.78,1.78,0,0,0,303,75.2Z" fill="#1e1e1e"/>
      <path d="M306.28,70.12a.6.6,0,0,1-.44-.18.59.59,0,0,1-.18-.44.61.61,0,0,1,.18-.45.6.6,0,0,1,.44-.18.61.61,0,0,1,.45.18.62.62,0,0,1,.19.45.63.63,0,0,1-.19.44A.61.61,0,0,1,306.28,70.12Zm.47,7.52h-1v-6h1Z" fill="#1e1e1e"/>
      <path d="M309.66,77.64h-1V68.76h1Z" fill="#1e1e1e"/>
      <path d="M315.9,77.64h-1V76.7h0a2,2,0,0,1-1.84,1.08,2,2,0,0,1-1.4-.47,1.65,1.65,0,0,1-.51-1.26c0-1.12.66-1.78,2-2l1.8-.25c0-1-.41-1.53-1.24-1.53a2.94,2.94,0,0,0-2,.74v-1a3.76,3.76,0,0,1,2-.56c1.41,0,2.12.75,2.12,2.24Zm-1-3-1.45.19a2.43,2.43,0,0,0-1,.34,1,1,0,0,0-.34.84.9.9,0,0,0,.32.71,1.18,1.18,0,0,0,.83.28,1.51,1.51,0,0,0,1.18-.5,1.78,1.78,0,0,0,.47-1.27Z" fill="#1e1e1e"/>
      <path d="M318.69,76.77h0v.87h-1V68.76h1V72.7h0a2.29,2.29,0,0,1,2.08-1.2,2.2,2.2,0,0,1,1.81.81,3.33,3.33,0,0,1,.65,2.16,3.78,3.78,0,0,1-.73,2.41,2.46,2.46,0,0,1-2,.9A2,2,0,0,1,318.69,76.77Zm0-2.42v.84a1.77,1.77,0,0,0,.48,1.26,1.73,1.73,0,0,0,2.6-.15,3,3,0,0,0,.49-1.85,2.41,2.41,0,0,0-.46-1.57,1.53,1.53,0,0,0-1.25-.57,1.7,1.7,0,0,0-1.35.58A2.15,2.15,0,0,0,318.67,74.35Z" fill="#1e1e1e"/>
      <path d="M325.26,70.12a.59.59,0,0,1-.44-.18.6.6,0,0,1-.19-.44.62.62,0,0,1,.19-.45.59.59,0,0,1,.44-.18.6.6,0,0,1,.44.18.58.58,0,0,1,.19.45.59.59,0,0,1-.19.44A.6.6,0,0,1,325.26,70.12Zm.46,7.52h-1v-6h1Z" fill="#1e1e1e"/>
      <path d="M328.63,77.64h-1V68.76h1Z" fill="#1e1e1e"/>
      <path d="M331.07,70.12a.6.6,0,0,1-.44-.18.59.59,0,0,1-.18-.44.61.61,0,0,1,.18-.45.6.6,0,0,1,.44-.18.64.64,0,0,1,.45.18.61.61,0,0,1,.18.45.62.62,0,0,1-.18.44A.64.64,0,0,1,331.07,70.12Zm.47,7.52h-1v-6h1Z" fill="#1e1e1e"/>
      <path d="M336.27,77.58a1.82,1.82,0,0,1-.9.19c-1.05,0-1.58-.59-1.58-1.76V72.46h-1v-.82h1V70.18l1-.31v1.77h1.52v.82h-1.52v3.38a1.37,1.37,0,0,0,.21.86.8.8,0,0,0,.68.26,1.05,1.05,0,0,0,.63-.2Z" fill="#1e1e1e"/>
      <path d="M342.32,71.64l-2.76,7c-.49,1.24-1.18,1.87-2.07,1.87a2.25,2.25,0,0,1-.63-.08v-.86a1.8,1.8,0,0,0,.57.1,1.17,1.17,0,0,0,1.09-.86l.48-1.14-2.34-6h1.06l1.63,4.62c0,.06.06.21.12.46h0a4.6,4.6,0,0,1,.11-.45l1.71-4.63Z" fill="#1e1e1e"/>
      <path d="M346.38,77.3V76.14a2.23,2.23,0,0,0,.48.32,3.69,3.69,0,0,0,.58.23,3.5,3.5,0,0,0,.62.15,3.07,3.07,0,0,0,.57.06,2.29,2.29,0,0,0,1.36-.34,1.26,1.26,0,0,0,.3-1.56,1.76,1.76,0,0,0-.41-.46,4.57,4.57,0,0,0-.63-.4l-.77-.4c-.3-.15-.57-.3-.82-.45a3.57,3.57,0,0,1-.67-.51,2.26,2.26,0,0,1-.44-.62,1.91,1.91,0,0,1-.16-.82,1.93,1.93,0,0,1,.25-1,2.32,2.32,0,0,1,.66-.7,3.19,3.19,0,0,1,.94-.41,4.29,4.29,0,0,1,1.07-.13,4.08,4.08,0,0,1,1.81.3v1.1a3.31,3.31,0,0,0-1.91-.51,2.88,2.88,0,0,0-.65.07,1.58,1.58,0,0,0-.57.22,1.27,1.27,0,0,0-.41.39,1,1,0,0,0-.16.58,1.22,1.22,0,0,0,.12.56,1.31,1.31,0,0,0,.36.43,3,3,0,0,0,.57.37c.22.12.48.26.77.4s.59.31.86.47a3.62,3.62,0,0,1,.71.55,2.38,2.38,0,0,1,.48.66,1.84,1.84,0,0,1,.18.83,2.14,2.14,0,0,1-.24,1,1.93,1.93,0,0,1-.66.7,2.8,2.8,0,0,1-.95.39,5.24,5.24,0,0,1-1.14.12l-.49,0c-.2,0-.39,0-.6-.09l-.57-.16A1.51,1.51,0,0,1,346.38,77.3Z" fill="#1e1e1e"/>
      <path d="M357.84,74.88H353.6a2.3,2.3,0,0,0,.54,1.55,1.88,1.88,0,0,0,1.42.54,2.89,2.89,0,0,0,1.86-.67v.91a3.47,3.47,0,0,1-2.09.57,2.53,2.53,0,0,1-2-.82,3.35,3.35,0,0,1-.72-2.3,3.28,3.28,0,0,1,.79-2.28,2.54,2.54,0,0,1,2-.88,2.26,2.26,0,0,1,1.83.76,3.18,3.18,0,0,1,.64,2.12Zm-1-.81a2,2,0,0,0-.41-1.3,1.35,1.35,0,0,0-1.09-.46,1.54,1.54,0,0,0-1.16.49,2.12,2.12,0,0,0-.58,1.27Z" fill="#1e1e1e"/>
      <path d="M362.08,77.58a1.82,1.82,0,0,1-.9.19c-1.05,0-1.58-.59-1.58-1.76V72.46h-1v-.82h1V70.18l1-.31v1.77h1.52v.82h-1.52v3.38a1.37,1.37,0,0,0,.21.86.8.8,0,0,0,.68.26,1.05,1.05,0,0,0,.63-.2Z" fill="#1e1e1e"/>
    </g>
    <g>
      <path d="M445.11,155.92h-4.36v-8.4h1V155h3.37Z" fill="#1e1e1e"/>
      <path d="M450.57,155.92h-1V155h0a2.2,2.2,0,0,1-3.25.61,1.64,1.64,0,0,1-.5-1.26c0-1.13.66-1.78,2-2l1.79-.25q0-1.53-1.23-1.53a2.92,2.92,0,0,0-2,.74v-1a3.76,3.76,0,0,1,2-.56c1.41,0,2.12.75,2.12,2.24Zm-1-3-1.44.2a2.59,2.59,0,0,0-1,.33,1,1,0,0,0-.34.85.89.89,0,0,0,.31.71,1.2,1.2,0,0,0,.84.28,1.56,1.56,0,0,0,1.18-.5,1.79,1.79,0,0,0,.46-1.27Z" fill="#1e1e1e"/>
      <path d="M457.15,149.92l-2.76,7q-.74,1.86-2.07,1.86a2.28,2.28,0,0,1-.63-.07v-.86a1.8,1.8,0,0,0,.57.1,1.18,1.18,0,0,0,1.09-.87l.48-1.13-2.34-6h1.06l1.62,4.62c0,.06.07.21.13.45h0c0-.09.06-.24.12-.44l1.71-4.63Z" fill="#1e1e1e"/>
      <path d="M463,153.16h-4.23a2.21,2.21,0,0,0,.54,1.55,1.85,1.85,0,0,0,1.42.54,2.93,2.93,0,0,0,1.86-.67v.91a3.52,3.52,0,0,1-2.09.57,2.52,2.52,0,0,1-2-.82,3.81,3.81,0,0,1,.07-4.58,2.53,2.53,0,0,1,2-.88,2.25,2.25,0,0,1,1.82.76,3.18,3.18,0,0,1,.64,2.12Zm-1-.81a2,2,0,0,0-.4-1.3,1.36,1.36,0,0,0-1.1-.46,1.55,1.55,0,0,0-1.15.48,2.19,2.19,0,0,0-.59,1.28Z" fill="#1e1e1e"/>
      <path d="M467.59,150.89a1.18,1.18,0,0,0-.73-.19,1.23,1.23,0,0,0-1,.58,2.72,2.72,0,0,0-.41,1.58v3.06h-1v-6h1v1.24h0a2.07,2.07,0,0,1,.63-1,1.42,1.42,0,0,1,.94-.36,1.5,1.5,0,0,1,.58.09Z" fill="#1e1e1e"/>
      <path d="M476.86,148.07c-.13.23-.28.5-.46.84s-.38.7-.58,1.12-.41.85-.62,1.33-.41,1-.59,1.48-.35,1-.49,1.54a11,11,0,0,0-.3,1.54h-1a11,11,0,0,1,.33-1.53c.14-.52.31-1,.49-1.54s.39-1,.59-1.45.41-.89.61-1.28.37-.74.53-1l.39-.7h-4.21v-.86h5.34Z" fill="#1e1e1e"/>
      <path d="M427,169.12h-4.36v-8.4h1v7.51H427Z" fill="#1e1e1e"/>
      <path d="M430.61,169.26a2.79,2.79,0,0,1-2.12-.84,3.1,3.1,0,0,1-.79-2.23,3.24,3.24,0,0,1,.82-2.36,3,3,0,0,1,2.23-.85,2.66,2.66,0,0,1,2.1.83,3.77,3.77,0,0,1-.06,4.59A2.87,2.87,0,0,1,430.61,169.26Zm.07-5.47a1.83,1.83,0,0,0-1.46.63,2.58,2.58,0,0,0-.54,1.73,2.42,2.42,0,0,0,.55,1.69,1.84,1.84,0,0,0,1.45.61,1.77,1.77,0,0,0,1.44-.6,3.23,3.23,0,0,0,0-3.45A1.75,1.75,0,0,0,430.68,163.79Z" fill="#1e1e1e"/>
      <path d="M439.43,169.12h-1v-.94h0a2,2,0,0,1-1.85,1.08,2,2,0,0,1-1.4-.47,1.65,1.65,0,0,1-.51-1.26c0-1.13.66-1.78,2-2l1.8-.25q0-1.53-1.23-1.53a2.91,2.91,0,0,0-2,.74v-1a3.76,3.76,0,0,1,2-.56c1.41,0,2.11.75,2.11,2.24Zm-1-3-1.45.2a2.54,2.54,0,0,0-1,.33,1,1,0,0,0-.34.85.89.89,0,0,0,.31.71,1.2,1.2,0,0,0,.84.28A1.56,1.56,0,0,0,438,168a1.79,1.79,0,0,0,.46-1.27Z" fill="#1e1e1e"/>
      <path d="M446.36,169.12h-1v-1h0a2.42,2.42,0,0,1-3.87.35,3.28,3.28,0,0,1-.68-2.19,3.57,3.57,0,0,1,.75-2.38,2.48,2.48,0,0,1,2-.9,1.92,1.92,0,0,1,1.8,1h0v-3.71h1Zm-1-2.71v-.89a1.73,1.73,0,0,0-.48-1.23,1.62,1.62,0,0,0-1.22-.5,1.66,1.66,0,0,0-1.38.64,2.87,2.87,0,0,0-.5,1.78,2.56,2.56,0,0,0,.48,1.64,1.59,1.59,0,0,0,1.3.6,1.63,1.63,0,0,0,1.3-.58A2.11,2.11,0,0,0,445.4,166.41Z" fill="#1e1e1e"/>
      <path d="M452.58,168.25h0v.87h-1v-8.88h1v3.93h0a2.29,2.29,0,0,1,2.08-1.19,2.21,2.21,0,0,1,1.8.8,3.32,3.32,0,0,1,.66,2.16,3.74,3.74,0,0,1-.74,2.42,2.42,2.42,0,0,1-2,.9A2,2,0,0,1,452.58,168.25Zm0-2.42v.84a1.77,1.77,0,0,0,.48,1.26,1.59,1.59,0,0,0,1.23.52,1.6,1.6,0,0,0,1.37-.67,3,3,0,0,0,.49-1.85,2.41,2.41,0,0,0-.46-1.57,1.53,1.53,0,0,0-1.25-.57,1.7,1.7,0,0,0-1.35.58A2.15,2.15,0,0,0,452.56,165.83Z" fill="#1e1e1e"/>
      <path d="M463,169.12h-1v-.94h0a2.2,2.2,0,0,1-3.25.61,1.68,1.68,0,0,1-.5-1.26c0-1.13.66-1.78,2-2l1.8-.25c0-1-.42-1.53-1.24-1.53a2.92,2.92,0,0,0-2,.74v-1a3.76,3.76,0,0,1,2-.56c1.41,0,2.12.75,2.12,2.24Zm-1-3-1.45.2a2.59,2.59,0,0,0-1,.33,1,1,0,0,0-.34.85.89.89,0,0,0,.31.71,1.2,1.2,0,0,0,.84.28,1.55,1.55,0,0,0,1.18-.5,1.8,1.8,0,0,0,.47-1.27Z" fill="#1e1e1e"/>
      <path d="M465.72,169.12h-1v-8.88h1Z" fill="#1e1e1e"/>
      <path d="M472,169.12h-1v-.94h0a2.2,2.2,0,0,1-3.25.61,1.68,1.68,0,0,1-.5-1.26c0-1.13.66-1.78,2-2l1.8-.25c0-1-.42-1.53-1.24-1.53a2.94,2.94,0,0,0-2,.74v-1a3.76,3.76,0,0,1,2-.56c1.41,0,2.12.75,2.12,2.24Zm-1-3-1.45.2a2.59,2.59,0,0,0-1,.33,1,1,0,0,0-.34.85.9.9,0,0,0,.32.71,1.16,1.16,0,0,0,.83.28,1.55,1.55,0,0,0,1.18-.5,1.8,1.8,0,0,0,.47-1.27Z" fill="#1e1e1e"/>
      <path d="M478.75,169.12h-1V165.7c0-1.28-.47-1.91-1.4-1.91a1.52,1.52,0,0,0-1.19.54,2,2,0,0,0-.47,1.37v3.42h-1v-6h1v1h0a2.17,2.17,0,0,1,2-1.14,1.85,1.85,0,0,1,1.51.63,2.84,2.84,0,0,1,.52,1.84Z" fill="#1e1e1e"/>
      <path d="M484.65,168.84a3.1,3.1,0,0,1-1.64.42,2.72,2.72,0,0,1-2.07-.83,3,3,0,0,1-.79-2.17,3.3,3.3,0,0,1,.85-2.38,3,3,0,0,1,2.27-.9,3.23,3.23,0,0,1,1.39.29v1a2.38,2.38,0,0,0-1.43-.47,2,2,0,0,0-1.51.66,2.5,2.5,0,0,0-.59,1.73,2.36,2.36,0,0,0,.56,1.66,1.89,1.89,0,0,0,1.48.61,2.39,2.39,0,0,0,1.48-.52Z" fill="#1e1e1e"/>
      <path d="M490.92,166.36h-4.23a2.21,2.21,0,0,0,.54,1.55,1.85,1.85,0,0,0,1.42.54,2.93,2.93,0,0,0,1.86-.67v.91a3.52,3.52,0,0,1-2.09.57,2.52,2.52,0,0,1-2-.82,3.81,3.81,0,0,1,.07-4.58,2.53,2.53,0,0,1,2-.88,2.25,2.25,0,0,1,1.82.76,3.18,3.18,0,0,1,.64,2.12Zm-1-.81a2,2,0,0,0-.4-1.3,1.36,1.36,0,0,0-1.1-.46,1.55,1.55,0,0,0-1.15.48,2.19,2.19,0,0,0-.59,1.28Z" fill="#1e1e1e"/>
      <path d="M495.51,164.09a1.18,1.18,0,0,0-.73-.19,1.23,1.23,0,0,0-1,.58,2.72,2.72,0,0,0-.41,1.58v3.06h-1v-6h1v1.24h0a2.12,2.12,0,0,1,.63-1,1.4,1.4,0,0,1,.94-.36,1.5,1.5,0,0,1,.58.09Z" fill="#1e1e1e"/>
    </g>
    <g>
      <path d="M337.59,104.39h-1.21l-4.32-6.69a2.94,2.94,0,0,1-.27-.53h0a8.6,8.6,0,0,1,.05,1.15v6.07h-1V96h1.28l4.21,6.59c.17.28.29.46.34.57h0a8.84,8.84,0,0,1-.06-1.24V96h1Z" fill="#1e1e1e"/>
      <path d="M346,96l-3.11,8.4h-1.08L338.74,96h1.09l2.33,6.66a3.77,3.77,0,0,1,.17.75h0a4.09,4.09,0,0,1,.2-.76L344.92,96Z" fill="#1e1e1e"/>
      <path d="M353,104.39h-1.09L351,102h-3.56l-.84,2.35h-1.1l3.23-8.4h1Zm-2.3-3.24-1.32-3.58a2.44,2.44,0,0,1-.13-.56h0a3,3,0,0,1-.14.56l-1.31,3.58Z" fill="#1e1e1e"/>
    </g>
    <g>
      <path d="M337.59,159.39h-1.21l-4.32-6.69a2.94,2.94,0,0,1-.27-.53h0a8.6,8.6,0,0,1,.05,1.15v6.07h-1V151h1.28l4.21,6.59c.17.28.29.46.34.57h0a8.84,8.84,0,0,1-.06-1.24V151h1Z" fill="#1e1e1e"/>
      <path d="M346,151l-3.11,8.4h-1.08l-3.05-8.4h1.09l2.33,6.66a4.63,4.63,0,0,1,.17.75h0a3.43,3.43,0,0,1,.2-.76l2.37-6.65Z" fill="#1e1e1e"/>
      <path d="M353,159.39h-1.09L351,157h-3.56l-.84,2.35h-1.1l3.22-8.4h1Zm-2.3-3.24-1.32-3.58a2.44,2.44,0,0,1-.13-.56h0a2.45,2.45,0,0,1-.13.56l-1.31,3.58Z" fill="#1e1e1e"/>
    </g>
    <g>
      <path d="M184.21,124.34q0,3.54-3.2,3.54T178,124.47v-5.14h1v5.08c0,1.72.72,2.58,2.18,2.58s2.1-.83,2.1-2.49v-5.17h1Z" fill="#1e1e1e"/>
      <path d="M186.22,127.74v-8.41h2.32q4.44,0,4.44,4.1a4.1,4.1,0,0,1-1.23,3.12,4.56,4.56,0,0,1-3.3,1.19Zm1-7.52v6.62h1.26A3.55,3.55,0,0,0,191,126a3.34,3.34,0,0,0,.92-2.51q0-3.23-3.43-3.23Z" fill="#1e1e1e"/>
      <path d="M200.6,127.74h-1.17L198,125.38a5,5,0,0,0-.37-.56,2.69,2.69,0,0,0-.37-.38,1.23,1.23,0,0,0-.41-.21,1.59,1.59,0,0,0-.5-.07h-.81v3.58h-1v-8.41h2.51a3.62,3.62,0,0,1,1,.14,2.23,2.23,0,0,1,.81.42,2,2,0,0,1,.54.7,2.32,2.32,0,0,1,.19,1,2.37,2.37,0,0,1-.13.81,2,2,0,0,1-.38.65,2.32,2.32,0,0,1-.58.49,3.1,3.1,0,0,1-.77.31v0a1.55,1.55,0,0,1,.36.21,2,2,0,0,1,.3.28,4.17,4.17,0,0,1,.28.38l.3.48Zm-5-7.52v3h1.34a2.15,2.15,0,0,0,.68-.11,1.46,1.46,0,0,0,.54-.32,1.57,1.57,0,0,0,.36-.51,1.65,1.65,0,0,0,.13-.68,1.32,1.32,0,0,0-.44-1.05,1.88,1.88,0,0,0-1.26-.38Z" fill="#1e1e1e"/>
    </g>
    <g>
      <path d="M281.44,225.76h-1.17l-1.41-2.36a4.53,4.53,0,0,0-.37-.56,2.15,2.15,0,0,0-.37-.37,1.49,1.49,0,0,0-.41-.22,1.89,1.89,0,0,0-.5-.07h-.81v3.58h-1v-8.4h2.51a3.63,3.63,0,0,1,1,.13,2.4,2.4,0,0,1,.81.42,2,2,0,0,1,.54.7,2.61,2.61,0,0,1,.06,1.79,2,2,0,0,1-.38.65,2.13,2.13,0,0,1-.58.49,3.12,3.12,0,0,1-.77.32v0a1.55,1.55,0,0,1,.36.21,1.64,1.64,0,0,1,.3.29,4,4,0,0,1,.28.37l.31.48Zm-5-7.51v3h1.34a1.87,1.87,0,0,0,.68-.11,1.46,1.46,0,0,0,.54-.32,1.32,1.32,0,0,0,.36-.51,1.6,1.6,0,0,0,.13-.67,1.35,1.35,0,0,0-.44-1.06,1.88,1.88,0,0,0-1.26-.37Z" fill="#1e1e1e"/>
      <path d="M286.94,223H282.7a2.3,2.3,0,0,0,.54,1.55,1.87,1.87,0,0,0,1.42.54,2.91,2.91,0,0,0,1.86-.67v.9a3.41,3.41,0,0,1-2.09.58,2.53,2.53,0,0,1-2-.82,3.35,3.35,0,0,1-.72-2.3,3.28,3.28,0,0,1,.79-2.28,2.54,2.54,0,0,1,2-.88,2.24,2.24,0,0,1,1.82.76,3.17,3.17,0,0,1,.65,2.11Zm-1-.82a1.9,1.9,0,0,0-.4-1.29,1.36,1.36,0,0,0-1.1-.46,1.56,1.56,0,0,0-1.15.48,2.25,2.25,0,0,0-.59,1.27Z" fill="#1e1e1e"/>
      <path d="M293.51,228.52h-1v-3.79h0a2.15,2.15,0,0,1-2,1.17,2.26,2.26,0,0,1-1.82-.81,3.3,3.3,0,0,1-.68-2.19,3.6,3.6,0,0,1,.75-2.39,2.51,2.51,0,0,1,2-.89,1.89,1.89,0,0,1,1.78,1h0v-.83h1Zm-1-5.46v-.88a1.74,1.74,0,0,0-.48-1.24,1.61,1.61,0,0,0-1.23-.51,1.64,1.64,0,0,0-1.37.64,2.85,2.85,0,0,0-.5,1.81,2.48,2.48,0,0,0,.48,1.62,1.57,1.57,0,0,0,1.26.59,1.66,1.66,0,0,0,1.34-.58A2.15,2.15,0,0,0,292.55,223.06Z" fill="#1e1e1e"/>
      <path d="M300.31,225.76h-1v-.95h0a2,2,0,0,1-1.86,1.09c-1.43,0-2.14-.85-2.14-2.56v-3.58h.95v3.43c0,1.27.49,1.9,1.46,1.9a1.44,1.44,0,0,0,1.15-.52,1.94,1.94,0,0,0,.46-1.35v-3.46h1Z" fill="#1e1e1e"/>
      <path d="M307.07,223h-4.24a2.3,2.3,0,0,0,.54,1.55,1.88,1.88,0,0,0,1.42.54,2.94,2.94,0,0,0,1.87-.67v.9a3.46,3.46,0,0,1-2.1.58,2.51,2.51,0,0,1-2-.82,3.83,3.83,0,0,1,.06-4.58,2.54,2.54,0,0,1,2-.88,2.26,2.26,0,0,1,1.83.76,3.17,3.17,0,0,1,.64,2.11Zm-1-.82a2,2,0,0,0-.4-1.29,1.37,1.37,0,0,0-1.1-.46,1.57,1.57,0,0,0-1.16.48,2.24,2.24,0,0,0-.58,1.27Z" fill="#1e1e1e"/>
      <path d="M308.16,225.54v-1a2.82,2.82,0,0,0,1.73.58c.84,0,1.27-.28,1.27-.84a.76.76,0,0,0-.11-.41,1.22,1.22,0,0,0-.3-.3,2.44,2.44,0,0,0-.43-.23l-.54-.21c-.26-.11-.49-.21-.7-.32a2.22,2.22,0,0,1-.5-.36,1.35,1.35,0,0,1-.3-.46,1.66,1.66,0,0,1-.11-.61,1.45,1.45,0,0,1,.2-.75,1.87,1.87,0,0,1,.51-.54,2.26,2.26,0,0,1,.74-.33,3,3,0,0,1,.85-.11,3.41,3.41,0,0,1,1.39.27v1a2.68,2.68,0,0,0-1.52-.43,1.88,1.88,0,0,0-.49.06,1.4,1.4,0,0,0-.37.17.78.78,0,0,0-.24.27.74.74,0,0,0-.08.34.87.87,0,0,0,.08.39.83.83,0,0,0,.25.28,1.68,1.68,0,0,0,.4.23l.53.21a6.17,6.17,0,0,1,.72.32,2.12,2.12,0,0,1,.54.36,1.32,1.32,0,0,1,.34.47,1.46,1.46,0,0,1,.12.62,1.51,1.51,0,0,1-.2.78,1.67,1.67,0,0,1-.52.54,2.26,2.26,0,0,1-.76.32,3.68,3.68,0,0,1-.89.11A3.39,3.39,0,0,1,308.16,225.54Z" fill="#1e1e1e"/>
      <path d="M316.4,225.7a1.94,1.94,0,0,1-.9.19c-1.05,0-1.57-.59-1.57-1.76v-3.55h-1v-.82h1v-1.47l1-.31v1.78h1.51v.82h-1.51V224a1.45,1.45,0,0,0,.2.86.84.84,0,0,0,.68.26,1.05,1.05,0,0,0,.63-.2Z" fill="#1e1e1e"/>
      <path d="M323.75,225.7a1.87,1.87,0,0,1-.89.19c-1.05,0-1.58-.59-1.58-1.76v-3.55h-1v-.82h1v-1.47l1-.31v1.78h1.51v.82h-1.51V224a1.37,1.37,0,0,0,.21.86.81.81,0,0,0,.68.26,1,1,0,0,0,.62-.2Z" fill="#1e1e1e"/>
      <path d="M327.54,225.9a2.79,2.79,0,0,1-2.12-.84,3.12,3.12,0,0,1-.79-2.23,3.23,3.23,0,0,1,.82-2.36,3,3,0,0,1,2.23-.85,2.69,2.69,0,0,1,2.1.82,3.29,3.29,0,0,1,.75,2.29,3.21,3.21,0,0,1-.81,2.3A2.84,2.84,0,0,1,327.54,225.9Zm.07-5.47a1.83,1.83,0,0,0-1.46.63,2.56,2.56,0,0,0-.54,1.73,2.41,2.41,0,0,0,.55,1.68,1.83,1.83,0,0,0,1.45.62,1.77,1.77,0,0,0,1.44-.6,3.23,3.23,0,0,0,0-3.45A1.75,1.75,0,0,0,327.61,220.43Z" fill="#1e1e1e"/>
      <path d="M342,225.76H340.9L340,223.4h-3.57l-.83,2.36h-1.1l3.22-8.4h1Zm-2.31-3.24-1.31-3.58a2.75,2.75,0,0,1-.13-.56h0a3.62,3.62,0,0,1-.13.56l-1.31,3.58Z" fill="#1e1e1e"/>
      <path d="M347.28,220l-3.55,4.91h3.51v.82h-4.92v-.3l3.55-4.88h-3.22v-.82h4.63Z" fill="#1e1e1e"/>
      <path d="M348.16,225.54v-1a2.82,2.82,0,0,0,1.73.58q1.26,0,1.26-.84a.68.68,0,0,0-.11-.41,1.17,1.17,0,0,0-.29-.3,2.86,2.86,0,0,0-.43-.23l-.54-.21a6.76,6.76,0,0,1-.7-.32,2.22,2.22,0,0,1-.5-.36,1.38,1.38,0,0,1-.31-.46,1.66,1.66,0,0,1-.1-.61,1.44,1.44,0,0,1,.19-.75,1.78,1.78,0,0,1,.52-.54,2.21,2.21,0,0,1,.73-.33,3.07,3.07,0,0,1,.86-.11,3.41,3.41,0,0,1,1.39.27v1a2.7,2.7,0,0,0-1.52-.43,1.88,1.88,0,0,0-.49.06,1.26,1.26,0,0,0-.37.17.69.69,0,0,0-.24.27.64.64,0,0,0-.09.34.75.75,0,0,0,.09.39.74.74,0,0,0,.25.28,1.68,1.68,0,0,0,.4.23l.53.21a6.81,6.81,0,0,1,.71.32,2.12,2.12,0,0,1,.54.36,1.35,1.35,0,0,1,.35.47,1.46,1.46,0,0,1,.12.62,1.51,1.51,0,0,1-.2.78,1.78,1.78,0,0,1-.52.54,2.35,2.35,0,0,1-.76.32,3.76,3.76,0,0,1-.9.11A3.37,3.37,0,0,1,348.16,225.54Z" fill="#1e1e1e"/>
      <path d="M364.46,219.76l-1.8,6h-1l-1.23-4.3a2.84,2.84,0,0,1-.1-.55h0a2.44,2.44,0,0,1-.12.54l-1.35,4.31h-1l-1.81-6h1l1.24,4.51a3.12,3.12,0,0,1,.08.54h.05a2.29,2.29,0,0,1,.1-.55l1.38-4.5h.88l1.25,4.52a5.29,5.29,0,0,1,.08.54h.05a2.61,2.61,0,0,1,.1-.54l1.22-4.52Z" fill="#1e1e1e"/>
      <path d="M368.08,225.9a2.76,2.76,0,0,1-2.12-.84,3.12,3.12,0,0,1-.8-2.23,3.23,3.23,0,0,1,.83-2.36,3,3,0,0,1,2.23-.85,2.68,2.68,0,0,1,2.09.82,3.25,3.25,0,0,1,.76,2.29,3.21,3.21,0,0,1-.81,2.3A2.85,2.85,0,0,1,368.08,225.9Zm.07-5.47a1.84,1.84,0,0,0-1.47.63,2.61,2.61,0,0,0-.53,1.73,2.46,2.46,0,0,0,.54,1.68,1.85,1.85,0,0,0,1.46.62,1.75,1.75,0,0,0,1.43-.6,3.23,3.23,0,0,0,0-3.45A1.73,1.73,0,0,0,368.15,220.43Z" fill="#1e1e1e"/>
      <path d="M375.73,220.73a1.18,1.18,0,0,0-.73-.19,1.2,1.2,0,0,0-1,.58,2.62,2.62,0,0,0-.42,1.58v3.06h-1v-6h1V221h0a2,2,0,0,1,.62-1,1.45,1.45,0,0,1,1-.36,1.65,1.65,0,0,1,.57.08Z" fill="#1e1e1e"/>
      <path d="M381.75,225.76h-1.34l-2.65-2.88h0v2.88h-1v-8.88h1v5.63h0l2.52-2.75h1.26l-2.79,2.89Z" fill="#1e1e1e"/>
      <path d="M383.7,225.76h-1v-8.88h1Z" fill="#1e1e1e"/>
      <path d="M388.15,225.9a2.79,2.79,0,0,1-2.12-.84,3.12,3.12,0,0,1-.79-2.23,3.23,3.23,0,0,1,.82-2.36,3,3,0,0,1,2.23-.85,2.69,2.69,0,0,1,2.1.82,3.29,3.29,0,0,1,.75,2.29,3.21,3.21,0,0,1-.81,2.3A2.84,2.84,0,0,1,388.15,225.9Zm.07-5.47a1.83,1.83,0,0,0-1.46.63,2.56,2.56,0,0,0-.54,1.73,2.46,2.46,0,0,0,.54,1.68,1.87,1.87,0,0,0,1.46.62,1.79,1.79,0,0,0,1.44-.6,3.23,3.23,0,0,0,0-3.45A1.76,1.76,0,0,0,388.22,220.43Z" fill="#1e1e1e"/>
      <path d="M397,225.76h-1v-.94h0a2,2,0,0,1-1.85,1.08,2,2,0,0,1-1.4-.48,1.62,1.62,0,0,1-.51-1.26q0-1.68,2-1.95L396,222c0-1-.41-1.53-1.24-1.53a2.94,2.94,0,0,0-1.95.73v-1a3.68,3.68,0,0,1,2-.56c1.41,0,2.11.74,2.11,2.24Zm-1-3-1.45.2a2.25,2.25,0,0,0-1,.33,1,1,0,0,0-.34.84.9.9,0,0,0,.31.72,1.19,1.19,0,0,0,.83.28,1.55,1.55,0,0,0,1.18-.5,1.75,1.75,0,0,0,.47-1.27Z" fill="#1e1e1e"/>
      <path d="M403.9,225.76h-1v-1h0a2.42,2.42,0,0,1-3.87.35,3.3,3.3,0,0,1-.68-2.19,3.62,3.62,0,0,1,.75-2.39,2.5,2.5,0,0,1,2-.89,1.93,1.93,0,0,1,1.8,1h0v-3.71h1Zm-1-2.71v-.89a1.73,1.73,0,0,0-.48-1.23,1.58,1.58,0,0,0-1.22-.5,1.66,1.66,0,0,0-1.38.64,2.79,2.79,0,0,0-.5,1.78,2.56,2.56,0,0,0,.48,1.64,1.57,1.57,0,0,0,1.3.6,1.63,1.63,0,0,0,1.3-.58A2.14,2.14,0,0,0,402.94,223.05Z" fill="#1e1e1e"/>
    </g>
    <g>
      <path d="M281.44,243.33h-1.17L278.86,241a3.88,3.88,0,0,0-.37-.56,2.24,2.24,0,0,0-.37-.38,1.49,1.49,0,0,0-.41-.22,1.9,1.9,0,0,0-.5-.06h-.81v3.57h-1v-8.4h2.51a3.29,3.29,0,0,1,1,.14,2.23,2.23,0,0,1,.81.42,1.88,1.88,0,0,1,.54.7,2.58,2.58,0,0,1,.06,1.78,2.07,2.07,0,0,1-.38.66,2.32,2.32,0,0,1-.58.49,3.54,3.54,0,0,1-.77.31v0a2.06,2.06,0,0,1,.66.5,4,4,0,0,1,.28.37l.31.49Zm-5-7.51v3.05h1.34a2.11,2.11,0,0,0,.68-.11,1.8,1.8,0,0,0,.54-.32,1.32,1.32,0,0,0,.36-.51,1.68,1.68,0,0,0,.13-.68,1.32,1.32,0,0,0-.44-1.05,1.88,1.88,0,0,0-1.26-.38Z" fill="#1e1e1e"/>
      <path d="M286.94,240.57H282.7a2.28,2.28,0,0,0,.54,1.55,1.87,1.87,0,0,0,1.42.54,3,3,0,0,0,1.86-.66v.9a3.47,3.47,0,0,1-2.09.57,2.53,2.53,0,0,1-2-.82,3.35,3.35,0,0,1-.72-2.3,3.28,3.28,0,0,1,.79-2.28,2.54,2.54,0,0,1,2-.88,2.24,2.24,0,0,1,1.82.76,3.2,3.2,0,0,1,.65,2.12Zm-1-.81a1.91,1.91,0,0,0-.4-1.3,1.36,1.36,0,0,0-1.1-.46,1.54,1.54,0,0,0-1.15.49,2.19,2.19,0,0,0-.59,1.27Z" fill="#1e1e1e"/>
      <path d="M293.51,246.09h-1V242.3h0a2.15,2.15,0,0,1-2,1.17,2.29,2.29,0,0,1-1.82-.8,3.33,3.33,0,0,1-.68-2.2,3.62,3.62,0,0,1,.75-2.39,2.51,2.51,0,0,1,2-.89,1.89,1.89,0,0,1,1.78,1h0v-.83h1Zm-1-5.46v-.87a1.74,1.74,0,0,0-.48-1.25,1.61,1.61,0,0,0-1.23-.51,1.64,1.64,0,0,0-1.37.64,2.85,2.85,0,0,0-.5,1.81,2.48,2.48,0,0,0,.48,1.62,1.54,1.54,0,0,0,1.26.59,1.69,1.69,0,0,0,1.34-.57A2.17,2.17,0,0,0,292.55,240.63Z" fill="#1e1e1e"/>
      <path d="M300.31,243.33h-1v-1h0a2,2,0,0,1-1.86,1.09c-1.43,0-2.14-.85-2.14-2.55v-3.59h.95v3.43c0,1.27.49,1.9,1.46,1.9a1.44,1.44,0,0,0,1.15-.52,1.92,1.92,0,0,0,.46-1.35v-3.46h1Z" fill="#1e1e1e"/>
      <path d="M307.07,240.57h-4.24a2.28,2.28,0,0,0,.54,1.55,1.88,1.88,0,0,0,1.42.54,3,3,0,0,0,1.87-.66v.9a3.53,3.53,0,0,1-2.1.57,2.51,2.51,0,0,1-2-.82,3.83,3.83,0,0,1,.06-4.58,2.54,2.54,0,0,1,2-.88,2.26,2.26,0,0,1,1.83.76,3.19,3.19,0,0,1,.64,2.12Zm-1-.81a2,2,0,0,0-.4-1.3,1.37,1.37,0,0,0-1.1-.46,1.54,1.54,0,0,0-1.16.49,2.18,2.18,0,0,0-.58,1.27Z" fill="#1e1e1e"/>
      <path d="M308.16,243.11v-1a2.82,2.82,0,0,0,1.73.58c.84,0,1.27-.28,1.27-.84a.76.76,0,0,0-.11-.41,1,1,0,0,0-.3-.29,1.94,1.94,0,0,0-.43-.24l-.54-.21a6.6,6.6,0,0,1-.7-.32,2.22,2.22,0,0,1-.5-.36,1.35,1.35,0,0,1-.3-.46,1.58,1.58,0,0,1-.11-.61,1.39,1.39,0,0,1,.2-.74,1.78,1.78,0,0,1,.51-.55,2.77,2.77,0,0,1,.74-.33,3.56,3.56,0,0,1,2.24.16v1a2.68,2.68,0,0,0-1.52-.43,1.88,1.88,0,0,0-.49.06,1.4,1.4,0,0,0-.37.17,1,1,0,0,0-.24.27.77.77,0,0,0-.08.34,1,1,0,0,0,.08.4,1.07,1.07,0,0,0,.25.28,2.11,2.11,0,0,0,.4.22l.53.22a6.21,6.21,0,0,1,.72.31,2.82,2.82,0,0,1,.54.36,1.41,1.41,0,0,1,.34.47,1.48,1.48,0,0,1,.12.63,1.5,1.5,0,0,1-.2.77,1.58,1.58,0,0,1-.52.54,2.28,2.28,0,0,1-.76.33,3.68,3.68,0,0,1-.89.1A3.39,3.39,0,0,1,308.16,243.11Z" fill="#1e1e1e"/>
      <path d="M316.4,243.27a1.82,1.82,0,0,1-.9.19c-1.05,0-1.57-.59-1.57-1.76v-3.55h-1v-.82h1v-1.46l1-.31v1.77h1.51v.82h-1.51v3.38a1.45,1.45,0,0,0,.2.86.81.81,0,0,0,.68.26,1,1,0,0,0,.63-.2Z" fill="#1e1e1e"/>
      <path d="M323.93,235.29a1.31,1.31,0,0,0-.63-.16c-.68,0-1,.43-1,1.28v.92h1.4v.82h-1.4v5.18h-1v-5.18h-1v-.82h1v-1a2,2,0,0,1,.55-1.49,1.81,1.81,0,0,1,1.36-.55,1.86,1.86,0,0,1,.69.1Z" fill="#1e1e1e"/>
      <path d="M327.85,238.3a1.14,1.14,0,0,0-.72-.19,1.23,1.23,0,0,0-1,.58,2.64,2.64,0,0,0-.41,1.58v3.06h-1v-6h1v1.24h0a2.17,2.17,0,0,1,.63-1,1.39,1.39,0,0,1,.94-.35,1.44,1.44,0,0,1,.57.08Z" fill="#1e1e1e"/>
      <path d="M331.41,243.47a2.79,2.79,0,0,1-2.13-.84,3.1,3.1,0,0,1-.79-2.23,3.24,3.24,0,0,1,.82-2.36,3,3,0,0,1,2.24-.85,2.69,2.69,0,0,1,2.09.83,3.77,3.77,0,0,1-.06,4.59A2.85,2.85,0,0,1,331.41,243.47Zm.07-5.47a1.84,1.84,0,0,0-1.47.63,2.59,2.59,0,0,0-.54,1.74,2.41,2.41,0,0,0,.55,1.68,1.85,1.85,0,0,0,1.46.61,1.77,1.77,0,0,0,1.43-.6,2.63,2.63,0,0,0,.5-1.72,2.66,2.66,0,0,0-.5-1.73A1.74,1.74,0,0,0,331.48,238Z" fill="#1e1e1e"/>
      <path d="M344.45,243.33h-1v-3.44a2.67,2.67,0,0,0-.31-1.45,1.18,1.18,0,0,0-1-.44,1.3,1.3,0,0,0-1,.56,2.16,2.16,0,0,0-.43,1.35v3.42h-1v-3.56c0-1.18-.46-1.77-1.37-1.77a1.27,1.27,0,0,0-1,.53,2.2,2.2,0,0,0-.41,1.38v3.42h-1v-6h1v.95h0a2,2,0,0,1,1.87-1.09,1.73,1.73,0,0,1,1.07.34,1.81,1.81,0,0,1,.63.9,2.12,2.12,0,0,1,2-1.24c1.32,0,2,.82,2,2.44Z" fill="#1e1e1e"/>
      <path d="M356.18,243.33h-1.09L354.2,241h-3.56l-.84,2.35h-1.09l3.22-8.4h1Zm-2.3-3.24-1.32-3.58a4.87,4.87,0,0,1-.13-.56h0a3.36,3.36,0,0,1-.13.56L351,240.09Z" fill="#1e1e1e"/>
      <path d="M361.48,237.61l-3.56,4.9h3.52v.82h-4.93V243l3.55-4.88h-3.21v-.82h4.63Z" fill="#1e1e1e"/>
      <path d="M362.35,243.11v-1a2.84,2.84,0,0,0,1.73.58c.85,0,1.27-.28,1.27-.84a.76.76,0,0,0-.11-.41,1,1,0,0,0-.29-.29,2.28,2.28,0,0,0-.44-.24l-.53-.21a5.16,5.16,0,0,1-.7-.32,2.55,2.55,0,0,1-.51-.36,1.52,1.52,0,0,1-.3-.46,1.59,1.59,0,0,1-.1-.61,1.38,1.38,0,0,1,.19-.74,1.7,1.7,0,0,1,.52-.55,2.71,2.71,0,0,1,.73-.33,3.59,3.59,0,0,1,2.25.16v1a2.71,2.71,0,0,0-1.53-.43,1.75,1.75,0,0,0-.48.06,1.15,1.15,0,0,0-.37.17.76.76,0,0,0-.24.27.67.67,0,0,0-.09.34.82.82,0,0,0,.09.4,1,1,0,0,0,.24.28,2.48,2.48,0,0,0,.4.22l.54.22a6.85,6.85,0,0,1,.71.31,2.82,2.82,0,0,1,.54.36,1.41,1.41,0,0,1,.34.47,1.48,1.48,0,0,1,.12.63,1.49,1.49,0,0,1-.19.77,1.61,1.61,0,0,1-.53.54,2.32,2.32,0,0,1-.75.33,3.82,3.82,0,0,1-.9.1A3.41,3.41,0,0,1,362.35,243.11Z" fill="#1e1e1e"/>
      <path d="M378.66,237.33l-1.8,6h-1L374.62,239a4.1,4.1,0,0,1-.09-.56h0a2.56,2.56,0,0,1-.13.54L373,243.33h-1l-1.82-6h1l1.24,4.51a3,3,0,0,1,.09.54h0a3.14,3.14,0,0,1,.11-.55l1.38-4.5H375l1.24,4.52a3.36,3.36,0,0,1,.09.54h.05a2.61,2.61,0,0,1,.1-.54l1.22-4.52Z" fill="#1e1e1e"/>
      <path d="M382.28,243.47a2.79,2.79,0,0,1-2.13-.84,3.1,3.1,0,0,1-.79-2.23,3.24,3.24,0,0,1,.82-2.36,3,3,0,0,1,2.24-.85,2.69,2.69,0,0,1,2.09.83,3.77,3.77,0,0,1-.06,4.59A2.85,2.85,0,0,1,382.28,243.47Zm.07-5.47a1.84,1.84,0,0,0-1.47.63,2.59,2.59,0,0,0-.54,1.74,2.41,2.41,0,0,0,.55,1.68,1.85,1.85,0,0,0,1.46.61,1.75,1.75,0,0,0,1.43-.6,2.63,2.63,0,0,0,.5-1.72,2.66,2.66,0,0,0-.5-1.73A1.73,1.73,0,0,0,382.35,238Z" fill="#1e1e1e"/>
      <path d="M389.93,238.3a1.18,1.18,0,0,0-.73-.19,1.23,1.23,0,0,0-1,.58,2.72,2.72,0,0,0-.41,1.58v3.06h-1v-6h1v1.24h0a2.17,2.17,0,0,1,.63-1,1.41,1.41,0,0,1,.94-.35,1.49,1.49,0,0,1,.58.08Z" fill="#1e1e1e"/>
      <path d="M396,243.33H394.6L392,240.45h0v2.88h-1v-8.88h1v5.63h0l2.52-2.75h1.26l-2.79,2.9Z" fill="#1e1e1e"/>
      <path d="M397.9,243.33h-1v-8.88h1Z" fill="#1e1e1e"/>
      <path d="M402.35,243.47a2.77,2.77,0,0,1-2.12-.84,3.11,3.11,0,0,1-.8-2.23,3.25,3.25,0,0,1,.83-2.36,3,3,0,0,1,2.23-.85,2.71,2.71,0,0,1,2.1.83,3.77,3.77,0,0,1-.06,4.59A2.87,2.87,0,0,1,402.35,243.47Zm.07-5.47a1.81,1.81,0,0,0-1.46.63,2.59,2.59,0,0,0-.54,1.74,2.46,2.46,0,0,0,.54,1.68,1.86,1.86,0,0,0,1.46.61,1.75,1.75,0,0,0,1.43-.6,2.58,2.58,0,0,0,.5-1.72,2.61,2.61,0,0,0-.5-1.73A1.73,1.73,0,0,0,402.42,238Z" fill="#1e1e1e"/>
      <path d="M411.17,243.33h-1v-.94h0a2,2,0,0,1-1.84,1.08,2,2,0,0,1-1.4-.47,1.65,1.65,0,0,1-.51-1.26c0-1.12.66-1.78,2-2l1.8-.25c0-1-.41-1.53-1.24-1.53a3,3,0,0,0-2,.74v-1a3.76,3.76,0,0,1,2-.56c1.41,0,2.12.75,2.12,2.24Zm-1-3-1.45.2a2.35,2.35,0,0,0-1,.33,1,1,0,0,0-.34.84.9.9,0,0,0,.32.71,1.18,1.18,0,0,0,.83.28,1.51,1.51,0,0,0,1.18-.5,1.78,1.78,0,0,0,.47-1.27Z" fill="#1e1e1e"/>
      <path d="M418.1,243.33h-1v-1h0a2.22,2.22,0,0,1-2.07,1.16,2.25,2.25,0,0,1-1.8-.8,3.27,3.27,0,0,1-.68-2.2,3.57,3.57,0,0,1,.75-2.38,2.48,2.48,0,0,1,2-.9,1.93,1.93,0,0,1,1.8,1h0v-3.71h1Zm-1-2.71v-.89a1.73,1.73,0,0,0-.48-1.23,1.78,1.78,0,0,0-2.6.14,2.81,2.81,0,0,0-.51,1.78,2.49,2.49,0,0,0,.49,1.64,1.57,1.57,0,0,0,1.29.6,1.65,1.65,0,0,0,1.31-.58A2.16,2.16,0,0,0,417.14,240.62Z" fill="#1e1e1e"/>
    </g>
  </g>
</svg>
