<svg xmlns="http://www.w3.org/2000/svg" xmlns:xlink="http://www.w3.org/1999/xlink" viewBox="0 0 510.45 244.25">
  <defs>
    <linearGradient id="linear-gradient" x1="16.6" y1="646.95" x2="16.6" y2="619.44" gradientTransform="matrix(1, 0, 0, -1, 0, 644)" gradientUnits="userSpaceOnUse">
      <stop offset="0.18" stop-color="#5ea0ef"/>
      <stop offset="1" stop-color="#0078d4"/>
    </linearGradient>
    <linearGradient id="linear-gradient-2" x1="20.44" y1="528" x2="20.44" y2="498.16" gradientTransform="matrix(1, 0, 0, -1, 0, 644)" gradientUnits="userSpaceOnUse">
      <stop offset="0" stop-color="#5ea0ef"/>
      <stop offset="0.18" stop-color="#559cec"/>
      <stop offset="0.47" stop-color="#3c91e5"/>
      <stop offset="0.84" stop-color="#1380da"/>
      <stop offset="1" stop-color="#0078d4"/>
    </linearGradient>
    <linearGradient id="linear-gradient-3" x1="15.45" y1="497.84" x2="15.45" y2="512.3" gradientTransform="matrix(1, 0, 0, -1, 0, 644)" gradientUnits="userSpaceOnUse">
      <stop offset="0" stop-color="#198ab3"/>
      <stop offset="0.14" stop-color="#22a5cb"/>
      <stop offset="0.3" stop-color="#29bade"/>
      <stop offset="0.47" stop-color="#2ec9eb"/>
      <stop offset="0.68" stop-color="#31d1f3"/>
      <stop offset="1" stop-color="#32d4f5"/>
    </linearGradient>
    <linearGradient id="linear-gradient-4" x1="299.77" y1="572.35" x2="299.77" y2="594" gradientTransform="matrix(1, 0, 0, -1, 0, 644)" gradientUnits="userSpaceOnUse">
      <stop offset="0" stop-color="#0078d4"/>
      <stop offset="0.82" stop-color="#5ea0ef"/>
    </linearGradient>
    <linearGradient id="linear-gradient-5" x1="299.78" y1="564" x2="299.78" y2="572.35" gradientTransform="matrix(1, 0, 0, -1, 0, 644)" gradientUnits="userSpaceOnUse">
      <stop offset="0.15" stop-color="#ccc"/>
      <stop offset="1" stop-color="#707070"/>
    </linearGradient>
    <linearGradient id="linear-gradient-6" x1="284.87" y1="577.9" x2="284.87" y2="560.94" gradientTransform="matrix(1, 0, 0, -1, 0, 644)" gradientUnits="userSpaceOnUse">
      <stop offset="0.22" stop-color="#32d4f5"/>
      <stop offset="0.47" stop-color="#31d1f3"/>
      <stop offset="0.63" stop-color="#2ec9eb"/>
      <stop offset="0.77" stop-color="#29bade"/>
      <stop offset="0.89" stop-color="#22a5cb"/>
      <stop offset="1" stop-color="#198ab3"/>
    </linearGradient>
    <linearGradient id="linear-gradient-7" x1="284.39" y1="587" x2="285.62" y2="571.6" xlink:href="#linear-gradient-6"/>
    <linearGradient id="linear-gradient-8" x1="460.45" y1="593.95" x2="460.45" y2="564.07" gradientTransform="matrix(1, 0, 0, -1, 0, 644)" gradientUnits="userSpaceOnUse">
      <stop offset="0" stop-color="#198ab3"/>
      <stop offset="0.29" stop-color="#1786b1"/>
      <stop offset="0.59" stop-color="#1079ad"/>
      <stop offset="0.89" stop-color="#0565a5"/>
      <stop offset="1" stop-color="#005ba1"/>
    </linearGradient>
    <linearGradient id="linear-gradient-9" x1="460.42" y1="593.77" x2="460.42" y2="564.12" gradientTransform="matrix(1, 0, 0, -1, 0, 644)" gradientUnits="userSpaceOnUse">
      <stop offset="0" stop-color="#32d4f5"/>
      <stop offset="0.23" stop-color="#31d0f1"/>
      <stop offset="0.46" stop-color="#2cc3e6"/>
      <stop offset="0.7" stop-color="#25afd4"/>
      <stop offset="0.94" stop-color="#1c92ba"/>
      <stop offset="1" stop-color="#198ab3"/>
    </linearGradient>
    <linearGradient id="linear-gradient-10" x1="250.76" y1="458.6" x2="250.76" y2="480.36" gradientTransform="matrix(1, 0, 0, -1, 0, 644)" gradientUnits="userSpaceOnUse">
      <stop offset="0" stop-color="#5e9624"/>
      <stop offset="0.26" stop-color="#70a828"/>
      <stop offset="0.79" stop-color="#9fd732"/>
      <stop offset="1" stop-color="#b4ec36"/>
    </linearGradient>
    <linearGradient id="linear-gradient-11" x1="250.82" y1="474.02" x2="250.82" y2="493.84" xlink:href="#linear-gradient-10"/>
    <linearGradient id="linear-gradient-12" x1="246.49" y1="419.41" x2="250.92" y2="414.95" gradientTransform="matrix(1, 0, 0, -1, 3.03, 643.58)" gradientUnits="userSpaceOnUse">
      <stop offset="0" stop-color="#86d633"/>
      <stop offset="0.24" stop-color="#83d232"/>
      <stop offset="0.5" stop-color="#7cc52f"/>
      <stop offset="0.76" stop-color="#6fb02a"/>
      <stop offset="1" stop-color="#5e9624"/>
    </linearGradient>
    <radialGradient id="radial-gradient" cx="86.68" cy="31.5" r="9" gradientUnits="userSpaceOnUse">
      <stop offset="0.45" stop-color="#0078d4"/>
      <stop offset="0.81" stop-color="#0063af"/>
      <stop offset="1" stop-color="#005ba1"/>
    </radialGradient>
    <radialGradient id="radial-gradient-2" cx="221.68" cy="169.39" xlink:href="#radial-gradient"/>
    <radialGradient id="radial-gradient-3" cx="86.68" cy="145.5" xlink:href="#radial-gradient"/>
    <radialGradient id="radial-gradient-4" cx="223.68" cy="218.39" xlink:href="#radial-gradient"/>
  </defs>
  <g id="Shapes">
    <rect width="510.45" height="244.25" fill="#fff"/>
    <g>
      <rect x="17.52" y="15.2" width="220.16" height="84.8" fill="#fff"/>
      <rect x="17.52" y="15.2" width="220.16" height="84.8" fill="#0072c6" opacity="0.25"/>
    </g>
    <g>
      <rect x="252.68" y="15.2" width="155" height="84.8" fill="#fff"/>
      <rect x="252.68" y="15.2" width="155" height="84.8" fill="#3c3c41" opacity="0.15"/>
    </g>
    <rect x="32.68" y="30" width="55" height="55" fill="#fff" stroke="#0078d4" stroke-miterlimit="10" stroke-width="0.5"/>
    <g>
      <rect x="16.58" y="130" width="391.11" height="114" fill="#fff"/>
      <rect x="16.58" y="130" width="391.11" height="114" fill="#0072c6" opacity="0.05"/>
      <rect x="16.58" y="130" width="391.11" height="114" fill="none" stroke="#0072c6" stroke-miterlimit="10" stroke-width="0.5" opacity="0.6"/>
    </g>
    <path d="M30.37,13.93A6.28,6.28,0,0,0,25,7.85a7.9,7.9,0,0,0-8-7.65A8.09,8.09,0,0,0,9.3,5.56a7.42,7.42,0,0,0-6.46,7.26A7.64,7.64,0,0,0,10.6,20.2H24.19A6.35,6.35,0,0,0,30.37,13.93Z" fill="url(#linear-gradient)"/>
    <g id="b1186d34-5ca3-4e43-992d-40ecef5e891b">
      <g>
        <path d="M28.21,116H12.69a1,1,0,0,0-1,1v22.12a19,19,0,0,1,2.51-1.78h2.94l1.63,2.17v3.27l-2.05,1.49-2.85-.35-2.18-2.06v3a1,1,0,0,0,1,1H28.21a1,1,0,0,0,1-1V117A1,1,0,0,0,28.21,116Z" fill="url(#linear-gradient-2)"/>
        <path id="af47f827-8b1b-4acd-8974-8eafe35490c9" d="M14,119.1h2.85a.25.25,0,0,1,.25.25h0V123a.25.25,0,0,1-.25.25H14a.25.25,0,0,1-.25-.25h0v-3.68a.25.25,0,0,1,.25-.25Zm5,0h2.86a.25.25,0,0,1,.24.25h0V123a.25.25,0,0,1-.24.25H19a.25.25,0,0,1-.25-.25h0v-3.68a.25.25,0,0,1,.25-.25Zm5,0H26.9a.25.25,0,0,1,.25.25h0V123a.25.25,0,0,1-.25.25H24a.25.25,0,0,1-.24-.25h0v-3.68a.25.25,0,0,1,.24-.25Zm-10,6.66h2.85a.25.25,0,0,1,.25.25h0v3.72a.25.25,0,0,1-.25.25H14a.25.25,0,0,1-.25-.25h0v-3.68a.24.24,0,0,1,.21-.28Zm5,0h2.86a.25.25,0,0,1,.24.25h0v3.72a.25.25,0,0,1-.24.25H19a.25.25,0,0,1-.25-.25h0v-3.68a.25.25,0,0,1,.21-.28Zm5,0H26.9a.25.25,0,0,1,.25.25h0v3.72a.25.25,0,0,1-.25.25H24a.25.25,0,0,1-.24-.25h0v-3.68a.24.24,0,0,1,.21-.28ZM14,132.5h2.85a.25.25,0,0,1,.25.24h0v3.65a.25.25,0,0,1-.25.25H14a.25.25,0,0,1-.25-.25v-3.65A.25.25,0,0,1,14,132.5Zm5,0h2.86a.24.24,0,0,1,.24.24h0v3.65a.25.25,0,0,1-.24.25H19a.25.25,0,0,1-.25-.25h0v-3.65A.25.25,0,0,1,19,132.5Zm0,6.69h2.86a.25.25,0,0,1,.24.25h0v5.46a.25.25,0,0,1-.24.25H19a.25.25,0,0,1-.25-.25v-5.46a.26.26,0,0,1,.25-.25Zm5-6.69H26.9a.25.25,0,0,1,.25.24h0v3.65a.25.25,0,0,1-.25.25H24a.25.25,0,0,1-.24-.25h0v-3.65A.24.24,0,0,1,24,132.5Z" fill="#f2f2f2"/>
        <path d="M15.49,138.17a2.31,2.31,0,0,0-2.2,1.77h-8a5,5,0,0,0-.15,1.15v.11h8.12a2.28,2.28,0,1,0,2.2-3Z" fill="#50e6ff"/>
        <path d="M21.69,137.21a5.78,5.78,0,0,0-6-5.51A5.93,5.93,0,0,0,10,135.56a5.65,5.65,0,0,0-4.5,3.55h7.34a3,3,0,1,1-.05,2.6H5.3A5.67,5.67,0,0,0,10.93,146H21a4.65,4.65,0,0,0,4.6-4.29A4.6,4.6,0,0,0,21.69,137.21Z" fill="url(#linear-gradient-3)"/>
        <path d="M15.49,138.17a2.31,2.31,0,0,0-2.2,1.77h-8a4,4,0,0,1-.84-.11,4,4,0,0,1,.45-7.94h.39l.12-.35a4.54,4.54,0,0,1,4.36-3,4.69,4.69,0,0,1,4,2.25,5.38,5.38,0,0,1,1.33-.16,5.89,5.89,0,0,0-5.32-3.35,5.8,5.8,0,0,0-5.47,3.46A5.21,5.21,0,0,0,4,140.91H4a3.54,3.54,0,0,0,1.29.22h8a2.29,2.29,0,1,0,2.2-3Z" fill="#50e6ff"/>
      </g>
    </g>
    <g>
      <g>
        <path d="M44.29,68.87a.3.3,0,0,0,.15.26l2.17,1.22,3.66,2.11a.33.33,0,0,0,.43-.11l1.24-2.1a.3.3,0,0,0-.12-.39l-4.3-2.43a.35.35,0,0,1-.15-.26V47.87a.3.3,0,0,1,.15-.26l4.3-2.43a.31.31,0,0,0,.12-.4L50.7,42.69a.31.31,0,0,0-.42-.15h0l-3.59,2.08-2.24,1.25a.3.3,0,0,0-.15.26Z" fill="#949494"/>
        <path d="M47.36,47.72l.11-.11,4.3-2.43a.28.28,0,0,0,.14-.35l0,0-1.23-2.09a.29.29,0,0,0-.36-.18l0,0-3.61,2.08L44.4,45.87a.12.12,0,0,0-.11.11l1.68,1Z" fill="#a3a3a3"/>
        <path d="M51.77,69.82l-4.3-2.43a.37.37,0,0,1-.13-.17l-3,1.87h.09l2.15,1.22,3.74,2.07a.28.28,0,0,0,.39-.07.08.08,0,0,0,0,0l1.24-2.09a.28.28,0,0,0-.14-.35Z" fill="#a3a3a3"/>
      </g>
      <path d="M76.08,68.87a.3.3,0,0,1-.15.26l-2.17,1.22-3.67,2.11a.33.33,0,0,1-.43-.11l-1.23-2.1a.3.3,0,0,1,.11-.39l4.3-2.43a.32.32,0,0,0,.15-.26V47.87a.28.28,0,0,0-.15-.26l-4.3-2.43a.31.31,0,0,1-.11-.4l1.23-2.09a.32.32,0,0,1,.43-.15h0l3.59,2,2.25,1.25a.32.32,0,0,1,.15.26Z" fill="#949494"/>
      <path d="M73,47.72l-.11-.11-4.3-2.43a.26.26,0,0,1-.14-.35l0,0,1.24-2.09a.29.29,0,0,1,.35-.18l.06,0,3.61,2L76,45.83l.12.11-1.69,1Z" fill="#a3a3a3"/>
      <path d="M68.6,69.82l4.3-2.43a.37.37,0,0,0,.13-.17l3,1.87h0l-2.15,1.22-3.74,2.07a.28.28,0,0,1-.39-.07.08.08,0,0,1,0,0l-1.24-2.09A.27.27,0,0,1,68.6,69.82Z" fill="#a3a3a3"/>
      <polygon points="70.11 51.76 70.11 63.24 60.16 69.02 60.16 57.52 70.11 51.76" fill="#32bedd"/>
      <polygon points="70.11 51.76 60.18 57.54 50.23 51.76 60.18 45.98 70.11 51.76" fill="#9cebff"/>
      <polygon points="60.16 57.54 60.16 69.02 50.23 63.24 50.23 51.76 60.16 57.54" fill="#50e6ff"/>
      <polygon points="50.23 63.24 60.16 57.52 60.16 69.02 50.23 63.24" fill="#9cebff"/>
      <polygon points="70.11 63.24 60.16 57.52 60.16 69.02 70.11 63.24" fill="#50e6ff"/>
    </g>
    <rect x="32.68" y="144" width="55" height="55" fill="#fff" stroke="#0078d4" stroke-miterlimit="10" stroke-width="0.5"/>
    <g>
      <g>
        <path d="M44.29,182.87a.3.3,0,0,0,.15.26l2.17,1.22,3.66,2.11a.33.33,0,0,0,.43-.11l1.24-2.1a.3.3,0,0,0-.12-.39l-4.3-2.43a.35.35,0,0,1-.15-.26v-19.3a.3.3,0,0,1,.15-.26l4.3-2.43a.31.31,0,0,0,.12-.4l-1.24-2.09a.31.31,0,0,0-.42-.15h0l-3.59,2.08-2.24,1.25a.3.3,0,0,0-.15.26Z" fill="#949494"/>
        <path d="M47.36,161.72l.11-.11,4.3-2.43a.28.28,0,0,0,.14-.35l0-.05-1.23-2.09a.29.29,0,0,0-.36-.18l0,0-3.61,2.08-2.23,1.25a.12.12,0,0,0-.11.11l1.68,1Z" fill="#a3a3a3"/>
        <path d="M51.77,183.82l-4.3-2.43a.37.37,0,0,1-.13-.17l-3,1.87h.09l2.15,1.22,3.74,2.07a.28.28,0,0,0,.39-.07l0,0,1.24-2.09a.28.28,0,0,0-.14-.35Z" fill="#a3a3a3"/>
      </g>
      <path d="M76.08,182.87a.3.3,0,0,1-.15.26l-2.17,1.22-3.67,2.11a.33.33,0,0,1-.43-.11l-1.23-2.1a.3.3,0,0,1,.11-.39l4.3-2.43a.32.32,0,0,0,.15-.26v-19.3a.28.28,0,0,0-.15-.26l-4.3-2.43a.31.31,0,0,1-.11-.4l1.23-2.09a.32.32,0,0,1,.43-.15h0l3.59,2,2.25,1.25a.32.32,0,0,1,.15.26Z" fill="#949494"/>
      <path d="M73,161.72l-.11-.11-4.3-2.43a.26.26,0,0,1-.14-.35.17.17,0,0,1,0-.05l1.24-2.09a.29.29,0,0,1,.35-.18l.06,0,3.61,2L76,159.83l.12.11-1.69,1Z" fill="#a3a3a3"/>
      <path d="M68.6,183.82l4.3-2.43a.37.37,0,0,0,.13-.17l3,1.87h0l-2.15,1.22-3.74,2.07a.28.28,0,0,1-.39-.07.08.08,0,0,1,0,0l-1.24-2.09A.27.27,0,0,1,68.6,183.82Z" fill="#a3a3a3"/>
      <polygon points="70.11 165.76 70.11 177.24 60.16 183.02 60.16 171.52 70.11 165.76" fill="#32bedd"/>
      <polygon points="70.11 165.76 60.18 171.54 50.23 165.76 60.18 159.98 70.11 165.76" fill="#9cebff"/>
      <polygon points="60.16 171.54 60.16 183.02 50.23 177.24 50.23 165.76 60.16 171.54" fill="#50e6ff"/>
      <polygon points="50.23 177.24 60.16 171.52 60.16 183.02 50.23 177.24" fill="#9cebff"/>
      <polygon points="70.11 177.24 60.16 171.52 60.16 183.02 70.11 177.24" fill="#50e6ff"/>
    </g>
    <path d="M357.56,48.91a2.89,2.89,0,0,0-1.89.56,3,3,0,0,0-.95,1.74l-5.07,23.18h0a3,3,0,0,0,.42,2.42,2.8,2.8,0,0,0,2.29,1.09h26.2a2.81,2.81,0,0,0,1.91-.72,3.16,3.16,0,0,0,.82-1.64h0q2.55-11.64,5.09-23.3a2.84,2.84,0,0,0-.45-2.4,2.8,2.8,0,0,0-2.23-.94Zm0,2.64h26.26a.43.43,0,0,1,0,.13q-2.54,11.66-5.09,23.3h0c-.06.25-.11.3-.09.29H352.36c-.25,0-.18,0-.16,0s0,0,0-.32h0q2.53-11.59,5.08-23.19a.59.59,0,0,1,.06-.21Zm4.57,1.29a2,2,0,0,0-2,1.92,2,2,0,0,0,.55,1.43L367,63,357,70.38a2,2,0,0,0,2.23,3.27l.11-.08,11.86-8.69a2,2,0,0,0,.43-2.76,1.46,1.46,0,0,0-.16-.19l-7.91-8.44A2,2,0,0,0,362.13,52.84ZM367.35,70a2,2,0,0,0-.05,4h5.33a2,2,0,1,0,.05-4h-5.33Z"/>
    <g>
      <g>
        <rect x="283.54" y="50" width="32.46" height="21.65" rx="1.09" fill="url(#linear-gradient-4)"/>
        <path d="M306.29,78.2c-3.22-.51-3.33-2.83-3.33-6.55H296.6c0,3.72-.12,6-3.33,6.55a1.94,1.94,0,0,0-1.61,1.8H307.9A1.94,1.94,0,0,0,306.29,78.2Z" fill="url(#linear-gradient-5)"/>
      </g>
      <g>
        <path d="M293.27,80a1.82,1.82,0,0,0,1.82-1.81h0a.81.81,0,0,0,0-.22c-.73-5.71-4-10.36-10.22-10.36S275.3,71.55,274.66,78a1.83,1.83,0,0,0,1.62,2h17Z" fill="url(#linear-gradient-6)"/>
        <path d="M284.87,69a5.78,5.78,0,0,1-3.1-.91l3.1,8,3.05-8A5.65,5.65,0,0,1,284.87,69Z" fill="#fff" opacity="0.8" style="isolation: isolate"/>
        <circle cx="284.89" cy="63.22" r="5.72" fill="url(#linear-gradient-7)"/>
      </g>
    </g>
    <line x1="237.68" y1="65" x2="267.68" y2="65" fill="none" stroke="#231f20" stroke-miterlimit="10"/>
    <line x1="295.32" y1="105" x2="295.32" y2="130" fill="none" stroke="#231f20" stroke-miterlimit="10"/>
    <line x1="407.68" y1="65" x2="442.68" y2="65" fill="none" stroke="#231f20" stroke-miterlimit="10"/>
    <rect x="267.82" y="10" width="55" height="95" fill="none" stroke="#e62323" stroke-miterlimit="10"/>
    <g>
      <path id="b5a41e5e-621e-4e56-aaec-3e36f2ddfa5b" d="M470.47,56l.15.13a.25.25,0,0,0,.36,0L472.36,55l2.5-4.13a.27.27,0,0,0,0-.32l-.43-.45a.27.27,0,0,0-.32,0l-3.94,2.67-1.12,1.44a.27.27,0,0,0,0,.34l.15.15-8.14,8.47-1.68-1.86-1.87,1.86a3.36,3.36,0,0,1-.8,2.82,2.91,2.91,0,0,1-2.56.94l-8,8.12a.5.5,0,0,0,0,.71v0l3.89,4a.5.5,0,0,0,.71,0l0,0,7.81-8.14a3.21,3.21,0,0,1,.93-2.69,3,3,0,0,1,2.56-.93l1.87-1.87-1.63-1.81Z" fill="url(#linear-gradient-8)"/>
      <path d="M473.7,74.46l-1.86-2L459.36,59.67h0l-.61-.67a7,7,0,0,0-1.63-6.8,6.42,6.42,0,0,0-5.77-1.87.28.28,0,0,0-.2.34.37.37,0,0,0,.05.11l3.25,3.31a.3.3,0,0,1,0,.26l-.78,3.38a.3.3,0,0,1-.19.19l-3.32.91a.24.24,0,0,1-.26,0l-3.16-3.34a.26.26,0,0,0-.37,0,.25.25,0,0,0-.08.18,6.76,6.76,0,0,0,1.87,5.93,6.26,6.26,0,0,0,6.29,1.68l.11.14.71.72h0l14.21,14.94a3,3,0,0,0,4.15.15l.15-.15a3.17,3.17,0,0,0,.88-2.24A3.49,3.49,0,0,0,473.7,74.46Z" fill="url(#linear-gradient-9)"/>
    </g>
    <g>
      <path d="M261.5,183.46a2.29,2.29,0,0,0,2.33-2.26v0a1.41,1.41,0,0,0,0-.29c-.92-7.32-5.08-13.28-13.06-13.28s-12.21,5-13.08,13.3a2.38,2.38,0,0,0,2.1,2.58Z" fill="url(#linear-gradient-10)"/>
      <path d="M250.91,169.31a7.35,7.35,0,0,1-4-1.17l3.85,10.29,3.92-10.22A7.42,7.42,0,0,1,250.91,169.31Z" fill="#fff"/>
      <circle cx="250.82" cy="161.96" r="7.36" fill="url(#linear-gradient-11)"/>
      <polygon points="267.66 173.36 267.66 180.85 261.24 184.61 261.24 177.12 267.66 173.36" fill="#32bedd"/>
      <polygon points="267.66 173.36 261.24 177.12 254.81 173.36 261.24 169.61 267.66 173.36" fill="#9cebff"/>
      <polygon points="261.24 177.12 261.24 184.61 254.81 180.85 254.81 173.36 261.24 177.12" fill="#50e6ff"/>
      <polygon points="254.81 180.85 261.24 177.12 261.24 184.61 254.81 180.85" fill="#9cebff"/>
      <polygon points="267.66 180.85 261.24 177.12 261.24 184.61 267.66 180.85" fill="#50e6ff"/>
    </g>
    <g>
      <circle cx="251.16" cy="226.05" r="3.15" fill="url(#linear-gradient-12)"/>
      <circle cx="251.16" cy="205.97" r="2.37" fill="url(#linear-gradient-12)"/>
      <path d="M246.35,232.55l-.93.93a.41.41,0,0,1-.59,0h0l-6.89-6.86a.84.84,0,0,1,0-1.19h0l.93-.94h0l7.48,7.46a.42.42,0,0,1,0,.6Z" fill="#50e6ff"/>
      <path d="M245.28,218.64l.93.93a.41.41,0,0,1,0,.59l-7.35,7.37h0l-.93-.93a.84.84,0,0,1,0-1.19h0l6.76-6.77A.41.41,0,0,1,245.28,218.64Z" fill="#1490df"/>
      <path d="M263.31,224.48l.93.93a.85.85,0,0,1,0,1.19h0l-6.89,6.87a.42.42,0,0,1-.59,0h0l-.94-.93a.43.43,0,0,1,0-.6h0l7.48-7.46Z" fill="#50e6ff"/>
      <path d="M264.23,226.59l-.93.93h0L256,220.15a.42.42,0,0,1,0-.59h0l.94-.94a.42.42,0,0,1,.6,0h0l6.76,6.77a.85.85,0,0,1,0,1.19h0Z" fill="#1490df"/>
      <rect x="250.33" y="209.7" width="1.58" height="11.83" fill="#949494"/>
    </g>
  </g>
  <g id="Text">
    <g>
      <path d="M42.93,10.2H40.86l-.59-1.87h-3l-.59,1.87h-2l3-8.4h2.25Zm-3.1-3.32-.9-2.83a3.59,3.59,0,0,1-.14-.75h0A3.76,3.76,0,0,1,38.6,4l-.92,2.85Z" fill="#231f20"/>
      <path d="M48.55,10.2H43.16V9.43l3-3.86H43.46V4.2h5.06v.92L45.67,8.84h2.88Z" fill="#231f20"/>
      <path d="M55.24,10.2H53.4V9.29h0a2.12,2.12,0,0,1-1.84,1.06c-1.39,0-2.08-.84-2.08-2.53V4.2h1.84V7.66c0,.85.34,1.27,1,1.27a1,1,0,0,0,.8-.35,1.41,1.41,0,0,0,.3-1V4.2h1.84Z" fill="#231f20"/>
      <path d="M60.72,5.87a1.66,1.66,0,0,0-.78-.18,1.14,1.14,0,0,0-.95.44,2,2,0,0,0-.34,1.21V10.2H56.8v-6h1.85V5.31h0A1.59,1.59,0,0,1,60.26,4.1a1.17,1.17,0,0,1,.46.07Z" fill="#231f20"/>
      <path d="M66.92,7.73H63c.06.87.61,1.31,1.64,1.31a3.24,3.24,0,0,0,1.74-.47V9.9a4.5,4.5,0,0,1-2.16.45A3,3,0,0,1,62,9.54a3.06,3.06,0,0,1-.8-2.25A3.19,3.19,0,0,1,62,4.93a2.91,2.91,0,0,1,2.13-.88,2.62,2.62,0,0,1,2,.78A3,3,0,0,1,66.92,7ZM65.2,6.59c0-.86-.34-1.29-1-1.29a1,1,0,0,0-.77.37,1.68,1.68,0,0,0-.4.92Z" fill="#231f20"/>
    </g>
    <g>
      <path d="M42.93,123.88H40.86L40.27,122h-3l-.59,1.87h-2l3-8.4h2.25Zm-3.1-3.32-.9-2.82a3.69,3.69,0,0,1-.14-.76h0a3.62,3.62,0,0,1-.14.73l-.92,2.85Z" fill="#231f20"/>
      <path d="M48.55,123.88H43.16v-.76l3-3.87H43.46v-1.37h5.06v.92l-2.85,3.72h2.88Z" fill="#231f20"/>
      <path d="M55.24,123.88H53.4V123h0A2.09,2.09,0,0,1,51.53,124c-1.39,0-2.08-.84-2.08-2.53v-3.62h1.84v3.46c0,.85.34,1.27,1,1.27a1,1,0,0,0,.8-.35,1.4,1.4,0,0,0,.3-.94v-3.44h1.84Z" fill="#231f20"/>
      <path d="M60.72,119.55a1.66,1.66,0,0,0-.78-.18,1.14,1.14,0,0,0-.95.44,2,2,0,0,0-.34,1.21v2.86H56.8v-6h1.85V119h0a1.59,1.59,0,0,1,1.58-1.22,1.17,1.17,0,0,1,.46.07Z" fill="#231f20"/>
      <path d="M66.92,121.41H63c.06.87.61,1.31,1.64,1.31a3.24,3.24,0,0,0,1.74-.47v1.33a4.5,4.5,0,0,1-2.16.45,2.79,2.79,0,0,1-3.06-3,3.2,3.2,0,0,1,.87-2.37,2.9,2.9,0,0,1,2.13-.87,2.62,2.62,0,0,1,2,.78,3,3,0,0,1,.72,2.11Zm-1.72-1.14c0-.86-.34-1.29-1-1.29a1,1,0,0,0-.77.37,1.72,1.72,0,0,0-.4.92Z" fill="#231f20"/>
      <path d="M71.13,123.56v-1.87a4,4,0,0,0,1.1.64,3.67,3.67,0,0,0,1.21.21,2.93,2.93,0,0,0,.63-.06,2,2,0,0,0,.44-.18.87.87,0,0,0,.27-.27.69.69,0,0,0,.09-.34.71.71,0,0,0-.15-.44,1.47,1.47,0,0,0-.38-.36,4.35,4.35,0,0,0-.58-.31c-.22-.1-.46-.21-.72-.31a3.79,3.79,0,0,1-1.46-1,2.18,2.18,0,0,1-.49-1.43,2.22,2.22,0,0,1,.27-1.13,2.13,2.13,0,0,1,.71-.78,3.5,3.5,0,0,1,1.06-.45,5.66,5.66,0,0,1,1.26-.14,7.82,7.82,0,0,1,1.16.08,4.46,4.46,0,0,1,.94.24v1.75a3.37,3.37,0,0,0-.46-.25,3.52,3.52,0,0,0-.51-.19,5,5,0,0,0-.53-.11l-.49,0a2.68,2.68,0,0,0-.59.06,1.5,1.5,0,0,0-.44.17,1,1,0,0,0-.29.27.68.68,0,0,0-.1.35.66.66,0,0,0,.12.38,1.3,1.3,0,0,0,.31.31,3.66,3.66,0,0,0,.5.3l.66.29a7,7,0,0,1,.91.45,3.44,3.44,0,0,1,.69.54,2.1,2.1,0,0,1,.44.68,2.4,2.4,0,0,1,.15.89,2.37,2.37,0,0,1-.27,1.18,2.25,2.25,0,0,1-.72.78,3.42,3.42,0,0,1-1.07.42,5.85,5.85,0,0,1-1.28.13,6.86,6.86,0,0,1-1.31-.12A3.81,3.81,0,0,1,71.13,123.56Z" fill="#231f20"/>
      <path d="M81.39,123.81a2.7,2.7,0,0,1-1.24.22,1.77,1.77,0,0,1-2-2v-2.75h-1v-1.37h1v-1.29l1.85-.53v1.82h1.35v1.37H80v2.42c0,.63.25.94.74.94a1.31,1.31,0,0,0,.61-.17Z" fill="#231f20"/>
      <path d="M87.42,123.88H85.67V123h0a2,2,0,0,1-1.79,1,1.86,1.86,0,0,1-1.37-.5,1.76,1.76,0,0,1-.51-1.32q0-1.74,2.07-2l1.63-.22c0-.66-.35-1-1.06-1a3.65,3.65,0,0,0-2,.63v-1.39a4.57,4.57,0,0,1,1-.35,5.71,5.71,0,0,1,1.23-.15,2.26,2.26,0,0,1,2.56,2.56Zm-1.74-2.43V121l-1.09.14c-.6.08-.9.35-.9.82a.64.64,0,0,0,.22.51.82.82,0,0,0,.59.21,1.08,1.08,0,0,0,.85-.36A1.31,1.31,0,0,0,85.68,121.45Z" fill="#231f20"/>
      <path d="M93.43,123.67a3.66,3.66,0,0,1-1.81.36,3,3,0,0,1-2.23-.84,2.86,2.86,0,0,1-.86-2.16,3.19,3.19,0,0,1,.92-2.41,3.38,3.38,0,0,1,2.45-.88,3.07,3.07,0,0,1,1.53.28v1.57a2.08,2.08,0,0,0-1.29-.44,1.71,1.71,0,0,0-1.26.47,1.75,1.75,0,0,0-.47,1.29,1.71,1.71,0,0,0,.45,1.25,1.62,1.62,0,0,0,1.22.45,2.42,2.42,0,0,0,1.35-.43Z" fill="#231f20"/>
      <path d="M100.66,123.88H98.44l-1.92-3h0v3H94.65V115H96.5v5.65h0l1.79-2.77h2.2l-2.15,2.82Z" fill="#231f20"/>
      <path d="M112.12,123.88h-1.9v-3.42h-3.48v3.42h-1.89v-8.4h1.89v3.35h3.48v-3.35h1.9Z" fill="#231f20"/>
      <path d="M119.56,123.88h-1.84V123h0a2.09,2.09,0,0,1-1.84,1.06c-1.39,0-2.08-.84-2.08-2.53v-3.62h1.84v3.46c0,.85.34,1.27,1,1.27a1,1,0,0,0,.8-.35,1.4,1.4,0,0,0,.3-.94v-3.44h1.84Z" fill="#231f20"/>
      <path d="M123,123.19h0v.69h-1.85V115H123v3.79h0a2.21,2.21,0,0,1,2-1.05,2.13,2.13,0,0,1,1.78.79,3.43,3.43,0,0,1,.63,2.18,3.71,3.71,0,0,1-.73,2.41,2.38,2.38,0,0,1-2,.91A1.9,1.9,0,0,1,123,123.19Zm0-2.54v.62a1.36,1.36,0,0,0,.34,1,1.08,1.08,0,0,0,.85.38,1.12,1.12,0,0,0,1-.49,2.29,2.29,0,0,0,.35-1.38,1.91,1.91,0,0,0-.32-1.17,1.06,1.06,0,0,0-.91-.42,1.16,1.16,0,0,0-.92.42A1.56,1.56,0,0,0,122.94,120.65Z" fill="#231f20"/>
    </g>
    <g>
      <circle cx="86.68" cy="31.5" r="9" fill="url(#radial-gradient)"/>
      <path d="M87.87,27.21V35.8H86.51V28.88a4.33,4.33,0,0,1-.79.44,5.5,5.5,0,0,1-1,.33V28.49c.23-.08.44-.15.66-.24s.41-.17.62-.27l.62-.34.65-.43Z" fill="#fff"/>
    </g>
    <g>
      <circle cx="221.68" cy="169.39" r="9" fill="url(#radial-gradient-2)"/>
      <path d="M219.07,173.39v-1.28a2.94,2.94,0,0,0,1.85.65,2.18,2.18,0,0,0,1.34-.38,1.22,1.22,0,0,0,.5-1c0-1-.72-1.43-2.18-1.43h-.65v-1.09h.62c1.29,0,1.94-.45,1.94-1.35s-.51-1.24-1.51-1.24a2.49,2.49,0,0,0-1.59.6v-1.21a4.05,4.05,0,0,1,2-.48,2.67,2.67,0,0,1,1.79.57,1.78,1.78,0,0,1,.68,1.44,2.06,2.06,0,0,1-1.69,2.13v0a2.22,2.22,0,0,1,1.44.64,1.89,1.89,0,0,1,.52,1.37,2.22,2.22,0,0,1-.85,1.82,3.43,3.43,0,0,1-2.24.7A3.83,3.83,0,0,1,219.07,173.39Z" fill="#fff"/>
    </g>
    <g>
      <path d="M100.07,50.81a5.63,5.63,0,0,1-2.82.71,3.82,3.82,0,0,1-2.91-1.16,4.24,4.24,0,0,1-1.11-3.07,4.33,4.33,0,0,1,1.24-3.2,4.2,4.2,0,0,1,3.12-1.25,5.31,5.31,0,0,1,2.31.45v1.09a4.44,4.44,0,0,0-2.42-.65,3,3,0,0,0-2.31,1,4.05,4.05,0,0,0-.07,5,3,3,0,0,0,2.28.91,3.53,3.53,0,0,0,1.7-.39V47.89H97.24V47h2.83Z" fill="#1e1e1e"/>
      <path d="M102.85,51.38h-1V42.5h1Z" fill="#1e1e1e"/>
      <path d="M107.3,51.52a2.79,2.79,0,0,1-2.12-.84,3.11,3.11,0,0,1-.8-2.23,3.26,3.26,0,0,1,.83-2.36,3,3,0,0,1,2.23-.85,2.7,2.7,0,0,1,2.1.83,3.27,3.27,0,0,1,.75,2.29,3.23,3.23,0,0,1-.81,2.3A2.83,2.83,0,0,1,107.3,51.52Zm.07-5.47a1.83,1.83,0,0,0-1.46.63,2.59,2.59,0,0,0-.54,1.74,2.46,2.46,0,0,0,.54,1.68,1.86,1.86,0,0,0,1.46.61,1.75,1.75,0,0,0,1.43-.6,2.58,2.58,0,0,0,.51-1.72,2.63,2.63,0,0,0-.51-1.73A1.73,1.73,0,0,0,107.37,46.05Z" fill="#1e1e1e"/>
      <path d="M112.81,50.52h0v.86h-1V42.5h1v3.94h0a2.26,2.26,0,0,1,2.07-1.2,2.19,2.19,0,0,1,1.81.81,3.28,3.28,0,0,1,.66,2.16,3.73,3.73,0,0,1-.74,2.41,2.44,2.44,0,0,1-2,.9A2,2,0,0,1,112.81,50.52Zm0-2.42v.83a1.81,1.81,0,0,0,.48,1.27,1.75,1.75,0,0,0,2.6-.15,3.09,3.09,0,0,0,.49-1.86,2.41,2.41,0,0,0-.46-1.57,1.54,1.54,0,0,0-1.26-.57,1.72,1.72,0,0,0-1.34.58A2.16,2.16,0,0,0,112.79,48.1Z" fill="#1e1e1e"/>
      <path d="M123.18,51.38h-1v-.93h0a2,2,0,0,1-1.84,1.07,2,2,0,0,1-1.41-.47,1.65,1.65,0,0,1-.51-1.26c0-1.12.67-1.77,2-2l1.79-.25q0-1.53-1.23-1.53a3,3,0,0,0-2,.74v-1a3.76,3.76,0,0,1,2-.56c1.41,0,2.12.75,2.12,2.24Zm-1-3-1.44.2a2.3,2.3,0,0,0-1,.33,1,1,0,0,0-.34.84.92.92,0,0,0,.31.72,1.25,1.25,0,0,0,.84.27,1.53,1.53,0,0,0,1.18-.5,1.76,1.76,0,0,0,.46-1.26Z" fill="#1e1e1e"/>
      <path d="M126,51.38h-1V42.5h1Z" fill="#1e1e1e"/>
      <path d="M100.29,64.58H99.2l-.89-2.35H94.75l-.84,2.35h-1.1L96,56.18h1ZM98,61.34l-1.32-3.58a2.44,2.44,0,0,1-.13-.56h0a2.45,2.45,0,0,1-.13.56l-1.31,3.58Z" fill="#1e1e1e"/>
      <path d="M105.58,58.86,102,63.76h3.51v.82h-4.92v-.3l3.55-4.88H101v-.82h4.63Z" fill="#1e1e1e"/>
      <path d="M111.67,64.58h-1v-.95h0a2,2,0,0,1-1.85,1.09c-1.43,0-2.15-.85-2.15-2.55V58.58h1V62c0,1.26.48,1.9,1.45,1.9a1.49,1.49,0,0,0,1.16-.52,2,2,0,0,0,.45-1.36V58.58h1Z" fill="#1e1e1e"/>
      <path d="M116.74,59.56a1.18,1.18,0,0,0-.73-.2,1.22,1.22,0,0,0-1,.58,2.67,2.67,0,0,0-.42,1.58v3.06h-1v-6h1v1.24h0a2.08,2.08,0,0,1,.62-1,1.49,1.49,0,0,1,1-.35,1.44,1.44,0,0,1,.57.08Z" fill="#1e1e1e"/>
      <path d="M122.61,61.82h-4.24a2.28,2.28,0,0,0,.54,1.55,1.87,1.87,0,0,0,1.42.55,3,3,0,0,0,1.86-.67v.9a3.5,3.5,0,0,1-2.09.57,2.56,2.56,0,0,1-2-.81,3.39,3.39,0,0,1-.73-2.3,3.29,3.29,0,0,1,.8-2.29,2.56,2.56,0,0,1,2-.88,2.27,2.27,0,0,1,1.82.76,3.2,3.2,0,0,1,.65,2.12Zm-1-.81a2,2,0,0,0-.4-1.3,1.39,1.39,0,0,0-1.1-.46,1.52,1.52,0,0,0-1.15.49,2.22,2.22,0,0,0-.59,1.27Z" fill="#1e1e1e"/>
      <path d="M133.5,64.58h-1.17l-1.41-2.35a5,5,0,0,0-.37-.56,2,2,0,0,0-.38-.38,1.07,1.07,0,0,0-.41-.21,1.49,1.49,0,0,0-.49-.07h-.81v3.57h-1v-8.4H130a3.64,3.64,0,0,1,1,.14,2.23,2.23,0,0,1,.81.42,1.88,1.88,0,0,1,.54.7,2.45,2.45,0,0,1,.19,1,2.53,2.53,0,0,1-.13.8,2.15,2.15,0,0,1-.38.66,2.51,2.51,0,0,1-.58.49,3.1,3.1,0,0,1-.77.31v0a2,2,0,0,1,.36.22,2.56,2.56,0,0,1,.3.28l.28.37c.09.14.19.3.3.49Zm-5-7.51v3h1.34a2.15,2.15,0,0,0,.68-.11,1.61,1.61,0,0,0,.54-.32,1.57,1.57,0,0,0,.36-.51,1.83,1.83,0,0,0,.13-.68,1.32,1.32,0,0,0-.44-1,1.88,1.88,0,0,0-1.26-.38Z" fill="#1e1e1e"/>
      <path d="M139,61.82h-4.24a2.19,2.19,0,0,0,.54,1.55,1.86,1.86,0,0,0,1.42.55,3,3,0,0,0,1.86-.67v.9a3.52,3.52,0,0,1-2.09.57,2.54,2.54,0,0,1-2-.81,3.39,3.39,0,0,1-.73-2.3,3.29,3.29,0,0,1,.8-2.29,2.56,2.56,0,0,1,2-.88,2.28,2.28,0,0,1,1.82.76,3.2,3.2,0,0,1,.65,2.12ZM138,61a2,2,0,0,0-.4-1.3,1.39,1.39,0,0,0-1.1-.46,1.52,1.52,0,0,0-1.15.49,2.22,2.22,0,0,0-.59,1.27Z" fill="#1e1e1e"/>
      <path d="M140.09,64.37v-1a2.8,2.8,0,0,0,1.72.59c.85,0,1.27-.29,1.27-.85a.78.78,0,0,0-.11-.41,1,1,0,0,0-.29-.29,2.27,2.27,0,0,0-.44-.23l-.53-.22a5.16,5.16,0,0,1-.7-.32,1.94,1.94,0,0,1-.51-.36,1.41,1.41,0,0,1-.3-.46,1.57,1.57,0,0,1-.1-.6,1.44,1.44,0,0,1,.19-.75,1.7,1.7,0,0,1,.52-.55,2.71,2.71,0,0,1,.73-.33,3.59,3.59,0,0,1,2.25.16v1a2.79,2.79,0,0,0-1.53-.43,1.8,1.8,0,0,0-.48.06,1,1,0,0,0-.37.18.66.66,0,0,0-.24.26.69.69,0,0,0-.09.34.78.78,0,0,0,.34.68,2,2,0,0,0,.39.22l.54.22a6.85,6.85,0,0,1,.71.31,2.82,2.82,0,0,1,.54.36,1.41,1.41,0,0,1,.34.47,1.54,1.54,0,0,1,.12.63,1.49,1.49,0,0,1-.19.77,1.74,1.74,0,0,1-.53.55,2.54,2.54,0,0,1-.75.32,3.82,3.82,0,0,1-.9.1A3.47,3.47,0,0,1,140.09,64.37Z" fill="#1e1e1e"/>
      <path d="M148.05,64.72a2.79,2.79,0,0,1-2.13-.84,3.1,3.1,0,0,1-.79-2.23,3.26,3.26,0,0,1,.83-2.36,3,3,0,0,1,2.23-.85,2.69,2.69,0,0,1,2.09.83,3.23,3.23,0,0,1,.76,2.29,3.19,3.19,0,0,1-.82,2.3A2.81,2.81,0,0,1,148.05,64.72Zm.07-5.47a1.84,1.84,0,0,0-1.47.63,2.59,2.59,0,0,0-.54,1.74,2.46,2.46,0,0,0,.55,1.68,1.85,1.85,0,0,0,1.46.62,1.76,1.76,0,0,0,1.43-.61,2.58,2.58,0,0,0,.5-1.72,2.62,2.62,0,0,0-.5-1.73A1.73,1.73,0,0,0,148.12,59.25Z" fill="#1e1e1e"/>
      <path d="M157.42,64.58h-1v-.95h0a2,2,0,0,1-1.85,1.09c-1.43,0-2.15-.85-2.15-2.55V58.58h1V62c0,1.26.48,1.9,1.45,1.9A1.49,1.49,0,0,0,156,63.4a2,2,0,0,0,.45-1.36V58.58h1Z" fill="#1e1e1e"/>
      <path d="M162.49,59.56a1.18,1.18,0,0,0-.73-.2,1.22,1.22,0,0,0-1,.58,2.67,2.67,0,0,0-.42,1.58v3.06h-1v-6h1v1.24h0a2.08,2.08,0,0,1,.62-1,1.49,1.49,0,0,1,.95-.35,1.44,1.44,0,0,1,.57.08Z" fill="#1e1e1e"/>
      <path d="M167.62,64.31a3.17,3.17,0,0,1-1.64.41,2.71,2.71,0,0,1-2.07-.83,3.06,3.06,0,0,1-.79-2.17,3.36,3.36,0,0,1,.85-2.38,3,3,0,0,1,2.27-.9,3.13,3.13,0,0,1,1.4.3v1a2.49,2.49,0,0,0-1.43-.47,1.92,1.92,0,0,0-1.51.66,2.47,2.47,0,0,0-.59,1.73,2.4,2.4,0,0,0,.55,1.67,1.94,1.94,0,0,0,1.49.61,2.39,2.39,0,0,0,1.47-.53Z" fill="#1e1e1e"/>
      <path d="M173.9,61.82h-4.24a2.28,2.28,0,0,0,.54,1.55,1.89,1.89,0,0,0,1.42.55,3,3,0,0,0,1.86-.67v.9a3.47,3.47,0,0,1-2.09.57,2.56,2.56,0,0,1-2-.81,3.39,3.39,0,0,1-.72-2.3,3.29,3.29,0,0,1,.79-2.29,2.58,2.58,0,0,1,2-.88,2.29,2.29,0,0,1,1.83.76,3.25,3.25,0,0,1,.64,2.12Zm-1-.81a2,2,0,0,0-.41-1.3,1.38,1.38,0,0,0-1.09-.46,1.54,1.54,0,0,0-1.16.49,2.15,2.15,0,0,0-.58,1.27Z" fill="#1e1e1e"/>
      <path d="M187.34,64.58h-1V59c0-.45,0-1,.08-1.64h0a5.38,5.38,0,0,1-.26.82l-2.87,6.45h-.48L180,58.17a4.31,4.31,0,0,1-.26-.86h0c0,.34.05.89.05,1.65v5.62h-.95v-8.4h1.3L182.65,62a6.32,6.32,0,0,1,.38,1h0c.17-.46.3-.81.4-1l2.63-5.84h1.24Z" fill="#1e1e1e"/>
      <path d="M193.71,64.58h-1v-.93h0a2,2,0,0,1-1.85,1.07,1.93,1.93,0,0,1-1.4-.47A1.65,1.65,0,0,1,189,63c0-1.12.66-1.77,2-2l1.8-.25c0-1-.41-1.53-1.24-1.53a3,3,0,0,0-1.95.74V59a3.76,3.76,0,0,1,2-.56c1.41,0,2.11.75,2.11,2.24Zm-1-3-1.45.2a2.35,2.35,0,0,0-1,.33,1,1,0,0,0-.34.84.93.93,0,0,0,.32.72,1.24,1.24,0,0,0,.83.28,1.52,1.52,0,0,0,1.18-.51,1.77,1.77,0,0,0,.47-1.26Z" fill="#1e1e1e"/>
      <path d="M200.5,64.58h-1V61.16c0-1.27-.46-1.91-1.39-1.91a1.54,1.54,0,0,0-1.2.54,2,2,0,0,0-.47,1.37v3.42h-1v-6h1v1h0a2.15,2.15,0,0,1,2-1.14,1.83,1.83,0,0,1,1.51.64,2.8,2.8,0,0,1,.52,1.84Z" fill="#1e1e1e"/>
      <path d="M206.61,64.58h-1v-.93h0a2,2,0,0,1-1.84,1.07,2,2,0,0,1-1.41-.47,1.68,1.68,0,0,1-.5-1.26c0-1.12.66-1.77,2-2l1.8-.25c0-1-.42-1.53-1.24-1.53a3,3,0,0,0-2,.74V59a3.76,3.76,0,0,1,2-.56c1.41,0,2.12.75,2.12,2.24Zm-1-3-1.45.2a2.3,2.3,0,0,0-1,.33,1,1,0,0,0-.34.84,1,1,0,0,0,.31.72,1.25,1.25,0,0,0,.84.28,1.52,1.52,0,0,0,1.18-.51,1.77,1.77,0,0,0,.47-1.26Z" fill="#1e1e1e"/>
      <path d="M213.54,64.1q0,3.32-3.17,3.31a4.23,4.23,0,0,1-1.94-.42V66a3.94,3.94,0,0,0,1.93.57c1.48,0,2.22-.79,2.22-2.36v-.65h0a2.43,2.43,0,0,1-3.86.34,3.16,3.16,0,0,1-.68-2.14,3.77,3.77,0,0,1,.73-2.44,2.46,2.46,0,0,1,2-.9,2,2,0,0,1,1.79,1h0v-.84h1Zm-1-2.23V61a1.7,1.7,0,0,0-.49-1.23,1.58,1.58,0,0,0-1.2-.51,1.66,1.66,0,0,0-1.39.65,2.85,2.85,0,0,0-.51,1.81,2.48,2.48,0,0,0,.48,1.6,1.59,1.59,0,0,0,1.29.61,1.69,1.69,0,0,0,1.31-.58A2.12,2.12,0,0,0,212.58,61.87Z" fill="#1e1e1e"/>
      <path d="M220.31,61.82h-4.24a2.23,2.23,0,0,0,.54,1.55,1.87,1.87,0,0,0,1.42.55,3,3,0,0,0,1.86-.67v.9a3.5,3.5,0,0,1-2.09.57,2.54,2.54,0,0,1-2-.81,3.39,3.39,0,0,1-.73-2.3,3.29,3.29,0,0,1,.8-2.29,2.56,2.56,0,0,1,2-.88,2.28,2.28,0,0,1,1.82.76,3.2,3.2,0,0,1,.65,2.12Zm-1-.81a2,2,0,0,0-.4-1.3,1.39,1.39,0,0,0-1.1-.46,1.52,1.52,0,0,0-1.15.49,2.22,2.22,0,0,0-.59,1.27Z" fill="#1e1e1e"/>
      <path d="M224.89,59.56a1.18,1.18,0,0,0-.73-.2,1.25,1.25,0,0,0-1,.58,2.74,2.74,0,0,0-.41,1.58v3.06h-1v-6h1v1.24h0a2.17,2.17,0,0,1,.63-1,1.46,1.46,0,0,1,.94-.35,1.49,1.49,0,0,1,.58.08Z" fill="#1e1e1e"/>
    </g>
    <g>
      <path d="M424.55,28.88h-1.09l-.89-2.35H419l-.84,2.35h-1.1l3.23-8.4h1Zm-2.3-3.24-1.32-3.58a3.14,3.14,0,0,1-.13-.56h0a3,3,0,0,1-.14.56l-1.3,3.58Z" fill="#1e1e1e"/>
      <path d="M429.84,23.16l-3.55,4.9h3.52v.82h-4.93v-.3l3.55-4.88h-3.22v-.82h4.63Z" fill="#1e1e1e"/>
      <path d="M435.93,28.88h-1v-.95h0A2,2,0,0,1,433.1,29c-1.43,0-2.15-.85-2.15-2.55V22.88h1v3.44c0,1.26.48,1.89,1.45,1.89a1.48,1.48,0,0,0,1.16-.51,2,2,0,0,0,.45-1.36V22.88h1Z" fill="#1e1e1e"/>
      <path d="M441,23.86a1.14,1.14,0,0,0-.72-.2,1.24,1.24,0,0,0-1,.58,2.67,2.67,0,0,0-.41,1.58v3.06h-1v-6h1v1.24h0a2.09,2.09,0,0,1,.63-1,1.61,1.61,0,0,1,1.51-.27Z" fill="#1e1e1e"/>
      <path d="M446.87,26.12h-4.24a2.28,2.28,0,0,0,.54,1.55,1.87,1.87,0,0,0,1.42.54,3,3,0,0,0,1.86-.66v.9a3.47,3.47,0,0,1-2.09.57,2.56,2.56,0,0,1-2-.81,3.39,3.39,0,0,1-.72-2.3,3.29,3.29,0,0,1,.79-2.29,2.58,2.58,0,0,1,2-.88,2.27,2.27,0,0,1,1.82.76,3.2,3.2,0,0,1,.65,2.12Zm-1-.81a1.91,1.91,0,0,0-.4-1.3,1.39,1.39,0,0,0-1.1-.46,1.54,1.54,0,0,0-1.15.49,2.22,2.22,0,0,0-.59,1.27Z" fill="#1e1e1e"/>
      <path d="M451.35,28.54V27.38a2,2,0,0,0,.47.32,5.19,5.19,0,0,0,.59.24,6.23,6.23,0,0,0,.62.15,4,4,0,0,0,.57.05A2.22,2.22,0,0,0,455,27.8a1.14,1.14,0,0,0,.45-1,1.15,1.15,0,0,0-.15-.59,1.64,1.64,0,0,0-.42-.46,3.91,3.91,0,0,0-.62-.4l-.78-.4-.82-.45A3.81,3.81,0,0,1,452,24a2.24,2.24,0,0,1-.44-.63,1.88,1.88,0,0,1-.16-.82,1.93,1.93,0,0,1,.25-1,2.32,2.32,0,0,1,.66-.7,3.08,3.08,0,0,1,.94-.41,5.12,5.12,0,0,1,2.88.17v1.11a3.26,3.26,0,0,0-1.91-.52,2.88,2.88,0,0,0-.65.07,1.69,1.69,0,0,0-.57.22,1.18,1.18,0,0,0-.41.39,1,1,0,0,0-.16.59,1.18,1.18,0,0,0,.12.55,1.41,1.41,0,0,0,.35.43,4.69,4.69,0,0,0,.57.38l.78.39c.3.15.59.31.86.47a4,4,0,0,1,.7.55,2.36,2.36,0,0,1,.49.66,1.84,1.84,0,0,1,.18.83,2,2,0,0,1-.9,1.75,3,3,0,0,1-1,.39,5.24,5.24,0,0,1-1.14.12L453,29q-.3,0-.6-.09a4.91,4.91,0,0,1-.58-.15A1.72,1.72,0,0,1,451.35,28.54Z" fill="#1e1e1e"/>
      <path d="M460.38,28.82a1.82,1.82,0,0,1-.9.19c-1.05,0-1.57-.58-1.57-1.76V23.7h-1v-.82h1V21.42l1-.31v1.77h1.51v.82h-1.51v3.38a1.49,1.49,0,0,0,.2.87.83.83,0,0,0,.68.25,1,1,0,0,0,.63-.2Z" fill="#1e1e1e"/>
      <path d="M466,28.88h-1V28h0A2,2,0,0,1,463.13,29a2,2,0,0,1-1.41-.47,1.68,1.68,0,0,1-.5-1.26c0-1.12.66-1.77,2-2l1.8-.25c0-1-.41-1.53-1.24-1.53a3,3,0,0,0-2,.74v-1a3.76,3.76,0,0,1,2-.56c1.41,0,2.12.75,2.12,2.24Zm-1-3-1.45.2a2.3,2.3,0,0,0-1,.33,1,1,0,0,0-.34.84.93.93,0,0,0,.32.72,1.2,1.2,0,0,0,.83.27,1.51,1.51,0,0,0,1.18-.5,1.77,1.77,0,0,0,.47-1.26Z" fill="#1e1e1e"/>
      <path d="M471.86,28.61a3.19,3.19,0,0,1-1.64.41,2.68,2.68,0,0,1-2.07-.83,3,3,0,0,1-.79-2.17,3.32,3.32,0,0,1,.85-2.38,3,3,0,0,1,2.27-.9,3.09,3.09,0,0,1,1.39.3v1a2.45,2.45,0,0,0-1.43-.47,1.93,1.93,0,0,0-1.51.66,2.52,2.52,0,0,0-.59,1.73,2.41,2.41,0,0,0,.56,1.67,1.91,1.91,0,0,0,1.48.6,2.39,2.39,0,0,0,1.48-.52Z" fill="#1e1e1e"/>
      <path d="M478.29,28.88h-1.35L474.3,26h0v2.88h-1V20h1v5.63h0l2.52-2.75h1.26l-2.79,2.9Z" fill="#1e1e1e"/>
      <path d="M489,28.88h-1V25.05h-4.34v3.83h-1v-8.4h1v3.69H488V20.48h1Z" fill="#1e1e1e"/>
      <path d="M495.93,28.88h-1v-.95h0A2,2,0,0,1,493.1,29c-1.43,0-2.15-.85-2.15-2.55V22.88h1v3.44c0,1.26.48,1.89,1.45,1.89a1.48,1.48,0,0,0,1.16-.51,2,2,0,0,0,.45-1.36V22.88h1Z" fill="#1e1e1e"/>
      <path d="M498.86,28h0v.86h-1V20h1v3.94h0a2.26,2.26,0,0,1,2.07-1.2,2.2,2.2,0,0,1,1.81.81,3.28,3.28,0,0,1,.65,2.16,3.72,3.72,0,0,1-.73,2.41,2.44,2.44,0,0,1-2,.9A2,2,0,0,1,498.86,28Zm0-2.42v.83a1.81,1.81,0,0,0,.48,1.27,1.73,1.73,0,0,0,2.59-.15,3.09,3.09,0,0,0,.5-1.86,2.41,2.41,0,0,0-.46-1.57,1.54,1.54,0,0,0-1.26-.57,1.7,1.7,0,0,0-1.34.58A2.16,2.16,0,0,0,498.84,25.6Z" fill="#1e1e1e"/>
      <path d="M452.93,34.57h-2.42v7.51h-1V34.57H447.1v-.89h5.83Z" fill="#1e1e1e"/>
      <path d="M455.46,42.22a2.79,2.79,0,0,1-2.13-.84,3.1,3.1,0,0,1-.79-2.23,3.26,3.26,0,0,1,.83-2.36,3,3,0,0,1,2.23-.85,2.69,2.69,0,0,1,2.09.83,3.75,3.75,0,0,1-.05,4.59A2.85,2.85,0,0,1,455.46,42.22Zm.07-5.47a1.84,1.84,0,0,0-1.47.63,2.59,2.59,0,0,0-.54,1.74,2.46,2.46,0,0,0,.55,1.68,1.85,1.85,0,0,0,1.46.62,1.76,1.76,0,0,0,1.43-.61,2.58,2.58,0,0,0,.5-1.72,2.62,2.62,0,0,0-.5-1.73A1.73,1.73,0,0,0,455.53,36.75Z" fill="#1e1e1e"/>
      <path d="M462.49,42.22a2.76,2.76,0,0,1-2.12-.84,3.11,3.11,0,0,1-.8-2.23,3.26,3.26,0,0,1,.83-2.36,3,3,0,0,1,2.23-.85,2.69,2.69,0,0,1,2.09.83,3.75,3.75,0,0,1-.05,4.59A2.83,2.83,0,0,1,462.49,42.22Zm.07-5.47a1.8,1.8,0,0,0-1.46.63,2.59,2.59,0,0,0-.54,1.74,2.46,2.46,0,0,0,.54,1.68,1.85,1.85,0,0,0,1.46.62,1.76,1.76,0,0,0,1.43-.61,2.58,2.58,0,0,0,.5-1.72,2.62,2.62,0,0,0-.5-1.73A1.73,1.73,0,0,0,462.56,36.75Z" fill="#1e1e1e"/>
      <path d="M468,42.08h-1V33.2h1Z" fill="#1e1e1e"/>
      <path d="M469.56,41.87v-1a2.82,2.82,0,0,0,1.72.59c.85,0,1.27-.29,1.27-.85a.78.78,0,0,0-.11-.41,1,1,0,0,0-.29-.29,2.18,2.18,0,0,0-.43-.23l-.54-.22a5.16,5.16,0,0,1-.7-.32,1.94,1.94,0,0,1-.51-.36,1.41,1.41,0,0,1-.3-.46,1.57,1.57,0,0,1-.1-.6,1.44,1.44,0,0,1,.19-.75,1.7,1.7,0,0,1,.52-.55,2.71,2.71,0,0,1,.73-.33,3.59,3.59,0,0,1,2.25.16v1a2.78,2.78,0,0,0-1.52-.43,1.83,1.83,0,0,0-.49.06,1,1,0,0,0-.37.18.66.66,0,0,0-.24.26.69.69,0,0,0-.09.34.78.78,0,0,0,.34.68,2.36,2.36,0,0,0,.39.22l.54.22a6.85,6.85,0,0,1,.71.31,2.82,2.82,0,0,1,.54.36,1.41,1.41,0,0,1,.34.47,1.54,1.54,0,0,1,.12.63,1.49,1.49,0,0,1-.19.77,1.74,1.74,0,0,1-.53.55,2.43,2.43,0,0,1-.75.32,3.82,3.82,0,0,1-.9.1A3.47,3.47,0,0,1,469.56,41.87Z" fill="#1e1e1e"/>
    </g>
    <g>
      <circle cx="86.68" cy="145.5" r="9" fill="url(#radial-gradient-3)"/>
      <path d="M89.2,149.8H83.93v-.65a2.35,2.35,0,0,1,.11-.75,2.56,2.56,0,0,1,.3-.65,3.06,3.06,0,0,1,.44-.58,6.62,6.62,0,0,1,.53-.53l.59-.49.59-.48c.18-.15.34-.3.49-.45a3.13,3.13,0,0,0,.38-.45,2.34,2.34,0,0,0,.25-.5,2,2,0,0,0,.08-.56,1.52,1.52,0,0,0-.1-.59,1.09,1.09,0,0,0-.29-.41,1.16,1.16,0,0,0-.43-.25,1.63,1.63,0,0,0-.55-.09,2.51,2.51,0,0,0-1,.24,3.57,3.57,0,0,0-1,.72V142a3.85,3.85,0,0,1,.52-.34,3,3,0,0,1,.55-.24,2.82,2.82,0,0,1,.59-.14,3.53,3.53,0,0,1,.66-.05,3.33,3.33,0,0,1,1,.15,2,2,0,0,1,.79.44,1.89,1.89,0,0,1,.51.72,2.59,2.59,0,0,1,.18,1,2.86,2.86,0,0,1-.13.91,2.78,2.78,0,0,1-.35.76,3.91,3.91,0,0,1-.56.67c-.22.21-.47.43-.74.65l-.67.54a6.57,6.57,0,0,0-.61.51,3.24,3.24,0,0,0-.44.49.93.93,0,0,0-.16.51v0H89.2Z" fill="#fff"/>
    </g>
    <g>
      <path d="M100.29,165.38H99.2L98.31,163H94.75l-.84,2.35h-1.1L96,157h1ZM98,162.14l-1.32-3.58a2.44,2.44,0,0,1-.13-.56h0a2.45,2.45,0,0,1-.13.56l-1.31,3.58Z" fill="#1e1e1e"/>
      <path d="M105.58,159.66l-3.55,4.9h3.51v.82h-4.92v-.3l3.55-4.88H101v-.82h4.63Z" fill="#1e1e1e"/>
      <path d="M111.67,165.38h-1v-.95h0a2,2,0,0,1-1.85,1.09c-1.43,0-2.15-.85-2.15-2.55v-3.59h1v3.44c0,1.26.48,1.89,1.45,1.89a1.48,1.48,0,0,0,1.16-.51,2,2,0,0,0,.45-1.36v-3.46h1Z" fill="#1e1e1e"/>
      <path d="M116.74,160.36a1.18,1.18,0,0,0-.73-.2,1.22,1.22,0,0,0-1,.58,2.67,2.67,0,0,0-.42,1.58v3.06h-1v-6h1v1.24h0a2.08,2.08,0,0,1,.62-1,1.49,1.49,0,0,1,1-.35,1.44,1.44,0,0,1,.57.08Z" fill="#1e1e1e"/>
      <path d="M122.61,162.62h-4.24a2.28,2.28,0,0,0,.54,1.55,1.87,1.87,0,0,0,1.42.54,3,3,0,0,0,1.86-.66v.9a3.5,3.5,0,0,1-2.09.57,2.56,2.56,0,0,1-2-.81,3.39,3.39,0,0,1-.73-2.3,3.29,3.29,0,0,1,.8-2.29,2.56,2.56,0,0,1,2-.88A2.27,2.27,0,0,1,122,160a3.2,3.2,0,0,1,.65,2.12Zm-1-.81a2,2,0,0,0-.4-1.3,1.39,1.39,0,0,0-1.1-.46,1.52,1.52,0,0,0-1.15.49,2.22,2.22,0,0,0-.59,1.27Z" fill="#1e1e1e"/>
      <path d="M127.08,165v-1.16a2.36,2.36,0,0,0,.48.32,5.19,5.19,0,0,0,.59.24c.2.06.41.11.61.15a4.13,4.13,0,0,0,.58,0,2.24,2.24,0,0,0,1.36-.34,1.27,1.27,0,0,0,.29-1.56,1.6,1.6,0,0,0-.41-.46,3.91,3.91,0,0,0-.62-.4l-.78-.4c-.29-.15-.57-.3-.82-.45a3.81,3.81,0,0,1-.66-.5,2.05,2.05,0,0,1-.44-.63,1.88,1.88,0,0,1-.16-.82,1.93,1.93,0,0,1,.25-1,2.2,2.2,0,0,1,.66-.7,3,3,0,0,1,.93-.41,4.29,4.29,0,0,1,1.07-.13,4.08,4.08,0,0,1,1.81.3v1.11a3.22,3.22,0,0,0-1.91-.52,2.79,2.79,0,0,0-.64.07,1.75,1.75,0,0,0-.58.22,1.38,1.38,0,0,0-.41.39,1.1,1.1,0,0,0-.15.59,1.18,1.18,0,0,0,.12.55,1.28,1.28,0,0,0,.35.43,4.69,4.69,0,0,0,.57.38l.78.39c.3.15.58.31.85.47a4,4,0,0,1,.71.55,2.36,2.36,0,0,1,.49.66,1.84,1.84,0,0,1,.18.83,2.09,2.09,0,0,1-.25,1.05,2,2,0,0,1-.65.7,2.94,2.94,0,0,1-1,.39,5.15,5.15,0,0,1-1.13.12l-.5,0-.59-.09a4.45,4.45,0,0,1-.58-.15A2,2,0,0,1,127.08,165Z" fill="#1e1e1e"/>
      <path d="M136.12,165.32a1.82,1.82,0,0,1-.9.19c-1.05,0-1.57-.58-1.57-1.76V160.2h-1v-.82h1v-1.46l1-.31v1.77h1.51v.82h-1.51v3.38a1.49,1.49,0,0,0,.2.87.83.83,0,0,0,.68.25,1,1,0,0,0,.63-.2Z" fill="#1e1e1e"/>
      <path d="M141.7,165.38h-1v-.93h0a2,2,0,0,1-1.84,1.07,2,2,0,0,1-1.41-.47,1.68,1.68,0,0,1-.5-1.26c0-1.12.66-1.77,2-2l1.8-.25c0-1-.42-1.53-1.24-1.53a3,3,0,0,0-2,.74v-1a3.76,3.76,0,0,1,2-.56c1.41,0,2.12.75,2.12,2.24Zm-1-3-1.45.2a2.3,2.3,0,0,0-1,.33,1,1,0,0,0-.34.84,1,1,0,0,0,.31.72,1.25,1.25,0,0,0,.84.27,1.51,1.51,0,0,0,1.18-.5,1.77,1.77,0,0,0,.47-1.26Z" fill="#1e1e1e"/>
      <path d="M147.6,165.11a3.19,3.19,0,0,1-1.64.41,2.68,2.68,0,0,1-2.07-.83,3,3,0,0,1-.79-2.17,3.32,3.32,0,0,1,.85-2.38,3,3,0,0,1,2.26-.9,3.1,3.1,0,0,1,1.4.3v1a2.47,2.47,0,0,0-1.43-.47,1.93,1.93,0,0,0-1.51.66,2.52,2.52,0,0,0-.59,1.73,2.41,2.41,0,0,0,.56,1.67,1.9,1.9,0,0,0,1.48.6,2.41,2.41,0,0,0,1.48-.52Z" fill="#1e1e1e"/>
      <path d="M154,165.38h-1.35L150,162.5h0v2.88h-1V156.5h1v5.63h0l2.52-2.75h1.26l-2.78,2.9Z" fill="#1e1e1e"/>
      <path d="M164.75,165.38h-1v-3.83h-4.34v3.83h-1V157h1v3.69h4.34V157h1Z" fill="#1e1e1e"/>
      <path d="M171.67,165.38h-1v-.95h0a2,2,0,0,1-1.85,1.09c-1.43,0-2.15-.85-2.15-2.55v-3.59h1v3.44c0,1.26.48,1.89,1.45,1.89a1.48,1.48,0,0,0,1.16-.51,2,2,0,0,0,.45-1.36v-3.46h1Z" fill="#1e1e1e"/>
      <path d="M174.6,164.52h0v.86h-1V156.5h1v3.94h0a2.26,2.26,0,0,1,2.07-1.2,2.2,2.2,0,0,1,1.81.81,3.33,3.33,0,0,1,.65,2.16,3.72,3.72,0,0,1-.73,2.41,2.45,2.45,0,0,1-2,.9A2,2,0,0,1,174.6,164.52Zm0-2.42v.83a1.77,1.77,0,0,0,.49,1.27,1.73,1.73,0,0,0,2.59-.15,3.09,3.09,0,0,0,.5-1.86,2.41,2.41,0,0,0-.47-1.57,1.51,1.51,0,0,0-1.25-.57,1.73,1.73,0,0,0-1.35.58A2.16,2.16,0,0,0,174.57,162.1Z" fill="#1e1e1e"/>
      <path d="M99.81,178.58H98.64l-1.41-2.35a3.88,3.88,0,0,0-.38-.56,1.92,1.92,0,0,0-.37-.38,1.07,1.07,0,0,0-.41-.21,1.49,1.49,0,0,0-.49-.07h-.81v3.57h-1v-8.4h2.51a3.64,3.64,0,0,1,1,.14,2.23,2.23,0,0,1,.81.42,1.86,1.86,0,0,1,.53.7,2.28,2.28,0,0,1,.2,1,2.53,2.53,0,0,1-.13.8,2.15,2.15,0,0,1-.38.66,2.37,2.37,0,0,1-.59.49,2.82,2.82,0,0,1-.77.31v0a2.13,2.13,0,0,1,.37.22,2.56,2.56,0,0,1,.3.28c.09.11.18.24.27.37s.2.3.31.49Zm-5-7.51v3.05H96.1a2.17,2.17,0,0,0,.69-.11,1.61,1.61,0,0,0,.54-.32,1.57,1.57,0,0,0,.36-.51,1.83,1.83,0,0,0,.13-.68,1.32,1.32,0,0,0-.44-1.05,1.88,1.88,0,0,0-1.26-.38Z" fill="#1e1e1e"/>
      <path d="M105.3,175.82h-4.23a2.19,2.19,0,0,0,.54,1.55,1.85,1.85,0,0,0,1.41.55,3,3,0,0,0,1.87-.67v.9a3.52,3.52,0,0,1-2.09.57,2.54,2.54,0,0,1-2-.81,3.34,3.34,0,0,1-.73-2.3,3.29,3.29,0,0,1,.8-2.29,2.55,2.55,0,0,1,2-.88,2.28,2.28,0,0,1,1.82.76,3.19,3.19,0,0,1,.64,2.12Zm-1-.81a2,2,0,0,0-.4-1.3,1.4,1.4,0,0,0-1.1-.46,1.52,1.52,0,0,0-1.15.49,2.16,2.16,0,0,0-.59,1.27Z" fill="#1e1e1e"/>
      <path d="M106.39,178.37v-1a2.85,2.85,0,0,0,1.73.59c.85,0,1.27-.29,1.27-.85a.78.78,0,0,0-.11-.41,1,1,0,0,0-.29-.29,2.27,2.27,0,0,0-.44-.23l-.53-.22a5.16,5.16,0,0,1-.7-.32,1.94,1.94,0,0,1-.51-.36,1.41,1.41,0,0,1-.3-.46,1.57,1.57,0,0,1-.1-.6,1.44,1.44,0,0,1,.19-.75,1.78,1.78,0,0,1,.51-.55,2.77,2.77,0,0,1,.74-.33,3.59,3.59,0,0,1,2.25.16v1a2.79,2.79,0,0,0-1.53-.43,1.75,1.75,0,0,0-.48.06,1,1,0,0,0-.37.18.77.77,0,0,0-.25.26.81.81,0,0,0-.08.34,1,1,0,0,0,.08.4.94.94,0,0,0,.25.28,2.48,2.48,0,0,0,.4.22l.54.22a6.85,6.85,0,0,1,.71.31,2.82,2.82,0,0,1,.54.36,1.41,1.41,0,0,1,.34.47,1.54,1.54,0,0,1,.12.63,1.49,1.49,0,0,1-.19.77,1.74,1.74,0,0,1-.53.55,2.54,2.54,0,0,1-.75.32,3.82,3.82,0,0,1-.9.1A3.54,3.54,0,0,1,106.39,178.37Z" fill="#1e1e1e"/>
      <path d="M114.36,178.72a2.79,2.79,0,0,1-2.13-.84,3.1,3.1,0,0,1-.79-2.23,3.26,3.26,0,0,1,.82-2.36,3,3,0,0,1,2.24-.85,2.69,2.69,0,0,1,2.09.83,3.28,3.28,0,0,1,.76,2.29,3.23,3.23,0,0,1-.82,2.3A2.81,2.81,0,0,1,114.36,178.72Zm.07-5.47a1.84,1.84,0,0,0-1.47.63,2.59,2.59,0,0,0-.54,1.74,2.41,2.41,0,0,0,.55,1.68,1.85,1.85,0,0,0,1.46.62,1.76,1.76,0,0,0,1.43-.61,2.63,2.63,0,0,0,.5-1.72,2.68,2.68,0,0,0-.5-1.73A1.73,1.73,0,0,0,114.43,173.25Z" fill="#1e1e1e"/>
      <path d="M123.73,178.58h-1v-1h0a2,2,0,0,1-1.85,1.09c-1.43,0-2.15-.85-2.15-2.55v-3.59h1V176c0,1.26.48,1.9,1.45,1.9a1.5,1.5,0,0,0,1.16-.52,2,2,0,0,0,.45-1.36v-3.46h1Z" fill="#1e1e1e"/>
      <path d="M128.8,173.56a1.18,1.18,0,0,0-.73-.2,1.22,1.22,0,0,0-1,.58,2.67,2.67,0,0,0-.42,1.58v3.06h-1v-6h1v1.24h0a2.08,2.08,0,0,1,.62-1,1.47,1.47,0,0,1,.95-.35,1.44,1.44,0,0,1,.57.08Z" fill="#1e1e1e"/>
      <path d="M133.93,178.31a3.17,3.17,0,0,1-1.64.41,2.71,2.71,0,0,1-2.07-.83,3.06,3.06,0,0,1-.79-2.17,3.36,3.36,0,0,1,.85-2.38,3,3,0,0,1,2.27-.9,3.06,3.06,0,0,1,1.39.3v1a2.45,2.45,0,0,0-1.43-.47,1.91,1.91,0,0,0-1.5.66,2.47,2.47,0,0,0-.59,1.73,2.4,2.4,0,0,0,.55,1.67,1.94,1.94,0,0,0,1.49.61,2.39,2.39,0,0,0,1.47-.53Z" fill="#1e1e1e"/>
      <path d="M140.21,175.82H136a2.28,2.28,0,0,0,.54,1.55,1.87,1.87,0,0,0,1.42.55,3,3,0,0,0,1.86-.67v.9a3.5,3.5,0,0,1-2.09.57,2.56,2.56,0,0,1-2-.81,3.39,3.39,0,0,1-.72-2.3,3.29,3.29,0,0,1,.79-2.29,2.58,2.58,0,0,1,2-.88,2.27,2.27,0,0,1,1.82.76,3.2,3.2,0,0,1,.65,2.12Zm-1-.81a1.91,1.91,0,0,0-.4-1.3,1.39,1.39,0,0,0-1.1-.46,1.54,1.54,0,0,0-1.15.49A2.22,2.22,0,0,0,136,175Z" fill="#1e1e1e"/>
      <path d="M153.64,178.58h-1V173c0-.45,0-1,.08-1.64h0a4.6,4.6,0,0,1-.25.82l-2.87,6.45h-.48l-2.86-6.41a4.31,4.31,0,0,1-.26-.86h0c0,.34.05.89.05,1.65v5.62h-.95v-8.4h1.3L149,176a7.5,7.5,0,0,1,.38,1h0c.17-.46.3-.81.4-1l2.63-5.84h1.23Z" fill="#1e1e1e"/>
      <path d="M160,178.58h-1v-.93h0a2,2,0,0,1-1.84,1.07,1.93,1.93,0,0,1-1.4-.47,1.65,1.65,0,0,1-.51-1.26c0-1.12.66-1.77,2-2l1.8-.25c0-1-.41-1.53-1.24-1.53a3,3,0,0,0-2,.74v-1a3.76,3.76,0,0,1,2-.56c1.41,0,2.12.75,2.12,2.24Zm-1-3-1.45.2a2.35,2.35,0,0,0-1,.33,1,1,0,0,0-.34.84.93.93,0,0,0,.32.72,1.22,1.22,0,0,0,.83.28,1.52,1.52,0,0,0,1.18-.51,1.77,1.77,0,0,0,.47-1.26Z" fill="#1e1e1e"/>
      <path d="M166.81,178.58h-1v-3.42c0-1.27-.47-1.91-1.4-1.91a1.52,1.52,0,0,0-1.19.54,2,2,0,0,0-.47,1.37v3.42h-1v-6h1v1h0a2.17,2.17,0,0,1,2-1.14,1.83,1.83,0,0,1,1.51.64,2.8,2.8,0,0,1,.52,1.84Z" fill="#1e1e1e"/>
      <path d="M172.92,178.58h-1v-.93h0a2,2,0,0,1-1.84,1.07,2,2,0,0,1-1.41-.47,1.64,1.64,0,0,1-.5-1.26c0-1.12.66-1.77,2-2l1.79-.25q0-1.53-1.23-1.53a3,3,0,0,0-2,.74v-1a3.76,3.76,0,0,1,2-.56c1.41,0,2.12.75,2.12,2.24Zm-1-3-1.44.2a2.3,2.3,0,0,0-1,.33,1,1,0,0,0-.34.84.92.92,0,0,0,.31.72,1.25,1.25,0,0,0,.84.28,1.54,1.54,0,0,0,1.18-.51,1.76,1.76,0,0,0,.46-1.26Z" fill="#1e1e1e"/>
      <path d="M179.85,178.1q0,3.32-3.17,3.31a4.23,4.23,0,0,1-1.94-.42v-1a3.94,3.94,0,0,0,1.93.57c1.48,0,2.22-.79,2.22-2.36v-.65h0a2.43,2.43,0,0,1-3.86.34,3.16,3.16,0,0,1-.68-2.14,3.77,3.77,0,0,1,.73-2.44,2.46,2.46,0,0,1,2-.9,2,2,0,0,1,1.8,1h0v-.84h1Zm-1-2.23V175a1.74,1.74,0,0,0-.49-1.23,1.58,1.58,0,0,0-1.2-.51,1.68,1.68,0,0,0-1.4.65,2.91,2.91,0,0,0-.5,1.81,2.48,2.48,0,0,0,.48,1.6,1.58,1.58,0,0,0,1.28.61,1.7,1.7,0,0,0,1.32-.58A2.12,2.12,0,0,0,178.89,175.87Z" fill="#1e1e1e"/>
      <path d="M186.61,175.82h-4.23a2.19,2.19,0,0,0,.54,1.55,1.86,1.86,0,0,0,1.42.55,3,3,0,0,0,1.86-.67v.9a3.52,3.52,0,0,1-2.09.57,2.54,2.54,0,0,1-2-.81,3.34,3.34,0,0,1-.73-2.3,3.29,3.29,0,0,1,.8-2.29,2.56,2.56,0,0,1,2-.88,2.28,2.28,0,0,1,1.82.76,3.19,3.19,0,0,1,.64,2.12Zm-1-.81a2,2,0,0,0-.4-1.3,1.39,1.39,0,0,0-1.1-.46,1.52,1.52,0,0,0-1.15.49,2.16,2.16,0,0,0-.59,1.27Z" fill="#1e1e1e"/>
      <path d="M191.2,173.56a1.18,1.18,0,0,0-.73-.2,1.25,1.25,0,0,0-1,.58,2.74,2.74,0,0,0-.41,1.58v3.06h-1v-6h1v1.24h0a2.17,2.17,0,0,1,.63-1,1.44,1.44,0,0,1,.94-.35,1.52,1.52,0,0,1,.58.08Z" fill="#1e1e1e"/>
    </g>
    <g>
      <path d="M280.29,167.88H279.2l-.89-2.35h-3.56l-.84,2.35h-1.1l3.22-8.4h1Zm-2.3-3.24-1.32-3.58a2.44,2.44,0,0,1-.13-.56h0a2.45,2.45,0,0,1-.13.56l-1.31,3.58Z" fill="#1e1e1e"/>
      <path d="M285.58,162.16l-3.55,4.9h3.51v.82h-4.92v-.3l3.55-4.88H281v-.82h4.63Z" fill="#1e1e1e"/>
      <path d="M291.67,167.88h-1v-.95h0a2,2,0,0,1-1.85,1.09c-1.43,0-2.15-.85-2.15-2.55v-3.59h1v3.44c0,1.26.48,1.89,1.45,1.89a1.48,1.48,0,0,0,1.16-.51,2,2,0,0,0,.45-1.36v-3.46h1Z" fill="#1e1e1e"/>
      <path d="M296.74,162.86a1.18,1.18,0,0,0-.73-.2,1.22,1.22,0,0,0-1,.58,2.67,2.67,0,0,0-.42,1.58v3.06h-1v-6h1v1.24h0a2.08,2.08,0,0,1,.62-1,1.49,1.49,0,0,1,.95-.35,1.44,1.44,0,0,1,.57.08Z" fill="#1e1e1e"/>
      <path d="M302.61,165.12h-4.24a2.28,2.28,0,0,0,.54,1.55,1.87,1.87,0,0,0,1.42.54,3,3,0,0,0,1.86-.66v.9a3.5,3.5,0,0,1-2.09.57,2.56,2.56,0,0,1-2-.81,3.39,3.39,0,0,1-.73-2.3,3.29,3.29,0,0,1,.8-2.29,2.56,2.56,0,0,1,2-.88,2.27,2.27,0,0,1,1.82.76,3.2,3.2,0,0,1,.65,2.12Zm-1-.81a2,2,0,0,0-.4-1.3,1.39,1.39,0,0,0-1.1-.46A1.52,1.52,0,0,0,299,163a2.22,2.22,0,0,0-.59,1.27Z" fill="#1e1e1e"/>
      <path d="M307.08,167.54v-1.16a2.36,2.36,0,0,0,.48.32,5.19,5.19,0,0,0,.59.24c.2.06.41.11.61.15a4.13,4.13,0,0,0,.58,0,2.24,2.24,0,0,0,1.36-.34,1.27,1.27,0,0,0,.29-1.56,1.6,1.6,0,0,0-.41-.46,3.91,3.91,0,0,0-.62-.4l-.78-.4c-.29-.15-.57-.3-.82-.45a3.81,3.81,0,0,1-.66-.5,2.05,2.05,0,0,1-.44-.63,1.88,1.88,0,0,1-.16-.82,1.93,1.93,0,0,1,.25-1,2.2,2.2,0,0,1,.66-.7,3,3,0,0,1,.93-.41,4.29,4.29,0,0,1,1.07-.13,4.08,4.08,0,0,1,1.81.3v1.11a3.22,3.22,0,0,0-1.91-.52,2.79,2.79,0,0,0-.64.07,1.75,1.75,0,0,0-.58.22,1.38,1.38,0,0,0-.41.39,1.1,1.1,0,0,0-.15.59,1.18,1.18,0,0,0,.12.55,1.28,1.28,0,0,0,.35.43,4.69,4.69,0,0,0,.57.38l.78.39c.3.15.58.31.85.47a4,4,0,0,1,.71.55,2.36,2.36,0,0,1,.49.66,1.84,1.84,0,0,1,.18.83,2.09,2.09,0,0,1-.25,1.05,2,2,0,0,1-.65.7,2.94,2.94,0,0,1-1,.39,5.15,5.15,0,0,1-1.13.12l-.5,0-.59-.09a4.45,4.45,0,0,1-.58-.15A2,2,0,0,1,307.08,167.54Z" fill="#1e1e1e"/>
      <path d="M316.12,167.82a1.82,1.82,0,0,1-.9.19c-1.05,0-1.57-.58-1.57-1.76V162.7h-1v-.82h1v-1.46l1-.31v1.77h1.51v.82h-1.51v3.38a1.49,1.49,0,0,0,.2.87.83.83,0,0,0,.68.25,1,1,0,0,0,.63-.2Z" fill="#1e1e1e"/>
      <path d="M321.7,167.88h-1V167h0a2,2,0,0,1-1.84,1.07,2,2,0,0,1-1.41-.47,1.68,1.68,0,0,1-.5-1.26c0-1.12.66-1.77,2-2l1.8-.25c0-1-.42-1.53-1.24-1.53a3,3,0,0,0-2,.74v-1a3.76,3.76,0,0,1,2-.56c1.41,0,2.12.75,2.12,2.24Zm-1-3-1.45.2a2.3,2.3,0,0,0-1,.33,1,1,0,0,0-.34.84,1,1,0,0,0,.31.72,1.25,1.25,0,0,0,.84.27,1.51,1.51,0,0,0,1.18-.5,1.77,1.77,0,0,0,.47-1.26Z" fill="#1e1e1e"/>
      <path d="M327.6,167.61A3.19,3.19,0,0,1,326,168a2.68,2.68,0,0,1-2.07-.83,3,3,0,0,1-.79-2.17,3.32,3.32,0,0,1,.85-2.38,3,3,0,0,1,2.26-.9,3.1,3.1,0,0,1,1.4.3v1a2.47,2.47,0,0,0-1.43-.47,1.93,1.93,0,0,0-1.51.66,2.52,2.52,0,0,0-.59,1.73,2.41,2.41,0,0,0,.56,1.67,1.9,1.9,0,0,0,1.48.6,2.41,2.41,0,0,0,1.48-.52Z" fill="#1e1e1e"/>
      <path d="M334,167.88h-1.35L330,165h0v2.88h-1V159h1v5.63h0l2.52-2.75h1.26l-2.78,2.9Z" fill="#1e1e1e"/>
      <path d="M344.75,167.88h-1v-3.83h-4.34v3.83h-1v-8.4h1v3.69h4.34v-3.69h1Z" fill="#1e1e1e"/>
      <path d="M351.67,167.88h-1v-.95h0a2,2,0,0,1-1.85,1.09c-1.43,0-2.15-.85-2.15-2.55v-3.59h1v3.44c0,1.26.48,1.89,1.45,1.89a1.48,1.48,0,0,0,1.16-.51,2,2,0,0,0,.45-1.36v-3.46h1Z" fill="#1e1e1e"/>
      <path d="M354.6,167h0v.86h-1V159h1v3.94h0a2.26,2.26,0,0,1,2.07-1.2,2.2,2.2,0,0,1,1.81.81,3.33,3.33,0,0,1,.65,2.16,3.72,3.72,0,0,1-.73,2.41,2.45,2.45,0,0,1-2,.9A2,2,0,0,1,354.6,167Zm0-2.42v.83a1.77,1.77,0,0,0,.49,1.27,1.73,1.73,0,0,0,2.59-.15,3.09,3.09,0,0,0,.5-1.86,2.41,2.41,0,0,0-.47-1.57,1.51,1.51,0,0,0-1.25-.57,1.73,1.73,0,0,0-1.35.58A2.16,2.16,0,0,0,354.57,164.6Z" fill="#1e1e1e"/>
      <path d="M280.29,181.08H279.2l-.89-2.35h-3.56l-.84,2.35h-1.1l3.22-8.4h1Zm-2.3-3.24-1.32-3.58a2.44,2.44,0,0,1-.13-.56h0a2.45,2.45,0,0,1-.13.56l-1.31,3.58Z" fill="#1e1e1e"/>
      <path d="M286.52,181.08h-1v-1h0a2.2,2.2,0,0,1-2.06,1.16,2.24,2.24,0,0,1-1.81-.8,3.32,3.32,0,0,1-.67-2.2,3.59,3.59,0,0,1,.75-2.38,2.46,2.46,0,0,1,2-.9,1.92,1.92,0,0,1,1.8,1h0V172.2h1Zm-1-2.71v-.88a1.74,1.74,0,0,0-.48-1.24,1.64,1.64,0,0,0-1.22-.5,1.68,1.68,0,0,0-1.39.65,2.85,2.85,0,0,0-.5,1.78,2.53,2.53,0,0,0,.48,1.63,1.71,1.71,0,0,0,2.6,0A2.11,2.11,0,0,0,285.56,178.37Z" fill="#1e1e1e"/>
      <path d="M297,181.08h-1v-3.44a2.52,2.52,0,0,0-.31-1.44,1.15,1.15,0,0,0-1-.45,1.3,1.3,0,0,0-1.05.56,2.22,2.22,0,0,0-.43,1.35v3.42h-1v-3.56c0-1.18-.45-1.77-1.36-1.77a1.28,1.28,0,0,0-1.05.53,2.2,2.2,0,0,0-.41,1.38v3.42h-1v-6h1V176h0a2,2,0,0,1,1.86-1.09,1.72,1.72,0,0,1,1.07.35,1.63,1.63,0,0,1,.63.89,2.15,2.15,0,0,1,2-1.24c1.32,0,2,.82,2,2.45Z" fill="#1e1e1e"/>
      <path d="M299.29,173.56a.6.6,0,0,1-.44-.18.57.57,0,0,1-.18-.44.61.61,0,0,1,.18-.45.6.6,0,0,1,.44-.18.62.62,0,0,1,.63.63.6.6,0,0,1-.18.44A.61.61,0,0,1,299.29,173.56Zm.47,7.52h-1v-6h1Z" fill="#1e1e1e"/>
      <path d="M306.68,181.08h-1v-3.42c0-1.27-.46-1.91-1.39-1.91a1.5,1.5,0,0,0-1.19.54,2,2,0,0,0-.47,1.37v3.42h-1v-6h1v1h0a2.16,2.16,0,0,1,2-1.14,1.81,1.81,0,0,1,1.5.64,2.8,2.8,0,0,1,.52,1.84Z" fill="#1e1e1e"/>
      <path d="M309,173.56a.6.6,0,0,1-.44-.18.57.57,0,0,1-.18-.44.61.61,0,0,1,.18-.45.6.6,0,0,1,.44-.18.64.64,0,0,1,.45.18.61.61,0,0,1,.18.45.6.6,0,0,1-.18.44A.64.64,0,0,1,309,173.56Zm.47,7.52h-1v-6h1Z" fill="#1e1e1e"/>
      <path d="M311,180.87v-1a2.83,2.83,0,0,0,1.73.59c.84,0,1.26-.29,1.26-.85a.7.7,0,0,0-.11-.41,1,1,0,0,0-.29-.29,2.18,2.18,0,0,0-.43-.23l-.54-.22a5.79,5.79,0,0,1-.7-.32,1.74,1.74,0,0,1-.5-.36,1.29,1.29,0,0,1-.31-.46,1.57,1.57,0,0,1-.1-.6,1.44,1.44,0,0,1,.19-.75,1.7,1.7,0,0,1,.52-.55,2.71,2.71,0,0,1,.73-.33,3.49,3.49,0,0,1,.86-.11,3.41,3.41,0,0,1,1.39.27v1a2.78,2.78,0,0,0-1.52-.43,1.88,1.88,0,0,0-.49.06,1.06,1.06,0,0,0-.37.18.85.85,0,0,0-.24.26.69.69,0,0,0-.09.34.82.82,0,0,0,.09.4.94.94,0,0,0,.25.28,2.11,2.11,0,0,0,.4.22l.53.22a6,6,0,0,1,.71.31,2.3,2.3,0,0,1,.54.36,1.45,1.45,0,0,1,.35.47,1.54,1.54,0,0,1,.12.63,1.5,1.5,0,0,1-.2.77,1.82,1.82,0,0,1-.52.55,2.49,2.49,0,0,1-.76.32,3.71,3.71,0,0,1-.9.1A3.49,3.49,0,0,1,311,180.87Z" fill="#1e1e1e"/>
      <path d="M319.28,181a1.82,1.82,0,0,1-.9.19c-1.05,0-1.58-.58-1.58-1.76V175.9h-1v-.82h1v-1.46l1-.31v1.77h1.52v.82h-1.52v3.38a1.41,1.41,0,0,0,.21.87.82.82,0,0,0,.68.25,1,1,0,0,0,.63-.2Z" fill="#1e1e1e"/>
      <path d="M323.69,176.06a1.18,1.18,0,0,0-.73-.2,1.25,1.25,0,0,0-1,.58,2.74,2.74,0,0,0-.41,1.58v3.06h-1v-6h1v1.24h0a2.17,2.17,0,0,1,.63-1,1.46,1.46,0,0,1,.94-.35,1.49,1.49,0,0,1,.58.08Z" fill="#1e1e1e"/>
      <path d="M329,181.08h-1v-.93h0a2,2,0,0,1-1.84,1.07,2,2,0,0,1-1.41-.47,1.68,1.68,0,0,1-.5-1.26c0-1.12.66-1.77,2-2l1.8-.25c0-1-.42-1.53-1.24-1.53a3,3,0,0,0-2,.74v-1a3.76,3.76,0,0,1,2-.56c1.41,0,2.12.75,2.12,2.24Zm-1-3-1.45.2a2.3,2.3,0,0,0-1,.33,1,1,0,0,0-.34.84,1,1,0,0,0,.31.72,1.25,1.25,0,0,0,.84.28,1.52,1.52,0,0,0,1.18-.51,1.77,1.77,0,0,0,.47-1.26Z" fill="#1e1e1e"/>
      <path d="M333.62,181a1.8,1.8,0,0,1-.9.19c-1.05,0-1.57-.58-1.57-1.76V175.9h-1v-.82h1v-1.46l1-.31v1.77h1.51v.82h-1.51v3.38a1.49,1.49,0,0,0,.2.87.83.83,0,0,0,.68.25,1,1,0,0,0,.63-.2Z" fill="#1e1e1e"/>
      <path d="M337.41,181.22a2.77,2.77,0,0,1-2.12-.84,3.11,3.11,0,0,1-.8-2.23,3.26,3.26,0,0,1,.83-2.36,3,3,0,0,1,2.23-.85,2.71,2.71,0,0,1,2.1.83,3.27,3.27,0,0,1,.75,2.29,3.23,3.23,0,0,1-.81,2.3A2.83,2.83,0,0,1,337.41,181.22Zm.07-5.47a1.81,1.81,0,0,0-1.46.63,2.59,2.59,0,0,0-.54,1.74,2.46,2.46,0,0,0,.54,1.68,1.87,1.87,0,0,0,1.46.62,1.76,1.76,0,0,0,1.43-.61,2.58,2.58,0,0,0,.51-1.72,2.63,2.63,0,0,0-.51-1.73A1.73,1.73,0,0,0,337.48,175.75Z" fill="#1e1e1e"/>
      <path d="M345.06,176.06a1.14,1.14,0,0,0-.72-.2,1.24,1.24,0,0,0-1,.58,2.67,2.67,0,0,0-.41,1.58v3.06h-1v-6h1v1.24h0a2.09,2.09,0,0,1,.63-1,1.61,1.61,0,0,1,1.51-.27Z" fill="#1e1e1e"/>
    </g>
    <g>
      <circle cx="223.68" cy="218.39" r="9" fill="url(#radial-gradient-4)"/>
      <path d="M225.65,214.29v5.43h1.25v1.13h-1.25v1.85h-1.32v-1.85h-3.8v-1.14c.34-.39.7-.81,1.06-1.26s.71-.91,1-1.38.64-.94.93-1.42a10.62,10.62,0,0,0,.72-1.36Zm-1.32,5.43v-3.53a17.63,17.63,0,0,1-1.26,2c-.42.57-.81,1.07-1.17,1.52Z" fill="#fff"/>
    </g>
    <g>
      <path d="M280.29,212.88H279.2l-.89-2.35h-3.56l-.84,2.35h-1.1l3.22-8.4h1Zm-2.3-3.24-1.32-3.58a2.44,2.44,0,0,1-.13-.56h0a2.45,2.45,0,0,1-.13.56l-1.31,3.58Z" fill="#1e1e1e"/>
      <path d="M285.58,207.16l-3.55,4.9h3.51v.82h-4.92v-.3l3.55-4.88H281v-.82h4.63Z" fill="#1e1e1e"/>
      <path d="M291.67,212.88h-1v-.95h0a2,2,0,0,1-1.85,1.09c-1.43,0-2.15-.85-2.15-2.55v-3.59h1v3.44c0,1.26.48,1.89,1.45,1.89a1.48,1.48,0,0,0,1.16-.51,2,2,0,0,0,.45-1.36v-3.46h1Z" fill="#1e1e1e"/>
      <path d="M296.74,207.86a1.18,1.18,0,0,0-.73-.2,1.22,1.22,0,0,0-1,.58,2.67,2.67,0,0,0-.42,1.58v3.06h-1v-6h1v1.24h0a2.08,2.08,0,0,1,.62-1,1.49,1.49,0,0,1,.95-.35,1.44,1.44,0,0,1,.57.08Z" fill="#1e1e1e"/>
      <path d="M302.61,210.12h-4.24a2.28,2.28,0,0,0,.54,1.55,1.87,1.87,0,0,0,1.42.54,3,3,0,0,0,1.86-.66v.9a3.5,3.5,0,0,1-2.09.57,2.56,2.56,0,0,1-2-.81,3.39,3.39,0,0,1-.73-2.3,3.29,3.29,0,0,1,.8-2.29,2.56,2.56,0,0,1,2-.88,2.27,2.27,0,0,1,1.82.76,3.2,3.2,0,0,1,.65,2.12Zm-1-.81a2,2,0,0,0-.4-1.3,1.39,1.39,0,0,0-1.1-.46A1.52,1.52,0,0,0,299,208a2.22,2.22,0,0,0-.59,1.27Z" fill="#1e1e1e"/>
      <path d="M307.08,212.54v-1.16a2.36,2.36,0,0,0,.48.32,5.19,5.19,0,0,0,.59.24c.2.06.41.11.61.15a4.13,4.13,0,0,0,.58,0,2.24,2.24,0,0,0,1.36-.34,1.27,1.27,0,0,0,.29-1.56,1.6,1.6,0,0,0-.41-.46,3.91,3.91,0,0,0-.62-.4l-.78-.4c-.29-.15-.57-.3-.82-.45a3.81,3.81,0,0,1-.66-.5,2.05,2.05,0,0,1-.44-.63,1.88,1.88,0,0,1-.16-.82,1.93,1.93,0,0,1,.25-1,2.2,2.2,0,0,1,.66-.7,3,3,0,0,1,.93-.41,4.29,4.29,0,0,1,1.07-.13,4.08,4.08,0,0,1,1.81.3v1.11a3.22,3.22,0,0,0-1.91-.52,2.79,2.79,0,0,0-.64.07,1.75,1.75,0,0,0-.58.22,1.38,1.38,0,0,0-.41.39,1.1,1.1,0,0,0-.15.59,1.18,1.18,0,0,0,.12.55,1.28,1.28,0,0,0,.35.43,4.69,4.69,0,0,0,.57.38l.78.39c.3.15.58.31.85.47a4,4,0,0,1,.71.55,2.36,2.36,0,0,1,.49.66,1.84,1.84,0,0,1,.18.83,2.09,2.09,0,0,1-.25,1.05,2,2,0,0,1-.65.7,2.94,2.94,0,0,1-1,.39,5.15,5.15,0,0,1-1.13.12l-.5,0-.59-.09a4.45,4.45,0,0,1-.58-.15A2,2,0,0,1,307.08,212.54Z" fill="#1e1e1e"/>
      <path d="M316.12,212.82a1.82,1.82,0,0,1-.9.19c-1.05,0-1.57-.58-1.57-1.76V207.7h-1v-.82h1v-1.46l1-.31v1.77h1.51v.82h-1.51v3.38a1.49,1.49,0,0,0,.2.87.83.83,0,0,0,.68.25,1,1,0,0,0,.63-.2Z" fill="#1e1e1e"/>
      <path d="M321.7,212.88h-1V212h0a2,2,0,0,1-1.84,1.07,2,2,0,0,1-1.41-.47,1.68,1.68,0,0,1-.5-1.26c0-1.12.66-1.77,2-2l1.8-.25c0-1-.42-1.53-1.24-1.53a3,3,0,0,0-2,.74v-1a3.76,3.76,0,0,1,2-.56c1.41,0,2.12.75,2.12,2.24Zm-1-3-1.45.2a2.3,2.3,0,0,0-1,.33,1,1,0,0,0-.34.84,1,1,0,0,0,.31.72,1.25,1.25,0,0,0,.84.27,1.51,1.51,0,0,0,1.18-.5,1.77,1.77,0,0,0,.47-1.26Z" fill="#1e1e1e"/>
      <path d="M327.6,212.61A3.19,3.19,0,0,1,326,213a2.68,2.68,0,0,1-2.07-.83,3,3,0,0,1-.79-2.17,3.32,3.32,0,0,1,.85-2.38,3,3,0,0,1,2.26-.9,3.1,3.1,0,0,1,1.4.3v1a2.47,2.47,0,0,0-1.43-.47,1.93,1.93,0,0,0-1.51.66,2.52,2.52,0,0,0-.59,1.73,2.41,2.41,0,0,0,.56,1.67,1.9,1.9,0,0,0,1.48.6,2.41,2.41,0,0,0,1.48-.52Z" fill="#1e1e1e"/>
      <path d="M334,212.88h-1.35L330,210h0v2.88h-1V204h1v5.63h0l2.52-2.75h1.26l-2.78,2.9Z" fill="#1e1e1e"/>
      <path d="M344.75,212.88h-1v-3.83h-4.34v3.83h-1v-8.4h1v3.69h4.34v-3.69h1Z" fill="#1e1e1e"/>
      <path d="M351.67,212.88h-1v-.95h0a2,2,0,0,1-1.85,1.09c-1.43,0-2.15-.85-2.15-2.55v-3.59h1v3.44c0,1.26.48,1.89,1.45,1.89a1.48,1.48,0,0,0,1.16-.51,2,2,0,0,0,.45-1.36v-3.46h1Z" fill="#1e1e1e"/>
      <path d="M354.6,212h0v.86h-1V204h1v3.94h0a2.26,2.26,0,0,1,2.07-1.2,2.2,2.2,0,0,1,1.81.81,3.33,3.33,0,0,1,.65,2.16,3.72,3.72,0,0,1-.73,2.41,2.45,2.45,0,0,1-2,.9A2,2,0,0,1,354.6,212Zm0-2.42v.83a1.77,1.77,0,0,0,.49,1.27,1.73,1.73,0,0,0,2.59-.15,3.09,3.09,0,0,0,.5-1.86,2.41,2.41,0,0,0-.47-1.57,1.51,1.51,0,0,0-1.25-.57,1.73,1.73,0,0,0-1.35.58A2.16,2.16,0,0,0,354.57,209.6Z" fill="#1e1e1e"/>
      <path d="M274.77,222.91v3.17h-1v-8.4h2.31a3,3,0,0,1,2.09.66,2.31,2.31,0,0,1,.74,1.85,2.54,2.54,0,0,1-.82,2,3.18,3.18,0,0,1-2.22.76Zm0-4.34V222h1a2.33,2.33,0,0,0,1.56-.47,1.67,1.67,0,0,0,.53-1.31c0-1.11-.65-1.67-2-1.67Z" fill="#1e1e1e"/>
      <path d="M283.51,221.06a1.18,1.18,0,0,0-.73-.2,1.25,1.25,0,0,0-1,.58,2.67,2.67,0,0,0-.41,1.58v3.06h-1v-6h1v1.24h0a2.17,2.17,0,0,1,.63-1,1.44,1.44,0,0,1,.94-.35,1.52,1.52,0,0,1,.58.08Z" fill="#1e1e1e"/>
      <path d="M285,218.56a.6.6,0,0,1-.44-.18.57.57,0,0,1-.18-.44.61.61,0,0,1,.18-.45.6.6,0,0,1,.44-.18.62.62,0,0,1,.63.63.6.6,0,0,1-.18.44A.61.61,0,0,1,285,218.56Zm.47,7.52h-1v-6h1Z" fill="#1e1e1e"/>
      <path d="M292.17,220.08l-2.39,6h-.94l-2.28-6h1.06l1.52,4.36a3.21,3.21,0,0,1,.21.84h0a4.41,4.41,0,0,1,.18-.81l1.6-4.39Z" fill="#1e1e1e"/>
      <path d="M293.69,218.56a.58.58,0,0,1-.43-.18.55.55,0,0,1-.19-.44.63.63,0,0,1,.62-.63.61.61,0,0,1,.45.18.58.58,0,0,1,.19.45.58.58,0,0,1-.19.44A.61.61,0,0,1,293.69,218.56Zm.47,7.52h-1v-6h1Z" fill="#1e1e1e"/>
      <path d="M297.07,226.08h-1V217.2h1Z" fill="#1e1e1e"/>
      <path d="M303.84,223.32H299.6a2.28,2.28,0,0,0,.54,1.55,1.87,1.87,0,0,0,1.42.55,3,3,0,0,0,1.86-.67v.9a3.5,3.5,0,0,1-2.09.57,2.56,2.56,0,0,1-2-.81,3.39,3.39,0,0,1-.73-2.3,3.29,3.29,0,0,1,.8-2.29,2.58,2.58,0,0,1,2-.88,2.27,2.27,0,0,1,1.82.76,3.2,3.2,0,0,1,.65,2.12Zm-1-.81a1.91,1.91,0,0,0-.4-1.3,1.39,1.39,0,0,0-1.1-.46,1.52,1.52,0,0,0-1.15.49,2.22,2.22,0,0,0-.59,1.27Z" fill="#1e1e1e"/>
      <path d="M310.41,226.08h-1v-1h0a2.43,2.43,0,0,1-3.87.36,3.33,3.33,0,0,1-.68-2.2,3.59,3.59,0,0,1,.75-2.38,2.48,2.48,0,0,1,2-.9,1.94,1.94,0,0,1,1.8,1h0V217.2h1Zm-1-2.71v-.88a1.74,1.74,0,0,0-.48-1.24,1.64,1.64,0,0,0-1.22-.5,1.66,1.66,0,0,0-1.38.65,2.79,2.79,0,0,0-.51,1.78,2.53,2.53,0,0,0,.49,1.63,1.58,1.58,0,0,0,1.3.61,1.63,1.63,0,0,0,1.3-.59A2.16,2.16,0,0,0,309.45,223.37Z" fill="#1e1e1e"/>
      <path d="M317.48,225.6q0,3.32-3.17,3.31a4.23,4.23,0,0,1-1.94-.42v-1a3.94,3.94,0,0,0,1.93.57c1.48,0,2.22-.79,2.22-2.36v-.65h0a2.43,2.43,0,0,1-3.86.34,3.16,3.16,0,0,1-.68-2.14,3.77,3.77,0,0,1,.73-2.44,2.46,2.46,0,0,1,2-.9,2,2,0,0,1,1.8,1h0v-.84h1Zm-1-2.23v-.88a1.7,1.7,0,0,0-.49-1.23,1.58,1.58,0,0,0-1.2-.51,1.7,1.7,0,0,0-1.4.65,2.91,2.91,0,0,0-.5,1.81,2.48,2.48,0,0,0,.48,1.6,1.58,1.58,0,0,0,1.28.61,1.7,1.7,0,0,0,1.32-.58A2.12,2.12,0,0,0,316.52,223.37Z" fill="#1e1e1e"/>
      <path d="M324.25,223.32H320a2.19,2.19,0,0,0,.54,1.55,1.86,1.86,0,0,0,1.42.55,3,3,0,0,0,1.86-.67v.9a3.52,3.52,0,0,1-2.09.57,2.54,2.54,0,0,1-2-.81,3.39,3.39,0,0,1-.73-2.3,3.29,3.29,0,0,1,.8-2.29,2.56,2.56,0,0,1,2-.88,2.28,2.28,0,0,1,1.82.76,3.2,3.2,0,0,1,.65,2.12Zm-1-.81a2,2,0,0,0-.4-1.3,1.39,1.39,0,0,0-1.1-.46,1.52,1.52,0,0,0-1.15.49,2.22,2.22,0,0,0-.59,1.27Z" fill="#1e1e1e"/>
      <path d="M330.82,226.08h-1v-1h0a2.43,2.43,0,0,1-3.87.36,3.27,3.27,0,0,1-.68-2.2,3.59,3.59,0,0,1,.75-2.38,2.46,2.46,0,0,1,2-.9,1.94,1.94,0,0,1,1.8,1h0V217.2h1Zm-1-2.71v-.88a1.74,1.74,0,0,0-.48-1.24,1.77,1.77,0,0,0-2.6.15,2.79,2.79,0,0,0-.51,1.78,2.48,2.48,0,0,0,.49,1.63,1.57,1.57,0,0,0,1.29.61,1.65,1.65,0,0,0,1.31-.59A2.16,2.16,0,0,0,329.86,223.37Z" fill="#1e1e1e"/>
      <path d="M340.63,226.08h-4.45v-8.4h4.27v.89h-3.28v2.8h3v.88h-3v2.94h3.46Z" fill="#1e1e1e"/>
      <path d="M347.1,226.08h-1v-3.42c0-1.27-.46-1.91-1.39-1.91a1.54,1.54,0,0,0-1.2.54,2,2,0,0,0-.47,1.37v3.42h-1v-6h1v1h0a2.16,2.16,0,0,1,2-1.14,1.82,1.82,0,0,1,1.5.64,2.8,2.8,0,0,1,.52,1.84Z" fill="#1e1e1e"/>
      <path d="M354,226.08h-1v-1h0a2.43,2.43,0,0,1-3.87.36,3.33,3.33,0,0,1-.68-2.2,3.59,3.59,0,0,1,.75-2.38,2.48,2.48,0,0,1,2-.9,1.92,1.92,0,0,1,1.8,1h0V217.2h1Zm-1-2.71v-.88a1.74,1.74,0,0,0-.48-1.24,1.62,1.62,0,0,0-1.22-.5,1.67,1.67,0,0,0-1.38.65,2.85,2.85,0,0,0-.5,1.78,2.53,2.53,0,0,0,.48,1.63,1.59,1.59,0,0,0,1.3.61,1.63,1.63,0,0,0,1.3-.59A2.11,2.11,0,0,0,353.07,223.37Z" fill="#1e1e1e"/>
      <path d="M357,225.22h0v3.62h-1v-8.76h1v1.06h0a2.29,2.29,0,0,1,2.08-1.2,2.19,2.19,0,0,1,1.81.81,3.35,3.35,0,0,1,.65,2.16,3.72,3.72,0,0,1-.73,2.41,2.46,2.46,0,0,1-2,.9A2,2,0,0,1,357,225.22Zm0-2.42v.83a1.81,1.81,0,0,0,.48,1.27,1.65,1.65,0,0,0,1.23.52,1.63,1.63,0,0,0,1.37-.67,3.09,3.09,0,0,0,.49-1.86,2.41,2.41,0,0,0-.46-1.57,1.52,1.52,0,0,0-1.25-.57,1.73,1.73,0,0,0-1.35.58A2.16,2.16,0,0,0,356.94,222.8Z" fill="#1e1e1e"/>
      <path d="M365.54,226.22a2.79,2.79,0,0,1-2.12-.84,3.11,3.11,0,0,1-.8-2.23,3.26,3.26,0,0,1,.83-2.36,3,3,0,0,1,2.23-.85,2.7,2.7,0,0,1,2.1.83,3.27,3.27,0,0,1,.75,2.29,3.23,3.23,0,0,1-.81,2.3A2.83,2.83,0,0,1,365.54,226.22Zm.07-5.47a1.83,1.83,0,0,0-1.46.63,2.59,2.59,0,0,0-.54,1.74,2.46,2.46,0,0,0,.54,1.68,1.87,1.87,0,0,0,1.46.62,1.79,1.79,0,0,0,1.44-.61,2.63,2.63,0,0,0,.5-1.72,2.68,2.68,0,0,0-.5-1.73A1.76,1.76,0,0,0,365.61,220.75Z" fill="#1e1e1e"/>
      <path d="M370.56,218.56a.6.6,0,0,1-.44-.18.57.57,0,0,1-.18-.44.61.61,0,0,1,.18-.45.6.6,0,0,1,.44-.18.64.64,0,0,1,.45.18.61.61,0,0,1,.18.45.6.6,0,0,1-.18.44A.64.64,0,0,1,370.56,218.56Zm.47,7.52h-1v-6h1Z" fill="#1e1e1e"/>
      <path d="M378,226.08h-1v-3.42c0-1.27-.46-1.91-1.39-1.91a1.54,1.54,0,0,0-1.2.54,2,2,0,0,0-.47,1.37v3.42h-1v-6h1v1h0a2.16,2.16,0,0,1,2-1.14,1.82,1.82,0,0,1,1.5.64,2.8,2.8,0,0,1,.52,1.84Z" fill="#1e1e1e"/>
      <path d="M382.55,226a1.82,1.82,0,0,1-.9.19c-1,0-1.58-.58-1.58-1.76V220.9h-1v-.82h1v-1.46l1-.31v1.77h1.52v.82H381v3.38a1.41,1.41,0,0,0,.21.87.82.82,0,0,0,.68.25,1,1,0,0,0,.63-.2Z" fill="#1e1e1e"/>
    </g>
    <g>
      <path d="M341.26,35.23v3.18h-1V30h2.31a3.08,3.08,0,0,1,2.09.65,2.33,2.33,0,0,1,.74,1.85,2.54,2.54,0,0,1-.82,2,3.13,3.13,0,0,1-2.22.76Zm0-4.33v3.44h1a2.32,2.32,0,0,0,1.56-.46,1.67,1.67,0,0,0,.53-1.32c0-1.11-.65-1.66-2-1.66Z" fill="#1e1e1e"/>
      <path d="M348.93,38.55a2.79,2.79,0,0,1-2.13-.84,3.15,3.15,0,0,1-.79-2.23,3.23,3.23,0,0,1,.83-2.36,3,3,0,0,1,2.23-.85,2.68,2.68,0,0,1,2.09.82,3.76,3.76,0,0,1-.05,4.6A2.88,2.88,0,0,1,348.93,38.55Zm.07-5.47a1.84,1.84,0,0,0-1.47.63,2.63,2.63,0,0,0-.53,1.73,2.47,2.47,0,0,0,.54,1.69,1.85,1.85,0,0,0,1.46.61,1.75,1.75,0,0,0,1.43-.6,2.59,2.59,0,0,0,.5-1.72,2.61,2.61,0,0,0-.5-1.73A1.73,1.73,0,0,0,349,33.08Z" fill="#1e1e1e"/>
      <path d="M361,32.41l-1.8,6h-1L357,34.11a2.26,2.26,0,0,1-.09-.55h0a2.44,2.44,0,0,1-.12.54l-1.34,4.31h-1l-1.82-6h1l1.24,4.51a2.38,2.38,0,0,1,.08.54H355a2.91,2.91,0,0,1,.1-.55l1.39-4.5h.88l1.24,4.52a3.36,3.36,0,0,1,.09.54h0a2.61,2.61,0,0,1,.1-.54l1.22-4.52Z" fill="#1e1e1e"/>
      <path d="M367,35.65h-4.24a2.3,2.3,0,0,0,.54,1.55,1.87,1.87,0,0,0,1.42.54,2.93,2.93,0,0,0,1.86-.67V38a3.5,3.5,0,0,1-2.09.57,2.53,2.53,0,0,1-2-.82,3.36,3.36,0,0,1-.73-2.3,3.29,3.29,0,0,1,.8-2.28,2.53,2.53,0,0,1,2-.88,2.25,2.25,0,0,1,1.82.76,3.18,3.18,0,0,1,.65,2.12Zm-1-.82a2,2,0,0,0-.4-1.29,1.36,1.36,0,0,0-1.1-.46,1.55,1.55,0,0,0-1.15.48,2.25,2.25,0,0,0-.59,1.27Z" fill="#1e1e1e"/>
      <path d="M371.53,33.38a1.18,1.18,0,0,0-.73-.19,1.23,1.23,0,0,0-1,.58,2.72,2.72,0,0,0-.41,1.58v3.06h-1v-6h1v1.24h0a2.07,2.07,0,0,1,.63-1,1.42,1.42,0,0,1,.94-.36,1.46,1.46,0,0,1,.58.09Z" fill="#1e1e1e"/>
      <path d="M372.31,38.07V36.91a2.23,2.23,0,0,0,.48.32,3.69,3.69,0,0,0,.58.23,3.5,3.5,0,0,0,.62.15,3.07,3.07,0,0,0,.57.06,2.29,2.29,0,0,0,1.36-.34,1.15,1.15,0,0,0,.45-1,1.1,1.1,0,0,0-.15-.59,1.76,1.76,0,0,0-.41-.46,4.57,4.57,0,0,0-.63-.4l-.77-.4c-.3-.15-.57-.3-.82-.45a3.57,3.57,0,0,1-.67-.51,2.26,2.26,0,0,1-.44-.62,2.15,2.15,0,0,1,.09-1.82,2.21,2.21,0,0,1,.66-.7,3.19,3.19,0,0,1,.94-.41,4.24,4.24,0,0,1,1.07-.13,4.08,4.08,0,0,1,1.81.3v1.1a3.31,3.31,0,0,0-1.91-.51,3.57,3.57,0,0,0-.65.06,2,2,0,0,0-.57.22,1.31,1.31,0,0,0-.41.4,1,1,0,0,0-.16.58,1.22,1.22,0,0,0,.12.56,1.31,1.31,0,0,0,.36.43,3,3,0,0,0,.57.37c.22.12.48.26.77.4s.59.3.86.47a3.9,3.9,0,0,1,.71.54,2.42,2.42,0,0,1,.48.67,1.84,1.84,0,0,1,.18.83,2.14,2.14,0,0,1-.24,1.05,2,2,0,0,1-.66.7,2.88,2.88,0,0,1-.95.39,5.24,5.24,0,0,1-1.14.12l-.49,0c-.2,0-.4-.06-.6-.1a5.47,5.47,0,0,1-.58-.15A1.93,1.93,0,0,1,372.31,38.07Z" fill="#1e1e1e"/>
      <path d="M383.93,38.41h-1V35c0-1.25-.47-1.87-1.4-1.87a1.51,1.51,0,0,0-1.18.54,2,2,0,0,0-.48,1.39v3.4h-1V29.53h1v3.88h0a2.18,2.18,0,0,1,2-1.14c1.35,0,2,.81,2,2.44Z" fill="#1e1e1e"/>
      <path d="M390.56,35.65h-4.24a2.3,2.3,0,0,0,.54,1.55,1.88,1.88,0,0,0,1.42.54,2.89,2.89,0,0,0,1.86-.67V38a3.47,3.47,0,0,1-2.09.57,2.53,2.53,0,0,1-2-.82,3.35,3.35,0,0,1-.72-2.3,3.28,3.28,0,0,1,.79-2.28,2.54,2.54,0,0,1,2-.88,2.26,2.26,0,0,1,1.83.76,3.18,3.18,0,0,1,.64,2.12Zm-1-.82a2,2,0,0,0-.41-1.29,1.35,1.35,0,0,0-1.09-.46,1.57,1.57,0,0,0-1.16.48,2.18,2.18,0,0,0-.58,1.27Z" fill="#1e1e1e"/>
      <path d="M393,38.41h-1V29.53h1Z" fill="#1e1e1e"/>
      <path d="M395.88,38.41h-1V29.53h1Z" fill="#1e1e1e"/>
    </g>
    <g>
      <path d="M287,39.65a4.92,4.92,0,0,1-2.32.49A3.72,3.72,0,0,1,281.77,39a4.26,4.26,0,0,1-1.08-3,4.45,4.45,0,0,1,1.21-3.26A4.11,4.11,0,0,1,285,31.46a5,5,0,0,1,2,.34v1.05a4.08,4.08,0,0,0-2-.5,3.07,3.07,0,0,0-2.35,1,3.66,3.66,0,0,0-.9,2.59,3.44,3.44,0,0,0,.84,2.44,2.87,2.87,0,0,0,2.21.92,4.11,4.11,0,0,0,2.19-.57Z" fill="#1e1e1e"/>
      <path d="M289.5,40h-1V31.12h1Z" fill="#1e1e1e"/>
      <path d="M291.94,32.48a.6.6,0,0,1-.44-.18.59.59,0,0,1-.18-.44.61.61,0,0,1,.18-.45.6.6,0,0,1,.44-.18.64.64,0,0,1,.45.18.61.61,0,0,1,.18.45.58.58,0,0,1-.18.43A.61.61,0,0,1,291.94,32.48Zm.47,7.52h-1V34h1Z" fill="#1e1e1e"/>
      <path d="M299.17,37.24h-4.23a2.21,2.21,0,0,0,.54,1.55,1.85,1.85,0,0,0,1.41.54,2.94,2.94,0,0,0,1.87-.67v.91a3.52,3.52,0,0,1-2.09.57,2.52,2.52,0,0,1-2-.82,3.81,3.81,0,0,1,.07-4.58,2.51,2.51,0,0,1,2-.88,2.25,2.25,0,0,1,1.82.76,3.18,3.18,0,0,1,.64,2.12Zm-1-.81a2,2,0,0,0-.4-1.3,1.37,1.37,0,0,0-1.1-.46,1.55,1.55,0,0,0-1.15.48,2.19,2.19,0,0,0-.59,1.28Z" fill="#1e1e1e"/>
      <path d="M305.61,40h-1V36.58c0-1.28-.47-1.91-1.4-1.91a1.5,1.5,0,0,0-1.19.54,2,2,0,0,0-.47,1.37V40h-1V34h1v1h0a2.16,2.16,0,0,1,2-1.14,1.83,1.83,0,0,1,1.51.64,2.85,2.85,0,0,1,.52,1.83Z" fill="#1e1e1e"/>
      <path d="M310.2,39.94a1.8,1.8,0,0,1-.9.19c-1.05,0-1.57-.59-1.57-1.76V34.82h-1V34h1V32.54l1-.32V34h1.51v.82h-1.51V38.2a1.45,1.45,0,0,0,.2.86.84.84,0,0,0,.68.26,1,1,0,0,0,.63-.2Z" fill="#1e1e1e"/>
    </g>
  </g>
</svg>
