<?xml version="1.0" encoding="UTF-8" standalone="no"?>
<svg
   xmlns:dc="http://purl.org/dc/elements/1.1/"
   xmlns:cc="http://creativecommons.org/ns#"
   xmlns:rdf="http://www.w3.org/1999/02/22-rdf-syntax-ns#"
   xmlns:svg="http://www.w3.org/2000/svg"
   xmlns="http://www.w3.org/2000/svg"
   xmlns:xlink="http://www.w3.org/1999/xlink"
   xmlns:sodipodi="http://sodipodi.sourceforge.net/DTD/sodipodi-0.dtd"
   xmlns:inkscape="http://www.inkscape.org/namespaces/inkscape"
   viewBox="0 0 374.67 220"
   version="1.1"
   id="svg11236"
   sodipodi:docname="azure-stack-job-roles.svg"
   inkscape:version="1.0.2-2 (e86c870879, 2021-01-15)">
  <metadata
     id="metadata11240">
    <rdf:RDF>
      <cc:Work
         rdf:about="">
        <dc:format>image/svg+xml</dc:format>
        <dc:type
           rdf:resource="http://purl.org/dc/dcmitype/StillImage" />
      </cc:Work>
    </rdf:RDF>
  </metadata>
  <sodipodi:namedview
     pagecolor="#ffffff"
     bordercolor="#666666"
     borderopacity="1"
     objecttolerance="10"
     gridtolerance="10"
     guidetolerance="10"
     inkscape:pageopacity="0"
     inkscape:pageshadow="2"
     inkscape:window-width="1434"
     inkscape:window-height="917"
     id="namedview11238"
     showgrid="false"
     inkscape:zoom="2.7811139"
     inkscape:cx="187.33501"
     inkscape:cy="110"
     inkscape:window-x="266"
     inkscape:window-y="44"
     inkscape:window-maximized="0"
     inkscape:current-layer="svg11236" />
  <defs
     id="defs10736">
    <linearGradient
       id="linear-gradient"
       x1="81.98"
       y1="442.73"
       x2="81.98"
       y2="420.12"
       gradientTransform="matrix(1, 0, 0, -1, 0, 594)"
       gradientUnits="userSpaceOnUse">
      <stop
         offset="0.22"
         stop-color="#32d4f5"
         id="stop10670" />
      <stop
         offset="0.47"
         stop-color="#31d1f3"
         id="stop10672" />
      <stop
         offset="0.63"
         stop-color="#2ec9eb"
         id="stop10674" />
      <stop
         offset="0.77"
         stop-color="#29bade"
         id="stop10676" />
      <stop
         offset="0.89"
         stop-color="#22a5cb"
         id="stop10678" />
      <stop
         offset="1"
         stop-color="#198ab3"
         id="stop10680" />
    </linearGradient>
    <linearGradient
       id="linear-gradient-2"
       x1="81.33"
       y1="454.87"
       x2="82.98"
       y2="434.33"
       xlink:href="#linear-gradient" />
    <linearGradient
       id="linear-gradient-3"
       x1="81.98"
       y1="522.53"
       x2="81.98"
       y2="499.92"
       gradientTransform="matrix(1, 0, 0, -1, 0, 594)"
       gradientUnits="userSpaceOnUse">
      <stop
         offset="0.1"
         stop-color="#54aef0"
         id="stop10684" />
      <stop
         offset="1"
         stop-color="#1988d9"
         id="stop10686" />
    </linearGradient>
    <linearGradient
       id="linear-gradient-4"
       x1="81.33"
       y1="534.67"
       x2="82.98"
       y2="514.13"
       xlink:href="#linear-gradient-3" />
    <linearGradient
       id="linear-gradient-5"
       x1="200.54"
       y1="434.2"
       x2="200.54"
       y2="404.36"
       gradientTransform="matrix(1,0,0,-1,0,594)"
       gradientUnits="userSpaceOnUse">
      <stop
         offset="0"
         stop-color="#5ea0ef"
         id="stop10690" />
      <stop
         offset="0.18"
         stop-color="#559cec"
         id="stop10692" />
      <stop
         offset="0.47"
         stop-color="#3c91e5"
         id="stop10694" />
      <stop
         offset="0.84"
         stop-color="#1380da"
         id="stop10696" />
      <stop
         offset="1"
         stop-color="#0078d4"
         id="stop10698" />
    </linearGradient>
    <linearGradient
       id="linear-gradient-6"
       x1="195.55"
       y1="404.04"
       x2="195.55"
       y2="418.5"
       gradientTransform="matrix(1,0,0,-1,0,594)"
       gradientUnits="userSpaceOnUse">
      <stop
         offset="0"
         stop-color="#198ab3"
         id="stop10701" />
      <stop
         offset="0.14"
         stop-color="#22a5cb"
         id="stop10703" />
      <stop
         offset="0.3"
         stop-color="#29bade"
         id="stop10705" />
      <stop
         offset="0.47"
         stop-color="#2ec9eb"
         id="stop10707" />
      <stop
         offset="0.68"
         stop-color="#31d1f3"
         id="stop10709" />
      <stop
         offset="1"
         stop-color="#32d4f5"
         id="stop10711" />
    </linearGradient>
    <linearGradient
       id="linear-gradient-7"
       x1="321.6"
       y1="422.24"
       x2="321.6"
       y2="444.2"
       gradientTransform="matrix(1, 0, 0, -1, 0, 594)"
       gradientUnits="userSpaceOnUse">
      <stop
         offset="0"
         stop-color="#773adc"
         id="stop10714" />
      <stop
         offset="0.25"
         stop-color="#9255e6"
         id="stop10716" />
      <stop
         offset="0.5"
         stop-color="#a669ee"
         id="stop10718" />
      <stop
         offset="0.76"
         stop-color="#b376f2"
         id="stop10720" />
      <stop
         offset="1"
         stop-color="#b77af4"
         id="stop10722" />
    </linearGradient>
    <linearGradient
       id="linear-gradient-8"
       x1="321.62"
       y1="437.8"
       x2="321.62"
       y2="457.79"
       xlink:href="#linear-gradient-7" />
    <linearGradient
       id="linear-gradient-9"
       x1="321.6"
       y1="503.21"
       x2="321.6"
       y2="524.96"
       gradientTransform="matrix(1, 0, 0, -1, 0, 594)"
       gradientUnits="userSpaceOnUse">
      <stop
         offset="0"
         stop-color="#5e9624"
         id="stop10726" />
      <stop
         offset="0.26"
         stop-color="#70a828"
         id="stop10728" />
      <stop
         offset="0.79"
         stop-color="#9fd732"
         id="stop10730" />
      <stop
         offset="1"
         stop-color="#b4ec36"
         id="stop10732" />
    </linearGradient>
    <linearGradient
       id="linear-gradient-10"
       x1="321.67"
       y1="518.63"
       x2="321.67"
       y2="538.45"
       xlink:href="#linear-gradient-9" />
    <linearGradient
       inkscape:collect="always"
       xlink:href="#linear-gradient"
       id="linearGradient11242"
       gradientUnits="userSpaceOnUse"
       gradientTransform="matrix(1,0,0,-1,0,594)"
       x1="81.98"
       y1="442.73"
       x2="81.98"
       y2="420.12" />
    <linearGradient
       inkscape:collect="always"
       xlink:href="#linear-gradient-3"
       id="linearGradient11244"
       gradientUnits="userSpaceOnUse"
       gradientTransform="matrix(1,0,0,-1,0,594)"
       x1="81.98"
       y1="522.53"
       x2="81.98"
       y2="499.92" />
    <linearGradient
       inkscape:collect="always"
       xlink:href="#linear-gradient-7"
       id="linearGradient11246"
       gradientUnits="userSpaceOnUse"
       gradientTransform="matrix(1,0,0,-1,0,594)"
       x1="321.6"
       y1="422.24"
       x2="321.6"
       y2="444.2" />
    <linearGradient
       inkscape:collect="always"
       xlink:href="#linear-gradient-9"
       id="linearGradient11248"
       gradientUnits="userSpaceOnUse"
       gradientTransform="matrix(1,0,0,-1,0,594)"
       x1="321.6"
       y1="503.21"
       x2="321.6"
       y2="524.96" />
  </defs>
  <g
     id="g11651">
    <rect
       width="374.67001"
       height="220"
       fill="#ffffff"
       id="rect10738"
       x="0"
       y="0" />
    <rect
       x="29.48"
       y="55"
       width="345.19"
       height="70"
       fill="#0072c6"
       opacity="0.08"
       id="rect10740" />
    <rect
       x="29.48"
       y="134.8"
       width="345.19"
       height="85.199997"
       fill="#0072c6"
       opacity="0.08"
       id="rect10742" />
    <rect
       x="29.48"
       width="105"
       height="220"
       fill="#0072c6"
       opacity="0.15"
       id="rect10744"
       y="0" />
    <rect
       x="269.10001"
       width="105.57"
       height="220"
       fill="#0072c6"
       opacity="0.15"
       id="rect10746"
       y="0" />
    <g
       id="g10754">
      <path
         d="m 93.18,169.8 a 2.42,2.42 0 0 0 2.42,-2.42 v 0 a 0.66,0.66 0 0 0 0,-0.28 c -1,-7.62 -5.28,-13.82 -13.62,-13.82 -8.34,0 -12.76,5.25 -13.61,13.84 a 2.43,2.43 0 0 0 2.15,2.68 z"
         fill="url(#linear-gradient)"
         id="path10748"
         style="fill:url(#linearGradient11242)" />
      <path
         d="m 82,155.08 a 7.66,7.66 0 0 1 -4.13,-1.21 l 4.13,10.7 4.07,-10.64 A 7.6,7.6 0 0 1 82,155.08 Z"
         fill="#ffffff"
         opacity="0.8"
         style="isolation:isolate"
         id="path10750" />
      <circle
         cx="82"
         cy="147.42999"
         r="7.6300001"
         fill="url(#linear-gradient-2)"
         id="circle10752"
         style="fill:url(#linear-gradient-2)" />
    </g>
    <g
       id="g10762">
      <path
         d="m 93.18,90 a 2.42,2.42 0 0 0 2.42,-2.42 v 0 a 0.66,0.66 0 0 0 0,-0.28 c -1,-7.62 -5.28,-13.82 -13.62,-13.82 -8.34,0 -12.76,5.25 -13.61,13.84 A 2.43,2.43 0 0 0 70.52,90 Z"
         fill="url(#linear-gradient-3)"
         id="path10756"
         style="fill:url(#linearGradient11244)" />
      <path
         d="M 82,75.28 A 7.66,7.66 0 0 1 77.87,74.07 L 82,84.77 86.07,74.13 A 7.51,7.51 0 0 1 82,75.28 Z"
         fill="#ffffff"
         opacity="0.8"
         style="isolation:isolate"
         id="path10758" />
      <circle
         cx="82"
         cy="67.629997"
         r="7.6300001"
         fill="url(#linear-gradient-4)"
         id="circle10760"
         style="fill:url(#linear-gradient-4)" />
    </g>
    <g
       id="b1186d34-5ca3-4e43-992d-40ecef5e891b">
      <g
         id="g10773">
        <path
           d="m 208.31,159.8 h -15.52 a 1,1 0 0 0 -1,1 v 22.1 a 18.57,18.57 0 0 1 2.51,-1.77 h 2.94 l 1.63,2.16 v 3.28 l -2.05,1.49 -2.86,-0.35 -2.17,-2.06 v 3 a 1,1 0 0 0 1,1 h 15.52 a 1,1 0 0 0 1,-1 v -27.86 a 1,1 0 0 0 -1,-0.99 z"
           fill="url(#linear-gradient-5)"
           id="path10764"
           style="fill:url(#linear-gradient-5)" />
        <path
           id="af47f827-8b1b-4acd-8974-8eafe35490c9"
           d="m 194.1,162.9 h 2.9 a 0.25,0.25 0 0 1 0.25,0.25 v 0 3.68 a 0.25,0.25 0 0 1 -0.25,0.25 h -2.9 a 0.25,0.25 0 0 1 -0.25,-0.25 v 0 -3.68 a 0.25,0.25 0 0 1 0.25,-0.25 z m 5,0 h 2.9 a 0.25,0.25 0 0 1 0.25,0.25 v 0 3.68 a 0.25,0.25 0 0 1 -0.25,0.25 h -2.85 a 0.25,0.25 0 0 1 -0.25,-0.25 v 0 -3.68 a 0.25,0.25 0 0 1 0.25,-0.25 z m 5,0 h 2.9 a 0.25,0.25 0 0 1 0.24,0.25 v 0 3.68 a 0.25,0.25 0 0 1 -0.24,0.25 h -2.86 a 0.25,0.25 0 0 1 -0.25,-0.25 v 0 -3.68 a 0.25,0.25 0 0 1 0.25,-0.25 z m -10,6.66 h 2.9 a 0.25,0.25 0 0 1 0.25,0.25 v 0 3.72 a 0.25,0.25 0 0 1 -0.25,0.25 h -2.9 a 0.25,0.25 0 0 1 -0.25,-0.25 v 0 -3.68 a 0.25,0.25 0 0 1 0.21,-0.29 z m 5,0 h 2.9 a 0.25,0.25 0 0 1 0.25,0.25 v 0 3.72 a 0.25,0.25 0 0 1 -0.25,0.25 h -2.85 a 0.25,0.25 0 0 1 -0.25,-0.25 v 0 -3.68 a 0.26,0.26 0 0 1 0.21,-0.29 z m 5,0 h 2.9 a 0.25,0.25 0 0 1 0.24,0.25 v 0 3.72 a 0.25,0.25 0 0 1 -0.24,0.25 h -2.86 a 0.25,0.25 0 0 1 -0.25,-0.25 v 0 -3.68 a 0.27,0.27 0 0 1 0.21,-0.29 z m -10,6.74 h 2.9 a 0.25,0.25 0 0 1 0.25,0.24 v 0 3.65 a 0.25,0.25 0 0 1 -0.25,0.25 h -2.9 a 0.25,0.25 0 0 1 -0.25,-0.25 v -3.65 a 0.25,0.25 0 0 1 0.25,-0.24 z m 5,0 h 2.9 a 0.25,0.25 0 0 1 0.25,0.24 v 0 3.65 a 0.25,0.25 0 0 1 -0.25,0.25 h -2.85 a 0.25,0.25 0 0 1 -0.25,-0.25 v 0 -3.65 a 0.25,0.25 0 0 1 0.21,-0.24 z m 0,6.69 h 2.9 a 0.25,0.25 0 0 1 0.25,0.25 v 0 5.46 a 0.25,0.25 0 0 1 -0.25,0.25 h -2.85 a 0.25,0.25 0 0 1 -0.25,-0.25 v -5.46 a 0.25,0.25 0 0 1 0.25,-0.25 z m 5,-6.69 h 2.9 a 0.24,0.24 0 0 1 0.24,0.24 v 0 3.65 a 0.25,0.25 0 0 1 -0.24,0.25 h -2.86 a 0.25,0.25 0 0 1 -0.25,-0.25 v 0 -3.65 a 0.25,0.25 0 0 1 0.25,-0.24 z"
           fill="#f2f2f2" />
        <path
           d="m 195.58,182 a 2.28,2.28 0 0 0 -2.19,1.77 h -8 a 4.89,4.89 0 0 0 -0.14,1.15 V 185 h 8.12 a 2.28,2.28 0 1 0 2.19,-3 z"
           fill="#50e6ff"
           id="path10767" />
        <path
           d="m 201.79,181 a 5.78,5.78 0 0 0 -6,-5.51 5.93,5.93 0 0 0 -5.67,3.86 5.63,5.63 0 0 0 -4.5,3.54 h 7.34 a 3,3 0 1 1 -0.06,2.61 h -7.5 a 5.67,5.67 0 0 0 5.6,4.3 h 10.1 a 4.65,4.65 0 0 0 4.6,-4.29 4.6,4.6 0 0 0 -3.91,-4.51 z"
           fill="url(#linear-gradient-6)"
           id="path10769"
           style="fill:url(#linear-gradient-6)" />
        <path
           d="m 195.58,182 a 2.28,2.28 0 0 0 -2.19,1.77 h -8 a 3.85,3.85 0 0 1 -0.83,-0.11 4,4 0 0 1 0.44,-7.94 h 0.39 l 0.13,-0.35 a 4.52,4.52 0 0 1 4.36,-3 4.67,4.67 0 0 1 4,2.25 5.38,5.38 0 0 1 1.33,-0.16 5.89,5.89 0 0 0 -5.32,-3.35 5.81,5.81 0 0 0 -5.48,3.46 5.21,5.21 0 0 0 -0.4,10.2 v 0 a 3.53,3.53 0 0 0 1.29,0.21 h 8 a 2.29,2.29 0 1 0 2.19,-2.95 z"
           fill="#50e6ff"
           id="path10771" />
      </g>
    </g>
    <g
       id="g10788">
      <path
         d="m 332.45,169.8 a 2.36,2.36 0 0 0 2.37,-2.34 v 0 -0.28 c -0.93,-7.39 -5.14,-13.41 -13.19,-13.41 -8.05,0 -12.35,5.09 -13.23,13.42 a 2.37,2.37 0 0 0 2.1,2.61 z"
         fill="url(#linear-gradient-7)"
         id="path10782"
         style="fill:url(#linearGradient11246)" />
      <path
         d="m 321.62,155.52 a 7.5,7.5 0 0 1 -4,-1.17 l 4,10.33 3.86,-10.28 a 7.18,7.18 0 0 1 -3.86,1.12 z"
         fill="#ffffff"
         id="path10784" />
      <circle
         cx="321.62"
         cy="148.12"
         r="7.4200001"
         fill="url(#linear-gradient-8)"
         id="circle10786"
         style="fill:url(#linear-gradient-8)" />
    </g>
    <g
       id="g10796">
      <path
         d="m 332.34,88.85 a 2.29,2.29 0 0 0 2.33,-2.26 v 0 a 1.31,1.31 0 0 0 0,-0.28 C 333.75,78.94 329.59,73 321.61,73 c -7.98,0 -12.21,5 -13.07,13.31 a 2.35,2.35 0 0 0 2.1,2.57 z"
         fill="url(#linear-gradient-9)"
         id="path10790"
         style="fill:url(#linearGradient11248)" />
      <path
         d="m 321.75,74.7 a 7.36,7.36 0 0 1 -4,-1.16 l 3.84,10.28 3.92,-10.21 a 7.51,7.51 0 0 1 -3.76,1.09 z"
         fill="#ffffff"
         id="path10792" />
      <circle
         cx="321.67001"
         cy="67.360001"
         r="7.3600001"
         fill="url(#linear-gradient-10)"
         id="circle10794"
         style="fill:url(#linear-gradient-10)" />
    </g>
    <g
       id="g10802">
      <line
         x1="104.67"
         y1="85"
         x2="174.28999"
         y2="85"
         fill="none"
         stroke="#3c3c41"
         stroke-miterlimit="10"
         id="line10798" />
      <polygon
         points="173.2,81.26 173.2,88.74 179.67,85 "
         fill="#3c3c41"
         id="polygon10800" />
    </g>
    <g
       id="g10808">
      <line
         x1="225.06"
         y1="85"
         x2="299.67001"
         y2="85"
         fill="none"
         stroke="#3c3c41"
         stroke-miterlimit="10"
         id="line10804" />
      <polygon
         points="226.15,81.26 226.15,88.74 219.67,85 "
         fill="#3c3c41"
         id="polygon10806" />
    </g>
    <g
       id="g10814">
      <line
         x1="104.67"
         y1="167.07001"
         x2="174.28999"
         y2="167.07001"
         fill="none"
         stroke="#3c3c41"
         stroke-miterlimit="10"
         id="line10810" />
      <polygon
         points="173.2,163.33 173.2,170.81 179.67,167.06 "
         fill="#3c3c41"
         id="polygon10812" />
    </g>
    <g
       id="g10820">
      <line
         x1="225.06"
         y1="167.07001"
         x2="299.67001"
         y2="167.07001"
         fill="none"
         stroke="#3c3c41"
         stroke-miterlimit="10"
         id="line10816" />
      <polygon
         points="226.15,163.33 226.15,170.81 219.67,167.06 "
         fill="#3c3c41"
         id="polygon10818" />
    </g>
    <g
       id="Text">
      <g
         id="g10849">
        <path
           d="M161.42,148.84h-2.06l-.6-1.87h-3l-.59,1.87h-2.05l3.06-8.4h2.24Zm-3.09-3.32-.91-2.83a4.38,4.38,0,0,1-.14-.75h0a3.16,3.16,0,0,1-.15.73l-.91,2.85Z"
           fill="#231f20"
           id="path10823" />
        <path
           d="M167,148.84h-5.39v-.77l3-3.87H162v-1.36H167v.91l-2.86,3.72H167Z"
           fill="#231f20"
           id="path10825" />
        <path
           d="M173.74,148.84h-1.85v-.92h0A2.09,2.09,0,0,1,170,149c-1.39,0-2.09-.84-2.09-2.52v-3.62h1.85v3.45c0,.85.33,1.28,1,1.28a1,1,0,0,0,.8-.35,1.41,1.41,0,0,0,.3-.95v-3.43h1.85Z"
           fill="#231f20"
           id="path10827" />
        <path
           d="M179.21,144.51a1.61,1.61,0,0,0-.78-.18,1.1,1.1,0,0,0-.94.44,1.88,1.88,0,0,0-.34,1.2v2.87h-1.86v-6h1.86V144h0a1.6,1.6,0,0,1,1.58-1.22,1.35,1.35,0,0,1,.46.07Z"
           fill="#231f20"
           id="path10829" />
        <path
           d="M185.41,146.37H181.5c.06.87.61,1.3,1.65,1.3a3.15,3.15,0,0,0,1.74-.47v1.34a4.58,4.58,0,0,1-2.17.44,2.78,2.78,0,0,1-3.05-3,3.27,3.27,0,0,1,.86-2.37,2.9,2.9,0,0,1,2.14-.87,2.63,2.63,0,0,1,2,.78,3.05,3.05,0,0,1,.71,2.12Zm-1.71-1.14q0-1.29-1-1.29a1,1,0,0,0-.77.37,1.71,1.71,0,0,0-.39.92Z"
           fill="#231f20"
           id="path10831" />
        <path
           d="M189.62,148.52v-1.88a3.45,3.45,0,0,0,1.11.64,3.64,3.64,0,0,0,1.21.22,2.86,2.86,0,0,0,.62-.07,1.19,1.19,0,0,0,.44-.18.7.7,0,0,0,.27-.27.63.63,0,0,0,.09-.33.74.74,0,0,0-.14-.44,1.37,1.37,0,0,0-.39-.36,3.74,3.74,0,0,0-.57-.32l-.72-.31a3.56,3.56,0,0,1-1.47-1,2.19,2.19,0,0,1-.48-1.43,2.25,2.25,0,0,1,.26-1.13,2.21,2.21,0,0,1,.72-.77,2.93,2.93,0,0,1,1.05-.45,5.18,5.18,0,0,1,1.26-.15,8.06,8.06,0,0,1,1.17.08,4.85,4.85,0,0,1,.93.25v1.75a2.9,2.9,0,0,0-.46-.26,3.82,3.82,0,0,0-.51-.18,3.46,3.46,0,0,0-.52-.11,3,3,0,0,0-.5,0,2.74,2.74,0,0,0-.59.06,1.62,1.62,0,0,0-.44.18.78.78,0,0,0-.28.26.62.62,0,0,0-.1.35.7.7,0,0,0,.11.38,1.21,1.21,0,0,0,.32.32,3.53,3.53,0,0,0,.49.29c.2.1.42.19.67.3a9.46,9.46,0,0,1,.9.44,3.18,3.18,0,0,1,.69.54,2.15,2.15,0,0,1,.44.68,2.5,2.5,0,0,1,.15.9,2.37,2.37,0,0,1-.27,1.18,2,2,0,0,1-.72.77,3.15,3.15,0,0,1-1.06.43A6.62,6.62,0,0,1,192,149a7.06,7.06,0,0,1-1.32-.11A4.42,4.42,0,0,1,189.62,148.52Z"
           fill="#231f20"
           id="path10833" />
        <path
           d="M199.88,148.77a2.8,2.8,0,0,1-1.24.21c-1.3,0-1.95-.67-1.95-2V144.2h-1v-1.36h1v-1.3l1.84-.52v1.82h1.35v1.36h-1.35v2.43c0,.62.25.94.75.94a1.31,1.31,0,0,0,.6-.17Z"
           fill="#231f20"
           id="path10835" />
        <path
           d="M205.92,148.84h-1.76V148h0a2,2,0,0,1-1.79,1,1.85,1.85,0,0,1-1.37-.49,1.79,1.79,0,0,1-.5-1.32c0-1.17.69-1.84,2.07-2l1.63-.21c0-.66-.36-1-1.07-1a3.59,3.59,0,0,0-2,.64V143.2a4.62,4.62,0,0,1,1.06-.36,5.63,5.63,0,0,1,1.22-.15,2.27,2.27,0,0,1,2.57,2.56Zm-1.74-2.44V146l-1.09.14c-.61.07-.91.35-.91.81a.71.71,0,0,0,.22.52.89.89,0,0,0,.6.2,1.1,1.1,0,0,0,.85-.36A1.29,1.29,0,0,0,204.18,146.4Z"
           fill="#231f20"
           id="path10837" />
        <path
           d="M211.93,148.62a3.69,3.69,0,0,1-1.81.36,3.06,3.06,0,0,1-2.24-.83A2.91,2.91,0,0,1,207,146a3.19,3.19,0,0,1,.92-2.41,3.42,3.42,0,0,1,2.45-.88,3.26,3.26,0,0,1,1.54.28v1.57a2.12,2.12,0,0,0-1.3-.43,1.67,1.67,0,0,0-1.26.47,1.72,1.72,0,0,0-.47,1.28,1.69,1.69,0,0,0,.45,1.25,1.61,1.61,0,0,0,1.22.46,2.44,2.44,0,0,0,1.36-.44Z"
           fill="#231f20"
           id="path10839" />
        <path
           d="M219.15,148.84h-2.22l-1.91-3h0v3h-1.85V140H215v5.65h0l1.78-2.77H219l-2.15,2.82Z"
           fill="#231f20"
           id="path10841" />
        <path
           d="M230.61,148.84h-1.9v-3.42h-3.48v3.42h-1.89v-8.4h1.89v3.35h3.48v-3.35h1.9Z"
           fill="#231f20"
           id="path10843" />
        <path
           d="M238.05,148.84h-1.84v-.92h0a2.09,2.09,0,0,1-1.83,1.06c-1.39,0-2.09-.84-2.09-2.52v-3.62h1.85v3.45c0,.85.33,1.28,1,1.28a1,1,0,0,0,.8-.35,1.41,1.41,0,0,0,.3-.95v-3.43h1.84Z"
           fill="#231f20"
           id="path10845" />
        <path
           d="M241.49,148.14h0v.7h-1.85V140h1.85v3.78h0a2.2,2.2,0,0,1,1.95-1.05,2.16,2.16,0,0,1,1.79.8,3.49,3.49,0,0,1,.62,2.18,3.72,3.72,0,0,1-.73,2.41,2.4,2.4,0,0,1-2,.9A1.89,1.89,0,0,1,241.49,148.14Zm-.05-2.53v.61a1.44,1.44,0,0,0,.33,1,1.1,1.1,0,0,0,.86.38,1.16,1.16,0,0,0,1-.49,2.4,2.4,0,0,0,.35-1.39,1.9,1.9,0,0,0-.32-1.16,1.1,1.1,0,0,0-.92-.42,1.18,1.18,0,0,0-.92.42A1.57,1.57,0,0,0,241.44,145.61Z"
           fill="#231f20"
           id="path10847" />
      </g>
      <g
         id="g10863">
        <path
           d="M61.11,15V6.6h3q4.47,0,4.47,4.09a4.13,4.13,0,0,1-1.22,3.14A4.5,4.5,0,0,1,64.09,15ZM63,8.14v5.32h.94a2.54,2.54,0,0,0,1.93-.73,2.81,2.81,0,0,0,.7-2,2.55,2.55,0,0,0-.69-1.89,2.67,2.67,0,0,0-1.95-.69Z"
           fill="#1e1e1e"
           id="path10851" />
        <path
           d="M75.17,12.53H71.25c.07.87.61,1.3,1.65,1.3a3.23,3.23,0,0,0,1.74-.46V14.7a4.56,4.56,0,0,1-2.16.45,3,3,0,0,1-2.26-.81,3.08,3.08,0,0,1-.8-2.25,3.19,3.19,0,0,1,.87-2.36,2.85,2.85,0,0,1,2.13-.88,2.63,2.63,0,0,1,2,.78,3,3,0,0,1,.72,2.12Zm-1.72-1.14c0-.86-.35-1.29-1-1.29a1,1,0,0,0-.77.37,1.68,1.68,0,0,0-.4.92Z"
           fill="#1e1e1e"
           id="path10853" />
        <path
           d="M82,9l-2.23,6H77.64L75.51,9h2l1.05,3.7a6,6,0,0,1,.2,1.06h0a6.23,6.23,0,0,1,.22-1L80.05,9Z"
           fill="#1e1e1e"
           id="path10855" />
        <path
           d="M86.5,15.15A3.93,3.93,0,0,1,83.56,14a4.23,4.23,0,0,1-1.13-3.06,4.5,4.5,0,0,1,1.15-3.22,4,4,0,0,1,3.06-1.23,3.83,3.83,0,0,1,2.91,1.17,4.37,4.37,0,0,1,1.11,3.11,4.41,4.41,0,0,1-1.15,3.19A4,4,0,0,1,86.5,15.15Zm.09-7.06A1.91,1.91,0,0,0,85,8.83a3.13,3.13,0,0,0-.58,2,3.09,3.09,0,0,0,.58,2,1.91,1.91,0,0,0,1.54.72,1.89,1.89,0,0,0,1.55-.7,3,3,0,0,0,.58-2,3.3,3.3,0,0,0-.56-2A1.82,1.82,0,0,0,86.59,8.09Z"
           fill="#1e1e1e"
           id="path10857" />
        <path
           d="M93.75,14.3h0v3.46H91.87V9h1.85v.9h0a2.16,2.16,0,0,1,1.92-1.05,2.2,2.2,0,0,1,1.81.8,3.45,3.45,0,0,1,.63,2.18,3.67,3.67,0,0,1-.74,2.41,2.43,2.43,0,0,1-2,.91A1.86,1.86,0,0,1,93.75,14.3Zm-.06-2.46v.48a1.54,1.54,0,0,0,.33,1,1.08,1.08,0,0,0,.86.39,1.14,1.14,0,0,0,1-.49,2.4,2.4,0,0,0,.34-1.39c0-1-.41-1.58-1.23-1.58a1.18,1.18,0,0,0-.93.43A1.73,1.73,0,0,0,93.69,11.84Z"
           fill="#1e1e1e"
           id="path10859" />
        <path
           d="M98.92,14.84v-1.5a3.82,3.82,0,0,0,.91.41,3,3,0,0,0,.86.14,1.84,1.84,0,0,0,.78-.14.42.42,0,0,0,.28-.41.36.36,0,0,0-.13-.29,1,1,0,0,0-.33-.21,3.76,3.76,0,0,0-.44-.15c-.16,0-.32-.1-.46-.16a4.68,4.68,0,0,1-.63-.29,1.94,1.94,0,0,1-.46-.36A1.44,1.44,0,0,1,99,11.4a1.76,1.76,0,0,1-.1-.64,1.6,1.6,0,0,1,.22-.86,1.78,1.78,0,0,1,.59-.6,2.68,2.68,0,0,1,.83-.34,4.62,4.62,0,0,1,1-.11,4.4,4.4,0,0,1,.8.07,6.83,6.83,0,0,1,.81.17v1.43a2.74,2.74,0,0,0-.75-.3,3.13,3.13,0,0,0-.79-.11,1.27,1.27,0,0,0-.34,0,1,1,0,0,0-.28.09.46.46,0,0,0-.2.16.34.34,0,0,0-.07.22.41.41,0,0,0,.11.28,1,1,0,0,0,.27.2,2.15,2.15,0,0,0,.38.15l.41.14a6.16,6.16,0,0,1,.67.28,1.94,1.94,0,0,1,.51.36,1.29,1.29,0,0,1,.33.48,1.62,1.62,0,0,1,.12.66,1.67,1.67,0,0,1-.24.91,1.78,1.78,0,0,1-.61.61,2.72,2.72,0,0,1-.89.35,5,5,0,0,1-1,.11A5.41,5.41,0,0,1,98.92,14.84Z"
           fill="#1e1e1e"
           id="path10861" />
      </g>
      <g
         id="g10909">
        <path
           d="M313.62,16.44h-2.06l-.6-1.86h-3l-.59,1.86h-2.05L308.39,8h2.24Zm-3.1-3.32-.9-2.82a4.33,4.33,0,0,1-.14-.76h-.05a2.62,2.62,0,0,1-.14.73l-.92,2.85Z"
           fill="#1e1e1e"
           id="path10865" />
        <path
           d="M319.24,16.44h-5.39v-.76l3-3.87h-2.71V10.44h5.06v.92l-2.85,3.72h2.88Z"
           fill="#1e1e1e"
           id="path10867" />
        <path
           d="M325.93,16.44h-1.84v-.91h0a2.09,2.09,0,0,1-1.83,1.06c-1.4,0-2.09-.84-2.09-2.52V10.44H322V13.9c0,.85.33,1.27,1,1.27a1,1,0,0,0,.8-.35,1.38,1.38,0,0,0,.3-.94V10.44h1.84Z"
           fill="#1e1e1e"
           id="path10869" />
        <path
           d="M331.41,12.11a1.66,1.66,0,0,0-.78-.18,1.14,1.14,0,0,0-.95.45,1.94,1.94,0,0,0-.34,1.2v2.86h-1.85v-6h1.85v1.12h0A1.6,1.6,0,0,1,331,10.34a1.14,1.14,0,0,1,.46.07Z"
           fill="#1e1e1e"
           id="path10871" />
        <path
           d="M337.61,14H333.7c.06.87.61,1.31,1.64,1.31a3.24,3.24,0,0,0,1.74-.47v1.34a4.63,4.63,0,0,1-2.16.44,3,3,0,0,1-2.25-.8,3,3,0,0,1-.81-2.25,3.2,3.2,0,0,1,.87-2.37,2.9,2.9,0,0,1,2.13-.87,2.6,2.6,0,0,1,2,.78,3,3,0,0,1,.72,2.11Zm-1.71-1.13q0-1.29-1-1.29a1,1,0,0,0-.77.37,1.64,1.64,0,0,0-.39.92Z"
           fill="#1e1e1e"
           id="path10873" />
        <path
           d="M298.47,29.32V27.45a3.59,3.59,0,0,0,2.32.85,2.9,2.9,0,0,0,.62-.06,1.32,1.32,0,0,0,.45-.18,1,1,0,0,0,.26-.27.67.67,0,0,0,.09-.34.77.77,0,0,0-.14-.44,1.63,1.63,0,0,0-.38-.35,4.44,4.44,0,0,0-.58-.32l-.72-.31a3.65,3.65,0,0,1-1.47-1,2.46,2.46,0,0,1-.22-2.56,2.44,2.44,0,0,1,.72-.78,3.11,3.11,0,0,1,1.05-.44,5.2,5.2,0,0,1,1.27-.15,8,8,0,0,1,1.16.08,4.22,4.22,0,0,1,.93.24v1.76a2.28,2.28,0,0,0-.46-.26,2.82,2.82,0,0,0-.51-.19,5.27,5.27,0,0,0-.52-.1,3,3,0,0,0-.5,0,2.74,2.74,0,0,0-.59.06,1.62,1.62,0,0,0-.44.17.91.91,0,0,0-.28.27.6.6,0,0,0-.1.35.7.7,0,0,0,.11.38,1.19,1.19,0,0,0,.32.31,3.5,3.5,0,0,0,.49.3l.67.29a7.55,7.55,0,0,1,.9.45,3.18,3.18,0,0,1,.69.54,2,2,0,0,1,.44.68,2.77,2.77,0,0,1-.11,2.07,2.18,2.18,0,0,1-.73.78,2.94,2.94,0,0,1-1.06.42,5.91,5.91,0,0,1-1.28.13,7,7,0,0,1-1.32-.12A3.7,3.7,0,0,1,298.47,29.32Z"
           fill="#1e1e1e"
           id="path10875" />
        <path
           d="M308.26,29.79A3.24,3.24,0,0,1,305.9,29a3,3,0,0,1-.85-2.28,3,3,0,0,1,.89-2.33,3.34,3.34,0,0,1,2.4-.84,3.2,3.2,0,0,1,2.35.84,3,3,0,0,1,.85,2.22,3.13,3.13,0,0,1-.88,2.36A3.24,3.24,0,0,1,308.26,29.79Zm.05-4.87a1.23,1.23,0,0,0-1,.45,2,2,0,0,0-.36,1.28c0,1.15.46,1.72,1.39,1.72s1.33-.59,1.33-1.77S309.2,24.92,308.31,24.92Z"
           fill="#1e1e1e"
           id="path10877" />
        <path
           d="M314.59,29.65h-1.85V20.76h1.85Z"
           fill="#1e1e1e"
           id="path10879" />
        <path
           d="M321.85,29.65H320v-.92h0a2.09,2.09,0,0,1-1.84,1.06c-1.39,0-2.08-.84-2.08-2.52V23.65h1.84V27.1c0,.85.34,1.27,1,1.27a1,1,0,0,0,.8-.35,1.37,1.37,0,0,0,.29-.94V23.65h1.85Z"
           fill="#1e1e1e"
           id="path10881" />
        <path
           d="M327,29.57a2.7,2.7,0,0,1-1.24.22,1.77,1.77,0,0,1-2-2V25h-1V23.65h1v-1.3l1.85-.53v1.83H327V25h-1.35v2.43c0,.62.25.93.74.93a1.2,1.2,0,0,0,.61-.17Z"
           fill="#1e1e1e"
           id="path10883" />
        <path
           d="M329,22.7a1.1,1.1,0,0,1-.77-.28.92.92,0,0,1-.3-.69.85.85,0,0,1,.3-.67,1.1,1.1,0,0,1,.77-.27,1.11,1.11,0,0,1,.77.27.87.87,0,0,1,.29.67.92.92,0,0,1-.29.7A1.11,1.11,0,0,1,329,22.7Zm.91,7h-1.85v-6h1.85Z"
           fill="#1e1e1e"
           id="path10885" />
        <path
           d="M334.35,29.79A3.23,3.23,0,0,1,332,29a3.05,3.05,0,0,1-.86-2.28,3.07,3.07,0,0,1,.89-2.33,3.38,3.38,0,0,1,2.41-.84,3.16,3.16,0,0,1,2.34.84,3,3,0,0,1,.85,2.22,3.16,3.16,0,0,1-.87,2.36A3.27,3.27,0,0,1,334.35,29.79Zm0-4.87a1.23,1.23,0,0,0-1,.45,1.93,1.93,0,0,0-.37,1.28c0,1.15.47,1.72,1.4,1.72s1.33-.59,1.33-1.77S335.29,24.92,334.4,24.92Z"
           fill="#1e1e1e"
           id="path10887" />
        <path
           d="M344.62,29.65h-1.85V26.31c0-.93-.33-1.39-1-1.39a1,1,0,0,0-.79.37,1.36,1.36,0,0,0-.31.93v3.43h-1.85v-6h1.85v.94h0a2.11,2.11,0,0,1,1.93-1.09c1.33,0,2,.82,2,2.47Z"
           fill="#1e1e1e"
           id="path10889" />
        <path
           d="M304.4,42.84h-2.06l-.6-1.86h-3l-.59,1.86h-2.05l3.06-8.4h2.24Zm-3.1-3.32-.9-2.82a4.33,4.33,0,0,1-.14-.76h-.05a2.62,2.62,0,0,1-.14.73l-.92,2.85Z"
           fill="#1e1e1e"
           id="path10891" />
        <path
           d="M309.18,38.51a1.61,1.61,0,0,0-.78-.18,1.1,1.1,0,0,0-.94.45,1.88,1.88,0,0,0-.34,1.2v2.86h-1.85v-6h1.85V38h0a1.6,1.6,0,0,1,1.58-1.22,1.14,1.14,0,0,1,.46.07Z"
           fill="#1e1e1e"
           id="path10893" />
        <path
           d="M314.54,42.63a3.69,3.69,0,0,1-1.81.36,3.06,3.06,0,0,1-2.24-.84,2.89,2.89,0,0,1-.85-2.16,3.19,3.19,0,0,1,.91-2.41A3.4,3.4,0,0,1,313,36.7a3.12,3.12,0,0,1,1.53.28v1.57a2.11,2.11,0,0,0-1.29-.43,1.71,1.71,0,0,0-1.27.46,2,2,0,0,0,0,2.54,1.66,1.66,0,0,0,1.23.45,2.42,2.42,0,0,0,1.35-.43Z"
           fill="#1e1e1e"
           id="path10895" />
        <path
           d="M321.51,42.84h-1.84V39.43c0-.87-.32-1.31-1-1.31a1,1,0,0,0-.8.37,1.4,1.4,0,0,0-.3.93v3.42h-1.86V34h1.86v3.78h0a2.08,2.08,0,0,1,1.84-1q2,0,2,2.46Z"
           fill="#1e1e1e"
           id="path10897" />
        <path
           d="M323.92,35.9a1.1,1.1,0,0,1-.77-.28.92.92,0,0,1-.3-.69.88.88,0,0,1,.3-.68,1.14,1.14,0,0,1,.77-.26,1.16,1.16,0,0,1,.77.26.91.91,0,0,1,.29.68.92.92,0,0,1-.29.7A1.11,1.11,0,0,1,323.92,35.9Zm.91,6.94H323v-6h1.85Z"
           fill="#1e1e1e"
           id="path10899" />
        <path
           d="M330,42.77a2.7,2.7,0,0,1-1.24.22,1.76,1.76,0,0,1-2-2V38.21h-1V36.84h1V35.55l1.85-.53v1.82H330v1.37h-1.35v2.43c0,.62.25.93.74.93a1.2,1.2,0,0,0,.61-.17Z"
           fill="#1e1e1e"
           id="path10901" />
        <path
           d="M336.4,40.37h-3.91c.06.87.61,1.31,1.64,1.31a3.27,3.27,0,0,0,1.75-.47v1.34a4.7,4.7,0,0,1-2.17.44,2.79,2.79,0,0,1-3.06-3.05,3.2,3.2,0,0,1,.87-2.37,2.9,2.9,0,0,1,2.13-.87,2.6,2.6,0,0,1,2,.78,3,3,0,0,1,.72,2.11Zm-1.71-1.13q0-1.29-1.05-1.29a1,1,0,0,0-.77.37,1.64,1.64,0,0,0-.39.92Z"
           fill="#1e1e1e"
           id="path10903" />
        <path
           d="M342.05,42.63a3.69,3.69,0,0,1-1.81.36,3.06,3.06,0,0,1-2.24-.84,2.89,2.89,0,0,1-.85-2.16,3.19,3.19,0,0,1,.91-2.41,3.39,3.39,0,0,1,2.46-.88,3.12,3.12,0,0,1,1.53.28v1.57a2.11,2.11,0,0,0-1.29-.43,1.71,1.71,0,0,0-1.27.46,2,2,0,0,0,0,2.54,1.66,1.66,0,0,0,1.23.45,2.42,2.42,0,0,0,1.35-.43Z"
           fill="#1e1e1e"
           id="path10905" />
        <path
           d="M346.89,42.77a2.64,2.64,0,0,1-1.24.22c-1.3,0-1.95-.68-1.95-2V38.21h-1V36.84h1V35.55l1.84-.53v1.82h1.35v1.37h-1.35v2.43q0,.93.75.93a1.19,1.19,0,0,0,.6-.17Z"
           fill="#1e1e1e"
           id="path10907" />
      </g>
      <g
         id="g10967">
        <path
           d="M3.49,32H2.64A7.5,7.5,0,0,1,.82,26.85a7.77,7.77,0,0,1,1.82-5.19H3.5a7.91,7.91,0,0,0-1.84,5.18A7.75,7.75,0,0,0,3.49,32Z"
           fill="#1e1e1e"
           id="path10911" />
        <path
           d="M11.5,30.06H10.29L6,23.36a3.26,3.26,0,0,1-.26-.53h0a8.79,8.79,0,0,1,0,1.16v6.07h-1v-8.4H6l4.21,6.59c.17.27.29.46.34.56h0a8.65,8.65,0,0,1-.06-1.24V21.66h1Z"
           fill="#1e1e1e"
           id="path10913" />
        <path
           d="M16.08,30.2A2.79,2.79,0,0,1,14,29.36a3.12,3.12,0,0,1-.79-2.23A3.23,3.23,0,0,1,14,24.77a3,3,0,0,1,2.23-.85,2.68,2.68,0,0,1,2.09.82,3.26,3.26,0,0,1,.76,2.3,3.17,3.17,0,0,1-.82,2.29A2.82,2.82,0,0,1,16.08,30.2Zm.07-5.47a1.84,1.84,0,0,0-1.47.63,2.58,2.58,0,0,0-.54,1.73,2.49,2.49,0,0,0,.55,1.69,1.85,1.85,0,0,0,1.46.61,1.75,1.75,0,0,0,1.43-.6,2.61,2.61,0,0,0,.5-1.72,2.61,2.61,0,0,0-.5-1.73A1.73,1.73,0,0,0,16.15,24.73Z"
           fill="#1e1e1e"
           id="path10915" />
        <path
           d="M25.72,30.06h-1V29h0a2.42,2.42,0,0,1-3.87.35,3.28,3.28,0,0,1-.68-2.19,3.62,3.62,0,0,1,.75-2.39,2.5,2.5,0,0,1,2-.89,1.93,1.93,0,0,1,1.8,1h0V21.18h1Zm-1-2.71v-.89a1.73,1.73,0,0,0-.48-1.23,1.6,1.6,0,0,0-1.22-.5,1.66,1.66,0,0,0-1.38.64,2.79,2.79,0,0,0-.5,1.78,2.56,2.56,0,0,0,.48,1.64,1.57,1.57,0,0,0,1.3.6,1.63,1.63,0,0,0,1.3-.58A2.17,2.17,0,0,0,24.76,27.35Z"
           fill="#1e1e1e"
           id="path10917" />
        <path
           d="M32.49,27.3H28.25a2.3,2.3,0,0,0,.54,1.55,1.88,1.88,0,0,0,1.42.54,2.89,2.89,0,0,0,1.86-.67v.91A3.47,3.47,0,0,1,30,30.2a2.53,2.53,0,0,1-2-.82,3.35,3.35,0,0,1-.72-2.3,3.28,3.28,0,0,1,.79-2.28,2.54,2.54,0,0,1,2-.88,2.26,2.26,0,0,1,1.83.76,3.17,3.17,0,0,1,.64,2.11Zm-1-.82a2,2,0,0,0-.41-1.29A1.35,1.35,0,0,0,30,24.73a1.57,1.57,0,0,0-1.16.48,2.24,2.24,0,0,0-.58,1.27Z"
           fill="#1e1e1e"
           id="path10919" />
        <path
           d="M34.28,30.19a.61.61,0,0,1-.46-.2.6.6,0,0,1-.19-.46.62.62,0,0,1,.19-.46.58.58,0,0,1,.46-.2.67.67,0,0,1,.66.66.6.6,0,0,1-.19.46A.65.65,0,0,1,34.28,30.19Z"
           fill="#1e1e1e"
           id="path10921" />
        <path
           d="M37.51,29.81a3.72,3.72,0,0,1-.6,2.27,2,2,0,0,1-1.7.8,1.9,1.9,0,0,1-.8-.18v-.9a1.63,1.63,0,0,0,.82.26c.88,0,1.31-.7,1.31-2.1v-5.9h1ZM37,22.54a.6.6,0,0,1-.44-.18.61.61,0,0,1-.18-.45.57.57,0,0,1,.18-.44.6.6,0,0,1,.44-.18.64.64,0,0,1,.45.18.57.57,0,0,1,.18.44.59.59,0,0,1-.18.44A.65.65,0,0,1,37,22.54Z"
           fill="#1e1e1e"
           id="path10923" />
        <path
           d="M39.09,29.84v-1a2.82,2.82,0,0,0,1.73.58q1.26,0,1.26-.84a.68.68,0,0,0-.11-.41,1.17,1.17,0,0,0-.29-.3,2.86,2.86,0,0,0-.43-.23l-.54-.21c-.26-.11-.5-.21-.7-.32a2.22,2.22,0,0,1-.5-.36,1.38,1.38,0,0,1-.31-.46,1.66,1.66,0,0,1-.1-.61,1.38,1.38,0,0,1,.19-.74,1.7,1.7,0,0,1,.52-.55,2.21,2.21,0,0,1,.73-.33,3.49,3.49,0,0,1,.86-.11,3.41,3.41,0,0,1,1.39.27v1a2.7,2.7,0,0,0-1.52-.43,1.88,1.88,0,0,0-.49.06,1.26,1.26,0,0,0-.37.17.88.88,0,0,0-.24.27.67.67,0,0,0-.09.34.75.75,0,0,0,.09.39.83.83,0,0,0,.25.28,1.68,1.68,0,0,0,.4.23l.53.21c.27.11.5.21.71.32a2,2,0,0,1,.54.36,1.37,1.37,0,0,1,.47,1.09,1.51,1.51,0,0,1-.2.78,1.68,1.68,0,0,1-.52.54,2.26,2.26,0,0,1-.76.32,3.76,3.76,0,0,1-.9.11A3.37,3.37,0,0,1,39.09,29.84Z"
           fill="#1e1e1e"
           id="path10925" />
        <path
           d="M51.62,21.66l-4,9.79h-.9l4-9.79Z"
           fill="#1e1e1e"
           id="path10927" />
        <path
           d="M56.13,30.19a.61.61,0,0,1-.46-.2.6.6,0,0,1-.19-.46.62.62,0,0,1,.19-.46.58.58,0,0,1,.46-.2.61.61,0,0,1,.47.2.66.66,0,0,1,.19.46.64.64,0,0,1-.19.46A.65.65,0,0,1,56.13,30.19Z"
           fill="#1e1e1e"
           id="path10929" />
        <path
           d="M65.3,30.06H64.09l-4.32-6.7a2.65,2.65,0,0,1-.27-.53h0a8.79,8.79,0,0,1,0,1.16v6.07h-1v-8.4H59.8L64,28.25c.17.27.29.46.34.56h0a8.65,8.65,0,0,1-.06-1.24V21.66h1Z"
           fill="#1e1e1e"
           id="path10931" />
        <path
           d="M72,30.06H67.5v-8.4h4.27v.89H68.48v2.79h3v.89h-3v2.94H72Z"
           fill="#1e1e1e"
           id="path10933" />
        <path
           d="M78.54,22.55H76.11v7.51h-1V22.55H72.71v-.89h5.83Z"
           fill="#1e1e1e"
           id="path10935" />
        <path
           d="M86.81,21.66l-4,9.79h-.9l4-9.79Z"
           fill="#1e1e1e"
           id="path10937" />
        <path
           d="M91.31,30.19a.63.63,0,0,1-.46-.2.64.64,0,0,1-.19-.46.66.66,0,0,1,.19-.46.59.59,0,0,1,.46-.2.6.6,0,0,1,.47.2.62.62,0,0,1,.19.46.6.6,0,0,1-.19.46A.63.63,0,0,1,91.31,30.19Z"
           fill="#1e1e1e"
           id="path10939" />
        <path
           d="M93.91,30.19a.63.63,0,0,1-.46-.2.64.64,0,0,1-.19-.46.66.66,0,0,1,.19-.46.59.59,0,0,1,.46-.2.6.6,0,0,1,.47.2.63.63,0,0,1,.2.46.61.61,0,0,1-.2.46A.63.63,0,0,1,93.91,30.19Z"
           fill="#1e1e1e"
           id="path10941" />
        <path
           d="M96.52,30.19a.61.61,0,0,1-.46-.2.6.6,0,0,1-.19-.46.62.62,0,0,1,.19-.46.63.63,0,0,1,.92,0,.63.63,0,0,1,.2.46.68.68,0,0,1-.66.66Z"
           fill="#1e1e1e"
           id="path10943" />
        <path
           d="M102.2,30.06v-8.4h2.32q4.44,0,4.44,4.09a4.14,4.14,0,0,1-1.23,3.13,4.57,4.57,0,0,1-3.3,1.18Zm1-7.51v6.62h1.26a3.55,3.55,0,0,0,2.57-.89,3.31,3.31,0,0,0,.92-2.5c0-2.16-1.14-3.23-3.43-3.23Z"
           fill="#1e1e1e"
           id="path10945" />
        <path
           d="M115.31,27.3h-4.24a2.3,2.3,0,0,0,.54,1.55,1.87,1.87,0,0,0,1.42.54,2.93,2.93,0,0,0,1.86-.67v.91a3.5,3.5,0,0,1-2.09.57,2.53,2.53,0,0,1-2-.82,3.36,3.36,0,0,1-.73-2.3,3.29,3.29,0,0,1,.8-2.28,2.53,2.53,0,0,1,2-.88,2.24,2.24,0,0,1,1.82.76,3.17,3.17,0,0,1,.65,2.11Zm-1-.82a2,2,0,0,0-.4-1.29,1.36,1.36,0,0,0-1.1-.46,1.55,1.55,0,0,0-1.15.48,2.25,2.25,0,0,0-.59,1.27Z"
           fill="#1e1e1e"
           id="path10947" />
        <path
           d="M121.48,24.06l-2.39,6h-1l-2.27-6h1l1.53,4.36a4.27,4.27,0,0,1,.21.84h0a3.8,3.8,0,0,1,.19-.82l1.59-4.38Z"
           fill="#1e1e1e"
           id="path10949" />
        <path
           d="M127.33,27.3h-4.24a2.3,2.3,0,0,0,.54,1.55,1.88,1.88,0,0,0,1.42.54,2.89,2.89,0,0,0,1.86-.67v.91a3.47,3.47,0,0,1-2.09.57,2.53,2.53,0,0,1-2-.82,3.35,3.35,0,0,1-.72-2.3,3.28,3.28,0,0,1,.79-2.28,2.54,2.54,0,0,1,2-.88,2.26,2.26,0,0,1,1.83.76,3.17,3.17,0,0,1,.64,2.11Zm-1-.82a2,2,0,0,0-.41-1.29,1.35,1.35,0,0,0-1.09-.46,1.57,1.57,0,0,0-1.16.48,2.24,2.24,0,0,0-.58,1.27Z"
           fill="#1e1e1e"
           id="path10951" />
        <path
           d="M129.74,30.06h-1V21.18h1Z"
           fill="#1e1e1e"
           id="path10953" />
        <path
           d="M134.2,30.2a2.79,2.79,0,0,1-2.13-.84,3.12,3.12,0,0,1-.79-2.23,3.19,3.19,0,0,1,.83-2.36,3,3,0,0,1,2.23-.85,2.68,2.68,0,0,1,2.09.82,3.3,3.3,0,0,1,.76,2.3,3.17,3.17,0,0,1-.82,2.29A2.82,2.82,0,0,1,134.2,30.2Zm.07-5.47a1.84,1.84,0,0,0-1.47.63,2.58,2.58,0,0,0-.54,1.73,2.49,2.49,0,0,0,.55,1.69,1.85,1.85,0,0,0,1.46.61,1.75,1.75,0,0,0,1.43-.6,2.67,2.67,0,0,0,.5-1.72,2.66,2.66,0,0,0-.5-1.73A1.73,1.73,0,0,0,134.27,24.73Z"
           fill="#1e1e1e"
           id="path10955" />
        <path
           d="M139.71,29.19h0v3.63h-1V24.06h1v1.05h0a2.27,2.27,0,0,1,2.07-1.19,2.21,2.21,0,0,1,1.81.8,3.37,3.37,0,0,1,.65,2.16,3.69,3.69,0,0,1-.73,2.41,2.44,2.44,0,0,1-2,.91A2,2,0,0,1,139.71,29.19Zm0-2.42v.84a1.73,1.73,0,0,0,.49,1.26,1.58,1.58,0,0,0,1.22.52,1.6,1.6,0,0,0,1.37-.67,3,3,0,0,0,.5-1.85,2.44,2.44,0,0,0-.47-1.58,1.54,1.54,0,0,0-1.25-.56,1.7,1.7,0,0,0-1.35.58A2.15,2.15,0,0,0,139.68,26.77Z"
           fill="#1e1e1e"
           id="path10957" />
        <path
           d="M150.6,27.3h-4.24a2.3,2.3,0,0,0,.54,1.55,1.87,1.87,0,0,0,1.42.54,2.91,2.91,0,0,0,1.86-.67v.91a3.5,3.5,0,0,1-2.09.57,2.53,2.53,0,0,1-2-.82,3.35,3.35,0,0,1-.72-2.3,3.28,3.28,0,0,1,.79-2.28,2.54,2.54,0,0,1,2-.88,2.24,2.24,0,0,1,1.82.76,3.17,3.17,0,0,1,.65,2.11Zm-1-.82a1.9,1.9,0,0,0-.4-1.29,1.36,1.36,0,0,0-1.1-.46,1.56,1.56,0,0,0-1.15.48,2.25,2.25,0,0,0-.59,1.27Z"
           fill="#1e1e1e"
           id="path10959" />
        <path
           d="M155.18,25a1.18,1.18,0,0,0-.73-.19,1.23,1.23,0,0,0-1,.58A2.7,2.7,0,0,0,153,27v3.06h-1v-6h1v1.23h0a2,2,0,0,1,.62-1,1.43,1.43,0,0,1,1-.36,1.41,1.41,0,0,1,.57.09Z"
           fill="#1e1e1e"
           id="path10961" />
        <path
           d="M155.86,29.84v-1a2.82,2.82,0,0,0,1.73.58q1.26,0,1.26-.84a.76.76,0,0,0-.1-.41,1.22,1.22,0,0,0-.3-.3,2.86,2.86,0,0,0-.43-.23l-.54-.21c-.26-.11-.5-.21-.7-.32a2.22,2.22,0,0,1-.5-.36,1.38,1.38,0,0,1-.31-.46,1.9,1.9,0,0,1-.1-.61,1.48,1.48,0,0,1,.19-.74,1.82,1.82,0,0,1,.52-.55,2.17,2.17,0,0,1,.74-.33,3.56,3.56,0,0,1,2.24.16v1a2.7,2.7,0,0,0-1.52-.43,1.88,1.88,0,0,0-.49.06,1.26,1.26,0,0,0-.37.17.88.88,0,0,0-.24.27.66.66,0,0,0-.08.34.75.75,0,0,0,.08.39.83.83,0,0,0,.25.28,1.68,1.68,0,0,0,.4.23l.53.21c.27.11.51.21.72.32a2.42,2.42,0,0,1,.54.36,1.57,1.57,0,0,1,.34.47,1.46,1.46,0,0,1,.12.62,1.51,1.51,0,0,1-.2.78,1.58,1.58,0,0,1-.52.54,2.26,2.26,0,0,1-.76.32,3.7,3.7,0,0,1-.9.11A3.37,3.37,0,0,1,155.86,29.84Z"
           fill="#1e1e1e"
           id="path10963" />
        <path
           d="M161.34,32h-.86a7.75,7.75,0,0,0,1.83-5.13,7.86,7.86,0,0,0-1.84-5.18h.87a7.73,7.73,0,0,1,1.83,5.19A7.46,7.46,0,0,1,161.34,32Z"
           fill="#1e1e1e"
           id="path10965" />
      </g>
      <g
         id="g11007">
        <path
           d="M34,45H32.88L32,42.64H28.43L27.59,45h-1.1l3.23-8.4h1Zm-2.3-3.24-1.32-3.58a3.38,3.38,0,0,1-.13-.56h0a3.23,3.23,0,0,1-.14.56l-1.31,3.58Z"
           fill="#1e1e1e"
           id="path10969" />
        <path
           d="M39.26,39.28l-3.55,4.9h3.52V45H34.3v-.3l3.55-4.88H34.63V39h4.63Z"
           fill="#1e1e1e"
           id="path10971" />
        <path
           d="M45.35,45h-1v-1h0a2,2,0,0,1-1.85,1.09c-1.43,0-2.15-.85-2.15-2.55V39h1v3.43c0,1.27.48,1.9,1.45,1.9a1.46,1.46,0,0,0,1.16-.52,2,2,0,0,0,.45-1.35V39h1Z"
           fill="#1e1e1e"
           id="path10973" />
        <path
           d="M50.42,40a1.16,1.16,0,0,0-.72-.19,1.21,1.21,0,0,0-1,.58,2.64,2.64,0,0,0-.42,1.58V45h-1V39h1v1.24h0a2,2,0,0,1,.63-1A1.54,1.54,0,0,1,50.42,39Z"
           fill="#1e1e1e"
           id="path10975" />
        <path
           d="M56.29,42.24H52.05a2.3,2.3,0,0,0,.54,1.55,1.87,1.87,0,0,0,1.42.54,2.91,2.91,0,0,0,1.86-.67v.91a3.5,3.5,0,0,1-2.09.57,2.53,2.53,0,0,1-2-.82,3.35,3.35,0,0,1-.72-2.3,3.28,3.28,0,0,1,.79-2.28,2.54,2.54,0,0,1,2-.88,2.24,2.24,0,0,1,1.82.76,3.18,3.18,0,0,1,.65,2.12Zm-1-.81a1.91,1.91,0,0,0-.4-1.3,1.36,1.36,0,0,0-1.1-.46,1.56,1.56,0,0,0-1.15.48,2.25,2.25,0,0,0-.59,1.28Z"
           fill="#1e1e1e"
           id="path10977" />
        <path
           d="M67.66,45H66.57l-.89-2.36H62.12L61.28,45h-1.1l3.23-8.4h1Zm-2.3-3.24L64,38.18a3.38,3.38,0,0,1-.13-.56h0a3.23,3.23,0,0,1-.14.56l-1.3,3.58Z"
           fill="#1e1e1e"
           id="path10979" />
        <path
           d="M73.89,45h-1V44h0a2.42,2.42,0,0,1-3.87.35,3.23,3.23,0,0,1-.68-2.19,3.57,3.57,0,0,1,.75-2.38,2.46,2.46,0,0,1,2-.9,1.93,1.93,0,0,1,1.8,1h0V36.12h1Zm-1-2.71V41.4a1.73,1.73,0,0,0-.48-1.23,1.78,1.78,0,0,0-2.6.14,2.81,2.81,0,0,0-.51,1.78,2.49,2.49,0,0,0,.49,1.64,1.57,1.57,0,0,0,1.29.6,1.65,1.65,0,0,0,1.31-.58A2.16,2.16,0,0,0,72.93,42.29Z"
           fill="#1e1e1e"
           id="path10981" />
        <path
           d="M84.35,45h-1V41.55a2.66,2.66,0,0,0-.3-1.44,1.19,1.19,0,0,0-1-.44,1.27,1.27,0,0,0-1,.56,2.14,2.14,0,0,0-.43,1.35V45h-1V41.44c0-1.18-.45-1.77-1.36-1.77a1.24,1.24,0,0,0-1,.53,2.14,2.14,0,0,0-.41,1.38V45h-1V39h1v1h0a2,2,0,0,1,1.86-1.09,1.73,1.73,0,0,1,1.7,1.24,2.14,2.14,0,0,1,2-1.24c1.32,0,2,.81,2,2.44Z"
           fill="#1e1e1e"
           id="path10983" />
        <path
           d="M86.66,37.48a.6.6,0,0,1-.44-.18.59.59,0,0,1-.18-.44.61.61,0,0,1,.18-.45.6.6,0,0,1,.44-.18.61.61,0,0,1,.45.18.62.62,0,0,1,.19.45.59.59,0,0,1-.19.43A.58.58,0,0,1,86.66,37.48ZM87.13,45h-1V39h1Z"
           fill="#1e1e1e"
           id="path10985" />
        <path
           d="M94.06,45h-1V41.58c0-1.28-.47-1.91-1.4-1.91a1.5,1.5,0,0,0-1.19.54A2,2,0,0,0,90,41.58V45h-1V39h1v1h0a2.16,2.16,0,0,1,2-1.14,1.83,1.83,0,0,1,1.51.64,2.85,2.85,0,0,1,.52,1.83Z"
           fill="#1e1e1e"
           id="path10987" />
        <path
           d="M96.36,37.48a.6.6,0,0,1-.44-.18.59.59,0,0,1-.18-.44.61.61,0,0,1,.18-.45.6.6,0,0,1,.44-.18.62.62,0,0,1,.63.63.63.63,0,0,1-.63.62ZM96.83,45h-1V39h1Z"
           fill="#1e1e1e"
           id="path10989" />
        <path
           d="M98.41,44.78v-1a2.82,2.82,0,0,0,1.73.58c.84,0,1.27-.28,1.27-.84a.76.76,0,0,0-.11-.41,1,1,0,0,0-.3-.29,1.94,1.94,0,0,0-.43-.24l-.54-.21c-.26-.11-.49-.21-.7-.32a2.22,2.22,0,0,1-.5-.36,1.35,1.35,0,0,1-.3-.46,1.62,1.62,0,0,1-.11-.61,1.39,1.39,0,0,1,.2-.74,1.78,1.78,0,0,1,.51-.55,2.49,2.49,0,0,1,.74-.33,3.56,3.56,0,0,1,2.24.16v1a2.68,2.68,0,0,0-1.52-.43,1.88,1.88,0,0,0-.49.06,1.4,1.4,0,0,0-.37.17,1,1,0,0,0-.24.27.77.77,0,0,0-.08.34.87.87,0,0,0,.08.39,1,1,0,0,0,.25.29,2.11,2.11,0,0,0,.4.22l.53.22a6.21,6.21,0,0,1,.72.31,2.82,2.82,0,0,1,.54.36,1.41,1.41,0,0,1,.34.47,1.46,1.46,0,0,1,.12.62,1.51,1.51,0,0,1-.2.78,1.58,1.58,0,0,1-.52.54,2.5,2.5,0,0,1-.76.33,3.68,3.68,0,0,1-.89.1A3.39,3.39,0,0,1,98.41,44.78Z"
           fill="#1e1e1e"
           id="path10991" />
        <path
           d="M106.65,44.94a1.82,1.82,0,0,1-.9.19c-1,0-1.57-.59-1.57-1.76V39.82h-1V39h1V37.54l1-.32V39h1.51v.82h-1.51V43.2a1.45,1.45,0,0,0,.2.86.84.84,0,0,0,.68.26,1.05,1.05,0,0,0,.63-.2Z"
           fill="#1e1e1e"
           id="path10993" />
        <path
           d="M111.06,40a1.18,1.18,0,0,0-.73-.19,1.2,1.2,0,0,0-1,.58,2.64,2.64,0,0,0-.42,1.58V45h-1V39h1v1.24h0a2,2,0,0,1,.62-1,1.45,1.45,0,0,1,.95-.36,1.41,1.41,0,0,1,.57.09Z"
           fill="#1e1e1e"
           id="path10995" />
        <path
           d="M116.4,45h-1v-.94h0a2,2,0,0,1-1.85,1.08,2,2,0,0,1-1.4-.47,1.65,1.65,0,0,1-.51-1.26c0-1.12.66-1.78,2-2l1.8-.25c0-1-.41-1.53-1.24-1.53a2.9,2.9,0,0,0-2,.74v-1a3.7,3.7,0,0,1,2-.56c1.41,0,2.12.75,2.12,2.24Zm-1-3-1.45.2a2.48,2.48,0,0,0-1,.34,1,1,0,0,0-.34.84.9.9,0,0,0,.32.71,1.18,1.18,0,0,0,.83.28,1.51,1.51,0,0,0,1.18-.5,1.8,1.8,0,0,0,.47-1.27Z"
           fill="#1e1e1e"
           id="path10997" />
        <path
           d="M121,44.94a1.76,1.76,0,0,1-.89.19c-1,0-1.58-.59-1.58-1.76V39.82h-1V39h1V37.54l1-.32V39H121v.82h-1.51V43.2a1.37,1.37,0,0,0,.21.86.81.81,0,0,0,.68.26,1,1,0,0,0,.62-.2Z"
           fill="#1e1e1e"
           id="path10999" />
        <path
           d="M124.78,45.14a2.79,2.79,0,0,1-2.12-.84,3.1,3.1,0,0,1-.79-2.23,3.24,3.24,0,0,1,.82-2.36,3,3,0,0,1,2.23-.85,2.66,2.66,0,0,1,2.1.83,3.77,3.77,0,0,1-.06,4.59A2.87,2.87,0,0,1,124.78,45.14Zm.07-5.47a1.83,1.83,0,0,0-1.46.63,2.59,2.59,0,0,0-.54,1.74,2.41,2.41,0,0,0,.55,1.68,1.84,1.84,0,0,0,1.45.61,1.77,1.77,0,0,0,1.44-.6,3.23,3.23,0,0,0,0-3.45A1.75,1.75,0,0,0,124.85,39.67Z"
           fill="#1e1e1e"
           id="path11001" />
        <path
           d="M132.44,40a1.18,1.18,0,0,0-.73-.19,1.23,1.23,0,0,0-1,.58,2.72,2.72,0,0,0-.41,1.58V45h-1V39h1v1.24h0a2.12,2.12,0,0,1,.63-1,1.4,1.4,0,0,1,.94-.36,1.5,1.5,0,0,1,.58.09Z"
           fill="#1e1e1e"
           id="path11003" />
        <path
           d="M133.12,44.78v-1a2.81,2.81,0,0,0,1.72.58c.85,0,1.27-.28,1.27-.84a.76.76,0,0,0-.11-.41,1,1,0,0,0-.29-.29,2.19,2.19,0,0,0-.43-.24l-.54-.21A6.76,6.76,0,0,1,134,42a2.22,2.22,0,0,1-.5-.36,1.38,1.38,0,0,1-.31-.46,1.63,1.63,0,0,1-.1-.61,1.38,1.38,0,0,1,.19-.74,1.7,1.7,0,0,1,.52-.55,2.43,2.43,0,0,1,.73-.33,3.59,3.59,0,0,1,2.25.16v1a2.7,2.7,0,0,0-1.52-.43,1.83,1.83,0,0,0-.49.06,1.26,1.26,0,0,0-.37.17.76.76,0,0,0-.24.27.67.67,0,0,0-.09.34.75.75,0,0,0,.09.39.84.84,0,0,0,.25.29,2.36,2.36,0,0,0,.39.22l.54.22a6.85,6.85,0,0,1,.71.31,2.82,2.82,0,0,1,.54.36,1.41,1.41,0,0,1,.34.47,1.46,1.46,0,0,1,.12.62,1.5,1.5,0,0,1-.19.78,1.61,1.61,0,0,1-.53.54,2.44,2.44,0,0,1-.75.33,3.82,3.82,0,0,1-.9.1A3.34,3.34,0,0,1,133.12,44.78Z"
           fill="#1e1e1e"
           id="path11005" />
      </g>
      <g
         id="g11037">
        <path
           d="M74.38,105.2H73.29l-.89-2.35H68.84L68,105.2H66.91l3.22-8.4h1ZM72.08,102l-1.32-3.58a4.87,4.87,0,0,1-.13-.56h0a3.36,3.36,0,0,1-.13.56L69.17,102Z"
           fill="#1e1e1e"
           id="path11009" />
        <path
           d="M79.68,99.48l-3.55,4.9h3.51v.82H74.71v-.3L78.26,100H75.05V99.2h4.63Z"
           fill="#1e1e1e"
           id="path11011" />
        <path
           d="M85.77,105.2h-1v-1h0a2,2,0,0,1-1.86,1.09c-1.43,0-2.14-.85-2.14-2.55V99.2h.95v3.43c0,1.27.49,1.9,1.46,1.9a1.44,1.44,0,0,0,1.15-.52,1.92,1.92,0,0,0,.46-1.35V99.2h1Z"
           fill="#1e1e1e"
           id="path11013" />
        <path
           d="M90.84,100.17a1.18,1.18,0,0,0-.73-.19,1.23,1.23,0,0,0-1,.58,2.72,2.72,0,0,0-.41,1.58v3.06h-1v-6h1v1.24h0a2.17,2.17,0,0,1,.63-1,1.41,1.41,0,0,1,.94-.35,1.49,1.49,0,0,1,.58.08Z"
           fill="#1e1e1e"
           id="path11015" />
        <path
           d="M96.7,102.44H92.47A2.19,2.19,0,0,0,93,104a1.85,1.85,0,0,0,1.41.54,3,3,0,0,0,1.87-.66v.9a3.52,3.52,0,0,1-2.09.57,2.52,2.52,0,0,1-2-.82,3.83,3.83,0,0,1,.06-4.58,2.55,2.55,0,0,1,2-.88,2.25,2.25,0,0,1,1.82.76,3.19,3.19,0,0,1,.64,2.12Zm-1-.81a2,2,0,0,0-.4-1.3,1.37,1.37,0,0,0-1.1-.46,1.56,1.56,0,0,0-1.16.49,2.18,2.18,0,0,0-.58,1.27Z"
           fill="#1e1e1e"
           id="path11017" />
        <path
           d="M59.84,118.13a3.17,3.17,0,0,1-1.64.41,2.75,2.75,0,0,1-2.07-.83,3.06,3.06,0,0,1-.79-2.17,3.35,3.35,0,0,1,.85-2.38,3,3,0,0,1,2.27-.9,3.27,3.27,0,0,1,1.4.29v1a2.49,2.49,0,0,0-1.43-.47,1.92,1.92,0,0,0-1.51.66,2.52,2.52,0,0,0-.59,1.73,2.36,2.36,0,0,0,.55,1.66,1.91,1.91,0,0,0,1.49.61,2.38,2.38,0,0,0,1.47-.52Z"
           fill="#1e1e1e"
           id="path11019" />
        <path
           d="M66.15,118.4h-1v-1h0a2,2,0,0,1-1.86,1.09c-1.43,0-2.14-.85-2.14-2.55V112.4h.95v3.43c0,1.27.49,1.9,1.46,1.9a1.44,1.44,0,0,0,1.15-.52,1.92,1.92,0,0,0,.46-1.35V112.4h1Z"
           fill="#1e1e1e"
           id="path11021" />
        <path
           d="M67.73,118.18v-1a2.81,2.81,0,0,0,1.72.58c.85,0,1.27-.28,1.27-.84a.76.76,0,0,0-.11-.41,1,1,0,0,0-.29-.29,1.66,1.66,0,0,0-.44-.23l-.53-.22a5.16,5.16,0,0,1-.7-.32,2.55,2.55,0,0,1-.51-.36,1.52,1.52,0,0,1-.3-.46,1.57,1.57,0,0,1-.1-.6,1.39,1.39,0,0,1,.19-.75,1.7,1.7,0,0,1,.52-.55,2.71,2.71,0,0,1,.73-.33,3.59,3.59,0,0,1,2.25.16v1a2.7,2.7,0,0,0-1.52-.43,1.83,1.83,0,0,0-.49.06,1.15,1.15,0,0,0-.37.17.76.76,0,0,0-.24.27.67.67,0,0,0-.09.34.82.82,0,0,0,.09.4.92.92,0,0,0,.25.28,2.36,2.36,0,0,0,.39.22L70,115a6.85,6.85,0,0,1,.71.31,2.82,2.82,0,0,1,.54.36,1.41,1.41,0,0,1,.34.47,1.48,1.48,0,0,1,.12.63,1.49,1.49,0,0,1-.19.77,1.61,1.61,0,0,1-.53.54,2.32,2.32,0,0,1-.75.33,3.82,3.82,0,0,1-.9.1A3.34,3.34,0,0,1,67.73,118.18Z"
           fill="#1e1e1e"
           id="path11023" />
        <path
           d="M76,118.34a1.76,1.76,0,0,1-.89.19c-1,0-1.58-.59-1.58-1.76v-3.55h-1v-.82h1v-1.46l1-.31v1.77H76v.82H74.45v3.38a1.37,1.37,0,0,0,.21.86.78.78,0,0,0,.68.26.94.94,0,0,0,.62-.2Z"
           fill="#1e1e1e"
           id="path11025" />
        <path
           d="M79.75,118.54a2.79,2.79,0,0,1-2.12-.84,3.1,3.1,0,0,1-.79-2.23,3.24,3.24,0,0,1,.82-2.36,3,3,0,0,1,2.24-.85,2.69,2.69,0,0,1,2.09.83,3.77,3.77,0,0,1-.06,4.59A2.85,2.85,0,0,1,79.75,118.54Zm.08-5.47a1.84,1.84,0,0,0-1.47.63,2.59,2.59,0,0,0-.54,1.74,2.41,2.41,0,0,0,.55,1.68,1.85,1.85,0,0,0,1.46.61,1.77,1.77,0,0,0,1.43-.6,2.63,2.63,0,0,0,.5-1.72,2.66,2.66,0,0,0-.5-1.73A1.74,1.74,0,0,0,79.83,113.07Z"
           fill="#1e1e1e"
           id="path11027" />
        <path
           d="M92.8,118.4h-1V115a2.67,2.67,0,0,0-.31-1.45,1.18,1.18,0,0,0-1-.44,1.29,1.29,0,0,0-1,.56A2.16,2.16,0,0,0,89,115v3.42h-1v-3.56c0-1.18-.46-1.77-1.37-1.77a1.27,1.27,0,0,0-1,.53,2.2,2.2,0,0,0-.41,1.38v3.42h-1v-6h1v.95h0a2,2,0,0,1,1.87-1.09,1.73,1.73,0,0,1,1.7,1.24,2.12,2.12,0,0,1,2-1.24c1.32,0,2,.82,2,2.44Z"
           fill="#1e1e1e"
           id="path11029" />
        <path
           d="M99.44,115.64H95.2a2.28,2.28,0,0,0,.54,1.55,1.87,1.87,0,0,0,1.42.54,3,3,0,0,0,1.86-.66v.9a3.5,3.5,0,0,1-2.09.57,2.53,2.53,0,0,1-2-.82,3.36,3.36,0,0,1-.73-2.3,3.29,3.29,0,0,1,.8-2.28,2.53,2.53,0,0,1,2-.88,2.25,2.25,0,0,1,1.82.76,3.2,3.2,0,0,1,.65,2.12Zm-1-.81a2,2,0,0,0-.4-1.3,1.36,1.36,0,0,0-1.1-.46,1.52,1.52,0,0,0-1.15.49,2.19,2.19,0,0,0-.59,1.27Z"
           fill="#1e1e1e"
           id="path11031" />
        <path
           d="M104,113.37a1.25,1.25,0,0,0-.73-.19,1.23,1.23,0,0,0-1,.58,2.72,2.72,0,0,0-.41,1.58v3.06h-1v-6h1v1.24h0a2.17,2.17,0,0,1,.63-1,1.41,1.41,0,0,1,.94-.35,1.49,1.49,0,0,1,.58.08Z"
           fill="#1e1e1e"
           id="path11033" />
        <path
           d="M104.7,118.18v-1a2.82,2.82,0,0,0,1.73.58q1.26,0,1.26-.84a.68.68,0,0,0-.11-.41,1,1,0,0,0-.29-.29,1.76,1.76,0,0,0-.43-.23l-.54-.22a5.79,5.79,0,0,1-.7-.32,2.22,2.22,0,0,1-.5-.36,1.38,1.38,0,0,1-.31-.46,1.57,1.57,0,0,1-.1-.6,1.39,1.39,0,0,1,.19-.75,1.7,1.7,0,0,1,.52-.55,2.71,2.71,0,0,1,.73-.33,3.49,3.49,0,0,1,.86-.11,3.41,3.41,0,0,1,1.39.27v1a2.7,2.7,0,0,0-1.52-.43,1.88,1.88,0,0,0-.49.06,1.26,1.26,0,0,0-.37.17,1,1,0,0,0-.24.27.67.67,0,0,0-.09.34.82.82,0,0,0,.09.4,1.07,1.07,0,0,0,.25.28,2.11,2.11,0,0,0,.4.22l.53.22a6,6,0,0,1,.71.31,2.3,2.3,0,0,1,.54.36,1.45,1.45,0,0,1,.35.47,1.48,1.48,0,0,1,.12.63,1.5,1.5,0,0,1-.2.77,1.68,1.68,0,0,1-.52.54,2.28,2.28,0,0,1-.76.33,3.71,3.71,0,0,1-.9.1A3.37,3.37,0,0,1,104.7,118.18Z"
           fill="#1e1e1e"
           id="path11035" />
      </g>
      <g
         id="g11075">
        <path
           d="M306.08,105.2h-1V99.56c0-.44,0-1,.09-1.63h0a4.19,4.19,0,0,1-.25.81L302,105.2h-.48l-2.87-6.41a5.64,5.64,0,0,1-.25-.86h0c0,.34.05.88.05,1.65v5.62h-1V96.8h1.3l2.58,5.86a8.52,8.52,0,0,1,.38,1h0c.17-.46.3-.81.4-1l2.63-5.83h1.23Z"
           fill="#1e1e1e"
           id="path11039" />
        <path
           d="M308.66,97.68a.59.59,0,0,1-.44-.18.56.56,0,0,1-.19-.44.63.63,0,0,1,.63-.63.6.6,0,0,1,.44.18.58.58,0,0,1,.19.45.58.58,0,0,1-.19.44A.6.6,0,0,1,308.66,97.68Zm.46,7.52h-1v-6h1Z"
           fill="#1e1e1e"
           id="path11041" />
        <path
           d="M315.16,104.93a3.19,3.19,0,0,1-1.64.41,2.72,2.72,0,0,1-2.07-.83,3,3,0,0,1-.79-2.17,3.3,3.3,0,0,1,.85-2.38,3,3,0,0,1,2.27-.9,3.23,3.23,0,0,1,1.39.29v1a2.45,2.45,0,0,0-1.43-.47,2,2,0,0,0-1.51.66,2.5,2.5,0,0,0-.59,1.73,2.36,2.36,0,0,0,.56,1.66,1.89,1.89,0,0,0,1.48.61,2.39,2.39,0,0,0,1.48-.52Z"
           fill="#1e1e1e"
           id="path11043" />
        <path
           d="M319.74,100.17A1.18,1.18,0,0,0,319,100a1.2,1.2,0,0,0-1,.58,2.64,2.64,0,0,0-.42,1.58v3.06h-1v-6h1v1.24h0a2.08,2.08,0,0,1,.62-1,1.42,1.42,0,0,1,.95-.35,1.44,1.44,0,0,1,.57.08Z"
           fill="#1e1e1e"
           id="path11045" />
        <path
           d="M323.29,105.34a2.79,2.79,0,0,1-2.12-.84,3.11,3.11,0,0,1-.8-2.23,3.25,3.25,0,0,1,.83-2.36,3,3,0,0,1,2.23-.85,2.7,2.7,0,0,1,2.1.83,3.77,3.77,0,0,1-.06,4.59A2.87,2.87,0,0,1,323.29,105.34Zm.07-5.47a1.83,1.83,0,0,0-1.46.63,2.59,2.59,0,0,0-.54,1.74,2.46,2.46,0,0,0,.54,1.68,1.86,1.86,0,0,0,1.46.61,1.75,1.75,0,0,0,1.43-.6,2.58,2.58,0,0,0,.51-1.72,2.61,2.61,0,0,0-.51-1.73A1.73,1.73,0,0,0,323.36,99.87Z"
           fill="#1e1e1e"
           id="path11047" />
        <path
           d="M327.45,105v-1a2.84,2.84,0,0,0,1.73.58c.84,0,1.27-.28,1.27-.84a.76.76,0,0,0-.11-.41.93.93,0,0,0-.3-.29,1.94,1.94,0,0,0-.43-.24l-.53-.21a5.16,5.16,0,0,1-.7-.32,2.29,2.29,0,0,1-.51-.36,1.35,1.35,0,0,1-.3-.46,1.58,1.58,0,0,1-.11-.61,1.39,1.39,0,0,1,.2-.74,1.78,1.78,0,0,1,.51-.55,2.77,2.77,0,0,1,.74-.33,3.41,3.41,0,0,1,.85-.11,3.46,3.46,0,0,1,1.4.27v1a2.74,2.74,0,0,0-1.53-.43,1.75,1.75,0,0,0-.48.06,1.33,1.33,0,0,0-.38.17,1,1,0,0,0-.24.27.77.77,0,0,0-.08.34,1,1,0,0,0,.08.4,1.07,1.07,0,0,0,.25.28,2.11,2.11,0,0,0,.4.22l.53.22a6.21,6.21,0,0,1,.72.31,2.82,2.82,0,0,1,.54.36,1.41,1.41,0,0,1,.34.47,1.48,1.48,0,0,1,.12.63,1.41,1.41,0,0,1-.2.77,1.58,1.58,0,0,1-.52.54,2.28,2.28,0,0,1-.76.33,3.68,3.68,0,0,1-.89.1A3.41,3.41,0,0,1,327.45,105Z"
           fill="#1e1e1e"
           id="path11049" />
        <path
           d="M335.42,105.34a2.79,2.79,0,0,1-2.13-.84,3.1,3.1,0,0,1-.79-2.23,3.24,3.24,0,0,1,.82-2.36,3,3,0,0,1,2.24-.85,2.69,2.69,0,0,1,2.09.83,3.77,3.77,0,0,1-.06,4.59A2.85,2.85,0,0,1,335.42,105.34Zm.07-5.47a1.84,1.84,0,0,0-1.47.63,2.59,2.59,0,0,0-.54,1.74,2.41,2.41,0,0,0,.55,1.68,1.85,1.85,0,0,0,1.46.61,1.77,1.77,0,0,0,1.43-.6,2.63,2.63,0,0,0,.5-1.72,2.66,2.66,0,0,0-.5-1.73A1.74,1.74,0,0,0,335.49,99.87Z"
           fill="#1e1e1e"
           id="path11051" />
        <path
           d="M342.9,97.16a1.32,1.32,0,0,0-.64-.16c-.67,0-1,.43-1,1.28v.92h1.4V100h-1.4v5.18h-1V100h-1V99.2h1v-1a2,2,0,0,1,.55-1.49,1.81,1.81,0,0,1,1.36-.55,1.86,1.86,0,0,1,.69.1Z"
           fill="#1e1e1e"
           id="path11053" />
        <path
           d="M346.48,105.14a1.82,1.82,0,0,1-.9.19c-1.05,0-1.58-.59-1.58-1.76V100h-1V99.2h1V97.74l1-.31V99.2h1.51V100H345v3.38a1.38,1.38,0,0,0,.2.86.8.8,0,0,0,.68.26,1,1,0,0,0,.63-.2Z"
           fill="#1e1e1e"
           id="path11055" />
        <path
           d="M301.57,115.64h-4.23a2.19,2.19,0,0,0,.54,1.55,1.85,1.85,0,0,0,1.41.54,3,3,0,0,0,1.87-.66v.9a3.52,3.52,0,0,1-2.09.57,2.52,2.52,0,0,1-2-.82,3.81,3.81,0,0,1,.07-4.58,2.53,2.53,0,0,1,2-.88,2.25,2.25,0,0,1,1.82.76,3.19,3.19,0,0,1,.64,2.12Zm-1-.81a2,2,0,0,0-.4-1.3,1.37,1.37,0,0,0-1.1-.46,1.52,1.52,0,0,0-1.15.49,2.13,2.13,0,0,0-.59,1.27Z"
           fill="#1e1e1e"
           id="path11057" />
        <path
           d="M308,118.4h-1V115c0-1.27-.47-1.91-1.4-1.91a1.5,1.5,0,0,0-1.19.54A2,2,0,0,0,304,115v3.42h-1v-6h1v1h0a2.16,2.16,0,0,1,2-1.14,1.83,1.83,0,0,1,1.51.64,2.85,2.85,0,0,1,.52,1.83Z"
           fill="#1e1e1e"
           id="path11059" />
        <path
           d="M314.94,117.92c0,2.2-1.06,3.31-3.16,3.31a4.25,4.25,0,0,1-1.95-.43v-1a4,4,0,0,0,1.93.57c1.48,0,2.22-.79,2.22-2.36v-.66h0a2.43,2.43,0,0,1-3.87.35,3.22,3.22,0,0,1-.68-2.15,3.75,3.75,0,0,1,.73-2.43,2.46,2.46,0,0,1,2-.9,2,2,0,0,1,1.8,1h0v-.83h1Zm-1-2.23v-.89a1.72,1.72,0,0,0-.48-1.22,1.62,1.62,0,0,0-1.21-.51,1.66,1.66,0,0,0-1.39.65,2.85,2.85,0,0,0-.51,1.81,2.43,2.43,0,0,0,.49,1.6,1.56,1.56,0,0,0,1.28.6,1.67,1.67,0,0,0,1.31-.57A2.12,2.12,0,0,0,314,115.69Z"
           fill="#1e1e1e"
           id="path11061" />
        <path
           d="M317.38,110.88a.6.6,0,0,1-.44-.18.59.59,0,0,1-.18-.44.61.61,0,0,1,.18-.45.6.6,0,0,1,.44-.18.64.64,0,0,1,.45.18.61.61,0,0,1,.18.45.6.6,0,0,1-.18.44A.64.64,0,0,1,317.38,110.88Zm.47,7.52h-1v-6h1Z"
           fill="#1e1e1e"
           id="path11063" />
        <path
           d="M324.77,118.4h-1V115c0-1.27-.46-1.91-1.39-1.91a1.54,1.54,0,0,0-1.2.54,2,2,0,0,0-.47,1.37v3.42h-1v-6h1v1h0a2.15,2.15,0,0,1,2-1.14,1.83,1.83,0,0,1,1.51.64,2.79,2.79,0,0,1,.52,1.83Z"
           fill="#1e1e1e"
           id="path11065" />
        <path
           d="M331.4,115.64h-4.23a2.19,2.19,0,0,0,.54,1.55,1.85,1.85,0,0,0,1.42.54,3,3,0,0,0,1.86-.66v.9a3.52,3.52,0,0,1-2.09.57,2.52,2.52,0,0,1-2-.82,3.81,3.81,0,0,1,.07-4.58,2.53,2.53,0,0,1,2-.88,2.25,2.25,0,0,1,1.82.76,3.19,3.19,0,0,1,.64,2.12Zm-1-.81a2,2,0,0,0-.4-1.3,1.37,1.37,0,0,0-1.1-.46,1.52,1.52,0,0,0-1.15.49,2.13,2.13,0,0,0-.59,1.27Z"
           fill="#1e1e1e"
           id="path11067" />
        <path
           d="M337.68,115.64h-4.24a2.28,2.28,0,0,0,.54,1.55,1.88,1.88,0,0,0,1.42.54,2.94,2.94,0,0,0,1.86-.66v.9a3.47,3.47,0,0,1-2.09.57,2.53,2.53,0,0,1-2-.82,3.35,3.35,0,0,1-.72-2.3,3.28,3.28,0,0,1,.79-2.28,2.54,2.54,0,0,1,2-.88A2.26,2.26,0,0,1,337,113a3.25,3.25,0,0,1,.64,2.12Zm-1-.81a2,2,0,0,0-.41-1.3,1.35,1.35,0,0,0-1.09-.46,1.54,1.54,0,0,0-1.16.49,2.12,2.12,0,0,0-.58,1.27Z"
           fill="#1e1e1e"
           id="path11069" />
        <path
           d="M342.26,113.37a1.23,1.23,0,0,0-.72-.19,1.21,1.21,0,0,0-1,.58,2.64,2.64,0,0,0-.42,1.58v3.06h-1v-6h1v1.24h0a2.08,2.08,0,0,1,.62-1,1.63,1.63,0,0,1,1.52-.27Z"
           fill="#1e1e1e"
           id="path11071" />
        <path
           d="M342.94,118.18v-1a2.82,2.82,0,0,0,1.73.58c.84,0,1.27-.28,1.27-.84a.76.76,0,0,0-.11-.41,1,1,0,0,0-.3-.29,1.59,1.59,0,0,0-.43-.23l-.54-.22a6.6,6.6,0,0,1-.7-.32,2.47,2.47,0,0,1-.5-.36,1.35,1.35,0,0,1-.3-.46,1.57,1.57,0,0,1-.11-.6,1.4,1.4,0,0,1,.2-.75,1.78,1.78,0,0,1,.51-.55,2.77,2.77,0,0,1,.74-.33,3.56,3.56,0,0,1,2.24.16v1a2.68,2.68,0,0,0-1.52-.43,1.88,1.88,0,0,0-.49.06,1.4,1.4,0,0,0-.37.17,1,1,0,0,0-.24.27.77.77,0,0,0-.08.34,1,1,0,0,0,.08.4,1.07,1.07,0,0,0,.25.28,2.11,2.11,0,0,0,.4.22l.53.22a6.21,6.21,0,0,1,.72.31,2.82,2.82,0,0,1,.54.36,1.41,1.41,0,0,1,.34.47,1.48,1.48,0,0,1,.12.63,1.5,1.5,0,0,1-.2.77,1.58,1.58,0,0,1-.52.54,2.28,2.28,0,0,1-.76.33,3.68,3.68,0,0,1-.89.1A3.39,3.39,0,0,1,342.94,118.18Z"
           fill="#1e1e1e"
           id="path11073" />
      </g>
      <g
         id="g11145">
        <path
           d="M288.91,176.6l-2.77,5.29V185h-1v-3.08l-2.7-5.32h1.11l1.89,3.79c0,.05.09.22.2.52h0a3.54,3.54,0,0,1,.22-.52l2-3.79Z"
           fill="#1e1e1e"
           id="path11077" />
        <path
           d="M291.41,185.14a2.79,2.79,0,0,1-2.13-.84,3.1,3.1,0,0,1-.79-2.23,3.25,3.25,0,0,1,.83-2.36,3,3,0,0,1,2.23-.85,2.66,2.66,0,0,1,2.09.83,3.73,3.73,0,0,1-.06,4.59A2.85,2.85,0,0,1,291.41,185.14Zm.07-5.47a1.84,1.84,0,0,0-1.47.63,2.59,2.59,0,0,0-.54,1.74,2.46,2.46,0,0,0,.55,1.68,1.85,1.85,0,0,0,1.46.61,1.75,1.75,0,0,0,1.43-.6,3.23,3.23,0,0,0,0-3.45A1.73,1.73,0,0,0,291.48,179.67Z"
           fill="#1e1e1e"
           id="path11079" />
        <path
           d="M300.78,185h-1v-.95h0a2,2,0,0,1-1.85,1.09c-1.43,0-2.15-.85-2.15-2.55V179h1v3.43c0,1.27.48,1.9,1.45,1.9a1.46,1.46,0,0,0,1.16-.52,2,2,0,0,0,.45-1.35V179h1Z"
           fill="#1e1e1e"
           id="path11081" />
        <path
           d="M305.85,180a1.16,1.16,0,0,0-.72-.19,1.2,1.2,0,0,0-1,.58,2.64,2.64,0,0,0-.42,1.58V185h-1v-6h1v1.24h0a2,2,0,0,1,.62-1,1.45,1.45,0,0,1,.95-.36,1.41,1.41,0,0,1,.57.09Z"
           fill="#1e1e1e"
           id="path11083" />
        <path
           d="M315,182.24h-4.23a2.21,2.21,0,0,0,.54,1.55,1.85,1.85,0,0,0,1.41.54,2.94,2.94,0,0,0,1.87-.67v.91a3.52,3.52,0,0,1-2.09.57,2.52,2.52,0,0,1-2-.82,3.81,3.81,0,0,1,.07-4.58,2.51,2.51,0,0,1,2-.88,2.25,2.25,0,0,1,1.82.76,3.18,3.18,0,0,1,.64,2.12Zm-1-.81a2,2,0,0,0-.4-1.3,1.37,1.37,0,0,0-1.1-.46,1.55,1.55,0,0,0-1.15.48,2.19,2.19,0,0,0-.59,1.28Z"
           fill="#1e1e1e"
           id="path11085" />
        <path
           d="M321.44,185h-1v-3.42c0-1.28-.47-1.91-1.4-1.91a1.5,1.5,0,0,0-1.19.54,2,2,0,0,0-.47,1.37V185h-1v-6h1v1h0a2.16,2.16,0,0,1,2-1.14,1.83,1.83,0,0,1,1.51.64,2.85,2.85,0,0,1,.52,1.83Z"
           fill="#1e1e1e"
           id="path11087" />
        <path
           d="M328.37,184.52c0,2.2-1.06,3.3-3.16,3.3a4.25,4.25,0,0,1-1.95-.42v-1a4,4,0,0,0,1.93.56c1.48,0,2.22-.78,2.22-2.35V184h0a2.23,2.23,0,0,1-2.06,1.15,2.27,2.27,0,0,1-1.8-.8,3.22,3.22,0,0,1-.68-2.15,3.73,3.73,0,0,1,.73-2.43,2.46,2.46,0,0,1,2-.9,2,2,0,0,1,1.79,1h0V179h1Zm-1-2.23v-.89a1.69,1.69,0,0,0-.49-1.22,1.58,1.58,0,0,0-1.2-.51,1.64,1.64,0,0,0-1.39.65,2.85,2.85,0,0,0-.51,1.81,2.43,2.43,0,0,0,.49,1.6,1.55,1.55,0,0,0,1.28.6,1.67,1.67,0,0,0,1.31-.57A2.14,2.14,0,0,0,327.41,182.29Z"
           fill="#1e1e1e"
           id="path11089" />
        <path
           d="M330.81,177.48a.61.61,0,0,1-.62-.62.61.61,0,0,1,.18-.45.59.59,0,0,1,.44-.18.6.6,0,0,1,.44.18.58.58,0,0,1,.19.45.56.56,0,0,1-.19.43A.58.58,0,0,1,330.81,177.48Zm.47,7.52h-1v-6h1Z"
           fill="#1e1e1e"
           id="path11091" />
        <path
           d="M338.2,185h-1v-3.42c0-1.28-.46-1.91-1.39-1.91a1.54,1.54,0,0,0-1.2.54,2,2,0,0,0-.47,1.37V185h-1v-6h1v1h0a2.15,2.15,0,0,1,2-1.14,1.83,1.83,0,0,1,1.51.64,2.79,2.79,0,0,1,.52,1.83Z"
           fill="#1e1e1e"
           id="path11093" />
        <path
           d="M344.83,182.24H340.6a2.21,2.21,0,0,0,.54,1.55,1.85,1.85,0,0,0,1.41.54,2.94,2.94,0,0,0,1.87-.67v.91a3.52,3.52,0,0,1-2.09.57,2.52,2.52,0,0,1-2-.82,3.81,3.81,0,0,1,.07-4.58,2.51,2.51,0,0,1,2-.88,2.25,2.25,0,0,1,1.82.76,3.18,3.18,0,0,1,.64,2.12Zm-1-.81a2,2,0,0,0-.4-1.3,1.37,1.37,0,0,0-1.1-.46,1.55,1.55,0,0,0-1.15.48,2.19,2.19,0,0,0-.59,1.28Z"
           fill="#1e1e1e"
           id="path11095" />
        <path
           d="M351.11,182.24h-4.24a2.3,2.3,0,0,0,.54,1.55,1.88,1.88,0,0,0,1.42.54,2.89,2.89,0,0,0,1.86-.67v.91a3.47,3.47,0,0,1-2.09.57,2.53,2.53,0,0,1-2-.82,3.35,3.35,0,0,1-.72-2.3,3.28,3.28,0,0,1,.79-2.28,2.54,2.54,0,0,1,2-.88,2.22,2.22,0,0,1,1.82.76,3.18,3.18,0,0,1,.65,2.12Zm-1-.81a2,2,0,0,0-.41-1.3,1.35,1.35,0,0,0-1.09-.46,1.57,1.57,0,0,0-1.16.48,2.25,2.25,0,0,0-.59,1.28Z"
           fill="#1e1e1e"
           id="path11097" />
        <path
           d="M355.69,180a1.18,1.18,0,0,0-.73-.19,1.2,1.2,0,0,0-1,.58,2.64,2.64,0,0,0-.42,1.58V185h-1v-6h1v1.24h0a2,2,0,0,1,.62-1,1.45,1.45,0,0,1,.95-.36,1.41,1.41,0,0,1,.57.09Z"
           fill="#1e1e1e"
           id="path11099" />
        <path
           d="M356.37,184.78v-1a2.82,2.82,0,0,0,1.73.58c.84,0,1.27-.28,1.27-.84a.76.76,0,0,0-.11-.41,1,1,0,0,0-.3-.29,1.94,1.94,0,0,0-.43-.24l-.54-.21c-.26-.11-.49-.21-.7-.32a2.22,2.22,0,0,1-.5-.36,1.35,1.35,0,0,1-.3-.46,1.62,1.62,0,0,1-.11-.61,1.39,1.39,0,0,1,.2-.74,1.78,1.78,0,0,1,.51-.55,2.49,2.49,0,0,1,.74-.33,3.56,3.56,0,0,1,2.24.16v1a2.68,2.68,0,0,0-1.52-.43,1.88,1.88,0,0,0-.49.06,1.4,1.4,0,0,0-.37.17,1,1,0,0,0-.24.27.77.77,0,0,0-.08.34.87.87,0,0,0,.08.39,1,1,0,0,0,.25.29,2.11,2.11,0,0,0,.4.22l.53.22a6.21,6.21,0,0,1,.72.31,2.82,2.82,0,0,1,.54.36,1.41,1.41,0,0,1,.34.47,1.46,1.46,0,0,1,.12.62,1.51,1.51,0,0,1-.2.78,1.58,1.58,0,0,1-.52.54,2.5,2.5,0,0,1-.76.33,3.68,3.68,0,0,1-.89.1A3.39,3.39,0,0,1,356.37,184.78Z"
           fill="#1e1e1e"
           id="path11101" />
        <path
           d="M285.7,198.2h-1.09l-.89-2.36h-3.56l-.84,2.36h-1.1l3.23-8.4h1ZM283.4,195l-1.32-3.58a3.38,3.38,0,0,1-.13-.56h0a3.23,3.23,0,0,1-.14.56l-1.3,3.58Z"
           fill="#1e1e1e"
           id="path11103" />
        <path
           d="M291,192.48l-3.55,4.9H291v.82H286v-.3l3.55-4.88h-3.22v-.82H291Z"
           fill="#1e1e1e"
           id="path11105" />
        <path
           d="M297.09,198.2h-1v-.95h0a2,2,0,0,1-1.85,1.09c-1.43,0-2.14-.85-2.14-2.55V192.2h.95v3.43c0,1.27.48,1.9,1.45,1.9a1.46,1.46,0,0,0,1.16-.52,2,2,0,0,0,.46-1.35V192.2h1Z"
           fill="#1e1e1e"
           id="path11107" />
        <path
           d="M302.15,193.17a1.14,1.14,0,0,0-.72-.19,1.21,1.21,0,0,0-1,.58,2.64,2.64,0,0,0-.41,1.58v3.06h-1v-6h1v1.24h0a2.12,2.12,0,0,1,.63-1,1.54,1.54,0,0,1,1.51-.27Z"
           fill="#1e1e1e"
           id="path11109" />
        <path
           d="M308,195.44h-4.24a2.3,2.3,0,0,0,.54,1.55,1.88,1.88,0,0,0,1.42.54,2.89,2.89,0,0,0,1.86-.67v.91a3.47,3.47,0,0,1-2.09.57,2.53,2.53,0,0,1-2-.82,3.35,3.35,0,0,1-.72-2.3,3.28,3.28,0,0,1,.79-2.28,2.54,2.54,0,0,1,2-.88,2.26,2.26,0,0,1,1.83.76,3.23,3.23,0,0,1,.64,2.12Zm-1-.81a2,2,0,0,0-.41-1.3,1.35,1.35,0,0,0-1.09-.46,1.57,1.57,0,0,0-1.16.48,2.25,2.25,0,0,0-.59,1.28Z"
           fill="#1e1e1e"
           id="path11111" />
        <path
           d="M312.5,197.86V196.7a2.42,2.42,0,0,0,.47.32,3.8,3.8,0,0,0,.59.23,3.3,3.3,0,0,0,.62.15,3,3,0,0,0,.57.06,2.29,2.29,0,0,0,1.36-.34,1.15,1.15,0,0,0,.45-1,1.13,1.13,0,0,0-.15-.59,1.64,1.64,0,0,0-.42-.46,3.91,3.91,0,0,0-.62-.4l-.78-.4-.82-.45a3.85,3.85,0,0,1-.66-.51,2.06,2.06,0,0,1-.44-.62,1.91,1.91,0,0,1-.16-.82,1.93,1.93,0,0,1,.25-1,2.32,2.32,0,0,1,.66-.7,3.19,3.19,0,0,1,.94-.41,4.24,4.24,0,0,1,1.07-.13,4.11,4.11,0,0,1,1.81.3v1.1a3.33,3.33,0,0,0-1.91-.51,2.88,2.88,0,0,0-.65.07,1.77,1.77,0,0,0-.57.21,1.31,1.31,0,0,0-.41.4,1,1,0,0,0-.16.58,1.22,1.22,0,0,0,.12.56,1.41,1.41,0,0,0,.35.43,3.75,3.75,0,0,0,.57.37l.78.4c.3.15.59.31.86.47a4.41,4.41,0,0,1,.71.54,2.42,2.42,0,0,1,.48.67,1.84,1.84,0,0,1,.18.83,2,2,0,0,1-.25,1,2,2,0,0,1-.65.7,2.88,2.88,0,0,1-.95.39,5.24,5.24,0,0,1-1.14.12l-.49,0a4.17,4.17,0,0,1-.6-.1,4.91,4.91,0,0,1-.58-.15A1.93,1.93,0,0,1,312.5,197.86Z"
           fill="#1e1e1e"
           id="path11113" />
        <path
           d="M321.53,198.14a1.8,1.8,0,0,1-.9.19c-1.05,0-1.57-.59-1.57-1.76V193h-1v-.82h1v-1.46l1-.32v1.78h1.51V193H320v3.38a1.45,1.45,0,0,0,.2.86.84.84,0,0,0,.68.26,1,1,0,0,0,.63-.2Z"
           fill="#1e1e1e"
           id="path11115" />
        <path
           d="M327.11,198.2h-1v-.94h0a2,2,0,0,1-1.85,1.08,2,2,0,0,1-1.4-.47,1.65,1.65,0,0,1-.51-1.26c0-1.12.66-1.78,2-2l1.8-.25c0-1-.41-1.53-1.24-1.53a2.9,2.9,0,0,0-2,.74v-1a3.7,3.7,0,0,1,2-.56c1.41,0,2.12.75,2.12,2.24Zm-1-3-1.45.19a2.48,2.48,0,0,0-1,.34,1,1,0,0,0-.34.84.9.9,0,0,0,.32.71,1.18,1.18,0,0,0,.83.28,1.51,1.51,0,0,0,1.18-.5,1.8,1.8,0,0,0,.47-1.27Z"
           fill="#1e1e1e"
           id="path11117" />
        <path
           d="M333,197.92a3.1,3.1,0,0,1-1.64.42,2.72,2.72,0,0,1-2.07-.83,3,3,0,0,1-.79-2.17,3.3,3.3,0,0,1,.85-2.38,3,3,0,0,1,2.27-.9,3.23,3.23,0,0,1,1.39.29v1a2.38,2.38,0,0,0-1.43-.47,2,2,0,0,0-1.51.66,2.5,2.5,0,0,0-.59,1.73,2.36,2.36,0,0,0,.56,1.66,1.89,1.89,0,0,0,1.48.61A2.39,2.39,0,0,0,333,197Z"
           fill="#1e1e1e"
           id="path11119" />
        <path
           d="M339.44,198.2H338.1l-2.65-2.88h0v2.88h-1v-8.88h1V195h0L338,192.2h1.26l-2.79,2.89Z"
           fill="#1e1e1e"
           id="path11121" />
        <path
           d="M350.16,198.2h-1v-3.83h-4.35v3.83h-1v-8.4h1v3.68h4.35V189.8h1Z"
           fill="#1e1e1e"
           id="path11123" />
        <path
           d="M357.09,198.2h-1v-.95h0a2,2,0,0,1-1.85,1.09c-1.43,0-2.14-.85-2.14-2.55V192.2h.95v3.43c0,1.27.48,1.9,1.45,1.9a1.46,1.46,0,0,0,1.16-.52,2,2,0,0,0,.46-1.35V192.2h1Z"
           fill="#1e1e1e"
           id="path11125" />
        <path
           d="M360,197.33h0v.87h-1v-8.88h1v3.93h0a2.27,2.27,0,0,1,2.07-1.19,2.19,2.19,0,0,1,1.81.81,3.27,3.27,0,0,1,.65,2.15,3.73,3.73,0,0,1-.73,2.42,2.44,2.44,0,0,1-2,.9A2,2,0,0,1,360,197.33Zm0-2.42v.84a1.77,1.77,0,0,0,.48,1.26,1.59,1.59,0,0,0,1.23.52,1.6,1.6,0,0,0,1.37-.67,3,3,0,0,0,.49-1.85,2.41,2.41,0,0,0-.46-1.57,1.54,1.54,0,0,0-1.26-.57,1.69,1.69,0,0,0-1.34.58A2.15,2.15,0,0,0,360,194.91Z"
           fill="#1e1e1e"
           id="path11127" />
        <path
           d="M302.13,211.54a2.79,2.79,0,0,1-2.13-.84,3.1,3.1,0,0,1-.79-2.23,3.25,3.25,0,0,1,.83-2.36,3,3,0,0,1,2.23-.85,2.66,2.66,0,0,1,2.09.83,3.73,3.73,0,0,1-.06,4.59A2.85,2.85,0,0,1,302.13,211.54Zm.07-5.47a1.84,1.84,0,0,0-1.47.63,2.59,2.59,0,0,0-.54,1.74,2.46,2.46,0,0,0,.55,1.68,1.85,1.85,0,0,0,1.46.61,1.75,1.75,0,0,0,1.43-.6,3.23,3.23,0,0,0,0-3.45A1.73,1.73,0,0,0,302.2,206.07Z"
           fill="#1e1e1e"
           id="path11129" />
        <path
           d="M307.64,210.53h0v3.63h-1V205.4h1v1h0a2.27,2.27,0,0,1,2.07-1.19,2.21,2.21,0,0,1,1.81.8,3.37,3.37,0,0,1,.65,2.16,3.73,3.73,0,0,1-.73,2.42,2.46,2.46,0,0,1-2,.9A2,2,0,0,1,307.64,210.53Zm0-2.42V209a1.73,1.73,0,0,0,.49,1.26,1.71,1.71,0,0,0,2.59-.15,3,3,0,0,0,.5-1.85,2.41,2.41,0,0,0-.47-1.57,1.51,1.51,0,0,0-1.25-.57,1.7,1.7,0,0,0-1.35.58A2.15,2.15,0,0,0,307.61,208.11Z"
           fill="#1e1e1e"
           id="path11131" />
        <path
           d="M318.53,208.64h-4.24a2.3,2.3,0,0,0,.54,1.55,1.87,1.87,0,0,0,1.42.54,2.91,2.91,0,0,0,1.86-.67V211a3.5,3.5,0,0,1-2.09.57,2.53,2.53,0,0,1-2-.82,3.35,3.35,0,0,1-.72-2.3,3.28,3.28,0,0,1,.79-2.28,2.54,2.54,0,0,1,2-.88,2.24,2.24,0,0,1,1.82.76,3.18,3.18,0,0,1,.65,2.12Zm-1-.81a1.91,1.91,0,0,0-.4-1.3,1.36,1.36,0,0,0-1.1-.46,1.56,1.56,0,0,0-1.15.48,2.25,2.25,0,0,0-.59,1.28Z"
           fill="#1e1e1e"
           id="path11133" />
        <path
           d="M323.11,206.37a1.18,1.18,0,0,0-.73-.19,1.2,1.2,0,0,0-1,.58,2.64,2.64,0,0,0-.42,1.58v3.06h-1v-6h1v1.24h0a2,2,0,0,1,.62-1,1.43,1.43,0,0,1,1-.36,1.41,1.41,0,0,1,.57.09Z"
           fill="#1e1e1e"
           id="path11135" />
        <path
           d="M328.45,211.4h-1v-.94h0a2.2,2.2,0,0,1-3.25.61,1.68,1.68,0,0,1-.5-1.26c0-1.12.66-1.78,2-2l1.8-.25c0-1-.41-1.53-1.24-1.53a2.94,2.94,0,0,0-2,.74v-1a3.76,3.76,0,0,1,2-.56c1.41,0,2.12.75,2.12,2.24Zm-1-3-1.45.2a2.43,2.43,0,0,0-1,.34,1,1,0,0,0-.34.84.9.9,0,0,0,.32.71,1.16,1.16,0,0,0,.83.28,1.55,1.55,0,0,0,1.18-.5,1.8,1.8,0,0,0,.47-1.27Z"
           fill="#1e1e1e"
           id="path11137" />
        <path
           d="M333,211.34a1.76,1.76,0,0,1-.89.19c-1.06,0-1.58-.59-1.58-1.76v-3.55h-1v-.82h1v-1.46l1-.32v1.78H333v.82h-1.51v3.38a1.37,1.37,0,0,0,.21.86.81.81,0,0,0,.68.26,1,1,0,0,0,.62-.2Z"
           fill="#1e1e1e"
           id="path11139" />
        <path
           d="M336.83,211.54a2.79,2.79,0,0,1-2.12-.84,3.1,3.1,0,0,1-.79-2.23,3.24,3.24,0,0,1,.82-2.36,3,3,0,0,1,2.23-.85,2.66,2.66,0,0,1,2.1.83,3.77,3.77,0,0,1-.06,4.59A2.87,2.87,0,0,1,336.83,211.54Zm.07-5.47a1.83,1.83,0,0,0-1.46.63,2.59,2.59,0,0,0-.54,1.74,2.46,2.46,0,0,0,.54,1.68,1.86,1.86,0,0,0,1.46.61,1.79,1.79,0,0,0,1.44-.6,3.23,3.23,0,0,0,0-3.45A1.76,1.76,0,0,0,336.9,206.07Z"
           fill="#1e1e1e"
           id="path11141" />
        <path
           d="M344.49,206.37a1.18,1.18,0,0,0-.73-.19,1.23,1.23,0,0,0-1,.58,2.72,2.72,0,0,0-.41,1.58v3.06h-1v-6h1v1.24h0a2.12,2.12,0,0,1,.63-1,1.4,1.4,0,0,1,.94-.36,1.5,1.5,0,0,1,.58.09Z"
           fill="#1e1e1e"
           id="path11143" />
      </g>
      <g
         id="g11173">
        <path
           d="M76.76,176.6,74,181.89V185H73v-3.08l-2.7-5.32h1.12l1.88,3.79.21.52h0a3.83,3.83,0,0,1,.23-.52l2-3.79Z"
           fill="#1e1e1e"
           id="path11147" />
        <path
           d="M79.25,185.14a2.79,2.79,0,0,1-2.12-.84,3.1,3.1,0,0,1-.79-2.23,3.24,3.24,0,0,1,.82-2.36,3,3,0,0,1,2.23-.85,2.66,2.66,0,0,1,2.1.83,3.77,3.77,0,0,1-.06,4.59A2.87,2.87,0,0,1,79.25,185.14Zm.07-5.47a1.83,1.83,0,0,0-1.46.63,2.59,2.59,0,0,0-.54,1.74,2.41,2.41,0,0,0,.55,1.68,1.82,1.82,0,0,0,1.45.61,1.77,1.77,0,0,0,1.44-.6,3.23,3.23,0,0,0,0-3.45A1.75,1.75,0,0,0,79.32,179.67Z"
           fill="#1e1e1e"
           id="path11149" />
        <path
           d="M88.63,185h-1v-.95h0a2,2,0,0,1-1.85,1.09c-1.43,0-2.14-.85-2.14-2.55V179h.95v3.43c0,1.27.49,1.9,1.46,1.9a1.44,1.44,0,0,0,1.15-.52,1.92,1.92,0,0,0,.46-1.35V179h1Z"
           fill="#1e1e1e"
           id="path11151" />
        <path
           d="M93.7,180a1.18,1.18,0,0,0-.73-.19,1.23,1.23,0,0,0-1,.58,2.72,2.72,0,0,0-.41,1.58V185h-1v-6h1v1.24h0a2.12,2.12,0,0,1,.63-1,1.42,1.42,0,0,1,.94-.36,1.5,1.5,0,0,1,.58.09Z"
           fill="#1e1e1e"
           id="path11153" />
        <path
           d="M59.84,197.92a3.08,3.08,0,0,1-1.64.42,2.75,2.75,0,0,1-2.07-.83,3.06,3.06,0,0,1-.79-2.17,3.35,3.35,0,0,1,.85-2.38,3,3,0,0,1,2.27-.9,3.27,3.27,0,0,1,1.4.29v1a2.42,2.42,0,0,0-1.43-.47,1.92,1.92,0,0,0-1.51.66,2.5,2.5,0,0,0-.59,1.73,2.36,2.36,0,0,0,.55,1.66,1.91,1.91,0,0,0,1.49.61,2.38,2.38,0,0,0,1.47-.52Z"
           fill="#1e1e1e"
           id="path11155" />
        <path
           d="M66.15,198.2h-1v-.95h0a2,2,0,0,1-1.86,1.09c-1.43,0-2.14-.85-2.14-2.55V192.2h.95v3.43c0,1.27.49,1.9,1.46,1.9a1.44,1.44,0,0,0,1.15-.52,1.92,1.92,0,0,0,.46-1.35V192.2h1Z"
           fill="#1e1e1e"
           id="path11157" />
        <path
           d="M67.73,198v-1a2.81,2.81,0,0,0,1.72.58c.85,0,1.27-.28,1.27-.84a.76.76,0,0,0-.11-.41,1,1,0,0,0-.29-.29,2,2,0,0,0-.44-.24l-.53-.21a6.76,6.76,0,0,1-.7-.32,2.55,2.55,0,0,1-.51-.36,1.52,1.52,0,0,1-.3-.46,1.63,1.63,0,0,1-.1-.61,1.38,1.38,0,0,1,.19-.74,1.7,1.7,0,0,1,.52-.55,2.71,2.71,0,0,1,.73-.33,3.59,3.59,0,0,1,2.25.16v1a2.7,2.7,0,0,0-1.52-.43,1.83,1.83,0,0,0-.49.06,1.15,1.15,0,0,0-.37.17.76.76,0,0,0-.24.27.67.67,0,0,0-.09.34.75.75,0,0,0,.09.39.84.84,0,0,0,.25.29,2.36,2.36,0,0,0,.39.22l.54.22a6.85,6.85,0,0,1,.71.31,2.82,2.82,0,0,1,.54.36,1.41,1.41,0,0,1,.34.47,1.46,1.46,0,0,1,.12.62,1.5,1.5,0,0,1-.19.78,1.61,1.61,0,0,1-.53.54,2.32,2.32,0,0,1-.75.33,3.82,3.82,0,0,1-.9.1A3.34,3.34,0,0,1,67.73,198Z"
           fill="#1e1e1e"
           id="path11159" />
        <path
           d="M76,198.14a1.76,1.76,0,0,1-.89.19c-1,0-1.58-.59-1.58-1.76V193h-1v-.82h1v-1.46l1-.32v1.78H76V193H74.45v3.38a1.37,1.37,0,0,0,.21.86.81.81,0,0,0,.68.26,1,1,0,0,0,.62-.2Z"
           fill="#1e1e1e"
           id="path11161" />
        <path
           d="M79.75,198.34a2.79,2.79,0,0,1-2.12-.84,3.1,3.1,0,0,1-.79-2.23,3.24,3.24,0,0,1,.82-2.36,3,3,0,0,1,2.24-.85,2.66,2.66,0,0,1,2.09.83,3.77,3.77,0,0,1-.06,4.59A2.85,2.85,0,0,1,79.75,198.34Zm.08-5.47a1.84,1.84,0,0,0-1.47.63,2.59,2.59,0,0,0-.54,1.74,2.41,2.41,0,0,0,.55,1.68,1.85,1.85,0,0,0,1.46.61,1.77,1.77,0,0,0,1.43-.6,3.23,3.23,0,0,0,0-3.45A1.74,1.74,0,0,0,79.83,192.87Z"
           fill="#1e1e1e"
           id="path11163" />
        <path
           d="M92.8,198.2h-1v-3.45a2.65,2.65,0,0,0-.31-1.44,1.18,1.18,0,0,0-1-.44,1.29,1.29,0,0,0-1,.56,2.14,2.14,0,0,0-.43,1.35v3.42h-1v-3.56c0-1.18-.46-1.77-1.37-1.77a1.24,1.24,0,0,0-1,.53,2.2,2.2,0,0,0-.41,1.38v3.42h-1v-6h1v1h0a2,2,0,0,1,1.87-1.09,1.73,1.73,0,0,1,1.07.34,1.81,1.81,0,0,1,.63.9,2.12,2.12,0,0,1,2-1.24c1.32,0,2,.81,2,2.44Z"
           fill="#1e1e1e"
           id="path11165" />
        <path
           d="M99.44,195.44H95.2a2.3,2.3,0,0,0,.54,1.55,1.87,1.87,0,0,0,1.42.54,2.93,2.93,0,0,0,1.86-.67v.91a3.5,3.5,0,0,1-2.09.57,2.53,2.53,0,0,1-2-.82,3.36,3.36,0,0,1-.73-2.3,3.29,3.29,0,0,1,.8-2.28,2.53,2.53,0,0,1,2-.88,2.25,2.25,0,0,1,1.82.76,3.18,3.18,0,0,1,.65,2.12Zm-1-.81a2,2,0,0,0-.4-1.3,1.36,1.36,0,0,0-1.1-.46,1.55,1.55,0,0,0-1.15.48,2.25,2.25,0,0,0-.59,1.28Z"
           fill="#1e1e1e"
           id="path11167" />
        <path
           d="M104,193.17a1.18,1.18,0,0,0-.73-.19,1.23,1.23,0,0,0-1,.58,2.72,2.72,0,0,0-.41,1.58v3.06h-1v-6h1v1.24h0a2.12,2.12,0,0,1,.63-1,1.42,1.42,0,0,1,.94-.36,1.46,1.46,0,0,1,.58.09Z"
           fill="#1e1e1e"
           id="path11169" />
        <path
           d="M104.7,198v-1a2.82,2.82,0,0,0,1.73.58q1.26,0,1.26-.84a.68.68,0,0,0-.11-.41,1,1,0,0,0-.29-.29,2.19,2.19,0,0,0-.43-.24l-.54-.21c-.26-.11-.5-.21-.7-.32a2.22,2.22,0,0,1-.5-.36,1.38,1.38,0,0,1-.31-.46,1.63,1.63,0,0,1-.1-.61,1.38,1.38,0,0,1,.19-.74,1.7,1.7,0,0,1,.52-.55,2.71,2.71,0,0,1,.73-.33,3.49,3.49,0,0,1,.86-.11,3.41,3.41,0,0,1,1.39.27v1a2.7,2.7,0,0,0-1.52-.43,1.88,1.88,0,0,0-.49.06,1.26,1.26,0,0,0-.37.17,1,1,0,0,0-.24.27.67.67,0,0,0-.09.34.75.75,0,0,0,.09.39,1,1,0,0,0,.25.29,2.11,2.11,0,0,0,.4.22l.53.22a6,6,0,0,1,.71.31,2.3,2.3,0,0,1,.54.36,1.37,1.37,0,0,1,.47,1.09,1.51,1.51,0,0,1-.2.78,1.68,1.68,0,0,1-.52.54,2.28,2.28,0,0,1-.76.33,3.71,3.71,0,0,1-.9.1A3.37,3.37,0,0,1,104.7,198Z"
           fill="#1e1e1e"
           id="path11171" />
      </g>
      <g
         id="g11185">
        <path
           d="M191.69,70h-2.06l-.6-1.87h-3L185.45,70h-2l3.06-8.4h2.24Zm-3.09-3.32-.91-2.83a4.38,4.38,0,0,1-.14-.75h0a3.16,3.16,0,0,1-.15.73l-.91,2.85Z"
           fill="#231f20"
           id="path11175" />
        <path
           d="M197.31,70h-5.39v-.77l3-3.86h-2.72V64h5.07v.91l-2.86,3.72h2.88Z"
           fill="#231f20"
           id="path11177" />
        <path
           d="M204,70h-1.85v-.91h0a2.11,2.11,0,0,1-1.83,1.06c-1.39,0-2.09-.85-2.09-2.53V64h1.85v3.46c0,.84.33,1.27,1,1.27a1,1,0,0,0,.8-.35,1.41,1.41,0,0,0,.3-.95V64H204Z"
           fill="#231f20"
           id="path11179" />
        <path
           d="M209.48,65.67a1.61,1.61,0,0,0-.78-.18,1.12,1.12,0,0,0-.94.44,1.92,1.92,0,0,0-.34,1.2V70h-1.86V64h1.86v1.11h0A1.6,1.6,0,0,1,209,63.89a1.35,1.35,0,0,1,.46.07Z"
           fill="#231f20"
           id="path11181" />
        <path
           d="M215.68,67.53h-3.91c.06.87.61,1.3,1.65,1.3a3.23,3.23,0,0,0,1.74-.46V69.7a4.57,4.57,0,0,1-2.17.45,2.79,2.79,0,0,1-3.05-3.06,3.19,3.19,0,0,1,.86-2.36,2.87,2.87,0,0,1,2.14-.88,2.63,2.63,0,0,1,2,.78,3.05,3.05,0,0,1,.71,2.12ZM214,66.39q0-1.29-1.05-1.29a1,1,0,0,0-.77.37,1.67,1.67,0,0,0-.39.92Z"
           fill="#231f20"
           id="path11183" />
      </g>
      <g
         id="g11193">
        <path
           d="M117.12,76.6q0,3.54-3.2,3.54t-3.06-3.4V71.6h1v5.07c0,1.72.72,2.59,2.18,2.59s2.1-.84,2.1-2.5V71.6h1Z"
           fill="#4f4f4f"
           id="path11187" />
        <path
           d="M118.72,79.78v-1a2.82,2.82,0,0,0,1.73.58q1.26,0,1.26-.84a.76.76,0,0,0-.1-.41,1,1,0,0,0-.3-.29,1.94,1.94,0,0,0-.43-.24l-.54-.21c-.26-.11-.5-.21-.7-.32a2.22,2.22,0,0,1-.5-.36,1.38,1.38,0,0,1-.31-.46,1.85,1.85,0,0,1-.1-.61,1.39,1.39,0,0,1,.2-.74,1.67,1.67,0,0,1,.51-.55,2.49,2.49,0,0,1,.74-.33,3.56,3.56,0,0,1,2.24.16v1a2.7,2.7,0,0,0-1.52-.43,1.88,1.88,0,0,0-.49.06,1.4,1.4,0,0,0-.37.17,1,1,0,0,0-.24.27.77.77,0,0,0-.08.34.87.87,0,0,0,.08.39,1,1,0,0,0,.25.29,2.11,2.11,0,0,0,.4.22l.53.22a6.21,6.21,0,0,1,.72.31,2.82,2.82,0,0,1,.54.36,1.57,1.57,0,0,1,.34.47,1.46,1.46,0,0,1,.12.62,1.51,1.51,0,0,1-.2.78,1.58,1.58,0,0,1-.52.54,2.5,2.5,0,0,1-.76.33,3.68,3.68,0,0,1-.89.1A3.39,3.39,0,0,1,118.72,79.78Z"
           fill="#4f4f4f"
           id="path11189" />
        <path
           d="M129,77.24h-4.24a2.3,2.3,0,0,0,.54,1.55,1.87,1.87,0,0,0,1.42.54,2.91,2.91,0,0,0,1.86-.67v.91a3.5,3.5,0,0,1-2.09.57,2.53,2.53,0,0,1-2-.82,3.35,3.35,0,0,1-.72-2.3,3.28,3.28,0,0,1,.79-2.28,2.54,2.54,0,0,1,2-.88,2.24,2.24,0,0,1,1.82.76,3.18,3.18,0,0,1,.65,2.12Zm-1-.81a1.91,1.91,0,0,0-.4-1.3,1.36,1.36,0,0,0-1.1-.46,1.56,1.56,0,0,0-1.15.48,2.25,2.25,0,0,0-.59,1.28Z"
           fill="#4f4f4f"
           id="path11191" />
      </g>
      <g
         id="g11209">
        <path
           d="M252.66,80.14A3.68,3.68,0,0,1,249.8,79a4.33,4.33,0,0,1-1.07-3.06,4.65,4.65,0,0,1,1.09-3.24,3.84,3.84,0,0,1,3-1.2,3.62,3.62,0,0,1,2.81,1.17,4.37,4.37,0,0,1,1.06,3.06A4.66,4.66,0,0,1,255.58,79,3.78,3.78,0,0,1,252.66,80.14Zm.07-7.79a2.73,2.73,0,0,0-2.15,1,4.28,4.28,0,0,0,0,5,2.64,2.64,0,0,0,2.1,1,2.74,2.74,0,0,0,2.18-.91,3.68,3.68,0,0,0,.8-2.52,3.87,3.87,0,0,0-.77-2.57A2.66,2.66,0,0,0,252.73,72.35Z"
           fill="#4f4f4f"
           id="path11195" />
        <path
           d="M259.18,79.13h0v3.63h-1V74h1v1h0a2.27,2.27,0,0,1,2.07-1.19,2.18,2.18,0,0,1,1.81.81,3.27,3.27,0,0,1,.65,2.15,3.73,3.73,0,0,1-.73,2.42,2.44,2.44,0,0,1-2,.9A2,2,0,0,1,259.18,79.13Zm0-2.42v.84a1.77,1.77,0,0,0,.48,1.26,1.72,1.72,0,0,0,2.59-.15,3,3,0,0,0,.5-1.85,2.41,2.41,0,0,0-.46-1.57,1.54,1.54,0,0,0-1.26-.57,1.66,1.66,0,0,0-1.34.58A2.15,2.15,0,0,0,259.16,76.71Z"
           fill="#4f4f4f"
           id="path11197" />
        <path
           d="M270.07,77.24h-4.24a2.3,2.3,0,0,0,.54,1.55,1.88,1.88,0,0,0,1.42.54,2.94,2.94,0,0,0,1.87-.67v.91a3.53,3.53,0,0,1-2.1.57,2.51,2.51,0,0,1-2-.82,3.83,3.83,0,0,1,.06-4.58,2.54,2.54,0,0,1,2-.88,2.26,2.26,0,0,1,1.83.76,3.18,3.18,0,0,1,.64,2.12Zm-1-.81a2,2,0,0,0-.4-1.3,1.37,1.37,0,0,0-1.1-.46,1.57,1.57,0,0,0-1.16.48,2.24,2.24,0,0,0-.58,1.28Z"
           fill="#4f4f4f"
           id="path11199" />
        <path
           d="M274.65,75a1.14,1.14,0,0,0-.72-.19,1.21,1.21,0,0,0-1,.58,2.64,2.64,0,0,0-.41,1.58V80h-1V74h1v1.24h0a2,2,0,0,1,.63-1,1.54,1.54,0,0,1,1.51-.27Z"
           fill="#4f4f4f"
           id="path11201" />
        <path
           d="M280,80h-1v-.94h0a2,2,0,0,1-1.85,1.08,2,2,0,0,1-1.4-.47,1.65,1.65,0,0,1-.51-1.26c0-1.12.66-1.78,2-2l1.8-.25c0-1-.41-1.53-1.24-1.53a2.9,2.9,0,0,0-2,.74v-1a3.76,3.76,0,0,1,2-.56c1.41,0,2.11.75,2.11,2.24Zm-1-3-1.45.2a2.37,2.37,0,0,0-1,.34.93.93,0,0,0-.34.84.89.89,0,0,0,.31.71,1.19,1.19,0,0,0,.83.28,1.51,1.51,0,0,0,1.18-.5,1.75,1.75,0,0,0,.47-1.27Z"
           fill="#4f4f4f"
           id="path11203" />
        <path
           d="M284.58,79.94a1.76,1.76,0,0,1-.89.19c-1.05,0-1.58-.59-1.58-1.76V74.82h-1V74h1V72.54l1-.32V74h1.51v.82h-1.51V78.2a1.37,1.37,0,0,0,.21.86.83.83,0,0,0,.68.26,1,1,0,0,0,.62-.2Z"
           fill="#4f4f4f"
           id="path11205" />
        <path
           d="M290.69,77.24h-4.24a2.3,2.3,0,0,0,.54,1.55,1.88,1.88,0,0,0,1.42.54,2.89,2.89,0,0,0,1.86-.67v.91a3.47,3.47,0,0,1-2.09.57,2.53,2.53,0,0,1-2-.82,3.35,3.35,0,0,1-.72-2.3,3.28,3.28,0,0,1,.79-2.28,2.54,2.54,0,0,1,2-.88,2.26,2.26,0,0,1,1.83.76,3.18,3.18,0,0,1,.64,2.12Zm-1-.81a2,2,0,0,0-.41-1.3,1.35,1.35,0,0,0-1.09-.46,1.57,1.57,0,0,0-1.16.48,2.24,2.24,0,0,0-.58,1.28Z"
           fill="#4f4f4f"
           id="path11207" />
      </g>
      <g
         id="g11217">
        <path
           d="M117.12,158.67q0,3.54-3.2,3.54t-3.06-3.41v-5.14h1v5.08c0,1.72.72,2.58,2.18,2.58s2.1-.83,2.1-2.49v-5.17h1Z"
           fill="#4f4f4f"
           id="path11211" />
        <path
           d="M118.72,161.85v-1a2.88,2.88,0,0,0,1.73.58c.84,0,1.26-.28,1.26-.85a.72.72,0,0,0-.1-.4,1.22,1.22,0,0,0-.3-.3,1.93,1.93,0,0,0-.43-.23l-.54-.21-.7-.32a2,2,0,0,1-.5-.37,1.29,1.29,0,0,1-.31-.46,1.79,1.79,0,0,1-.1-.6,1.45,1.45,0,0,1,.2-.75,1.64,1.64,0,0,1,.51-.54,2.26,2.26,0,0,1,.74-.33,3,3,0,0,1,.85-.12,3.41,3.41,0,0,1,1.39.27v1a2.71,2.71,0,0,0-1.52-.44,1.88,1.88,0,0,0-.49.06,1.41,1.41,0,0,0-.37.18.85.85,0,0,0-.24.26.82.82,0,0,0-.08.35.93.93,0,0,0,.08.39.83.83,0,0,0,.25.28,1.67,1.67,0,0,0,.4.22l.53.22c.27.1.51.21.72.31a2.44,2.44,0,0,1,.54.37,1.36,1.36,0,0,1,.46,1.09,1.47,1.47,0,0,1-.2.77,1.7,1.7,0,0,1-.52.55,2.49,2.49,0,0,1-.76.32,3.68,3.68,0,0,1-.89.11A3.39,3.39,0,0,1,118.72,161.85Z"
           fill="#4f4f4f"
           id="path11213" />
        <path
           d="M129,159.31h-4.24a2.27,2.27,0,0,0,.54,1.54,1.84,1.84,0,0,0,1.42.55,3,3,0,0,0,1.86-.67v.9a3.5,3.5,0,0,1-2.09.58,2.56,2.56,0,0,1-2-.82,3.37,3.37,0,0,1-.72-2.3,3.26,3.26,0,0,1,.79-2.28,2.55,2.55,0,0,1,2-.89,2.24,2.24,0,0,1,1.82.77,3.15,3.15,0,0,1,.65,2.11Zm-1-.82a1.88,1.88,0,0,0-.4-1.29,1.36,1.36,0,0,0-1.1-.47,1.57,1.57,0,0,0-1.15.49,2.22,2.22,0,0,0-.59,1.27Z"
           fill="#4f4f4f"
           id="path11215" />
      </g>
      <g
         id="g11233">
        <path
           d="M252.66,162.21A3.71,3.71,0,0,1,249.8,161a4.37,4.37,0,0,1-1.07-3.07,4.61,4.61,0,0,1,1.09-3.23,3.82,3.82,0,0,1,3-1.21,3.62,3.62,0,0,1,2.81,1.17,4.41,4.41,0,0,1,1.06,3.07,4.63,4.63,0,0,1-1.09,3.25A3.76,3.76,0,0,1,252.66,162.21Zm.07-7.8a2.7,2.7,0,0,0-2.15,1,3.68,3.68,0,0,0-.82,2.51,3.79,3.79,0,0,0,.8,2.5,2.63,2.63,0,0,0,2.1.94,2.76,2.76,0,0,0,2.18-.9,3.69,3.69,0,0,0,.8-2.53,3.88,3.88,0,0,0-.77-2.57A2.69,2.69,0,0,0,252.73,154.41Z"
           fill="#4f4f4f"
           id="path11219" />
        <path
           d="M259.18,161.2h0v3.63h-1v-8.76h1v1.05h0a2.26,2.26,0,0,1,2.07-1.2,2.18,2.18,0,0,1,1.81.81,3.31,3.31,0,0,1,.65,2.16,3.71,3.71,0,0,1-.73,2.41,2.44,2.44,0,0,1-2,.91A2,2,0,0,1,259.18,161.2Zm0-2.42v.84a1.8,1.8,0,0,0,.48,1.26,1.72,1.72,0,0,0,2.59-.15,3.07,3.07,0,0,0,.5-1.86,2.41,2.41,0,0,0-.46-1.57,1.54,1.54,0,0,0-1.26-.57,1.67,1.67,0,0,0-1.34.59A2.13,2.13,0,0,0,259.16,158.78Z"
           fill="#4f4f4f"
           id="path11221" />
        <path
           d="M270.07,159.31h-4.24a2.27,2.27,0,0,0,.54,1.54,1.85,1.85,0,0,0,1.42.55,3,3,0,0,0,1.87-.67v.9a3.53,3.53,0,0,1-2.1.58,2.54,2.54,0,0,1-2-.82,3.33,3.33,0,0,1-.73-2.3,3.26,3.26,0,0,1,.79-2.28,2.55,2.55,0,0,1,2-.89,2.26,2.26,0,0,1,1.83.77,3.15,3.15,0,0,1,.64,2.11Zm-1-.82a2,2,0,0,0-.4-1.29,1.38,1.38,0,0,0-1.1-.47,1.58,1.58,0,0,0-1.16.49,2.21,2.21,0,0,0-.58,1.27Z"
           fill="#4f4f4f"
           id="path11223" />
        <path
           d="M274.65,157a1.14,1.14,0,0,0-.72-.2,1.24,1.24,0,0,0-1,.58,2.68,2.68,0,0,0-.41,1.59v3.06h-1v-6h1v1.23h0a2.09,2.09,0,0,1,.63-1,1.44,1.44,0,0,1,.94-.35,1.65,1.65,0,0,1,.57.08Z"
           fill="#4f4f4f"
           id="path11225" />
        <path
           d="M280,162.07h-1v-.94h0a2,2,0,0,1-1.85,1.08,2,2,0,0,1-1.4-.48,1.62,1.62,0,0,1-.51-1.26c0-1.12.66-1.77,2-2l1.8-.25c0-1-.41-1.53-1.24-1.53a3,3,0,0,0-2,.74v-1a3.68,3.68,0,0,1,2-.57c1.41,0,2.11.75,2.11,2.24Zm-1-3-1.45.2a2.25,2.25,0,0,0-1,.33,1,1,0,0,0-.34.84.92.92,0,0,0,.31.72,1.24,1.24,0,0,0,.83.28,1.55,1.55,0,0,0,1.18-.5,1.77,1.77,0,0,0,.47-1.27Z"
           fill="#4f4f4f"
           id="path11227" />
        <path
           d="M284.58,162a1.87,1.87,0,0,1-.89.18c-1.05,0-1.58-.58-1.58-1.75v-3.55h-1v-.82h1V154.6l1-.31v1.78h1.51v.82h-1.51v3.38a1.37,1.37,0,0,0,.21.86.83.83,0,0,0,.68.26,1,1,0,0,0,.62-.2Z"
           fill="#4f4f4f"
           id="path11229" />
        <path
           d="M290.69,159.31h-4.24a2.27,2.27,0,0,0,.54,1.54,1.85,1.85,0,0,0,1.42.55,3,3,0,0,0,1.86-.67v.9a3.48,3.48,0,0,1-2.09.58,2.56,2.56,0,0,1-2-.82,3.37,3.37,0,0,1-.72-2.3,3.26,3.26,0,0,1,.79-2.28,2.55,2.55,0,0,1,2-.89,2.26,2.26,0,0,1,1.83.77,3.15,3.15,0,0,1,.64,2.11Zm-1-.82a1.93,1.93,0,0,0-.41-1.29,1.36,1.36,0,0,0-1.09-.47,1.58,1.58,0,0,0-1.16.49,2.21,2.21,0,0,0-.58,1.27Z"
           fill="#4f4f4f"
           id="path11231" />
      </g>
    </g>
    <path
       fill-rule="evenodd"
       clip-rule="evenodd"
       d="m 196.14802,75.75051 v -6.1e-4 h 0.0321 7 c 0.6436,0 1.2155,0.41055 1.4213,1.02034 l 6.075,18.00006 c 0.3281,0.9723 -0.395,1.9797 -1.4213,1.9797 h -6.8571 v -0.0066 c -0.0469,0.0043 -0.0945,0.0066 -0.1429,0.0066 h -0.0263 c -0.3222,0 -0.6358,-0.1038 -0.8945,-0.2959 l -4.57952,-3.402 -0.90387,2.6781 c -0.2058,0.6098 -0.77766,1.0204 -1.42124,1.0204 h -4.38918 c -1.02621,0 -1.7494,-1.0074 -1.42124,-1.9797 l 6.07502,-18.00005 c 0.2058,-0.60979 0.77766,-1.02034 1.42124,-1.02034 z m -2.61675,13.66129 8.39943,6.2395 c 0.0862,0.0641 0.1907,0.0987 0.2981,0.0987 h 0.0263 c 0.3421,0 0.5832,-0.3358 0.4738,-0.6599 l -3.3608,-9.9578 -1.2746,3.2961 -0.1236,0.3197 h -0.34275 -4.98478 z M 209.2551,95.75 H 203.67 c 0.1076,-0.3019 0.12,-0.6429 0.006,-0.9797 l -6.07506,-18.00006 -0.007,-0.02034 h 5.58578 c 0.2146,0 0.4052,0.13685 0.4738,0.34012 l 6.075,18.00008 c 0.1094,0.3241 -0.1317,0.6599 -0.4738,0.6599 z"
       fill="#000000"
       id="path11373" />
  </g>
</svg>
