<svg xmlns="http://www.w3.org/2000/svg" xmlns:xlink="http://www.w3.org/1999/xlink" viewBox="0 0 223.23 300.13">
  <defs>
    <linearGradient id="linear-gradient" x1="27.5" y1="104.2" x2="27.5" y2="110.2" gradientUnits="userSpaceOnUse">
      <stop offset="0" stop-color="#5ea0ef"/>
      <stop offset="0.18" stop-color="#559cec"/>
      <stop offset="0.47" stop-color="#3c91e5"/>
      <stop offset="0.84" stop-color="#1380da"/>
      <stop offset="1" stop-color="#0078d4"/>
    </linearGradient>
    <linearGradient id="linear-gradient-2" x1="27.5" y1="96.2" x2="27.5" y2="102.2" xlink:href="#linear-gradient"/>
    <linearGradient id="linear-gradient-3" x1="27.5" y1="88.2" x2="27.5" y2="94.2" xlink:href="#linear-gradient"/>
    <linearGradient id="linear-gradient-4" x1="27.5" y1="80.2" x2="27.5" y2="86.2" xlink:href="#linear-gradient"/>
    <linearGradient id="linear-gradient-5" x1="90.83" y1="17.22" x2="90.83" y2="34.22" gradientUnits="userSpaceOnUse">
      <stop offset="0" stop-color="#b3b3b3"/>
      <stop offset="0.47" stop-color="#a2a2a2"/>
      <stop offset="1" stop-color="#949494"/>
    </linearGradient>
    <linearGradient id="linear-gradient-6" x1="180.83" y1="17.22" x2="180.83" y2="34.22" xlink:href="#linear-gradient-5"/>
  </defs>
  <g id="Shapes">
    <rect width="223.23" height="300.13" fill="#fff"/>
    <g>
      <g>
        <path d="M11.5,104.2h32v6h-32Zm14,3a1.5,1.5,0,1,1-1.5-1.5A1.5,1.5,0,0,1,25.49,107.2Z" fill="#fff"/>
        <path d="M11.5,104.2h32v6h-32Zm14,3a1.5,1.5,0,1,1-1.5-1.5A1.5,1.5,0,0,1,25.49,107.2Z" fill="url(#linear-gradient)"/>
      </g>
      <g>
        <path d="M11.5,96.2h32v6h-32Zm14,3A1.5,1.5,0,1,1,24,97.7,1.5,1.5,0,0,1,25.49,99.2Z" fill="#fff"/>
        <path d="M11.5,96.2h32v6h-32Zm14,3A1.5,1.5,0,1,1,24,97.7,1.5,1.5,0,0,1,25.49,99.2Z" fill="url(#linear-gradient-2)"/>
      </g>
      <g>
        <path d="M11.5,88.2h32v6h-32Zm14,3A1.5,1.5,0,1,1,24,89.7,1.5,1.5,0,0,1,25.49,91.2Z" fill="#fff"/>
        <path d="M11.5,88.2h32v6h-32Zm14,3A1.5,1.5,0,1,1,24,89.7,1.5,1.5,0,0,1,25.49,91.2Z" fill="url(#linear-gradient-3)"/>
      </g>
      <g>
        <path d="M11.5,80.2h32v6h-32Zm14,3A1.5,1.5,0,1,1,24,81.7,1.5,1.5,0,0,1,25.49,83.2Z" fill="#fff"/>
        <path d="M11.5,80.2h32v6h-32Zm14,3A1.5,1.5,0,1,1,24,81.7,1.5,1.5,0,0,1,25.49,83.2Z" fill="url(#linear-gradient-4)"/>
      </g>
      <path d="M15,108.7a1.5,1.5,0,1,0-1.5-1.5A1.5,1.5,0,0,0,15,108.7Z" fill="#50e6ff"/>
      <path d="M19.5,108.7a1.5,1.5,0,1,0-1.5-1.5A1.5,1.5,0,0,0,19.5,108.7Z" fill="#50e6ff"/>
      <path d="M15,100.7a1.5,1.5,0,1,0-1.5-1.5A1.5,1.5,0,0,0,15,100.7Z" fill="#50e6ff"/>
      <path d="M19.5,100.7A1.5,1.5,0,1,0,18,99.2,1.5,1.5,0,0,0,19.5,100.7Z" fill="#50e6ff"/>
      <path d="M15,92.7a1.5,1.5,0,1,0-1.5-1.5A1.5,1.5,0,0,0,15,92.7Z" fill="#50e6ff"/>
      <path d="M19.5,92.7A1.5,1.5,0,1,0,18,91.2,1.5,1.5,0,0,0,19.5,92.7Z" fill="#50e6ff"/>
      <path d="M15,84.7a1.5,1.5,0,1,0-1.5-1.5A1.5,1.5,0,0,0,15,84.7Z" fill="#50e6ff"/>
      <path d="M19.5,84.7A1.5,1.5,0,1,0,18,83.2,1.5,1.5,0,0,0,19.5,84.7Z" fill="#50e6ff"/>
      <path d="M23.87,84.7a1.5,1.5,0,1,0-1.5-1.5A1.5,1.5,0,0,0,23.87,84.7Z" fill="#fff"/>
      <path d="M23.87,92.7a1.5,1.5,0,1,0-1.5-1.5A1.5,1.5,0,0,0,23.87,92.7Z" fill="#fff"/>
      <path d="M23.87,100.7a1.5,1.5,0,1,0-1.5-1.5A1.5,1.5,0,0,0,23.87,100.7Z" fill="#fff"/>
      <path d="M23.87,108.7a1.5,1.5,0,1,0-1.5-1.5A1.5,1.5,0,0,0,23.87,108.7Z" fill="#fff"/>
    </g>
    <g>
      <g>
        <g>
          <rect x="49.43" y="17.22" width="82.8" height="17" rx="2" fill="#fff"/>
          <rect x="49.43" y="17.22" width="82.8" height="17" rx="2" fill="url(#linear-gradient-5)"/>
          <path d="M130.23,18.22a1,1,0,0,1,1,1v13a1,1,0,0,1-1,1H51.43a1,1,0,0,1-1-1v-13a1,1,0,0,1,1-1h78.8m0-2H51.43a3,3,0,0,0-3,3v13a3,3,0,0,0,3,3h78.8a3,3,0,0,0,3-3v-13a3,3,0,0,0-3-3Z" fill="#e6e6e6"/>
        </g>
        <circle cx="111.32" cy="21.95" r="1.09" fill="#86d633"/>
        <circle cx="117.73" cy="21.95" r="1.09" fill="#ffca00"/>
        <circle cx="124.13" cy="21.95" r="1.09" fill="#b31b1b"/>
        <rect x="110.23" y="24.7" width="15" height="6.02" fill="#e6e6e6"/>
        <g>
          <polygon points="60.63 22.14 60.63 20.85 56.44 20.85 56.44 22.14 55.03 22.14 55.03 24.7 62.03 24.7 62.03 22.14 60.63 22.14" fill="#231f20"/>
          <polygon points="71.1 22.14 71.1 20.85 66.91 20.85 66.91 22.14 65.5 22.14 65.5 24.7 72.5 24.7 72.5 22.14 71.1 22.14" fill="#231f20"/>
          <polygon points="81.57 22.14 81.57 20.85 77.38 20.85 77.38 22.14 75.97 22.14 75.97 24.7 82.97 24.7 82.97 22.14 81.57 22.14" fill="#231f20"/>
          <polygon points="92.04 22.14 92.04 20.85 87.85 20.85 87.85 22.14 86.44 22.14 86.44 24.7 93.44 24.7 93.44 22.14 92.04 22.14" fill="#231f20"/>
          <polygon points="102.5 22.14 102.5 20.85 98.31 20.85 98.31 22.14 96.91 22.14 96.91 24.7 103.91 24.7 103.91 22.14 102.5 22.14" fill="#231f20"/>
        </g>
        <g>
          <polygon points="60.63 28 60.63 26.72 56.44 26.72 56.44 28 55.03 28 55.03 30.57 62.03 30.57 62.03 28 60.63 28" fill="#231f20"/>
          <polygon points="71.1 28 71.1 26.72 66.91 26.72 66.91 28 65.5 28 65.5 30.57 72.5 30.57 72.5 28 71.1 28" fill="#231f20"/>
          <polygon points="81.57 28 81.57 26.72 77.38 26.72 77.38 28 75.97 28 75.97 30.57 82.97 30.57 82.97 28 81.57 28" fill="#231f20"/>
          <polygon points="92.04 28 92.04 26.72 87.85 26.72 87.85 28 86.44 28 86.44 30.57 93.44 30.57 93.44 28 92.04 28" fill="#231f20"/>
          <polygon points="102.5 28 102.5 26.72 98.31 26.72 98.31 28 96.91 28 96.91 30.57 103.91 30.57 103.91 28 102.5 28" fill="#231f20"/>
        </g>
      </g>
      <g>
        <g>
          <rect x="139.43" y="17.22" width="82.8" height="17" rx="2" fill="#fff"/>
          <rect x="139.43" y="17.22" width="82.8" height="17" rx="2" fill="url(#linear-gradient-6)"/>
          <path d="M220.23,18.22a1,1,0,0,1,1,1v13a1,1,0,0,1-1,1h-78.8a1,1,0,0,1-1-1v-13a1,1,0,0,1,1-1h78.8m0-2h-78.8a3,3,0,0,0-3,3v13a3,3,0,0,0,3,3h78.8a3,3,0,0,0,3-3v-13a3,3,0,0,0-3-3Z" fill="#e6e6e6"/>
        </g>
        <circle cx="201.32" cy="21.95" r="1.09" fill="#86d633"/>
        <circle cx="207.73" cy="21.95" r="1.09" fill="#ffca00"/>
        <circle cx="214.14" cy="21.95" r="1.09" fill="#b31b1b"/>
        <rect x="200.23" y="24.7" width="15" height="6.02" fill="#e6e6e6"/>
        <g>
          <polygon points="150.63 22.14 150.63 20.85 146.44 20.85 146.44 22.14 145.03 22.14 145.03 24.7 152.03 24.7 152.03 22.14 150.63 22.14" fill="#231f20"/>
          <polygon points="161.1 22.14 161.1 20.85 156.91 20.85 156.91 22.14 155.5 22.14 155.5 24.7 162.5 24.7 162.5 22.14 161.1 22.14" fill="#231f20"/>
          <polygon points="171.57 22.14 171.57 20.85 167.38 20.85 167.38 22.14 165.97 22.14 165.97 24.7 172.97 24.7 172.97 22.14 171.57 22.14" fill="#231f20"/>
          <polygon points="182.04 22.14 182.04 20.85 177.85 20.85 177.85 22.14 176.44 22.14 176.44 24.7 183.44 24.7 183.44 22.14 182.04 22.14" fill="#231f20"/>
          <polygon points="192.5 22.14 192.5 20.85 188.31 20.85 188.31 22.14 186.91 22.14 186.91 24.7 193.91 24.7 193.91 22.14 192.5 22.14" fill="#231f20"/>
        </g>
        <g>
          <polygon points="150.63 28 150.63 26.72 146.44 26.72 146.44 28 145.03 28 145.03 30.57 152.03 30.57 152.03 28 150.63 28" fill="#231f20"/>
          <polygon points="161.1 28 161.1 26.72 156.91 26.72 156.91 28 155.5 28 155.5 30.57 162.5 30.57 162.5 28 161.1 28" fill="#231f20"/>
          <polygon points="171.57 28 171.57 26.72 167.38 26.72 167.38 28 165.97 28 165.97 30.57 172.97 30.57 172.97 28 171.57 28" fill="#231f20"/>
          <polygon points="182.04 28 182.04 26.72 177.85 26.72 177.85 28 176.44 28 176.44 30.57 183.44 30.57 183.44 28 182.04 28" fill="#231f20"/>
          <polygon points="192.5 28 192.5 26.72 188.31 26.72 188.31 28 186.91 28 186.91 30.57 193.91 30.57 193.91 28 192.5 28" fill="#231f20"/>
        </g>
      </g>
    </g>
    <g>
      <rect x="58.33" y="80.2" width="155" height="20" fill="#fff"/>
      <rect x="58.33" y="80.2" width="155" height="20" fill="#0072c6" opacity="0.25"/>
    </g>
    <g>
      <rect x="58.33" y="255.2" width="155" height="20" fill="#fff"/>
      <rect x="58.33" y="255.2" width="155" height="20" fill="#37c2b1" opacity="0.4"/>
    </g>
    <g>
      <rect x="58.33" y="105.2" width="155" height="20" fill="#fff"/>
      <rect x="58.33" y="105.2" width="155" height="20" fill="#0072c6" opacity="0.25"/>
    </g>
    <g>
      <rect x="58.33" y="130.2" width="155" height="20" fill="#fff"/>
      <rect x="58.33" y="130.2" width="155" height="20" fill="#3c3c41" opacity="0.02"/>
      <rect x="58.33" y="130.2" width="155" height="20" fill="none" stroke="#75757a" stroke-miterlimit="10" stroke-width="0.5" opacity="0.5"/>
    </g>
    <g>
      <rect x="58.33" y="155.2" width="155" height="20" fill="#fff"/>
      <rect x="58.33" y="155.2" width="155" height="20" fill="#3c3c41" opacity="0.25"/>
    </g>
    <g>
      <rect x="58.33" y="180.2" width="155" height="20" fill="#fff"/>
      <rect x="58.33" y="180.2" width="155" height="20" fill="#3c3c41" opacity="0.25"/>
    </g>
    <g>
      <rect x="58.33" y="205.2" width="155" height="20" fill="#fff"/>
      <rect x="58.33" y="205.2" width="155" height="20" fill="#3c3c41" opacity="0.25"/>
    </g>
    <g>
      <rect x="58.33" y="230.2" width="155" height="20" fill="#fff"/>
      <rect x="58.33" y="230.2" width="155" height="20" fill="#3c3c41" opacity="0.25"/>
    </g>
    <line x1="63.99" y1="35.15" x2="63.99" y2="105.2" fill="none" stroke="#231f20"/>
    <line x1="208.3" y1="35.15" x2="208.3" y2="105.2" fill="none" stroke="#231f20"/>
    <line x1="73.99" y1="35.15" x2="73.99" y2="80.2" fill="none" stroke="#231f20"/>
    <line x1="198.77" y1="35.15" x2="198.77" y2="80.2" fill="none" stroke="#231f20"/>
  </g>
  <g id="Text">
    <g>
      <path d="M97.36,10.2V1.8h2.39a2.65,2.65,0,0,1,1.73.53,1.75,1.75,0,0,1,.64,1.39A2,2,0,0,1,101.73,5a2.09,2.09,0,0,1-1.07.75v0a2.1,2.1,0,0,1,1.36.64,2,2,0,0,1,.51,1.41,2.16,2.16,0,0,1-.77,1.74,2.87,2.87,0,0,1-2,.67Zm1-7.51V5.4h1A1.91,1.91,0,0,0,100.62,5a1.35,1.35,0,0,0,.47-1.1c0-.81-.54-1.22-1.62-1.22Zm0,3.6v3h1.34A2,2,0,0,0,101,8.9a1.4,1.4,0,0,0,.48-1.12c0-1-.67-1.49-2-1.49Z" fill="#1e1e1e"/>
      <path d="M106.62,10.34a2.79,2.79,0,0,1-2.13-.84,3.1,3.1,0,0,1-.79-2.23,3.21,3.21,0,0,1,.83-2.36,3,3,0,0,1,2.23-.85,2.69,2.69,0,0,1,2.09.83,3.28,3.28,0,0,1,.76,2.29,3.25,3.25,0,0,1-.82,2.3A2.85,2.85,0,0,1,106.62,10.34Zm.07-5.47a1.84,1.84,0,0,0-1.47.63,2.59,2.59,0,0,0-.54,1.74,2.46,2.46,0,0,0,.55,1.68,1.85,1.85,0,0,0,1.46.61,1.75,1.75,0,0,0,1.43-.6,2.63,2.63,0,0,0,.5-1.72,2.66,2.66,0,0,0-.5-1.73A1.73,1.73,0,0,0,106.69,4.87Z" fill="#1e1e1e"/>
      <path d="M114.27,5.17a1.18,1.18,0,0,0-.73-.19,1.23,1.23,0,0,0-1,.58,2.72,2.72,0,0,0-.41,1.58V10.2h-1v-6h1V5.44h0a2.17,2.17,0,0,1,.63-1,1.42,1.42,0,0,1,1-.35,1.44,1.44,0,0,1,.57.08Z" fill="#1e1e1e"/>
      <path d="M120.43,10.2h-1v-1h0a2.21,2.21,0,0,1-2.06,1.16,2.25,2.25,0,0,1-1.81-.8,3.33,3.33,0,0,1-.68-2.2A3.57,3.57,0,0,1,115.65,5a2.48,2.48,0,0,1,2-.9,1.93,1.93,0,0,1,1.8,1h0V1.32h1Zm-1-2.71V6.6A1.73,1.73,0,0,0,119,5.37a1.62,1.62,0,0,0-1.22-.5,1.66,1.66,0,0,0-1.38.64,2.81,2.81,0,0,0-.5,1.78,2.54,2.54,0,0,0,.48,1.64,1.57,1.57,0,0,0,1.3.6A1.63,1.63,0,0,0,119,9,2.11,2.11,0,0,0,119.47,7.49Z" fill="#1e1e1e"/>
      <path d="M127.2,7.44H123A2.28,2.28,0,0,0,123.5,9a1.88,1.88,0,0,0,1.42.54,2.94,2.94,0,0,0,1.86-.66v.9a3.47,3.47,0,0,1-2.09.57,2.51,2.51,0,0,1-2-.82,3.31,3.31,0,0,1-.73-2.3,3.28,3.28,0,0,1,.79-2.28,2.54,2.54,0,0,1,2-.88,2.26,2.26,0,0,1,1.83.76,3.19,3.19,0,0,1,.64,2.12Zm-1-.81a2,2,0,0,0-.4-1.3,1.37,1.37,0,0,0-1.1-.46,1.54,1.54,0,0,0-1.16.49A2.18,2.18,0,0,0,123,6.63Z" fill="#1e1e1e"/>
      <path d="M131.78,5.17a1.14,1.14,0,0,0-.72-.19,1.21,1.21,0,0,0-1,.58,2.64,2.64,0,0,0-.41,1.58V10.2h-1v-6h1V5.44h0a2.09,2.09,0,0,1,.63-1,1.39,1.39,0,0,1,.94-.35,1.44,1.44,0,0,1,.57.08Z" fill="#1e1e1e"/>
      <path d="M136.24,10.2V1.8h2.32Q143,1.8,143,5.89A4.14,4.14,0,0,1,141.77,9a4.55,4.55,0,0,1-3.3,1.18Zm1-7.51V9.31h1.25a3.55,3.55,0,0,0,2.57-.88A3.3,3.3,0,0,0,142,5.92q0-3.22-3.43-3.23Z" fill="#1e1e1e"/>
      <path d="M149.35,7.44h-4.24A2.28,2.28,0,0,0,145.65,9a1.88,1.88,0,0,0,1.42.54,2.94,2.94,0,0,0,1.86-.66v.9a3.47,3.47,0,0,1-2.09.57,2.53,2.53,0,0,1-2-.82,3.35,3.35,0,0,1-.72-2.3,3.28,3.28,0,0,1,.79-2.28,2.54,2.54,0,0,1,2-.88,2.22,2.22,0,0,1,1.82.76,3.2,3.2,0,0,1,.65,2.12Zm-1-.81a2,2,0,0,0-.41-1.3,1.35,1.35,0,0,0-1.09-.46,1.54,1.54,0,0,0-1.16.49,2.19,2.19,0,0,0-.59,1.27Z" fill="#1e1e1e"/>
      <path d="M155.52,4.2l-2.39,6h-.94l-2.28-6H151l1.52,4.36a4.27,4.27,0,0,1,.21.84h0a4.7,4.7,0,0,1,.19-.82l1.6-4.38Z" fill="#1e1e1e"/>
      <path d="M157,2.68a.6.6,0,0,1-.44-.18.59.59,0,0,1-.18-.44.61.61,0,0,1,.18-.45.6.6,0,0,1,.44-.18.61.61,0,0,1,.45.18.62.62,0,0,1,0,.89A.61.61,0,0,1,157,2.68Zm.47,7.52h-1v-6h1Z" fill="#1e1e1e"/>
      <path d="M163.55,9.93a3.19,3.19,0,0,1-1.64.41,2.76,2.76,0,0,1-2.08-.83,3.06,3.06,0,0,1-.78-2.17A3.3,3.3,0,0,1,159.9,5a3,3,0,0,1,2.26-.9,3.24,3.24,0,0,1,1.4.29v1a2.47,2.47,0,0,0-1.43-.47,1.93,1.93,0,0,0-1.51.66A2.5,2.5,0,0,0,160,7.26a2.41,2.41,0,0,0,.55,1.66,1.91,1.91,0,0,0,1.49.61A2.41,2.41,0,0,0,163.55,9Z" fill="#1e1e1e"/>
      <path d="M169.82,7.44h-4.23A2.23,2.23,0,0,0,166.12,9a1.88,1.88,0,0,0,1.42.54,3,3,0,0,0,1.87-.66v.9a3.53,3.53,0,0,1-2.1.57,2.51,2.51,0,0,1-2-.82,3.31,3.31,0,0,1-.73-2.3,3.28,3.28,0,0,1,.79-2.28,2.55,2.55,0,0,1,2-.88,2.25,2.25,0,0,1,1.82.76,3.19,3.19,0,0,1,.64,2.12Zm-1-.81a2,2,0,0,0-.4-1.3,1.37,1.37,0,0,0-1.1-.46,1.54,1.54,0,0,0-1.16.49,2.18,2.18,0,0,0-.58,1.27Z" fill="#1e1e1e"/>
      <path d="M170.91,10V9a2.84,2.84,0,0,0,1.73.58c.84,0,1.27-.28,1.27-.84a.76.76,0,0,0-.11-.41.93.93,0,0,0-.3-.29,1.94,1.94,0,0,0-.43-.24l-.54-.21a6.6,6.6,0,0,1-.7-.32,2.47,2.47,0,0,1-.5-.36,1.35,1.35,0,0,1-.3-.46,1.58,1.58,0,0,1-.11-.61,1.39,1.39,0,0,1,.2-.74,1.78,1.78,0,0,1,.51-.55,2.77,2.77,0,0,1,.74-.33,3.41,3.41,0,0,1,.85-.11,3.5,3.5,0,0,1,1.4.27v1a2.74,2.74,0,0,0-1.53-.43,1.75,1.75,0,0,0-.48.06,1.33,1.33,0,0,0-.38.17,1,1,0,0,0-.24.27.77.77,0,0,0-.08.34,1,1,0,0,0,.08.4,1.07,1.07,0,0,0,.25.28,2.11,2.11,0,0,0,.4.22l.53.22a6.21,6.21,0,0,1,.72.31,2.82,2.82,0,0,1,.54.36,1.41,1.41,0,0,1,.34.47,1.48,1.48,0,0,1,.12.63,1.41,1.41,0,0,1-.2.77,1.58,1.58,0,0,1-.52.54,2.28,2.28,0,0,1-.76.33,3.68,3.68,0,0,1-.89.1A3.41,3.41,0,0,1,170.91,10Z" fill="#1e1e1e"/>
    </g>
    <g>
      <path d="M110.28,294.86V293.7a2.86,2.86,0,0,0,.48.32,3.8,3.8,0,0,0,.59.23,3.3,3.3,0,0,0,.62.15,3,3,0,0,0,.57.06,2.29,2.29,0,0,0,1.36-.34,1.26,1.26,0,0,0,.3-1.56,1.64,1.64,0,0,0-.42-.46,3.91,3.91,0,0,0-.62-.4l-.78-.4-.82-.45a3.4,3.4,0,0,1-.66-.51,2.06,2.06,0,0,1-.44-.62,1.91,1.91,0,0,1-.16-.82,1.93,1.93,0,0,1,.25-1,2.32,2.32,0,0,1,.66-.7,3.08,3.08,0,0,1,.94-.41A5.12,5.12,0,0,1,115,287v1.1a3.33,3.33,0,0,0-1.91-.51,2.88,2.88,0,0,0-.65.07,1.51,1.51,0,0,0-.57.22,1.18,1.18,0,0,0-.41.39,1,1,0,0,0-.16.58,1.22,1.22,0,0,0,.12.56,1.41,1.41,0,0,0,.35.43,3.75,3.75,0,0,0,.57.37l.78.4c.3.15.59.31.86.47a4,4,0,0,1,.7.55,2.36,2.36,0,0,1,.49.66,1.84,1.84,0,0,1,.18.83,2,2,0,0,1-.25,1.05,2,2,0,0,1-.65.7,3,3,0,0,1-1,.39,5.24,5.24,0,0,1-1.14.12l-.49,0-.6-.09c-.2-.05-.4-.1-.58-.16A1.65,1.65,0,0,1,110.28,294.86Z" fill="#1e1e1e"/>
      <path d="M121,294.93a3.17,3.17,0,0,1-1.64.41,2.75,2.75,0,0,1-2.07-.83,3.06,3.06,0,0,1-.79-2.17,3.35,3.35,0,0,1,.85-2.38,3,3,0,0,1,2.27-.9,3.27,3.27,0,0,1,1.4.29v1a2.49,2.49,0,0,0-1.43-.47,1.92,1.92,0,0,0-1.51.66,2.46,2.46,0,0,0-.59,1.73,2.36,2.36,0,0,0,.55,1.66,1.91,1.91,0,0,0,1.49.61A2.38,2.38,0,0,0,121,294Z" fill="#1e1e1e"/>
      <path d="M126.76,295.2h-1v-.94h0a2,2,0,0,1-1.85,1.08,2,2,0,0,1-1.4-.47,1.65,1.65,0,0,1-.51-1.26c0-1.12.66-1.78,2-2l1.8-.25c0-1-.41-1.53-1.24-1.53a3,3,0,0,0-2,.74v-1a3.76,3.76,0,0,1,2-.56c1.41,0,2.11.75,2.11,2.24Zm-1-3-1.45.2a2.25,2.25,0,0,0-1,.33.93.93,0,0,0-.34.84.89.89,0,0,0,.31.71,1.19,1.19,0,0,0,.83.28,1.51,1.51,0,0,0,1.18-.5,1.74,1.74,0,0,0,.47-1.27Z" fill="#1e1e1e"/>
      <path d="M129.53,295.2h-1v-8.88h1Z" fill="#1e1e1e"/>
      <path d="M136.3,292.44h-4.24a2.28,2.28,0,0,0,.54,1.55,1.88,1.88,0,0,0,1.42.54,2.94,2.94,0,0,0,1.86-.66v.9a3.47,3.47,0,0,1-2.09.57,2.54,2.54,0,0,1-2-.82,3.35,3.35,0,0,1-.72-2.3,3.28,3.28,0,0,1,.79-2.28,2.54,2.54,0,0,1,2-.88,2.26,2.26,0,0,1,1.83.76,3.19,3.19,0,0,1,.64,2.12Zm-1-.81a2,2,0,0,0-.41-1.3,1.35,1.35,0,0,0-1.09-.46,1.54,1.54,0,0,0-1.16.49,2.18,2.18,0,0,0-.58,1.27Z" fill="#1e1e1e"/>
      <path d="M147.32,291.8q0,3.54-3.2,3.54t-3.06-3.4V286.8h1v5.07c0,1.73.73,2.59,2.18,2.59s2.1-.83,2.1-2.5V286.8h1Z" fill="#1e1e1e"/>
      <path d="M154.27,295.2h-1v-3.42c0-1.27-.46-1.91-1.39-1.91a1.5,1.5,0,0,0-1.19.54,2,2,0,0,0-.47,1.37v3.42h-1v-6h1v1h0a2.16,2.16,0,0,1,2-1.14,1.81,1.81,0,0,1,1.5.64,2.79,2.79,0,0,1,.53,1.83Z" fill="#1e1e1e"/>
      <path d="M156.57,287.68a.6.6,0,0,1-.44-.18.59.59,0,0,1-.18-.44.61.61,0,0,1,.18-.45.6.6,0,0,1,.44-.18.64.64,0,0,1,.45.18.61.61,0,0,1,.18.45.6.6,0,0,1-.18.44A.64.64,0,0,1,156.57,287.68Zm.47,7.52h-1v-6h1Z" fill="#1e1e1e"/>
      <path d="M161.77,295.14a1.82,1.82,0,0,1-.9.19c-1.05,0-1.58-.59-1.58-1.76V290h-1v-.82h1v-1.46l1-.31v1.77h1.52V290h-1.52v3.38a1.37,1.37,0,0,0,.21.86.8.8,0,0,0,.68.26,1,1,0,0,0,.63-.2Z" fill="#1e1e1e"/>
    </g>
    <g>
      <path d="M121.1,55.2h-4.36V46.8h1v7.51h3.37Z" fill="#1e1e1e"/>
      <path d="M126.56,55.2h-1v-.94h0a2,2,0,0,1-1.85,1.08,2,2,0,0,1-1.4-.47,1.65,1.65,0,0,1-.51-1.26c0-1.12.66-1.78,2-2l1.8-.25c0-1-.41-1.53-1.24-1.53a3,3,0,0,0-2,.74v-1a3.7,3.7,0,0,1,2-.56c1.41,0,2.12.75,2.12,2.24Zm-1-3-1.45.2a2.35,2.35,0,0,0-1,.33,1,1,0,0,0-.34.84.9.9,0,0,0,.32.71,1.18,1.18,0,0,0,.83.28,1.51,1.51,0,0,0,1.18-.5,1.78,1.78,0,0,0,.47-1.27Z" fill="#1e1e1e"/>
      <path d="M133.15,49.2l-2.76,7c-.5,1.24-1.19,1.87-2.08,1.87a2.25,2.25,0,0,1-.63-.08v-.86a1.8,1.8,0,0,0,.57.1,1.17,1.17,0,0,0,1.09-.86l.48-1.14-2.34-6h1.07l1.62,4.62c0,.06.06.21.12.46h0c0-.1.06-.25.11-.45l1.71-4.63Z" fill="#1e1e1e"/>
      <path d="M139,52.44h-4.24A2.28,2.28,0,0,0,135.3,54a1.88,1.88,0,0,0,1.42.54,2.94,2.94,0,0,0,1.86-.66v.9a3.47,3.47,0,0,1-2.09.57,2.53,2.53,0,0,1-2-.82,3.35,3.35,0,0,1-.72-2.3,3.28,3.28,0,0,1,.79-2.28,2.54,2.54,0,0,1,2-.88,2.24,2.24,0,0,1,1.82.76,3.2,3.2,0,0,1,.65,2.12Zm-1-.81a1.91,1.91,0,0,0-.4-1.3,1.36,1.36,0,0,0-1.1-.46,1.54,1.54,0,0,0-1.15.49,2.19,2.19,0,0,0-.59,1.27Z" fill="#1e1e1e"/>
      <path d="M143.58,50.17a1.18,1.18,0,0,0-.73-.19,1.2,1.2,0,0,0-1,.58,2.64,2.64,0,0,0-.42,1.58V55.2h-1v-6h1v1.24h0a2.08,2.08,0,0,1,.62-1,1.42,1.42,0,0,1,.95-.35,1.44,1.44,0,0,1,.57.08Z" fill="#1e1e1e"/>
      <path d="M152.52,52.82a2.51,2.51,0,0,1-.21,1,2.24,2.24,0,0,1-.61.79,2.88,2.88,0,0,1-.93.52,3.78,3.78,0,0,1-1.2.18,3.44,3.44,0,0,1-1.91-.46v-1a3.09,3.09,0,0,0,1.94.67,2.81,2.81,0,0,0,.8-.11,2,2,0,0,0,.61-.33,1.39,1.39,0,0,0,.39-.51,1.6,1.6,0,0,0,.14-.67c0-1.1-.78-1.65-2.35-1.65h-.69v-.81h.66c1.38,0,2.07-.52,2.07-1.55s-.52-1.43-1.58-1.43a2.7,2.7,0,0,0-1.67.6v-.93a3.66,3.66,0,0,1,1.91-.48,3.22,3.22,0,0,1,1,.14,2.35,2.35,0,0,1,.73.41,1.87,1.87,0,0,1,.47.64,2,2,0,0,1,.17.81,2,2,0,0,1-1.68,2.13v0a2.49,2.49,0,0,1,.79.21,1.83,1.83,0,0,1,.63.42,1.78,1.78,0,0,1,.41.6A1.92,1.92,0,0,1,152.52,52.82Z" fill="#1e1e1e"/>
      <path d="M154.71,50.37a.62.62,0,0,1-.46-.19.66.66,0,0,1-.19-.46.64.64,0,0,1,.19-.46.62.62,0,0,1,.46-.19.63.63,0,0,1,.47.19.61.61,0,0,1,.2.46.67.67,0,0,1-.67.65Zm0,5a.62.62,0,0,1-.46-.19.68.68,0,0,1-.19-.47.66.66,0,0,1,.19-.46.67.67,0,0,1,1.13.46.65.65,0,0,1-.2.47A.63.63,0,0,1,154.71,55.33Z" fill="#1e1e1e"/>
      <path d="M87,68.4V60h2.39a2.63,2.63,0,0,1,1.73.53,1.72,1.72,0,0,1,.64,1.39,2,2,0,0,1-.39,1.24,2.07,2.07,0,0,1-1.06.75v0a2.13,2.13,0,0,1,1.36.64A2,2,0,0,1,92.15,66a2.17,2.17,0,0,1-.78,1.74,2.84,2.84,0,0,1-2,.67Zm1-7.51V63.6h1a1.93,1.93,0,0,0,1.27-.39,1.34,1.34,0,0,0,.46-1.1c0-.81-.54-1.22-1.61-1.22Zm0,3.6v3h1.33a2,2,0,0,0,1.35-.41A1.4,1.4,0,0,0,91.12,66c0-1-.68-1.49-2-1.49Z" fill="#1e1e1e"/>
      <path d="M100.13,67.83a5.67,5.67,0,0,1-2.81.71,3.82,3.82,0,0,1-2.91-1.16,4.26,4.26,0,0,1-1.11-3.07,4.37,4.37,0,0,1,1.23-3.2,4.24,4.24,0,0,1,3.13-1.25,5.39,5.39,0,0,1,2.3.44v1.09a4.4,4.4,0,0,0-2.41-.64,3,3,0,0,0-2.31,1,3.53,3.53,0,0,0-.91,2.52,3.58,3.58,0,0,0,.84,2.51,3,3,0,0,0,2.27.91,3.43,3.43,0,0,0,1.71-.4V64.91H97.31V64h2.82Z" fill="#1e1e1e"/>
      <path d="M103.07,65.23V68.4h-1V60h2.31a3,3,0,0,1,2.09.66,2.31,2.31,0,0,1,.74,1.85,2.52,2.52,0,0,1-.82,1.95,3.14,3.14,0,0,1-2.22.77Zm0-4.34v3.44h1a2.32,2.32,0,0,0,1.56-.46,1.67,1.67,0,0,0,.53-1.32c0-1.11-.65-1.66-2-1.66Z" fill="#1e1e1e"/>
      <path d="M114.47,68.54a2.77,2.77,0,0,1-2.12-.84,3.11,3.11,0,0,1-.8-2.23,3.25,3.25,0,0,1,.83-2.36,3,3,0,0,1,2.23-.85,2.71,2.71,0,0,1,2.1.83,3.77,3.77,0,0,1-.06,4.59A2.87,2.87,0,0,1,114.47,68.54Zm.07-5.47a1.81,1.81,0,0,0-1.46.63,2.59,2.59,0,0,0-.54,1.74,2.46,2.46,0,0,0,.54,1.68,1.86,1.86,0,0,0,1.46.61,1.75,1.75,0,0,0,1.43-.6,2.58,2.58,0,0,0,.51-1.72,2.61,2.61,0,0,0-.51-1.73A1.73,1.73,0,0,0,114.54,63.07Z" fill="#1e1e1e"/>
      <path d="M122.12,63.37a1.29,1.29,0,0,0-1.75.39,2.64,2.64,0,0,0-.41,1.58V68.4h-1v-6h1v1.24h0a2.17,2.17,0,0,1,.63-1,1.39,1.39,0,0,1,.94-.35,1.44,1.44,0,0,1,.57.08Z" fill="#1e1e1e"/>
      <path d="M126.19,68.06V66.9a2.23,2.23,0,0,0,.48.32,5,5,0,0,0,.58.24,4.61,4.61,0,0,0,.62.14,3.09,3.09,0,0,0,.58.06,2.27,2.27,0,0,0,1.35-.34,1.26,1.26,0,0,0,.3-1.56,1.76,1.76,0,0,0-.41-.46,4.57,4.57,0,0,0-.63-.4l-.77-.4c-.3-.15-.57-.3-.82-.45a2.89,2.89,0,0,1-.66-.51,2.1,2.1,0,0,1-.45-.62,2.15,2.15,0,0,1,.09-1.82,2.24,2.24,0,0,1,.67-.7,3,3,0,0,1,.93-.41,4.29,4.29,0,0,1,1.07-.13,4.08,4.08,0,0,1,1.81.3v1.1a3.31,3.31,0,0,0-1.91-.51,2.79,2.79,0,0,0-.64.07,1.56,1.56,0,0,0-.58.22,1.27,1.27,0,0,0-.41.39,1.07,1.07,0,0,0-.16.58,1.19,1.19,0,0,0,.12.56,1.31,1.31,0,0,0,.36.43,3,3,0,0,0,.57.37c.22.13.48.26.78.4s.58.31.85.47a4,4,0,0,1,.71.55,2.53,2.53,0,0,1,.48.66,1.84,1.84,0,0,1,.18.83,2.14,2.14,0,0,1-.24,1,1.93,1.93,0,0,1-.66.7,2.8,2.8,0,0,1-.95.39,5.24,5.24,0,0,1-1.14.12l-.49,0-.6-.09a4.74,4.74,0,0,1-.57-.16A1.65,1.65,0,0,1,126.19,68.06Z" fill="#1e1e1e"/>
      <path d="M135.23,68.34a1.82,1.82,0,0,1-.9.19c-1.05,0-1.58-.59-1.58-1.76V63.22h-1V62.4h1V60.94l1-.31V62.4h1.52v.82h-1.52V66.6a1.37,1.37,0,0,0,.21.86.8.8,0,0,0,.68.26,1,1,0,0,0,.63-.2Z" fill="#1e1e1e"/>
      <path d="M140.8,68.4h-1v-.94h0a2.2,2.2,0,0,1-3.25.61,1.65,1.65,0,0,1-.51-1.26c0-1.12.66-1.78,2-2l1.8-.25q0-1.53-1.23-1.53a3,3,0,0,0-2,.74v-1a3.76,3.76,0,0,1,2-.56c1.41,0,2.11.75,2.11,2.24Zm-1-3-1.44.2a2.25,2.25,0,0,0-1,.33,1.1,1.1,0,0,0,0,1.56,1.25,1.25,0,0,0,.84.27,1.53,1.53,0,0,0,1.18-.5,1.77,1.77,0,0,0,.46-1.27Z" fill="#1e1e1e"/>
      <path d="M145.4,68.34a1.82,1.82,0,0,1-.9.19c-1.05,0-1.58-.59-1.58-1.76V63.22h-1V62.4h1V60.94l1-.31V62.4h1.51v.82h-1.51V66.6a1.38,1.38,0,0,0,.2.86.8.8,0,0,0,.68.26,1,1,0,0,0,.63-.2Z" fill="#1e1e1e"/>
      <path d="M147.17,60.88a.6.6,0,0,1-.44-.18.59.59,0,0,1-.18-.44.61.61,0,0,1,.18-.45.6.6,0,0,1,.44-.18.61.61,0,0,1,.45.18.62.62,0,0,1,0,.89A.61.61,0,0,1,147.17,60.88Zm.47,7.52h-1v-6h1Z" fill="#1e1e1e"/>
      <path d="M153.68,68.13a3.19,3.19,0,0,1-1.64.41,2.76,2.76,0,0,1-2.08-.83,3.06,3.06,0,0,1-.78-2.17,3.3,3.3,0,0,1,.85-2.38,3,3,0,0,1,2.26-.9,3.24,3.24,0,0,1,1.4.29v1a2.47,2.47,0,0,0-1.43-.47,1.93,1.93,0,0,0-1.51.66,2.52,2.52,0,0,0-.59,1.73,2.41,2.41,0,0,0,.55,1.66,1.91,1.91,0,0,0,1.49.61,2.41,2.41,0,0,0,1.48-.52Z" fill="#1e1e1e"/>
      <path d="M161.55,63.37a1.25,1.25,0,0,0-.73-.19,1.23,1.23,0,0,0-1,.58,2.72,2.72,0,0,0-.41,1.58V68.4h-1v-6h1v1.24h0a2.17,2.17,0,0,1,.63-1,1.39,1.39,0,0,1,.94-.35,1.52,1.52,0,0,1,.58.08Z" fill="#1e1e1e"/>
      <path d="M165.1,68.54A2.79,2.79,0,0,1,163,67.7a3.1,3.1,0,0,1-.79-2.23,3.24,3.24,0,0,1,.82-2.36,3,3,0,0,1,2.24-.85,2.69,2.69,0,0,1,2.09.83,3.77,3.77,0,0,1-.06,4.59A2.85,2.85,0,0,1,165.1,68.54Zm.07-5.47a1.84,1.84,0,0,0-1.47.63,2.59,2.59,0,0,0-.54,1.74,2.41,2.41,0,0,0,.55,1.68,1.85,1.85,0,0,0,1.46.61,1.75,1.75,0,0,0,1.43-.6,2.63,2.63,0,0,0,.5-1.72,2.66,2.66,0,0,0-.5-1.73A1.73,1.73,0,0,0,165.17,63.07Z" fill="#1e1e1e"/>
      <path d="M174.47,68.4h-1v-1h0a2,2,0,0,1-1.85,1.09c-1.43,0-2.15-.85-2.15-2.55V62.4h1v3.43c0,1.27.48,1.9,1.45,1.9a1.47,1.47,0,0,0,1.16-.52,2,2,0,0,0,.45-1.35V62.4h1Z" fill="#1e1e1e"/>
      <path d="M179.19,68.34a1.76,1.76,0,0,1-.89.19c-1.05,0-1.58-.59-1.58-1.76V63.22h-1V62.4h1V60.94l1-.31V62.4h1.51v.82h-1.51V66.6a1.37,1.37,0,0,0,.21.86.78.78,0,0,0,.68.26.94.94,0,0,0,.62-.2Z" fill="#1e1e1e"/>
      <path d="M185.3,65.64h-4.24a2.28,2.28,0,0,0,.54,1.55,1.88,1.88,0,0,0,1.42.54,2.94,2.94,0,0,0,1.86-.66V68a3.47,3.47,0,0,1-2.09.57,2.53,2.53,0,0,1-2-.82,3.35,3.35,0,0,1-.72-2.3,3.28,3.28,0,0,1,.79-2.28,2.54,2.54,0,0,1,2-.88,2.26,2.26,0,0,1,1.83.76,3.25,3.25,0,0,1,.64,2.12Zm-1-.81a2,2,0,0,0-.41-1.3,1.35,1.35,0,0,0-1.09-.46,1.54,1.54,0,0,0-1.16.49,2.12,2.12,0,0,0-.58,1.27Z" fill="#1e1e1e"/>
    </g>
    <g>
      <path d="M111.66,95.2H107.3V86.8h1v7.51h3.37Z" fill="#1e1e1e"/>
      <path d="M117.64,92.44h-4.23A2.19,2.19,0,0,0,114,94a1.85,1.85,0,0,0,1.42.54,3,3,0,0,0,1.86-.66v.9a3.52,3.52,0,0,1-2.09.57,2.52,2.52,0,0,1-2-.82,3.81,3.81,0,0,1,.07-4.58,2.53,2.53,0,0,1,2-.88,2.25,2.25,0,0,1,1.82.76,3.19,3.19,0,0,1,.64,2.12Zm-1-.81a2,2,0,0,0-.4-1.3,1.37,1.37,0,0,0-1.1-.46,1.52,1.52,0,0,0-1.15.49,2.13,2.13,0,0,0-.59,1.27Z" fill="#1e1e1e"/>
      <path d="M123.39,95.2h-1v-.94h0a2,2,0,0,1-1.85,1.08,2,2,0,0,1-1.4-.47,1.65,1.65,0,0,1-.51-1.26c0-1.12.66-1.78,2-2l1.8-.25q0-1.53-1.23-1.53a3,3,0,0,0-2,.74v-1a3.76,3.76,0,0,1,2-.56c1.41,0,2.11.75,2.11,2.24Zm-1-3-1.45.2a2.25,2.25,0,0,0-1,.33.93.93,0,0,0-.34.84.89.89,0,0,0,.31.71,1.19,1.19,0,0,0,.83.28A1.54,1.54,0,0,0,122,94a1.77,1.77,0,0,0,.46-1.27Z" fill="#1e1e1e"/>
      <path d="M128.17,87.16a1.35,1.35,0,0,0-.64-.16c-.67,0-1,.43-1,1.28v.92h1.41V90h-1.41V95.2h-1V90h-1V89.2h1v-1a2,2,0,0,1,.54-1.49,1.82,1.82,0,0,1,1.36-.55,1.92,1.92,0,0,1,.7.1Z" fill="#1e1e1e"/>
      <path d="M132,94.86V93.7a2.5,2.5,0,0,0,.48.32,3.8,3.8,0,0,0,.59.23,3.39,3.39,0,0,0,.61.15,3.09,3.09,0,0,0,.58.06,2.25,2.25,0,0,0,1.35-.34,1.26,1.26,0,0,0,.3-1.56,1.6,1.6,0,0,0-.41-.46,4.43,4.43,0,0,0-.62-.4l-.78-.4c-.29-.15-.57-.3-.82-.45a3.13,3.13,0,0,1-.66-.51A1.95,1.95,0,0,1,132,88.9a1.93,1.93,0,0,1,.26-1,2.1,2.1,0,0,1,.66-.7,3,3,0,0,1,.93-.41,4.29,4.29,0,0,1,1.07-.13,4.08,4.08,0,0,1,1.81.3v1.1a3.29,3.29,0,0,0-1.91-.51,2.79,2.79,0,0,0-.64.07,1.56,1.56,0,0,0-.58.22,1.38,1.38,0,0,0-.41.39,1.06,1.06,0,0,0-.15.58,1.22,1.22,0,0,0,.12.56,1.28,1.28,0,0,0,.35.43,3.75,3.75,0,0,0,.57.37c.23.12.48.26.78.4s.58.31.85.47a4,4,0,0,1,.71.55,2.36,2.36,0,0,1,.49.66,2,2,0,0,1,.17.83,2.14,2.14,0,0,1-.24,1,1.93,1.93,0,0,1-.66.7,2.8,2.8,0,0,1-.95.39,5.22,5.22,0,0,1-1.13.12l-.5,0-.59-.09c-.21,0-.4-.1-.58-.16A1.65,1.65,0,0,1,132,94.86Z" fill="#1e1e1e"/>
      <path d="M146,89.2l-1.8,6h-1L142,90.91a3,3,0,0,1-.09-.56h0a3.4,3.4,0,0,1-.13.54l-1.34,4.31h-1l-1.82-6h1l1.24,4.51a3,3,0,0,1,.09.54h0a2.43,2.43,0,0,1,.11-.55l1.38-4.5h.88l1.24,4.52a3.36,3.36,0,0,1,.09.54h.05a2.08,2.08,0,0,1,.1-.54l1.21-4.52Z" fill="#1e1e1e"/>
      <path d="M147.61,87.68a.6.6,0,0,1-.44-.18.59.59,0,0,1-.18-.44.61.61,0,0,1,.18-.45.6.6,0,0,1,.44-.18.64.64,0,0,1,.45.18.61.61,0,0,1,.18.45.6.6,0,0,1-.18.44A.64.64,0,0,1,147.61,87.68Zm.47,7.52h-1v-6h1Z" fill="#1e1e1e"/>
      <path d="M152.81,95.14a1.82,1.82,0,0,1-.9.19c-1,0-1.58-.59-1.58-1.76V90h-1V89.2h1V87.74l1-.31V89.2h1.52V90h-1.52V93.4a1.37,1.37,0,0,0,.21.86.8.8,0,0,0,.68.26,1,1,0,0,0,.63-.2Z" fill="#1e1e1e"/>
      <path d="M158.18,94.93a3.19,3.19,0,0,1-1.64.41,2.72,2.72,0,0,1-2.07-.83,3,3,0,0,1-.79-2.17,3.3,3.3,0,0,1,.85-2.38,3,3,0,0,1,2.27-.9,3.23,3.23,0,0,1,1.39.29v1a2.45,2.45,0,0,0-1.43-.47,2,2,0,0,0-1.51.66,2.5,2.5,0,0,0-.59,1.73,2.36,2.36,0,0,0,.56,1.66,1.89,1.89,0,0,0,1.48.61,2.39,2.39,0,0,0,1.48-.52Z" fill="#1e1e1e"/>
      <path d="M164.61,95.2h-1V91.74c0-1.25-.46-1.87-1.39-1.87a1.53,1.53,0,0,0-1.19.54,2,2,0,0,0-.48,1.39v3.4h-1V86.32h1V90.2h0a2.17,2.17,0,0,1,2-1.14c1.35,0,2,.82,2,2.44Z" fill="#1e1e1e"/>
      <path d="M111.66,120H107.3v-8.4h1v7.51h3.37Z" fill="#1e1e1e"/>
      <path d="M117.64,117.24h-4.23a2.21,2.21,0,0,0,.54,1.55,1.85,1.85,0,0,0,1.42.54,3,3,0,0,0,1.86-.66v.9a3.52,3.52,0,0,1-2.09.57,2.52,2.52,0,0,1-2-.82,3.81,3.81,0,0,1,.07-4.58,2.53,2.53,0,0,1,2-.88,2.25,2.25,0,0,1,1.82.76,3.18,3.18,0,0,1,.64,2.12Zm-1-.81a2,2,0,0,0-.4-1.3,1.37,1.37,0,0,0-1.1-.46,1.52,1.52,0,0,0-1.15.49,2.13,2.13,0,0,0-.59,1.27Z" fill="#1e1e1e"/>
      <path d="M123.39,120h-1v-.94h0a2,2,0,0,1-1.85,1.08,2,2,0,0,1-1.4-.47,1.65,1.65,0,0,1-.51-1.26c0-1.12.66-1.78,2-2l1.8-.25q0-1.53-1.23-1.53a3,3,0,0,0-2,.74v-1a3.76,3.76,0,0,1,2-.56c1.41,0,2.11.75,2.11,2.24Zm-1-3-1.45.2a2.25,2.25,0,0,0-1,.33.93.93,0,0,0-.34.84.89.89,0,0,0,.31.71,1.19,1.19,0,0,0,.83.28,1.54,1.54,0,0,0,1.19-.5,1.77,1.77,0,0,0,.46-1.27Z" fill="#1e1e1e"/>
      <path d="M128.17,112a1.35,1.35,0,0,0-.64-.16c-.67,0-1,.43-1,1.28V114h1.41v.82h-1.41V120h-1v-5.18h-1V114h1v-1a2,2,0,0,1,.54-1.49,1.82,1.82,0,0,1,1.36-.55,1.92,1.92,0,0,1,.7.1Z" fill="#1e1e1e"/>
      <path d="M132,119.66V118.5a2.5,2.5,0,0,0,.48.32,3.8,3.8,0,0,0,.59.23,3.39,3.39,0,0,0,.61.15,3.09,3.09,0,0,0,.58.06,2.25,2.25,0,0,0,1.35-.34,1.26,1.26,0,0,0,.3-1.56,1.6,1.6,0,0,0-.41-.46,4.43,4.43,0,0,0-.62-.4l-.78-.4c-.29-.15-.57-.3-.82-.45a3.13,3.13,0,0,1-.66-.51,1.95,1.95,0,0,1-.61-1.44,1.93,1.93,0,0,1,.26-1,2.1,2.1,0,0,1,.66-.7,3,3,0,0,1,.93-.41,4.29,4.29,0,0,1,1.07-.13,4.08,4.08,0,0,1,1.81.3v1.1a3.29,3.29,0,0,0-1.91-.51,2.79,2.79,0,0,0-.64.07,1.56,1.56,0,0,0-.58.22,1.38,1.38,0,0,0-.41.39,1.06,1.06,0,0,0-.15.58,1.22,1.22,0,0,0,.12.56,1.28,1.28,0,0,0,.35.43,3.75,3.75,0,0,0,.57.37c.23.12.48.26.78.4s.58.31.85.47a3.62,3.62,0,0,1,.71.55,2.23,2.23,0,0,1,.49.66,2,2,0,0,1,.17.83,2.14,2.14,0,0,1-.24,1.05,1.93,1.93,0,0,1-.66.7,2.8,2.8,0,0,1-.95.39,5.22,5.22,0,0,1-1.13.12l-.5,0L133,120c-.21,0-.4-.1-.58-.16A1.65,1.65,0,0,1,132,119.66Z" fill="#1e1e1e"/>
      <path d="M146,114l-1.8,6h-1L142,115.71a3,3,0,0,1-.09-.56h0a3.4,3.4,0,0,1-.13.54L140.39,120h-1l-1.82-6h1l1.24,4.51a3,3,0,0,1,.09.54h0a2.43,2.43,0,0,1,.11-.55l1.38-4.5h.88l1.24,4.52a3.36,3.36,0,0,1,.09.54h.05a2.08,2.08,0,0,1,.1-.54l1.21-4.52Z" fill="#1e1e1e"/>
      <path d="M147.61,112.48a.6.6,0,0,1-.44-.18.59.59,0,0,1-.18-.44.61.61,0,0,1,.18-.45.6.6,0,0,1,.44-.18.64.64,0,0,1,.45.18.61.61,0,0,1,.18.45.62.62,0,0,1-.18.44A.64.64,0,0,1,147.61,112.48Zm.47,7.52h-1v-6h1Z" fill="#1e1e1e"/>
      <path d="M152.81,119.94a1.82,1.82,0,0,1-.9.19c-1,0-1.58-.59-1.58-1.76v-3.55h-1V114h1v-1.46l1-.31V114h1.52v.82h-1.52v3.38a1.37,1.37,0,0,0,.21.86.8.8,0,0,0,.68.26,1.05,1.05,0,0,0,.63-.2Z" fill="#1e1e1e"/>
      <path d="M158.18,119.73a3.19,3.19,0,0,1-1.64.41,2.72,2.72,0,0,1-2.07-.83,3,3,0,0,1-.79-2.17,3.3,3.3,0,0,1,.85-2.38,3,3,0,0,1,2.27-.9,3.23,3.23,0,0,1,1.39.29v1a2.45,2.45,0,0,0-1.43-.47,2,2,0,0,0-1.51.66,2.5,2.5,0,0,0-.59,1.73,2.36,2.36,0,0,0,.56,1.66,1.89,1.89,0,0,0,1.48.61,2.39,2.39,0,0,0,1.48-.52Z" fill="#1e1e1e"/>
      <path d="M164.61,120h-1v-3.46c0-1.25-.46-1.87-1.39-1.87a1.53,1.53,0,0,0-1.19.54,2,2,0,0,0-.48,1.39V120h-1v-8.88h1V115h0a2.17,2.17,0,0,1,2-1.14c1.35,0,2,.81,2,2.44Z" fill="#1e1e1e"/>
      <path d="M105.65,144.8v-8.4H108a2.63,2.63,0,0,1,1.73.53,1.72,1.72,0,0,1,.64,1.39,2,2,0,0,1-.39,1.24,2.07,2.07,0,0,1-1.06.75v0a2.13,2.13,0,0,1,1.36.64,2,2,0,0,1,.51,1.41,2.17,2.17,0,0,1-.78,1.74,2.84,2.84,0,0,1-2,.67Zm1-7.51V140h1a1.93,1.93,0,0,0,1.27-.39,1.34,1.34,0,0,0,.46-1.1c0-.81-.54-1.22-1.61-1.22Zm0,3.6v3H108a2,2,0,0,0,1.35-.41,1.4,1.4,0,0,0,.48-1.12c0-1-.68-1.49-2-1.49Z" fill="#1e1e1e"/>
      <path d="M121.1,144.8h-1v-5.64c0-.44,0-1,.08-1.63h0a6.37,6.37,0,0,1-.25.81l-2.87,6.46h-.48l-2.87-6.41a4.68,4.68,0,0,1-.25-.86h0a16.5,16.5,0,0,1,0,1.65v5.62h-1v-8.4h1.3l2.58,5.86a7.38,7.38,0,0,1,.39,1h0c.17-.46.31-.81.41-1l2.63-5.83h1.23Z" fill="#1e1e1e"/>
      <path d="M129,144.45a4.92,4.92,0,0,1-2.32.49,3.75,3.75,0,0,1-2.88-1.15,4.3,4.3,0,0,1-1.07-3A4.45,4.45,0,0,1,124,137.5a4.11,4.11,0,0,1,3.08-1.24,5,5,0,0,1,2,.34v1.05a4.12,4.12,0,0,0-2-.5,3,3,0,0,0-2.34,1,3.62,3.62,0,0,0-.9,2.58,3.49,3.49,0,0,0,.84,2.45,2.87,2.87,0,0,0,2.2.91,4.12,4.12,0,0,0,2.2-.57Z" fill="#1e1e1e"/>
      <path d="M133.63,144.46V143.3a2.23,2.23,0,0,0,.48.32,3.45,3.45,0,0,0,.59.23,3.39,3.39,0,0,0,.61.15,3.09,3.09,0,0,0,.58.06,2.25,2.25,0,0,0,1.35-.34,1.26,1.26,0,0,0,.3-1.56,1.6,1.6,0,0,0-.41-.46,4.43,4.43,0,0,0-.62-.4l-.78-.4c-.29-.15-.57-.3-.82-.45a3.13,3.13,0,0,1-.66-.51,2.1,2.1,0,0,1-.45-.62,2.07,2.07,0,0,1-.16-.82,1.93,1.93,0,0,1,.26-1,2.1,2.1,0,0,1,.66-.7,3,3,0,0,1,.93-.41,4.29,4.29,0,0,1,1.07-.13,4.08,4.08,0,0,1,1.81.3v1.1a3.29,3.29,0,0,0-1.91-.51,2.79,2.79,0,0,0-.64.07,1.56,1.56,0,0,0-.58.22,1.38,1.38,0,0,0-.41.39,1.07,1.07,0,0,0-.16.58,1.22,1.22,0,0,0,.12.56,1.31,1.31,0,0,0,.36.43,3.75,3.75,0,0,0,.57.37c.23.13.48.26.78.4s.58.31.85.47a4,4,0,0,1,.71.55,2.32,2.32,0,0,1,.48.66,1.84,1.84,0,0,1,.18.83,2.14,2.14,0,0,1-.24,1,1.93,1.93,0,0,1-.66.7,2.8,2.8,0,0,1-.95.39,5.22,5.22,0,0,1-1.13.12l-.5,0-.59-.09c-.21,0-.4-.1-.58-.16A1.65,1.65,0,0,1,133.63,144.46Z" fill="#1e1e1e"/>
      <path d="M147.65,138.8l-1.8,6h-1l-1.24-4.29a3,3,0,0,1-.09-.56h0a2.44,2.44,0,0,1-.12.54L142,144.8h-1l-1.82-6h1l1.24,4.51a2.38,2.38,0,0,1,.08.54h0a2.43,2.43,0,0,1,.11-.55l1.38-4.5H144l1.24,4.52a3.36,3.36,0,0,1,.09.54h0a2.08,2.08,0,0,1,.1-.54l1.21-4.52Z" fill="#1e1e1e"/>
      <path d="M149.26,137.28a.6.6,0,0,1-.44-.18.59.59,0,0,1-.18-.44.61.61,0,0,1,.18-.45.6.6,0,0,1,.44-.18.64.64,0,0,1,.45.18.61.61,0,0,1,.18.45.6.6,0,0,1-.18.44A.64.64,0,0,1,149.26,137.28Zm.47,7.52h-1v-6h1Z" fill="#1e1e1e"/>
      <path d="M154.46,144.74a1.82,1.82,0,0,1-.9.19c-1.05,0-1.58-.59-1.58-1.76v-3.55h-1v-.82h1v-1.46l1-.31v1.77h1.52v.82h-1.52V143a1.37,1.37,0,0,0,.21.86.8.8,0,0,0,.68.26,1,1,0,0,0,.63-.2Z" fill="#1e1e1e"/>
      <path d="M159.83,144.53a3.19,3.19,0,0,1-1.64.41,2.72,2.72,0,0,1-2.07-.83,3,3,0,0,1-.79-2.17,3.3,3.3,0,0,1,.85-2.38,3,3,0,0,1,2.27-.9,3.23,3.23,0,0,1,1.39.29v1a2.45,2.45,0,0,0-1.43-.47,1.93,1.93,0,0,0-1.51.66,2.52,2.52,0,0,0-.59,1.73,2.36,2.36,0,0,0,.56,1.66,1.89,1.89,0,0,0,1.48.61,2.39,2.39,0,0,0,1.48-.52Z" fill="#1e1e1e"/>
      <path d="M166.26,144.8h-1v-3.46c0-1.25-.46-1.87-1.39-1.87a1.53,1.53,0,0,0-1.19.54,2,2,0,0,0-.48,1.39v3.4h-1v-8.88h1v3.88h0a2.17,2.17,0,0,1,2-1.14c1.35,0,2,.82,2,2.44Z" fill="#1e1e1e"/>
      <path d="M120,169.26V168.1a2.42,2.42,0,0,0,.47.32,3.8,3.8,0,0,0,.59.23,3.3,3.3,0,0,0,.62.15,3,3,0,0,0,.57.06,2.29,2.29,0,0,0,1.36-.34,1.26,1.26,0,0,0,.3-1.56,1.64,1.64,0,0,0-.42-.46,3.91,3.91,0,0,0-.62-.4l-.78-.4-.82-.45a3.4,3.4,0,0,1-.66-.51,2.06,2.06,0,0,1-.44-.62,1.91,1.91,0,0,1-.16-.82,1.93,1.93,0,0,1,.25-1,2.32,2.32,0,0,1,.66-.7,3.19,3.19,0,0,1,.94-.41,4.24,4.24,0,0,1,1.07-.13,4.11,4.11,0,0,1,1.81.3v1.1a3.33,3.33,0,0,0-1.91-.51,2.88,2.88,0,0,0-.65.07,1.58,1.58,0,0,0-.57.22,1.18,1.18,0,0,0-.41.39,1,1,0,0,0-.16.58,1.22,1.22,0,0,0,.12.56,1.41,1.41,0,0,0,.35.43,3.42,3.42,0,0,0,.58.37c.22.12.48.26.77.4s.59.31.86.47a3.94,3.94,0,0,1,.71.55,2.53,2.53,0,0,1,.48.66,1.84,1.84,0,0,1,.18.83,2,2,0,0,1-.25,1.05,2,2,0,0,1-.65.7,2.88,2.88,0,0,1-1,.39,5.24,5.24,0,0,1-1.14.12l-.49,0-.6-.09c-.2-.05-.4-.1-.58-.16A1.57,1.57,0,0,1,120,169.26Z" fill="#1e1e1e"/>
      <path d="M131.49,166.84h-4.24a2.3,2.3,0,0,0,.54,1.55,1.87,1.87,0,0,0,1.42.54,3,3,0,0,0,1.86-.66v.9a3.5,3.5,0,0,1-2.09.57,2.53,2.53,0,0,1-2-.82,3.36,3.36,0,0,1-.73-2.3,3.29,3.29,0,0,1,.8-2.28,2.54,2.54,0,0,1,2-.88,2.24,2.24,0,0,1,1.82.76,3.2,3.2,0,0,1,.65,2.12Zm-1-.81a1.91,1.91,0,0,0-.4-1.3,1.36,1.36,0,0,0-1.1-.46,1.52,1.52,0,0,0-1.15.49,2.19,2.19,0,0,0-.59,1.27Z" fill="#1e1e1e"/>
      <path d="M136.07,164.57a1.18,1.18,0,0,0-.73-.19,1.23,1.23,0,0,0-1,.58,2.72,2.72,0,0,0-.41,1.58v3.06h-1v-6h1v1.24h0a2.17,2.17,0,0,1,.63-1,1.41,1.41,0,0,1,.94-.35,1.49,1.49,0,0,1,.58.08Z" fill="#1e1e1e"/>
      <path d="M141.83,163.6l-2.39,6h-.95l-2.27-6h1.06L138.8,168a4.27,4.27,0,0,1,.21.84h0a4.7,4.7,0,0,1,.19-.82l1.6-4.38Z" fill="#1e1e1e"/>
      <path d="M147.68,166.84h-4.23a2.21,2.21,0,0,0,.54,1.55,1.85,1.85,0,0,0,1.41.54,3,3,0,0,0,1.87-.66v.9a3.53,3.53,0,0,1-2.1.57,2.51,2.51,0,0,1-2-.82,3.83,3.83,0,0,1,.06-4.58,2.55,2.55,0,0,1,2-.88,2.25,2.25,0,0,1,1.82.76,3.19,3.19,0,0,1,.64,2.12Zm-1-.81a2,2,0,0,0-.4-1.3,1.37,1.37,0,0,0-1.1-.46,1.54,1.54,0,0,0-1.16.49,2.18,2.18,0,0,0-.58,1.27Z" fill="#1e1e1e"/>
      <path d="M152.26,164.57a1.14,1.14,0,0,0-.72-.19,1.21,1.21,0,0,0-1,.58,2.64,2.64,0,0,0-.41,1.58v3.06h-1v-6h1v1.24h0a2.17,2.17,0,0,1,.63-1,1.39,1.39,0,0,1,.94-.35,1.44,1.44,0,0,1,.57.08Z" fill="#1e1e1e"/>
      <path d="M120,194.06V192.9a2.42,2.42,0,0,0,.47.32,5.19,5.19,0,0,0,.59.24,4.29,4.29,0,0,0,.62.14,3,3,0,0,0,.57.06,2.29,2.29,0,0,0,1.36-.34,1.26,1.26,0,0,0,.3-1.56,1.64,1.64,0,0,0-.42-.46,3.91,3.91,0,0,0-.62-.4l-.78-.4-.82-.45a3.4,3.4,0,0,1-.66-.51,2.06,2.06,0,0,1-.44-.62,1.88,1.88,0,0,1-.16-.82,1.93,1.93,0,0,1,.25-1,2.32,2.32,0,0,1,.66-.7,3.19,3.19,0,0,1,.94-.41,4.24,4.24,0,0,1,1.07-.13,4.11,4.11,0,0,1,1.81.3v1.1a3.33,3.33,0,0,0-1.91-.51,2.88,2.88,0,0,0-.65.07,1.58,1.58,0,0,0-.57.22,1.18,1.18,0,0,0-.41.39,1,1,0,0,0-.16.58,1.19,1.19,0,0,0,.12.56,1.41,1.41,0,0,0,.35.43,3.42,3.42,0,0,0,.58.37c.22.13.48.26.77.4s.59.31.86.47a4.46,4.46,0,0,1,.71.55,2.53,2.53,0,0,1,.48.66,1.84,1.84,0,0,1,.18.83,2,2,0,0,1-.25,1.05,2,2,0,0,1-.65.7,2.88,2.88,0,0,1-1,.39,5.24,5.24,0,0,1-1.14.12l-.49,0q-.3,0-.6-.09a4.91,4.91,0,0,1-.58-.16A1.57,1.57,0,0,1,120,194.06Z" fill="#1e1e1e"/>
      <path d="M131.49,191.64h-4.24a2.28,2.28,0,0,0,.54,1.55,1.87,1.87,0,0,0,1.42.54,3,3,0,0,0,1.86-.66v.9a3.5,3.5,0,0,1-2.09.57,2.53,2.53,0,0,1-2-.82,3.36,3.36,0,0,1-.73-2.3,3.29,3.29,0,0,1,.8-2.28,2.54,2.54,0,0,1,2-.88,2.24,2.24,0,0,1,1.82.76,3.2,3.2,0,0,1,.65,2.12Zm-1-.81a1.91,1.91,0,0,0-.4-1.3,1.36,1.36,0,0,0-1.1-.46,1.52,1.52,0,0,0-1.15.49,2.19,2.19,0,0,0-.59,1.27Z" fill="#1e1e1e"/>
      <path d="M136.07,189.37a1.25,1.25,0,0,0-.73-.19,1.23,1.23,0,0,0-1,.58,2.72,2.72,0,0,0-.41,1.58v3.06h-1v-6h1v1.24h0a2.17,2.17,0,0,1,.63-1,1.41,1.41,0,0,1,.94-.35,1.49,1.49,0,0,1,.58.08Z" fill="#1e1e1e"/>
      <path d="M141.83,188.4l-2.39,6h-.95l-2.27-6h1.06l1.52,4.36a4.27,4.27,0,0,1,.21.84h0a4.7,4.7,0,0,1,.19-.82l1.6-4.38Z" fill="#1e1e1e"/>
      <path d="M147.68,191.64h-4.23a2.19,2.19,0,0,0,.54,1.55,1.85,1.85,0,0,0,1.41.54,3,3,0,0,0,1.87-.66v.9a3.53,3.53,0,0,1-2.1.57,2.51,2.51,0,0,1-2-.82,3.83,3.83,0,0,1,.06-4.58,2.55,2.55,0,0,1,2-.88A2.25,2.25,0,0,1,147,189a3.19,3.19,0,0,1,.64,2.12Zm-1-.81a2,2,0,0,0-.4-1.3,1.37,1.37,0,0,0-1.1-.46,1.54,1.54,0,0,0-1.16.49,2.18,2.18,0,0,0-.58,1.27Z" fill="#1e1e1e"/>
      <path d="M152.26,189.37a1.29,1.29,0,0,0-1.75.39,2.64,2.64,0,0,0-.41,1.58v3.06h-1v-6h1v1.24h0a2.17,2.17,0,0,1,.63-1,1.39,1.39,0,0,1,.94-.35,1.44,1.44,0,0,1,.57.08Z" fill="#1e1e1e"/>
      <path d="M120,218.86V217.7a2.42,2.42,0,0,0,.47.32,3.8,3.8,0,0,0,.59.23,3.3,3.3,0,0,0,.62.15,3,3,0,0,0,.57.06,2.29,2.29,0,0,0,1.36-.34,1.26,1.26,0,0,0,.3-1.56,1.64,1.64,0,0,0-.42-.46,3.91,3.91,0,0,0-.62-.4l-.78-.4-.82-.45a3.4,3.4,0,0,1-.66-.51,2.06,2.06,0,0,1-.44-.62,1.91,1.91,0,0,1-.16-.82,1.93,1.93,0,0,1,.25-1,2.32,2.32,0,0,1,.66-.7,3.19,3.19,0,0,1,.94-.41,4.24,4.24,0,0,1,1.07-.13,4.11,4.11,0,0,1,1.81.3v1.1a3.33,3.33,0,0,0-1.91-.51,2.88,2.88,0,0,0-.65.07,1.58,1.58,0,0,0-.57.22,1.18,1.18,0,0,0-.41.39,1,1,0,0,0-.16.58,1.22,1.22,0,0,0,.12.56,1.41,1.41,0,0,0,.35.43,3.42,3.42,0,0,0,.58.37c.22.12.48.26.77.4s.59.31.86.47a4.46,4.46,0,0,1,.71.55,2.53,2.53,0,0,1,.48.66,1.84,1.84,0,0,1,.18.83,2,2,0,0,1-.25,1,2,2,0,0,1-.65.7,2.88,2.88,0,0,1-1,.39,5.24,5.24,0,0,1-1.14.12l-.49,0-.6-.09c-.2-.05-.4-.1-.58-.16A1.57,1.57,0,0,1,120,218.86Z" fill="#1e1e1e"/>
      <path d="M131.49,216.44h-4.24a2.28,2.28,0,0,0,.54,1.55,1.87,1.87,0,0,0,1.42.54,3,3,0,0,0,1.86-.66v.9a3.5,3.5,0,0,1-2.09.57,2.53,2.53,0,0,1-2-.82,3.36,3.36,0,0,1-.73-2.3,3.29,3.29,0,0,1,.8-2.28,2.54,2.54,0,0,1,2-.88,2.24,2.24,0,0,1,1.82.76,3.2,3.2,0,0,1,.65,2.12Zm-1-.81a1.91,1.91,0,0,0-.4-1.3,1.36,1.36,0,0,0-1.1-.46,1.52,1.52,0,0,0-1.15.49,2.19,2.19,0,0,0-.59,1.27Z" fill="#1e1e1e"/>
      <path d="M136.07,214.17a1.18,1.18,0,0,0-.73-.19,1.23,1.23,0,0,0-1,.58,2.72,2.72,0,0,0-.41,1.58v3.06h-1v-6h1v1.24h0a2.17,2.17,0,0,1,.63-1,1.41,1.41,0,0,1,.94-.35,1.49,1.49,0,0,1,.58.08Z" fill="#1e1e1e"/>
      <path d="M141.83,213.2l-2.39,6h-.95l-2.27-6h1.06l1.52,4.36a4.27,4.27,0,0,1,.21.84h0a4.7,4.7,0,0,1,.19-.82l1.6-4.38Z" fill="#1e1e1e"/>
      <path d="M147.68,216.44h-4.23A2.19,2.19,0,0,0,144,218a1.85,1.85,0,0,0,1.41.54,3,3,0,0,0,1.87-.66v.9a3.53,3.53,0,0,1-2.1.57,2.51,2.51,0,0,1-2-.82,3.83,3.83,0,0,1,.06-4.58,2.55,2.55,0,0,1,2-.88,2.25,2.25,0,0,1,1.82.76,3.19,3.19,0,0,1,.64,2.12Zm-1-.81a2,2,0,0,0-.4-1.3,1.37,1.37,0,0,0-1.1-.46,1.54,1.54,0,0,0-1.16.49,2.18,2.18,0,0,0-.58,1.27Z" fill="#1e1e1e"/>
      <path d="M152.26,214.17a1.14,1.14,0,0,0-.72-.19,1.21,1.21,0,0,0-1,.58,2.64,2.64,0,0,0-.41,1.58v3.06h-1v-6h1v1.24h0a2.17,2.17,0,0,1,.63-1,1.39,1.39,0,0,1,.94-.35,1.44,1.44,0,0,1,.57.08Z" fill="#1e1e1e"/>
      <path d="M120,243.66V242.5a2.42,2.42,0,0,0,.47.32,3.8,3.8,0,0,0,.59.23,3.3,3.3,0,0,0,.62.15,3,3,0,0,0,.57.06,2.29,2.29,0,0,0,1.36-.34,1.26,1.26,0,0,0,.3-1.56,1.64,1.64,0,0,0-.42-.46,3.91,3.91,0,0,0-.62-.4l-.78-.4-.82-.45a3.4,3.4,0,0,1-.66-.51,2.06,2.06,0,0,1-.44-.62,1.91,1.91,0,0,1-.16-.82,1.93,1.93,0,0,1,.25-1,2.32,2.32,0,0,1,.66-.7,3.19,3.19,0,0,1,.94-.41,4.24,4.24,0,0,1,1.07-.13,4.11,4.11,0,0,1,1.81.3v1.1a3.33,3.33,0,0,0-1.91-.51,2.88,2.88,0,0,0-.65.07,1.58,1.58,0,0,0-.57.22,1.18,1.18,0,0,0-.41.39,1,1,0,0,0-.16.58,1.22,1.22,0,0,0,.12.56,1.41,1.41,0,0,0,.35.43,3.42,3.42,0,0,0,.58.37c.22.12.48.26.77.4s.59.31.86.47a3.94,3.94,0,0,1,.71.55,2.38,2.38,0,0,1,.48.66,1.84,1.84,0,0,1,.18.83,2,2,0,0,1-.25,1.05,2,2,0,0,1-.65.7,2.88,2.88,0,0,1-1,.39,5.24,5.24,0,0,1-1.14.12l-.49,0L121,244c-.2-.05-.4-.1-.58-.16A1.57,1.57,0,0,1,120,243.66Z" fill="#1e1e1e"/>
      <path d="M131.49,241.24h-4.24a2.3,2.3,0,0,0,.54,1.55,1.87,1.87,0,0,0,1.42.54,3,3,0,0,0,1.86-.66v.9a3.5,3.5,0,0,1-2.09.57,2.53,2.53,0,0,1-2-.82,3.36,3.36,0,0,1-.73-2.3,3.29,3.29,0,0,1,.8-2.28,2.54,2.54,0,0,1,2-.88,2.24,2.24,0,0,1,1.82.76,3.18,3.18,0,0,1,.65,2.12Zm-1-.81a1.91,1.91,0,0,0-.4-1.3,1.36,1.36,0,0,0-1.1-.46,1.52,1.52,0,0,0-1.15.49,2.19,2.19,0,0,0-.59,1.27Z" fill="#1e1e1e"/>
      <path d="M136.07,239a1.18,1.18,0,0,0-.73-.19,1.23,1.23,0,0,0-1,.58,2.72,2.72,0,0,0-.41,1.58V244h-1v-6h1v1.24h0a2.17,2.17,0,0,1,.63-1,1.41,1.41,0,0,1,.94-.35,1.49,1.49,0,0,1,.58.08Z" fill="#1e1e1e"/>
      <path d="M141.83,238l-2.39,6h-.95l-2.27-6h1.06l1.52,4.36a4.27,4.27,0,0,1,.21.84h0a4.7,4.7,0,0,1,.19-.82l1.6-4.38Z" fill="#1e1e1e"/>
      <path d="M147.68,241.24h-4.23a2.21,2.21,0,0,0,.54,1.55,1.85,1.85,0,0,0,1.41.54,3,3,0,0,0,1.87-.66v.9a3.53,3.53,0,0,1-2.1.57,2.51,2.51,0,0,1-2-.82,3.83,3.83,0,0,1,.06-4.58,2.55,2.55,0,0,1,2-.88,2.25,2.25,0,0,1,1.82.76,3.18,3.18,0,0,1,.64,2.12Zm-1-.81a2,2,0,0,0-.4-1.3,1.37,1.37,0,0,0-1.1-.46,1.54,1.54,0,0,0-1.16.49,2.18,2.18,0,0,0-.58,1.27Z" fill="#1e1e1e"/>
      <path d="M152.26,239a1.14,1.14,0,0,0-.72-.19,1.21,1.21,0,0,0-1,.58,2.64,2.64,0,0,0-.41,1.58V244h-1v-6h1v1.24h0a2.17,2.17,0,0,1,.63-1,1.39,1.39,0,0,1,.94-.35,1.44,1.44,0,0,1,.57.08Z" fill="#1e1e1e"/>
      <path d="M79.73,268.8h-1V265H74.4v3.83h-1v-8.4h1v3.68h4.34V260.4h1Z" fill="#1e1e1e"/>
      <path d="M86.1,268.8h-1v-.94h0a2.2,2.2,0,0,1-3.25.61,1.68,1.68,0,0,1-.5-1.26c0-1.12.66-1.78,2-2l1.8-.25c0-1-.42-1.53-1.24-1.53a3,3,0,0,0-2,.74v-1a3.76,3.76,0,0,1,2-.56c1.41,0,2.12.75,2.12,2.24Zm-1-3-1.45.2a2.3,2.3,0,0,0-1,.33.93.93,0,0,0-.34.84.9.9,0,0,0,.32.71,1.16,1.16,0,0,0,.83.28,1.51,1.51,0,0,0,1.18-.5,1.78,1.78,0,0,0,.47-1.27Z" fill="#1e1e1e"/>
      <path d="M91,263.77a1.25,1.25,0,0,0-.73-.19,1.23,1.23,0,0,0-1,.58,2.72,2.72,0,0,0-.41,1.58v3.06h-1v-6h1V264h0a2.17,2.17,0,0,1,.63-1,1.41,1.41,0,0,1,.94-.35,1.52,1.52,0,0,1,.58.08Z" fill="#1e1e1e"/>
      <path d="M97.2,268.8h-1v-1h0a2.22,2.22,0,0,1-2.07,1.16,2.25,2.25,0,0,1-1.8-.8,3.33,3.33,0,0,1-.68-2.2,3.57,3.57,0,0,1,.75-2.38,2.48,2.48,0,0,1,2-.9,1.93,1.93,0,0,1,1.8,1h0v-3.71h1Zm-1-2.71v-.89a1.73,1.73,0,0,0-.48-1.23,1.78,1.78,0,0,0-2.6.14,2.82,2.82,0,0,0-.51,1.79,2.53,2.53,0,0,0,.49,1.63,1.57,1.57,0,0,0,1.3.6,1.63,1.63,0,0,0,1.3-.58A2.16,2.16,0,0,0,96.24,266.09Z" fill="#1e1e1e"/>
      <path d="M106.7,262.8l-1.79,6h-1l-1.24-4.29a4.1,4.1,0,0,1-.09-.56h0a3.4,3.4,0,0,1-.13.54l-1.34,4.31h-1l-1.82-6h1l1.24,4.51a3,3,0,0,1,.09.54h0a2.43,2.43,0,0,1,.11-.55l1.38-4.5h.88l1.24,4.52a3.36,3.36,0,0,1,.09.54h0a2.61,2.61,0,0,1,.1-.54l1.22-4.52Z" fill="#1e1e1e"/>
      <path d="M112.11,268.8h-1v-.94h0a2.2,2.2,0,0,1-3.25.61,1.65,1.65,0,0,1-.51-1.26c0-1.12.66-1.78,2-2l1.8-.25q0-1.53-1.23-1.53a3,3,0,0,0-2,.74v-1a3.76,3.76,0,0,1,2-.56c1.41,0,2.11.75,2.11,2.24Zm-1-3-1.45.2a2.25,2.25,0,0,0-1,.33.93.93,0,0,0-.34.84.89.89,0,0,0,.31.71,1.2,1.2,0,0,0,.84.28,1.53,1.53,0,0,0,1.18-.5,1.77,1.77,0,0,0,.46-1.27Z" fill="#1e1e1e"/>
      <path d="M117.05,263.77a1.23,1.23,0,0,0-.72-.19,1.21,1.21,0,0,0-1,.58,2.64,2.64,0,0,0-.42,1.58v3.06h-1v-6h1V264h0a2.08,2.08,0,0,1,.62-1,1.63,1.63,0,0,1,1.52-.27Z" fill="#1e1e1e"/>
      <path d="M122.92,266h-4.24a2.28,2.28,0,0,0,.54,1.55,1.87,1.87,0,0,0,1.42.54,3,3,0,0,0,1.86-.66v.9a3.5,3.5,0,0,1-2.09.57,2.53,2.53,0,0,1-2-.82,3.35,3.35,0,0,1-.72-2.3,3.28,3.28,0,0,1,.79-2.28,2.54,2.54,0,0,1,2-.88,2.24,2.24,0,0,1,1.82.76,3.2,3.2,0,0,1,.65,2.12Zm-1-.81a1.91,1.91,0,0,0-.4-1.3,1.36,1.36,0,0,0-1.1-.46,1.54,1.54,0,0,0-1.15.49,2.19,2.19,0,0,0-.59,1.27Z" fill="#1e1e1e"/>
      <path d="M132.15,268.8h-4.36v-8.4h1v7.51h3.38Z" fill="#1e1e1e"/>
      <path d="M133.8,261.28a.6.6,0,0,1-.44-.18.59.59,0,0,1-.18-.44.61.61,0,0,1,.18-.45.6.6,0,0,1,.44-.18.64.64,0,0,1,.45.18.61.61,0,0,1,.18.45.6.6,0,0,1-.18.44A.64.64,0,0,1,133.8,261.28Zm.47,7.52h-1v-6h1Z" fill="#1e1e1e"/>
      <path d="M139.18,260.76a1.35,1.35,0,0,0-.64-.16c-.67,0-1,.43-1,1.28v.92h1.41v.82h-1.41v5.18h-.95v-5.18h-1v-.82h1v-1a2,2,0,0,1,.54-1.49,1.82,1.82,0,0,1,1.36-.55,1.71,1.71,0,0,1,.7.11Z" fill="#1e1e1e"/>
      <path d="M144.79,266h-4.24a2.28,2.28,0,0,0,.54,1.55,1.88,1.88,0,0,0,1.42.54,2.94,2.94,0,0,0,1.86-.66v.9a3.47,3.47,0,0,1-2.09.57,2.54,2.54,0,0,1-2-.82,3.35,3.35,0,0,1-.72-2.3,3.28,3.28,0,0,1,.79-2.28,2.54,2.54,0,0,1,2-.88,2.26,2.26,0,0,1,1.83.76,3.19,3.19,0,0,1,.64,2.12Zm-1-.81a2,2,0,0,0-.4-1.3,1.37,1.37,0,0,0-1.1-.46,1.54,1.54,0,0,0-1.16.49,2.18,2.18,0,0,0-.58,1.27Z" fill="#1e1e1e"/>
      <path d="M150.33,268.53a3.17,3.17,0,0,1-1.64.41,2.75,2.75,0,0,1-2.07-.83,3.06,3.06,0,0,1-.79-2.17,3.35,3.35,0,0,1,.85-2.38,3,3,0,0,1,2.27-.9,3.27,3.27,0,0,1,1.4.29v1a2.49,2.49,0,0,0-1.43-.47,1.92,1.92,0,0,0-1.51.66,2.47,2.47,0,0,0-.59,1.73,2.36,2.36,0,0,0,.55,1.66,1.91,1.91,0,0,0,1.49.61,2.38,2.38,0,0,0,1.47-.52Z" fill="#1e1e1e"/>
      <path d="M156.56,262.8l-2.76,7c-.49,1.24-1.18,1.87-2.07,1.87a2.25,2.25,0,0,1-.63-.08v-.86a1.8,1.8,0,0,0,.57.1,1.18,1.18,0,0,0,1.09-.86l.48-1.14-2.34-6H152l1.63,4.62c0,.06.06.21.12.46h0q0-.15.12-.45l1.71-4.63Z" fill="#1e1e1e"/>
      <path d="M161.68,268.53a3.17,3.17,0,0,1-1.64.41,2.75,2.75,0,0,1-2.07-.83,3.06,3.06,0,0,1-.79-2.17,3.35,3.35,0,0,1,.85-2.38,3,3,0,0,1,2.27-.9,3.27,3.27,0,0,1,1.4.29v1a2.49,2.49,0,0,0-1.43-.47,1.92,1.92,0,0,0-1.51.66,2.47,2.47,0,0,0-.59,1.73,2.36,2.36,0,0,0,.55,1.66,1.91,1.91,0,0,0,1.49.61,2.38,2.38,0,0,0,1.47-.52Z" fill="#1e1e1e"/>
      <path d="M164.1,268.8h-1v-8.88h1Z" fill="#1e1e1e"/>
      <path d="M170.87,266h-4.24a2.19,2.19,0,0,0,.54,1.55,1.85,1.85,0,0,0,1.42.54,3,3,0,0,0,1.86-.66v.9a3.52,3.52,0,0,1-2.09.57,2.52,2.52,0,0,1-2-.82,3.81,3.81,0,0,1,.07-4.58,2.53,2.53,0,0,1,2-.88,2.25,2.25,0,0,1,1.82.76,3.2,3.2,0,0,1,.65,2.12Zm-1-.81a2,2,0,0,0-.4-1.3,1.36,1.36,0,0,0-1.1-.46,1.52,1.52,0,0,0-1.15.49,2.13,2.13,0,0,0-.59,1.27Z" fill="#1e1e1e"/>
      <path d="M182.05,268.8h-1V265h-4.35v3.83h-1v-8.4h1v3.68h4.35V260.4h1Z" fill="#1e1e1e"/>
      <path d="M186.63,268.94a2.79,2.79,0,0,1-2.12-.84,3.11,3.11,0,0,1-.8-2.23,3.25,3.25,0,0,1,.83-2.36,3,3,0,0,1,2.23-.85,2.7,2.7,0,0,1,2.1.83,3.77,3.77,0,0,1-.06,4.59A2.87,2.87,0,0,1,186.63,268.94Zm.07-5.47a1.83,1.83,0,0,0-1.46.63,2.59,2.59,0,0,0-.54,1.74,2.46,2.46,0,0,0,.54,1.68,1.86,1.86,0,0,0,1.46.61,1.79,1.79,0,0,0,1.44-.6,2.63,2.63,0,0,0,.5-1.72,2.66,2.66,0,0,0-.5-1.73A1.76,1.76,0,0,0,186.7,263.47Z" fill="#1e1e1e"/>
      <path d="M190.79,268.58v-1a2.84,2.84,0,0,0,1.73.58c.85,0,1.27-.28,1.27-.84a.76.76,0,0,0-.11-.41,1,1,0,0,0-.29-.29,2.28,2.28,0,0,0-.44-.24l-.53-.21a5.16,5.16,0,0,1-.7-.32,2.29,2.29,0,0,1-.51-.36,1.52,1.52,0,0,1-.3-.46,1.57,1.57,0,0,1-.11-.6,1.4,1.4,0,0,1,.2-.75,1.78,1.78,0,0,1,.51-.55,2.77,2.77,0,0,1,.74-.33,3.41,3.41,0,0,1,.85-.11,3.46,3.46,0,0,1,1.4.27v1a2.74,2.74,0,0,0-1.53-.43,1.75,1.75,0,0,0-.48.06,1.33,1.33,0,0,0-.38.17,1,1,0,0,0-.24.27.77.77,0,0,0-.08.34,1,1,0,0,0,.08.4,1.07,1.07,0,0,0,.25.28,2.48,2.48,0,0,0,.4.22l.53.22a6.21,6.21,0,0,1,.72.31,2.82,2.82,0,0,1,.54.36,1.41,1.41,0,0,1,.34.47,1.48,1.48,0,0,1,.12.63,1.49,1.49,0,0,1-.19.77,1.71,1.71,0,0,1-.53.54,2.28,2.28,0,0,1-.76.33,3.68,3.68,0,0,1-.89.1A3.41,3.41,0,0,1,190.79,268.58Z" fill="#1e1e1e"/>
      <path d="M199,268.74a1.8,1.8,0,0,1-.9.19c-1,0-1.57-.59-1.57-1.76v-3.55h-1v-.82h1v-1.46l1-.31v1.77H199v.82h-1.51V267a1.45,1.45,0,0,0,.2.86.81.81,0,0,0,.68.26,1,1,0,0,0,.63-.2Z" fill="#1e1e1e"/>
    </g>
    <g>
      <path d="M18.28,115.68v5.55h1.08v.88H18.28v2h-1v-2H13.38v-.83c.37-.42.74-.86,1.12-1.33s.73-1,1.07-1.43.66-1,.95-1.45a14.76,14.76,0,0,0,.74-1.39Zm-3.81,5.55h2.86v-4.11c-.29.51-.57,1-.83,1.37s-.51.77-.75,1.09-.46.63-.67.89Z" fill="#1e1e1e"/>
      <path d="M26.21,121.12H23v-.76h3.2Z" fill="#1e1e1e"/>
      <path d="M33.61,124.08h-1v-7.26a2,2,0,0,1-.32.26l-.48.28c-.18.1-.37.18-.57.27a4.76,4.76,0,0,1-.57.19v-1a6.12,6.12,0,0,0,.67-.24c.23-.1.47-.21.69-.33l.65-.39a6.62,6.62,0,0,0,.53-.4h.36Z" fill="#1e1e1e"/>
      <path d="M41.22,121.42a3.15,3.15,0,0,1-.2,1.13,3,3,0,0,1-.55.89,2.58,2.58,0,0,1-.84.58,2.67,2.67,0,0,1-1.06.21,2.31,2.31,0,0,1-2-1,3.73,3.73,0,0,1-.53-1.21,6.67,6.67,0,0,1-.18-1.61,7.64,7.64,0,0,1,.24-2,4.68,4.68,0,0,1,.69-1.53,3.14,3.14,0,0,1,1.08-1,3,3,0,0,1,1.42-.35,3.4,3.4,0,0,1,1.39.24v.91a3,3,0,0,0-1.37-.33,2,2,0,0,0-1,.25,2.29,2.29,0,0,0-.78.71,3.53,3.53,0,0,0-.49,1.11,5.43,5.43,0,0,0-.18,1.45h0a2,2,0,0,1,1.91-1,2.48,2.48,0,0,1,1,.19,2.09,2.09,0,0,1,.75.53,2.44,2.44,0,0,1,.49.81A3.23,3.23,0,0,1,41.22,121.42Zm-1,.12a2.74,2.74,0,0,0-.11-.79,1.73,1.73,0,0,0-.32-.6,1.48,1.48,0,0,0-.51-.38,1.88,1.88,0,0,0-.69-.13,1.67,1.67,0,0,0-.67.14,1.65,1.65,0,0,0-.87.9,1.65,1.65,0,0,0-.13.66,2.37,2.37,0,0,0,.13.81,2.06,2.06,0,0,0,.34.66,1.86,1.86,0,0,0,.53.44,1.42,1.42,0,0,0,.68.16,1.6,1.6,0,0,0,.67-.14,1.48,1.48,0,0,0,.51-.38,1.68,1.68,0,0,0,.32-.59A2.29,2.29,0,0,0,40.23,121.54Z" fill="#1e1e1e"/>
      <path d="M9.45,135.87v-1a2.88,2.88,0,0,0,1.73.58c.84,0,1.26-.29,1.26-.85a.65.65,0,0,0-.11-.4,1,1,0,0,0-.29-.3,2.18,2.18,0,0,0-.43-.23l-.54-.22a5.16,5.16,0,0,1-.7-.32,1.74,1.74,0,0,1-.5-.36,1.29,1.29,0,0,1-.31-.46,1.57,1.57,0,0,1-.1-.6,1.44,1.44,0,0,1,.19-.75,1.58,1.58,0,0,1,.52-.54,2.45,2.45,0,0,1,.73-.34,3.49,3.49,0,0,1,.86-.11,3.41,3.41,0,0,1,1.39.27v1a2.71,2.71,0,0,0-1.52-.44,1.88,1.88,0,0,0-.49.06,1.06,1.06,0,0,0-.37.18.85.85,0,0,0-.24.26.7.7,0,0,0-.09.35.8.8,0,0,0,.09.39.94.94,0,0,0,.25.28,1.67,1.67,0,0,0,.4.22l.53.22c.26.1.5.21.71.31a2.23,2.23,0,0,1,.54.37,1.41,1.41,0,0,1,.35.46,1.54,1.54,0,0,1,.12.63,1.47,1.47,0,0,1-.2.77,1.82,1.82,0,0,1-.52.55,2.6,2.6,0,0,1-.76.32,3.76,3.76,0,0,1-.9.1A3.37,3.37,0,0,1,9.45,135.87Z" fill="#1e1e1e"/>
      <path d="M19.7,133.32H15.47a2.19,2.19,0,0,0,.54,1.55,1.86,1.86,0,0,0,1.42.55,3,3,0,0,0,1.86-.67v.9a3.52,3.52,0,0,1-2.09.57,2.54,2.54,0,0,1-2-.81,3.33,3.33,0,0,1-.73-2.3,3.25,3.25,0,0,1,.8-2.28,2.54,2.54,0,0,1,2-.89,2.26,2.26,0,0,1,1.82.77,3.15,3.15,0,0,1,.64,2.11Zm-1-.81a2,2,0,0,0-.4-1.3,1.4,1.4,0,0,0-1.1-.46,1.52,1.52,0,0,0-1.15.49,2.16,2.16,0,0,0-.59,1.27Z" fill="#1e1e1e"/>
      <path d="M24.29,131.06a1.18,1.18,0,0,0-.73-.2,1.25,1.25,0,0,0-1,.58,2.75,2.75,0,0,0-.41,1.59v3.05h-1v-6h1v1.24h0a2.17,2.17,0,0,1,.63-1,1.44,1.44,0,0,1,.94-.35,1.75,1.75,0,0,1,.58.08Z" fill="#1e1e1e"/>
      <path d="M30.53,130.08l-2.39,6h-.95l-2.27-6h1l1.53,4.36a4.27,4.27,0,0,1,.21.84h0a3.7,3.7,0,0,1,.19-.81l1.59-4.39Z" fill="#1e1e1e"/>
      <path d="M36.23,133.32H32a2.28,2.28,0,0,0,.54,1.55,1.89,1.89,0,0,0,1.42.55,3,3,0,0,0,1.86-.67v.9a3.47,3.47,0,0,1-2.09.57,2.56,2.56,0,0,1-2-.81,3.37,3.37,0,0,1-.72-2.3,3.25,3.25,0,0,1,.79-2.28,2.55,2.55,0,0,1,2-.89,2.26,2.26,0,0,1,1.83.77,3.2,3.2,0,0,1,.64,2.11Zm-1-.81a2,2,0,0,0-.41-1.3,1.38,1.38,0,0,0-1.09-.46,1.54,1.54,0,0,0-1.16.49,2.15,2.15,0,0,0-.58,1.27Z" fill="#1e1e1e"/>
      <path d="M40.81,131.06a1.16,1.16,0,0,0-.72-.2,1.24,1.24,0,0,0-1,.58,2.68,2.68,0,0,0-.42,1.59v3.05h-1v-6h1v1.24h0a2.08,2.08,0,0,1,.62-1,1.49,1.49,0,0,1,1-.35,1.65,1.65,0,0,1,.57.08Z" fill="#1e1e1e"/>
      <path d="M41.68,135.87v-1a2.88,2.88,0,0,0,1.73.58c.84,0,1.26-.29,1.26-.85a.65.65,0,0,0-.11-.4,1,1,0,0,0-.29-.3,2.18,2.18,0,0,0-.43-.23l-.54-.22a5.79,5.79,0,0,1-.7-.32,1.74,1.74,0,0,1-.5-.36,1.29,1.29,0,0,1-.31-.46,1.57,1.57,0,0,1-.1-.6,1.44,1.44,0,0,1,.19-.75,1.58,1.58,0,0,1,.52-.54,2.45,2.45,0,0,1,.73-.34,3.49,3.49,0,0,1,.86-.11,3.41,3.41,0,0,1,1.39.27v1a2.71,2.71,0,0,0-1.52-.44,1.88,1.88,0,0,0-.49.06A1.06,1.06,0,0,0,43,131a.85.85,0,0,0-.24.26.7.7,0,0,0-.09.35.8.8,0,0,0,.09.39.94.94,0,0,0,.25.28,1.67,1.67,0,0,0,.4.22l.53.22c.27.1.5.21.72.31a2.16,2.16,0,0,1,.53.37,1.41,1.41,0,0,1,.35.46,1.54,1.54,0,0,1,.12.63,1.47,1.47,0,0,1-.2.77,1.7,1.7,0,0,1-.52.55,2.49,2.49,0,0,1-.76.32,3.71,3.71,0,0,1-.9.1A3.37,3.37,0,0,1,41.68,135.87Z" fill="#1e1e1e"/>
    </g>
  </g>
</svg>
