<svg xmlns="http://www.w3.org/2000/svg" xmlns:xlink="http://www.w3.org/1999/xlink" viewBox="0 0 553 233.16">
  <defs>
    <linearGradient id="linear-gradient" x1="226.76" y1="544.83" x2="226.76" y2="560.21" gradientTransform="matrix(1, 0, 0.18, -1, -100.25, 587.16)" gradientUnits="userSpaceOnUse">
      <stop offset="0" stop-color="#1989b2"/>
      <stop offset="0.35" stop-color="#31a4ca"/>
      <stop offset="0.76" stop-color="#48bee0"/>
      <stop offset="1" stop-color="#50c7e8"/>
    </linearGradient>
    <linearGradient id="linear-gradient-2" x1="261.65" y1="544.83" x2="261.65" y2="560.21" xlink:href="#linear-gradient"/>
    <linearGradient id="linear-gradient-3" x1="244.37" y1="544.83" x2="244.37" y2="560.21" xlink:href="#linear-gradient"/>
    <linearGradient id="linear-gradient-4" x1="273.74" y1="31.58" x2="294.8" y2="31.58" gradientTransform="matrix(1, 0, 0, 1, 0, 0)" xlink:href="#linear-gradient"/>
    <linearGradient id="linear-gradient-5" x1="273.74" y1="31.58" x2="294.8" y2="31.58" gradientTransform="matrix(1, 0, 0, 1, 0, 0)" xlink:href="#linear-gradient"/>
    <linearGradient id="linear-gradient-6" x1="287.69" y1="31.58" x2="308.74" y2="31.58" gradientTransform="matrix(1, 0, 0, 1, 0, 0)" xlink:href="#linear-gradient"/>
    <linearGradient id="linear-gradient-7" x1="287.69" y1="31.58" x2="308.74" y2="31.58" gradientTransform="matrix(1, 0, 0, 1, 0, 0)" xlink:href="#linear-gradient"/>
    <linearGradient id="linear-gradient-8" x1="187.69" y1="31.58" x2="208.74" y2="31.58" gradientTransform="matrix(1, 0, 0, 1, 0, 0)" xlink:href="#linear-gradient"/>
    <linearGradient id="linear-gradient-9" x1="187.69" y1="31.58" x2="208.74" y2="31.58" gradientTransform="matrix(1, 0, 0, 1, 0, 0)" xlink:href="#linear-gradient"/>
    <linearGradient id="linear-gradient-10" x1="89.19" y1="89.3" x2="116.18" y2="136.04" gradientUnits="userSpaceOnUse">
      <stop offset="0" stop-color="#5ea0ef"/>
      <stop offset="0.07" stop-color="#64a4f0" stop-opacity="0.98"/>
      <stop offset="0.14" stop-color="#77aff1" stop-opacity="0.92"/>
      <stop offset="0.22" stop-color="#96c1f5" stop-opacity="0.83"/>
      <stop offset="0.3" stop-color="#c2dbf9" stop-opacity="0.69"/>
      <stop offset="0.38" stop-color="#f9fcfe" stop-opacity="0.52"/>
      <stop offset="0.39" stop-color="#fff" stop-opacity="0.5"/>
      <stop offset="0.43" stop-color="#deedf9" stop-opacity="0.57"/>
      <stop offset="0.55" stop-color="#8ec3ec" stop-opacity="0.72"/>
      <stop offset="0.67" stop-color="#50a2e2" stop-opacity="0.84"/>
      <stop offset="0.79" stop-color="#248bda" stop-opacity="0.93"/>
      <stop offset="0.9" stop-color="#097dd6" stop-opacity="0.98"/>
      <stop offset="1" stop-color="#0078d4"/>
    </linearGradient>
    <linearGradient id="linear-gradient-11" x1="175.47" y1="89.3" x2="202.45" y2="136.04" xlink:href="#linear-gradient-10"/>
    <linearGradient id="linear-gradient-12" x1="251.62" y1="89.3" x2="278.61" y2="136.04" xlink:href="#linear-gradient-10"/>
    <linearGradient id="linear-gradient-13" x1="337.9" y1="89.3" x2="364.88" y2="136.04" xlink:href="#linear-gradient-10"/>
    <linearGradient id="linear-gradient-14" x1="63.93" y1="400.51" x2="105.38" y2="424.44" gradientTransform="matrix(1, 0, 0, -1, 0, 587.16)" gradientUnits="userSpaceOnUse">
      <stop offset="0" stop-color="#999"/>
      <stop offset="0.57" stop-color="#767676"/>
      <stop offset="1" stop-color="#767676"/>
    </linearGradient>
    <linearGradient id="linear-gradient-15" x1="73.09" y1="157.38" x2="73.09" y2="154.32" gradientUnits="userSpaceOnUse">
      <stop offset="0" stop-color="#212121"/>
      <stop offset="0.57" stop-color="#212121"/>
      <stop offset="0.76" stop-color="#2a2a2a"/>
      <stop offset="1" stop-color="#3b3b3b"/>
    </linearGradient>
    <linearGradient id="linear-gradient-16" x1="95.36" y1="157.38" x2="95.36" y2="154.32" xlink:href="#linear-gradient-15"/>
    <linearGradient id="linear-gradient-17" x1="73.09" y1="195.56" x2="73.09" y2="192.51" xlink:href="#linear-gradient-15"/>
    <linearGradient id="linear-gradient-18" x1="95.36" y1="195.56" x2="95.36" y2="192.51" xlink:href="#linear-gradient-15"/>
    <linearGradient id="linear-gradient-19" x1="74.66" y1="188.9" x2="89.9" y2="162.51" gradientUnits="userSpaceOnUse">
      <stop offset="0" stop-color="#3b3b3b"/>
      <stop offset="0.24" stop-color="#2a2a2a"/>
      <stop offset="0.43" stop-color="#212121"/>
      <stop offset="1" stop-color="#212121"/>
    </linearGradient>
    <linearGradient id="linear-gradient-20" x1="100.07" y1="400.51" x2="141.53" y2="424.44" xlink:href="#linear-gradient-14"/>
    <linearGradient id="linear-gradient-21" x1="109.23" y1="157.38" x2="109.23" y2="154.32" xlink:href="#linear-gradient-15"/>
    <linearGradient id="linear-gradient-22" x1="131.51" y1="157.38" x2="131.51" y2="154.32" xlink:href="#linear-gradient-15"/>
    <linearGradient id="linear-gradient-23" x1="109.23" y1="195.56" x2="109.23" y2="192.51" xlink:href="#linear-gradient-15"/>
    <linearGradient id="linear-gradient-24" x1="131.51" y1="195.56" x2="131.51" y2="192.51" xlink:href="#linear-gradient-15"/>
    <linearGradient id="linear-gradient-25" x1="110.81" y1="188.9" x2="126.05" y2="162.51" xlink:href="#linear-gradient-19"/>
    <linearGradient id="linear-gradient-26" x1="150.87" y1="400.51" x2="192.32" y2="424.44" xlink:href="#linear-gradient-14"/>
    <linearGradient id="linear-gradient-27" x1="160.03" y1="157.38" x2="160.03" y2="154.32" xlink:href="#linear-gradient-15"/>
    <linearGradient id="linear-gradient-28" x1="182.3" y1="157.38" x2="182.3" y2="154.32" xlink:href="#linear-gradient-15"/>
    <linearGradient id="linear-gradient-29" x1="160.03" y1="195.56" x2="160.03" y2="192.51" xlink:href="#linear-gradient-15"/>
    <linearGradient id="linear-gradient-30" x1="182.3" y1="195.56" x2="182.3" y2="192.51" xlink:href="#linear-gradient-15"/>
    <linearGradient id="linear-gradient-31" x1="161.61" y1="188.9" x2="176.84" y2="162.51" xlink:href="#linear-gradient-19"/>
    <linearGradient id="linear-gradient-32" x1="187.02" y1="400.51" x2="228.47" y2="424.44" xlink:href="#linear-gradient-14"/>
    <linearGradient id="linear-gradient-33" x1="196.17" y1="157.38" x2="196.17" y2="154.32" xlink:href="#linear-gradient-15"/>
    <linearGradient id="linear-gradient-34" x1="218.45" y1="157.38" x2="218.45" y2="154.32" xlink:href="#linear-gradient-15"/>
    <linearGradient id="linear-gradient-35" x1="196.17" y1="195.56" x2="196.17" y2="192.51" xlink:href="#linear-gradient-15"/>
    <linearGradient id="linear-gradient-36" x1="218.45" y1="195.56" x2="218.45" y2="192.51" xlink:href="#linear-gradient-15"/>
    <linearGradient id="linear-gradient-37" x1="197.75" y1="188.9" x2="212.99" y2="162.51" xlink:href="#linear-gradient-19"/>
    <linearGradient id="linear-gradient-38" x1="227.79" y1="400.51" x2="269.25" y2="424.44" xlink:href="#linear-gradient-14"/>
    <linearGradient id="linear-gradient-39" x1="236.95" y1="157.38" x2="236.95" y2="154.32" xlink:href="#linear-gradient-15"/>
    <linearGradient id="linear-gradient-40" x1="259.23" y1="157.38" x2="259.23" y2="154.32" xlink:href="#linear-gradient-15"/>
    <linearGradient id="linear-gradient-41" x1="236.95" y1="195.56" x2="236.95" y2="192.51" xlink:href="#linear-gradient-15"/>
    <linearGradient id="linear-gradient-42" x1="259.23" y1="195.56" x2="259.23" y2="192.51" xlink:href="#linear-gradient-15"/>
    <linearGradient id="linear-gradient-43" x1="238.53" y1="188.9" x2="253.77" y2="162.51" xlink:href="#linear-gradient-19"/>
    <linearGradient id="linear-gradient-44" x1="263.94" y1="400.51" x2="305.4" y2="424.44" xlink:href="#linear-gradient-14"/>
    <linearGradient id="linear-gradient-45" x1="273.1" y1="157.38" x2="273.1" y2="154.32" xlink:href="#linear-gradient-15"/>
    <linearGradient id="linear-gradient-46" x1="295.37" y1="157.38" x2="295.37" y2="154.32" xlink:href="#linear-gradient-15"/>
    <linearGradient id="linear-gradient-47" x1="273.1" y1="195.56" x2="273.1" y2="192.51" xlink:href="#linear-gradient-15"/>
    <linearGradient id="linear-gradient-48" x1="295.37" y1="195.56" x2="295.37" y2="192.51" xlink:href="#linear-gradient-15"/>
    <linearGradient id="linear-gradient-49" x1="274.68" y1="188.9" x2="289.92" y2="162.51" xlink:href="#linear-gradient-19"/>
    <linearGradient id="linear-gradient-50" x1="314.74" y1="400.51" x2="356.19" y2="424.44" xlink:href="#linear-gradient-14"/>
    <linearGradient id="linear-gradient-51" x1="323.89" y1="157.38" x2="323.89" y2="154.32" xlink:href="#linear-gradient-15"/>
    <linearGradient id="linear-gradient-52" x1="346.17" y1="157.38" x2="346.17" y2="154.32" xlink:href="#linear-gradient-15"/>
    <linearGradient id="linear-gradient-53" x1="323.89" y1="195.56" x2="323.89" y2="192.51" xlink:href="#linear-gradient-15"/>
    <linearGradient id="linear-gradient-54" x1="346.17" y1="195.56" x2="346.17" y2="192.51" xlink:href="#linear-gradient-15"/>
    <linearGradient id="linear-gradient-55" x1="325.47" y1="188.9" x2="340.71" y2="162.51" xlink:href="#linear-gradient-19"/>
    <linearGradient id="linear-gradient-56" x1="350.88" y1="400.51" x2="392.34" y2="424.44" xlink:href="#linear-gradient-14"/>
    <linearGradient id="linear-gradient-57" x1="360.04" y1="157.38" x2="360.04" y2="154.32" xlink:href="#linear-gradient-15"/>
    <linearGradient id="linear-gradient-58" x1="382.32" y1="157.38" x2="382.32" y2="154.32" xlink:href="#linear-gradient-15"/>
    <linearGradient id="linear-gradient-59" x1="360.04" y1="195.56" x2="360.04" y2="192.51" xlink:href="#linear-gradient-15"/>
    <linearGradient id="linear-gradient-60" x1="382.32" y1="195.56" x2="382.32" y2="192.51" xlink:href="#linear-gradient-15"/>
    <linearGradient id="linear-gradient-61" x1="361.62" y1="188.9" x2="376.86" y2="162.51" xlink:href="#linear-gradient-19"/>
    <linearGradient id="linear-gradient-62" x1="414.27" y1="89.3" x2="441.25" y2="136.04" xlink:href="#linear-gradient-10"/>
    <linearGradient id="linear-gradient-63" x1="500.54" y1="89.3" x2="527.53" y2="136.04" xlink:href="#linear-gradient-10"/>
    <linearGradient id="linear-gradient-64" x1="390.44" y1="400.51" x2="431.9" y2="424.44" xlink:href="#linear-gradient-14"/>
    <linearGradient id="linear-gradient-65" x1="399.6" y1="157.38" x2="399.6" y2="154.32" xlink:href="#linear-gradient-15"/>
    <linearGradient id="linear-gradient-66" x1="421.87" y1="157.38" x2="421.87" y2="154.32" xlink:href="#linear-gradient-15"/>
    <linearGradient id="linear-gradient-67" x1="399.6" y1="195.56" x2="399.6" y2="192.51" xlink:href="#linear-gradient-15"/>
    <linearGradient id="linear-gradient-68" x1="421.87" y1="195.56" x2="421.87" y2="192.51" xlink:href="#linear-gradient-15"/>
    <linearGradient id="linear-gradient-69" x1="401.18" y1="188.9" x2="416.42" y2="162.51" xlink:href="#linear-gradient-19"/>
    <linearGradient id="linear-gradient-70" x1="426.59" y1="400.51" x2="468.04" y2="424.44" xlink:href="#linear-gradient-14"/>
    <linearGradient id="linear-gradient-71" x1="435.75" y1="157.38" x2="435.75" y2="154.32" xlink:href="#linear-gradient-15"/>
    <linearGradient id="linear-gradient-72" x1="458.02" y1="157.38" x2="458.02" y2="154.32" xlink:href="#linear-gradient-15"/>
    <linearGradient id="linear-gradient-73" x1="435.75" y1="195.56" x2="435.75" y2="192.51" xlink:href="#linear-gradient-15"/>
    <linearGradient id="linear-gradient-74" x1="458.02" y1="195.56" x2="458.02" y2="192.51" xlink:href="#linear-gradient-15"/>
    <linearGradient id="linear-gradient-75" x1="437.33" y1="188.9" x2="452.57" y2="162.51" xlink:href="#linear-gradient-19"/>
    <linearGradient id="linear-gradient-76" x1="477.38" y1="400.51" x2="518.84" y2="424.44" xlink:href="#linear-gradient-14"/>
    <linearGradient id="linear-gradient-77" x1="486.54" y1="157.38" x2="486.54" y2="154.32" xlink:href="#linear-gradient-15"/>
    <linearGradient id="linear-gradient-78" x1="508.81" y1="157.38" x2="508.81" y2="154.32" xlink:href="#linear-gradient-15"/>
    <linearGradient id="linear-gradient-79" x1="486.54" y1="195.56" x2="486.54" y2="192.51" xlink:href="#linear-gradient-15"/>
    <linearGradient id="linear-gradient-80" x1="508.81" y1="195.56" x2="508.81" y2="192.51" xlink:href="#linear-gradient-15"/>
    <linearGradient id="linear-gradient-81" x1="488.12" y1="188.9" x2="503.36" y2="162.51" xlink:href="#linear-gradient-19"/>
    <linearGradient id="linear-gradient-82" x1="513.53" y1="400.51" x2="554.98" y2="424.44" xlink:href="#linear-gradient-14"/>
    <linearGradient id="linear-gradient-83" x1="522.69" y1="157.38" x2="522.69" y2="154.32" xlink:href="#linear-gradient-15"/>
    <linearGradient id="linear-gradient-84" x1="544.96" y1="157.38" x2="544.96" y2="154.32" xlink:href="#linear-gradient-15"/>
    <linearGradient id="linear-gradient-85" x1="522.69" y1="195.56" x2="522.69" y2="192.51" xlink:href="#linear-gradient-15"/>
    <linearGradient id="linear-gradient-86" x1="544.96" y1="195.56" x2="544.96" y2="192.51" xlink:href="#linear-gradient-15"/>
    <linearGradient id="linear-gradient-87" x1="524.27" y1="188.9" x2="539.51" y2="162.51" xlink:href="#linear-gradient-19"/>
  </defs>
  <g style="isolation: isolate">
    <g id="Shapes">
      <rect width="553" height="233.16" fill="#fff"/>
      <g>
        <rect x="3.74" y="11.58" width="545.51" height="55" fill="#fff"/>
        <rect x="3.74" y="11.58" width="545.51" height="55" fill="#3c3c41" opacity="0.2"/>
      </g>
      <g>
        <rect x="3.74" y="66.58" width="220.59" height="72.7" fill="#fff"/>
        <rect x="3.74" y="66.58" width="220.59" height="72.7" fill="#ffe452" opacity="0.25"/>
      </g>
      <g>
        <rect x="3.74" y="139.28" width="545" height="58.51" fill="#fff"/>
        <rect x="3.74" y="139.28" width="545" height="58.51" fill="#3c3c41" opacity="0.12"/>
      </g>
      <g>
        <path d="M234.07,22.78,231,40.21a1.61,1.61,0,0,1-1.51,1.28H216a1,1,0,0,1-1.06-1.28L218,22.78a1.6,1.6,0,0,1,1.51-1.29H233A1.06,1.06,0,0,1,234.07,22.78Z" fill="url(#linear-gradient)"/>
        <path d="M269,22.78l-3.08,17.43a1.59,1.59,0,0,1-1.51,1.28H250.86a1,1,0,0,1-1.06-1.28l3.07-17.43a1.61,1.61,0,0,1,1.51-1.29H267.9A1.06,1.06,0,0,1,269,22.78Z" fill="url(#linear-gradient-2)"/>
        <path d="M251.68,22.78l-3.07,17.43a1.59,1.59,0,0,1-1.51,1.28H233.58a1,1,0,0,1-1.05-1.28l3.07-17.43a1.61,1.61,0,0,1,1.51-1.29h13.52A1,1,0,0,1,251.68,22.78Z" fill="url(#linear-gradient-3)"/>
      </g>
      <g>
        <line x1="241.93" y1="1.58" x2="241.93" y2="14.2" fill="none" stroke="#3c3c41" stroke-miterlimit="10"/>
        <polygon points="238.19 13.1 241.93 19.58 245.67 13.1 238.19 13.1" fill="#3c3c41"/>
      </g>
      <g>
        <line x1="273.74" y1="31.58" x2="293.6" y2="31.58" fill="none" stroke-miterlimit="10" stroke="url(#linear-gradient-4)"/>
        <path d="M286.76,36.38a.49.49,0,0,1,.16-.69l6.45-4.11-6.45-4.11a.49.49,0,0,1-.16-.69.5.5,0,0,1,.69-.15l7.12,4.53a.5.5,0,0,1,0,.84l-7.12,4.53a.5.5,0,0,1-.26.08A.51.51,0,0,1,286.76,36.38Z" fill="url(#linear-gradient-5)"/>
      </g>
      <g>
        <line x1="287.69" y1="31.58" x2="307.54" y2="31.58" fill="none" stroke-miterlimit="10" stroke="url(#linear-gradient-6)"/>
        <path d="M300.71,36.38a.5.5,0,0,1,.15-.69l6.45-4.11-6.45-4.11a.5.5,0,0,1,.54-.84l7.11,4.53a.5.5,0,0,1,0,.84l-7.11,4.53a.56.56,0,0,1-.27.08A.48.48,0,0,1,300.71,36.38Z" fill="url(#linear-gradient-7)"/>
      </g>
      <g>
        <line x1="188.89" y1="31.58" x2="208.74" y2="31.58" fill="none" stroke-miterlimit="10" stroke="url(#linear-gradient-8)"/>
        <path d="M195.72,36.38a.5.5,0,0,0-.15-.69l-6.45-4.11,6.45-4.11a.5.5,0,1,0-.54-.84l-7.11,4.53a.5.5,0,0,0,0,.84L195,36.53a.56.56,0,0,0,.27.08A.48.48,0,0,0,195.72,36.38Z" fill="url(#linear-gradient-9)"/>
      </g>
      <g>
        <path d="M184.82,31.58H107.69a5,5,0,0,0-5,5V69.2" fill="none" stroke="#3c3c41" stroke-miterlimit="10"/>
        <polygon points="98.95 68.1 102.69 74.58 106.43 68.1 98.95 68.1" fill="#3c3c41"/>
      </g>
      <path d="M84.71,151.5v-4.06c0-2.24,2.25-4.06,5-4.06h26c2.75,0,5,1.82,5,4.06v4.06" fill="none" stroke="#3c3c41" stroke-miterlimit="10"/>
      <line x1="102.69" y1="143.38" x2="102.69" y2="135.17" fill="none" stroke="#3c3c41" stroke-miterlimit="10"/>
      <g>
        <g opacity="0.75" style="mix-blend-mode: multiply">
          <rect x="88.69" y="91.17" width="30" height="45" fill="#737373"/>
          <rect x="88.69" y="91.17" width="30" height="45" fill="#737373" opacity="0.8"/>
        </g>
        <g>
          <rect x="87.69" y="90.17" width="30" height="45" fill="#e6e6e6"/>
          <rect x="87.69" y="90.17" width="30" height="45" opacity="0.8" fill="url(#linear-gradient-10)"/>
        </g>
      </g>
      <path d="M171,151.5v-4.06c0-2.24,2.25-4.06,5-4.06h26c2.75,0,5,1.82,5,4.06v4.06" fill="none" stroke="#3c3c41" stroke-miterlimit="10"/>
      <line x1="188.96" y1="143.38" x2="188.96" y2="135.17" fill="none" stroke="#3c3c41" stroke-miterlimit="10"/>
      <g>
        <g opacity="0.75" style="mix-blend-mode: multiply">
          <rect x="174.96" y="91.17" width="30" height="45" fill="#737373"/>
          <rect x="174.96" y="91.17" width="30" height="45" fill="#737373" opacity="0.8"/>
        </g>
        <g>
          <rect x="173.96" y="90.17" width="30" height="45" fill="#e6e6e6"/>
          <rect x="173.96" y="90.17" width="30" height="45" opacity="0.8" fill="url(#linear-gradient-11)"/>
        </g>
      </g>
      <g>
        <path d="M117.74,110.17h25.84a5,5,0,0,1,5,5v53a5,5,0,0,1-5,5H142.1" fill="none" stroke="#3c3c41" stroke-miterlimit="10"/>
        <polygon points="143.2 169.43 136.72 173.17 143.2 176.91 143.2 169.43" fill="#3c3c41"/>
      </g>
      <g>
        <rect x="71.53" y="206.47" width="152.21" height="25.11" fill="#fff"/>
        <rect x="71.53" y="206.47" width="152.21" height="25.11" fill="#3c3c41" opacity="0.15"/>
      </g>
      <g>
        <rect x="233.52" y="66.58" width="153.09" height="72.7" fill="#fff"/>
        <rect x="233.52" y="66.58" width="153.09" height="72.7" fill="#ffe452" opacity="0.25"/>
      </g>
      <path d="M247.14,151.5v-4.06c0-2.24,2.25-4.06,5-4.06h26c2.75,0,5,1.82,5,4.06v4.06" fill="none" stroke="#3c3c41" stroke-miterlimit="10"/>
      <line x1="265.12" y1="143.38" x2="265.12" y2="135.17" fill="none" stroke="#3c3c41" stroke-miterlimit="10"/>
      <g>
        <g opacity="0.75" style="mix-blend-mode: multiply">
          <rect x="251.12" y="91.17" width="30" height="45" fill="#737373"/>
          <rect x="251.12" y="91.17" width="30" height="45" fill="#737373" opacity="0.8"/>
        </g>
        <g>
          <rect x="250.12" y="90.17" width="30" height="45" fill="#e6e6e6"/>
          <rect x="250.12" y="90.17" width="30" height="45" opacity="0.8" fill="url(#linear-gradient-12)"/>
        </g>
      </g>
      <path d="M333.41,151.5v-4.06c0-2.24,2.25-4.06,5-4.06h26c2.75,0,5,1.82,5,4.06v4.06" fill="none" stroke="#3c3c41" stroke-miterlimit="10"/>
      <line x1="351.39" y1="143.38" x2="351.39" y2="135.17" fill="none" stroke="#3c3c41" stroke-miterlimit="10"/>
      <g>
        <g opacity="0.75" style="mix-blend-mode: multiply">
          <rect x="337.39" y="91.17" width="30" height="45" fill="#737373"/>
          <rect x="337.39" y="91.17" width="30" height="45" fill="#737373" opacity="0.8"/>
        </g>
        <g>
          <rect x="336.39" y="90.17" width="30" height="45" fill="#e6e6e6"/>
          <rect x="336.39" y="90.17" width="30" height="45" opacity="0.8" fill="url(#linear-gradient-13)"/>
        </g>
      </g>
      <g>
        <path d="M337,110.17H311.17a5,5,0,0,0-5,5v53a5,5,0,0,0,5,5h1.48" fill="none" stroke="#3c3c41" stroke-miterlimit="10"/>
        <polygon points="311.55 176.91 318.03 173.17 311.55 169.43 311.55 176.91" fill="#3c3c41"/>
      </g>
      <g>
        <rect x="233.52" y="206.47" width="153.09" height="25.11" fill="#fff"/>
        <rect x="233.52" y="206.47" width="153.09" height="25.11" fill="#3c3c41" opacity="0.15"/>
      </g>
      <line x1="228.74" y1="231.58" x2="228.74" y2="65.38" fill="none" stroke="#231f20" stroke-miterlimit="10" stroke-dasharray="3 3"/>
      <line x1="210.88" y1="31.58" x2="216.22" y2="31.58" fill="none" stroke="#3c3c41" stroke-miterlimit="10"/>
      <line x1="267.42" y1="31.49" x2="271.41" y2="31.49" fill="none" stroke="#3c3c41" stroke-miterlimit="10"/>
      <g>
        <g>
          <g>
            <path d="M99.65,196.21a1.66,1.66,0,0,1-1.72,1.57H71.38a1.67,1.67,0,0,1-1.73-1.57V153.15a1.67,1.67,0,0,1,1.73-1.57H97.93a1.66,1.66,0,0,1,1.72,1.57Z" fill-opacity="0.8" fill="url(#linear-gradient-14)"/>
            <circle cx="73.09" cy="155.85" r="1.53" fill="url(#linear-gradient-15)"/>
            <circle cx="95.36" cy="155.85" r="1.53" fill="url(#linear-gradient-16)"/>
            <circle cx="73.09" cy="194.03" r="1.53" fill="url(#linear-gradient-17)"/>
            <circle cx="95.36" cy="194.03" r="1.53" fill="url(#linear-gradient-18)"/>
          </g>
          <path d="M84.65,169.27a2.32,2.32,0,0,1,.92.18,2.49,2.49,0,0,1,.73.5,2.7,2.7,0,0,1,.51.74,2.06,2.06,0,0,1,.18.91,2.32,2.32,0,0,1-.18.92,2.49,2.49,0,0,1-.5.73,2.7,2.7,0,0,1-.74.51,2.1,2.1,0,0,1-.92.18,2.31,2.31,0,0,1-.91-.18,2.49,2.49,0,0,1-.73-.5,2.7,2.7,0,0,1-.51-.74,2.1,2.1,0,0,1-.18-.92,2.31,2.31,0,0,1,.18-.91A2.49,2.49,0,0,1,83,170a2.7,2.7,0,0,1,.74-.51A2.06,2.06,0,0,1,84.65,169.27Zm0-8.17a10.31,10.31,0,0,1,7.42,3.09,10.87,10.87,0,0,1,2.25,3.33,10.7,10.7,0,0,1,.51,6.73,9.66,9.66,0,0,1-1,2.4,10.81,10.81,0,0,1-5.81,4.85,9.91,9.91,0,0,1-2.63.53l-3.85,6.49a1.4,1.4,0,0,1-.42.42,1,1,0,0,1-.58.16H75.32a1.18,1.18,0,0,1-1.17-1.16v-5.25a1,1,0,0,1,.17-.57,1.56,1.56,0,0,1,.42-.43l3.32-2a10.75,10.75,0,0,1-2.87-3.61,10.35,10.35,0,0,1,2-11.92,10.87,10.87,0,0,1,3.33-2.25A10.7,10.7,0,0,1,84.65,161.1Zm.19,17.32-8.35,4.92v3.43h3.42Zm2.13,1a8.35,8.35,0,0,0,2.37-1.13,7.82,7.82,0,0,0,1.84-1.79,8.6,8.6,0,0,0,1.2-2.26,7.45,7.45,0,0,0,.44-2.61,7.84,7.84,0,0,0-.64-3.17,8.22,8.22,0,0,0-4.34-4.34,8.19,8.19,0,0,0-3.19-.65,7.84,7.84,0,0,0-3.17.64,8.17,8.17,0,0,0-2.59,1.75,8.35,8.35,0,0,0-1.75,2.58,8.26,8.26,0,0,0-.65,3.19,8.06,8.06,0,0,0,.25,2,8.77,8.77,0,0,0,.73,1.86,7.67,7.67,0,0,0,1.19,1.62,9.81,9.81,0,0,0,1.55,1.33l7.34-4.34a1.17,1.17,0,0,1,.6-.16,1.18,1.18,0,0,1,1.17,1.16,1.18,1.18,0,0,1-.16.61Z" fill="url(#linear-gradient-19)"/>
        </g>
        <g>
          <g>
            <path d="M135.8,196.21a1.66,1.66,0,0,1-1.73,1.57H107.53a1.66,1.66,0,0,1-1.73-1.57V153.15a1.66,1.66,0,0,1,1.73-1.57h26.54a1.66,1.66,0,0,1,1.73,1.57Z" fill-opacity="0.8" fill="url(#linear-gradient-20)"/>
            <circle cx="109.23" cy="155.85" r="1.53" fill="url(#linear-gradient-21)"/>
            <circle cx="131.51" cy="155.85" r="1.53" fill="url(#linear-gradient-22)"/>
            <circle cx="109.23" cy="194.03" r="1.53" fill="url(#linear-gradient-23)"/>
            <circle cx="131.51" cy="194.03" r="1.53" fill="url(#linear-gradient-24)"/>
          </g>
          <path d="M120.8,169.27a2.27,2.27,0,0,1,.91.18,2.37,2.37,0,0,1,.73.5,2.32,2.32,0,0,1,.51.74,1.94,1.94,0,0,1,.19.91,2.33,2.33,0,0,1-.19.92,2.29,2.29,0,0,1-.49.73,2.75,2.75,0,0,1-.75.51,2,2,0,0,1-.91.18,2.27,2.27,0,0,1-.91-.18,2.49,2.49,0,0,1-.73-.5,2.32,2.32,0,0,1-.51-.74,2.1,2.1,0,0,1-.18-.92,2.31,2.31,0,0,1,.18-.91,2.46,2.46,0,0,1,.49-.73,2.91,2.91,0,0,1,.75-.51A2.06,2.06,0,0,1,120.8,169.27Zm0-8.17a10.41,10.41,0,0,1,4.09.82,10.53,10.53,0,0,1,3.33,2.27,10.67,10.67,0,0,1,2.24,3.33,10.34,10.34,0,0,1,.84,4.08,10.51,10.51,0,0,1-.33,2.65,9.64,9.64,0,0,1-1,2.4,10.76,10.76,0,0,1-3.48,3.7,10.6,10.6,0,0,1-2.34,1.15,9.76,9.76,0,0,1-2.62.53l-3.85,6.49a1.4,1.4,0,0,1-.42.42,1,1,0,0,1-.58.16h-5.25a1.11,1.11,0,0,1-.82-.34,1.14,1.14,0,0,1-.35-.82v-5.25a1,1,0,0,1,.17-.57,1.56,1.56,0,0,1,.42-.43l3.31-2a10.85,10.85,0,0,1-2.86-3.61,10.38,10.38,0,0,1,2-11.92,10.8,10.8,0,0,1,3.34-2.25A10.62,10.62,0,0,1,120.8,161.1Zm.18,17.32-8.34,4.92v3.43h3.42Zm2.14,1a8.35,8.35,0,0,0,2.37-1.13,8,8,0,0,0,1.84-1.79,8.6,8.6,0,0,0,1.2-2.26,7.69,7.69,0,0,0,.44-2.61,7.84,7.84,0,0,0-.64-3.17,8.22,8.22,0,0,0-4.34-4.34,8.22,8.22,0,0,0-3.19-.65,7.81,7.81,0,0,0-3.17.64,8.06,8.06,0,0,0-2.59,1.75,8.35,8.35,0,0,0-1.75,2.58,8.26,8.26,0,0,0-.65,3.19,8.06,8.06,0,0,0,.25,2,8.27,8.27,0,0,0,.73,1.86,8,8,0,0,0,1.18,1.62,10.8,10.8,0,0,0,1.55,1.33l7.35-4.34a1.12,1.12,0,0,1,.6-.16,1.11,1.11,0,0,1,.82.34,1.15,1.15,0,0,1,.35.82,1.19,1.19,0,0,1-.17.61Z" fill="url(#linear-gradient-25)"/>
        </g>
      </g>
      <g>
        <g>
          <g>
            <path d="M186.6,196.21a1.67,1.67,0,0,1-1.73,1.57H158.32a1.66,1.66,0,0,1-1.72-1.57V153.15a1.66,1.66,0,0,1,1.72-1.57h26.55a1.67,1.67,0,0,1,1.73,1.57Z" fill-opacity="0.8" fill="url(#linear-gradient-26)"/>
            <circle cx="160.03" cy="155.85" r="1.53" fill="url(#linear-gradient-27)"/>
            <circle cx="182.3" cy="155.85" r="1.53" fill="url(#linear-gradient-28)"/>
            <circle cx="160.03" cy="194.03" r="1.53" fill="url(#linear-gradient-29)"/>
            <circle cx="182.3" cy="194.03" r="1.53" fill="url(#linear-gradient-30)"/>
          </g>
          <path d="M171.6,169.27a2.31,2.31,0,0,1,.91.18,2.49,2.49,0,0,1,.73.5,2.7,2.7,0,0,1,.51.74,2.06,2.06,0,0,1,.18.91,2.32,2.32,0,0,1-.18.92,2.49,2.49,0,0,1-.5.73,2.7,2.7,0,0,1-.74.51,2.06,2.06,0,0,1-.91.18,2.32,2.32,0,0,1-.92-.18,2.49,2.49,0,0,1-.73-.5,2.7,2.7,0,0,1-.51-.74,2.1,2.1,0,0,1-.18-.92,2.31,2.31,0,0,1,.18-.91,2.49,2.49,0,0,1,.5-.73,2.7,2.7,0,0,1,.74-.51A2.1,2.1,0,0,1,171.6,169.27Zm0-8.17a10.31,10.31,0,0,1,7.41,3.09,10.87,10.87,0,0,1,2.25,3.33,10.7,10.7,0,0,1,.84,4.08,10.51,10.51,0,0,1-.33,2.65,9.66,9.66,0,0,1-1,2.4,10.31,10.31,0,0,1-1.51,2.06,11,11,0,0,1-4.3,2.79,9.91,9.91,0,0,1-2.63.53l-3.85,6.49a1.27,1.27,0,0,1-.41.42,1.07,1.07,0,0,1-.59.16h-5.25a1.16,1.16,0,0,1-1.16-1.16v-5.25a1,1,0,0,1,.16-.57,1.56,1.56,0,0,1,.42-.43l3.32-2a10.88,10.88,0,0,1-2.87-3.61,10.4,10.4,0,0,1,2.05-11.92,10.87,10.87,0,0,1,3.33-2.25A10.71,10.71,0,0,1,171.6,161.1Zm.18,17.32-8.35,4.92v3.43h3.43Zm2.13,1a8.35,8.35,0,0,0,2.37-1.13,7.82,7.82,0,0,0,1.84-1.79,8.6,8.6,0,0,0,1.2-2.26,7.45,7.45,0,0,0,.44-2.61,7.84,7.84,0,0,0-.64-3.17,8.17,8.17,0,0,0-1.75-2.59,8.35,8.35,0,0,0-2.58-1.75,8.26,8.26,0,0,0-3.19-.65,7.89,7.89,0,0,0-3.18.64,8.19,8.19,0,0,0-4.74,9.55,8.77,8.77,0,0,0,.73,1.86,7.67,7.67,0,0,0,1.19,1.62,9.81,9.81,0,0,0,1.55,1.33l7.34-4.34a1.18,1.18,0,0,1,.61-.16,1.16,1.16,0,0,1,1.16,1.16,1.18,1.18,0,0,1-.16.61Z" fill="url(#linear-gradient-31)"/>
        </g>
        <g>
          <g>
            <path d="M222.74,196.21a1.66,1.66,0,0,1-1.73,1.57H194.47a1.66,1.66,0,0,1-1.73-1.57V153.15a1.66,1.66,0,0,1,1.73-1.57H221a1.66,1.66,0,0,1,1.73,1.57Z" fill-opacity="0.8" fill="url(#linear-gradient-32)"/>
            <circle cx="196.17" cy="155.85" r="1.53" fill="url(#linear-gradient-33)"/>
            <circle cx="218.45" cy="155.85" r="1.53" fill="url(#linear-gradient-34)"/>
            <circle cx="196.17" cy="194.03" r="1.53" fill="url(#linear-gradient-35)"/>
            <circle cx="218.45" cy="194.03" r="1.53" fill="url(#linear-gradient-36)"/>
          </g>
          <path d="M207.74,169.27a2.24,2.24,0,0,1,.91.18,2.37,2.37,0,0,1,.73.5,2.32,2.32,0,0,1,.51.74,1.94,1.94,0,0,1,.19.91,2.17,2.17,0,0,1-.19.92,2.29,2.29,0,0,1-.49.73,2.61,2.61,0,0,1-.75.51,2,2,0,0,1-.91.18,2.27,2.27,0,0,1-.91-.18,2.49,2.49,0,0,1-.73-.5,2.7,2.7,0,0,1-.51-.74,2.1,2.1,0,0,1-.18-.92,2.31,2.31,0,0,1,.18-.91,2.46,2.46,0,0,1,.49-.73,2.91,2.91,0,0,1,.75-.51A2.06,2.06,0,0,1,207.74,169.27Zm0-8.17a10.41,10.41,0,0,1,4.09.82,10.53,10.53,0,0,1,3.33,2.27,10.67,10.67,0,0,1,2.24,3.33,10.34,10.34,0,0,1,.84,4.08,10.51,10.51,0,0,1-.33,2.65,9.64,9.64,0,0,1-1,2.4,10.51,10.51,0,0,1-3.48,3.7,10.6,10.6,0,0,1-2.34,1.15,9.76,9.76,0,0,1-2.62.53l-3.85,6.49a1.4,1.4,0,0,1-.42.42,1,1,0,0,1-.58.16h-5.25a1.11,1.11,0,0,1-.82-.34,1.14,1.14,0,0,1-.35-.82v-5.25a1,1,0,0,1,.17-.57,1.56,1.56,0,0,1,.42-.43l3.31-2a10.85,10.85,0,0,1-2.86-3.61,10.38,10.38,0,0,1,2-11.92,10.92,10.92,0,0,1,3.34-2.25A10.62,10.62,0,0,1,207.74,161.1Zm.19,17.32-8.35,4.92v3.43H203Zm2.13,1a8.35,8.35,0,0,0,2.37-1.13,8,8,0,0,0,1.84-1.79,8.6,8.6,0,0,0,1.2-2.26,7.69,7.69,0,0,0,.44-2.61,7.84,7.84,0,0,0-.64-3.17,8.22,8.22,0,0,0-4.34-4.34,8.19,8.19,0,0,0-3.19-.65,7.84,7.84,0,0,0-3.17.64,8.06,8.06,0,0,0-2.59,1.75,8.35,8.35,0,0,0-1.75,2.58,8.26,8.26,0,0,0-.65,3.19,8.06,8.06,0,0,0,.25,2,8.27,8.27,0,0,0,.73,1.86,7.67,7.67,0,0,0,1.19,1.62,9.81,9.81,0,0,0,1.55,1.33l7.34-4.34a1.12,1.12,0,0,1,.6-.16,1.11,1.11,0,0,1,.82.34,1.15,1.15,0,0,1,.35.82,1.18,1.18,0,0,1-.16.61Z" fill="url(#linear-gradient-37)"/>
        </g>
      </g>
      <g>
        <g>
          <g>
            <path d="M263.52,196.21a1.66,1.66,0,0,1-1.73,1.57H235.25a1.66,1.66,0,0,1-1.73-1.57V153.15a1.66,1.66,0,0,1,1.73-1.57h26.54a1.66,1.66,0,0,1,1.73,1.57Z" fill-opacity="0.8" fill="url(#linear-gradient-38)"/>
            <circle cx="236.95" cy="155.85" r="1.53" fill="url(#linear-gradient-39)"/>
            <circle cx="259.23" cy="155.85" r="1.53" fill="url(#linear-gradient-40)"/>
            <circle cx="236.95" cy="194.03" r="1.53" fill="url(#linear-gradient-41)"/>
            <circle cx="259.23" cy="194.03" r="1.53" fill="url(#linear-gradient-42)"/>
          </g>
          <path d="M248.52,169.27a2.27,2.27,0,0,1,.91.18,2.37,2.37,0,0,1,.73.5,2.32,2.32,0,0,1,.51.74,1.94,1.94,0,0,1,.19.91,2.33,2.33,0,0,1-.19.92,2.29,2.29,0,0,1-.49.73,2.75,2.75,0,0,1-.75.51,2,2,0,0,1-.91.18,2.27,2.27,0,0,1-.91-.18,2.44,2.44,0,0,1-1.24-1.24,2.1,2.1,0,0,1-.18-.92,2.31,2.31,0,0,1,.18-.91,2.46,2.46,0,0,1,.49-.73,2.91,2.91,0,0,1,.75-.51A2.06,2.06,0,0,1,248.52,169.27Zm0-8.17a10.41,10.41,0,0,1,4.09.82,10.53,10.53,0,0,1,3.33,2.27,10.67,10.67,0,0,1,2.24,3.33,10.34,10.34,0,0,1,.84,4.08,10.51,10.51,0,0,1-.33,2.65,9.64,9.64,0,0,1-1,2.4,10.76,10.76,0,0,1-3.48,3.7,10.6,10.6,0,0,1-2.34,1.15,9.76,9.76,0,0,1-2.62.53l-3.85,6.49a1.4,1.4,0,0,1-.42.42,1,1,0,0,1-.58.16h-5.25a1.11,1.11,0,0,1-.82-.34,1.14,1.14,0,0,1-.35-.82v-5.25a1,1,0,0,1,.17-.57,1.56,1.56,0,0,1,.42-.43l3.31-2a10.85,10.85,0,0,1-2.86-3.61,10.38,10.38,0,0,1,2-11.92,10.92,10.92,0,0,1,3.34-2.25A10.62,10.62,0,0,1,248.52,161.1Zm.18,17.32-8.34,4.92v3.43h3.42Zm2.14,1a8.35,8.35,0,0,0,2.37-1.13,8,8,0,0,0,1.84-1.79,8.6,8.6,0,0,0,1.2-2.26,7.69,7.69,0,0,0,.44-2.61,7.84,7.84,0,0,0-.64-3.17,8.22,8.22,0,0,0-4.34-4.34,8.22,8.22,0,0,0-3.19-.65,7.81,7.81,0,0,0-3.17.64,8.06,8.06,0,0,0-2.59,1.75,8.35,8.35,0,0,0-1.75,2.58,8.26,8.26,0,0,0-.65,3.19,8.06,8.06,0,0,0,.25,2,8.27,8.27,0,0,0,.73,1.86,8,8,0,0,0,1.18,1.62,10.8,10.8,0,0,0,1.55,1.33l7.35-4.34a1.12,1.12,0,0,1,.6-.16,1.11,1.11,0,0,1,.82.34,1.15,1.15,0,0,1,.35.82,1.19,1.19,0,0,1-.17.61Z" fill="url(#linear-gradient-43)"/>
        </g>
        <g>
          <g>
            <path d="M299.67,196.21a1.66,1.66,0,0,1-1.73,1.57H271.4a1.66,1.66,0,0,1-1.73-1.57V153.15a1.66,1.66,0,0,1,1.73-1.57h26.54a1.66,1.66,0,0,1,1.73,1.57Z" fill-opacity="0.8" fill="url(#linear-gradient-44)"/>
            <circle cx="273.1" cy="155.85" r="1.53" fill="url(#linear-gradient-45)"/>
            <circle cx="295.37" cy="155.85" r="1.53" fill="url(#linear-gradient-46)"/>
            <circle cx="273.1" cy="194.03" r="1.53" fill="url(#linear-gradient-47)"/>
            <circle cx="295.37" cy="194.03" r="1.53" fill="url(#linear-gradient-48)"/>
          </g>
          <path d="M284.67,169.27a2.27,2.27,0,0,1,.91.18,2.49,2.49,0,0,1,.73.5,2.32,2.32,0,0,1,.51.74,1.93,1.93,0,0,1,.18.91,2.32,2.32,0,0,1-.18.92,2.29,2.29,0,0,1-.49.73,2.91,2.91,0,0,1-.75.51,2,2,0,0,1-.91.18,2.27,2.27,0,0,1-.91-.18,2.49,2.49,0,0,1-.73-.5,2.32,2.32,0,0,1-.51-.74,2,2,0,0,1-.18-.92A2.3,2.3,0,0,1,283,170a2.91,2.91,0,0,1,.75-.51A2,2,0,0,1,284.67,169.27Zm0-8.17a10.32,10.32,0,0,1,4.08.82,10.46,10.46,0,0,1,3.34,2.27,10.85,10.85,0,0,1,2.24,3.33,10.34,10.34,0,0,1,.84,4.08,10.51,10.51,0,0,1-.33,2.65,10,10,0,0,1-1,2.4,10.66,10.66,0,0,1-3.49,3.7,10.53,10.53,0,0,1-2.33,1.15,9.83,9.83,0,0,1-2.62.53l-3.85,6.49a1.4,1.4,0,0,1-.42.42,1,1,0,0,1-.58.16h-5.25a1.11,1.11,0,0,1-.82-.34,1.14,1.14,0,0,1-.35-.82v-5.25a1,1,0,0,1,.16-.57,1.56,1.56,0,0,1,.42-.43l3.32-2a10.72,10.72,0,0,1-2.86-3.61,10.33,10.33,0,0,1-1-4.51,10.22,10.22,0,0,1,.82-4.08,10.39,10.39,0,0,1,2.26-3.33,10.8,10.8,0,0,1,3.34-2.25A10.62,10.62,0,0,1,284.67,161.1Zm.18,17.32-8.35,4.92v3.43h3.43Zm2.13,1a8.1,8.1,0,0,0,2.37-1.13,7.87,7.87,0,0,0,1.85-1.79,8.6,8.6,0,0,0,1.2-2.26,7.69,7.69,0,0,0,.44-2.61,8,8,0,0,0-.64-3.17,8.52,8.52,0,0,0-1.75-2.59,8.4,8.4,0,0,0-2.59-1.75,8.22,8.22,0,0,0-3.19-.65,7.81,7.81,0,0,0-3.17.64,8,8,0,0,0-2.59,1.75,8.18,8.18,0,0,0-1.75,2.58,8.27,8.27,0,0,0-.66,3.19,8.07,8.07,0,0,0,.26,2,8.27,8.27,0,0,0,.73,1.86,7.62,7.62,0,0,0,1.18,1.62,10.28,10.28,0,0,0,1.55,1.33l7.35-4.34a1.12,1.12,0,0,1,.6-.16,1.11,1.11,0,0,1,.82.34,1.15,1.15,0,0,1,.35.82,1.19,1.19,0,0,1-.17.61Z" fill="url(#linear-gradient-49)"/>
        </g>
      </g>
      <g>
        <g>
          <g>
            <path d="M350.46,196.21a1.66,1.66,0,0,1-1.73,1.57H322.19a1.66,1.66,0,0,1-1.73-1.57V153.15a1.66,1.66,0,0,1,1.73-1.57h26.54a1.66,1.66,0,0,1,1.73,1.57Z" fill-opacity="0.8" fill="url(#linear-gradient-50)"/>
            <circle cx="323.89" cy="155.85" r="1.53" fill="url(#linear-gradient-51)"/>
            <circle cx="346.17" cy="155.85" r="1.53" fill="url(#linear-gradient-52)"/>
            <circle cx="323.89" cy="194.03" r="1.53" fill="url(#linear-gradient-53)"/>
            <circle cx="346.17" cy="194.03" r="1.53" fill="url(#linear-gradient-54)"/>
          </g>
          <path d="M335.46,169.27a2.24,2.24,0,0,1,.91.18,2.37,2.37,0,0,1,.73.5,2.32,2.32,0,0,1,.51.74,1.94,1.94,0,0,1,.19.91,2.17,2.17,0,0,1-.19.92,2.29,2.29,0,0,1-.49.73,2.61,2.61,0,0,1-.75.51,2,2,0,0,1-.91.18,2.31,2.31,0,0,1-.91-.18,2.49,2.49,0,0,1-.73-.5,2.7,2.7,0,0,1-.51-.74,2.1,2.1,0,0,1-.18-.92,2.31,2.31,0,0,1,.18-.91,2.46,2.46,0,0,1,.49-.73,2.91,2.91,0,0,1,.75-.51A2.06,2.06,0,0,1,335.46,169.27Zm0-8.17a10.41,10.41,0,0,1,4.09.82,10.53,10.53,0,0,1,3.33,2.27,10.67,10.67,0,0,1,2.24,3.33,10.34,10.34,0,0,1,.84,4.08,11,11,0,0,1-.32,2.65,10.06,10.06,0,0,1-1,2.4,10.51,10.51,0,0,1-3.48,3.7,10.6,10.6,0,0,1-2.34,1.15,9.76,9.76,0,0,1-2.62.53l-3.85,6.49a1.4,1.4,0,0,1-.42.42,1,1,0,0,1-.58.16h-5.25a1.11,1.11,0,0,1-.82-.34,1.14,1.14,0,0,1-.35-.82v-5.25a1,1,0,0,1,.17-.57,1.56,1.56,0,0,1,.42-.43l3.31-2a10.85,10.85,0,0,1-2.86-3.61,10.38,10.38,0,0,1,2-11.92,10.92,10.92,0,0,1,3.34-2.25A10.62,10.62,0,0,1,335.46,161.1Zm.19,17.32-8.35,4.92v3.43h3.42Zm2.13,1a8.35,8.35,0,0,0,2.37-1.13,7.82,7.82,0,0,0,1.84-1.79,8.6,8.6,0,0,0,1.2-2.26,7.69,7.69,0,0,0,.44-2.61,7.84,7.84,0,0,0-.64-3.17,8.22,8.22,0,0,0-4.34-4.34,8.19,8.19,0,0,0-3.19-.65,7.84,7.84,0,0,0-3.17.64,8.06,8.06,0,0,0-2.59,1.75,8.35,8.35,0,0,0-1.75,2.58,8.26,8.26,0,0,0-.65,3.19,8.06,8.06,0,0,0,.25,2,8.27,8.27,0,0,0,.73,1.86,7.67,7.67,0,0,0,1.19,1.62,9.81,9.81,0,0,0,1.55,1.33l7.34-4.34a1.12,1.12,0,0,1,.6-.16,1.11,1.11,0,0,1,.82.34,1.15,1.15,0,0,1,.35.82,1.18,1.18,0,0,1-.16.61Z" fill="url(#linear-gradient-55)"/>
        </g>
        <g>
          <g>
            <path d="M386.61,196.21a1.66,1.66,0,0,1-1.73,1.57H358.34a1.66,1.66,0,0,1-1.73-1.57V153.15a1.66,1.66,0,0,1,1.73-1.57h26.54a1.66,1.66,0,0,1,1.73,1.57Z" fill-opacity="0.8" fill="url(#linear-gradient-56)"/>
            <circle cx="360.04" cy="155.85" r="1.53" fill="url(#linear-gradient-57)"/>
            <circle cx="382.32" cy="155.85" r="1.53" fill="url(#linear-gradient-58)"/>
            <circle cx="360.04" cy="194.03" r="1.53" fill="url(#linear-gradient-59)"/>
            <circle cx="382.32" cy="194.03" r="1.53" fill="url(#linear-gradient-60)"/>
          </g>
          <path d="M371.61,169.27a2.27,2.27,0,0,1,.91.18,2.49,2.49,0,0,1,.73.5,2.32,2.32,0,0,1,.51.74,1.81,1.81,0,0,1,.18.91,2.32,2.32,0,0,1-.18.92,2.29,2.29,0,0,1-.49.73,2.91,2.91,0,0,1-.75.51,2,2,0,0,1-.91.18,2.27,2.27,0,0,1-.91-.18,2.49,2.49,0,0,1-.73-.5,2.32,2.32,0,0,1-.51-.74,2.1,2.1,0,0,1-.18-.92,2.31,2.31,0,0,1,.18-.91A2.46,2.46,0,0,1,370,170a2.91,2.91,0,0,1,.75-.51A2,2,0,0,1,371.61,169.27Zm0-8.17a10.32,10.32,0,0,1,4.08.82,10.46,10.46,0,0,1,3.34,2.27,10.67,10.67,0,0,1,2.24,3.33,10.34,10.34,0,0,1,.84,4.08,10.51,10.51,0,0,1-.33,2.65,10,10,0,0,1-1,2.4A10.87,10.87,0,0,1,375,181.5a9.76,9.76,0,0,1-2.62.53l-3.85,6.49a1.4,1.4,0,0,1-.42.42,1,1,0,0,1-.58.16h-5.25a1.11,1.11,0,0,1-.82-.34,1.14,1.14,0,0,1-.35-.82v-5.25a1.11,1.11,0,0,1,.16-.57,1.56,1.56,0,0,1,.42-.43l3.32-2a10.72,10.72,0,0,1-2.86-3.61,10.33,10.33,0,0,1-1-4.51,10.22,10.22,0,0,1,.82-4.08,10.39,10.39,0,0,1,2.26-3.33,10.8,10.8,0,0,1,3.34-2.25A10.62,10.62,0,0,1,371.61,161.1Zm.18,17.32-8.35,4.92v3.43h3.43Zm2.14,1a8.35,8.35,0,0,0,2.37-1.13,8,8,0,0,0,1.84-1.79,8.6,8.6,0,0,0,1.2-2.26,7.69,7.69,0,0,0,.44-2.61,8,8,0,0,0-.64-3.17,8.52,8.52,0,0,0-1.75-2.59,8.17,8.17,0,0,0-5.78-2.4,7.81,7.81,0,0,0-3.17.64,8,8,0,0,0-2.59,1.75,8.35,8.35,0,0,0-1.75,2.58,8.46,8.46,0,0,0-.66,3.19,8.07,8.07,0,0,0,.26,2,8.27,8.27,0,0,0,.73,1.86,7.62,7.62,0,0,0,1.18,1.62,10.28,10.28,0,0,0,1.55,1.33l7.35-4.34a1.12,1.12,0,0,1,.6-.16,1.11,1.11,0,0,1,.82.34,1.15,1.15,0,0,1,.35.82,1.19,1.19,0,0,1-.17.61Z" fill="url(#linear-gradient-61)"/>
        </g>
      </g>
      <g>
        <path d="M310.32,31.58h36.07a5,5,0,0,1,5,5V69.2" fill="none" stroke="#3c3c41" stroke-miterlimit="10"/>
        <polygon points="347.65 68.1 351.39 74.58 355.13 68.1 347.65 68.1" fill="#3c3c41"/>
      </g>
      <g>
        <rect x="396.17" y="66.58" width="153.09" height="72.7" fill="#fff"/>
        <rect x="396.17" y="66.58" width="153.09" height="72.7" fill="#ffe452" opacity="0.25"/>
      </g>
      <path d="M409.78,151.5v-4.06c0-2.24,2.25-4.06,5-4.06h26c2.75,0,5,1.82,5,4.06v4.06" fill="none" stroke="#3c3c41" stroke-miterlimit="10"/>
      <line x1="427.76" y1="143.38" x2="427.76" y2="135.17" fill="none" stroke="#3c3c41" stroke-miterlimit="10"/>
      <g>
        <g opacity="0.75" style="mix-blend-mode: multiply">
          <rect x="413.76" y="91.17" width="30" height="45" fill="#737373"/>
          <rect x="413.76" y="91.17" width="30" height="45" fill="#737373" opacity="0.8"/>
        </g>
        <g>
          <rect x="412.76" y="90.17" width="30" height="45" fill="#e6e6e6"/>
          <rect x="412.76" y="90.17" width="30" height="45" opacity="0.8" fill="url(#linear-gradient-62)"/>
        </g>
      </g>
      <path d="M496.05,151.5v-4.06c0-2.24,2.25-4.06,5-4.06h26c2.75,0,5,1.82,5,4.06v4.06" fill="none" stroke="#3c3c41" stroke-miterlimit="10"/>
      <line x1="514.03" y1="143.38" x2="514.03" y2="135.17" fill="none" stroke="#3c3c41" stroke-miterlimit="10"/>
      <g>
        <g opacity="0.75" style="mix-blend-mode: multiply">
          <rect x="500.03" y="91.17" width="30" height="45" fill="#737373"/>
          <rect x="500.03" y="91.17" width="30" height="45" fill="#737373" opacity="0.8"/>
        </g>
        <g>
          <rect x="499.03" y="90.17" width="30" height="45" fill="#e6e6e6"/>
          <rect x="499.03" y="90.17" width="30" height="45" opacity="0.8" fill="url(#linear-gradient-63)"/>
        </g>
      </g>
      <g>
        <rect x="396.17" y="206.47" width="153.09" height="25.11" fill="#fff"/>
        <rect x="396.17" y="206.47" width="153.09" height="25.11" fill="#3c3c41" opacity="0.15"/>
      </g>
      <line x1="391.39" y1="231.58" x2="391.39" y2="65.38" fill="none" stroke="#231f20" stroke-miterlimit="10" stroke-dasharray="3 3"/>
      <g>
        <g>
          <g>
            <path d="M426.17,196.21a1.66,1.66,0,0,1-1.73,1.57H397.9a1.66,1.66,0,0,1-1.73-1.57V153.15a1.66,1.66,0,0,1,1.73-1.57h26.54a1.66,1.66,0,0,1,1.73,1.57Z" fill-opacity="0.8" fill="url(#linear-gradient-64)"/>
            <circle cx="399.6" cy="155.85" r="1.53" fill="url(#linear-gradient-65)"/>
            <circle cx="421.87" cy="155.85" r="1.53" fill="url(#linear-gradient-66)"/>
            <circle cx="399.6" cy="194.03" r="1.53" fill="url(#linear-gradient-67)"/>
            <circle cx="421.87" cy="194.03" r="1.53" fill="url(#linear-gradient-68)"/>
          </g>
          <path d="M411.17,169.27a2.27,2.27,0,0,1,.91.18,2.49,2.49,0,0,1,.73.5,2.32,2.32,0,0,1,.51.74,2.06,2.06,0,0,1,.18.91,2.32,2.32,0,0,1-.18.92,2.46,2.46,0,0,1-.49.73,2.91,2.91,0,0,1-.75.51,2.06,2.06,0,0,1-.91.18,2.27,2.27,0,0,1-.91-.18,2.37,2.37,0,0,1-.73-.5,2.32,2.32,0,0,1-.51-.74,1.85,1.85,0,0,1-.18-.92,2.3,2.3,0,0,1,.67-1.64,2.91,2.91,0,0,1,.75-.51A2,2,0,0,1,411.17,169.27Zm0-8.17a10.35,10.35,0,0,1,7.42,3.09,10.85,10.85,0,0,1,2.24,3.33,10.34,10.34,0,0,1,.84,4.08,10.51,10.51,0,0,1-.33,2.65,9.66,9.66,0,0,1-1,2.4,10.51,10.51,0,0,1-3.48,3.7,10.53,10.53,0,0,1-2.33,1.15,9.83,9.83,0,0,1-2.63.53l-3.84,6.49a1.4,1.4,0,0,1-.42.42,1.06,1.06,0,0,1-.58.16h-5.25a1.15,1.15,0,0,1-.83-.34,1.13,1.13,0,0,1-.34-.82v-5.25a1,1,0,0,1,.16-.57,1.56,1.56,0,0,1,.42-.43l3.32-2a10.72,10.72,0,0,1-2.86-3.61,10.33,10.33,0,0,1-1-4.51,10.22,10.22,0,0,1,.82-4.08,10.39,10.39,0,0,1,2.26-3.33,10.8,10.8,0,0,1,3.34-2.25A10.62,10.62,0,0,1,411.17,161.1Zm.18,17.32L403,183.34v3.43h3.43Zm2.13,1a8.1,8.1,0,0,0,2.37-1.13,7.82,7.82,0,0,0,1.84-1.79,8.63,8.63,0,0,0,1.21-2.26,7.69,7.69,0,0,0,.44-2.61,8,8,0,0,0-.64-3.17,8.52,8.52,0,0,0-1.75-2.59,8.4,8.4,0,0,0-2.59-1.75,8.26,8.26,0,0,0-3.19-.65,7.81,7.81,0,0,0-3.17.64,8,8,0,0,0-2.59,1.75,8.18,8.18,0,0,0-1.75,2.58,8,8,0,0,0-.4,5.22,8.27,8.27,0,0,0,.73,1.86,7.62,7.62,0,0,0,1.18,1.62,9.81,9.81,0,0,0,1.55,1.33l7.35-4.34a1.18,1.18,0,0,1,1.42.18,1.15,1.15,0,0,1,.35.82,1.19,1.19,0,0,1-.17.61Z" fill="url(#linear-gradient-69)"/>
        </g>
        <g>
          <g>
            <path d="M462.32,196.21a1.67,1.67,0,0,1-1.73,1.57H434a1.66,1.66,0,0,1-1.72-1.57V153.15a1.66,1.66,0,0,1,1.72-1.57h26.55a1.67,1.67,0,0,1,1.73,1.57Z" fill-opacity="0.8" fill="url(#linear-gradient-70)"/>
            <circle cx="435.75" cy="155.85" r="1.53" fill="url(#linear-gradient-71)"/>
            <circle cx="458.02" cy="155.85" r="1.53" fill="url(#linear-gradient-72)"/>
            <circle cx="435.75" cy="194.03" r="1.53" fill="url(#linear-gradient-73)"/>
            <circle cx="458.02" cy="194.03" r="1.53" fill="url(#linear-gradient-74)"/>
          </g>
          <path d="M447.32,169.27a2.31,2.31,0,0,1,.91.18,2.49,2.49,0,0,1,.73.5,2.7,2.7,0,0,1,.51.74,2.06,2.06,0,0,1,.18.91,2.25,2.25,0,0,1-.68,1.65,2.7,2.7,0,0,1-.74.51,2.06,2.06,0,0,1-.91.18,2.32,2.32,0,0,1-.92-.18,2.44,2.44,0,0,1-.72-.5,2.52,2.52,0,0,1-.52-.74,2.1,2.1,0,0,1-.18-.92,2.31,2.31,0,0,1,.18-.91,2.49,2.49,0,0,1,.5-.73,2.7,2.7,0,0,1,.74-.51A2.1,2.1,0,0,1,447.32,169.27Zm0-8.17a10.35,10.35,0,0,1,7.42,3.09,11,11,0,0,1,2.24,3.33,10.7,10.7,0,0,1,.84,4.08,10.51,10.51,0,0,1-.33,2.65,9.66,9.66,0,0,1-1,2.4,10.51,10.51,0,0,1-3.48,3.7,10.75,10.75,0,0,1-2.33,1.15,9.83,9.83,0,0,1-2.63.53l-3.84,6.49a1.4,1.4,0,0,1-.42.42,1.07,1.07,0,0,1-.59.16H438a1.16,1.16,0,0,1-1.16-1.16v-5.25a1,1,0,0,1,.16-.57,1.56,1.56,0,0,1,.42-.43l3.32-2a10.72,10.72,0,0,1-2.86-3.61,10.38,10.38,0,0,1,2-11.92,10.87,10.87,0,0,1,3.33-2.25A10.71,10.71,0,0,1,447.32,161.1Zm.18,17.32-8.35,4.92v3.43h3.43Zm2.13,1a8.35,8.35,0,0,0,2.37-1.13,7.82,7.82,0,0,0,1.84-1.79,8.93,8.93,0,0,0,1.21-2.26,7.68,7.68,0,0,0,.43-2.61,7.84,7.84,0,0,0-.64-3.17,8.17,8.17,0,0,0-1.75-2.59,8.35,8.35,0,0,0-2.58-1.75,8.26,8.26,0,0,0-3.19-.65,7.89,7.89,0,0,0-3.18.64,8.19,8.19,0,0,0-4.74,9.55,8.77,8.77,0,0,0,.73,1.86,7.67,7.67,0,0,0,1.19,1.62,9.81,9.81,0,0,0,1.55,1.33l7.34-4.34a1.18,1.18,0,0,1,.61-.16,1.13,1.13,0,0,1,.82.34,1.14,1.14,0,0,1,.34.82,1.18,1.18,0,0,1-.16.61Z" fill="url(#linear-gradient-75)"/>
        </g>
      </g>
      <g>
        <g>
          <g>
            <path d="M513.11,196.21a1.66,1.66,0,0,1-1.73,1.57H484.84a1.66,1.66,0,0,1-1.73-1.57V153.15a1.66,1.66,0,0,1,1.73-1.57h26.54a1.66,1.66,0,0,1,1.73,1.57Z" fill-opacity="0.8" fill="url(#linear-gradient-76)"/>
            <circle cx="486.54" cy="155.85" r="1.53" fill="url(#linear-gradient-77)"/>
            <circle cx="508.81" cy="155.85" r="1.53" fill="url(#linear-gradient-78)"/>
            <circle cx="486.54" cy="194.03" r="1.53" fill="url(#linear-gradient-79)"/>
            <circle cx="508.81" cy="194.03" r="1.53" fill="url(#linear-gradient-80)"/>
          </g>
          <path d="M498.11,169.27a2.27,2.27,0,0,1,.91.18,2.49,2.49,0,0,1,.73.5,2.32,2.32,0,0,1,.51.74,2.06,2.06,0,0,1,.18.91,2.32,2.32,0,0,1-.18.92,2.46,2.46,0,0,1-.49.73,2.91,2.91,0,0,1-.75.51,2,2,0,0,1-.91.18,2.27,2.27,0,0,1-.91-.18,2.49,2.49,0,0,1-.73-.5,2.32,2.32,0,0,1-.51-.74,1.85,1.85,0,0,1-.18-.92,2.3,2.3,0,0,1,.67-1.64,2.91,2.91,0,0,1,.75-.51A2,2,0,0,1,498.11,169.27Zm0-8.17a10.32,10.32,0,0,1,4.08.82,10.46,10.46,0,0,1,3.34,2.27,10.85,10.85,0,0,1,2.24,3.33,10.34,10.34,0,0,1,.84,4.08,10.51,10.51,0,0,1-.33,2.65,10,10,0,0,1-1,2.4,10.66,10.66,0,0,1-3.49,3.7,10.53,10.53,0,0,1-2.33,1.15,9.83,9.83,0,0,1-2.63.53L495,188.52a1.4,1.4,0,0,1-.42.42,1.06,1.06,0,0,1-.58.16h-5.25a1.11,1.11,0,0,1-.82-.34,1.1,1.1,0,0,1-.35-.82v-5.25a1,1,0,0,1,.16-.57,1.56,1.56,0,0,1,.42-.43l3.32-2a10.72,10.72,0,0,1-2.86-3.61,10.33,10.33,0,0,1-1-4.51,10.22,10.22,0,0,1,.82-4.08,10.39,10.39,0,0,1,2.26-3.33,10.8,10.8,0,0,1,3.34-2.25A10.62,10.62,0,0,1,498.11,161.1Zm.18,17.32-8.35,4.92v3.43h3.43Zm2.13,1a8.06,8.06,0,0,0,4.22-2.92,8.6,8.6,0,0,0,1.2-2.26,7.69,7.69,0,0,0,.44-2.61,8,8,0,0,0-.64-3.17,8.52,8.52,0,0,0-1.75-2.59,8.4,8.4,0,0,0-2.59-1.75,8.22,8.22,0,0,0-3.19-.65,7.81,7.81,0,0,0-3.17.64,8,8,0,0,0-2.59,1.75,8.18,8.18,0,0,0-1.75,2.58,8,8,0,0,0-.4,5.22,8.27,8.27,0,0,0,.73,1.86,7.62,7.62,0,0,0,1.18,1.62,10.28,10.28,0,0,0,1.55,1.33L501,174.1a1.12,1.12,0,0,1,.6-.16,1.11,1.11,0,0,1,.82.34,1.15,1.15,0,0,1,.35.82,1.19,1.19,0,0,1-.17.61Z" fill="url(#linear-gradient-81)"/>
        </g>
        <g>
          <g>
            <path d="M549.26,196.21a1.66,1.66,0,0,1-1.73,1.57H521a1.66,1.66,0,0,1-1.73-1.57V153.15a1.66,1.66,0,0,1,1.73-1.57h26.54a1.66,1.66,0,0,1,1.73,1.57Z" fill-opacity="0.8" fill="url(#linear-gradient-82)"/>
            <circle cx="522.69" cy="155.85" r="1.53" fill="url(#linear-gradient-83)"/>
            <circle cx="544.96" cy="155.85" r="1.53" fill="url(#linear-gradient-84)"/>
            <circle cx="522.69" cy="194.03" r="1.53" fill="url(#linear-gradient-85)"/>
            <circle cx="544.96" cy="194.03" r="1.53" fill="url(#linear-gradient-86)"/>
          </g>
          <path d="M534.26,169.27a2.27,2.27,0,0,1,.91.18,2.49,2.49,0,0,1,.73.5,2.7,2.7,0,0,1,.51.74,2.06,2.06,0,0,1,.18.91,2.32,2.32,0,0,1-.18.92,2.46,2.46,0,0,1-.49.73,2.91,2.91,0,0,1-.75.51,2.06,2.06,0,0,1-.91.18,2.24,2.24,0,0,1-.91-.18,2.37,2.37,0,0,1-.73-.5,2.32,2.32,0,0,1-.51-.74,2,2,0,0,1-.19-.92,2.15,2.15,0,0,1,.19-.91,2.29,2.29,0,0,1,.49-.73,2.61,2.61,0,0,1,.75-.51A2,2,0,0,1,534.26,169.27Zm0-8.17a10.35,10.35,0,0,1,7.42,3.09,11,11,0,0,1,2.24,3.33,10.51,10.51,0,0,1,.51,6.73,9.66,9.66,0,0,1-1,2.4,10.51,10.51,0,0,1-3.48,3.7,10.75,10.75,0,0,1-2.33,1.15A9.83,9.83,0,0,1,535,182l-3.84,6.49a1.4,1.4,0,0,1-.42.42,1.07,1.07,0,0,1-.59.16h-5.25a1.16,1.16,0,0,1-1.16-1.16v-5.25a1,1,0,0,1,.16-.57,1.56,1.56,0,0,1,.42-.43l3.32-2a10.72,10.72,0,0,1-2.86-3.61,10.33,10.33,0,0,1-1-4.51,10.35,10.35,0,0,1,3.08-7.41,10.87,10.87,0,0,1,3.33-2.25A10.71,10.71,0,0,1,534.26,161.1Zm.18,17.32-8.35,4.92v3.43h3.43Zm2.13,1a8.35,8.35,0,0,0,2.37-1.13,7.82,7.82,0,0,0,1.84-1.79,8.93,8.93,0,0,0,1.21-2.26,7.68,7.68,0,0,0,.43-2.61,8,8,0,0,0-.63-3.17,8.22,8.22,0,0,0-4.34-4.34,8.26,8.26,0,0,0-3.19-.65,7.81,7.81,0,0,0-3.17.64,8,8,0,0,0-2.59,1.75,8.18,8.18,0,0,0-1.75,2.58,8,8,0,0,0-.4,5.22,8.74,8.74,0,0,0,.72,1.86,8,8,0,0,0,1.19,1.62,9.81,9.81,0,0,0,1.55,1.33l7.35-4.34a1.18,1.18,0,0,1,1.42.18,1.14,1.14,0,0,1,.34.82,1.18,1.18,0,0,1-.16.61Z" fill="url(#linear-gradient-87)"/>
        </g>
      </g>
      <g>
        <path d="M336.39,31.58h88a5,5,0,0,1,5,5V69.2" fill="none" stroke="#3c3c41" stroke-miterlimit="10"/>
        <polygon points="425.63 68.1 429.37 74.58 433.11 68.1 425.63 68.1" fill="#3c3c41"/>
      </g>
      <g>
        <path d="M444.13,110.17H470a5,5,0,0,1,5,5v53a5,5,0,0,1-5,5h-1.47" fill="none" stroke="#3c3c41" stroke-miterlimit="10"/>
        <polygon points="469.59 169.43 463.11 173.17 469.59 176.91 469.59 169.43" fill="#3c3c41"/>
      </g>
    </g>
    <g id="Text">
      <g>
        <path d="M202.37,49.7H200v7.51h-1V49.7h-2.42v-.89h5.83Z" fill="#1e1e1e"/>
        <path d="M208.54,57.21h-1V53.75c0-1.25-.46-1.87-1.39-1.87a1.51,1.51,0,0,0-1.18.54,2,2,0,0,0-.48,1.39v3.4h-1V48.33h1v3.88h0a2.18,2.18,0,0,1,2-1.14c1.35,0,2,.81,2,2.44Z" fill="#1e1e1e"/>
        <path d="M213.48,52.18a1.14,1.14,0,0,0-.72-.19,1.21,1.21,0,0,0-1,.58,2.64,2.64,0,0,0-.41,1.58v3.06h-1v-6h1v1.24h0a2.07,2.07,0,0,1,.63-1,1.54,1.54,0,0,1,1.51-.27Z" fill="#1e1e1e"/>
        <path d="M219.35,54.45h-4.24a2.3,2.3,0,0,0,.54,1.55,1.88,1.88,0,0,0,1.42.54,2.89,2.89,0,0,0,1.86-.67v.91a3.47,3.47,0,0,1-2.09.57,2.53,2.53,0,0,1-2-.82,3.35,3.35,0,0,1-.72-2.3,3.28,3.28,0,0,1,.79-2.28,2.54,2.54,0,0,1,2-.88,2.22,2.22,0,0,1,1.82.76,3.18,3.18,0,0,1,.65,2.12Zm-1-.82a2,2,0,0,0-.41-1.29,1.35,1.35,0,0,0-1.09-.46,1.57,1.57,0,0,0-1.16.48,2.25,2.25,0,0,0-.59,1.27Z" fill="#1e1e1e"/>
        <path d="M225.62,54.45h-4.23a2.21,2.21,0,0,0,.54,1.55,1.85,1.85,0,0,0,1.42.54,2.93,2.93,0,0,0,1.86-.67v.91a3.52,3.52,0,0,1-2.09.57,2.52,2.52,0,0,1-2-.82,3.81,3.81,0,0,1,.07-4.58,2.53,2.53,0,0,1,2-.88,2.25,2.25,0,0,1,1.82.76,3.18,3.18,0,0,1,.64,2.12Zm-1-.82a2,2,0,0,0-.4-1.29,1.36,1.36,0,0,0-1.1-.46,1.55,1.55,0,0,0-1.15.48,2.19,2.19,0,0,0-.59,1.27Z" fill="#1e1e1e"/>
        <path d="M230.15,54.24H227v-.75h3.2Z" fill="#1e1e1e"/>
        <path d="M239.44,51.21l-1.8,6h-1l-1.24-4.3a4,4,0,0,1-.09-.55h0a2.56,2.56,0,0,1-.13.54l-1.34,4.31h-1l-1.82-6h1l1.24,4.51a3,3,0,0,1,.09.54h0a3,3,0,0,1,.11-.55l1.38-4.5h.88L237,55.73a3.36,3.36,0,0,1,.09.54h0a2.61,2.61,0,0,1,.1-.54l1.22-4.52Z" fill="#1e1e1e"/>
        <path d="M244.84,57.21h-1v-.94h0a2.2,2.2,0,0,1-3.25.61,1.65,1.65,0,0,1-.51-1.26c0-1.13.66-1.78,2-2l1.8-.25q0-1.53-1.23-1.53a2.91,2.91,0,0,0-2,.74v-1a3.76,3.76,0,0,1,2-.56c1.41,0,2.11.74,2.11,2.24Zm-1-3-1.44.2a2.53,2.53,0,0,0-1,.33,1,1,0,0,0-.34.84.9.9,0,0,0,.31.72,1.2,1.2,0,0,0,.84.28,1.56,1.56,0,0,0,1.18-.5,1.79,1.79,0,0,0,.46-1.27Z" fill="#1e1e1e"/>
        <path d="M251.43,51.21l-2.76,7Q247.94,60,246.6,60A2.28,2.28,0,0,1,246,60V59.1a1.8,1.8,0,0,0,.57.1,1.19,1.19,0,0,0,1.09-.87l.48-1.13-2.35-6h1.07l1.62,4.62c0,.05.06.21.13.45h0c0-.09.06-.24.12-.44l1.7-4.63Z" fill="#1e1e1e"/>
        <path d="M264.27,57.21h-1V53.76a2.65,2.65,0,0,0-.31-1.44,1.19,1.19,0,0,0-1-.44,1.26,1.26,0,0,0-1,.56,2.12,2.12,0,0,0-.43,1.35v3.42h-1V53.65c0-1.18-.46-1.77-1.37-1.77a1.24,1.24,0,0,0-1,.53,2.2,2.2,0,0,0-.41,1.38v3.42h-1v-6h1v.95h0a2,2,0,0,1,1.87-1.09,1.71,1.71,0,0,1,1.69,1.24,2.14,2.14,0,0,1,2-1.24c1.32,0,2,.81,2,2.44Z" fill="#1e1e1e"/>
        <path d="M266.58,49.69a.59.59,0,0,1-.44-.18.62.62,0,0,1-.19-.45.6.6,0,0,1,.19-.44.59.59,0,0,1,.44-.18.6.6,0,0,1,.44.18.6.6,0,0,1,0,.88A.58.58,0,0,1,266.58,49.69Zm.46,7.52h-1v-6h1Z" fill="#1e1e1e"/>
        <path d="M272.12,52.18a1.18,1.18,0,0,0-.73-.19,1.23,1.23,0,0,0-1,.58,2.72,2.72,0,0,0-.41,1.58v3.06h-1v-6h1v1.24h0a2.07,2.07,0,0,1,.63-1,1.42,1.42,0,0,1,.94-.36,1.46,1.46,0,0,1,.58.09Z" fill="#1e1e1e"/>
        <path d="M276.29,52.18a1.18,1.18,0,0,0-.73-.19,1.2,1.2,0,0,0-1,.58,2.64,2.64,0,0,0-.42,1.58v3.06h-1v-6h1v1.24h0a2,2,0,0,1,.62-1,1.43,1.43,0,0,1,1-.36,1.41,1.41,0,0,1,.57.09Z" fill="#1e1e1e"/>
        <path d="M279.84,57.35a2.77,2.77,0,0,1-2.12-.84,3.11,3.11,0,0,1-.8-2.23,3.23,3.23,0,0,1,.83-2.36,3,3,0,0,1,2.23-.85,2.69,2.69,0,0,1,2.1.82,3.32,3.32,0,0,1,.75,2.3,3.25,3.25,0,0,1-.81,2.3A2.87,2.87,0,0,1,279.84,57.35Zm.07-5.47a1.81,1.81,0,0,0-1.46.63,2.58,2.58,0,0,0-.54,1.73,2.47,2.47,0,0,0,.54,1.69,1.86,1.86,0,0,0,1.46.61,1.75,1.75,0,0,0,1.43-.6,3.17,3.17,0,0,0,0-3.45A1.73,1.73,0,0,0,279.91,51.88Z" fill="#1e1e1e"/>
        <path d="M287.49,52.18a1.14,1.14,0,0,0-.72-.19,1.21,1.21,0,0,0-1,.58,2.64,2.64,0,0,0-.41,1.58v3.06h-1v-6h1v1.24h0a2.07,2.07,0,0,1,.63-1,1.54,1.54,0,0,1,1.51-.27Z" fill="#1e1e1e"/>
      </g>
      <g>
        <path d="M9.26,25.65V24.49a2.42,2.42,0,0,0,.47.32,5.19,5.19,0,0,0,.59.24,4.29,4.29,0,0,0,.62.14,3,3,0,0,0,.57.06,2.22,2.22,0,0,0,1.36-.34,1.26,1.26,0,0,0,.3-1.56,1.64,1.64,0,0,0-.42-.46,3.91,3.91,0,0,0-.62-.4l-.78-.4-.82-.45a3.4,3.4,0,0,1-.66-.51,2.06,2.06,0,0,1-.44-.62,1.88,1.88,0,0,1-.16-.82,1.93,1.93,0,0,1,.25-1,2.32,2.32,0,0,1,.66-.7,3.19,3.19,0,0,1,.94-.41,4.24,4.24,0,0,1,1.07-.13,4.11,4.11,0,0,1,1.81.3v1.11a3.26,3.26,0,0,0-1.91-.52,2.88,2.88,0,0,0-.65.07,1.58,1.58,0,0,0-.57.22,1.18,1.18,0,0,0-.41.39,1,1,0,0,0-.16.59,1.18,1.18,0,0,0,.12.55,1.41,1.41,0,0,0,.35.43,3.42,3.42,0,0,0,.58.37c.22.13.48.26.77.4s.59.31.86.47a4.46,4.46,0,0,1,.71.55,2.53,2.53,0,0,1,.48.66,1.84,1.84,0,0,1,.18.83,2,2,0,0,1-.25,1.05,2,2,0,0,1-.65.7,2.88,2.88,0,0,1-.95.39,5.24,5.24,0,0,1-1.14.12l-.49,0-.6-.09a4.91,4.91,0,0,1-.58-.16A1.57,1.57,0,0,1,9.26,25.65Z" fill="#1e1e1e"/>
        <path d="M18.29,25.93a1.8,1.8,0,0,1-.9.19c-1.05,0-1.57-.59-1.57-1.76V20.81h-1V20h1V18.53l1-.31V20h1.51v.82H16.78v3.38a1.43,1.43,0,0,0,.2.86.81.81,0,0,0,.68.26,1,1,0,0,0,.63-.2Z" fill="#1e1e1e"/>
        <path d="M22.08,26.13A2.79,2.79,0,0,1,20,25.29a3.11,3.11,0,0,1-.8-2.23A3.25,3.25,0,0,1,20,20.7a3,3,0,0,1,2.23-.85,2.7,2.7,0,0,1,2.1.83A3.27,3.27,0,0,1,25.07,23a3.23,3.23,0,0,1-.81,2.3A2.87,2.87,0,0,1,22.08,26.13Zm.07-5.47a1.83,1.83,0,0,0-1.46.63A2.59,2.59,0,0,0,20.15,23a2.46,2.46,0,0,0,.54,1.68,1.86,1.86,0,0,0,1.46.61,1.79,1.79,0,0,0,1.44-.6,2.63,2.63,0,0,0,.5-1.72,2.68,2.68,0,0,0-.5-1.73A1.76,1.76,0,0,0,22.15,20.66Z" fill="#1e1e1e"/>
        <path d="M29.73,21a1.21,1.21,0,0,0-.72-.19,1.23,1.23,0,0,0-1,.58,2.67,2.67,0,0,0-.41,1.58V26h-1V20h1v1.24h0a2.17,2.17,0,0,1,.63-1,1.39,1.39,0,0,1,.94-.35,1.44,1.44,0,0,1,.57.08Z" fill="#1e1e1e"/>
        <path d="M35.07,26h-1v-.94h0a2,2,0,0,1-1.85,1.08,2,2,0,0,1-1.4-.47,1.65,1.65,0,0,1-.51-1.26c0-1.12.66-1.78,2-2l1.8-.25q0-1.53-1.23-1.53a3,3,0,0,0-2,.74v-1a3.76,3.76,0,0,1,2-.56c1.41,0,2.11.75,2.11,2.24Zm-1-3-1.45.2a2.25,2.25,0,0,0-1,.33,1,1,0,0,0-.34.84.92.92,0,0,0,.31.72,1.25,1.25,0,0,0,.84.27,1.53,1.53,0,0,0,1.18-.5,1.77,1.77,0,0,0,.46-1.27Z" fill="#1e1e1e"/>
        <path d="M42,25.51c0,2.2-1,3.31-3.16,3.31a4.18,4.18,0,0,1-2-.43v-1a4,4,0,0,0,1.94.57c1.48,0,2.21-.79,2.21-2.36V25h0a2.42,2.42,0,0,1-3.86.35,3.16,3.16,0,0,1-.69-2.14,3.78,3.78,0,0,1,.74-2.44,2.46,2.46,0,0,1,2-.9,2,2,0,0,1,1.8,1h0V20h1Zm-1-2.23v-.89a1.72,1.72,0,0,0-.48-1.22,1.58,1.58,0,0,0-1.2-.51,1.68,1.68,0,0,0-1.4.65,2.91,2.91,0,0,0-.5,1.81,2.48,2.48,0,0,0,.48,1.6,1.56,1.56,0,0,0,1.28.6,1.69,1.69,0,0,0,1.32-.57A2.16,2.16,0,0,0,41,23.28Z" fill="#1e1e1e"/>
        <path d="M48.77,23.23H44.54a2.23,2.23,0,0,0,.53,1.55,1.88,1.88,0,0,0,1.42.54,3,3,0,0,0,1.87-.66v.9a3.53,3.53,0,0,1-2.1.57,2.51,2.51,0,0,1-2-.82A3.3,3.3,0,0,1,43.54,23a3.29,3.29,0,0,1,.79-2.29,2.58,2.58,0,0,1,2-.88,2.28,2.28,0,0,1,1.82.76,3.19,3.19,0,0,1,.64,2.12Zm-1-.81a2,2,0,0,0-.4-1.3,1.37,1.37,0,0,0-1.1-.46,1.54,1.54,0,0,0-1.16.49,2.18,2.18,0,0,0-.58,1.27Z" fill="#1e1e1e"/>
        <path d="M53.15,25.77v-1a2.82,2.82,0,0,0,1.73.58q1.26,0,1.26-.84a.68.68,0,0,0-.11-.41,1,1,0,0,0-.29-.29,1.76,1.76,0,0,0-.43-.23l-.54-.22a5.79,5.79,0,0,1-.7-.32,2.22,2.22,0,0,1-.5-.36,1.38,1.38,0,0,1-.31-.46,1.57,1.57,0,0,1-.1-.6,1.52,1.52,0,0,1,.19-.75,1.7,1.7,0,0,1,.52-.55A2.71,2.71,0,0,1,54.6,20a3.49,3.49,0,0,1,.86-.11,3.41,3.41,0,0,1,1.39.27v1a2.7,2.7,0,0,0-1.52-.43,1.88,1.88,0,0,0-.49.06,1.26,1.26,0,0,0-.37.17,1,1,0,0,0-.24.27.67.67,0,0,0-.09.34.82.82,0,0,0,.09.4.94.94,0,0,0,.25.28,2.11,2.11,0,0,0,.4.22l.53.22a7.07,7.07,0,0,1,.72.31,2.45,2.45,0,0,1,.53.36,1.45,1.45,0,0,1,.35.47,1.64,1.64,0,0,1-.08,1.4,1.58,1.58,0,0,1-.52.54,2.28,2.28,0,0,1-.76.33,3.71,3.71,0,0,1-.9.1A3.37,3.37,0,0,1,53.15,25.77Z" fill="#1e1e1e"/>
        <path d="M59.59,25.12h0v3.63h-1V20h1v1.06h0a2.26,2.26,0,0,1,2.07-1.2,2.18,2.18,0,0,1,1.81.81,3.28,3.28,0,0,1,.65,2.16,3.72,3.72,0,0,1-.73,2.41,2.45,2.45,0,0,1-2,.9A2,2,0,0,1,59.59,25.12Zm0-2.42v.84a1.82,1.82,0,0,0,.49,1.27,1.73,1.73,0,0,0,2.59-.15,3.09,3.09,0,0,0,.5-1.86,2.47,2.47,0,0,0-.46-1.57,1.54,1.54,0,0,0-1.26-.57,1.7,1.7,0,0,0-1.35.58A2.15,2.15,0,0,0,59.56,22.7Z" fill="#1e1e1e"/>
        <path d="M70,26H69v-.94h0a2.2,2.2,0,0,1-3.25.61,1.65,1.65,0,0,1-.51-1.26c0-1.12.66-1.78,2-2l1.8-.25q0-1.53-1.23-1.53a3,3,0,0,0-2,.74v-1a3.76,3.76,0,0,1,2-.56c1.41,0,2.11.75,2.11,2.24Zm-1-3-1.44.2a2.25,2.25,0,0,0-1,.33,1,1,0,0,0-.34.84.92.92,0,0,0,.31.72,1.25,1.25,0,0,0,.84.27,1.53,1.53,0,0,0,1.18-.5A1.77,1.77,0,0,0,69,23.55Z" fill="#1e1e1e"/>
        <path d="M75.85,25.72a3.17,3.17,0,0,1-1.64.41,2.75,2.75,0,0,1-2.07-.83,3.06,3.06,0,0,1-.79-2.17,3.35,3.35,0,0,1,.85-2.38,3,3,0,0,1,2.27-.9,3.27,3.27,0,0,1,1.4.29v1a2.49,2.49,0,0,0-1.43-.47,1.92,1.92,0,0,0-1.51.66,2.47,2.47,0,0,0-.59,1.73,2.36,2.36,0,0,0,.55,1.66,1.91,1.91,0,0,0,1.49.61,2.38,2.38,0,0,0,1.47-.52Z" fill="#1e1e1e"/>
        <path d="M82.13,23.23H77.89a2.28,2.28,0,0,0,.54,1.55,1.88,1.88,0,0,0,1.42.54,2.94,2.94,0,0,0,1.86-.66v.9a3.47,3.47,0,0,1-2.09.57,2.53,2.53,0,0,1-2-.82A3.34,3.34,0,0,1,76.9,23a3.29,3.29,0,0,1,.79-2.29,2.58,2.58,0,0,1,2-.88,2.25,2.25,0,0,1,1.82.76,3.2,3.2,0,0,1,.65,2.12Zm-1-.81a1.91,1.91,0,0,0-.4-1.3,1.36,1.36,0,0,0-1.1-.46,1.54,1.54,0,0,0-1.15.49,2.19,2.19,0,0,0-.59,1.27Z" fill="#1e1e1e"/>
        <path d="M83.22,25.77v-1a2.82,2.82,0,0,0,1.73.58q1.26,0,1.26-.84a.68.68,0,0,0-.11-.41,1,1,0,0,0-.29-.29,1.76,1.76,0,0,0-.43-.23l-.54-.22a5.79,5.79,0,0,1-.7-.32,2.22,2.22,0,0,1-.5-.36,1.38,1.38,0,0,1-.31-.46,1.79,1.79,0,0,1-.1-.6,1.52,1.52,0,0,1,.19-.75,1.82,1.82,0,0,1,.52-.55,2.64,2.64,0,0,1,.74-.33,3.35,3.35,0,0,1,.85-.11,3.41,3.41,0,0,1,1.39.27v1a2.7,2.7,0,0,0-1.52-.43,1.88,1.88,0,0,0-.49.06,1.26,1.26,0,0,0-.37.17,1,1,0,0,0-.24.27.66.66,0,0,0-.08.34.82.82,0,0,0,.08.4.94.94,0,0,0,.25.28,2.11,2.11,0,0,0,.4.22l.53.22a7.07,7.07,0,0,1,.72.31,2.45,2.45,0,0,1,.53.36,1.45,1.45,0,0,1,.35.47,1.64,1.64,0,0,1-.08,1.4,1.58,1.58,0,0,1-.52.54,2.28,2.28,0,0,1-.76.33,3.71,3.71,0,0,1-.9.1A3.37,3.37,0,0,1,83.22,25.77Z" fill="#1e1e1e"/>
      </g>
      <g>
        <path d="M15.37,81.82a4.92,4.92,0,0,1-2.32.49,3.72,3.72,0,0,1-2.87-1.15,4.26,4.26,0,0,1-1.08-3,4.47,4.47,0,0,1,1.21-3.26,4.11,4.11,0,0,1,3.08-1.24,5,5,0,0,1,2,.35v1a4.08,4.08,0,0,0-2-.5,3,3,0,0,0-2.35,1,3.62,3.62,0,0,0-.9,2.58A3.47,3.47,0,0,0,11,80.52a2.86,2.86,0,0,0,2.21.91,4.2,4.2,0,0,0,2.19-.56Z" fill="#1e1e1e"/>
        <path d="M21.24,82.17h-1v-.93h0a2,2,0,0,1-1.85,1.07,2,2,0,0,1-1.4-.47,1.65,1.65,0,0,1-.51-1.26c0-1.12.66-1.77,2-2l1.8-.25q0-1.53-1.23-1.53a3,3,0,0,0-2,.74v-1a3.68,3.68,0,0,1,2-.57c1.41,0,2.11.75,2.11,2.24Zm-1-3-1.44.2a2.3,2.3,0,0,0-1,.33,1,1,0,0,0-.34.84.92.92,0,0,0,.31.72,1.25,1.25,0,0,0,.84.28A1.54,1.54,0,0,0,19.82,81a1.76,1.76,0,0,0,.46-1.26Z" fill="#1e1e1e"/>
        <path d="M27.14,81.9a3.07,3.07,0,0,1-1.64.41,2.71,2.71,0,0,1-2.07-.83,3.06,3.06,0,0,1-.79-2.17,3.36,3.36,0,0,1,.85-2.38,3,3,0,0,1,2.27-.9,3.13,3.13,0,0,1,1.4.3v1a2.49,2.49,0,0,0-1.43-.47,1.92,1.92,0,0,0-1.51.66,2.52,2.52,0,0,0-.59,1.73,2.39,2.39,0,0,0,.55,1.67,1.94,1.94,0,0,0,1.49.61A2.39,2.39,0,0,0,27.14,81Z" fill="#1e1e1e"/>
        <path d="M33.58,82.17h-1V78.72c0-1.25-.47-1.88-1.4-1.88a1.51,1.51,0,0,0-1.18.54,2,2,0,0,0-.48,1.39v3.4h-1V73.29h1v3.88h0a2.18,2.18,0,0,1,2-1.14c1.35,0,2,.82,2,2.45Z" fill="#1e1e1e"/>
        <path d="M40.21,79.41H36A2.23,2.23,0,0,0,36.51,81a1.89,1.89,0,0,0,1.42.55,3,3,0,0,0,1.87-.67v.9a3.53,3.53,0,0,1-2.1.57,2.53,2.53,0,0,1-2-.81A3.33,3.33,0,0,1,35,79.2a3.29,3.29,0,0,1,.79-2.29,2.58,2.58,0,0,1,2-.88,2.29,2.29,0,0,1,1.83.76,3.19,3.19,0,0,1,.64,2.12Zm-1-.81a2,2,0,0,0-.4-1.3,1.4,1.4,0,0,0-1.1-.46,1.54,1.54,0,0,0-1.16.49A2.21,2.21,0,0,0,36,78.6Z" fill="#1e1e1e"/>
      </g>
      <g>
        <path d="M15.37,155.5a4.92,4.92,0,0,1-2.32.49,3.72,3.72,0,0,1-2.87-1.15,4.26,4.26,0,0,1-1.08-3,4.45,4.45,0,0,1,1.21-3.26,4.11,4.11,0,0,1,3.08-1.24,5,5,0,0,1,2,.34v1a4.08,4.08,0,0,0-2-.5,3.07,3.07,0,0,0-2.35,1,3.66,3.66,0,0,0-.9,2.59,3.44,3.44,0,0,0,.84,2.44,2.87,2.87,0,0,0,2.21.92,4.11,4.11,0,0,0,2.19-.57Z" fill="#1e1e1e"/>
        <path d="M21.24,155.85h-1v-.94h0a2.2,2.2,0,0,1-3.25.61,1.65,1.65,0,0,1-.51-1.26c0-1.13.66-1.78,2-2l1.8-.25q0-1.53-1.23-1.53a2.91,2.91,0,0,0-2,.74v-1a3.76,3.76,0,0,1,2-.56c1.41,0,2.11.75,2.11,2.24Zm-1-3-1.44.2a2.59,2.59,0,0,0-1,.33,1,1,0,0,0-.34.85.89.89,0,0,0,.31.71,1.2,1.2,0,0,0,.84.28,1.56,1.56,0,0,0,1.18-.5,1.79,1.79,0,0,0,.46-1.27Z" fill="#1e1e1e"/>
        <path d="M24,155h0v3.63h-1v-8.76h1v1.05h0a2.27,2.27,0,0,1,2.07-1.19,2.2,2.2,0,0,1,1.81.8,3.31,3.31,0,0,1,.65,2.16,3.69,3.69,0,0,1-.73,2.41,2.42,2.42,0,0,1-2,.91A2,2,0,0,1,24,155Zm0-2.42v.84a1.77,1.77,0,0,0,.48,1.26,1.59,1.59,0,0,0,1.23.52,1.6,1.6,0,0,0,1.37-.67,3,3,0,0,0,.49-1.85,2.39,2.39,0,0,0-.46-1.57,1.54,1.54,0,0,0-1.26-.57,1.68,1.68,0,0,0-1.34.58A2.15,2.15,0,0,0,24,152.56Z" fill="#1e1e1e"/>
        <path d="M34.4,155.85h-1v-.94h0a2.2,2.2,0,0,1-3.25.61,1.65,1.65,0,0,1-.51-1.26c0-1.13.66-1.78,2-2l1.8-.25q0-1.53-1.23-1.53a2.91,2.91,0,0,0-2,.74v-1a3.76,3.76,0,0,1,2-.56c1.41,0,2.11.75,2.11,2.24Zm-1-3L32,153a2.59,2.59,0,0,0-1,.33,1,1,0,0,0-.34.85.89.89,0,0,0,.31.71,1.2,1.2,0,0,0,.84.28,1.56,1.56,0,0,0,1.18-.5,1.79,1.79,0,0,0,.46-1.27Z" fill="#1e1e1e"/>
        <path d="M40.31,155.57a3.14,3.14,0,0,1-1.65.42,2.75,2.75,0,0,1-2.07-.83,3.06,3.06,0,0,1-.78-2.17,3.34,3.34,0,0,1,.84-2.38,3,3,0,0,1,2.27-.9,3.27,3.27,0,0,1,1.4.29v1a2.42,2.42,0,0,0-1.43-.47,1.92,1.92,0,0,0-1.51.66,2.5,2.5,0,0,0-.59,1.73,2.36,2.36,0,0,0,.55,1.66,1.91,1.91,0,0,0,1.49.61,2.43,2.43,0,0,0,1.48-.52Z" fill="#1e1e1e"/>
        <path d="M42.25,148.33a.61.61,0,0,1-.62-.62.61.61,0,0,1,.18-.45.6.6,0,0,1,.44-.18.62.62,0,0,1,.63.63.63.63,0,0,1-.63.62Zm.47,7.52h-1v-6h1Z" fill="#1e1e1e"/>
        <path d="M47.45,155.79a1.82,1.82,0,0,1-.9.19c-1,0-1.57-.59-1.57-1.76v-3.55h-1v-.82h1v-1.47l1-.31v1.78h1.51v.82H45.94v3.38a1.38,1.38,0,0,0,.2.86.83.83,0,0,0,.68.26,1.05,1.05,0,0,0,.63-.2Z" fill="#1e1e1e"/>
        <path d="M53.51,149.85l-2.76,7c-.5,1.24-1.19,1.86-2.08,1.86a2.16,2.16,0,0,1-.62-.07v-.86a1.7,1.7,0,0,0,.56.1A1.17,1.17,0,0,0,49.7,157l.48-1.13-2.34-6h1.07l1.62,4.62q0,.09.12.45h0c0-.09.06-.24.12-.44l1.7-4.63Z" fill="#1e1e1e"/>
      </g>
      <g>
        <path d="M93.82,85.17H92.61l-4.32-6.69A2.94,2.94,0,0,1,88,78h0a9.28,9.28,0,0,1,0,1.15v6.07h-1v-8.4h1.28l4.2,6.59a5.64,5.64,0,0,1,.34.57h0a8.84,8.84,0,0,1-.06-1.24V76.77h1Z" fill="#1e1e1e"/>
        <path d="M102.27,76.77l-3.11,8.4H98.08l-3-8.4h1.09l2.33,6.66a4.63,4.63,0,0,1,.17.75h0a3.43,3.43,0,0,1,.2-.76l2.37-6.65Z" fill="#1e1e1e"/>
        <path d="M112,85.17h-1V79.54c0-.45,0-1,.08-1.64h0a4.6,4.6,0,0,1-.25.82L108,85.17h-.48l-2.86-6.41a4.31,4.31,0,0,1-.26-.86h0c0,.34.05.89.05,1.65v5.62h-1v-8.4h1.3l2.58,5.86a7.5,7.5,0,0,1,.38,1h0c.17-.46.3-.81.4-1l2.63-5.84H112Z" fill="#1e1e1e"/>
        <path d="M119,82.41h-4.24a2.28,2.28,0,0,0,.54,1.55,1.87,1.87,0,0,0,1.42.55,3,3,0,0,0,1.86-.67v.9a3.5,3.5,0,0,1-2.09.57,2.54,2.54,0,0,1-2-.81,3.37,3.37,0,0,1-.73-2.3,3.29,3.29,0,0,1,.8-2.29,2.56,2.56,0,0,1,2-.88,2.28,2.28,0,0,1,1.82.76,3.2,3.2,0,0,1,.65,2.12Zm-1-.81a2,2,0,0,0-.4-1.3,1.39,1.39,0,0,0-1.1-.46,1.52,1.52,0,0,0-1.15.49,2.22,2.22,0,0,0-.59,1.27Z" fill="#1e1e1e"/>
      </g>
      <g>
        <path d="M180.09,85.17h-1.2l-4.33-6.69a2.94,2.94,0,0,1-.27-.53h0a9.28,9.28,0,0,1,0,1.15v6.07h-1v-8.4h1.28l4.2,6.59a5.64,5.64,0,0,1,.34.57h0a8.84,8.84,0,0,1-.06-1.24V76.77h1Z" fill="#1e1e1e"/>
        <path d="M188.54,76.77l-3.11,8.4h-1.08l-3-8.4h1.1l2.32,6.66a3.77,3.77,0,0,1,.17.75h0a3.38,3.38,0,0,1,.19-.76l2.37-6.65Z" fill="#1e1e1e"/>
        <path d="M198.32,85.17h-1V79.54c0-.45,0-1,.08-1.64h0a5.38,5.38,0,0,1-.26.82l-2.87,6.45h-.48l-2.86-6.41a4.44,4.44,0,0,1-.25-.86h0c0,.34,0,.89,0,1.65v5.62h-.95v-8.4h1.3l2.58,5.86a7.92,7.92,0,0,1,.39,1h0c.17-.46.3-.81.4-1l2.64-5.84h1.23Z" fill="#1e1e1e"/>
        <path d="M205.22,82.41H201a2.28,2.28,0,0,0,.54,1.55,1.89,1.89,0,0,0,1.42.55,3,3,0,0,0,1.86-.67v.9a3.47,3.47,0,0,1-2.09.57,2.56,2.56,0,0,1-2-.81,3.37,3.37,0,0,1-.72-2.3,3.29,3.29,0,0,1,.79-2.29,2.58,2.58,0,0,1,2-.88,2.27,2.27,0,0,1,1.82.76,3.2,3.2,0,0,1,.65,2.12Zm-1-.81a1.91,1.91,0,0,0-.4-1.3,1.39,1.39,0,0,0-1.1-.46,1.54,1.54,0,0,0-1.15.49A2.22,2.22,0,0,0,201,81.6Z" fill="#1e1e1e"/>
      </g>
      <g>
        <path d="M125,221.26v-1.88a3.45,3.45,0,0,0,1.11.64,3.4,3.4,0,0,0,1.21.22,2.72,2.72,0,0,0,.62-.07,1.32,1.32,0,0,0,.45-.18.61.61,0,0,0,.26-.27.63.63,0,0,0,.09-.33.68.68,0,0,0-.14-.44,1.47,1.47,0,0,0-.38-.36,5,5,0,0,0-.58-.32L127,218a3.56,3.56,0,0,1-1.47-1,2.19,2.19,0,0,1-.48-1.43,2.36,2.36,0,0,1,.26-1.13,2.31,2.31,0,0,1,.72-.77,2.93,2.93,0,0,1,1.05-.45,5.21,5.21,0,0,1,1.27-.14,8,8,0,0,1,1.16.07,5.16,5.16,0,0,1,.94.25v1.75a3.42,3.42,0,0,0-.46-.26,4.56,4.56,0,0,0-.52-.18,3.21,3.21,0,0,0-.52-.11,4.57,4.57,0,0,0-.5,0,2.58,2.58,0,0,0-.58.06,1.56,1.56,0,0,0-.45.18.88.88,0,0,0-.28.26.62.62,0,0,0-.1.35.7.7,0,0,0,.11.38,1.38,1.38,0,0,0,.32.32,3.69,3.69,0,0,0,.5.29c.19.1.41.19.66.3a7.57,7.57,0,0,1,.9.44,3.18,3.18,0,0,1,.69.54,2.15,2.15,0,0,1,.44.68,2.5,2.5,0,0,1,.15.9,2.37,2.37,0,0,1-.26,1.18,2.15,2.15,0,0,1-.73.77,3.07,3.07,0,0,1-1.06.43,6.55,6.55,0,0,1-1.28.12,6.88,6.88,0,0,1-1.31-.11A4.36,4.36,0,0,1,125,221.26Z" fill="#1e1e1e"/>
        <path d="M137.37,219.11h-3.91c.06.87.61,1.3,1.65,1.3a3.15,3.15,0,0,0,1.74-.47v1.34a4.56,4.56,0,0,1-2.16.44,2.78,2.78,0,0,1-3.06-3.05,3.27,3.27,0,0,1,.86-2.37,2.9,2.9,0,0,1,2.14-.87,2.63,2.63,0,0,1,2,.78,3,3,0,0,1,.71,2.12ZM135.66,218c0-.86-.35-1.29-1-1.29a1,1,0,0,0-.78.37,1.71,1.71,0,0,0-.39.92Z" fill="#1e1e1e"/>
        <path d="M142.47,217.25a1.66,1.66,0,0,0-.78-.18,1.13,1.13,0,0,0-.95.44,2,2,0,0,0-.34,1.2v2.87h-1.85v-6h1.85v1.11h0a1.6,1.6,0,0,1,1.58-1.22,1.35,1.35,0,0,1,.46.07Z" fill="#1e1e1e"/>
        <path d="M149.42,215.58l-2.24,6h-2.1l-2.13-6h2l1,3.7a5.17,5.17,0,0,1,.21,1.06h0a6,6,0,0,1,.22-1l1.06-3.73Z" fill="#1e1e1e"/>
        <path d="M155.42,219.11H151.5c.06.87.61,1.3,1.65,1.3a3.15,3.15,0,0,0,1.74-.47v1.34a4.56,4.56,0,0,1-2.16.44,3,3,0,0,1-2.26-.8,3.08,3.08,0,0,1-.8-2.25,3.23,3.23,0,0,1,.87-2.37,2.87,2.87,0,0,1,2.13-.87,2.63,2.63,0,0,1,2,.78,3,3,0,0,1,.72,2.12ZM153.7,218c0-.86-.35-1.29-1-1.29a1,1,0,0,0-.77.37,1.65,1.65,0,0,0-.4.92Z" fill="#1e1e1e"/>
        <path d="M160.51,217.25a1.61,1.61,0,0,0-.78-.18,1.1,1.1,0,0,0-.94.44,1.9,1.9,0,0,0-.34,1.2v2.87h-1.86v-6h1.86v1.11h0a1.6,1.6,0,0,1,1.58-1.22,1.35,1.35,0,0,1,.46.07Z" fill="#1e1e1e"/>
        <path d="M168.78,213v8.59h-1.85v-6.51a2.09,2.09,0,0,1-.36.26l-.44.22a4,4,0,0,1-.49.16,4.42,4.42,0,0,1-.5.1v-1.56a7.41,7.41,0,0,0,1.36-.54,8.17,8.17,0,0,0,1.16-.72Z" fill="#1e1e1e"/>
      </g>
      <g>
        <path d="M256.25,85.17H255l-4.32-6.69a2.94,2.94,0,0,1-.27-.53h0a7.12,7.12,0,0,1,.05,1.15v6.07h-1v-8.4h1.27L255,83.36a5.64,5.64,0,0,1,.34.57h0a8.84,8.84,0,0,1-.06-1.24V76.77h1Z" fill="#1e1e1e"/>
        <path d="M264.7,76.77l-3.11,8.4H260.5l-3-8.4h1.09l2.33,6.66a4.63,4.63,0,0,1,.17.75h0a3.43,3.43,0,0,1,.2-.76l2.37-6.65Z" fill="#1e1e1e"/>
        <path d="M274.47,85.17h-1V79.54c0-.45,0-1,.08-1.64h0a4.6,4.6,0,0,1-.25.82l-2.87,6.45H270l-2.87-6.41a5.3,5.3,0,0,1-.25-.86h0c0,.34.05.89.05,1.65v5.62h-.95v-8.4h1.3l2.58,5.86a7.5,7.5,0,0,1,.38,1h0c.17-.46.3-.81.4-1l2.63-5.84h1.23Z" fill="#1e1e1e"/>
        <path d="M281.38,82.41h-4.24a2.23,2.23,0,0,0,.54,1.55,1.87,1.87,0,0,0,1.42.55,3,3,0,0,0,1.86-.67v.9a3.5,3.5,0,0,1-2.09.57,2.54,2.54,0,0,1-2-.81,3.37,3.37,0,0,1-.73-2.3,3.29,3.29,0,0,1,.8-2.29,2.56,2.56,0,0,1,2-.88,2.28,2.28,0,0,1,1.82.76,3.2,3.2,0,0,1,.65,2.12Zm-1-.81a2,2,0,0,0-.4-1.3,1.39,1.39,0,0,0-1.1-.46,1.52,1.52,0,0,0-1.15.49,2.22,2.22,0,0,0-.59,1.27Z" fill="#1e1e1e"/>
      </g>
      <g>
        <path d="M342.52,85.17h-1.2L337,78.48a2.94,2.94,0,0,1-.27-.53h0a9.28,9.28,0,0,1,0,1.15v6.07h-1v-8.4H337l4.2,6.59a5.64,5.64,0,0,1,.34.57h0a8.84,8.84,0,0,1-.06-1.24V76.77h1Z" fill="#1e1e1e"/>
        <path d="M351,76.77l-3.11,8.4h-1.08l-3-8.4h1.1l2.32,6.66a3.77,3.77,0,0,1,.17.75h0a3.38,3.38,0,0,1,.19-.76l2.37-6.65Z" fill="#1e1e1e"/>
        <path d="M360.75,85.17h-1V79.54c0-.45,0-1,.08-1.64h0a5.38,5.38,0,0,1-.26.82l-2.87,6.45h-.48l-2.86-6.41a4.44,4.44,0,0,1-.25-.86h0c0,.34.05.89.05,1.65v5.62h-.95v-8.4h1.3l2.58,5.86a7.92,7.92,0,0,1,.39,1h0c.17-.46.3-.81.4-1l2.64-5.84h1.23Z" fill="#1e1e1e"/>
        <path d="M367.65,82.41h-4.24A2.28,2.28,0,0,0,364,84a1.87,1.87,0,0,0,1.42.55,3,3,0,0,0,1.86-.67v.9a3.5,3.5,0,0,1-2.09.57,2.56,2.56,0,0,1-2-.81,3.37,3.37,0,0,1-.72-2.3,3.29,3.29,0,0,1,.79-2.29,2.58,2.58,0,0,1,2-.88,2.27,2.27,0,0,1,1.82.76,3.2,3.2,0,0,1,.65,2.12Zm-1-.81a1.91,1.91,0,0,0-.4-1.3,1.39,1.39,0,0,0-1.1-.46,1.54,1.54,0,0,0-1.15.49,2.22,2.22,0,0,0-.59,1.27Z" fill="#1e1e1e"/>
      </g>
      <g>
        <path d="M420.71,85.17H419.5l-4.32-6.69a2.94,2.94,0,0,1-.27-.53h0a7.12,7.12,0,0,1,.05,1.15v6.07h-1v-8.4h1.27l4.21,6.59a5.64,5.64,0,0,1,.34.57h0a8.84,8.84,0,0,1-.06-1.24V76.77h1Z" fill="#1e1e1e"/>
        <path d="M429.16,76.77l-3.11,8.4H425l-3-8.4H423l2.33,6.66a4.63,4.63,0,0,1,.17.75h0a3.43,3.43,0,0,1,.2-.76l2.37-6.65Z" fill="#1e1e1e"/>
        <path d="M438.93,85.17h-1V79.54c0-.45,0-1,.09-1.64h0a4.6,4.6,0,0,1-.25.82l-2.87,6.45h-.48l-2.87-6.41a5.3,5.3,0,0,1-.25-.86h0c0,.34.05.89.05,1.65v5.62h-.95v-8.4h1.3l2.58,5.86a7.5,7.5,0,0,1,.38,1h0c.17-.46.3-.81.4-1l2.63-5.84h1.23Z" fill="#1e1e1e"/>
        <path d="M445.84,82.41H441.6a2.23,2.23,0,0,0,.54,1.55,1.86,1.86,0,0,0,1.42.55,3,3,0,0,0,1.86-.67v.9a3.5,3.5,0,0,1-2.09.57,2.54,2.54,0,0,1-2-.81,3.37,3.37,0,0,1-.73-2.3,3.29,3.29,0,0,1,.8-2.29,2.56,2.56,0,0,1,2-.88,2.28,2.28,0,0,1,1.82.76,3.2,3.2,0,0,1,.65,2.12Zm-1-.81a2,2,0,0,0-.4-1.3,1.39,1.39,0,0,0-1.1-.46,1.52,1.52,0,0,0-1.15.49,2.22,2.22,0,0,0-.59,1.27Z" fill="#1e1e1e"/>
      </g>
      <g>
        <path d="M507,85.17h-1.2l-4.33-6.69a2.94,2.94,0,0,1-.27-.53h0a9.28,9.28,0,0,1,0,1.15v6.07h-1v-8.4h1.28l4.2,6.59a5.64,5.64,0,0,1,.34.57h0a8.84,8.84,0,0,1-.06-1.24V76.77h1Z" fill="#1e1e1e"/>
        <path d="M515.43,76.77l-3.11,8.4h-1.08l-3.05-8.4h1.1l2.32,6.66a3.77,3.77,0,0,1,.17.75h0a3.38,3.38,0,0,1,.19-.76l2.37-6.65Z" fill="#1e1e1e"/>
        <path d="M525.21,85.17h-1V79.54c0-.45,0-1,.08-1.64h0a5.38,5.38,0,0,1-.26.82l-2.87,6.45h-.48l-2.86-6.41a4.44,4.44,0,0,1-.25-.86h0c0,.34.05.89.05,1.65v5.62h-1v-8.4h1.3l2.58,5.86a7.92,7.92,0,0,1,.39,1h0c.17-.46.3-.81.4-1L524,76.77h1.23Z" fill="#1e1e1e"/>
        <path d="M532.11,82.41h-4.24a2.28,2.28,0,0,0,.54,1.55,1.87,1.87,0,0,0,1.42.55,3,3,0,0,0,1.86-.67v.9a3.5,3.5,0,0,1-2.09.57,2.56,2.56,0,0,1-2-.81,3.37,3.37,0,0,1-.72-2.3,3.29,3.29,0,0,1,.79-2.29,2.58,2.58,0,0,1,2-.88,2.27,2.27,0,0,1,1.82.76,3.2,3.2,0,0,1,.65,2.12Zm-1-.81a1.91,1.91,0,0,0-.4-1.3,1.39,1.39,0,0,0-1.1-.46,1.54,1.54,0,0,0-1.15.49,2.22,2.22,0,0,0-.59,1.27Z" fill="#1e1e1e"/>
      </g>
      <g>
        <path d="M287.47,221.26v-1.88a3.45,3.45,0,0,0,1.11.64,3.4,3.4,0,0,0,1.21.22,2.79,2.79,0,0,0,.62-.07,1.32,1.32,0,0,0,.45-.18.61.61,0,0,0,.26-.27.63.63,0,0,0,.09-.33.74.74,0,0,0-.14-.44,1.47,1.47,0,0,0-.38-.36,5,5,0,0,0-.58-.32l-.72-.31a3.56,3.56,0,0,1-1.47-1,2.19,2.19,0,0,1-.48-1.43,2.36,2.36,0,0,1,.26-1.13,2.31,2.31,0,0,1,.72-.77,2.93,2.93,0,0,1,1.05-.45,5.21,5.21,0,0,1,1.27-.14,8.12,8.12,0,0,1,1.16.07,4.85,4.85,0,0,1,.93.25v1.75a2.9,2.9,0,0,0-.46-.26,3.82,3.82,0,0,0-.51-.18,3.21,3.21,0,0,0-.52-.11,4.57,4.57,0,0,0-.5,0,2.58,2.58,0,0,0-.58.06,1.56,1.56,0,0,0-.45.18.88.88,0,0,0-.28.26.62.62,0,0,0-.1.35.7.7,0,0,0,.11.38,1.38,1.38,0,0,0,.32.32,3.69,3.69,0,0,0,.5.29c.19.1.41.19.66.3a8.41,8.41,0,0,1,.9.44,3.18,3.18,0,0,1,.69.54,2.15,2.15,0,0,1,.44.68,2.5,2.5,0,0,1,.15.9,2.37,2.37,0,0,1-.26,1.18,2.15,2.15,0,0,1-.73.77,3.15,3.15,0,0,1-1.06.43,6.55,6.55,0,0,1-1.28.12,7.06,7.06,0,0,1-1.32-.11A4.42,4.42,0,0,1,287.47,221.26Z" fill="#1e1e1e"/>
        <path d="M299.8,219.11h-3.91c.06.87.61,1.3,1.65,1.3a3.15,3.15,0,0,0,1.74-.47v1.34a4.56,4.56,0,0,1-2.16.44,2.78,2.78,0,0,1-3.06-3.05,3.27,3.27,0,0,1,.86-2.37,2.9,2.9,0,0,1,2.14-.87,2.63,2.63,0,0,1,2,.78,3,3,0,0,1,.71,2.12ZM298.09,218q0-1.29-1-1.29a1,1,0,0,0-.77.37,1.71,1.71,0,0,0-.39.92Z" fill="#1e1e1e"/>
        <path d="M304.9,217.25a1.66,1.66,0,0,0-.78-.18,1.11,1.11,0,0,0-.95.44,2,2,0,0,0-.34,1.2v2.87H301v-6h1.85v1.11h0a1.6,1.6,0,0,1,1.58-1.22,1.39,1.39,0,0,1,.46.07Z" fill="#1e1e1e"/>
        <path d="M311.85,215.58l-2.24,6H307.5l-2.12-6h2l1,3.7a5.17,5.17,0,0,1,.21,1.06h0a6,6,0,0,1,.22-1l1.06-3.73Z" fill="#1e1e1e"/>
        <path d="M317.85,219.11h-3.92c.06.87.61,1.3,1.65,1.3a3.15,3.15,0,0,0,1.74-.47v1.34a4.56,4.56,0,0,1-2.16.44,3,3,0,0,1-2.26-.8,3.08,3.08,0,0,1-.8-2.25,3.27,3.27,0,0,1,.86-2.37,2.9,2.9,0,0,1,2.14-.87,2.63,2.63,0,0,1,2,.78,3,3,0,0,1,.72,2.12ZM316.13,218c0-.86-.35-1.29-1-1.29a1,1,0,0,0-.77.37,1.65,1.65,0,0,0-.4.92Z" fill="#1e1e1e"/>
        <path d="M322.94,217.25a1.61,1.61,0,0,0-.78-.18,1.1,1.1,0,0,0-.94.44,1.9,1.9,0,0,0-.34,1.2v2.87H319v-6h1.86v1.11h0a1.6,1.6,0,0,1,1.58-1.22,1.35,1.35,0,0,1,.46.07Z" fill="#1e1e1e"/>
        <path d="M328.84,220h3.57v1.54h-5.59V221a3,3,0,0,1,.21-1.16,4,4,0,0,1,.55-.92,4.9,4.9,0,0,1,.72-.72c.26-.21.5-.4.74-.57s.46-.34.65-.5a3.4,3.4,0,0,0,.46-.48,1.76,1.76,0,0,0,.29-.48,1.46,1.46,0,0,0,.09-.52,1,1,0,0,0-.3-.81,1.34,1.34,0,0,0-.93-.28,3.15,3.15,0,0,0-2.08.86v-1.63a4.48,4.48,0,0,1,2.47-.7,3.72,3.72,0,0,1,1.15.16,2.4,2.4,0,0,1,.86.48,2.09,2.09,0,0,1,.53.75,2.46,2.46,0,0,1,.19,1,2.74,2.74,0,0,1-.18,1,3.3,3.3,0,0,1-.47.82,4.44,4.44,0,0,1-.69.68c-.25.2-.52.4-.8.59l-.54.4a3.75,3.75,0,0,0-.46.39,2.11,2.11,0,0,0-.32.37A.61.61,0,0,0,328.84,220Z" fill="#1e1e1e"/>
      </g>
      <g>
        <path d="M450.12,221.26v-1.88a3.45,3.45,0,0,0,1.11.64,3.39,3.39,0,0,0,1.2.22,2.88,2.88,0,0,0,.63-.07,1.27,1.27,0,0,0,.44-.18.7.7,0,0,0,.27-.27.63.63,0,0,0,.09-.33.74.74,0,0,0-.14-.44,1.52,1.52,0,0,0-.39-.36,4.84,4.84,0,0,0-.57-.32L452,218a3.56,3.56,0,0,1-1.47-1,2.19,2.19,0,0,1-.49-1.43,2.25,2.25,0,0,1,.27-1.13,2.12,2.12,0,0,1,.72-.77,2.93,2.93,0,0,1,1.05-.45,5.18,5.18,0,0,1,1.26-.14,8.17,8.17,0,0,1,1.17.07,5.05,5.05,0,0,1,.93.25v1.75a2.9,2.9,0,0,0-.46-.26,4.4,4.4,0,0,0-.51-.18,3.33,3.33,0,0,0-.53-.11,4.22,4.22,0,0,0-.49,0,2.68,2.68,0,0,0-.59.06,1.62,1.62,0,0,0-.44.18.78.78,0,0,0-.28.26.62.62,0,0,0-.1.35.63.63,0,0,0,.11.38,1.33,1.33,0,0,0,.31.32,4.43,4.43,0,0,0,.5.29l.66.3a8.62,8.62,0,0,1,.91.44,3.18,3.18,0,0,1,.69.54,2.15,2.15,0,0,1,.44.68,2.5,2.5,0,0,1,.15.9,2.37,2.37,0,0,1-.27,1.18,2.13,2.13,0,0,1-.72.77,3.15,3.15,0,0,1-1.06.43,6.62,6.62,0,0,1-1.28.12,7.06,7.06,0,0,1-1.32-.11A4.28,4.28,0,0,1,450.12,221.26Z" fill="#1e1e1e"/>
        <path d="M462.45,219.11h-3.91c.06.87.61,1.3,1.64,1.3a3.15,3.15,0,0,0,1.74-.47v1.34a4.51,4.51,0,0,1-2.16.44,3,3,0,0,1-2.26-.8,3.08,3.08,0,0,1-.8-2.25,3.23,3.23,0,0,1,.87-2.37,2.9,2.9,0,0,1,2.13-.87,2.62,2.62,0,0,1,2,.78,3,3,0,0,1,.72,2.12ZM460.73,218c0-.86-.34-1.29-1-1.29a1,1,0,0,0-.77.37,1.65,1.65,0,0,0-.4.92Z" fill="#1e1e1e"/>
        <path d="M467.54,217.25a1.61,1.61,0,0,0-.78-.18,1.11,1.11,0,0,0-.94.44,1.9,1.9,0,0,0-.34,1.2v2.87h-1.85v-6h1.85v1.11h0a1.61,1.61,0,0,1,1.59-1.22,1.32,1.32,0,0,1,.45.07Z" fill="#1e1e1e"/>
        <path d="M474.49,215.58l-2.23,6h-2.11l-2.13-6h2l1.05,3.7a5.82,5.82,0,0,1,.2,1.06h0a5.87,5.87,0,0,1,.21-1l1.07-3.73Z" fill="#1e1e1e"/>
        <path d="M480.49,219.11h-3.91c.06.87.61,1.3,1.64,1.3a3.15,3.15,0,0,0,1.74-.47v1.34a4.51,4.51,0,0,1-2.16.44,3,3,0,0,1-2.25-.8,3,3,0,0,1-.81-2.25,3.23,3.23,0,0,1,.87-2.37,2.9,2.9,0,0,1,2.13-.87,2.6,2.6,0,0,1,2,.78,3,3,0,0,1,.72,2.12ZM478.78,218q0-1.29-1-1.29a1,1,0,0,0-.77.37,1.64,1.64,0,0,0-.39.92Z" fill="#1e1e1e"/>
        <path d="M485.58,217.25a1.61,1.61,0,0,0-.78-.18,1.11,1.11,0,0,0-.94.44,1.9,1.9,0,0,0-.34,1.2v2.87h-1.85v-6h1.85v1.11h0a1.62,1.62,0,0,1,1.59-1.22,1.32,1.32,0,0,1,.45.07Z" fill="#1e1e1e"/>
        <path d="M489.66,221.3v-1.61a3.26,3.26,0,0,0,2,.62,1.76,1.76,0,0,0,1.11-.31,1,1,0,0,0,.39-.85,1,1,0,0,0-.49-.86,2.44,2.44,0,0,0-1.34-.31h-.78v-1.42h.72c1.09,0,1.64-.36,1.64-1.09s-.42-1-1.26-1A2.89,2.89,0,0,0,490,215v-1.51A4.49,4.49,0,0,1,492,213a3.1,3.1,0,0,1,2,.58,1.82,1.82,0,0,1,.72,1.5,2,2,0,0,1-1.67,2.06v0a2.27,2.27,0,0,1,1.4.65,1.82,1.82,0,0,1,.52,1.32,2.27,2.27,0,0,1-.86,1.86,3.72,3.72,0,0,1-2.38.68A4.62,4.62,0,0,1,489.66,221.3Z" fill="#1e1e1e"/>
      </g>
    </g>
  </g>
</svg>
