<svg xmlns="http://www.w3.org/2000/svg" xmlns:xlink="http://www.w3.org/1999/xlink" viewBox="0 0 415.33 150">
  <defs>
    <linearGradient id="linear-gradient" x1="272.88" y1="564.86" x2="272.88" y2="518.66" gradientTransform="matrix(1, 0, 0, -1, 0, 584)" gradientUnits="userSpaceOnUse">
      <stop offset="0" stop-color="#b3b2b3"/>
      <stop offset="0.38" stop-color="#afaeaf"/>
      <stop offset="0.76" stop-color="#a2a2a2"/>
      <stop offset="1" stop-color="#979797"/>
    </linearGradient>
    <linearGradient id="linear-gradient-2" x1="363.09" y1="564.86" x2="363.09" y2="518.66" xlink:href="#linear-gradient"/>
    <linearGradient id="linear-gradient-3" x1="35.65" y1="18.27" x2="62.64" y2="65.01" gradientUnits="userSpaceOnUse">
      <stop offset="0" stop-color="#5ea0ef"/>
      <stop offset="0.07" stop-color="#64a4f0" stop-opacity="0.98"/>
      <stop offset="0.14" stop-color="#77aff1" stop-opacity="0.92"/>
      <stop offset="0.22" stop-color="#96c1f5" stop-opacity="0.83"/>
      <stop offset="0.3" stop-color="#c2dbf9" stop-opacity="0.69"/>
      <stop offset="0.38" stop-color="#f9fcfe" stop-opacity="0.52"/>
      <stop offset="0.39" stop-color="#fff" stop-opacity="0.5"/>
      <stop offset="0.43" stop-color="#deedf9" stop-opacity="0.57"/>
      <stop offset="0.55" stop-color="#8ec3ec" stop-opacity="0.72"/>
      <stop offset="0.67" stop-color="#50a2e2" stop-opacity="0.84"/>
      <stop offset="0.79" stop-color="#248bda" stop-opacity="0.93"/>
      <stop offset="0.9" stop-color="#097dd6" stop-opacity="0.98"/>
      <stop offset="1" stop-color="#0078d4"/>
    </linearGradient>
    <linearGradient id="linear-gradient-4" x1="128.68" y1="18.27" x2="155.66" y2="65.01" xlink:href="#linear-gradient-3"/>
    <linearGradient id="linear-gradient-5" x1="10.25" y1="469.59" x2="51.71" y2="493.53" gradientTransform="matrix(1, 0, 0, -1, 0, 584)" gradientUnits="userSpaceOnUse">
      <stop offset="0" stop-color="#999"/>
      <stop offset="0.57" stop-color="#767676"/>
      <stop offset="1" stop-color="#767676"/>
    </linearGradient>
    <linearGradient id="linear-gradient-6" x1="19.41" y1="85.14" x2="19.41" y2="82.08" gradientUnits="userSpaceOnUse">
      <stop offset="0" stop-color="#212121"/>
      <stop offset="0.57" stop-color="#212121"/>
      <stop offset="0.76" stop-color="#2a2a2a"/>
      <stop offset="1" stop-color="#3b3b3b"/>
    </linearGradient>
    <linearGradient id="linear-gradient-7" x1="41.68" y1="85.14" x2="41.68" y2="82.08" xlink:href="#linear-gradient-6"/>
    <linearGradient id="linear-gradient-8" x1="19.41" y1="123.32" x2="19.41" y2="120.27" xlink:href="#linear-gradient-6"/>
    <linearGradient id="linear-gradient-9" x1="41.68" y1="123.32" x2="41.68" y2="120.27" xlink:href="#linear-gradient-6"/>
    <linearGradient id="linear-gradient-10" x1="20.99" y1="116.66" x2="36.23" y2="90.27" gradientUnits="userSpaceOnUse">
      <stop offset="0" stop-color="#3b3b3b"/>
      <stop offset="0.24" stop-color="#2a2a2a"/>
      <stop offset="0.43" stop-color="#212121"/>
      <stop offset="1" stop-color="#212121"/>
    </linearGradient>
    <linearGradient id="linear-gradient-11" x1="46.4" y1="469.59" x2="87.86" y2="493.53" xlink:href="#linear-gradient-5"/>
    <linearGradient id="linear-gradient-12" x1="55.56" y1="85.14" x2="55.56" y2="82.08" xlink:href="#linear-gradient-6"/>
    <linearGradient id="linear-gradient-13" x1="77.83" y1="85.14" x2="77.83" y2="82.08" xlink:href="#linear-gradient-6"/>
    <linearGradient id="linear-gradient-14" x1="55.56" y1="123.32" x2="55.56" y2="120.27" xlink:href="#linear-gradient-6"/>
    <linearGradient id="linear-gradient-15" x1="77.83" y1="123.32" x2="77.83" y2="120.27" xlink:href="#linear-gradient-6"/>
    <linearGradient id="linear-gradient-16" x1="57.14" y1="116.66" x2="72.38" y2="90.27" xlink:href="#linear-gradient-10"/>
    <linearGradient id="linear-gradient-17" x1="103.37" y1="469.59" x2="144.82" y2="493.53" xlink:href="#linear-gradient-5"/>
    <linearGradient id="linear-gradient-18" x1="112.53" y1="85.14" x2="112.53" y2="82.08" xlink:href="#linear-gradient-6"/>
    <linearGradient id="linear-gradient-19" x1="134.8" y1="85.14" x2="134.8" y2="82.08" xlink:href="#linear-gradient-6"/>
    <linearGradient id="linear-gradient-20" x1="112.53" y1="123.32" x2="112.53" y2="120.27" xlink:href="#linear-gradient-6"/>
    <linearGradient id="linear-gradient-21" x1="134.8" y1="123.32" x2="134.8" y2="120.27" xlink:href="#linear-gradient-6"/>
    <linearGradient id="linear-gradient-22" x1="114.1" y1="116.66" x2="129.34" y2="90.27" xlink:href="#linear-gradient-10"/>
    <linearGradient id="linear-gradient-23" x1="139.51" y1="469.59" x2="180.97" y2="493.53" xlink:href="#linear-gradient-5"/>
    <linearGradient id="linear-gradient-24" x1="148.67" y1="85.14" x2="148.67" y2="82.08" xlink:href="#linear-gradient-6"/>
    <linearGradient id="linear-gradient-25" x1="170.95" y1="85.14" x2="170.95" y2="82.08" xlink:href="#linear-gradient-6"/>
    <linearGradient id="linear-gradient-26" x1="148.67" y1="123.32" x2="148.67" y2="120.27" xlink:href="#linear-gradient-6"/>
    <linearGradient id="linear-gradient-27" x1="170.95" y1="123.32" x2="170.95" y2="120.27" xlink:href="#linear-gradient-6"/>
    <linearGradient id="linear-gradient-28" x1="150.25" y1="116.66" x2="165.49" y2="90.27" xlink:href="#linear-gradient-10"/>
    <linearGradient id="linear-gradient-29" x1="234.3" y1="469.59" x2="275.75" y2="493.53" xlink:href="#linear-gradient-5"/>
    <linearGradient id="linear-gradient-30" x1="243.46" y1="85.14" x2="243.46" y2="82.08" xlink:href="#linear-gradient-6"/>
    <linearGradient id="linear-gradient-31" x1="265.73" y1="85.14" x2="265.73" y2="82.08" xlink:href="#linear-gradient-6"/>
    <linearGradient id="linear-gradient-32" x1="243.46" y1="123.32" x2="243.46" y2="120.27" xlink:href="#linear-gradient-6"/>
    <linearGradient id="linear-gradient-33" x1="265.73" y1="123.32" x2="265.73" y2="120.27" xlink:href="#linear-gradient-6"/>
    <linearGradient id="linear-gradient-34" x1="245.03" y1="116.66" x2="260.27" y2="90.27" xlink:href="#linear-gradient-10"/>
    <linearGradient id="linear-gradient-35" x1="270.44" y1="469.59" x2="311.9" y2="493.53" xlink:href="#linear-gradient-5"/>
    <linearGradient id="linear-gradient-36" x1="279.6" y1="85.14" x2="279.6" y2="82.08" xlink:href="#linear-gradient-6"/>
    <linearGradient id="linear-gradient-37" x1="301.88" y1="85.14" x2="301.88" y2="82.08" xlink:href="#linear-gradient-6"/>
    <linearGradient id="linear-gradient-38" x1="279.6" y1="123.32" x2="279.6" y2="120.27" xlink:href="#linear-gradient-6"/>
    <linearGradient id="linear-gradient-39" x1="301.88" y1="123.32" x2="301.88" y2="120.27" xlink:href="#linear-gradient-6"/>
    <linearGradient id="linear-gradient-40" x1="281.18" y1="116.66" x2="296.42" y2="90.27" xlink:href="#linear-gradient-10"/>
    <linearGradient id="linear-gradient-41" x1="325.41" y1="469.59" x2="366.87" y2="493.53" xlink:href="#linear-gradient-5"/>
    <linearGradient id="linear-gradient-42" x1="334.57" y1="85.14" x2="334.57" y2="82.08" xlink:href="#linear-gradient-6"/>
    <linearGradient id="linear-gradient-43" x1="356.84" y1="85.14" x2="356.84" y2="82.08" xlink:href="#linear-gradient-6"/>
    <linearGradient id="linear-gradient-44" x1="334.57" y1="123.32" x2="334.57" y2="120.27" xlink:href="#linear-gradient-6"/>
    <linearGradient id="linear-gradient-45" x1="356.84" y1="123.32" x2="356.84" y2="120.27" xlink:href="#linear-gradient-6"/>
    <linearGradient id="linear-gradient-46" x1="336.15" y1="116.66" x2="351.39" y2="90.27" xlink:href="#linear-gradient-10"/>
    <linearGradient id="linear-gradient-47" x1="361.56" y1="469.59" x2="403.02" y2="493.53" xlink:href="#linear-gradient-5"/>
    <linearGradient id="linear-gradient-48" x1="370.72" y1="85.14" x2="370.72" y2="82.08" xlink:href="#linear-gradient-6"/>
    <linearGradient id="linear-gradient-49" x1="392.99" y1="85.14" x2="392.99" y2="82.08" xlink:href="#linear-gradient-6"/>
    <linearGradient id="linear-gradient-50" x1="370.72" y1="123.32" x2="370.72" y2="120.27" xlink:href="#linear-gradient-6"/>
    <linearGradient id="linear-gradient-51" x1="392.99" y1="123.32" x2="392.99" y2="120.27" xlink:href="#linear-gradient-6"/>
    <linearGradient id="linear-gradient-52" x1="372.3" y1="116.66" x2="387.54" y2="90.27" xlink:href="#linear-gradient-10"/>
  </defs>
  <g style="isolation: isolate">
    <g id="Shapes">
      <rect width="415.33" height="150" fill="#fff"/>
      <path d="M255.21,80.46V76.4c0-2.23,2.25-4.06,5-4.06h26c2.75,0,5,1.83,5,4.06v4.06" fill="none" stroke="#3c3c41" stroke-miterlimit="10"/>
      <line x1="273.19" y1="72.34" x2="273.19" y2="64.14" fill="none" stroke="#3c3c41" stroke-miterlimit="10"/>
      <path d="M346.23,80.46V76.4c0-2.23,2.25-4.06,5-4.06h26c2.75,0,5,1.83,5,4.06v4.06" fill="none" stroke="#3c3c41" stroke-miterlimit="10"/>
      <path d="M31.17,80.46V76.4c0-2.23,2.25-4.06,5-4.06h26c2.75,0,5,1.83,5,4.06v4.06" fill="none" stroke="#3c3c41" stroke-miterlimit="10"/>
      <line x1="49.15" y1="72.34" x2="49.15" y2="64.14" fill="none" stroke="#3c3c41" stroke-miterlimit="10"/>
      <path d="M124.19,80.46V76.4c0-2.23,2.25-4.06,5-4.06h26c2.75,0,5,1.83,5,4.06v4.06" fill="none" stroke="#3c3c41" stroke-miterlimit="10"/>
      <line x1="142.17" y1="72.34" x2="142.17" y2="64.14" fill="none" stroke="#3c3c41" stroke-miterlimit="10"/>
      <g>
        <path d="M287.88,63.77a1.66,1.66,0,0,1-1.72,1.57H259.61a1.67,1.67,0,0,1-1.73-1.57V20.71a1.67,1.67,0,0,1,1.73-1.57h26.55a1.66,1.66,0,0,1,1.72,1.57Z" fill="url(#linear-gradient)"/>
        <circle cx="261.32" cy="23.41" r="1.53" fill="#fff"/>
        <circle cx="283.59" cy="23.41" r="1.53" fill="#fff"/>
        <circle cx="261.32" cy="61.59" r="1.53" fill="#fff"/>
        <circle cx="283.59" cy="61.59" r="1.53" fill="#fff"/>
      </g>
      <g>
        <path d="M378.09,63.77a1.66,1.66,0,0,1-1.72,1.57H349.82a1.67,1.67,0,0,1-1.73-1.57V20.71a1.67,1.67,0,0,1,1.73-1.57h26.55a1.66,1.66,0,0,1,1.72,1.57Z" fill="url(#linear-gradient-2)"/>
        <circle cx="351.53" cy="23.41" r="1.53" fill="#fff"/>
        <circle cx="373.8" cy="23.41" r="1.53" fill="#fff"/>
        <circle cx="351.53" cy="61.59" r="1.53" fill="#fff"/>
        <circle cx="373.8" cy="61.59" r="1.53" fill="#fff"/>
      </g>
      <g>
        <g opacity="0.75" style="mix-blend-mode: multiply">
          <rect x="35.15" y="20.14" width="30" height="45" fill="#737373"/>
          <rect x="35.15" y="20.14" width="30" height="45" fill="#737373" opacity="0.8"/>
        </g>
        <g>
          <rect x="34.15" y="19.14" width="30" height="45" fill="#e6e6e6"/>
          <rect x="34.15" y="19.14" width="30" height="45" opacity="0.8" fill="url(#linear-gradient-3)"/>
        </g>
      </g>
      <g>
        <g opacity="0.75" style="mix-blend-mode: multiply">
          <rect x="128.17" y="20.14" width="30" height="45" fill="#737373"/>
          <rect x="128.17" y="20.14" width="30" height="45" fill="#737373" opacity="0.8"/>
        </g>
        <g>
          <rect x="127.17" y="19.14" width="30" height="45" fill="#e6e6e6"/>
          <rect x="127.17" y="19.14" width="30" height="45" opacity="0.8" fill="url(#linear-gradient-4)"/>
        </g>
      </g>
      <g>
        <g>
          <path d="M46,124a1.66,1.66,0,0,1-1.73,1.57H17.71A1.66,1.66,0,0,1,16,124V80.91a1.66,1.66,0,0,1,1.73-1.57H44.25A1.66,1.66,0,0,1,46,80.91Z" fill-opacity="0.8" fill="url(#linear-gradient-5)"/>
          <circle cx="19.41" cy="83.61" r="1.53" fill="url(#linear-gradient-6)"/>
          <circle cx="41.68" cy="83.61" r="1.53" fill="url(#linear-gradient-7)"/>
          <circle cx="19.41" cy="121.79" r="1.53" fill="url(#linear-gradient-8)"/>
          <circle cx="41.68" cy="121.79" r="1.53" fill="url(#linear-gradient-9)"/>
        </g>
        <path d="M31,97a2.27,2.27,0,0,1,.91.18,2.49,2.49,0,0,1,.73.5,2.32,2.32,0,0,1,.51.74,1.93,1.93,0,0,1,.18.91,2.32,2.32,0,0,1-.18.92,2.29,2.29,0,0,1-.49.73,2.91,2.91,0,0,1-.75.51,2,2,0,0,1-.91.18,2.27,2.27,0,0,1-.91-.18,2.49,2.49,0,0,1-.73-.5,2.32,2.32,0,0,1-.51-.74,2,2,0,0,1-.18-.92,2.3,2.3,0,0,1,.67-1.64,2.91,2.91,0,0,1,.75-.51A2,2,0,0,1,31,97Zm0-8.17a10.32,10.32,0,0,1,4.08.82A10.46,10.46,0,0,1,38.4,92a10.85,10.85,0,0,1,2.24,3.33,10.34,10.34,0,0,1,.84,4.08,10.51,10.51,0,0,1-.33,2.65,10,10,0,0,1-1,2.4,10.87,10.87,0,0,1-5.82,4.85,9.83,9.83,0,0,1-2.62.53l-3.85,6.49a1.4,1.4,0,0,1-.42.42,1,1,0,0,1-.58.16H21.65a1.11,1.11,0,0,1-.82-.34,1.14,1.14,0,0,1-.35-.82v-5.25a1,1,0,0,1,.16-.57,1.56,1.56,0,0,1,.42-.43l3.32-2a10.72,10.72,0,0,1-2.86-3.61,10.33,10.33,0,0,1-1-4.51,10.22,10.22,0,0,1,.82-4.08A10.39,10.39,0,0,1,23.56,92,10.8,10.8,0,0,1,26.9,89.7,10.62,10.62,0,0,1,31,88.86Zm.18,17.32-8.35,4.92v3.43h3.43Zm2.14,1A8.35,8.35,0,0,0,35.67,106a8,8,0,0,0,1.84-1.79,8.6,8.6,0,0,0,1.2-2.26,7.69,7.69,0,0,0,.44-2.61,8,8,0,0,0-.64-3.17,8.52,8.52,0,0,0-1.75-2.59,8.4,8.4,0,0,0-2.59-1.75A8.22,8.22,0,0,0,31,91.2a7.81,7.81,0,0,0-3.17.64,8,8,0,0,0-2.59,1.75,8.35,8.35,0,0,0-1.75,2.58,8.27,8.27,0,0,0-.66,3.19,8.07,8.07,0,0,0,.26,2,8.27,8.27,0,0,0,.73,1.86A7.62,7.62,0,0,0,25,104.87a10.28,10.28,0,0,0,1.55,1.33l7.35-4.34a1.12,1.12,0,0,1,.6-.16,1.11,1.11,0,0,1,.82.34,1.15,1.15,0,0,1,.35.82,1.19,1.19,0,0,1-.17.61Z" fill="url(#linear-gradient-10)"/>
      </g>
      <g>
        <g>
          <path d="M82.13,124a1.66,1.66,0,0,1-1.73,1.57H53.86A1.66,1.66,0,0,1,52.13,124V80.91a1.66,1.66,0,0,1,1.73-1.57H80.4a1.66,1.66,0,0,1,1.73,1.57Z" fill-opacity="0.8" fill="url(#linear-gradient-11)"/>
          <circle cx="55.56" cy="83.61" r="1.53" fill="url(#linear-gradient-12)"/>
          <circle cx="77.83" cy="83.61" r="1.53" fill="url(#linear-gradient-13)"/>
          <circle cx="55.56" cy="121.79" r="1.53" fill="url(#linear-gradient-14)"/>
          <circle cx="77.83" cy="121.79" r="1.53" fill="url(#linear-gradient-15)"/>
        </g>
        <path d="M67.13,97a2.27,2.27,0,0,1,.91.18,2.49,2.49,0,0,1,.73.5,2.32,2.32,0,0,1,.51.74,2.06,2.06,0,0,1,.18.91,2.32,2.32,0,0,1-.18.92,2.46,2.46,0,0,1-.49.73,2.91,2.91,0,0,1-.75.51,2.06,2.06,0,0,1-.91.18,2.27,2.27,0,0,1-.91-.18,2.37,2.37,0,0,1-.73-.5,2.32,2.32,0,0,1-.51-.74,2,2,0,0,1-.19-.92,2.32,2.32,0,0,1,.19-.91,2.29,2.29,0,0,1,.49-.73,2.75,2.75,0,0,1,.75-.51A2,2,0,0,1,67.13,97Zm0-8.17A10.35,10.35,0,0,1,74.55,92a10.85,10.85,0,0,1,2.24,3.33,10.34,10.34,0,0,1,.84,4.08A10.51,10.51,0,0,1,77.3,102a9.66,9.66,0,0,1-1,2.4,10.51,10.51,0,0,1-3.48,3.7,10.75,10.75,0,0,1-2.33,1.15,9.83,9.83,0,0,1-2.63.53l-3.84,6.49a1.4,1.4,0,0,1-.42.42,1.07,1.07,0,0,1-.59.16H57.79a1.14,1.14,0,0,1-.82-.34,1.13,1.13,0,0,1-.34-.82v-5.25a1,1,0,0,1,.16-.57,1.56,1.56,0,0,1,.42-.43l3.32-2a10.72,10.72,0,0,1-2.86-3.61,10.33,10.33,0,0,1-1-4.51,10.22,10.22,0,0,1,.82-4.08A10.39,10.39,0,0,1,59.71,92,10.87,10.87,0,0,1,63,89.7,10.71,10.71,0,0,1,67.13,88.86Zm.18,17.32L59,111.1v3.43h3.43Zm2.13,1A8.1,8.1,0,0,0,71.81,106a7.82,7.82,0,0,0,1.84-1.79A8.63,8.63,0,0,0,74.86,102a7.68,7.68,0,0,0,.43-2.61,8,8,0,0,0-.63-3.17,8.52,8.52,0,0,0-1.75-2.59,8.4,8.4,0,0,0-2.59-1.75,8.26,8.26,0,0,0-3.19-.65,7.81,7.81,0,0,0-3.17.64,8,8,0,0,0-2.59,1.75,8.18,8.18,0,0,0-1.75,2.58,8,8,0,0,0-.4,5.22,8.27,8.27,0,0,0,.73,1.86,7.62,7.62,0,0,0,1.18,1.62,9.81,9.81,0,0,0,1.55,1.33L70,101.86a1.18,1.18,0,0,1,1.42.18,1.14,1.14,0,0,1,.34.82,1.18,1.18,0,0,1-.16.61Z" fill="url(#linear-gradient-16)"/>
      </g>
      <g>
        <g>
          <path d="M139.09,124a1.66,1.66,0,0,1-1.72,1.57H110.82a1.67,1.67,0,0,1-1.73-1.57V80.91a1.67,1.67,0,0,1,1.73-1.57h26.55a1.66,1.66,0,0,1,1.72,1.57Z" fill-opacity="0.8" fill="url(#linear-gradient-17)"/>
          <circle cx="112.53" cy="83.61" r="1.53" fill="url(#linear-gradient-18)"/>
          <circle cx="134.8" cy="83.61" r="1.53" fill="url(#linear-gradient-19)"/>
          <circle cx="112.53" cy="121.79" r="1.53" fill="url(#linear-gradient-20)"/>
          <circle cx="134.8" cy="121.79" r="1.53" fill="url(#linear-gradient-21)"/>
        </g>
        <path d="M124.09,97a2.32,2.32,0,0,1,.92.18,2.49,2.49,0,0,1,.73.5,2.7,2.7,0,0,1,.51.74,2.06,2.06,0,0,1,.18.91,2.32,2.32,0,0,1-.18.92,2.49,2.49,0,0,1-.5.73,2.7,2.7,0,0,1-.74.51,2.1,2.1,0,0,1-.92.18,2.31,2.31,0,0,1-.91-.18,2.49,2.49,0,0,1-.73-.5,2.7,2.7,0,0,1-.51-.74,2.1,2.1,0,0,1-.18-.92,2.31,2.31,0,0,1,.18-.91,2.49,2.49,0,0,1,.5-.73,2.7,2.7,0,0,1,.74-.51A2.06,2.06,0,0,1,124.09,97Zm0-8.17A10.31,10.31,0,0,1,131.51,92a10.87,10.87,0,0,1,2.25,3.33,10.7,10.7,0,0,1,.51,6.73,9.66,9.66,0,0,1-1,2.4,10.31,10.31,0,0,1-1.51,2.06,11,11,0,0,1-4.3,2.79,9.91,9.91,0,0,1-2.63.53L121,116.28a1.4,1.4,0,0,1-.42.42,1,1,0,0,1-.58.16h-5.25a1.18,1.18,0,0,1-1.17-1.16v-5.25a1,1,0,0,1,.17-.57,1.56,1.56,0,0,1,.42-.43l3.32-2a10.75,10.75,0,0,1-2.87-3.61,10.47,10.47,0,0,1-1-4.51A10.42,10.42,0,0,1,116.68,92,10.87,10.87,0,0,1,120,89.7,10.7,10.7,0,0,1,124.09,88.86Zm.19,17.32-8.35,4.92v3.43h3.43Zm2.13,1a8.35,8.35,0,0,0,2.37-1.13,7.82,7.82,0,0,0,1.84-1.79,8.6,8.6,0,0,0,1.2-2.26,7.45,7.45,0,0,0,.44-2.61,7.84,7.84,0,0,0-.64-3.17,8.22,8.22,0,0,0-4.34-4.34,8.19,8.19,0,0,0-3.19-.65,7.84,7.84,0,0,0-3.17.64,8.17,8.17,0,0,0-2.59,1.75,8.35,8.35,0,0,0-1.75,2.58,8.26,8.26,0,0,0-.65,3.19,8.06,8.06,0,0,0,.25,2,8.77,8.77,0,0,0,.73,1.86,7.67,7.67,0,0,0,1.19,1.62,9.81,9.81,0,0,0,1.55,1.33l7.34-4.34a1.17,1.17,0,0,1,.6-.16,1.16,1.16,0,0,1,1.17,1.16,1.18,1.18,0,0,1-.16.61Z" fill="url(#linear-gradient-22)"/>
      </g>
      <g>
        <g>
          <path d="M175.24,124a1.66,1.66,0,0,1-1.73,1.57H147a1.66,1.66,0,0,1-1.73-1.57V80.91A1.66,1.66,0,0,1,147,79.34h26.54a1.66,1.66,0,0,1,1.73,1.57Z" fill-opacity="0.8" fill="url(#linear-gradient-23)"/>
          <circle cx="148.67" cy="83.61" r="1.53" fill="url(#linear-gradient-24)"/>
          <circle cx="170.95" cy="83.61" r="1.53" fill="url(#linear-gradient-25)"/>
          <circle cx="148.67" cy="121.79" r="1.53" fill="url(#linear-gradient-26)"/>
          <circle cx="170.95" cy="121.79" r="1.53" fill="url(#linear-gradient-27)"/>
        </g>
        <path d="M160.24,97a2.27,2.27,0,0,1,.91.18,2.37,2.37,0,0,1,.73.5,2.32,2.32,0,0,1,.51.74,1.94,1.94,0,0,1,.19.91,2.33,2.33,0,0,1-.19.92,2.29,2.29,0,0,1-.49.73,2.75,2.75,0,0,1-.75.51,2,2,0,0,1-.91.18,2.27,2.27,0,0,1-.91-.18,2.49,2.49,0,0,1-.73-.5,2.7,2.7,0,0,1-.51-.74,2.1,2.1,0,0,1-.18-.92,2.31,2.31,0,0,1,.18-.91,2.46,2.46,0,0,1,.49-.73,2.91,2.91,0,0,1,.75-.51A2.06,2.06,0,0,1,160.24,97Zm0-8.17a10.41,10.41,0,0,1,4.09.82A10.53,10.53,0,0,1,167.66,92a10.67,10.67,0,0,1,2.24,3.33,10.34,10.34,0,0,1,.84,4.08,10.51,10.51,0,0,1-.33,2.65,9.64,9.64,0,0,1-1,2.4,10.51,10.51,0,0,1-3.48,3.7,10.6,10.6,0,0,1-2.34,1.15,9.76,9.76,0,0,1-2.62.53l-3.85,6.49a1.4,1.4,0,0,1-.42.42,1,1,0,0,1-.58.16h-5.25a1.11,1.11,0,0,1-.82-.34,1.14,1.14,0,0,1-.35-.82v-5.25a1,1,0,0,1,.17-.57,1.56,1.56,0,0,1,.42-.43l3.31-2a10.85,10.85,0,0,1-2.86-3.61,10.38,10.38,0,0,1,2-11.92,10.92,10.92,0,0,1,3.34-2.25A10.62,10.62,0,0,1,160.24,88.86Zm.18,17.32-8.34,4.92v3.43h3.42Zm2.14,1a8.35,8.35,0,0,0,2.37-1.13,8,8,0,0,0,1.84-1.79A8.6,8.6,0,0,0,168,102a7.69,7.69,0,0,0,.44-2.61,7.84,7.84,0,0,0-.64-3.17,8.22,8.22,0,0,0-4.34-4.34,8.22,8.22,0,0,0-3.19-.65,7.81,7.81,0,0,0-3.17.64,8.06,8.06,0,0,0-2.59,1.75,8.35,8.35,0,0,0-1.75,2.58,8.26,8.26,0,0,0-.65,3.19,8.06,8.06,0,0,0,.25,2,8.27,8.27,0,0,0,.73,1.86,8,8,0,0,0,1.18,1.62,10.8,10.8,0,0,0,1.55,1.33l7.35-4.34a1.12,1.12,0,0,1,.6-.16,1.11,1.11,0,0,1,.82.34,1.15,1.15,0,0,1,.35.82,1.19,1.19,0,0,1-.17.61Z" fill="url(#linear-gradient-28)"/>
      </g>
      <line x1="364.21" y1="72.34" x2="364.21" y2="64.14" fill="none" stroke="#3c3c41" stroke-miterlimit="10"/>
      <g>
        <g>
          <path d="M270,124a1.67,1.67,0,0,1-1.73,1.57H241.75A1.66,1.66,0,0,1,240,124V80.91a1.66,1.66,0,0,1,1.72-1.57H268.3A1.67,1.67,0,0,1,270,80.91Z" fill-opacity="0.8" fill="url(#linear-gradient-29)"/>
          <circle cx="243.46" cy="83.61" r="1.53" fill="url(#linear-gradient-30)"/>
          <circle cx="265.73" cy="83.61" r="1.53" fill="url(#linear-gradient-31)"/>
          <circle cx="243.46" cy="121.79" r="1.53" fill="url(#linear-gradient-32)"/>
          <circle cx="265.73" cy="121.79" r="1.53" fill="url(#linear-gradient-33)"/>
        </g>
        <path d="M255,97a2.31,2.31,0,0,1,.91.18,2.49,2.49,0,0,1,.73.5,2.7,2.7,0,0,1,.51.74,2.06,2.06,0,0,1,.18.91,2.32,2.32,0,0,1-.18.92,2.49,2.49,0,0,1-.5.73,2.7,2.7,0,0,1-.74.51,2.09,2.09,0,0,1-.91.18,2.32,2.32,0,0,1-.92-.18,2.49,2.49,0,0,1-.73-.5,2.7,2.7,0,0,1-.51-.74,2.1,2.1,0,0,1-.18-.92,2.31,2.31,0,0,1,.18-.91,2.49,2.49,0,0,1,.5-.73,2.7,2.7,0,0,1,.74-.51A2.1,2.1,0,0,1,255,97Zm0-8.17A10.31,10.31,0,0,1,262.44,92a10.87,10.87,0,0,1,2.25,3.33,10.7,10.7,0,0,1,.84,4.08,10.51,10.51,0,0,1-.33,2.65,9.66,9.66,0,0,1-1,2.4,10.31,10.31,0,0,1-1.51,2.06,11,11,0,0,1-4.3,2.79,9.91,9.91,0,0,1-2.63.53l-3.85,6.49a1.37,1.37,0,0,1-.41.42,1.09,1.09,0,0,1-.59.16h-5.25a1.16,1.16,0,0,1-1.16-1.16v-5.25a1,1,0,0,1,.16-.57,1.56,1.56,0,0,1,.42-.43l3.32-2a10.75,10.75,0,0,1-2.87-3.61A10.4,10.4,0,0,1,247.61,92a10.87,10.87,0,0,1,3.33-2.25A10.71,10.71,0,0,1,255,88.86Zm.18,17.32-8.35,4.92v3.43h3.43Zm2.13,1a8.35,8.35,0,0,0,2.37-1.13,7.82,7.82,0,0,0,1.84-1.79,8.6,8.6,0,0,0,1.2-2.26,7.45,7.45,0,0,0,.44-2.61,7.84,7.84,0,0,0-.64-3.17,8.17,8.17,0,0,0-1.75-2.59,8.35,8.35,0,0,0-2.58-1.75A8.26,8.26,0,0,0,255,91.2a7.86,7.86,0,0,0-3.18.64,8.17,8.17,0,0,0-2.59,1.75,8.35,8.35,0,0,0-1.75,2.58,8.26,8.26,0,0,0-.65,3.19,8.06,8.06,0,0,0,.25,2,8.77,8.77,0,0,0,.73,1.86,7.67,7.67,0,0,0,1.19,1.62,9.81,9.81,0,0,0,1.55,1.33l7.34-4.34a1.18,1.18,0,0,1,.61-.16,1.16,1.16,0,0,1,1.16,1.16,1.18,1.18,0,0,1-.16.61Z" fill="url(#linear-gradient-34)"/>
      </g>
      <g>
        <g>
          <path d="M306.17,124a1.66,1.66,0,0,1-1.73,1.57H277.9a1.66,1.66,0,0,1-1.73-1.57V80.91a1.66,1.66,0,0,1,1.73-1.57h26.54a1.66,1.66,0,0,1,1.73,1.57Z" fill-opacity="0.8" fill="url(#linear-gradient-35)"/>
          <circle cx="279.6" cy="83.61" r="1.53" fill="url(#linear-gradient-36)"/>
          <circle cx="301.88" cy="83.61" r="1.53" fill="url(#linear-gradient-37)"/>
          <circle cx="279.6" cy="121.79" r="1.53" fill="url(#linear-gradient-38)"/>
          <circle cx="301.88" cy="121.79" r="1.53" fill="url(#linear-gradient-39)"/>
        </g>
        <path d="M291.17,97a2.27,2.27,0,0,1,.91.18,2.37,2.37,0,0,1,.73.5,2.32,2.32,0,0,1,.51.74,1.94,1.94,0,0,1,.19.91,2.17,2.17,0,0,1-.19.92,2.29,2.29,0,0,1-.49.73,2.75,2.75,0,0,1-.75.51,2,2,0,0,1-.91.18,2.27,2.27,0,0,1-.91-.18,2.49,2.49,0,0,1-.73-.5,2.7,2.7,0,0,1-.51-.74,2.1,2.1,0,0,1-.18-.92,2.31,2.31,0,0,1,.18-.91,2.46,2.46,0,0,1,.49-.73,2.91,2.91,0,0,1,.75-.51A2.06,2.06,0,0,1,291.17,97Zm0-8.17a10.41,10.41,0,0,1,4.09.82A10.53,10.53,0,0,1,298.59,92a10.67,10.67,0,0,1,2.24,3.33,10.34,10.34,0,0,1,.84,4.08,10.51,10.51,0,0,1-.33,2.65,9.64,9.64,0,0,1-1,2.4,10.51,10.51,0,0,1-3.48,3.7,10.6,10.6,0,0,1-2.34,1.15,9.76,9.76,0,0,1-2.62.53l-3.85,6.49a1.4,1.4,0,0,1-.42.42,1,1,0,0,1-.58.16h-5.25a1.11,1.11,0,0,1-.82-.34,1.14,1.14,0,0,1-.35-.82v-5.25a1,1,0,0,1,.17-.57,1.56,1.56,0,0,1,.42-.43l3.31-2a10.85,10.85,0,0,1-2.86-3.61,10.38,10.38,0,0,1,2-11.92,10.92,10.92,0,0,1,3.34-2.25A10.62,10.62,0,0,1,291.17,88.86Zm.18,17.32L283,111.1v3.43h3.42Zm2.14,1a8.35,8.35,0,0,0,2.37-1.13,8,8,0,0,0,1.84-1.79,8.6,8.6,0,0,0,1.2-2.26,7.69,7.69,0,0,0,.44-2.61,7.84,7.84,0,0,0-.64-3.17,8.22,8.22,0,0,0-4.34-4.34,8.22,8.22,0,0,0-3.19-.65,7.84,7.84,0,0,0-3.17.64,8.06,8.06,0,0,0-2.59,1.75,8.35,8.35,0,0,0-1.75,2.58,8.26,8.26,0,0,0-.65,3.19,8.06,8.06,0,0,0,.25,2,8.27,8.27,0,0,0,.73,1.86,7.67,7.67,0,0,0,1.19,1.62,10.21,10.21,0,0,0,1.54,1.33l7.35-4.34a1.12,1.12,0,0,1,.6-.16,1.11,1.11,0,0,1,.82.34,1.15,1.15,0,0,1,.35.82,1.29,1.29,0,0,1-.16.61Z" fill="url(#linear-gradient-40)"/>
      </g>
      <g>
        <g>
          <path d="M361.14,124a1.66,1.66,0,0,1-1.73,1.57H332.87a1.66,1.66,0,0,1-1.73-1.57V80.91a1.66,1.66,0,0,1,1.73-1.57h26.54a1.66,1.66,0,0,1,1.73,1.57Z" fill-opacity="0.8" fill="url(#linear-gradient-41)"/>
          <circle cx="334.57" cy="83.61" r="1.53" fill="url(#linear-gradient-42)"/>
          <circle cx="356.84" cy="83.61" r="1.53" fill="url(#linear-gradient-43)"/>
          <circle cx="334.57" cy="121.79" r="1.53" fill="url(#linear-gradient-44)"/>
          <circle cx="356.84" cy="121.79" r="1.53" fill="url(#linear-gradient-45)"/>
        </g>
        <path d="M346.14,97a2.27,2.27,0,0,1,.91.18,2.49,2.49,0,0,1,.73.5,2.32,2.32,0,0,1,.51.74,1.93,1.93,0,0,1,.18.91,2.32,2.32,0,0,1-.18.92,2.29,2.29,0,0,1-.49.73,2.91,2.91,0,0,1-.75.51,2,2,0,0,1-.91.18,2.27,2.27,0,0,1-.91-.18,2.49,2.49,0,0,1-.73-.5,2.32,2.32,0,0,1-.51-.74,1.85,1.85,0,0,1-.18-.92,2.3,2.3,0,0,1,.67-1.64,2.91,2.91,0,0,1,.75-.51A2,2,0,0,1,346.14,97Zm0-8.17a10.32,10.32,0,0,1,4.08.82A10.46,10.46,0,0,1,353.56,92a10.85,10.85,0,0,1,2.24,3.33,10.34,10.34,0,0,1,.84,4.08,10.51,10.51,0,0,1-.33,2.65,10,10,0,0,1-1,2.4,10.66,10.66,0,0,1-3.49,3.7,10.53,10.53,0,0,1-2.33,1.15,9.83,9.83,0,0,1-2.62.53l-3.85,6.49a1.4,1.4,0,0,1-.42.42,1,1,0,0,1-.58.16h-5.25a1.11,1.11,0,0,1-.82-.34,1.14,1.14,0,0,1-.35-.82v-5.25a1,1,0,0,1,.16-.57,1.56,1.56,0,0,1,.42-.43l3.32-2a10.72,10.72,0,0,1-2.86-3.61,10.33,10.33,0,0,1-1-4.51,10.22,10.22,0,0,1,.82-4.08A10.39,10.39,0,0,1,338.72,92a10.8,10.8,0,0,1,3.34-2.25A10.62,10.62,0,0,1,346.14,88.86Zm.18,17.32L338,111.1v3.43h3.43Zm2.13,1a8.1,8.1,0,0,0,2.37-1.13,7.87,7.87,0,0,0,1.85-1.79,8.6,8.6,0,0,0,1.2-2.26,7.69,7.69,0,0,0,.44-2.61,8,8,0,0,0-.64-3.17,8.52,8.52,0,0,0-1.75-2.59,8.4,8.4,0,0,0-2.59-1.75,8.22,8.22,0,0,0-3.19-.65,7.81,7.81,0,0,0-3.17.64,8,8,0,0,0-2.59,1.75,8.18,8.18,0,0,0-1.75,2.58,8.27,8.27,0,0,0-.66,3.19,8.07,8.07,0,0,0,.26,2,8.27,8.27,0,0,0,.73,1.86,7.62,7.62,0,0,0,1.18,1.62,10.28,10.28,0,0,0,1.55,1.33l7.35-4.34a1.12,1.12,0,0,1,.6-.16,1.11,1.11,0,0,1,.82.34,1.15,1.15,0,0,1,.35.82,1.19,1.19,0,0,1-.17.61Z" fill="url(#linear-gradient-46)"/>
      </g>
      <g>
        <g>
          <path d="M397.29,124a1.66,1.66,0,0,1-1.73,1.57H369a1.66,1.66,0,0,1-1.73-1.57V80.91A1.66,1.66,0,0,1,369,79.34h26.54a1.66,1.66,0,0,1,1.73,1.57Z" fill-opacity="0.8" fill="url(#linear-gradient-47)"/>
          <circle cx="370.72" cy="83.61" r="1.53" fill="url(#linear-gradient-48)"/>
          <circle cx="392.99" cy="83.61" r="1.53" fill="url(#linear-gradient-49)"/>
          <circle cx="370.72" cy="121.79" r="1.53" fill="url(#linear-gradient-50)"/>
          <circle cx="392.99" cy="121.79" r="1.53" fill="url(#linear-gradient-51)"/>
        </g>
        <path d="M382.29,97a2.27,2.27,0,0,1,.91.18,2.49,2.49,0,0,1,.73.5,2.7,2.7,0,0,1,.51.74,2.06,2.06,0,0,1,.18.91,2.32,2.32,0,0,1-.18.92,2.46,2.46,0,0,1-.49.73,2.91,2.91,0,0,1-.75.51,2.06,2.06,0,0,1-.91.18,2.27,2.27,0,0,1-.91-.18,2.37,2.37,0,0,1-.73-.5,2.32,2.32,0,0,1-.51-.74,2,2,0,0,1-.19-.92,2.15,2.15,0,0,1,.19-.91,2.29,2.29,0,0,1,.49-.73,2.61,2.61,0,0,1,.75-.51A2,2,0,0,1,382.29,97Zm0-8.17A10.35,10.35,0,0,1,389.71,92,11,11,0,0,1,392,95.28a10.34,10.34,0,0,1,.84,4.08,10.51,10.51,0,0,1-.33,2.65,9.66,9.66,0,0,1-1,2.4,10.51,10.51,0,0,1-3.48,3.7,10.75,10.75,0,0,1-2.33,1.15,9.83,9.83,0,0,1-2.63.53l-3.84,6.49a1.4,1.4,0,0,1-.42.42,1.07,1.07,0,0,1-.59.16H373a1.16,1.16,0,0,1-1.16-1.16v-5.25a1,1,0,0,1,.16-.57,1.56,1.56,0,0,1,.42-.43l3.32-2a10.72,10.72,0,0,1-2.86-3.61,10.33,10.33,0,0,1-1-4.51A10.35,10.35,0,0,1,374.87,92a10.87,10.87,0,0,1,3.33-2.25A10.71,10.71,0,0,1,382.29,88.86Zm.18,17.32-8.35,4.92v3.43h3.43Zm2.13,1A8.1,8.1,0,0,0,387,106a7.82,7.82,0,0,0,1.84-1.79A8.93,8.93,0,0,0,390,102a7.68,7.68,0,0,0,.43-2.61,8,8,0,0,0-.63-3.17,8.22,8.22,0,0,0-4.34-4.34,8.26,8.26,0,0,0-3.19-.65,7.81,7.81,0,0,0-3.17.64,8,8,0,0,0-2.59,1.75,8.18,8.18,0,0,0-1.75,2.58,8,8,0,0,0-.4,5.22,8.74,8.74,0,0,0,.72,1.86,8,8,0,0,0,1.19,1.62,9.81,9.81,0,0,0,1.55,1.33l7.35-4.34a1.18,1.18,0,0,1,1.42.18,1.14,1.14,0,0,1,.34.82,1.18,1.18,0,0,1-.16.61Z" fill="url(#linear-gradient-52)"/>
      </g>
    </g>
    <g id="Text">
      <g>
        <path d="M13.73,143.71H12.52L8.2,137a2.65,2.65,0,0,1-.27-.53h0a9.48,9.48,0,0,1,0,1.16v6.07H7v-8.4H8.24l4.2,6.59a5.88,5.88,0,0,1,.34.56h0a8.58,8.58,0,0,1-.06-1.23v-5.92h1Z" fill="#1e1e1e"/>
        <path d="M22.18,135.31l-3.11,8.4H18l-3-8.4H16L18.36,142a3.51,3.51,0,0,1,.17.74h0a4.21,4.21,0,0,1,.2-.75l2.37-6.65Z" fill="#1e1e1e"/>
        <path d="M32,143.71H31v-5.64c0-.44,0-1,.08-1.63h0a4.19,4.19,0,0,1-.25.81l-2.87,6.46h-.48l-2.86-6.41a4.79,4.79,0,0,1-.26-.86h0c0,.33.05.88.05,1.64v5.63h-.95v-8.4h1.3l2.58,5.86a6.3,6.3,0,0,1,.38,1h0c.17-.46.3-.8.4-1l2.63-5.83H32Z" fill="#1e1e1e"/>
        <path d="M38.86,141H34.62a2.3,2.3,0,0,0,.54,1.55,1.87,1.87,0,0,0,1.42.54,2.93,2.93,0,0,0,1.86-.67v.91a3.5,3.5,0,0,1-2.09.57,2.53,2.53,0,0,1-2-.82,3.36,3.36,0,0,1-.73-2.3,3.29,3.29,0,0,1,.8-2.28,2.53,2.53,0,0,1,2-.88,2.24,2.24,0,0,1,1.82.76,3.18,3.18,0,0,1,.65,2.12Zm-1-.81a2,2,0,0,0-.4-1.3,1.36,1.36,0,0,0-1.1-.46,1.55,1.55,0,0,0-1.15.48,2.25,2.25,0,0,0-.59,1.28Z" fill="#1e1e1e"/>
        <path d="M46.56,135.67a1.24,1.24,0,0,0-.64-.16c-.67,0-1,.43-1,1.27v.93h1.4v.82h-1.4v5.18H44v-5.18h-1v-.82h1v-1a2,2,0,0,1,.55-1.49,1.8,1.8,0,0,1,1.35-.55,1.89,1.89,0,0,1,.7.1Z" fill="#1e1e1e"/>
        <path d="M49.86,143.85a2.77,2.77,0,0,1-2.12-.84,3.11,3.11,0,0,1-.8-2.23,3.23,3.23,0,0,1,.83-2.36,3,3,0,0,1,2.23-.85,2.68,2.68,0,0,1,2.1.83A3.77,3.77,0,0,1,52,143,2.87,2.87,0,0,1,49.86,143.85Zm.07-5.47a1.81,1.81,0,0,0-1.46.63,2.58,2.58,0,0,0-.54,1.73,2.47,2.47,0,0,0,.54,1.69,1.86,1.86,0,0,0,1.46.61,1.75,1.75,0,0,0,1.43-.6,3.23,3.23,0,0,0,0-3.45A1.73,1.73,0,0,0,49.93,138.38Z" fill="#1e1e1e"/>
        <path d="M57.51,138.68a1.14,1.14,0,0,0-.72-.19,1.21,1.21,0,0,0-1,.58,2.64,2.64,0,0,0-.41,1.58v3.06h-1v-6h1V139h0a2,2,0,0,1,.63-1,1.54,1.54,0,0,1,1.51-.27Z" fill="#1e1e1e"/>
        <path d="M65.93,143.43a3.08,3.08,0,0,1-1.64.42,2.75,2.75,0,0,1-2.07-.83,3,3,0,0,1-.79-2.17,3.35,3.35,0,0,1,.85-2.38,3,3,0,0,1,2.27-.9,3.2,3.2,0,0,1,1.39.29v1a2.37,2.37,0,0,0-1.42-.47A1.92,1.92,0,0,0,63,139a2.46,2.46,0,0,0-.59,1.73,2.36,2.36,0,0,0,.55,1.66,1.91,1.91,0,0,0,1.49.61,2.38,2.38,0,0,0,1.47-.52Z" fill="#1e1e1e"/>
        <path d="M71.68,143.71h-1v-.94h0a2,2,0,0,1-1.85,1.08,2,2,0,0,1-1.4-.47,1.65,1.65,0,0,1-.51-1.26c0-1.13.66-1.78,2-2l1.8-.25c0-1-.41-1.53-1.24-1.53a2.9,2.9,0,0,0-2,.74v-1a3.76,3.76,0,0,1,2-.56c1.41,0,2.11.74,2.11,2.24Zm-1-3-1.45.2a2.54,2.54,0,0,0-1,.33,1,1,0,0,0-.34.85.89.89,0,0,0,.31.71,1.19,1.19,0,0,0,.83.28,1.55,1.55,0,0,0,1.18-.5,1.8,1.8,0,0,0,.47-1.27Z" fill="#1e1e1e"/>
        <path d="M77.58,143.43a3.1,3.1,0,0,1-1.64.42,2.73,2.73,0,0,1-2.07-.83,3,3,0,0,1-.79-2.17,3.3,3.3,0,0,1,.85-2.38,3,3,0,0,1,2.27-.9,3.2,3.2,0,0,1,1.39.29v1a2.38,2.38,0,0,0-1.43-.47,2,2,0,0,0-1.51.66,2.5,2.5,0,0,0-.58,1.73,2.36,2.36,0,0,0,.55,1.66,1.89,1.89,0,0,0,1.48.61,2.39,2.39,0,0,0,1.48-.52Z" fill="#1e1e1e"/>
        <path d="M84,143.71h-1v-3.46c0-1.25-.46-1.87-1.39-1.87a1.51,1.51,0,0,0-1.18.54,2,2,0,0,0-.48,1.39v3.4H79v-8.88h1v3.88h0a2.18,2.18,0,0,1,2-1.14c1.35,0,2,.81,2,2.44Z" fill="#1e1e1e"/>
        <path d="M90.65,141H86.41A2.3,2.3,0,0,0,87,142.5a1.87,1.87,0,0,0,1.42.54,2.91,2.91,0,0,0,1.86-.67v.91a3.5,3.5,0,0,1-2.09.57,2.53,2.53,0,0,1-2-.82,3.35,3.35,0,0,1-.72-2.3,3.28,3.28,0,0,1,.79-2.28,2.54,2.54,0,0,1,2-.88,2.24,2.24,0,0,1,1.82.76,3.18,3.18,0,0,1,.65,2.12Zm-1-.81a2,2,0,0,0-.4-1.3,1.36,1.36,0,0,0-1.1-.46,1.56,1.56,0,0,0-1.15.48,2.25,2.25,0,0,0-.59,1.28Z" fill="#1e1e1e"/>
      </g>
      <g>
        <path d="M108.57,143.71h-1v-3.83h-4.35v3.83h-1v-8.4h1V139h4.35v-3.68h1Z" fill="#1e1e1e"/>
        <path d="M110.78,143.71v-8.4h2.32q4.44,0,4.44,4.09a4.14,4.14,0,0,1-1.23,3.13,4.59,4.59,0,0,1-3.31,1.18Zm1-7.51v6.62H113a3.55,3.55,0,0,0,2.57-.89,3.31,3.31,0,0,0,.92-2.5c0-2.16-1.15-3.23-3.44-3.23Z" fill="#1e1e1e"/>
        <path d="M119.19,143.71v-8.4h2.32q4.44,0,4.44,4.09a4.14,4.14,0,0,1-1.23,3.13,4.55,4.55,0,0,1-3.3,1.18Zm1-7.51v6.62h1.25a3.55,3.55,0,0,0,2.57-.89,3.28,3.28,0,0,0,.92-2.5c0-2.16-1.14-3.23-3.43-3.23Z" fill="#1e1e1e"/>
        <path d="M133.73,135.67a1.24,1.24,0,0,0-.64-.16c-.67,0-1,.43-1,1.27v.93h1.41v.82h-1.41v5.18h-1v-5.18h-1v-.82h1v-1a2,2,0,0,1,.54-1.49,1.84,1.84,0,0,1,1.36-.55,1.92,1.92,0,0,1,.7.1Z" fill="#1e1e1e"/>
        <path d="M137,143.85a2.79,2.79,0,0,1-2.13-.84,3.1,3.1,0,0,1-.79-2.23,3.23,3.23,0,0,1,.83-2.36,3,3,0,0,1,2.23-.85,2.66,2.66,0,0,1,2.09.83,3.73,3.73,0,0,1-.06,4.59A2.85,2.85,0,0,1,137,143.85Zm.07-5.47a1.84,1.84,0,0,0-1.47.63,2.58,2.58,0,0,0-.54,1.73,2.47,2.47,0,0,0,.55,1.69,1.85,1.85,0,0,0,1.46.61,1.75,1.75,0,0,0,1.43-.6,3.23,3.23,0,0,0,0-3.45A1.73,1.73,0,0,0,137.1,138.38Z" fill="#1e1e1e"/>
        <path d="M144.68,138.68a1.18,1.18,0,0,0-.73-.19,1.2,1.2,0,0,0-1,.58,2.64,2.64,0,0,0-.42,1.58v3.06h-1v-6h1V139h0a2,2,0,0,1,.62-1,1.43,1.43,0,0,1,1-.36,1.41,1.41,0,0,1,.57.09Z" fill="#1e1e1e"/>
        <path d="M153.1,143.43a3.1,3.1,0,0,1-1.64.42,2.72,2.72,0,0,1-2.07-.83,3,3,0,0,1-.79-2.17,3.3,3.3,0,0,1,.85-2.38,3,3,0,0,1,2.27-.9,3.23,3.23,0,0,1,1.39.29v1a2.38,2.38,0,0,0-1.43-.47,2,2,0,0,0-1.51.66,2.5,2.5,0,0,0-.59,1.73,2.36,2.36,0,0,0,.56,1.66,1.89,1.89,0,0,0,1.48.61,2.39,2.39,0,0,0,1.48-.52Z" fill="#1e1e1e"/>
        <path d="M158.85,143.71h-1v-.94h0a2.2,2.2,0,0,1-3.25.61,1.68,1.68,0,0,1-.5-1.26c0-1.13.66-1.78,2-2l1.8-.25c0-1-.41-1.53-1.24-1.53a2.94,2.94,0,0,0-2,.74v-1a3.76,3.76,0,0,1,2-.56c1.41,0,2.12.74,2.12,2.24Zm-1-3-1.45.2a2.59,2.59,0,0,0-1,.33,1,1,0,0,0-.34.85.9.9,0,0,0,.32.71,1.16,1.16,0,0,0,.83.28,1.55,1.55,0,0,0,1.18-.5,1.8,1.8,0,0,0,.47-1.27Z" fill="#1e1e1e"/>
        <path d="M161.64,142.84h0v3.63h-1v-8.76h1v1h0a2.3,2.3,0,0,1,2.08-1.19,2.23,2.23,0,0,1,1.81.8,3.37,3.37,0,0,1,.65,2.16,3.74,3.74,0,0,1-.73,2.41,2.44,2.44,0,0,1-2,.91A2,2,0,0,1,161.64,142.84Zm0-2.42v.84a1.77,1.77,0,0,0,.48,1.26,1.73,1.73,0,0,0,2.6-.15,3,3,0,0,0,.49-1.85,2.39,2.39,0,0,0-.46-1.57,1.53,1.53,0,0,0-1.25-.57,1.7,1.7,0,0,0-1.35.58A2.15,2.15,0,0,0,161.62,140.42Z" fill="#1e1e1e"/>
        <path d="M172,143.71h-1v-.94h0a2.2,2.2,0,0,1-3.25.61,1.68,1.68,0,0,1-.5-1.26c0-1.13.66-1.78,2-2l1.8-.25c0-1-.41-1.53-1.24-1.53a2.94,2.94,0,0,0-2,.74v-1a3.76,3.76,0,0,1,2-.56c1.41,0,2.12.74,2.12,2.24Zm-1-3-1.45.2a2.59,2.59,0,0,0-1,.33,1,1,0,0,0-.34.85.9.9,0,0,0,.32.71,1.16,1.16,0,0,0,.83.28,1.55,1.55,0,0,0,1.18-.5,1.8,1.8,0,0,0,.47-1.27Z" fill="#1e1e1e"/>
        <path d="M177.91,143.43a3.1,3.1,0,0,1-1.64.42,2.72,2.72,0,0,1-2.07-.83,3,3,0,0,1-.79-2.17,3.3,3.3,0,0,1,.85-2.38,3,3,0,0,1,2.27-.9,3.23,3.23,0,0,1,1.39.29v1a2.38,2.38,0,0,0-1.43-.47A1.93,1.93,0,0,0,175,139a2.5,2.5,0,0,0-.59,1.73,2.36,2.36,0,0,0,.56,1.66,1.89,1.89,0,0,0,1.48.61,2.39,2.39,0,0,0,1.48-.52Z" fill="#1e1e1e"/>
        <path d="M179.85,136.19a.62.62,0,0,1-.44-.18.61.61,0,0,1-.18-.45.6.6,0,0,1,.18-.44.62.62,0,0,1,.44-.18.61.61,0,0,1,.45.18.58.58,0,0,1,.19.44.56.56,0,0,1-.19.44A.58.58,0,0,1,179.85,136.19Zm.47,7.52h-1v-6h1Z" fill="#1e1e1e"/>
        <path d="M185.05,143.65a1.8,1.8,0,0,1-.9.19c-1.05,0-1.57-.59-1.57-1.76v-3.55h-1v-.82h1v-1.47l1-.31v1.78h1.51v.82h-1.51v3.38a1.45,1.45,0,0,0,.2.86.84.84,0,0,0,.68.26,1,1,0,0,0,.63-.2Z" fill="#1e1e1e"/>
        <path d="M191.11,137.71l-2.76,7q-.73,1.86-2.07,1.86a2.28,2.28,0,0,1-.63-.07v-.86a1.8,1.8,0,0,0,.57.1,1.19,1.19,0,0,0,1.09-.87l.48-1.13-2.35-6h1.07l1.62,4.62.13.45h0c0-.09.06-.24.12-.44l1.7-4.63Z" fill="#1e1e1e"/>
      </g>
      <g>
        <path d="M238.93,143.37v-1.16a2.42,2.42,0,0,0,.47.32,3.8,3.8,0,0,0,.59.23,3.3,3.3,0,0,0,.62.15,3,3,0,0,0,.57.06,2.29,2.29,0,0,0,1.36-.34,1.15,1.15,0,0,0,.45-1,1.1,1.1,0,0,0-.15-.59,1.64,1.64,0,0,0-.42-.46,3.91,3.91,0,0,0-.62-.4l-.78-.4-.82-.45a3.85,3.85,0,0,1-.66-.51,2.06,2.06,0,0,1-.44-.62,2.15,2.15,0,0,1,.09-1.82,2.32,2.32,0,0,1,.66-.7,3.19,3.19,0,0,1,.94-.41,4.24,4.24,0,0,1,1.07-.13,4.11,4.11,0,0,1,1.81.3v1.1a3.33,3.33,0,0,0-1.91-.51,3.57,3.57,0,0,0-.65.06,2,2,0,0,0-.57.22,1.31,1.31,0,0,0-.41.4,1,1,0,0,0-.16.58,1.22,1.22,0,0,0,.12.56,1.41,1.41,0,0,0,.35.43,3.42,3.42,0,0,0,.58.37c.22.12.48.26.77.4s.59.31.86.47a4.41,4.41,0,0,1,.71.54,2.42,2.42,0,0,1,.48.67,1.84,1.84,0,0,1,.18.83,2,2,0,0,1-.25,1,2,2,0,0,1-.65.7,2.88,2.88,0,0,1-1,.39,5.24,5.24,0,0,1-1.14.12l-.49,0a4.17,4.17,0,0,1-.6-.1,4.91,4.91,0,0,1-.58-.15A1.93,1.93,0,0,1,238.93,143.37Z" fill="#1e1e1e"/>
        <path d="M245.3,143.37v-1.16a2.23,2.23,0,0,0,.48.32,4.51,4.51,0,0,0,1.2.38,3.09,3.09,0,0,0,.58.06,2.27,2.27,0,0,0,1.35-.34,1.15,1.15,0,0,0,.45-1,1.1,1.1,0,0,0-.15-.59,1.6,1.6,0,0,0-.41-.46,4.43,4.43,0,0,0-.62-.4l-.78-.4c-.29-.15-.57-.3-.82-.45a3.2,3.2,0,0,1-.66-.51,2.1,2.1,0,0,1-.45-.62,2.07,2.07,0,0,1-.16-.82,2,2,0,0,1,.25-1,2.24,2.24,0,0,1,.67-.7,3,3,0,0,1,.93-.41,4.29,4.29,0,0,1,1.07-.13,4.08,4.08,0,0,1,1.81.3v1.1a3.29,3.29,0,0,0-1.91-.51,3.47,3.47,0,0,0-.64.06,2,2,0,0,0-.58.22,1.42,1.42,0,0,0-.41.4,1.07,1.07,0,0,0-.16.58,1.22,1.22,0,0,0,.12.56,1.31,1.31,0,0,0,.36.43,3.75,3.75,0,0,0,.57.37c.22.12.48.26.78.4s.58.31.85.47a4,4,0,0,1,.71.54,2.23,2.23,0,0,1,.48.67,1.84,1.84,0,0,1,.18.83,2.14,2.14,0,0,1-.24,1,1.93,1.93,0,0,1-.66.7,2.8,2.8,0,0,1-1,.39,5.24,5.24,0,0,1-1.14.12l-.49,0a4.69,4.69,0,0,1-.6-.1,4.74,4.74,0,0,1-.57-.15A2,2,0,0,1,245.3,143.37Z" fill="#1e1e1e"/>
        <path d="M252.07,143.71v-8.4h2.32q4.44,0,4.44,4.09a4.14,4.14,0,0,1-1.23,3.13,4.59,4.59,0,0,1-3.3,1.18Zm1-7.51v6.62h1.26a3.55,3.55,0,0,0,2.57-.89,3.31,3.31,0,0,0,.92-2.5c0-2.16-1.15-3.23-3.43-3.23Z" fill="#1e1e1e"/>
        <path d="M266.61,135.67a1.24,1.24,0,0,0-.64-.16c-.67,0-1,.43-1,1.27v.93h1.41v.82H265v5.18h-1v-5.18h-1v-.82h1v-1a2,2,0,0,1,.55-1.49,1.82,1.82,0,0,1,1.36-.55,2,2,0,0,1,.7.1Z" fill="#1e1e1e"/>
        <path d="M269.9,143.85a2.79,2.79,0,0,1-2.12-.84,3.1,3.1,0,0,1-.79-2.23,3.23,3.23,0,0,1,.82-2.36,3,3,0,0,1,2.24-.85,2.66,2.66,0,0,1,2.09.83,3.77,3.77,0,0,1-.06,4.59A2.87,2.87,0,0,1,269.9,143.85Zm.08-5.47a1.84,1.84,0,0,0-1.47.63,2.58,2.58,0,0,0-.54,1.73,2.42,2.42,0,0,0,.55,1.69A1.85,1.85,0,0,0,270,143a1.77,1.77,0,0,0,1.43-.6,3.23,3.23,0,0,0,0-3.45A1.74,1.74,0,0,0,270,138.38Z" fill="#1e1e1e"/>
        <path d="M277.56,138.68a1.18,1.18,0,0,0-.73-.19,1.23,1.23,0,0,0-1,.58,2.72,2.72,0,0,0-.41,1.58v3.06h-1v-6h1V139h0a2.07,2.07,0,0,1,.63-1,1.42,1.42,0,0,1,.94-.36,1.5,1.5,0,0,1,.58.09Z" fill="#1e1e1e"/>
        <path d="M286,143.43a3.1,3.1,0,0,1-1.64.42,2.72,2.72,0,0,1-2.07-.83,3,3,0,0,1-.79-2.17,3.3,3.3,0,0,1,.85-2.38,3,3,0,0,1,2.26-.9,3.24,3.24,0,0,1,1.4.29v1a2.4,2.4,0,0,0-1.43-.47,1.93,1.93,0,0,0-1.51.66,2.5,2.5,0,0,0-.59,1.73,2.36,2.36,0,0,0,.56,1.66,1.87,1.87,0,0,0,1.48.61,2.41,2.41,0,0,0,1.48-.52Z" fill="#1e1e1e"/>
        <path d="M291.73,143.71h-1v-.94h0a2.2,2.2,0,0,1-3.25.61,1.65,1.65,0,0,1-.51-1.26c0-1.13.67-1.78,2-2l1.79-.25q0-1.53-1.23-1.53a2.92,2.92,0,0,0-2,.74v-1a3.76,3.76,0,0,1,2-.56c1.41,0,2.12.74,2.12,2.24Zm-1-3-1.44.2a2.59,2.59,0,0,0-1,.33,1,1,0,0,0-.34.85.89.89,0,0,0,.31.71,1.2,1.2,0,0,0,.84.28,1.56,1.56,0,0,0,1.18-.5,1.79,1.79,0,0,0,.46-1.27Z" fill="#1e1e1e"/>
        <path d="M297.63,143.43a3.14,3.14,0,0,1-1.65.42,2.75,2.75,0,0,1-2.07-.83,3.06,3.06,0,0,1-.78-2.17,3.3,3.3,0,0,1,.85-2.38,3,3,0,0,1,2.26-.9,3.27,3.27,0,0,1,1.4.29v1a2.4,2.4,0,0,0-1.43-.47,1.92,1.92,0,0,0-1.51.66,2.5,2.5,0,0,0-.59,1.73,2.36,2.36,0,0,0,.55,1.66,1.91,1.91,0,0,0,1.49.61,2.43,2.43,0,0,0,1.48-.52Z" fill="#1e1e1e"/>
        <path d="M304.06,143.71h-1v-3.46c0-1.25-.47-1.87-1.4-1.87a1.51,1.51,0,0,0-1.18.54,2,2,0,0,0-.48,1.39v3.4h-1v-8.88h1v3.88h0a2.18,2.18,0,0,1,2-1.14c1.35,0,2,.81,2,2.44Z" fill="#1e1e1e"/>
        <path d="M310.69,141h-4.23a2.25,2.25,0,0,0,.53,1.55,1.88,1.88,0,0,0,1.42.54,2.94,2.94,0,0,0,1.87-.67v.91a3.53,3.53,0,0,1-2.1.57,2.51,2.51,0,0,1-2-.82,3.83,3.83,0,0,1,.06-4.58,2.55,2.55,0,0,1,2-.88,2.25,2.25,0,0,1,1.82.76,3.18,3.18,0,0,1,.64,2.12Zm-1-.81a2,2,0,0,0-.4-1.3,1.37,1.37,0,0,0-1.1-.46,1.57,1.57,0,0,0-1.16.48,2.24,2.24,0,0,0-.58,1.28Z" fill="#1e1e1e"/>
      </g>
      <g>
        <path d="M328.62,143.71h-1v-3.83h-4.34v3.83h-1v-8.4h1V139h4.34v-3.68h1Z" fill="#1e1e1e"/>
        <path d="M330.82,143.71v-8.4h2.32q4.44,0,4.44,4.09a4.14,4.14,0,0,1-1.23,3.13,4.55,4.55,0,0,1-3.3,1.18Zm1-7.51v6.62h1.25a3.55,3.55,0,0,0,2.57-.89,3.28,3.28,0,0,0,.92-2.5c0-2.16-1.14-3.23-3.43-3.23Z" fill="#1e1e1e"/>
        <path d="M339.24,143.71v-8.4h2.32q4.44,0,4.44,4.09a4.14,4.14,0,0,1-1.23,3.13,4.59,4.59,0,0,1-3.31,1.18Zm1-7.51v6.62h1.25a3.58,3.58,0,0,0,2.58-.89,3.31,3.31,0,0,0,.92-2.5c0-2.16-1.15-3.23-3.44-3.23Z" fill="#1e1e1e"/>
        <path d="M353.77,135.67a1.22,1.22,0,0,0-.64-.16c-.67,0-1,.43-1,1.27v.93h1.4v.82h-1.4v5.18h-1v-5.18h-1v-.82h1v-1a2,2,0,0,1,.55-1.49,1.81,1.81,0,0,1,1.36-.55,1.86,1.86,0,0,1,.69.1Z" fill="#1e1e1e"/>
        <path d="M357.07,143.85A2.79,2.79,0,0,1,355,143a3.11,3.11,0,0,1-.8-2.23,3.23,3.23,0,0,1,.83-2.36,3,3,0,0,1,2.23-.85,2.66,2.66,0,0,1,2.1.83,3.77,3.77,0,0,1-.06,4.59A2.87,2.87,0,0,1,357.07,143.85Zm.07-5.47a1.81,1.81,0,0,0-1.46.63,2.58,2.58,0,0,0-.54,1.73,2.47,2.47,0,0,0,.54,1.69,1.86,1.86,0,0,0,1.46.61,1.79,1.79,0,0,0,1.44-.6,3.23,3.23,0,0,0,0-3.45A1.76,1.76,0,0,0,357.14,138.38Z" fill="#1e1e1e"/>
        <path d="M364.72,138.68a1.14,1.14,0,0,0-.72-.19,1.23,1.23,0,0,0-1,.58,2.64,2.64,0,0,0-.41,1.58v3.06h-1v-6h1V139h0a2.07,2.07,0,0,1,.63-1,1.54,1.54,0,0,1,1.51-.27Z" fill="#1e1e1e"/>
        <path d="M373.14,143.43a3.08,3.08,0,0,1-1.64.42,2.75,2.75,0,0,1-2.07-.83,3.06,3.06,0,0,1-.79-2.17,3.35,3.35,0,0,1,.85-2.38,3,3,0,0,1,2.27-.9,3.27,3.27,0,0,1,1.4.29v1a2.42,2.42,0,0,0-1.43-.47,1.92,1.92,0,0,0-1.51.66,2.5,2.5,0,0,0-.59,1.73,2.36,2.36,0,0,0,.55,1.66,1.91,1.91,0,0,0,1.49.61,2.38,2.38,0,0,0,1.47-.52Z" fill="#1e1e1e"/>
        <path d="M378.89,143.71h-1v-.94h0a2,2,0,0,1-1.85,1.08,2,2,0,0,1-1.4-.47,1.65,1.65,0,0,1-.51-1.26c0-1.13.66-1.78,2-2l1.8-.25c0-1-.41-1.53-1.24-1.53a2.9,2.9,0,0,0-1.95.74v-1a3.76,3.76,0,0,1,2-.56c1.41,0,2.11.74,2.11,2.24Zm-1-3-1.45.2a2.54,2.54,0,0,0-1,.33,1,1,0,0,0-.34.85.89.89,0,0,0,.31.71,1.19,1.19,0,0,0,.83.28,1.57,1.57,0,0,0,1.19-.5,1.79,1.79,0,0,0,.46-1.27Z" fill="#1e1e1e"/>
        <path d="M381.69,142.84h0v3.63h-1v-8.76h1v1h0a2.27,2.27,0,0,1,2.07-1.19,2.21,2.21,0,0,1,1.81.8,3.31,3.31,0,0,1,.65,2.16,3.69,3.69,0,0,1-.73,2.41,2.43,2.43,0,0,1-2,.91A2,2,0,0,1,381.69,142.84Zm0-2.42v.84a1.78,1.78,0,0,0,.49,1.26,1.71,1.71,0,0,0,2.59-.15,3,3,0,0,0,.5-1.85,2.39,2.39,0,0,0-.47-1.57,1.51,1.51,0,0,0-1.25-.57,1.7,1.7,0,0,0-1.35.58A2.15,2.15,0,0,0,381.66,140.42Z" fill="#1e1e1e"/>
        <path d="M392.05,143.71h-1v-.94h0a2,2,0,0,1-1.85,1.08,2,2,0,0,1-1.4-.47,1.65,1.65,0,0,1-.51-1.26c0-1.13.66-1.78,2-2l1.8-.25c0-1-.41-1.53-1.24-1.53a2.9,2.9,0,0,0-2,.74v-1a3.76,3.76,0,0,1,2-.56c1.41,0,2.11.74,2.11,2.24Zm-1-3-1.45.2a2.54,2.54,0,0,0-1,.33,1,1,0,0,0-.34.85.89.89,0,0,0,.31.71,1.19,1.19,0,0,0,.83.28,1.57,1.57,0,0,0,1.19-.5,1.79,1.79,0,0,0,.46-1.27Z" fill="#1e1e1e"/>
        <path d="M398,143.43a3.1,3.1,0,0,1-1.64.42,2.75,2.75,0,0,1-2.07-.83,3.06,3.06,0,0,1-.79-2.17,3.35,3.35,0,0,1,.85-2.38,3,3,0,0,1,2.27-.9,3.2,3.2,0,0,1,1.39.29v1a2.38,2.38,0,0,0-1.43-.47,1.91,1.91,0,0,0-1.5.66,2.46,2.46,0,0,0-.59,1.73,2.36,2.36,0,0,0,.55,1.66,1.89,1.89,0,0,0,1.49.61,2.38,2.38,0,0,0,1.47-.52Z" fill="#1e1e1e"/>
        <path d="M399.9,136.19a.6.6,0,0,1-.44-.18.61.61,0,0,1-.18-.45.61.61,0,0,1,.62-.62.64.64,0,0,1,.45.18.6.6,0,0,1,.18.44.59.59,0,0,1-.18.44A.61.61,0,0,1,399.9,136.19Zm.47,7.52h-1v-6h1Z" fill="#1e1e1e"/>
        <path d="M405.1,143.65a1.82,1.82,0,0,1-.9.19c-1.05,0-1.58-.59-1.58-1.76v-3.55h-1v-.82h1v-1.47l1-.31v1.78h1.52v.82h-1.52v3.38a1.37,1.37,0,0,0,.21.86.83.83,0,0,0,.68.26,1.05,1.05,0,0,0,.63-.2Z" fill="#1e1e1e"/>
        <path d="M411.15,137.71l-2.76,7q-.74,1.86-2.07,1.86a2.28,2.28,0,0,1-.63-.07v-.86a1.8,1.8,0,0,0,.57.1,1.17,1.17,0,0,0,1.09-.87l.48-1.13-2.34-6h1.06l1.63,4.62q0,.09.12.45h0a3,3,0,0,1,.11-.44l1.71-4.63Z" fill="#1e1e1e"/>
      </g>
      <g>
        <path d="M40.28,14.14h-1.2l-4.33-6.7a2.65,2.65,0,0,1-.27-.53h0a9.48,9.48,0,0,1,0,1.16v6.07h-1V5.73h1.28l4.2,6.6a5.88,5.88,0,0,1,.34.56h0a8.74,8.74,0,0,1-.06-1.24V5.73h1Z" fill="#1e1e1e"/>
        <path d="M48.73,5.73l-3.11,8.41H44.54l-3-8.41h1.1l2.32,6.67a3.51,3.51,0,0,1,.17.74h0a4,4,0,0,1,.2-.75l2.37-6.66Z" fill="#1e1e1e"/>
        <path d="M58.51,14.14h-1V8.5c0-.44,0-1,.08-1.63h0a5.18,5.18,0,0,1-.26.81l-2.87,6.46H54L51.12,7.73a4.79,4.79,0,0,1-.26-.86h0c0,.33,0,.88,0,1.64v5.63h-1V5.73h1.3l2.58,5.86a6.32,6.32,0,0,1,.38,1h0c.17-.46.3-.8.4-1l2.63-5.84h1.24Z" fill="#1e1e1e"/>
        <path d="M65.41,11.38H61.17a2.26,2.26,0,0,0,.54,1.54,1.84,1.84,0,0,0,1.42.55A2.91,2.91,0,0,0,65,12.8v.9a3.43,3.43,0,0,1-2.09.58,2.53,2.53,0,0,1-2-.82,3.35,3.35,0,0,1-.72-2.3A3.28,3.28,0,0,1,61,8.88a2.54,2.54,0,0,1,2-.88,2.24,2.24,0,0,1,1.82.76,3.17,3.17,0,0,1,.65,2.11Zm-1-.82A2,2,0,0,0,64,9.27a1.36,1.36,0,0,0-1.1-.46,1.56,1.56,0,0,0-1.15.48,2.25,2.25,0,0,0-.59,1.27Z" fill="#1e1e1e"/>
      </g>
      <g>
        <path d="M133.3,14.14h-1.2l-4.33-6.7a2.65,2.65,0,0,1-.27-.53h0a9.48,9.48,0,0,1,0,1.16v6.07h-1V5.73h1.28l4.2,6.6a5.88,5.88,0,0,1,.34.56h0a8.74,8.74,0,0,1-.06-1.24V5.73h1Z" fill="#1e1e1e"/>
        <path d="M141.75,5.73l-3.11,8.41h-1.08l-3.05-8.41h1.1l2.32,6.67a3.51,3.51,0,0,1,.17.74h0a3.3,3.3,0,0,1,.19-.75l2.37-6.66Z" fill="#1e1e1e"/>
        <path d="M151.53,14.14h-1V8.5c0-.44,0-1,.08-1.63h0a5.18,5.18,0,0,1-.26.81l-2.87,6.46H147l-2.86-6.41a4.93,4.93,0,0,1-.25-.86h0c0,.33,0,.88,0,1.64v5.63H143V5.73h1.3l2.58,5.86a7.92,7.92,0,0,1,.39,1h0c.17-.46.3-.8.4-1l2.64-5.84h1.23Z" fill="#1e1e1e"/>
        <path d="M158.43,11.38h-4.24a2.26,2.26,0,0,0,.54,1.54,1.84,1.84,0,0,0,1.42.55A2.91,2.91,0,0,0,158,12.8v.9a3.43,3.43,0,0,1-2.09.58,2.53,2.53,0,0,1-2-.82,3.35,3.35,0,0,1-.72-2.3A3.28,3.28,0,0,1,154,8.88,2.54,2.54,0,0,1,156,8a2.24,2.24,0,0,1,1.82.76,3.17,3.17,0,0,1,.65,2.11Zm-1-.82a1.9,1.9,0,0,0-.4-1.29,1.36,1.36,0,0,0-1.1-.46,1.56,1.56,0,0,0-1.15.48,2.25,2.25,0,0,0-.59,1.27Z" fill="#1e1e1e"/>
      </g>
      <g>
        <path d="M263,45.85V44.69a2.11,2.11,0,0,0,.48.32,5.19,5.19,0,0,0,.59.24c.2.06.41.11.61.15a4.13,4.13,0,0,0,.58.05,2.18,2.18,0,0,0,1.35-.34,1.14,1.14,0,0,0,.45-1,1.15,1.15,0,0,0-.15-.59,1.6,1.6,0,0,0-.41-.46,4.43,4.43,0,0,0-.62-.4l-.78-.4c-.29-.15-.57-.3-.82-.45a3.13,3.13,0,0,1-.66-.51,1.9,1.9,0,0,1-.44-.62,1.87,1.87,0,0,1-.17-.82,1.93,1.93,0,0,1,.26-1,2.1,2.1,0,0,1,.66-.7,3,3,0,0,1,.93-.41,4.29,4.29,0,0,1,1.07-.13,4.08,4.08,0,0,1,1.81.3v1.11a3.22,3.22,0,0,0-1.91-.52,2.79,2.79,0,0,0-.64.07,1.75,1.75,0,0,0-.58.22,1.38,1.38,0,0,0-.41.39,1.1,1.1,0,0,0-.15.59,1.18,1.18,0,0,0,.12.55,1.28,1.28,0,0,0,.35.43,4.69,4.69,0,0,0,.57.38c.23.12.48.25.78.39s.58.31.85.47a4,4,0,0,1,.71.55,2.36,2.36,0,0,1,.49.66,2,2,0,0,1,.17.83,2.09,2.09,0,0,1-.24,1,1.93,1.93,0,0,1-.66.7,2.8,2.8,0,0,1-.95.39,5.22,5.22,0,0,1-1.13.12l-.5,0-.59-.09a3.28,3.28,0,0,1-.58-.16A1.65,1.65,0,0,1,263,45.85Z" fill="#1e1e1e"/>
        <path d="M269.39,45.85V44.69a2,2,0,0,0,.47.32,6.07,6.07,0,0,0,.59.24c.21.06.41.11.62.15a4.13,4.13,0,0,0,.57.05,2.22,2.22,0,0,0,1.36-.34,1.14,1.14,0,0,0,.45-1,1.15,1.15,0,0,0-.15-.59,1.76,1.76,0,0,0-.41-.46,4.57,4.57,0,0,0-.63-.4l-.78-.4-.82-.45a3.4,3.4,0,0,1-.66-.51,2.06,2.06,0,0,1-.44-.62,1.88,1.88,0,0,1-.16-.82,1.93,1.93,0,0,1,.25-1,2.32,2.32,0,0,1,.66-.7,3.19,3.19,0,0,1,.94-.41,4.24,4.24,0,0,1,1.07-.13,4.08,4.08,0,0,1,1.81.3v1.11a3.26,3.26,0,0,0-1.91-.52,2.88,2.88,0,0,0-.65.07,1.78,1.78,0,0,0-.57.22,1.18,1.18,0,0,0-.41.39,1,1,0,0,0-.16.59,1.18,1.18,0,0,0,.12.55,1.41,1.41,0,0,0,.35.43,4.17,4.17,0,0,0,.58.38l.77.39c.3.15.59.31.86.47a4.46,4.46,0,0,1,.71.55,2.53,2.53,0,0,1,.48.66,1.84,1.84,0,0,1,.18.83,1.94,1.94,0,0,1-.9,1.75,2.88,2.88,0,0,1-.95.39,5.24,5.24,0,0,1-1.14.12l-.49,0-.6-.09a3.83,3.83,0,0,1-.58-.16A1.57,1.57,0,0,1,269.39,45.85Z" fill="#1e1e1e"/>
        <path d="M276.15,46.19v-8.4h2.33q4.44,0,4.44,4.1A4.11,4.11,0,0,1,281.68,45a4.55,4.55,0,0,1-3.3,1.18Zm1-7.51V45.3h1.25a3.59,3.59,0,0,0,2.58-.88,3.34,3.34,0,0,0,.92-2.51q0-3.22-3.44-3.23Z" fill="#1e1e1e"/>
      </g>
      <g>
        <path d="M353.22,45.62V44.46a1.89,1.89,0,0,0,.48.31,3,3,0,0,0,.59.24,3.39,3.39,0,0,0,.61.15,3,3,0,0,0,.58.05,2.26,2.26,0,0,0,1.35-.33,1.15,1.15,0,0,0,.45-1,1.1,1.1,0,0,0-.15-.59,1.48,1.48,0,0,0-.41-.46,3.68,3.68,0,0,0-.62-.4l-.78-.4c-.29-.15-.57-.3-.82-.46a3.46,3.46,0,0,1-.66-.5,1.9,1.9,0,0,1-.44-.62,1.94,1.94,0,0,1-.17-.82,1.91,1.91,0,0,1,.26-1,2,2,0,0,1,.66-.7,3,3,0,0,1,.93-.41,4.29,4.29,0,0,1,1.07-.13,4.1,4.1,0,0,1,1.81.29v1.11a3.29,3.29,0,0,0-1.91-.51,3.47,3.47,0,0,0-.64.06,2,2,0,0,0-.58.22,1.42,1.42,0,0,0-.41.4,1.06,1.06,0,0,0-.15.58,1.22,1.22,0,0,0,.12.56,1.38,1.38,0,0,0,.35.43,4.7,4.7,0,0,0,.57.37l.78.4c.3.15.58.3.85.47a3.59,3.59,0,0,1,.71.54,2.57,2.57,0,0,1,.49.66,2,2,0,0,1,.17.84,2.14,2.14,0,0,1-.24,1,1.93,1.93,0,0,1-.66.7,2.8,2.8,0,0,1-1,.39,5.22,5.22,0,0,1-1.13.12l-.5,0-.59-.1a4.45,4.45,0,0,1-.58-.15A2,2,0,0,1,353.22,45.62Z" fill="#1e1e1e"/>
        <path d="M359.6,45.62V44.46a2,2,0,0,0,.47.31,3.32,3.32,0,0,0,.59.24,3.5,3.5,0,0,0,.62.15,3,3,0,0,0,.57.05,2.29,2.29,0,0,0,1.36-.33,1.15,1.15,0,0,0,.45-1,1.1,1.1,0,0,0-.15-.59,1.62,1.62,0,0,0-.41-.46,3.79,3.79,0,0,0-.63-.4l-.78-.4c-.29-.15-.56-.3-.82-.46a3.81,3.81,0,0,1-.66-.5,2.06,2.06,0,0,1-.44-.62,1.94,1.94,0,0,1-.16-.82,1.9,1.9,0,0,1,.25-1,2.21,2.21,0,0,1,.66-.7,3.19,3.19,0,0,1,.94-.41,4.24,4.24,0,0,1,1.07-.13,4.13,4.13,0,0,1,1.81.29v1.11a3.33,3.33,0,0,0-1.91-.51,3.57,3.57,0,0,0-.65.06,2,2,0,0,0-.57.22,1.21,1.21,0,0,0-.41.4,1,1,0,0,0-.16.58,1.22,1.22,0,0,0,.12.56,1.54,1.54,0,0,0,.35.43,4.18,4.18,0,0,0,.58.37l.77.4c.3.15.59.3.86.47a3.9,3.9,0,0,1,.71.54,2.53,2.53,0,0,1,.48.66,1.89,1.89,0,0,1,.18.84,2.14,2.14,0,0,1-.24,1,2.11,2.11,0,0,1-.66.7,2.88,2.88,0,0,1-1,.39,5.24,5.24,0,0,1-1.14.12l-.49,0-.6-.1a5.47,5.47,0,0,1-.58-.15A1.93,1.93,0,0,1,359.6,45.62Z" fill="#1e1e1e"/>
        <path d="M366.36,46v-8.4h2.33q4.44,0,4.44,4.09a4.11,4.11,0,0,1-1.24,3.13,4.6,4.6,0,0,1-3.3,1.18Zm1-7.51v6.62h1.25a3.59,3.59,0,0,0,2.58-.89,3.32,3.32,0,0,0,.92-2.51q0-3.22-3.44-3.22Z" fill="#1e1e1e"/>
      </g>
      <g>
        <path d="M202.43,46.1a3.91,3.91,0,0,1-2.94-1.17,4.2,4.2,0,0,1-1.14-3.06,4.5,4.5,0,0,1,1.15-3.22,4,4,0,0,1,3.06-1.23,3.83,3.83,0,0,1,2.91,1.17,4.35,4.35,0,0,1,1.11,3.11,4.43,4.43,0,0,1-1.15,3.19A4,4,0,0,1,202.43,46.1Zm.08-7.06a1.9,1.9,0,0,0-1.58.75,3.13,3.13,0,0,0-.59,2,3,3,0,0,0,.59,2,1.86,1.86,0,0,0,1.53.73,1.92,1.92,0,0,0,1.56-.71,3,3,0,0,0,.57-2,3.27,3.27,0,0,0-.56-2A1.83,1.83,0,0,0,202.51,39Z" fill="#1e1e1e"/>
        <path d="M215,46h-2.18l-1.3-2.16c-.1-.17-.2-.31-.29-.44A2.39,2.39,0,0,0,211,43a1,1,0,0,0-.29-.22.83.83,0,0,0-.32-.07h-.51V46H208v-8.4h3q3.06,0,3.06,2.28a2.38,2.38,0,0,1-.14.81,2.33,2.33,0,0,1-.38.67,2.48,2.48,0,0,1-.59.52,3.41,3.41,0,0,1-.78.34v0a1.14,1.14,0,0,1,.36.19,2.45,2.45,0,0,1,.34.31,4,4,0,0,1,.32.38,4.56,4.56,0,0,1,.27.39Zm-5.16-7v2.34h.82a1.38,1.38,0,0,0,1-.35,1.16,1.16,0,0,0,.37-.88c0-.74-.44-1.11-1.31-1.11Z" fill="#1e1e1e"/>
      </g>
    </g>
  </g>
</svg>
