<svg xmlns="http://www.w3.org/2000/svg" xmlns:xlink="http://www.w3.org/1999/xlink" viewBox="0 0 338.88 198.41">
  <defs>
    <linearGradient id="linear-gradient" x1="63.73" y1="424.53" x2="95.06" y2="442.62" gradientTransform="matrix(1, 0, 0, -1, 0, 588.73)" gradientUnits="userSpaceOnUse">
      <stop offset="0" stop-color="#999"/>
      <stop offset="0.57" stop-color="#767676"/>
      <stop offset="1" stop-color="#767676"/>
    </linearGradient>
    <linearGradient id="linear-gradient-2" x1="70.65" y1="142.07" x2="70.65" y2="139.76" gradientUnits="userSpaceOnUse">
      <stop offset="0" stop-color="#212121"/>
      <stop offset="0.57" stop-color="#212121"/>
      <stop offset="0.76" stop-color="#2a2a2a"/>
      <stop offset="1" stop-color="#3b3b3b"/>
    </linearGradient>
    <linearGradient id="linear-gradient-3" x1="87.49" y1="142.07" x2="87.49" y2="139.76" xlink:href="#linear-gradient-2"/>
    <linearGradient id="linear-gradient-4" x1="70.65" y1="170.94" x2="70.65" y2="168.63" xlink:href="#linear-gradient-2"/>
    <linearGradient id="linear-gradient-5" x1="87.49" y1="170.94" x2="87.49" y2="168.63" xlink:href="#linear-gradient-2"/>
    <linearGradient id="linear-gradient-6" x1="71.84" y1="165.9" x2="83.36" y2="145.95" gradientUnits="userSpaceOnUse">
      <stop offset="0" stop-color="#3b3b3b"/>
      <stop offset="0.24" stop-color="#2a2a2a"/>
      <stop offset="0.43" stop-color="#212121"/>
      <stop offset="1" stop-color="#212121"/>
    </linearGradient>
    <linearGradient id="linear-gradient-7" x1="92.38" y1="424.53" x2="123.72" y2="442.62" xlink:href="#linear-gradient"/>
    <linearGradient id="linear-gradient-8" x1="99.3" y1="142.07" x2="99.3" y2="139.76" xlink:href="#linear-gradient-2"/>
    <linearGradient id="linear-gradient-9" x1="116.14" y1="142.07" x2="116.14" y2="139.76" xlink:href="#linear-gradient-2"/>
    <linearGradient id="linear-gradient-10" x1="99.3" y1="170.94" x2="99.3" y2="168.63" xlink:href="#linear-gradient-2"/>
    <linearGradient id="linear-gradient-11" x1="116.14" y1="170.94" x2="116.14" y2="168.63" xlink:href="#linear-gradient-2"/>
    <linearGradient id="linear-gradient-12" x1="100.5" y1="165.9" x2="112.02" y2="145.95" xlink:href="#linear-gradient-6"/>
    <linearGradient id="linear-gradient-13" x1="121.04" y1="424.53" x2="152.37" y2="442.62" xlink:href="#linear-gradient"/>
    <linearGradient id="linear-gradient-14" x1="127.96" y1="142.07" x2="127.96" y2="139.76" xlink:href="#linear-gradient-2"/>
    <linearGradient id="linear-gradient-15" x1="144.79" y1="142.07" x2="144.79" y2="139.76" xlink:href="#linear-gradient-2"/>
    <linearGradient id="linear-gradient-16" x1="127.96" y1="170.94" x2="127.96" y2="168.63" xlink:href="#linear-gradient-2"/>
    <linearGradient id="linear-gradient-17" x1="144.79" y1="170.94" x2="144.79" y2="168.63" xlink:href="#linear-gradient-2"/>
    <linearGradient id="linear-gradient-18" x1="129.15" y1="165.9" x2="140.67" y2="145.95" xlink:href="#linear-gradient-6"/>
    <linearGradient id="linear-gradient-19" x1="149.69" y1="424.53" x2="181.03" y2="442.62" xlink:href="#linear-gradient"/>
    <linearGradient id="linear-gradient-20" x1="156.61" y1="142.07" x2="156.61" y2="139.76" xlink:href="#linear-gradient-2"/>
    <linearGradient id="linear-gradient-21" x1="173.45" y1="142.07" x2="173.45" y2="139.76" xlink:href="#linear-gradient-2"/>
    <linearGradient id="linear-gradient-22" x1="156.61" y1="170.94" x2="156.61" y2="168.63" xlink:href="#linear-gradient-2"/>
    <linearGradient id="linear-gradient-23" x1="173.45" y1="170.94" x2="173.45" y2="168.63" xlink:href="#linear-gradient-2"/>
    <linearGradient id="linear-gradient-24" x1="157.81" y1="165.9" x2="169.33" y2="145.95" xlink:href="#linear-gradient-6"/>
    <linearGradient id="linear-gradient-25" x1="178.34" y1="424.53" x2="209.68" y2="442.62" xlink:href="#linear-gradient"/>
    <linearGradient id="linear-gradient-26" x1="185.27" y1="142.07" x2="185.27" y2="139.76" xlink:href="#linear-gradient-2"/>
    <linearGradient id="linear-gradient-27" x1="202.1" y1="142.07" x2="202.1" y2="139.76" xlink:href="#linear-gradient-2"/>
    <linearGradient id="linear-gradient-28" x1="185.27" y1="170.94" x2="185.27" y2="168.63" xlink:href="#linear-gradient-2"/>
    <linearGradient id="linear-gradient-29" x1="202.1" y1="170.94" x2="202.1" y2="168.63" xlink:href="#linear-gradient-2"/>
    <linearGradient id="linear-gradient-30" x1="186.46" y1="165.9" x2="197.98" y2="145.95" xlink:href="#linear-gradient-6"/>
    <linearGradient id="linear-gradient-31" x1="207" y1="424.53" x2="238.33" y2="442.62" xlink:href="#linear-gradient"/>
    <linearGradient id="linear-gradient-32" x1="213.92" y1="142.07" x2="213.92" y2="139.76" xlink:href="#linear-gradient-2"/>
    <linearGradient id="linear-gradient-33" x1="230.76" y1="142.07" x2="230.76" y2="139.76" xlink:href="#linear-gradient-2"/>
    <linearGradient id="linear-gradient-34" x1="213.92" y1="170.94" x2="213.92" y2="168.63" xlink:href="#linear-gradient-2"/>
    <linearGradient id="linear-gradient-35" x1="230.76" y1="170.94" x2="230.76" y2="168.63" xlink:href="#linear-gradient-2"/>
    <linearGradient id="linear-gradient-36" x1="215.11" y1="165.9" x2="226.63" y2="145.95" xlink:href="#linear-gradient-6"/>
    <linearGradient id="linear-gradient-37" x1="235.65" y1="424.53" x2="266.99" y2="442.62" xlink:href="#linear-gradient"/>
    <linearGradient id="linear-gradient-38" x1="242.58" y1="142.07" x2="242.58" y2="139.76" xlink:href="#linear-gradient-2"/>
    <linearGradient id="linear-gradient-39" x1="259.41" y1="142.07" x2="259.41" y2="139.76" xlink:href="#linear-gradient-2"/>
    <linearGradient id="linear-gradient-40" x1="242.58" y1="170.94" x2="242.58" y2="168.63" xlink:href="#linear-gradient-2"/>
    <linearGradient id="linear-gradient-41" x1="259.41" y1="170.94" x2="259.41" y2="168.63" xlink:href="#linear-gradient-2"/>
    <linearGradient id="linear-gradient-42" x1="243.77" y1="165.9" x2="255.29" y2="145.95" xlink:href="#linear-gradient-6"/>
    <linearGradient id="linear-gradient-43" x1="66.73" y1="418.53" x2="98.06" y2="436.62" xlink:href="#linear-gradient"/>
    <linearGradient id="linear-gradient-44" x1="73.65" y1="148.07" x2="73.65" y2="145.76" xlink:href="#linear-gradient-2"/>
    <linearGradient id="linear-gradient-45" x1="90.49" y1="148.07" x2="90.49" y2="145.76" xlink:href="#linear-gradient-2"/>
    <linearGradient id="linear-gradient-46" x1="73.65" y1="176.94" x2="73.65" y2="174.63" xlink:href="#linear-gradient-2"/>
    <linearGradient id="linear-gradient-47" x1="90.49" y1="176.94" x2="90.49" y2="174.63" xlink:href="#linear-gradient-2"/>
    <linearGradient id="linear-gradient-48" x1="74.84" y1="171.9" x2="86.36" y2="151.95" xlink:href="#linear-gradient-6"/>
    <linearGradient id="linear-gradient-49" x1="95.38" y1="418.53" x2="126.72" y2="436.62" xlink:href="#linear-gradient"/>
    <linearGradient id="linear-gradient-50" x1="102.3" y1="148.07" x2="102.3" y2="145.76" xlink:href="#linear-gradient-2"/>
    <linearGradient id="linear-gradient-51" x1="119.14" y1="148.07" x2="119.14" y2="145.76" xlink:href="#linear-gradient-2"/>
    <linearGradient id="linear-gradient-52" x1="102.3" y1="176.94" x2="102.3" y2="174.63" xlink:href="#linear-gradient-2"/>
    <linearGradient id="linear-gradient-53" x1="119.14" y1="176.94" x2="119.14" y2="174.63" xlink:href="#linear-gradient-2"/>
    <linearGradient id="linear-gradient-54" x1="103.5" y1="171.9" x2="115.02" y2="151.95" xlink:href="#linear-gradient-6"/>
    <linearGradient id="linear-gradient-55" x1="124.04" y1="418.53" x2="155.37" y2="436.62" xlink:href="#linear-gradient"/>
    <linearGradient id="linear-gradient-56" x1="130.96" y1="148.07" x2="130.96" y2="145.76" xlink:href="#linear-gradient-2"/>
    <linearGradient id="linear-gradient-57" x1="147.79" y1="148.07" x2="147.79" y2="145.76" xlink:href="#linear-gradient-2"/>
    <linearGradient id="linear-gradient-58" x1="130.96" y1="176.94" x2="130.96" y2="174.63" xlink:href="#linear-gradient-2"/>
    <linearGradient id="linear-gradient-59" x1="147.79" y1="176.94" x2="147.79" y2="174.63" xlink:href="#linear-gradient-2"/>
    <linearGradient id="linear-gradient-60" x1="132.15" y1="171.9" x2="143.67" y2="151.95" xlink:href="#linear-gradient-6"/>
    <linearGradient id="linear-gradient-61" x1="152.69" y1="418.53" x2="184.03" y2="436.62" xlink:href="#linear-gradient"/>
    <linearGradient id="linear-gradient-62" x1="159.61" y1="148.07" x2="159.61" y2="145.76" xlink:href="#linear-gradient-2"/>
    <linearGradient id="linear-gradient-63" x1="176.45" y1="148.07" x2="176.45" y2="145.76" xlink:href="#linear-gradient-2"/>
    <linearGradient id="linear-gradient-64" x1="159.61" y1="176.94" x2="159.61" y2="174.63" xlink:href="#linear-gradient-2"/>
    <linearGradient id="linear-gradient-65" x1="176.45" y1="176.94" x2="176.45" y2="174.63" xlink:href="#linear-gradient-2"/>
    <linearGradient id="linear-gradient-66" x1="160.81" y1="171.9" x2="172.33" y2="151.95" xlink:href="#linear-gradient-6"/>
    <linearGradient id="linear-gradient-67" x1="181.34" y1="418.53" x2="212.68" y2="436.62" xlink:href="#linear-gradient"/>
    <linearGradient id="linear-gradient-68" x1="188.27" y1="148.07" x2="188.27" y2="145.76" xlink:href="#linear-gradient-2"/>
    <linearGradient id="linear-gradient-69" x1="205.1" y1="148.07" x2="205.1" y2="145.76" xlink:href="#linear-gradient-2"/>
    <linearGradient id="linear-gradient-70" x1="188.27" y1="176.94" x2="188.27" y2="174.63" xlink:href="#linear-gradient-2"/>
    <linearGradient id="linear-gradient-71" x1="205.1" y1="176.94" x2="205.1" y2="174.63" xlink:href="#linear-gradient-2"/>
    <linearGradient id="linear-gradient-72" x1="189.46" y1="171.9" x2="200.98" y2="151.95" xlink:href="#linear-gradient-6"/>
    <linearGradient id="linear-gradient-73" x1="210" y1="418.53" x2="241.33" y2="436.62" xlink:href="#linear-gradient"/>
    <linearGradient id="linear-gradient-74" x1="216.92" y1="148.07" x2="216.92" y2="145.76" xlink:href="#linear-gradient-2"/>
    <linearGradient id="linear-gradient-75" x1="233.76" y1="148.07" x2="233.76" y2="145.76" xlink:href="#linear-gradient-2"/>
    <linearGradient id="linear-gradient-76" x1="216.92" y1="176.94" x2="216.92" y2="174.63" xlink:href="#linear-gradient-2"/>
    <linearGradient id="linear-gradient-77" x1="233.76" y1="176.94" x2="233.76" y2="174.63" xlink:href="#linear-gradient-2"/>
    <linearGradient id="linear-gradient-78" x1="218.11" y1="171.9" x2="229.63" y2="151.95" xlink:href="#linear-gradient-6"/>
    <linearGradient id="linear-gradient-79" x1="238.65" y1="418.53" x2="269.99" y2="436.62" xlink:href="#linear-gradient"/>
    <linearGradient id="linear-gradient-80" x1="245.58" y1="148.07" x2="245.58" y2="145.76" xlink:href="#linear-gradient-2"/>
    <linearGradient id="linear-gradient-81" x1="262.41" y1="148.07" x2="262.41" y2="145.76" xlink:href="#linear-gradient-2"/>
    <linearGradient id="linear-gradient-82" x1="245.58" y1="176.94" x2="245.58" y2="174.63" xlink:href="#linear-gradient-2"/>
    <linearGradient id="linear-gradient-83" x1="262.41" y1="176.94" x2="262.41" y2="174.63" xlink:href="#linear-gradient-2"/>
    <linearGradient id="linear-gradient-84" x1="246.77" y1="171.9" x2="258.29" y2="151.95" xlink:href="#linear-gradient-6"/>
    <linearGradient id="linear-gradient-85" x1="40.13" y1="519.32" x2="62.74" y2="519.32" gradientTransform="matrix(1, 0, 0, -1, 0, 588.73)" gradientUnits="userSpaceOnUse">
      <stop offset="0" stop-color="#005ba1"/>
      <stop offset="0.07" stop-color="#0060a9"/>
      <stop offset="0.36" stop-color="#0071c8"/>
      <stop offset="0.52" stop-color="#0078d4"/>
      <stop offset="0.64" stop-color="#0074cd"/>
      <stop offset="0.82" stop-color="#006abb"/>
      <stop offset="1" stop-color="#005ba1"/>
    </linearGradient>
    <linearGradient id="linear-gradient-86" x1="156.05" y1="519.32" x2="178.67" y2="519.32" xlink:href="#linear-gradient-85"/>
    <linearGradient id="linear-gradient-87" x1="276.05" y1="519.32" x2="298.67" y2="519.32" xlink:href="#linear-gradient-85"/>
  </defs>
  <g id="Shapes">
    <rect width="338.88" height="198.41" fill="#fff"/>
    <g>
      <rect x="18.25" y="130.6" width="297.21" height="30.11" fill="#fff"/>
      <rect x="18.25" y="130.6" width="297.21" height="30.11" fill="#3c3c41" opacity="0.15"/>
    </g>
    <g>
      <g>
        <path d="M90.73,171.43a1.25,1.25,0,0,1-1.3,1.18H69.36a1.25,1.25,0,0,1-1.3-1.18V138.88a1.26,1.26,0,0,1,1.3-1.19H89.43a1.26,1.26,0,0,1,1.3,1.19Z" fill="#fff"/>
        <g>
          <g>
            <path d="M90.73,171.43a1.25,1.25,0,0,1-1.3,1.18H69.36a1.25,1.25,0,0,1-1.3-1.18V138.88a1.26,1.26,0,0,1,1.3-1.19H89.43a1.26,1.26,0,0,1,1.3,1.19Z" fill-opacity="0.8" fill="url(#linear-gradient)"/>
            <circle cx="70.65" cy="140.92" r="1.15" fill="url(#linear-gradient-2)"/>
            <circle cx="87.49" cy="140.92" r="1.15" fill="url(#linear-gradient-3)"/>
            <circle cx="70.65" cy="169.78" r="1.15" fill="url(#linear-gradient-4)"/>
            <circle cx="87.49" cy="169.78" r="1.15" fill="url(#linear-gradient-5)"/>
          </g>
          <path d="M79.39,151.06a1.74,1.74,0,0,1,.69.14,1.77,1.77,0,0,1,.55.37,1.92,1.92,0,0,1,.39.57,1.5,1.5,0,0,1,.14.69,1.74,1.74,0,0,1-.14.69,1.9,1.9,0,0,1-.37.55,2.1,2.1,0,0,1-.57.38,1.5,1.5,0,0,1-.69.14,1.56,1.56,0,0,1-.68-.14,1.66,1.66,0,0,1-.56-.37,1.91,1.91,0,0,1-.38-.56,1.5,1.5,0,0,1-.14-.69,1.74,1.74,0,0,1,.14-.69,1.62,1.62,0,0,1,.37-.55,1.8,1.8,0,0,1,.57-.39A1.48,1.48,0,0,1,79.39,151.06Zm0-6.17a7.79,7.79,0,0,1,3.09.62A7.6,7.6,0,0,1,85,147.22a8.36,8.36,0,0,1,1.7,2.52,8,8,0,0,1,.63,3.09,7.83,7.83,0,0,1-.25,2,7.15,7.15,0,0,1-.73,1.81,8,8,0,0,1-1.14,1.56,8.11,8.11,0,0,1-1.49,1.24,8.24,8.24,0,0,1-1.76.87,7.64,7.64,0,0,1-2,.4l-2.9,4.9a1.08,1.08,0,0,1-.32.32.84.84,0,0,1-.44.13h-4a.83.83,0,0,1-.62-.27.82.82,0,0,1-.26-.62v-4a.8.8,0,0,1,.12-.43,1.12,1.12,0,0,1,.32-.33L74.41,159a8.08,8.08,0,0,1-2.17-2.73,7.88,7.88,0,0,1-.78-3.4,7.65,7.65,0,0,1,.62-3.09,7.81,7.81,0,0,1,1.71-2.52,8.12,8.12,0,0,1,2.52-1.7A7.88,7.88,0,0,1,79.39,144.89ZM79.53,158l-6.31,3.72v2.59h2.59Zm1.61.73a6.34,6.34,0,0,0,1.8-.85,6.15,6.15,0,0,0,1.39-1.35,7,7,0,0,0,.91-1.71,5.82,5.82,0,0,0,.33-2,6,6,0,0,0-.48-2.4,6.47,6.47,0,0,0-1.33-2,6.21,6.21,0,0,0-4.37-1.82,6,6,0,0,0-2.39.49,6.22,6.22,0,0,0-3.78,5.69,6.54,6.54,0,0,0,.19,1.53,6.3,6.3,0,0,0,.56,1.4,5.49,5.49,0,0,0,.89,1.23A7.37,7.37,0,0,0,76,158l5.56-3.27a.77.77,0,0,1,.45-.13.85.85,0,0,1,.62.26.87.87,0,0,1,.26.62.9.9,0,0,1-.12.46Z" fill="url(#linear-gradient-6)"/>
        </g>
        <path d="M119.39,171.43a1.26,1.26,0,0,1-1.31,1.18H98a1.26,1.26,0,0,1-1.31-1.18V138.88A1.26,1.26,0,0,1,98,137.69h20.06a1.26,1.26,0,0,1,1.31,1.19Z" fill="#fff"/>
        <path d="M148,171.43a1.26,1.26,0,0,1-1.31,1.18H126.67a1.26,1.26,0,0,1-1.31-1.18V138.88a1.26,1.26,0,0,1,1.31-1.19h20.06a1.26,1.26,0,0,1,1.31,1.19Z" fill="#fff"/>
        <path d="M176.7,171.43a1.26,1.26,0,0,1-1.31,1.18H155.33a1.26,1.26,0,0,1-1.31-1.18V138.88a1.26,1.26,0,0,1,1.31-1.19h20.06a1.26,1.26,0,0,1,1.31,1.19Z" fill="#fff"/>
        <path d="M205.35,171.43a1.26,1.26,0,0,1-1.31,1.18H184a1.26,1.26,0,0,1-1.31-1.18V138.88a1.26,1.26,0,0,1,1.31-1.19H204a1.26,1.26,0,0,1,1.31,1.19Z" fill="#fff"/>
        <path d="M234,171.43a1.25,1.25,0,0,1-1.3,1.18H212.63a1.25,1.25,0,0,1-1.3-1.18V138.88a1.26,1.26,0,0,1,1.3-1.19H232.7a1.25,1.25,0,0,1,1.3,1.19Z" fill="#fff"/>
        <g>
          <g>
            <path d="M119.39,171.43a1.26,1.26,0,0,1-1.31,1.18H98a1.26,1.26,0,0,1-1.31-1.18V138.88A1.26,1.26,0,0,1,98,137.69h20.06a1.26,1.26,0,0,1,1.31,1.19Z" fill-opacity="0.8" fill="url(#linear-gradient-7)"/>
            <circle cx="99.3" cy="140.92" r="1.15" fill="url(#linear-gradient-8)"/>
            <circle cx="116.14" cy="140.92" r="1.15" fill="url(#linear-gradient-9)"/>
            <circle cx="99.3" cy="169.78" r="1.15" fill="url(#linear-gradient-10)"/>
            <circle cx="116.14" cy="169.78" r="1.15" fill="url(#linear-gradient-11)"/>
          </g>
          <path d="M108.05,151.06a1.74,1.74,0,0,1,.69.14,1.9,1.9,0,0,1,.55.37,2.1,2.1,0,0,1,.38.57,1.38,1.38,0,0,1,.14.69,1.58,1.58,0,0,1-.14.69,1.72,1.72,0,0,1-.37.55,1.91,1.91,0,0,1-.56.38,1.5,1.5,0,0,1-.69.14,1.58,1.58,0,0,1-.69-.14,1.62,1.62,0,0,1-.55-.37,1.76,1.76,0,0,1-.39-.56,1.64,1.64,0,0,1-.14-.69,1.74,1.74,0,0,1,.14-.69,1.77,1.77,0,0,1,.37-.55,1.92,1.92,0,0,1,.57-.39A1.5,1.5,0,0,1,108.05,151.06Zm0-6.17a7.83,7.83,0,0,1,5.61,2.33,8.33,8.33,0,0,1,1.69,2.52,7.8,7.8,0,0,1,.64,3.09,8.3,8.3,0,0,1-.25,2,7.54,7.54,0,0,1-.73,1.81,8.14,8.14,0,0,1-2.63,2.8,8.31,8.31,0,0,1-1.77.87,7.49,7.49,0,0,1-2,.4l-2.91,4.9a1,1,0,0,1-.32.32.81.81,0,0,1-.44.13h-4a.84.84,0,0,1-.62-.27.85.85,0,0,1-.26-.62v-4a.73.73,0,0,1,.13-.43,1.08,1.08,0,0,1,.31-.33l2.51-1.49a7.93,7.93,0,0,1-2.16-2.73,7.85,7.85,0,0,1-.17-6.49,8,8,0,0,1,1.71-2.52,8.36,8.36,0,0,1,2.52-1.7A8,8,0,0,1,108.05,144.89Zm.14,13.09-6.31,3.72v2.59h2.59Zm1.61.73a6.28,6.28,0,0,0,1.79-.85,6,6,0,0,0,1.39-1.35,6.7,6.7,0,0,0,.91-1.71,5.82,5.82,0,0,0,.33-2,6,6,0,0,0-.48-2.4,6.22,6.22,0,0,0-5.69-3.78,6,6,0,0,0-2.4.49,6.27,6.27,0,0,0-2,1.32,6.16,6.16,0,0,0-1.32,2,6.2,6.2,0,0,0-.3,3.94,6.27,6.27,0,0,0,.55,1.4,5.88,5.88,0,0,0,.9,1.23,6.58,6.58,0,0,0,1.17,1l5.55-3.27a.81.81,0,0,1,.45-.13.85.85,0,0,1,.62.26.84.84,0,0,1,.27.62.91.91,0,0,1-.13.46Z" fill="url(#linear-gradient-12)"/>
        </g>
        <g>
          <g>
            <path d="M148,171.43a1.26,1.26,0,0,1-1.31,1.18H126.67a1.26,1.26,0,0,1-1.31-1.18V138.88a1.26,1.26,0,0,1,1.31-1.19h20.06a1.26,1.26,0,0,1,1.31,1.19Z" fill-opacity="0.8" fill="url(#linear-gradient-13)"/>
            <circle cx="127.96" cy="140.92" r="1.15" fill="url(#linear-gradient-14)"/>
            <circle cx="144.79" cy="140.92" r="1.15" fill="url(#linear-gradient-15)"/>
            <circle cx="127.96" cy="169.78" r="1.15" fill="url(#linear-gradient-16)"/>
            <circle cx="144.79" cy="169.78" r="1.15" fill="url(#linear-gradient-17)"/>
          </g>
          <path d="M136.7,151.06a1.74,1.74,0,0,1,.69.14,1.77,1.77,0,0,1,.55.37,1.92,1.92,0,0,1,.39.57,1.5,1.5,0,0,1,.14.69,1.74,1.74,0,0,1-.14.69,1.9,1.9,0,0,1-.37.55,2.1,2.1,0,0,1-.57.38,1.5,1.5,0,0,1-.69.14,1.64,1.64,0,0,1-.69-.14,1.72,1.72,0,0,1-.55-.37,1.91,1.91,0,0,1-.38-.56,1.5,1.5,0,0,1-.14-.69,1.74,1.74,0,0,1,.14-.69,1.62,1.62,0,0,1,.37-.55,1.87,1.87,0,0,1,.56-.39A1.5,1.5,0,0,1,136.7,151.06Zm0-6.17a7.83,7.83,0,0,1,5.61,2.33,8.36,8.36,0,0,1,1.7,2.52,8,8,0,0,1,.63,3.09,7.83,7.83,0,0,1-.25,2,7.15,7.15,0,0,1-.73,1.81,8,8,0,0,1-1.14,1.56,8.11,8.11,0,0,1-1.49,1.24,8.24,8.24,0,0,1-1.76.87,7.64,7.64,0,0,1-2,.4l-2.91,4.9a1,1,0,0,1-.31.32.84.84,0,0,1-.44.13h-4a.83.83,0,0,1-.62-.27.82.82,0,0,1-.26-.62v-4a.8.8,0,0,1,.12-.43,1.12,1.12,0,0,1,.32-.33l2.5-1.49a8.18,8.18,0,0,1-2.16-2.73,7.88,7.88,0,0,1-.78-3.4,7.65,7.65,0,0,1,.62-3.09,8,8,0,0,1,1.7-2.52,8.28,8.28,0,0,1,2.53-1.7A7.88,7.88,0,0,1,136.7,144.89Zm.14,13.09-6.31,3.72v2.59h2.59Zm1.61.73a6.15,6.15,0,0,0,1.79-.85,6,6,0,0,0,1.4-1.35,7.39,7.39,0,0,0,.91-1.71,6.09,6.09,0,0,0-.16-4.37,6.27,6.27,0,0,0-1.32-2,6.25,6.25,0,0,0-4.37-1.82,6,6,0,0,0-2.39.49,6.17,6.17,0,0,0-3.28,3.28,6.13,6.13,0,0,0-.31,3.94,6.79,6.79,0,0,0,.55,1.4,5.88,5.88,0,0,0,.9,1.23,7.37,7.37,0,0,0,1.17,1l5.55-3.27a.82.82,0,0,1,.46-.13.89.89,0,0,1,.88.88.9.9,0,0,1-.12.46Z" fill="url(#linear-gradient-18)"/>
        </g>
        <g>
          <g>
            <path d="M176.7,171.43a1.26,1.26,0,0,1-1.31,1.18H155.33a1.26,1.26,0,0,1-1.31-1.18V138.88a1.26,1.26,0,0,1,1.31-1.19h20.06a1.26,1.26,0,0,1,1.31,1.19Z" fill-opacity="0.8" fill="url(#linear-gradient-19)"/>
            <circle cx="156.61" cy="140.92" r="1.15" fill="url(#linear-gradient-20)"/>
            <circle cx="173.45" cy="140.92" r="1.15" fill="url(#linear-gradient-21)"/>
            <circle cx="156.61" cy="169.78" r="1.15" fill="url(#linear-gradient-22)"/>
            <circle cx="173.45" cy="169.78" r="1.15" fill="url(#linear-gradient-23)"/>
          </g>
          <path d="M165.36,151.06a1.74,1.74,0,0,1,.69.14,1.9,1.9,0,0,1,.55.37,2.1,2.1,0,0,1,.38.57,1.5,1.5,0,0,1,.14.69,1.58,1.58,0,0,1-.14.69,1.72,1.72,0,0,1-.37.55,1.91,1.91,0,0,1-.56.38,1.5,1.5,0,0,1-.69.14,1.58,1.58,0,0,1-.69-.14,1.62,1.62,0,0,1-.55-.37,1.76,1.76,0,0,1-.39-.56,1.5,1.5,0,0,1-.14-.69,1.74,1.74,0,0,1,.14-.69,1.77,1.77,0,0,1,.37-.55,1.92,1.92,0,0,1,.57-.39A1.5,1.5,0,0,1,165.36,151.06Zm0-6.17a7.88,7.88,0,0,1,5.61,2.33,8.33,8.33,0,0,1,1.69,2.52,7.79,7.79,0,0,1,.63,3.09,8.3,8.3,0,0,1-.24,2,7.54,7.54,0,0,1-.73,1.81,8.49,8.49,0,0,1-1.15,1.56,7.79,7.79,0,0,1-1.49,1.24,8.24,8.24,0,0,1-1.76.87,7.57,7.57,0,0,1-2,.4l-2.91,4.9a1,1,0,0,1-.32.32.81.81,0,0,1-.44.13h-4a.84.84,0,0,1-.62-.27.85.85,0,0,1-.26-.62v-4a.8.8,0,0,1,.12-.43,1.26,1.26,0,0,1,.32-.33l2.51-1.49a7.93,7.93,0,0,1-2.16-2.73,7.84,7.84,0,0,1,1.54-9,8.23,8.23,0,0,1,2.52-1.7A8,8,0,0,1,165.36,144.89ZM165.5,158l-6.32,3.72v2.59h2.59Zm1.61.73a6.28,6.28,0,0,0,1.79-.85,6.15,6.15,0,0,0,1.39-1.35,6.7,6.7,0,0,0,.91-1.71,5.82,5.82,0,0,0,.33-2,6,6,0,0,0-.48-2.4,6.22,6.22,0,0,0-5.69-3.78,6,6,0,0,0-2.4.49,6.27,6.27,0,0,0-2,1.32,6.25,6.25,0,0,0-1.82,4.37,6.06,6.06,0,0,0,.2,1.53,6.27,6.27,0,0,0,.55,1.4,6.2,6.2,0,0,0,.89,1.23,7,7,0,0,0,1.18,1l5.55-3.27a.81.81,0,0,1,.45-.13.85.85,0,0,1,.62.26.83.83,0,0,1,.26.62.9.9,0,0,1-.12.46Z" fill="url(#linear-gradient-24)"/>
        </g>
        <g>
          <g>
            <path d="M205.35,171.43a1.26,1.26,0,0,1-1.31,1.18H184a1.26,1.26,0,0,1-1.31-1.18V138.88a1.26,1.26,0,0,1,1.31-1.19H204a1.26,1.26,0,0,1,1.31,1.19Z" fill-opacity="0.8" fill="url(#linear-gradient-25)"/>
            <circle cx="185.27" cy="140.92" r="1.15" fill="url(#linear-gradient-26)"/>
            <circle cx="202.1" cy="140.92" r="1.15" fill="url(#linear-gradient-27)"/>
            <circle cx="185.27" cy="169.78" r="1.15" fill="url(#linear-gradient-28)"/>
            <circle cx="202.1" cy="169.78" r="1.15" fill="url(#linear-gradient-29)"/>
          </g>
          <path d="M194,151.06a1.74,1.74,0,0,1,.69.14,1.77,1.77,0,0,1,.55.37,1.92,1.92,0,0,1,.39.57,1.64,1.64,0,0,1,.14.69,1.74,1.74,0,0,1-.14.69,1.9,1.9,0,0,1-.37.55,2.1,2.1,0,0,1-.57.38,1.5,1.5,0,0,1-.69.14,1.58,1.58,0,0,1-.69-.14,1.72,1.72,0,0,1-.55-.37,1.91,1.91,0,0,1-.38-.56,1.38,1.38,0,0,1-.14-.69,1.58,1.58,0,0,1,.14-.69,1.62,1.62,0,0,1,.37-.55,1.76,1.76,0,0,1,.56-.39A1.5,1.5,0,0,1,194,151.06Zm0-6.17a7.83,7.83,0,0,1,5.61,2.33,8.15,8.15,0,0,1,1.69,2.52,7.91,7.91,0,0,1,.39,5.09,7.15,7.15,0,0,1-.73,1.81,8,8,0,0,1-1.14,1.56,8.26,8.26,0,0,1-3.26,2.11,7.49,7.49,0,0,1-2,.4l-2.91,4.9a1.05,1.05,0,0,1-.31.32.84.84,0,0,1-.44.13h-4a.92.92,0,0,1-.89-.89v-4a.8.8,0,0,1,.13-.43,1.12,1.12,0,0,1,.32-.33L189,159a8.05,8.05,0,0,1-2.16-2.73,7.89,7.89,0,0,1-.79-3.4,7.66,7.66,0,0,1,.63-3.09,8,8,0,0,1,1.7-2.52,8.28,8.28,0,0,1,2.53-1.7A7.88,7.88,0,0,1,194,144.89Zm.14,13.09-6.31,3.72v2.59h2.59Zm1.61.73a6.28,6.28,0,0,0,1.79-.85,5.76,5.76,0,0,0,1.39-1.35,6.7,6.7,0,0,0,.91-1.71,5.82,5.82,0,0,0,.33-2,6,6,0,0,0-.48-2.4,6.27,6.27,0,0,0-1.32-2,6.25,6.25,0,0,0-4.37-1.82,6.06,6.06,0,0,0-2.4.49,6.22,6.22,0,0,0-2,1.32,6.35,6.35,0,0,0-1.33,2,6.17,6.17,0,0,0-.49,2.41,6.05,6.05,0,0,0,.19,1.53,6.27,6.27,0,0,0,.55,1.4,5.88,5.88,0,0,0,.9,1.23,7.37,7.37,0,0,0,1.17,1l5.55-3.27a.82.82,0,0,1,.46-.13.89.89,0,0,1,.88.88.9.9,0,0,1-.12.46Z" fill="url(#linear-gradient-30)"/>
        </g>
        <g>
          <g>
            <path d="M234,171.43a1.25,1.25,0,0,1-1.3,1.18H212.63a1.25,1.25,0,0,1-1.3-1.18V138.88a1.26,1.26,0,0,1,1.3-1.19H232.7a1.25,1.25,0,0,1,1.3,1.19Z" fill-opacity="0.8" fill="url(#linear-gradient-31)"/>
            <circle cx="213.92" cy="140.92" r="1.15" fill="url(#linear-gradient-32)"/>
            <circle cx="230.76" cy="140.92" r="1.15" fill="url(#linear-gradient-33)"/>
            <circle cx="213.92" cy="169.78" r="1.15" fill="url(#linear-gradient-34)"/>
            <circle cx="230.76" cy="169.78" r="1.15" fill="url(#linear-gradient-35)"/>
          </g>
          <path d="M222.67,151.06a1.81,1.81,0,0,1,.69.14,1.9,1.9,0,0,1,.55.37,2.1,2.1,0,0,1,.38.57,1.5,1.5,0,0,1,.14.69,1.75,1.75,0,0,1-.51,1.24,2,2,0,0,1-.56.38,1.55,1.55,0,0,1-.69.14,1.58,1.58,0,0,1-.69-.14,1.62,1.62,0,0,1-.55-.37,1.76,1.76,0,0,1-.39-.56,1.5,1.5,0,0,1-.14-.69,1.74,1.74,0,0,1,.14-.69,1.77,1.77,0,0,1,.37-.55,1.92,1.92,0,0,1,.57-.39A1.5,1.5,0,0,1,222.67,151.06Zm0-6.17a7.77,7.77,0,0,1,3.08.62,7.6,7.6,0,0,1,2.52,1.71,8.18,8.18,0,0,1,1.7,2.52,8,8,0,0,1,.63,3.09,7.83,7.83,0,0,1-.25,2,6.8,6.8,0,0,1-.73,1.81,8,8,0,0,1-1.14,1.56,8.11,8.11,0,0,1-1.49,1.24,8.24,8.24,0,0,1-1.76.87,7.64,7.64,0,0,1-2,.4l-2.9,4.9a1.08,1.08,0,0,1-.32.32.84.84,0,0,1-.44.13h-4a.84.84,0,0,1-.62-.27.85.85,0,0,1-.26-.62v-4a.8.8,0,0,1,.12-.43,1.26,1.26,0,0,1,.32-.33l2.51-1.49a8.08,8.08,0,0,1-2.17-2.73,7.86,7.86,0,0,1,1.55-9,8.12,8.12,0,0,1,2.52-1.7A7.9,7.9,0,0,1,222.67,144.89ZM222.8,158l-6.31,3.72v2.59h2.59Zm1.62.73a6.28,6.28,0,0,0,1.79-.85,6.15,6.15,0,0,0,1.39-1.35,7,7,0,0,0,.91-1.71,5.82,5.82,0,0,0,.33-2,6,6,0,0,0-.48-2.4,6.3,6.3,0,0,0-1.33-2,6.21,6.21,0,0,0-4.36-1.82,6,6,0,0,0-2.4.49,6.22,6.22,0,0,0-3.78,5.69,6.06,6.06,0,0,0,.2,1.53,6,6,0,0,0,1.44,2.63,7.37,7.37,0,0,0,1.17,1l5.56-3.27a.79.79,0,0,1,.45-.13.85.85,0,0,1,.62.26.83.83,0,0,1,.26.62.9.9,0,0,1-.12.46Z" fill="url(#linear-gradient-36)"/>
        </g>
        <path d="M262.66,171.43a1.26,1.26,0,0,1-1.31,1.18H241.29a1.26,1.26,0,0,1-1.31-1.18V138.88a1.26,1.26,0,0,1,1.31-1.19h20.06a1.26,1.26,0,0,1,1.31,1.19Z" fill="#fff"/>
        <path d="M262.66,171.43a1.26,1.26,0,0,1-1.31,1.18H241.29a1.26,1.26,0,0,1-1.31-1.18V138.88a1.26,1.26,0,0,1,1.31-1.19h20.06a1.26,1.26,0,0,1,1.31,1.19Z" fill-opacity="0.8" fill="url(#linear-gradient-37)"/>
        <circle cx="242.58" cy="140.92" r="1.15" fill="url(#linear-gradient-38)"/>
        <circle cx="259.41" cy="140.92" r="1.15" fill="url(#linear-gradient-39)"/>
        <circle cx="242.58" cy="169.78" r="1.15" fill="url(#linear-gradient-40)"/>
        <circle cx="259.41" cy="169.78" r="1.15" fill="url(#linear-gradient-41)"/>
        <path d="M251.32,151.06a1.74,1.74,0,0,1,.69.14,1.9,1.9,0,0,1,.55.37,1.92,1.92,0,0,1,.39.57,1.49,1.49,0,0,1,.13.69,1.73,1.73,0,0,1-.13.69,1.93,1.93,0,0,1-.38.55,1.91,1.91,0,0,1-.56.38,1.5,1.5,0,0,1-.69.14,1.58,1.58,0,0,1-.69-.14,1.72,1.72,0,0,1-.55-.37,1.93,1.93,0,0,1-.39-.56,1.49,1.49,0,0,1-.13-.69,1.73,1.73,0,0,1,.13-.69,1.8,1.8,0,0,1,.38-.55,1.76,1.76,0,0,1,.56-.39A1.5,1.5,0,0,1,251.32,151.06Zm0-6.17a7.83,7.83,0,0,1,5.61,2.33,8.15,8.15,0,0,1,1.69,2.52,7.8,7.8,0,0,1,.64,3.09,8.3,8.3,0,0,1-.25,2,7.54,7.54,0,0,1-.73,1.81,8,8,0,0,1-1.14,1.56,8.46,8.46,0,0,1-1.49,1.24,8.09,8.09,0,0,1-1.77.87,7.49,7.49,0,0,1-2,.4l-2.91,4.9a1,1,0,0,1-.32.32.79.79,0,0,1-.44.13h-4a.92.92,0,0,1-.89-.89v-4a.8.8,0,0,1,.13-.43,1.22,1.22,0,0,1,.31-.33l2.51-1.49a7.93,7.93,0,0,1-2.16-2.73,7.85,7.85,0,0,1-.17-6.49,8.14,8.14,0,0,1,1.71-2.52,8.36,8.36,0,0,1,2.52-1.7A8,8,0,0,1,251.32,144.89Zm.14,13.09-6.31,3.72v2.59h2.59Zm1.61.73a6.28,6.28,0,0,0,1.79-.85,6,6,0,0,0,1.39-1.35,6.7,6.7,0,0,0,.91-1.71,5.82,5.82,0,0,0,.33-2,6,6,0,0,0-.48-2.4,6.27,6.27,0,0,0-1.32-2,6.16,6.16,0,0,0-2-1.32,6.22,6.22,0,0,0-2.41-.5,6.06,6.06,0,0,0-2.4.49,6.22,6.22,0,0,0-1.95,1.32,6.35,6.35,0,0,0-1.33,2,6.17,6.17,0,0,0-.49,2.41,6.05,6.05,0,0,0,.19,1.53,6.27,6.27,0,0,0,.55,1.4,5.88,5.88,0,0,0,.9,1.23,7.37,7.37,0,0,0,1.17,1l5.55-3.27a.82.82,0,0,1,.46-.13.89.89,0,0,1,.62.26.87.87,0,0,1,.26.62.82.82,0,0,1-.13.46Z" fill="url(#linear-gradient-42)"/>
      </g>
      <g>
        <path d="M93.73,177.43a1.25,1.25,0,0,1-1.3,1.18H72.36a1.25,1.25,0,0,1-1.3-1.18V144.88a1.26,1.26,0,0,1,1.3-1.19H92.43a1.26,1.26,0,0,1,1.3,1.19Z" fill="#fff"/>
        <g>
          <g>
            <path d="M93.73,177.43a1.25,1.25,0,0,1-1.3,1.18H72.36a1.25,1.25,0,0,1-1.3-1.18V144.88a1.26,1.26,0,0,1,1.3-1.19H92.43a1.26,1.26,0,0,1,1.3,1.19Z" fill-opacity="0.8" fill="url(#linear-gradient-43)"/>
            <circle cx="73.65" cy="146.92" r="1.15" fill="url(#linear-gradient-44)"/>
            <circle cx="90.49" cy="146.92" r="1.15" fill="url(#linear-gradient-45)"/>
            <circle cx="73.65" cy="175.78" r="1.15" fill="url(#linear-gradient-46)"/>
            <circle cx="90.49" cy="175.78" r="1.15" fill="url(#linear-gradient-47)"/>
          </g>
          <path d="M82.39,157.06a1.74,1.74,0,0,1,.69.14,1.77,1.77,0,0,1,.55.37,1.92,1.92,0,0,1,.39.57,1.5,1.5,0,0,1,.14.69,1.74,1.74,0,0,1-.14.69,1.9,1.9,0,0,1-.37.55,2.1,2.1,0,0,1-.57.38,1.5,1.5,0,0,1-.69.14,1.56,1.56,0,0,1-.68-.14,1.66,1.66,0,0,1-.56-.37,1.91,1.91,0,0,1-.38-.56,1.5,1.5,0,0,1-.14-.69,1.74,1.74,0,0,1,.14-.69,1.62,1.62,0,0,1,.37-.55,1.8,1.8,0,0,1,.57-.39A1.48,1.48,0,0,1,82.39,157.06Zm0-6.17a7.79,7.79,0,0,1,3.09.62A7.6,7.6,0,0,1,88,153.22a8.36,8.36,0,0,1,1.7,2.52,8,8,0,0,1,.63,3.09,7.83,7.83,0,0,1-.25,2,7.15,7.15,0,0,1-.73,1.81,8,8,0,0,1-1.14,1.56,8.11,8.11,0,0,1-1.49,1.24,8.24,8.24,0,0,1-1.76.87,7.64,7.64,0,0,1-2,.4l-2.9,4.9a1.08,1.08,0,0,1-.32.32.84.84,0,0,1-.44.13h-4a.83.83,0,0,1-.62-.27.82.82,0,0,1-.26-.62v-4a.8.8,0,0,1,.12-.43,1.12,1.12,0,0,1,.32-.33L77.41,165a8.08,8.08,0,0,1-2.17-2.73,7.88,7.88,0,0,1-.78-3.4,7.65,7.65,0,0,1,.62-3.09,7.81,7.81,0,0,1,1.71-2.52,8.12,8.12,0,0,1,2.52-1.7A7.88,7.88,0,0,1,82.39,150.89ZM82.53,164l-6.31,3.72v2.59h2.59Zm1.61.73a6.34,6.34,0,0,0,1.8-.85,6.15,6.15,0,0,0,1.39-1.35,7,7,0,0,0,.91-1.71,5.82,5.82,0,0,0,.33-2,6,6,0,0,0-.48-2.4,6.47,6.47,0,0,0-1.33-2,6.21,6.21,0,0,0-4.37-1.82,6,6,0,0,0-2.39.49,6.22,6.22,0,0,0-3.78,5.69,6.54,6.54,0,0,0,.19,1.53,6.3,6.3,0,0,0,.56,1.4,5.49,5.49,0,0,0,.89,1.23A7.37,7.37,0,0,0,79,164l5.56-3.27a.77.77,0,0,1,.45-.13.85.85,0,0,1,.62.26.87.87,0,0,1,.26.62.9.9,0,0,1-.12.46Z" fill="url(#linear-gradient-48)"/>
        </g>
        <path d="M122.39,177.43a1.26,1.26,0,0,1-1.31,1.18H101a1.26,1.26,0,0,1-1.31-1.18V144.88a1.26,1.26,0,0,1,1.31-1.19h20.06a1.26,1.26,0,0,1,1.31,1.19Z" fill="#fff"/>
        <path d="M151,177.43a1.26,1.26,0,0,1-1.31,1.18H129.67a1.26,1.26,0,0,1-1.31-1.18V144.88a1.26,1.26,0,0,1,1.31-1.19h20.06a1.26,1.26,0,0,1,1.31,1.19Z" fill="#fff"/>
        <path d="M179.7,177.43a1.26,1.26,0,0,1-1.31,1.18H158.33a1.26,1.26,0,0,1-1.31-1.18V144.88a1.26,1.26,0,0,1,1.31-1.19h20.06a1.26,1.26,0,0,1,1.31,1.19Z" fill="#fff"/>
        <path d="M208.35,177.43a1.26,1.26,0,0,1-1.31,1.18H187a1.26,1.26,0,0,1-1.31-1.18V144.88a1.26,1.26,0,0,1,1.31-1.19H207a1.26,1.26,0,0,1,1.31,1.19Z" fill="#fff"/>
        <path d="M237,177.43a1.25,1.25,0,0,1-1.3,1.18H215.63a1.25,1.25,0,0,1-1.3-1.18V144.88a1.26,1.26,0,0,1,1.3-1.19H235.7a1.25,1.25,0,0,1,1.3,1.19Z" fill="#fff"/>
        <g>
          <g>
            <path d="M122.39,177.43a1.26,1.26,0,0,1-1.31,1.18H101a1.26,1.26,0,0,1-1.31-1.18V144.88a1.26,1.26,0,0,1,1.31-1.19h20.06a1.26,1.26,0,0,1,1.31,1.19Z" fill-opacity="0.8" fill="url(#linear-gradient-49)"/>
            <circle cx="102.3" cy="146.92" r="1.15" fill="url(#linear-gradient-50)"/>
            <circle cx="119.14" cy="146.92" r="1.15" fill="url(#linear-gradient-51)"/>
            <circle cx="102.3" cy="175.78" r="1.15" fill="url(#linear-gradient-52)"/>
            <circle cx="119.14" cy="175.78" r="1.15" fill="url(#linear-gradient-53)"/>
          </g>
          <path d="M111.05,157.06a1.74,1.74,0,0,1,.69.14,1.9,1.9,0,0,1,.55.37,2.1,2.1,0,0,1,.38.57,1.38,1.38,0,0,1,.14.69,1.58,1.58,0,0,1-.14.69,1.72,1.72,0,0,1-.37.55,1.91,1.91,0,0,1-.56.38,1.5,1.5,0,0,1-.69.14,1.58,1.58,0,0,1-.69-.14,1.62,1.62,0,0,1-.55-.37,1.76,1.76,0,0,1-.39-.56,1.64,1.64,0,0,1-.14-.69,1.74,1.74,0,0,1,.14-.69,1.77,1.77,0,0,1,.37-.55,1.92,1.92,0,0,1,.57-.39A1.5,1.5,0,0,1,111.05,157.06Zm0-6.17a7.83,7.83,0,0,1,5.61,2.33,8.33,8.33,0,0,1,1.69,2.52,7.8,7.8,0,0,1,.64,3.09,8.3,8.3,0,0,1-.25,2,7.54,7.54,0,0,1-.73,1.81,8.14,8.14,0,0,1-2.63,2.8,8.31,8.31,0,0,1-1.77.87,7.49,7.49,0,0,1-2,.4l-2.91,4.9a1,1,0,0,1-.32.32.81.81,0,0,1-.44.13h-4a.84.84,0,0,1-.62-.27.85.85,0,0,1-.26-.62v-4a.73.73,0,0,1,.13-.43,1.08,1.08,0,0,1,.31-.33l2.51-1.49a7.93,7.93,0,0,1-2.16-2.73,7.85,7.85,0,0,1-.17-6.49,8,8,0,0,1,1.71-2.52,8.36,8.36,0,0,1,2.52-1.7A8,8,0,0,1,111.05,150.89Zm.14,13.09-6.31,3.72v2.59h2.59Zm1.61.73a6.28,6.28,0,0,0,1.79-.85,6,6,0,0,0,1.39-1.35,6.7,6.7,0,0,0,.91-1.71,5.82,5.82,0,0,0,.33-2,6,6,0,0,0-.48-2.4,6.22,6.22,0,0,0-5.69-3.78,6,6,0,0,0-2.4.49,6.27,6.27,0,0,0-2,1.32,6.16,6.16,0,0,0-1.32,2,6.2,6.2,0,0,0-.3,3.94,6.27,6.27,0,0,0,.55,1.4,5.88,5.88,0,0,0,.9,1.23,6.58,6.58,0,0,0,1.17,1l5.55-3.27a.81.81,0,0,1,.45-.13.85.85,0,0,1,.62.26.84.84,0,0,1,.27.62.91.91,0,0,1-.13.46Z" fill="url(#linear-gradient-54)"/>
        </g>
        <g>
          <g>
            <path d="M151,177.43a1.26,1.26,0,0,1-1.31,1.18H129.67a1.26,1.26,0,0,1-1.31-1.18V144.88a1.26,1.26,0,0,1,1.31-1.19h20.06a1.26,1.26,0,0,1,1.31,1.19Z" fill-opacity="0.8" fill="url(#linear-gradient-55)"/>
            <circle cx="130.96" cy="146.92" r="1.15" fill="url(#linear-gradient-56)"/>
            <circle cx="147.79" cy="146.92" r="1.15" fill="url(#linear-gradient-57)"/>
            <circle cx="130.96" cy="175.78" r="1.15" fill="url(#linear-gradient-58)"/>
            <circle cx="147.79" cy="175.78" r="1.15" fill="url(#linear-gradient-59)"/>
          </g>
          <path d="M139.7,157.06a1.74,1.74,0,0,1,.69.14,1.77,1.77,0,0,1,.55.37,1.92,1.92,0,0,1,.39.57,1.5,1.5,0,0,1,.14.69,1.74,1.74,0,0,1-.14.69,1.9,1.9,0,0,1-.37.55,2.1,2.1,0,0,1-.57.38,1.5,1.5,0,0,1-.69.14,1.64,1.64,0,0,1-.69-.14,1.72,1.72,0,0,1-.55-.37,1.91,1.91,0,0,1-.38-.56,1.5,1.5,0,0,1-.14-.69,1.74,1.74,0,0,1,.14-.69,1.62,1.62,0,0,1,.37-.55,1.87,1.87,0,0,1,.56-.39A1.5,1.5,0,0,1,139.7,157.06Zm0-6.17a7.83,7.83,0,0,1,5.61,2.33,8.36,8.36,0,0,1,1.7,2.52,8,8,0,0,1,.63,3.09,7.83,7.83,0,0,1-.25,2,7.15,7.15,0,0,1-.73,1.81,8,8,0,0,1-1.14,1.56,8.11,8.11,0,0,1-1.49,1.24,8.24,8.24,0,0,1-1.76.87,7.64,7.64,0,0,1-2,.4l-2.91,4.9a1,1,0,0,1-.31.32.84.84,0,0,1-.44.13h-4a.83.83,0,0,1-.62-.27.82.82,0,0,1-.26-.62v-4a.8.8,0,0,1,.12-.43,1.12,1.12,0,0,1,.32-.33l2.5-1.49a8.18,8.18,0,0,1-2.16-2.73,7.88,7.88,0,0,1-.78-3.4,7.65,7.65,0,0,1,.62-3.09,8,8,0,0,1,1.7-2.52,8.28,8.28,0,0,1,2.53-1.7A7.88,7.88,0,0,1,139.7,150.89Zm.14,13.09-6.31,3.72v2.59h2.59Zm1.61.73a6.15,6.15,0,0,0,1.79-.85,6,6,0,0,0,1.4-1.35,7.39,7.39,0,0,0,.91-1.71,6.09,6.09,0,0,0-.16-4.37,6.27,6.27,0,0,0-1.32-2,6.25,6.25,0,0,0-4.37-1.82,6,6,0,0,0-2.39.49,6.17,6.17,0,0,0-3.28,3.28,6.13,6.13,0,0,0-.31,3.94,6.79,6.79,0,0,0,.55,1.4,5.88,5.88,0,0,0,.9,1.23,7.37,7.37,0,0,0,1.17,1l5.55-3.27a.82.82,0,0,1,.46-.13.89.89,0,0,1,.88.88.9.9,0,0,1-.12.46Z" fill="url(#linear-gradient-60)"/>
        </g>
        <g>
          <g>
            <path d="M179.7,177.43a1.26,1.26,0,0,1-1.31,1.18H158.33a1.26,1.26,0,0,1-1.31-1.18V144.88a1.26,1.26,0,0,1,1.31-1.19h20.06a1.26,1.26,0,0,1,1.31,1.19Z" fill-opacity="0.8" fill="url(#linear-gradient-61)"/>
            <circle cx="159.61" cy="146.92" r="1.15" fill="url(#linear-gradient-62)"/>
            <circle cx="176.45" cy="146.92" r="1.15" fill="url(#linear-gradient-63)"/>
            <circle cx="159.61" cy="175.78" r="1.15" fill="url(#linear-gradient-64)"/>
            <circle cx="176.45" cy="175.78" r="1.15" fill="url(#linear-gradient-65)"/>
          </g>
          <path d="M168.36,157.06a1.74,1.74,0,0,1,.69.14,1.9,1.9,0,0,1,.55.37,2.1,2.1,0,0,1,.38.57,1.5,1.5,0,0,1,.14.69,1.58,1.58,0,0,1-.14.69,1.72,1.72,0,0,1-.37.55,1.91,1.91,0,0,1-.56.38,1.5,1.5,0,0,1-.69.14,1.58,1.58,0,0,1-.69-.14,1.62,1.62,0,0,1-.55-.37,1.76,1.76,0,0,1-.39-.56,1.5,1.5,0,0,1-.14-.69,1.74,1.74,0,0,1,.14-.69,1.77,1.77,0,0,1,.37-.55,1.92,1.92,0,0,1,.57-.39A1.5,1.5,0,0,1,168.36,157.06Zm0-6.17a7.88,7.88,0,0,1,5.61,2.33,8.33,8.33,0,0,1,1.69,2.52,7.79,7.79,0,0,1,.63,3.09,8.3,8.3,0,0,1-.24,2,7.54,7.54,0,0,1-.73,1.81,8.49,8.49,0,0,1-1.15,1.56,7.79,7.79,0,0,1-1.49,1.24,8.24,8.24,0,0,1-1.76.87,7.57,7.57,0,0,1-2,.4l-2.91,4.9a1,1,0,0,1-.32.32.81.81,0,0,1-.44.13h-4a.84.84,0,0,1-.62-.27.85.85,0,0,1-.26-.62v-4a.8.8,0,0,1,.12-.43,1.26,1.26,0,0,1,.32-.33l2.51-1.49a7.93,7.93,0,0,1-2.16-2.73,7.84,7.84,0,0,1,1.54-9,8.23,8.23,0,0,1,2.52-1.7A8,8,0,0,1,168.36,150.89ZM168.5,164l-6.32,3.72v2.59h2.59Zm1.61.73a6.28,6.28,0,0,0,1.79-.85,6.15,6.15,0,0,0,1.39-1.35,6.7,6.7,0,0,0,.91-1.71,5.82,5.82,0,0,0,.33-2,6,6,0,0,0-.48-2.4,6.22,6.22,0,0,0-5.69-3.78,6,6,0,0,0-2.4.49,6.27,6.27,0,0,0-2,1.32,6.25,6.25,0,0,0-1.82,4.37,6.06,6.06,0,0,0,.2,1.53,6.27,6.27,0,0,0,.55,1.4,6.2,6.2,0,0,0,.89,1.23,7,7,0,0,0,1.18,1l5.55-3.27a.81.81,0,0,1,.45-.13.85.85,0,0,1,.62.26.83.83,0,0,1,.26.62.9.9,0,0,1-.12.46Z" fill="url(#linear-gradient-66)"/>
        </g>
        <g>
          <g>
            <path d="M208.35,177.43a1.26,1.26,0,0,1-1.31,1.18H187a1.26,1.26,0,0,1-1.31-1.18V144.88a1.26,1.26,0,0,1,1.31-1.19H207a1.26,1.26,0,0,1,1.31,1.19Z" fill-opacity="0.8" fill="url(#linear-gradient-67)"/>
            <circle cx="188.27" cy="146.92" r="1.15" fill="url(#linear-gradient-68)"/>
            <circle cx="205.1" cy="146.92" r="1.15" fill="url(#linear-gradient-69)"/>
            <circle cx="188.27" cy="175.78" r="1.15" fill="url(#linear-gradient-70)"/>
            <circle cx="205.1" cy="175.78" r="1.15" fill="url(#linear-gradient-71)"/>
          </g>
          <path d="M197,157.06a1.74,1.74,0,0,1,.69.14,1.77,1.77,0,0,1,.55.37,1.92,1.92,0,0,1,.39.57,1.64,1.64,0,0,1,.14.69,1.74,1.74,0,0,1-.14.69,1.9,1.9,0,0,1-.37.55,2.1,2.1,0,0,1-.57.38,1.5,1.5,0,0,1-.69.14,1.58,1.58,0,0,1-.69-.14,1.72,1.72,0,0,1-.55-.37,1.91,1.91,0,0,1-.38-.56,1.38,1.38,0,0,1-.14-.69,1.58,1.58,0,0,1,.14-.69,1.62,1.62,0,0,1,.37-.55,1.76,1.76,0,0,1,.56-.39A1.5,1.5,0,0,1,197,157.06Zm0-6.17a7.83,7.83,0,0,1,5.61,2.33,8.15,8.15,0,0,1,1.69,2.52,7.91,7.91,0,0,1,.39,5.09,7.15,7.15,0,0,1-.73,1.81,8,8,0,0,1-1.14,1.56,8.26,8.26,0,0,1-3.26,2.11,7.49,7.49,0,0,1-2,.4l-2.91,4.9a1.05,1.05,0,0,1-.31.32.84.84,0,0,1-.44.13h-4a.92.92,0,0,1-.89-.89v-4a.8.8,0,0,1,.13-.43,1.12,1.12,0,0,1,.32-.33L192,165a8.05,8.05,0,0,1-2.16-2.73,7.89,7.89,0,0,1-.79-3.4,7.66,7.66,0,0,1,.63-3.09,8,8,0,0,1,1.7-2.52,8.28,8.28,0,0,1,2.53-1.7A7.88,7.88,0,0,1,197,150.89Zm.14,13.09-6.31,3.72v2.59h2.59Zm1.61.73a6.28,6.28,0,0,0,1.79-.85,5.76,5.76,0,0,0,1.39-1.35,6.7,6.7,0,0,0,.91-1.71,5.82,5.82,0,0,0,.33-2,6,6,0,0,0-.48-2.4,6.27,6.27,0,0,0-1.32-2,6.25,6.25,0,0,0-4.37-1.82,6.06,6.06,0,0,0-2.4.49,6.22,6.22,0,0,0-2,1.32,6.35,6.35,0,0,0-1.33,2,6.17,6.17,0,0,0-.49,2.41,6.05,6.05,0,0,0,.19,1.53,6.27,6.27,0,0,0,.55,1.4,5.88,5.88,0,0,0,.9,1.23,7.37,7.37,0,0,0,1.17,1l5.55-3.27a.82.82,0,0,1,.46-.13.89.89,0,0,1,.88.88.9.9,0,0,1-.12.46Z" fill="url(#linear-gradient-72)"/>
        </g>
        <g>
          <g>
            <path d="M237,177.43a1.25,1.25,0,0,1-1.3,1.18H215.63a1.25,1.25,0,0,1-1.3-1.18V144.88a1.26,1.26,0,0,1,1.3-1.19H235.7a1.25,1.25,0,0,1,1.3,1.19Z" fill-opacity="0.8" fill="url(#linear-gradient-73)"/>
            <circle cx="216.92" cy="146.92" r="1.15" fill="url(#linear-gradient-74)"/>
            <circle cx="233.76" cy="146.92" r="1.15" fill="url(#linear-gradient-75)"/>
            <circle cx="216.92" cy="175.78" r="1.15" fill="url(#linear-gradient-76)"/>
            <circle cx="233.76" cy="175.78" r="1.15" fill="url(#linear-gradient-77)"/>
          </g>
          <path d="M225.67,157.06a1.81,1.81,0,0,1,.69.14,1.9,1.9,0,0,1,.55.37,2.1,2.1,0,0,1,.38.57,1.5,1.5,0,0,1,.14.69,1.75,1.75,0,0,1-.51,1.24,2,2,0,0,1-.56.38,1.55,1.55,0,0,1-.69.14,1.58,1.58,0,0,1-.69-.14,1.62,1.62,0,0,1-.55-.37,1.76,1.76,0,0,1-.39-.56,1.5,1.5,0,0,1-.14-.69,1.74,1.74,0,0,1,.14-.69,1.77,1.77,0,0,1,.37-.55,1.92,1.92,0,0,1,.57-.39A1.5,1.5,0,0,1,225.67,157.06Zm0-6.17a7.77,7.77,0,0,1,3.08.62,7.6,7.6,0,0,1,2.52,1.71,8.18,8.18,0,0,1,1.7,2.52,8,8,0,0,1,.63,3.09,7.83,7.83,0,0,1-.25,2,6.8,6.8,0,0,1-.73,1.81,8,8,0,0,1-1.14,1.56,8.11,8.11,0,0,1-1.49,1.24,8.24,8.24,0,0,1-1.76.87,7.64,7.64,0,0,1-2,.4l-2.9,4.9a1.08,1.08,0,0,1-.32.32.84.84,0,0,1-.44.13h-4a.84.84,0,0,1-.62-.27.85.85,0,0,1-.26-.62v-4a.8.8,0,0,1,.12-.43,1.26,1.26,0,0,1,.32-.33l2.51-1.49a8.08,8.08,0,0,1-2.17-2.73,7.86,7.86,0,0,1,1.55-9,8.12,8.12,0,0,1,2.52-1.7A7.9,7.9,0,0,1,225.67,150.89ZM225.8,164l-6.31,3.72v2.59h2.59Zm1.62.73a6.28,6.28,0,0,0,1.79-.85,6.15,6.15,0,0,0,1.39-1.35,7,7,0,0,0,.91-1.71,5.82,5.82,0,0,0,.33-2,6,6,0,0,0-.48-2.4,6.3,6.3,0,0,0-1.33-2,6.21,6.21,0,0,0-4.36-1.82,6,6,0,0,0-2.4.49,6.22,6.22,0,0,0-3.78,5.69,6.06,6.06,0,0,0,.2,1.53,6,6,0,0,0,1.44,2.63,7.37,7.37,0,0,0,1.17,1l5.56-3.27a.79.79,0,0,1,.45-.13.85.85,0,0,1,.62.26.83.83,0,0,1,.26.62.9.9,0,0,1-.12.46Z" fill="url(#linear-gradient-78)"/>
        </g>
        <path d="M265.66,177.43a1.26,1.26,0,0,1-1.31,1.18H244.29a1.26,1.26,0,0,1-1.31-1.18V144.88a1.26,1.26,0,0,1,1.31-1.19h20.06a1.26,1.26,0,0,1,1.31,1.19Z" fill="#fff"/>
        <path d="M265.66,177.43a1.26,1.26,0,0,1-1.31,1.18H244.29a1.26,1.26,0,0,1-1.31-1.18V144.88a1.26,1.26,0,0,1,1.31-1.19h20.06a1.26,1.26,0,0,1,1.31,1.19Z" fill-opacity="0.8" fill="url(#linear-gradient-79)"/>
        <circle cx="245.58" cy="146.92" r="1.15" fill="url(#linear-gradient-80)"/>
        <circle cx="262.41" cy="146.92" r="1.15" fill="url(#linear-gradient-81)"/>
        <circle cx="245.58" cy="175.78" r="1.15" fill="url(#linear-gradient-82)"/>
        <circle cx="262.41" cy="175.78" r="1.15" fill="url(#linear-gradient-83)"/>
        <path d="M254.32,157.06a1.74,1.74,0,0,1,.69.14,1.9,1.9,0,0,1,.55.37,1.92,1.92,0,0,1,.39.57,1.49,1.49,0,0,1,.13.69,1.73,1.73,0,0,1-.13.69,1.93,1.93,0,0,1-.38.55,1.91,1.91,0,0,1-.56.38,1.5,1.5,0,0,1-.69.14,1.58,1.58,0,0,1-.69-.14,1.72,1.72,0,0,1-.55-.37,1.93,1.93,0,0,1-.39-.56,1.49,1.49,0,0,1-.13-.69,1.73,1.73,0,0,1,.13-.69,1.8,1.8,0,0,1,.38-.55,1.76,1.76,0,0,1,.56-.39A1.5,1.5,0,0,1,254.32,157.06Zm0-6.17a7.83,7.83,0,0,1,5.61,2.33,8.15,8.15,0,0,1,1.69,2.52,7.8,7.8,0,0,1,.64,3.09,8.3,8.3,0,0,1-.25,2,7.54,7.54,0,0,1-.73,1.81,8,8,0,0,1-1.14,1.56,8.46,8.46,0,0,1-1.49,1.24,8.09,8.09,0,0,1-1.77.87,7.49,7.49,0,0,1-2,.4l-2.91,4.9a1,1,0,0,1-.32.32.79.79,0,0,1-.44.13h-4a.92.92,0,0,1-.89-.89v-4a.8.8,0,0,1,.13-.43,1.22,1.22,0,0,1,.31-.33l2.51-1.49a7.93,7.93,0,0,1-2.16-2.73,7.85,7.85,0,0,1-.17-6.49,8.14,8.14,0,0,1,1.71-2.52,8.36,8.36,0,0,1,2.52-1.7A8,8,0,0,1,254.32,150.89Zm.14,13.09-6.31,3.72v2.59h2.59Zm1.61.73a6.28,6.28,0,0,0,1.79-.85,6,6,0,0,0,1.39-1.35,6.7,6.7,0,0,0,.91-1.71,5.82,5.82,0,0,0,.33-2,6,6,0,0,0-.48-2.4,6.27,6.27,0,0,0-1.32-2,6.16,6.16,0,0,0-2-1.32,6.22,6.22,0,0,0-2.41-.5,6.06,6.06,0,0,0-2.4.49,6.22,6.22,0,0,0-1.95,1.32,6.35,6.35,0,0,0-1.33,2,6.17,6.17,0,0,0-.49,2.41,6.05,6.05,0,0,0,.19,1.53,6.27,6.27,0,0,0,.55,1.4,5.88,5.88,0,0,0,.9,1.23,7.37,7.37,0,0,0,1.17,1l5.55-3.27a.82.82,0,0,1,.46-.13.89.89,0,0,1,.62.26.87.87,0,0,1,.26.62.82.82,0,0,1-.13.46Z" fill="url(#linear-gradient-84)"/>
      </g>
    </g>
    <g>
      <path d="M64.54,33.92H47.78l-1.46-1.56H38.48V52.11H64.54Z" fill="#ffb34d"/>
      <path d="M66,37H36.93V58.36H66Z" fill="#d15900"/>
    </g>
    <g>
      <path d="M51.51,60.56c-6.21,0-11.38-1.84-11.38-4.1V78.23c0,2.25,5,4.13,11.15,4.13h.23c6.2,0,11.31-1.82,11.31-4.13V56.46C62.74,58.72,57.71,60.56,51.51,60.56Z" fill="url(#linear-gradient-85)"/>
      <path d="M62.74,56.46c0,2.26-5.07,4.14-11.32,4.14s-11.29-1.88-11.29-4.14,5.17-4.1,11.38-4.1,11.31,1.82,11.31,4.14" fill="#e8e8e8"/>
      <path d="M60.09,56.13c0,1.43-3.87,2.59-8.67,2.59s-8.67-1.16-8.67-2.59,3.89-2.61,8.76-2.61,8.67,1.16,8.67,2.61" fill="#50e6ff"/>
      <path d="M51.51,56.73a20.92,20.92,0,0,0-6.85,1,19.88,19.88,0,0,0,6.85,1,20.31,20.31,0,0,0,6.87-1A21.08,21.08,0,0,0,51.51,56.73Z" fill="#198ab3"/>
    </g>
    <g>
      <line x1="51.48" y1="104.36" x2="51.48" y2="121.98" fill="none" stroke="#3c3c41" stroke-miterlimit="10"/>
      <polygon points="47.73 120.89 51.48 127.36 55.22 120.89 47.73 120.89" fill="#3c3c41"/>
    </g>
    <g>
      <path d="M180.47,33.92H163.71l-1.46-1.56h-7.84V52.11h26.06Z" fill="#ffb34d"/>
      <path d="M182,37h-29.1V58.36H182Z" fill="#d15900"/>
    </g>
    <g>
      <path d="M167.43,60.56c-6.2,0-11.38-1.84-11.38-4.1V78.23c0,2.25,5,4.13,11.16,4.13h.22c6.21,0,11.32-1.82,11.32-4.13V56.46C178.67,58.72,173.64,60.56,167.43,60.56Z" fill="url(#linear-gradient-86)"/>
      <path d="M178.67,56.46c0,2.26-5.07,4.14-11.32,4.14s-11.3-1.88-11.3-4.14,5.18-4.1,11.38-4.1,11.32,1.82,11.32,4.14" fill="#e8e8e8"/>
      <path d="M176,56.13c0,1.43-3.87,2.59-8.67,2.59s-8.67-1.16-8.67-2.59,3.89-2.61,8.75-2.61,8.67,1.16,8.67,2.61" fill="#50e6ff"/>
      <path d="M167.43,56.73a20.86,20.86,0,0,0-6.84,1,19.86,19.86,0,0,0,6.84,1,20.27,20.27,0,0,0,6.87-1A21,21,0,0,0,167.43,56.73Z" fill="#198ab3"/>
    </g>
    <g>
      <line x1="167.4" y1="104.36" x2="167.4" y2="121.98" fill="none" stroke="#3c3c41" stroke-miterlimit="10"/>
      <polygon points="163.66 120.89 167.4 127.36 171.14 120.89 163.66 120.89" fill="#3c3c41"/>
    </g>
    <g>
      <path d="M300.47,33.92H283.71l-1.46-1.56h-7.84V52.11h26.06Z" fill="#ffb34d"/>
      <path d="M302,37h-29.1V58.36H302Z" fill="#d15900"/>
    </g>
    <g>
      <path d="M287.43,60.56c-6.2,0-11.38-1.84-11.38-4.1V78.23c0,2.25,5,4.13,11.16,4.13h.22c6.21,0,11.32-1.82,11.32-4.13V56.46C298.67,58.72,293.64,60.56,287.43,60.56Z" fill="url(#linear-gradient-87)"/>
      <path d="M298.67,56.46c0,2.26-5.07,4.14-11.32,4.14s-11.3-1.88-11.3-4.14,5.18-4.1,11.38-4.1,11.32,1.82,11.32,4.14" fill="#e8e8e8"/>
      <path d="M296,56.13c0,1.43-3.87,2.59-8.67,2.59s-8.67-1.16-8.67-2.59,3.89-2.61,8.75-2.61,8.67,1.16,8.67,2.61" fill="#50e6ff"/>
      <path d="M287.43,56.73a20.86,20.86,0,0,0-6.84,1,19.86,19.86,0,0,0,6.84,1,20.27,20.27,0,0,0,6.87-1A21,21,0,0,0,287.43,56.73Z" fill="#198ab3"/>
    </g>
    <g>
      <line x1="287.4" y1="104.36" x2="287.4" y2="121.98" fill="none" stroke="#3c3c41" stroke-miterlimit="10"/>
      <polygon points="283.66 120.89 287.4 127.36 291.14 120.89 283.66 120.89" fill="#3c3c41"/>
    </g>
  </g>
  <g id="Text">
    <g>
      <path d="M10,12a4.89,4.89,0,0,1-2.32.49,3.73,3.73,0,0,1-2.87-1.15,4.26,4.26,0,0,1-1.08-3A4.47,4.47,0,0,1,4.89,5.06,4.12,4.12,0,0,1,8,3.82a4.91,4.91,0,0,1,2,.35v1a4,4,0,0,0-2-.51,3,3,0,0,0-2.35,1,3.62,3.62,0,0,0-.9,2.58,3.47,3.47,0,0,0,.84,2.45,2.86,2.86,0,0,0,2.21.91A4.2,4.2,0,0,0,10,11.06Z" fill="#1e1e1e"/>
      <path d="M11.87,7.54a.61.61,0,0,1-.46-.2.65.65,0,0,1,0-.92.65.65,0,0,1,.92,0,.63.63,0,0,1,0,.92A.61.61,0,0,1,11.87,7.54Zm0,5a.6.6,0,0,1-.46-.19.62.62,0,0,1-.19-.46.64.64,0,0,1,.19-.47.63.63,0,0,1,.92,0,.65.65,0,0,1,.2.47.63.63,0,0,1-.2.46A.6.6,0,0,1,11.87,12.49Z" fill="#1e1e1e"/>
      <path d="M17.84,13.77H17L13,4h.91Z" fill="#1e1e1e"/>
      <path d="M24.53,12a4.92,4.92,0,0,1-2.32.49,3.73,3.73,0,0,1-2.87-1.15,4.26,4.26,0,0,1-1.08-3,4.47,4.47,0,0,1,1.21-3.26,4.12,4.12,0,0,1,3.08-1.24,5,5,0,0,1,2,.35v1a4,4,0,0,0-2-.51,3,3,0,0,0-2.35,1,3.62,3.62,0,0,0-.9,2.58,3.47,3.47,0,0,0,.84,2.45,2.86,2.86,0,0,0,2.21.91,4.2,4.2,0,0,0,2.19-.56Z" fill="#1e1e1e"/>
      <path d="M27.07,12.36h-1V3.48h1Z" fill="#1e1e1e"/>
      <path d="M33.87,12.36h-1v-.95h0A2,2,0,0,1,31,12.5c-1.43,0-2.14-.85-2.14-2.55V6.36h.95V9.8c0,1.26.49,1.9,1.46,1.9a1.48,1.48,0,0,0,1.15-.52,2,2,0,0,0,.46-1.36V6.36h1Z" fill="#1e1e1e"/>
      <path d="M35.44,12.15v-1a2.9,2.9,0,0,0,1.73.58c.85,0,1.27-.29,1.27-.85a.78.78,0,0,0-.11-.41,1,1,0,0,0-.29-.29,2.27,2.27,0,0,0-.44-.23l-.53-.22a5.16,5.16,0,0,1-.7-.32A1.94,1.94,0,0,1,35.86,9a1.41,1.41,0,0,1-.3-.46,1.57,1.57,0,0,1-.1-.6,1.44,1.44,0,0,1,.19-.75,1.65,1.65,0,0,1,.51-.54,2.51,2.51,0,0,1,.74-.34,3.59,3.59,0,0,1,2.25.16v1A2.72,2.72,0,0,0,37.62,7a1.75,1.75,0,0,0-.48.06,1,1,0,0,0-.37.18.66.66,0,0,0-.24.26.7.7,0,0,0-.09.35.8.8,0,0,0,.09.39.78.78,0,0,0,.24.28,1.89,1.89,0,0,0,.4.22l.54.22a6.85,6.85,0,0,1,.71.31,2.44,2.44,0,0,1,.54.37,1.38,1.38,0,0,1,.34.46,1.54,1.54,0,0,1,.12.63,1.47,1.47,0,0,1-.19.77,1.74,1.74,0,0,1-.53.55,2.54,2.54,0,0,1-.75.32,3.82,3.82,0,0,1-.9.1A3.41,3.41,0,0,1,35.44,12.15Z" fill="#1e1e1e"/>
      <path d="M43.68,12.31a1.87,1.87,0,0,1-.89.18c-1,0-1.58-.58-1.58-1.76V7.18h-1V6.36h1V4.9l1-.31V6.36h1.51v.82H42.17v3.38a1.41,1.41,0,0,0,.21.87.81.81,0,0,0,.68.25.94.94,0,0,0,.62-.2Z" fill="#1e1e1e"/>
      <path d="M49.79,9.6H45.55a2.28,2.28,0,0,0,.54,1.55,1.87,1.87,0,0,0,1.42.55A3,3,0,0,0,49.37,11v.9a3.5,3.5,0,0,1-2.09.57,2.56,2.56,0,0,1-2-.81,3.37,3.37,0,0,1-.72-2.3,3.29,3.29,0,0,1,.79-2.29,2.58,2.58,0,0,1,2-.88A2.27,2.27,0,0,1,49.14,7a3.2,3.2,0,0,1,.65,2.12Zm-1-.81a1.91,1.91,0,0,0-.4-1.3A1.39,1.39,0,0,0,47.3,7a1.54,1.54,0,0,0-1.15.49,2.22,2.22,0,0,0-.59,1.27Z" fill="#1e1e1e"/>
      <path d="M54.37,7.34a1.18,1.18,0,0,0-.73-.2,1.25,1.25,0,0,0-1,.58,2.75,2.75,0,0,0-.41,1.59v3h-1v-6h1V7.6h0a2.08,2.08,0,0,1,.62-1,1.47,1.47,0,0,1,.95-.35,1.65,1.65,0,0,1,.57.08Z" fill="#1e1e1e"/>
      <path d="M55.15,12V10.86a1.91,1.91,0,0,0,.48.32,5,5,0,0,0,.58.24c.21.06.41.11.62.15a4.13,4.13,0,0,0,.57,0,2.22,2.22,0,0,0,1.36-.34,1.14,1.14,0,0,0,.45-1,1.15,1.15,0,0,0-.15-.59,1.76,1.76,0,0,0-.41-.46,4.57,4.57,0,0,0-.63-.4l-.77-.4c-.3-.15-.57-.3-.82-.45a3.54,3.54,0,0,1-.67-.5,2.47,2.47,0,0,1-.44-.63,1.88,1.88,0,0,1-.16-.82,1.87,1.87,0,0,1,.25-1,2.11,2.11,0,0,1,.66-.7A3,3,0,0,1,57,4a4.3,4.3,0,0,1,1.07-.14,4.08,4.08,0,0,1,1.81.3V5.23A3.24,3.24,0,0,0,58,4.71a2.88,2.88,0,0,0-.65.07,1.78,1.78,0,0,0-.57.22,1.27,1.27,0,0,0-.41.39,1,1,0,0,0-.16.59,1.18,1.18,0,0,0,.12.55,1.31,1.31,0,0,0,.36.43,3,3,0,0,0,.57.38l.77.39c.31.15.59.31.86.47a4,4,0,0,1,.71.55,2.53,2.53,0,0,1,.48.66,1.84,1.84,0,0,1,.18.83,2.09,2.09,0,0,1-.24,1,1.93,1.93,0,0,1-.66.7,2.8,2.8,0,0,1-1,.39,5.24,5.24,0,0,1-1.14.12l-.49,0-.6-.09a4.74,4.74,0,0,1-.57-.15A1.5,1.5,0,0,1,55.15,12Z" fill="#1e1e1e"/>
      <path d="M64.18,12.31a1.87,1.87,0,0,1-.89.18c-1,0-1.58-.58-1.58-1.76V7.18h-1V6.36h1V4.9l1-.31V6.36h1.51v.82H62.67v3.38a1.41,1.41,0,0,0,.21.87.81.81,0,0,0,.68.25.94.94,0,0,0,.62-.2Z" fill="#1e1e1e"/>
      <path d="M68,12.5a2.79,2.79,0,0,1-2.13-.84,3.1,3.1,0,0,1-.79-2.23,3.26,3.26,0,0,1,.82-2.36,3,3,0,0,1,2.24-.85,2.69,2.69,0,0,1,2.09.83A3.27,3.27,0,0,1,71,9.34a3.23,3.23,0,0,1-.81,2.3A2.81,2.81,0,0,1,68,12.5ZM68.05,7a1.84,1.84,0,0,0-1.47.63A2.59,2.59,0,0,0,66,9.4a2.41,2.41,0,0,0,.55,1.68,1.85,1.85,0,0,0,1.46.62,1.77,1.77,0,0,0,1.43-.61A2.62,2.62,0,0,0,70,9.38a2.71,2.71,0,0,0-.5-1.74A1.74,1.74,0,0,0,68.05,7Z" fill="#1e1e1e"/>
      <path d="M75.63,7.34a1.18,1.18,0,0,0-.73-.2,1.25,1.25,0,0,0-1,.58,2.75,2.75,0,0,0-.41,1.59v3h-1v-6h1V7.6h0a2.17,2.17,0,0,1,.63-1,1.46,1.46,0,0,1,.94-.35,1.75,1.75,0,0,1,.58.08Z" fill="#1e1e1e"/>
      <path d="M81,12.36H80v-.93h0a2,2,0,0,1-1.84,1.07A2,2,0,0,1,76.73,12a1.64,1.64,0,0,1-.5-1.26c0-1.12.66-1.77,2-2L80,8.56Q80,7,78.77,7a3,3,0,0,0-2,.74v-1a3.68,3.68,0,0,1,2-.57C80.26,6.22,81,7,81,8.46Zm-1-3-1.44.2a2.3,2.3,0,0,0-1,.33,1,1,0,0,0-.34.84.92.92,0,0,0,.31.72,1.25,1.25,0,0,0,.84.28,1.54,1.54,0,0,0,1.18-.51A1.76,1.76,0,0,0,80,9.93Z" fill="#1e1e1e"/>
      <path d="M87.9,11.88q0,3.31-3.17,3.31a4.23,4.23,0,0,1-1.94-.42v-1a4,4,0,0,0,1.93.56c1.48,0,2.22-.79,2.22-2.36v-.65h0a2.43,2.43,0,0,1-3.86.34,3.14,3.14,0,0,1-.68-2.14,3.73,3.73,0,0,1,.73-2.43,2.44,2.44,0,0,1,2-.91,2,2,0,0,1,1.8,1h0V6.36h1Zm-1-2.23V8.77a1.7,1.7,0,0,0-.49-1.23A1.58,1.58,0,0,0,85.25,7a1.68,1.68,0,0,0-1.4.65,2.93,2.93,0,0,0-.5,1.81,2.53,2.53,0,0,0,.48,1.61,1.57,1.57,0,0,0,1.28.6,1.7,1.7,0,0,0,1.32-.58A2.12,2.12,0,0,0,86.94,9.65Z" fill="#1e1e1e"/>
      <path d="M94.66,9.6H90.43A2.19,2.19,0,0,0,91,11.15a1.86,1.86,0,0,0,1.42.55A3,3,0,0,0,94.25,11v.9a3.52,3.52,0,0,1-2.09.57,2.54,2.54,0,0,1-2-.81,3.33,3.33,0,0,1-.73-2.3,3.29,3.29,0,0,1,.8-2.29,2.56,2.56,0,0,1,2-.88A2.28,2.28,0,0,1,94,7a3.19,3.19,0,0,1,.64,2.12Zm-1-.81a2,2,0,0,0-.4-1.3A1.39,1.39,0,0,0,92.18,7,1.52,1.52,0,0,0,91,7.52a2.16,2.16,0,0,0-.59,1.27Z" fill="#1e1e1e"/>
      <path d="M99.82,13.77h-.88L95,4h.91Z" fill="#1e1e1e"/>
      <path d="M35.51,17.16l-3.11,8.4H31.31l-3-8.4h1.09l2.33,6.66a4.63,4.63,0,0,1,.17.75h0a4,4,0,0,1,.19-.76l2.38-6.65Z" fill="#1e1e1e"/>
      <path d="M38.33,25.7a2.79,2.79,0,0,1-2.12-.84,3.11,3.11,0,0,1-.8-2.23,3.26,3.26,0,0,1,.83-2.36,3,3,0,0,1,2.23-.85,2.7,2.7,0,0,1,2.1.83,3.27,3.27,0,0,1,.75,2.29,3.23,3.23,0,0,1-.81,2.3A2.83,2.83,0,0,1,38.33,25.7Zm.07-5.47a1.83,1.83,0,0,0-1.46.63,2.59,2.59,0,0,0-.54,1.74,2.46,2.46,0,0,0,.54,1.68,1.87,1.87,0,0,0,1.46.62,1.79,1.79,0,0,0,1.44-.61,2.62,2.62,0,0,0,.5-1.71,2.71,2.71,0,0,0-.5-1.74A1.79,1.79,0,0,0,38.4,20.23Z" fill="#1e1e1e"/>
      <path d="M43.82,25.56h-1V16.68h1Z" fill="#1e1e1e"/>
      <path d="M50.61,25.56h-1v-.95h0a2,2,0,0,1-1.85,1.09c-1.43,0-2.15-.85-2.15-2.55V19.56h1V23c0,1.26.48,1.9,1.45,1.9a1.49,1.49,0,0,0,1.16-.52A2,2,0,0,0,49.65,23V19.56h1Z" fill="#1e1e1e"/>
      <path d="M61.07,25.56h-1V22.12a2.52,2.52,0,0,0-.31-1.44,1.15,1.15,0,0,0-1-.45,1.3,1.3,0,0,0-1.05.56,2.22,2.22,0,0,0-.43,1.35v3.42h-1V22c0-1.18-.45-1.77-1.36-1.77a1.3,1.3,0,0,0-1,.53,2.24,2.24,0,0,0-.41,1.38v3.42h-1v-6h1v1h0a2,2,0,0,1,1.86-1.09,1.72,1.72,0,0,1,1.07.35,1.62,1.62,0,0,1,.63.9,2.15,2.15,0,0,1,2-1.25c1.32,0,2,.82,2,2.45Z" fill="#1e1e1e"/>
      <path d="M67.71,22.8H63.48A2.23,2.23,0,0,0,64,24.35a1.89,1.89,0,0,0,1.42.55,3,3,0,0,0,1.87-.67v.9a3.53,3.53,0,0,1-2.1.57,2.53,2.53,0,0,1-2-.81,3.33,3.33,0,0,1-.73-2.3,3.25,3.25,0,0,1,.79-2.28,2.55,2.55,0,0,1,2-.89,2.26,2.26,0,0,1,1.83.77,3.15,3.15,0,0,1,.64,2.11Zm-1-.81a2,2,0,0,0-.4-1.3,1.4,1.4,0,0,0-1.1-.46,1.54,1.54,0,0,0-1.16.49A2.21,2.21,0,0,0,63.49,22Z" fill="#1e1e1e"/>
      <path d="M72.43,25.56h-1V18.3a2,2,0,0,1-.32.26,5.1,5.1,0,0,1-.48.28c-.18.1-.37.18-.56.27a4.89,4.89,0,0,1-.58.19v-1a6.12,6.12,0,0,0,.67-.24c.24-.1.47-.21.7-.33l.64-.39a5.2,5.2,0,0,0,.53-.4h.36Z" fill="#1e1e1e"/>
    </g>
    <g>
      <path d="M33.93,89l-3.11,8.4H29.73l-3-8.4h1.09l2.33,6.66a4.63,4.63,0,0,1,.17.75h0a3.43,3.43,0,0,1,.2-.76L32.87,89Z" fill="#1e1e1e"/>
      <path d="M36.75,97.5a2.79,2.79,0,0,1-2.12-.84,3.1,3.1,0,0,1-.79-2.23,3.26,3.26,0,0,1,.82-2.36,3,3,0,0,1,2.23-.85,2.7,2.7,0,0,1,2.1.83,3.27,3.27,0,0,1,.75,2.29,3.23,3.23,0,0,1-.81,2.3A2.83,2.83,0,0,1,36.75,97.5ZM36.82,92a1.83,1.83,0,0,0-1.46.63,2.59,2.59,0,0,0-.54,1.74,2.46,2.46,0,0,0,.54,1.68,1.87,1.87,0,0,0,1.46.62,1.79,1.79,0,0,0,1.44-.61,2.62,2.62,0,0,0,.5-1.71,2.71,2.71,0,0,0-.5-1.74A1.76,1.76,0,0,0,36.82,92Z" fill="#1e1e1e"/>
      <path d="M42.24,97.36h-1V88.48h1Z" fill="#1e1e1e"/>
      <path d="M49,97.36h-1v-1h0A2,2,0,0,1,46.2,97.5c-1.43,0-2.15-.85-2.15-2.55V91.36h1V94.8c0,1.26.48,1.9,1.45,1.9a1.49,1.49,0,0,0,1.16-.52,2,2,0,0,0,.45-1.36V91.36h1Z" fill="#1e1e1e"/>
      <path d="M59.49,97.36h-1V93.92a2.62,2.62,0,0,0-.3-1.44,1.17,1.17,0,0,0-1-.45,1.27,1.27,0,0,0-1,.56,2.16,2.16,0,0,0-.44,1.35v3.42h-1V93.8c0-1.18-.45-1.77-1.36-1.77a1.27,1.27,0,0,0-1,.53,2.18,2.18,0,0,0-.41,1.38v3.42H51v-6h1v1h0a2,2,0,0,1,1.86-1.09,1.72,1.72,0,0,1,1.07.35,1.62,1.62,0,0,1,.63.9,2.15,2.15,0,0,1,2-1.25c1.32,0,2,.82,2,2.45Z" fill="#1e1e1e"/>
      <path d="M66.13,94.6H61.9a2.19,2.19,0,0,0,.54,1.55,1.85,1.85,0,0,0,1.41.55A3,3,0,0,0,65.72,96v.9a3.53,3.53,0,0,1-2.1.57,2.53,2.53,0,0,1-2-.81,3.33,3.33,0,0,1-.73-2.3,3.29,3.29,0,0,1,.79-2.29,2.58,2.58,0,0,1,2-.88,2.28,2.28,0,0,1,1.82.76,3.19,3.19,0,0,1,.64,2.12Zm-1-.81a2,2,0,0,0-.4-1.3,1.4,1.4,0,0,0-1.1-.46,1.54,1.54,0,0,0-1.16.49,2.21,2.21,0,0,0-.58,1.27Z" fill="#1e1e1e"/>
      <path d="M74.14,97.36h-1V90.1a2,2,0,0,1-.32.26l-.48.28c-.18.1-.37.18-.57.27a4.76,4.76,0,0,1-.57.19v-1a6.12,6.12,0,0,0,.67-.24c.23-.1.47-.21.69-.33l.65-.39a6.62,6.62,0,0,0,.53-.4h.36Z" fill="#1e1e1e"/>
    </g>
    <g>
      <path d="M125.88,12a4.92,4.92,0,0,1-2.32.49,3.72,3.72,0,0,1-2.87-1.15,4.26,4.26,0,0,1-1.08-3,4.47,4.47,0,0,1,1.21-3.26,4.11,4.11,0,0,1,3.08-1.24,5,5,0,0,1,2,.35v1a4,4,0,0,0-2-.51,3,3,0,0,0-2.34,1,3.62,3.62,0,0,0-.9,2.58,3.47,3.47,0,0,0,.84,2.45,2.86,2.86,0,0,0,2.21.91,4.2,4.2,0,0,0,2.19-.56Z" fill="#1e1e1e"/>
      <path d="M127.79,7.54a.63.63,0,0,1-.46-.2.65.65,0,0,1,.93-.92.65.65,0,0,1,0,.92A.63.63,0,0,1,127.79,7.54Zm0,5a.62.62,0,0,1-.46-.19.66.66,0,0,1-.19-.46.68.68,0,0,1,.19-.47.64.64,0,0,1,.93,0,.64.64,0,0,1,.19.47.62.62,0,0,1-.19.46A.63.63,0,0,1,127.79,12.49Z" fill="#1e1e1e"/>
      <path d="M133.76,13.77h-.88L128.94,4h.9Z" fill="#1e1e1e"/>
      <path d="M140.45,12a4.89,4.89,0,0,1-2.32.49,3.74,3.74,0,0,1-2.87-1.15,4.25,4.25,0,0,1-1.07-3,4.47,4.47,0,0,1,1.21-3.26,4.1,4.1,0,0,1,3.07-1.24,4.91,4.91,0,0,1,2,.35v1a4,4,0,0,0-2-.51,3,3,0,0,0-2.34,1,3.62,3.62,0,0,0-.9,2.58,3.47,3.47,0,0,0,.84,2.45,2.84,2.84,0,0,0,2.2.91,4.15,4.15,0,0,0,2.19-.56Z" fill="#1e1e1e"/>
      <path d="M143,12.36h-1V3.48h1Z" fill="#1e1e1e"/>
      <path d="M149.79,12.36h-1v-.95h0A2,2,0,0,1,147,12.5c-1.43,0-2.15-.85-2.15-2.55V6.36h1V9.8c0,1.26.48,1.9,1.45,1.9a1.49,1.49,0,0,0,1.16-.52,2,2,0,0,0,.45-1.36V6.36h1Z" fill="#1e1e1e"/>
      <path d="M151.37,12.15v-1a2.88,2.88,0,0,0,1.73.58c.84,0,1.26-.29,1.26-.85a.78.78,0,0,0-.1-.41,1,1,0,0,0-.3-.29,1.93,1.93,0,0,0-.43-.23L153,9.7a5.79,5.79,0,0,1-.7-.32,1.74,1.74,0,0,1-.5-.36,1.15,1.15,0,0,1-.3-.46,1.57,1.57,0,0,1-.11-.6,1.45,1.45,0,0,1,.2-.75,1.55,1.55,0,0,1,.51-.54,2.51,2.51,0,0,1,.74-.34,3.56,3.56,0,0,1,2.24.16v1A2.71,2.71,0,0,0,153.55,7a1.88,1.88,0,0,0-.49.06,1.16,1.16,0,0,0-.37.18.85.85,0,0,0-.24.26.82.82,0,0,0-.08.35.93.93,0,0,0,.08.39.94.94,0,0,0,.25.28,1.67,1.67,0,0,0,.4.22l.53.22a6.21,6.21,0,0,1,.72.31,2.44,2.44,0,0,1,.54.37,1.36,1.36,0,0,1,.46,1.09,1.47,1.47,0,0,1-.2.77,1.7,1.7,0,0,1-.52.55,2.49,2.49,0,0,1-.76.32,3.68,3.68,0,0,1-.89.1A3.39,3.39,0,0,1,151.37,12.15Z" fill="#1e1e1e"/>
      <path d="M159.61,12.31a2,2,0,0,1-.9.18c-1.05,0-1.57-.58-1.57-1.76V7.18h-1V6.36h1V4.9l1-.31V6.36h1.51v.82H158.1v3.38a1.49,1.49,0,0,0,.2.87.83.83,0,0,0,.68.25,1,1,0,0,0,.63-.2Z" fill="#1e1e1e"/>
      <path d="M165.71,9.6h-4.23a2.19,2.19,0,0,0,.54,1.55,1.86,1.86,0,0,0,1.42.55A3,3,0,0,0,165.3,11v.9a3.52,3.52,0,0,1-2.09.57,2.54,2.54,0,0,1-2-.81,3.33,3.33,0,0,1-.73-2.3,3.29,3.29,0,0,1,.8-2.29,2.56,2.56,0,0,1,2-.88,2.28,2.28,0,0,1,1.82.76,3.19,3.19,0,0,1,.64,2.12Zm-1-.81a2,2,0,0,0-.4-1.3,1.39,1.39,0,0,0-1.1-.46,1.52,1.52,0,0,0-1.15.49,2.16,2.16,0,0,0-.59,1.27Z" fill="#1e1e1e"/>
      <path d="M170.3,7.34a1.18,1.18,0,0,0-.73-.2,1.25,1.25,0,0,0-1,.58,2.75,2.75,0,0,0-.41,1.59v3h-1v-6h1V7.6h0a2.17,2.17,0,0,1,.63-1,1.44,1.44,0,0,1,.94-.35,1.75,1.75,0,0,1,.58.08Z" fill="#1e1e1e"/>
      <path d="M171.08,12V10.86a2,2,0,0,0,.47.32,5.19,5.19,0,0,0,.59.24,6.23,6.23,0,0,0,.62.15,4,4,0,0,0,.57,0,2.22,2.22,0,0,0,1.36-.34,1.14,1.14,0,0,0,.45-1,1.15,1.15,0,0,0-.15-.59,1.64,1.64,0,0,0-.42-.46,3.91,3.91,0,0,0-.62-.4l-.78-.4L172.35,8a3.81,3.81,0,0,1-.66-.5,2.24,2.24,0,0,1-.44-.63,1.88,1.88,0,0,1-.16-.82,1.87,1.87,0,0,1,.25-1,2.11,2.11,0,0,1,.66-.7,3,3,0,0,1,.94-.41A4.24,4.24,0,0,1,174,3.82a4.11,4.11,0,0,1,1.81.3V5.23a3.26,3.26,0,0,0-1.91-.52,2.88,2.88,0,0,0-.65.07,1.78,1.78,0,0,0-.57.22,1.18,1.18,0,0,0-.41.39,1,1,0,0,0-.16.59,1.18,1.18,0,0,0,.12.55,1.41,1.41,0,0,0,.35.43,3.76,3.76,0,0,0,.57.38l.78.39c.3.15.59.31.86.47a4.46,4.46,0,0,1,.71.55,2.53,2.53,0,0,1,.48.66,1.84,1.84,0,0,1,.18.83,2,2,0,0,1-.9,1.75,2.88,2.88,0,0,1-1,.39,5.24,5.24,0,0,1-1.14.12l-.49,0-.6-.09a4.91,4.91,0,0,1-.58-.15A1.57,1.57,0,0,1,171.08,12Z" fill="#1e1e1e"/>
      <path d="M180.11,12.31a1.92,1.92,0,0,1-.9.18c-1.05,0-1.57-.58-1.57-1.76V7.18h-1V6.36h1V4.9l1-.31V6.36h1.51v.82H178.6v3.38a1.49,1.49,0,0,0,.2.87.83.83,0,0,0,.68.25,1,1,0,0,0,.63-.2Z" fill="#1e1e1e"/>
      <path d="M183.9,12.5a2.79,2.79,0,0,1-2.12-.84,3.11,3.11,0,0,1-.8-2.23,3.26,3.26,0,0,1,.83-2.36A3,3,0,0,1,184,6.22a2.7,2.7,0,0,1,2.1.83,3.27,3.27,0,0,1,.75,2.29,3.23,3.23,0,0,1-.81,2.3A2.83,2.83,0,0,1,183.9,12.5ZM184,7a1.83,1.83,0,0,0-1.46.63A2.59,2.59,0,0,0,182,9.4a2.46,2.46,0,0,0,.54,1.68,1.87,1.87,0,0,0,1.46.62,1.76,1.76,0,0,0,1.43-.61,2.57,2.57,0,0,0,.51-1.71,2.65,2.65,0,0,0-.51-1.74A1.73,1.73,0,0,0,184,7Z" fill="#1e1e1e"/>
      <path d="M191.55,7.34a1.14,1.14,0,0,0-.72-.2,1.24,1.24,0,0,0-1,.58,2.68,2.68,0,0,0-.41,1.59v3h-1v-6h1V7.6h0a2.17,2.17,0,0,1,.63-1,1.44,1.44,0,0,1,.94-.35,1.65,1.65,0,0,1,.57.08Z" fill="#1e1e1e"/>
      <path d="M196.89,12.36h-1v-.93h0a2,2,0,0,1-1.85,1.07,2,2,0,0,1-1.4-.47,1.65,1.65,0,0,1-.51-1.26c0-1.12.66-1.77,2-2l1.8-.25c0-1-.41-1.53-1.24-1.53a3,3,0,0,0-1.95.74v-1a3.68,3.68,0,0,1,2-.57c1.41,0,2.11.75,2.11,2.24Zm-1-3-1.45.2a2.25,2.25,0,0,0-1,.33,1,1,0,0,0-.34.84.92.92,0,0,0,.31.72,1.24,1.24,0,0,0,.83.28,1.56,1.56,0,0,0,1.19-.51,1.76,1.76,0,0,0,.46-1.26Z" fill="#1e1e1e"/>
      <path d="M203.82,11.88q0,3.31-3.16,3.31a4.31,4.31,0,0,1-1.95-.42v-1a4.06,4.06,0,0,0,1.94.56c1.47,0,2.21-.79,2.21-2.36v-.65h0a2.26,2.26,0,0,1-2.06,1.14,2.22,2.22,0,0,1-1.8-.8,3.15,3.15,0,0,1-.69-2.14A3.73,3.73,0,0,1,199,7.13a2.44,2.44,0,0,1,2-.91,2,2,0,0,1,1.8,1h0V6.36h1Zm-1-2.23V8.77a1.73,1.73,0,0,0-.48-1.23,1.58,1.58,0,0,0-1.2-.51,1.68,1.68,0,0,0-1.4.65,2.86,2.86,0,0,0-.5,1.81,2.53,2.53,0,0,0,.48,1.61,1.56,1.56,0,0,0,1.28.6,1.7,1.7,0,0,0,1.32-.58A2.16,2.16,0,0,0,202.86,9.65Z" fill="#1e1e1e"/>
      <path d="M210.59,9.6h-4.23a2.23,2.23,0,0,0,.53,1.55,1.89,1.89,0,0,0,1.42.55,3,3,0,0,0,1.87-.67v.9a3.53,3.53,0,0,1-2.1.57,2.53,2.53,0,0,1-2-.81,3.33,3.33,0,0,1-.73-2.3,3.29,3.29,0,0,1,.79-2.29,2.58,2.58,0,0,1,2-.88A2.29,2.29,0,0,1,210,7a3.19,3.19,0,0,1,.64,2.12Zm-1-.81a2,2,0,0,0-.4-1.3,1.4,1.4,0,0,0-1.1-.46,1.54,1.54,0,0,0-1.16.49,2.21,2.21,0,0,0-.58,1.27Z" fill="#1e1e1e"/>
      <path d="M215.75,13.77h-.89L210.92,4h.91Z" fill="#1e1e1e"/>
      <path d="M151.44,17.16l-3.12,8.4h-1.08l-3.05-8.4h1.1l2.32,6.66a3.18,3.18,0,0,1,.17.75h0a3.38,3.38,0,0,1,.19-.76l2.37-6.65Z" fill="#1e1e1e"/>
      <path d="M154.26,25.7a2.76,2.76,0,0,1-2.12-.84,3.11,3.11,0,0,1-.8-2.23,3.26,3.26,0,0,1,.83-2.36,3,3,0,0,1,2.23-.85,2.69,2.69,0,0,1,2.09.83,3.23,3.23,0,0,1,.76,2.29,3.23,3.23,0,0,1-.81,2.3A2.83,2.83,0,0,1,154.26,25.7Zm.07-5.47a1.84,1.84,0,0,0-1.47.63,2.64,2.64,0,0,0-.53,1.74,2.46,2.46,0,0,0,.54,1.68,1.85,1.85,0,0,0,1.46.62,1.76,1.76,0,0,0,1.43-.61,2.57,2.57,0,0,0,.5-1.71,2.65,2.65,0,0,0-.5-1.74A1.76,1.76,0,0,0,154.33,20.23Z" fill="#1e1e1e"/>
      <path d="M159.74,25.56h-1V16.68h1Z" fill="#1e1e1e"/>
      <path d="M166.54,25.56h-1v-.95h0a2,2,0,0,1-1.86,1.09c-1.42,0-2.14-.85-2.14-2.55V19.56h1V23c0,1.26.48,1.9,1.45,1.9a1.5,1.5,0,0,0,1.16-.52,2,2,0,0,0,.45-1.36V19.56h1Z" fill="#1e1e1e"/>
      <path d="M177,25.56h-1V22.12a2.52,2.52,0,0,0-.31-1.44,1.15,1.15,0,0,0-1-.45,1.3,1.3,0,0,0-1,.56,2.16,2.16,0,0,0-.43,1.35v3.42h-1V22c0-1.18-.46-1.77-1.37-1.77a1.27,1.27,0,0,0-1,.53,2.24,2.24,0,0,0-.41,1.38v3.42h-1v-6h1v1h0a2.06,2.06,0,0,1,1.87-1.09,1.76,1.76,0,0,1,1.7,1.25,2.14,2.14,0,0,1,2-1.25c1.32,0,2,.82,2,2.45Z" fill="#1e1e1e"/>
      <path d="M183.64,22.8H179.4a2.28,2.28,0,0,0,.54,1.55,1.87,1.87,0,0,0,1.42.55,3,3,0,0,0,1.86-.67v.9a3.5,3.5,0,0,1-2.09.57,2.56,2.56,0,0,1-2-.81,3.37,3.37,0,0,1-.72-2.3,3.25,3.25,0,0,1,.79-2.28,2.55,2.55,0,0,1,2-.89,2.24,2.24,0,0,1,1.82.77,3.15,3.15,0,0,1,.65,2.11Zm-1-.81a1.93,1.93,0,0,0-.4-1.3,1.39,1.39,0,0,0-1.1-.46,1.54,1.54,0,0,0-1.15.49,2.22,2.22,0,0,0-.59,1.27Z" fill="#1e1e1e"/>
      <path d="M188.64,19.36a1.74,1.74,0,0,0-.12-.67,1.37,1.37,0,0,0-.33-.48,1.31,1.31,0,0,0-.49-.28,1.93,1.93,0,0,0-.6-.09,2.1,2.1,0,0,0-.56.07,2.57,2.57,0,0,0-.52.21,3.74,3.74,0,0,0-.49.32,3.51,3.51,0,0,0-.44.42v-1a3,3,0,0,1,.9-.6,3.14,3.14,0,0,1,1.22-.21,3,3,0,0,1,1,.15,2.3,2.3,0,0,1,.76.44,2.09,2.09,0,0,1,.51.71,2.42,2.42,0,0,1,.18,1,3.66,3.66,0,0,1-.11.91,2.89,2.89,0,0,1-.35.76,3.62,3.62,0,0,1-.58.68,8.92,8.92,0,0,1-.83.67c-.39.28-.72.52-1,.72a4.34,4.34,0,0,0-.61.56,1.63,1.63,0,0,0-.32.52,1.89,1.89,0,0,0-.09.6h4.18v.86h-5.18v-.41a3.82,3.82,0,0,1,.11-.95,2.59,2.59,0,0,1,.39-.78,4.42,4.42,0,0,1,.71-.74c.29-.24.64-.52,1.07-.83a6.69,6.69,0,0,0,.76-.63,3.31,3.31,0,0,0,.5-.6,2.1,2.1,0,0,0,.26-.6A2.34,2.34,0,0,0,188.64,19.36Z" fill="#1e1e1e"/>
    </g>
    <g>
      <path d="M149.86,89l-3.11,8.4h-1.09l-3-8.4h1.1L146,95.62a4.63,4.63,0,0,1,.17.75h0a4,4,0,0,1,.19-.76L148.8,89Z" fill="#1e1e1e"/>
      <path d="M152.68,97.5a2.77,2.77,0,0,1-2.12-.84,3.11,3.11,0,0,1-.8-2.23,3.26,3.26,0,0,1,.83-2.36,3,3,0,0,1,2.23-.85,2.71,2.71,0,0,1,2.1.83,3.27,3.27,0,0,1,.75,2.29,3.23,3.23,0,0,1-.81,2.3A2.83,2.83,0,0,1,152.68,97.5Zm.07-5.47a1.81,1.81,0,0,0-1.46.63,2.59,2.59,0,0,0-.54,1.74,2.46,2.46,0,0,0,.54,1.68,1.87,1.87,0,0,0,1.46.62,1.76,1.76,0,0,0,1.43-.61,2.57,2.57,0,0,0,.51-1.71,2.65,2.65,0,0,0-.51-1.74A1.73,1.73,0,0,0,152.75,92Z" fill="#1e1e1e"/>
      <path d="M158.17,97.36h-1V88.48h1Z" fill="#1e1e1e"/>
      <path d="M165,97.36h-1v-1h0a2,2,0,0,1-1.85,1.09c-1.43,0-2.15-.85-2.15-2.55V91.36h1V94.8c0,1.26.48,1.9,1.45,1.9a1.5,1.5,0,0,0,1.16-.52,2,2,0,0,0,.45-1.36V91.36h1Z" fill="#1e1e1e"/>
      <path d="M175.42,97.36h-1V93.92a2.52,2.52,0,0,0-.31-1.44,1.15,1.15,0,0,0-1-.45,1.3,1.3,0,0,0-1.05.56,2.22,2.22,0,0,0-.43,1.35v3.42h-1V93.8c0-1.18-.45-1.77-1.36-1.77a1.28,1.28,0,0,0-1,.53,2.24,2.24,0,0,0-.41,1.38v3.42h-1v-6h1v1h0a2,2,0,0,1,1.86-1.09,1.72,1.72,0,0,1,1.07.35,1.62,1.62,0,0,1,.63.9,2.14,2.14,0,0,1,2-1.25c1.32,0,2,.82,2,2.45Z" fill="#1e1e1e"/>
      <path d="M182.06,94.6h-4.24a2.28,2.28,0,0,0,.54,1.55,1.89,1.89,0,0,0,1.42.55,3,3,0,0,0,1.86-.67v.9a3.47,3.47,0,0,1-2.09.57,2.56,2.56,0,0,1-2-.81,3.37,3.37,0,0,1-.72-2.3,3.29,3.29,0,0,1,.79-2.29,2.58,2.58,0,0,1,2-.88,2.29,2.29,0,0,1,1.83.76,3.19,3.19,0,0,1,.64,2.12Zm-1-.81a2,2,0,0,0-.41-1.3,1.38,1.38,0,0,0-1.09-.46,1.54,1.54,0,0,0-1.16.49,2.21,2.21,0,0,0-.58,1.27Z" fill="#1e1e1e"/>
      <path d="M190.35,91.16a1.74,1.74,0,0,0-.12-.67,1.37,1.37,0,0,0-.33-.48,1.39,1.39,0,0,0-.49-.28,2,2,0,0,0-.61-.09,2.08,2.08,0,0,0-.55.07,2.57,2.57,0,0,0-.52.21,3.74,3.74,0,0,0-.49.32,4.47,4.47,0,0,0-.45.42v-1a3,3,0,0,1,.91-.6,3.14,3.14,0,0,1,1.22-.21,3,3,0,0,1,1,.15,2.3,2.3,0,0,1,.76.44,2.09,2.09,0,0,1,.51.71,2.42,2.42,0,0,1,.18,1,3.52,3.52,0,0,1-.11.9,3.15,3.15,0,0,1-.35.77,4,4,0,0,1-.58.68,8.92,8.92,0,0,1-.83.67c-.39.28-.72.52-1,.72a4.34,4.34,0,0,0-.61.56,1.63,1.63,0,0,0-.32.52,1.89,1.89,0,0,0-.09.6h4.18v.86h-5.18V97a3.82,3.82,0,0,1,.11-1,2.59,2.59,0,0,1,.39-.78,4.42,4.42,0,0,1,.71-.74c.29-.25.64-.52,1.07-.83a6.69,6.69,0,0,0,.76-.63,3.31,3.31,0,0,0,.5-.6,2.1,2.1,0,0,0,.26-.6A2.78,2.78,0,0,0,190.35,91.16Z" fill="#1e1e1e"/>
    </g>
    <g>
      <path d="M133.56,193.13V192a1.91,1.91,0,0,0,.48.32,5,5,0,0,0,.58.24c.21.06.41.11.62.15a4.13,4.13,0,0,0,.57,0,2.22,2.22,0,0,0,1.36-.34,1.12,1.12,0,0,0,.45-1,1.15,1.15,0,0,0-.15-.59,1.76,1.76,0,0,0-.41-.46,4.57,4.57,0,0,0-.63-.4l-.77-.4c-.3-.15-.57-.3-.82-.45a3.54,3.54,0,0,1-.67-.5,2.3,2.3,0,0,1-.44-.63,1.86,1.86,0,0,1-.16-.81,1.88,1.88,0,0,1,.25-1,2.11,2.11,0,0,1,.66-.7,3,3,0,0,1,.94-.41,4.24,4.24,0,0,1,1.07-.14,4.08,4.08,0,0,1,1.81.3v1.11a3.24,3.24,0,0,0-1.91-.52,2.88,2.88,0,0,0-.65.07,1.78,1.78,0,0,0-.57.22,1.18,1.18,0,0,0-.41.39,1,1,0,0,0-.16.59,1.18,1.18,0,0,0,.12.55,1.31,1.31,0,0,0,.36.43,3,3,0,0,0,.57.38l.77.4c.3.14.59.3.86.46a4.46,4.46,0,0,1,.71.55,2.53,2.53,0,0,1,.48.66,1.84,1.84,0,0,1,.18.83,2.09,2.09,0,0,1-.24,1.05,1.93,1.93,0,0,1-.66.7,2.8,2.8,0,0,1-.95.39,5.24,5.24,0,0,1-1.14.12l-.49,0-.6-.09a5.47,5.47,0,0,1-.58-.15A1.57,1.57,0,0,1,133.56,193.13Z" fill="#1e1e1e"/>
      <path d="M142.59,193.42a1.87,1.87,0,0,1-.89.18c-1,0-1.58-.58-1.58-1.75v-3.56h-1v-.82h1V186l1-.31v1.77h1.51v.82h-1.51v3.39a1.39,1.39,0,0,0,.21.86.81.81,0,0,0,.68.25,1,1,0,0,0,.62-.19Z" fill="#1e1e1e"/>
      <path d="M146.38,193.61a2.79,2.79,0,0,1-2.12-.84,3.1,3.1,0,0,1-.79-2.23,3.26,3.26,0,0,1,.82-2.36,3,3,0,0,1,2.24-.85,2.69,2.69,0,0,1,2.09.83,3.27,3.27,0,0,1,.75,2.29,3.23,3.23,0,0,1-.81,2.3A2.83,2.83,0,0,1,146.38,193.61Zm.07-5.47a1.83,1.83,0,0,0-1.46.63,2.59,2.59,0,0,0-.54,1.74,2.41,2.41,0,0,0,.55,1.68,1.85,1.85,0,0,0,1.45.62,1.78,1.78,0,0,0,1.44-.61,2.62,2.62,0,0,0,.5-1.71,2.71,2.71,0,0,0-.5-1.74A1.78,1.78,0,0,0,146.45,188.14Z" fill="#1e1e1e"/>
      <path d="M154,188.45a1.18,1.18,0,0,0-.73-.2,1.25,1.25,0,0,0-1,.58,2.75,2.75,0,0,0-.41,1.59v3.05h-1v-6h1v1.24h0a2.17,2.17,0,0,1,.63-1,1.44,1.44,0,0,1,.94-.35,1.75,1.75,0,0,1,.58.08Z" fill="#1e1e1e"/>
      <path d="M159.37,193.47h-1v-.93h0a2,2,0,0,1-1.85,1.07,2,2,0,0,1-1.4-.47,1.65,1.65,0,0,1-.51-1.26c0-1.12.66-1.77,2-2l1.8-.25q0-1.53-1.23-1.53a3,3,0,0,0-2,.74v-1a3.68,3.68,0,0,1,2-.57c1.41,0,2.11.75,2.11,2.24Zm-1-3-1.44.2a2.3,2.3,0,0,0-1,.33,1,1,0,0,0-.34.84.92.92,0,0,0,.31.72,1.25,1.25,0,0,0,.84.28,1.56,1.56,0,0,0,1.18-.5,1.8,1.8,0,0,0,.46-1.27Z" fill="#1e1e1e"/>
      <path d="M166.31,193q0,3.31-3.17,3.31a4.23,4.23,0,0,1-1.94-.42v-1a4,4,0,0,0,1.93.56c1.48,0,2.22-.79,2.22-2.36v-.65h0a2.25,2.25,0,0,1-2.06,1.14,2.22,2.22,0,0,1-1.8-.8,3.14,3.14,0,0,1-.68-2.14,3.73,3.73,0,0,1,.73-2.43,2.44,2.44,0,0,1,2-.91,2,2,0,0,1,1.8,1h0v-.84h1Zm-1-2.23v-.88a1.74,1.74,0,0,0-.49-1.23,1.58,1.58,0,0,0-1.2-.51,1.68,1.68,0,0,0-1.4.65,2.93,2.93,0,0,0-.5,1.81,2.51,2.51,0,0,0,.48,1.61,1.57,1.57,0,0,0,1.28.6,1.7,1.7,0,0,0,1.32-.58A2.12,2.12,0,0,0,165.35,190.76Z" fill="#1e1e1e"/>
      <path d="M173.07,190.71h-4.23a2.19,2.19,0,0,0,.54,1.55,1.85,1.85,0,0,0,1.41.55,3,3,0,0,0,1.87-.67v.9a3.52,3.52,0,0,1-2.09.57,2.54,2.54,0,0,1-2-.81,3.33,3.33,0,0,1-.73-2.3,3.25,3.25,0,0,1,.8-2.28,2.52,2.52,0,0,1,2-.89,2.26,2.26,0,0,1,1.82.77,3.15,3.15,0,0,1,.64,2.11Zm-1-.81a2,2,0,0,0-.4-1.3,1.4,1.4,0,0,0-1.1-.46,1.52,1.52,0,0,0-1.15.49,2.16,2.16,0,0,0-.59,1.27Z" fill="#1e1e1e"/>
      <path d="M178.8,192.61h0v3.62h-1v-8.76h1v1.06h0a2.26,2.26,0,0,1,2.07-1.2,2.18,2.18,0,0,1,1.81.81,3.31,3.31,0,0,1,.65,2.16,3.71,3.71,0,0,1-.73,2.41,2.45,2.45,0,0,1-2,.9A2,2,0,0,1,178.8,192.61Zm0-2.42V191a1.81,1.81,0,0,0,.48,1.27,1.72,1.72,0,0,0,2.59-.15,3.09,3.09,0,0,0,.5-1.86,2.47,2.47,0,0,0-.46-1.57,1.54,1.54,0,0,0-1.26-.57,1.71,1.71,0,0,0-1.35.59A2.11,2.11,0,0,0,178.78,190.19Z" fill="#1e1e1e"/>
      <path d="M187.38,193.61a2.79,2.79,0,0,1-2.13-.84,3.1,3.1,0,0,1-.79-2.23,3.26,3.26,0,0,1,.82-2.36,3,3,0,0,1,2.24-.85,2.69,2.69,0,0,1,2.09.83,3.27,3.27,0,0,1,.75,2.29,3.23,3.23,0,0,1-.81,2.3A2.81,2.81,0,0,1,187.38,193.61Zm.07-5.47a1.84,1.84,0,0,0-1.47.63,2.59,2.59,0,0,0-.54,1.74,2.41,2.41,0,0,0,.55,1.68,1.85,1.85,0,0,0,1.46.62,1.76,1.76,0,0,0,1.43-.61,2.62,2.62,0,0,0,.5-1.71,2.71,2.71,0,0,0-.5-1.74A1.76,1.76,0,0,0,187.45,188.14Z" fill="#1e1e1e"/>
      <path d="M194.41,193.61a2.79,2.79,0,0,1-2.13-.84,3.1,3.1,0,0,1-.79-2.23,3.26,3.26,0,0,1,.83-2.36,3,3,0,0,1,2.23-.85,2.69,2.69,0,0,1,2.09.83,3.23,3.23,0,0,1,.76,2.29,3.19,3.19,0,0,1-.82,2.3A2.81,2.81,0,0,1,194.41,193.61Zm.07-5.47a1.84,1.84,0,0,0-1.47.63,2.59,2.59,0,0,0-.54,1.74,2.46,2.46,0,0,0,.55,1.68,1.85,1.85,0,0,0,1.46.62,1.76,1.76,0,0,0,1.43-.61,2.62,2.62,0,0,0,.5-1.71,2.71,2.71,0,0,0-.5-1.74A1.76,1.76,0,0,0,194.48,188.14Z" fill="#1e1e1e"/>
      <path d="M199.89,193.47h-1v-8.88h1Z" fill="#1e1e1e"/>
    </g>
    <g>
      <path d="M245.88,12a4.92,4.92,0,0,1-2.32.49,3.72,3.72,0,0,1-2.87-1.15,4.26,4.26,0,0,1-1.08-3,4.47,4.47,0,0,1,1.21-3.26,4.11,4.11,0,0,1,3.08-1.24,5,5,0,0,1,2,.35v1a4,4,0,0,0-2-.51,3,3,0,0,0-2.34,1,3.62,3.62,0,0,0-.9,2.58,3.47,3.47,0,0,0,.84,2.45,2.86,2.86,0,0,0,2.21.91,4.2,4.2,0,0,0,2.19-.56Z" fill="#1e1e1e"/>
      <path d="M247.79,7.54a.63.63,0,0,1-.46-.2.65.65,0,0,1,.93-.92.65.65,0,0,1,0,.92A.63.63,0,0,1,247.79,7.54Zm0,5a.62.62,0,0,1-.46-.19.66.66,0,0,1-.19-.46.68.68,0,0,1,.19-.47.64.64,0,0,1,.93,0,.64.64,0,0,1,.19.47.62.62,0,0,1-.19.46A.63.63,0,0,1,247.79,12.49Z" fill="#1e1e1e"/>
      <path d="M253.76,13.77h-.88L248.94,4h.9Z" fill="#1e1e1e"/>
      <path d="M260.45,12a4.89,4.89,0,0,1-2.32.49,3.74,3.74,0,0,1-2.87-1.15,4.25,4.25,0,0,1-1.07-3,4.47,4.47,0,0,1,1.21-3.26,4.1,4.1,0,0,1,3.07-1.24,4.91,4.91,0,0,1,2,.35v1a4,4,0,0,0-2-.51,3,3,0,0,0-2.34,1,3.62,3.62,0,0,0-.9,2.58,3.47,3.47,0,0,0,.84,2.45,2.84,2.84,0,0,0,2.2.91,4.15,4.15,0,0,0,2.19-.56Z" fill="#1e1e1e"/>
      <path d="M263,12.36h-1V3.48h1Z" fill="#1e1e1e"/>
      <path d="M269.79,12.36h-1v-.95h0A2,2,0,0,1,267,12.5c-1.43,0-2.15-.85-2.15-2.55V6.36h1V9.8c0,1.26.48,1.9,1.45,1.9a1.49,1.49,0,0,0,1.16-.52,2,2,0,0,0,.45-1.36V6.36h1Z" fill="#1e1e1e"/>
      <path d="M271.37,12.15v-1a2.88,2.88,0,0,0,1.73.58c.84,0,1.26-.29,1.26-.85a.78.78,0,0,0-.1-.41,1,1,0,0,0-.3-.29,1.93,1.93,0,0,0-.43-.23L273,9.7a5.79,5.79,0,0,1-.7-.32,1.74,1.74,0,0,1-.5-.36,1.15,1.15,0,0,1-.3-.46,1.57,1.57,0,0,1-.11-.6,1.45,1.45,0,0,1,.2-.75,1.55,1.55,0,0,1,.51-.54,2.51,2.51,0,0,1,.74-.34,3.56,3.56,0,0,1,2.24.16v1A2.71,2.71,0,0,0,273.55,7a1.88,1.88,0,0,0-.49.06,1.16,1.16,0,0,0-.37.18.85.85,0,0,0-.24.26.82.82,0,0,0-.08.35.93.93,0,0,0,.08.39.94.94,0,0,0,.25.28,1.67,1.67,0,0,0,.4.22l.53.22a6.21,6.21,0,0,1,.72.31,2.44,2.44,0,0,1,.54.37,1.36,1.36,0,0,1,.46,1.09,1.47,1.47,0,0,1-.2.77,1.7,1.7,0,0,1-.52.55,2.49,2.49,0,0,1-.76.32,3.68,3.68,0,0,1-.89.1A3.39,3.39,0,0,1,271.37,12.15Z" fill="#1e1e1e"/>
      <path d="M279.61,12.31a2,2,0,0,1-.9.18c-1,0-1.57-.58-1.57-1.76V7.18h-1V6.36h1V4.9l1-.31V6.36h1.51v.82H278.1v3.38a1.49,1.49,0,0,0,.2.87.83.83,0,0,0,.68.25,1,1,0,0,0,.63-.2Z" fill="#1e1e1e"/>
      <path d="M285.71,9.6h-4.23a2.19,2.19,0,0,0,.54,1.55,1.86,1.86,0,0,0,1.42.55A3,3,0,0,0,285.3,11v.9a3.52,3.52,0,0,1-2.09.57,2.54,2.54,0,0,1-2-.81,3.33,3.33,0,0,1-.73-2.3,3.29,3.29,0,0,1,.8-2.29,2.56,2.56,0,0,1,2-.88,2.28,2.28,0,0,1,1.82.76,3.19,3.19,0,0,1,.64,2.12Zm-1-.81a2,2,0,0,0-.4-1.3,1.39,1.39,0,0,0-1.1-.46,1.52,1.52,0,0,0-1.15.49,2.16,2.16,0,0,0-.59,1.27Z" fill="#1e1e1e"/>
      <path d="M290.3,7.34a1.18,1.18,0,0,0-.73-.2,1.25,1.25,0,0,0-1,.58,2.75,2.75,0,0,0-.41,1.59v3h-1v-6h1V7.6h0a2.17,2.17,0,0,1,.63-1,1.44,1.44,0,0,1,.94-.35,1.75,1.75,0,0,1,.58.08Z" fill="#1e1e1e"/>
      <path d="M291.08,12V10.86a2,2,0,0,0,.47.32,5.19,5.19,0,0,0,.59.24,6.23,6.23,0,0,0,.62.15,4,4,0,0,0,.57,0,2.22,2.22,0,0,0,1.36-.34,1.14,1.14,0,0,0,.45-1,1.15,1.15,0,0,0-.15-.59,1.64,1.64,0,0,0-.42-.46,3.91,3.91,0,0,0-.62-.4l-.78-.4L292.35,8a3.81,3.81,0,0,1-.66-.5,2.24,2.24,0,0,1-.44-.63,1.88,1.88,0,0,1-.16-.82,1.87,1.87,0,0,1,.25-1,2.11,2.11,0,0,1,.66-.7,3,3,0,0,1,.94-.41A4.24,4.24,0,0,1,294,3.82a4.11,4.11,0,0,1,1.81.3V5.23a3.26,3.26,0,0,0-1.91-.52,2.88,2.88,0,0,0-.65.07,1.78,1.78,0,0,0-.57.22,1.18,1.18,0,0,0-.41.39,1,1,0,0,0-.16.59,1.18,1.18,0,0,0,.12.55,1.41,1.41,0,0,0,.35.43,3.76,3.76,0,0,0,.57.38l.78.39c.3.15.59.31.86.47a4.46,4.46,0,0,1,.71.55,2.53,2.53,0,0,1,.48.66,1.84,1.84,0,0,1,.18.83,2,2,0,0,1-.9,1.75,2.88,2.88,0,0,1-.95.39,5.24,5.24,0,0,1-1.14.12l-.49,0-.6-.09a4.91,4.91,0,0,1-.58-.15A1.57,1.57,0,0,1,291.08,12Z" fill="#1e1e1e"/>
      <path d="M300.11,12.31a1.92,1.92,0,0,1-.9.18c-1,0-1.57-.58-1.57-1.76V7.18h-1V6.36h1V4.9l1-.31V6.36h1.51v.82H298.6v3.38a1.49,1.49,0,0,0,.2.87.83.83,0,0,0,.68.25,1,1,0,0,0,.63-.2Z" fill="#1e1e1e"/>
      <path d="M303.9,12.5a2.79,2.79,0,0,1-2.12-.84,3.11,3.11,0,0,1-.8-2.23,3.26,3.26,0,0,1,.83-2.36A3,3,0,0,1,304,6.22a2.7,2.7,0,0,1,2.1.83,3.27,3.27,0,0,1,.75,2.29,3.23,3.23,0,0,1-.81,2.3A2.83,2.83,0,0,1,303.9,12.5ZM304,7a1.83,1.83,0,0,0-1.46.63A2.59,2.59,0,0,0,302,9.4a2.46,2.46,0,0,0,.54,1.68,1.87,1.87,0,0,0,1.46.62,1.76,1.76,0,0,0,1.43-.61,2.57,2.57,0,0,0,.51-1.71,2.65,2.65,0,0,0-.51-1.74A1.73,1.73,0,0,0,304,7Z" fill="#1e1e1e"/>
      <path d="M311.55,7.34a1.14,1.14,0,0,0-.72-.2,1.24,1.24,0,0,0-1,.58,2.68,2.68,0,0,0-.41,1.59v3h-1v-6h1V7.6h0a2.17,2.17,0,0,1,.63-1,1.44,1.44,0,0,1,.94-.35,1.65,1.65,0,0,1,.57.08Z" fill="#1e1e1e"/>
      <path d="M316.89,12.36h-1v-.93h0a2,2,0,0,1-1.85,1.07,2,2,0,0,1-1.4-.47,1.65,1.65,0,0,1-.51-1.26c0-1.12.66-1.77,2-2l1.8-.25c0-1-.41-1.53-1.24-1.53a3,3,0,0,0-1.95.74v-1a3.68,3.68,0,0,1,2-.57c1.41,0,2.11.75,2.11,2.24Zm-1-3-1.45.2a2.25,2.25,0,0,0-1,.33,1,1,0,0,0-.34.84.92.92,0,0,0,.31.72,1.24,1.24,0,0,0,.83.28,1.56,1.56,0,0,0,1.19-.51,1.76,1.76,0,0,0,.46-1.26Z" fill="#1e1e1e"/>
      <path d="M323.82,11.88q0,3.31-3.16,3.31a4.31,4.31,0,0,1-2-.42v-1a4.06,4.06,0,0,0,1.94.56c1.47,0,2.21-.79,2.21-2.36v-.65h0a2.26,2.26,0,0,1-2.06,1.14,2.22,2.22,0,0,1-1.8-.8,3.15,3.15,0,0,1-.69-2.14A3.73,3.73,0,0,1,319,7.13a2.44,2.44,0,0,1,2-.91,2,2,0,0,1,1.8,1h0V6.36h1Zm-1-2.23V8.77a1.73,1.73,0,0,0-.48-1.23,1.58,1.58,0,0,0-1.2-.51,1.68,1.68,0,0,0-1.4.65,2.86,2.86,0,0,0-.5,1.81,2.53,2.53,0,0,0,.48,1.61,1.56,1.56,0,0,0,1.28.6,1.7,1.7,0,0,0,1.32-.58A2.16,2.16,0,0,0,322.86,9.65Z" fill="#1e1e1e"/>
      <path d="M330.59,9.6h-4.23a2.23,2.23,0,0,0,.53,1.55,1.89,1.89,0,0,0,1.42.55,3,3,0,0,0,1.87-.67v.9a3.53,3.53,0,0,1-2.1.57,2.53,2.53,0,0,1-2-.81,3.33,3.33,0,0,1-.73-2.3,3.29,3.29,0,0,1,.79-2.29,2.58,2.58,0,0,1,2-.88A2.29,2.29,0,0,1,330,7a3.19,3.19,0,0,1,.64,2.12Zm-1-.81a2,2,0,0,0-.4-1.3,1.4,1.4,0,0,0-1.1-.46,1.54,1.54,0,0,0-1.16.49,2.21,2.21,0,0,0-.58,1.27Z" fill="#1e1e1e"/>
      <path d="M335.75,13.77h-.89L330.92,4h.91Z" fill="#1e1e1e"/>
      <path d="M271.44,17.16l-3.12,8.4h-1.08l-3.05-8.4h1.1l2.32,6.66a3.18,3.18,0,0,1,.17.75h0a3.38,3.38,0,0,1,.19-.76l2.37-6.65Z" fill="#1e1e1e"/>
      <path d="M274.26,25.7a2.76,2.76,0,0,1-2.12-.84,3.11,3.11,0,0,1-.8-2.23,3.26,3.26,0,0,1,.83-2.36,3,3,0,0,1,2.23-.85,2.69,2.69,0,0,1,2.09.83,3.23,3.23,0,0,1,.76,2.29,3.23,3.23,0,0,1-.81,2.3A2.83,2.83,0,0,1,274.26,25.7Zm.07-5.47a1.84,1.84,0,0,0-1.47.63,2.64,2.64,0,0,0-.53,1.74,2.46,2.46,0,0,0,.54,1.68,1.85,1.85,0,0,0,1.46.62,1.76,1.76,0,0,0,1.43-.61,2.57,2.57,0,0,0,.5-1.71,2.65,2.65,0,0,0-.5-1.74A1.76,1.76,0,0,0,274.33,20.23Z" fill="#1e1e1e"/>
      <path d="M279.74,25.56h-1V16.68h1Z" fill="#1e1e1e"/>
      <path d="M286.54,25.56h-1v-.95h0a2,2,0,0,1-1.86,1.09c-1.42,0-2.14-.85-2.14-2.55V19.56h1V23c0,1.26.48,1.9,1.45,1.9a1.5,1.5,0,0,0,1.16-.52,2,2,0,0,0,.45-1.36V19.56h1Z" fill="#1e1e1e"/>
      <path d="M297,25.56h-1V22.12a2.52,2.52,0,0,0-.31-1.44,1.15,1.15,0,0,0-1-.45,1.3,1.3,0,0,0-1.05.56,2.16,2.16,0,0,0-.43,1.35v3.42h-1V22c0-1.18-.46-1.77-1.37-1.77a1.27,1.27,0,0,0-1,.53,2.24,2.24,0,0,0-.41,1.38v3.42h-1v-6h1v1h0a2.06,2.06,0,0,1,1.87-1.09,1.76,1.76,0,0,1,1.7,1.25,2.14,2.14,0,0,1,2-1.25c1.32,0,2,.82,2,2.45Z" fill="#1e1e1e"/>
      <path d="M303.64,22.8H299.4a2.28,2.28,0,0,0,.54,1.55,1.87,1.87,0,0,0,1.42.55,3,3,0,0,0,1.86-.67v.9a3.5,3.5,0,0,1-2.09.57,2.56,2.56,0,0,1-2-.81,3.37,3.37,0,0,1-.72-2.3,3.25,3.25,0,0,1,.79-2.28,2.55,2.55,0,0,1,2-.89,2.24,2.24,0,0,1,1.82.77,3.15,3.15,0,0,1,.65,2.11Zm-1-.81a1.93,1.93,0,0,0-.4-1.3,1.39,1.39,0,0,0-1.1-.46,1.54,1.54,0,0,0-1.15.49,2.22,2.22,0,0,0-.59,1.27Z" fill="#1e1e1e"/>
      <path d="M309.7,23.19a2.5,2.5,0,0,1-.21,1,2.25,2.25,0,0,1-.6.8,2.83,2.83,0,0,1-.94.51,3.78,3.78,0,0,1-1.2.18,3.44,3.44,0,0,1-1.91-.46v-1a3,3,0,0,0,1.94.67,2.81,2.81,0,0,0,.8-.11,1.86,1.86,0,0,0,.61-.32,1.39,1.39,0,0,0,.39-.51,1.65,1.65,0,0,0,.14-.68c0-1.09-.78-1.64-2.35-1.64h-.69v-.82h.66c1.38,0,2.07-.51,2.07-1.54s-.52-1.43-1.58-1.43a2.68,2.68,0,0,0-1.67.59V17.5a3.66,3.66,0,0,1,1.91-.48,2.93,2.93,0,0,1,1,.15,2.16,2.16,0,0,1,.73.41,1.74,1.74,0,0,1,.47.63,2,2,0,0,1,.17.81,2.06,2.06,0,0,1-1.68,2.14v0a2.49,2.49,0,0,1,.79.21,2.17,2.17,0,0,1,.63.42,1.78,1.78,0,0,1,.41.6A2,2,0,0,1,309.7,23.19Z" fill="#1e1e1e"/>
    </g>
    <g>
      <path d="M269.86,89l-3.11,8.4h-1.09L262.61,89h1.1L266,95.62a4.63,4.63,0,0,1,.17.75h0a4,4,0,0,1,.19-.76L268.8,89Z" fill="#1e1e1e"/>
      <path d="M272.68,97.5a2.77,2.77,0,0,1-2.12-.84,3.11,3.11,0,0,1-.8-2.23,3.26,3.26,0,0,1,.83-2.36,3,3,0,0,1,2.23-.85,2.71,2.71,0,0,1,2.1.83,3.27,3.27,0,0,1,.75,2.29,3.23,3.23,0,0,1-.81,2.3A2.83,2.83,0,0,1,272.68,97.5Zm.07-5.47a1.81,1.81,0,0,0-1.46.63,2.59,2.59,0,0,0-.54,1.74,2.46,2.46,0,0,0,.54,1.68,1.87,1.87,0,0,0,1.46.62,1.76,1.76,0,0,0,1.43-.61,2.57,2.57,0,0,0,.51-1.71,2.65,2.65,0,0,0-.51-1.74A1.73,1.73,0,0,0,272.75,92Z" fill="#1e1e1e"/>
      <path d="M278.17,97.36h-1V88.48h1Z" fill="#1e1e1e"/>
      <path d="M285,97.36h-1v-1h0a2,2,0,0,1-1.85,1.09c-1.43,0-2.15-.85-2.15-2.55V91.36h1V94.8c0,1.26.48,1.9,1.45,1.9a1.5,1.5,0,0,0,1.16-.52,2,2,0,0,0,.45-1.36V91.36h1Z" fill="#1e1e1e"/>
      <path d="M295.42,97.36h-1V93.92a2.52,2.52,0,0,0-.31-1.44,1.15,1.15,0,0,0-1-.45,1.3,1.3,0,0,0-1.05.56,2.22,2.22,0,0,0-.43,1.35v3.42h-1V93.8c0-1.18-.45-1.77-1.36-1.77a1.28,1.28,0,0,0-1.05.53,2.24,2.24,0,0,0-.41,1.38v3.42h-1v-6h1v1h0a2,2,0,0,1,1.86-1.09,1.72,1.72,0,0,1,1.07.35,1.62,1.62,0,0,1,.63.9,2.14,2.14,0,0,1,2-1.25c1.32,0,2,.82,2,2.45Z" fill="#1e1e1e"/>
      <path d="M302.06,94.6h-4.24a2.28,2.28,0,0,0,.54,1.55,1.89,1.89,0,0,0,1.42.55,3,3,0,0,0,1.86-.67v.9a3.47,3.47,0,0,1-2.09.57,2.56,2.56,0,0,1-2-.81,3.37,3.37,0,0,1-.72-2.3,3.29,3.29,0,0,1,.79-2.29,2.58,2.58,0,0,1,2-.88,2.29,2.29,0,0,1,1.83.76,3.19,3.19,0,0,1,.64,2.12Zm-1-.81a2,2,0,0,0-.41-1.3,1.38,1.38,0,0,0-1.09-.46,1.54,1.54,0,0,0-1.16.49,2.21,2.21,0,0,0-.58,1.27Z" fill="#1e1e1e"/>
      <path d="M311.41,95a2.51,2.51,0,0,1-.21,1,2.28,2.28,0,0,1-.61.8,2.79,2.79,0,0,1-.93.51,3.78,3.78,0,0,1-1.2.18,3.44,3.44,0,0,1-1.91-.46V96a3,3,0,0,0,1.94.67,2.81,2.81,0,0,0,.8-.11,2,2,0,0,0,.61-.32,1.39,1.39,0,0,0,.39-.51,1.65,1.65,0,0,0,.14-.68c0-1.09-.78-1.64-2.35-1.64h-.69v-.82h.66c1.38,0,2.07-.51,2.07-1.55s-.52-1.42-1.58-1.42a2.68,2.68,0,0,0-1.67.59V89.3a3.66,3.66,0,0,1,1.91-.48,2.93,2.93,0,0,1,1,.15,2,2,0,0,1,.73.41,1.74,1.74,0,0,1,.47.63,2,2,0,0,1,.17.81A2.06,2.06,0,0,1,309.43,93v0a2.49,2.49,0,0,1,.79.21,2.31,2.31,0,0,1,.63.42,1.78,1.78,0,0,1,.41.6A2,2,0,0,1,311.41,95Z" fill="#1e1e1e"/>
    </g>
  </g>
</svg>
