<svg xmlns="http://www.w3.org/2000/svg" xmlns:xlink="http://www.w3.org/1999/xlink" viewBox="0 0 445 203.71">
  <defs>
    <linearGradient id="linear-gradient" x1="58.29" y1="488.59" x2="58.29" y2="442.39" gradientTransform="matrix(1, 0, 0, -1, 0, 643.59)" gradientUnits="userSpaceOnUse">
      <stop offset="0" stop-color="#b3b2b3"/>
      <stop offset="0.38" stop-color="#afaeaf"/>
      <stop offset="0.76" stop-color="#a2a2a2"/>
      <stop offset="1" stop-color="#979797"/>
    </linearGradient>
    <linearGradient id="linear-gradient-2" x1="93.7" y1="488.59" x2="93.7" y2="442.39" xlink:href="#linear-gradient"/>
    <linearGradient id="linear-gradient-3" x1="148.31" y1="488.59" x2="148.31" y2="442.39" xlink:href="#linear-gradient"/>
    <linearGradient id="linear-gradient-4" x1="183.72" y1="488.59" x2="183.72" y2="442.39" xlink:href="#linear-gradient"/>
    <linearGradient id="linear-gradient-5" x1="61.17" y1="93.92" x2="88.15" y2="140.66" gradientUnits="userSpaceOnUse">
      <stop offset="0" stop-color="#5ea0ef"/>
      <stop offset="0.07" stop-color="#64a4f0" stop-opacity="0.98"/>
      <stop offset="0.14" stop-color="#77aff1" stop-opacity="0.92"/>
      <stop offset="0.22" stop-color="#96c1f5" stop-opacity="0.83"/>
      <stop offset="0.3" stop-color="#c2dbf9" stop-opacity="0.69"/>
      <stop offset="0.38" stop-color="#f9fcfe" stop-opacity="0.52"/>
      <stop offset="0.39" stop-color="#fff" stop-opacity="0.5"/>
      <stop offset="0.43" stop-color="#deedf9" stop-opacity="0.57"/>
      <stop offset="0.55" stop-color="#8ec3ec" stop-opacity="0.72"/>
      <stop offset="0.67" stop-color="#50a2e2" stop-opacity="0.84"/>
      <stop offset="0.79" stop-color="#248bda" stop-opacity="0.93"/>
      <stop offset="0.9" stop-color="#097dd6" stop-opacity="0.98"/>
      <stop offset="1" stop-color="#0078d4"/>
    </linearGradient>
    <linearGradient id="linear-gradient-6" x1="151.19" y1="93.92" x2="178.17" y2="140.66" xlink:href="#linear-gradient-5"/>
    <linearGradient id="linear-gradient-7" x1="292.23" y1="551.04" x2="292.23" y2="504.84" xlink:href="#linear-gradient"/>
    <linearGradient id="linear-gradient-8" x1="400.21" y1="550.2" x2="400.21" y2="503.99" xlink:href="#linear-gradient"/>
    <linearGradient id="linear-gradient-9" x1="253.42" y1="455.77" x2="294.88" y2="479.71" gradientTransform="matrix(1, 0, 0, -1, 0, 643.59)" gradientUnits="userSpaceOnUse">
      <stop offset="0" stop-color="#999"/>
      <stop offset="0.57" stop-color="#767676"/>
      <stop offset="1" stop-color="#767676"/>
    </linearGradient>
    <linearGradient id="linear-gradient-10" x1="262.58" y1="158.54" x2="262.58" y2="155.49" gradientUnits="userSpaceOnUse">
      <stop offset="0" stop-color="#212121"/>
      <stop offset="0.57" stop-color="#212121"/>
      <stop offset="0.76" stop-color="#2a2a2a"/>
      <stop offset="1" stop-color="#3b3b3b"/>
    </linearGradient>
    <linearGradient id="linear-gradient-11" x1="284.86" y1="158.54" x2="284.86" y2="155.49" xlink:href="#linear-gradient-10"/>
    <linearGradient id="linear-gradient-12" x1="262.58" y1="196.73" x2="262.58" y2="193.67" xlink:href="#linear-gradient-10"/>
    <linearGradient id="linear-gradient-13" x1="284.86" y1="196.73" x2="284.86" y2="193.67" xlink:href="#linear-gradient-10"/>
    <linearGradient id="linear-gradient-14" x1="264.16" y1="190.07" x2="279.4" y2="163.67" gradientUnits="userSpaceOnUse">
      <stop offset="0" stop-color="#3b3b3b"/>
      <stop offset="0.24" stop-color="#2a2a2a"/>
      <stop offset="0.43" stop-color="#212121"/>
      <stop offset="1" stop-color="#212121"/>
    </linearGradient>
    <linearGradient id="linear-gradient-15" x1="289.57" y1="455.77" x2="331.03" y2="479.71" xlink:href="#linear-gradient-9"/>
    <linearGradient id="linear-gradient-16" x1="298.73" y1="158.54" x2="298.73" y2="155.49" xlink:href="#linear-gradient-10"/>
    <linearGradient id="linear-gradient-17" x1="321" y1="158.54" x2="321" y2="155.49" xlink:href="#linear-gradient-10"/>
    <linearGradient id="linear-gradient-18" x1="298.73" y1="196.73" x2="298.73" y2="193.67" xlink:href="#linear-gradient-10"/>
    <linearGradient id="linear-gradient-19" x1="321" y1="196.73" x2="321" y2="193.67" xlink:href="#linear-gradient-10"/>
    <linearGradient id="linear-gradient-20" x1="300.31" y1="190.07" x2="315.55" y2="163.67" xlink:href="#linear-gradient-14"/>
    <linearGradient id="linear-gradient-21" x1="361.41" y1="454.93" x2="402.86" y2="478.86" xlink:href="#linear-gradient-9"/>
    <linearGradient id="linear-gradient-22" x1="370.56" y1="159.39" x2="370.56" y2="156.33" xlink:href="#linear-gradient-10"/>
    <linearGradient id="linear-gradient-23" x1="392.84" y1="159.39" x2="392.84" y2="156.33" xlink:href="#linear-gradient-10"/>
    <linearGradient id="linear-gradient-24" x1="370.56" y1="197.57" x2="370.56" y2="194.52" xlink:href="#linear-gradient-10"/>
    <linearGradient id="linear-gradient-25" x1="392.84" y1="197.57" x2="392.84" y2="194.52" xlink:href="#linear-gradient-10"/>
    <linearGradient id="linear-gradient-26" x1="372.14" y1="190.91" x2="387.38" y2="164.52" xlink:href="#linear-gradient-14"/>
    <linearGradient id="linear-gradient-27" x1="397.55" y1="454.93" x2="439.01" y2="478.86" xlink:href="#linear-gradient-9"/>
    <linearGradient id="linear-gradient-28" x1="406.71" y1="159.39" x2="406.71" y2="156.33" xlink:href="#linear-gradient-10"/>
    <linearGradient id="linear-gradient-29" x1="428.99" y1="159.39" x2="428.99" y2="156.33" xlink:href="#linear-gradient-10"/>
    <linearGradient id="linear-gradient-30" x1="406.71" y1="197.57" x2="406.71" y2="194.52" xlink:href="#linear-gradient-10"/>
    <linearGradient id="linear-gradient-31" x1="428.99" y1="197.57" x2="428.99" y2="194.52" xlink:href="#linear-gradient-10"/>
    <linearGradient id="linear-gradient-32" x1="408.29" y1="190.91" x2="423.53" y2="164.52" xlink:href="#linear-gradient-14"/>
    <radialGradient id="radial-gradient" cx="21.69" cy="488.9" r="10.88" gradientTransform="matrix(1, 0, 0, -1, 0, 643.59)" gradientUnits="userSpaceOnUse">
      <stop offset="0" stop-color="#7956ba"/>
      <stop offset="0.69" stop-color="#724eb4"/>
      <stop offset="0.87" stop-color="#6f4bb2"/>
    </radialGradient>
    <radialGradient id="radial-gradient-2" cx="21.68" cy="488.75" r="1.54" gradientTransform="matrix(1, 0, 0, -1, 0, 643.59)" gradientUnits="userSpaceOnUse">
      <stop offset="0" stop-color="#7f7f7f"/>
      <stop offset="1" stop-color="#5e5e5e"/>
    </radialGradient>
    <radialGradient id="radial-gradient-3" cx="237.46" cy="488.9" r="10.88" xlink:href="#radial-gradient"/>
    <radialGradient id="radial-gradient-4" cx="237.45" cy="488.75" r="1.54" xlink:href="#radial-gradient-2"/>
    <radialGradient id="radial-gradient-5" cx="344.84" cy="488.9" r="10.88" xlink:href="#radial-gradient"/>
    <radialGradient id="radial-gradient-6" cx="344.83" cy="488.75" r="1.54" xlink:href="#radial-gradient-2"/>
  </defs>
  <g style="isolation: isolate">
    <g id="Shapes">
      <rect width="445" height="203.71" fill="#fff"/>
      <path d="M56.68,156.12v-4.06c0-2.24,2.25-4.06,5-4.06h26c2.75,0,5,1.82,5,4.06v4.06" fill="none" stroke="#3c3c41" stroke-miterlimit="10"/>
      <line x1="74.66" y1="148" x2="74.66" y2="139.79" fill="none" stroke="#3c3c41" stroke-miterlimit="10"/>
      <g>
        <path d="M73.29,199.63a1.67,1.67,0,0,1-1.73,1.57H45a1.67,1.67,0,0,1-1.73-1.57V156.56A1.66,1.66,0,0,1,45,155H71.56a1.66,1.66,0,0,1,1.73,1.56Z" fill="url(#linear-gradient)"/>
        <circle cx="46.72" cy="159.27" r="1.53" fill="#fff"/>
        <circle cx="68.99" cy="159.27" r="1.53" fill="#fff"/>
        <circle cx="46.72" cy="197.45" r="1.53" fill="#fff"/>
        <circle cx="68.99" cy="197.45" r="1.53" fill="#fff"/>
      </g>
      <g>
        <path d="M108.7,199.63A1.68,1.68,0,0,1,107,201.2H80.43a1.67,1.67,0,0,1-1.73-1.57V156.56A1.66,1.66,0,0,1,80.43,155H107a1.66,1.66,0,0,1,1.73,1.56Z" fill="url(#linear-gradient-2)"/>
        <circle cx="82.13" cy="159.27" r="1.53" fill="#fff"/>
        <circle cx="104.4" cy="159.27" r="1.53" fill="#fff"/>
        <circle cx="82.13" cy="197.45" r="1.53" fill="#fff"/>
        <circle cx="104.4" cy="197.45" r="1.53" fill="#fff"/>
      </g>
      <path d="M146.7,156.12v-4.06c0-2.24,2.25-4.06,5-4.06h26c2.75,0,5,1.82,5,4.06v4.06" fill="none" stroke="#3c3c41" stroke-miterlimit="10"/>
      <line x1="164.68" y1="148" x2="164.68" y2="139.79" fill="none" stroke="#3c3c41" stroke-miterlimit="10"/>
      <g>
        <path d="M163.31,199.63a1.67,1.67,0,0,1-1.73,1.57H135a1.67,1.67,0,0,1-1.73-1.57V156.56A1.66,1.66,0,0,1,135,155h26.54a1.66,1.66,0,0,1,1.73,1.56Z" fill="url(#linear-gradient-3)"/>
        <circle cx="136.74" cy="159.27" r="1.53" fill="#fff"/>
        <circle cx="159.01" cy="159.27" r="1.53" fill="#fff"/>
        <circle cx="136.74" cy="197.45" r="1.53" fill="#fff"/>
        <circle cx="159.01" cy="197.45" r="1.53" fill="#fff"/>
      </g>
      <g>
        <path d="M198.72,199.63A1.67,1.67,0,0,1,197,201.2H170.45a1.67,1.67,0,0,1-1.73-1.57V156.56a1.66,1.66,0,0,1,1.73-1.56H197a1.66,1.66,0,0,1,1.73,1.56Z" fill="url(#linear-gradient-4)"/>
        <circle cx="172.15" cy="159.27" r="1.53" fill="#fff"/>
        <circle cx="194.42" cy="159.27" r="1.53" fill="#fff"/>
        <circle cx="172.15" cy="197.45" r="1.53" fill="#fff"/>
        <circle cx="194.42" cy="197.45" r="1.53" fill="#fff"/>
      </g>
      <g>
        <g opacity="0.75" style="mix-blend-mode: multiply">
          <rect x="60.66" y="95.79" width="30" height="45" fill="#737373"/>
          <rect x="60.66" y="95.79" width="30" height="45" fill="#737373" opacity="0.8"/>
        </g>
        <g>
          <rect x="59.66" y="94.79" width="30" height="45" fill="#e6e6e6"/>
          <rect x="59.66" y="94.79" width="30" height="45" opacity="0.8" fill="url(#linear-gradient-5)"/>
        </g>
      </g>
      <g>
        <g opacity="0.75" style="mix-blend-mode: multiply">
          <rect x="150.68" y="95.79" width="30" height="45" fill="#737373"/>
          <rect x="150.68" y="95.79" width="30" height="45" fill="#737373" opacity="0.8"/>
        </g>
        <g>
          <rect x="149.68" y="94.79" width="30" height="45" fill="#e6e6e6"/>
          <rect x="149.68" y="94.79" width="30" height="45" opacity="0.8" fill="url(#linear-gradient-6)"/>
        </g>
      </g>
      <path d="M274.24,153.87v-4.06c0-2.24,2.25-4.07,5-4.07h26c2.75,0,5,1.83,5,4.07v4.06" fill="none" stroke="#3c3c41" stroke-miterlimit="10"/>
      <line x1="292.23" y1="145.74" x2="292.23" y2="137.54" fill="none" stroke="#3c3c41" stroke-miterlimit="10"/>
      <path d="M382.23,154.71v-4.06c0-2.23,2.25-4.06,5-4.06h26c2.75,0,5,1.83,5,4.06v4.06" fill="none" stroke="#3c3c41" stroke-miterlimit="10"/>
      <g>
        <path d="M307.23,137.17a1.67,1.67,0,0,1-1.73,1.57H279a1.66,1.66,0,0,1-1.72-1.57V94.11A1.66,1.66,0,0,1,279,92.54H305.5a1.68,1.68,0,0,1,1.73,1.57Z" fill="url(#linear-gradient-7)"/>
        <circle cx="280.66" cy="96.81" r="1.53" fill="#fff"/>
        <circle cx="302.93" cy="96.81" r="1.53" fill="#fff"/>
        <circle cx="280.66" cy="135" r="1.53" fill="#fff"/>
        <circle cx="302.93" cy="135" r="1.53" fill="#fff"/>
      </g>
      <g>
        <path d="M415.21,138a1.66,1.66,0,0,1-1.73,1.57H386.94a1.66,1.66,0,0,1-1.73-1.57V95a1.66,1.66,0,0,1,1.73-1.57h26.54A1.66,1.66,0,0,1,415.21,95Z" fill="url(#linear-gradient-8)"/>
        <circle cx="388.64" cy="97.66" r="1.53" fill="#fff"/>
        <circle cx="410.91" cy="97.66" r="1.53" fill="#fff"/>
        <circle cx="388.64" cy="135.84" r="1.53" fill="#fff"/>
        <circle cx="410.91" cy="135.84" r="1.53" fill="#fff"/>
      </g>
      <line x1="400.21" y1="146.59" x2="400.21" y2="138.39" fill="none" stroke="#3c3c41" stroke-miterlimit="10"/>
      <g>
        <g>
          <g>
            <path d="M289.15,197.38a1.66,1.66,0,0,1-1.73,1.56H260.88a1.66,1.66,0,0,1-1.73-1.56V154.31a1.67,1.67,0,0,1,1.73-1.57h26.54a1.67,1.67,0,0,1,1.73,1.57Z" fill-opacity="0.8" fill="url(#linear-gradient-9)"/>
            <circle cx="262.58" cy="157.01" r="1.53" fill="url(#linear-gradient-10)"/>
            <circle cx="284.86" cy="157.01" r="1.53" fill="url(#linear-gradient-11)"/>
            <circle cx="262.58" cy="195.2" r="1.53" fill="url(#linear-gradient-12)"/>
            <circle cx="284.86" cy="195.2" r="1.53" fill="url(#linear-gradient-13)"/>
          </g>
          <path d="M274.15,170.44a2.27,2.27,0,0,1,.91.18,2.18,2.18,0,0,1,.73.49,2.49,2.49,0,0,1,.51.75,1.79,1.79,0,0,1,.18.91,2.3,2.3,0,0,1-.67,1.64,2.49,2.49,0,0,1-.75.51,2,2,0,0,1-.91.18,2.27,2.27,0,0,1-.91-.18,2.35,2.35,0,0,1-1.24-1.24,2,2,0,0,1-.18-.91,2.27,2.27,0,0,1,.18-.91,2.35,2.35,0,0,1,1.24-1.24A1.81,1.81,0,0,1,274.15,170.44Zm0-8.17a10.15,10.15,0,0,1,4.08.82,10.43,10.43,0,0,1,3.34,2.26,10.6,10.6,0,0,1,2.24,3.34,10.27,10.27,0,0,1,.84,4.08,10.49,10.49,0,0,1-.33,2.64,10.11,10.11,0,0,1-1,2.41,10.76,10.76,0,0,1-3.48,3.7,11.06,11.06,0,0,1-2.34,1.15,9.76,9.76,0,0,1-2.62.53l-3.85,6.49a1.4,1.4,0,0,1-.42.42,1.12,1.12,0,0,1-.58.16h-5.25a1.2,1.2,0,0,1-1.17-1.17v-5.25a1,1,0,0,1,.17-.56,1.43,1.43,0,0,1,.41-.44l3.32-2a10.75,10.75,0,0,1-2.86-3.61,10.32,10.32,0,0,1-1-4.5,10.15,10.15,0,0,1,.82-4.08,10.43,10.43,0,0,1,2.26-3.34,10.6,10.6,0,0,1,3.34-2.24A10.27,10.27,0,0,1,274.15,162.27Zm.18,17.32L266,184.51v3.43h3.43Zm2.14,1a8.09,8.09,0,0,0,2.37-1.13,8,8,0,0,0,1.84-1.78,8.92,8.92,0,0,0,1.2-2.26,8.08,8.08,0,0,0-.2-5.78,8.28,8.28,0,0,0-1.75-2.59,8.23,8.23,0,0,0-5.78-2.41,8,8,0,0,0-3.17.64,8.4,8.4,0,0,0-2.59,1.75,8.28,8.28,0,0,0-1.75,2.59,8.42,8.42,0,0,0-.66,3.19,8.22,8.22,0,0,0,1,3.88,7.47,7.47,0,0,0,1.18,1.62,10.35,10.35,0,0,0,1.55,1.34l7.35-4.34a1.13,1.13,0,0,1,.6-.17,1.2,1.2,0,0,1,1.17,1.17,1.13,1.13,0,0,1-.17.6Z" fill="url(#linear-gradient-14)"/>
        </g>
        <g>
          <g>
            <path d="M325.3,197.38a1.66,1.66,0,0,1-1.73,1.56H297a1.66,1.66,0,0,1-1.73-1.56V154.31a1.67,1.67,0,0,1,1.73-1.57h26.54a1.67,1.67,0,0,1,1.73,1.57Z" fill-opacity="0.8" fill="url(#linear-gradient-15)"/>
            <circle cx="298.73" cy="157.01" r="1.53" fill="url(#linear-gradient-16)"/>
            <circle cx="321" cy="157.01" r="1.53" fill="url(#linear-gradient-17)"/>
            <circle cx="298.73" cy="195.2" r="1.53" fill="url(#linear-gradient-18)"/>
            <circle cx="321" cy="195.2" r="1.53" fill="url(#linear-gradient-19)"/>
          </g>
          <path d="M310.3,170.44a2.3,2.3,0,0,1,1.64.67,2.49,2.49,0,0,1,.51.75,2,2,0,0,1,.18.91,2.27,2.27,0,0,1-.18.91,2.35,2.35,0,0,1-1.24,1.24,2,2,0,0,1-.91.18,2.27,2.27,0,0,1-.91-.18,2.35,2.35,0,0,1-1.24-1.24,1.79,1.79,0,0,1-.18-.91,2.3,2.3,0,0,1,.67-1.64,2.49,2.49,0,0,1,.75-.51A1.79,1.79,0,0,1,310.3,170.44Zm0-8.17a10.15,10.15,0,0,1,4.08.82,10.43,10.43,0,0,1,3.34,2.26,10.77,10.77,0,0,1,2.24,3.34,10.27,10.27,0,0,1,.84,4.08,10.49,10.49,0,0,1-.33,2.64,9.73,9.73,0,0,1-1,2.41,10.2,10.2,0,0,1-1.51,2.06,10.41,10.41,0,0,1-2,1.64,11,11,0,0,1-2.33,1.15,9.83,9.83,0,0,1-2.63.53l-3.84,6.49a1.4,1.4,0,0,1-.42.42,1.15,1.15,0,0,1-.58.16H301a1.12,1.12,0,0,1-.82-.35,1.08,1.08,0,0,1-.35-.82v-5.25a1,1,0,0,1,.16-.56,1.6,1.6,0,0,1,.42-.44l3.32-2a10.63,10.63,0,0,1-2.86-3.61,10.32,10.32,0,0,1-1-4.5,10.15,10.15,0,0,1,.82-4.08,10.43,10.43,0,0,1,2.26-3.34,10.6,10.6,0,0,1,3.34-2.24A10.27,10.27,0,0,1,310.3,162.27Zm.18,17.32-8.35,4.92v3.43h3.43Zm2.13,1a7.86,7.86,0,0,0,2.37-1.13,8,8,0,0,0,1.85-1.78,8.92,8.92,0,0,0,1.2-2.26,7.77,7.77,0,0,0,.44-2.61,8,8,0,0,0-.64-3.17,8.22,8.22,0,0,0-4.34-4.34,8.09,8.09,0,0,0-3.19-.66,8,8,0,0,0-3.17.64,8.28,8.28,0,0,0-2.59,1.75,8.23,8.23,0,0,0-2.41,5.78,8.22,8.22,0,0,0,1,3.88,7.15,7.15,0,0,0,1.18,1.62,10.35,10.35,0,0,0,1.55,1.34l7.35-4.34a1.13,1.13,0,0,1,.6-.17,1.2,1.2,0,0,1,1.17,1.17,1.13,1.13,0,0,1-.17.6Z" fill="url(#linear-gradient-20)"/>
        </g>
      </g>
      <g>
        <g>
          <g>
            <path d="M397.13,198.22a1.66,1.66,0,0,1-1.73,1.57H368.86a1.67,1.67,0,0,1-1.73-1.57V155.16a1.67,1.67,0,0,1,1.73-1.57H395.4a1.66,1.66,0,0,1,1.73,1.57Z" fill-opacity="0.8" fill="url(#linear-gradient-21)"/>
            <circle cx="370.56" cy="157.86" r="1.53" fill="url(#linear-gradient-22)"/>
            <circle cx="392.84" cy="157.86" r="1.53" fill="url(#linear-gradient-23)"/>
            <circle cx="370.56" cy="196.04" r="1.53" fill="url(#linear-gradient-24)"/>
            <circle cx="392.84" cy="196.04" r="1.53" fill="url(#linear-gradient-25)"/>
          </g>
          <path d="M382.13,171.28a2.32,2.32,0,0,1,.92.18,2.44,2.44,0,0,1,.72.5,2.32,2.32,0,0,1,.51.74,2,2,0,0,1,.19.92,2.15,2.15,0,0,1-.19.91,2.29,2.29,0,0,1-.49.73,2.7,2.7,0,0,1-.74.51,2.1,2.1,0,0,1-.92.18,2.25,2.25,0,0,1-1.64-.68,2.7,2.7,0,0,1-.51-.74,2.06,2.06,0,0,1-.18-.91,2.32,2.32,0,0,1,.18-.92,2.29,2.29,0,0,1,.49-.72,2.71,2.71,0,0,1,.75-.52A2.06,2.06,0,0,1,382.13,171.28Zm0-8.16a10.35,10.35,0,0,1,7.42,3.08,10.87,10.87,0,0,1,2.25,3.33,10.52,10.52,0,0,1,.83,4.09,11,11,0,0,1-.32,2.64,10.31,10.31,0,0,1-1,2.41,11,11,0,0,1-1.51,2.06,11.59,11.59,0,0,1-2,1.64,11,11,0,0,1-2.34,1.14,9.38,9.38,0,0,1-2.62.53l-3.85,6.49a1.4,1.4,0,0,1-.42.42,1,1,0,0,1-.58.17H372.8a1.12,1.12,0,0,1-.82-.35,1.14,1.14,0,0,1-.35-.82V184.7a1,1,0,0,1,.17-.57,1.56,1.56,0,0,1,.42-.43l3.31-2a10.75,10.75,0,0,1-2.86-3.61,10.38,10.38,0,0,1,2-11.92,10.92,10.92,0,0,1,3.34-2.25A10.47,10.47,0,0,1,382.13,163.12Zm.19,17.31L374,185.36v3.42h3.42Zm2.13,1a8.35,8.35,0,0,0,2.37-1.13,7.63,7.63,0,0,0,1.84-1.79,8.6,8.6,0,0,0,1.2-2.26,7.67,7.67,0,0,0,.44-2.6,7.89,7.89,0,0,0-.64-3.18,8.18,8.18,0,0,0-1.75-2.58,8.23,8.23,0,0,0-5.78-2.41,7.84,7.84,0,0,0-3.17.64,8.19,8.19,0,0,0-5,7.53,8,8,0,0,0,.25,2,8.37,8.37,0,0,0,.73,1.86,7.67,7.67,0,0,0,1.19,1.62,9.81,9.81,0,0,0,1.55,1.33l7.34-4.34a1.15,1.15,0,0,1,.6-.16,1.2,1.2,0,0,1,1.17,1.17,1.17,1.17,0,0,1-.16.6Z" fill="url(#linear-gradient-26)"/>
        </g>
        <g>
          <g>
            <path d="M433.28,198.22a1.66,1.66,0,0,1-1.73,1.57H405a1.66,1.66,0,0,1-1.73-1.57V155.16a1.66,1.66,0,0,1,1.73-1.57h26.54a1.66,1.66,0,0,1,1.73,1.57Z" fill-opacity="0.8" fill="url(#linear-gradient-27)"/>
            <circle cx="406.71" cy="157.86" r="1.53" fill="url(#linear-gradient-28)"/>
            <circle cx="428.99" cy="157.86" r="1.53" fill="url(#linear-gradient-29)"/>
            <circle cx="406.71" cy="196.04" r="1.53" fill="url(#linear-gradient-30)"/>
            <circle cx="428.99" cy="196.04" r="1.53" fill="url(#linear-gradient-31)"/>
          </g>
          <path d="M418.28,171.28a2.27,2.27,0,0,1,.91.18,2.37,2.37,0,0,1,.73.5,2.32,2.32,0,0,1,.51.74,1.85,1.85,0,0,1,.18.92,2.3,2.3,0,0,1-.67,1.64,2.91,2.91,0,0,1-.75.51,2,2,0,0,1-.91.18,2.27,2.27,0,0,1-.91-.18,2.44,2.44,0,0,1-1.24-1.24,2.06,2.06,0,0,1-.18-.91,2.32,2.32,0,0,1,.18-.92,2.29,2.29,0,0,1,.49-.72,2.71,2.71,0,0,1,.75-.52A2.06,2.06,0,0,1,418.28,171.28Zm0-8.16a10.15,10.15,0,0,1,4.08.82,10.27,10.27,0,0,1,3.34,2.26,10.67,10.67,0,0,1,2.24,3.33,10.35,10.35,0,0,1,.84,4.09,10.49,10.49,0,0,1-.33,2.64,10.28,10.28,0,0,1-1,2.41,10.65,10.65,0,0,1-1.52,2.06,11.52,11.52,0,0,1-2,1.64,11,11,0,0,1-2.34,1.14,9.38,9.38,0,0,1-2.62.53l-3.85,6.49a1.4,1.4,0,0,1-.42.42,1,1,0,0,1-.58.17H409a1.12,1.12,0,0,1-.82-.35,1.14,1.14,0,0,1-.35-.82V184.7a1,1,0,0,1,.17-.57,1.4,1.4,0,0,1,.41-.43l3.32-2a10.75,10.75,0,0,1-2.86-3.61,10.38,10.38,0,0,1,2-11.92A10.8,10.8,0,0,1,414.2,164,10.43,10.43,0,0,1,418.28,163.12Zm.18,17.31-8.35,4.93v3.42h3.43Zm2.14,1a8.35,8.35,0,0,0,2.37-1.13,7.82,7.82,0,0,0,1.84-1.79,8.6,8.6,0,0,0,1.2-2.26,7.67,7.67,0,0,0,.44-2.6,7.89,7.89,0,0,0-.64-3.18,8.35,8.35,0,0,0-1.75-2.58,8,8,0,0,0-2.59-1.75,8.05,8.05,0,0,0-3.19-.66,7.81,7.81,0,0,0-3.17.64,8.22,8.22,0,0,0-4.34,4.34,8.38,8.38,0,0,0-.66,3.19,8.05,8.05,0,0,0,.26,2,7.85,7.85,0,0,0,1.91,3.48,10.28,10.28,0,0,0,1.55,1.33l7.35-4.34a1.12,1.12,0,0,1,.6-.16,1.08,1.08,0,0,1,.82.35,1.12,1.12,0,0,1,.35.82,1.19,1.19,0,0,1-.17.6Z" fill="url(#linear-gradient-32)"/>
        </g>
      </g>
      <polygon points="145.27 31.66 142.81 29.18 138.27 33.72 133.74 29.18 131.27 31.66 135.79 36.19 131.27 40.71 133.74 43.19 138.26 38.66 142.79 43.2 145.27 40.72 140.73 36.19 145.27 31.66" fill="#b31b1b"/>
      <g>
        <line x1="73.72" y1="54.79" x2="73.72" y2="69.41" fill="none" stroke="#3c3c41" stroke-miterlimit="10"/>
        <polygon points="69.98 68.32 73.72 74.79 77.46 68.32 69.98 68.32" fill="#3c3c41"/>
      </g>
      <g>
        <path d="M59.72,114.79h-33a5,5,0,0,0-5,5v53a5,5,0,0,0,5,5H38.34" fill="none" stroke="#3c3c41" stroke-miterlimit="10"/>
        <polygon points="37.24 181.53 43.72 177.79 37.24 174.05 37.24 181.53" fill="#3c3c41"/>
      </g>
      <g>
        <circle cx="21.72" cy="154.79" r="11" fill="#b0b0b0"/>
        <circle cx="21.69" cy="154.75" r="9.34" fill="#fff"/>
        <rect id="e59f863c-8b0e-4353-8450-26e2927e2bd8" x="26.06" y="149.28" width="1.64" height="0.53" transform="translate(-97.87 62.81) rotate(-45)" fill="#7a7a7a"/>
        <rect id="fb31ef5c-b322-47ba-9118-85ef2f76d768" x="28.16" y="154.52" width="1.64" height="0.53" fill="#7a7a7a"/>
        <rect id="e52b7618-af87-4451-aff9-b359cda15418" x="26.54" y="159.12" width="0.53" height="1.64" transform="translate(-105.24 65.8) rotate(-45)" fill="#7a7a7a"/>
        <rect id="bd1901af-8ca0-4fdc-a813-01598d258160" x="21.4" y="161.28" width="0.53" height="1.64" fill="#7a7a7a"/>
        <rect id="bfba83e0-770a-4fd3-9d4d-1aa30de9f72a" x="16.1" y="148.67" width="0.53" height="1.64" transform="translate(-100.91 55.36) rotate(-45)" fill="#7a7a7a"/>
        <rect id="ad478e3b-a6b6-4eba-a3a4-ce35f17ff637" x="15.62" y="159.73" width="1.64" height="0.53" transform="translate(-108.32 58.49) rotate(-45)" fill="#7a7a7a"/>
        <rect id="b9821e28-6320-47a8-842c-070460425b0f" x="13.4" y="154.52" width="1.64" height="0.53" fill="#7a7a7a"/>
        <path d="M21.73,143.79h0a.8.8,0,0,0-.79.79h0a.82.82,0,0,0,.8.82h0a9.4,9.4,0,1,1-6.93,3l.66,1,1.84-4.09-4.43.52,1,1.29a11,11,0,1,0,7.88-3.34Z" fill="url(#radial-gradient)"/>
        <rect x="21.02" y="146.72" width="1.48" height="8.42" rx="0.67" fill="#7a7a7a"/>
        <rect x="22.99" y="154.25" width="1.48" height="5.28" rx="0.67" transform="translate(-103.99 62.73) rotate(-45)" fill="#7a7a7a"/>
        <circle cx="21.69" cy="154.79" r="1.55" fill="url(#radial-gradient-2)"/>
      </g>
      <g>
        <line x1="292.23" y1="54.79" x2="292.23" y2="84.41" fill="none" stroke="#3c3c41" stroke-miterlimit="10"/>
        <polygon points="288.49 83.32 292.23 89.79 295.96 83.32 288.49 83.32" fill="#3c3c41"/>
      </g>
      <g>
        <path d="M277.49,114.79h-35a5,5,0,0,0-5,5v53a5,5,0,0,0,5,5h11.62" fill="none" stroke="#3c3c41" stroke-miterlimit="10"/>
        <polygon points="253.01 181.53 259.49 177.79 253.01 174.05 253.01 181.53" fill="#3c3c41"/>
      </g>
      <g>
        <circle cx="237.49" cy="154.79" r="11" fill="#b0b0b0"/>
        <circle cx="237.46" cy="154.75" r="9.34" fill="#fff"/>
        <rect id="e59f863c-8b0e-4353-8450-26e2927e2bd8-2" data-name="e59f863c-8b0e-4353-8450-26e2927e2bd8" x="241.83" y="149.28" width="1.64" height="0.53" transform="translate(-34.67 215.38) rotate(-45)" fill="#7a7a7a"/>
        <rect id="fb31ef5c-b322-47ba-9118-85ef2f76d768-2" data-name="fb31ef5c-b322-47ba-9118-85ef2f76d768" x="243.93" y="154.52" width="1.64" height="0.53" fill="#7a7a7a"/>
        <rect id="e52b7618-af87-4451-aff9-b359cda15418-2" data-name="e52b7618-af87-4451-aff9-b359cda15418" x="242.31" y="159.12" width="0.53" height="1.64" transform="translate(-42.04 218.37) rotate(-45)" fill="#7a7a7a"/>
        <rect id="bd1901af-8ca0-4fdc-a813-01598d258160-2" data-name="bd1901af-8ca0-4fdc-a813-01598d258160" x="237.17" y="161.28" width="0.53" height="1.64" fill="#7a7a7a"/>
        <rect id="bfba83e0-770a-4fd3-9d4d-1aa30de9f72a-2" data-name="bfba83e0-770a-4fd3-9d4d-1aa30de9f72a" x="231.87" y="148.67" width="0.53" height="1.64" transform="translate(-37.72 207.93) rotate(-45)" fill="#7a7a7a"/>
        <rect id="ad478e3b-a6b6-4eba-a3a4-ce35f17ff637-2" data-name="ad478e3b-a6b6-4eba-a3a4-ce35f17ff637" x="231.39" y="159.73" width="1.64" height="0.53" transform="translate(-45.12 211.06) rotate(-45)" fill="#7a7a7a"/>
        <rect id="b9821e28-6320-47a8-842c-070460425b0f-2" data-name="b9821e28-6320-47a8-842c-070460425b0f" x="229.17" y="154.52" width="1.64" height="0.53" fill="#7a7a7a"/>
        <path d="M237.5,143.79h0a.8.8,0,0,0-.79.79h0a.82.82,0,0,0,.81.82h0a9.39,9.39,0,1,1-6.94,3l.66,1,1.84-4.09-4.43.52,1,1.29a11,11,0,1,0,7.88-3.34Z" fill="url(#radial-gradient-3)"/>
        <rect x="236.79" y="146.72" width="1.48" height="8.42" rx="0.67" fill="#7a7a7a"/>
        <rect x="238.76" y="154.25" width="1.48" height="5.28" rx="0.67" transform="translate(-40.79 215.3) rotate(-45)" fill="#7a7a7a"/>
        <circle cx="237.46" cy="154.79" r="1.55" fill="url(#radial-gradient-4)"/>
      </g>
      <g>
        <line x1="400.21" y1="60.17" x2="400.21" y2="89.79" fill="none" stroke="#3c3c41" stroke-miterlimit="10"/>
        <polygon points="396.47 61.27 400.21 54.79 403.95 61.27 396.47 61.27" fill="#3c3c41"/>
      </g>
      <g>
        <path d="M379.48,114.79H349.87a5,5,0,0,0-5,5v53a5,5,0,0,0,5,5h17" fill="none" stroke="#3c3c41" stroke-miterlimit="10"/>
        <polygon points="378.39 111.05 384.87 114.79 378.39 118.53 378.39 111.05" fill="#3c3c41"/>
      </g>
      <g>
        <circle cx="344.87" cy="154.79" r="11" fill="#b0b0b0"/>
        <circle cx="344.84" cy="154.75" r="9.34" fill="#fff"/>
        <rect id="e59f863c-8b0e-4353-8450-26e2927e2bd8-3" data-name="e59f863c-8b0e-4353-8450-26e2927e2bd8" x="349.21" y="149.28" width="1.64" height="0.53" transform="translate(-3.22 291.31) rotate(-45)" fill="#7a7a7a"/>
        <rect id="fb31ef5c-b322-47ba-9118-85ef2f76d768-3" data-name="fb31ef5c-b322-47ba-9118-85ef2f76d768" x="351.31" y="154.52" width="1.64" height="0.53" fill="#7a7a7a"/>
        <rect id="e52b7618-af87-4451-aff9-b359cda15418-3" data-name="e52b7618-af87-4451-aff9-b359cda15418" x="349.68" y="159.12" width="0.53" height="1.64" transform="translate(-10.59 294.3) rotate(-45)" fill="#7a7a7a"/>
        <rect id="bd1901af-8ca0-4fdc-a813-01598d258160-3" data-name="bd1901af-8ca0-4fdc-a813-01598d258160" x="344.54" y="161.28" width="0.53" height="1.64" fill="#7a7a7a"/>
        <rect id="bfba83e0-770a-4fd3-9d4d-1aa30de9f72a-3" data-name="bfba83e0-770a-4fd3-9d4d-1aa30de9f72a" x="339.25" y="148.67" width="0.53" height="1.64" transform="translate(-6.27 283.86) rotate(-45)" fill="#7a7a7a"/>
        <rect id="ad478e3b-a6b6-4eba-a3a4-ce35f17ff637-3" data-name="ad478e3b-a6b6-4eba-a3a4-ce35f17ff637" x="338.77" y="159.73" width="1.64" height="0.53" transform="translate(-13.67 286.99) rotate(-45)" fill="#7a7a7a"/>
        <rect id="b9821e28-6320-47a8-842c-070460425b0f-3" data-name="b9821e28-6320-47a8-842c-070460425b0f" x="336.55" y="154.52" width="1.64" height="0.53" fill="#7a7a7a"/>
        <path d="M344.88,143.79h0a.79.79,0,0,0-.79.79h0a.82.82,0,0,0,.8.82h0a9.4,9.4,0,1,1-6.93,3l.66,1,1.83-4.09-4.42.52,1,1.29a11,11,0,1,0,7.88-3.34Z" fill="url(#radial-gradient-5)"/>
        <rect x="344.17" y="146.72" width="1.48" height="8.42" rx="0.67" fill="#7a7a7a"/>
        <rect x="346.14" y="154.25" width="1.48" height="5.28" rx="0.67" transform="translate(-9.34 291.23) rotate(-45)" fill="#7a7a7a"/>
        <circle cx="344.84" cy="154.79" r="1.55" fill="url(#radial-gradient-6)"/>
      </g>
      <g>
        <path d="M133,177.79h-6.36a5,5,0,0,1-5-5v-88a31.48,31.48,0,0,1,1.83-9.65l9.37-23.72" fill="none" stroke="#b31b1b" stroke-miterlimit="10"/>
        <path d="M134.82,59.54a.5.5,0,0,1-.58-.4l-1.46-7.51-6.19,4.49a.5.5,0,0,1-.7-.11.51.51,0,0,1,.11-.7l6.83-5a.51.51,0,0,1,.48-.06.51.51,0,0,1,.31.37l1.6,8.28a.45.45,0,0,1,0,.28A.51.51,0,0,1,134.82,59.54Z" fill="#b31b1b"/>
      </g>
      <line x1="216.34" y1="201.2" x2="216.34" fill="none" stroke="#231f20" stroke-miterlimit="10" stroke-dasharray="3 3"/>
      <g>
        <rect width="211.7" height="21.1" fill="#fff"/>
        <rect width="211.7" height="21.1" fill="#3c3c41" opacity="0.15"/>
      </g>
      <g>
        <rect x="221.61" width="223.39" height="21.1" fill="#fff"/>
        <rect x="221.61" width="223.39" height="21.1" fill="#3c3c41" opacity="0.15"/>
      </g>
    </g>
    <g id="Text">
      <g>
        <path d="M65.8,89.79H64.59L60.26,83.1a3.78,3.78,0,0,1-.27-.53h0a8.6,8.6,0,0,1,0,1.15v6.07H59v-8.4H60.3L64.51,88c.17.28.29.46.34.56h0a8.58,8.58,0,0,1-.06-1.23V81.39h1Z" fill="#1e1e1e"/>
        <path d="M74.24,81.39l-3.11,8.4H70.05l-3-8.4h1.1l2.32,6.66a3.18,3.18,0,0,1,.17.75h0a3.38,3.38,0,0,1,.19-.76l2.37-6.65Z" fill="#1e1e1e"/>
        <path d="M84,89.79H83V84.16c0-.45,0-1,.08-1.64h0a7.28,7.28,0,0,1-.25.82L80,89.79h-.49l-2.86-6.41a4.68,4.68,0,0,1-.25-.86h0c0,.34.05.89.05,1.65v5.62h-1v-8.4h1.3l2.58,5.86a7.38,7.38,0,0,1,.39,1h0c.17-.46.31-.81.41-1l2.63-5.84H84Z" fill="#1e1e1e"/>
        <path d="M90.92,87H86.68a2.28,2.28,0,0,0,.54,1.55,1.88,1.88,0,0,0,1.42.54,2.94,2.94,0,0,0,1.86-.66v.9a3.47,3.47,0,0,1-2.09.57,2.57,2.57,0,0,1-2-.81,3.39,3.39,0,0,1-.72-2.3,3.29,3.29,0,0,1,.79-2.29,2.58,2.58,0,0,1,2-.88,2.29,2.29,0,0,1,1.83.76,3.19,3.19,0,0,1,.64,2.12Zm-1-.81a2,2,0,0,0-.41-1.3,1.35,1.35,0,0,0-1.09-.46,1.54,1.54,0,0,0-1.16.49,2.18,2.18,0,0,0-.58,1.27Z" fill="#1e1e1e"/>
      </g>
      <g>
        <path d="M48.42,181.48v-1.16a2.39,2.39,0,0,0,.47.31,3.83,3.83,0,0,0,.59.24,6.23,6.23,0,0,0,.62.15,4,4,0,0,0,.57,0,2.22,2.22,0,0,0,1.36-.34,1.12,1.12,0,0,0,.45-1,1.15,1.15,0,0,0-.15-.59,1.64,1.64,0,0,0-.42-.46,3.91,3.91,0,0,0-.62-.4l-.78-.4-.82-.45A3.81,3.81,0,0,1,49,177a2.11,2.11,0,0,1-.44-.63,1.86,1.86,0,0,1-.16-.81,1.88,1.88,0,0,1,.25-1,2.11,2.11,0,0,1,.66-.7,2.86,2.86,0,0,1,.94-.41,4.23,4.23,0,0,1,1.06-.14,4.13,4.13,0,0,1,1.82.3v1.11a3.26,3.26,0,0,0-1.91-.52,3.59,3.59,0,0,0-.65.07,1.93,1.93,0,0,0-.57.22,1.18,1.18,0,0,0-.41.39,1,1,0,0,0-.16.59,1.18,1.18,0,0,0,.12.55,1.41,1.41,0,0,0,.35.43,3.76,3.76,0,0,0,.57.38l.78.4c.3.14.59.3.86.46a4,4,0,0,1,.7.55,2.36,2.36,0,0,1,.49.66,1.84,1.84,0,0,1,.18.83,2,2,0,0,1-.9,1.76,3,3,0,0,1-1,.39,5.24,5.24,0,0,1-1.14.12c-.13,0-.3,0-.49,0s-.4,0-.6-.09a4.91,4.91,0,0,1-.58-.15A1.74,1.74,0,0,1,48.42,181.48Z" fill="#1e1e1e"/>
        <path d="M54.79,181.48v-1.16a2.21,2.21,0,0,0,.48.31,3.72,3.72,0,0,0,.58.24c.21.06.41.11.62.15a4.13,4.13,0,0,0,.58,0,2.2,2.2,0,0,0,1.35-.34,1.12,1.12,0,0,0,.45-1,1.15,1.15,0,0,0-.15-.59,1.76,1.76,0,0,0-.41-.46,4.57,4.57,0,0,0-.63-.4l-.77-.4c-.3-.15-.57-.3-.82-.45a3.17,3.17,0,0,1-.66-.5,2.14,2.14,0,0,1-.45-.63,2,2,0,0,1-.16-.81,2,2,0,0,1,.25-1,2,2,0,0,1,.67-.7,2.8,2.8,0,0,1,.93-.41,4.3,4.3,0,0,1,1.07-.14,4.08,4.08,0,0,1,1.81.3v1.11a3.24,3.24,0,0,0-1.91-.52,3.48,3.48,0,0,0-.64.07,2,2,0,0,0-.58.22,1.27,1.27,0,0,0-.41.39,1.1,1.1,0,0,0-.16.59A1.18,1.18,0,0,0,56,176a1.31,1.31,0,0,0,.36.43,3,3,0,0,0,.57.38l.78.4c.3.14.58.3.85.46a4,4,0,0,1,.71.55,2.53,2.53,0,0,1,.48.66,1.84,1.84,0,0,1,.18.83,2.16,2.16,0,0,1-.24,1.06,2,2,0,0,1-.66.7,2.8,2.8,0,0,1-.95.39,5.24,5.24,0,0,1-1.14.12c-.13,0-.29,0-.49,0l-.6-.09a4.74,4.74,0,0,1-.57-.15A1.83,1.83,0,0,1,54.79,181.48Z" fill="#1e1e1e"/>
        <path d="M61.56,181.82v-8.41h2.32q4.44,0,4.44,4.1a4.1,4.1,0,0,1-1.23,3.12,4.6,4.6,0,0,1-3.31,1.19Zm1-7.52v6.62H63.8a3.56,3.56,0,0,0,2.57-.88,3.34,3.34,0,0,0,.92-2.51q0-3.22-3.44-3.23Z" fill="#1e1e1e"/>
      </g>
      <g>
        <path d="M83.82,181.48v-1.16a2.83,2.83,0,0,0,.48.31,3.83,3.83,0,0,0,.59.24c.2.06.41.11.61.15a4.13,4.13,0,0,0,.58,0,2.24,2.24,0,0,0,1.36-.34,1.27,1.27,0,0,0,.29-1.56,1.6,1.6,0,0,0-.41-.46,3.91,3.91,0,0,0-.62-.4l-.78-.4c-.29-.15-.57-.3-.82-.45a3.81,3.81,0,0,1-.66-.5,1.94,1.94,0,0,1-.44-.63,1.86,1.86,0,0,1-.16-.81,1.88,1.88,0,0,1,.25-1,2,2,0,0,1,.66-.7,2.8,2.8,0,0,1,.93-.41,4.3,4.3,0,0,1,1.07-.14,4.08,4.08,0,0,1,1.81.3v1.11a3.22,3.22,0,0,0-1.91-.52,3.48,3.48,0,0,0-.64.07,2,2,0,0,0-.58.22,1.38,1.38,0,0,0-.41.39,1.1,1.1,0,0,0-.15.59A1.18,1.18,0,0,0,85,176a1.28,1.28,0,0,0,.35.43,3.76,3.76,0,0,0,.57.38l.78.4c.3.14.58.3.85.46a4,4,0,0,1,.71.55,2.36,2.36,0,0,1,.49.66,1.84,1.84,0,0,1,.18.83,2.16,2.16,0,0,1-.25,1.06,2.07,2.07,0,0,1-.65.7,2.94,2.94,0,0,1-1,.39,5.15,5.15,0,0,1-1.13.12c-.14,0-.3,0-.5,0l-.59-.09a4.45,4.45,0,0,1-.58-.15A2,2,0,0,1,83.82,181.48Z" fill="#1e1e1e"/>
        <path d="M90.2,181.48v-1.16a2.21,2.21,0,0,0,.48.31,3.72,3.72,0,0,0,.58.24c.21.06.41.11.62.15a4.13,4.13,0,0,0,.57,0,2.22,2.22,0,0,0,1.36-.34,1.12,1.12,0,0,0,.45-1,1.15,1.15,0,0,0-.15-.59,1.76,1.76,0,0,0-.41-.46,4.57,4.57,0,0,0-.63-.4l-.77-.4c-.3-.15-.57-.3-.82-.45a3.54,3.54,0,0,1-.67-.5,2.3,2.3,0,0,1-.44-.63,1.86,1.86,0,0,1-.16-.81,1.88,1.88,0,0,1,.25-1,2.11,2.11,0,0,1,.66-.7,3,3,0,0,1,.94-.41,4.24,4.24,0,0,1,1.07-.14,4.08,4.08,0,0,1,1.81.3v1.11a3.24,3.24,0,0,0-1.91-.52,3.59,3.59,0,0,0-.65.07,2,2,0,0,0-.57.22,1.18,1.18,0,0,0-.41.39,1,1,0,0,0-.16.59,1.18,1.18,0,0,0,.12.55,1.31,1.31,0,0,0,.36.43,3,3,0,0,0,.57.38l.77.4c.3.14.59.3.86.46a4.46,4.46,0,0,1,.71.55,2.53,2.53,0,0,1,.48.66,1.84,1.84,0,0,1,.18.83,2.16,2.16,0,0,1-.24,1.06,2.1,2.1,0,0,1-.66.7,2.8,2.8,0,0,1-1,.39,5.24,5.24,0,0,1-1.14.12c-.13,0-.3,0-.49,0s-.39,0-.6-.09a5.47,5.47,0,0,1-.58-.15A1.93,1.93,0,0,1,90.2,181.48Z" fill="#1e1e1e"/>
        <path d="M97,181.82v-8.41h2.32q4.44,0,4.44,4.1a4.08,4.08,0,0,1-1.24,3.12,4.56,4.56,0,0,1-3.3,1.19Zm1-7.52v6.62H99.2a3.57,3.57,0,0,0,2.58-.88,3.34,3.34,0,0,0,.92-2.51q0-3.22-3.44-3.23Z" fill="#1e1e1e"/>
      </g>
      <g>
        <path d="M155.82,89.79h-1.21l-4.32-6.69a2.94,2.94,0,0,1-.27-.53h0a8.6,8.6,0,0,1,.05,1.15v6.07h-1v-8.4h1.28L154.53,88c.17.28.29.46.34.56h0a8.58,8.58,0,0,1-.06-1.23V81.39h1Z" fill="#1e1e1e"/>
        <path d="M164.27,81.39l-3.12,8.4h-1.08l-3-8.4h1.1l2.33,6.66a4.63,4.63,0,0,1,.17.75h0a3.38,3.38,0,0,1,.19-.76l2.38-6.65Z" fill="#1e1e1e"/>
        <path d="M174,89.79h-1V84.16c0-.45,0-1,.08-1.64h0a5.64,5.64,0,0,1-.25.82L170,89.79h-.48l-2.87-6.41a4.68,4.68,0,0,1-.25-.86h0c0,.34,0,.89,0,1.65v5.62h-.95v-8.4h1.3l2.58,5.86a7.38,7.38,0,0,1,.39,1h0c.17-.46.31-.81.41-1l2.63-5.84H174Z" fill="#1e1e1e"/>
        <path d="M180.94,87h-4.23a2.23,2.23,0,0,0,.53,1.55,1.88,1.88,0,0,0,1.42.54,3,3,0,0,0,1.87-.66v.9a3.53,3.53,0,0,1-2.1.57,2.53,2.53,0,0,1-2-.81,3.34,3.34,0,0,1-.73-2.3,3.29,3.29,0,0,1,.79-2.29,2.58,2.58,0,0,1,2-.88,2.28,2.28,0,0,1,1.82.76,3.19,3.19,0,0,1,.64,2.12Zm-1-.81a2,2,0,0,0-.4-1.3,1.37,1.37,0,0,0-1.1-.46,1.54,1.54,0,0,0-1.16.49,2.18,2.18,0,0,0-.58,1.27Z" fill="#1e1e1e"/>
      </g>
      <g>
        <path d="M68.27,27.79l-2.22,8.4H64L62.56,30.8a4.33,4.33,0,0,1-.14-.94h0a7.15,7.15,0,0,1-.15.94l-1.43,5.39H58.63l-2.21-8.4h2.07l1.19,5.6a7.57,7.57,0,0,1,.11,1h0a4.89,4.89,0,0,1,.17-1l1.53-5.57h2l1.38,5.64a5.94,5.94,0,0,1,.13.9h0a5,5,0,0,1,.12-.93l1.16-5.61Z" fill="#1e1e1e"/>
        <path d="M73.07,31.86a1.61,1.61,0,0,0-.78-.18,1.12,1.12,0,0,0-.94.44A1.93,1.93,0,0,0,71,33.33v2.86H69.16v-6H71v1.12h0a1.59,1.59,0,0,1,1.58-1.22,1.14,1.14,0,0,1,.46.07Z" fill="#1e1e1e"/>
        <path d="M74.92,29.24a1.06,1.06,0,0,1-.77-.28.88.88,0,0,1-.3-.68.87.87,0,0,1,.3-.68,1.14,1.14,0,0,1,.77-.26,1.16,1.16,0,0,1,.77.26.89.89,0,0,1,.29.68.91.91,0,0,1-.29.69A1.11,1.11,0,0,1,74.92,29.24Zm.91,7H74v-6h1.85Z" fill="#1e1e1e"/>
        <path d="M81,36.12a2.7,2.7,0,0,1-1.24.22,1.76,1.76,0,0,1-2-2V31.56h-1V30.19h1V28.9l1.85-.53v1.82H81v1.37H79.67V34c0,.63.25.94.74.94a1.31,1.31,0,0,0,.61-.17Z" fill="#1e1e1e"/>
        <path d="M87.4,33.72H83.49c.06.87.61,1.31,1.64,1.31a3.24,3.24,0,0,0,1.74-.47v1.33a4.5,4.5,0,0,1-2.16.45,2.81,2.81,0,0,1-3.06-3.05,3.2,3.2,0,0,1,.87-2.37,2.9,2.9,0,0,1,2.13-.87,2.63,2.63,0,0,1,2,.77,3,3,0,0,1,.72,2.12Zm-1.71-1.14q0-1.29-1-1.29a1,1,0,0,0-.77.37,1.63,1.63,0,0,0-.39.92Z" fill="#1e1e1e"/>
        <path d="M88.11,36v-1.5a3.82,3.82,0,0,0,.91.41,3,3,0,0,0,.86.14,1.84,1.84,0,0,0,.78-.14.42.42,0,0,0,.28-.41.37.37,0,0,0-.13-.29.88.88,0,0,0-.33-.2,2.52,2.52,0,0,0-.44-.16c-.16-.05-.32-.1-.46-.16a4.68,4.68,0,0,1-.63-.29,1.54,1.54,0,0,1-.46-.36,1.44,1.44,0,0,1-.28-.48,1.74,1.74,0,0,1-.1-.63,1.61,1.61,0,0,1,.22-.87,1.88,1.88,0,0,1,.59-.6,3,3,0,0,1,.83-.34,4.62,4.62,0,0,1,1-.1,5.49,5.49,0,0,1,.8.06,5.3,5.3,0,0,1,.81.18v1.43a2.76,2.76,0,0,0-.75-.31,3.11,3.11,0,0,0-.79-.1,1.87,1.87,0,0,0-.34,0,1,1,0,0,0-.28.09.54.54,0,0,0-.2.16.34.34,0,0,0-.07.22.41.41,0,0,0,.11.28.79.79,0,0,0,.27.2,2.15,2.15,0,0,0,.38.15l.41.14a6.16,6.16,0,0,1,.67.28,2.21,2.21,0,0,1,.51.36,1.29,1.29,0,0,1,.33.48,1.86,1.86,0,0,1-.12,1.57,1.7,1.7,0,0,1-.61.61,2.72,2.72,0,0,1-.89.35,5,5,0,0,1-1,.11A5.17,5.17,0,0,1,88.11,36Z" fill="#1e1e1e"/>
      </g>
      <g>
        <path d="M92.3,14.64H90.24l-.6-1.87h-3l-.6,1.87H84l3.06-8.4h2.25Zm-3.09-3.32-.9-2.83a3,3,0,0,1-.14-.75h0a3.16,3.16,0,0,1-.15.73l-.91,2.85Z" fill="#1e1e1e"/>
        <path d="M95,14.64H93.17V5.76H95Z" fill="#1e1e1e"/>
        <path d="M98.43,14.64H96.58V5.76h1.85Z" fill="#1e1e1e"/>
        <path d="M103.25,12.08h-3.2V10.79h3.2Z" fill="#1e1e1e"/>
        <path d="M108.76,7.17a2,2,0,0,0-.69-.14c-.59,0-.89.32-.89,1v.64h1.37V10h-1.37v4.64h-1.84V10h-1V8.64h1V7.89A2.18,2.18,0,0,1,106,6.24a2.55,2.55,0,0,1,1.82-.63,3.16,3.16,0,0,1,.94.12Z" fill="#1e1e1e"/>
        <path d="M111.35,14.64H109.5V5.76h1.85Z" fill="#1e1e1e"/>
        <path d="M117.9,14.64h-1.75v-.86h0a2,2,0,0,1-1.79,1,1.85,1.85,0,0,1-1.37-.49,1.75,1.75,0,0,1-.5-1.32c0-1.17.69-1.84,2.06-2l1.63-.21c0-.66-.35-1-1.06-1a3.59,3.59,0,0,0-2,.64V9a4.62,4.62,0,0,1,1.06-.36,5.56,5.56,0,0,1,1.22-.15,2.26,2.26,0,0,1,2.56,2.56Zm-1.74-2.44v-.4l-1.09.14c-.6.07-.9.35-.9.81a.67.67,0,0,0,.22.52.89.89,0,0,0,.6.2,1.11,1.11,0,0,0,.85-.36A1.33,1.33,0,0,0,116.16,12.2Z" fill="#1e1e1e"/>
        <path d="M119,14.48V13a3.87,3.87,0,0,0,.91.41,3,3,0,0,0,.86.13,1.84,1.84,0,0,0,.77-.13.44.44,0,0,0,.29-.41.38.38,0,0,0-.13-.29,1.33,1.33,0,0,0-.33-.21,4.72,4.72,0,0,0-.45-.16c-.16,0-.31-.1-.46-.15a4.68,4.68,0,0,1-.63-.29,2.13,2.13,0,0,1-.46-.37,1.47,1.47,0,0,1-.28-.47,2,2,0,0,1-.09-.64,1.66,1.66,0,0,1,.22-.87,1.72,1.72,0,0,1,.58-.59,2.74,2.74,0,0,1,.84-.34,4.46,4.46,0,0,1,1-.11,5.52,5.52,0,0,1,.81.06,5.88,5.88,0,0,1,.81.18v1.43a3,3,0,0,0-.76-.31,3.55,3.55,0,0,0-.78-.1,2,2,0,0,0-.35,0,1.16,1.16,0,0,0-.28.1.43.43,0,0,0-.19.16.32.32,0,0,0-.07.22.42.42,0,0,0,.1.28,1.06,1.06,0,0,0,.28.2,2,2,0,0,0,.37.15L122,11a5.19,5.19,0,0,1,.67.28,1.94,1.94,0,0,1,.51.36,1.37,1.37,0,0,1,.33.48,1.8,1.8,0,0,1,.11.65,1.73,1.73,0,0,1-.23.91,1.75,1.75,0,0,1-.62.62,2.89,2.89,0,0,1-.88.35,5,5,0,0,1-1,.1A5.4,5.4,0,0,1,119,14.48Z" fill="#1e1e1e"/>
        <path d="M130.41,14.64h-1.85V11.23q0-1.32-1-1.32a1,1,0,0,0-.8.37,1.43,1.43,0,0,0-.3.94v3.42h-1.85V5.76h1.85V9.53h0a2.12,2.12,0,0,1,1.85-1q2,0,2,2.46Z" fill="#1e1e1e"/>
      </g>
      <g>
        <path d="M322.16,14.64h-1.9V11.22h-3.48v3.42h-1.89V6.24h1.89V9.59h3.48V6.24h1.9Z" fill="#1e1e1e"/>
        <path d="M329.62,8.64l-2.44,6.48c-.59,1.56-1.47,2.34-2.65,2.34a3.18,3.18,0,0,1-1.11-.16V15.83a1.63,1.63,0,0,0,.81.21,1,1,0,0,0,1-.67l.32-.74-2.44-6h2l1.12,3.65a3.89,3.89,0,0,1,.16.8h0a5.22,5.22,0,0,1,.19-.79l1.13-3.66Z" fill="#1e1e1e"/>
        <path d="M332.23,13.94h0v.7h-1.85V5.76h1.85V9.54h0a2.21,2.21,0,0,1,2-1,2.13,2.13,0,0,1,1.78.8,3.43,3.43,0,0,1,.63,2.18,3.72,3.72,0,0,1-.73,2.41,2.4,2.4,0,0,1-2,.9A1.9,1.9,0,0,1,332.23,13.94Zm-.05-2.53V12a1.4,1.4,0,0,0,.34,1,1.08,1.08,0,0,0,.85.38,1.15,1.15,0,0,0,1-.49,2.32,2.32,0,0,0,.35-1.39,1.84,1.84,0,0,0-.32-1.16,1.06,1.06,0,0,0-.91-.42,1.16,1.16,0,0,0-.92.42A1.52,1.52,0,0,0,332.18,11.41Z" fill="#1e1e1e"/>
        <path d="M341.72,10.31a1.66,1.66,0,0,0-.78-.18,1.11,1.11,0,0,0-.95.44,1.94,1.94,0,0,0-.34,1.2v2.87H337.8v-6h1.85V9.75h0a1.6,1.6,0,0,1,1.58-1.22,1.39,1.39,0,0,1,.46.07Z" fill="#1e1e1e"/>
        <path d="M343.56,7.69a1.07,1.07,0,0,1-.77-.28.9.9,0,0,1-.3-.68.85.85,0,0,1,.3-.68,1.11,1.11,0,0,1,.77-.27,1.1,1.1,0,0,1,.77.27.85.85,0,0,1,.3.68.89.89,0,0,1-.3.69A1.1,1.1,0,0,1,343.56,7.69Zm.92,7h-1.86v-6h1.86Z" fill="#1e1e1e"/>
        <path d="M351.9,14.64h-1.85v-.83h0a2.07,2.07,0,0,1-1.86,1,2.27,2.27,0,0,1-1.81-.79,3.28,3.28,0,0,1-.68-2.22,3.59,3.59,0,0,1,.75-2.38,2.48,2.48,0,0,1,2-.9,1.69,1.69,0,0,1,1.62.83h0V5.76h1.85Zm-1.81-2.92v-.45a1.38,1.38,0,0,0-.34-1,1.2,1.2,0,0,0-1.85.09,2.26,2.26,0,0,0-.34,1.33,2,2,0,0,0,.33,1.22,1.12,1.12,0,0,0,.93.43,1.1,1.1,0,0,0,.91-.45A1.88,1.88,0,0,0,350.09,11.72Z" fill="#1e1e1e"/>
      </g>
      <g>
        <path d="M156.12,36.19H155l-1.4-2.35a4.9,4.9,0,0,0-.38-.56,1.92,1.92,0,0,0-.37-.38,1.14,1.14,0,0,0-.41-.21,1.55,1.55,0,0,0-.5-.07h-.8v3.57h-1v-8.4h2.51a3.64,3.64,0,0,1,1,.14,2.11,2.11,0,0,1,.8.42,1.88,1.88,0,0,1,.54.7,2.58,2.58,0,0,1,.06,1.78,2.13,2.13,0,0,1-.37.66,2.57,2.57,0,0,1-.59.49,3,3,0,0,1-.77.31v0a2.58,2.58,0,0,1,.37.22,1.9,1.9,0,0,1,.29.28,2.75,2.75,0,0,1,.28.37c.09.14.2.3.31.49Zm-5-7.51v3.05h1.33a2.06,2.06,0,0,0,.68-.11,1.77,1.77,0,0,0,.55-.32,1.41,1.41,0,0,0,.35-.51,1.65,1.65,0,0,0,.13-.68,1.31,1.31,0,0,0-.43-1.05,1.92,1.92,0,0,0-1.27-.38Z" fill="#767676"/>
        <path d="M161.62,33.43h-4.24a2.28,2.28,0,0,0,.54,1.55,1.88,1.88,0,0,0,1.42.54,2.94,2.94,0,0,0,1.86-.66v.9a3.47,3.47,0,0,1-2.09.57,2.57,2.57,0,0,1-2-.81,3.39,3.39,0,0,1-.72-2.3,3.29,3.29,0,0,1,.79-2.29,2.58,2.58,0,0,1,2-.88,2.29,2.29,0,0,1,1.83.76,3.19,3.19,0,0,1,.64,2.12Zm-1-.81a2,2,0,0,0-.41-1.3,1.34,1.34,0,0,0-1.09-.46,1.54,1.54,0,0,0-1.16.49,2.18,2.18,0,0,0-.58,1.27Z" fill="#767676"/>
        <path d="M167.37,36.19h-1v-.94h0a2,2,0,0,1-1.84,1.08,2,2,0,0,1-1.4-.47,1.65,1.65,0,0,1-.51-1.26c0-1.12.66-1.78,2-2l1.8-.25c0-1-.41-1.53-1.24-1.53a3,3,0,0,0-2,.74v-1a3.76,3.76,0,0,1,2-.56c1.41,0,2.12.75,2.12,2.24Zm-1-3-1.45.2a2.35,2.35,0,0,0-1,.33,1,1,0,0,0-.34.84.93.93,0,0,0,.32.72,1.22,1.22,0,0,0,.83.27,1.51,1.51,0,0,0,1.18-.5,1.78,1.78,0,0,0,.47-1.27Z" fill="#767676"/>
        <path d="M174.3,36.19h-1v-1h0a2.22,2.22,0,0,1-2.07,1.16,2.25,2.25,0,0,1-1.8-.8,3.27,3.27,0,0,1-.68-2.2,3.59,3.59,0,0,1,.75-2.38,2.48,2.48,0,0,1,2-.9,2,2,0,0,1,1.8,1h0V27.31h1Zm-1-2.71v-.89a1.73,1.73,0,0,0-.48-1.23,1.78,1.78,0,0,0-2.6.14,2.82,2.82,0,0,0-.51,1.79,2.48,2.48,0,0,0,.49,1.63,1.57,1.57,0,0,0,1.29.6,1.65,1.65,0,0,0,1.31-.58A2.16,2.16,0,0,0,173.34,33.48Z" fill="#767676"/>
        <path d="M175.88,36v-1a2.84,2.84,0,0,0,1.73.58c.84,0,1.27-.28,1.27-.84a.76.76,0,0,0-.11-.41,1,1,0,0,0-.29-.29,1.83,1.83,0,0,0-.44-.23l-.53-.22a5.16,5.16,0,0,1-.7-.32,2,2,0,0,1-.51-.36,1.52,1.52,0,0,1-.3-.46,1.57,1.57,0,0,1-.11-.6,1.42,1.42,0,0,1,.2-.75,1.78,1.78,0,0,1,.51-.55,2.77,2.77,0,0,1,.74-.33,3.41,3.41,0,0,1,.85-.11,3.46,3.46,0,0,1,1.4.27v1a2.74,2.74,0,0,0-1.53-.43,1.75,1.75,0,0,0-.48.06,1.33,1.33,0,0,0-.38.17,1,1,0,0,0-.24.27.77.77,0,0,0-.08.34,1,1,0,0,0,.08.4.94.94,0,0,0,.25.28,2.11,2.11,0,0,0,.4.22l.53.22a6.21,6.21,0,0,1,.72.31,2.82,2.82,0,0,1,.54.36,1.41,1.41,0,0,1,.34.47,1.51,1.51,0,0,1,.12.63,1.41,1.41,0,0,1-.2.77,1.58,1.58,0,0,1-.52.54,2.28,2.28,0,0,1-.76.33,3.68,3.68,0,0,1-.89.1A3.54,3.54,0,0,1,175.88,36Z" fill="#767676"/>
      </g>
      <g>
        <path d="M285.84,27.79l-2.23,8.4h-2.09l-1.4-5.39a4.35,4.35,0,0,1-.13-.94h0a4.86,4.86,0,0,1-.15.94l-1.43,5.39H276.2L274,27.79h2.07l1.18,5.6a6.08,6.08,0,0,1,.11,1h0a4.28,4.28,0,0,1,.17-1l1.52-5.57h2l1.37,5.64a7.22,7.22,0,0,1,.14.9h0a6.11,6.11,0,0,1,.13-.93l1.16-5.61Z" fill="#1e1e1e"/>
        <path d="M290.63,31.86a1.59,1.59,0,0,0-.77-.18,1.14,1.14,0,0,0-.95.44,2,2,0,0,0-.34,1.21v2.86h-1.85v-6h1.85v1.12h0a1.59,1.59,0,0,1,1.58-1.22,1.12,1.12,0,0,1,.45.07Z" fill="#1e1e1e"/>
        <path d="M292.48,29.24a1.07,1.07,0,0,1-.77-.28.88.88,0,0,1-.3-.68.87.87,0,0,1,.3-.68,1.16,1.16,0,0,1,.77-.26,1.14,1.14,0,0,1,.77.26.87.87,0,0,1,.3.68.89.89,0,0,1-.3.69A1.1,1.1,0,0,1,292.48,29.24Zm.91,7h-1.85v-6h1.85Z" fill="#1e1e1e"/>
        <path d="M298.58,36.12a2.67,2.67,0,0,1-1.24.22c-1.3,0-1.95-.68-1.95-2V31.56h-1V30.19h1V28.9l1.84-.53v1.82h1.35v1.37h-1.35V34c0,.63.25.94.75.94a1.31,1.31,0,0,0,.6-.17Z" fill="#1e1e1e"/>
        <path d="M305,33.72h-3.92c.06.87.61,1.31,1.65,1.31a3.24,3.24,0,0,0,1.74-.47v1.33a4.56,4.56,0,0,1-2.16.45,2.79,2.79,0,0,1-3.06-3.05,3.2,3.2,0,0,1,.87-2.37,2.87,2.87,0,0,1,2.13-.87,2.66,2.66,0,0,1,2,.77,3,3,0,0,1,.72,2.12Zm-1.72-1.14c0-.86-.35-1.29-1-1.29a1,1,0,0,0-.77.37,1.72,1.72,0,0,0-.4.92Z" fill="#1e1e1e"/>
        <path d="M305.68,36v-1.5a3.5,3.5,0,0,0,.91.41,3,3,0,0,0,.85.14,1.84,1.84,0,0,0,.78-.14.43.43,0,0,0,.29-.41.41.41,0,0,0-.13-.29,1.08,1.08,0,0,0-.33-.2,3,3,0,0,0-.45-.16l-.46-.16a4.68,4.68,0,0,1-.63-.29,1.84,1.84,0,0,1-.46-.36,1.64,1.64,0,0,1-.28-.48,2,2,0,0,1-.09-.63,1.61,1.61,0,0,1,.22-.87,1.84,1.84,0,0,1,.58-.6,3,3,0,0,1,.84-.34,4.46,4.46,0,0,1,1-.1,5.52,5.52,0,0,1,.81.06,5.88,5.88,0,0,1,.81.18v1.43a3,3,0,0,0-.76-.31,3,3,0,0,0-.78-.1,2,2,0,0,0-.35,0,1.15,1.15,0,0,0-.28.09.51.51,0,0,0-.19.16.34.34,0,0,0-.07.22.4.4,0,0,0,.1.28.75.75,0,0,0,.28.2,2,2,0,0,0,.37.15l.42.14a7.13,7.13,0,0,1,.67.28,2.44,2.44,0,0,1,.51.36,1.58,1.58,0,0,1,.33.48,1.86,1.86,0,0,1,.11.66,1.76,1.76,0,0,1-.23.91,1.73,1.73,0,0,1-.62.61,2.66,2.66,0,0,1-.88.35,5,5,0,0,1-1,.11A5.17,5.17,0,0,1,305.68,36Z" fill="#1e1e1e"/>
      </g>
      <g>
        <path d="M391.62,36.19h-2.17L388.14,34c-.1-.16-.19-.31-.28-.44a2.39,2.39,0,0,0-.27-.33,1.32,1.32,0,0,0-.29-.21A.72.72,0,0,0,387,33h-.51v3.21h-1.89v-8.4h3q3.06,0,3.06,2.28a2.39,2.39,0,0,1-.13.82,2.36,2.36,0,0,1-1,1.18,2.75,2.75,0,0,1-.78.34v0a1.18,1.18,0,0,1,.37.19,3,3,0,0,1,.34.3c.11.12.21.25.31.38s.19.27.27.4Zm-5.16-7v2.34h.82a1.33,1.33,0,0,0,1-.36,1.16,1.16,0,0,0,.38-.88c0-.74-.44-1.1-1.32-1.1Z" fill="#1e1e1e"/>
        <path d="M397.32,33.72H393.4c.06.87.61,1.31,1.65,1.31a3.24,3.24,0,0,0,1.74-.47v1.33a4.56,4.56,0,0,1-2.16.45,2.79,2.79,0,0,1-3.06-3.05,3.2,3.2,0,0,1,.87-2.37,2.87,2.87,0,0,1,2.13-.87,2.66,2.66,0,0,1,2,.77,3,3,0,0,1,.72,2.12Zm-1.72-1.14c0-.86-.35-1.29-1-1.29a1,1,0,0,0-.77.37,1.72,1.72,0,0,0-.4.92Z" fill="#1e1e1e"/>
        <path d="M403.41,36.19h-1.75v-.86h0a2,2,0,0,1-1.78,1,1.9,1.9,0,0,1-1.38-.5,1.79,1.79,0,0,1-.5-1.32q0-1.74,2.07-2l1.63-.22c0-.66-.36-1-1.07-1a3.7,3.7,0,0,0-2,.63V30.55a4.67,4.67,0,0,1,1.06-.35,5.7,5.7,0,0,1,1.22-.15,2.27,2.27,0,0,1,2.57,2.56Zm-1.74-2.44v-.4l-1.09.14c-.6.08-.9.35-.9.82a.64.64,0,0,0,.22.51.8.8,0,0,0,.59.21,1.1,1.1,0,0,0,.85-.36A1.31,1.31,0,0,0,401.67,33.75Z" fill="#1e1e1e"/>
        <path d="M410.75,36.19h-1.86v-.82h0a2.09,2.09,0,0,1-1.86,1,2.28,2.28,0,0,1-1.81-.8,3.28,3.28,0,0,1-.68-2.21,3.6,3.6,0,0,1,.75-2.39,2.47,2.47,0,0,1,2-.89,1.67,1.67,0,0,1,1.62.83h0V27.31h1.86Zm-1.82-2.92v-.45a1.4,1.4,0,0,0-.34-1,1.12,1.12,0,0,0-.89-.39,1.1,1.1,0,0,0-1,.49,2.23,2.23,0,0,0-.34,1.32,2,2,0,0,0,.33,1.22,1.18,1.18,0,0,0,1.84,0A1.87,1.87,0,0,0,408.93,33.27Z" fill="#1e1e1e"/>
        <path d="M411.91,36v-1.5a3.82,3.82,0,0,0,.91.41,3.08,3.08,0,0,0,.86.14,1.84,1.84,0,0,0,.78-.14.42.42,0,0,0,.28-.41.37.37,0,0,0-.13-.29.88.88,0,0,0-.33-.2,2.52,2.52,0,0,0-.44-.16c-.16-.05-.32-.1-.46-.16a4.68,4.68,0,0,1-.63-.29,1.67,1.67,0,0,1-.46-.36,1.44,1.44,0,0,1-.28-.48,1.74,1.74,0,0,1-.1-.63,1.61,1.61,0,0,1,.22-.87,1.88,1.88,0,0,1,.59-.6,2.9,2.9,0,0,1,.84-.34,4.46,4.46,0,0,1,1-.1,5.73,5.73,0,0,1,.81.06,5.45,5.45,0,0,1,.8.18v1.43a2.76,2.76,0,0,0-.75-.31,3.11,3.11,0,0,0-.79-.1,1.87,1.87,0,0,0-.34,0,1,1,0,0,0-.28.09.54.54,0,0,0-.2.16.4.4,0,0,0,0,.5.79.79,0,0,0,.27.2,2.15,2.15,0,0,0,.38.15l.41.14a6.16,6.16,0,0,1,.67.28,2.21,2.21,0,0,1,.51.36,1.29,1.29,0,0,1,.33.48,1.66,1.66,0,0,1,.12.66,1.76,1.76,0,0,1-.23.91,1.81,1.81,0,0,1-.62.61,2.75,2.75,0,0,1-.88.35,5.1,5.1,0,0,1-1,.11A5.23,5.23,0,0,1,411.91,36Z" fill="#1e1e1e"/>
      </g>
      <g>
        <path d="M138.44,181.48v-1.16a2.39,2.39,0,0,0,.47.31,3.83,3.83,0,0,0,.59.24,6.23,6.23,0,0,0,.62.15,4,4,0,0,0,.57,0,2.22,2.22,0,0,0,1.36-.34,1.12,1.12,0,0,0,.45-1,1.15,1.15,0,0,0-.15-.59,1.64,1.64,0,0,0-.42-.46,3.91,3.91,0,0,0-.62-.4l-.78-.4-.82-.45a3.81,3.81,0,0,1-.66-.5,2.11,2.11,0,0,1-.44-.63,1.86,1.86,0,0,1-.16-.81,1.88,1.88,0,0,1,.25-1,2.11,2.11,0,0,1,.66-.7,3,3,0,0,1,.94-.41,4.24,4.24,0,0,1,1.07-.14,4.11,4.11,0,0,1,1.81.3v1.11a3.26,3.26,0,0,0-1.91-.52,3.59,3.59,0,0,0-.65.07,2,2,0,0,0-.57.22,1.18,1.18,0,0,0-.41.39,1,1,0,0,0-.16.59,1.18,1.18,0,0,0,.12.55,1.41,1.41,0,0,0,.35.43,3.76,3.76,0,0,0,.57.38l.78.4c.3.14.59.3.86.46a4.46,4.46,0,0,1,.71.55,2.53,2.53,0,0,1,.48.66,1.84,1.84,0,0,1,.18.83,2,2,0,0,1-.9,1.76,2.88,2.88,0,0,1-.95.39,5.24,5.24,0,0,1-1.14.12c-.13,0-.3,0-.49,0s-.4,0-.6-.09a4.91,4.91,0,0,1-.58-.15A1.93,1.93,0,0,1,138.44,181.48Z" fill="#1e1e1e"/>
        <path d="M144.81,181.48v-1.16a2.21,2.21,0,0,0,.48.31,3.72,3.72,0,0,0,.58.24l.62.15a4.13,4.13,0,0,0,.58,0,2.2,2.2,0,0,0,1.35-.34,1.12,1.12,0,0,0,.45-1,1.15,1.15,0,0,0-.15-.59,1.76,1.76,0,0,0-.41-.46,4.43,4.43,0,0,0-.62-.4l-.78-.4c-.29-.15-.57-.3-.82-.45a3.17,3.17,0,0,1-.66-.5,2.14,2.14,0,0,1-.45-.63,2,2,0,0,1-.16-.81,2,2,0,0,1,.25-1,2,2,0,0,1,.67-.7,2.8,2.8,0,0,1,.93-.41,4.3,4.3,0,0,1,1.07-.14,4.08,4.08,0,0,1,1.81.3v1.11a3.22,3.22,0,0,0-1.91-.52,3.48,3.48,0,0,0-.64.07,2,2,0,0,0-.58.22,1.27,1.27,0,0,0-.41.39,1.1,1.1,0,0,0-.16.59,1.18,1.18,0,0,0,.12.55,1.31,1.31,0,0,0,.36.43,3.32,3.32,0,0,0,.57.38l.78.4c.3.14.58.3.85.46a4,4,0,0,1,.71.55,2.32,2.32,0,0,1,.48.66,1.84,1.84,0,0,1,.18.83,2.16,2.16,0,0,1-.24,1.06,2,2,0,0,1-.66.7,2.8,2.8,0,0,1-.95.39,5.24,5.24,0,0,1-1.14.12c-.13,0-.29,0-.49,0l-.6-.09a4.74,4.74,0,0,1-.57-.15A2,2,0,0,1,144.81,181.48Z" fill="#1e1e1e"/>
        <path d="M151.58,181.82v-8.41h2.32q4.44,0,4.44,4.1a4.1,4.1,0,0,1-1.23,3.12,4.59,4.59,0,0,1-3.3,1.19Zm1-7.52v6.62h1.26a3.55,3.55,0,0,0,2.57-.88,3.34,3.34,0,0,0,.92-2.51c0-2.15-1.15-3.23-3.43-3.23Z" fill="#1e1e1e"/>
      </g>
      <g>
        <path d="M173.84,181.48v-1.16a2.83,2.83,0,0,0,.48.31,3.83,3.83,0,0,0,.59.24,6.23,6.23,0,0,0,.62.15,3.88,3.88,0,0,0,.57,0,2.22,2.22,0,0,0,1.36-.34,1.12,1.12,0,0,0,.44-1,1.15,1.15,0,0,0-.14-.59,1.64,1.64,0,0,0-.42-.46,3.91,3.91,0,0,0-.62-.4l-.78-.4-.82-.45a3.81,3.81,0,0,1-.66-.5,1.94,1.94,0,0,1-.44-.63,1.86,1.86,0,0,1-.16-.81,1.88,1.88,0,0,1,.25-1,2.11,2.11,0,0,1,.66-.7,2.9,2.9,0,0,1,.93-.41,4.3,4.3,0,0,1,1.07-.14,4,4,0,0,1,1.81.3v1.11a3.22,3.22,0,0,0-1.91-.52,3.48,3.48,0,0,0-.64.07,1.93,1.93,0,0,0-.57.22,1.18,1.18,0,0,0-.41.39,1,1,0,0,0-.16.59,1.18,1.18,0,0,0,.12.55,1.41,1.41,0,0,0,.35.43,3.76,3.76,0,0,0,.57.38l.78.4c.3.14.59.3.86.46a4.36,4.36,0,0,1,.7.55,2.36,2.36,0,0,1,.49.66,1.84,1.84,0,0,1,.18.83,2,2,0,0,1-.9,1.76,2.94,2.94,0,0,1-1,.39A5.09,5.09,0,0,1,176,182c-.13,0-.3,0-.49,0s-.4,0-.6-.09a4.45,4.45,0,0,1-.58-.15A2,2,0,0,1,173.84,181.48Z" fill="#1e1e1e"/>
        <path d="M180.22,181.48v-1.16a2.21,2.21,0,0,0,.48.31,3.72,3.72,0,0,0,.58.24c.21.06.41.11.62.15a4.13,4.13,0,0,0,.58,0,2.2,2.2,0,0,0,1.35-.34,1.12,1.12,0,0,0,.45-1,1.15,1.15,0,0,0-.15-.59,1.76,1.76,0,0,0-.41-.46,4.57,4.57,0,0,0-.63-.4l-.77-.4c-.3-.15-.57-.3-.82-.45a3.54,3.54,0,0,1-.67-.5,2.3,2.3,0,0,1-.44-.63,1.86,1.86,0,0,1-.16-.81,2,2,0,0,1,.25-1,2,2,0,0,1,.67-.7,2.8,2.8,0,0,1,.93-.41,4.3,4.3,0,0,1,1.07-.14,4.08,4.08,0,0,1,1.81.3v1.11a3.24,3.24,0,0,0-1.91-.52,3.59,3.59,0,0,0-.65.07,2,2,0,0,0-.57.22,1.27,1.27,0,0,0-.41.39,1.1,1.1,0,0,0-.16.59,1.18,1.18,0,0,0,.12.55,1.31,1.31,0,0,0,.36.43,3,3,0,0,0,.57.38l.77.4a8.69,8.69,0,0,1,.86.46,4,4,0,0,1,.71.55,2.53,2.53,0,0,1,.48.66,1.84,1.84,0,0,1,.18.83,2.16,2.16,0,0,1-.24,1.06,2,2,0,0,1-.66.7,2.8,2.8,0,0,1-.95.39,5.24,5.24,0,0,1-1.14.12c-.13,0-.29,0-.49,0l-.6-.09a4.74,4.74,0,0,1-.57-.15A1.83,1.83,0,0,1,180.22,181.48Z" fill="#1e1e1e"/>
        <path d="M187,181.82v-8.41h2.32q4.44,0,4.44,4.1a4.1,4.1,0,0,1-1.23,3.12,4.6,4.6,0,0,1-3.31,1.19Zm1-7.52v6.62h1.26a3.56,3.56,0,0,0,2.57-.88,3.34,3.34,0,0,0,.92-2.51q0-3.22-3.44-3.23Z" fill="#1e1e1e"/>
      </g>
      <g>
        <path d="M282.35,119v-1.16a1.91,1.91,0,0,0,.48.32,5.19,5.19,0,0,0,.59.24c.2.06.41.11.61.15a4.13,4.13,0,0,0,.58.05,2.18,2.18,0,0,0,1.35-.34,1.14,1.14,0,0,0,.45-1,1.15,1.15,0,0,0-.15-.59,1.6,1.6,0,0,0-.41-.46,4.43,4.43,0,0,0-.62-.4l-.78-.4c-.29-.15-.57-.3-.82-.45a3.46,3.46,0,0,1-.66-.5,2.28,2.28,0,0,1-.45-.63,2,2,0,0,1-.16-.82,1.93,1.93,0,0,1,.26-1,2.1,2.1,0,0,1,.66-.7,3,3,0,0,1,.93-.41,4.29,4.29,0,0,1,1.07-.13,4.08,4.08,0,0,1,1.81.3v1.11a3.22,3.22,0,0,0-1.91-.52,2.79,2.79,0,0,0-.64.07,1.75,1.75,0,0,0-.58.22,1.38,1.38,0,0,0-.41.39,1.1,1.1,0,0,0-.15.59,1.18,1.18,0,0,0,.12.55,1.28,1.28,0,0,0,.35.43,4.69,4.69,0,0,0,.57.38c.23.12.48.25.78.39s.58.31.85.47a4,4,0,0,1,.71.55,2.57,2.57,0,0,1,.49.66,2,2,0,0,1,.17.83,2.09,2.09,0,0,1-.24,1.05,1.93,1.93,0,0,1-.66.7,2.8,2.8,0,0,1-1,.39,5.22,5.22,0,0,1-1.13.12l-.5,0-.59-.09a3.28,3.28,0,0,1-.58-.16A1.65,1.65,0,0,1,282.35,119Z" fill="#1e1e1e"/>
        <path d="M288.73,119v-1.16a2,2,0,0,0,.47.32,6.07,6.07,0,0,0,.59.24c.21.06.41.11.62.15a4.13,4.13,0,0,0,.57.05,2.22,2.22,0,0,0,1.36-.34,1.14,1.14,0,0,0,.45-1,1.15,1.15,0,0,0-.15-.59,1.76,1.76,0,0,0-.41-.46,4.57,4.57,0,0,0-.63-.4l-.78-.4L290,115a3.81,3.81,0,0,1-.66-.5,2.24,2.24,0,0,1-.44-.63,1.88,1.88,0,0,1-.16-.82,1.93,1.93,0,0,1,.25-1,2.32,2.32,0,0,1,.66-.7,3.19,3.19,0,0,1,.94-.41,4.24,4.24,0,0,1,1.07-.13,4.11,4.11,0,0,1,1.81.3v1.11a3.26,3.26,0,0,0-1.91-.52,2.88,2.88,0,0,0-.65.07,1.78,1.78,0,0,0-.57.22,1.18,1.18,0,0,0-.41.39,1,1,0,0,0-.16.59,1.18,1.18,0,0,0,.12.55,1.41,1.41,0,0,0,.35.43,4.17,4.17,0,0,0,.58.38l.77.39c.3.15.59.31.86.47a4.46,4.46,0,0,1,.71.55,2.53,2.53,0,0,1,.48.66,1.84,1.84,0,0,1,.18.83,1.94,1.94,0,0,1-.9,1.75,2.88,2.88,0,0,1-.95.39,5.24,5.24,0,0,1-1.14.12l-.49,0q-.3,0-.6-.09a3.83,3.83,0,0,1-.58-.16A1.57,1.57,0,0,1,288.73,119Z" fill="#1e1e1e"/>
        <path d="M295.49,119.36V111h2.33q4.44,0,4.44,4.1a4.11,4.11,0,0,1-1.24,3.12,4.55,4.55,0,0,1-3.3,1.18Zm1-7.51v6.62h1.25a3.59,3.59,0,0,0,2.58-.88,3.34,3.34,0,0,0,.92-2.51q0-3.22-3.44-3.23Z" fill="#1e1e1e"/>
      </g>
      <g>
        <path d="M390.33,119.87v-1.16a2.86,2.86,0,0,0,.48.32,3.8,3.8,0,0,0,.59.23,3.3,3.3,0,0,0,.62.15,2.87,2.87,0,0,0,.57,0,2.29,2.29,0,0,0,1.36-.33,1.15,1.15,0,0,0,.45-1,1.1,1.1,0,0,0-.15-.59,1.64,1.64,0,0,0-.42-.46,3.91,3.91,0,0,0-.62-.4l-.78-.4-.82-.45a3.85,3.85,0,0,1-.66-.51,2.06,2.06,0,0,1-.35-2.44,2.21,2.21,0,0,1,.66-.7,3.13,3.13,0,0,1,.93-.41,4.29,4.29,0,0,1,1.07-.13,4.22,4.22,0,0,1,1.81.29v1.11a3.29,3.29,0,0,0-1.91-.51,3.47,3.47,0,0,0-.64.06,1.93,1.93,0,0,0-.57.22,1.31,1.31,0,0,0-.41.4,1,1,0,0,0-.16.58,1.22,1.22,0,0,0,.12.56,1.41,1.41,0,0,0,.35.43,3.75,3.75,0,0,0,.57.37l.78.4c.3.15.59.3.86.47a3.82,3.82,0,0,1,.7.54,2.27,2.27,0,0,1,.49.67,1.84,1.84,0,0,1,.18.83,2,2,0,0,1-.25,1,2,2,0,0,1-.65.7,2.94,2.94,0,0,1-1,.39,5.09,5.09,0,0,1-1.13.12l-.49,0c-.2,0-.4-.06-.6-.1a4.91,4.91,0,0,1-.58-.15A2,2,0,0,1,390.33,119.87Z" fill="#1e1e1e"/>
        <path d="M396.71,119.87v-1.16a2.23,2.23,0,0,0,.48.32,3.69,3.69,0,0,0,.58.23,3.5,3.5,0,0,0,.62.15,3,3,0,0,0,.58,0,2.28,2.28,0,0,0,1.35-.33,1.15,1.15,0,0,0,.45-1,1.1,1.1,0,0,0-.15-.59,1.76,1.76,0,0,0-.41-.46,4.57,4.57,0,0,0-.63-.4l-.77-.4c-.3-.15-.57-.3-.82-.45a3.57,3.57,0,0,1-.67-.51,2.26,2.26,0,0,1-.44-.62,1.91,1.91,0,0,1-.16-.82,2,2,0,0,1,.25-1,2.13,2.13,0,0,1,.67-.7,3,3,0,0,1,.93-.41,5.22,5.22,0,0,1,2.88.16v1.11a3.31,3.31,0,0,0-1.91-.51,3.39,3.39,0,0,0-.64.06,2,2,0,0,0-.58.22,1.42,1.42,0,0,0-.41.4,1.07,1.07,0,0,0-.16.58,1.22,1.22,0,0,0,.12.56,1.31,1.31,0,0,0,.36.43,3,3,0,0,0,.57.37c.22.12.48.26.77.4a8.72,8.72,0,0,1,.86.47,3.59,3.59,0,0,1,.71.54,2.42,2.42,0,0,1,.48.67,1.84,1.84,0,0,1,.18.83,2.14,2.14,0,0,1-.24,1,1.93,1.93,0,0,1-.66.7,2.8,2.8,0,0,1-.95.39,5.24,5.24,0,0,1-1.14.12l-.49,0c-.19,0-.39-.06-.6-.1a4.74,4.74,0,0,1-.57-.15A1.83,1.83,0,0,1,396.71,119.87Z" fill="#1e1e1e"/>
        <path d="M403.48,120.21v-8.4h2.32q4.44,0,4.44,4.09A4.14,4.14,0,0,1,409,119a4.59,4.59,0,0,1-3.31,1.18Zm1-7.51v6.62h1.26a3.57,3.57,0,0,0,2.57-.89,3.31,3.31,0,0,0,.92-2.5c0-2.16-1.15-3.23-3.44-3.23Z" fill="#1e1e1e"/>
      </g>
      <g>
        <path d="M51.35,50.3h-1v-.94h0a2,2,0,0,1-1.84,1.08A2,2,0,0,1,47.11,50a1.61,1.61,0,0,1-.5-1.26q0-1.68,2-2l1.8-.25c0-1-.42-1.53-1.24-1.53a3,3,0,0,0-2,.73v-1a3.76,3.76,0,0,1,2-.56c1.41,0,2.12.74,2.12,2.24Zm-1-3-1.45.2a2.59,2.59,0,0,0-1,.33,1,1,0,0,0-.34.84.9.9,0,0,0,.31.72,1.2,1.2,0,0,0,.84.28,1.55,1.55,0,0,0,1.18-.5,1.8,1.8,0,0,0,.47-1.27Z" fill="#1e1e1e"/>
        <path d="M56.29,45.27a1.18,1.18,0,0,0-.73-.19,1.23,1.23,0,0,0-1,.58,2.7,2.7,0,0,0-.41,1.58V50.3h-1v-6h1v1.23h0a2.09,2.09,0,0,1,.63-1,1.4,1.4,0,0,1,.94-.36,1.5,1.5,0,0,1,.58.09Z" fill="#1e1e1e"/>
        <path d="M62.15,47.54H57.91a2.3,2.3,0,0,0,.54,1.55,1.88,1.88,0,0,0,1.42.54A2.89,2.89,0,0,0,61.73,49v.9a3.41,3.41,0,0,1-2.09.58,2.51,2.51,0,0,1-2-.82A3.83,3.83,0,0,1,57.71,45a2.54,2.54,0,0,1,2-.88,2.26,2.26,0,0,1,1.83.76A3.17,3.17,0,0,1,62.15,47Zm-1-.82a2,2,0,0,0-.4-1.29,1.37,1.37,0,0,0-1.1-.46,1.57,1.57,0,0,0-1.16.48,2.24,2.24,0,0,0-.58,1.27Z" fill="#1e1e1e"/>
        <path d="M71,50a3.1,3.1,0,0,1-1.64.42,2.69,2.69,0,0,1-2.07-.84,3,3,0,0,1-.79-2.16,3.3,3.3,0,0,1,.85-2.38,3,3,0,0,1,2.27-.9,3.2,3.2,0,0,1,1.39.29v1A2.38,2.38,0,0,0,69.56,45a2,2,0,0,0-1.51.66,2.5,2.5,0,0,0-.58,1.73A2.38,2.38,0,0,0,68,49a1.89,1.89,0,0,0,1.48.61A2.39,2.39,0,0,0,71,49.11Z" fill="#1e1e1e"/>
        <path d="M76.73,50.3h-1v-.94h0a2,2,0,0,1-1.84,1.08A1.93,1.93,0,0,1,72.5,50,1.62,1.62,0,0,1,72,48.7q0-1.68,2-2l1.8-.25c0-1-.41-1.53-1.24-1.53a3,3,0,0,0-2,.73v-1a3.76,3.76,0,0,1,2-.56c1.41,0,2.12.74,2.12,2.24Zm-1-3-1.45.2a2.65,2.65,0,0,0-1,.33,1,1,0,0,0-.34.84.9.9,0,0,0,.32.72,1.18,1.18,0,0,0,.83.28,1.55,1.55,0,0,0,1.18-.5,1.8,1.8,0,0,0,.47-1.27Z" fill="#1e1e1e"/>
        <path d="M82.63,50a3.1,3.1,0,0,1-1.64.42,2.69,2.69,0,0,1-2.07-.84,3,3,0,0,1-.79-2.16A3.3,3.3,0,0,1,79,45.06a3,3,0,0,1,2.27-.9,3.23,3.23,0,0,1,1.39.29v1A2.38,2.38,0,0,0,81.21,45a2,2,0,0,0-1.51.66,2.5,2.5,0,0,0-.59,1.73A2.38,2.38,0,0,0,79.67,49a1.89,1.89,0,0,0,1.48.61,2.39,2.39,0,0,0,1.48-.52Z" fill="#1e1e1e"/>
        <path d="M89.06,50.3h-1V46.84c0-1.25-.46-1.87-1.39-1.87a1.53,1.53,0,0,0-1.19.54A2,2,0,0,0,85,46.9v3.4h-1V41.42h1v3.87h0a2.18,2.18,0,0,1,2-1.13c1.35,0,2,.81,2,2.44Z" fill="#1e1e1e"/>
        <path d="M95.7,47.54H91.46A2.25,2.25,0,0,0,92,49.09a1.87,1.87,0,0,0,1.42.54A2.93,2.93,0,0,0,95.28,49v.9a3.43,3.43,0,0,1-2.09.58,2.52,2.52,0,0,1-2-.82,3.36,3.36,0,0,1-.73-2.3,3.29,3.29,0,0,1,.8-2.28,2.53,2.53,0,0,1,2-.88,2.25,2.25,0,0,1,1.82.76A3.17,3.17,0,0,1,95.7,47Zm-1-.82a2,2,0,0,0-.4-1.29,1.36,1.36,0,0,0-1.1-.46,1.55,1.55,0,0,0-1.15.48,2.25,2.25,0,0,0-.59,1.27Z" fill="#1e1e1e"/>
        <path d="M102.27,50.3h-1v-1h0a2.42,2.42,0,0,1-3.87.35,3.24,3.24,0,0,1-.68-2.19,3.62,3.62,0,0,1,.75-2.39,2.48,2.48,0,0,1,2-.89,1.93,1.93,0,0,1,1.8,1h0V41.42h1Zm-1-2.71V46.7a1.73,1.73,0,0,0-.48-1.23,1.6,1.6,0,0,0-1.22-.5,1.64,1.64,0,0,0-1.38.64,2.79,2.79,0,0,0-.51,1.78A2.51,2.51,0,0,0,98.21,49a1.57,1.57,0,0,0,1.29.6,1.65,1.65,0,0,0,1.31-.58A2.17,2.17,0,0,0,101.31,47.59Z" fill="#1e1e1e"/>
      </g>
      <g>
        <path d="M268.91,50.3h-1v-.94h0a2,2,0,0,1-1.85,1.08,2,2,0,0,1-1.4-.48,1.62,1.62,0,0,1-.51-1.26q0-1.68,2-2l1.8-.25c0-1-.41-1.53-1.24-1.53a2.94,2.94,0,0,0-1.95.73v-1a3.76,3.76,0,0,1,2-.56c1.41,0,2.11.74,2.11,2.24Zm-1-3-1.45.2a2.65,2.65,0,0,0-1,.33,1,1,0,0,0-.34.84.9.9,0,0,0,.32.72,1.19,1.19,0,0,0,.83.28,1.55,1.55,0,0,0,1.18-.5,1.8,1.8,0,0,0,.47-1.27Z" fill="#1e1e1e"/>
        <path d="M273.85,45.27a1.18,1.18,0,0,0-.73-.19,1.2,1.2,0,0,0-1,.58,2.62,2.62,0,0,0-.42,1.58V50.3h-1v-6h1v1.23h0a2,2,0,0,1,.62-1,1.43,1.43,0,0,1,.95-.36,1.41,1.41,0,0,1,.57.09Z" fill="#1e1e1e"/>
        <path d="M279.72,47.54h-4.24a2.21,2.21,0,0,0,.54,1.55,1.85,1.85,0,0,0,1.42.54A2.93,2.93,0,0,0,279.3,49v.9a3.45,3.45,0,0,1-2.09.58,2.52,2.52,0,0,1-2-.82,3.36,3.36,0,0,1-.73-2.3,3.29,3.29,0,0,1,.8-2.28,2.53,2.53,0,0,1,2-.88,2.25,2.25,0,0,1,1.82.76,3.17,3.17,0,0,1,.65,2.11Zm-1-.82a2,2,0,0,0-.4-1.29,1.36,1.36,0,0,0-1.1-.46,1.55,1.55,0,0,0-1.15.48,2.25,2.25,0,0,0-.59,1.27Z" fill="#1e1e1e"/>
        <path d="M288.55,50a3.14,3.14,0,0,1-1.65.42,2.72,2.72,0,0,1-2.07-.84,3,3,0,0,1-.78-2.16,3.3,3.3,0,0,1,.85-2.38,3,3,0,0,1,2.26-.9,3.27,3.27,0,0,1,1.4.29v1a2.4,2.4,0,0,0-1.43-.47,1.92,1.92,0,0,0-1.51.66,2.5,2.5,0,0,0-.59,1.73,2.38,2.38,0,0,0,.55,1.66,1.91,1.91,0,0,0,1.49.61,2.43,2.43,0,0,0,1.48-.52Z" fill="#1e1e1e"/>
        <path d="M294.29,50.3h-1v-.94h0a2,2,0,0,1-1.85,1.08,2,2,0,0,1-1.4-.48,1.62,1.62,0,0,1-.51-1.26q0-1.68,2-2l1.8-.25q0-1.53-1.23-1.53a3,3,0,0,0-2,.73v-1a3.76,3.76,0,0,1,2-.56c1.41,0,2.11.74,2.11,2.24Zm-1-3-1.44.2a2.53,2.53,0,0,0-1,.33,1,1,0,0,0-.34.84.9.9,0,0,0,.31.72,1.2,1.2,0,0,0,.84.28,1.56,1.56,0,0,0,1.18-.5,1.79,1.79,0,0,0,.46-1.27Z" fill="#1e1e1e"/>
        <path d="M300.19,50a3.08,3.08,0,0,1-1.64.42,2.72,2.72,0,0,1-2.07-.84,3,3,0,0,1-.79-2.16,3.35,3.35,0,0,1,.85-2.38,3,3,0,0,1,2.27-.9,3.27,3.27,0,0,1,1.4.29v1a2.42,2.42,0,0,0-1.43-.47,1.92,1.92,0,0,0-1.51.66,2.46,2.46,0,0,0-.59,1.73,2.38,2.38,0,0,0,.55,1.66,1.91,1.91,0,0,0,1.49.61,2.38,2.38,0,0,0,1.47-.52Z" fill="#1e1e1e"/>
        <path d="M306.63,50.3h-1V46.84c0-1.25-.47-1.87-1.4-1.87a1.51,1.51,0,0,0-1.18.54,2,2,0,0,0-.48,1.39v3.4h-1V41.42h1v3.87h0a2.19,2.19,0,0,1,2-1.13c1.35,0,2,.81,2,2.44Z" fill="#1e1e1e"/>
        <path d="M313.26,47.54H309a2.3,2.3,0,0,0,.54,1.55,1.88,1.88,0,0,0,1.42.54,2.89,2.89,0,0,0,1.86-.67v.9a3.41,3.41,0,0,1-2.09.58,2.53,2.53,0,0,1-2-.82,3.35,3.35,0,0,1-.72-2.3,3.28,3.28,0,0,1,.79-2.28,2.54,2.54,0,0,1,2-.88,2.26,2.26,0,0,1,1.83.76,3.17,3.17,0,0,1,.64,2.11Zm-1-.82a2,2,0,0,0-.41-1.29,1.35,1.35,0,0,0-1.09-.46,1.57,1.57,0,0,0-1.16.48,2.24,2.24,0,0,0-.58,1.27Z" fill="#1e1e1e"/>
        <path d="M319.83,50.3h-1v-1h0a2.42,2.42,0,0,1-3.87.35,3.3,3.3,0,0,1-.68-2.19,3.62,3.62,0,0,1,.75-2.39,2.5,2.5,0,0,1,2-.89,1.91,1.91,0,0,1,1.8,1h0V41.42h1Zm-1-2.71V46.7a1.73,1.73,0,0,0-.48-1.23,1.58,1.58,0,0,0-1.22-.5,1.66,1.66,0,0,0-1.38.64,2.85,2.85,0,0,0-.5,1.78,2.56,2.56,0,0,0,.48,1.64,1.59,1.59,0,0,0,1.3.6,1.63,1.63,0,0,0,1.3-.58A2.12,2.12,0,0,0,318.87,47.59Z" fill="#1e1e1e"/>
      </g>
      <g>
        <path d="M376.89,50.3h-1v-.94h0a2,2,0,0,1-1.85,1.08,2,2,0,0,1-1.4-.48,1.62,1.62,0,0,1-.51-1.26q0-1.68,2-2l1.8-.25q0-1.53-1.23-1.53a3,3,0,0,0-2,.73v-1a3.76,3.76,0,0,1,2-.56c1.41,0,2.11.74,2.11,2.24Zm-1-3-1.45.2a2.54,2.54,0,0,0-1,.33,1,1,0,0,0-.34.84.9.9,0,0,0,.31.72,1.2,1.2,0,0,0,.84.28,1.56,1.56,0,0,0,1.18-.5,1.79,1.79,0,0,0,.46-1.27Z" fill="#1e1e1e"/>
        <path d="M381.83,45.27a1.16,1.16,0,0,0-.72-.19,1.21,1.21,0,0,0-1,.58,2.62,2.62,0,0,0-.42,1.58V50.3h-1v-6h1v1.23h0a2,2,0,0,1,.63-1,1.54,1.54,0,0,1,1.51-.27Z" fill="#1e1e1e"/>
        <path d="M387.7,47.54h-4.24a2.3,2.3,0,0,0,.54,1.55,1.87,1.87,0,0,0,1.42.54,2.91,2.91,0,0,0,1.86-.67v.9a3.43,3.43,0,0,1-2.09.58,2.53,2.53,0,0,1-2-.82,3.35,3.35,0,0,1-.72-2.3,3.28,3.28,0,0,1,.79-2.28,2.54,2.54,0,0,1,2-.88,2.24,2.24,0,0,1,1.82.76A3.17,3.17,0,0,1,387.7,47Zm-1-.82a1.9,1.9,0,0,0-.4-1.29,1.36,1.36,0,0,0-1.1-.46,1.56,1.56,0,0,0-1.15.48,2.25,2.25,0,0,0-.59,1.27Z" fill="#1e1e1e"/>
        <path d="M396.53,50a3.1,3.1,0,0,1-1.64.42,2.69,2.69,0,0,1-2.07-.84,3,3,0,0,1-.79-2.16,3.3,3.3,0,0,1,.85-2.38,3,3,0,0,1,2.27-.9,3.23,3.23,0,0,1,1.39.29v1a2.4,2.4,0,0,0-1.43-.47,1.93,1.93,0,0,0-1.51.66,2.5,2.5,0,0,0-.59,1.73,2.38,2.38,0,0,0,.56,1.66,1.89,1.89,0,0,0,1.48.61,2.41,2.41,0,0,0,1.48-.52Z" fill="#1e1e1e"/>
        <path d="M402.28,50.3h-1v-.94h0a2,2,0,0,1-1.84,1.08A2,2,0,0,1,398,50a1.61,1.61,0,0,1-.5-1.26q0-1.68,2-2l1.8-.25c0-1-.42-1.53-1.24-1.53a3,3,0,0,0-2,.73v-1a3.76,3.76,0,0,1,2-.56c1.41,0,2.12.74,2.12,2.24Zm-1-3-1.45.2a2.59,2.59,0,0,0-1,.33,1,1,0,0,0-.34.84.9.9,0,0,0,.31.72,1.2,1.2,0,0,0,.84.28,1.55,1.55,0,0,0,1.18-.5,1.8,1.8,0,0,0,.47-1.27Z" fill="#1e1e1e"/>
        <path d="M408.18,50a3.1,3.1,0,0,1-1.64.42,2.73,2.73,0,0,1-2.08-.84,3,3,0,0,1-.78-2.16,3.3,3.3,0,0,1,.85-2.38,3,3,0,0,1,2.26-.9,3.24,3.24,0,0,1,1.4.29v1a2.4,2.4,0,0,0-1.43-.47,1.93,1.93,0,0,0-1.51.66,2.5,2.5,0,0,0-.59,1.73,2.43,2.43,0,0,0,.55,1.66,1.91,1.91,0,0,0,1.49.61,2.41,2.41,0,0,0,1.48-.52Z" fill="#1e1e1e"/>
        <path d="M414.61,50.3h-1V46.84c0-1.25-.47-1.87-1.4-1.87a1.53,1.53,0,0,0-1.18.54,2,2,0,0,0-.48,1.39v3.4h-1V41.42h1v3.87h0a2.19,2.19,0,0,1,2-1.13c1.35,0,2,.81,2,2.44Z" fill="#1e1e1e"/>
        <path d="M421.24,47.54H417a2.21,2.21,0,0,0,.54,1.55,1.85,1.85,0,0,0,1.41.54,2.94,2.94,0,0,0,1.87-.67v.9a3.46,3.46,0,0,1-2.1.58,2.51,2.51,0,0,1-2-.82A3.83,3.83,0,0,1,416.8,45a2.55,2.55,0,0,1,2-.88,2.25,2.25,0,0,1,1.82.76,3.17,3.17,0,0,1,.64,2.11Zm-1-.82a2,2,0,0,0-.4-1.29,1.37,1.37,0,0,0-1.1-.46,1.59,1.59,0,0,0-1.16.48,2.24,2.24,0,0,0-.58,1.27Z" fill="#1e1e1e"/>
        <path d="M427.82,50.3h-1v-1h0a2.21,2.21,0,0,1-2.06,1.16,2.24,2.24,0,0,1-1.81-.81,3.29,3.29,0,0,1-.67-2.19,3.62,3.62,0,0,1,.75-2.39,2.48,2.48,0,0,1,2-.89,1.91,1.91,0,0,1,1.8,1h0V41.42h1Zm-1-2.71V46.7a1.73,1.73,0,0,0-.48-1.23,1.6,1.6,0,0,0-1.22-.5,1.67,1.67,0,0,0-1.39.64,2.85,2.85,0,0,0-.5,1.78,2.56,2.56,0,0,0,.48,1.64,1.6,1.6,0,0,0,1.3.6,1.65,1.65,0,0,0,1.31-.58A2.17,2.17,0,0,0,426.86,47.59Z" fill="#1e1e1e"/>
      </g>
      <g>
        <path d="M149.42,50.3h-1v-.94h0a2,2,0,0,1-1.84,1.08,2,2,0,0,1-1.41-.48,1.65,1.65,0,0,1-.5-1.26q0-1.68,2-2l1.8-.25c0-1-.42-1.53-1.24-1.53a3,3,0,0,0-2,.73v-1a3.76,3.76,0,0,1,2-.56c1.41,0,2.12.74,2.12,2.24Zm-1-3-1.45.2a2.59,2.59,0,0,0-1,.33,1,1,0,0,0-.34.84.93.93,0,0,0,.31.72,1.2,1.2,0,0,0,.84.28,1.55,1.55,0,0,0,1.18-.5,1.8,1.8,0,0,0,.47-1.27Z" fill="#767676"/>
        <path d="M154.36,45.27a1.18,1.18,0,0,0-.73-.19,1.23,1.23,0,0,0-1,.58,2.7,2.7,0,0,0-.41,1.58V50.3h-1v-6h1v1.23h0a2.09,2.09,0,0,1,.63-1,1.4,1.4,0,0,1,.94-.36,1.5,1.5,0,0,1,.58.09Z" fill="#767676"/>
        <path d="M160.22,47.54H156a2.25,2.25,0,0,0,.53,1.55,1.88,1.88,0,0,0,1.42.54,2.94,2.94,0,0,0,1.87-.67v.9a3.46,3.46,0,0,1-2.1.58,2.51,2.51,0,0,1-2-.82,3.83,3.83,0,0,1,.06-4.58,2.54,2.54,0,0,1,2-.88,2.26,2.26,0,0,1,1.83.76,3.17,3.17,0,0,1,.64,2.11Zm-1-.82a2,2,0,0,0-.4-1.29,1.37,1.37,0,0,0-1.1-.46,1.57,1.57,0,0,0-1.16.48,2.24,2.24,0,0,0-.58,1.27Z" fill="#767676"/>
        <path d="M169.94,50.3h-1V46.88c0-1.28-.46-1.91-1.39-1.91a1.54,1.54,0,0,0-1.2.54,2,2,0,0,0-.47,1.37V50.3h-1v-6h1v1h0a2.17,2.17,0,0,1,2-1.13,1.84,1.84,0,0,1,1.5.63,2.84,2.84,0,0,1,.52,1.84Z" fill="#767676"/>
        <path d="M174.26,50.44a2.77,2.77,0,0,1-2.12-.84,3.12,3.12,0,0,1-.8-2.23,3.23,3.23,0,0,1,.83-2.36,3,3,0,0,1,2.23-.85,2.71,2.71,0,0,1,2.1.82,3.3,3.3,0,0,1,.75,2.3,3.2,3.2,0,0,1-.81,2.29A2.84,2.84,0,0,1,174.26,50.44Zm.07-5.47a1.81,1.81,0,0,0-1.46.63,2.58,2.58,0,0,0-.54,1.73,2.49,2.49,0,0,0,.54,1.69,1.86,1.86,0,0,0,1.46.61,1.75,1.75,0,0,0,1.43-.6,3.23,3.23,0,0,0,0-3.45A1.73,1.73,0,0,0,174.33,45Z" fill="#767676"/>
        <path d="M181.57,50.24a1.94,1.94,0,0,1-.9.19c-1,0-1.58-.59-1.58-1.76V45.12h-1V44.3h1V42.83l1-.31V44.3h1.51v.82h-1.51V48.5a1.38,1.38,0,0,0,.2.86.83.83,0,0,0,.68.26,1.05,1.05,0,0,0,.63-.2Z" fill="#767676"/>
      </g>
    </g>
  </g>
</svg>
