<svg xmlns="http://www.w3.org/2000/svg" xmlns:xlink="http://www.w3.org/1999/xlink" viewBox="0 0 528.56 150">
  <defs>
    <linearGradient id="linear-gradient" x1="210.96" y1="511.88" x2="210.96" y2="465.68" gradientTransform="matrix(1, 0, 0, -1, 0, 589.7)" gradientUnits="userSpaceOnUse">
      <stop offset="0" stop-color="#b3b2b3"/>
      <stop offset="0.38" stop-color="#afaeaf"/>
      <stop offset="0.76" stop-color="#a2a2a2"/>
      <stop offset="1" stop-color="#979797"/>
    </linearGradient>
    <linearGradient id="linear-gradient-2" x1="246.37" y1="511.88" x2="246.37" y2="465.68" xlink:href="#linear-gradient"/>
    <linearGradient id="linear-gradient-3" x1="300.98" y1="511.88" x2="300.98" y2="465.68" xlink:href="#linear-gradient"/>
    <linearGradient id="linear-gradient-4" x1="336.39" y1="511.88" x2="336.39" y2="465.68" xlink:href="#linear-gradient"/>
    <linearGradient id="linear-gradient-5" x1="403.68" y1="572.08" x2="403.68" y2="525.88" xlink:href="#linear-gradient"/>
    <linearGradient id="linear-gradient-6" x1="439.09" y1="572.08" x2="439.09" y2="525.88" xlink:href="#linear-gradient"/>
    <linearGradient id="linear-gradient-7" x1="473.68" y1="572.08" x2="473.68" y2="525.88" xlink:href="#linear-gradient"/>
    <linearGradient id="linear-gradient-8" x1="509.09" y1="572.08" x2="509.09" y2="525.88" xlink:href="#linear-gradient"/>
    <linearGradient id="linear-gradient-9" x1="7.89" y1="16.74" x2="34.88" y2="63.48" gradientUnits="userSpaceOnUse">
      <stop offset="0" stop-color="#5ea0ef"/>
      <stop offset="0.07" stop-color="#64a4f0" stop-opacity="0.98"/>
      <stop offset="0.14" stop-color="#77aff1" stop-opacity="0.92"/>
      <stop offset="0.22" stop-color="#96c1f5" stop-opacity="0.83"/>
      <stop offset="0.3" stop-color="#c2dbf9" stop-opacity="0.69"/>
      <stop offset="0.38" stop-color="#f9fcfe" stop-opacity="0.52"/>
      <stop offset="0.39" stop-color="#fff" stop-opacity="0.5"/>
      <stop offset="0.43" stop-color="#deedf9" stop-opacity="0.57"/>
      <stop offset="0.55" stop-color="#8ec3ec" stop-opacity="0.72"/>
      <stop offset="0.67" stop-color="#50a2e2" stop-opacity="0.84"/>
      <stop offset="0.79" stop-color="#248bda" stop-opacity="0.93"/>
      <stop offset="0.9" stop-color="#097dd6" stop-opacity="0.98"/>
      <stop offset="1" stop-color="#0078d4"/>
    </linearGradient>
    <linearGradient id="linear-gradient-10" x1="47.89" y1="16.74" x2="74.88" y2="63.48" xlink:href="#linear-gradient-9"/>
    <linearGradient id="linear-gradient-11" x1="87.89" y1="16.74" x2="114.88" y2="63.48" xlink:href="#linear-gradient-9"/>
    <linearGradient id="linear-gradient-12" x1="127.89" y1="16.74" x2="154.88" y2="63.48" xlink:href="#linear-gradient-9"/>
    <linearGradient id="linear-gradient-13" x1="213.84" y1="16.74" x2="240.82" y2="63.48" xlink:href="#linear-gradient-9"/>
    <linearGradient id="linear-gradient-14" x1="303.86" y1="16.74" x2="330.85" y2="63.48" xlink:href="#linear-gradient-9"/>
  </defs>
  <g style="isolation: isolate">
    <g id="Shapes">
      <rect width="528.56" height="150" fill="#fff"/>
      <path d="M209.35,78.94V74.88c0-2.24,2.25-4.06,5-4.06h26c2.75,0,5,1.82,5,4.06v4.06" fill="none" stroke="#3c3c41" stroke-miterlimit="10"/>
      <line x1="227.33" y1="70.82" x2="227.33" y2="62.61" fill="none" stroke="#3c3c41" stroke-miterlimit="10"/>
      <g>
        <path d="M226,122.45a1.67,1.67,0,0,1-1.73,1.57H197.69a1.67,1.67,0,0,1-1.73-1.57V79.38a1.66,1.66,0,0,1,1.73-1.56h26.54A1.66,1.66,0,0,1,226,79.38Z" fill="url(#linear-gradient)"/>
        <circle cx="199.39" cy="82.09" r="1.53" fill="#fff"/>
        <circle cx="221.66" cy="82.09" r="1.53" fill="#fff"/>
        <circle cx="199.39" cy="120.27" r="1.53" fill="#fff"/>
        <circle cx="221.66" cy="120.27" r="1.53" fill="#fff"/>
      </g>
      <g>
        <path d="M261.37,122.45a1.67,1.67,0,0,1-1.73,1.57H233.1a1.67,1.67,0,0,1-1.73-1.57V79.38a1.66,1.66,0,0,1,1.73-1.56h26.54a1.66,1.66,0,0,1,1.73,1.56Z" fill="url(#linear-gradient-2)"/>
        <circle cx="234.8" cy="82.09" r="1.53" fill="#fff"/>
        <circle cx="257.07" cy="82.09" r="1.53" fill="#fff"/>
        <circle cx="234.8" cy="120.27" r="1.53" fill="#fff"/>
        <circle cx="257.07" cy="120.27" r="1.53" fill="#fff"/>
      </g>
      <path d="M299.37,78.94V74.88c0-2.24,2.25-4.06,5-4.06h26c2.75,0,5,1.82,5,4.06v4.06" fill="none" stroke="#3c3c41" stroke-miterlimit="10"/>
      <line x1="317.35" y1="70.82" x2="317.35" y2="62.61" fill="none" stroke="#3c3c41" stroke-miterlimit="10"/>
      <g>
        <path d="M316,122.45a1.67,1.67,0,0,1-1.73,1.57H287.71a1.67,1.67,0,0,1-1.73-1.57V79.38a1.66,1.66,0,0,1,1.73-1.56h26.54A1.66,1.66,0,0,1,316,79.38Z" fill="url(#linear-gradient-3)"/>
        <circle cx="289.41" cy="82.09" r="1.53" fill="#fff"/>
        <circle cx="311.68" cy="82.09" r="1.53" fill="#fff"/>
        <circle cx="289.41" cy="120.27" r="1.53" fill="#fff"/>
        <circle cx="311.68" cy="120.27" r="1.53" fill="#fff"/>
      </g>
      <g>
        <path d="M351.39,122.45a1.67,1.67,0,0,1-1.73,1.57H323.12a1.67,1.67,0,0,1-1.73-1.57V79.38a1.66,1.66,0,0,1,1.73-1.56h26.54a1.66,1.66,0,0,1,1.73,1.56Z" fill="url(#linear-gradient-4)"/>
        <circle cx="324.82" cy="82.09" r="1.53" fill="#fff"/>
        <circle cx="347.09" cy="82.09" r="1.53" fill="#fff"/>
        <circle cx="324.82" cy="120.27" r="1.53" fill="#fff"/>
        <circle cx="347.09" cy="120.27" r="1.53" fill="#fff"/>
      </g>
      <g>
        <path d="M418.68,62.25A1.67,1.67,0,0,1,417,63.82H390.41a1.68,1.68,0,0,1-1.73-1.57V19.18a1.68,1.68,0,0,1,1.73-1.57H417a1.67,1.67,0,0,1,1.73,1.57Z" fill="url(#linear-gradient-5)"/>
        <circle cx="392.11" cy="21.88" r="1.53" fill="#fff"/>
        <circle cx="414.39" cy="21.88" r="1.53" fill="#fff"/>
        <circle cx="392.11" cy="60.07" r="1.53" fill="#fff"/>
        <circle cx="414.39" cy="60.07" r="1.53" fill="#fff"/>
      </g>
      <g>
        <path d="M454.09,62.25a1.67,1.67,0,0,1-1.73,1.57H425.82a1.67,1.67,0,0,1-1.73-1.57V19.18a1.67,1.67,0,0,1,1.73-1.57h26.54a1.67,1.67,0,0,1,1.73,1.57Z" fill="url(#linear-gradient-6)"/>
        <circle cx="427.52" cy="21.88" r="1.53" fill="#fff"/>
        <circle cx="449.8" cy="21.88" r="1.53" fill="#fff"/>
        <circle cx="427.52" cy="60.07" r="1.53" fill="#fff"/>
        <circle cx="449.8" cy="60.07" r="1.53" fill="#fff"/>
      </g>
      <g>
        <path d="M488.68,62.25A1.67,1.67,0,0,1,487,63.82H460.41a1.68,1.68,0,0,1-1.73-1.57V19.18a1.68,1.68,0,0,1,1.73-1.57H487a1.67,1.67,0,0,1,1.73,1.57Z" fill="url(#linear-gradient-7)"/>
        <circle cx="462.11" cy="21.88" r="1.53" fill="#fff"/>
        <circle cx="484.39" cy="21.88" r="1.53" fill="#fff"/>
        <circle cx="462.11" cy="60.07" r="1.53" fill="#fff"/>
        <circle cx="484.39" cy="60.07" r="1.53" fill="#fff"/>
      </g>
      <g>
        <path d="M524.09,62.25a1.67,1.67,0,0,1-1.73,1.57H495.82a1.67,1.67,0,0,1-1.73-1.57V19.18a1.67,1.67,0,0,1,1.73-1.57h26.54a1.67,1.67,0,0,1,1.73,1.57Z" fill="url(#linear-gradient-8)"/>
        <circle cx="497.52" cy="21.88" r="1.53" fill="#fff"/>
        <circle cx="519.8" cy="21.88" r="1.53" fill="#fff"/>
        <circle cx="497.52" cy="60.07" r="1.53" fill="#fff"/>
        <circle cx="519.8" cy="60.07" r="1.53" fill="#fff"/>
      </g>
      <g>
        <g opacity="0.75" style="mix-blend-mode: multiply">
          <rect x="7.39" y="18.61" width="30" height="45" fill="#737373"/>
          <rect x="7.39" y="18.61" width="30" height="45" fill="#737373" opacity="0.8"/>
        </g>
        <g>
          <rect x="6.39" y="17.61" width="30" height="45" fill="#e6e6e6"/>
          <rect x="6.39" y="17.61" width="30" height="45" opacity="0.8" fill="url(#linear-gradient-9)"/>
        </g>
      </g>
      <g>
        <g opacity="0.75" style="mix-blend-mode: multiply">
          <rect x="47.39" y="18.61" width="30" height="45" fill="#737373"/>
          <rect x="47.39" y="18.61" width="30" height="45" fill="#737373" opacity="0.8"/>
        </g>
        <g>
          <rect x="46.39" y="17.61" width="30" height="45" fill="#e6e6e6"/>
          <rect x="46.39" y="17.61" width="30" height="45" opacity="0.8" fill="url(#linear-gradient-10)"/>
        </g>
      </g>
      <g>
        <g opacity="0.75" style="mix-blend-mode: multiply">
          <rect x="87.39" y="18.61" width="30" height="45" fill="#737373"/>
          <rect x="87.39" y="18.61" width="30" height="45" fill="#737373" opacity="0.8"/>
        </g>
        <g>
          <rect x="86.39" y="17.61" width="30" height="45" fill="#e6e6e6"/>
          <rect x="86.39" y="17.61" width="30" height="45" opacity="0.8" fill="url(#linear-gradient-11)"/>
        </g>
      </g>
      <g>
        <g opacity="0.75" style="mix-blend-mode: multiply">
          <rect x="127.39" y="18.61" width="30" height="45" fill="#737373"/>
          <rect x="127.39" y="18.61" width="30" height="45" fill="#737373" opacity="0.8"/>
        </g>
        <g>
          <rect x="126.39" y="17.61" width="30" height="45" fill="#e6e6e6"/>
          <rect x="126.39" y="17.61" width="30" height="45" opacity="0.8" fill="url(#linear-gradient-12)"/>
        </g>
      </g>
      <g>
        <g opacity="0.75" style="mix-blend-mode: multiply">
          <rect x="213.33" y="18.61" width="30" height="45" fill="#737373"/>
          <rect x="213.33" y="18.61" width="30" height="45" fill="#737373" opacity="0.8"/>
        </g>
        <g>
          <rect x="212.33" y="17.61" width="30" height="45" fill="#e6e6e6"/>
          <rect x="212.33" y="17.61" width="30" height="45" opacity="0.8" fill="url(#linear-gradient-13)"/>
        </g>
      </g>
      <g>
        <g opacity="0.75" style="mix-blend-mode: multiply">
          <rect x="303.35" y="18.61" width="30" height="45" fill="#737373"/>
          <rect x="303.35" y="18.61" width="30" height="45" fill="#737373" opacity="0.8"/>
        </g>
        <g>
          <rect x="302.35" y="17.61" width="30" height="45" fill="#e6e6e6"/>
          <rect x="302.35" y="17.61" width="30" height="45" opacity="0.8" fill="url(#linear-gradient-14)"/>
        </g>
      </g>
    </g>
    <g id="Text">
      <g>
        <path d="M12.52,12.61h-1.2L7,5.92a2.94,2.94,0,0,1-.27-.53h0a9.28,9.28,0,0,1,0,1.15v6.07h-1V4.21H7l4.2,6.59a5.64,5.64,0,0,1,.34.57h0a8.84,8.84,0,0,1-.06-1.24V4.21h1Z" fill="#1e1e1e"/>
        <path d="M21,4.21l-3.11,8.4H16.78l-3.05-8.4h1.1l2.32,6.66a3.77,3.77,0,0,1,.17.75h0a4.09,4.09,0,0,1,.2-.76l2.37-6.65Z" fill="#1e1e1e"/>
        <path d="M30.75,12.61h-1V7c0-.45,0-1,.08-1.64h0a5.38,5.38,0,0,1-.26.82L26.7,12.61h-.48L23.36,6.2a4.31,4.31,0,0,1-.26-.86h0c0,.34.05.89.05,1.65v5.62h-.95V4.21h1.3l2.58,5.86a6.32,6.32,0,0,1,.38,1h0c.17-.46.3-.81.4-1l2.63-5.84h1.24Z" fill="#1e1e1e"/>
        <path d="M37.65,9.85H33.41A2.28,2.28,0,0,0,34,11.4a1.87,1.87,0,0,0,1.42.55,3,3,0,0,0,1.86-.67v.9a3.5,3.5,0,0,1-2.09.57,2.56,2.56,0,0,1-2-.81,3.37,3.37,0,0,1-.72-2.3,3.29,3.29,0,0,1,.79-2.29,2.58,2.58,0,0,1,2-.88A2.27,2.27,0,0,1,37,7.23a3.2,3.2,0,0,1,.65,2.12Zm-1-.81a1.91,1.91,0,0,0-.4-1.3,1.39,1.39,0,0,0-1.1-.46A1.54,1.54,0,0,0,34,7.77,2.22,2.22,0,0,0,33.42,9Z" fill="#1e1e1e"/>
      </g>
      <g>
        <path d="M52.52,12.61h-1.2L47,5.92a2.94,2.94,0,0,1-.27-.53h0a9.28,9.28,0,0,1,0,1.15v6.07h-1V4.21H47l4.2,6.59a5.64,5.64,0,0,1,.34.57h0a8.84,8.84,0,0,1-.06-1.24V4.21h1Z" fill="#1e1e1e"/>
        <path d="M61,4.21l-3.11,8.4H56.78l-3.05-8.4h1.1l2.32,6.66a3.77,3.77,0,0,1,.17.75h0a4.09,4.09,0,0,1,.2-.76l2.37-6.65Z" fill="#1e1e1e"/>
        <path d="M70.75,12.61h-1V7c0-.45,0-1,.08-1.64h0a5.38,5.38,0,0,1-.26.82L66.7,12.61h-.48L63.36,6.2a4.31,4.31,0,0,1-.26-.86h0c0,.34.05.89.05,1.65v5.62h-1V4.21h1.3l2.58,5.86a6.32,6.32,0,0,1,.38,1h0c.17-.46.3-.81.4-1l2.63-5.84h1.24Z" fill="#1e1e1e"/>
        <path d="M77.65,9.85H73.41A2.28,2.28,0,0,0,74,11.4a1.87,1.87,0,0,0,1.42.55,3,3,0,0,0,1.86-.67v.9a3.5,3.5,0,0,1-2.09.57,2.56,2.56,0,0,1-2-.81,3.37,3.37,0,0,1-.72-2.3,3.29,3.29,0,0,1,.79-2.29,2.58,2.58,0,0,1,2-.88A2.27,2.27,0,0,1,77,7.23a3.2,3.2,0,0,1,.65,2.12Zm-1-.81a1.91,1.91,0,0,0-.4-1.3,1.39,1.39,0,0,0-1.1-.46A1.54,1.54,0,0,0,74,7.77,2.22,2.22,0,0,0,73.42,9Z" fill="#1e1e1e"/>
      </g>
      <g>
        <path d="M40.19,82H39l-4.32-6.69a2.94,2.94,0,0,1-.27-.53h0a7.12,7.12,0,0,1,0,1.15V82h-1v-8.4h1.27l4.21,6.59a5.64,5.64,0,0,1,.34.57h0a11.41,11.41,0,0,1,0-1.24V73.58h1Z" fill="#1e1e1e"/>
        <path d="M48.64,73.58,45.53,82H44.44l-3-8.4h1.09l2.33,6.66A4.63,4.63,0,0,1,45,81h0a3.43,3.43,0,0,1,.2-.76l2.37-6.65Z" fill="#1e1e1e"/>
        <path d="M58.41,82h-1V76.35c0-.45,0-1,.09-1.64h0a4.6,4.6,0,0,1-.25.82L54.37,82h-.48L51,75.57a5.3,5.3,0,0,1-.25-.86h0c0,.34,0,.89,0,1.65V82h-.95v-8.4h1.3l2.58,5.86a9.24,9.24,0,0,1,.38,1h0c.17-.46.3-.81.4-1l2.63-5.84h1.23Z" fill="#1e1e1e"/>
        <path d="M65.32,79.22H61.08a2.19,2.19,0,0,0,.54,1.55,1.86,1.86,0,0,0,1.42.55,3,3,0,0,0,1.86-.67v.9a3.52,3.52,0,0,1-2.09.58,2.55,2.55,0,0,1-2-.82,3.37,3.37,0,0,1-.73-2.3,3.25,3.25,0,0,1,.8-2.28,2.54,2.54,0,0,1,2-.89,2.26,2.26,0,0,1,1.82.77,3.15,3.15,0,0,1,.65,2.11Zm-1-.81a1.93,1.93,0,0,0-.4-1.29,1.36,1.36,0,0,0-1.1-.47,1.52,1.52,0,0,0-1.15.49,2.22,2.22,0,0,0-.59,1.27Z" fill="#1e1e1e"/>
        <path d="M73,74a1.24,1.24,0,0,0-.64-.16c-.67,0-1,.42-1,1.27V76h1.41v.82H71.37V82h-1V76.8h-1V76h1V75A2,2,0,0,1,71,73.52,2,2,0,0,1,73,73.08Z" fill="#1e1e1e"/>
        <path d="M76.32,82.13a2.76,2.76,0,0,1-2.12-.85,3.11,3.11,0,0,1-.8-2.23,3.26,3.26,0,0,1,.83-2.36,3,3,0,0,1,2.23-.85,2.69,2.69,0,0,1,2.09.83,3.75,3.75,0,0,1,0,4.59A2.84,2.84,0,0,1,76.32,82.13Zm.07-5.48a1.84,1.84,0,0,0-1.47.63A2.64,2.64,0,0,0,74.39,79a2.46,2.46,0,0,0,.54,1.68,1.85,1.85,0,0,0,1.46.62,1.73,1.73,0,0,0,1.43-.61,2.57,2.57,0,0,0,.5-1.71,2.65,2.65,0,0,0-.5-1.74A1.76,1.76,0,0,0,76.39,76.65Z" fill="#1e1e1e"/>
        <path d="M84,77a1.16,1.16,0,0,0-.72-.2,1.23,1.23,0,0,0-1,.58,2.68,2.68,0,0,0-.42,1.59v3h-1V76h1v1.24h0a2.08,2.08,0,0,1,.62-1,1.49,1.49,0,0,1,1-.35A1.65,1.65,0,0,1,84,76Z" fill="#1e1e1e"/>
        <path d="M92.39,81.71a3.1,3.1,0,0,1-1.64.42,2.72,2.72,0,0,1-2.07-.84,3,3,0,0,1-.79-2.16,3.33,3.33,0,0,1,.85-2.39,3,3,0,0,1,2.27-.9,3.06,3.06,0,0,1,1.39.3v1A2.45,2.45,0,0,0,91,76.65a2,2,0,0,0-1.51.66A2.51,2.51,0,0,0,88.88,79a2.39,2.39,0,0,0,.55,1.67,1.93,1.93,0,0,0,1.49.61,2.39,2.39,0,0,0,1.47-.53Z" fill="#1e1e1e"/>
        <path d="M98.14,82h-1v-.93h0a2,2,0,0,1-1.85,1.08,1.93,1.93,0,0,1-1.4-.48,1.65,1.65,0,0,1-.51-1.26c0-1.12.66-1.77,2-2l1.8-.25c0-1-.41-1.53-1.24-1.53a3,3,0,0,0-2,.74v-1a3.65,3.65,0,0,1,2-.57c1.41,0,2.12.75,2.12,2.24Zm-1-3-1.45.2a2.35,2.35,0,0,0-1,.33,1,1,0,0,0-.34.84.93.93,0,0,0,.32.72,1.22,1.22,0,0,0,.83.28,1.55,1.55,0,0,0,1.18-.5,1.81,1.81,0,0,0,.47-1.27Z" fill="#1e1e1e"/>
        <path d="M100.93,81.12h0v3.62h-1V76h1V77h0a2.29,2.29,0,0,1,2.08-1.2,2.19,2.19,0,0,1,1.81.81,3.37,3.37,0,0,1,.65,2.16,3.71,3.71,0,0,1-.73,2.41,2.46,2.46,0,0,1-2,.91A2,2,0,0,1,100.93,81.12Zm0-2.42v.84a1.8,1.8,0,0,0,.48,1.26,1.65,1.65,0,0,0,1.23.52,1.63,1.63,0,0,0,1.37-.67,3.09,3.09,0,0,0,.5-1.86,2.41,2.41,0,0,0-.47-1.57,1.52,1.52,0,0,0-1.25-.57,1.71,1.71,0,0,0-1.35.59A2.11,2.11,0,0,0,100.91,78.7Z" fill="#1e1e1e"/>
        <path d="M111.3,82h-1v-.93h0a2,2,0,0,1-1.85,1.08,1.93,1.93,0,0,1-1.4-.48,1.65,1.65,0,0,1-.51-1.26c0-1.12.66-1.77,2-2l1.8-.25c0-1-.41-1.53-1.24-1.53a3,3,0,0,0-1.95.74v-1a3.67,3.67,0,0,1,2-.57c1.41,0,2.12.75,2.12,2.24Zm-1-3-1.45.2a2.35,2.35,0,0,0-1,.33,1,1,0,0,0-.34.84.93.93,0,0,0,.32.72,1.22,1.22,0,0,0,.83.28,1.55,1.55,0,0,0,1.18-.5,1.81,1.81,0,0,0,.47-1.27Z" fill="#1e1e1e"/>
        <path d="M117.2,81.71a3.1,3.1,0,0,1-1.64.42,2.69,2.69,0,0,1-2.07-.84,3,3,0,0,1-.79-2.16,3.33,3.33,0,0,1,.85-2.39,3,3,0,0,1,2.27-.9,3.09,3.09,0,0,1,1.39.3v1a2.45,2.45,0,0,0-1.43-.47,2,2,0,0,0-1.51.66,2.52,2.52,0,0,0-.59,1.73,2.39,2.39,0,0,0,.56,1.67,1.92,1.92,0,0,0,1.48.61,2.4,2.4,0,0,0,1.48-.53Z" fill="#1e1e1e"/>
        <path d="M119.15,74.46a.62.62,0,0,1-.44-.17.63.63,0,0,1,.44-1.08.6.6,0,0,1,.44.18.58.58,0,0,1,.19.45.58.58,0,0,1-.19.44A.6.6,0,0,1,119.15,74.46Zm.46,7.52h-1V76h1Z" fill="#1e1e1e"/>
        <path d="M124.34,81.93a1.87,1.87,0,0,1-.89.18c-1,0-1.58-.58-1.58-1.75V76.8h-1V76h1V74.52l1-.31V76h1.51v.82h-1.51v3.39a1.37,1.37,0,0,0,.21.86.81.81,0,0,0,.68.25,1,1,0,0,0,.62-.19Z" fill="#1e1e1e"/>
        <path d="M130.4,76l-2.76,7q-.73,1.86-2.07,1.86a2.25,2.25,0,0,1-.63-.08v-.86a1.84,1.84,0,0,0,.57.11,1.18,1.18,0,0,0,1.09-.87l.48-1.14-2.34-6h1.06l1.62,4.62c0,.06.07.21.13.46h0c0-.1.06-.24.12-.45L129.41,76Z" fill="#1e1e1e"/>
      </g>
      <g>
        <path d="M191.58,142.19h-1.21l-4.33-6.7a3.71,3.71,0,0,1-.26-.53h0a8.79,8.79,0,0,1,0,1.16v6.07h-1v-8.41h1.28l4.21,6.6c.17.27.29.46.34.56h0a8.74,8.74,0,0,1-.06-1.24v-5.92h1Z" fill="#1e1e1e"/>
        <path d="M200,133.78l-3.12,8.41h-1.08l-3.05-8.41h1.1l2.33,6.67a3.54,3.54,0,0,1,.16.74h0a3.52,3.52,0,0,1,.19-.76l2.37-6.65Z" fill="#1e1e1e"/>
        <path d="M209.8,142.19h-1v-5.64c0-.45,0-1,.08-1.64h0a5.64,5.64,0,0,1-.25.82l-2.87,6.46h-.48l-2.87-6.41a4.83,4.83,0,0,1-.25-.87h0c0,.34.05.89.05,1.65v5.63h-1v-8.41h1.3l2.58,5.86a7.92,7.92,0,0,1,.39,1h0c.17-.46.31-.8.41-1l2.63-5.84h1.23Z" fill="#1e1e1e"/>
        <path d="M216.7,139.43h-4.24A2.27,2.27,0,0,0,213,141a1.85,1.85,0,0,0,1.42.55,3,3,0,0,0,1.87-.67v.9a3.53,3.53,0,0,1-2.1.58,2.54,2.54,0,0,1-2-.82,3.33,3.33,0,0,1-.73-2.3,3.26,3.26,0,0,1,.79-2.28,2.55,2.55,0,0,1,2-.89,2.26,2.26,0,0,1,1.83.77,3.15,3.15,0,0,1,.64,2.11Zm-1-.82a2,2,0,0,0-.4-1.29,1.38,1.38,0,0,0-1.1-.47,1.58,1.58,0,0,0-1.16.49,2.21,2.21,0,0,0-.58,1.27Z" fill="#1e1e1e"/>
        <path d="M224.41,134.15a1.24,1.24,0,0,0-.64-.16c-.67,0-1,.42-1,1.27v.93h1.41V137h-1.41v5.18h-1V137h-1v-.82h1v-1a2,2,0,0,1,.55-1.49,1.86,1.86,0,0,1,1.36-.55,1.94,1.94,0,0,1,.7.11Z" fill="#1e1e1e"/>
        <path d="M227.71,142.33a2.79,2.79,0,0,1-2.13-.84,3.14,3.14,0,0,1-.79-2.23,3.27,3.27,0,0,1,.82-2.37,3,3,0,0,1,2.24-.85,2.69,2.69,0,0,1,2.09.83,3.29,3.29,0,0,1,.75,2.29,3.21,3.21,0,0,1-.81,2.3A2.82,2.82,0,0,1,227.71,142.33Zm.07-5.48a1.84,1.84,0,0,0-1.47.63,2.59,2.59,0,0,0-.54,1.74,2.41,2.41,0,0,0,.55,1.68,1.85,1.85,0,0,0,1.46.62,1.74,1.74,0,0,0,1.43-.61,2.62,2.62,0,0,0,.5-1.71,2.71,2.71,0,0,0-.5-1.74A1.77,1.77,0,0,0,227.78,136.85Z" fill="#1e1e1e"/>
        <path d="M235.36,137.16a1.18,1.18,0,0,0-.73-.2,1.25,1.25,0,0,0-1,.58,2.75,2.75,0,0,0-.41,1.59v3.06h-1v-6h1v1.23h0a2.17,2.17,0,0,1,.63-1,1.46,1.46,0,0,1,.94-.35,1.75,1.75,0,0,1,.58.08Z" fill="#1e1e1e"/>
        <path d="M243.78,141.91a3.1,3.1,0,0,1-1.64.42,2.69,2.69,0,0,1-2.07-.84,3,3,0,0,1-.79-2.16,3.33,3.33,0,0,1,.85-2.39,3,3,0,0,1,2.26-.9,3.1,3.1,0,0,1,1.4.3v1a2.47,2.47,0,0,0-1.43-.47,1.93,1.93,0,0,0-1.51.66,2.52,2.52,0,0,0-.59,1.73,2.39,2.39,0,0,0,.56,1.67,1.91,1.91,0,0,0,1.48.61,2.47,2.47,0,0,0,1.48-.52Z" fill="#1e1e1e"/>
        <path d="M249.53,142.19h-1v-.94h0a2,2,0,0,1-1.84,1.08,2,2,0,0,1-1.41-.48,1.61,1.61,0,0,1-.5-1.26c0-1.12.66-1.77,2-2l1.79-.25q0-1.53-1.23-1.53a3,3,0,0,0-2,.74v-1a3.68,3.68,0,0,1,2-.57c1.41,0,2.12.75,2.12,2.24Zm-1-3-1.44.2a2.3,2.3,0,0,0-1,.33,1,1,0,0,0-.34.84.92.92,0,0,0,.31.72,1.25,1.25,0,0,0,.84.28,1.56,1.56,0,0,0,1.18-.5,1.8,1.8,0,0,0,.46-1.27Z" fill="#1e1e1e"/>
        <path d="M255.43,141.91a3.13,3.13,0,0,1-1.64.42,2.73,2.73,0,0,1-2.08-.84,3,3,0,0,1-.78-2.16,3.33,3.33,0,0,1,.85-2.39A3,3,0,0,1,254,136a3.1,3.1,0,0,1,1.4.3v1a2.47,2.47,0,0,0-1.43-.47,1.92,1.92,0,0,0-1.51.66,2.52,2.52,0,0,0-.59,1.73,2.39,2.39,0,0,0,.55,1.67,1.94,1.94,0,0,0,1.49.61,2.49,2.49,0,0,0,1.48-.52Z" fill="#1e1e1e"/>
        <path d="M261.86,142.19h-1v-3.46c0-1.25-.47-1.88-1.4-1.88a1.51,1.51,0,0,0-1.18.55,2,2,0,0,0-.48,1.39v3.4h-1V133.3h1v3.88h0a2.18,2.18,0,0,1,2-1.14c1.35,0,2,.82,2,2.45Z" fill="#1e1e1e"/>
        <path d="M268.49,139.43h-4.23a2.22,2.22,0,0,0,.53,1.54,1.85,1.85,0,0,0,1.42.55,3,3,0,0,0,1.87-.67v.9a3.53,3.53,0,0,1-2.1.58,2.54,2.54,0,0,1-2-.82,3.33,3.33,0,0,1-.73-2.3,3.26,3.26,0,0,1,.79-2.28,2.56,2.56,0,0,1,2-.89,2.26,2.26,0,0,1,1.82.77,3.15,3.15,0,0,1,.64,2.11Zm-1-.82a2,2,0,0,0-.4-1.29,1.38,1.38,0,0,0-1.1-.47,1.58,1.58,0,0,0-1.16.49,2.21,2.21,0,0,0-.58,1.27Z" fill="#1e1e1e"/>
      </g>
      <g>
        <path d="M279.14,141.85v-1.16a2.21,2.21,0,0,0,.48.31,3.72,3.72,0,0,0,.58.24l.62.15a4.13,4.13,0,0,0,.58.05,2.2,2.2,0,0,0,1.35-.34,1.12,1.12,0,0,0,.45-1,1.15,1.15,0,0,0-.15-.59,1.94,1.94,0,0,0-.41-.46,4.43,4.43,0,0,0-.62-.4l-.78-.4c-.29-.15-.57-.3-.82-.45a3.17,3.17,0,0,1-.66-.5,2.14,2.14,0,0,1-.45-.63,2,2,0,0,1-.16-.81,2,2,0,0,1,.25-1,2,2,0,0,1,.67-.7,2.8,2.8,0,0,1,.93-.41,4.3,4.3,0,0,1,1.07-.14,4.08,4.08,0,0,1,1.81.3v1.11a3.29,3.29,0,0,0-1.91-.52,3.48,3.48,0,0,0-.64.07,2,2,0,0,0-.58.22,1.27,1.27,0,0,0-.41.39,1.1,1.1,0,0,0-.16.59,1.25,1.25,0,0,0,.12.56,1.39,1.39,0,0,0,.36.42,3.32,3.32,0,0,0,.57.38l.78.4c.3.15.58.3.85.47a3.59,3.59,0,0,1,.71.54,2.32,2.32,0,0,1,.48.66,1.84,1.84,0,0,1,.18.83,2.16,2.16,0,0,1-.24,1.06,2,2,0,0,1-.66.7,2.8,2.8,0,0,1-.95.39,5.24,5.24,0,0,1-1.14.12,3.29,3.29,0,0,1-.49,0l-.6-.09a4.74,4.74,0,0,1-.57-.15A2,2,0,0,1,279.14,141.85Z" fill="#1e1e1e"/>
        <path d="M285.52,141.85v-1.16a2.39,2.39,0,0,0,.47.31,3.83,3.83,0,0,0,.59.24,6.23,6.23,0,0,0,.62.15,4,4,0,0,0,.57.05,2.22,2.22,0,0,0,1.36-.34,1.12,1.12,0,0,0,.45-1,1.15,1.15,0,0,0-.15-.59,1.79,1.79,0,0,0-.42-.46,3.91,3.91,0,0,0-.62-.4l-.78-.4-.82-.45a3.81,3.81,0,0,1-.66-.5,2.11,2.11,0,0,1-.44-.63,1.86,1.86,0,0,1-.16-.81,1.88,1.88,0,0,1,.25-1,2.11,2.11,0,0,1,.66-.7,3,3,0,0,1,.94-.41,4.24,4.24,0,0,1,1.07-.14,4.11,4.11,0,0,1,1.81.3v1.11a3.34,3.34,0,0,0-1.91-.52,3.59,3.59,0,0,0-.65.07,2,2,0,0,0-.57.22,1.18,1.18,0,0,0-.41.39,1,1,0,0,0-.16.59,1.25,1.25,0,0,0,.12.56,1.51,1.51,0,0,0,.35.42,3.76,3.76,0,0,0,.57.38l.78.4c.3.15.59.3.86.47a3.9,3.9,0,0,1,.71.54,2.53,2.53,0,0,1,.48.66,1.84,1.84,0,0,1,.18.83,2,2,0,0,1-.9,1.76,2.88,2.88,0,0,1-.95.39,5.24,5.24,0,0,1-1.14.12,3.2,3.2,0,0,1-.49,0q-.3,0-.6-.09a4.91,4.91,0,0,1-.58-.15A1.93,1.93,0,0,1,285.52,141.85Z" fill="#1e1e1e"/>
        <path d="M292.28,142.19v-8.41h2.32c3,0,4.45,1.37,4.45,4.1a4.11,4.11,0,0,1-1.24,3.12,4.56,4.56,0,0,1-3.3,1.19Zm1-7.52v6.62h1.25a3.55,3.55,0,0,0,2.57-.88,3.3,3.3,0,0,0,.92-2.51q0-3.22-3.43-3.23Z" fill="#1e1e1e"/>
        <path d="M306.82,134.15a1.24,1.24,0,0,0-.64-.16c-.67,0-1,.42-1,1.27v.93h1.41V137h-1.41v5.18h-.95V137h-1v-.82h1v-1a2,2,0,0,1,.54-1.49,2,2,0,0,1,2.06-.44Z" fill="#1e1e1e"/>
        <path d="M310.12,142.33a2.76,2.76,0,0,1-2.12-.84,3.14,3.14,0,0,1-.8-2.23,3.27,3.27,0,0,1,.83-2.37,3,3,0,0,1,2.23-.85,2.69,2.69,0,0,1,2.09.83,3.25,3.25,0,0,1,.76,2.29,3.21,3.21,0,0,1-.81,2.3A2.84,2.84,0,0,1,310.12,142.33Zm.07-5.48a1.8,1.8,0,0,0-1.46.63,2.59,2.59,0,0,0-.54,1.74,2.46,2.46,0,0,0,.54,1.68,1.85,1.85,0,0,0,1.46.62,1.73,1.73,0,0,0,1.43-.61,2.57,2.57,0,0,0,.5-1.71,2.65,2.65,0,0,0-.5-1.74A1.76,1.76,0,0,0,310.19,136.85Z" fill="#1e1e1e"/>
        <path d="M317.77,137.16a1.16,1.16,0,0,0-.72-.2,1.24,1.24,0,0,0-1,.58,2.68,2.68,0,0,0-.42,1.59v3.06h-1v-6h1v1.23h0a2.08,2.08,0,0,1,.62-1,1.49,1.49,0,0,1,.95-.35,1.65,1.65,0,0,1,.57.08Z" fill="#1e1e1e"/>
        <path d="M326.19,141.91a3.1,3.1,0,0,1-1.64.42,2.72,2.72,0,0,1-2.07-.84,3,3,0,0,1-.79-2.16,3.37,3.37,0,0,1,.85-2.39,3,3,0,0,1,2.27-.9,3.06,3.06,0,0,1,1.39.3v1a2.45,2.45,0,0,0-1.43-.47,1.91,1.91,0,0,0-1.5.66,2.47,2.47,0,0,0-.59,1.73,2.39,2.39,0,0,0,.55,1.67,1.93,1.93,0,0,0,1.49.61,2.44,2.44,0,0,0,1.47-.52Z" fill="#1e1e1e"/>
        <path d="M331.94,142.19h-1v-.94h0a2,2,0,0,1-1.85,1.08,1.93,1.93,0,0,1-1.4-.48,1.62,1.62,0,0,1-.51-1.26c0-1.12.66-1.77,2-2l1.8-.25c0-1-.41-1.53-1.24-1.53a3,3,0,0,0-1.95.74v-1a3.67,3.67,0,0,1,2-.57c1.41,0,2.12.75,2.12,2.24Zm-1-3-1.45.2a2.35,2.35,0,0,0-1,.33,1,1,0,0,0-.34.84.93.93,0,0,0,.32.72,1.22,1.22,0,0,0,.83.28,1.55,1.55,0,0,0,1.18-.5,1.81,1.81,0,0,0,.47-1.27Z" fill="#1e1e1e"/>
        <path d="M334.73,141.32h0V145h-1v-8.76h1v1.05h0a2.29,2.29,0,0,1,2.08-1.2,2.19,2.19,0,0,1,1.81.81,3.37,3.37,0,0,1,.65,2.16,3.71,3.71,0,0,1-.73,2.41,2.46,2.46,0,0,1-2,.91A2,2,0,0,1,334.73,141.32Zm0-2.42v.84a1.8,1.8,0,0,0,.48,1.26,1.65,1.65,0,0,0,1.23.52,1.63,1.63,0,0,0,1.37-.67,3.07,3.07,0,0,0,.5-1.86,2.41,2.41,0,0,0-.47-1.57,1.52,1.52,0,0,0-1.25-.57,1.71,1.71,0,0,0-1.35.59A2.13,2.13,0,0,0,334.71,138.9Z" fill="#1e1e1e"/>
        <path d="M345.1,142.19h-1v-.94h0a2,2,0,0,1-1.85,1.08,1.93,1.93,0,0,1-1.4-.48,1.62,1.62,0,0,1-.51-1.26c0-1.12.66-1.77,2-2l1.8-.25c0-1-.41-1.53-1.24-1.53a3,3,0,0,0-1.95.74v-1a3.67,3.67,0,0,1,2-.57c1.42,0,2.12.75,2.12,2.24Zm-1-3-1.45.2a2.35,2.35,0,0,0-1,.33,1,1,0,0,0-.34.84.93.93,0,0,0,.32.72,1.24,1.24,0,0,0,.83.28,1.55,1.55,0,0,0,1.18-.5,1.81,1.81,0,0,0,.47-1.27Z" fill="#1e1e1e"/>
        <path d="M351,141.91a3.1,3.1,0,0,1-1.64.42,2.69,2.69,0,0,1-2.07-.84,3,3,0,0,1-.79-2.16,3.33,3.33,0,0,1,.85-2.39,3,3,0,0,1,2.27-.9,3.06,3.06,0,0,1,1.39.3v1a2.45,2.45,0,0,0-1.43-.47,2,2,0,0,0-1.51.66,2.52,2.52,0,0,0-.59,1.73,2.39,2.39,0,0,0,.56,1.67,1.92,1.92,0,0,0,1.48.61A2.45,2.45,0,0,0,351,141Z" fill="#1e1e1e"/>
        <path d="M353,134.66a.62.62,0,0,1-.44-1.07.59.59,0,0,1,.44-.18.6.6,0,0,1,.44.18.58.58,0,0,1,.19.45.58.58,0,0,1-.19.44A.6.6,0,0,1,353,134.66Zm.46,7.53h-1v-6h1Z" fill="#1e1e1e"/>
        <path d="M358.14,142.13a1.87,1.87,0,0,1-.89.18c-1.05,0-1.58-.58-1.58-1.75V137h-1v-.82h1v-1.47l1-.31v1.78h1.51V137h-1.51v3.38a1.37,1.37,0,0,0,.21.86.81.81,0,0,0,.68.26,1,1,0,0,0,.62-.2Z" fill="#1e1e1e"/>
        <path d="M364.2,136.19l-2.76,7q-.74,1.86-2.07,1.86a2.25,2.25,0,0,1-.63-.08v-.86a1.84,1.84,0,0,0,.57.11,1.18,1.18,0,0,0,1.09-.87l.48-1.14-2.34-6h1.06l1.63,4.61c0,.06.06.21.12.46h0q0-.13.12-.45l1.71-4.62Z" fill="#1e1e1e"/>
      </g>
      <g>
        <path d="M92.52,12.61h-1.2L87,5.92a2.94,2.94,0,0,1-.27-.53h0a9.28,9.28,0,0,1,0,1.15v6.07h-1V4.21H87l4.2,6.59a5.64,5.64,0,0,1,.34.57h0a8.84,8.84,0,0,1-.06-1.24V4.21h1Z" fill="#1e1e1e"/>
        <path d="M101,4.21l-3.11,8.4H96.78l-3-8.4h1.1l2.32,6.66a3.77,3.77,0,0,1,.17.75h0a4.09,4.09,0,0,1,.2-.76l2.37-6.65Z" fill="#1e1e1e"/>
        <path d="M110.75,12.61h-1V7c0-.45,0-1,.08-1.64h0a5.38,5.38,0,0,1-.26.82l-2.87,6.45h-.48L103.36,6.2a4.31,4.31,0,0,1-.26-.86h0c0,.34,0,.89,0,1.65v5.62h-.95V4.21h1.3l2.58,5.86a6.32,6.32,0,0,1,.38,1h0c.17-.46.3-.81.4-1l2.63-5.84h1.24Z" fill="#1e1e1e"/>
        <path d="M117.65,9.85h-4.24A2.28,2.28,0,0,0,114,11.4a1.87,1.87,0,0,0,1.42.55,3,3,0,0,0,1.86-.67v.9a3.5,3.5,0,0,1-2.09.57,2.56,2.56,0,0,1-2-.81,3.37,3.37,0,0,1-.72-2.3,3.29,3.29,0,0,1,.79-2.29,2.58,2.58,0,0,1,2-.88,2.27,2.27,0,0,1,1.82.76,3.2,3.2,0,0,1,.65,2.12Zm-1-.81a1.91,1.91,0,0,0-.4-1.3,1.39,1.39,0,0,0-1.1-.46,1.54,1.54,0,0,0-1.15.49A2.22,2.22,0,0,0,113.42,9Z" fill="#1e1e1e"/>
      </g>
      <g>
        <path d="M132.52,12.61h-1.2L127,5.92a2.94,2.94,0,0,1-.27-.53h0a9.28,9.28,0,0,1,0,1.15v6.07h-1V4.21H127l4.2,6.59a5.64,5.64,0,0,1,.34.57h0a8.84,8.84,0,0,1-.06-1.24V4.21h1Z" fill="#1e1e1e"/>
        <path d="M141,4.21l-3.11,8.4h-1.08l-3.05-8.4h1.1l2.32,6.66a3.77,3.77,0,0,1,.17.75h0a4.09,4.09,0,0,1,.2-.76l2.37-6.65Z" fill="#1e1e1e"/>
        <path d="M150.75,12.61h-1V7c0-.45,0-1,.08-1.64h0a5.38,5.38,0,0,1-.26.82l-2.87,6.45h-.48L143.36,6.2a4.31,4.31,0,0,1-.26-.86h0c0,.34,0,.89,0,1.65v5.62h-.95V4.21h1.3l2.58,5.86a6.32,6.32,0,0,1,.38,1h0c.17-.46.3-.81.4-1l2.63-5.84h1.24Z" fill="#1e1e1e"/>
        <path d="M157.65,9.85h-4.24A2.28,2.28,0,0,0,154,11.4a1.87,1.87,0,0,0,1.42.55,3,3,0,0,0,1.86-.67v.9a3.5,3.5,0,0,1-2.09.57,2.56,2.56,0,0,1-2-.81,3.37,3.37,0,0,1-.72-2.3,3.29,3.29,0,0,1,.79-2.29,2.58,2.58,0,0,1,2-.88,2.27,2.27,0,0,1,1.82.76,3.2,3.2,0,0,1,.65,2.12Zm-1-.81a1.91,1.91,0,0,0-.4-1.3,1.39,1.39,0,0,0-1.1-.46,1.54,1.54,0,0,0-1.15.49A2.22,2.22,0,0,0,153.42,9Z" fill="#1e1e1e"/>
      </g>
      <g>
        <path d="M218.47,12.61h-1.21l-4.33-6.69a3.71,3.71,0,0,1-.26-.53h0a8.6,8.6,0,0,1,.05,1.15v6.07h-1V4.21H213l4.21,6.59c.17.28.29.46.34.57h0a8.84,8.84,0,0,1-.06-1.24V4.21h1Z" fill="#1e1e1e"/>
        <path d="M226.92,4.21l-3.12,8.4h-1.08l-3.05-8.4h1.1l2.32,6.66a3.18,3.18,0,0,1,.17.75h0a3.38,3.38,0,0,1,.19-.76l2.37-6.65Z" fill="#1e1e1e"/>
        <path d="M236.69,12.61h-1V7c0-.45,0-1,.08-1.64h0a7.28,7.28,0,0,1-.25.82l-2.87,6.45h-.48L229.3,6.2a4.44,4.44,0,0,1-.25-.86h0c0,.34,0,.89,0,1.65v5.62h-.95V4.21h1.3L232,10.07a7.92,7.92,0,0,1,.39,1h0c.17-.46.31-.81.41-1l2.63-5.84h1.23Z" fill="#1e1e1e"/>
        <path d="M243.59,9.85h-4.24a2.28,2.28,0,0,0,.54,1.55,1.89,1.89,0,0,0,1.42.55,3,3,0,0,0,1.86-.67v.9a3.47,3.47,0,0,1-2.09.57,2.57,2.57,0,0,1-2-.81,3.37,3.37,0,0,1-.72-2.3,3.29,3.29,0,0,1,.79-2.29,2.58,2.58,0,0,1,2-.88,2.29,2.29,0,0,1,1.83.76,3.19,3.19,0,0,1,.64,2.12Zm-1-.81a2,2,0,0,0-.4-1.3,1.4,1.4,0,0,0-1.1-.46,1.54,1.54,0,0,0-1.16.49A2.21,2.21,0,0,0,239.37,9Z" fill="#1e1e1e"/>
      </g>
      <g>
        <path d="M201.09,104.3v-1.16a2.39,2.39,0,0,0,.47.31,3,3,0,0,0,.59.24,6.23,6.23,0,0,0,.62.15,4,4,0,0,0,.57,0,2.22,2.22,0,0,0,1.36-.34,1.12,1.12,0,0,0,.45-1A1.15,1.15,0,0,0,205,102a1.79,1.79,0,0,0-.42-.46,3.91,3.91,0,0,0-.62-.4l-.78-.4-.82-.45a3.81,3.81,0,0,1-.66-.5,2.11,2.11,0,0,1-.44-.63,1.86,1.86,0,0,1-.16-.81,1.88,1.88,0,0,1,.25-1,2.11,2.11,0,0,1,.66-.7,2.86,2.86,0,0,1,.94-.41,4.24,4.24,0,0,1,1.07-.14,4.11,4.11,0,0,1,1.81.3V97.5a3.34,3.34,0,0,0-1.91-.52,3.59,3.59,0,0,0-.65.07,1.93,1.93,0,0,0-.57.22,1.18,1.18,0,0,0-.41.39,1,1,0,0,0-.16.59,1.25,1.25,0,0,0,.12.56,1.51,1.51,0,0,0,.35.42,3.76,3.76,0,0,0,.57.38l.78.4c.3.15.59.3.86.47a3.9,3.9,0,0,1,.71.54,2.53,2.53,0,0,1,.48.66,1.84,1.84,0,0,1,.18.83,2,2,0,0,1-.9,1.76,2.88,2.88,0,0,1-.95.39,5.24,5.24,0,0,1-1.14.12,3.2,3.2,0,0,1-.49,0q-.3,0-.6-.09a4.91,4.91,0,0,1-.58-.15A1.74,1.74,0,0,1,201.09,104.3Z" fill="#1e1e1e"/>
        <path d="M207.46,104.3v-1.16a2.21,2.21,0,0,0,.48.31,3,3,0,0,0,.58.24l.62.15a4.13,4.13,0,0,0,.58,0,2.2,2.2,0,0,0,1.35-.34,1.12,1.12,0,0,0,.45-1,1.15,1.15,0,0,0-.15-.59,1.94,1.94,0,0,0-.41-.46,4.57,4.57,0,0,0-.63-.4l-.77-.4c-.29-.15-.57-.3-.82-.45a3.17,3.17,0,0,1-.66-.5,2.14,2.14,0,0,1-.45-.63,2,2,0,0,1-.16-.81,2,2,0,0,1,.25-1,2,2,0,0,1,.67-.7,2.8,2.8,0,0,1,.93-.41,4.3,4.3,0,0,1,1.07-.14,4.08,4.08,0,0,1,1.81.3V97.5a3.31,3.31,0,0,0-1.91-.52,3.48,3.48,0,0,0-.64.07,2,2,0,0,0-.58.22,1.27,1.27,0,0,0-.41.39,1.1,1.1,0,0,0-.16.59,1.25,1.25,0,0,0,.12.56,1.39,1.39,0,0,0,.36.42,3,3,0,0,0,.57.38l.78.4c.3.15.58.3.85.47a3.59,3.59,0,0,1,.71.54,2.53,2.53,0,0,1,.48.66,1.84,1.84,0,0,1,.18.83,2.16,2.16,0,0,1-.24,1.06,2,2,0,0,1-.66.7,2.8,2.8,0,0,1-1,.39,5.24,5.24,0,0,1-1.14.12,3.29,3.29,0,0,1-.49,0l-.6-.09a4.74,4.74,0,0,1-.57-.15A2,2,0,0,1,207.46,104.3Z" fill="#1e1e1e"/>
        <path d="M214.23,104.64V96.23h2.32q4.44,0,4.44,4.1a4.14,4.14,0,0,1-1.23,3.13,4.64,4.64,0,0,1-3.31,1.18Zm1-7.52v6.63h1.26a3.55,3.55,0,0,0,2.57-.89,3.34,3.34,0,0,0,.92-2.51q0-3.22-3.44-3.23Z" fill="#1e1e1e"/>
      </g>
      <g>
        <path d="M236.49,104.3v-1.16a2.83,2.83,0,0,0,.48.31,3,3,0,0,0,.59.24,6.23,6.23,0,0,0,.62.15,3.88,3.88,0,0,0,.57,0,2.24,2.24,0,0,0,1.36-.34,1.27,1.27,0,0,0,.29-1.56,1.58,1.58,0,0,0-.41-.46,3.91,3.91,0,0,0-.62-.4l-.78-.4c-.29-.15-.57-.3-.82-.45a3.81,3.81,0,0,1-.66-.5,1.94,1.94,0,0,1-.44-.63,1.86,1.86,0,0,1-.16-.81,1.88,1.88,0,0,1,.25-1,2.11,2.11,0,0,1,.66-.7,2.8,2.8,0,0,1,.93-.41,4.3,4.3,0,0,1,1.07-.14,4.08,4.08,0,0,1,1.81.3V97.5a3.29,3.29,0,0,0-1.91-.52,3.48,3.48,0,0,0-.64.07,2,2,0,0,0-.58.22,1.38,1.38,0,0,0-.41.39,1.1,1.1,0,0,0-.15.59,1.25,1.25,0,0,0,.12.56,1.35,1.35,0,0,0,.35.42,3.76,3.76,0,0,0,.57.38l.78.4c.3.15.58.3.85.47a3.59,3.59,0,0,1,.71.54,2.36,2.36,0,0,1,.49.66,1.84,1.84,0,0,1,.18.83,2.16,2.16,0,0,1-.25,1.06,2.07,2.07,0,0,1-.65.7,2.94,2.94,0,0,1-1,.39,5.15,5.15,0,0,1-1.13.12,3.31,3.31,0,0,1-.5,0l-.59-.09a4.45,4.45,0,0,1-.58-.15A2,2,0,0,1,236.49,104.3Z" fill="#1e1e1e"/>
        <path d="M242.87,104.3v-1.16a2.21,2.21,0,0,0,.48.31,3,3,0,0,0,.58.24c.21.06.41.11.62.15a4.13,4.13,0,0,0,.57,0,2.22,2.22,0,0,0,1.36-.34,1.12,1.12,0,0,0,.45-1,1.15,1.15,0,0,0-.15-.59,1.94,1.94,0,0,0-.41-.46,4.57,4.57,0,0,0-.63-.4l-.77-.4c-.3-.15-.57-.3-.82-.45a3.54,3.54,0,0,1-.67-.5,2.3,2.3,0,0,1-.44-.63,1.86,1.86,0,0,1-.16-.81,1.88,1.88,0,0,1,.25-1,2.11,2.11,0,0,1,.66-.7,3,3,0,0,1,.94-.41,4.3,4.3,0,0,1,1.07-.14,4.08,4.08,0,0,1,1.81.3V97.5A3.31,3.31,0,0,0,245.7,97a3.59,3.59,0,0,0-.65.07,2,2,0,0,0-.57.22,1.27,1.27,0,0,0-.41.39,1,1,0,0,0-.16.59,1.25,1.25,0,0,0,.12.56,1.39,1.39,0,0,0,.36.42,3,3,0,0,0,.57.38l.77.4c.3.15.59.3.86.47a3.59,3.59,0,0,1,.71.54,2.53,2.53,0,0,1,.48.66,1.84,1.84,0,0,1,.18.83,2.16,2.16,0,0,1-.24,1.06,2,2,0,0,1-.66.7,2.8,2.8,0,0,1-.95.39,5.24,5.24,0,0,1-1.14.12,3.29,3.29,0,0,1-.49,0c-.2,0-.39,0-.6-.09a4.74,4.74,0,0,1-.57-.15A1.83,1.83,0,0,1,242.87,104.3Z" fill="#1e1e1e"/>
        <path d="M249.64,104.64V96.23H252q4.44,0,4.44,4.1a4.11,4.11,0,0,1-1.24,3.13,4.6,4.6,0,0,1-3.3,1.18Zm1-7.52v6.63h1.25a3.58,3.58,0,0,0,2.58-.89,3.34,3.34,0,0,0,.92-2.51q0-3.22-3.44-3.23Z" fill="#1e1e1e"/>
      </g>
      <g>
        <path d="M308.49,12.61h-1.21L303,5.92a2.94,2.94,0,0,1-.27-.53h0a8.6,8.6,0,0,1,.05,1.15v6.07h-1V4.21H303l4.21,6.59c.17.28.29.46.34.57h0a8.84,8.84,0,0,1-.06-1.24V4.21h1Z" fill="#1e1e1e"/>
        <path d="M316.94,4.21l-3.12,8.4h-1.08l-3.05-8.4h1.1l2.33,6.66a4.63,4.63,0,0,1,.17.75h0a3.38,3.38,0,0,1,.19-.76l2.38-6.65Z" fill="#1e1e1e"/>
        <path d="M326.71,12.61h-1V7c0-.45,0-1,.08-1.64h0a5.64,5.64,0,0,1-.25.82l-2.87,6.45h-.48L319.32,6.2a4.44,4.44,0,0,1-.25-.86h0c0,.34,0,.89,0,1.65v5.62h-.95V4.21h1.3L322,10.07a7.92,7.92,0,0,1,.39,1h0c.17-.46.31-.81.41-1l2.63-5.84h1.23Z" fill="#1e1e1e"/>
        <path d="M333.61,9.85h-4.23a2.23,2.23,0,0,0,.53,1.55,1.89,1.89,0,0,0,1.42.55,3,3,0,0,0,1.87-.67v.9a3.53,3.53,0,0,1-2.1.57,2.53,2.53,0,0,1-2-.81,3.33,3.33,0,0,1-.73-2.3,3.29,3.29,0,0,1,.79-2.29,2.58,2.58,0,0,1,2-.88,2.28,2.28,0,0,1,1.82.76,3.19,3.19,0,0,1,.64,2.12Zm-1-.81a2,2,0,0,0-.4-1.3,1.4,1.4,0,0,0-1.1-.46,1.54,1.54,0,0,0-1.16.49A2.21,2.21,0,0,0,329.39,9Z" fill="#1e1e1e"/>
      </g>
      <g>
        <path d="M291.11,104.3v-1.16a2.39,2.39,0,0,0,.47.31,3.32,3.32,0,0,0,.59.24c.21.06.41.11.62.15a4.13,4.13,0,0,0,.57,0,2.22,2.22,0,0,0,1.36-.34,1.12,1.12,0,0,0,.45-1A1.15,1.15,0,0,0,295,102a1.79,1.79,0,0,0-.42-.46,3.91,3.91,0,0,0-.62-.4l-.78-.4-.82-.45a3.81,3.81,0,0,1-.66-.5,2.11,2.11,0,0,1-.44-.63,1.86,1.86,0,0,1-.16-.81,1.88,1.88,0,0,1,.25-1,2.11,2.11,0,0,1,.66-.7,3,3,0,0,1,.94-.41,4.24,4.24,0,0,1,1.07-.14,4.11,4.11,0,0,1,1.81.3V97.5a3.34,3.34,0,0,0-1.91-.52,3.59,3.59,0,0,0-.65.07,2,2,0,0,0-.57.22,1.18,1.18,0,0,0-.41.39,1,1,0,0,0-.16.59,1.25,1.25,0,0,0,.12.56,1.51,1.51,0,0,0,.35.42,3.43,3.43,0,0,0,.58.38l.77.4c.3.15.59.3.86.47a3.9,3.9,0,0,1,.71.54,2.53,2.53,0,0,1,.48.66,1.84,1.84,0,0,1,.18.83,2.16,2.16,0,0,1-.24,1.06,2.21,2.21,0,0,1-.66.7,2.88,2.88,0,0,1-.95.39,5.24,5.24,0,0,1-1.14.12,3.2,3.2,0,0,1-.49,0q-.3,0-.6-.09a5.47,5.47,0,0,1-.58-.15A1.93,1.93,0,0,1,291.11,104.3Z" fill="#1e1e1e"/>
        <path d="M297.48,104.3v-1.16a2.21,2.21,0,0,0,.48.31,3,3,0,0,0,.59.24c.2.06.41.11.61.15a4.13,4.13,0,0,0,.58,0,2.18,2.18,0,0,0,1.35-.34,1.12,1.12,0,0,0,.45-1,1.15,1.15,0,0,0-.15-.59,1.74,1.74,0,0,0-.41-.46,4.43,4.43,0,0,0-.62-.4l-.78-.4c-.29-.15-.57-.3-.82-.45a3.46,3.46,0,0,1-.66-.5,2.14,2.14,0,0,1-.45-.63,2,2,0,0,1-.16-.81,1.88,1.88,0,0,1,.26-1,1.93,1.93,0,0,1,.66-.7,2.8,2.8,0,0,1,.93-.41,4.3,4.3,0,0,1,1.07-.14,4.08,4.08,0,0,1,1.81.3V97.5a3.29,3.29,0,0,0-1.91-.52,3.48,3.48,0,0,0-.64.07,2,2,0,0,0-.58.22,1.38,1.38,0,0,0-.41.39,1.1,1.1,0,0,0-.16.59,1.13,1.13,0,0,0,.13.56,1.35,1.35,0,0,0,.35.42,3.76,3.76,0,0,0,.57.38l.78.4c.3.15.58.3.85.47a3.59,3.59,0,0,1,.71.54,2.57,2.57,0,0,1,.49.66,2,2,0,0,1,.17.83,2.16,2.16,0,0,1-.24,1.06,2,2,0,0,1-.66.7,2.8,2.8,0,0,1-.95.39,5.22,5.22,0,0,1-1.13.12,3.31,3.31,0,0,1-.5,0l-.59-.09a4.45,4.45,0,0,1-.58-.15A2,2,0,0,1,297.48,104.3Z" fill="#1e1e1e"/>
        <path d="M304.25,104.64V96.23h2.32q4.44,0,4.44,4.1a4.14,4.14,0,0,1-1.23,3.13,4.61,4.61,0,0,1-3.3,1.18Zm1-7.52v6.63h1.26a3.55,3.55,0,0,0,2.57-.89,3.34,3.34,0,0,0,.92-2.51q0-3.22-3.43-3.23Z" fill="#1e1e1e"/>
      </g>
      <g>
        <path d="M326.51,104.3v-1.16a2.83,2.83,0,0,0,.48.31,3,3,0,0,0,.59.24,6.23,6.23,0,0,0,.62.15,3.88,3.88,0,0,0,.57,0,2.22,2.22,0,0,0,1.36-.34,1.12,1.12,0,0,0,.44-1,1.15,1.15,0,0,0-.14-.59,1.79,1.79,0,0,0-.42-.46,3.91,3.91,0,0,0-.62-.4l-.78-.4-.82-.45a3.81,3.81,0,0,1-.66-.5,2.11,2.11,0,0,1-.44-.63,1.86,1.86,0,0,1-.16-.81,1.88,1.88,0,0,1,.25-1,2.11,2.11,0,0,1,.66-.7,2.86,2.86,0,0,1,.94-.41,4.23,4.23,0,0,1,1.06-.14,4,4,0,0,1,1.81.3V97.5a3.29,3.29,0,0,0-1.91-.52,3.48,3.48,0,0,0-.64.07,1.83,1.83,0,0,0-.57.22,1.18,1.18,0,0,0-.41.39,1,1,0,0,0-.16.59,1.25,1.25,0,0,0,.12.56,1.51,1.51,0,0,0,.35.42,3.76,3.76,0,0,0,.57.38l.78.4a8.54,8.54,0,0,1,.85.47,3.59,3.59,0,0,1,.71.54,2.36,2.36,0,0,1,.49.66,1.84,1.84,0,0,1,.18.83,2,2,0,0,1-.9,1.76,2.94,2.94,0,0,1-1,.39,5.09,5.09,0,0,1-1.13.12,3.1,3.1,0,0,1-.49,0l-.6-.09a4.45,4.45,0,0,1-.58-.15A2,2,0,0,1,326.51,104.3Z" fill="#1e1e1e"/>
        <path d="M332.89,104.3v-1.16a2.21,2.21,0,0,0,.48.31,3,3,0,0,0,.58.24c.21.06.41.11.62.15a4.13,4.13,0,0,0,.58,0,2.2,2.2,0,0,0,1.35-.34,1.12,1.12,0,0,0,.45-1,1.15,1.15,0,0,0-.15-.59,1.94,1.94,0,0,0-.41-.46,4.57,4.57,0,0,0-.63-.4l-.77-.4c-.3-.15-.57-.3-.82-.45a3.54,3.54,0,0,1-.67-.5,2.3,2.3,0,0,1-.44-.63,2,2,0,0,1-.16-.81,1.88,1.88,0,0,1,.25-1,2.11,2.11,0,0,1,.66-.7,3,3,0,0,1,.94-.41,4.3,4.3,0,0,1,1.07-.14,4.08,4.08,0,0,1,1.81.3V97.5a3.31,3.31,0,0,0-1.91-.52,3.59,3.59,0,0,0-.65.07,2,2,0,0,0-.57.22,1.27,1.27,0,0,0-.41.39,1,1,0,0,0-.16.59,1.25,1.25,0,0,0,.12.56,1.39,1.39,0,0,0,.36.42,3,3,0,0,0,.57.38l.77.4a8.72,8.72,0,0,1,.86.47,3.59,3.59,0,0,1,.71.54,2.53,2.53,0,0,1,.48.66,1.84,1.84,0,0,1,.18.83,2.16,2.16,0,0,1-.24,1.06,2,2,0,0,1-.66.7,2.8,2.8,0,0,1-.95.39,5.24,5.24,0,0,1-1.14.12,3.29,3.29,0,0,1-.49,0l-.6-.09a4.74,4.74,0,0,1-.57-.15A2,2,0,0,1,332.89,104.3Z" fill="#1e1e1e"/>
        <path d="M339.66,104.64V96.23H342q4.44,0,4.44,4.1a4.14,4.14,0,0,1-1.23,3.13,4.64,4.64,0,0,1-3.31,1.18Zm1-7.52v6.63h1.26a3.57,3.57,0,0,0,2.57-.89,3.34,3.34,0,0,0,.92-2.51q0-3.22-3.44-3.23Z" fill="#1e1e1e"/>
      </g>
      <g>
        <path d="M414.89,81.64V80.48a2,2,0,0,0,.47.32A5.19,5.19,0,0,0,416,81a6.23,6.23,0,0,0,.62.15,4.13,4.13,0,0,0,.57,0,2.22,2.22,0,0,0,1.36-.34,1.12,1.12,0,0,0,.45-1,1.15,1.15,0,0,0-.15-.59,1.76,1.76,0,0,0-.41-.46,4.57,4.57,0,0,0-.63-.4l-.78-.4-.82-.45a3.81,3.81,0,0,1-.66-.5,2.11,2.11,0,0,1-.44-.63,1.86,1.86,0,0,1-.16-.81,1.88,1.88,0,0,1,.25-1,2.11,2.11,0,0,1,.66-.7,3,3,0,0,1,.94-.41,4.24,4.24,0,0,1,1.07-.14,4.08,4.08,0,0,1,1.81.3v1.11a3.26,3.26,0,0,0-1.91-.52,2.88,2.88,0,0,0-.65.07,1.78,1.78,0,0,0-.57.22,1.18,1.18,0,0,0-.41.39,1,1,0,0,0-.16.59,1.18,1.18,0,0,0,.12.55,1.41,1.41,0,0,0,.35.43A3.43,3.43,0,0,0,417,77l.77.4c.3.14.59.3.86.46a4.46,4.46,0,0,1,.71.55,2.53,2.53,0,0,1,.48.66,1.84,1.84,0,0,1,.18.83,2,2,0,0,1-.9,1.76,3.1,3.1,0,0,1-.95.38,5.24,5.24,0,0,1-1.14.13c-.13,0-.3,0-.49,0s-.4,0-.6-.09a4.91,4.91,0,0,1-.58-.15A1.57,1.57,0,0,1,414.89,81.64Z" fill="#1e1e1e"/>
        <path d="M421.26,81.64V80.48a2.11,2.11,0,0,0,.48.32,5,5,0,0,0,.58.24l.62.15a4.13,4.13,0,0,0,.58,0,2.2,2.2,0,0,0,1.35-.34,1.12,1.12,0,0,0,.45-1,1.15,1.15,0,0,0-.15-.59,1.6,1.6,0,0,0-.41-.46,4.43,4.43,0,0,0-.62-.4l-.78-.4c-.29-.15-.57-.3-.82-.45a3.46,3.46,0,0,1-.66-.5,2.14,2.14,0,0,1-.45-.63,2,2,0,0,1-.16-.81,1.88,1.88,0,0,1,.26-1,1.93,1.93,0,0,1,.66-.7,2.8,2.8,0,0,1,.93-.41,4.3,4.3,0,0,1,1.07-.14,4.08,4.08,0,0,1,1.81.3v1.11a3.22,3.22,0,0,0-1.91-.52,2.79,2.79,0,0,0-.64.07,1.75,1.75,0,0,0-.58.22,1.38,1.38,0,0,0-.41.39,1.1,1.1,0,0,0-.15.59,1.18,1.18,0,0,0,.11.55,1.31,1.31,0,0,0,.36.43,3.76,3.76,0,0,0,.57.38l.78.4c.3.14.58.3.85.46a4,4,0,0,1,.71.55,2.14,2.14,0,0,1,.48.66,1.84,1.84,0,0,1,.18.83,2.16,2.16,0,0,1-.24,1.06,2,2,0,0,1-.66.7,3,3,0,0,1-.95.38,5.22,5.22,0,0,1-1.13.13c-.14,0-.3,0-.5,0l-.59-.09a4.45,4.45,0,0,1-.58-.15A1.64,1.64,0,0,1,421.26,81.64Z" fill="#1e1e1e"/>
        <path d="M428,82v-8.4h2.32q4.44,0,4.44,4.1a4.12,4.12,0,0,1-1.23,3.12,4.57,4.57,0,0,1-3.3,1.18Zm1-7.51v6.62h1.26a3.55,3.55,0,0,0,2.57-.88,3.34,3.34,0,0,0,.92-2.51q0-3.23-3.43-3.23Z" fill="#1e1e1e"/>
        <path d="M442.57,74a1.24,1.24,0,0,0-.64-.16c-.67,0-1,.42-1,1.27V76h1.41v.82h-1.41V82H440V76.8h-1V76h1V75a2,2,0,0,1,.54-1.49,1.86,1.86,0,0,1,1.36-.55,1.9,1.9,0,0,1,.7.11Z" fill="#1e1e1e"/>
        <path d="M445.87,82.13a2.8,2.8,0,0,1-2.13-.85,3.1,3.1,0,0,1-.79-2.23,3.26,3.26,0,0,1,.82-2.36,3,3,0,0,1,2.24-.85,2.69,2.69,0,0,1,2.09.83,3.27,3.27,0,0,1,.75,2.29,3.23,3.23,0,0,1-.81,2.3A2.82,2.82,0,0,1,445.87,82.13Zm.07-5.48a1.84,1.84,0,0,0-1.47.63,2.59,2.59,0,0,0-.54,1.74,2.41,2.41,0,0,0,.55,1.68,1.85,1.85,0,0,0,1.46.62,1.74,1.74,0,0,0,1.43-.61,2.62,2.62,0,0,0,.5-1.71,2.71,2.71,0,0,0-.5-1.74A1.77,1.77,0,0,0,445.94,76.65Z" fill="#1e1e1e"/>
        <path d="M453.52,77a1.18,1.18,0,0,0-.73-.2,1.25,1.25,0,0,0-1,.58,2.75,2.75,0,0,0-.41,1.59v3h-1V76h1v1.24h0a2.17,2.17,0,0,1,.63-1,1.46,1.46,0,0,1,.94-.35,1.71,1.71,0,0,1,.58.08Z" fill="#1e1e1e"/>
        <path d="M461.94,81.71a3.1,3.1,0,0,1-1.64.42,2.69,2.69,0,0,1-2.07-.84,3,3,0,0,1-.79-2.16,3.33,3.33,0,0,1,.85-2.39,3,3,0,0,1,2.27-.9,3.09,3.09,0,0,1,1.39.3v1a2.47,2.47,0,0,0-1.43-.47,1.93,1.93,0,0,0-1.51.66,2.52,2.52,0,0,0-.59,1.73,2.39,2.39,0,0,0,.56,1.67,1.91,1.91,0,0,0,1.48.61,2.42,2.42,0,0,0,1.48-.53Z" fill="#1e1e1e"/>
        <path d="M467.69,82h-1v-.93h0a2,2,0,0,1-1.84,1.08,2,2,0,0,1-1.41-.48,1.64,1.64,0,0,1-.5-1.26c0-1.12.66-1.77,2-2l1.8-.25c0-1-.42-1.53-1.24-1.53a3,3,0,0,0-2,.74v-1a3.68,3.68,0,0,1,2-.57c1.41,0,2.12.75,2.12,2.24Zm-1-3-1.45.2a2.3,2.3,0,0,0-1,.33,1,1,0,0,0-.34.84.92.92,0,0,0,.31.72,1.25,1.25,0,0,0,.84.28,1.55,1.55,0,0,0,1.18-.5,1.81,1.81,0,0,0,.47-1.27Z" fill="#1e1e1e"/>
        <path d="M470.48,81.12h0v3.62h-1V76h1V77h0a2.28,2.28,0,0,1,2.08-1.2,2.2,2.2,0,0,1,1.81.81,3.37,3.37,0,0,1,.65,2.16,3.71,3.71,0,0,1-.74,2.41,2.43,2.43,0,0,1-2,.91A2,2,0,0,1,470.48,81.12Zm0-2.42v.84a1.8,1.8,0,0,0,.48,1.26,1.73,1.73,0,0,0,2.6-.15,3.09,3.09,0,0,0,.49-1.86,2.41,2.41,0,0,0-.46-1.57,1.54,1.54,0,0,0-1.26-.57,1.7,1.7,0,0,0-1.34.59A2.11,2.11,0,0,0,470.46,78.7Z" fill="#1e1e1e"/>
        <path d="M480.85,82h-1v-.93h0A2,2,0,0,1,478,82.13a2,2,0,0,1-1.41-.48,1.64,1.64,0,0,1-.5-1.26c0-1.12.66-1.77,2-2l1.8-.25c0-1-.42-1.53-1.24-1.53a3,3,0,0,0-2,.74v-1a3.68,3.68,0,0,1,2-.57c1.41,0,2.12.75,2.12,2.24Zm-1-3-1.45.2a2.3,2.3,0,0,0-1,.33,1,1,0,0,0-.34.84.92.92,0,0,0,.31.72,1.25,1.25,0,0,0,.84.28,1.55,1.55,0,0,0,1.18-.5,1.81,1.81,0,0,0,.47-1.27Z" fill="#1e1e1e"/>
        <path d="M486.75,81.71a3.1,3.1,0,0,1-1.64.42,2.73,2.73,0,0,1-2.08-.84,3,3,0,0,1-.78-2.16,3.33,3.33,0,0,1,.85-2.39,3,3,0,0,1,2.26-.9,3.1,3.1,0,0,1,1.4.3v1a2.47,2.47,0,0,0-1.43-.47,1.93,1.93,0,0,0-1.51.66,2.52,2.52,0,0,0-.59,1.73,2.39,2.39,0,0,0,.55,1.67,1.94,1.94,0,0,0,1.49.61,2.42,2.42,0,0,0,1.48-.53Z" fill="#1e1e1e"/>
        <path d="M488.69,74.46a.64.64,0,0,1-.44-.17.65.65,0,0,1,0-.9.6.6,0,0,1,.44-.18.62.62,0,0,1,.63.63.6.6,0,0,1-.18.44A.61.61,0,0,1,488.69,74.46Zm.47,7.52h-1V76h1Z" fill="#1e1e1e"/>
        <path d="M493.89,81.93a2,2,0,0,1-.9.18c-1.05,0-1.57-.58-1.57-1.75V76.8h-1V76h1V74.52l1-.31V76h1.51v.82h-1.51v3.39a1.45,1.45,0,0,0,.2.86.83.83,0,0,0,.68.25,1,1,0,0,0,.63-.19Z" fill="#1e1e1e"/>
        <path d="M500,76l-2.76,7c-.49,1.24-1.19,1.86-2.08,1.86a2.12,2.12,0,0,1-.62-.08v-.86a1.74,1.74,0,0,0,.57.11,1.19,1.19,0,0,0,1.09-.87l.48-1.14-2.35-6h1.07L497,80.6c0,.06.06.21.12.46h0c0-.1.06-.24.12-.45L499,76Z" fill="#1e1e1e"/>
      </g>
      <g>
        <path d="M393.81,44.09V42.93a1.91,1.91,0,0,0,.48.32,5,5,0,0,0,.58.24l.62.15a4.13,4.13,0,0,0,.58,0,2.2,2.2,0,0,0,1.35-.34,1.12,1.12,0,0,0,.45-1,1.15,1.15,0,0,0-.15-.59,1.76,1.76,0,0,0-.41-.46,4.43,4.43,0,0,0-.62-.4l-.78-.4c-.29-.15-.57-.3-.82-.45a3.17,3.17,0,0,1-.66-.5A2.14,2.14,0,0,1,394,39a2,2,0,0,1-.16-.81,2,2,0,0,1,.25-1,2,2,0,0,1,.67-.7,2.8,2.8,0,0,1,.93-.41,4.3,4.3,0,0,1,1.07-.14,4.08,4.08,0,0,1,1.81.3V37.3a3.22,3.22,0,0,0-1.91-.52,2.79,2.79,0,0,0-.64.07,1.75,1.75,0,0,0-.58.22,1.27,1.27,0,0,0-.41.39,1.1,1.1,0,0,0-.16.59,1.18,1.18,0,0,0,.12.55,1.31,1.31,0,0,0,.36.43,3.32,3.32,0,0,0,.57.38l.78.4c.3.14.58.3.85.46a4,4,0,0,1,.71.55,2.53,2.53,0,0,1,.48.66,1.84,1.84,0,0,1,.18.83,2.16,2.16,0,0,1-.24,1.06,2,2,0,0,1-.66.7,2.8,2.8,0,0,1-.95.39,5.24,5.24,0,0,1-1.14.12c-.13,0-.29,0-.49,0l-.6-.09a4.74,4.74,0,0,1-.57-.15A1.64,1.64,0,0,1,393.81,44.09Z" fill="#1e1e1e"/>
        <path d="M400.19,44.09V42.93a2,2,0,0,0,.47.32,5.19,5.19,0,0,0,.59.24,6.23,6.23,0,0,0,.62.15,4,4,0,0,0,.57,0,2.22,2.22,0,0,0,1.36-.34,1.12,1.12,0,0,0,.45-1,1.15,1.15,0,0,0-.15-.59,1.64,1.64,0,0,0-.42-.46,3.91,3.91,0,0,0-.62-.4l-.78-.4-.82-.45a3.81,3.81,0,0,1-.66-.5,2.11,2.11,0,0,1-.44-.63,1.86,1.86,0,0,1-.16-.81,1.88,1.88,0,0,1,.25-1,2.11,2.11,0,0,1,.66-.7,3,3,0,0,1,.94-.41,4.24,4.24,0,0,1,1.07-.14,4.11,4.11,0,0,1,1.81.3V37.3a3.26,3.26,0,0,0-1.91-.52,2.88,2.88,0,0,0-.65.07,1.78,1.78,0,0,0-.57.22,1.18,1.18,0,0,0-.41.39,1,1,0,0,0-.16.59,1.18,1.18,0,0,0,.12.55,1.41,1.41,0,0,0,.35.43,3.76,3.76,0,0,0,.57.38l.78.4c.3.14.59.3.86.46a4.46,4.46,0,0,1,.71.55,2.53,2.53,0,0,1,.48.66,1.84,1.84,0,0,1,.18.83,2,2,0,0,1-.9,1.76,2.88,2.88,0,0,1-.95.39,5.24,5.24,0,0,1-1.14.12c-.13,0-.3,0-.49,0s-.4,0-.6-.09a4.91,4.91,0,0,1-.58-.15A1.57,1.57,0,0,1,400.19,44.09Z" fill="#1e1e1e"/>
        <path d="M407,44.43V36h2.32c3,0,4.45,1.37,4.45,4.1a4.13,4.13,0,0,1-1.24,3.12,4.55,4.55,0,0,1-3.3,1.18Zm1-7.51v6.62h1.25a3.55,3.55,0,0,0,2.57-.88,3.3,3.3,0,0,0,.92-2.51q0-3.23-3.43-3.23Z" fill="#1e1e1e"/>
      </g>
      <g>
        <path d="M429.22,44.09V42.93a1.91,1.91,0,0,0,.48.32,5,5,0,0,0,.58.24c.21.06.41.11.62.15a4.13,4.13,0,0,0,.58,0,2.2,2.2,0,0,0,1.35-.34,1.12,1.12,0,0,0,.45-1,1.15,1.15,0,0,0-.15-.59,1.76,1.76,0,0,0-.41-.46,4.57,4.57,0,0,0-.63-.4l-.77-.4c-.3-.15-.57-.3-.82-.45a3.54,3.54,0,0,1-.67-.5,2.3,2.3,0,0,1-.44-.63,1.86,1.86,0,0,1-.16-.81,1.88,1.88,0,0,1,.25-1,2,2,0,0,1,.67-.7,2.8,2.8,0,0,1,.93-.41,4.3,4.3,0,0,1,1.07-.14,4.08,4.08,0,0,1,1.81.3V37.3a3.24,3.24,0,0,0-1.91-.52,2.88,2.88,0,0,0-.65.07,1.78,1.78,0,0,0-.57.22,1.27,1.27,0,0,0-.41.39,1,1,0,0,0-.16.59,1.18,1.18,0,0,0,.12.55,1.31,1.31,0,0,0,.36.43,3,3,0,0,0,.57.38l.77.4a8.69,8.69,0,0,1,.86.46,4,4,0,0,1,.71.55,2.53,2.53,0,0,1,.48.66,1.84,1.84,0,0,1,.18.83,2.16,2.16,0,0,1-.24,1.06,2,2,0,0,1-.66.7,2.8,2.8,0,0,1-1,.39,5.24,5.24,0,0,1-1.14.12c-.13,0-.29,0-.49,0l-.6-.09a4.74,4.74,0,0,1-.57-.15A1.5,1.5,0,0,1,429.22,44.09Z" fill="#1e1e1e"/>
        <path d="M435.59,44.09V42.93a2.36,2.36,0,0,0,.48.32,5.19,5.19,0,0,0,.59.24,6.23,6.23,0,0,0,.62.15,3.88,3.88,0,0,0,.57,0,2.22,2.22,0,0,0,1.36-.34,1.12,1.12,0,0,0,.44-1,1.25,1.25,0,0,0-.14-.59,1.64,1.64,0,0,0-.42-.46,3.91,3.91,0,0,0-.62-.4l-.78-.4-.82-.45a3.81,3.81,0,0,1-.66-.5,1.94,1.94,0,0,1-.44-.63,1.86,1.86,0,0,1-.16-.81,1.88,1.88,0,0,1,.25-1,2.11,2.11,0,0,1,.66-.7,2.8,2.8,0,0,1,.93-.41,4.3,4.3,0,0,1,1.07-.14,4,4,0,0,1,1.81.3V37.3a3.22,3.22,0,0,0-1.91-.52,2.79,2.79,0,0,0-.64.07,1.62,1.62,0,0,0-.57.22,1.18,1.18,0,0,0-.41.39,1,1,0,0,0-.16.59,1.18,1.18,0,0,0,.12.55,1.41,1.41,0,0,0,.35.43,3.76,3.76,0,0,0,.57.38l.78.4a8.5,8.5,0,0,1,.85.46,4,4,0,0,1,.71.55,2.36,2.36,0,0,1,.49.66,1.84,1.84,0,0,1,.18.83,2.16,2.16,0,0,1-.25,1.06,2.07,2.07,0,0,1-.65.7,2.94,2.94,0,0,1-1,.39,5.09,5.09,0,0,1-1.13.12c-.14,0-.3,0-.49,0s-.4,0-.6-.09a4.45,4.45,0,0,1-.58-.15A1.64,1.64,0,0,1,435.59,44.09Z" fill="#1e1e1e"/>
        <path d="M442.36,44.43V36h2.32q4.44,0,4.44,4.1a4.12,4.12,0,0,1-1.23,3.12,4.55,4.55,0,0,1-3.3,1.18Zm1-7.51v6.62h1.25a3.55,3.55,0,0,0,2.57-.88,3.3,3.3,0,0,0,.92-2.51q0-3.23-3.43-3.23Z" fill="#1e1e1e"/>
      </g>
      <g>
        <path d="M463.81,44.09V42.93a1.91,1.91,0,0,0,.48.32,5,5,0,0,0,.58.24l.62.15a4.13,4.13,0,0,0,.58,0,2.2,2.2,0,0,0,1.35-.34,1.12,1.12,0,0,0,.45-1,1.15,1.15,0,0,0-.15-.59,1.76,1.76,0,0,0-.41-.46,4.43,4.43,0,0,0-.62-.4l-.78-.4c-.29-.15-.57-.3-.82-.45a3.17,3.17,0,0,1-.66-.5A2.14,2.14,0,0,1,464,39a2,2,0,0,1-.16-.81,2,2,0,0,1,.25-1,2,2,0,0,1,.67-.7,2.8,2.8,0,0,1,.93-.41,4.3,4.3,0,0,1,1.07-.14,4.08,4.08,0,0,1,1.81.3V37.3a3.22,3.22,0,0,0-1.91-.52,2.79,2.79,0,0,0-.64.07,1.75,1.75,0,0,0-.58.22,1.27,1.27,0,0,0-.41.39,1.1,1.1,0,0,0-.16.59,1.18,1.18,0,0,0,.12.55,1.31,1.31,0,0,0,.36.43,3.32,3.32,0,0,0,.57.38l.78.4c.3.14.58.3.85.46a4,4,0,0,1,.71.55,2.53,2.53,0,0,1,.48.66,1.84,1.84,0,0,1,.18.83,2.16,2.16,0,0,1-.24,1.06,2,2,0,0,1-.66.7,2.8,2.8,0,0,1-.95.39,5.24,5.24,0,0,1-1.14.12c-.13,0-.29,0-.49,0l-.6-.09a4.74,4.74,0,0,1-.57-.15A1.64,1.64,0,0,1,463.81,44.09Z" fill="#1e1e1e"/>
        <path d="M470.19,44.09V42.93a2,2,0,0,0,.47.32,5.19,5.19,0,0,0,.59.24,6.23,6.23,0,0,0,.62.15,4,4,0,0,0,.57,0,2.22,2.22,0,0,0,1.36-.34,1.12,1.12,0,0,0,.45-1,1.15,1.15,0,0,0-.15-.59,1.64,1.64,0,0,0-.42-.46,3.91,3.91,0,0,0-.62-.4l-.78-.4-.82-.45a3.81,3.81,0,0,1-.66-.5,2.11,2.11,0,0,1-.44-.63,1.86,1.86,0,0,1-.16-.81,1.88,1.88,0,0,1,.25-1,2.11,2.11,0,0,1,.66-.7,3,3,0,0,1,.94-.41,4.24,4.24,0,0,1,1.07-.14,4.11,4.11,0,0,1,1.81.3V37.3a3.26,3.26,0,0,0-1.91-.52,2.88,2.88,0,0,0-.65.07,1.78,1.78,0,0,0-.57.22,1.18,1.18,0,0,0-.41.39,1,1,0,0,0-.16.59,1.18,1.18,0,0,0,.12.55,1.41,1.41,0,0,0,.35.43,3.76,3.76,0,0,0,.57.38l.78.4c.3.14.59.3.86.46a4.46,4.46,0,0,1,.71.55,2.53,2.53,0,0,1,.48.66,1.84,1.84,0,0,1,.18.83,2,2,0,0,1-.9,1.76,2.88,2.88,0,0,1-.95.39,5.24,5.24,0,0,1-1.14.12c-.13,0-.3,0-.49,0s-.4,0-.6-.09a4.91,4.91,0,0,1-.58-.15A1.57,1.57,0,0,1,470.19,44.09Z" fill="#1e1e1e"/>
        <path d="M477,44.43V36h2.32c3,0,4.45,1.37,4.45,4.1a4.13,4.13,0,0,1-1.24,3.12,4.55,4.55,0,0,1-3.3,1.18Zm1-7.51v6.62h1.25a3.55,3.55,0,0,0,2.57-.88,3.3,3.3,0,0,0,.92-2.51q0-3.23-3.43-3.23Z" fill="#1e1e1e"/>
      </g>
      <g>
        <path d="M499.22,44.09V42.93a1.91,1.91,0,0,0,.48.32,5,5,0,0,0,.58.24c.21.06.41.11.62.15a4.13,4.13,0,0,0,.58,0,2.2,2.2,0,0,0,1.35-.34,1.12,1.12,0,0,0,.45-1,1.15,1.15,0,0,0-.15-.59,1.76,1.76,0,0,0-.41-.46,4.57,4.57,0,0,0-.63-.4l-.77-.4c-.3-.15-.57-.3-.82-.45a3.54,3.54,0,0,1-.67-.5,2.3,2.3,0,0,1-.44-.63,1.86,1.86,0,0,1-.16-.81,1.88,1.88,0,0,1,.25-1,2,2,0,0,1,.67-.7,2.8,2.8,0,0,1,.93-.41,4.3,4.3,0,0,1,1.07-.14,4.08,4.08,0,0,1,1.81.3V37.3a3.24,3.24,0,0,0-1.91-.52,2.88,2.88,0,0,0-.65.07,1.78,1.78,0,0,0-.57.22,1.27,1.27,0,0,0-.41.39,1,1,0,0,0-.16.59,1.18,1.18,0,0,0,.12.55,1.31,1.31,0,0,0,.36.43,3,3,0,0,0,.57.38l.77.4a8.69,8.69,0,0,1,.86.46,4,4,0,0,1,.71.55,2.53,2.53,0,0,1,.48.66,1.84,1.84,0,0,1,.18.83,2.16,2.16,0,0,1-.24,1.06,2,2,0,0,1-.66.7,2.8,2.8,0,0,1-1,.39,5.24,5.24,0,0,1-1.14.12c-.13,0-.29,0-.49,0l-.6-.09a4.74,4.74,0,0,1-.57-.15A1.5,1.5,0,0,1,499.22,44.09Z" fill="#1e1e1e"/>
        <path d="M505.59,44.09V42.93a2.36,2.36,0,0,0,.48.32,5.19,5.19,0,0,0,.59.24,6.23,6.23,0,0,0,.62.15,3.88,3.88,0,0,0,.57,0,2.22,2.22,0,0,0,1.36-.34,1.12,1.12,0,0,0,.44-1,1.25,1.25,0,0,0-.14-.59,1.64,1.64,0,0,0-.42-.46,3.91,3.91,0,0,0-.62-.4l-.78-.4-.82-.45a3.81,3.81,0,0,1-.66-.5,1.94,1.94,0,0,1-.44-.63,1.86,1.86,0,0,1-.16-.81,1.88,1.88,0,0,1,.25-1,2.11,2.11,0,0,1,.66-.7,2.8,2.8,0,0,1,.93-.41,4.3,4.3,0,0,1,1.07-.14,4,4,0,0,1,1.81.3V37.3a3.22,3.22,0,0,0-1.91-.52,2.79,2.79,0,0,0-.64.07,1.62,1.62,0,0,0-.57.22,1.18,1.18,0,0,0-.41.39,1,1,0,0,0-.16.59,1.18,1.18,0,0,0,.12.55,1.41,1.41,0,0,0,.35.43,3.76,3.76,0,0,0,.57.38l.78.4a8.5,8.5,0,0,1,.85.46,4,4,0,0,1,.71.55,2.36,2.36,0,0,1,.49.66,1.84,1.84,0,0,1,.18.83,2.16,2.16,0,0,1-.25,1.06,2.07,2.07,0,0,1-.65.7,2.94,2.94,0,0,1-1,.39,5.09,5.09,0,0,1-1.13.12c-.14,0-.3,0-.49,0s-.4,0-.6-.09a4.45,4.45,0,0,1-.58-.15A1.64,1.64,0,0,1,505.59,44.09Z" fill="#1e1e1e"/>
        <path d="M512.36,44.43V36h2.32q4.44,0,4.44,4.1a4.12,4.12,0,0,1-1.23,3.12,4.55,4.55,0,0,1-3.3,1.18Zm1-7.51v6.62h1.25a3.55,3.55,0,0,0,2.57-.88,3.3,3.3,0,0,0,.92-2.51q0-3.23-3.43-3.23Z" fill="#1e1e1e"/>
      </g>
      <g>
        <path d="M178.67,44.58a3.92,3.92,0,0,1-2.94-1.17,4.23,4.23,0,0,1-1.14-3.06,4.54,4.54,0,0,1,1.16-3.23,4,4,0,0,1,3.05-1.23,3.8,3.8,0,0,1,2.91,1.18,4.34,4.34,0,0,1,1.11,3.11,4.43,4.43,0,0,1-1.15,3.19A4,4,0,0,1,178.67,44.58Zm.08-7.06a1.9,1.9,0,0,0-1.58.75,3.13,3.13,0,0,0-.59,2,3,3,0,0,0,.59,2,1.89,1.89,0,0,0,1.53.73,1.92,1.92,0,0,0,1.56-.71,3,3,0,0,0,.57-2,3.2,3.2,0,0,0-.56-2A1.79,1.79,0,0,0,178.75,37.52Z" fill="#1e1e1e"/>
        <path d="M191.27,44.44h-2.18l-1.3-2.17c-.1-.16-.19-.31-.28-.44a2.41,2.41,0,0,0-.28-.33,1.08,1.08,0,0,0-.28-.21.72.72,0,0,0-.33-.07h-.51v3.22h-1.89V36h3c2,0,3.06.76,3.06,2.29a2.38,2.38,0,0,1-.14.81,2.12,2.12,0,0,1-.38.67,2.48,2.48,0,0,1-.59.52,3.68,3.68,0,0,1-.78.34v0a1,1,0,0,1,.36.19,2.45,2.45,0,0,1,.34.31,3.05,3.05,0,0,1,.32.38,4.56,4.56,0,0,1,.27.39Zm-5.16-7v2.34h.82a1.38,1.38,0,0,0,1-.35,1.19,1.19,0,0,0,.37-.89c0-.73-.43-1.1-1.31-1.1Z" fill="#1e1e1e"/>
      </g>
      <g>
        <path d="M354.74,44.58a3.92,3.92,0,0,1-2.94-1.17,4.23,4.23,0,0,1-1.14-3.06,4.54,4.54,0,0,1,1.16-3.23,4,4,0,0,1,3.06-1.23,3.8,3.8,0,0,1,2.91,1.18,4.34,4.34,0,0,1,1.11,3.11,4.44,4.44,0,0,1-1.16,3.19A3.92,3.92,0,0,1,354.74,44.58Zm.08-7.06a1.9,1.9,0,0,0-1.58.75,3.13,3.13,0,0,0-.58,2,3,3,0,0,0,.58,2,2,2,0,0,0,3.09,0,3,3,0,0,0,.57-2,3.27,3.27,0,0,0-.55-2A1.81,1.81,0,0,0,354.82,37.52Z" fill="#1e1e1e"/>
        <path d="M367.34,44.44h-2.17l-1.31-2.17c-.1-.16-.19-.31-.28-.44a2.39,2.39,0,0,0-.27-.33,1.32,1.32,0,0,0-.29-.21.72.72,0,0,0-.33-.07h-.51v3.22h-1.89V36h3c2,0,3.06.76,3.06,2.29a2.38,2.38,0,0,1-.14.81,2.12,2.12,0,0,1-.38.67,2.48,2.48,0,0,1-.59.52,3.47,3.47,0,0,1-.78.34v0a1.18,1.18,0,0,1,.37.19,3.18,3.18,0,0,1,.34.31,4.23,4.23,0,0,1,.31.38,4.56,4.56,0,0,1,.27.39Zm-5.16-7v2.34H363a1.37,1.37,0,0,0,1-.35,1.19,1.19,0,0,0,.38-.89c0-.73-.44-1.1-1.32-1.1Z" fill="#1e1e1e"/>
      </g>
    </g>
  </g>
</svg>
