<svg xmlns="http://www.w3.org/2000/svg" xmlns:xlink="http://www.w3.org/1999/xlink" viewBox="0 0 455 235">
  <defs>
    <linearGradient id="linear-gradient" x1="20.44" y1="604" x2="20.44" y2="574.16" gradientTransform="matrix(1, 0, 0, -1, 0, 604)" gradientUnits="userSpaceOnUse">
      <stop offset="0" stop-color="#5ea0ef"/>
      <stop offset="0.18" stop-color="#559cec"/>
      <stop offset="0.47" stop-color="#3c91e5"/>
      <stop offset="0.84" stop-color="#1380da"/>
      <stop offset="1" stop-color="#0078d4"/>
    </linearGradient>
    <linearGradient id="linear-gradient-2" x1="15.45" y1="573.84" x2="15.45" y2="588.3" gradientTransform="matrix(1, 0, 0, -1, 0, 604)" gradientUnits="userSpaceOnUse">
      <stop offset="0" stop-color="#198ab3"/>
      <stop offset="0.14" stop-color="#22a5cb"/>
      <stop offset="0.3" stop-color="#29bade"/>
      <stop offset="0.47" stop-color="#2ec9eb"/>
      <stop offset="0.68" stop-color="#31d1f3"/>
      <stop offset="1" stop-color="#32d4f5"/>
    </linearGradient>
    <linearGradient id="linear-gradient-3" x1="99.94" y1="29.6" x2="99.94" y2="94.48" gradientTransform="matrix(1, 0, 0, 1, 0, 0)" xlink:href="#linear-gradient"/>
    <linearGradient id="linear-gradient-4" x1="239.94" y1="29.6" x2="239.94" y2="94.48" gradientTransform="matrix(1, 0, 0, 1, 0, 0)" xlink:href="#linear-gradient"/>
    <linearGradient id="linear-gradient-5" x1="379.94" y1="29.6" x2="379.94" y2="94.48" gradientTransform="matrix(1, 0, 0, 1, 0, 0)" xlink:href="#linear-gradient"/>
  </defs>
  <g id="Shapes">
    <rect width="455" height="235" fill="#fff"/>
    <g>
      <rect x="35" y="135" width="130" height="40" fill="#fff"/>
      <rect x="35" y="135" width="130" height="40" fill="#3c3c41" opacity="0.15"/>
      <rect x="35" y="135" width="130" height="40" fill="none" stroke="#3c3c41" stroke-miterlimit="10" stroke-width="0.5" opacity="0.5"/>
    </g>
    <g>
      <rect x="20" y="20" width="435" height="85" fill="#fff"/>
      <rect x="20" y="20" width="435" height="85" fill="#0072c6" opacity="0.05"/>
      <rect x="20" y="20" width="435" height="85" fill="none" stroke="#0072c6" stroke-miterlimit="10" stroke-width="0.5" opacity="0.6"/>
    </g>
    <g id="b1186d34-5ca3-4e43-992d-40ecef5e891b">
      <g>
        <path d="M28.21,0H12.69a1,1,0,0,0-1,1V23.11a19,19,0,0,1,2.51-1.78h2.94l1.63,2.17v3.27l-2.05,1.49-2.85-.35-2.18-2.06v3a1,1,0,0,0,1,1H28.21a1,1,0,0,0,1-1V1A1,1,0,0,0,28.21,0Z" fill="url(#linear-gradient)"/>
        <path id="af47f827-8b1b-4acd-8974-8eafe35490c9" d="M14,3.1h2.85a.25.25,0,0,1,.25.25h0V7a.25.25,0,0,1-.25.25H14A.25.25,0,0,1,13.75,7h0V3.35A.25.25,0,0,1,14,3.1Zm5,0h2.86a.25.25,0,0,1,.24.25h0V7a.25.25,0,0,1-.24.25H19A.25.25,0,0,1,18.76,7h0V3.35A.25.25,0,0,1,19,3.1Zm5,0H26.9a.25.25,0,0,1,.25.25h0V7a.25.25,0,0,1-.25.25H24A.25.25,0,0,1,23.8,7h0V3.35A.25.25,0,0,1,24,3.1ZM14,9.76h2.85a.25.25,0,0,1,.25.25h0v3.72a.25.25,0,0,1-.25.25H14a.25.25,0,0,1-.25-.25h0V10.05A.24.24,0,0,1,14,9.77Zm5,0h2.86a.25.25,0,0,1,.24.25h0v3.72a.25.25,0,0,1-.24.25H19a.25.25,0,0,1-.25-.25h0V10.05A.25.25,0,0,1,19,9.77Zm5,0H26.9a.25.25,0,0,1,.25.25h0v3.72a.25.25,0,0,1-.25.25H24a.25.25,0,0,1-.24-.25h0V10.05A.24.24,0,0,1,24,9.77ZM14,16.5h2.85a.25.25,0,0,1,.25.24h0v3.65a.25.25,0,0,1-.25.25H14a.25.25,0,0,1-.25-.25V16.74A.25.25,0,0,1,14,16.5Zm5,0h2.86a.24.24,0,0,1,.24.24h0v3.65a.25.25,0,0,1-.24.25H19a.25.25,0,0,1-.25-.25h0V16.74A.25.25,0,0,1,19,16.5Zm0,6.69h2.86a.25.25,0,0,1,.24.25h0V28.9a.25.25,0,0,1-.24.25H19a.25.25,0,0,1-.25-.25V23.44a.26.26,0,0,1,.25-.25Zm5-6.69H26.9a.25.25,0,0,1,.25.24h0v3.65a.25.25,0,0,1-.25.25H24a.25.25,0,0,1-.24-.25h0V16.74A.24.24,0,0,1,24,16.5Z" fill="#f2f2f2"/>
        <path d="M15.49,22.17a2.31,2.31,0,0,0-2.2,1.77h-8a5,5,0,0,0-.15,1.15v.11h8.12a2.28,2.28,0,1,0,2.2-3Z" fill="#50e6ff"/>
        <path d="M21.69,21.21a5.78,5.78,0,0,0-6-5.51A5.93,5.93,0,0,0,10,19.56a5.65,5.65,0,0,0-4.5,3.55h7.34a3,3,0,1,1-.05,2.6H5.3A5.67,5.67,0,0,0,10.93,30H21a4.65,4.65,0,0,0,4.6-4.29A4.6,4.6,0,0,0,21.69,21.21Z" fill="url(#linear-gradient-2)"/>
        <path d="M15.49,22.17a2.31,2.31,0,0,0-2.2,1.77h-8a4,4,0,0,1-.84-.11,4,4,0,0,1,.45-7.94h.39l.12-.35a4.54,4.54,0,0,1,4.36-3,4.69,4.69,0,0,1,4,2.25,5.38,5.38,0,0,1,1.33-.16,5.89,5.89,0,0,0-5.32-3.35,5.8,5.8,0,0,0-5.47,3.46A5.21,5.21,0,0,0,4,24.91H4a3.54,3.54,0,0,0,1.29.22h8a2.29,2.29,0,1,0,2.2-3Z" fill="#50e6ff"/>
      </g>
    </g>
    <g>
      <rect x="34.89" y="29.6" width="130.11" height="64.88" fill="#fff"/>
      <rect x="34.89" y="29.6" width="130.11" height="64.88" opacity="0.5" fill="url(#linear-gradient-3)"/>
    </g>
    <g>
      <rect x="174.89" y="29.6" width="130.11" height="64.88" fill="#fff"/>
      <rect x="174.89" y="29.6" width="130.11" height="64.88" opacity="0.5" fill="url(#linear-gradient-4)"/>
    </g>
    <g>
      <rect x="314.89" y="29.6" width="130.11" height="64.88" fill="#fff"/>
      <rect x="314.89" y="29.6" width="130.11" height="64.88" opacity="0.5" fill="url(#linear-gradient-5)"/>
    </g>
    <g>
      <line x1="99.94" y1="94.6" x2="99.94" y2="129.62" fill="none" stroke="#3c3c41" stroke-miterlimit="10"/>
      <polygon points="96.2 128.52 99.94 135 103.68 128.52 96.2 128.52" fill="#3c3c41"/>
    </g>
    <g>
      <line x1="100" y1="175" x2="100" y2="189.37" fill="none" stroke="#3c3c41" stroke-miterlimit="10"/>
      <polygon points="96.26 188.27 100 194.75 103.74 188.27 96.26 188.27" fill="#3c3c41"/>
    </g>
    <g>
      <line x1="310" y1="175" x2="310" y2="189.37" fill="none" stroke="#3c3c41" stroke-miterlimit="10"/>
      <polygon points="306.26 188.27 310 194.75 313.74 188.27 306.26 188.27" fill="#3c3c41"/>
    </g>
    <g>
      <rect x="175" y="135" width="270" height="40" fill="#fff"/>
      <rect x="175" y="135" width="270" height="40" fill="#3c3c41" opacity="0.15"/>
      <rect x="175" y="135" width="270" height="40" fill="none" stroke="#3c3c41" stroke-miterlimit="10" stroke-width="0.5" opacity="0.5"/>
    </g>
    <g>
      <rect x="30" y="194.75" width="415" height="40" fill="#fff"/>
      <rect x="30" y="194.75" width="415" height="40" fill="#3c3c41" opacity="0.15"/>
      <rect x="30" y="194.75" width="415" height="40" fill="none" stroke="#3c3c41" stroke-miterlimit="10" stroke-width="0.5" opacity="0.5"/>
    </g>
    <g>
      <line x1="239.94" y1="94.6" x2="239.94" y2="129.62" fill="none" stroke="#3c3c41" stroke-miterlimit="10"/>
      <polygon points="236.2 128.52 239.94 135 243.68 128.52 236.2 128.52" fill="#3c3c41"/>
    </g>
    <g>
      <line x1="190" y1="155" x2="189.25" y2="155" fill="none" stroke="#3c3c41" stroke-miterlimit="10"/>
      <line x1="186.77" y1="155" x2="152.37" y2="155" fill="none" stroke="#3c3c41" stroke-miterlimit="10" stroke-dasharray="1.49 2.48"/>
      <line x1="151.13" y1="155" x2="150.38" y2="155" fill="none" stroke="#3c3c41" stroke-miterlimit="10"/>
      <polygon points="151.48 151.26 145 155 151.48 158.74 151.48 151.26" fill="#3c3c41"/>
    </g>
    <g>
      <line x1="379.94" y1="94.6" x2="379.94" y2="129.62" fill="none" stroke="#3c3c41" stroke-miterlimit="10"/>
      <polygon points="376.2 128.52 379.94 135 383.68 128.52 376.2 128.52" fill="#3c3c41"/>
    </g>
  </g>
  <g id="Text">
    <g>
      <path d="M80.16,151.88h-1v-5.63c0-.45,0-1,.09-1.64h0a5.64,5.64,0,0,1-.25.82l-2.87,6.45h-.48l-2.87-6.41a5.3,5.3,0,0,1-.25-.86h0c0,.34,0,.89,0,1.65v5.62h-1v-8.4h1.3l2.58,5.86a8.52,8.52,0,0,1,.38,1h0c.16-.46.3-.81.4-1l2.63-5.84h1.23Z" fill="#1e1e1e"/>
      <path d="M84.68,152a2.79,2.79,0,0,1-2.13-.84,3.15,3.15,0,0,1-.79-2.23,3.26,3.26,0,0,1,.83-2.36,3,3,0,0,1,2.23-.85,2.69,2.69,0,0,1,2.09.83,3.75,3.75,0,0,1,0,4.59A2.85,2.85,0,0,1,84.68,152Zm.07-5.47a1.84,1.84,0,0,0-1.47.63,2.59,2.59,0,0,0-.53,1.74,2.46,2.46,0,0,0,.54,1.68,1.85,1.85,0,0,0,1.46.61,1.75,1.75,0,0,0,1.43-.6,2.58,2.58,0,0,0,.5-1.72,2.62,2.62,0,0,0-.5-1.73A1.73,1.73,0,0,0,84.75,146.55Z" fill="#1e1e1e"/>
      <path d="M94.13,151.88h-1v-3.42c0-1.27-.47-1.91-1.4-1.91a1.52,1.52,0,0,0-1.19.54,2,2,0,0,0-.47,1.37v3.42h-1v-6h1v1h0a2.17,2.17,0,0,1,2-1.14,1.83,1.83,0,0,1,1.51.64,2.85,2.85,0,0,1,.52,1.83Z" fill="#1e1e1e"/>
      <path d="M96.35,144.36a.6.6,0,0,1-.44-.18.57.57,0,0,1-.18-.44.61.61,0,0,1,.18-.45.6.6,0,0,1,.44-.18.61.61,0,0,1,.45.18.62.62,0,0,1,0,.89A.61.61,0,0,1,96.35,144.36Zm.47,7.52h-1v-6h1Z" fill="#1e1e1e"/>
      <path d="M101.5,151.82a1.8,1.8,0,0,1-.9.19c-1,0-1.57-.58-1.57-1.76V146.7H98v-.82h1v-1.46l1-.31v1.77h1.51v.82H100v3.38a1.49,1.49,0,0,0,.2.87.83.83,0,0,0,.68.25,1,1,0,0,0,.63-.2Z" fill="#1e1e1e"/>
      <path d="M105.16,152a2.77,2.77,0,0,1-2.12-.84,3.11,3.11,0,0,1-.8-2.23,3.26,3.26,0,0,1,.83-2.36,3,3,0,0,1,2.23-.85,2.71,2.71,0,0,1,2.1.83,3.27,3.27,0,0,1,.75,2.29,3.23,3.23,0,0,1-.81,2.3A2.83,2.83,0,0,1,105.16,152Zm.07-5.47a1.81,1.81,0,0,0-1.46.63,2.59,2.59,0,0,0-.54,1.74,2.46,2.46,0,0,0,.54,1.68,1.85,1.85,0,0,0,1.46.61,1.75,1.75,0,0,0,1.43-.6,2.58,2.58,0,0,0,.5-1.72,2.62,2.62,0,0,0-.5-1.73A1.73,1.73,0,0,0,105.23,146.55Z" fill="#1e1e1e"/>
      <path d="M112.76,146.86a1.18,1.18,0,0,0-.73-.2,1.25,1.25,0,0,0-1,.58,2.74,2.74,0,0,0-.41,1.58v3.06h-1v-6h1v1.24h0a2.17,2.17,0,0,1,.63-1,1.46,1.46,0,0,1,.94-.35,1.49,1.49,0,0,1,.58.08Z" fill="#1e1e1e"/>
      <path d="M114.32,144.36a.58.58,0,0,1-.43-.18.55.55,0,0,1-.19-.44.63.63,0,0,1,.62-.63.61.61,0,0,1,.45.18.58.58,0,0,1,.19.45.58.58,0,0,1-.19.44A.61.61,0,0,1,114.32,144.36Zm.47,7.52h-1v-6h1Z" fill="#1e1e1e"/>
      <path d="M121.6,151.88h-1v-3.42c0-1.27-.47-1.91-1.39-1.91a1.52,1.52,0,0,0-1.2.54,2,2,0,0,0-.47,1.37v3.42h-1v-6h1v1h0a2.17,2.17,0,0,1,2-1.14,1.83,1.83,0,0,1,1.51.64,2.79,2.79,0,0,1,.52,1.83Z" fill="#1e1e1e"/>
      <path d="M128.53,151.4q0,3.32-3.16,3.31a4.31,4.31,0,0,1-2-.42v-1a4,4,0,0,0,1.94.57c1.47,0,2.21-.79,2.21-2.36v-.66h0a2.43,2.43,0,0,1-3.87.35,3.21,3.21,0,0,1-.68-2.14,3.78,3.78,0,0,1,.74-2.44,2.46,2.46,0,0,1,2-.9,2,2,0,0,1,1.8,1h0v-.83h1Zm-1-2.23v-.88a1.73,1.73,0,0,0-.48-1.23,1.6,1.6,0,0,0-1.21-.51,1.68,1.68,0,0,0-1.39.65A2.85,2.85,0,0,0,124,149a2.48,2.48,0,0,0,.48,1.6,1.56,1.56,0,0,0,1.28.6,1.65,1.65,0,0,0,1.31-.57A2.12,2.12,0,0,0,127.57,149.17Z" fill="#1e1e1e"/>
      <path d="M79,165.94v-1.16a2.36,2.36,0,0,0,.48.32,5.19,5.19,0,0,0,.59.24,6.23,6.23,0,0,0,.62.15,3.88,3.88,0,0,0,.57,0,2.22,2.22,0,0,0,1.36-.34,1.13,1.13,0,0,0,.44-1,1.25,1.25,0,0,0-.14-.59,1.64,1.64,0,0,0-.42-.46,3.91,3.91,0,0,0-.62-.4l-.78-.4-.82-.45a3.81,3.81,0,0,1-.66-.5,2.05,2.05,0,0,1-.44-.63A1.88,1.88,0,0,1,79,160a1.93,1.93,0,0,1,.25-1,2.32,2.32,0,0,1,.66-.7,3,3,0,0,1,.93-.41,4.29,4.29,0,0,1,1.07-.13,4,4,0,0,1,1.81.3v1.11a3.22,3.22,0,0,0-1.91-.52,2.79,2.79,0,0,0-.64.07,1.62,1.62,0,0,0-.57.22,1.18,1.18,0,0,0-.41.39,1,1,0,0,0-.16.59,1.18,1.18,0,0,0,.12.55,1.41,1.41,0,0,0,.35.43,4.69,4.69,0,0,0,.57.38l.78.39c.3.15.59.31.85.47a4,4,0,0,1,.71.55,2.36,2.36,0,0,1,.49.66,1.84,1.84,0,0,1,.18.83,2.09,2.09,0,0,1-.25,1.05,2,2,0,0,1-.65.7,2.94,2.94,0,0,1-1,.39,5.15,5.15,0,0,1-1.13.12l-.49,0q-.3,0-.6-.09a4.45,4.45,0,0,1-.58-.15A2,2,0,0,1,79,165.94Z" fill="#1e1e1e"/>
      <path d="M88.09,166.42a2.79,2.79,0,0,1-2.13-.84,3.15,3.15,0,0,1-.79-2.23A3.26,3.26,0,0,1,86,161a3,3,0,0,1,2.23-.85,2.69,2.69,0,0,1,2.09.83,3.75,3.75,0,0,1,0,4.59A2.85,2.85,0,0,1,88.09,166.42Zm.07-5.47a1.84,1.84,0,0,0-1.47.63,2.59,2.59,0,0,0-.54,1.74A2.46,2.46,0,0,0,86.7,165a1.85,1.85,0,0,0,1.46.61,1.75,1.75,0,0,0,1.43-.6,2.58,2.58,0,0,0,.5-1.72,2.62,2.62,0,0,0-.5-1.73A1.73,1.73,0,0,0,88.16,161Z" fill="#1e1e1e"/>
      <path d="M93.51,166.28h-1V157.4h1Z" fill="#1e1e1e"/>
      <path d="M100.24,166.28h-1v-.95h0a2,2,0,0,1-1.85,1.09c-1.43,0-2.15-.85-2.15-2.55v-3.59h1v3.44c0,1.26.48,1.89,1.45,1.89a1.5,1.5,0,0,0,1.16-.51,2,2,0,0,0,.45-1.36v-3.46h1Z" fill="#1e1e1e"/>
      <path d="M104.92,166.22a1.82,1.82,0,0,1-.9.19c-1,0-1.58-.58-1.58-1.76V161.1h-1v-.82h1v-1.46l1-.31v1.77h1.51v.82h-1.51v3.38a1.41,1.41,0,0,0,.2.87.82.82,0,0,0,.68.25,1,1,0,0,0,.63-.2Z" fill="#1e1e1e"/>
      <path d="M106.6,158.76a.6.6,0,0,1-.44-.18.57.57,0,0,1-.18-.44.61.61,0,0,1,.18-.45.6.6,0,0,1,.44-.18.61.61,0,0,1,.45.18.62.62,0,0,1,0,.89A.61.61,0,0,1,106.6,158.76Zm.47,7.52h-1v-6h1Z" fill="#1e1e1e"/>
      <path d="M111.45,166.42a2.79,2.79,0,0,1-2.13-.84,3.1,3.1,0,0,1-.79-2.23,3.22,3.22,0,0,1,.83-2.36,3,3,0,0,1,2.23-.85,2.69,2.69,0,0,1,2.09.83,3.28,3.28,0,0,1,.76,2.29,3.19,3.19,0,0,1-.82,2.3A2.81,2.81,0,0,1,111.45,166.42Zm.07-5.47a1.84,1.84,0,0,0-1.47.63,2.59,2.59,0,0,0-.54,1.74,2.46,2.46,0,0,0,.55,1.68,1.85,1.85,0,0,0,1.46.61A1.75,1.75,0,0,0,113,165a2.63,2.63,0,0,0,.5-1.72,2.68,2.68,0,0,0-.5-1.73A1.73,1.73,0,0,0,111.52,161Z" fill="#1e1e1e"/>
      <path d="M120.9,166.28h-1v-3.42c0-1.27-.47-1.91-1.4-1.91a1.5,1.5,0,0,0-1.19.54,2,2,0,0,0-.47,1.37v3.42h-1v-6h1v1h0a2.16,2.16,0,0,1,2-1.14,1.83,1.83,0,0,1,1.51.64,2.85,2.85,0,0,1,.52,1.83Z" fill="#1e1e1e"/>
    </g>
    <g>
      <path d="M41.56,12.88H39.5L38.9,11h-3l-.6,1.87h-2l3.06-8.4h2.25ZM38.47,9.56l-.9-2.82A3.69,3.69,0,0,1,37.43,6h0a3.06,3.06,0,0,1-.15.73l-.91,2.85Z" fill="#1e1e1e"/>
      <path d="M47.18,12.88H41.8v-.76l3-3.87H42.1V6.88h5.06V7.8l-2.85,3.72h2.87Z" fill="#1e1e1e"/>
      <path d="M53.88,12.88H52V12h0A2.09,2.09,0,0,1,50.17,13c-1.39,0-2.08-.84-2.08-2.53V6.88h1.84v3.46c0,.85.34,1.27,1,1.27a1,1,0,0,0,.8-.35,1.4,1.4,0,0,0,.3-.94V6.88h1.84Z" fill="#1e1e1e"/>
      <path d="M59.35,8.55a1.61,1.61,0,0,0-.78-.18,1.14,1.14,0,0,0-.94.44A1.93,1.93,0,0,0,57.29,10v2.86H55.44v-6h1.85V8h0A1.6,1.6,0,0,1,58.9,6.78a1.12,1.12,0,0,1,.45.07Z" fill="#1e1e1e"/>
      <path d="M65.56,10.41H61.64c.07.87.62,1.31,1.65,1.31A3.24,3.24,0,0,0,65,11.25v1.33a4.5,4.5,0,0,1-2.16.45,3,3,0,0,1-2.26-.81,3,3,0,0,1-.8-2.24,3.2,3.2,0,0,1,.87-2.37,2.9,2.9,0,0,1,2.13-.87,2.62,2.62,0,0,1,2,.78,3,3,0,0,1,.72,2.11ZM63.84,9.27c0-.86-.35-1.29-1-1.29a1,1,0,0,0-.77.37,1.72,1.72,0,0,0-.4.92Z" fill="#1e1e1e"/>
      <path d="M69.77,12.56V10.69a3.81,3.81,0,0,0,1.1.64,3.63,3.63,0,0,0,1.21.21,2.77,2.77,0,0,0,.62-.06,1.91,1.91,0,0,0,.45-.18.87.87,0,0,0,.27-.27.81.81,0,0,0,.08-.34.7.7,0,0,0-.14-.44A1.47,1.47,0,0,0,73,9.89a4.35,4.35,0,0,0-.58-.31c-.22-.1-.46-.21-.72-.31a3.91,3.91,0,0,1-1.47-1,2.23,2.23,0,0,1-.48-1.43A2.33,2.33,0,0,1,70,5.71a2.25,2.25,0,0,1,.72-.78,3.44,3.44,0,0,1,1.05-.45A5.75,5.75,0,0,1,73,4.34a7.92,7.92,0,0,1,1.16.08,4.46,4.46,0,0,1,.94.24V6.41a3.37,3.37,0,0,0-.46-.25A3.24,3.24,0,0,0,74.15,6a4.82,4.82,0,0,0-.52-.11l-.5,0a2.58,2.58,0,0,0-.58.06,1.57,1.57,0,0,0-.45.17,1,1,0,0,0-.28.27.68.68,0,0,0-.1.35.73.73,0,0,0,.11.38,1.36,1.36,0,0,0,.32.31,3.66,3.66,0,0,0,.5.3l.66.29a7,7,0,0,1,.91.45A3.37,3.37,0,0,1,74.9,9a1.82,1.82,0,0,1,.44.68,2.21,2.21,0,0,1,.16.89,2.37,2.37,0,0,1-.27,1.18,2.25,2.25,0,0,1-.72.78,3.42,3.42,0,0,1-1.07.42,5.85,5.85,0,0,1-1.28.13,6.86,6.86,0,0,1-1.31-.12A3.81,3.81,0,0,1,69.77,12.56Z" fill="#1e1e1e"/>
      <path d="M80,12.81a2.7,2.7,0,0,1-1.24.22,1.76,1.76,0,0,1-2-2V8.25h-1V6.88h1V5.59l1.85-.53V6.88H80V8.25H78.68v2.42c0,.63.25.94.74.94a1.31,1.31,0,0,0,.61-.17Z" fill="#1e1e1e"/>
      <path d="M86.06,12.88H84.31V12h0a2,2,0,0,1-1.79,1,1.9,1.9,0,0,1-1.38-.5,1.79,1.79,0,0,1-.5-1.32q0-1.74,2.07-2L84.32,9c0-.66-.36-1-1.07-1a3.7,3.7,0,0,0-2,.63V7.24a4.85,4.85,0,0,1,1.06-.35,5.7,5.7,0,0,1,1.22-.15A2.26,2.26,0,0,1,86.06,9.3Zm-1.74-2.43V10l-1.09.14c-.6.08-.9.35-.9.82a.64.64,0,0,0,.22.51.8.8,0,0,0,.59.21,1.1,1.1,0,0,0,.85-.36A1.31,1.31,0,0,0,84.32,10.45Z" fill="#1e1e1e"/>
      <path d="M92.07,12.67a3.69,3.69,0,0,1-1.81.36A3.06,3.06,0,0,1,88,12.19,2.89,2.89,0,0,1,87.17,10a3.19,3.19,0,0,1,.91-2.41,3.4,3.4,0,0,1,2.46-.88A3.1,3.1,0,0,1,92.07,7V8.59a2.1,2.1,0,0,0-1.29-.44,1.61,1.61,0,0,0-1.73,1.76,1.75,1.75,0,0,0,.44,1.25,1.66,1.66,0,0,0,1.23.45,2.42,2.42,0,0,0,1.35-.43Z" fill="#1e1e1e"/>
      <path d="M99.3,12.88H97.08l-1.92-3h0v3H93.29V4h1.85V9.65h0L97,6.88h2.19L97,9.7Z" fill="#1e1e1e"/>
      <path d="M110.76,12.88h-1.9V9.46h-3.48v3.42h-1.89V4.48h1.89V7.83h3.48V4.48h1.9Z" fill="#1e1e1e"/>
      <path d="M118.2,12.88h-1.85V12h0A2.07,2.07,0,0,1,114.49,13c-1.39,0-2.09-.84-2.09-2.53V6.88h1.85v3.46c0,.85.34,1.27,1,1.27a1,1,0,0,0,.79-.35,1.4,1.4,0,0,0,.3-.94V6.88h1.85Z" fill="#1e1e1e"/>
      <path d="M121.63,12.19h0v.69h-1.85V4h1.85V7.79h0a2.2,2.2,0,0,1,2-1,2.14,2.14,0,0,1,1.79.79A3.43,3.43,0,0,1,126,9.71a3.76,3.76,0,0,1-.73,2.41,2.38,2.38,0,0,1-2,.91A1.9,1.9,0,0,1,121.63,12.19Zm0-2.54v.62a1.4,1.4,0,0,0,.33,1,1.2,1.2,0,0,0,1.84-.11,2.36,2.36,0,0,0,.35-1.38,1.91,1.91,0,0,0-.32-1.17,1.08,1.08,0,0,0-.91-.42,1.16,1.16,0,0,0-.92.42A1.56,1.56,0,0,0,121.58,9.65Z" fill="#1e1e1e"/>
      <path d="M132.58,12.88h-1.89V4.48h1.89Z" fill="#1e1e1e"/>
      <path d="M140.11,12.88h-1.85V9.55c0-.93-.33-1.4-1-1.4a1,1,0,0,0-.8.37,1.46,1.46,0,0,0-.31.94v3.42h-1.85v-6h1.85v1h0a2.11,2.11,0,0,1,1.93-1.09c1.32,0,2,.82,2,2.47Z" fill="#1e1e1e"/>
      <path d="M145.2,12.81A2.67,2.67,0,0,1,144,13c-1.3,0-2-.68-2-2V8.25h-1V6.88h1V5.59l1.84-.53V6.88h1.35V8.25h-1.35v2.42c0,.63.25.94.75.94a1.31,1.31,0,0,0,.6-.17Z" fill="#1e1e1e"/>
      <path d="M151.59,10.41h-3.92c.06.87.61,1.31,1.65,1.31a3.24,3.24,0,0,0,1.74-.47v1.33a4.56,4.56,0,0,1-2.16.45,3,3,0,0,1-2.26-.81,3,3,0,0,1-.8-2.24,3.2,3.2,0,0,1,.87-2.37,2.87,2.87,0,0,1,2.13-.87,2.63,2.63,0,0,1,2,.78,3,3,0,0,1,.72,2.11Zm-1.72-1.14c0-.86-.35-1.29-1-1.29a1,1,0,0,0-.77.37,1.72,1.72,0,0,0-.4.92Z" fill="#1e1e1e"/>
      <path d="M158.57,12.2a3.36,3.36,0,0,1-1,2.58,3.86,3.86,0,0,1-2.8.92,4.43,4.43,0,0,1-1.92-.34V13.8a3.68,3.68,0,0,0,1.87.54,2,2,0,0,0,1.45-.5,1.76,1.76,0,0,0,.52-1.34V12h0a2.09,2.09,0,0,1-1.87,1,2.26,2.26,0,0,1-1.83-.81,3.27,3.27,0,0,1-.67-2.17,3.67,3.67,0,0,1,.75-2.42,2.47,2.47,0,0,1,2-.89,1.84,1.84,0,0,1,1.65.84h0v-.7h1.85ZM156.74,10V9.53a1.46,1.46,0,0,0-.33-1,1.1,1.1,0,0,0-.88-.41,1.15,1.15,0,0,0-1,.48,2.34,2.34,0,0,0-.35,1.36,1.9,1.9,0,0,0,.33,1.18,1.08,1.08,0,0,0,.92.44,1.16,1.16,0,0,0,.93-.44A1.87,1.87,0,0,0,156.74,10Z" fill="#1e1e1e"/>
      <path d="M164,8.55a1.61,1.61,0,0,0-.78-.18,1.14,1.14,0,0,0-.94.44A1.93,1.93,0,0,0,162,10v2.86h-1.85v-6H162V8h0a1.6,1.6,0,0,1,1.58-1.22,1.14,1.14,0,0,1,.46.07Z" fill="#1e1e1e"/>
      <path d="M169.88,12.88h-1.75V12h0a2,2,0,0,1-1.79,1,1.86,1.86,0,0,1-1.37-.5,1.75,1.75,0,0,1-.5-1.32q0-1.74,2.07-2L168.14,9c0-.66-.35-1-1.06-1a3.65,3.65,0,0,0-2,.63V7.24a4.67,4.67,0,0,1,1.06-.35,5.56,5.56,0,0,1,1.22-.15,2.26,2.26,0,0,1,2.56,2.56Zm-1.74-2.43V10l-1.09.14c-.6.08-.9.35-.9.82a.67.67,0,0,0,.22.51.84.84,0,0,0,.6.21,1.11,1.11,0,0,0,.85-.36A1.3,1.3,0,0,0,168.14,10.45Z" fill="#1e1e1e"/>
      <path d="M175,12.81a2.7,2.7,0,0,1-1.24.22,1.77,1.77,0,0,1-2-2V8.25h-1V6.88h1V5.59l1.85-.53V6.88H175V8.25h-1.35v2.42c0,.63.25.94.74.94a1.31,1.31,0,0,0,.61-.17Z" fill="#1e1e1e"/>
      <path d="M181.36,10.41h-3.91c.06.87.61,1.31,1.65,1.31a3.24,3.24,0,0,0,1.74-.47v1.33a4.57,4.57,0,0,1-2.17.45,3,3,0,0,1-2.25-.81,3,3,0,0,1-.8-2.24,3.2,3.2,0,0,1,.86-2.37,2.9,2.9,0,0,1,2.14-.87,2.63,2.63,0,0,1,2,.78,3,3,0,0,1,.71,2.11Zm-1.71-1.14Q179.65,8,178.6,8a1,1,0,0,0-.77.37,1.71,1.71,0,0,0-.39.92Z" fill="#1e1e1e"/>
      <path d="M188.34,12.88h-1.86v-.82h0a2.07,2.07,0,0,1-1.86,1,2.3,2.3,0,0,1-1.81-.79,3.33,3.33,0,0,1-.68-2.22,3.62,3.62,0,0,1,.75-2.39,2.5,2.5,0,0,1,2-.89,1.67,1.67,0,0,1,1.62.83h0V4h1.86ZM186.52,10V9.51a1.4,1.4,0,0,0-.34-1,1.2,1.2,0,0,0-1.85.1A2.23,2.23,0,0,0,184,10a2,2,0,0,0,.33,1.22,1.1,1.1,0,0,0,.93.43,1.13,1.13,0,0,0,.92-.45A1.92,1.92,0,0,0,186.52,10Z" fill="#1e1e1e"/>
      <path d="M193,12.56V10.69a3.86,3.86,0,0,0,1.11.64,3.61,3.61,0,0,0,1.2.21,2.93,2.93,0,0,0,.63-.06,1.82,1.82,0,0,0,.44-.18.87.87,0,0,0,.27-.27.69.69,0,0,0,.09-.34.77.77,0,0,0-.14-.44,1.52,1.52,0,0,0-.39-.36,4.88,4.88,0,0,0-.57-.31l-.72-.31a3.76,3.76,0,0,1-1.47-1A2.23,2.23,0,0,1,193,6.84a2.22,2.22,0,0,1,.27-1.13,2.07,2.07,0,0,1,.72-.78A3.33,3.33,0,0,1,195,4.48a5.72,5.72,0,0,1,1.26-.14,8.06,8.06,0,0,1,1.17.08,4.37,4.37,0,0,1,.93.24V6.41a2.87,2.87,0,0,0-.46-.25,3.13,3.13,0,0,0-.51-.19,5,5,0,0,0-.53-.11l-.49,0a2.68,2.68,0,0,0-.59.06,1.62,1.62,0,0,0-.44.17.91.91,0,0,0-.28.27.6.6,0,0,0-.1.35.65.65,0,0,0,.11.38,1.3,1.3,0,0,0,.31.31,4.4,4.4,0,0,0,.5.3l.66.29a7,7,0,0,1,.91.45,3.18,3.18,0,0,1,.69.54,2,2,0,0,1,.44.68,2.4,2.4,0,0,1,.15.89,2.37,2.37,0,0,1-.27,1.18,2.16,2.16,0,0,1-.72.78,3.36,3.36,0,0,1-1.06.42,5.91,5.91,0,0,1-1.28.13,7,7,0,0,1-1.32-.12A3.92,3.92,0,0,1,193,12.56Z" fill="#1e1e1e"/>
      <path d="M205.35,6.88l-2.44,6.48c-.59,1.56-1.47,2.34-2.65,2.34a3.46,3.46,0,0,1-1.11-.15V14.07a1.54,1.54,0,0,0,.81.22,1,1,0,0,0,1-.67l.32-.75-2.44-6h2L202,10.53a4.14,4.14,0,0,1,.16.81h0a5.62,5.62,0,0,1,.19-.8l1.13-3.66Z" fill="#1e1e1e"/>
      <path d="M205.7,12.72v-1.5a3.66,3.66,0,0,0,.91.41,3,3,0,0,0,.86.14,1.83,1.83,0,0,0,.77-.14.43.43,0,0,0,.29-.41.41.41,0,0,0-.13-.29,1.32,1.32,0,0,0-.33-.2l-.44-.16-.47-.16a4.68,4.68,0,0,1-.63-.29,1.62,1.62,0,0,1-.45-.36,1.53,1.53,0,0,1-.29-.47,2.06,2.06,0,0,1-.09-.64,1.61,1.61,0,0,1,.22-.87,1.84,1.84,0,0,1,.58-.6,3.15,3.15,0,0,1,.84-.34,4.53,4.53,0,0,1,1-.1,5.52,5.52,0,0,1,.81.06,5.88,5.88,0,0,1,.81.18V8.41a2.9,2.9,0,0,0-.75-.31,3.11,3.11,0,0,0-.79-.1,1.79,1.79,0,0,0-.34,0,1.1,1.1,0,0,0-.29.09.6.6,0,0,0-.19.16.34.34,0,0,0-.07.22.4.4,0,0,0,.1.28.84.84,0,0,0,.28.2,2.72,2.72,0,0,0,.38.16l.41.13a6.16,6.16,0,0,1,.67.28,2.55,2.55,0,0,1,.51.36,1.58,1.58,0,0,1,.33.48,1.86,1.86,0,0,1,.11.66,1.67,1.67,0,0,1-.23.91,1.9,1.9,0,0,1-.61.62,3,3,0,0,1-.89.34,5,5,0,0,1-1,.11A5.17,5.17,0,0,1,205.7,12.72Z" fill="#1e1e1e"/>
      <path d="M215,12.81a2.7,2.7,0,0,1-1.24.22,1.77,1.77,0,0,1-2-2V8.25h-1V6.88h1V5.59l1.85-.53V6.88H215V8.25h-1.35v2.42c0,.63.25.94.74.94a1.31,1.31,0,0,0,.61-.17Z" fill="#1e1e1e"/>
      <path d="M221.38,10.41h-3.91c.06.87.61,1.31,1.65,1.31a3.24,3.24,0,0,0,1.74-.47v1.33a4.57,4.57,0,0,1-2.17.45,3,3,0,0,1-2.25-.81,3,3,0,0,1-.81-2.24,3.2,3.2,0,0,1,.87-2.37,2.9,2.9,0,0,1,2.13-.87,2.64,2.64,0,0,1,2,.78,3,3,0,0,1,.71,2.11Zm-1.71-1.14q0-1.29-1-1.29a1,1,0,0,0-.77.37,1.71,1.71,0,0,0-.39.92Z" fill="#1e1e1e"/>
      <path d="M232,12.88h-1.84V9.46c0-.87-.32-1.31-1-1.31a.9.9,0,0,0-.75.4,1.61,1.61,0,0,0-.29,1v3.35h-1.85V9.43c0-.85-.31-1.28-.94-1.28a.91.91,0,0,0-.76.38,1.65,1.65,0,0,0-.28,1v3.33h-1.86v-6h1.86v.94h0a2.17,2.17,0,0,1,.81-.78,2.2,2.2,0,0,1,1.13-.3A1.72,1.72,0,0,1,228,7.86a2.21,2.21,0,0,1,2-1.12c1.31,0,2,.8,2,2.41Z" fill="#1e1e1e"/>
    </g>
    <g>
      <path d="M61.31,49.6H59.25l-.6-1.87h-3l-.59,1.87H53l3.06-8.4h2.24Zm-3.09-3.32-.91-2.83a4.38,4.38,0,0,1-.14-.75h0a3.16,3.16,0,0,1-.15.73l-.91,2.85Z" fill="#1e1e1e"/>
      <path d="M67.24,49.6H61.85v-.77l3-3.86H62.15V43.6h5.06v.91l-2.85,3.73h2.88Z" fill="#1e1e1e"/>
      <path d="M74,49.6H72.16v-.91h0a2.12,2.12,0,0,1-1.84,1.06c-1.39,0-2.08-.84-2.08-2.53V43.6h1.84v3.46c0,.85.34,1.27,1,1.27a1,1,0,0,0,.8-.35,1.41,1.41,0,0,0,.3-.95V43.6H74Z" fill="#1e1e1e"/>
      <path d="M79.44,45.27a1.61,1.61,0,0,0-.78-.18,1.14,1.14,0,0,0-.94.44,1.93,1.93,0,0,0-.34,1.21V49.6H75.53v-6h1.85v1.11h0A1.6,1.6,0,0,1,79,43.5a1.12,1.12,0,0,1,.45.07Z" fill="#1e1e1e"/>
      <path d="M85.77,47.13H81.86c.06.87.61,1.3,1.64,1.3A3.23,3.23,0,0,0,85.24,48V49.3a4.5,4.5,0,0,1-2.16.45A2.8,2.8,0,0,1,80,46.69a3.19,3.19,0,0,1,.87-2.36A2.91,2.91,0,0,1,83,43.45a2.62,2.62,0,0,1,2,.78,3,3,0,0,1,.72,2.12ZM84.05,46c0-.86-.34-1.29-1-1.29a1,1,0,0,0-.77.37,1.68,1.68,0,0,0-.4.92Z" fill="#1e1e1e"/>
      <path d="M90,49.28V47.4a3.52,3.52,0,0,0,1.1.64,3.44,3.44,0,0,0,1.21.22,2.38,2.38,0,0,0,.63-.07,1.62,1.62,0,0,0,.44-.17.87.87,0,0,0,.27-.27.69.69,0,0,0,.09-.34.71.71,0,0,0-.15-.44,1.47,1.47,0,0,0-.38-.36,3.44,3.44,0,0,0-.58-.31c-.22-.11-.46-.21-.72-.31a3.7,3.7,0,0,1-1.46-1,2.14,2.14,0,0,1-.49-1.43,2.21,2.21,0,0,1,.27-1.12,2.13,2.13,0,0,1,.71-.78A3.5,3.5,0,0,1,92,41.2a5.66,5.66,0,0,1,1.26-.14,6.67,6.67,0,0,1,1.16.08,4.46,4.46,0,0,1,.94.24v1.75a3.42,3.42,0,0,0-.46-.26l-.51-.18a3.33,3.33,0,0,0-.53-.11l-.49,0a2.68,2.68,0,0,0-.59.06,1.69,1.69,0,0,0-.45.17.81.81,0,0,0-.28.27.68.68,0,0,0-.1.35.61.61,0,0,0,.12.37,1.33,1.33,0,0,0,.31.32,2.87,2.87,0,0,0,.5.29l.66.3a7,7,0,0,1,.91.45,3.71,3.71,0,0,1,.69.53,2.26,2.26,0,0,1,.44.69,2.4,2.4,0,0,1,.15.89,2.37,2.37,0,0,1-.27,1.18,2.13,2.13,0,0,1-.72.77,3.2,3.2,0,0,1-1.07.43,6.53,6.53,0,0,1-1.28.13,6.86,6.86,0,0,1-1.31-.12A4.15,4.15,0,0,1,90,49.28Z" fill="#1e1e1e"/>
      <path d="M100.35,49.53a2.75,2.75,0,0,1-1.23.22c-1.31,0-2-.68-2-2V45h-1V43.6h1V42.31L99,41.78V43.6h1.34V45H99v2.42c0,.63.24.94.74.94a1.24,1.24,0,0,0,.6-.17Z" fill="#1e1e1e"/>
      <path d="M106.52,49.6h-1.75v-.86h0a2,2,0,0,1-1.78,1,1.88,1.88,0,0,1-1.38-.5,1.79,1.79,0,0,1-.5-1.32c0-1.16.69-1.84,2.07-2l1.63-.22c0-.66-.36-1-1.07-1a3.72,3.72,0,0,0-2,.64V44a4.67,4.67,0,0,1,1.06-.35,5.12,5.12,0,0,1,1.22-.16A2.27,2.27,0,0,1,106.52,46Zm-1.74-2.44v-.4l-1.09.14q-.9.12-.9.81a.66.66,0,0,0,.22.52.8.8,0,0,0,.59.2,1.1,1.1,0,0,0,.85-.36A1.29,1.29,0,0,0,104.78,47.16Z" fill="#1e1e1e"/>
      <path d="M112.54,49.38a3.57,3.57,0,0,1-1.81.37,3.06,3.06,0,0,1-2.24-.84,2.9,2.9,0,0,1-.86-2.16,3.18,3.18,0,0,1,.92-2.41,3.38,3.38,0,0,1,2.45-.89,3.13,3.13,0,0,1,1.54.29v1.57a2.13,2.13,0,0,0-1.3-.44,1.71,1.71,0,0,0-1.26.47,1.74,1.74,0,0,0-.47,1.28,1.68,1.68,0,0,0,.45,1.25,1.62,1.62,0,0,0,1.22.46,2.51,2.51,0,0,0,1.36-.43Z" fill="#1e1e1e"/>
      <path d="M119.86,49.6h-2.22l-1.92-3h0v3h-1.85V40.72h1.85v5.65h0l1.79-2.77h2.2l-2.15,2.82Z" fill="#1e1e1e"/>
      <path d="M131.32,49.6h-1.9V46.18h-3.48V49.6h-1.89V41.2h1.89v3.35h3.48V41.2h1.9Z" fill="#1e1e1e"/>
      <path d="M138.74,49.6h-1.85v-.91h0A2.11,2.11,0,0,1,135,49.75c-1.39,0-2.09-.84-2.09-2.53V43.6h1.85v3.46c0,.85.33,1.27,1,1.27a1,1,0,0,0,.79-.35,1.41,1.41,0,0,0,.3-.95V43.6h1.85Z" fill="#1e1e1e"/>
      <path d="M142.14,48.9h0v.7h-1.85V40.72h1.85V44.5h0a2.2,2.2,0,0,1,2-1,2.16,2.16,0,0,1,1.79.8,3.49,3.49,0,0,1,.62,2.18,3.72,3.72,0,0,1-.73,2.41,2.41,2.41,0,0,1-2,.91A1.88,1.88,0,0,1,142.14,48.9Zm0-2.53V47a1.44,1.44,0,0,0,.33,1,1.09,1.09,0,0,0,.85.38,1.14,1.14,0,0,0,1-.49,2.4,2.4,0,0,0,.34-1.39,1.9,1.9,0,0,0-.31-1.16,1.1,1.1,0,0,0-.92-.42,1.18,1.18,0,0,0-.92.42A1.6,1.6,0,0,0,142.09,46.37Z" fill="#1e1e1e"/>
      <path d="M72.91,63.84v-1.5a3.66,3.66,0,0,0,.91.41,3,3,0,0,0,.86.14,1.79,1.79,0,0,0,.77-.14.43.43,0,0,0,.29-.41.37.37,0,0,0-.13-.29,1.33,1.33,0,0,0-.33-.21,4.53,4.53,0,0,0-.44-.15l-.47-.16a4.68,4.68,0,0,1-.63-.29,2.09,2.09,0,0,1-.45-.36A1.47,1.47,0,0,1,73,60.4a2,2,0,0,1-.09-.64,1.6,1.6,0,0,1,.22-.86,1.75,1.75,0,0,1,.58-.6,2.85,2.85,0,0,1,.84-.34,4.53,4.53,0,0,1,1-.11,4.43,4.43,0,0,1,.81.07,7.27,7.27,0,0,1,.81.17v1.43a2.74,2.74,0,0,0-.75-.3,3.13,3.13,0,0,0-.79-.11,1.22,1.22,0,0,0-.34,0,1.1,1.1,0,0,0-.29.09.49.49,0,0,0-.19.16.34.34,0,0,0-.07.22.4.4,0,0,0,.1.28,1,1,0,0,0,.28.2,1.88,1.88,0,0,0,.38.15l.41.14a6.16,6.16,0,0,1,.67.28,1.94,1.94,0,0,1,.51.36,1.58,1.58,0,0,1,.33.48,1.63,1.63,0,0,1,.11.66,1.67,1.67,0,0,1-.23.91,1.87,1.87,0,0,1-.61.61,2.72,2.72,0,0,1-.89.35,5,5,0,0,1-1,.11A5.17,5.17,0,0,1,72.91,63.84Z" fill="#1e1e1e"/>
      <path d="M81.48,64.15a3.23,3.23,0,0,1-2.36-.84,3.49,3.49,0,0,1,0-4.62,3.38,3.38,0,0,1,2.41-.84,3.2,3.2,0,0,1,2.35.84,3,3,0,0,1,.85,2.23,3.2,3.2,0,0,1-.88,2.36A3.24,3.24,0,0,1,81.48,64.15Zm0-4.88a1.23,1.23,0,0,0-1,.45A2,2,0,0,0,80.14,61c0,1.15.47,1.73,1.4,1.73s1.33-.59,1.33-1.78S82.42,59.27,81.53,59.27Z" fill="#1e1e1e"/>
      <path d="M89.82,56.54a1.69,1.69,0,0,0-.68-.14c-.6,0-.89.32-.89,1V58h1.37v1.37H88.25V64H86.4V59.37h-1V58h1v-.74a2.19,2.19,0,0,1,.67-1.66A2.59,2.59,0,0,1,88.89,55a3.48,3.48,0,0,1,.93.11Z" fill="#1e1e1e"/>
      <path d="M94.38,63.93a2.75,2.75,0,0,1-1.23.22c-1.31,0-2-.68-2-2V59.37h-1V58h1V56.71L93,56.18V58h1.34v1.37H93v2.42c0,.63.24.94.74.94a1.24,1.24,0,0,0,.6-.17Z" fill="#1e1e1e"/>
      <path d="M104.36,58l-1.73,6h-1.94l-.89-3.52a3.6,3.6,0,0,1-.09-.76h0a5,5,0,0,1-.12.74L98.6,64H96.68L95,58h1.89l.82,3.91a5.2,5.2,0,0,1,.09.67h0a3.84,3.84,0,0,1,.11-.69L99,58h1.76l.93,3.91c0,.1,0,.33.08.68h0a5.58,5.58,0,0,1,.1-.68l.78-3.91Z" fill="#1e1e1e"/>
      <path d="M110.15,64H108.4v-.86h0a2,2,0,0,1-1.78,1,1.88,1.88,0,0,1-1.38-.5,1.79,1.79,0,0,1-.5-1.32c0-1.16.69-1.84,2.07-2l1.63-.21c0-.66-.36-1-1.07-1a3.72,3.72,0,0,0-2,.64V58.36a4.67,4.67,0,0,1,1.06-.35,5.12,5.12,0,0,1,1.22-.16,2.27,2.27,0,0,1,2.57,2.56Zm-1.74-2.44v-.4l-1.09.14q-.9.12-.9.81a.66.66,0,0,0,.22.52.8.8,0,0,0,.59.2,1.1,1.1,0,0,0,.85-.36A1.29,1.29,0,0,0,108.41,61.56Z" fill="#1e1e1e"/>
      <path d="M115.53,59.67a1.66,1.66,0,0,0-.78-.18,1.15,1.15,0,0,0-1,.44,2,2,0,0,0-.34,1.21V64h-1.85V58h1.85v1.11h0a1.59,1.59,0,0,1,1.58-1.21,1.14,1.14,0,0,1,.46.07Z" fill="#1e1e1e"/>
      <path d="M121.85,61.53h-3.91c.06.87.61,1.3,1.65,1.3a3.23,3.23,0,0,0,1.74-.46V63.7a4.56,4.56,0,0,1-2.16.45,2.8,2.8,0,0,1-3.06-3.06,3.23,3.23,0,0,1,.86-2.36,2.91,2.91,0,0,1,2.14-.88,2.63,2.63,0,0,1,2,.78,3,3,0,0,1,.71,2.12Zm-1.71-1.14q0-1.29-1-1.29a1,1,0,0,0-.77.37,1.75,1.75,0,0,0-.39.92Z" fill="#1e1e1e"/>
      <path d="M127,57.83l-1.61.22,1.15,1.23-1.07.74-.8-1.49-.8,1.49-1.08-.74,1.16-1.23-1.61-.22.42-1.18,1.48.63L124,55.6h1.38l-.26,1.68,1.47-.63Z" fill="#1e1e1e"/>
    </g>
    <g>
      <path d="M52.07,83.71h-.86A7.48,7.48,0,0,1,49.4,78.6a7.77,7.77,0,0,1,1.81-5.2h.87a7.86,7.86,0,0,0-1.84,5.18A7.75,7.75,0,0,0,52.07,83.71Z" fill="#1e1e1e"/>
      <path d="M56.55,75.33l-1.6.33,1.11,1.42-.64.45L54.5,76l-.92,1.55-.65-.45L54,75.66l-1.61-.33.26-.73,1.54.58-.14-1.78h.81l-.13,1.78,1.54-.58Z" fill="#1e1e1e"/>
      <path d="M59,81.8H58V73.4h1Z" fill="#1e1e1e"/>
      <path d="M65.9,81.8h-1V78.38c0-1.27-.46-1.91-1.39-1.91a1.5,1.5,0,0,0-1.19.54,2,2,0,0,0-.47,1.37V81.8h-1v-6h1v1h0a2.16,2.16,0,0,1,2-1.14,1.81,1.81,0,0,1,1.5.64,2.79,2.79,0,0,1,.53,1.83Z" fill="#1e1e1e"/>
      <path d="M71.78,81.53a3.23,3.23,0,0,1-1.65.41,2.75,2.75,0,0,1-2.07-.83,3.06,3.06,0,0,1-.78-2.17,3.3,3.3,0,0,1,.85-2.38,3,3,0,0,1,2.26-.9,3.27,3.27,0,0,1,1.4.29v1a2.47,2.47,0,0,0-1.43-.47,1.92,1.92,0,0,0-1.51.66,2.52,2.52,0,0,0-.59,1.73,2.36,2.36,0,0,0,.55,1.66,1.91,1.91,0,0,0,1.49.61,2.43,2.43,0,0,0,1.48-.52Z" fill="#1e1e1e"/>
      <path d="M74,81.8h-1V72.92h1Z" fill="#1e1e1e"/>
      <path d="M80.75,81.8h-1v-1h0a2,2,0,0,1-1.85,1.09c-1.43,0-2.15-.85-2.15-2.55V75.8h1v3.44c0,1.26.48,1.89,1.45,1.89a1.5,1.5,0,0,0,1.16-.51,2,2,0,0,0,.45-1.36V75.8h1Z" fill="#1e1e1e"/>
      <path d="M87.76,81.8h-1v-1h0a2.21,2.21,0,0,1-2.06,1.16,2.25,2.25,0,0,1-1.81-.8,3.33,3.33,0,0,1-.68-2.2A3.59,3.59,0,0,1,83,76.56a2.48,2.48,0,0,1,2-.9,2,2,0,0,1,1.8,1h0V72.92h1Zm-1-2.71V78.2A1.73,1.73,0,0,0,86.32,77a1.62,1.62,0,0,0-1.22-.5,1.66,1.66,0,0,0-1.38.64,2.82,2.82,0,0,0-.5,1.79,2.53,2.53,0,0,0,.48,1.63,1.59,1.59,0,0,0,1.3.6,1.63,1.63,0,0,0,1.3-.58A2.11,2.11,0,0,0,86.8,79.09Z" fill="#1e1e1e"/>
      <path d="M90.08,74.28a.6.6,0,0,1-.44-.18.57.57,0,0,1-.18-.44.61.61,0,0,1,.18-.45.6.6,0,0,1,.44-.18.64.64,0,0,1,.45.18.61.61,0,0,1,.18.45.6.6,0,0,1-.18.44A.64.64,0,0,1,90.08,74.28Zm.47,7.52h-1v-6h1Z" fill="#1e1e1e"/>
      <path d="M97.35,81.8h-1V78.38c0-1.27-.47-1.91-1.4-1.91A1.5,1.5,0,0,0,93.8,77a2,2,0,0,0-.47,1.37V81.8h-1v-6h1v1h0a2.17,2.17,0,0,1,2-1.14,1.83,1.83,0,0,1,1.51.64,2.85,2.85,0,0,1,.52,1.83Z" fill="#1e1e1e"/>
      <path d="M104.28,81.32c0,2.2-1,3.31-3.16,3.31a4.15,4.15,0,0,1-2-.43v-1a4,4,0,0,0,1.93.57c1.48,0,2.22-.79,2.22-2.36v-.66h0a2.43,2.43,0,0,1-3.87.35A3.21,3.21,0,0,1,98.75,79a3.77,3.77,0,0,1,.73-2.44,2.48,2.48,0,0,1,2-.9,2,2,0,0,1,1.8,1h0V75.8h1Zm-1-2.23V78.2a1.72,1.72,0,0,0-.48-1.22,1.62,1.62,0,0,0-1.21-.51,1.66,1.66,0,0,0-1.39.65,2.85,2.85,0,0,0-.51,1.81,2.43,2.43,0,0,0,.49,1.6,1.56,1.56,0,0,0,1.28.6,1.67,1.67,0,0,0,1.31-.57A2.12,2.12,0,0,0,103.32,79.09Z" fill="#1e1e1e"/>
      <path d="M109.15,81.58v-1a2.82,2.82,0,0,0,1.73.58q1.26,0,1.26-.84a.68.68,0,0,0-.11-.41,1,1,0,0,0-.29-.29,1.76,1.76,0,0,0-.43-.23l-.54-.22a5.79,5.79,0,0,1-.7-.32,2.22,2.22,0,0,1-.5-.36,1.38,1.38,0,0,1-.31-.46,1.57,1.57,0,0,1-.1-.6,1.52,1.52,0,0,1,.19-.75,1.7,1.7,0,0,1,.52-.55,2.71,2.71,0,0,1,.73-.33,3.49,3.49,0,0,1,.86-.11,3.41,3.41,0,0,1,1.39.27v1a2.7,2.7,0,0,0-1.52-.43,1.88,1.88,0,0,0-.49.06,1.26,1.26,0,0,0-.37.17,1,1,0,0,0-.24.27.66.66,0,0,0-.08.34.82.82,0,0,0,.08.4.94.94,0,0,0,.25.28,2.11,2.11,0,0,0,.4.22l.53.22a7.07,7.07,0,0,1,.72.31,2.45,2.45,0,0,1,.53.36,1.45,1.45,0,0,1,.35.47,1.64,1.64,0,0,1-.08,1.4,1.58,1.58,0,0,1-.52.54,2.28,2.28,0,0,1-.76.33,3.71,3.71,0,0,1-.9.1A3.37,3.37,0,0,1,109.15,81.58Z" fill="#1e1e1e"/>
      <path d="M117.43,81.74a1.76,1.76,0,0,1-.89.19c-1.05,0-1.58-.59-1.58-1.76V76.62h-1V75.8h1V74.34l1-.31V75.8h1.51v.82h-1.51V80a1.35,1.35,0,0,0,.21.86.78.78,0,0,0,.68.26.94.94,0,0,0,.62-.2Z" fill="#1e1e1e"/>
      <path d="M121.09,81.94A2.79,2.79,0,0,1,119,81.1a3.11,3.11,0,0,1-.8-2.23,3.25,3.25,0,0,1,.83-2.36,3,3,0,0,1,2.23-.85,2.7,2.7,0,0,1,2.1.83,3.27,3.27,0,0,1,.75,2.29,3.23,3.23,0,0,1-.81,2.3A2.87,2.87,0,0,1,121.09,81.94Zm.07-5.47a1.81,1.81,0,0,0-1.46.63,2.59,2.59,0,0,0-.54,1.74,2.46,2.46,0,0,0,.54,1.68,1.86,1.86,0,0,0,1.46.61,1.75,1.75,0,0,0,1.43-.6,2.58,2.58,0,0,0,.51-1.72,2.63,2.63,0,0,0-.51-1.73A1.73,1.73,0,0,0,121.16,76.47Z" fill="#1e1e1e"/>
      <path d="M128.69,76.77a1.25,1.25,0,0,0-.73-.19,1.2,1.2,0,0,0-1,.58,2.67,2.67,0,0,0-.42,1.58V81.8h-1v-6h1V77h0a2.08,2.08,0,0,1,.62-1,1.42,1.42,0,0,1,1-.35,1.44,1.44,0,0,1,.57.08Z" fill="#1e1e1e"/>
      <path d="M134,81.8h-1v-.94h0a2.2,2.2,0,0,1-3.25.61,1.65,1.65,0,0,1-.51-1.26c0-1.12.66-1.78,2-2L133,78q0-1.53-1.23-1.53a3,3,0,0,0-2,.74v-1a3.76,3.76,0,0,1,2-.56c1.41,0,2.11.75,2.11,2.24Zm-1-3-1.44.2a2.25,2.25,0,0,0-1,.33,1,1,0,0,0-.34.84.92.92,0,0,0,.31.72,1.25,1.25,0,0,0,.84.27,1.53,1.53,0,0,0,1.18-.5,1.77,1.77,0,0,0,.46-1.27Z" fill="#1e1e1e"/>
      <path d="M140.92,81.32c0,2.2-1.06,3.31-3.17,3.31a4.11,4.11,0,0,1-1.94-.43v-1a4,4,0,0,0,1.93.57c1.48,0,2.22-.79,2.22-2.36v-.66h0a2.42,2.42,0,0,1-3.86.35,3.21,3.21,0,0,1-.68-2.14,3.77,3.77,0,0,1,.73-2.44,2.46,2.46,0,0,1,2-.9,2,2,0,0,1,1.79,1h0V75.8h1Zm-1-2.23V78.2a1.69,1.69,0,0,0-.49-1.22,1.58,1.58,0,0,0-1.2-.51,1.66,1.66,0,0,0-1.39.65,2.85,2.85,0,0,0-.51,1.81,2.43,2.43,0,0,0,.49,1.6,1.55,1.55,0,0,0,1.28.6,1.68,1.68,0,0,0,1.31-.57A2.12,2.12,0,0,0,140,79.09Z" fill="#1e1e1e"/>
      <path d="M147.63,79H143.4a2.19,2.19,0,0,0,.54,1.55,1.85,1.85,0,0,0,1.41.54,3,3,0,0,0,1.87-.66v.9a3.52,3.52,0,0,1-2.09.57,2.52,2.52,0,0,1-2-.82,3.3,3.3,0,0,1-.73-2.29,3.34,3.34,0,0,1,.79-2.29,2.58,2.58,0,0,1,2-.88,2.28,2.28,0,0,1,1.82.76,3.19,3.19,0,0,1,.64,2.12Zm-1-.81a2,2,0,0,0-.4-1.3,1.37,1.37,0,0,0-1.1-.46A1.56,1.56,0,0,0,144,77a2.18,2.18,0,0,0-.58,1.27Z" fill="#1e1e1e"/>
      <path d="M148.68,83.71h-.85a7.75,7.75,0,0,0,1.83-5.13,7.91,7.91,0,0,0-1.84-5.18h.86a7.74,7.74,0,0,1,1.83,5.2A7.45,7.45,0,0,1,148.68,83.71Z" fill="#1e1e1e"/>
    </g>
    <g>
      <path d="M201.17,56.71V59.6h-1.89V51.2h3c2.12,0,3.18.89,3.18,2.68a2.58,2.58,0,0,1-.91,2,3.58,3.58,0,0,1-2.44.79Zm0-4.06v2.62h.74c1,0,1.51-.44,1.51-1.32s-.5-1.3-1.51-1.3Z" fill="#1e1e1e"/>
      <path d="M212.13,59.6h-1.84V56.19c0-.88-.33-1.32-1-1.32a1,1,0,0,0-.79.37,1.4,1.4,0,0,0-.31.94V59.6h-1.85V50.72h1.85v3.77h0a2.09,2.09,0,0,1,1.84-1c1.36,0,2,.82,2,2.47Z" fill="#1e1e1e"/>
      <path d="M219.14,53.6l-2.43,6.48c-.59,1.56-1.47,2.34-2.65,2.34a3.46,3.46,0,0,1-1.11-.15V60.79a1.6,1.6,0,0,0,.8.22,1,1,0,0,0,1-.68l.31-.74-2.43-6h2.05l1.12,3.65a5.13,5.13,0,0,1,.16.8h0a5.71,5.71,0,0,1,.2-.79l1.13-3.66Z" fill="#1e1e1e"/>
      <path d="M219.52,59.44v-1.5a3.82,3.82,0,0,0,.91.41,3,3,0,0,0,.86.14,1.84,1.84,0,0,0,.78-.14.42.42,0,0,0,.28-.41.37.37,0,0,0-.13-.29,1,1,0,0,0-.33-.21,3.76,3.76,0,0,0-.44-.15c-.16,0-.32-.1-.46-.16a4.68,4.68,0,0,1-.63-.29,1.94,1.94,0,0,1-.46-.36,1.44,1.44,0,0,1-.28-.48,1.76,1.76,0,0,1-.1-.64,1.6,1.6,0,0,1,.22-.86,1.78,1.78,0,0,1,.59-.6,2.68,2.68,0,0,1,.83-.34,4.62,4.62,0,0,1,1-.11,4.4,4.4,0,0,1,.8.07,6.83,6.83,0,0,1,.81.17v1.43a2.74,2.74,0,0,0-.75-.3,3.13,3.13,0,0,0-.79-.11,1.27,1.27,0,0,0-.34,0,1,1,0,0,0-.28.09.46.46,0,0,0-.2.16.34.34,0,0,0-.07.22.41.41,0,0,0,.11.28,1,1,0,0,0,.27.2,2.15,2.15,0,0,0,.38.15l.41.14a6.16,6.16,0,0,1,.67.28,1.94,1.94,0,0,1,.51.36,1.29,1.29,0,0,1,.33.48,1.62,1.62,0,0,1,.12.66,1.76,1.76,0,0,1-.23.91,1.9,1.9,0,0,1-.62.61,2.75,2.75,0,0,1-.88.35,5.37,5.37,0,0,1-2.88-.2Z" fill="#1e1e1e"/>
      <path d="M226.16,52.65a1.05,1.05,0,0,1-.76-.28.88.88,0,0,1-.3-.68.87.87,0,0,1,.3-.68,1.26,1.26,0,0,1,1.53,0,.87.87,0,0,1,.3.68.89.89,0,0,1-.3.69A1.08,1.08,0,0,1,226.16,52.65Zm.92,7h-1.85v-6h1.85Z" fill="#1e1e1e"/>
      <path d="M233.16,59.38a3.6,3.6,0,0,1-1.81.37,3,3,0,0,1-2.24-.84,2.9,2.9,0,0,1-.86-2.16,3.18,3.18,0,0,1,.92-2.41,3.38,3.38,0,0,1,2.45-.89,3.13,3.13,0,0,1,1.54.29v1.57a2.13,2.13,0,0,0-1.3-.44,1.71,1.71,0,0,0-1.26.47,1.74,1.74,0,0,0-.47,1.28,1.68,1.68,0,0,0,.45,1.25,1.59,1.59,0,0,0,1.22.46,2.56,2.56,0,0,0,1.36-.43Z" fill="#1e1e1e"/>
      <path d="M239.45,59.6H237.7v-.86h0a2,2,0,0,1-1.79,1,1.86,1.86,0,0,1-1.37-.5,1.75,1.75,0,0,1-.5-1.32c0-1.16.69-1.84,2.06-2l1.63-.22c0-.66-.35-1-1.06-1a3.67,3.67,0,0,0-2,.64V54a4.67,4.67,0,0,1,1.06-.35,5.05,5.05,0,0,1,1.22-.16A2.26,2.26,0,0,1,239.45,56Zm-1.74-2.44v-.4l-1.09.14q-.9.12-.9.81a.66.66,0,0,0,.22.52.84.84,0,0,0,.6.2,1.07,1.07,0,0,0,.84-.36A1.29,1.29,0,0,0,237.71,57.16Z" fill="#1e1e1e"/>
      <path d="M242.77,59.6h-1.85V50.72h1.85Z" fill="#1e1e1e"/>
      <path d="M247.25,59.44v-1.5a3.5,3.5,0,0,0,.91.41,3,3,0,0,0,.86.14,1.83,1.83,0,0,0,.77-.14.43.43,0,0,0,.29-.41.41.41,0,0,0-.13-.29,1.33,1.33,0,0,0-.33-.21c-.14,0-.29-.11-.45-.15l-.46-.16a4.68,4.68,0,0,1-.63-.29,2.45,2.45,0,0,1-.46-.36,1.64,1.64,0,0,1-.28-.48,2,2,0,0,1-.09-.64,1.6,1.6,0,0,1,.22-.86,1.75,1.75,0,0,1,.58-.6,2.85,2.85,0,0,1,.84-.34,4.55,4.55,0,0,1,1.79,0,7.78,7.78,0,0,1,.81.17v1.43a3,3,0,0,0-.75-.3,3.13,3.13,0,0,0-.79-.11,1.34,1.34,0,0,0-.35,0,1.15,1.15,0,0,0-.28.09.43.43,0,0,0-.19.16.34.34,0,0,0-.07.22.4.4,0,0,0,.1.28.88.88,0,0,0,.28.2,1.88,1.88,0,0,0,.38.15l.41.14a7.13,7.13,0,0,1,.67.28,1.94,1.94,0,0,1,.51.36,1.58,1.58,0,0,1,.33.48,1.82,1.82,0,0,1,.11.66,1.76,1.76,0,0,1-.23.91,1.81,1.81,0,0,1-.62.61,2.66,2.66,0,0,1-.88.35,5,5,0,0,1-1,.11A5.17,5.17,0,0,1,247.25,59.44Z" fill="#1e1e1e"/>
      <path d="M258.35,57.13h-3.91c.06.87.61,1.3,1.65,1.3a3.23,3.23,0,0,0,1.74-.46V59.3a4.56,4.56,0,0,1-2.16.45,2.8,2.8,0,0,1-3.06-3.06,3.23,3.23,0,0,1,.86-2.36,2.91,2.91,0,0,1,2.14-.88,2.63,2.63,0,0,1,2,.78,3,3,0,0,1,.71,2.12ZM256.64,56q0-1.29-1-1.29a1,1,0,0,0-.77.37,1.75,1.75,0,0,0-.39.92Z" fill="#1e1e1e"/>
      <path d="M263.45,55.27a1.66,1.66,0,0,0-.78-.18,1.15,1.15,0,0,0-.95.44,2,2,0,0,0-.34,1.21V59.6h-1.85v-6h1.85v1.11h0A1.59,1.59,0,0,1,263,53.5a1.14,1.14,0,0,1,.46.07Z" fill="#1e1e1e"/>
      <path d="M270.4,53.6l-2.24,6h-2.11l-2.12-6h2l1,3.7a5.3,5.3,0,0,1,.21,1.06h0a6.23,6.23,0,0,1,.22-1l1.06-3.73Z" fill="#1e1e1e"/>
      <path d="M276.4,57.13h-3.92c.06.87.61,1.3,1.65,1.3a3.23,3.23,0,0,0,1.74-.46V59.3a4.56,4.56,0,0,1-2.16.45,2.8,2.8,0,0,1-3.06-3.06,3.19,3.19,0,0,1,.87-2.36,2.87,2.87,0,0,1,2.13-.88,2.63,2.63,0,0,1,2,.78,3,3,0,0,1,.72,2.12ZM274.68,56c0-.86-.35-1.29-1-1.29a1,1,0,0,0-.77.37,1.68,1.68,0,0,0-.4.92Z" fill="#1e1e1e"/>
      <path d="M281.49,55.27a1.61,1.61,0,0,0-.78-.18,1.12,1.12,0,0,0-.94.44,1.93,1.93,0,0,0-.34,1.21V59.6h-1.86v-6h1.86v1.11h0A1.59,1.59,0,0,1,281,53.5a1.14,1.14,0,0,1,.46.07Z" fill="#1e1e1e"/>
      <path d="M227.6,74V65.6h3.06a3.83,3.83,0,0,1,2.16.51,1.68,1.68,0,0,1,.76,1.46,1.76,1.76,0,0,1-.46,1.19,2.49,2.49,0,0,1-1.18.71v0a2.26,2.26,0,0,1,1.43.66,1.86,1.86,0,0,1,.54,1.34,2.22,2.22,0,0,1-.83,1.83,3.45,3.45,0,0,1-2.25.68Zm1.89-7v2h.83a1.4,1.4,0,0,0,.93-.28,1,1,0,0,0,.33-.78q0-.93-1.38-.93Zm0,3.4v2.22h1a1.6,1.6,0,0,0,1-.31,1,1,0,0,0,.37-.83.93.93,0,0,0-.37-.79,1.61,1.61,0,0,0-1-.29Z" fill="#1e1e1e"/>
      <path d="M244.85,74H243V69c0-.54,0-1.14.07-1.8H243a7.63,7.63,0,0,1-.26,1.12l-2,5.71h-1.55l-2-5.65c-.05-.16-.14-.55-.26-1.18h-.06c.06.83.08,1.56.08,2.18V74h-1.7V65.6h2.77l1.71,5a6.58,6.58,0,0,1,.3,1.2h0a9.76,9.76,0,0,1,.33-1.21l1.72-5h2.7Z" fill="#1e1e1e"/>
      <path d="M252.74,73.7a5.46,5.46,0,0,1-2.4.45,4,4,0,0,1-3-1.14,4.16,4.16,0,0,1-1.11-3,4.46,4.46,0,0,1,1.25-3.27,4.36,4.36,0,0,1,3.23-1.25,5.94,5.94,0,0,1,2.07.31v1.82a3.62,3.62,0,0,0-1.92-.5,2.54,2.54,0,0,0-1.91.74,2.79,2.79,0,0,0-.73,2,2.69,2.69,0,0,0,.69,1.94,2.43,2.43,0,0,0,1.85.72,3.92,3.92,0,0,0,2-.54Z" fill="#1e1e1e"/>
    </g>
    <g>
      <path d="M363.88,59.6H362l-3.46-5.28c-.2-.31-.34-.54-.42-.7h0c0,.3.05.75.05,1.36V59.6h-1.79V51.2h2l3.34,5.11q.23.34.42.69h0a9.13,9.13,0,0,1-.05-1.16V51.2h1.79Z" fill="#1e1e1e"/>
      <path d="M371,57.13h-3.92c.07.87.61,1.3,1.65,1.3a3.23,3.23,0,0,0,1.74-.46V59.3a4.53,4.53,0,0,1-2.16.45,2.8,2.8,0,0,1-3.06-3.06,3.19,3.19,0,0,1,.87-2.36,2.89,2.89,0,0,1,2.13-.88,2.63,2.63,0,0,1,2,.78,3,3,0,0,1,.72,2.12ZM369.27,56c0-.86-.35-1.29-1-1.29a1,1,0,0,0-.77.37,1.68,1.68,0,0,0-.4.92Z" fill="#1e1e1e"/>
      <path d="M375.77,59.53a2.83,2.83,0,0,1-1.24.22c-1.3,0-2-.68-2-2V55h-1V53.6h1V52.31l1.85-.53V53.6h1.35V55h-1.35v2.42c0,.63.25.94.74.94a1.31,1.31,0,0,0,.61-.17Z" fill="#1e1e1e"/>
      <path d="M385.75,53.6l-1.73,6h-1.95l-.88-3.52a3.58,3.58,0,0,1-.1-.76h0a4,4,0,0,1-.11.74L380,59.6h-1.92l-1.7-6h1.89l.82,3.91a5.2,5.2,0,0,1,.09.67h0a3.92,3.92,0,0,1,.1-.69l1-3.89h1.77l.92,3.91a6.35,6.35,0,0,1,.09.68h0c0-.22,0-.45.09-.68L384,53.6Z" fill="#1e1e1e"/>
      <path d="M389.35,59.75a3.23,3.23,0,0,1-2.36-.84,3.49,3.49,0,0,1,0-4.62,3.38,3.38,0,0,1,2.41-.84,3.2,3.2,0,0,1,2.35.84,3,3,0,0,1,.85,2.23,3.2,3.2,0,0,1-.88,2.36A3.24,3.24,0,0,1,389.35,59.75Zm0-4.88a1.23,1.23,0,0,0-1,.45A2,2,0,0,0,388,56.6c0,1.15.47,1.73,1.4,1.73s1.33-.59,1.33-1.78S390.29,54.87,389.4,54.87Z" fill="#1e1e1e"/>
      <path d="M397.73,55.27a1.61,1.61,0,0,0-.78-.18,1.14,1.14,0,0,0-.94.44,1.93,1.93,0,0,0-.34,1.21V59.6h-1.85v-6h1.85v1.11h0a1.6,1.6,0,0,1,1.59-1.21,1.12,1.12,0,0,1,.45.07Z" fill="#1e1e1e"/>
      <path d="M404.61,59.6h-2.22l-1.92-3h0v3h-1.86V50.72h1.86v5.65h0l1.79-2.77h2.19l-2.15,2.82Z" fill="#1e1e1e"/>
      <path d="M365.86,74H364v-.83h0a2.07,2.07,0,0,1-1.85,1,2.27,2.27,0,0,1-1.81-.8,3.27,3.27,0,0,1-.69-2.21,3.55,3.55,0,0,1,.76-2.39,2.45,2.45,0,0,1,2-.9,1.67,1.67,0,0,1,1.61.84h0V65.12h1.85ZM364,71.08v-.45a1.4,1.4,0,0,0-.34-1,1.19,1.19,0,0,0-1.84.1,2.22,2.22,0,0,0-.35,1.32,1.89,1.89,0,0,0,.34,1.22,1.09,1.09,0,0,0,.92.43,1.12,1.12,0,0,0,.92-.45A1.92,1.92,0,0,0,364,71.08Z" fill="#1e1e1e"/>
      <path d="M372.81,71.53h-3.92c.07.87.62,1.3,1.65,1.3a3.23,3.23,0,0,0,1.74-.46V73.7a4.5,4.5,0,0,1-2.16.45,2.8,2.8,0,0,1-3.06-3.06,3.19,3.19,0,0,1,.87-2.36,2.91,2.91,0,0,1,2.13-.88,2.62,2.62,0,0,1,2,.78,3,3,0,0,1,.72,2.12Zm-1.72-1.14c0-.86-.35-1.29-1-1.29a1,1,0,0,0-.77.37,1.68,1.68,0,0,0-.4.92Z" fill="#1e1e1e"/>
      <path d="M379.55,68l-2.23,6h-2.11l-2.13-6h2l1.05,3.7a6,6,0,0,1,.2,1.06h0a6.05,6.05,0,0,1,.21-1L377.62,68Z" fill="#1e1e1e"/>
      <path d="M381.32,67.05a1.06,1.06,0,0,1-.77-.28.88.88,0,0,1-.3-.68.87.87,0,0,1,.3-.68,1.09,1.09,0,0,1,.77-.26,1.11,1.11,0,0,1,.77.26.89.89,0,0,1,.29.68.91.91,0,0,1-.29.69A1.11,1.11,0,0,1,381.32,67.05Zm.91,7h-1.85V68h1.85Z" fill="#1e1e1e"/>
      <path d="M388.31,73.78a3.57,3.57,0,0,1-1.81.37,3.06,3.06,0,0,1-2.24-.84,2.9,2.9,0,0,1-.86-2.16,3.18,3.18,0,0,1,.92-2.41,3.38,3.38,0,0,1,2.45-.89,3.13,3.13,0,0,1,1.54.29v1.57a2.13,2.13,0,0,0-1.3-.44,1.71,1.71,0,0,0-1.26.47,1.74,1.74,0,0,0-.47,1.28,1.68,1.68,0,0,0,.45,1.25,1.61,1.61,0,0,0,1.22.46,2.51,2.51,0,0,0,1.36-.43Z" fill="#1e1e1e"/>
      <path d="M394.93,71.53H391c.06.87.61,1.3,1.64,1.3a3.23,3.23,0,0,0,1.74-.46V73.7a4.5,4.5,0,0,1-2.16.45,2.8,2.8,0,0,1-3.06-3.06,3.19,3.19,0,0,1,.87-2.36,2.91,2.91,0,0,1,2.13-.88,2.62,2.62,0,0,1,2,.78,3,3,0,0,1,.72,2.12Zm-1.72-1.14c0-.86-.34-1.29-1-1.29a1,1,0,0,0-.77.37,1.68,1.68,0,0,0-.4.92Z" fill="#1e1e1e"/>
      <path d="M395.79,73.84v-1.5a3.5,3.5,0,0,0,.91.41,3,3,0,0,0,.85.14,1.84,1.84,0,0,0,.78-.14.43.43,0,0,0,.29-.41.41.41,0,0,0-.13-.29,1.33,1.33,0,0,0-.33-.21c-.14,0-.29-.11-.45-.15l-.46-.16a4.68,4.68,0,0,1-.63-.29,2.45,2.45,0,0,1-.46-.36,1.64,1.64,0,0,1-.28-.48,2,2,0,0,1-.09-.64,1.69,1.69,0,0,1,.21-.86,1.88,1.88,0,0,1,.59-.6,2.64,2.64,0,0,1,.84-.34,4.55,4.55,0,0,1,1.79,0,7.78,7.78,0,0,1,.81.17v1.43a2.94,2.94,0,0,0-.76-.3,3.06,3.06,0,0,0-.78-.11,1.34,1.34,0,0,0-.35,0,1.15,1.15,0,0,0-.28.09.43.43,0,0,0-.19.16.34.34,0,0,0-.07.22.4.4,0,0,0,.1.28.88.88,0,0,0,.28.2,2,2,0,0,0,.37.15l.42.14a7.13,7.13,0,0,1,.67.28A2.12,2.12,0,0,1,400,71a1.58,1.58,0,0,1,.33.48,1.82,1.82,0,0,1,.11.66,1.76,1.76,0,0,1-.23.91,1.9,1.9,0,0,1-.62.61,2.66,2.66,0,0,1-.88.35,5,5,0,0,1-1,.11A5.17,5.17,0,0,1,395.79,73.84Z" fill="#1e1e1e"/>
    </g>
    <g>
      <path d="M113.13,123H112l-1.4-2.36c-.13-.21-.26-.4-.38-.56a1.85,1.85,0,0,0-.37-.37,1.36,1.36,0,0,0-.41-.22,1.9,1.9,0,0,0-.5-.06h-.8V123h-1v-8.4h2.51a3.31,3.31,0,0,1,1,.14,2.24,2.24,0,0,1,.8.41,2.06,2.06,0,0,1,.54.7,2.33,2.33,0,0,1,.19,1,2.28,2.28,0,0,1-.13.8,2.08,2.08,0,0,1-.37.65,2,2,0,0,1-.59.49,3,3,0,0,1-.77.32v0a1.88,1.88,0,0,1,.37.21,2.65,2.65,0,0,1,.29.29,2.75,2.75,0,0,1,.28.37l.31.48Zm-5-7.51v3.05h1.33a1.83,1.83,0,0,0,.68-.12,1.59,1.59,0,0,0,.55-.32,1.26,1.26,0,0,0,.35-.51,1.6,1.6,0,0,0,.13-.67,1.31,1.31,0,0,0-.43-1,1.85,1.85,0,0,0-1.27-.38Z" fill="#1e1e1e"/>
      <path d="M118.62,120.24h-4.24a2.3,2.3,0,0,0,.54,1.55,1.88,1.88,0,0,0,1.42.54,2.94,2.94,0,0,0,1.87-.67v.91a3.53,3.53,0,0,1-2.1.57,2.51,2.51,0,0,1-2-.82,3.83,3.83,0,0,1,.06-4.58,2.54,2.54,0,0,1,2-.88,2.26,2.26,0,0,1,1.83.76,3.18,3.18,0,0,1,.64,2.12Zm-1-.81a2,2,0,0,0-.4-1.3,1.37,1.37,0,0,0-1.1-.46,1.57,1.57,0,0,0-1.16.48,2.24,2.24,0,0,0-.58,1.28Z" fill="#1e1e1e"/>
      <path d="M119.71,122.78v-1a2.82,2.82,0,0,0,1.73.58c.84,0,1.27-.28,1.27-.84a.76.76,0,0,0-.11-.41,1,1,0,0,0-.3-.29,1.94,1.94,0,0,0-.43-.24l-.54-.21c-.26-.11-.5-.21-.7-.32a2.22,2.22,0,0,1-.5-.36,1.35,1.35,0,0,1-.3-.46,1.62,1.62,0,0,1-.11-.61,1.39,1.39,0,0,1,.2-.74,1.67,1.67,0,0,1,.51-.55,2.49,2.49,0,0,1,.74-.33,3.56,3.56,0,0,1,2.24.16v1a2.7,2.7,0,0,0-1.52-.43,1.88,1.88,0,0,0-.49.06,1.4,1.4,0,0,0-.37.17,1,1,0,0,0-.24.27.77.77,0,0,0-.08.34.87.87,0,0,0,.08.39,1,1,0,0,0,.25.29,2.11,2.11,0,0,0,.4.22l.53.21c.27.11.51.21.72.32a2.82,2.82,0,0,1,.54.36,1.41,1.41,0,0,1,.34.47,1.46,1.46,0,0,1,.12.62,1.51,1.51,0,0,1-.2.78,1.58,1.58,0,0,1-.52.54,2.5,2.5,0,0,1-.76.33,3.68,3.68,0,0,1-.89.1A3.39,3.39,0,0,1,119.71,122.78Z" fill="#1e1e1e"/>
      <path d="M128,122.94a1.82,1.82,0,0,1-.9.19c-1,0-1.57-.59-1.57-1.76v-3.55h-1V117h1v-1.46l1-.32V117H128v.82h-1.51v3.38a1.45,1.45,0,0,0,.2.86.84.84,0,0,0,.68.26,1.05,1.05,0,0,0,.63-.2Z" fill="#1e1e1e"/>
      <path d="M139.15,123h-1.09l-.89-2.36h-3.56l-.84,2.36h-1.09l3.22-8.4h1Zm-2.3-3.24-1.32-3.58a5.45,5.45,0,0,1-.13-.56h0a3.23,3.23,0,0,1-.14.56l-1.3,3.58Z" fill="#1e1e1e"/>
      <path d="M141.37,119.82V123h-1v-8.4h2.31a3.09,3.09,0,0,1,2.09.65,2.37,2.37,0,0,1,.74,1.86,2.55,2.55,0,0,1-.83,2,3.12,3.12,0,0,1-2.22.76Zm0-4.33v3.44h1a2.32,2.32,0,0,0,1.56-.46,1.65,1.65,0,0,0,.54-1.32c0-1.11-.66-1.66-2-1.66Z" fill="#1e1e1e"/>
      <path d="M148.09,123h-1v-8.4h1Z" fill="#1e1e1e"/>
    </g>
    <g>
      <path d="M256.81,158.88h-1v-3.83h-4.34v3.83h-1v-8.4h1v3.69h4.34v-3.69h1Z" fill="#1e1e1e"/>
      <path d="M263.09,158.88h-1V158h0a2,2,0,0,1-1.84,1.07,2,2,0,0,1-1.41-.47,1.68,1.68,0,0,1-.5-1.26c0-1.12.66-1.77,2-2l1.8-.25c0-1-.42-1.53-1.24-1.53a3,3,0,0,0-2,.74v-1a3.76,3.76,0,0,1,2-.56c1.41,0,2.12.75,2.12,2.24Zm-1-3-1.45.2a2.3,2.3,0,0,0-1,.33,1,1,0,0,0-.34.84.93.93,0,0,0,.32.72,1.2,1.2,0,0,0,.83.27,1.51,1.51,0,0,0,1.18-.5,1.77,1.77,0,0,0,.47-1.26Z" fill="#1e1e1e"/>
      <path d="M268,153.86a1.18,1.18,0,0,0-.73-.2,1.22,1.22,0,0,0-1,.58,2.67,2.67,0,0,0-.42,1.58v3.06h-1v-6h1v1.24h0a2.08,2.08,0,0,1,.62-1,1.47,1.47,0,0,1,.95-.35,1.44,1.44,0,0,1,.57.08Z" fill="#1e1e1e"/>
      <path d="M274.14,158.88h-1v-1h0A2.21,2.21,0,0,1,271.1,159a2.25,2.25,0,0,1-1.81-.8,3.33,3.33,0,0,1-.68-2.2,3.59,3.59,0,0,1,.75-2.38,2.48,2.48,0,0,1,2-.9,2,2,0,0,1,1.8,1h0V150h1Zm-1-2.71v-.88a1.74,1.74,0,0,0-.48-1.24,1.62,1.62,0,0,0-1.22-.5,1.67,1.67,0,0,0-1.38.65,2.77,2.77,0,0,0-.5,1.78,2.53,2.53,0,0,0,.48,1.63,1.57,1.57,0,0,0,1.3.6,1.63,1.63,0,0,0,1.3-.58A2.11,2.11,0,0,0,273.18,156.17Z" fill="#1e1e1e"/>
      <path d="M283.65,152.88l-1.8,6h-1l-1.23-4.29a3,3,0,0,1-.1-.56h0a2.64,2.64,0,0,1-.12.55l-1.35,4.3h-1l-1.81-6h1l1.25,4.51a3.12,3.12,0,0,1,.08.54h.05a2.38,2.38,0,0,1,.1-.55l1.38-4.5H280l1.24,4.53a3,3,0,0,1,.09.54h.05a2.4,2.4,0,0,1,.1-.54l1.22-4.53Z" fill="#1e1e1e"/>
      <path d="M289,158.88h-1V158h0a2,2,0,0,1-1.84,1.07,2,2,0,0,1-1.41-.47,1.68,1.68,0,0,1-.5-1.26c0-1.12.66-1.77,2-2l1.8-.25c0-1-.41-1.53-1.24-1.53a3,3,0,0,0-2,.74v-1a3.76,3.76,0,0,1,2-.56c1.41,0,2.12.75,2.12,2.24Zm-1-3-1.45.2a2.3,2.3,0,0,0-1,.33,1,1,0,0,0-.34.84.93.93,0,0,0,.32.72,1.2,1.2,0,0,0,.83.27,1.51,1.51,0,0,0,1.18-.5,1.77,1.77,0,0,0,.47-1.26Z" fill="#1e1e1e"/>
      <path d="M293.82,153.86a1.18,1.18,0,0,0-.73-.2,1.22,1.22,0,0,0-1,.58,2.67,2.67,0,0,0-.42,1.58v3.06h-1v-6h1v1.24h0a2.08,2.08,0,0,1,.62-1,1.47,1.47,0,0,1,.95-.35,1.44,1.44,0,0,1,.57.08Z" fill="#1e1e1e"/>
      <path d="M299.7,156.12h-4.24a2.28,2.28,0,0,0,.54,1.55,1.88,1.88,0,0,0,1.42.54,2.94,2.94,0,0,0,1.86-.66v.9a3.47,3.47,0,0,1-2.09.57,2.56,2.56,0,0,1-2-.81,3.39,3.39,0,0,1-.72-2.3,3.29,3.29,0,0,1,.79-2.29,2.58,2.58,0,0,1,2-.88,2.25,2.25,0,0,1,1.82.76,3.2,3.2,0,0,1,.65,2.12Zm-1-.81a1.91,1.91,0,0,0-.4-1.3,1.39,1.39,0,0,0-1.1-.46,1.54,1.54,0,0,0-1.15.49,2.22,2.22,0,0,0-.59,1.27Z" fill="#1e1e1e"/>
      <path d="M308.93,158.88h-4.36v-8.4h1V158h3.38Z" fill="#1e1e1e"/>
      <path d="M310.55,151.36a.6.6,0,0,1-.44-.18.57.57,0,0,1-.18-.44.61.61,0,0,1,.18-.45.6.6,0,0,1,.44-.18.62.62,0,0,1,.63.63.6.6,0,0,1-.18.44A.61.61,0,0,1,310.55,151.36Zm.47,7.52h-1v-6h1Z" fill="#1e1e1e"/>
      <path d="M315.85,150.84a1.34,1.34,0,0,0-.64-.15c-.67,0-1,.42-1,1.27v.92h1.41v.82H314.2v5.18h-.95V153.7h-1v-.82h1v-1a2,2,0,0,1,.54-1.49,1.84,1.84,0,0,1,1.36-.55,1.86,1.86,0,0,1,.7.11Z" fill="#1e1e1e"/>
      <path d="M321.4,156.12h-4.23a2.19,2.19,0,0,0,.54,1.55,1.85,1.85,0,0,0,1.42.54,3,3,0,0,0,1.86-.66v.9a3.52,3.52,0,0,1-2.09.57,2.54,2.54,0,0,1-2-.81,3.34,3.34,0,0,1-.73-2.3,3.29,3.29,0,0,1,.8-2.29,2.56,2.56,0,0,1,2-.88,2.28,2.28,0,0,1,1.82.76,3.19,3.19,0,0,1,.64,2.12Zm-1-.81a2,2,0,0,0-.4-1.3,1.4,1.4,0,0,0-1.1-.46,1.52,1.52,0,0,0-1.15.49,2.16,2.16,0,0,0-.59,1.27Z" fill="#1e1e1e"/>
      <path d="M327,158.61a3.17,3.17,0,0,1-1.64.41,2.71,2.71,0,0,1-2.07-.83,3.06,3.06,0,0,1-.79-2.17,3.36,3.36,0,0,1,.85-2.38,3,3,0,0,1,2.27-.9,3.06,3.06,0,0,1,1.39.3v1a2.44,2.44,0,0,0-1.42-.47,1.92,1.92,0,0,0-1.51.66,2.47,2.47,0,0,0-.59,1.73,2.4,2.4,0,0,0,.55,1.67,1.94,1.94,0,0,0,1.49.6,2.38,2.38,0,0,0,1.47-.52Z" fill="#1e1e1e"/>
      <path d="M333.47,152.88l-2.76,7c-.49,1.25-1.18,1.87-2.08,1.87a2.17,2.17,0,0,1-.62-.08v-.86a1.71,1.71,0,0,0,.57.1,1.18,1.18,0,0,0,1.09-.86l.48-1.14-2.35-6h1.07l1.62,4.62c0,.06.06.21.13.46h0q0-.15.12-.45l1.7-4.63Z" fill="#1e1e1e"/>
      <path d="M335.5,158.88h-1V150h1Z" fill="#1e1e1e"/>
      <path d="M342.23,156.12H338a2.19,2.19,0,0,0,.54,1.55,1.85,1.85,0,0,0,1.41.54,3,3,0,0,0,1.87-.66v.9a3.53,3.53,0,0,1-2.1.57,2.53,2.53,0,0,1-2-.81,3.34,3.34,0,0,1-.73-2.3,3.29,3.29,0,0,1,.79-2.29,2.58,2.58,0,0,1,2-.88,2.28,2.28,0,0,1,1.82.76,3.19,3.19,0,0,1,.64,2.12Zm-1-.81a2,2,0,0,0-.4-1.3,1.4,1.4,0,0,0-1.1-.46,1.54,1.54,0,0,0-1.16.49,2.21,2.21,0,0,0-.58,1.27Z" fill="#1e1e1e"/>
      <path d="M353.42,158.88h-1v-3.83h-4.34v3.83h-1v-8.4h1v3.69h4.34v-3.69h1Z" fill="#1e1e1e"/>
      <path d="M357.93,159a2.79,2.79,0,0,1-2.12-.84A3.1,3.1,0,0,1,355,156a3.26,3.26,0,0,1,.82-2.36,3,3,0,0,1,2.23-.85,2.7,2.7,0,0,1,2.1.83,3.27,3.27,0,0,1,.75,2.29,3.23,3.23,0,0,1-.81,2.3A2.83,2.83,0,0,1,357.93,159Zm.07-5.47a1.83,1.83,0,0,0-1.46.63,2.59,2.59,0,0,0-.54,1.74,2.46,2.46,0,0,0,.54,1.68,1.86,1.86,0,0,0,1.46.61,1.77,1.77,0,0,0,1.44-.6,2.63,2.63,0,0,0,.5-1.72,2.68,2.68,0,0,0-.5-1.73A1.75,1.75,0,0,0,358,153.55Z" fill="#1e1e1e"/>
      <path d="M362,158.67v-1a2.82,2.82,0,0,0,1.73.58q1.26,0,1.26-.84a.78.78,0,0,0-.11-.41,1,1,0,0,0-.29-.29,1.76,1.76,0,0,0-.43-.23l-.54-.22a5.16,5.16,0,0,1-.7-.32,2,2,0,0,1-.5-.36,1.29,1.29,0,0,1-.31-.46,1.57,1.57,0,0,1-.1-.6,1.44,1.44,0,0,1,.19-.75,1.7,1.7,0,0,1,.52-.55,2.71,2.71,0,0,1,.73-.33,3.49,3.49,0,0,1,.86-.11,3.45,3.45,0,0,1,1.39.27v1a2.78,2.78,0,0,0-1.52-.43,1.83,1.83,0,0,0-.49.06,1.06,1.06,0,0,0-.37.18.66.66,0,0,0-.24.26.69.69,0,0,0-.09.34.78.78,0,0,0,.34.68,2.11,2.11,0,0,0,.4.22l.53.22a6.85,6.85,0,0,1,.71.31,2.82,2.82,0,0,1,.54.36,1.6,1.6,0,0,1,.35.47,1.54,1.54,0,0,1,.12.63,1.5,1.5,0,0,1-.2.77,1.74,1.74,0,0,1-.53.55,2.43,2.43,0,0,1-.75.32,3.82,3.82,0,0,1-.9.1A3.47,3.47,0,0,1,362,158.67Z" fill="#1e1e1e"/>
      <path d="M370.3,158.82a1.82,1.82,0,0,1-.9.19c-1,0-1.57-.58-1.57-1.76V153.7h-1v-.82h1v-1.46l1-.31v1.77h1.51v.82h-1.51v3.38a1.49,1.49,0,0,0,.2.87.83.83,0,0,0,.68.25,1,1,0,0,0,.63-.2Z" fill="#1e1e1e"/>
    </g>
    <g>
      <path d="M69.42,211.12H67v7.51H66v-7.51H63.59v-.89h5.83Z" fill="#1e1e1e"/>
      <path d="M71.12,211.11a.59.59,0,0,1-.44-.18.58.58,0,0,1-.19-.44.62.62,0,0,1,.19-.45.59.59,0,0,1,.44-.18.6.6,0,0,1,.44.18.58.58,0,0,1,.19.45.58.58,0,0,1-.19.44A.6.6,0,0,1,71.12,211.11Zm.46,7.52h-1v-6h1Z" fill="#1e1e1e"/>
      <path d="M77.52,218.36a3.19,3.19,0,0,1-1.64.41,2.68,2.68,0,0,1-2.07-.83,3,3,0,0,1-.79-2.17,3.32,3.32,0,0,1,.85-2.38,3,3,0,0,1,2.27-.9,3.09,3.09,0,0,1,1.39.3v1a2.47,2.47,0,0,0-1.43-.47,1.93,1.93,0,0,0-1.51.66,2.52,2.52,0,0,0-.59,1.73,2.41,2.41,0,0,0,.56,1.67A1.91,1.91,0,0,0,76,218a2.39,2.39,0,0,0,1.48-.52Z" fill="#1e1e1e"/>
      <path d="M83.78,218.63H82.44l-2.65-2.88h0v2.88h-1v-8.88h1v5.63h0l2.52-2.75h1.26l-2.79,2.9Z" fill="#1e1e1e"/>
      <path d="M89.3,215.87H85.07a2.23,2.23,0,0,0,.53,1.55A1.88,1.88,0,0,0,87,218a3,3,0,0,0,1.87-.66v.9a3.53,3.53,0,0,1-2.1.57,2.53,2.53,0,0,1-2-.81,3.34,3.34,0,0,1-.73-2.3,3.29,3.29,0,0,1,.79-2.29,2.58,2.58,0,0,1,2-.88,2.29,2.29,0,0,1,1.83.76,3.19,3.19,0,0,1,.64,2.12Zm-1-.81a2,2,0,0,0-.4-1.3,1.4,1.4,0,0,0-1.1-.46,1.54,1.54,0,0,0-1.16.49,2.21,2.21,0,0,0-.58,1.27Z" fill="#1e1e1e"/>
      <path d="M93.53,218.57a1.76,1.76,0,0,1-.89.19c-1.06,0-1.58-.58-1.58-1.76v-3.55H90v-.82h1v-1.46l1-.31v1.77h1.51v.82H92v3.38a1.41,1.41,0,0,0,.21.87.81.81,0,0,0,.68.25.94.94,0,0,0,.62-.2Z" fill="#1e1e1e"/>
      <path d="M95.22,211.11a.6.6,0,0,1-.44-.18.57.57,0,0,1-.18-.44.61.61,0,0,1,.18-.45.6.6,0,0,1,.44-.18.64.64,0,0,1,.45.18.61.61,0,0,1,.18.45.6.6,0,0,1-.18.44A.64.64,0,0,1,95.22,211.11Zm.47,7.52h-1v-6h1Z" fill="#1e1e1e"/>
      <path d="M102.49,218.63h-1v-3.42c0-1.27-.46-1.91-1.39-1.91a1.5,1.5,0,0,0-1.19.54,2,2,0,0,0-.48,1.37v3.42h-1v-6h1v1h0a2.16,2.16,0,0,1,2-1.14,1.82,1.82,0,0,1,1.5.64,2.79,2.79,0,0,1,.52,1.83Z" fill="#1e1e1e"/>
      <path d="M109.42,218.15q0,3.32-3.16,3.31a4.23,4.23,0,0,1-1.94-.42v-1a3.94,3.94,0,0,0,1.93.57c1.48,0,2.21-.79,2.21-2.36v-.66h0a2.42,2.42,0,0,1-3.86.35,3.16,3.16,0,0,1-.69-2.14,3.78,3.78,0,0,1,.74-2.44,2.46,2.46,0,0,1,2-.9,2,2,0,0,1,1.8,1h0v-.83h1Zm-1-2.23V215a1.73,1.73,0,0,0-.48-1.23,1.58,1.58,0,0,0-1.2-.51,1.68,1.68,0,0,0-1.4.65,2.91,2.91,0,0,0-.5,1.81,2.48,2.48,0,0,0,.48,1.6,1.56,1.56,0,0,0,1.28.6,1.69,1.69,0,0,0,1.32-.57A2.16,2.16,0,0,0,108.46,215.92Z" fill="#1e1e1e"/>
      <path d="M114.29,218.42v-1A2.84,2.84,0,0,0,116,218c.85,0,1.27-.28,1.27-.84a.78.78,0,0,0-.11-.41,1,1,0,0,0-.29-.29,1.83,1.83,0,0,0-.44-.23l-.53-.22a5.16,5.16,0,0,1-.7-.32,2.21,2.21,0,0,1-.51-.36,1.41,1.41,0,0,1-.3-.46,1.57,1.57,0,0,1-.1-.6,1.44,1.44,0,0,1,.19-.75,1.78,1.78,0,0,1,.51-.55,2.77,2.77,0,0,1,.74-.33,3.59,3.59,0,0,1,2.25.16v1a2.79,2.79,0,0,0-1.53-.43,1.75,1.75,0,0,0-.48.06,1,1,0,0,0-.37.18.66.66,0,0,0-.24.26.69.69,0,0,0-.09.34.82.82,0,0,0,.09.4.78.78,0,0,0,.24.28,2.48,2.48,0,0,0,.4.22l.54.22a6.85,6.85,0,0,1,.71.31,2.82,2.82,0,0,1,.54.36,1.41,1.41,0,0,1,.34.47,1.54,1.54,0,0,1,.12.63,1.49,1.49,0,0,1-.19.77,1.74,1.74,0,0,1-.53.55,2.54,2.54,0,0,1-.75.32,3.82,3.82,0,0,1-.9.1A3.54,3.54,0,0,1,114.29,218.42Z" fill="#1e1e1e"/>
      <path d="M122.24,218.77a2.79,2.79,0,0,1-2.13-.84,3.1,3.1,0,0,1-.79-2.23,3.26,3.26,0,0,1,.82-2.36,3,3,0,0,1,2.24-.85,2.69,2.69,0,0,1,2.09.83,3.27,3.27,0,0,1,.75,2.29,3.23,3.23,0,0,1-.81,2.3A2.81,2.81,0,0,1,122.24,218.77Zm.07-5.47a1.84,1.84,0,0,0-1.47.63,2.59,2.59,0,0,0-.54,1.74,2.41,2.41,0,0,0,.55,1.68,1.85,1.85,0,0,0,1.46.61,1.75,1.75,0,0,0,1.43-.6,2.63,2.63,0,0,0,.5-1.72,2.68,2.68,0,0,0-.5-1.73A1.73,1.73,0,0,0,122.31,213.3Z" fill="#1e1e1e"/>
      <path d="M127.66,218.63h-1v-8.88h1Z" fill="#1e1e1e"/>
      <path d="M134.39,218.63h-1v-.95h0a2,2,0,0,1-1.86,1.09c-1.42,0-2.14-.85-2.14-2.55v-3.59h1v3.44c0,1.26.48,1.89,1.45,1.89a1.5,1.5,0,0,0,1.16-.51,2,2,0,0,0,.45-1.36v-3.46h1Z" fill="#1e1e1e"/>
      <path d="M139.07,218.57a1.82,1.82,0,0,1-.9.19c-1,0-1.58-.58-1.58-1.76v-3.55h-1v-.82h1v-1.46l1-.31v1.77h1.52v.82h-1.52v3.38a1.41,1.41,0,0,0,.21.87.82.82,0,0,0,.68.25,1,1,0,0,0,.63-.2Z" fill="#1e1e1e"/>
      <path d="M140.75,211.11a.6.6,0,0,1-.44-.18.57.57,0,0,1-.18-.44.61.61,0,0,1,.18-.45.6.6,0,0,1,.44-.18.62.62,0,0,1,.63.63.6.6,0,0,1-.18.44A.61.61,0,0,1,140.75,211.11Zm.47,7.52h-1v-6h1Z" fill="#1e1e1e"/>
      <path d="M145.6,218.77a2.79,2.79,0,0,1-2.13-.84,3.1,3.1,0,0,1-.79-2.23,3.26,3.26,0,0,1,.82-2.36,3,3,0,0,1,2.24-.85,2.69,2.69,0,0,1,2.09.83,3.27,3.27,0,0,1,.75,2.29,3.23,3.23,0,0,1-.81,2.3A2.81,2.81,0,0,1,145.6,218.77Zm.07-5.47a1.84,1.84,0,0,0-1.47.63,2.59,2.59,0,0,0-.54,1.74,2.41,2.41,0,0,0,.55,1.68,1.85,1.85,0,0,0,1.46.61,1.77,1.77,0,0,0,1.43-.6,2.63,2.63,0,0,0,.5-1.72,2.68,2.68,0,0,0-.5-1.73A1.74,1.74,0,0,0,145.67,213.3Z" fill="#1e1e1e"/>
      <path d="M155.05,218.63h-1v-3.42c0-1.27-.46-1.91-1.39-1.91a1.5,1.5,0,0,0-1.19.54,2,2,0,0,0-.47,1.37v3.42h-1v-6h1v1h0a2.16,2.16,0,0,1,2-1.14,1.81,1.81,0,0,1,1.5.64,2.79,2.79,0,0,1,.53,1.83Z" fill="#1e1e1e"/>
      <path d="M157.78,217.3l-.94,2.88h-.68l.68-2.88Z" fill="#1e1e1e"/>
      <path d="M168.64,218.28a4.92,4.92,0,0,1-2.32.49,3.72,3.72,0,0,1-2.87-1.15,4.26,4.26,0,0,1-1.08-3,4.47,4.47,0,0,1,1.21-3.26,4.11,4.11,0,0,1,3.08-1.24,5,5,0,0,1,2,.35v1a4.09,4.09,0,0,0-2-.5,3,3,0,0,0-2.34,1,3.62,3.62,0,0,0-.9,2.58,3.49,3.49,0,0,0,.84,2.45,2.89,2.89,0,0,0,2.21.91,4.2,4.2,0,0,0,2.19-.56Z" fill="#1e1e1e"/>
      <path d="M172.55,218.77a2.79,2.79,0,0,1-2.13-.84,3.1,3.1,0,0,1-.79-2.23,3.26,3.26,0,0,1,.82-2.36,3,3,0,0,1,2.24-.85,2.69,2.69,0,0,1,2.09.83,3.27,3.27,0,0,1,.75,2.29,3.23,3.23,0,0,1-.81,2.3A2.81,2.81,0,0,1,172.55,218.77Zm.07-5.47a1.84,1.84,0,0,0-1.47.63,2.59,2.59,0,0,0-.54,1.74,2.41,2.41,0,0,0,.55,1.68,1.85,1.85,0,0,0,1.46.61,1.77,1.77,0,0,0,1.43-.6,2.63,2.63,0,0,0,.5-1.72,2.68,2.68,0,0,0-.5-1.73A1.74,1.74,0,0,0,172.62,213.3Z" fill="#1e1e1e"/>
      <path d="M182,218.63h-1v-3.42c0-1.27-.46-1.91-1.39-1.91a1.5,1.5,0,0,0-1.19.54,2,2,0,0,0-.47,1.37v3.42h-1v-6h1v1h0a2.16,2.16,0,0,1,2-1.14,1.81,1.81,0,0,1,1.5.64A2.79,2.79,0,0,1,182,215Z" fill="#1e1e1e"/>
      <path d="M186.64,210.59a1.34,1.34,0,0,0-.64-.15c-.67,0-1,.42-1,1.27v.92h1.41v.82H185v5.18h-1v-5.18h-1v-.82h1v-1a2,2,0,0,1,.54-1.49,1.84,1.84,0,0,1,1.36-.55,1.9,1.9,0,0,1,.7.11Z" fill="#1e1e1e"/>
      <path d="M188.15,211.11a.6.6,0,0,1-.44-.18.57.57,0,0,1-.18-.44.61.61,0,0,1,.18-.45.6.6,0,0,1,.44-.18.62.62,0,0,1,.63.63.6.6,0,0,1-.18.44A.61.61,0,0,1,188.15,211.11Zm.47,7.52h-1v-6h1Z" fill="#1e1e1e"/>
      <path d="M195.61,218.15q0,3.32-3.17,3.31a4.23,4.23,0,0,1-1.94-.42v-1a3.94,3.94,0,0,0,1.93.57c1.48,0,2.22-.79,2.22-2.36v-.66h0a2.42,2.42,0,0,1-3.86.35,3.16,3.16,0,0,1-.68-2.14,3.77,3.77,0,0,1,.73-2.44,2.46,2.46,0,0,1,2-.9,2,2,0,0,1,1.79,1h0v-.83h1Zm-1-2.23V215a1.7,1.7,0,0,0-.49-1.23,1.58,1.58,0,0,0-1.2-.51,1.66,1.66,0,0,0-1.39.65,2.85,2.85,0,0,0-.51,1.81,2.48,2.48,0,0,0,.48,1.6,1.58,1.58,0,0,0,1.29.6,1.68,1.68,0,0,0,1.31-.57A2.12,2.12,0,0,0,194.65,215.92Z" fill="#1e1e1e"/>
      <path d="M202.33,218.63h-1v-.95h0a2,2,0,0,1-1.85,1.09c-1.43,0-2.14-.85-2.14-2.55v-3.59h1v3.44c0,1.26.49,1.89,1.46,1.89a1.46,1.46,0,0,0,1.15-.51,2,2,0,0,0,.46-1.36v-3.46h1Z" fill="#1e1e1e"/>
      <path d="M207.27,213.61a1.14,1.14,0,0,0-.72-.2,1.24,1.24,0,0,0-1,.58,2.67,2.67,0,0,0-.41,1.58v3.06h-1v-6h1v1.24h0a2.09,2.09,0,0,1,.63-1,1.61,1.61,0,0,1,1.51-.27Z" fill="#1e1e1e"/>
      <path d="M212.58,218.63h-1v-.93h0a2,2,0,0,1-1.84,1.07,2,2,0,0,1-1.41-.47,1.64,1.64,0,0,1-.5-1.26c0-1.12.66-1.77,2-2l1.8-.25c0-1-.42-1.53-1.24-1.53a3,3,0,0,0-2,.74v-1a3.76,3.76,0,0,1,2-.56c1.41,0,2.12.75,2.12,2.24Zm-1-3-1.45.2a2.3,2.3,0,0,0-1,.33,1,1,0,0,0-.34.84.92.92,0,0,0,.31.72,1.25,1.25,0,0,0,.84.27,1.51,1.51,0,0,0,1.18-.5,1.77,1.77,0,0,0,.47-1.26Z" fill="#1e1e1e"/>
      <path d="M217.09,218.57a1.76,1.76,0,0,1-.89.19c-1,0-1.58-.58-1.58-1.76v-3.55h-1v-.82h1v-1.46l1-.31v1.77h1.51v.82h-1.51v3.38a1.41,1.41,0,0,0,.21.87.81.81,0,0,0,.68.25.94.94,0,0,0,.62-.2Z" fill="#1e1e1e"/>
      <path d="M218.78,211.11a.6.6,0,0,1-.44-.18.57.57,0,0,1-.18-.44.61.61,0,0,1,.18-.45.6.6,0,0,1,.44-.18.64.64,0,0,1,.45.18.61.61,0,0,1,.18.45.6.6,0,0,1-.18.44A.64.64,0,0,1,218.78,211.11Zm.47,7.52h-1v-6h1Z" fill="#1e1e1e"/>
      <path d="M223.62,218.77a2.79,2.79,0,0,1-2.12-.84,3.1,3.1,0,0,1-.79-2.23,3.26,3.26,0,0,1,.82-2.36,3,3,0,0,1,2.23-.85,2.7,2.7,0,0,1,2.1.83,3.27,3.27,0,0,1,.75,2.29,3.23,3.23,0,0,1-.81,2.3A2.83,2.83,0,0,1,223.62,218.77Zm.07-5.47a1.83,1.83,0,0,0-1.46.63,2.59,2.59,0,0,0-.54,1.74,2.46,2.46,0,0,0,.54,1.68,1.86,1.86,0,0,0,1.46.61,1.79,1.79,0,0,0,1.44-.6,2.63,2.63,0,0,0,.5-1.72,2.68,2.68,0,0,0-.5-1.73A1.76,1.76,0,0,0,223.69,213.3Z" fill="#1e1e1e"/>
      <path d="M233.07,218.63h-1v-3.42c0-1.27-.46-1.91-1.39-1.91a1.5,1.5,0,0,0-1.19.54,2,2,0,0,0-.48,1.37v3.42h-1v-6h1v1h0a2.16,2.16,0,0,1,2-1.14,1.82,1.82,0,0,1,1.5.64,2.79,2.79,0,0,1,.52,1.83Z" fill="#1e1e1e"/>
      <path d="M246.69,218.63h-1v-3.44a2.52,2.52,0,0,0-.31-1.44,1.15,1.15,0,0,0-1-.45,1.3,1.3,0,0,0-1,.56,2.22,2.22,0,0,0-.43,1.35v3.42h-1v-3.56c0-1.18-.45-1.77-1.36-1.77a1.28,1.28,0,0,0-1.05.53,2.2,2.2,0,0,0-.41,1.38v3.42h-1v-6h1v1h0a2,2,0,0,1,1.86-1.09,1.77,1.77,0,0,1,1.07.34,1.75,1.75,0,0,1,.63.9,2.15,2.15,0,0,1,2-1.24c1.32,0,2,.82,2,2.45Z" fill="#1e1e1e"/>
      <path d="M252.73,218.63h-1v-.93h0a2,2,0,0,1-1.85,1.07,1.93,1.93,0,0,1-1.4-.47A1.65,1.65,0,0,1,248,217c0-1.12.66-1.77,2-2l1.8-.25c0-1-.41-1.53-1.24-1.53a3,3,0,0,0-1.95.74v-1a3.75,3.75,0,0,1,2-.56c1.42,0,2.12.75,2.12,2.24Zm-1-3-1.45.2a2.35,2.35,0,0,0-1,.33,1,1,0,0,0-.34.84.93.93,0,0,0,.32.72,1.22,1.22,0,0,0,.83.27,1.51,1.51,0,0,0,1.18-.5,1.77,1.77,0,0,0,.47-1.26Z" fill="#1e1e1e"/>
      <path d="M259.45,218.63h-1v-3.42c0-1.27-.47-1.91-1.4-1.91a1.52,1.52,0,0,0-1.19.54,2,2,0,0,0-.47,1.37v3.42h-1v-6h1v1h0a2.17,2.17,0,0,1,2-1.14,1.83,1.83,0,0,1,1.51.64,2.79,2.79,0,0,1,.52,1.83Z" fill="#1e1e1e"/>
      <path d="M265.48,218.63h-1v-.93h0a2,2,0,0,1-1.85,1.07,2,2,0,0,1-1.4-.47,1.65,1.65,0,0,1-.51-1.26c0-1.12.66-1.77,2-2l1.8-.25q0-1.53-1.23-1.53a3,3,0,0,0-2,.74v-1a3.76,3.76,0,0,1,2-.56c1.41,0,2.11.75,2.11,2.24Zm-1-3-1.45.2a2.25,2.25,0,0,0-1,.33,1,1,0,0,0-.34.84.92.92,0,0,0,.31.72,1.25,1.25,0,0,0,.84.27,1.53,1.53,0,0,0,1.18-.5,1.76,1.76,0,0,0,.46-1.26Z" fill="#1e1e1e"/>
      <path d="M272.41,218.15q0,3.32-3.17,3.31a4.23,4.23,0,0,1-1.94-.42v-1a3.94,3.94,0,0,0,1.93.57c1.48,0,2.22-.79,2.22-2.36v-.66h0a2.42,2.42,0,0,1-3.86.35,3.16,3.16,0,0,1-.68-2.14,3.77,3.77,0,0,1,.73-2.44,2.46,2.46,0,0,1,2-.9,2,2,0,0,1,1.79,1h0v-.83h1Zm-1-2.23V215a1.7,1.7,0,0,0-.49-1.23,1.58,1.58,0,0,0-1.2-.51,1.66,1.66,0,0,0-1.39.65,2.85,2.85,0,0,0-.51,1.81,2.48,2.48,0,0,0,.48,1.6,1.58,1.58,0,0,0,1.29.6,1.68,1.68,0,0,0,1.31-.57A2.12,2.12,0,0,0,271.45,215.92Z" fill="#1e1e1e"/>
      <path d="M279.12,215.87h-4.23a2.23,2.23,0,0,0,.53,1.55,1.88,1.88,0,0,0,1.42.54,3,3,0,0,0,1.87-.66v.9a3.53,3.53,0,0,1-2.1.57,2.53,2.53,0,0,1-2-.81,3.34,3.34,0,0,1-.73-2.3,3.29,3.29,0,0,1,.79-2.29,2.58,2.58,0,0,1,2-.88,2.28,2.28,0,0,1,1.82.76,3.19,3.19,0,0,1,.64,2.12Zm-1-.81a2,2,0,0,0-.4-1.3,1.4,1.4,0,0,0-1.1-.46,1.54,1.54,0,0,0-1.16.49,2.21,2.21,0,0,0-.58,1.27Z" fill="#1e1e1e"/>
      <path d="M289.09,218.63h-1v-3.44a2.62,2.62,0,0,0-.3-1.44,1.17,1.17,0,0,0-1-.45,1.27,1.27,0,0,0-1,.56,2.16,2.16,0,0,0-.43,1.35v3.42h-1v-3.56c0-1.18-.45-1.77-1.36-1.77a1.27,1.27,0,0,0-1,.53,2.14,2.14,0,0,0-.41,1.38v3.42h-1v-6h1v1h0a2.06,2.06,0,0,1,1.86-1.09,1.83,1.83,0,0,1,1.08.34,1.73,1.73,0,0,1,.62.9,2.16,2.16,0,0,1,2-1.24c1.32,0,2,.82,2,2.45Z" fill="#1e1e1e"/>
      <path d="M295.71,215.87h-4.24a2.28,2.28,0,0,0,.54,1.55,1.88,1.88,0,0,0,1.42.54,2.94,2.94,0,0,0,1.86-.66v.9a3.47,3.47,0,0,1-2.09.57,2.56,2.56,0,0,1-2-.81,3.39,3.39,0,0,1-.72-2.3,3.29,3.29,0,0,1,.79-2.29,2.58,2.58,0,0,1,2-.88,2.29,2.29,0,0,1,1.83.76,3.19,3.19,0,0,1,.64,2.12Zm-1-.81a2,2,0,0,0-.41-1.3,1.38,1.38,0,0,0-1.09-.46,1.54,1.54,0,0,0-1.16.49,2.15,2.15,0,0,0-.58,1.27Z" fill="#1e1e1e"/>
      <path d="M302.14,218.63h-1v-3.42c0-1.27-.46-1.91-1.39-1.91a1.5,1.5,0,0,0-1.19.54,2,2,0,0,0-.48,1.37v3.42h-1v-6h1v1h0a2.16,2.16,0,0,1,2-1.14,1.82,1.82,0,0,1,1.5.64,2.79,2.79,0,0,1,.52,1.83Z" fill="#1e1e1e"/>
      <path d="M306.64,218.57a1.82,1.82,0,0,1-.9.19c-1.05,0-1.58-.58-1.58-1.76v-3.55h-1v-.82h1v-1.46l1-.31v1.77h1.52v.82h-1.52v3.38a1.41,1.41,0,0,0,.21.87.82.82,0,0,0,.68.25,1,1,0,0,0,.63-.2Z" fill="#1e1e1e"/>
      <path d="M316.33,218.63h-1v-1h0a2.2,2.2,0,0,1-2.06,1.16,2.27,2.27,0,0,1-1.81-.8,3.32,3.32,0,0,1-.67-2.2,3.59,3.59,0,0,1,.75-2.38,2.46,2.46,0,0,1,2-.9,1.93,1.93,0,0,1,1.8,1h0v-3.71h1Zm-1-2.71V215a1.74,1.74,0,0,0-.48-1.24,1.64,1.64,0,0,0-1.22-.5,1.68,1.68,0,0,0-1.39.65,2.83,2.83,0,0,0-.5,1.78,2.53,2.53,0,0,0,.48,1.63,1.6,1.6,0,0,0,1.3.6,1.65,1.65,0,0,0,1.31-.58A2.16,2.16,0,0,0,315.37,215.92Z" fill="#1e1e1e"/>
      <path d="M322.47,218.63h-1v-.93h0a2,2,0,0,1-1.85,1.07,2,2,0,0,1-1.4-.47,1.65,1.65,0,0,1-.51-1.26c0-1.12.66-1.77,2-2l1.8-.25c0-1-.41-1.53-1.24-1.53a3,3,0,0,0-1.95.74v-1a3.76,3.76,0,0,1,2-.56c1.41,0,2.11.75,2.11,2.24Zm-1-3-1.45.2a2.25,2.25,0,0,0-1,.33,1,1,0,0,0-.34.84.92.92,0,0,0,.31.72,1.24,1.24,0,0,0,.83.27,1.51,1.51,0,0,0,1.18-.5,1.73,1.73,0,0,0,.47-1.26Z" fill="#1e1e1e"/>
      <path d="M327,218.57a1.82,1.82,0,0,1-.9.19c-1,0-1.57-.58-1.57-1.76v-3.55h-1v-.82h1v-1.46l1-.31v1.77H327v.82h-1.51v3.38a1.41,1.41,0,0,0,.2.87.82.82,0,0,0,.68.25,1,1,0,0,0,.63-.2Z" fill="#1e1e1e"/>
      <path d="M332.67,218.63h-1v-.93h0a2,2,0,0,1-1.84,1.07,2,2,0,0,1-1.41-.47,1.68,1.68,0,0,1-.5-1.26c0-1.12.66-1.77,2-2l1.8-.25c0-1-.42-1.53-1.24-1.53a3,3,0,0,0-2,.74v-1a3.76,3.76,0,0,1,2-.56c1.41,0,2.12.75,2.12,2.24Zm-1-3-1.45.2a2.3,2.3,0,0,0-1,.33,1,1,0,0,0-.34.84.93.93,0,0,0,.32.72,1.2,1.2,0,0,0,.83.27,1.51,1.51,0,0,0,1.18-.5,1.77,1.77,0,0,0,.47-1.26Z" fill="#1e1e1e"/>
      <path d="M335.4,217.77h0v.86h-1v-8.88h1v3.94h0a2.26,2.26,0,0,1,2.07-1.2,2.2,2.2,0,0,1,1.81.81,3.33,3.33,0,0,1,.65,2.16,3.72,3.72,0,0,1-.73,2.41,2.45,2.45,0,0,1-2,.9A2,2,0,0,1,335.4,217.77Zm0-2.42v.83a1.77,1.77,0,0,0,.49,1.27,1.73,1.73,0,0,0,2.59-.15,3.09,3.09,0,0,0,.5-1.86,2.41,2.41,0,0,0-.47-1.57,1.51,1.51,0,0,0-1.25-.57,1.73,1.73,0,0,0-1.35.58A2.16,2.16,0,0,0,335.37,215.35Z" fill="#1e1e1e"/>
      <path d="M345.71,218.63h-1v-.93h0a2,2,0,0,1-1.85,1.07,2,2,0,0,1-1.4-.47A1.65,1.65,0,0,1,341,217c0-1.12.66-1.77,2-2l1.8-.25q0-1.53-1.23-1.53a3,3,0,0,0-2,.74v-1a3.76,3.76,0,0,1,2-.56c1.41,0,2.11.75,2.11,2.24Zm-1-3-1.44.2a2.25,2.25,0,0,0-1,.33,1,1,0,0,0-.34.84.92.92,0,0,0,.31.72,1.25,1.25,0,0,0,.84.27,1.53,1.53,0,0,0,1.18-.5,1.76,1.76,0,0,0,.46-1.26Z" fill="#1e1e1e"/>
      <path d="M347.13,218.42v-1a2.82,2.82,0,0,0,1.73.58c.84,0,1.27-.28,1.27-.84a.78.78,0,0,0-.11-.41,1,1,0,0,0-.3-.29,1.59,1.59,0,0,0-.43-.23l-.54-.22a5.79,5.79,0,0,1-.7-.32,2,2,0,0,1-.5-.36,1.26,1.26,0,0,1-.3-.46,1.57,1.57,0,0,1-.11-.6,1.45,1.45,0,0,1,.2-.75,1.67,1.67,0,0,1,.51-.55,2.77,2.77,0,0,1,.74-.33,3.56,3.56,0,0,1,2.24.16v1a2.78,2.78,0,0,0-1.52-.43,1.88,1.88,0,0,0-.49.06,1.16,1.16,0,0,0-.37.18.85.85,0,0,0-.24.26.81.81,0,0,0-.08.34,1,1,0,0,0,.08.4.94.94,0,0,0,.25.28,2.11,2.11,0,0,0,.4.22l.53.22a6.21,6.21,0,0,1,.72.31,2.82,2.82,0,0,1,.54.36,1.57,1.57,0,0,1,.34.47,1.54,1.54,0,0,1,.12.63,1.5,1.5,0,0,1-.2.77,1.7,1.7,0,0,1-.52.55,2.49,2.49,0,0,1-.76.32,3.68,3.68,0,0,1-.89.1A3.51,3.51,0,0,1,347.13,218.42Z" fill="#1e1e1e"/>
      <path d="M357.39,215.87h-4.24a2.28,2.28,0,0,0,.54,1.55,1.87,1.87,0,0,0,1.42.54,3,3,0,0,0,1.86-.66v.9a3.5,3.5,0,0,1-2.09.57,2.56,2.56,0,0,1-2-.81,3.39,3.39,0,0,1-.72-2.3,3.29,3.29,0,0,1,.79-2.29,2.58,2.58,0,0,1,2-.88,2.27,2.27,0,0,1,1.82.76,3.2,3.2,0,0,1,.65,2.12Zm-1-.81a1.91,1.91,0,0,0-.4-1.3,1.39,1.39,0,0,0-1.1-.46,1.54,1.54,0,0,0-1.15.49,2.22,2.22,0,0,0-.59,1.27Z" fill="#1e1e1e"/>
      <path d="M364.65,220.54h-.86a7.46,7.46,0,0,1-1.81-5.11,7.77,7.77,0,0,1,1.81-5.2h.87a7.87,7.87,0,0,0-1.84,5.19A7.75,7.75,0,0,0,364.65,220.54Z" fill="#1e1e1e"/>
      <path d="M371.24,218.28a5,5,0,0,1-2.32.49,3.75,3.75,0,0,1-2.88-1.15,4.3,4.3,0,0,1-1.07-3,4.47,4.47,0,0,1,1.21-3.26,4.1,4.1,0,0,1,3.07-1.24,5,5,0,0,1,2,.35v1a4.12,4.12,0,0,0-2-.5,3,3,0,0,0-2.34,1,3.62,3.62,0,0,0-.9,2.58,3.49,3.49,0,0,0,.84,2.45,2.87,2.87,0,0,0,2.2.91,4.21,4.21,0,0,0,2.2-.56Z" fill="#1e1e1e"/>
      <path d="M381.21,218.63h-1V213c0-.45,0-1,.08-1.64h0a5.38,5.38,0,0,1-.26.82l-2.87,6.45h-.48l-2.86-6.41a4.31,4.31,0,0,1-.26-.86h0c0,.34,0,.89,0,1.65v5.62h-.95v-8.4h1.3l2.58,5.86a6,6,0,0,1,.38,1h0c.17-.46.3-.81.4-1l2.63-5.84h1.24Z" fill="#1e1e1e"/>
      <path d="M383.29,218.63v-8.4h2.33q4.44,0,4.44,4.1a4.09,4.09,0,0,1-1.24,3.12,4.55,4.55,0,0,1-3.3,1.18Zm1-7.51v6.62h1.25a3.59,3.59,0,0,0,2.58-.88,3.34,3.34,0,0,0,.92-2.51q0-3.22-3.44-3.23Z" fill="#1e1e1e"/>
      <path d="M391.65,218.63v-8.4H394a2.63,2.63,0,0,1,1.73.53,1.72,1.72,0,0,1,.64,1.39,2,2,0,0,1-.39,1.24,2,2,0,0,1-1.06.75v0a2.13,2.13,0,0,1,1.36.64,2,2,0,0,1,.51,1.41,2.17,2.17,0,0,1-.78,1.74,2.84,2.84,0,0,1-1.95.67Zm1-7.51v2.71h1a1.94,1.94,0,0,0,1.28-.39,1.37,1.37,0,0,0,.46-1.09c0-.82-.54-1.23-1.61-1.23Zm0,3.6v3H394a2,2,0,0,0,1.35-.41,1.39,1.39,0,0,0,.47-1.12c0-1-.67-1.49-2-1.49Z" fill="#1e1e1e"/>
      <path d="M398.13,220.54h-.86a7.75,7.75,0,0,0,1.83-5.12,7.87,7.87,0,0,0-1.84-5.19h.87a7.74,7.74,0,0,1,1.83,5.2A7.43,7.43,0,0,1,398.13,220.54Z" fill="#1e1e1e"/>
      <path d="M405.35,218.76a.6.6,0,0,1-.46-.19.62.62,0,0,1-.19-.46.64.64,0,0,1,.19-.47.63.63,0,0,1,.92,0,.65.65,0,0,1,.2.47.63.63,0,0,1-.2.46A.6.6,0,0,1,405.35,218.76Z" fill="#1e1e1e"/>
      <path d="M407.85,218.76a.62.62,0,0,1-.46-.19.66.66,0,0,1-.19-.46.68.68,0,0,1,.19-.47.64.64,0,0,1,.93,0,.64.64,0,0,1,.19.47.62.62,0,0,1-.19.46A.63.63,0,0,1,407.85,218.76Z" fill="#1e1e1e"/>
      <path d="M410.36,218.76a.65.65,0,0,1-.65-.65.64.64,0,0,1,.19-.47.63.63,0,0,1,.46-.2.65.65,0,0,1,.47.2.64.64,0,0,1,.19.47.62.62,0,0,1-.19.46A.64.64,0,0,1,410.36,218.76Z" fill="#1e1e1e"/>
    </g>
    <g>
      <path d="M248.09,123h-1v-8.4h1Z" fill="#1e1e1e"/>
      <path d="M251.28,119.82V123h-1v-8.4h2.31a3.08,3.08,0,0,1,2.09.65,2.34,2.34,0,0,1,.74,1.86,2.54,2.54,0,0,1-.82,2,3.13,3.13,0,0,1-2.22.76Zm0-4.33v3.44h1a2.32,2.32,0,0,0,1.56-.46,1.67,1.67,0,0,0,.53-1.32c0-1.11-.65-1.66-2-1.66Z" fill="#1e1e1e"/>
      <path d="M265.58,123h-1v-5.64c0-.44,0-1,.09-1.63h0a5.05,5.05,0,0,1-.25.81L261.54,123h-.48l-2.87-6.41a5.64,5.64,0,0,1-.25-.86h0c0,.33,0,.88,0,1.64V123H257v-8.4h1.3l2.57,5.86a7.92,7.92,0,0,1,.39,1h0c.16-.46.3-.8.4-1l2.63-5.83h1.23Z" fill="#1e1e1e"/>
      <path d="M268.78,123h-1v-8.4h1Z" fill="#1e1e1e"/>
      <path d="M274.65,114.6l-4,9.79h-.9l4-9.79Z" fill="#1e1e1e"/>
      <path d="M278,123.14a2.76,2.76,0,0,1-2.12-.84,3.11,3.11,0,0,1-.8-2.23,3.25,3.25,0,0,1,.83-2.36,3,3,0,0,1,2.23-.85,2.66,2.66,0,0,1,2.09.83,3.75,3.75,0,0,1,0,4.59A2.88,2.88,0,0,1,278,123.14Zm.07-5.47a1.84,1.84,0,0,0-1.47.63,2.64,2.64,0,0,0-.53,1.74,2.46,2.46,0,0,0,.54,1.68,1.85,1.85,0,0,0,1.46.61,1.75,1.75,0,0,0,1.43-.6,3.23,3.23,0,0,0,0-3.45A1.73,1.73,0,0,0,278.11,117.67Z" fill="#1e1e1e"/>
      <path d="M285.35,122.94a1.82,1.82,0,0,1-.9.19c-1.05,0-1.58-.59-1.58-1.76v-3.55h-1V117h1v-1.46l1-.32V117h1.52v.82h-1.52v3.38a1.37,1.37,0,0,0,.21.86.83.83,0,0,0,.68.26,1.05,1.05,0,0,0,.63-.2Z" fill="#1e1e1e"/>
      <path d="M291.61,123h-1v-3.46c0-1.25-.47-1.87-1.4-1.87a1.53,1.53,0,0,0-1.18.54,2,2,0,0,0-.48,1.39V123h-1v-8.88h1V118h0a2.18,2.18,0,0,1,2-1.14c1.35,0,2,.81,2,2.44Z" fill="#1e1e1e"/>
      <path d="M298.24,120.24H294a2.25,2.25,0,0,0,.53,1.55,1.88,1.88,0,0,0,1.42.54,2.94,2.94,0,0,0,1.87-.67v.91a3.53,3.53,0,0,1-2.1.57,2.51,2.51,0,0,1-2-.82,3.83,3.83,0,0,1,.06-4.58,2.55,2.55,0,0,1,2-.88,2.25,2.25,0,0,1,1.82.76,3.18,3.18,0,0,1,.64,2.12Zm-1-.81a2,2,0,0,0-.4-1.3,1.37,1.37,0,0,0-1.1-.46,1.57,1.57,0,0,0-1.16.48,2.24,2.24,0,0,0-.58,1.28Z" fill="#1e1e1e"/>
      <path d="M302.82,118a1.14,1.14,0,0,0-.72-.19,1.21,1.21,0,0,0-1,.58,2.64,2.64,0,0,0-.41,1.58V123h-1v-6h1v1.24h0a2.12,2.12,0,0,1,.63-1,1.54,1.54,0,0,1,1.51-.27Z" fill="#1e1e1e"/>
      <path d="M303.5,122.78v-1a2.84,2.84,0,0,0,1.73.58c.85,0,1.27-.28,1.27-.84a.76.76,0,0,0-.11-.41,1,1,0,0,0-.29-.29,2.28,2.28,0,0,0-.44-.24l-.53-.21a6.76,6.76,0,0,1-.7-.32,2.55,2.55,0,0,1-.51-.36,1.52,1.52,0,0,1-.3-.46,1.63,1.63,0,0,1-.1-.61,1.38,1.38,0,0,1,.19-.74,1.78,1.78,0,0,1,.51-.55A2.49,2.49,0,0,1,305,117a3.59,3.59,0,0,1,2.25.16v1a2.71,2.71,0,0,0-1.53-.43,1.75,1.75,0,0,0-.48.06,1.15,1.15,0,0,0-.37.17.91.91,0,0,0-.25.27.77.77,0,0,0-.08.34.87.87,0,0,0,.08.39,1,1,0,0,0,.25.29,2.48,2.48,0,0,0,.4.22l.54.21c.26.11.5.21.71.32a2.82,2.82,0,0,1,.54.36,1.41,1.41,0,0,1,.34.47,1.46,1.46,0,0,1,.12.62,1.5,1.5,0,0,1-.19.78,1.61,1.61,0,0,1-.53.54,2.55,2.55,0,0,1-.75.33,3.82,3.82,0,0,1-.9.1A3.41,3.41,0,0,1,303.5,122.78Z" fill="#1e1e1e"/>
    </g>
    <g>
      <path d="M386.71,122.66V121.5a2.23,2.23,0,0,0,.48.32,3.69,3.69,0,0,0,.58.23,3.5,3.5,0,0,0,.62.15,3.07,3.07,0,0,0,.57.06,2.29,2.29,0,0,0,1.36-.34,1.15,1.15,0,0,0,.45-1,1.13,1.13,0,0,0-.15-.59,1.76,1.76,0,0,0-.41-.46,4.57,4.57,0,0,0-.63-.4l-.77-.4c-.3-.15-.57-.3-.82-.45a3.57,3.57,0,0,1-.67-.51,2.26,2.26,0,0,1-.44-.62,1.91,1.91,0,0,1-.16-.82,1.93,1.93,0,0,1,.25-1,2.32,2.32,0,0,1,.66-.7,3.19,3.19,0,0,1,.94-.41,4.29,4.29,0,0,1,1.07-.13,4.08,4.08,0,0,1,1.81.3v1.1a3.31,3.31,0,0,0-1.91-.51,2.88,2.88,0,0,0-.65.07,1.77,1.77,0,0,0-.57.21,1.42,1.42,0,0,0-.41.4,1,1,0,0,0-.16.58,1.22,1.22,0,0,0,.12.56,1.31,1.31,0,0,0,.36.43,3,3,0,0,0,.57.37c.22.12.48.26.77.4s.59.31.86.47a4,4,0,0,1,.71.54,2.42,2.42,0,0,1,.48.67,1.84,1.84,0,0,1,.18.83,2.14,2.14,0,0,1-.24,1.05,1.93,1.93,0,0,1-.66.7,2.8,2.8,0,0,1-.95.39,5.24,5.24,0,0,1-1.14.12l-.49,0a4.69,4.69,0,0,1-.6-.1,4.74,4.74,0,0,1-.57-.15A1.83,1.83,0,0,1,386.71,122.66Z" fill="#1e1e1e"/>
      <path d="M400.25,123H399l-4.32-6.7a2.86,2.86,0,0,1-.27-.52h0a7.12,7.12,0,0,1,0,1.15V123h-1v-8.4h1.27l4.21,6.59a5.88,5.88,0,0,1,.34.56h0a11.05,11.05,0,0,1-.05-1.23V114.6h1Z" fill="#1e1e1e"/>
      <path d="M411,123h-1v-5.64c0-.44,0-1,.08-1.63h0a5.05,5.05,0,0,1-.25.81L407,123h-.48l-2.87-6.41a4.68,4.68,0,0,1-.25-.86h0c0,.33,0,.88,0,1.64V123h-.95v-8.4h1.3l2.58,5.86a7.92,7.92,0,0,1,.39,1h0c.17-.46.31-.8.41-1l2.63-5.83H411Z" fill="#1e1e1e"/>
      <path d="M414.21,119.82V123h-1v-8.4h2.31a3.09,3.09,0,0,1,2.09.65,2.37,2.37,0,0,1,.74,1.86,2.55,2.55,0,0,1-.83,2,3.12,3.12,0,0,1-2.22.76Zm0-4.33v3.44h1a2.32,2.32,0,0,0,1.56-.46,1.65,1.65,0,0,0,.54-1.32c0-1.11-.66-1.66-2-1.66Z" fill="#1e1e1e"/>
    </g>
  </g>
</svg>
