<svg xmlns="http://www.w3.org/2000/svg" xmlns:xlink="http://www.w3.org/1999/xlink" viewBox="0 0 505.88 145.88">
  <defs>
    <linearGradient id="linear-gradient" x1="24.57" y1="584.87" x2="24.57" y2="562.99" gradientTransform="matrix(1, 0, 0, -1, 0, 603.75)" gradientUnits="userSpaceOnUse">
      <stop offset="0" stop-color="#5ea0ef"/>
      <stop offset="0.18" stop-color="#559cec"/>
      <stop offset="0.47" stop-color="#3c91e5"/>
      <stop offset="0.84" stop-color="#1380da"/>
      <stop offset="1" stop-color="#0078d4"/>
    </linearGradient>
    <linearGradient id="linear-gradient-2" x1="20.91" y1="562.76" x2="20.91" y2="573.36" gradientTransform="matrix(1, 0, 0, -1, 0, 603.75)" gradientUnits="userSpaceOnUse">
      <stop offset="0" stop-color="#198ab3"/>
      <stop offset="0.14" stop-color="#22a5cb"/>
      <stop offset="0.3" stop-color="#29bade"/>
      <stop offset="0.47" stop-color="#2ec9eb"/>
      <stop offset="0.68" stop-color="#31d1f3"/>
      <stop offset="1" stop-color="#32d4f5"/>
    </linearGradient>
  </defs>
  <g id="Shapes">
    <rect x="0.13" width="505.75" height="145.88" fill="#fff"/>
    <g>
      <circle cx="34.41" cy="118.88" r="23" fill="#fff"/>
      <circle cx="34.41" cy="118.88" r="23" fill="#3c3c41" opacity="0.15"/>
    </g>
    <g>
      <g>
        <rect x="0.5" y="0.38" width="505" height="80" rx="5" fill="#fff"/>
        <rect x="0.5" y="0.38" width="505" height="80" rx="5" fill="#3c3c41" opacity="0.03"/>
      </g>
      <path d="M500.5,80.75h-2.12V80h2.12a4.56,4.56,0,0,0,1.68-.32l.28.7A5.25,5.25,0,0,1,500.5,80.75Zm-4.12,0h-4V80h4Zm-6,0h-4V80h4Zm-6,0h-4V80h4Zm-6,0h-4V80h4Zm-6,0h-4V80h4Zm-6,0h-4V80h4Zm-6,0h-4V80h4Zm-6,0h-4V80h4Zm-6,0h-4V80h4Zm-6,0h-4V80h4Zm-6,0h-4V80h4Zm-6,0h-4V80h4Zm-6,0h-4V80h4Zm-6,0h-4V80h4Zm-6,0h-4V80h4Zm-6,0h-4V80h4Zm-6,0h-4V80h4Zm-6,0h-4V80h4Zm-6,0h-4V80h4Zm-6,0h-4V80h4Zm-6,0h-4V80h4Zm-6,0h-4V80h4Zm-6,0h-4V80h4Zm-6,0h-4V80h4Zm-6,0h-4V80h4Zm-6,0h-4V80h4Zm-6,0h-4V80h4Zm-6,0h-4V80h4Zm-6,0h-4V80h4Zm-6,0h-4V80h4Zm-6,0h-4V80h4Zm-6,0h-4V80h4Zm-6,0h-4V80h4Zm-6,0h-4V80h4Zm-6,0h-4V80h4Zm-6,0h-4V80h4Zm-6,0h-4V80h4Zm-6,0h-4V80h4Zm-6,0h-4V80h4Zm-6,0h-4V80h4Zm-6,0h-4V80h4Zm-6,0h-4V80h4Zm-6,0h-4V80h4Zm-6,0h-4V80h4Zm-6,0h-4V80h4Zm-6,0h-4V80h4Zm-6,0h-4V80h4Zm-6,0h-4V80h4Zm-6,0h-4V80h4Zm-6,0h-4V80h4Zm-6,0h-4V80h4Zm-6,0h-4V80h4Zm-6,0h-4V80h4Zm-6,0h-4V80h4Zm-6,0h-4V80h4Zm-6,0h-4V80h4Zm-6,0h-4V80h4Zm-6,0h-4V80h4Zm-6,0h-4V80h4Zm-6,0h-4V80h4Zm-6,0h-4V80h4Zm-6,0h-4V80h4Zm-6,0h-4V80h4Zm-6,0h-4V80h4Zm-6,0h-4V80h4Zm-6,0h-4V80h4Zm-6,0h-4V80h4Zm-6,0h-4V80h4Zm-6,0h-4V80h4Zm-6,0h-4V80h4Zm-6,0h-4V80h4Zm-6,0h-4V80h4Zm-6,0h-4V80h4Zm-6,0h-4V80h4Zm-6,0h-4V80h4Zm-6,0h-4V80h4Zm-6,0h-4V80h4Zm-6,0h-4V80h4Zm-6,0h-4V80h4Zm-6,0h-4V80h4Zm-6,0h-4V80h4Zm-6,0h-4V80h4Zm-6,0a5.35,5.35,0,0,1-3.85-1.63l.54-.52A4.61,4.61,0,0,0,5.5,80Zm498.75-1.53-.53-.54a4.55,4.55,0,0,0,1.41-3.3l.75-.06v.06A5.33,5.33,0,0,1,504.25,79.22ZM.5,77.33a5.2,5.2,0,0,1-.37-2V73.25H.88v2.13a4.59,4.59,0,0,0,.31,1.68Zm505.38-4h-.75v-4h.75ZM.88,71.25H.13v-4H.88Zm505-3.92h-.75v-4h.75ZM.88,65.27H.13v-4H.88Zm505-3.92h-.75v-4h.75ZM.88,59.28H.13v-4H.88Zm505-3.92h-.75v-4h.75ZM.88,53.3H.13v-4H.88Zm505-3.92h-.75v-4h.75ZM.88,47.31H.13v-4H.88Zm505-3.92h-.75v-4h.75ZM.88,41.32H.13v-4H.88Zm505-3.92h-.75v-4h.75ZM.88,35.34H.13v-4H.88Zm505-3.92h-.75v-4h.75ZM.88,29.35H.13v-4H.88Zm505-3.92h-.75v-4h.75ZM.88,23.36H.13v-4H.88Zm505-3.92h-.75v-4h.75ZM.88,17.38H.13v-4H.88Zm505-3.92h-.75v-4h.75ZM.88,11.39H.13v-4H.88Zm505-3.92h-.75V5.38a4.73,4.73,0,0,0-.33-1.71l.69-.28a5.19,5.19,0,0,1,.39,2ZM.13,5.4v0a5.35,5.35,0,0,1,1.6-3.83l.53.54A4.57,4.57,0,0,0,.88,5.38ZM503.79,2.13A4.6,4.6,0,0,0,500.5.75l0-.75h0a5.3,5.3,0,0,1,3.82,1.61Zm-500-1L3.51.38A5.38,5.38,0,0,1,5.5,0H7.6V.75H5.5A4.53,4.53,0,0,0,3.79,1.08ZM498.48.75h-4V0h4Zm-6,0h-4V0h4Zm-6,0h-4V0h4Zm-6,0h-4V0h4Zm-6,0h-4V0h4Zm-6,0h-4V0h4Zm-6,0h-4V0h4Zm-6,0h-4V0h4Zm-6,0h-4V0h4Zm-6,0h-4V0h4Zm-6,0h-4V0h4Zm-6,0h-4V0h4Zm-6,0h-4V0h4Zm-6,0h-4V0h4Zm-6,0h-4V0h4Zm-6,0h-4V0h4Zm-6,0h-4V0h4Zm-6,0h-4V0h4Zm-6,0h-4V0h4Zm-6,0h-4V0h4Zm-6,0h-4V0h4Zm-6,0h-4V0h4Zm-6,0h-4V0h4Zm-6,0h-4V0h4Zm-6,0h-4V0h4Zm-6,0h-4V0h4Zm-6,0h-4V0h4Zm-6,0h-4V0h4Zm-6,0h-4V0h4Zm-6,0h-4V0h4Zm-6,0h-4V0h4Zm-6,0h-4V0h4Zm-6,0h-4V0h4Zm-6,0h-4V0h4Zm-6,0h-4V0h4Zm-6,0h-4V0h4Zm-6,0h-4V0h4Zm-6,0h-4V0h4Zm-6,0h-4V0h4Zm-6,0h-4V0h4Zm-6,0h-4V0h4Zm-6,0h-4V0h4Zm-6,0h-4V0h4Zm-6,0h-4V0h4Zm-6,0h-4V0h4Zm-6,0h-4V0h4Zm-6,0h-4V0h4Zm-6,0h-4V0h4Zm-6,0h-4V0h4Zm-6,0h-4V0h4Zm-6,0h-4V0h4Zm-6,0h-4V0h4Zm-6,0h-4V0h4Zm-6,0h-4V0h4Zm-6,0h-4V0h4Zm-6,0h-4V0h4Zm-6,0h-4V0h4Zm-6,0h-4V0h4Zm-6,0h-4V0h4Zm-6,0h-4V0h4Zm-6,0h-4V0h4Zm-6,0h-4V0h4Zm-6,0h-4V0h4Zm-6,0h-4V0h4Zm-6,0h-4V0h4Zm-6,0h-4V0h4Zm-6,0h-4V0h4Zm-6,0h-4V0h4Zm-6,0h-4V0h4Zm-6,0h-4V0h4Zm-6,0h-4V0h4Zm-6,0h-4V0h4Zm-6,0h-4V0h4Zm-6,0h-4V0h4Zm-6,0h-4V0h4Zm-6,0h-4V0h4Zm-6,0h-4V0h4Zm-6,0h-4V0h4Zm-6,0h-4V0h4Zm-6,0h-4V0h4Zm-6,0h-4V0h4Zm-6,0h-4V0h4Z" fill="#3c3c41"/>
    </g>
    <path d="M26.12,107.38a2.31,2.31,0,0,0-1.5.44,2.35,2.35,0,0,0-.75,1.38q-2,9.19-4,18.39h0a2.38,2.38,0,0,0,.34,1.92,2.23,2.23,0,0,0,1.82.87H42.77a2.19,2.19,0,0,0,1.52-.58,2.48,2.48,0,0,0,.65-1.29h0q2-9.23,4-18.47a2.26,2.26,0,0,0-.36-1.91,2.21,2.21,0,0,0-1.77-.74Zm0,2.09H47a.89.89,0,0,1,0,.11q-2,9.24-4,18.48h0c0,.2-.08.24-.07.23H22c-.2,0-.15,0-.13,0a1,1,0,0,1,0-.26h0l4-18.38a.72.72,0,0,1,.05-.17Zm3.62,1A1.57,1.57,0,0,0,28.12,112a1.58,1.58,0,0,0,.44,1.14l5.07,5.41-8,5.85A1.57,1.57,0,1,0,27.41,127l.09-.07L36.91,120a1.56,1.56,0,0,0,.33-2.19.79.79,0,0,0-.12-.15L30.85,111A1.54,1.54,0,0,0,29.74,110.5Zm4.15,13.6a1.57,1.57,0,0,0,0,3.14h4.23a1.57,1.57,0,0,0,0-3.14H33.89Z"/>
    <g>
      <rect x="24.89" y="24.88" width="130.11" height="45" fill="#fff"/>
      <rect x="24.89" y="24.88" width="130.11" height="45" fill="#0072c6" opacity="0.05"/>
      <rect x="24.89" y="24.88" width="130.11" height="45" fill="none" stroke="#0072c6" stroke-miterlimit="10" stroke-width="0.5" opacity="0.6"/>
    </g>
    <g>
      <rect x="215.11" y="24.88" width="109.89" height="45" fill="#fff"/>
      <rect x="215.11" y="24.88" width="109.89" height="45" fill="#3c3c41" opacity="0.25"/>
    </g>
    <g>
      <rect x="215" y="89.88" width="175" height="45.26" fill="#fff"/>
      <rect x="215" y="89.88" width="175" height="45.26" fill="#258277" opacity="0.25"/>
    </g>
    <g id="b1186d34-5ca3-4e43-992d-40ecef5e891b">
      <g>
        <path d="M30.26,18.88H18.88a.73.73,0,0,0-.74.72V35.82A14,14,0,0,1,20,34.52h2.15l1.2,1.59v2.4L21.83,39.6l-2.09-.26-1.6-1.51V40a.75.75,0,0,0,.74.73H30.26A.73.73,0,0,0,31,40V19.6A.72.72,0,0,0,30.26,18.88Z" fill="url(#linear-gradient)"/>
        <path id="af47f827-8b1b-4acd-8974-8eafe35490c9" d="M19.84,21.15h2.1a.18.18,0,0,1,.18.18h0V24a.19.19,0,0,1-.18.19h-2.1a.19.19,0,0,1-.18-.19h0v-2.7a.18.18,0,0,1,.18-.18Zm3.68,0h2.09a.18.18,0,0,1,.18.18h0V24a.19.19,0,0,1-.18.19H23.52a.19.19,0,0,1-.18-.19h0v-2.7a.18.18,0,0,1,.18-.18Zm3.69,0H29.3a.19.19,0,0,1,.19.18h0V24a.2.2,0,0,1-.19.19H27.21A.19.19,0,0,1,27,24h0v-2.7a.18.18,0,0,1,.18-.18ZM19.84,26h2.1a.19.19,0,0,1,.18.19h0V29a.18.18,0,0,1-.18.18h-2.1a.18.18,0,0,1-.18-.18h0V26.24a.18.18,0,0,1,.16-.2Zm3.68,0h2.09a.19.19,0,0,1,.18.19h0V29a.18.18,0,0,1-.18.18H23.52a.18.18,0,0,1-.18-.18h0V26.24a.17.17,0,0,1,.15-.2Zm3.69,0H29.3a.2.2,0,0,1,.19.19h0V29a.19.19,0,0,1-.19.18H27.21A.18.18,0,0,1,27,29h0V26.24a.17.17,0,0,1,.15-.2ZM19.84,31h2.1a.18.18,0,0,1,.18.18h0v2.68a.18.18,0,0,1-.18.18h-2.1a.18.18,0,0,1-.18-.18V31.15A.18.18,0,0,1,19.84,31Zm3.68,0h2.09a.18.18,0,0,1,.18.18h0v2.68a.18.18,0,0,1-.18.18H23.52a.18.18,0,0,1-.18-.18h0V31.15A.18.18,0,0,1,23.52,31Zm0,4.91h2.09a.19.19,0,0,1,.18.19h0v4a.18.18,0,0,1-.18.18H23.52a.18.18,0,0,1-.18-.18v-4a.19.19,0,0,1,.18-.19ZM27.21,31H29.3a.19.19,0,0,1,.19.18h0v2.68a.19.19,0,0,1-.19.18H27.21a.18.18,0,0,1-.18-.18h0V31.15A.18.18,0,0,1,27.21,31Z" fill="#f2f2f2"/>
        <path d="M20.94,35.13a1.7,1.7,0,0,0-1.62,1.3H13.48a3.46,3.46,0,0,0-.11.84v.08h6a1.68,1.68,0,1,0,1.62-2.22Z" fill="#50e6ff"/>
        <path d="M25.48,34.43a4.22,4.22,0,0,0-4.42-4,4.33,4.33,0,0,0-4.15,2.83,4.13,4.13,0,0,0-3.3,2.6H19a2.23,2.23,0,1,1,4,2,2.25,2.25,0,0,1-4.06,0H13.46a4.16,4.16,0,0,0,4.14,3.14H25a3.41,3.41,0,0,0,3.37-3.14A3.36,3.36,0,0,0,25.48,34.43Z" fill="url(#linear-gradient-2)"/>
        <path d="M20.94,35.13a1.7,1.7,0,0,0-1.62,1.3H13.48a2.49,2.49,0,0,1-.61-.08,2.94,2.94,0,0,1,.32-5.82h.29l.09-.26a3.31,3.31,0,0,1,3.19-2.22,3.45,3.45,0,0,1,3,1.65,4,4,0,0,1,1-.12,4.3,4.3,0,0,0-3.9-2.45,4.25,4.25,0,0,0-4,2.53,3.82,3.82,0,0,0-.3,7.48h0a2.35,2.35,0,0,0,.95.16h5.88a1.68,1.68,0,1,0,1.62-2.17Z" fill="#50e6ff"/>
      </g>
    </g>
    <g>
      <line x1="155" y1="37.88" x2="209.62" y2="37.88" fill="none" stroke="#3c3c41" stroke-miterlimit="10"/>
      <polygon points="208.52 41.62 215 37.88 208.52 34.13 208.52 41.62" fill="#3c3c41"/>
    </g>
    <g>
      <line x1="160.38" y1="57.88" x2="215" y2="57.88" fill="none" stroke="#3c3c41" stroke-miterlimit="10"/>
      <polygon points="161.48 61.62 155 57.88 161.48 54.13 161.48 61.62" fill="#3c3c41"/>
    </g>
    <g>
      <rect x="385" y="24.88" width="109.89" height="45" fill="#fff"/>
      <rect x="385" y="24.88" width="109.89" height="45" fill="#3c3c41" opacity="0.25"/>
    </g>
    <g>
      <line x1="325" y1="37.88" x2="379.62" y2="37.88" fill="none" stroke="#3c3c41" stroke-miterlimit="10"/>
      <polygon points="378.52 41.62 385 37.88 378.52 34.13 378.52 41.62" fill="#3c3c41"/>
    </g>
    <g>
      <line x1="326.2" y1="57.88" x2="385" y2="57.88" fill="none" stroke="#258277" stroke-miterlimit="10"/>
      <path d="M333,62.67a.49.49,0,0,0-.16-.69l-6.45-4.1,6.45-4.11a.49.49,0,0,0,.16-.69.5.5,0,0,0-.69-.16l-7.12,4.53a.51.51,0,0,0,0,.85l7.12,4.53a.5.5,0,0,0,.26.08A.52.52,0,0,0,333,62.67Z" fill="#258277"/>
    </g>
    <g>
      <path d="M440,69.88v35a5,5,0,0,1-5,5H391.2" fill="none" stroke="#258277" stroke-miterlimit="10"/>
      <path d="M398,105.08a.49.49,0,0,1-.16.69l-6.45,4.11,6.45,4.1a.49.49,0,0,1,.16.69.5.5,0,0,1-.69.16l-7.12-4.53a.51.51,0,0,1,0-.85l7.12-4.53a.5.5,0,0,1,.26-.08A.52.52,0,0,1,398,105.08Z" fill="#258277"/>
    </g>
    <g>
      <path d="M215,109.88H90a5,5,0,0,1-5-5V71.08" fill="none" stroke="#258277" stroke-miterlimit="10"/>
      <path d="M89.8,77.91a.5.5,0,0,1-.69-.15L85,71.31l-4.11,6.45a.5.5,0,1,1-.84-.54l4.53-7.11a.5.5,0,0,1,.84,0L90,77.22a.45.45,0,0,1,.08.27A.49.49,0,0,1,89.8,77.91Z" fill="#258277"/>
    </g>
  </g>
  <g id="Text">
    <g>
      <path d="M54.16,44.88H53.07l-.89-2.36H48.61l-.83,2.36h-1.1l3.22-8.41h1Zm-2.31-3.25-1.31-3.58a2.44,2.44,0,0,1-.13-.56h0a3.13,3.13,0,0,1-.13.56l-1.31,3.58Z" fill="#1e1e1e"/>
      <path d="M59.45,39.15l-3.55,4.9h3.51v.83H54.48v-.3L58,39.7H54.82v-.82h4.63Z" fill="#1e1e1e"/>
      <path d="M65.54,44.88h-1v-1h0A2,2,0,0,1,62.71,45c-1.43,0-2.15-.86-2.15-2.56V38.88h1v3.43c0,1.26.48,1.9,1.45,1.9a1.5,1.5,0,0,0,1.16-.52,2,2,0,0,0,.45-1.36V38.88h1Z" fill="#1e1e1e"/>
      <path d="M70.61,39.85a1.18,1.18,0,0,0-.73-.2,1.25,1.25,0,0,0-1,.58,2.75,2.75,0,0,0-.41,1.59v3.06h-1v-6h1v1.23h0a2.08,2.08,0,0,1,.62-1,1.47,1.47,0,0,1,1-.35,1.65,1.65,0,0,1,.57.08Z" fill="#1e1e1e"/>
      <path d="M76.48,42.12H72.24a2.18,2.18,0,0,0,.54,1.54,1.82,1.82,0,0,0,1.42.55,3,3,0,0,0,1.86-.67v.9A3.52,3.52,0,0,1,74,45a2.55,2.55,0,0,1-2-.82,3.33,3.33,0,0,1-.73-2.3,3.25,3.25,0,0,1,.8-2.28,2.54,2.54,0,0,1,2-.89,2.26,2.26,0,0,1,1.82.77,3.15,3.15,0,0,1,.65,2.11Zm-1-.82a1.93,1.93,0,0,0-.4-1.29,1.36,1.36,0,0,0-1.1-.47,1.56,1.56,0,0,0-1.15.49,2.16,2.16,0,0,0-.59,1.27Z" fill="#1e1e1e"/>
      <path d="M81,44.54V43.38a2.21,2.21,0,0,0,.48.31,3.47,3.47,0,0,0,.59.24c.2.06.41.11.61.15a4.13,4.13,0,0,0,.58.05,2.18,2.18,0,0,0,1.35-.34,1.12,1.12,0,0,0,.45-1,1.15,1.15,0,0,0-.15-.59,1.6,1.6,0,0,0-.41-.46,4.43,4.43,0,0,0-.62-.4l-.78-.4c-.29-.15-.57-.3-.82-.45a3.46,3.46,0,0,1-.66-.5,2.14,2.14,0,0,1-.45-.63,2,2,0,0,1-.16-.81,1.88,1.88,0,0,1,.26-1,1.93,1.93,0,0,1,.66-.7,2.8,2.8,0,0,1,.93-.41,4.3,4.3,0,0,1,1.07-.14,4.08,4.08,0,0,1,1.81.3v1.11a3.22,3.22,0,0,0-1.91-.52,3.48,3.48,0,0,0-.64.07,1.75,1.75,0,0,0-.58.22,1.38,1.38,0,0,0-.41.39,1.1,1.1,0,0,0-.16.59,1.18,1.18,0,0,0,.12.55,1.31,1.31,0,0,0,.36.43,3.76,3.76,0,0,0,.57.38l.78.4c.3.14.58.3.85.46a4,4,0,0,1,.71.55,2.32,2.32,0,0,1,.48.66,1.84,1.84,0,0,1,.18.83,2.16,2.16,0,0,1-.24,1.06,2,2,0,0,1-.66.7,2.8,2.8,0,0,1-1,.39,5.22,5.22,0,0,1-1.13.12c-.14,0-.3,0-.5,0L82,44.89a4.45,4.45,0,0,1-.58-.15A2,2,0,0,1,81,44.54Z" fill="#1e1e1e"/>
      <path d="M90,44.82a2,2,0,0,1-.9.18c-1,0-1.58-.58-1.58-1.75V39.7h-1v-.82h1V37.41l1-.31v1.78H90v.82H88.48v3.38a1.38,1.38,0,0,0,.2.86.83.83,0,0,0,.68.26A1.05,1.05,0,0,0,90,44Z" fill="#1e1e1e"/>
      <path d="M95.56,44.88h-1v-.94h0A2,2,0,0,1,92.73,45a2,2,0,0,1-1.4-.48,1.65,1.65,0,0,1-.51-1.26c0-1.12.66-1.77,2-2l1.79-.25q0-1.53-1.23-1.53a3,3,0,0,0-2,.74v-1a3.68,3.68,0,0,1,2-.57c1.41,0,2.11.75,2.11,2.24Zm-1-3-1.44.2a2.3,2.3,0,0,0-1,.33,1,1,0,0,0-.34.84.92.92,0,0,0,.31.72,1.25,1.25,0,0,0,.84.28,1.56,1.56,0,0,0,1.18-.5,1.8,1.8,0,0,0,.46-1.27Z" fill="#1e1e1e"/>
      <path d="M101.47,44.6a3.14,3.14,0,0,1-1.65.42,2.72,2.72,0,0,1-2.07-.84A3,3,0,0,1,97,42a3.37,3.37,0,0,1,.84-2.39,3,3,0,0,1,2.27-.9,3.13,3.13,0,0,1,1.4.3v1a2.47,2.47,0,0,0-1.43-.47,1.92,1.92,0,0,0-1.51.66A2.52,2.52,0,0,0,98,41.93a2.39,2.39,0,0,0,.55,1.67,1.94,1.94,0,0,0,1.49.61,2.49,2.49,0,0,0,1.48-.52Z" fill="#1e1e1e"/>
      <path d="M107.9,44.88h-1.35L103.9,42h0v2.89h-1V36h1v5.63h0l2.52-2.74h1.26l-2.78,2.89Z" fill="#1e1e1e"/>
      <path d="M118.62,44.88h-1V41h-4.35v3.84h-1V36.47h1v3.69h4.35V36.47h1Z" fill="#1e1e1e"/>
      <path d="M125.54,44.88h-1v-1h0A2,2,0,0,1,122.71,45c-1.43,0-2.15-.86-2.15-2.56V38.88h1v3.43c0,1.26.48,1.9,1.45,1.9a1.5,1.5,0,0,0,1.16-.52,2,2,0,0,0,.45-1.36V38.88h1Z" fill="#1e1e1e"/>
      <path d="M128.47,44h0v.87h-1V36h1v3.94h0a2.26,2.26,0,0,1,2.07-1.2,2.2,2.2,0,0,1,1.81.81A3.37,3.37,0,0,1,133,41.7a3.71,3.71,0,0,1-.73,2.41,2.46,2.46,0,0,1-2,.91A2,2,0,0,1,128.47,44Zm0-2.42v.84a1.77,1.77,0,0,0,.49,1.26,1.71,1.71,0,0,0,2.59-.15,3.09,3.09,0,0,0,.5-1.86,2.41,2.41,0,0,0-.47-1.57,1.52,1.52,0,0,0-1.25-.57,1.71,1.71,0,0,0-1.35.59A2.11,2.11,0,0,0,128.44,41.59Z" fill="#1e1e1e"/>
      <path d="M78.56,60H77.7a7.52,7.52,0,0,1-1.82-5.12,7.78,7.78,0,0,1,1.82-5.2h.87a7.91,7.91,0,0,0-1.84,5.19A7.77,7.77,0,0,0,78.56,60Z" fill="#1e1e1e"/>
      <path d="M86.29,58.08H85.2l-.89-2.36H80.75l-.84,2.36h-1.1L82,49.67h1ZM84,54.83l-1.32-3.58a3.14,3.14,0,0,1-.13-.56h0a3,3,0,0,1-.14.56l-1.31,3.58Z" fill="#1e1e1e"/>
      <path d="M88.51,54.9v3.18h-1V49.67h2.3a3,3,0,0,1,2.09.66,2.32,2.32,0,0,1,.74,1.85,2.54,2.54,0,0,1-.82,2,3.13,3.13,0,0,1-2.22.76Zm0-4.34V54h1a2.33,2.33,0,0,0,1.56-.47,1.67,1.67,0,0,0,.53-1.31c0-1.11-.65-1.67-2-1.67Z" fill="#1e1e1e"/>
      <path d="M95.23,58.08h-1V49.67h1Z" fill="#1e1e1e"/>
      <path d="M97,57.86v-1a2.88,2.88,0,0,0,1.73.58c.84,0,1.26-.28,1.26-.85a.65.65,0,0,0-.11-.4,1,1,0,0,0-.29-.3,2.18,2.18,0,0,0-.43-.23l-.54-.21-.7-.32a2,2,0,0,1-.5-.37,1.29,1.29,0,0,1-.31-.46,1.57,1.57,0,0,1-.1-.6,1.44,1.44,0,0,1,.19-.75,1.67,1.67,0,0,1,.52-.54,2.21,2.21,0,0,1,.73-.33,3.08,3.08,0,0,1,.86-.12,3.41,3.41,0,0,1,1.39.27v1a2.71,2.71,0,0,0-1.52-.44,1.88,1.88,0,0,0-.49.06,1.28,1.28,0,0,0-.37.18.85.85,0,0,0-.24.26.7.7,0,0,0-.09.35A.8.8,0,0,0,98,54a.94.94,0,0,0,.25.28,1.67,1.67,0,0,0,.4.22l.53.22c.27.1.5.21.71.31a2.23,2.23,0,0,1,.54.37,1.41,1.41,0,0,1,.35.46,1.54,1.54,0,0,1,.12.63,1.47,1.47,0,0,1-.2.77,1.82,1.82,0,0,1-.52.55,2.6,2.6,0,0,1-.76.32,3.76,3.76,0,0,1-.9.11A3.37,3.37,0,0,1,97,57.86Z" fill="#1e1e1e"/>
      <path d="M102.43,60h-.86a7.77,7.77,0,0,0,1.83-5.13,7.91,7.91,0,0,0-1.84-5.19h.87a7.73,7.73,0,0,1,1.82,5.2A7.47,7.47,0,0,1,102.43,60Z" fill="#1e1e1e"/>
    </g>
    <g>
      <path d="M245.22,45a3.69,3.69,0,0,1-2.86-1.18,4.38,4.38,0,0,1-1.08-3.07,4.62,4.62,0,0,1,1.1-3.23,3.8,3.8,0,0,1,3-1.21,3.6,3.6,0,0,1,2.8,1.17,4.42,4.42,0,0,1,1.07,3.07,4.68,4.68,0,0,1-1.09,3.25A3.76,3.76,0,0,1,245.22,45Zm.07-7.8a2.7,2.7,0,0,0-2.15,1,4.22,4.22,0,0,0,0,5,2.58,2.58,0,0,0,2.1,1,2.76,2.76,0,0,0,2.18-.9,3.69,3.69,0,0,0,.79-2.53,3.83,3.83,0,0,0-.77-2.57A2.67,2.67,0,0,0,245.29,37.22Z" fill="#1e1e1e"/>
      <path d="M251.73,44h0v3.62h-1V38.88h1v1h0a2.29,2.29,0,0,1,2.08-1.2,2.2,2.2,0,0,1,1.81.81,3.37,3.37,0,0,1,.65,2.16,3.76,3.76,0,0,1-.73,2.41,2.46,2.46,0,0,1-2,.91A2,2,0,0,1,251.73,44Zm0-2.42v.84a1.8,1.8,0,0,0,.48,1.26,1.73,1.73,0,0,0,2.6-.15,3.09,3.09,0,0,0,.49-1.86,2.41,2.41,0,0,0-.46-1.57,1.53,1.53,0,0,0-1.25-.57,1.71,1.71,0,0,0-1.35.59A2.11,2.11,0,0,0,251.71,41.59Z" fill="#1e1e1e"/>
      <path d="M262.63,42.12h-4.24a2.23,2.23,0,0,0,.54,1.54,1.84,1.84,0,0,0,1.42.55,3,3,0,0,0,1.86-.67v.9a3.5,3.5,0,0,1-2.09.58,2.55,2.55,0,0,1-2-.82,3.37,3.37,0,0,1-.73-2.3,3.25,3.25,0,0,1,.8-2.28,2.54,2.54,0,0,1,2-.89,2.26,2.26,0,0,1,1.82.77,3.15,3.15,0,0,1,.65,2.11Zm-1-.82a1.93,1.93,0,0,0-.4-1.29,1.36,1.36,0,0,0-1.1-.47A1.56,1.56,0,0,0,259,40a2.22,2.22,0,0,0-.59,1.27Z" fill="#1e1e1e"/>
      <path d="M267.21,39.85a1.18,1.18,0,0,0-.73-.2,1.25,1.25,0,0,0-1,.58,2.75,2.75,0,0,0-.41,1.59v3.06h-1v-6h1v1.23h0a2.17,2.17,0,0,1,.63-1,1.46,1.46,0,0,1,.94-.35,1.71,1.71,0,0,1,.58.08Z" fill="#1e1e1e"/>
      <path d="M272.55,44.88h-1v-.94h0A2,2,0,0,1,269.72,45a2,2,0,0,1-1.41-.48,1.64,1.64,0,0,1-.5-1.26c0-1.12.66-1.77,2-2l1.79-.25q0-1.53-1.23-1.53a3,3,0,0,0-2,.74v-1a3.68,3.68,0,0,1,2-.57c1.41,0,2.12.75,2.12,2.24Zm-1-3-1.44.2a2.3,2.3,0,0,0-1,.33,1,1,0,0,0-.34.84.92.92,0,0,0,.31.72,1.25,1.25,0,0,0,.84.28,1.55,1.55,0,0,0,1.18-.5,1.8,1.8,0,0,0,.46-1.27Z" fill="#1e1e1e"/>
      <path d="M277.14,44.82a2,2,0,0,1-.9.18c-1.05,0-1.57-.58-1.57-1.75V39.7h-1v-.82h1V37.41l1-.31v1.78h1.51v.82h-1.51v3.38a1.45,1.45,0,0,0,.2.86.84.84,0,0,0,.68.26,1.05,1.05,0,0,0,.63-.2Z" fill="#1e1e1e"/>
      <path d="M278.92,37.35a.62.62,0,0,1-.44-.17.63.63,0,0,1,.44-1.08.6.6,0,0,1,.44.18.58.58,0,0,1,.19.45.58.58,0,0,1-.19.44A.6.6,0,0,1,278.92,37.35Zm.46,7.53h-1v-6h1Z" fill="#1e1e1e"/>
      <path d="M283.84,45a2.77,2.77,0,0,1-2.13-.85,3.09,3.09,0,0,1-.79-2.22,3.23,3.23,0,0,1,.83-2.37,3,3,0,0,1,2.23-.85,2.69,2.69,0,0,1,2.09.83,3.29,3.29,0,0,1,.76,2.29,3.22,3.22,0,0,1-.82,2.3A2.82,2.82,0,0,1,283.84,45Zm.07-5.48a1.84,1.84,0,0,0-1.47.63,2.59,2.59,0,0,0-.54,1.74,2.41,2.41,0,0,0,.55,1.68,1.85,1.85,0,0,0,1.46.62,1.73,1.73,0,0,0,1.43-.61,2.62,2.62,0,0,0,.5-1.71,2.71,2.71,0,0,0-.5-1.74A1.76,1.76,0,0,0,283.91,39.54Z" fill="#1e1e1e"/>
      <path d="M293.34,44.88h-1V41.45c0-1.27-.46-1.91-1.39-1.91a1.52,1.52,0,0,0-1.2.54,2.05,2.05,0,0,0-.47,1.37v3.43h-1v-6h1v1h0a2.17,2.17,0,0,1,2-1.14,1.86,1.86,0,0,1,1.51.64,2.82,2.82,0,0,1,.52,1.84Z" fill="#1e1e1e"/>
      <path d="M294.79,44.66v-1a2.88,2.88,0,0,0,1.73.58c.84,0,1.26-.28,1.26-.85a.65.65,0,0,0-.11-.4,1,1,0,0,0-.29-.3,2.18,2.18,0,0,0-.43-.23l-.54-.22c-.26-.1-.5-.21-.7-.31a2,2,0,0,1-.5-.37,1.29,1.29,0,0,1-.31-.46,1.57,1.57,0,0,1-.1-.6,1.44,1.44,0,0,1,.19-.75,1.58,1.58,0,0,1,.52-.54,2.21,2.21,0,0,1,.73-.33,3.08,3.08,0,0,1,.86-.12,3.41,3.41,0,0,1,1.39.27v1a2.71,2.71,0,0,0-1.52-.44,1.88,1.88,0,0,0-.49.06,1.28,1.28,0,0,0-.37.18.85.85,0,0,0-.24.26.7.7,0,0,0-.09.35.8.8,0,0,0,.09.39.94.94,0,0,0,.25.28,1.67,1.67,0,0,0,.4.22l.53.22c.27.1.5.21.71.31a2,2,0,0,1,.54.37,1.41,1.41,0,0,1,.35.46,1.54,1.54,0,0,1,.12.63,1.47,1.47,0,0,1-.2.77,1.82,1.82,0,0,1-.52.55,2.49,2.49,0,0,1-.76.32,3.76,3.76,0,0,1-.9.11A3.37,3.37,0,0,1,294.79,44.66Z" fill="#1e1e1e"/>
      <path d="M256,58.08h-1V52.44c0-.45,0-1,.09-1.64h0a5.64,5.64,0,0,1-.25.82L252,58.08h-.48l-2.87-6.41a5.84,5.84,0,0,1-.25-.87h0c0,.34,0,.89,0,1.65v5.63h-.95V49.67h1.3l2.57,5.86a7.92,7.92,0,0,1,.39,1h0c.16-.46.3-.8.4-1l2.63-5.84H256Z" fill="#1e1e1e"/>
      <path d="M262.4,58.08h-1v-.94h0a2,2,0,0,1-1.84,1.08,2,2,0,0,1-1.41-.48,1.68,1.68,0,0,1-.5-1.26c0-1.12.66-1.77,2-2l1.8-.25c0-1-.42-1.53-1.24-1.53a3,3,0,0,0-2,.74v-1a3.68,3.68,0,0,1,2-.57c1.41,0,2.12.75,2.12,2.24Zm-1-3-1.45.2a2.3,2.3,0,0,0-1,.33,1,1,0,0,0-.34.84.93.93,0,0,0,.32.72,1.21,1.21,0,0,0,.83.28,1.55,1.55,0,0,0,1.18-.5,1.81,1.81,0,0,0,.47-1.27Z" fill="#1e1e1e"/>
      <path d="M269.19,58.08h-1V54.65c0-1.27-.47-1.91-1.4-1.91a1.5,1.5,0,0,0-1.19.55,2,2,0,0,0-.47,1.36v3.43h-1v-6h1v1h0a2.17,2.17,0,0,1,2-1.14,1.86,1.86,0,0,1,1.51.64,2.88,2.88,0,0,1,.52,1.84Z" fill="#1e1e1e"/>
      <path d="M275.29,58.08h-1v-.94h0a2,2,0,0,1-1.85,1.08,2,2,0,0,1-1.4-.48,1.65,1.65,0,0,1-.51-1.26c0-1.12.66-1.77,2-2l1.8-.25q0-1.53-1.23-1.53a3,3,0,0,0-2,.74v-1a3.68,3.68,0,0,1,2-.57c1.41,0,2.11.75,2.11,2.24Zm-1-3-1.44.2a2.25,2.25,0,0,0-1,.33,1,1,0,0,0-.34.84.92.92,0,0,0,.31.72,1.25,1.25,0,0,0,.84.28,1.56,1.56,0,0,0,1.18-.5,1.8,1.8,0,0,0,.46-1.27Z" fill="#1e1e1e"/>
      <path d="M282.23,57.59q0,3.31-3.17,3.31a4.23,4.23,0,0,1-1.94-.42v-1a4,4,0,0,0,1.93.56c1.48,0,2.21-.79,2.21-2.36v-.65h0a2.42,2.42,0,0,1-3.86.35,3.19,3.19,0,0,1-.69-2.15,3.73,3.73,0,0,1,.74-2.43,2.46,2.46,0,0,1,2-.91,2,2,0,0,1,1.8,1h0v-.83h1Zm-1-2.23v-.88a1.73,1.73,0,0,0-.48-1.23,1.58,1.58,0,0,0-1.2-.51,1.68,1.68,0,0,0-1.4.65,2.93,2.93,0,0,0-.5,1.81,2.51,2.51,0,0,0,.48,1.61,1.56,1.56,0,0,0,1.28.6,1.67,1.67,0,0,0,1.32-.58A2.12,2.12,0,0,0,281.26,55.36Z" fill="#1e1e1e"/>
      <path d="M289,55.32h-4.23a2.18,2.18,0,0,0,.54,1.54,1.82,1.82,0,0,0,1.41.55,3,3,0,0,0,1.87-.67v.9a3.52,3.52,0,0,1-2.09.58,2.55,2.55,0,0,1-2-.82,3.83,3.83,0,0,1,.06-4.58,2.56,2.56,0,0,1,2-.89,2.26,2.26,0,0,1,1.82.77,3.15,3.15,0,0,1,.64,2.11Zm-1-.82a2,2,0,0,0-.4-1.29,1.38,1.38,0,0,0-1.1-.47,1.6,1.6,0,0,0-1.16.49,2.21,2.21,0,0,0-.58,1.27Z" fill="#1e1e1e"/>
      <path d="M293.58,53.05a1.18,1.18,0,0,0-.73-.2,1.25,1.25,0,0,0-1,.58,2.68,2.68,0,0,0-.41,1.59v3.06h-1v-6h1v1.23h0a2.17,2.17,0,0,1,.63-1A1.44,1.44,0,0,1,293,52a1.75,1.75,0,0,1,.58.08Z" fill="#1e1e1e"/>
    </g>
    <g>
      <path d="M7.66,94.68v3.17h-1v-8.4H9a3,3,0,0,1,2.09.66A2.35,2.35,0,0,1,11.81,92a2.54,2.54,0,0,1-.82,2,3.14,3.14,0,0,1-2.23.76Zm0-4.34v3.45h1a2.28,2.28,0,0,0,1.55-.47A1.64,1.64,0,0,0,10.78,92c0-1.11-.66-1.67-2-1.67Z" fill="#1e1e1e"/>
      <path d="M15.33,98a2.77,2.77,0,0,1-2.13-.85,3.09,3.09,0,0,1-.79-2.22,3.27,3.27,0,0,1,.82-2.37,3,3,0,0,1,2.24-.85,2.69,2.69,0,0,1,2.09.83,3.27,3.27,0,0,1,.75,2.29,3.21,3.21,0,0,1-.81,2.3A2.82,2.82,0,0,1,15.33,98Zm.07-5.48a1.84,1.84,0,0,0-1.47.63,2.59,2.59,0,0,0-.54,1.74,2.41,2.41,0,0,0,.55,1.68,1.85,1.85,0,0,0,1.46.62,1.73,1.73,0,0,0,1.43-.61,2.62,2.62,0,0,0,.5-1.71,2.71,2.71,0,0,0-.5-1.74A1.76,1.76,0,0,0,15.4,92.52Z" fill="#1e1e1e"/>
      <path d="M27.41,91.85l-1.8,6h-1l-1.23-4.29a2.81,2.81,0,0,1-.1-.56h0a2.51,2.51,0,0,1-.12.55l-1.35,4.3h-1l-1.81-6h1l1.24,4.52a2.84,2.84,0,0,1,.08.54h0a2.37,2.37,0,0,1,.1-.56l1.38-4.5h.88L25,96.38a4.55,4.55,0,0,1,.08.54h.05a2.61,2.61,0,0,1,.1-.54l1.22-4.53Z" fill="#1e1e1e"/>
      <path d="M33.34,95.1H29.11a2.18,2.18,0,0,0,.54,1.54,1.82,1.82,0,0,0,1.41.55,3,3,0,0,0,1.87-.67v.9a3.52,3.52,0,0,1-2.09.58,2.55,2.55,0,0,1-2-.82,3.33,3.33,0,0,1-.73-2.3,3.25,3.25,0,0,1,.8-2.28,2.52,2.52,0,0,1,2-.89,2.26,2.26,0,0,1,1.82.77,3.15,3.15,0,0,1,.64,2.11Zm-1-.82A1.93,1.93,0,0,0,32,93a1.38,1.38,0,0,0-1.1-.47,1.56,1.56,0,0,0-1.15.49,2.16,2.16,0,0,0-.59,1.27Z" fill="#1e1e1e"/>
      <path d="M37.93,92.83a1.18,1.18,0,0,0-.73-.2,1.25,1.25,0,0,0-1,.58,2.75,2.75,0,0,0-.41,1.59v3h-1v-6h1v1.24h0a2.17,2.17,0,0,1,.63-1,1.44,1.44,0,0,1,.94-.35,1.75,1.75,0,0,1,.58.08Z" fill="#1e1e1e"/>
      <path d="M38.71,97.52V96.35a2,2,0,0,0,.47.32,3.83,3.83,0,0,0,.59.24,6.23,6.23,0,0,0,.62.15,4,4,0,0,0,.57,0,2.22,2.22,0,0,0,1.36-.34,1.12,1.12,0,0,0,.45-1,1.15,1.15,0,0,0-.15-.59,1.64,1.64,0,0,0-.42-.46,3.91,3.91,0,0,0-.62-.4L40.8,94,40,93.5a3.81,3.81,0,0,1-.66-.5,2.11,2.11,0,0,1-.44-.63,1.86,1.86,0,0,1-.16-.81,1.88,1.88,0,0,1,.25-1,2.11,2.11,0,0,1,.66-.7,2.86,2.86,0,0,1,.94-.41,4.23,4.23,0,0,1,1.06-.14,4.13,4.13,0,0,1,1.82.3v1.11a3.26,3.26,0,0,0-1.91-.52,3.59,3.59,0,0,0-.65.07,1.69,1.69,0,0,0-.57.22,1.18,1.18,0,0,0-.41.39,1,1,0,0,0-.16.59,1.18,1.18,0,0,0,.12.55,1.41,1.41,0,0,0,.35.43,3.76,3.76,0,0,0,.57.38l.78.4c.3.14.59.3.86.46a4,4,0,0,1,.7.55,2.36,2.36,0,0,1,.49.66,1.84,1.84,0,0,1,.18.83,2,2,0,0,1-.9,1.76,3,3,0,0,1-.95.39,5.24,5.24,0,0,1-1.14.12c-.13,0-.3,0-.49,0s-.4,0-.6-.09a4.91,4.91,0,0,1-.58-.15A1.74,1.74,0,0,1,38.71,97.52Z" fill="#1e1e1e"/>
      <path d="M50.32,97.85h-1V94.4c0-1.25-.46-1.88-1.39-1.88a1.51,1.51,0,0,0-1.18.54,2,2,0,0,0-.49,1.4v3.39h-1V89h1v3.88h0a2.18,2.18,0,0,1,2-1.14c1.35,0,2,.82,2,2.45Z" fill="#1e1e1e"/>
      <path d="M57,95.1H52.72a2.27,2.27,0,0,0,.54,1.54,1.84,1.84,0,0,0,1.42.55,3,3,0,0,0,1.86-.67v.9a3.5,3.5,0,0,1-2.09.58,2.56,2.56,0,0,1-2-.82,3.37,3.37,0,0,1-.73-2.3,3.25,3.25,0,0,1,.8-2.28,2.55,2.55,0,0,1,2-.89,2.24,2.24,0,0,1,1.82.77A3.15,3.15,0,0,1,57,94.59Zm-1-.82a1.93,1.93,0,0,0-.4-1.29,1.36,1.36,0,0,0-1.1-.47,1.56,1.56,0,0,0-1.15.49,2.22,2.22,0,0,0-.59,1.27Z" fill="#1e1e1e"/>
      <path d="M59.37,97.85h-1V89h1Z" fill="#1e1e1e"/>
      <path d="M62.28,97.85h-1V89h1Z" fill="#1e1e1e"/>
    </g>
    <g>
      <path d="M252.74,108.9a3.68,3.68,0,0,1-2.87-1.18,4.39,4.39,0,0,1-1.07-3.06,4.64,4.64,0,0,1,1.09-3.24,3.87,3.87,0,0,1,3-1.21,3.61,3.61,0,0,1,2.8,1.18,4.37,4.37,0,0,1,1.06,3.06,4.61,4.61,0,0,1-1.09,3.25A3.72,3.72,0,0,1,252.74,108.9Zm.07-7.79a2.68,2.68,0,0,0-2.15,1,4.24,4.24,0,0,0,0,5,2.6,2.6,0,0,0,2.1.94,2.78,2.78,0,0,0,2.18-.9,3.68,3.68,0,0,0,.79-2.52,3.86,3.86,0,0,0-.77-2.58A2.67,2.67,0,0,0,252.81,101.11Z" fill="#1e1e1e"/>
      <path d="M261.4,103.73a1.18,1.18,0,0,0-.73-.19,1.23,1.23,0,0,0-1,.58,2.7,2.7,0,0,0-.41,1.58v3.06h-1v-6h1V104h0a2.09,2.09,0,0,1,.63-1,1.4,1.4,0,0,1,.94-.36,1.75,1.75,0,0,1,.58.08Z" fill="#1e1e1e"/>
      <path d="M266.53,108.48a3.1,3.1,0,0,1-1.64.42,2.69,2.69,0,0,1-2.07-.84,3,3,0,0,1-.79-2.16,3.3,3.3,0,0,1,.85-2.38,3,3,0,0,1,2.27-.9,3.09,3.09,0,0,1,1.39.29v1a2.44,2.44,0,0,0-1.43-.46,2,2,0,0,0-1.51.65,2.53,2.53,0,0,0-.59,1.74,2.38,2.38,0,0,0,.56,1.66,1.89,1.89,0,0,0,1.48.61,2.39,2.39,0,0,0,1.48-.52Z" fill="#1e1e1e"/>
      <path d="M273,108.76h-1V105.3c0-1.25-.46-1.87-1.39-1.87a1.53,1.53,0,0,0-1.19.54,2,2,0,0,0-.48,1.39v3.4h-1V99.88h1v3.87h0a2.18,2.18,0,0,1,2-1.13c1.35,0,2,.81,2,2.44Z" fill="#1e1e1e"/>
      <path d="M279.6,106h-4.24a2.21,2.21,0,0,0,.54,1.54,1.82,1.82,0,0,0,1.42.55,2.93,2.93,0,0,0,1.86-.67v.9a3.43,3.43,0,0,1-2.09.58,2.52,2.52,0,0,1-2-.82,3.36,3.36,0,0,1-.73-2.3,3.29,3.29,0,0,1,.8-2.28,2.53,2.53,0,0,1,2-.88,2.25,2.25,0,0,1,1.82.76,3.17,3.17,0,0,1,.65,2.11Zm-1-.82a2,2,0,0,0-.4-1.29,1.36,1.36,0,0,0-1.1-.46,1.55,1.55,0,0,0-1.15.48,2.25,2.25,0,0,0-.59,1.27Z" fill="#1e1e1e"/>
      <path d="M280.69,108.54v-1a2.81,2.81,0,0,0,1.72.58c.85,0,1.27-.28,1.27-.84a.76.76,0,0,0-.11-.41,1.17,1.17,0,0,0-.29-.3,2.56,2.56,0,0,0-.44-.23l-.53-.21a6.76,6.76,0,0,1-.7-.32,2.55,2.55,0,0,1-.51-.36,1.52,1.52,0,0,1-.3-.46,1.66,1.66,0,0,1-.1-.61,1.44,1.44,0,0,1,.19-.75,1.78,1.78,0,0,1,.52-.54,2.21,2.21,0,0,1,.73-.33,3.05,3.05,0,0,1,.85-.11,3.46,3.46,0,0,1,1.4.27v1a2.7,2.7,0,0,0-1.52-.43,1.83,1.83,0,0,0-.49.06,1.15,1.15,0,0,0-.37.17.62.62,0,0,0-.24.27.64.64,0,0,0-.09.34.75.75,0,0,0,.09.39.74.74,0,0,0,.25.28,1.82,1.82,0,0,0,.39.23l.54.21a6.81,6.81,0,0,1,.71.32,2.12,2.12,0,0,1,.54.36,1.32,1.32,0,0,1,.34.47,1.46,1.46,0,0,1,.12.62,1.5,1.5,0,0,1-.19.78,1.71,1.71,0,0,1-.53.54,2.3,2.3,0,0,1-.75.32,3.82,3.82,0,0,1-.9.11A3.34,3.34,0,0,1,280.69,108.54Z" fill="#1e1e1e"/>
      <path d="M288.92,108.7a1.87,1.87,0,0,1-.89.19c-1,0-1.58-.59-1.58-1.76v-3.55h-1v-.82h1v-1.47l1-.31v1.78h1.51v.82h-1.51V107a1.37,1.37,0,0,0,.21.86.81.81,0,0,0,.68.26,1,1,0,0,0,.62-.2Z" fill="#1e1e1e"/>
      <path d="M293.34,103.73a1.18,1.18,0,0,0-.73-.19,1.23,1.23,0,0,0-1,.58,2.7,2.7,0,0,0-.41,1.58v3.06h-1v-6h1V104h0a2.09,2.09,0,0,1,.63-1,1.4,1.4,0,0,1,.94-.36,1.75,1.75,0,0,1,.58.08Z" fill="#1e1e1e"/>
      <path d="M298.67,108.76h-1v-.94h0a2,2,0,0,1-1.85,1.08,2,2,0,0,1-1.4-.48,1.62,1.62,0,0,1-.51-1.26q0-1.68,2-2l1.8-.25q0-1.53-1.23-1.53a3,3,0,0,0-2,.73v-1a3.68,3.68,0,0,1,2-.56c1.41,0,2.11.74,2.11,2.24Zm-1-3-1.44.2a2.25,2.25,0,0,0-1,.33,1,1,0,0,0-.34.84.9.9,0,0,0,.31.72,1.2,1.2,0,0,0,.84.28,1.56,1.56,0,0,0,1.18-.5,1.8,1.8,0,0,0,.46-1.27Z" fill="#1e1e1e"/>
      <path d="M303.27,108.7a1.94,1.94,0,0,1-.9.19c-1.05,0-1.58-.59-1.58-1.76v-3.55h-1v-.82h1v-1.47l1-.31v1.78h1.51v.82h-1.51V107a1.38,1.38,0,0,0,.2.86.83.83,0,0,0,.68.26,1.05,1.05,0,0,0,.63-.2Z" fill="#1e1e1e"/>
      <path d="M307.06,108.9a2.79,2.79,0,0,1-2.13-.84,3.16,3.16,0,0,1-.79-2.23,3.23,3.23,0,0,1,.83-2.36,3,3,0,0,1,2.23-.85,2.68,2.68,0,0,1,2.09.82,3.25,3.25,0,0,1,.76,2.29,3.21,3.21,0,0,1-.81,2.3A2.85,2.85,0,0,1,307.06,108.9Zm.07-5.47a1.84,1.84,0,0,0-1.47.63,2.56,2.56,0,0,0-.53,1.73,2.46,2.46,0,0,0,.54,1.68,1.85,1.85,0,0,0,1.46.62,1.75,1.75,0,0,0,1.43-.6,3.23,3.23,0,0,0,0-3.45A1.73,1.73,0,0,0,307.13,103.43Z" fill="#1e1e1e"/>
      <path d="M314.71,103.73a1.18,1.18,0,0,0-.73-.19,1.2,1.2,0,0,0-1,.58,2.62,2.62,0,0,0-.42,1.58v3.06h-1v-6h1V104h0a2,2,0,0,1,.62-1,1.43,1.43,0,0,1,.95-.36,1.65,1.65,0,0,1,.57.08Z" fill="#1e1e1e"/>
      <path d="M319.54,100.36l-4,9.79h-.89l4-9.79Z" fill="#1e1e1e"/>
      <path d="M320.17,108.42v-1.16a2,2,0,0,0,.47.31,3,3,0,0,0,.59.24,3.3,3.3,0,0,0,.62.15,2.93,2.93,0,0,0,.57.05,2.29,2.29,0,0,0,1.36-.33,1.15,1.15,0,0,0,.45-1,1.1,1.1,0,0,0-.15-.59,1.52,1.52,0,0,0-.42-.46,3.32,3.32,0,0,0-.62-.4l-.78-.4c-.29-.15-.56-.3-.82-.46a3.81,3.81,0,0,1-.66-.5,2.06,2.06,0,0,1-.44-.62,1.94,1.94,0,0,1-.16-.82,1.9,1.9,0,0,1,.25-1,2.21,2.21,0,0,1,.66-.7,3.19,3.19,0,0,1,.94-.41,4.24,4.24,0,0,1,1.07-.14,4.11,4.11,0,0,1,1.81.3v1.11a3.33,3.33,0,0,0-1.91-.51,3.57,3.57,0,0,0-.65.06,2,2,0,0,0-.57.22,1.21,1.21,0,0,0-.41.4,1,1,0,0,0-.16.58,1.22,1.22,0,0,0,.12.56,1.54,1.54,0,0,0,.35.43,4.7,4.7,0,0,0,.57.37l.78.4c.3.15.59.3.86.47a3.9,3.9,0,0,1,.71.54,2.53,2.53,0,0,1,.48.66,1.89,1.89,0,0,1,.18.84,2,2,0,0,1-.25,1,2,2,0,0,1-.65.7,2.88,2.88,0,0,1-.95.39,5.24,5.24,0,0,1-1.14.12l-.49,0-.6-.1a4.91,4.91,0,0,1-.58-.15A1.93,1.93,0,0,1,320.17,108.42Z" fill="#1e1e1e"/>
      <path d="M331.63,106h-4.24a2.26,2.26,0,0,0,.54,1.54,1.84,1.84,0,0,0,1.42.55,2.93,2.93,0,0,0,1.86-.67v.9a3.43,3.43,0,0,1-2.09.58,2.53,2.53,0,0,1-2-.82,3.36,3.36,0,0,1-.73-2.3,3.29,3.29,0,0,1,.8-2.28,2.54,2.54,0,0,1,2-.88,2.24,2.24,0,0,1,1.82.76,3.17,3.17,0,0,1,.65,2.11Zm-1-.82a2,2,0,0,0-.4-1.29,1.36,1.36,0,0,0-1.1-.46,1.55,1.55,0,0,0-1.15.48,2.25,2.25,0,0,0-.59,1.27Z" fill="#1e1e1e"/>
      <path d="M336.21,103.73a1.18,1.18,0,0,0-.73-.19,1.23,1.23,0,0,0-1,.58,2.7,2.7,0,0,0-.41,1.58v3.06h-1v-6h1V104h0a2.09,2.09,0,0,1,.63-1,1.42,1.42,0,0,1,.94-.36,1.71,1.71,0,0,1,.58.08Z" fill="#1e1e1e"/>
      <path d="M342,102.76l-2.39,6h-.95l-2.27-6h1.06l1.52,4.36a4.27,4.27,0,0,1,.21.84h0a4.31,4.31,0,0,1,.19-.82l1.6-4.38Z" fill="#1e1e1e"/>
      <path d="M343.49,101.23a.6.6,0,0,1-.44-.17.61.61,0,0,1-.18-.45.57.57,0,0,1,.18-.44.6.6,0,0,1,.44-.18.61.61,0,0,1,.45.18.58.58,0,0,1,.19.44.6.6,0,0,1-.19.44A.61.61,0,0,1,343.49,101.23Zm.47,7.53h-1v-6h1Z" fill="#1e1e1e"/>
      <path d="M350,108.48a3.1,3.1,0,0,1-1.64.42,2.73,2.73,0,0,1-2.08-.84,3,3,0,0,1-.78-2.16,3.3,3.3,0,0,1,.85-2.38,3,3,0,0,1,2.26-.9,3.1,3.1,0,0,1,1.4.29v1a2.46,2.46,0,0,0-1.43-.46,1.94,1.94,0,0,0-1.51.65,2.53,2.53,0,0,0-.59,1.74,2.43,2.43,0,0,0,.55,1.66,1.91,1.91,0,0,0,1.49.61,2.41,2.41,0,0,0,1.48-.52Z" fill="#1e1e1e"/>
      <path d="M356.27,106H352a2.2,2.2,0,0,0,.53,1.54,1.85,1.85,0,0,0,1.42.55,2.94,2.94,0,0,0,1.87-.67v.9a3.46,3.46,0,0,1-2.1.58,2.51,2.51,0,0,1-2-.82,3.83,3.83,0,0,1,.06-4.58,2.54,2.54,0,0,1,2-.88,2.26,2.26,0,0,1,1.83.76,3.17,3.17,0,0,1,.64,2.11Zm-1-.82a2,2,0,0,0-.4-1.29,1.37,1.37,0,0,0-1.1-.46,1.57,1.57,0,0,0-1.16.48,2.24,2.24,0,0,0-.58,1.27Z" fill="#1e1e1e"/>
      <path d="M243.8,122h-1v-5.64c0-.44,0-1,.08-1.63h0a6.37,6.37,0,0,1-.25.81L239.75,122h-.48l-2.86-6.41a4.93,4.93,0,0,1-.25-.86h0a16.27,16.27,0,0,1,.05,1.64V122h-1v-8.4h1.3l2.58,5.86a7.37,7.37,0,0,1,.39,1h0c.17-.46.3-.8.41-1l2.63-5.83h1.23Z" fill="#1e1e1e"/>
      <path d="M250.17,122h-1V121h0a2,2,0,0,1-1.85,1.08,2,2,0,0,1-1.4-.48,1.62,1.62,0,0,1-.51-1.26q0-1.68,2-2l1.8-.25q0-1.53-1.23-1.53a3,3,0,0,0-2,.73v-1a3.68,3.68,0,0,1,2-.56c1.41,0,2.11.74,2.11,2.24Zm-1-3-1.45.2a2.25,2.25,0,0,0-1,.33,1,1,0,0,0-.34.84.9.9,0,0,0,.31.72,1.2,1.2,0,0,0,.84.28,1.56,1.56,0,0,0,1.18-.5,1.79,1.79,0,0,0,.46-1.27Z" fill="#1e1e1e"/>
      <path d="M257,122h-1v-3.42c0-1.28-.46-1.91-1.39-1.91a1.5,1.5,0,0,0-1.19.54,2,2,0,0,0-.48,1.37V122h-1v-6h1v1h0a2.17,2.17,0,0,1,2-1.13,1.84,1.84,0,0,1,1.5.63,2.84,2.84,0,0,1,.52,1.84Z" fill="#1e1e1e"/>
      <path d="M263.07,122h-1V121h0a2,2,0,0,1-1.84,1.08,1.93,1.93,0,0,1-1.4-.48,1.62,1.62,0,0,1-.51-1.26q0-1.68,2-2l1.8-.25c0-1-.41-1.53-1.24-1.53a2.94,2.94,0,0,0-1.95.73v-1a3.62,3.62,0,0,1,2-.56c1.41,0,2.12.74,2.12,2.24Zm-1-3-1.45.2a2.35,2.35,0,0,0-1,.33,1,1,0,0,0-.34.84.9.9,0,0,0,.32.72,1.18,1.18,0,0,0,.83.28,1.55,1.55,0,0,0,1.18-.5,1.8,1.8,0,0,0,.47-1.27Z" fill="#1e1e1e"/>
      <path d="M270,121.48q0,3.3-3.16,3.3a4.28,4.28,0,0,1-1.95-.42v-1a4.06,4.06,0,0,0,1.94.56c1.47,0,2.21-.78,2.21-2.35V121h0a2.43,2.43,0,0,1-3.87.35,3.22,3.22,0,0,1-.68-2.15,3.67,3.67,0,0,1,.74-2.43,2.46,2.46,0,0,1,2-.9,2,2,0,0,1,1.8,1h0V116h1Zm-1-2.23v-.89a1.71,1.71,0,0,0-.48-1.22,1.62,1.62,0,0,0-1.21-.51,1.66,1.66,0,0,0-1.39.64,2.9,2.9,0,0,0-.51,1.82,2.5,2.5,0,0,0,.49,1.6,1.56,1.56,0,0,0,1.28.6,1.65,1.65,0,0,0,1.31-.57A2.16,2.16,0,0,0,269,119.25Z" fill="#1e1e1e"/>
      <path d="M276.77,119.2h-4.24a2.3,2.3,0,0,0,.54,1.55,1.88,1.88,0,0,0,1.42.54,2.89,2.89,0,0,0,1.86-.67v.9a3.41,3.41,0,0,1-2.09.58,2.53,2.53,0,0,1-2-.82,3.35,3.35,0,0,1-.72-2.3,3.28,3.28,0,0,1,.79-2.28,2.54,2.54,0,0,1,2-.88,2.24,2.24,0,0,1,1.82.76,3.17,3.17,0,0,1,.65,2.11Zm-1-.82a1.9,1.9,0,0,0-.4-1.29,1.36,1.36,0,0,0-1.1-.46,1.56,1.56,0,0,0-1.15.48,2.25,2.25,0,0,0-.59,1.27Z" fill="#1e1e1e"/>
      <path d="M286.74,122h-1v-3.45a2.57,2.57,0,0,0-.31-1.44,1.15,1.15,0,0,0-1-.44,1.28,1.28,0,0,0-1.05.56,2.18,2.18,0,0,0-.43,1.35V122h-1V118.4c0-1.18-.45-1.77-1.36-1.77a1.26,1.26,0,0,0-1.05.53,2.2,2.2,0,0,0-.41,1.38V122h-1v-6h1v1h0a2,2,0,0,1,1.86-1.09,1.73,1.73,0,0,1,1.7,1.24,2.13,2.13,0,0,1,2-1.24c1.32,0,2,.81,2,2.44Z" fill="#1e1e1e"/>
      <path d="M293.38,119.2h-4.24a2.3,2.3,0,0,0,.54,1.55,1.88,1.88,0,0,0,1.42.54,2.89,2.89,0,0,0,1.86-.67v.9a3.41,3.41,0,0,1-2.09.58,2.53,2.53,0,0,1-2-.82,3.35,3.35,0,0,1-.72-2.3,3.28,3.28,0,0,1,.79-2.28,2.54,2.54,0,0,1,2-.88,2.26,2.26,0,0,1,1.83.76,3.17,3.17,0,0,1,.64,2.11Zm-1-.82a2,2,0,0,0-.41-1.29,1.35,1.35,0,0,0-1.09-.46,1.57,1.57,0,0,0-1.16.48,2.18,2.18,0,0,0-.58,1.27Z" fill="#1e1e1e"/>
      <path d="M299.81,122h-1v-3.42c0-1.28-.46-1.91-1.39-1.91a1.5,1.5,0,0,0-1.19.54,2,2,0,0,0-.48,1.37V122h-1v-6h1v1h0a2.17,2.17,0,0,1,2-1.13,1.84,1.84,0,0,1,1.5.63,2.84,2.84,0,0,1,.52,1.84Z" fill="#1e1e1e"/>
      <path d="M304.41,121.9a1.94,1.94,0,0,1-.9.19c-1.05,0-1.58-.59-1.58-1.76v-3.55h-1V116h1v-1.47l1-.31V116h1.51v.82H302.9v3.38a1.38,1.38,0,0,0,.2.86.83.83,0,0,0,.68.26,1.05,1.05,0,0,0,.63-.2Z" fill="#1e1e1e"/>
      <path d="M315.61,122h-1.09l-.89-2.36h-3.56l-.84,2.36h-1.1l3.23-8.4h1Zm-2.3-3.24L312,115.14a3.65,3.65,0,0,1-.13-.56h0a3.49,3.49,0,0,1-.14.56l-1.3,3.58Z" fill="#1e1e1e"/>
      <path d="M321.57,122h-1V121h0a2,2,0,0,1-1.85,1.09c-1.43,0-2.14-.85-2.14-2.56V116h1v3.43c0,1.27.49,1.9,1.46,1.9a1.44,1.44,0,0,0,1.15-.52,1.94,1.94,0,0,0,.46-1.35V116h1Z" fill="#1e1e1e"/>
      <path d="M326.29,121.9a1.87,1.87,0,0,1-.89.19c-1.06,0-1.58-.59-1.58-1.76v-3.55h-1V116h1v-1.47l1-.31V116h1.51v.82h-1.51v3.38a1.37,1.37,0,0,0,.21.86.81.81,0,0,0,.68.26,1,1,0,0,0,.62-.2Z" fill="#1e1e1e"/>
      <path d="M330.08,122.1a2.79,2.79,0,0,1-2.12-.84,3.12,3.12,0,0,1-.79-2.23,3.23,3.23,0,0,1,.82-2.36,3,3,0,0,1,2.23-.85,2.69,2.69,0,0,1,2.1.82,3.29,3.29,0,0,1,.75,2.29,3.21,3.21,0,0,1-.81,2.3A2.84,2.84,0,0,1,330.08,122.1Zm.07-5.47a1.83,1.83,0,0,0-1.46.63,2.56,2.56,0,0,0-.54,1.73,2.46,2.46,0,0,0,.54,1.68,1.87,1.87,0,0,0,1.46.62,1.79,1.79,0,0,0,1.44-.6,3.23,3.23,0,0,0,0-3.45A1.76,1.76,0,0,0,330.15,116.63Z" fill="#1e1e1e"/>
      <path d="M343.13,122h-1v-3.45a2.65,2.65,0,0,0-.31-1.44,1.17,1.17,0,0,0-1-.44,1.25,1.25,0,0,0-1,.56,2.12,2.12,0,0,0-.43,1.35V122h-1V118.4c0-1.18-.46-1.77-1.37-1.77a1.24,1.24,0,0,0-1,.53,2.14,2.14,0,0,0-.41,1.38V122h-1v-6h1v1h0a2,2,0,0,1,1.86-1.09,1.76,1.76,0,0,1,1.08.34,1.73,1.73,0,0,1,.62.9,2.14,2.14,0,0,1,2-1.24c1.32,0,2,.81,2,2.44Z" fill="#1e1e1e"/>
      <path d="M349.24,122h-1V121h0a2,2,0,0,1-1.84,1.08,2,2,0,0,1-1.41-.48,1.65,1.65,0,0,1-.5-1.26q0-1.68,2-2l1.8-.25c0-1-.42-1.53-1.24-1.53a3,3,0,0,0-2,.73v-1a3.68,3.68,0,0,1,2-.56c1.41,0,2.12.74,2.12,2.24Zm-1-3-1.45.2a2.3,2.3,0,0,0-1,.33,1,1,0,0,0-.34.84.93.93,0,0,0,.31.72,1.2,1.2,0,0,0,.84.28,1.55,1.55,0,0,0,1.18-.5,1.8,1.8,0,0,0,.47-1.27Z" fill="#1e1e1e"/>
      <path d="M353.83,121.9a1.91,1.91,0,0,1-.9.19c-1.05,0-1.57-.59-1.57-1.76v-3.55h-1V116h1v-1.47l1-.31V116h1.51v.82h-1.51v3.38a1.45,1.45,0,0,0,.2.86.84.84,0,0,0,.68.26,1,1,0,0,0,.63-.2Z" fill="#1e1e1e"/>
      <path d="M355.61,114.43a.58.58,0,0,1-.44-.17.61.61,0,0,1-.18-.45.57.57,0,0,1,.18-.44.59.59,0,0,1,.44-.18.6.6,0,0,1,.44.18.55.55,0,0,1,.19.44.56.56,0,0,1-.19.44A.6.6,0,0,1,355.61,114.43Zm.47,7.53h-1v-6h1Z" fill="#1e1e1e"/>
      <path d="M360.53,122.1a2.79,2.79,0,0,1-2.13-.84,3.16,3.16,0,0,1-.79-2.23,3.23,3.23,0,0,1,.83-2.36,3,3,0,0,1,2.23-.85,2.68,2.68,0,0,1,2.09.82,3.25,3.25,0,0,1,.76,2.29,3.21,3.21,0,0,1-.81,2.3A2.85,2.85,0,0,1,360.53,122.1Zm.07-5.47a1.84,1.84,0,0,0-1.47.63,2.56,2.56,0,0,0-.54,1.73,2.46,2.46,0,0,0,.55,1.68,1.85,1.85,0,0,0,1.46.62,1.75,1.75,0,0,0,1.43-.6,3.23,3.23,0,0,0,0-3.45A1.73,1.73,0,0,0,360.6,116.63Z" fill="#1e1e1e"/>
      <path d="M370,122h-1v-3.42c0-1.28-.46-1.91-1.39-1.91a1.54,1.54,0,0,0-1.2.54,2,2,0,0,0-.47,1.37V122h-1v-6h1v1h0a2.17,2.17,0,0,1,2-1.13,1.85,1.85,0,0,1,1.51.63,2.84,2.84,0,0,1,.52,1.84Z" fill="#1e1e1e"/>
    </g>
    <g>
      <path d="M177.48,22.88h-1.09l-.89-2.36h-3.56l-.84,2.36H170l3.23-8.41h1Zm-2.3-3.25-1.32-3.58a3.14,3.14,0,0,1-.13-.56h0a3,3,0,0,1-.14.56l-1.31,3.58Z" fill="#1e1e1e"/>
      <path d="M179.55,22.88h-1V14h1Z" fill="#1e1e1e"/>
      <path d="M186.32,20.12h-4.24a2.18,2.18,0,0,0,.54,1.54,1.82,1.82,0,0,0,1.42.55,3,3,0,0,0,1.86-.67v.9a3.52,3.52,0,0,1-2.09.58,2.55,2.55,0,0,1-2-.82,3.37,3.37,0,0,1-.73-2.3,3.25,3.25,0,0,1,.8-2.28,2.54,2.54,0,0,1,2-.89,2.26,2.26,0,0,1,1.82.77,3.15,3.15,0,0,1,.65,2.11Zm-1-.82a1.93,1.93,0,0,0-.4-1.29,1.36,1.36,0,0,0-1.1-.47,1.56,1.56,0,0,0-1.15.49,2.22,2.22,0,0,0-.59,1.27Z" fill="#1e1e1e"/>
      <path d="M190.9,17.85a1.18,1.18,0,0,0-.73-.2,1.25,1.25,0,0,0-1,.58,2.75,2.75,0,0,0-.41,1.59v3.06h-1v-6h1v1.23h0a2.17,2.17,0,0,1,.63-1,1.46,1.46,0,0,1,.94-.35,1.75,1.75,0,0,1,.58.08Z" fill="#1e1e1e"/>
      <path d="M194.72,22.82a1.87,1.87,0,0,1-.89.18c-1.05,0-1.58-.58-1.58-1.75V17.7h-1v-.82h1V15.41l1-.31v1.78h1.51v.82h-1.51v3.38a1.37,1.37,0,0,0,.21.86.81.81,0,0,0,.68.26,1,1,0,0,0,.62-.2Z" fill="#1e1e1e"/>
      <path d="M195.64,22.66v-1a2.9,2.9,0,0,0,1.73.58c.85,0,1.27-.28,1.27-.85a.72.72,0,0,0-.11-.4,1,1,0,0,0-.29-.3,2.27,2.27,0,0,0-.44-.23l-.53-.22a6.87,6.87,0,0,1-.7-.31,2.23,2.23,0,0,1-.51-.37,1.41,1.41,0,0,1-.3-.46,1.57,1.57,0,0,1-.1-.6,1.44,1.44,0,0,1,.19-.75,1.65,1.65,0,0,1,.51-.54,2.26,2.26,0,0,1,.74-.33,3.06,3.06,0,0,1,.85-.12,3.46,3.46,0,0,1,1.4.27v1a2.72,2.72,0,0,0-1.53-.44,1.75,1.75,0,0,0-.48.06,1.34,1.34,0,0,0-.38.18.85.85,0,0,0-.24.26.82.82,0,0,0-.08.35.74.74,0,0,0,.33.67,1.89,1.89,0,0,0,.4.22l.54.22c.26.1.5.21.71.31a2.44,2.44,0,0,1,.54.37,1.38,1.38,0,0,1,.34.46,1.54,1.54,0,0,1,.12.63,1.47,1.47,0,0,1-.19.77,1.85,1.85,0,0,1-.53.55,2.54,2.54,0,0,1-.75.32,3.82,3.82,0,0,1-.9.11A3.41,3.41,0,0,1,195.64,22.66Z" fill="#1e1e1e"/>
    </g>
    <g>
      <path d="M422,44.54V43.38a2.39,2.39,0,0,0,.47.31,4.29,4.29,0,0,0,.59.24c.21.06.41.11.62.15a4.13,4.13,0,0,0,.57.05,2.22,2.22,0,0,0,1.36-.34,1.12,1.12,0,0,0,.45-1,1.15,1.15,0,0,0-.15-.59,1.76,1.76,0,0,0-.41-.46,4.57,4.57,0,0,0-.63-.4L424,41l-.82-.45a3.81,3.81,0,0,1-.66-.5,2.3,2.3,0,0,1-.44-.63,1.86,1.86,0,0,1-.16-.81,1.88,1.88,0,0,1,.25-1,2.11,2.11,0,0,1,.66-.7,3,3,0,0,1,.94-.41,4.24,4.24,0,0,1,1.07-.14,4.08,4.08,0,0,1,1.81.3v1.11a3.26,3.26,0,0,0-1.91-.52,3.59,3.59,0,0,0-.65.07,1.78,1.78,0,0,0-.57.22,1.18,1.18,0,0,0-.41.39,1,1,0,0,0-.16.59,1.18,1.18,0,0,0,.12.55,1.41,1.41,0,0,0,.35.43,3.43,3.43,0,0,0,.58.38l.77.4c.3.14.59.3.86.46a4.46,4.46,0,0,1,.71.55,2.53,2.53,0,0,1,.48.66,1.84,1.84,0,0,1,.18.83,2.16,2.16,0,0,1-.24,1.06,2.1,2.1,0,0,1-.66.7,2.88,2.88,0,0,1-.95.39,5.24,5.24,0,0,1-1.14.12c-.13,0-.3,0-.49,0l-.6-.09a5.47,5.47,0,0,1-.58-.15A1.93,1.93,0,0,1,422,44.54Z" fill="#1e1e1e"/>
      <path d="M433.41,42.12h-4.24a2.27,2.27,0,0,0,.54,1.54,1.84,1.84,0,0,0,1.42.55,3,3,0,0,0,1.86-.67v.9a3.5,3.5,0,0,1-2.09.58,2.56,2.56,0,0,1-2-.82,3.37,3.37,0,0,1-.72-2.3,3.25,3.25,0,0,1,.79-2.28,2.55,2.55,0,0,1,2-.89,2.24,2.24,0,0,1,1.82.77,3.15,3.15,0,0,1,.65,2.11Zm-1-.82A1.88,1.88,0,0,0,432,40a1.36,1.36,0,0,0-1.1-.47,1.57,1.57,0,0,0-1.15.49,2.22,2.22,0,0,0-.59,1.27Z" fill="#1e1e1e"/>
      <path d="M438,39.85a1.18,1.18,0,0,0-.73-.2,1.22,1.22,0,0,0-1,.58,2.68,2.68,0,0,0-.42,1.59v3.06h-1v-6h1v1.23h0a2.08,2.08,0,0,1,.62-1,1.47,1.47,0,0,1,.95-.35,1.65,1.65,0,0,1,.57.08Z" fill="#1e1e1e"/>
      <path d="M443.75,38.88l-2.39,6h-.94l-2.28-6h1.06l1.52,4.35a4.27,4.27,0,0,1,.21.84h0a3.72,3.72,0,0,1,.18-.81l1.6-4.38Z" fill="#1e1e1e"/>
      <path d="M445.27,37.35a.66.66,0,0,1-.44-.17.65.65,0,0,1,0-.9.62.62,0,0,1,.44-.18.61.61,0,0,1,.45.18.62.62,0,0,1,0,.89A.61.61,0,0,1,445.27,37.35Zm.47,7.53h-1v-6h1Z" fill="#1e1e1e"/>
      <path d="M451.78,44.6a3.1,3.1,0,0,1-1.64.42,2.69,2.69,0,0,1-2.07-.84,3,3,0,0,1-.79-2.16,3.33,3.33,0,0,1,.85-2.39,3,3,0,0,1,2.26-.9,3.1,3.1,0,0,1,1.4.3v1a2.47,2.47,0,0,0-1.43-.47,1.93,1.93,0,0,0-1.51.66,2.52,2.52,0,0,0-.59,1.73,2.39,2.39,0,0,0,.56,1.67,1.91,1.91,0,0,0,1.48.61,2.47,2.47,0,0,0,1.48-.52Z" fill="#1e1e1e"/>
      <path d="M458.05,42.12h-4.23a2.18,2.18,0,0,0,.54,1.54,1.82,1.82,0,0,0,1.41.55,3,3,0,0,0,1.87-.67v.9a3.53,3.53,0,0,1-2.1.58,2.54,2.54,0,0,1-2-.82,3.33,3.33,0,0,1-.73-2.3,3.25,3.25,0,0,1,.79-2.28,2.56,2.56,0,0,1,2-.89,2.26,2.26,0,0,1,1.82.77,3.15,3.15,0,0,1,.64,2.11Zm-1-.82a2,2,0,0,0-.4-1.29,1.38,1.38,0,0,0-1.1-.47,1.6,1.6,0,0,0-1.16.49,2.21,2.21,0,0,0-.58,1.27Z" fill="#1e1e1e"/>
      <path d="M425.91,58.08h-1V52.44c0-.45,0-1,.08-1.64h0a7.28,7.28,0,0,1-.25.82l-2.87,6.46h-.49l-2.86-6.41a4.83,4.83,0,0,1-.25-.87h0c0,.34.05.89.05,1.65v5.63h-1V49.67h1.3l2.58,5.86a7.92,7.92,0,0,1,.39,1h0c.17-.46.31-.8.41-1l2.63-5.84h1.23Z" fill="#1e1e1e"/>
      <path d="M432.28,58.08h-1v-.94h0a2,2,0,0,1-1.85,1.08,2,2,0,0,1-1.4-.48,1.65,1.65,0,0,1-.51-1.26c0-1.12.66-1.77,2-2l1.8-.25q0-1.53-1.23-1.53a3,3,0,0,0-2,.74v-1a3.68,3.68,0,0,1,2-.57c1.41,0,2.11.75,2.11,2.24Zm-1-3-1.44.2a2.25,2.25,0,0,0-1,.33,1,1,0,0,0-.34.84.92.92,0,0,0,.31.72,1.25,1.25,0,0,0,.84.28,1.56,1.56,0,0,0,1.18-.5,1.8,1.8,0,0,0,.46-1.27Z" fill="#1e1e1e"/>
      <path d="M439.07,58.08h-1V54.65c0-1.27-.46-1.91-1.39-1.91a1.48,1.48,0,0,0-1.19.55,2,2,0,0,0-.48,1.36v3.43h-1v-6h1v1h0a2.16,2.16,0,0,1,2-1.14,1.84,1.84,0,0,1,1.5.64,2.82,2.82,0,0,1,.52,1.84Z" fill="#1e1e1e"/>
      <path d="M445.18,58.08h-1v-.94h0a2,2,0,0,1-1.85,1.08,1.93,1.93,0,0,1-1.4-.48,1.65,1.65,0,0,1-.51-1.26c0-1.12.66-1.77,2-2l1.8-.25c0-1-.41-1.53-1.24-1.53a3,3,0,0,0-2,.74v-1a3.65,3.65,0,0,1,2-.57c1.41,0,2.12.75,2.12,2.24Zm-1-3-1.45.2a2.35,2.35,0,0,0-1,.33,1,1,0,0,0-.34.84.93.93,0,0,0,.32.72,1.22,1.22,0,0,0,.83.28,1.55,1.55,0,0,0,1.18-.5,1.81,1.81,0,0,0,.47-1.27Z" fill="#1e1e1e"/>
      <path d="M452.11,57.59q0,3.31-3.16,3.31a4.31,4.31,0,0,1-1.95-.42v-1a4.06,4.06,0,0,0,1.94.56c1.47,0,2.21-.79,2.21-2.36v-.65h0a2.43,2.43,0,0,1-3.87.35,3.24,3.24,0,0,1-.68-2.15,3.73,3.73,0,0,1,.74-2.43,2.46,2.46,0,0,1,2-.91,2,2,0,0,1,1.8,1h0v-.83h1Zm-1-2.23v-.88a1.73,1.73,0,0,0-.48-1.23,1.62,1.62,0,0,0-1.21-.51,1.66,1.66,0,0,0-1.39.65,2.87,2.87,0,0,0-.51,1.81,2.51,2.51,0,0,0,.49,1.61,1.56,1.56,0,0,0,1.28.6,1.63,1.63,0,0,0,1.31-.58A2.12,2.12,0,0,0,451.15,55.36Z" fill="#1e1e1e"/>
      <path d="M458.88,55.32h-4.24a2.27,2.27,0,0,0,.54,1.54,1.85,1.85,0,0,0,1.42.55,3,3,0,0,0,1.86-.67v.9a3.48,3.48,0,0,1-2.09.58,2.56,2.56,0,0,1-2-.82,3.37,3.37,0,0,1-.72-2.3,3.26,3.26,0,0,1,.79-2.28,2.55,2.55,0,0,1,2-.89,2.24,2.24,0,0,1,1.82.77,3.15,3.15,0,0,1,.65,2.11Zm-1-.82a1.88,1.88,0,0,0-.4-1.29,1.36,1.36,0,0,0-1.1-.47,1.57,1.57,0,0,0-1.15.49,2.22,2.22,0,0,0-.59,1.27Z" fill="#1e1e1e"/>
      <path d="M463.46,53.05a1.18,1.18,0,0,0-.73-.2,1.22,1.22,0,0,0-1,.58,2.68,2.68,0,0,0-.42,1.59v3.06h-1v-6h1v1.23h0a2.08,2.08,0,0,1,.62-1,1.47,1.47,0,0,1,.95-.35,1.65,1.65,0,0,1,.57.08Z" fill="#1e1e1e"/>
    </g>
    <g>
      <path d="M333.22,22.88h-1V14.47h1Z" fill="#1e1e1e"/>
      <path d="M340.28,22.88h-1V19.45c0-1.27-.46-1.91-1.39-1.91a1.5,1.5,0,0,0-1.19.54,2,2,0,0,0-.48,1.37v3.43h-1v-6h1v1h0a2.16,2.16,0,0,1,2-1.14,1.84,1.84,0,0,1,1.5.64,2.82,2.82,0,0,1,.52,1.84Z" fill="#1e1e1e"/>
      <path d="M346.18,22.6a3.08,3.08,0,0,1-1.64.42,2.72,2.72,0,0,1-2.07-.84,3.06,3.06,0,0,1-.79-2.16,3.37,3.37,0,0,1,.85-2.39,3,3,0,0,1,2.27-.9,3.13,3.13,0,0,1,1.4.3v1a2.49,2.49,0,0,0-1.43-.47,1.92,1.92,0,0,0-1.51.66,2.52,2.52,0,0,0-.59,1.73,2.39,2.39,0,0,0,.55,1.67,1.94,1.94,0,0,0,1.49.61,2.44,2.44,0,0,0,1.47-.52Z" fill="#1e1e1e"/>
      <path d="M348.13,15.35a.64.64,0,0,1-.44-.17.65.65,0,0,1,0-.9.6.6,0,0,1,.44-.18.62.62,0,0,1,.63.63.6.6,0,0,1-.18.44A.61.61,0,0,1,348.13,15.35Zm.47,7.53h-1v-6h1Z" fill="#1e1e1e"/>
      <path d="M355.67,22.88h-1v-1h0a2.42,2.42,0,0,1-3.87.35,3.32,3.32,0,0,1-.68-2.19,3.6,3.6,0,0,1,.75-2.39,2.48,2.48,0,0,1,2-.9,1.92,1.92,0,0,1,1.8,1h0V14h1Zm-1-2.72v-.88a1.7,1.7,0,0,0-.48-1.23,1.59,1.59,0,0,0-1.22-.51,1.67,1.67,0,0,0-1.38.65,2.85,2.85,0,0,0-.5,1.78,2.56,2.56,0,0,0,.48,1.64,1.59,1.59,0,0,0,1.3.6,1.66,1.66,0,0,0,1.3-.58A2.15,2.15,0,0,0,354.7,20.16Z" fill="#1e1e1e"/>
      <path d="M362.43,20.12H358.2a2.18,2.18,0,0,0,.54,1.54,1.82,1.82,0,0,0,1.41.55,3,3,0,0,0,1.87-.67v.9a3.53,3.53,0,0,1-2.1.58,2.54,2.54,0,0,1-2-.82,3.33,3.33,0,0,1-.73-2.3,3.25,3.25,0,0,1,.79-2.28,2.56,2.56,0,0,1,2-.89,2.26,2.26,0,0,1,1.82.77,3.15,3.15,0,0,1,.64,2.11Zm-1-.82a2,2,0,0,0-.4-1.29,1.38,1.38,0,0,0-1.1-.47,1.6,1.6,0,0,0-1.16.49,2.21,2.21,0,0,0-.58,1.27Z" fill="#1e1e1e"/>
      <path d="M368.87,22.88h-1V19.45c0-1.27-.47-1.91-1.4-1.91a1.5,1.5,0,0,0-1.19.54,2,2,0,0,0-.47,1.37v3.43h-1v-6h1v1h0a2.16,2.16,0,0,1,2-1.14,1.82,1.82,0,0,1,1.5.64,2.82,2.82,0,0,1,.53,1.84Z" fill="#1e1e1e"/>
      <path d="M373.46,22.82a2,2,0,0,1-.9.18c-1.05,0-1.57-.58-1.57-1.75V17.7h-1v-.82h1V15.41l1-.31v1.78h1.51v.82H372v3.38a1.45,1.45,0,0,0,.2.86.84.84,0,0,0,.68.26,1,1,0,0,0,.63-.2Z" fill="#1e1e1e"/>
      <path d="M374.38,22.66v-1a2.88,2.88,0,0,0,1.73.58c.84,0,1.26-.28,1.26-.85a.72.72,0,0,0-.1-.4,1.07,1.07,0,0,0-.3-.3,1.93,1.93,0,0,0-.43-.23l-.54-.22c-.26-.1-.5-.21-.7-.31a2,2,0,0,1-.5-.37,1.29,1.29,0,0,1-.31-.46,1.79,1.79,0,0,1-.1-.6,1.55,1.55,0,0,1,.19-.75,1.68,1.68,0,0,1,.52-.54,2.26,2.26,0,0,1,.74-.33,3,3,0,0,1,.85-.12,3.41,3.41,0,0,1,1.39.27v1a2.71,2.71,0,0,0-1.52-.44,1.88,1.88,0,0,0-.49.06,1.28,1.28,0,0,0-.37.18.85.85,0,0,0-.24.26.69.69,0,0,0-.08.35.8.8,0,0,0,.08.39.94.94,0,0,0,.25.28,1.67,1.67,0,0,0,.4.22l.53.22c.27.1.51.21.72.31a2.44,2.44,0,0,1,.54.37,1.36,1.36,0,0,1,.46,1.09,1.47,1.47,0,0,1-.2.77,1.7,1.7,0,0,1-.52.55,2.49,2.49,0,0,1-.76.32A3.68,3.68,0,0,1,376,23,3.39,3.39,0,0,1,374.38,22.66Z" fill="#1e1e1e"/>
    </g>
  </g>
</svg>
