<svg xmlns="http://www.w3.org/2000/svg" xmlns:xlink="http://www.w3.org/1999/xlink" viewBox="0 0 488.3 240.2">
  <defs>
    <linearGradient id="linear-gradient" x1="24.81" y1="637.35" x2="24.81" y2="609.84" gradientTransform="matrix(1, 0, 0, -1, 0, 634.4)" gradientUnits="userSpaceOnUse">
      <stop offset="0.18" stop-color="#5ea0ef"/>
      <stop offset="1" stop-color="#0078d4"/>
    </linearGradient>
    <radialGradient id="radial-gradient" cx="165.63" cy="611.75" r="9.53" gradientTransform="matrix(1, 0, 0, -1, 0, 634.4)" gradientUnits="userSpaceOnUse">
      <stop offset="0" stop-color="#76bc2d"/>
      <stop offset="0.41" stop-color="#74b92c"/>
      <stop offset="0.66" stop-color="#6fb12a"/>
      <stop offset="0.88" stop-color="#66a227"/>
      <stop offset="1" stop-color="#5e9624"/>
    </radialGradient>
    <linearGradient id="linear-gradient-2" x1="24.19" y1="434.2" x2="24.19" y2="404.36" gradientTransform="matrix(1, 0, 0, -1, 0, 634.4)" gradientUnits="userSpaceOnUse">
      <stop offset="0" stop-color="#5ea0ef"/>
      <stop offset="0.18" stop-color="#559cec"/>
      <stop offset="0.47" stop-color="#3c91e5"/>
      <stop offset="0.84" stop-color="#1380da"/>
      <stop offset="1" stop-color="#0078d4"/>
    </linearGradient>
    <linearGradient id="linear-gradient-3" x1="19.2" y1="404.04" x2="19.2" y2="418.5" gradientTransform="matrix(1, 0, 0, -1, 0, 634.4)" gradientUnits="userSpaceOnUse">
      <stop offset="0" stop-color="#198ab3"/>
      <stop offset="0.14" stop-color="#22a5cb"/>
      <stop offset="0.3" stop-color="#29bade"/>
      <stop offset="0.47" stop-color="#2ec9eb"/>
      <stop offset="0.68" stop-color="#31d1f3"/>
      <stop offset="1" stop-color="#32d4f5"/>
    </linearGradient>
    <radialGradient id="radial-gradient-2" cx="14729.12" cy="-4552.14" r="86.89" gradientTransform="matrix(0.15, 0, 0, -0.15, -2055.9, -490.65)" xlink:href="#linear-gradient"/>
    <linearGradient id="linear-gradient-4" x1="146.45" y1="438.43" x2="146.4" y2="444.48" gradientTransform="matrix(1, 0, 0, -1, 0, 634.4)" gradientUnits="userSpaceOnUse">
      <stop offset="0" stop-color="#ccc"/>
      <stop offset="0.12" stop-color="#d7d7d7"/>
      <stop offset="0.42" stop-color="#ebebeb"/>
      <stop offset="0.72" stop-color="#f8f8f8"/>
      <stop offset="1" stop-color="#fcfcfc"/>
    </linearGradient>
    <linearGradient id="linear-gradient-5" x1="155.22" y1="432.34" x2="155.22" y2="437.78" xlink:href="#linear-gradient-4"/>
    <linearGradient id="linear-gradient-6" x1="161.43" y1="438.93" x2="161.43" y2="444.71" xlink:href="#linear-gradient-4"/>
    <linearGradient id="linear-gradient-9" x1="192.46" y1="440.36" x2="212.82" y2="440.36" gradientTransform="matrix(1, 0, 0, -1, 0, 634.4)" gradientUnits="userSpaceOnUse">
      <stop offset="0" stop-color="#005ba1"/>
      <stop offset="0.07" stop-color="#0060a9"/>
      <stop offset="0.36" stop-color="#0071c8"/>
      <stop offset="0.52" stop-color="#0078d4"/>
      <stop offset="0.64" stop-color="#0074cd"/>
      <stop offset="0.82" stop-color="#006abb"/>
      <stop offset="1" stop-color="#005ba1"/>
    </linearGradient>
    <radialGradient id="radial-gradient-3" cx="203.18" cy="441.53" r="12.03" gradientTransform="matrix(0.93, 0, 0, -0.93, 13.58, 606.79)" gradientUnits="userSpaceOnUse">
      <stop offset="0" stop-color="#f2f2f2"/>
      <stop offset="0.58" stop-color="#eee"/>
      <stop offset="1" stop-color="#e6e6e6"/>
    </radialGradient>
    <linearGradient id="linear-gradient-10" x1="106.75" y1="442.94" x2="109.48" y2="440.21" gradientTransform="matrix(1, 0, 0, -1, 3.03, 633.92)" gradientUnits="userSpaceOnUse">
      <stop offset="0" stop-color="#86d633"/>
      <stop offset="0.24" stop-color="#83d232"/>
      <stop offset="0.5" stop-color="#7cc52f"/>
      <stop offset="0.76" stop-color="#6fb02a"/>
      <stop offset="1" stop-color="#5e9624"/>
    </linearGradient>
    <linearGradient id="linear-gradient-11" x1="100.58" y1="442.94" x2="103.3" y2="440.21" xlink:href="#linear-gradient-10"/>
    <linearGradient id="linear-gradient-12" x1="94.42" y1="442.95" x2="97.14" y2="440.21" xlink:href="#linear-gradient-10"/>
    <linearGradient id="linear-gradient-13" x1="61.19" y1="431.81" x2="61.19" y2="443.74" gradientTransform="matrix(1, 0, 0, -1, 0, 634.4)" gradientUnits="userSpaceOnUse">
      <stop offset="0" stop-color="#0078d4"/>
      <stop offset="0.82" stop-color="#5ea0ef"/>
    </linearGradient>
    <linearGradient id="linear-gradient-14" x1="61.23" y1="427.2" x2="61.23" y2="431.81" gradientTransform="matrix(1, 0, 0, -1, 0, 634.4)" gradientUnits="userSpaceOnUse">
      <stop offset="0.15" stop-color="#ccc"/>
      <stop offset="1" stop-color="#707070"/>
    </linearGradient>
    <linearGradient id="linear-gradient-15" x1="251.82" y1="429.7" x2="251.82" y2="448.08" gradientTransform="matrix(1, 0, 0, -1, 0, 634.4)" gradientUnits="userSpaceOnUse">
      <stop offset="0" stop-color="#b3b3b3"/>
      <stop offset="0.26" stop-color="#c1c1c1"/>
      <stop offset="1" stop-color="#e6e6e6"/>
    </linearGradient>
    <linearGradient id="linear-gradient-16" x1="360.3" y1="496.15" x2="382.92" y2="496.15" xlink:href="#linear-gradient-9"/>
  </defs>
  <g id="Shapes">
    <rect width="488.3" height="240.2" fill="#fff"/>
    <g>
      <rect y="80.2" width="410" height="160" fill="#fff"/>
      <rect y="80.2" width="410" height="160" fill="#3c3c41" opacity="0.08"/>
    </g>
    <g>
      <rect x="24.81" y="15.2" width="250.19" height="44.8" fill="#fff"/>
      <rect x="24.81" y="15.2" width="250.19" height="44.8" fill="#0072c6" opacity="0.35"/>
    </g>
    <path d="M38.57,13.93A6.26,6.26,0,0,0,33.2,7.85,7.9,7.9,0,0,0,25.15.2a8.08,8.08,0,0,0-7.64,5.36A7.44,7.44,0,0,0,11,12.82a7.65,7.65,0,0,0,7.77,7.38H32.4A6.34,6.34,0,0,0,38.57,13.93Z" fill="url(#linear-gradient)"/>
    <rect x="35" y="25" width="105" height="25" fill="#fff" stroke="#75757a" stroke-miterlimit="10" stroke-opacity="0.3" stroke-width="0.5"/>
    <rect x="165" y="25" width="100" height="25" fill="#fff" stroke="#75757a" stroke-miterlimit="10" stroke-opacity="0.3" stroke-width="0.5"/>
    <g>
      <rect x="295" y="15" width="115" height="45" fill="#fff"/>
      <rect x="295" y="15" width="115" height="45" fill="#0072c6" opacity="0.12"/>
    </g>
    <g>
      <path d="M169.26,23.62a1.25,1.25,0,0,1-.4,1,1.83,1.83,0,0,1-1.15.48v.78h-.57v-.8a3.15,3.15,0,0,1-1.42-.36v-1a2.14,2.14,0,0,0,.64.32,3.4,3.4,0,0,0,.78.18V22.85a3.19,3.19,0,0,1-1.18-.69,1.49,1.49,0,0,1,.08-2,1.77,1.77,0,0,1,1.1-.49V19h.56v.7a2.9,2.9,0,0,1,1.19.26v1a3,3,0,0,0-1.19-.41V22a3.13,3.13,0,0,1,1.19.7A1.31,1.31,0,0,1,169.26,23.62Zm-2.12-1.85v-1.2a.52.52,0,0,0-.47.54.73.73,0,0,0,.52.66Zm1.1,1.9c0-.24-.18-.43-.54-.6v1.16C168.06,24.17,168.24,24,168.24,23.67Z" fill="#258277"/>
      <path d="M177.72,22.65h-4.66a5.7,5.7,0,0,1-1.91,4.27l3.09,3.48a10.32,10.32,0,0,0,3.48-7.76" fill="#ffca00"/>
      <path d="M167.35,28.4a5.73,5.73,0,1,1,0-11.46V12.31A10.34,10.34,0,0,0,157,22.65h0A10.35,10.35,0,0,0,167.35,33h0a10.31,10.31,0,0,0,6.9-2.59l-3.1-3.48A5.64,5.64,0,0,1,167.35,28.4Z" fill="url(#radial-gradient)"/>
      <path d="M166.87,11h0v5.38h0a6.59,6.59,0,0,1,6.69,6.48,1.62,1.62,0,0,1,0,.22H179A12.08,12.08,0,0,0,166.88,11Z" fill="#ccc"/>
      <path d="M173.58,23.08a6.63,6.63,0,0,0-6.54-6.7h-.17l.43.8a5.83,5.83,0,0,1,5.47,5.5Z" fill="#999"/>
    </g>
    <g>
      <line x1="140" y1="37.5" x2="159.62" y2="37.5" fill="none" stroke="#3c3c41" stroke-miterlimit="10"/>
      <polygon points="158.52 41.24 165 37.5 158.52 33.76 158.52 41.24" fill="#3c3c41"/>
    </g>
    <g>
      <line x1="265" y1="37.5" x2="289.62" y2="37.5" fill="none" stroke="#3c3c41" stroke-miterlimit="10"/>
      <polygon points="288.52 41.24 295 37.5 288.52 33.76 288.52 41.24" fill="#3c3c41"/>
    </g>
    <g>
      <line x1="330" y1="137.2" x2="352.62" y2="137.2" fill="none" stroke="#3c3c41" stroke-miterlimit="10"/>
      <polygon points="351.52 140.94 358 137.2 351.52 133.46 351.52 140.94" fill="#3c3c41"/>
    </g>
    <g>
      <rect x="24.81" y="165.2" width="305.19" height="50" fill="#fff"/>
      <rect x="24.81" y="165.2" width="305.19" height="50" fill="#0072c6" opacity="0.05"/>
      <rect x="24.81" y="165.2" width="305.19" height="50" fill="none" stroke="#0072c6" stroke-miterlimit="10" stroke-width="0.5" opacity="0.6"/>
    </g>
    <g>
      <rect x="24.81" y="90.2" width="306.25" height="25" fill="#fff"/>
      <rect x="24.81" y="90.2" width="306.25" height="25" fill="#3c3c41" opacity="0.25"/>
    </g>
    <g>
      <rect x="24.81" y="125.2" width="306.25" height="25" fill="#fff"/>
      <rect x="24.81" y="125.2" width="306.25" height="25" fill="#3c3c41" opacity="0.25"/>
    </g>
    <g id="b1186d34-5ca3-4e43-992d-40ecef5e891b">
      <g>
        <path d="M32,200.2H16.43a1,1,0,0,0-1,1v22.12a18.47,18.47,0,0,1,2.52-1.78h2.94l1.63,2.17V227l-2.05,1.49-2.86-.35-2.18-2.06v3a1,1,0,0,0,1,1H32a1,1,0,0,0,1-1V201.19A1,1,0,0,0,32,200.2Z" fill="url(#linear-gradient-2)"/>
        <path id="af47f827-8b1b-4acd-8974-8eafe35490c9" d="M17.74,203.3H20.6a.25.25,0,0,1,.25.25h0v3.69a.25.25,0,0,1-.25.24H17.74a.24.24,0,0,1-.24-.24h0v-3.69a.25.25,0,0,1,.24-.25Zm5,0h2.85a.25.25,0,0,1,.25.25h0v3.69a.25.25,0,0,1-.25.24H22.76a.25.25,0,0,1-.25-.24h0v-3.69a.25.25,0,0,1,.25-.25Zm5,0h2.85a.25.25,0,0,1,.25.25h0v3.69a.25.25,0,0,1-.25.24H27.79a.25.25,0,0,1-.25-.24h0v-3.69a.25.25,0,0,1,.25-.25Zm-10,6.66H20.6a.26.26,0,0,1,.25.25h0v3.72a.25.25,0,0,1-.25.25H17.74a.25.25,0,0,1-.24-.25h0v-3.68a.24.24,0,0,1,.21-.28Zm5,0h2.85a.25.25,0,0,1,.25.25h0v3.72a.25.25,0,0,1-.25.25H22.76a.25.25,0,0,1-.25-.25h0v-3.68a.25.25,0,0,1,.21-.28Zm5,0h2.85a.25.25,0,0,1,.25.25h0v3.72a.25.25,0,0,1-.25.25H27.79a.25.25,0,0,1-.25-.25h0v-3.68a.25.25,0,0,1,.21-.28Zm-10,6.74H20.6a.25.25,0,0,1,.25.25h0v3.65a.25.25,0,0,1-.25.24H17.74a.24.24,0,0,1-.24-.24V217A.25.25,0,0,1,17.74,216.7Zm5,0h2.85a.25.25,0,0,1,.25.25h0v3.65a.25.25,0,0,1-.25.24H22.76a.25.25,0,0,1-.25-.24h0V217A.25.25,0,0,1,22.76,216.7Zm0,6.7h2.85a.25.25,0,0,1,.25.24h0v5.46a.25.25,0,0,1-.25.25H22.76a.25.25,0,0,1-.25-.25v-5.46a.25.25,0,0,1,.25-.24Zm5-6.7h2.85a.25.25,0,0,1,.25.25h0v3.65a.25.25,0,0,1-.25.24H27.79a.25.25,0,0,1-.25-.24h0V217A.25.25,0,0,1,27.79,216.7Z" fill="#f2f2f2"/>
        <path d="M19.23,222.37A2.3,2.3,0,0,0,17,224.14h-8a5,5,0,0,0-.14,1.15v.11H17a2.28,2.28,0,1,0,2.19-3Z" fill="#50e6ff"/>
        <path d="M25.43,221.41a5.78,5.78,0,0,0-6-5.51,5.92,5.92,0,0,0-5.67,3.86,5.64,5.64,0,0,0-4.5,3.55h7.33a3,3,0,1,1-.05,2.6H9a5.69,5.69,0,0,0,5.64,4.29H24.74a4.66,4.66,0,0,0,4.61-4.29A4.6,4.6,0,0,0,25.43,221.41Z" fill="url(#linear-gradient-3)"/>
        <path d="M19.23,222.37A2.3,2.3,0,0,0,17,224.14h-8a3.85,3.85,0,0,1-.83-.11,4,4,0,0,1,.44-7.93h.39l.13-.36a4.53,4.53,0,0,1,4.35-3,4.68,4.68,0,0,1,4,2.25,5.5,5.5,0,0,1,1.33-.16,5.87,5.87,0,0,0-5.31-3.35,5.83,5.83,0,0,0-5.48,3.46,5.21,5.21,0,0,0-.4,10.2h0a3.54,3.54,0,0,0,1.29.22h8a2.28,2.28,0,1,0,2.19-3Z" fill="#50e6ff"/>
      </g>
    </g>
    <g>
      <path id="ee75dd06-1aca-4f76-9d11-d05a284020ad" d="M161.48,202.47a13,13,0,0,1-16-20.59l.14-.09a13,13,0,0,1,15.83,20.68" fill="url(#radial-gradient-2)"/>
      <path d="M150,189.46A20,20,0,0,1,163.61,184a13,13,0,0,0-2.29-2.21,21.7,21.7,0,0,0-7.18,1.69,19,19,0,0,0-6.25,4.32A4.2,4.2,0,0,1,150,189.46Z" fill="#fff" opacity="0.6" style="isolation: isolate"/>
      <path d="M143.5,194.7a28.42,28.42,0,0,0-1.27,4,12,12,0,0,0,1,1.41c.28.35.54.67.84,1a27.48,27.48,0,0,1,1.66-5.31A4.22,4.22,0,0,1,143.5,194.7Z" fill="#fff" opacity="0.6" style="isolation: isolate"/>
      <path d="M145,187.75a18.38,18.38,0,0,1-1.05-4.51,12.52,12.52,0,0,0-1.69,2.22,19,19,0,0,0,.88,3.65A4.07,4.07,0,0,1,145,187.75Z" fill="#f2f2f2" opacity="0.55" style="isolation: isolate"/>
      <circle cx="146.41" cy="191.68" r="4.18" fill="url(#linear-gradient-4)"/>
      <path d="M152.51,199.33a2.72,2.72,0,0,1,.83-2,18,18,0,0,1-3.88-2.85,4.14,4.14,0,0,1-2.28,1.28,20.74,20.74,0,0,0,2.22,2,18.67,18.67,0,0,0,3.14,1.91Z" fill="#f2f2f2" opacity="0.55" style="isolation: isolate"/>
      <path d="M162.17,199.65a18.18,18.18,0,0,1-4.23-.49v.17a2.69,2.69,0,0,1-.78,1.9,20.91,20.91,0,0,0,5.24.37,12.73,12.73,0,0,0,1.82-2.06A15.65,15.65,0,0,1,162.17,199.65Z" fill="#f2f2f2" opacity="0.55" style="isolation: isolate"/>
      <circle cx="155.22" cy="199.33" r="2.73" fill="url(#linear-gradient-5)"/>
      <path d="M158.58,192.07a2.87,2.87,0,0,1,.93-1.54,39.09,39.09,0,0,1-6.83-6.34,26.19,26.19,0,0,1-3.06-4.47,10.86,10.86,0,0,0-1.67.64,27.21,27.21,0,0,0,3.29,4.87A40.35,40.35,0,0,0,158.58,192.07Z" fill="#f2f2f2" opacity="0.7" style="isolation: isolate"/>
      <circle cx="161.43" cy="192.59" r="2.9" fill="url(#linear-gradient-6)"/>
      <path d="M166.29,194.53l-.54-.26h0l-.46-.24h-.09l-.4-.32h-.11l-.47-.31a2.75,2.75,0,0,1-1,1.41c.18.12.38.23.58.34l.12.07.54.29h0l1.32.69h0a13.67,13.67,0,0,0,.44-1.7Z" fill="#f2f2f2" opacity="0.55" style="isolation: isolate"/>
      <circle cx="146.41" cy="191.68" r="4.18" fill="url(#linear-gradient-4)"/>
      <circle cx="155.22" cy="199.33" r="2.73" fill="url(#linear-gradient-5)"/>
    </g>
    <g>
      <path d="M202.64,186.07c-5.62,0-10.18-1.59-10.18-3.68V202c0,2,4.48,3.65,10,3.68h.14c5.62,0,10.18-1.59,10.18-3.68V182.39C212.82,184.43,208.26,186.07,202.64,186.07Z" fill="url(#linear-gradient-9)"/>
      <path d="M212.82,182.39c0,2-4.56,3.68-10.18,3.68s-10.18-1.59-10.18-3.68,4.56-3.69,10.18-3.69,10.18,1.59,10.18,3.69" fill="#e8e8e8"/>
      <path d="M210.46,182.08c0,1.31-3.51,2.35-7.82,2.35s-7.81-1-7.81-2.35,3.51-2.33,7.81-2.33,7.82,1.05,7.82,2.33" fill="#50e6ff"/>
      <path d="M202.64,182.67a18.31,18.31,0,0,0-6.18.91,18,18,0,0,0,6.18.85,17.53,17.53,0,0,0,6.18-.92A19,19,0,0,0,202.64,182.67Z" fill="#198ab3"/>
      <path d="M208.84,196v-5.4h-1.43v6.56h3.9V196Zm-11.34-2.65a2.78,2.78,0,0,1-.81-.49.69.69,0,0,1-.19-.51.56.56,0,0,1,.23-.48,1.14,1.14,0,0,1,.67-.19,2.62,2.62,0,0,1,1.59.46v-1.36a4.12,4.12,0,0,0-1.59-.26,2.63,2.63,0,0,0-1.73.54,1.75,1.75,0,0,0-.67,1.42c0,.81.51,1.44,1.59,1.92a4.89,4.89,0,0,1,1,.57.66.66,0,0,1,.23.51.6.6,0,0,1-.25.49,1.28,1.28,0,0,1-.71.18,2.72,2.72,0,0,1-1.74-.67V197a3.47,3.47,0,0,0,1.7.38,3,3,0,0,0,1.88-.53,1.73,1.73,0,0,0,.52-1.44,1.62,1.62,0,0,0-.4-1.11A3.82,3.82,0,0,0,197.5,193.36Zm8.32,2.53a3.73,3.73,0,0,0,.52-2,3.6,3.6,0,0,0-.52-1.68,2.9,2.9,0,0,0-1.11-1.19,3.17,3.17,0,0,0-1.59-.41,3.26,3.26,0,0,0-1.72.43,3,3,0,0,0-1.16,1.17,3.9,3.9,0,0,0-.41,1.81,3.51,3.51,0,0,0,.38,1.59,2.84,2.84,0,0,0,1.1,1.18,3.27,3.27,0,0,0,1.59.47l1.36,1.59h1.92l-2-1.75A2.81,2.81,0,0,0,205.82,195.89Zm-1.59-.4A1.48,1.48,0,0,1,203,196a1.41,1.41,0,0,1-1.2-.57,3,3,0,0,1,0-3.17,1.56,1.56,0,0,1,1.24-.59,1.37,1.37,0,0,1,1.19.59,2.59,2.59,0,0,1,.43,1.58A2.36,2.36,0,0,1,204.23,195.49Z" fill="url(#radial-gradient-3)"/>
    </g>
    <g>
      <circle cx="110.52" cy="192.19" r="1.93" fill="url(#linear-gradient-10)"/>
      <circle cx="104.35" cy="192.2" r="1.93" fill="url(#linear-gradient-11)"/>
      <circle cx="98.19" cy="192.2" r="1.93" fill="url(#linear-gradient-12)"/>
      <path d="M99.59,199.93,98.49,201a.51.51,0,0,1-.71,0h0l-8.19-8.17a1,1,0,0,1,0-1.41h0l1.11-1.11h0l8.89,8.87a.5.5,0,0,1,0,.71Z" fill="#50e6ff"/>
      <path d="M98.32,183.39l1.11,1.1a.51.51,0,0,1,0,.71L90.69,194h0l-1.11-1.1a1,1,0,0,1,0-1.42h0l8-8.05A.5.5,0,0,1,98.32,183.39Z" fill="#1490df"/>
      <path d="M117.88,190.34l1.1,1.11a1,1,0,0,1,0,1.41h0L110.79,201a.48.48,0,0,1-.7,0h0L109,199.91a.5.5,0,0,1,0-.7h0l8.9-8.87Z" fill="#50e6ff"/>
      <path d="M119,192.85l-1.11,1.1h0l-8.74-8.76a.5.5,0,0,1,0-.71h0l1.12-1.12a.51.51,0,0,1,.71,0h0l8,8.06a1,1,0,0,1,0,1.42h0Z" fill="#1490df"/>
    </g>
    <g>
      <rect x="40.11" y="177.2" width="17.84" height="11.91" rx="0.6" fill="#005ba1"/>
      <polygon points="52 181.42 52 184.9 49.03 186.62 49.03 183.17 52 181.42" fill="#50e6ff"/>
      <polygon points="52 181.42 49.03 183.17 46.05 181.42 49.03 179.67 52 181.42" fill="#c3f1ff"/>
      <polygon points="49.03 183.17 49.03 186.62 46.05 184.9 46.05 181.42 49.03 183.17" fill="#9cebff"/>
      <rect x="47.11" y="184.03" width="17.84" height="11.91" rx="0.6" fill="#0078d4"/>
      <polygon points="59.01 188.27 59.01 191.72 56.04 193.47 56.04 190 59.01 188.27" fill="#50e6ff"/>
      <polygon points="59.01 188.27 56.04 190 53.06 188.27 56.04 186.52 59.01 188.27" fill="#c3f1ff"/>
      <polygon points="56.04 190 56.04 193.47 53.06 191.72 53.06 188.27 56.04 190" fill="#9cebff"/>
      <rect x="52.26" y="190.67" width="17.84" height="11.91" rx="0.6" fill="url(#linear-gradient-13)"/>
      <polygon points="64.16 194.9 64.16 198.36 61.19 200.11 61.19 196.63 64.16 194.9" fill="#50e6ff"/>
      <polygon points="64.16 194.9 61.19 196.65 58.21 194.9 61.19 193.15 64.16 194.9" fill="#c3f1ff"/>
      <polygon points="61.19 196.65 61.19 200.11 58.21 198.36 58.21 194.9 61.19 196.65" fill="#9cebff"/>
      <polygon points="58.21 198.36 61.19 196.63 61.19 200.11 58.21 198.36" fill="#c3f1ff"/>
      <polygon points="64.16 198.36 61.19 196.63 61.19 200.11 64.16 198.36" fill="#9cebff"/>
      <path d="M64.76,206.2C63,205.91,63,204.64,63,202.67H59.46c0,2,0,3.31-1.76,3.53a1,1,0,0,0-.88,1h8.82A1,1,0,0,0,64.76,206.2Z" fill="url(#linear-gradient-14)"/>
    </g>
    <g>
      <path d="M236.28,186.32h31.09v17.34a1,1,0,0,1-1.05,1h-29a1,1,0,0,1-1-1Z" fill="url(#linear-gradient-15)"/>
      <path d="M237.32,179.7h29a1,1,0,0,1,1.05,1v5.58H236.28v-5.59A1,1,0,0,1,237.32,179.7Z" fill="#37c2b1"/>
      <path d="M240.5,188.33h22.62a.5.5,0,0,1,.48.5v2.56a.5.5,0,0,1-.48.49H240.5a.49.49,0,0,1-.47-.49v-2.56A.5.5,0,0,1,240.5,188.33Z" fill="#fff"/>
      <path d="M240.52,193.44h22.62a.49.49,0,0,1,.48.49v2.58a.5.5,0,0,1-.48.49H240.52a.5.5,0,0,1-.48-.49V194a.5.5,0,0,1,.4-.58Z" fill="#37c2b1"/>
      <path d="M240.52,198.59h22.62a.5.5,0,0,1,.48.5v2.58a.5.5,0,0,1-.48.49H240.52a.5.5,0,0,1-.48-.49v-2.58A.5.5,0,0,1,240.52,198.59Z" fill="#258277"/>
    </g>
    <g>
      <circle cx="294.06" cy="192.2" r="2.06" fill="#1e1e1e"/>
      <circle cx="301" cy="192.2" r="2.06" fill="#1e1e1e"/>
      <circle cx="307.94" cy="192.2" r="2.06" fill="#1e1e1e"/>
    </g>
    <g>
      <line x1="55" y1="174.7" x2="55" y2="155.04" fill="none" stroke="#3c3c41" stroke-miterlimit="10"/>
      <polygon points="58.74 156.14 55 149.66 51.26 156.14 58.74 156.14" fill="#3c3c41"/>
    </g>
    <g>
      <line x1="104" y1="174.7" x2="104" y2="155.04" fill="none" stroke="#3c3c41" stroke-miterlimit="10"/>
      <polygon points="107.74 156.14 104 149.66 100.26 156.14 107.74 156.14" fill="#3c3c41"/>
    </g>
    <g>
      <line x1="153" y1="174.7" x2="153" y2="155.04" fill="none" stroke="#3c3c41" stroke-miterlimit="10"/>
      <polygon points="156.74 156.14 153 149.66 149.26 156.14 156.74 156.14" fill="#3c3c41"/>
    </g>
    <g>
      <line x1="202" y1="174.7" x2="202" y2="155.04" fill="none" stroke="#3c3c41" stroke-miterlimit="10"/>
      <polygon points="205.74 156.14 202 149.66 198.26 156.14 205.74 156.14" fill="#3c3c41"/>
    </g>
    <g>
      <line x1="251" y1="174.7" x2="251" y2="155.04" fill="none" stroke="#3c3c41" stroke-miterlimit="10"/>
      <polygon points="254.74 156.14 251 149.66 247.26 156.14 254.74 156.14" fill="#3c3c41"/>
    </g>
    <g>
      <line x1="300" y1="174.7" x2="300" y2="155.04" fill="none" stroke="#3c3c41" stroke-miterlimit="10"/>
      <polygon points="303.74 156.14 300 149.66 296.26 156.14 303.74 156.14" fill="#3c3c41"/>
    </g>
    <g>
      <path d="M371.64,122V106.57a5,5,0,0,0-5-5H337.38" fill="none" stroke="#3c3c41" stroke-miterlimit="10"/>
      <polygon points="338.48 97.83 332 101.57 338.48 105.31 338.48 97.83" fill="#3c3c41"/>
    </g>
    <g>
      <path d="M371.68,129.39c-6.2,0-11.38-1.84-11.38-4.09v21.76c0,2.26,5,4.14,11.16,4.14h.22c6.21,0,11.32-1.82,11.32-4.14V125.3C382.92,127.55,377.89,129.39,371.68,129.39Z" fill="url(#linear-gradient-16)"/>
      <path d="M382.92,125.3c0,2.25-5.07,4.14-11.32,4.14s-11.3-1.89-11.3-4.14,5.18-4.1,11.38-4.1S383,123,383,125.34" fill="#e8e8e8"/>
      <path d="M380.27,125c0,1.42-3.87,2.58-8.67,2.58s-8.67-1.16-8.67-2.58,3.89-2.61,8.75-2.61,8.67,1.16,8.67,2.61" fill="#50e6ff"/>
      <path d="M371.68,125.57a21,21,0,0,0-6.85,1,19.94,19.94,0,0,0,6.85,1,20.26,20.26,0,0,0,6.87-1A21,21,0,0,0,371.68,125.57Z" fill="#198ab3"/>
    </g>
    <g>
      <line x1="383" y1="135.2" x2="417.32" y2="135.2" fill="none" stroke="#3c3c41" stroke-miterlimit="10"/>
      <path d="M417.18,138a2.82,2.82,0,1,0-2.82-2.82A2.82,2.82,0,0,0,417.18,138Z" fill="#3c3c41"/>
    </g>
    <g>
      <line x1="87.5" y1="90.2" x2="87.5" y2="55.38" fill="none" stroke="#3c3c41" stroke-miterlimit="10"/>
      <polygon points="91.24 56.48 87.5 50 83.76 56.48 91.24 56.48" fill="#3c3c41"/>
    </g>
  </g>
  <g id="Text">
    <g>
      <path d="M49.58,10.2H47.52l-.6-1.87h-3l-.59,1.87H41.29l3.06-8.4h2.24ZM46.49,6.88l-.91-2.83a4.38,4.38,0,0,1-.14-.75h0a3.16,3.16,0,0,1-.15.73l-.92,2.85Z" fill="#231f20"/>
      <path d="M55.2,10.2H49.81V9.43l3-3.86H50.11V4.2h5.06v.92L52.32,8.84H55.2Z" fill="#231f20"/>
      <path d="M61.9,10.2H60.05V9.29h0a2.11,2.11,0,0,1-1.83,1.06c-1.39,0-2.09-.84-2.09-2.53V4.2H58V7.66c0,.85.33,1.27,1,1.27a1,1,0,0,0,.8-.35,1.41,1.41,0,0,0,.3-1V4.2H61.9Z" fill="#231f20"/>
      <path d="M67.37,5.87a1.61,1.61,0,0,0-.78-.18,1.12,1.12,0,0,0-.94.44,1.93,1.93,0,0,0-.34,1.21V10.2H63.45v-6h1.86V5.31h0A1.59,1.59,0,0,1,66.91,4.1a1.14,1.14,0,0,1,.46.07Z" fill="#231f20"/>
      <path d="M73.57,7.73H69.66c.06.87.61,1.31,1.65,1.31a3.24,3.24,0,0,0,1.74-.47V9.9a4.57,4.57,0,0,1-2.17.45,3,3,0,0,1-2.25-.81,3,3,0,0,1-.8-2.25,3.19,3.19,0,0,1,.86-2.36,2.91,2.91,0,0,1,2.14-.88,2.63,2.63,0,0,1,2,.78A3.05,3.05,0,0,1,73.57,7ZM71.86,6.59q0-1.29-1-1.29a1,1,0,0,0-.77.37,1.67,1.67,0,0,0-.39.92Z" fill="#231f20"/>
    </g>
    <g>
      <path d="M54.08,37.74q0,3.52-3.19,3.53t-3.06-3.4V32.73h1v5.08c0,1.72.73,2.58,2.18,2.58s2.11-.83,2.11-2.5V32.73h1Z" fill="#1e1e1e"/>
      <path d="M55.69,40.92v-1a2.88,2.88,0,0,0,1.73.58c.84,0,1.26-.29,1.26-.85a.78.78,0,0,0-.11-.41,1,1,0,0,0-.29-.29,2.18,2.18,0,0,0-.43-.23l-.54-.22a5.16,5.16,0,0,1-.7-.32,1.74,1.74,0,0,1-.5-.36,1.29,1.29,0,0,1-.31-.46,1.57,1.57,0,0,1-.1-.6,1.44,1.44,0,0,1,.19-.75,1.58,1.58,0,0,1,.52-.54,2.45,2.45,0,0,1,.73-.34A3.49,3.49,0,0,1,58,35a3.45,3.45,0,0,1,1.39.27v1a2.71,2.71,0,0,0-1.52-.44,1.83,1.83,0,0,0-.49.06A1.06,1.06,0,0,0,57,36a.66.66,0,0,0-.24.26.7.7,0,0,0-.09.35.8.8,0,0,0,.09.39.82.82,0,0,0,.25.28,1.67,1.67,0,0,0,.4.22l.53.22a6.85,6.85,0,0,1,.71.31,2.44,2.44,0,0,1,.54.37,1.38,1.38,0,0,1,.34.46,1.39,1.39,0,0,1,.13.63,1.47,1.47,0,0,1-.2.77,1.74,1.74,0,0,1-.53.55,2.43,2.43,0,0,1-.75.32,3.82,3.82,0,0,1-.9.1A3.34,3.34,0,0,1,55.69,40.92Z" fill="#1e1e1e"/>
      <path d="M65.44,41.13h-1V40.2h0a2,2,0,0,1-1.84,1.07,2,2,0,0,1-1.41-.47,1.68,1.68,0,0,1-.5-1.26c0-1.12.66-1.77,2-2l1.8-.25c0-1-.42-1.53-1.24-1.53a3,3,0,0,0-2,.74v-1a3.68,3.68,0,0,1,2-.57c1.41,0,2.12.75,2.12,2.24Zm-1-3L63,38.3a2.3,2.3,0,0,0-1,.33,1,1,0,0,0-.34.84,1,1,0,0,0,.31.72,1.25,1.25,0,0,0,.84.28A1.52,1.52,0,0,0,64,40a1.77,1.77,0,0,0,.47-1.26Z" fill="#1e1e1e"/>
      <path d="M72.37,40.65Q72.37,44,69.2,44a4.23,4.23,0,0,1-1.94-.42v-1a4,4,0,0,0,1.93.56c1.48,0,2.22-.79,2.22-2.36v-.65h0a2.43,2.43,0,0,1-3.86.34,3.14,3.14,0,0,1-.68-2.14,3.73,3.73,0,0,1,.73-2.43,2.44,2.44,0,0,1,2-.91,2,2,0,0,1,1.8,1h0v-.84h1Zm-1-2.23v-.88a1.7,1.7,0,0,0-.49-1.23,1.58,1.58,0,0,0-1.2-.51,1.66,1.66,0,0,0-1.39.65,2.87,2.87,0,0,0-.51,1.81,2.53,2.53,0,0,0,.48,1.61,1.57,1.57,0,0,0,1.28.6,1.7,1.7,0,0,0,1.32-.58A2.12,2.12,0,0,0,71.41,38.42Z" fill="#1e1e1e"/>
      <path d="M79.14,38.37H74.9a2.23,2.23,0,0,0,.54,1.55,1.86,1.86,0,0,0,1.42.55,3,3,0,0,0,1.86-.67v.9a3.5,3.5,0,0,1-2.09.57,2.54,2.54,0,0,1-2-.81,3.37,3.37,0,0,1-.73-2.3,3.25,3.25,0,0,1,.8-2.28,2.54,2.54,0,0,1,2-.89,2.28,2.28,0,0,1,1.82.76,3.2,3.2,0,0,1,.65,2.12Zm-1-.81a2,2,0,0,0-.4-1.3,1.39,1.39,0,0,0-1.1-.46,1.52,1.52,0,0,0-1.15.49,2.22,2.22,0,0,0-.59,1.27Z" fill="#1e1e1e"/>
      <path d="M90.29,40.56a5.63,5.63,0,0,1-2.82.71,3.82,3.82,0,0,1-2.91-1.16A4.24,4.24,0,0,1,83.45,37a4.39,4.39,0,0,1,1.24-3.2,4.2,4.2,0,0,1,3.12-1.25,5.28,5.28,0,0,1,2.31.45v1.09a4.44,4.44,0,0,0-2.42-.65,3,3,0,0,0-2.31,1,4.09,4.09,0,0,0-.07,5,2.94,2.94,0,0,0,2.28.91A3.53,3.53,0,0,0,89.3,40V37.64H87.46v-.89h2.83Z" fill="#1e1e1e"/>
      <path d="M96.4,41.13h-1V40.2h0a2,2,0,0,1-1.85,1.07,2,2,0,0,1-1.4-.47,1.65,1.65,0,0,1-.51-1.26c0-1.12.66-1.77,2-2l1.8-.25q0-1.53-1.23-1.53a3,3,0,0,0-2,.74v-1a3.68,3.68,0,0,1,2-.57c1.41,0,2.11.75,2.11,2.24Zm-1-3L94,38.3a2.25,2.25,0,0,0-1,.33,1,1,0,0,0-.34.84.92.92,0,0,0,.31.72,1.25,1.25,0,0,0,.84.28A1.54,1.54,0,0,0,95,40a1.76,1.76,0,0,0,.46-1.26Z" fill="#1e1e1e"/>
      <path d="M101,41.08a2,2,0,0,1-.9.18c-1,0-1.58-.58-1.58-1.76V36h-1v-.82h1V33.67l1-.31v1.77H101V36H99.49v3.38a1.41,1.41,0,0,0,.2.87.82.82,0,0,0,.68.25,1,1,0,0,0,.63-.2Z" fill="#1e1e1e"/>
      <path d="M107.1,38.37h-4.23a2.19,2.19,0,0,0,.54,1.55,1.85,1.85,0,0,0,1.41.55,3,3,0,0,0,1.87-.67v.9a3.53,3.53,0,0,1-2.1.57,2.53,2.53,0,0,1-2-.81,3.33,3.33,0,0,1-.73-2.3,3.25,3.25,0,0,1,.79-2.28,2.56,2.56,0,0,1,2-.89,2.28,2.28,0,0,1,1.82.76,3.19,3.19,0,0,1,.64,2.12Zm-1-.81a2,2,0,0,0-.4-1.3,1.4,1.4,0,0,0-1.1-.46,1.56,1.56,0,0,0-1.16.49,2.21,2.21,0,0,0-.58,1.27Z" fill="#1e1e1e"/>
      <path d="M116.11,35.13l-1.79,6h-1l-1.24-4.29a3,3,0,0,1-.09-.56h0a3.75,3.75,0,0,1-.13.55l-1.34,4.3h-1l-1.82-6h1L110,39.65a2.74,2.74,0,0,1,.09.53h0a2.43,2.43,0,0,1,.11-.55l1.38-4.5h.88l1.24,4.53a3,3,0,0,1,.09.54h0a1.94,1.94,0,0,1,.1-.54l1.22-4.53Z" fill="#1e1e1e"/>
      <path d="M121.52,41.13h-1V40.2h0a2,2,0,0,1-1.85,1.07,2,2,0,0,1-1.4-.47,1.65,1.65,0,0,1-.51-1.26c0-1.12.66-1.77,2-2l1.8-.25q0-1.53-1.23-1.53a3,3,0,0,0-2,.74v-1a3.68,3.68,0,0,1,2-.57c1.41,0,2.11.75,2.11,2.24Zm-1-3-1.45.2a2.25,2.25,0,0,0-1,.33,1,1,0,0,0-.34.84.92.92,0,0,0,.31.72,1.25,1.25,0,0,0,.84.28A1.54,1.54,0,0,0,120.1,40a1.76,1.76,0,0,0,.46-1.26Z" fill="#1e1e1e"/>
      <path d="M128.11,35.13l-2.76,7c-.49,1.25-1.18,1.87-2.08,1.87a2.17,2.17,0,0,1-.62-.08V43a1.74,1.74,0,0,0,.57.11,1.19,1.19,0,0,0,1.09-.87l.48-1.14-2.35-6h1.07l1.62,4.62c0,.06.06.21.12.46h0c0-.1.06-.24.12-.45l1.7-4.63Z" fill="#1e1e1e"/>
    </g>
    <g>
      <path d="M193.12,40.78a4.89,4.89,0,0,1-2.32.49,3.74,3.74,0,0,1-2.87-1.15,4.26,4.26,0,0,1-1.08-3,4.51,4.51,0,0,1,1.21-3.26,4.12,4.12,0,0,1,3.08-1.24,4.91,4.91,0,0,1,2,.35V34a4,4,0,0,0-2-.51,3,3,0,0,0-2.35,1,3.62,3.62,0,0,0-.9,2.58,3.47,3.47,0,0,0,.84,2.45,2.86,2.86,0,0,0,2.21.91,4.2,4.2,0,0,0,2.19-.56Z" fill="#1e1e1e"/>
      <path d="M197.21,41.27a2.77,2.77,0,0,1-2.12-.84,3.11,3.11,0,0,1-.8-2.23,3.26,3.26,0,0,1,.83-2.36,3,3,0,0,1,2.23-.85,2.71,2.71,0,0,1,2.1.83,3.27,3.27,0,0,1,.75,2.29,3.23,3.23,0,0,1-.81,2.3A2.83,2.83,0,0,1,197.21,41.27Zm.07-5.47a1.81,1.81,0,0,0-1.46.63,2.59,2.59,0,0,0-.54,1.74,2.46,2.46,0,0,0,.54,1.68,1.87,1.87,0,0,0,1.46.62,1.76,1.76,0,0,0,1.43-.61,2.57,2.57,0,0,0,.5-1.71,2.65,2.65,0,0,0-.5-1.74A1.73,1.73,0,0,0,197.28,35.8Z" fill="#1e1e1e"/>
      <path d="M210.25,41.13h-1V37.69a2.62,2.62,0,0,0-.3-1.44,1.17,1.17,0,0,0-1-.45,1.27,1.27,0,0,0-1,.56,2.16,2.16,0,0,0-.44,1.35v3.42h-1V37.57c0-1.18-.45-1.77-1.36-1.77a1.27,1.27,0,0,0-1,.53,2.18,2.18,0,0,0-.41,1.38v3.42h-1v-6h1v.95h0A2,2,0,0,1,204.58,35a1.72,1.72,0,0,1,1.07.35,1.62,1.62,0,0,1,.63.9,2.15,2.15,0,0,1,2-1.25c1.32,0,2,.82,2,2.45Z" fill="#1e1e1e"/>
      <path d="M220.59,41.13h-1V37.69a2.52,2.52,0,0,0-.31-1.44,1.15,1.15,0,0,0-1-.45,1.3,1.3,0,0,0-1,.56,2.16,2.16,0,0,0-.43,1.35v3.42h-1V37.57c0-1.18-.46-1.77-1.37-1.77a1.27,1.27,0,0,0-1,.53,2.24,2.24,0,0,0-.41,1.38v3.42h-1v-6h1v.95h0A2.06,2.06,0,0,1,214.92,35a1.76,1.76,0,0,1,1.7,1.25,2.14,2.14,0,0,1,2-1.25c1.32,0,2,.82,2,2.45Z" fill="#1e1e1e"/>
      <path d="M227.23,38.37H223a2.28,2.28,0,0,0,.54,1.55,1.89,1.89,0,0,0,1.42.55,3,3,0,0,0,1.86-.67v.9a3.47,3.47,0,0,1-2.09.57,2.56,2.56,0,0,1-2-.81,3.37,3.37,0,0,1-.72-2.3,3.25,3.25,0,0,1,.79-2.28,2.55,2.55,0,0,1,2-.89,2.27,2.27,0,0,1,1.82.76,3.2,3.2,0,0,1,.65,2.12Zm-1-.81a1.91,1.91,0,0,0-.4-1.3,1.39,1.39,0,0,0-1.1-.46,1.54,1.54,0,0,0-1.15.49,2.22,2.22,0,0,0-.59,1.27Z" fill="#1e1e1e"/>
      <path d="M231.81,36.11a1.18,1.18,0,0,0-.73-.2,1.22,1.22,0,0,0-1,.58,2.68,2.68,0,0,0-.42,1.59v3.05h-1v-6h1v1.24h0a2.08,2.08,0,0,1,.62-1,1.47,1.47,0,0,1,1-.35,1.65,1.65,0,0,1,.57.08Z" fill="#1e1e1e"/>
      <path d="M236.94,40.86a3.07,3.07,0,0,1-1.64.41,2.71,2.71,0,0,1-2.07-.83,3.06,3.06,0,0,1-.79-2.17,3.36,3.36,0,0,1,.85-2.38,3,3,0,0,1,2.27-.9,3.13,3.13,0,0,1,1.4.3v1a2.49,2.49,0,0,0-1.43-.47,1.92,1.92,0,0,0-1.51.66,2.47,2.47,0,0,0-.59,1.73,2.39,2.39,0,0,0,.55,1.67,1.94,1.94,0,0,0,1.49.61,2.39,2.39,0,0,0,1.47-.53Z" fill="#1e1e1e"/>
      <path d="M243.22,38.37H239a2.28,2.28,0,0,0,.54,1.55,1.89,1.89,0,0,0,1.42.55,3,3,0,0,0,1.86-.67v.9a3.47,3.47,0,0,1-2.09.57,2.56,2.56,0,0,1-2-.81,3.37,3.37,0,0,1-.72-2.3,3.25,3.25,0,0,1,.79-2.28,2.55,2.55,0,0,1,2-.89,2.27,2.27,0,0,1,1.82.76,3.2,3.2,0,0,1,.65,2.12Zm-1-.81a1.91,1.91,0,0,0-.4-1.3,1.39,1.39,0,0,0-1.1-.46,1.54,1.54,0,0,0-1.15.49,2.22,2.22,0,0,0-.59,1.27Z" fill="#1e1e1e"/>
    </g>
    <g>
      <path d="M150,102.44q0,3.54-3.2,3.54t-3.06-3.4V97.44h1v5.07c0,1.73.73,2.59,2.18,2.59s2.1-.83,2.1-2.5V97.44h1Z" fill="#1e1e1e"/>
      <path d="M151.57,105.63v-1a2.84,2.84,0,0,0,1.73.58c.84,0,1.27-.28,1.27-.84a.78.78,0,0,0-.11-.41,1,1,0,0,0-.29-.29,1.83,1.83,0,0,0-.44-.23l-.53-.22a5.16,5.16,0,0,1-.7-.32,2,2,0,0,1-.51-.36,1.26,1.26,0,0,1-.3-.46,1.57,1.57,0,0,1-.11-.6,1.45,1.45,0,0,1,.2-.75,1.78,1.78,0,0,1,.51-.55,2.77,2.77,0,0,1,.74-.33,3.41,3.41,0,0,1,.85-.11,3.46,3.46,0,0,1,1.4.27v1a2.82,2.82,0,0,0-1.53-.43,1.75,1.75,0,0,0-.48.06,1.11,1.11,0,0,0-.38.18.85.85,0,0,0-.24.26.81.81,0,0,0-.08.34,1,1,0,0,0,.08.4.94.94,0,0,0,.25.28,2.11,2.11,0,0,0,.4.22l.53.22a6.21,6.21,0,0,1,.72.31,2.82,2.82,0,0,1,.54.36,1.41,1.41,0,0,1,.34.47,1.54,1.54,0,0,1,.12.63,1.41,1.41,0,0,1-.2.77,1.7,1.7,0,0,1-.52.55,2.49,2.49,0,0,1-.76.32,3.68,3.68,0,0,1-.89.1A3.54,3.54,0,0,1,151.57,105.63Z" fill="#1e1e1e"/>
      <path d="M161.32,105.84h-1v-.93h0a2,2,0,0,1-1.85,1.07,2,2,0,0,1-1.4-.47,1.65,1.65,0,0,1-.51-1.26c0-1.12.66-1.77,2-2l1.8-.25q0-1.53-1.23-1.53a3,3,0,0,0-2,.74v-1a3.76,3.76,0,0,1,2-.56c1.41,0,2.11.75,2.11,2.24Zm-1-3-1.45.2a2.25,2.25,0,0,0-1,.33,1,1,0,0,0-.34.84.92.92,0,0,0,.31.72,1.24,1.24,0,0,0,.83.27,1.55,1.55,0,0,0,1.19-.5,1.76,1.76,0,0,0,.46-1.26Z" fill="#1e1e1e"/>
      <path d="M168.25,105.36q0,3.31-3.16,3.31a4.31,4.31,0,0,1-2-.42v-1a4,4,0,0,0,1.94.57c1.47,0,2.21-.79,2.21-2.36v-.66h0a2.42,2.42,0,0,1-3.86.35,3.16,3.16,0,0,1-.69-2.14,3.78,3.78,0,0,1,.74-2.44,2.46,2.46,0,0,1,2-.9,2,2,0,0,1,1.8,1h0v-.83h1Zm-1-2.23v-.88a1.73,1.73,0,0,0-.48-1.23,1.58,1.58,0,0,0-1.2-.51,1.68,1.68,0,0,0-1.4.65,2.91,2.91,0,0,0-.5,1.81,2.48,2.48,0,0,0,.48,1.6,1.56,1.56,0,0,0,1.28.6,1.69,1.69,0,0,0,1.32-.57A2.16,2.16,0,0,0,167.29,103.13Z" fill="#1e1e1e"/>
      <path d="M175,103.08h-4.23a2.23,2.23,0,0,0,.53,1.55,1.88,1.88,0,0,0,1.42.54,3,3,0,0,0,1.87-.66v.9a3.53,3.53,0,0,1-2.1.57,2.53,2.53,0,0,1-2-.81,3.34,3.34,0,0,1-.73-2.3,3.29,3.29,0,0,1,.79-2.29,2.58,2.58,0,0,1,2-.88,2.29,2.29,0,0,1,1.83.76,3.19,3.19,0,0,1,.64,2.12Zm-1-.81a2,2,0,0,0-.4-1.3,1.4,1.4,0,0,0-1.1-.46,1.54,1.54,0,0,0-1.16.49,2.21,2.21,0,0,0-.58,1.27Z" fill="#1e1e1e"/>
      <path d="M179.89,105.84v-8.4h2.39A2.65,2.65,0,0,1,184,98a1.72,1.72,0,0,1,.64,1.39,2,2,0,0,1-1.45,2v0a2.1,2.1,0,0,1,1.35.64,2,2,0,0,1,.51,1.41,2.16,2.16,0,0,1-.77,1.74,2.84,2.84,0,0,1-1.95.67Zm1-7.51V101h1a1.89,1.89,0,0,0,1.27-.39,1.34,1.34,0,0,0,.47-1.09c0-.82-.54-1.23-1.61-1.23Zm0,3.6v3h1.33a2,2,0,0,0,1.35-.41,1.42,1.42,0,0,0,.47-1.12c0-1-.67-1.49-2-1.49Z" fill="#1e1e1e"/>
      <path d="M189.77,100.82a1.18,1.18,0,0,0-.73-.2,1.25,1.25,0,0,0-1,.58,2.74,2.74,0,0,0-.41,1.58v3.06h-1v-6h1v1.24h0a2.08,2.08,0,0,1,.62-1,1.47,1.47,0,0,1,.95-.35,1.44,1.44,0,0,1,.57.08Z" fill="#1e1e1e"/>
      <path d="M191.3,98.32a.58.58,0,0,1-.43-.18.55.55,0,0,1-.19-.44.63.63,0,0,1,.62-.63.61.61,0,0,1,.45.18.58.58,0,0,1,.19.45.58.58,0,0,1-.19.44A.61.61,0,0,1,191.3,98.32Zm.47,7.52h-1v-6h1Z" fill="#1e1e1e"/>
      <path d="M198.84,105.84h-1v-1h0a2.22,2.22,0,0,1-2.07,1.16,2.25,2.25,0,0,1-1.8-.8,3.27,3.27,0,0,1-.68-2.2,3.59,3.59,0,0,1,.75-2.38,2.46,2.46,0,0,1,2-.9,2,2,0,0,1,1.8,1h0V97h1Zm-1-2.71v-.88a1.74,1.74,0,0,0-.48-1.24,1.77,1.77,0,0,0-2.6.15,2.77,2.77,0,0,0-.51,1.78,2.48,2.48,0,0,0,.49,1.63,1.57,1.57,0,0,0,1.29.6,1.65,1.65,0,0,0,1.31-.58A2.16,2.16,0,0,0,197.88,103.13Z" fill="#1e1e1e"/>
      <path d="M205.91,105.36q0,3.31-3.17,3.31a4.23,4.23,0,0,1-1.94-.42v-1a3.94,3.94,0,0,0,1.93.57c1.48,0,2.22-.79,2.22-2.36v-.66h0a2.42,2.42,0,0,1-3.86.35,3.16,3.16,0,0,1-.68-2.14,3.77,3.77,0,0,1,.73-2.44,2.46,2.46,0,0,1,2-.9,2,2,0,0,1,1.8,1h0v-.83h1Zm-1-2.23v-.88a1.74,1.74,0,0,0-.49-1.23,1.58,1.58,0,0,0-1.2-.51,1.68,1.68,0,0,0-1.4.65,2.91,2.91,0,0,0-.5,1.81,2.48,2.48,0,0,0,.48,1.6,1.57,1.57,0,0,0,1.28.6,1.69,1.69,0,0,0,1.32-.57A2.12,2.12,0,0,0,205,103.13Z" fill="#1e1e1e"/>
      <path d="M212.67,103.08h-4.23a2.19,2.19,0,0,0,.54,1.55,1.85,1.85,0,0,0,1.41.54,3,3,0,0,0,1.87-.66v.9a3.52,3.52,0,0,1-2.09.57,2.54,2.54,0,0,1-2-.81,3.34,3.34,0,0,1-.73-2.3,3.29,3.29,0,0,1,.8-2.29,2.55,2.55,0,0,1,2-.88,2.28,2.28,0,0,1,1.82.76,3.19,3.19,0,0,1,.64,2.12Zm-1-.81a2,2,0,0,0-.4-1.3,1.4,1.4,0,0,0-1.1-.46A1.52,1.52,0,0,0,209,101a2.16,2.16,0,0,0-.59,1.27Z" fill="#1e1e1e"/>
    </g>
    <g>
      <path d="M363.86,160.08q0,3.54-3.2,3.54t-3.06-3.4v-5.14h1v5.07c0,1.73.73,2.59,2.18,2.59s2.1-.83,2.1-2.5v-5.16h1Z" fill="#1e1e1e"/>
      <path d="M365.46,163.27v-1a2.84,2.84,0,0,0,1.73.58c.84,0,1.27-.28,1.27-.84a.76.76,0,0,0-.11-.41.93.93,0,0,0-.3-.29,1.59,1.59,0,0,0-.43-.23l-.54-.22a6.6,6.6,0,0,1-.7-.32,2.14,2.14,0,0,1-.5-.36,1.35,1.35,0,0,1-.3-.46,1.57,1.57,0,0,1-.11-.6,1.42,1.42,0,0,1,.2-.75,1.78,1.78,0,0,1,.51-.55,2.77,2.77,0,0,1,.74-.33,3.41,3.41,0,0,1,.85-.11,3.5,3.5,0,0,1,1.4.27v1a2.74,2.74,0,0,0-1.53-.43,1.75,1.75,0,0,0-.48.06,1.33,1.33,0,0,0-.38.17,1,1,0,0,0-.24.27.77.77,0,0,0-.08.34,1,1,0,0,0,.08.4.94.94,0,0,0,.25.28,2.11,2.11,0,0,0,.4.22l.53.22a6.21,6.21,0,0,1,.72.31,2.82,2.82,0,0,1,.54.36,1.41,1.41,0,0,1,.34.47,1.51,1.51,0,0,1,.12.63,1.41,1.41,0,0,1-.2.77,1.58,1.58,0,0,1-.52.54,2.28,2.28,0,0,1-.76.33,3.68,3.68,0,0,1-.89.1A3.54,3.54,0,0,1,365.46,163.27Z" fill="#1e1e1e"/>
      <path d="M375.21,163.48h-1v-.94h0a2,2,0,0,1-1.85,1.08,2,2,0,0,1-1.4-.47,1.65,1.65,0,0,1-.51-1.26c0-1.12.66-1.78,2-2l1.8-.25c0-1-.41-1.53-1.24-1.53a3,3,0,0,0-1.95.74v-1a3.76,3.76,0,0,1,2-.56c1.41,0,2.11.75,2.11,2.24Zm-1-3-1.45.2a2.25,2.25,0,0,0-1,.33,1,1,0,0,0-.34.84.92.92,0,0,0,.31.72,1.24,1.24,0,0,0,.83.27,1.55,1.55,0,0,0,1.19-.5,1.77,1.77,0,0,0,.46-1.27Z" fill="#1e1e1e"/>
      <path d="M382.14,163c0,2.2-1.05,3.31-3.16,3.31a4.18,4.18,0,0,1-2-.43v-1a4,4,0,0,0,1.94.57c1.47,0,2.21-.79,2.21-2.36v-.66h0a2.43,2.43,0,0,1-3.87.35,3.21,3.21,0,0,1-.68-2.14,3.78,3.78,0,0,1,.74-2.44,2.46,2.46,0,0,1,2-.9,2,2,0,0,1,1.8,1h0v-.83h1Zm-1-2.23v-.89a1.72,1.72,0,0,0-.48-1.22,1.58,1.58,0,0,0-1.2-.51,1.68,1.68,0,0,0-1.4.65,2.85,2.85,0,0,0-.5,1.81,2.48,2.48,0,0,0,.48,1.6,1.56,1.56,0,0,0,1.28.6,1.69,1.69,0,0,0,1.32-.57A2.16,2.16,0,0,0,381.18,160.77Z" fill="#1e1e1e"/>
      <path d="M388.91,160.72h-4.24a2.28,2.28,0,0,0,.54,1.55,1.88,1.88,0,0,0,1.42.54,3,3,0,0,0,1.87-.66v.9a3.53,3.53,0,0,1-2.1.57,2.53,2.53,0,0,1-2-.81,3.34,3.34,0,0,1-.73-2.3,3.29,3.29,0,0,1,.79-2.29,2.58,2.58,0,0,1,2-.88,2.29,2.29,0,0,1,1.83.76,3.19,3.19,0,0,1,.64,2.12Zm-1-.81a2,2,0,0,0-.4-1.3,1.37,1.37,0,0,0-1.1-.46,1.54,1.54,0,0,0-1.16.49,2.18,2.18,0,0,0-.58,1.27Z" fill="#1e1e1e"/>
      <path d="M355.16,176.68h-1v-1h0a2.2,2.2,0,0,1-2.06,1.16,2.27,2.27,0,0,1-1.81-.8,3.32,3.32,0,0,1-.67-2.2,3.59,3.59,0,0,1,.75-2.38,2.46,2.46,0,0,1,2-.9,1.92,1.92,0,0,1,1.79,1h0V167.8h1Zm-1-2.71v-.89a1.73,1.73,0,0,0-.48-1.23,1.78,1.78,0,0,0-2.6.14,2.82,2.82,0,0,0-.51,1.79,2.53,2.53,0,0,0,.48,1.63,1.6,1.6,0,0,0,1.3.6,1.65,1.65,0,0,0,1.31-.58A2.16,2.16,0,0,0,354.2,174Z" fill="#1e1e1e"/>
      <path d="M361.4,176.68h-1v-.94h0a2,2,0,0,1-1.84,1.08,2,2,0,0,1-1.4-.47,1.65,1.65,0,0,1-.51-1.26c0-1.12.66-1.78,2-2l1.8-.25c0-1-.41-1.53-1.24-1.53a3,3,0,0,0-2,.74v-1a3.76,3.76,0,0,1,2-.56c1.41,0,2.12.75,2.12,2.24Zm-1-3-1.45.2a2.3,2.3,0,0,0-1,.33,1,1,0,0,0-.34.84.93.93,0,0,0,.32.72,1.22,1.22,0,0,0,.83.27,1.51,1.51,0,0,0,1.18-.5,1.78,1.78,0,0,0,.47-1.27Z" fill="#1e1e1e"/>
      <path d="M366,176.62a1.76,1.76,0,0,1-.89.19c-1.06,0-1.58-.58-1.58-1.76V171.5h-1v-.82h1v-1.46l1-.31v1.77H366v.82h-1.51v3.38a1.35,1.35,0,0,0,.21.86.78.78,0,0,0,.68.26.94.94,0,0,0,.62-.2Z" fill="#1e1e1e"/>
      <path d="M371.57,176.68h-1v-.94h0a2,2,0,0,1-1.85,1.08,2,2,0,0,1-1.4-.47,1.65,1.65,0,0,1-.51-1.26c0-1.12.66-1.78,2-2l1.8-.25c0-1-.41-1.53-1.24-1.53a3,3,0,0,0-1.95.74v-1a3.76,3.76,0,0,1,2-.56c1.41,0,2.11.75,2.11,2.24Zm-1-3-1.45.2a2.35,2.35,0,0,0-1,.33,1,1,0,0,0-.34.84.93.93,0,0,0,.32.72,1.24,1.24,0,0,0,.83.27,1.51,1.51,0,0,0,1.18-.5,1.78,1.78,0,0,0,.47-1.27Z" fill="#1e1e1e"/>
      <path d="M374.37,175.81h0v.87h-1V167.8h1v3.94h0a2.26,2.26,0,0,1,2.07-1.2,2.2,2.2,0,0,1,1.81.81,3.33,3.33,0,0,1,.65,2.16,3.72,3.72,0,0,1-.73,2.41,2.46,2.46,0,0,1-2,.9A1.94,1.94,0,0,1,374.37,175.81Zm0-2.41v.83a1.77,1.77,0,0,0,.49,1.27,1.73,1.73,0,0,0,2.59-.15,3.09,3.09,0,0,0,.5-1.86,2.41,2.41,0,0,0-.47-1.57,1.52,1.52,0,0,0-1.25-.57,1.7,1.7,0,0,0-1.35.58A2.16,2.16,0,0,0,374.34,173.4Z" fill="#1e1e1e"/>
      <path d="M384.73,176.68h-1v-.94h0a2,2,0,0,1-1.85,1.08,2,2,0,0,1-1.4-.47,1.65,1.65,0,0,1-.51-1.26c0-1.12.66-1.78,2-2l1.8-.25c0-1-.41-1.53-1.24-1.53a3,3,0,0,0-1.95.74v-1a3.76,3.76,0,0,1,2-.56c1.41,0,2.11.75,2.11,2.24Zm-1-3-1.45.2a2.35,2.35,0,0,0-1,.33,1,1,0,0,0-.34.84.93.93,0,0,0,.32.72,1.24,1.24,0,0,0,.83.27,1.51,1.51,0,0,0,1.18-.5,1.78,1.78,0,0,0,.47-1.27Z" fill="#1e1e1e"/>
      <path d="M386.18,176.47v-1a2.82,2.82,0,0,0,1.73.58q1.26,0,1.26-.84a.68.68,0,0,0-.11-.41,1,1,0,0,0-.29-.29,1.76,1.76,0,0,0-.43-.23l-.54-.22a5.79,5.79,0,0,1-.7-.32,2,2,0,0,1-.5-.36,1.38,1.38,0,0,1-.31-.46,1.57,1.57,0,0,1-.1-.6,1.42,1.42,0,0,1,.19-.75,1.7,1.7,0,0,1,.52-.55,2.71,2.71,0,0,1,.73-.33,3.49,3.49,0,0,1,.86-.11,3.41,3.41,0,0,1,1.39.27v1a2.7,2.7,0,0,0-1.52-.43,1.88,1.88,0,0,0-.49.06,1.26,1.26,0,0,0-.37.17,1,1,0,0,0-.24.27.67.67,0,0,0-.09.34.82.82,0,0,0,.09.4.94.94,0,0,0,.25.28,2.11,2.11,0,0,0,.4.22l.53.22a6,6,0,0,1,.71.31,2.53,2.53,0,0,1,.54.36,1.45,1.45,0,0,1,.35.47,1.64,1.64,0,0,1-.08,1.4,1.82,1.82,0,0,1-.52.55,2.6,2.6,0,0,1-.76.32,3.76,3.76,0,0,1-.9.1A3.49,3.49,0,0,1,386.18,176.47Z" fill="#1e1e1e"/>
      <path d="M396.46,173.92h-4.24a2.19,2.19,0,0,0,.54,1.55,1.85,1.85,0,0,0,1.42.54,3,3,0,0,0,1.86-.66v.9a3.52,3.52,0,0,1-2.09.57,2.54,2.54,0,0,1-2-.81,3.34,3.34,0,0,1-.73-2.3,3.29,3.29,0,0,1,.8-2.29,2.56,2.56,0,0,1,2-.88,2.28,2.28,0,0,1,1.82.76,3.2,3.2,0,0,1,.65,2.12Zm-1-.81a2,2,0,0,0-.4-1.3,1.36,1.36,0,0,0-1.1-.46,1.52,1.52,0,0,0-1.15.49,2.13,2.13,0,0,0-.59,1.27Z" fill="#1e1e1e"/>
    </g>
    <g>
      <path d="M430.46,136.2H426.1v-8.4h1v7.51h3.37Z" fill="#1e1e1e"/>
      <path d="M434.13,136.34a2.79,2.79,0,0,1-2.13-.84,3.15,3.15,0,0,1-.79-2.23,3.25,3.25,0,0,1,.83-2.36,3,3,0,0,1,2.23-.85,2.69,2.69,0,0,1,2.09.83,3.75,3.75,0,0,1-.05,4.59A2.88,2.88,0,0,1,434.13,136.34Zm.07-5.47a1.84,1.84,0,0,0-1.47.63,2.64,2.64,0,0,0-.53,1.74,2.46,2.46,0,0,0,.54,1.68,1.85,1.85,0,0,0,1.46.61,1.75,1.75,0,0,0,1.43-.6,2.58,2.58,0,0,0,.5-1.72,2.61,2.61,0,0,0-.5-1.73A1.73,1.73,0,0,0,434.2,130.87Z" fill="#1e1e1e"/>
      <path d="M442.74,135.93a3.19,3.19,0,0,1-1.64.41,2.75,2.75,0,0,1-2.07-.83,3,3,0,0,1-.79-2.17,3.35,3.35,0,0,1,.85-2.38,3,3,0,0,1,2.27-.9,3.2,3.2,0,0,1,1.39.29v1a2.45,2.45,0,0,0-1.43-.47,1.91,1.91,0,0,0-1.5.66,2.46,2.46,0,0,0-.59,1.73,2.36,2.36,0,0,0,.55,1.66,1.89,1.89,0,0,0,1.49.61,2.38,2.38,0,0,0,1.47-.52Z" fill="#1e1e1e"/>
      <path d="M448.49,136.2h-1v-.94h0a2,2,0,0,1-1.85,1.08,2,2,0,0,1-1.4-.47,1.65,1.65,0,0,1-.51-1.26c0-1.12.66-1.78,2-2l1.8-.25c0-1-.41-1.53-1.24-1.53a3,3,0,0,0-2,.74v-1a3.76,3.76,0,0,1,2-.56c1.41,0,2.11.75,2.11,2.24Zm-1-3-1.45.2a2.35,2.35,0,0,0-1,.33,1,1,0,0,0-.34.84.9.9,0,0,0,.32.71,1.19,1.19,0,0,0,.83.28,1.51,1.51,0,0,0,1.18-.5,1.78,1.78,0,0,0,.47-1.27Z" fill="#1e1e1e"/>
      <path d="M451.26,136.2h-1v-8.88h1Z" fill="#1e1e1e"/>
      <path d="M462.77,132.8q0,3.54-3.19,3.54t-3.06-3.4V127.8h1v5.07c0,1.73.73,2.59,2.18,2.59s2.11-.83,2.11-2.5V127.8h1Z" fill="#1e1e1e"/>
      <path d="M464.38,136v-1a2.79,2.79,0,0,0,1.72.58c.85,0,1.27-.28,1.27-.84a.76.76,0,0,0-.11-.41A1,1,0,0,0,467,134a2.28,2.28,0,0,0-.44-.24l-.53-.21a5.16,5.16,0,0,1-.7-.32,2.55,2.55,0,0,1-.51-.36,1.52,1.52,0,0,1-.3-.46,1.59,1.59,0,0,1-.1-.61,1.38,1.38,0,0,1,.19-.74,1.7,1.7,0,0,1,.52-.55,2.71,2.71,0,0,1,.73-.33,3.59,3.59,0,0,1,2.25.16v1a2.71,2.71,0,0,0-1.53-.43,1.8,1.8,0,0,0-.48.06,1.15,1.15,0,0,0-.37.17.76.76,0,0,0-.24.27.67.67,0,0,0-.09.34.82.82,0,0,0,.09.4.92.92,0,0,0,.25.28,2,2,0,0,0,.39.22l.54.22a6.85,6.85,0,0,1,.71.31,2.82,2.82,0,0,1,.54.36,1.41,1.41,0,0,1,.34.47,1.48,1.48,0,0,1,.12.63,1.49,1.49,0,0,1-.19.77,1.61,1.61,0,0,1-.53.54,2.32,2.32,0,0,1-.75.33,3.82,3.82,0,0,1-.9.1A3.34,3.34,0,0,1,464.38,136Z" fill="#1e1e1e"/>
      <path d="M474.13,136.2h-1v-.94h0a2.2,2.2,0,0,1-3.25.61,1.65,1.65,0,0,1-.51-1.26c0-1.12.66-1.78,2-2l1.79-.25q0-1.53-1.23-1.53a3,3,0,0,0-2,.74v-1a3.76,3.76,0,0,1,2-.56c1.41,0,2.12.75,2.12,2.24Zm-1-3-1.44.2a2.3,2.3,0,0,0-1,.33.93.93,0,0,0-.34.84.89.89,0,0,0,.31.71,1.2,1.2,0,0,0,.84.28,1.53,1.53,0,0,0,1.18-.5,1.77,1.77,0,0,0,.46-1.27Z" fill="#1e1e1e"/>
      <path d="M481.06,135.72c0,2.2-1.06,3.31-3.17,3.31a4.24,4.24,0,0,1-1.94-.43v-1a3.94,3.94,0,0,0,1.93.57c1.48,0,2.22-.79,2.22-2.36v-.66h0a2.42,2.42,0,0,1-3.86.35,3.17,3.17,0,0,1-.68-2.15,3.75,3.75,0,0,1,.73-2.43,2.46,2.46,0,0,1,2-.9,2,2,0,0,1,1.8,1h0v-.83h1Zm-1-2.23v-.89a1.73,1.73,0,0,0-.49-1.22,1.58,1.58,0,0,0-1.2-.51,1.66,1.66,0,0,0-1.4.65,2.91,2.91,0,0,0-.5,1.81,2.48,2.48,0,0,0,.48,1.6,1.57,1.57,0,0,0,1.28.6,1.69,1.69,0,0,0,1.32-.57A2.12,2.12,0,0,0,480.1,133.49Z" fill="#1e1e1e"/>
      <path d="M487.82,133.44h-4.23a2.19,2.19,0,0,0,.54,1.55,1.85,1.85,0,0,0,1.41.54,3,3,0,0,0,1.87-.66v.9a3.52,3.52,0,0,1-2.09.57,2.52,2.52,0,0,1-2-.82,3.81,3.81,0,0,1,.07-4.58,2.53,2.53,0,0,1,2-.88,2.25,2.25,0,0,1,1.82.76,3.19,3.19,0,0,1,.64,2.12Zm-1-.81a2,2,0,0,0-.4-1.3,1.37,1.37,0,0,0-1.1-.46,1.52,1.52,0,0,0-1.15.49,2.13,2.13,0,0,0-.59,1.27Z" fill="#1e1e1e"/>
      <path d="M432.61,149.4h-1.09l-.89-2.35h-3.57l-.84,2.35h-1.09l3.22-8.4h1Zm-2.31-3.24L429,142.58a3.61,3.61,0,0,1-.12-.56h0a3.36,3.36,0,0,1-.13.56l-1.31,3.58Z" fill="#1e1e1e"/>
      <path d="M434.83,146.23v3.17h-1V141h2.31a3,3,0,0,1,2.09.66,2.34,2.34,0,0,1,.74,1.85,2.52,2.52,0,0,1-.82,2,3.15,3.15,0,0,1-2.23.77Zm0-4.34v3.44h1a2.28,2.28,0,0,0,1.55-.46,1.65,1.65,0,0,0,.54-1.32c0-1.11-.66-1.66-2-1.66Z" fill="#1e1e1e"/>
      <path d="M441.55,149.4h-1V141h1Z" fill="#1e1e1e"/>
      <path d="M443.26,149.18v-1a2.84,2.84,0,0,0,1.73.58c.85,0,1.27-.28,1.27-.84a.76.76,0,0,0-.11-.41,1,1,0,0,0-.29-.29,1.83,1.83,0,0,0-.44-.23l-.53-.22a5.16,5.16,0,0,1-.7-.32,2.55,2.55,0,0,1-.51-.36,1.52,1.52,0,0,1-.3-.46,1.57,1.57,0,0,1-.1-.6,1.39,1.39,0,0,1,.19-.75,1.78,1.78,0,0,1,.51-.55,2.77,2.77,0,0,1,.74-.33,3.59,3.59,0,0,1,2.25.16v1a2.71,2.71,0,0,0-1.53-.43,1.75,1.75,0,0,0-.48.06,1.33,1.33,0,0,0-.38.17,1,1,0,0,0-.24.27.77.77,0,0,0-.08.34,1,1,0,0,0,.08.4,1.07,1.07,0,0,0,.25.28,2.48,2.48,0,0,0,.4.22l.54.22a6.85,6.85,0,0,1,.71.31,2.82,2.82,0,0,1,.54.36,1.41,1.41,0,0,1,.34.47,1.48,1.48,0,0,1,.12.63,1.49,1.49,0,0,1-.19.77,1.61,1.61,0,0,1-.53.54,2.32,2.32,0,0,1-.75.33,3.82,3.82,0,0,1-.9.1A3.41,3.41,0,0,1,443.26,149.18Z" fill="#1e1e1e"/>
    </g>
    <g>
      <path d="M148.5,138.17q0,3.54-3.19,3.54t-3.06-3.41v-5.14h1v5.08c0,1.72.73,2.58,2.18,2.58s2.11-.83,2.11-2.49v-5.17h1Z" fill="#1e1e1e"/>
      <path d="M150.11,141.35v-1a2.88,2.88,0,0,0,1.73.58c.84,0,1.26-.28,1.26-.85a.65.65,0,0,0-.11-.4,1.17,1.17,0,0,0-.29-.3,2.18,2.18,0,0,0-.43-.23l-.54-.21c-.27-.11-.5-.22-.7-.32a2,2,0,0,1-.5-.37,1.29,1.29,0,0,1-.31-.46,1.57,1.57,0,0,1-.1-.6,1.44,1.44,0,0,1,.19-.75,1.67,1.67,0,0,1,.52-.54,2.21,2.21,0,0,1,.73-.33,3.08,3.08,0,0,1,.86-.12,3.41,3.41,0,0,1,1.39.27v1a2.71,2.71,0,0,0-1.52-.44,1.88,1.88,0,0,0-.49.06,1.28,1.28,0,0,0-.37.18.85.85,0,0,0-.24.26.7.7,0,0,0-.09.35.8.8,0,0,0,.09.39.83.83,0,0,0,.25.28,1.67,1.67,0,0,0,.4.22l.53.22c.26.1.5.21.71.31a2.44,2.44,0,0,1,.54.37,1.41,1.41,0,0,1,.35.46,1.54,1.54,0,0,1,.12.63,1.47,1.47,0,0,1-.2.77,1.82,1.82,0,0,1-.52.55,2.6,2.6,0,0,1-.76.32,3.76,3.76,0,0,1-.9.11A3.37,3.37,0,0,1,150.11,141.35Z" fill="#1e1e1e"/>
      <path d="M159.86,141.57h-1v-.94h0a2,2,0,0,1-1.84,1.08,2,2,0,0,1-1.41-.48,1.65,1.65,0,0,1-.5-1.26c0-1.12.66-1.77,2-2l1.8-.25c0-1-.42-1.53-1.24-1.53a3,3,0,0,0-2,.74v-1a3.68,3.68,0,0,1,2-.57c1.41,0,2.12.75,2.12,2.24Zm-1-3-1.45.2a2.3,2.3,0,0,0-1,.33,1,1,0,0,0-.34.84.93.93,0,0,0,.32.72,1.21,1.21,0,0,0,.83.28,1.55,1.55,0,0,0,1.18-.5,1.81,1.81,0,0,0,.47-1.27Z" fill="#1e1e1e"/>
      <path d="M166.79,141.08c0,2.21-1.06,3.31-3.16,3.31a4.25,4.25,0,0,1-1.95-.42v-1a4.06,4.06,0,0,0,1.93.56c1.48,0,2.22-.79,2.22-2.36v-.65h0a2.25,2.25,0,0,1-2.06,1.15,2.27,2.27,0,0,1-1.8-.8,3.24,3.24,0,0,1-.68-2.15,3.73,3.73,0,0,1,.73-2.43,2.47,2.47,0,0,1,2-.91,2,2,0,0,1,1.79,1h0v-.83h1Zm-1-2.23V138a1.7,1.7,0,0,0-.49-1.23,1.58,1.58,0,0,0-1.2-.51,1.66,1.66,0,0,0-1.39.65,2.87,2.87,0,0,0-.51,1.81,2.46,2.46,0,0,0,.49,1.61,1.55,1.55,0,0,0,1.28.6,1.66,1.66,0,0,0,1.31-.58A2.12,2.12,0,0,0,165.83,138.85Z" fill="#1e1e1e"/>
      <path d="M173.56,138.81h-4.24a2.27,2.27,0,0,0,.54,1.54,1.84,1.84,0,0,0,1.42.55,3,3,0,0,0,1.86-.67v.9a3.5,3.5,0,0,1-2.09.58,2.56,2.56,0,0,1-2-.82,3.37,3.37,0,0,1-.73-2.3,3.27,3.27,0,0,1,.8-2.28,2.54,2.54,0,0,1,2-.89,2.24,2.24,0,0,1,1.82.77,3.15,3.15,0,0,1,.65,2.11Zm-1-.82a1.93,1.93,0,0,0-.4-1.29,1.36,1.36,0,0,0-1.1-.47,1.56,1.56,0,0,0-1.15.49,2.22,2.22,0,0,0-.59,1.27Z" fill="#1e1e1e"/>
      <path d="M178,141.23v-1.16a2.83,2.83,0,0,0,.48.31,3.83,3.83,0,0,0,.59.24c.2.06.41.11.61.15a4.13,4.13,0,0,0,.58,0,2.24,2.24,0,0,0,1.36-.34,1.27,1.27,0,0,0,.29-1.56,1.6,1.6,0,0,0-.41-.46,3.91,3.91,0,0,0-.62-.4l-.78-.4c-.29-.15-.57-.3-.82-.45a3.81,3.81,0,0,1-.66-.5,1.94,1.94,0,0,1-.44-.63,1.86,1.86,0,0,1-.17-.81,1.88,1.88,0,0,1,.26-1,2,2,0,0,1,.66-.7,2.8,2.8,0,0,1,.93-.41A4.3,4.3,0,0,1,181,133a4.08,4.08,0,0,1,1.81.3v1.11a3.22,3.22,0,0,0-1.91-.52,3.48,3.48,0,0,0-.64.07,2,2,0,0,0-.58.22,1.38,1.38,0,0,0-.41.39,1.1,1.1,0,0,0-.15.59,1.25,1.25,0,0,0,.12.56,1.35,1.35,0,0,0,.35.42,3.76,3.76,0,0,0,.57.38l.78.4a7.72,7.72,0,0,1,.85.47,3.59,3.59,0,0,1,.71.54,2.36,2.36,0,0,1,.49.66,1.84,1.84,0,0,1,.18.83,2.16,2.16,0,0,1-.25,1.06,2.07,2.07,0,0,1-.65.7,2.94,2.94,0,0,1-1,.39,5.15,5.15,0,0,1-1.13.12,3.31,3.31,0,0,1-.5,0l-.59-.09a4.45,4.45,0,0,1-.58-.15A2,2,0,0,1,178,141.23Z" fill="#1e1e1e"/>
      <path d="M189.49,138.81h-4.23a2.18,2.18,0,0,0,.54,1.54,1.82,1.82,0,0,0,1.41.55,3,3,0,0,0,1.87-.67v.9a3.52,3.52,0,0,1-2.09.58,2.55,2.55,0,0,1-2-.82,3.33,3.33,0,0,1-.73-2.3,3.27,3.27,0,0,1,.8-2.28,2.52,2.52,0,0,1,2-.89,2.26,2.26,0,0,1,1.82.77,3.15,3.15,0,0,1,.64,2.11Zm-1-.82a1.93,1.93,0,0,0-.4-1.29,1.38,1.38,0,0,0-1.1-.47,1.56,1.56,0,0,0-1.15.49,2.16,2.16,0,0,0-.59,1.27Z" fill="#1e1e1e"/>
      <path d="M194.08,136.54a1.18,1.18,0,0,0-.73-.2,1.25,1.25,0,0,0-1,.58,2.75,2.75,0,0,0-.41,1.59v3.06h-1v-6h1v1.23h0a2.17,2.17,0,0,1,.63-1,1.44,1.44,0,0,1,.94-.35,1.75,1.75,0,0,1,.58.08Z" fill="#1e1e1e"/>
      <path d="M199.84,135.57l-2.39,6h-.95l-2.27-6h1.05l1.53,4.35a4.45,4.45,0,0,1,.21.84h0a3.7,3.7,0,0,1,.19-.81l1.59-4.38Z" fill="#1e1e1e"/>
      <path d="M201.36,134a.64.64,0,0,1-.44-.17.65.65,0,0,1,0-.9.6.6,0,0,1,.44-.18.63.63,0,0,1,.45.18.61.61,0,0,1,.18.45.6.6,0,0,1-.18.44A.63.63,0,0,1,201.36,134Zm.47,7.53h-1v-6h1Z" fill="#1e1e1e"/>
      <path d="M207.86,141.29a3.08,3.08,0,0,1-1.64.42,2.72,2.72,0,0,1-2.07-.84,3.06,3.06,0,0,1-.79-2.16,3.37,3.37,0,0,1,.85-2.39,3,3,0,0,1,2.27-.9,3.13,3.13,0,0,1,1.4.3v1a2.49,2.49,0,0,0-1.43-.47,1.92,1.92,0,0,0-1.51.66,2.47,2.47,0,0,0-.59,1.73,2.39,2.39,0,0,0,.55,1.67,1.94,1.94,0,0,0,1.49.61,2.44,2.44,0,0,0,1.47-.52Z" fill="#1e1e1e"/>
      <path d="M214.14,138.81H209.9a2.27,2.27,0,0,0,.54,1.54,1.85,1.85,0,0,0,1.42.55,3,3,0,0,0,1.86-.67v.9a3.48,3.48,0,0,1-2.09.58,2.56,2.56,0,0,1-2-.82,3.37,3.37,0,0,1-.72-2.3,3.26,3.26,0,0,1,.79-2.28,2.55,2.55,0,0,1,2-.89,2.24,2.24,0,0,1,1.82.77,3.15,3.15,0,0,1,.65,2.11Zm-1-.82a1.88,1.88,0,0,0-.4-1.29,1.36,1.36,0,0,0-1.1-.47,1.57,1.57,0,0,0-1.15.49,2.22,2.22,0,0,0-.59,1.27Z" fill="#1e1e1e"/>
    </g>
    <g>
      <path d="M45.31,230.2H43.25l-.6-1.87h-3l-.59,1.87H37l3.06-8.4h2.24Zm-3.09-3.32-.91-2.83a4.38,4.38,0,0,1-.14-.75h0A3.16,3.16,0,0,1,41,224l-.91,2.85Z" fill="#1e1e1e"/>
      <path d="M50.93,230.2H45.54v-.77l3-3.86H45.84V224.2h5.07v.92l-2.86,3.72h2.88Z" fill="#1e1e1e"/>
      <path d="M57.63,230.2H55.78v-.91h0a2.11,2.11,0,0,1-1.83,1.06c-1.39,0-2.09-.84-2.09-2.53V224.2h1.85v3.46c0,.85.33,1.27,1,1.27a1,1,0,0,0,.79-.35,1.41,1.41,0,0,0,.3-1V224.2h1.85Z" fill="#1e1e1e"/>
      <path d="M63.1,225.87a1.61,1.61,0,0,0-.78-.18,1.12,1.12,0,0,0-.94.44,1.93,1.93,0,0,0-.34,1.21v2.86H59.19v-6H61v1.11h0a1.59,1.59,0,0,1,1.58-1.21,1.14,1.14,0,0,1,.46.07Z" fill="#1e1e1e"/>
      <path d="M69.3,227.73H65.39c.06.87.61,1.31,1.65,1.31a3.24,3.24,0,0,0,1.74-.47v1.33a4.56,4.56,0,0,1-2.16.45,2.8,2.8,0,0,1-3.06-3.06,3.23,3.23,0,0,1,.86-2.36,2.91,2.91,0,0,1,2.14-.88,2.63,2.63,0,0,1,2,.78A3,3,0,0,1,69.3,227Zm-1.71-1.14q0-1.29-1-1.29a1,1,0,0,0-.77.37,1.75,1.75,0,0,0-.39.92Z" fill="#1e1e1e"/>
      <path d="M73.51,229.88V228a3.68,3.68,0,0,0,1.11.65,3.63,3.63,0,0,0,1.21.21,2.35,2.35,0,0,0,.62-.07,1.57,1.57,0,0,0,.45-.17,1,1,0,0,0,.26-.27.69.69,0,0,0,.09-.34.77.77,0,0,0-.14-.44,1.47,1.47,0,0,0-.38-.36,4.45,4.45,0,0,0-.58-.31c-.22-.11-.46-.21-.72-.31a3.66,3.66,0,0,1-1.47-1,2.19,2.19,0,0,1-.48-1.43,2.21,2.21,0,0,1,.26-1.12,2.25,2.25,0,0,1,.72-.78,3.33,3.33,0,0,1,1.05-.45,5.75,5.75,0,0,1,1.27-.14,6.81,6.81,0,0,1,1.16.08,4.22,4.22,0,0,1,.93.24v1.75a2.9,2.9,0,0,0-.46-.26,3.82,3.82,0,0,0-.51-.18c-.18,0-.35-.08-.52-.11l-.5,0a2.74,2.74,0,0,0-.59.06,1.62,1.62,0,0,0-.44.17.81.81,0,0,0-.28.27.6.6,0,0,0-.1.35.67.67,0,0,0,.11.37,1.08,1.08,0,0,0,.32.32,2.76,2.76,0,0,0,.49.29c.2.1.42.2.67.3a7.55,7.55,0,0,1,.9.45,3.15,3.15,0,0,1,.69.53,2.08,2.08,0,0,1,.44.69,2.4,2.4,0,0,1,.15.89A2.48,2.48,0,0,1,79,229a2.08,2.08,0,0,1-.73.77,3.15,3.15,0,0,1-1.06.43,6.61,6.61,0,0,1-1.28.13,7,7,0,0,1-1.32-.12A4,4,0,0,1,73.51,229.88Z" fill="#1e1e1e"/>
      <path d="M83.77,230.13a2.62,2.62,0,0,1-1.23.22c-1.31,0-2-.68-2-2v-2.74h-1V224.2h1v-1.29l1.84-.53v1.82h1.35v1.37H82.42V228c0,.63.25.94.75.94a1.31,1.31,0,0,0,.6-.17Z" fill="#1e1e1e"/>
      <path d="M89.81,230.2H88.05v-.86h0a2,2,0,0,1-1.79,1,1.86,1.86,0,0,1-1.37-.5,1.79,1.79,0,0,1-.5-1.32q0-1.74,2.07-2l1.63-.22c0-.66-.36-1-1.07-1a3.72,3.72,0,0,0-2,.64v-1.39a4.67,4.67,0,0,1,1.06-.35,5.69,5.69,0,0,1,1.22-.16,2.27,2.27,0,0,1,2.57,2.57Zm-1.74-2.44v-.4L87,227.5c-.6.08-.91.35-.91.81a.68.68,0,0,0,.22.52.84.84,0,0,0,.6.21,1.07,1.07,0,0,0,.85-.37A1.29,1.29,0,0,0,88.07,227.76Z" fill="#1e1e1e"/>
      <path d="M95.82,230a3.57,3.57,0,0,1-1.81.37,3.06,3.06,0,0,1-2.24-.84,2.9,2.9,0,0,1-.86-2.16,3.18,3.18,0,0,1,.92-2.41,3.38,3.38,0,0,1,2.45-.89,3.13,3.13,0,0,1,1.54.29v1.57a2.13,2.13,0,0,0-1.3-.44,1.71,1.71,0,0,0-1.26.47,1.74,1.74,0,0,0-.47,1.28,1.72,1.72,0,0,0,.45,1.26,1.65,1.65,0,0,0,1.22.45,2.43,2.43,0,0,0,1.36-.43Z" fill="#1e1e1e"/>
      <path d="M103,230.2h-2.22l-1.91-3h0v3H97v-8.88h1.85V227h0l1.78-2.77h2.2L100.74,227Z" fill="#1e1e1e"/>
      <path d="M114.5,230.2h-1.89v-3.42h-3.48v3.42h-1.9v-8.4h1.9v3.35h3.48V221.8h1.89Z" fill="#1e1e1e"/>
      <path d="M122,230.2H120.1v-.91h0a2.11,2.11,0,0,1-1.83,1.06c-1.39,0-2.09-.84-2.09-2.53V224.2H118v3.46c0,.85.33,1.27,1,1.27a1,1,0,0,0,.8-.35,1.41,1.41,0,0,0,.3-1V224.2H122Z" fill="#1e1e1e"/>
      <path d="M125.38,229.5h0v.7H123.5v-8.88h1.86v3.78h0a2.2,2.2,0,0,1,2-1,2.16,2.16,0,0,1,1.79.8,3.43,3.43,0,0,1,.62,2.18,3.72,3.72,0,0,1-.73,2.41,2.41,2.41,0,0,1-2,.91A1.88,1.88,0,0,1,125.38,229.5Zm0-2.53v.62a1.44,1.44,0,0,0,.33,1,1.1,1.1,0,0,0,.86.38,1.14,1.14,0,0,0,1-.49,2.4,2.4,0,0,0,.35-1.39,1.9,1.9,0,0,0-.32-1.16,1.09,1.09,0,0,0-.91-.42,1.18,1.18,0,0,0-.93.42A1.6,1.6,0,0,0,125.33,227Z" fill="#1e1e1e"/>
      <path d="M141.49,230.2h-2.18L138,228l-.29-.44a2.39,2.39,0,0,0-.27-.33,1.28,1.28,0,0,0-.28-.21.73.73,0,0,0-.33-.08h-.51v3.22h-1.89v-8.4h3q3.06,0,3.06,2.28a2.39,2.39,0,0,1-.14.82,2.47,2.47,0,0,1-.38.67,2.24,2.24,0,0,1-.59.51,3,3,0,0,1-.78.34v0a1,1,0,0,1,.36.19,2.36,2.36,0,0,1,.34.3c.11.12.22.25.32.38s.19.27.27.4Zm-5.16-7v2.33h.82a1.34,1.34,0,0,0,1-.35,1.16,1.16,0,0,0,.37-.88c0-.74-.44-1.1-1.31-1.1Z" fill="#1e1e1e"/>
      <path d="M144.16,227.31v2.89h-1.89v-8.4h3c2.11,0,3.17.89,3.17,2.68a2.55,2.55,0,0,1-.91,2,3.57,3.57,0,0,1-2.43.79Zm0-4.06v2.62h.75c1,0,1.51-.44,1.51-1.32s-.5-1.3-1.51-1.3Z" fill="#1e1e1e"/>
      <path d="M149.07,230v-1.5a3.66,3.66,0,0,0,.91.41,3,3,0,0,0,.86.14,1.79,1.79,0,0,0,.77-.14.43.43,0,0,0,.29-.41.37.37,0,0,0-.13-.29,1.33,1.33,0,0,0-.33-.21,4.53,4.53,0,0,0-.44-.15l-.47-.16a4.68,4.68,0,0,1-.63-.29,2.09,2.09,0,0,1-.45-.36,1.29,1.29,0,0,1-.28-.48,1.76,1.76,0,0,1-.1-.64,1.6,1.6,0,0,1,.22-.86,1.84,1.84,0,0,1,.58-.6,3.15,3.15,0,0,1,.84-.34,4.53,4.53,0,0,1,1-.11,5.54,5.54,0,0,1,.81.07,7.27,7.27,0,0,1,.81.17v1.43a3.09,3.09,0,0,0-.75-.3,3.13,3.13,0,0,0-.79-.11,1.76,1.76,0,0,0-.34,0,1.1,1.1,0,0,0-.29.09.49.49,0,0,0-.19.16.34.34,0,0,0-.07.22.4.4,0,0,0,.1.28.84.84,0,0,0,.28.2,1.88,1.88,0,0,0,.38.15l.41.14a6.16,6.16,0,0,1,.67.28,1.94,1.94,0,0,1,.51.36,1.58,1.58,0,0,1,.33.48,1.63,1.63,0,0,1,.11.66,1.67,1.67,0,0,1-.23.91,1.78,1.78,0,0,1-.61.61,2.72,2.72,0,0,1-.89.35,5,5,0,0,1-1,.11A5.17,5.17,0,0,1,149.07,230Z" fill="#1e1e1e"/>
    </g>
    <g>
      <path d="M304.1,33V24.6h2.39a2.65,2.65,0,0,1,1.73.53,1.72,1.72,0,0,1,.64,1.39,2,2,0,0,1-.39,1.24,2.11,2.11,0,0,1-1.06.75v0a2.13,2.13,0,0,1,1.36.64,2,2,0,0,1,.51,1.41,2.18,2.18,0,0,1-.78,1.74,2.84,2.84,0,0,1-1.95.67Zm1-7.51V28.2h1a1.94,1.94,0,0,0,1.28-.39,1.37,1.37,0,0,0,.46-1.1c0-.81-.54-1.22-1.61-1.22Zm0,3.6v3h1.33a2,2,0,0,0,1.35-.41,1.43,1.43,0,0,0,.47-1.13c0-1-.67-1.48-2-1.48Z" fill="#1e1e1e"/>
      <path d="M311.34,25.48a.62.62,0,0,1-.44-.18.59.59,0,0,1-.18-.44.61.61,0,0,1,.18-.45.62.62,0,0,1,.44-.18.61.61,0,0,1,.45.18.58.58,0,0,1,.19.45.56.56,0,0,1-.19.43A.58.58,0,0,1,311.34,25.48Zm.47,7.52h-1V27h1Z" fill="#1e1e1e"/>
      <path d="M314.72,33h-1V24.12h1Z" fill="#1e1e1e"/>
      <path d="M317.63,33h-1V24.12h1Z" fill="#1e1e1e"/>
      <path d="M320.06,25.48a.6.6,0,0,1-.44-.18.59.59,0,0,1-.18-.44.61.61,0,0,1,.18-.45.6.6,0,0,1,.44-.18.61.61,0,0,1,.45.18.62.62,0,0,1,.19.45.59.59,0,0,1-.19.43A.58.58,0,0,1,320.06,25.48Zm.47,7.52h-1V27h1Z" fill="#1e1e1e"/>
      <path d="M327.46,33h-1V29.58c0-1.28-.47-1.91-1.4-1.91a1.5,1.5,0,0,0-1.19.54,2,2,0,0,0-.47,1.37V33h-1V27h1v1h0a2.16,2.16,0,0,1,2-1.14,1.83,1.83,0,0,1,1.51.64,2.85,2.85,0,0,1,.52,1.83Z" fill="#1e1e1e"/>
      <path d="M334.39,32.52q0,3.3-3.17,3.3a4.23,4.23,0,0,1-1.94-.42v-1a4,4,0,0,0,1.93.56c1.48,0,2.22-.78,2.22-2.35V32h0a2.23,2.23,0,0,1-2.06,1.15,2.27,2.27,0,0,1-1.8-.8,3.17,3.17,0,0,1-.68-2.15,3.73,3.73,0,0,1,.73-2.43,2.46,2.46,0,0,1,2-.9,2,2,0,0,1,1.79,1h0V27h1Zm-1-2.23V29.4a1.69,1.69,0,0,0-.49-1.22,1.58,1.58,0,0,0-1.2-.51,1.64,1.64,0,0,0-1.39.65,2.85,2.85,0,0,0-.51,1.81,2.43,2.43,0,0,0,.49,1.6,1.55,1.55,0,0,0,1.28.6,1.68,1.68,0,0,0,1.31-.57A2.14,2.14,0,0,0,333.43,30.29Z" fill="#1e1e1e"/>
      <path d="M340.61,32.13h0v3.63h-1V27h1v1.05h0a2.27,2.27,0,0,1,2.07-1.19,2.19,2.19,0,0,1,1.81.81,3.32,3.32,0,0,1,.65,2.15,3.73,3.73,0,0,1-.73,2.42,2.46,2.46,0,0,1-2,.9A2,2,0,0,1,340.61,32.13Zm0-2.42v.84a1.73,1.73,0,0,0,.49,1.26,1.71,1.71,0,0,0,2.59-.15,3,3,0,0,0,.5-1.85,2.41,2.41,0,0,0-.47-1.57,1.52,1.52,0,0,0-1.25-.57,1.7,1.7,0,0,0-1.35.58A2.15,2.15,0,0,0,340.58,29.71Z" fill="#1e1e1e"/>
      <path d="M349.18,33.14a2.79,2.79,0,0,1-2.12-.84,3.1,3.1,0,0,1-.79-2.23,3.24,3.24,0,0,1,.82-2.36,3,3,0,0,1,2.23-.85,2.66,2.66,0,0,1,2.1.83,3.27,3.27,0,0,1,.75,2.29,3.25,3.25,0,0,1-.81,2.3A2.87,2.87,0,0,1,349.18,33.14Zm.07-5.47a1.83,1.83,0,0,0-1.46.63,2.59,2.59,0,0,0-.54,1.74,2.46,2.46,0,0,0,.54,1.68,1.86,1.86,0,0,0,1.46.61,1.77,1.77,0,0,0,1.44-.6,2.65,2.65,0,0,0,.5-1.72,2.66,2.66,0,0,0-.5-1.73A1.75,1.75,0,0,0,349.25,27.67Z" fill="#1e1e1e"/>
      <path d="M356.84,28a1.18,1.18,0,0,0-.73-.19,1.23,1.23,0,0,0-1,.58,2.72,2.72,0,0,0-.41,1.58V33h-1V27h1v1.24h0a2.12,2.12,0,0,1,.63-1,1.4,1.4,0,0,1,.94-.36,1.5,1.5,0,0,1,.58.09Z" fill="#1e1e1e"/>
      <path d="M360.66,32.94a1.76,1.76,0,0,1-.89.19c-1.06,0-1.58-.59-1.58-1.76V27.82h-1V27h1V25.54l1-.32V27h1.51v.82h-1.51V31.2a1.37,1.37,0,0,0,.21.86.81.81,0,0,0,.68.26,1,1,0,0,0,.62-.2Z" fill="#1e1e1e"/>
      <path d="M366.24,33h-1v-.94h0a2,2,0,0,1-1.85,1.08,2,2,0,0,1-1.4-.47,1.65,1.65,0,0,1-.51-1.26c0-1.12.66-1.78,2-2l1.8-.25c0-1-.41-1.53-1.24-1.53a2.9,2.9,0,0,0-2,.74v-1a3.76,3.76,0,0,1,2-.56c1.41,0,2.11.75,2.11,2.24Zm-1-3-1.45.2a2.48,2.48,0,0,0-1,.34,1,1,0,0,0-.34.84.9.9,0,0,0,.32.71,1.19,1.19,0,0,0,.83.28,1.51,1.51,0,0,0,1.18-.5,1.8,1.8,0,0,0,.47-1.27Z" fill="#1e1e1e"/>
      <path d="M369,33h-1V24.12h1Z" fill="#1e1e1e"/>
      <path d="M310.61,50h-1.09l-.89-2.36h-3.57L304.22,50h-1.09l3.22-8.4h1Zm-2.31-3.24L307,43.18a3.61,3.61,0,0,1-.12-.56h0a3.36,3.36,0,0,1-.13.56l-1.31,3.58Z" fill="#1e1e1e"/>
      <path d="M315.9,44.28l-3.55,4.9h3.51V50h-4.93v-.3l3.55-4.88h-3.21V44h4.63Z" fill="#1e1e1e"/>
      <path d="M322,50h-1v-1h0a2,2,0,0,1-1.86,1.09c-1.43,0-2.14-.85-2.14-2.55V44H318v3.43c0,1.27.49,1.9,1.46,1.9a1.47,1.47,0,0,0,1.16-.52,2,2,0,0,0,.45-1.35V44h1Z" fill="#1e1e1e"/>
      <path d="M327.06,45a1.18,1.18,0,0,0-.73-.19,1.23,1.23,0,0,0-1,.58,2.72,2.72,0,0,0-.41,1.58V50h-1V44h1v1.24h0a2.12,2.12,0,0,1,.63-1,1.42,1.42,0,0,1,.94-.36,1.46,1.46,0,0,1,.58.09Z" fill="#1e1e1e"/>
      <path d="M332.92,47.24h-4.23a2.21,2.21,0,0,0,.54,1.55,1.85,1.85,0,0,0,1.41.54,2.94,2.94,0,0,0,1.87-.67v.91a3.52,3.52,0,0,1-2.09.57,2.52,2.52,0,0,1-2-.82,3.81,3.81,0,0,1,.07-4.58,2.51,2.51,0,0,1,2-.88,2.25,2.25,0,0,1,1.82.76,3.18,3.18,0,0,1,.64,2.12Zm-1-.81a2,2,0,0,0-.4-1.3,1.37,1.37,0,0,0-1.1-.46,1.55,1.55,0,0,0-1.15.48,2.19,2.19,0,0,0-.59,1.28Z" fill="#1e1e1e"/>
      <path d="M343.94,46.6q0,3.54-3.19,3.54t-3.06-3.4V41.6h1v5.07c0,1.72.73,2.59,2.18,2.59s2.11-.84,2.11-2.5V41.6h1Z" fill="#1e1e1e"/>
      <path d="M345.54,49.78v-1a2.84,2.84,0,0,0,1.73.58c.85,0,1.27-.28,1.27-.84a.76.76,0,0,0-.11-.41,1,1,0,0,0-.29-.29,2.28,2.28,0,0,0-.44-.24l-.53-.21a6.76,6.76,0,0,1-.7-.32,2.55,2.55,0,0,1-.51-.36,1.52,1.52,0,0,1-.3-.46,1.63,1.63,0,0,1-.1-.61,1.38,1.38,0,0,1,.19-.74,1.7,1.7,0,0,1,.52-.55A2.43,2.43,0,0,1,347,44a3.59,3.59,0,0,1,2.25.16v1a2.71,2.71,0,0,0-1.53-.43,1.75,1.75,0,0,0-.48.06,1.15,1.15,0,0,0-.37.17.76.76,0,0,0-.24.27.67.67,0,0,0-.09.34.75.75,0,0,0,.09.39.84.84,0,0,0,.25.29,2,2,0,0,0,.39.22l.54.22a6.85,6.85,0,0,1,.71.31,2.82,2.82,0,0,1,.54.36,1.41,1.41,0,0,1,.34.47,1.46,1.46,0,0,1,.12.62,1.5,1.5,0,0,1-.19.78,1.61,1.61,0,0,1-.53.54,2.55,2.55,0,0,1-.75.33,3.82,3.82,0,0,1-.9.1A3.41,3.41,0,0,1,345.54,49.78Z" fill="#1e1e1e"/>
      <path d="M355.29,50h-1v-.94h0a2.2,2.2,0,0,1-3.25.61,1.65,1.65,0,0,1-.51-1.26c0-1.12.66-1.78,2-2l1.79-.25q0-1.53-1.23-1.53a2.92,2.92,0,0,0-2,.74v-1a3.76,3.76,0,0,1,2-.56c1.41,0,2.11.75,2.11,2.24Zm-1-3-1.44.2a2.43,2.43,0,0,0-1,.34.93.93,0,0,0-.34.84.89.89,0,0,0,.31.71,1.2,1.2,0,0,0,.84.28,1.53,1.53,0,0,0,1.18-.5,1.79,1.79,0,0,0,.46-1.27Z" fill="#1e1e1e"/>
      <path d="M362.23,49.52q0,3.3-3.17,3.3a4.23,4.23,0,0,1-1.94-.42v-1a3.92,3.92,0,0,0,1.93.56c1.48,0,2.22-.78,2.22-2.35V49h0a2.42,2.42,0,0,1-3.86.35,3.17,3.17,0,0,1-.68-2.15,3.73,3.73,0,0,1,.73-2.43,2.46,2.46,0,0,1,2-.9,2,2,0,0,1,1.8,1h0V44h1Zm-1-2.23V46.4a1.73,1.73,0,0,0-.49-1.22,1.58,1.58,0,0,0-1.2-.51,1.66,1.66,0,0,0-1.4.65,2.91,2.91,0,0,0-.5,1.81,2.48,2.48,0,0,0,.48,1.6,1.57,1.57,0,0,0,1.28.6,1.69,1.69,0,0,0,1.32-.57A2.14,2.14,0,0,0,361.27,47.29Z" fill="#1e1e1e"/>
      <path d="M369,47.24h-4.23a2.21,2.21,0,0,0,.54,1.55,1.85,1.85,0,0,0,1.41.54,2.94,2.94,0,0,0,1.87-.67v.91a3.52,3.52,0,0,1-2.09.57,2.52,2.52,0,0,1-2-.82,3.81,3.81,0,0,1,.07-4.58,2.51,2.51,0,0,1,2-.88,2.25,2.25,0,0,1,1.82.76,3.18,3.18,0,0,1,.64,2.12Zm-1-.81a2,2,0,0,0-.4-1.3,1.37,1.37,0,0,0-1.1-.46,1.55,1.55,0,0,0-1.15.48,2.19,2.19,0,0,0-.59,1.28Z" fill="#1e1e1e"/>
      <path d="M380.37,50h-1.09l-.89-2.36h-3.57L374,50h-1.1l3.22-8.4h1Zm-2.31-3.24-1.31-3.58a2.59,2.59,0,0,1-.13-.56h0a3.36,3.36,0,0,1-.13.56l-1.31,3.58Z" fill="#1e1e1e"/>
      <path d="M382.59,46.82V50h-1V41.6h2.31a3.08,3.08,0,0,1,2.09.65,2.34,2.34,0,0,1,.74,1.86,2.54,2.54,0,0,1-.82,2,3.13,3.13,0,0,1-2.22.76Zm0-4.33v3.44h1a2.28,2.28,0,0,0,1.55-.46,1.65,1.65,0,0,0,.54-1.32c0-1.11-.66-1.66-2-1.66Z" fill="#1e1e1e"/>
      <path d="M389.31,50h-1V41.6h1Z" fill="#1e1e1e"/>
      <path d="M391,49.78v-1a2.81,2.81,0,0,0,1.72.58c.85,0,1.27-.28,1.27-.84a.76.76,0,0,0-.11-.41,1,1,0,0,0-.29-.29,2,2,0,0,0-.44-.24l-.53-.21A6.76,6.76,0,0,1,392,47a2.55,2.55,0,0,1-.51-.36,1.52,1.52,0,0,1-.3-.46,1.63,1.63,0,0,1-.1-.61,1.38,1.38,0,0,1,.19-.74,1.7,1.7,0,0,1,.52-.55,2.43,2.43,0,0,1,.73-.33,3.59,3.59,0,0,1,2.25.16v1a2.7,2.7,0,0,0-1.52-.43,1.83,1.83,0,0,0-.49.06,1.15,1.15,0,0,0-.37.17.76.76,0,0,0-.24.27.67.67,0,0,0-.09.34.75.75,0,0,0,.09.39.84.84,0,0,0,.25.29,2,2,0,0,0,.39.22l.54.22a6.85,6.85,0,0,1,.71.31,2.82,2.82,0,0,1,.54.36,1.41,1.41,0,0,1,.34.47,1.46,1.46,0,0,1,.12.62,1.5,1.5,0,0,1-.19.78,1.61,1.61,0,0,1-.53.54,2.55,2.55,0,0,1-.75.33,3.82,3.82,0,0,1-.9.1A3.34,3.34,0,0,1,391,49.78Z" fill="#1e1e1e"/>
    </g>
  </g>
</svg>
