<svg xmlns="http://www.w3.org/2000/svg" xmlns:xlink="http://www.w3.org/1999/xlink" viewBox="0 0 400.44 228.03">
  <defs>
    <linearGradient id="linear-gradient" x1="20.44" y1="278.46" x2="20.44" y2="248.62" gradientTransform="matrix(1, 0, 0, -1, 0, 456.92)" gradientUnits="userSpaceOnUse">
      <stop offset="0" stop-color="#5ea0ef"/>
      <stop offset="0.18" stop-color="#559cec"/>
      <stop offset="0.47" stop-color="#3c91e5"/>
      <stop offset="0.84" stop-color="#1380da"/>
      <stop offset="1" stop-color="#0078d4"/>
    </linearGradient>
    <linearGradient id="linear-gradient-2" x1="15.45" y1="248.3" x2="15.45" y2="262.76" gradientTransform="matrix(1, 0, 0, -1, 0, 456.92)" gradientUnits="userSpaceOnUse">
      <stop offset="0" stop-color="#198ab3"/>
      <stop offset="0.14" stop-color="#22a5cb"/>
      <stop offset="0.3" stop-color="#29bade"/>
      <stop offset="0.47" stop-color="#2ec9eb"/>
      <stop offset="0.68" stop-color="#31d1f3"/>
      <stop offset="1" stop-color="#32d4f5"/>
    </linearGradient>
    <linearGradient id="linear-gradient-3" x1="62.28" y1="60.46" x2="62.28" y2="77.46" gradientUnits="userSpaceOnUse">
      <stop offset="0" stop-color="#b3b3b3"/>
      <stop offset="0.47" stop-color="#a2a2a2"/>
      <stop offset="1" stop-color="#949494"/>
    </linearGradient>
    <linearGradient id="linear-gradient-4" x1="152.28" y1="60.46" x2="152.28" y2="77.46" xlink:href="#linear-gradient-3"/>
    <linearGradient id="linear-gradient-5" x1="107.28" y1="314.38" x2="107.28" y2="350.46" gradientTransform="matrix(1, 0, 0, -1, 0, 456.92)" gradientUnits="userSpaceOnUse">
      <stop offset="0" stop-color="#0078d4"/>
      <stop offset="0.82" stop-color="#5ea0ef"/>
    </linearGradient>
    <linearGradient id="linear-gradient-6" x1="107.28" y1="300.46" x2="107.28" y2="314.38" gradientTransform="matrix(1, 0, 0, -1, 0, 456.92)" gradientUnits="userSpaceOnUse">
      <stop offset="0.15" stop-color="#ccc"/>
      <stop offset="1" stop-color="#707070"/>
    </linearGradient>
    <symbol id="VHD_DataDisk" data-name="VHD_DataDisk" viewBox="0 0 29.12 40.33">
      <g id="paths">
        <g id="VHD_data_disk" data-name="VHD data disk">
          <g>
            <g>
              <circle cx="14.6" cy="15.4" r="1.7" fill="#0078d7"/>
              <circle cx="14.6" cy="18.4" r="0.6" fill="#0078d7"/>
              <circle cx="11.6" cy="15.4" r="0.6" fill="#0078d7"/>
              <path d="M12.1,17.1a.75.75,0,0,0,0,.9.76.76,0,0,0,.4.2.52.52,0,0,0,.4-.2.76.76,0,0,0,.2-.4.52.52,0,0,0-.2-.4A.53.53,0,0,0,12.1,17.1Z" fill="#0078d7"/>
              <path d="M12.5,13.9a.52.52,0,0,0,.4-.2.76.76,0,0,0,.2-.4.52.52,0,0,0-.2-.4.75.75,0,0,0-.9,0,.75.75,0,0,0,0,.9A.9.9,0,0,0,12.5,13.9Z" fill="#0078d7"/>
              <circle cx="5.1" cy="31.9" r="1.5" fill="#0078d7"/>
              <path d="M16.7,13.9a.52.52,0,0,0,.4-.2.76.76,0,0,0,.2-.4.52.52,0,0,0-.2-.4.75.75,0,0,0-.9,0,.75.75,0,0,0,0,.9A.9.9,0,0,0,16.7,13.9Z" fill="#0078d7"/>
              <circle cx="14.6" cy="12.4" r="0.6" fill="#0078d7"/>
              <path d="M15.8,27c-.4,0-.9.1-1.3.1a14.92,14.92,0,0,1-2.1-.2l1.1-2.1c0-.1,0-.1.1-.2a2,2,0,0,0,.2-1.1,2.78,2.78,0,0,0-2.7-2.8,3.18,3.18,0,0,0-2,.8L6.7,23.9a11.64,11.64,0,1,1,19.4-8.6,11.5,11.5,0,0,1-3,7.8h.1a10.77,10.77,0,0,1,5.9,1.5V1a1,1,0,0,0-1-1H.9A.92.92,0,0,0,0,1V36.1a1,1,0,0,0,.9,1H15.8V27ZM27.1,1a.79.79,0,0,1,.8.8.8.8,0,1,1-1.6,0A.79.79,0,0,1,27.1,1Zm-26,.8A.79.79,0,0,1,1.9,1a.86.86,0,0,1,.8.8.79.79,0,0,1-.8.8A.79.79,0,0,1,1.1,1.8ZM8,33.6H8a3.55,3.55,0,0,1-2.9,1.8A3.35,3.35,0,0,1,1.8,32a3.49,3.49,0,0,1,1-2.4l7.1-7.2a1.66,1.66,0,0,1,1.2-.5,1.75,1.75,0,0,1,1.7,1.7,2.35,2.35,0,0,1-.2.8h0L8,33.6Z" fill="#0078d7"/>
              <path d="M16.2,17.1a.75.75,0,0,0,0,.9.76.76,0,0,0,.4.2A.52.52,0,0,0,17,18a.76.76,0,0,0,.2-.4.52.52,0,0,0-.2-.4C16.9,16.9,16.5,16.9,16.2,17.1Z" fill="#0078d7"/>
              <path d="M14.5,9.9a5.5,5.5,0,0,0,0,11,5.5,5.5,0,0,0,0-11Zm.1,9.9a4.44,4.44,0,0,1-4.4-4.4A4.37,4.37,0,0,1,14.6,11,4.44,4.44,0,0,1,19,15.4,4.37,4.37,0,0,1,14.6,19.8Z" fill="#0078d7"/>
              <circle cx="17.5" cy="15.4" r="0.6" fill="#0078d7"/>
            </g>
            <g id="group989-2010">
              <g id="shape1003-2037">
                <path d="M23.32,24.93c-3.2,0-5.8,1.1-5.8,2.3V38c0,1.2,2.6,2.3,5.8,2.3s5.8-1.1,5.8-2.3V27.23C29.12,26.13,26.52,24.93,23.32,24.93Zm0,3.4c-2.3,0-4.1-.6-4.1-1.3s1.8-1.3,4.1-1.3,4.1.6,4.1,1.3S25.62,28.33,23.32,28.33Z" fill="#0078d7"/>
              </g>
            </g>
          </g>
        </g>
      </g>
    </symbol>
  </defs>
  <g id="Shapes">
    <rect width="400.44" height="228.03" fill="#fff"/>
    <line x1="195" y1="64.85" x2="230.41" y2="64.85" fill="none" stroke="#231f20" stroke-miterlimit="10"/>
    <line x1="195" y1="73.88" x2="230.41" y2="73.88" fill="none" stroke="#231f20" stroke-miterlimit="10"/>
    <g>
      <rect x="229.72" y="46.32" width="145" height="43.25" fill="#fff"/>
      <rect x="229.72" y="46.32" width="145" height="43.25" fill="#3c3c41" opacity="0.15"/>
    </g>
    <g>
      <rect x="19.78" y="81.46" width="175" height="110" fill="#fff"/>
      <rect x="19.78" y="81.46" width="175" height="110" fill="#0072c6" opacity="0.05"/>
      <rect x="19.78" y="81.46" width="175" height="110" fill="none" stroke="#0072c6" stroke-miterlimit="10" stroke-width="0.5" opacity="0.6"/>
    </g>
    <g id="b1186d34-5ca3-4e43-992d-40ecef5e891b">
      <g>
        <path d="M28.21,178.46H12.69a1,1,0,0,0-1,1v22.12a19,19,0,0,1,2.51-1.78h2.94L18.76,202v3.27l-2.05,1.49-2.85-.35-2.18-2.06v3a1,1,0,0,0,1,1H28.21a1,1,0,0,0,1-1V179.45A1,1,0,0,0,28.21,178.46Z" fill="url(#linear-gradient)"/>
        <path id="af47f827-8b1b-4acd-8974-8eafe35490c9" d="M14,181.56h2.85a.25.25,0,0,1,.25.25h0v3.68a.25.25,0,0,1-.25.25H14a.25.25,0,0,1-.25-.25h0v-3.68a.25.25,0,0,1,.25-.25Zm5,0h2.86a.25.25,0,0,1,.24.25h0v3.68a.25.25,0,0,1-.24.25H19a.25.25,0,0,1-.25-.25h0v-3.68a.25.25,0,0,1,.25-.25Zm5,0H26.9a.25.25,0,0,1,.25.25h0v3.68a.25.25,0,0,1-.25.25H24a.25.25,0,0,1-.24-.25h0v-3.68a.25.25,0,0,1,.24-.25Zm-10,6.66h2.85a.25.25,0,0,1,.25.25h0v3.72a.25.25,0,0,1-.25.25H14a.25.25,0,0,1-.25-.25h0v-3.68a.24.24,0,0,1,.21-.28Zm5,0h2.86a.25.25,0,0,1,.24.25h0v3.72a.25.25,0,0,1-.24.25H19a.25.25,0,0,1-.25-.25h0v-3.68a.25.25,0,0,1,.21-.28Zm5,0H26.9a.25.25,0,0,1,.25.25h0v3.72a.25.25,0,0,1-.25.25H24a.25.25,0,0,1-.24-.25h0v-3.68a.24.24,0,0,1,.21-.28ZM14,195h2.85a.25.25,0,0,1,.25.24h0v3.65a.25.25,0,0,1-.25.25H14a.25.25,0,0,1-.25-.25V195.2A.25.25,0,0,1,14,195Zm5,0h2.86a.24.24,0,0,1,.24.24h0v3.65a.25.25,0,0,1-.24.25H19a.25.25,0,0,1-.25-.25h0V195.2A.25.25,0,0,1,19,195Zm0,6.69h2.86a.25.25,0,0,1,.24.25h0v5.46a.25.25,0,0,1-.24.25H19a.25.25,0,0,1-.25-.25V201.9a.26.26,0,0,1,.25-.25ZM24,195H26.9a.25.25,0,0,1,.25.24h0v3.65a.25.25,0,0,1-.25.25H24a.25.25,0,0,1-.24-.25h0V195.2A.24.24,0,0,1,24,195Z" fill="#f2f2f2"/>
        <path d="M15.49,200.63a2.31,2.31,0,0,0-2.2,1.77h-8a5,5,0,0,0-.15,1.15v.11h8.12a2.28,2.28,0,1,0,2.2-3Z" fill="#50e6ff"/>
        <path d="M21.69,199.67a5.78,5.78,0,0,0-6-5.51A5.93,5.93,0,0,0,10,198a5.65,5.65,0,0,0-4.5,3.55h7.34a3,3,0,1,1-.05,2.6H5.3a5.67,5.67,0,0,0,5.63,4.29H21a4.65,4.65,0,0,0,4.6-4.29A4.6,4.6,0,0,0,21.69,199.67Z" fill="url(#linear-gradient-2)"/>
        <path d="M15.49,200.63a2.31,2.31,0,0,0-2.2,1.77h-8a4,4,0,0,1-.84-.11,4,4,0,0,1,.45-7.94h.39l.12-.35a4.54,4.54,0,0,1,4.36-3,4.69,4.69,0,0,1,4,2.25,5.38,5.38,0,0,1,1.33-.16,5.89,5.89,0,0,0-5.32-3.35,5.8,5.8,0,0,0-5.47,3.46A5.21,5.21,0,0,0,4,203.37H4a3.54,3.54,0,0,0,1.29.22h8a2.29,2.29,0,1,0,2.2-3Z" fill="#50e6ff"/>
      </g>
    </g>
    <g>
      <g>
        <g>
          <rect x="20.88" y="60.46" width="82.8" height="17" rx="2" fill="#fff"/>
          <rect x="20.88" y="60.46" width="82.8" height="17" rx="2" fill="url(#linear-gradient-3)"/>
          <path d="M101.68,61.46a1,1,0,0,1,1,1v13a1,1,0,0,1-1,1H22.88a1,1,0,0,1-1-1v-13a1,1,0,0,1,1-1h78.8m0-2H22.88a3,3,0,0,0-3,3v13a3,3,0,0,0,3,3h78.8a3,3,0,0,0,3-3v-13a3,3,0,0,0-3-3Z" fill="#e6e6e6"/>
        </g>
        <circle cx="82.77" cy="65.19" r="1.09" fill="#86d633"/>
        <circle cx="89.18" cy="65.19" r="1.09" fill="#ffca00"/>
        <circle cx="95.59" cy="65.19" r="1.09" fill="#b31b1b"/>
        <rect x="81.68" y="67.94" width="15" height="6.02" fill="#e6e6e6"/>
        <g>
          <polygon points="32.08 65.38 32.08 64.09 27.89 64.09 27.89 65.38 26.49 65.38 26.49 67.94 33.49 67.94 33.49 65.38 32.08 65.38" fill="#231f20"/>
          <polygon points="42.55 65.38 42.55 64.09 38.36 64.09 38.36 65.38 36.96 65.38 36.96 67.94 43.96 67.94 43.96 65.38 42.55 65.38" fill="#231f20"/>
          <polygon points="53.02 65.38 53.02 64.09 48.83 64.09 48.83 65.38 47.43 65.38 47.43 67.94 54.43 67.94 54.43 65.38 53.02 65.38" fill="#231f20"/>
          <polygon points="63.49 65.38 63.49 64.09 59.3 64.09 59.3 65.38 57.9 65.38 57.9 67.94 64.89 67.94 64.89 65.38 63.49 65.38" fill="#231f20"/>
          <polygon points="73.96 65.38 73.96 64.09 69.77 64.09 69.77 65.38 68.36 65.38 68.36 67.94 75.36 67.94 75.36 65.38 73.96 65.38" fill="#231f20"/>
        </g>
        <g>
          <polygon points="32.08 71.24 32.08 69.96 27.89 69.96 27.89 71.24 26.49 71.24 26.49 73.81 33.49 73.81 33.49 71.24 32.08 71.24" fill="#231f20"/>
          <polygon points="42.55 71.24 42.55 69.96 38.36 69.96 38.36 71.24 36.96 71.24 36.96 73.81 43.96 73.81 43.96 71.24 42.55 71.24" fill="#231f20"/>
          <polygon points="53.02 71.24 53.02 69.96 48.83 69.96 48.83 71.24 47.43 71.24 47.43 73.81 54.43 73.81 54.43 71.24 53.02 71.24" fill="#231f20"/>
          <polygon points="63.49 71.24 63.49 69.96 59.3 69.96 59.3 71.24 57.9 71.24 57.9 73.81 64.89 73.81 64.89 71.24 63.49 71.24" fill="#231f20"/>
          <polygon points="73.96 71.24 73.96 69.96 69.77 69.96 69.77 71.24 68.36 71.24 68.36 73.81 75.36 73.81 75.36 71.24 73.96 71.24" fill="#231f20"/>
        </g>
      </g>
      <g>
        <g>
          <rect x="110.88" y="60.46" width="82.8" height="17" rx="2" fill="#fff"/>
          <rect x="110.88" y="60.46" width="82.8" height="17" rx="2" fill="url(#linear-gradient-4)"/>
          <path d="M191.68,61.46a1,1,0,0,1,1,1v13a1,1,0,0,1-1,1h-78.8a1,1,0,0,1-1-1v-13a1,1,0,0,1,1-1h78.8m0-2h-78.8a3,3,0,0,0-3,3v13a3,3,0,0,0,3,3h78.8a3,3,0,0,0,3-3v-13a3,3,0,0,0-3-3Z" fill="#e6e6e6"/>
        </g>
        <circle cx="172.77" cy="65.19" r="1.09" fill="#86d633"/>
        <circle cx="179.18" cy="65.19" r="1.09" fill="#ffca00"/>
        <circle cx="185.59" cy="65.19" r="1.09" fill="#b31b1b"/>
        <rect x="171.68" y="67.94" width="15" height="6.02" fill="#e6e6e6"/>
        <g>
          <polygon points="122.08 65.38 122.08 64.09 117.89 64.09 117.89 65.38 116.49 65.38 116.49 67.94 123.49 67.94 123.49 65.38 122.08 65.38" fill="#231f20"/>
          <polygon points="132.55 65.38 132.55 64.09 128.36 64.09 128.36 65.38 126.96 65.38 126.96 67.94 133.96 67.94 133.96 65.38 132.55 65.38" fill="#231f20"/>
          <polygon points="143.02 65.38 143.02 64.09 138.83 64.09 138.83 65.38 137.43 65.38 137.43 67.94 144.43 67.94 144.43 65.38 143.02 65.38" fill="#231f20"/>
          <polygon points="153.49 65.38 153.49 64.09 149.3 64.09 149.3 65.38 147.9 65.38 147.9 67.94 154.9 67.94 154.9 65.38 153.49 65.38" fill="#231f20"/>
          <polygon points="163.96 65.38 163.96 64.09 159.77 64.09 159.77 65.38 158.37 65.38 158.37 67.94 165.37 67.94 165.37 65.38 163.96 65.38" fill="#231f20"/>
        </g>
        <g>
          <polygon points="122.08 71.24 122.08 69.96 117.89 69.96 117.89 71.24 116.49 71.24 116.49 73.81 123.49 73.81 123.49 71.24 122.08 71.24" fill="#231f20"/>
          <polygon points="132.55 71.24 132.55 69.96 128.36 69.96 128.36 71.24 126.96 71.24 126.96 73.81 133.96 73.81 133.96 71.24 132.55 71.24" fill="#231f20"/>
          <polygon points="143.02 71.24 143.02 69.96 138.83 69.96 138.83 71.24 137.43 71.24 137.43 73.81 144.43 73.81 144.43 71.24 143.02 71.24" fill="#231f20"/>
          <polygon points="153.49 71.24 153.49 69.96 149.3 69.96 149.3 71.24 147.9 71.24 147.9 73.81 154.9 73.81 154.9 71.24 153.49 71.24" fill="#231f20"/>
          <polygon points="163.96 71.24 163.96 69.96 159.77 69.96 159.77 71.24 158.37 71.24 158.37 73.81 165.37 73.81 165.37 71.24 163.96 71.24" fill="#231f20"/>
        </g>
      </g>
    </g>
    <g>
      <rect x="80.22" y="106.46" width="54.12" height="36.08" rx="1.8" fill="url(#linear-gradient-5)"/>
      <polygon points="116.3 119.24 116.3 129.73 107.28 135.02 107.28 124.5 116.3 119.24" fill="#50e6ff"/>
      <polygon points="116.3 119.24 107.28 124.53 98.26 119.24 107.28 113.98 116.3 119.24" fill="#c3f1ff"/>
      <polygon points="107.28 124.53 107.28 135.02 98.26 129.73 98.26 119.24 107.28 124.53" fill="#9cebff"/>
      <polygon points="98.26 129.73 107.28 124.5 107.28 135.02 98.26 129.73" fill="#c3f1ff"/>
      <polygon points="116.3 129.73 107.28 124.5 107.28 135.02 116.3 129.73" fill="#9cebff"/>
      <path d="M118.13,153.45c-5.35-.84-5.56-4.69-5.56-10.91H102c0,6.22-.18,10.07-5.53,10.91a3,3,0,0,0-2.68,3h27.06A3,3,0,0,0,118.13,153.45Z" fill="url(#linear-gradient-6)"/>
    </g>
    <g>
      <use width="29.12" height="40.33" transform="translate(237.27 52.94) scale(0.74)" xlink:href="#VHD_DataDisk"/>
      <use width="29.12" height="40.33" transform="translate(264.33 52.94) scale(0.74)" xlink:href="#VHD_DataDisk"/>
      <use width="29.12" height="40.33" transform="translate(291.38 52.94) scale(0.74)" xlink:href="#VHD_DataDisk"/>
      <use width="29.12" height="40.33" transform="translate(318.44 52.94) scale(0.74)" xlink:href="#VHD_DataDisk"/>
      <use width="29.12" height="40.33" transform="translate(345.5 52.94) scale(0.74)" xlink:href="#VHD_DataDisk"/>
    </g>
    <line x1="90.27" y1="106.46" x2="90.27" y2="76.46" fill="none" stroke="#231f20" stroke-miterlimit="10"/>
    <line x1="123.49" y1="106.46" x2="123.49" y2="76.46" fill="none" stroke="#231f20" stroke-miterlimit="10"/>
  </g>
  <g id="Text">
    <g>
      <path d="M45.21,208.46H43.14l-.6-1.87h-3l-.6,1.87H36.91l3.06-8.4h2.25Zm-3.1-3.32-.9-2.83a3.59,3.59,0,0,1-.14-.75h0a3.76,3.76,0,0,1-.14.73L40,205.14Z" fill="#1e1e1e"/>
      <path d="M51.13,208.46H45.75v-.77l3-3.86H46.05v-1.37h5.06v.91l-2.85,3.72h2.87Z" fill="#1e1e1e"/>
      <path d="M57.9,208.46H56.05v-.91h0a2.11,2.11,0,0,1-1.83,1.06c-1.39,0-2.09-.85-2.09-2.53v-3.62H54v3.46c0,.84.33,1.27,1,1.27a1,1,0,0,0,.79-.35,1.41,1.41,0,0,0,.3-1v-3.43H57.9Z" fill="#1e1e1e"/>
      <path d="M63.34,204.13a1.66,1.66,0,0,0-.78-.18,1.15,1.15,0,0,0-1,.44,2,2,0,0,0-.34,1.2v2.87H59.42v-6h1.85v1.11h0a1.6,1.6,0,0,1,1.58-1.22,1.35,1.35,0,0,1,.46.07Z" fill="#1e1e1e"/>
      <path d="M69.67,206H65.75c.06.87.61,1.3,1.65,1.3a3.23,3.23,0,0,0,1.74-.46v1.33a4.56,4.56,0,0,1-2.16.45,2.8,2.8,0,0,1-3.06-3.06,3.23,3.23,0,0,1,.86-2.36,2.87,2.87,0,0,1,2.14-.88,2.63,2.63,0,0,1,2,.78,3,3,0,0,1,.72,2.12ZM68,204.85c0-.86-.35-1.29-1-1.29a1,1,0,0,0-.78.37,1.75,1.75,0,0,0-.39.92Z" fill="#1e1e1e"/>
      <path d="M73.87,208.14v-1.88a3.45,3.45,0,0,0,1.11.64,3.4,3.4,0,0,0,1.21.22,2.35,2.35,0,0,0,.62-.07,1.57,1.57,0,0,0,.45-.17.83.83,0,0,0,.26-.27.69.69,0,0,0,.09-.34.74.74,0,0,0-.14-.44,1.47,1.47,0,0,0-.38-.36,4.45,4.45,0,0,0-.58-.31c-.22-.11-.46-.21-.72-.32a3.56,3.56,0,0,1-1.47-1,2.19,2.19,0,0,1-.48-1.43,2.21,2.21,0,0,1,.26-1.12,2.25,2.25,0,0,1,.72-.78,3.33,3.33,0,0,1,1.05-.45,5.21,5.21,0,0,1,1.27-.14,6.81,6.81,0,0,1,1.16.08,4.22,4.22,0,0,1,.93.24V202a2.9,2.9,0,0,0-.46-.26,3.82,3.82,0,0,0-.51-.18,3.46,3.46,0,0,0-.52-.11l-.5,0a2.58,2.58,0,0,0-.58.06,1.57,1.57,0,0,0-.45.17.81.81,0,0,0-.28.27.59.59,0,0,0-.1.34.68.68,0,0,0,.11.38,1.21,1.21,0,0,0,.32.32,2.76,2.76,0,0,0,.49.29c.2.1.42.2.67.3a7.55,7.55,0,0,1,.9.45,2.87,2.87,0,0,1,.69.53,2.08,2.08,0,0,1,.44.69,2.4,2.4,0,0,1,.15.89,2.48,2.48,0,0,1-.26,1.18,2.08,2.08,0,0,1-.73.77,3.15,3.15,0,0,1-1.06.43,6.61,6.61,0,0,1-1.28.13,7,7,0,0,1-1.32-.12A4.42,4.42,0,0,1,73.87,208.14Z" fill="#1e1e1e"/>
      <path d="M84.25,208.39a2.8,2.8,0,0,1-1.24.22q-2,0-2-2v-2.74h-1v-1.37h1v-1.29l1.84-.53v1.82h1.35v1.37H82.9v2.42c0,.63.25.94.75.94a1.31,1.31,0,0,0,.6-.17Z" fill="#1e1e1e"/>
      <path d="M90.41,208.46H88.66v-.86h0a2,2,0,0,1-1.79,1,1.86,1.86,0,0,1-1.37-.5,1.75,1.75,0,0,1-.5-1.32c0-1.16.69-1.84,2.06-2l1.63-.21c0-.66-.35-1-1.06-1a3.67,3.67,0,0,0-2,.64v-1.39a4.22,4.22,0,0,1,1.06-.35,5.05,5.05,0,0,1,1.22-.16,2.26,2.26,0,0,1,2.56,2.56ZM88.67,206v-.4l-1.09.14q-.9.12-.9.81a.66.66,0,0,0,.22.52.84.84,0,0,0,.6.2,1.07,1.07,0,0,0,.84-.36A1.29,1.29,0,0,0,88.67,206Z" fill="#1e1e1e"/>
      <path d="M96.43,208.24a3.55,3.55,0,0,1-1.81.37,3.06,3.06,0,0,1-2.24-.84,2.89,2.89,0,0,1-.85-2.16,3.14,3.14,0,0,1,.92-2.41,3.37,3.37,0,0,1,2.45-.89,3.22,3.22,0,0,1,1.53.28v1.58a2.1,2.1,0,0,0-1.29-.44,1.62,1.62,0,0,0-1.73,1.75,1.73,1.73,0,0,0,.44,1.25,1.63,1.63,0,0,0,1.23.46,2.43,2.43,0,0,0,1.35-.44Z" fill="#1e1e1e"/>
      <path d="M103.75,208.46h-2.22l-1.91-3h0v3H97.74v-8.88h1.85v5.65h0l1.79-2.77h2.19l-2.15,2.82Z" fill="#1e1e1e"/>
      <path d="M115.22,208.46h-1.9V205h-3.48v3.42h-1.9v-8.4h1.9v3.35h3.48v-3.35h1.9Z" fill="#1e1e1e"/>
      <path d="M122.63,208.46h-1.84v-.91h0a2.12,2.12,0,0,1-1.84,1.06c-1.39,0-2.08-.85-2.08-2.53v-3.62h1.84v3.46c0,.84.34,1.27,1,1.27a1,1,0,0,0,.8-.35,1.41,1.41,0,0,0,.3-1v-3.43h1.84Z" fill="#1e1e1e"/>
      <path d="M126,207.76h0v.7h-1.85v-8.88H126v3.78h0a2.2,2.2,0,0,1,2-1.05,2.15,2.15,0,0,1,1.79.8,3.43,3.43,0,0,1,.63,2.18,3.78,3.78,0,0,1-.73,2.41,2.41,2.41,0,0,1-2,.91A1.89,1.89,0,0,1,126,207.76Zm0-2.53v.62a1.44,1.44,0,0,0,.33,1,1.2,1.2,0,0,0,1.84-.11,2.4,2.4,0,0,0,.35-1.39,1.9,1.9,0,0,0-.32-1.16,1.08,1.08,0,0,0-.91-.42,1.16,1.16,0,0,0-.92.42A1.54,1.54,0,0,0,126,205.23Z" fill="#1e1e1e"/>
      <path d="M39.71,222.86H37.82v-8.4h1.89Z" fill="#1e1e1e"/>
      <path d="M47.17,222.86H45.33v-3.33c0-.93-.33-1.4-1-1.4a1,1,0,0,0-.79.37,1.4,1.4,0,0,0-.31.94v3.42H41.38v-6h1.85v.95h0a2.14,2.14,0,0,1,1.93-1.1c1.33,0,2,.83,2,2.48Z" fill="#1e1e1e"/>
      <path d="M52.2,222.79A2.83,2.83,0,0,1,51,223c-1.3,0-2-.68-2-2v-2.74H48v-1.37h1v-1.29l1.85-.53v1.82H52.2v1.37H50.85v2.42c0,.63.25.94.74.94a1.31,1.31,0,0,0,.61-.17Z" fill="#1e1e1e"/>
      <path d="M58.62,220.39H54.71c.06.87.61,1.3,1.65,1.3a3.23,3.23,0,0,0,1.74-.46v1.33a4.57,4.57,0,0,1-2.17.45,2.79,2.79,0,0,1-3-3.06,3.19,3.19,0,0,1,.86-2.36,2.87,2.87,0,0,1,2.14-.88,2.63,2.63,0,0,1,2,.78,3.05,3.05,0,0,1,.71,2.12Zm-1.71-1.14q0-1.29-1-1.29a1,1,0,0,0-.77.37,1.67,1.67,0,0,0-.39.92Z" fill="#1e1e1e"/>
      <path d="M65.71,222.17a3.37,3.37,0,0,1-1,2.59,3.9,3.9,0,0,1-2.8.92,4.42,4.42,0,0,1-1.92-.35v-1.56a3.68,3.68,0,0,0,1.87.54,2,2,0,0,0,1.45-.49,1.76,1.76,0,0,0,.52-1.35V222h0A2.09,2.09,0,0,1,62,223a2.26,2.26,0,0,1-1.83-.81,3.33,3.33,0,0,1-.67-2.17,3.65,3.65,0,0,1,.75-2.42,2.45,2.45,0,0,1,2-.9,1.84,1.84,0,0,1,1.64.85h0v-.7h1.85ZM63.88,220v-.48a1.48,1.48,0,0,0-.33-1,1.13,1.13,0,0,0-.88-.4,1.15,1.15,0,0,0-1,.48,2.3,2.3,0,0,0-.35,1.36,1.84,1.84,0,0,0,.34,1.18,1.08,1.08,0,0,0,.91.44,1.16,1.16,0,0,0,.93-.44A1.87,1.87,0,0,0,63.88,220Z" fill="#1e1e1e"/>
      <path d="M71.14,218.53a1.59,1.59,0,0,0-.77-.18,1.14,1.14,0,0,0-1,.44,2,2,0,0,0-.34,1.21v2.86H67.23v-6h1.85V218h0a1.6,1.6,0,0,1,1.58-1.22,1.07,1.07,0,0,1,.45.08Z" fill="#1e1e1e"/>
      <path d="M76.92,222.86H75.17V222h0a2,2,0,0,1-1.79,1,1.86,1.86,0,0,1-1.37-.5,1.79,1.79,0,0,1-.5-1.32c0-1.16.69-1.84,2.07-2l1.63-.21c0-.66-.36-1-1.07-1a3.72,3.72,0,0,0-2,.64v-1.39a4.22,4.22,0,0,1,1.06-.35,5.12,5.12,0,0,1,1.22-.16,2.27,2.27,0,0,1,2.57,2.56Zm-1.74-2.44V220l-1.09.14q-.9.12-.9.81a.69.69,0,0,0,.21.52.84.84,0,0,0,.6.2,1.1,1.1,0,0,0,.85-.36A1.29,1.29,0,0,0,75.18,220.42Z" fill="#1e1e1e"/>
      <path d="M81.92,222.79a2.75,2.75,0,0,1-1.23.22c-1.31,0-2-.68-2-2v-2.74h-1v-1.37h1v-1.29l1.84-.53v1.82h1.35v1.37H80.57v2.42c0,.63.25.94.75.94a1.31,1.31,0,0,0,.6-.17Z" fill="#1e1e1e"/>
      <path d="M88.35,220.39H84.43c.07.87.61,1.3,1.65,1.3a3.23,3.23,0,0,0,1.74-.46v1.33a4.56,4.56,0,0,1-2.16.45A2.8,2.8,0,0,1,82.6,220a3.19,3.19,0,0,1,.87-2.36,2.84,2.84,0,0,1,2.13-.88,2.63,2.63,0,0,1,2,.78,3,3,0,0,1,.72,2.12Zm-1.72-1.14c0-.86-.35-1.29-1-1.29a1,1,0,0,0-.77.37,1.68,1.68,0,0,0-.4.92Z" fill="#1e1e1e"/>
      <path d="M95.42,222.86H93.57V222h0a2.08,2.08,0,0,1-1.86,1,2.28,2.28,0,0,1-1.81-.8,3.27,3.27,0,0,1-.69-2.21,3.6,3.6,0,0,1,.76-2.39,2.45,2.45,0,0,1,2-.9,1.69,1.69,0,0,1,1.62.84h0V214h1.85Zm-1.81-2.92v-.45a1.45,1.45,0,0,0-.34-1,1.12,1.12,0,0,0-.89-.39,1.1,1.1,0,0,0-1,.49,2.23,2.23,0,0,0-.34,1.32,2,2,0,0,0,.33,1.22,1.09,1.09,0,0,0,.92.43,1.11,1.11,0,0,0,.92-.45A1.87,1.87,0,0,0,93.61,219.94Z" fill="#1e1e1e"/>
      <path d="M100.09,222.54v-1.88a3.52,3.52,0,0,0,1.1.64,3.44,3.44,0,0,0,1.21.22,2.38,2.38,0,0,0,.63-.07,1.62,1.62,0,0,0,.44-.17.87.87,0,0,0,.27-.27.71.71,0,0,0-.06-.78,1.47,1.47,0,0,0-.38-.36,3.44,3.44,0,0,0-.58-.31c-.22-.11-.46-.21-.72-.31a3.7,3.7,0,0,1-1.46-1,2.14,2.14,0,0,1-.49-1.43,2.21,2.21,0,0,1,.27-1.12,2.13,2.13,0,0,1,.71-.78,3.55,3.55,0,0,1,1-.45,5.81,5.81,0,0,1,1.27-.14,6.67,6.67,0,0,1,1.16.08,4.46,4.46,0,0,1,.94.24v1.75a3.42,3.42,0,0,0-.46-.26l-.51-.18a3.33,3.33,0,0,0-.53-.11l-.49,0a2.68,2.68,0,0,0-.59.06,1.69,1.69,0,0,0-.45.17.81.81,0,0,0-.28.27.68.68,0,0,0-.1.35.61.61,0,0,0,.12.37,1.16,1.16,0,0,0,.31.32,2.87,2.87,0,0,0,.5.29l.66.3a7,7,0,0,1,.91.45,3.32,3.32,0,0,1,.69.53,2.26,2.26,0,0,1,.44.69,2.4,2.4,0,0,1,.15.89,2.37,2.37,0,0,1-.27,1.18,2.13,2.13,0,0,1-.72.77,3.2,3.2,0,0,1-1.07.43,6.53,6.53,0,0,1-1.28.13,6.86,6.86,0,0,1-1.31-.12A4.15,4.15,0,0,1,100.09,222.54Z" fill="#1e1e1e"/>
      <path d="M112.56,216.86l-2.44,6.48c-.59,1.56-1.47,2.34-2.65,2.34a3.46,3.46,0,0,1-1.11-.15v-1.48a1.64,1.64,0,0,0,.81.22,1,1,0,0,0,1-.68l.32-.74-2.44-6h2l1.12,3.65a4.84,4.84,0,0,1,.17.8h0a5.52,5.52,0,0,1,.19-.79l1.13-3.66Z" fill="#1e1e1e"/>
      <path d="M112.94,222.7v-1.5a3.5,3.5,0,0,0,.91.41,3,3,0,0,0,.85.14,1.84,1.84,0,0,0,.78-.14.43.43,0,0,0,.29-.41.39.39,0,0,0-.13-.29,1.33,1.33,0,0,0-.33-.21c-.14,0-.29-.11-.45-.15l-.46-.16a4.68,4.68,0,0,1-.63-.29,2.45,2.45,0,0,1-.46-.36,1.64,1.64,0,0,1-.28-.48,2,2,0,0,1-.09-.64,1.69,1.69,0,0,1,.21-.86,1.88,1.88,0,0,1,.59-.6,2.64,2.64,0,0,1,.84-.34,4.55,4.55,0,0,1,1.79,0,7.78,7.78,0,0,1,.81.17v1.43a2.94,2.94,0,0,0-.76-.3,3.06,3.06,0,0,0-.78-.11,1.34,1.34,0,0,0-.35,0,1.15,1.15,0,0,0-.28.09.43.43,0,0,0-.19.16.34.34,0,0,0-.07.22.4.4,0,0,0,.1.28.88.88,0,0,0,.28.2,2,2,0,0,0,.37.15l.42.14a7.13,7.13,0,0,1,.67.28,2.12,2.12,0,0,1,.51.36,1.58,1.58,0,0,1,.33.48,1.82,1.82,0,0,1,.11.66,1.76,1.76,0,0,1-.23.91,1.9,1.9,0,0,1-.62.61,2.66,2.66,0,0,1-.88.35,5,5,0,0,1-1,.11A5.17,5.17,0,0,1,112.94,222.7Z" fill="#1e1e1e"/>
      <path d="M122.21,222.79A2.83,2.83,0,0,1,121,223c-1.3,0-2-.68-2-2v-2.74h-1v-1.37h1v-1.29l1.85-.53v1.82h1.35v1.37h-1.35v2.42c0,.63.25.94.74.94a1.31,1.31,0,0,0,.61-.17Z" fill="#1e1e1e"/>
      <path d="M128.63,220.39h-3.91c.06.87.61,1.3,1.65,1.3a3.23,3.23,0,0,0,1.74-.46v1.33a4.57,4.57,0,0,1-2.17.45,2.81,2.81,0,0,1-3.06-3.06,3.19,3.19,0,0,1,.87-2.36,2.87,2.87,0,0,1,2.13-.88,2.64,2.64,0,0,1,2,.78,3.05,3.05,0,0,1,.71,2.12Zm-1.71-1.14q0-1.29-1-1.29a1,1,0,0,0-.77.37,1.67,1.67,0,0,0-.39.92Z" fill="#1e1e1e"/>
      <path d="M139.34,222.86h-1.85v-3.42c0-.87-.32-1.31-1-1.31a.88.88,0,0,0-.74.39,1.65,1.65,0,0,0-.29,1v3.36h-1.85V219.4c0-.84-.32-1.27-.94-1.27a.91.91,0,0,0-.76.38,1.65,1.65,0,0,0-.29,1v3.33h-1.85v-6h1.85v.94h0a2.22,2.22,0,0,1,.8-.78,2.17,2.17,0,0,1,1.14-.31,1.75,1.75,0,0,1,1.74,1.12,2.22,2.22,0,0,1,2-1.12c1.31,0,2,.81,2,2.42Z" fill="#1e1e1e"/>
    </g>
    <g>
      <path d="M68.67,53.44V45h3.06a3.75,3.75,0,0,1,2.16.52A1.63,1.63,0,0,1,74.65,47a1.71,1.71,0,0,1-.46,1.19,2.49,2.49,0,0,1-1.18.71v0a2.36,2.36,0,0,1,1.44.66A1.89,1.89,0,0,1,75,50.93a2.27,2.27,0,0,1-.82,1.84,3.48,3.48,0,0,1-2.26.67Zm1.89-7v2h.84a1.37,1.37,0,0,0,.92-.29,1,1,0,0,0,.34-.78c0-.62-.46-.93-1.39-.93Zm0,3.4v2.22h1a1.55,1.55,0,0,0,1-.31,1,1,0,0,0,.37-.83.93.93,0,0,0-.37-.79,1.61,1.61,0,0,0-1-.29Z" fill="#1e1e1e"/>
      <path d="M79.08,53.59a3.23,3.23,0,0,1-2.36-.84,3.47,3.47,0,0,1,0-4.61,3.38,3.38,0,0,1,2.41-.84,3.16,3.16,0,0,1,2.34.84,3,3,0,0,1,.85,2.22,3.18,3.18,0,0,1-.87,2.36A3.27,3.27,0,0,1,79.08,53.59Zm0-4.88a1.23,1.23,0,0,0-1,.45,2,2,0,0,0-.37,1.28c0,1.15.47,1.73,1.4,1.73s1.33-.59,1.33-1.77S80,48.71,79.13,48.71Z" fill="#1e1e1e"/>
      <path d="M87.46,49.11a1.61,1.61,0,0,0-.78-.18,1.12,1.12,0,0,0-.94.44,1.93,1.93,0,0,0-.34,1.21v2.86H83.55v-6H85.4v1.12h0A1.59,1.59,0,0,1,87,47.34a1.14,1.14,0,0,1,.46.07Z" fill="#1e1e1e"/>
      <path d="M94.27,53.44H92.42v-.82h0a2.09,2.09,0,0,1-1.86,1,2.28,2.28,0,0,1-1.81-.8,3.23,3.23,0,0,1-.68-2.21,3.6,3.6,0,0,1,.75-2.39,2.47,2.47,0,0,1,2-.89,1.68,1.68,0,0,1,1.62.83h0V44.56h1.85Zm-1.81-2.92v-.45a1.45,1.45,0,0,0-.34-1,1.12,1.12,0,0,0-.89-.39,1.1,1.1,0,0,0-1,.49,2.23,2.23,0,0,0-.34,1.32,2,2,0,0,0,.33,1.22,1.18,1.18,0,0,0,1.84,0A1.87,1.87,0,0,0,92.46,50.52Z" fill="#1e1e1e"/>
      <path d="M101.22,51H97.31c.06.87.61,1.31,1.65,1.31a3.24,3.24,0,0,0,1.74-.47v1.33a4.57,4.57,0,0,1-2.17.45,2.79,2.79,0,0,1-3-3.05,3.2,3.2,0,0,1,.86-2.37,2.9,2.9,0,0,1,2.14-.87,2.66,2.66,0,0,1,2,.77,3.05,3.05,0,0,1,.71,2.12Zm-1.71-1.14q0-1.29-1.05-1.29a1,1,0,0,0-.77.37,1.71,1.71,0,0,0-.39.92Z" fill="#1e1e1e"/>
      <path d="M106.32,49.11a1.66,1.66,0,0,0-.78-.18,1.14,1.14,0,0,0-1,.44,2,2,0,0,0-.34,1.21v2.86H102.4v-6h1.85v1.12h0a1.59,1.59,0,0,1,1.58-1.22,1.17,1.17,0,0,1,.46.07Z" fill="#1e1e1e"/>
      <path d="M110.67,53.44V45h3c3,0,4.47,1.36,4.47,4.1a4.12,4.12,0,0,1-1.22,3.13,4.5,4.5,0,0,1-3.25,1.17Zm1.89-6.86v5.33h.94a2.55,2.55,0,0,0,1.93-.74,2.78,2.78,0,0,0,.7-2,2.55,2.55,0,0,0-.69-1.89,2.67,2.67,0,0,0-2-.69Z" fill="#1e1e1e"/>
      <path d="M124.73,51h-3.92c.06.87.61,1.31,1.65,1.31a3.24,3.24,0,0,0,1.74-.47v1.33a4.56,4.56,0,0,1-2.16.45A2.79,2.79,0,0,1,119,50.54a3.2,3.2,0,0,1,.87-2.37A2.87,2.87,0,0,1,122,47.3a2.66,2.66,0,0,1,2,.77,3,3,0,0,1,.72,2.12ZM123,49.83c0-.86-.35-1.29-1-1.29a1,1,0,0,0-.77.37,1.72,1.72,0,0,0-.4.92Z" fill="#1e1e1e"/>
      <path d="M131.47,47.44l-2.23,6h-2.11l-2.13-6h2l1,3.7a5.91,5.91,0,0,1,.2,1.07h0a6.11,6.11,0,0,1,.22-1l1.07-3.73Z" fill="#1e1e1e"/>
      <path d="M133.23,46.49a1.05,1.05,0,0,1-.76-.28.88.88,0,0,1-.3-.68.87.87,0,0,1,.3-.68,1.26,1.26,0,0,1,1.53,0,.87.87,0,0,1,.3.68.89.89,0,0,1-.3.69A1.08,1.08,0,0,1,133.23,46.49Zm.92,6.95H132.3v-6h1.85Z" fill="#1e1e1e"/>
      <path d="M140.23,53.23a3.73,3.73,0,0,1-1.82.36,3,3,0,0,1-2.23-.84,2.9,2.9,0,0,1-.86-2.16,3.19,3.19,0,0,1,.92-2.41,3.38,3.38,0,0,1,2.45-.88,3.14,3.14,0,0,1,1.54.28v1.57a2.13,2.13,0,0,0-1.3-.44,1.71,1.71,0,0,0-1.26.47,1.75,1.75,0,0,0-.47,1.29,1.71,1.71,0,0,0,.45,1.25,1.62,1.62,0,0,0,1.22.45,2.47,2.47,0,0,0,1.36-.43Z" fill="#1e1e1e"/>
      <path d="M146.85,51h-3.92c.07.87.62,1.31,1.65,1.31a3.24,3.24,0,0,0,1.74-.47v1.33a4.5,4.5,0,0,1-2.16.45,2.79,2.79,0,0,1-3.06-3.05,3.2,3.2,0,0,1,.87-2.37,2.9,2.9,0,0,1,2.13-.87,2.65,2.65,0,0,1,2,.77,3,3,0,0,1,.72,2.12Zm-1.72-1.14c0-.86-.35-1.29-1-1.29a1,1,0,0,0-.77.37,1.72,1.72,0,0,0-.4.92Z" fill="#1e1e1e"/>
      <path d="M147.7,53.28v-1.5a3.82,3.82,0,0,0,.91.41,3.08,3.08,0,0,0,.86.14,1.84,1.84,0,0,0,.78-.14.42.42,0,0,0,.28-.41.37.37,0,0,0-.13-.29.88.88,0,0,0-.33-.2,2.52,2.52,0,0,0-.44-.16l-.46-.16a4.68,4.68,0,0,1-.63-.29,1.67,1.67,0,0,1-.46-.36,1.44,1.44,0,0,1-.28-.48,2,2,0,0,1-.1-.63,1.7,1.7,0,0,1,.22-.87,1.88,1.88,0,0,1,.59-.6,2.9,2.9,0,0,1,.84-.34,4.46,4.46,0,0,1,1-.1,5.73,5.73,0,0,1,.81.06,5.88,5.88,0,0,1,.81.18V49a3,3,0,0,0-.76-.31,3.11,3.11,0,0,0-.79-.1,1.87,1.87,0,0,0-.34,0,1,1,0,0,0-.28.09.53.53,0,0,0-.2.16.4.4,0,0,0,0,.5.79.79,0,0,0,.27.2,2.15,2.15,0,0,0,.38.15l.42.14a6.9,6.9,0,0,1,.66.28,2.52,2.52,0,0,1,.52.36,1.39,1.39,0,0,1,.32.48,1.66,1.66,0,0,1,.12.66,1.76,1.76,0,0,1-.23.91,1.81,1.81,0,0,1-.62.61,2.66,2.66,0,0,1-.88.35,5.1,5.1,0,0,1-1,.11A5.27,5.27,0,0,1,147.7,53.28Z" fill="#1e1e1e"/>
    </g>
    <g>
      <path d="M105.54,163.06l-3.11,8.4h-1.08l-3-8.4h1.09l2.33,6.66a4.27,4.27,0,0,1,.17.74h0a4.21,4.21,0,0,1,.2-.75l2.37-6.65Z" fill="#1e1e1e"/>
      <path d="M115.26,171.46h-1v-5.64c0-.44,0-1,.08-1.63h0a5.05,5.05,0,0,1-.25.81l-2.87,6.46h-.48l-2.87-6.41a5.64,5.64,0,0,1-.25-.86h0c0,.33,0,.88,0,1.64v5.63h-1v-8.4H108l2.58,5.86a7.92,7.92,0,0,1,.39,1h0c.17-.46.31-.8.41-1l2.63-5.83h1.23Z" fill="#1e1e1e"/>
    </g>
    <g>
      <path d="M230.29,9.88V8a3.68,3.68,0,0,0,1.11.65,3.61,3.61,0,0,0,1.2.21,2.38,2.38,0,0,0,.63-.07,1.5,1.5,0,0,0,.44-.17.87.87,0,0,0,.27-.27A.69.69,0,0,0,234,8a.77.77,0,0,0-.14-.44,1.52,1.52,0,0,0-.39-.36,3.74,3.74,0,0,0-.57-.31c-.23-.11-.47-.21-.72-.31a3.66,3.66,0,0,1-1.47-1,2.19,2.19,0,0,1-.49-1.43A2.21,2.21,0,0,1,230.52,3a2.07,2.07,0,0,1,.72-.78,3.33,3.33,0,0,1,1-.45,5.72,5.72,0,0,1,1.26-.14,6.86,6.86,0,0,1,1.17.08,4.37,4.37,0,0,1,.93.24V3.73a2.9,2.9,0,0,0-.46-.26,4.4,4.4,0,0,0-.51-.18,5,5,0,0,0-.53-.11l-.49,0a2.68,2.68,0,0,0-.59.06,1.62,1.62,0,0,0-.44.17.81.81,0,0,0-.28.27.6.6,0,0,0-.1.35.6.6,0,0,0,.11.37,1.17,1.17,0,0,0,.31.32,3.3,3.3,0,0,0,.5.29l.66.3a7,7,0,0,1,.91.45,3.15,3.15,0,0,1,.69.53,2.08,2.08,0,0,1,.44.69,2.4,2.4,0,0,1,.15.89A2.37,2.37,0,0,1,235.75,9a2.05,2.05,0,0,1-.72.77,3.15,3.15,0,0,1-1.06.43,6.61,6.61,0,0,1-1.28.13,7,7,0,0,1-1.32-.12A3.92,3.92,0,0,1,230.29,9.88Z" fill="#1e1e1e"/>
      <path d="M240.67,10.13a2.7,2.7,0,0,1-1.24.22c-1.3,0-2-.68-2-2V5.57h-1V4.2h1V2.91l1.85-.53V4.2h1.35V5.57h-1.35V8c0,.63.25.94.74.94a1.31,1.31,0,0,0,.61-.17Z" fill="#1e1e1e"/>
      <path d="M244.56,10.35a3.24,3.24,0,0,1-2.36-.84,3.06,3.06,0,0,1-.86-2.29,3,3,0,0,1,.9-2.32,3.31,3.31,0,0,1,2.4-.85A3.17,3.17,0,0,1,247,4.9a3,3,0,0,1,.85,2.22A3.18,3.18,0,0,1,247,9.48,3.24,3.24,0,0,1,244.56,10.35Zm.05-4.88a1.23,1.23,0,0,0-1,.45,2,2,0,0,0-.36,1.28c0,1.15.46,1.73,1.39,1.73S246,8.34,246,7.15,245.5,5.47,244.61,5.47Z" fill="#1e1e1e"/>
      <path d="M252.94,5.87a1.61,1.61,0,0,0-.78-.18,1.14,1.14,0,0,0-.94.44,1.93,1.93,0,0,0-.34,1.21V10.2H249v-6h1.85V5.31h0a1.6,1.6,0,0,1,1.59-1.21,1.12,1.12,0,0,1,.45.07Z" fill="#1e1e1e"/>
      <path d="M258.72,10.2H257V9.34h0a2,2,0,0,1-1.79,1,1.86,1.86,0,0,1-1.37-.5,1.79,1.79,0,0,1-.5-1.32q0-1.74,2.07-2L257,6.3c0-.66-.36-1-1.07-1a3.72,3.72,0,0,0-2,.64V4.56a4.67,4.67,0,0,1,1.06-.35,5.69,5.69,0,0,1,1.22-.16,2.27,2.27,0,0,1,2.57,2.57ZM257,7.76v-.4l-1.09.14c-.6.08-.91.35-.91.81a.68.68,0,0,0,.22.52.84.84,0,0,0,.6.21,1.07,1.07,0,0,0,.85-.37A1.29,1.29,0,0,0,257,7.76Z" fill="#1e1e1e"/>
      <path d="M266.09,9.52a3.39,3.39,0,0,1-1,2.58,3.94,3.94,0,0,1-2.8.92,4.5,4.5,0,0,1-1.93-.35V11.12a3.77,3.77,0,0,0,1.87.53,2,2,0,0,0,1.46-.49,1.79,1.79,0,0,0,.51-1.35V9.34h0a2.08,2.08,0,0,1-1.87,1,2.24,2.24,0,0,1-1.82-.81,3.28,3.28,0,0,1-.68-2.17A3.67,3.67,0,0,1,260.6,5a2.45,2.45,0,0,1,2-.9,1.84,1.84,0,0,1,1.64.85h0V4.2h1.85Zm-1.83-2.2V6.84a1.48,1.48,0,0,0-.33-1,1.13,1.13,0,0,0-.88-.4,1.15,1.15,0,0,0-1,.48,2.3,2.3,0,0,0-.35,1.36,1.84,1.84,0,0,0,.34,1.18,1.08,1.08,0,0,0,.91.44,1.16,1.16,0,0,0,.93-.44A1.81,1.81,0,0,0,264.26,7.32Z" fill="#1e1e1e"/>
      <path d="M273,7.73h-3.91c.06.87.61,1.31,1.64,1.31a3.24,3.24,0,0,0,1.74-.47V9.9a4.5,4.5,0,0,1-2.16.45,3,3,0,0,1-2.25-.81,3,3,0,0,1-.81-2.25,3.19,3.19,0,0,1,.87-2.36,2.91,2.91,0,0,1,2.13-.88,2.62,2.62,0,0,1,2,.78A3,3,0,0,1,273,7Zm-1.72-1.14c0-.86-.34-1.29-1-1.29a1,1,0,0,0-.77.37,1.6,1.6,0,0,0-.39.92Z" fill="#1e1e1e"/>
      <path d="M285,10.2H283l-.6-1.87h-3l-.6,1.87h-2l3.06-8.4H282Zm-3.09-3.32L281,4.05a3,3,0,0,1-.14-.75h-.05a3.16,3.16,0,0,1-.15.73l-.91,2.85Z" fill="#1e1e1e"/>
      <path d="M287.77,9.5h0V13h-1.85V4.2h1.85v.9h0a2.16,2.16,0,0,1,1.92-1,2.2,2.2,0,0,1,1.81.8A3.45,3.45,0,0,1,292.13,7a3.73,3.73,0,0,1-.74,2.41,2.43,2.43,0,0,1-2,.91A1.85,1.85,0,0,1,287.77,9.5ZM287.71,7v.48a1.53,1.53,0,0,0,.33,1,1.08,1.08,0,0,0,.86.39,1.12,1.12,0,0,0,1-.49,2.32,2.32,0,0,0,.35-1.39c0-1-.41-1.58-1.23-1.58a1.18,1.18,0,0,0-.93.43A1.73,1.73,0,0,0,287.71,7Z" fill="#1e1e1e"/>
      <path d="M295.23,9.5h0V13h-1.85V4.2h1.85v.9h0A2.36,2.36,0,0,1,299,4.85,3.45,3.45,0,0,1,299.6,7a3.68,3.68,0,0,1-.75,2.41,2.43,2.43,0,0,1-2,.91A1.86,1.86,0,0,1,295.23,9.5ZM295.18,7v.48a1.53,1.53,0,0,0,.33,1,1.05,1.05,0,0,0,.86.39,1.12,1.12,0,0,0,1-.49,2.4,2.4,0,0,0,.35-1.39c0-1-.41-1.58-1.23-1.58a1.18,1.18,0,0,0-.93.43A1.73,1.73,0,0,0,295.18,7Z" fill="#1e1e1e"/>
      <path d="M302.68,10.2h-1.85V1.32h1.85Z" fill="#1e1e1e"/>
      <path d="M305.15,3.25a1.07,1.07,0,0,1-.77-.28.88.88,0,0,1-.3-.68.87.87,0,0,1,.3-.68,1.27,1.27,0,0,1,1.54,0,.86.86,0,0,1,.29.68.88.88,0,0,1-.29.69A1.11,1.11,0,0,1,305.15,3.25Zm.91,7h-1.85v-6h1.85Z" fill="#1e1e1e"/>
      <path d="M312.61,10.2h-1.75V9.34h0a2,2,0,0,1-1.79,1,1.86,1.86,0,0,1-1.37-.5,1.75,1.75,0,0,1-.5-1.32c0-1.16.69-1.83,2.06-2l1.63-.22c0-.66-.35-1-1.06-1a3.67,3.67,0,0,0-2,.64V4.56a4.67,4.67,0,0,1,1.06-.35,5.61,5.61,0,0,1,1.22-.16,2.27,2.27,0,0,1,2.56,2.57Zm-1.74-2.44v-.4l-1.09.14q-.9.12-.9.81a.65.65,0,0,0,.22.52.84.84,0,0,0,.6.21,1.05,1.05,0,0,0,.84-.37A1.29,1.29,0,0,0,310.87,7.76Z" fill="#1e1e1e"/>
      <path d="M319.87,10.2H318V6.87c0-.93-.33-1.4-1-1.4a1,1,0,0,0-.79.37,1.4,1.4,0,0,0-.31.94V10.2h-1.85v-6h1.85v1h0a2.13,2.13,0,0,1,1.93-1.1c1.33,0,2,.83,2,2.48Z" fill="#1e1e1e"/>
      <path d="M325.89,10a3.55,3.55,0,0,1-1.81.37,3.08,3.08,0,0,1-2.24-.84A2.89,2.89,0,0,1,321,7.35a3.14,3.14,0,0,1,.92-2.41,3.37,3.37,0,0,1,2.45-.89,3.06,3.06,0,0,1,1.53.29V5.91a2.08,2.08,0,0,0-1.29-.44,1.71,1.71,0,0,0-1.26.47,1.74,1.74,0,0,0-.47,1.28,1.72,1.72,0,0,0,.45,1.26,1.62,1.62,0,0,0,1.22.45,2.42,2.42,0,0,0,1.35-.43Z" fill="#1e1e1e"/>
      <path d="M332.52,7.73H328.6c.07.87.61,1.31,1.65,1.31A3.24,3.24,0,0,0,332,8.57V9.9a4.56,4.56,0,0,1-2.16.45,3,3,0,0,1-2.26-.81,3.06,3.06,0,0,1-.8-2.25,3.19,3.19,0,0,1,.87-2.36,2.87,2.87,0,0,1,2.13-.88,2.63,2.63,0,0,1,2,.78A3,3,0,0,1,332.52,7ZM330.8,6.59c0-.86-.35-1.29-1-1.29a1,1,0,0,0-.77.37,1.68,1.68,0,0,0-.4.92Z" fill="#1e1e1e"/>
      <path d="M234,24.6h-1V17.34a2.72,2.72,0,0,1-.33.26,5.1,5.1,0,0,1-.48.28c-.18.09-.36.18-.56.26a3.63,3.63,0,0,1-.58.2v-1a4.1,4.1,0,0,0,.67-.23,6.44,6.44,0,0,0,.7-.34c.23-.12.44-.25.65-.38a5,5,0,0,0,.52-.4H234Z" fill="#1e1e1e"/>
      <path d="M241.37,19.9a8.48,8.48,0,0,1-.22,2.05,4.73,4.73,0,0,1-.67,1.52,2.93,2.93,0,0,1-1.07,1,3.13,3.13,0,0,1-1.45.33,3.37,3.37,0,0,1-1.46-.3v-.92a2.9,2.9,0,0,0,1.49.4,2.07,2.07,0,0,0,1-.24,2,2,0,0,0,.76-.68,3.36,3.36,0,0,0,.48-1.1,6.25,6.25,0,0,0,.16-1.51h0a1.93,1.93,0,0,1-1.88,1.08,2.46,2.46,0,0,1-1-.19,2.11,2.11,0,0,1-.78-.54,2.37,2.37,0,0,1-.51-.82,3.08,3.08,0,0,1-.18-1.07,3.15,3.15,0,0,1,.2-1.13,2.72,2.72,0,0,1,.57-.89,2.52,2.52,0,0,1,.85-.58,2.92,2.92,0,0,1,1.08-.2,2.41,2.41,0,0,1,1.13.25,2.25,2.25,0,0,1,.82.75,3.68,3.68,0,0,1,.51,1.2A6.78,6.78,0,0,1,241.37,19.9Zm-1-.87a3.06,3.06,0,0,0-.13-.88,2,2,0,0,0-.35-.68,1.49,1.49,0,0,0-.53-.44,1.38,1.38,0,0,0-.67-.16A1.53,1.53,0,0,0,238,17a1.43,1.43,0,0,0-.52.39,1.81,1.81,0,0,0-.35.59,2.27,2.27,0,0,0-.12.75,2.43,2.43,0,0,0,.12.79,1.6,1.6,0,0,0,.34.6,1.58,1.58,0,0,0,.54.37,1.7,1.7,0,0,0,.69.13,1.69,1.69,0,0,0,1.15-.47,1.58,1.58,0,0,0,.34-.5A1.61,1.61,0,0,0,240.34,19Z" fill="#1e1e1e"/>
      <path d="M246.24,18.4a1.71,1.71,0,0,0-.12-.67,1.37,1.37,0,0,0-.33-.48,1.26,1.26,0,0,0-.49-.28,1.74,1.74,0,0,0-.61-.1,2,2,0,0,0-.55.08,2.57,2.57,0,0,0-.52.21,3.84,3.84,0,0,0-.5.32,5.77,5.77,0,0,0-.44.42v-1a2.58,2.58,0,0,1,.91-.6,3.14,3.14,0,0,1,1.22-.21,2.91,2.91,0,0,1,.95.15,2.23,2.23,0,0,1,.77.43,2.12,2.12,0,0,1,.5.71,2.3,2.3,0,0,1,.19,1,3.16,3.16,0,0,1-.12.9,2.6,2.6,0,0,1-.34.76,3.73,3.73,0,0,1-.59.69,8.71,8.71,0,0,1-.82.67c-.4.28-.72.52-1,.72a4.3,4.3,0,0,0-.61.56,1.59,1.59,0,0,0-.31.52,1.8,1.8,0,0,0-.09.6h4.18v.86h-5.19v-.41a3.38,3.38,0,0,1,.12-1,2.38,2.38,0,0,1,.39-.78,4,4,0,0,1,.7-.74c.29-.25.65-.53,1.07-.83a6.87,6.87,0,0,0,.77-.63,3.23,3.23,0,0,0,.49-.6,2,2,0,0,0,.27-.6A2.84,2.84,0,0,0,246.24,18.4Z" fill="#1e1e1e"/>
      <path d="M249.45,24.73a.62.62,0,0,1-.46-.19.64.64,0,0,1-.19-.47.62.62,0,0,1,.19-.46.63.63,0,0,1,.46-.2.65.65,0,0,1,.47.2.62.62,0,0,1,.19.46.65.65,0,0,1-.66.66Z" fill="#1e1e1e"/>
      <path d="M253.93,24.6h-1V17.34a2.72,2.72,0,0,1-.33.26,5.1,5.1,0,0,1-.48.28c-.18.09-.36.18-.56.26a3.63,3.63,0,0,1-.58.2v-1a4.1,4.1,0,0,0,.67-.23,6.44,6.44,0,0,0,.7-.34c.23-.12.44-.25.65-.38a5,5,0,0,0,.52-.4h.37Z" fill="#1e1e1e"/>
      <path d="M261.53,21.94a3,3,0,0,1-.2,1.13,2.62,2.62,0,0,1-.55.89,2.38,2.38,0,0,1-.84.58,2.59,2.59,0,0,1-1.05.21,2.33,2.33,0,0,1-1.13-.27,2.26,2.26,0,0,1-.85-.75,3.53,3.53,0,0,1-.53-1.21,6.21,6.21,0,0,1-.19-1.62,7.68,7.68,0,0,1,.25-2,4.73,4.73,0,0,1,.69-1.52,3.17,3.17,0,0,1,1.08-1,2.88,2.88,0,0,1,1.41-.34,3.42,3.42,0,0,1,1.4.24v.91a2.9,2.9,0,0,0-1.37-.34,2.14,2.14,0,0,0-1,.25,2.29,2.29,0,0,0-.77.72,3.34,3.34,0,0,0-.5,1.11,5.8,5.8,0,0,0-.17,1.44h0a2,2,0,0,1,1.92-1,2.57,2.57,0,0,1,1,.18,2.17,2.17,0,0,1,.76.53,2.31,2.31,0,0,1,.48.82A3,3,0,0,1,261.53,21.94Zm-1,.12a2.74,2.74,0,0,0-.11-.79,1.71,1.71,0,0,0-.32-.6,1.43,1.43,0,0,0-.52-.38,1.67,1.67,0,0,0-.69-.13,1.59,1.59,0,0,0-.66.13,1.8,1.8,0,0,0-.53.37,1.66,1.66,0,0,0-.34.54,1.57,1.57,0,0,0-.13.65,2.64,2.64,0,0,0,.12.81,1.89,1.89,0,0,0,.35.66,1.63,1.63,0,0,0,.53.45,1.51,1.51,0,0,0,.68.16,1.59,1.59,0,0,0,.66-.14,1.48,1.48,0,0,0,.51-.38,1.88,1.88,0,0,0,.33-.59A2.29,2.29,0,0,0,260.55,22.06Z" fill="#1e1e1e"/>
      <path d="M262.58,22.26a2.19,2.19,0,0,1,.11-.67A2.29,2.29,0,0,1,263,21a2.45,2.45,0,0,1,.48-.54,2.7,2.7,0,0,1,.66-.38,2.4,2.4,0,0,1-.86-.78,1.82,1.82,0,0,1-.33-1.06,2,2,0,0,1,.18-.85,2.1,2.1,0,0,1,.5-.68,2.34,2.34,0,0,1,.75-.45,2.84,2.84,0,0,1,1.88,0,2.34,2.34,0,0,1,.75.45,2.08,2.08,0,0,1,.49.68,2,2,0,0,1,.18.85,1.82,1.82,0,0,1-.33,1.06,2.46,2.46,0,0,1-.85.78,2.35,2.35,0,0,1,1.13.92,2.29,2.29,0,0,1,.3.63,1.92,1.92,0,0,1,.11.67,2.6,2.6,0,0,1-.2,1,2.29,2.29,0,0,1-.56.78,2.7,2.7,0,0,1-.86.5,3.28,3.28,0,0,1-2.2,0,2.7,2.7,0,0,1-.86-.5,2.46,2.46,0,0,1-.57-.78A2.6,2.6,0,0,1,262.58,22.26Zm1-.08a1.94,1.94,0,0,0,.12.7,1.56,1.56,0,0,0,.34.54,1.53,1.53,0,0,0,.54.35,1.92,1.92,0,0,0,.69.12,1.68,1.68,0,0,0,.68-.13,1.5,1.5,0,0,0,.54-.34,1.68,1.68,0,0,0,.35-.54,2,2,0,0,0,.12-.7,1.76,1.76,0,0,0-.12-.66,1.64,1.64,0,0,0-.34-.55,1.68,1.68,0,0,0-.53-.37,1.94,1.94,0,0,0-.7-.13,1.67,1.67,0,0,0-.67.13,1.58,1.58,0,0,0-.53.35,1.7,1.7,0,0,0-.36.54A1.93,1.93,0,0,0,263.62,22.18Zm.3-3.9a1.42,1.42,0,0,0,.11.55,1.37,1.37,0,0,0,.3.45,1.71,1.71,0,0,0,.44.3,1.41,1.41,0,0,0,.54.11,1.25,1.25,0,0,0,.54-.12,1.37,1.37,0,0,0,.45-.3,1.35,1.35,0,0,0,.29-.44,1.3,1.3,0,0,0,.12-.55,1.47,1.47,0,0,0-.11-.56,1.27,1.27,0,0,0-.3-.45,1.35,1.35,0,0,0-.44-.29,1.26,1.26,0,0,0-.55-.11,1.27,1.27,0,0,0-.56.11,1.23,1.23,0,0,0-.44.3,1.34,1.34,0,0,0-.29.45A1.63,1.63,0,0,0,263.92,18.28Z" fill="#1e1e1e"/>
      <path d="M269.92,24.73a.62.62,0,0,1-.46-.19.68.68,0,0,1-.19-.47.66.66,0,0,1,.19-.46.67.67,0,0,1,1.13.46.65.65,0,0,1-.2.47A.63.63,0,0,1,269.92,24.73Z" fill="#1e1e1e"/>
      <path d="M274.4,24.6h-1V17.34a2,2,0,0,1-.32.26l-.48.28c-.18.09-.37.18-.57.26a3.54,3.54,0,0,1-.57.2v-1a4.45,4.45,0,0,0,.67-.23,6.3,6.3,0,0,0,.69-.34c.23-.12.45-.25.65-.38A6.62,6.62,0,0,0,274,16h.36Z" fill="#1e1e1e"/>
      <path d="M277.41,24.73a.6.6,0,0,1-.46-.19.65.65,0,0,1-.2-.47.63.63,0,0,1,.2-.46.63.63,0,0,1,.92,0,.63.63,0,0,1,.2.46.65.65,0,0,1-.2.47A.6.6,0,0,1,277.41,24.73Z" fill="#1e1e1e"/>
      <path d="M284.43,22a2.87,2.87,0,0,1-.21,1.12,2.35,2.35,0,0,1-.6.85,2.59,2.59,0,0,1-.94.55,3.69,3.69,0,0,1-1.23.2,3.44,3.44,0,0,1-1.74-.35v-1a3.27,3.27,0,0,0,1.75.55,2.41,2.41,0,0,0,.83-.14,1.83,1.83,0,0,0,.62-.37,1.67,1.67,0,0,0,.4-.58,2,2,0,0,0,.14-.75,1.59,1.59,0,0,0-.56-1.28,2.41,2.41,0,0,0-1.6-.47h-.73l-.36,0-.33,0,.29-4.21H284v.87H281l-.17,2.46.4,0h.37a3.69,3.69,0,0,1,1.2.18,2.49,2.49,0,0,1,.89.5,2.07,2.07,0,0,1,.56.8A2.69,2.69,0,0,1,284.43,22Z" fill="#1e1e1e"/>
      <path d="M291.06,20.36a8,8,0,0,1-.19,1.87,4.24,4.24,0,0,1-.55,1.38,2.55,2.55,0,0,1-.88.85,2.47,2.47,0,0,1-1.19.29,2.31,2.31,0,0,1-1.13-.28,2.49,2.49,0,0,1-.84-.81,4.12,4.12,0,0,1-.51-1.31,7.93,7.93,0,0,1-.18-1.78,8.83,8.83,0,0,1,.19-1.95,4.32,4.32,0,0,1,.54-1.41,2.36,2.36,0,0,1,2.1-1.15Q291.06,16.06,291.06,20.36Zm-1,.1c0-2.39-.57-3.59-1.71-3.59s-1.79,1.22-1.79,3.65c0,2.27.58,3.41,1.76,3.41S290.08,22.77,290.08,20.46Z" fill="#1e1e1e"/>
      <path d="M234,39h-1V31.74a2.72,2.72,0,0,1-.33.26,5.1,5.1,0,0,1-.48.28c-.18.09-.36.18-.56.26a3.63,3.63,0,0,1-.58.2v-1a4.1,4.1,0,0,0,.67-.23,6.44,6.44,0,0,0,.7-.34c.23-.12.44-.25.65-.38a5,5,0,0,0,.52-.4H234Z" fill="#1e1e1e"/>
      <path d="M241.37,34.3a8.48,8.48,0,0,1-.22,2.05,4.73,4.73,0,0,1-.67,1.52,2.93,2.93,0,0,1-1.07,1,3.13,3.13,0,0,1-1.45.33,3.37,3.37,0,0,1-1.46-.3v-.92a2.9,2.9,0,0,0,1.49.4,2.07,2.07,0,0,0,1-.24,2,2,0,0,0,.76-.68,3.36,3.36,0,0,0,.48-1.1,6.25,6.25,0,0,0,.16-1.51h0a1.93,1.93,0,0,1-1.88,1.08,2.46,2.46,0,0,1-1-.19,2.11,2.11,0,0,1-.78-.54,2.37,2.37,0,0,1-.51-.82,3.08,3.08,0,0,1-.18-1.07,3.15,3.15,0,0,1,.2-1.13,2.72,2.72,0,0,1,.57-.89,2.52,2.52,0,0,1,.85-.58,2.92,2.92,0,0,1,1.08-.2,2.41,2.41,0,0,1,1.13.25,2.25,2.25,0,0,1,.82.75,3.68,3.68,0,0,1,.51,1.2A6.78,6.78,0,0,1,241.37,34.3Zm-1-.87a3.06,3.06,0,0,0-.13-.88,2,2,0,0,0-.35-.68,1.49,1.49,0,0,0-.53-.44,1.38,1.38,0,0,0-.67-.16,1.53,1.53,0,0,0-.64.14,1.43,1.43,0,0,0-.52.39,1.81,1.81,0,0,0-.35.59,2.27,2.27,0,0,0-.12.75,2.43,2.43,0,0,0,.12.79,1.6,1.6,0,0,0,.34.6,1.58,1.58,0,0,0,.54.37,1.7,1.7,0,0,0,.69.13,1.69,1.69,0,0,0,1.15-.47,1.58,1.58,0,0,0,.34-.5A1.61,1.61,0,0,0,240.34,33.43Z" fill="#1e1e1e"/>
      <path d="M246.24,32.8a1.71,1.71,0,0,0-.12-.67,1.37,1.37,0,0,0-.33-.48,1.26,1.26,0,0,0-.49-.28,1.74,1.74,0,0,0-.61-.1,2,2,0,0,0-.55.08,2.57,2.57,0,0,0-.52.21,3.84,3.84,0,0,0-.5.32,5.77,5.77,0,0,0-.44.42v-1a2.58,2.58,0,0,1,.91-.6,3.14,3.14,0,0,1,1.22-.21,2.91,2.91,0,0,1,.95.15,2.23,2.23,0,0,1,.77.43,2.12,2.12,0,0,1,.5.71,2.3,2.3,0,0,1,.19,1,3.16,3.16,0,0,1-.12.9,2.6,2.6,0,0,1-.34.76,3.73,3.73,0,0,1-.59.69,8.71,8.71,0,0,1-.82.67c-.4.28-.72.52-1,.72a4.3,4.3,0,0,0-.61.56,1.59,1.59,0,0,0-.31.52,1.8,1.8,0,0,0-.09.6h4.18V39h-5.19v-.42a3.35,3.35,0,0,1,.12-.94,2.38,2.38,0,0,1,.39-.78,4,4,0,0,1,.7-.74c.29-.25.65-.53,1.07-.83a6.87,6.87,0,0,0,.77-.63,3.23,3.23,0,0,0,.49-.6,2,2,0,0,0,.27-.6A2.84,2.84,0,0,0,246.24,32.8Z" fill="#1e1e1e"/>
      <path d="M249.45,39.13a.62.62,0,0,1-.46-.19.64.64,0,0,1-.19-.47A.62.62,0,0,1,249,38a.63.63,0,0,1,.46-.2.65.65,0,0,1,.47.2.62.62,0,0,1,.19.46.65.65,0,0,1-.66.66Z" fill="#1e1e1e"/>
      <path d="M253.93,39h-1V31.74a2.72,2.72,0,0,1-.33.26,5.1,5.1,0,0,1-.48.28c-.18.09-.36.18-.56.26a3.63,3.63,0,0,1-.58.2v-1a4.1,4.1,0,0,0,.67-.23,6.44,6.44,0,0,0,.7-.34c.23-.12.44-.25.65-.38a5,5,0,0,0,.52-.4h.37Z" fill="#1e1e1e"/>
      <path d="M261.53,36.33a3,3,0,0,1-.2,1.14,2.62,2.62,0,0,1-.55.89,2.38,2.38,0,0,1-.84.58,2.59,2.59,0,0,1-1.05.21,2.33,2.33,0,0,1-1.13-.27,2.26,2.26,0,0,1-.85-.75,3.61,3.61,0,0,1-.53-1.21,6.21,6.21,0,0,1-.19-1.62,7.68,7.68,0,0,1,.25-2,4.73,4.73,0,0,1,.69-1.52,3.17,3.17,0,0,1,1.08-1,2.88,2.88,0,0,1,1.41-.34,3.42,3.42,0,0,1,1.4.24v.91a2.9,2.9,0,0,0-1.37-.34,2.14,2.14,0,0,0-1,.25,2.29,2.29,0,0,0-.77.72,3.34,3.34,0,0,0-.5,1.11,5.8,5.8,0,0,0-.17,1.44h0a2,2,0,0,1,1.92-1,2.57,2.57,0,0,1,1,.18,2.17,2.17,0,0,1,.76.53,2.31,2.31,0,0,1,.48.82A3,3,0,0,1,261.53,36.33Zm-1,.13a2.74,2.74,0,0,0-.11-.79,1.71,1.71,0,0,0-.32-.6,1.43,1.43,0,0,0-.52-.38,1.67,1.67,0,0,0-.69-.13,1.59,1.59,0,0,0-.66.13,1.8,1.8,0,0,0-.53.37,1.66,1.66,0,0,0-.34.54,1.57,1.57,0,0,0-.13.65,2.64,2.64,0,0,0,.12.81,1.89,1.89,0,0,0,.35.66,1.63,1.63,0,0,0,.53.45,1.51,1.51,0,0,0,.68.16,1.59,1.59,0,0,0,.66-.14,1.48,1.48,0,0,0,.51-.38,1.88,1.88,0,0,0,.33-.59A2.29,2.29,0,0,0,260.55,36.46Z" fill="#1e1e1e"/>
      <path d="M262.58,36.66a2.19,2.19,0,0,1,.11-.67,2.29,2.29,0,0,1,.3-.63,2.45,2.45,0,0,1,.48-.54,2.7,2.7,0,0,1,.66-.38,2.4,2.4,0,0,1-.86-.78,1.82,1.82,0,0,1-.33-1.06,2,2,0,0,1,.18-.85,2.1,2.1,0,0,1,.5-.68,2.34,2.34,0,0,1,.75-.45,2.84,2.84,0,0,1,1.88,0,2.34,2.34,0,0,1,.75.45,2.08,2.08,0,0,1,.49.68,2,2,0,0,1,.18.85,1.82,1.82,0,0,1-.33,1.06,2.46,2.46,0,0,1-.85.78,2.35,2.35,0,0,1,1.13.92,2.29,2.29,0,0,1,.3.63,1.92,1.92,0,0,1,.11.67,2.6,2.6,0,0,1-.2,1,2.29,2.29,0,0,1-.56.78,2.7,2.7,0,0,1-.86.5,3.28,3.28,0,0,1-2.2,0,2.7,2.7,0,0,1-.86-.5,2.46,2.46,0,0,1-.57-.78A2.6,2.6,0,0,1,262.58,36.66Zm1-.08a1.94,1.94,0,0,0,.12.7,1.56,1.56,0,0,0,.34.54,1.53,1.53,0,0,0,.54.35,1.92,1.92,0,0,0,.69.12,1.68,1.68,0,0,0,.68-.13,1.5,1.5,0,0,0,.54-.34,1.68,1.68,0,0,0,.35-.54,2,2,0,0,0,.12-.7,1.76,1.76,0,0,0-.12-.66,1.64,1.64,0,0,0-.34-.55A1.68,1.68,0,0,0,266,35a1.94,1.94,0,0,0-.7-.13,1.67,1.67,0,0,0-.67.13,1.58,1.58,0,0,0-.53.35,1.7,1.7,0,0,0-.36.54A1.93,1.93,0,0,0,263.62,36.58Zm.3-3.9a1.42,1.42,0,0,0,.11.55,1.37,1.37,0,0,0,.3.45,1.71,1.71,0,0,0,.44.3,1.4,1.4,0,0,0,.54.1,1.24,1.24,0,0,0,.54-.11,1.37,1.37,0,0,0,.45-.3,1.46,1.46,0,0,0,.29-.44,1.3,1.3,0,0,0,.12-.55,1.47,1.47,0,0,0-.11-.56,1.27,1.27,0,0,0-.3-.45,1.35,1.35,0,0,0-.44-.29,1.26,1.26,0,0,0-.55-.11,1.27,1.27,0,0,0-.56.11,1.23,1.23,0,0,0-.44.3,1.34,1.34,0,0,0-.29.45A1.63,1.63,0,0,0,263.92,32.68Z" fill="#1e1e1e"/>
      <path d="M269.92,39.13a.62.62,0,0,1-.46-.19.68.68,0,0,1-.19-.47.66.66,0,0,1,.19-.46.67.67,0,0,1,1.13.46.65.65,0,0,1-.2.47A.63.63,0,0,1,269.92,39.13Z" fill="#1e1e1e"/>
      <path d="M276,32.8a1.71,1.71,0,0,0-.12-.67,1.37,1.37,0,0,0-.33-.48,1.26,1.26,0,0,0-.49-.28,1.74,1.74,0,0,0-.61-.1,2,2,0,0,0-.55.08,2.57,2.57,0,0,0-.52.21,3.17,3.17,0,0,0-.49.32,4.47,4.47,0,0,0-.45.42v-1a2.58,2.58,0,0,1,.91-.6,3.14,3.14,0,0,1,1.22-.21,2.91,2.91,0,0,1,.95.15,2.23,2.23,0,0,1,.77.43,2.12,2.12,0,0,1,.5.71,2.3,2.3,0,0,1,.19,1,3.16,3.16,0,0,1-.12.9,2.6,2.6,0,0,1-.34.76,3.73,3.73,0,0,1-.59.69,7.58,7.58,0,0,1-.82.67c-.4.28-.72.52-1,.72a4.3,4.3,0,0,0-.61.56,1.59,1.59,0,0,0-.31.52,1.8,1.8,0,0,0-.09.6h4.18V39H272.1v-.42a3.35,3.35,0,0,1,.12-.94,2.38,2.38,0,0,1,.39-.78,4,4,0,0,1,.7-.74c.3-.25.65-.53,1.07-.83a6.87,6.87,0,0,0,.77-.63,3.23,3.23,0,0,0,.49-.6,2,2,0,0,0,.27-.6A2.84,2.84,0,0,0,276,32.8Z" fill="#1e1e1e"/>
      <path d="M279.2,39.13a.62.62,0,0,1-.46-.19.64.64,0,0,1-.19-.47.62.62,0,0,1,.19-.46.63.63,0,0,1,.46-.2.65.65,0,0,1,.47.2.62.62,0,0,1,.19.46.65.65,0,0,1-.66.66Z" fill="#1e1e1e"/>
      <path d="M286.22,36.43a2.87,2.87,0,0,1-.21,1.12,2.35,2.35,0,0,1-.6.85,2.51,2.51,0,0,1-.94.55,3.59,3.59,0,0,1-1.22.2,3.44,3.44,0,0,1-1.74-.35v-1a3.25,3.25,0,0,0,1.75.55,2.35,2.35,0,0,0,.82-.14,1.78,1.78,0,0,0,.63-.37,1.65,1.65,0,0,0,.39-.58,2,2,0,0,0,.14-.75,1.58,1.58,0,0,0-.55-1.28,2.42,2.42,0,0,0-1.6-.47h-.73l-.37,0-.32,0L282,30.6h3.89v.87h-3l-.17,2.46.39,0h.38a3.67,3.67,0,0,1,1.19.18,2.53,2.53,0,0,1,.9.5,2,2,0,0,1,.55.8A2.69,2.69,0,0,1,286.22,36.43Z" fill="#1e1e1e"/>
      <path d="M292.86,34.76a8,8,0,0,1-.19,1.87,4.47,4.47,0,0,1-.55,1.38,2.57,2.57,0,0,1-.89.85,2.44,2.44,0,0,1-1.19.29,2.34,2.34,0,0,1-1.13-.28,2.38,2.38,0,0,1-.83-.81,4.12,4.12,0,0,1-.52-1.31,8.61,8.61,0,0,1-.17-1.78,9.52,9.52,0,0,1,.18-1.95,4.56,4.56,0,0,1,.54-1.41,2.36,2.36,0,0,1,2.11-1.15Q292.86,30.46,292.86,34.76Zm-1,.1c0-2.39-.57-3.59-1.71-3.59s-1.8,1.22-1.8,3.65c0,2.27.59,3.41,1.76,3.41S291.88,37.17,291.88,34.86Z" fill="#1e1e1e"/>
    </g>
    <g>
      <path d="M216.65,120.89l-2.22,8.4h-2.1l-1.4-5.39a4.44,4.44,0,0,1-.13-.94h0a5.85,5.85,0,0,1-.16.94l-1.43,5.39H207l-2.21-8.4h2.07l1.18,5.59a6.4,6.4,0,0,1,.11,1h0a4.12,4.12,0,0,1,.17-1l1.52-5.57h2l1.37,5.64a5.72,5.72,0,0,1,.14.9h0a6.24,6.24,0,0,1,.13-.94l1.16-5.6Z" fill="#1e1e1e"/>
      <path d="M220,129.44a3.23,3.23,0,0,1-2.36-.84,3.49,3.49,0,0,1,0-4.62,3.38,3.38,0,0,1,2.41-.84,3.2,3.2,0,0,1,2.35.84,3,3,0,0,1,.84,2.23,3.19,3.19,0,0,1-.87,2.36A3.26,3.26,0,0,1,220,129.44Zm0-4.88a1.23,1.23,0,0,0-1,.45,2,2,0,0,0-.37,1.28c0,1.15.47,1.73,1.4,1.73s1.33-.59,1.33-1.78S221,124.56,220.07,124.56Z" fill="#1e1e1e"/>
      <path d="M228.4,125a1.61,1.61,0,0,0-.78-.18,1.14,1.14,0,0,0-.94.44,1.92,1.92,0,0,0-.34,1.2v2.87h-1.85v-6h1.85v1.11h0a1.61,1.61,0,0,1,1.59-1.22,1.32,1.32,0,0,1,.45.07Z" fill="#1e1e1e"/>
      <path d="M235.28,129.29h-2.23l-1.91-3h0v3h-1.86v-8.88h1.86v5.65h0l1.79-2.77h2.19L233,126.11Z" fill="#1e1e1e"/>
      <path d="M237.9,129.29h-1.85v-8.88h1.85Z" fill="#1e1e1e"/>
      <path d="M242.32,129.44a3.23,3.23,0,0,1-2.36-.84,3.49,3.49,0,0,1,0-4.62,3.37,3.37,0,0,1,2.41-.84,3.18,3.18,0,0,1,2.34.84,3,3,0,0,1,.85,2.23,3.19,3.19,0,0,1-.87,2.36A3.27,3.27,0,0,1,242.32,129.44Zm0-4.88a1.26,1.26,0,0,0-1,.45,2,2,0,0,0-.36,1.28c0,1.15.47,1.73,1.4,1.73s1.33-.59,1.33-1.78S243.26,124.56,242.36,124.56Z" fill="#1e1e1e"/>
      <path d="M251.79,129.29H250v-.86h0a2,2,0,0,1-1.79,1,1.86,1.86,0,0,1-1.37-.5,1.75,1.75,0,0,1-.5-1.32c0-1.16.69-1.84,2.07-2l1.62-.21c0-.66-.35-1-1.06-1a3.67,3.67,0,0,0-2,.64v-1.39a4.22,4.22,0,0,1,1.06-.35,5.05,5.05,0,0,1,1.22-.16,2.27,2.27,0,0,1,2.57,2.56ZM250,126.85v-.4l-1.08.14c-.61.08-.91.35-.91.81a.69.69,0,0,0,.22.52.84.84,0,0,0,.6.2,1.11,1.11,0,0,0,.85-.36A1.28,1.28,0,0,0,250,126.85Z" fill="#1e1e1e"/>
      <path d="M259.15,129.29H257.3v-.83h0a2.07,2.07,0,0,1-1.85,1,2.27,2.27,0,0,1-1.81-.8,3.28,3.28,0,0,1-.69-2.22,3.54,3.54,0,0,1,.76-2.38,2.45,2.45,0,0,1,2-.9,1.67,1.67,0,0,1,1.61.84h0v-3.57h1.85Zm-1.82-2.92v-.45a1.4,1.4,0,0,0-.34-1,1.1,1.1,0,0,0-.88-.39,1.12,1.12,0,0,0-1,.48,2.28,2.28,0,0,0-.35,1.33,1.89,1.89,0,0,0,.34,1.22,1.09,1.09,0,0,0,.92.43,1.12,1.12,0,0,0,.92-.45A1.92,1.92,0,0,0,257.33,126.37Z" fill="#1e1e1e"/>
      <path d="M271.2,120.89l-2.9,8.4h-2.14l-2.86-8.4h2l1.75,5.84a4.62,4.62,0,0,1,.17.84h0a4.49,4.49,0,0,1,.19-.86l1.74-5.82Z" fill="#1e1e1e"/>
      <path d="M281.71,129.29h-1.87v-5c0-.54,0-1.14.07-1.8h-.05a7.63,7.63,0,0,1-.26,1.12l-2,5.71h-1.55l-2-5.65c-.05-.16-.14-.55-.26-1.18h-.06c.06.83.08,1.56.08,2.18v4.65h-1.7v-8.4h2.77l1.71,5a6.58,6.58,0,0,1,.3,1.2h0a9.76,9.76,0,0,1,.33-1.21l1.72-5h2.7Z" fill="#1e1e1e"/>
      <path d="M295.44,123.29l-1.73,6h-1.95l-.88-3.52a3.58,3.58,0,0,1-.1-.76h0a5,5,0,0,1-.12.74l-.95,3.54h-1.92l-1.7-6H288l.83,3.91a5.37,5.37,0,0,1,.08.67h0a3.92,3.92,0,0,1,.1-.69l1-3.89h1.76l.93,3.91c0,.1,0,.33.08.68h0c0-.22,0-.45.09-.68l.78-3.91Z" fill="#1e1e1e"/>
      <path d="M297.24,122.34a1.05,1.05,0,0,1-.76-.28.88.88,0,0,1-.3-.68.87.87,0,0,1,.3-.68,1.26,1.26,0,0,1,1.53,0,.87.87,0,0,1,.3.68.89.89,0,0,1-.3.69A1.08,1.08,0,0,1,297.24,122.34Zm.92,6.95h-1.85v-6h1.85Z" fill="#1e1e1e"/>
      <path d="M303.26,129.22a2.83,2.83,0,0,1-1.24.22c-1.3,0-2-.68-2-2v-2.75h-1v-1.36h1V122l1.85-.52v1.82h1.35v1.36h-1.35v2.43c0,.63.25.94.74.94a1.31,1.31,0,0,0,.61-.17Z" fill="#1e1e1e"/>
      <path d="M310.18,129.29h-1.84v-3.41q0-1.32-1-1.32a1,1,0,0,0-.8.37,1.46,1.46,0,0,0-.31.94v3.42h-1.85v-8.88h1.85v3.77h0a2.11,2.11,0,0,1,1.84-1q2,0,2,2.46Z" fill="#1e1e1e"/>
      <path d="M324.48,129.29h-1.84v-3.42c0-.87-.32-1.31-1-1.31a.9.9,0,0,0-.75.39,1.64,1.64,0,0,0-.28,1v3.36h-1.86v-3.46c0-.85-.31-1.27-.94-1.27a.92.92,0,0,0-.76.38,1.65,1.65,0,0,0-.28,1v3.33H315v-6h1.85v.94h0a2.27,2.27,0,0,1,.81-.79,2.2,2.2,0,0,1,1.13-.3,1.73,1.73,0,0,1,1.74,1.12,2.24,2.24,0,0,1,2-1.12c1.3,0,2,.81,2,2.42Z" fill="#1e1e1e"/>
      <path d="M331.66,129.29h-1.84v-.91h0a2.12,2.12,0,0,1-1.84,1.06c-1.39,0-2.08-.85-2.08-2.53v-3.62h1.84v3.46c0,.84.34,1.27,1,1.27a1,1,0,0,0,.8-.35,1.41,1.41,0,0,0,.3-1v-3.43h1.84Z" fill="#1e1e1e"/>
      <path d="M335,129.29h-1.85v-8.88H335Z" fill="#1e1e1e"/>
      <path d="M340.18,129.22a2.75,2.75,0,0,1-1.23.22c-1.31,0-2-.68-2-2v-2.75h-1v-1.36h1V122l1.85-.52v1.82h1.34v1.36h-1.34v2.43c0,.63.24.94.74.94a1.24,1.24,0,0,0,.6-.17Z" fill="#1e1e1e"/>
      <path d="M342.23,122.34a1.07,1.07,0,0,1-.77-.28.87.87,0,0,1-.29-.68.86.86,0,0,1,.29-.68,1.11,1.11,0,0,1,.77-.26,1.09,1.09,0,0,1,.77.26.87.87,0,0,1,.3.68.89.89,0,0,1-.3.69A1.1,1.1,0,0,1,342.23,122.34Zm.92,6.95h-1.86v-6h1.86Z" fill="#1e1e1e"/>
      <path d="M346.56,128.59h0v3.46h-1.85v-8.76h1.85v.9h0a2.17,2.17,0,0,1,1.93-1,2.19,2.19,0,0,1,1.8.8,3.45,3.45,0,0,1,.63,2.18,3.67,3.67,0,0,1-.74,2.41,2.43,2.43,0,0,1-2,.91A1.88,1.88,0,0,1,346.56,128.59Zm-.06-2.46v.48a1.54,1.54,0,0,0,.33,1,1.08,1.08,0,0,0,.86.39,1.17,1.17,0,0,0,1-.49,2.4,2.4,0,0,0,.34-1.39c0-1-.41-1.58-1.23-1.58a1.14,1.14,0,0,0-.92.43A1.73,1.73,0,0,0,346.5,126.13Z" fill="#1e1e1e"/>
      <path d="M354,129.29h-1.85v-8.88H354Z" fill="#1e1e1e"/>
      <path d="M361,126.82h-3.91c.06.87.61,1.3,1.65,1.3a3.15,3.15,0,0,0,1.74-.47V129a4.57,4.57,0,0,1-2.17.45,2.79,2.79,0,0,1-3-3.06,3.19,3.19,0,0,1,.86-2.36,2.87,2.87,0,0,1,2.14-.88,2.63,2.63,0,0,1,2,.78A3.05,3.05,0,0,1,361,126Zm-1.71-1.14q0-1.29-1.05-1.29a1,1,0,0,0-.77.37,1.67,1.67,0,0,0-.39.92Z" fill="#1e1e1e"/>
      <path d="M373.13,129.29h-1.91L367.75,124c-.2-.31-.34-.54-.42-.7h0c0,.3,0,.75,0,1.36v4.62h-1.78v-8.4h2l3.33,5.11q.22.34.42.69h0a7.51,7.51,0,0,1-.05-1.16v-4.64h1.79Z" fill="#1e1e1e"/>
      <path d="M376.85,129.29H375v-8.4h1.9Z" fill="#1e1e1e"/>
      <path d="M384.76,129a5.54,5.54,0,0,1-2.41.45,4.06,4.06,0,0,1-3-1.14,4.19,4.19,0,0,1-1.1-3,4.45,4.45,0,0,1,1.24-3.27,4.34,4.34,0,0,1,3.23-1.25,6,6,0,0,1,2.08.31v1.82a3.68,3.68,0,0,0-1.93-.5,2.55,2.55,0,0,0-1.91.74,2.79,2.79,0,0,0-.72,2,2.73,2.73,0,0,0,.68,1.94,2.45,2.45,0,0,0,1.85.72,4,4,0,0,0,2-.54Z" fill="#1e1e1e"/>
      <path d="M385.69,129.13v-1.5a4.27,4.27,0,0,0,.91.41,3.08,3.08,0,0,0,.86.14,1.84,1.84,0,0,0,.78-.14.43.43,0,0,0,.28-.41.36.36,0,0,0-.13-.29,1,1,0,0,0-.33-.21,2.52,2.52,0,0,0-.44-.15c-.16,0-.32-.1-.46-.16a4.68,4.68,0,0,1-.63-.29,1.94,1.94,0,0,1-.46-.36,1.44,1.44,0,0,1-.28-.48,1.76,1.76,0,0,1-.1-.64,1.6,1.6,0,0,1,.22-.86,1.78,1.78,0,0,1,.59-.6,2.68,2.68,0,0,1,.83-.34,4.62,4.62,0,0,1,1-.11,5.73,5.73,0,0,1,.81.06c.27,0,.54.11.8.18v1.43a2.74,2.74,0,0,0-.75-.3,3.13,3.13,0,0,0-.79-.11,1.27,1.27,0,0,0-.34,0,1,1,0,0,0-.28.09.46.46,0,0,0-.2.16.38.38,0,0,0-.07.22.41.41,0,0,0,.11.28,1,1,0,0,0,.27.2,2.15,2.15,0,0,0,.38.15l.41.14a6.16,6.16,0,0,1,.67.28,1.94,1.94,0,0,1,.51.36,1.29,1.29,0,0,1,.33.48,1.62,1.62,0,0,1,.12.66,1.78,1.78,0,0,1-.23.91,1.9,1.9,0,0,1-.62.61,2.75,2.75,0,0,1-.88.35,5.17,5.17,0,0,1-1,.11A5.46,5.46,0,0,1,385.69,129.13Z" fill="#1e1e1e"/>
    </g>
    <g>
      <path d="M206.78,142.17v3.17h-1v-8.4h2.31a3,3,0,0,1,2.09.66,2.31,2.31,0,0,1,.74,1.85,2.54,2.54,0,0,1-.82,2,3.18,3.18,0,0,1-2.22.76Zm0-4.34v3.45h1a2.33,2.33,0,0,0,1.56-.47,1.67,1.67,0,0,0,.53-1.31c0-1.11-.65-1.67-2-1.67Z" fill="#1e1e1e"/>
      <path d="M217.13,145.34h-1v-1h0a2,2,0,0,1-1.85,1.09c-1.43,0-2.14-.85-2.14-2.55v-3.59h.95v3.44c0,1.26.49,1.89,1.46,1.89a1.46,1.46,0,0,0,1.15-.51,2,2,0,0,0,.46-1.36v-3.46h1Z" fill="#1e1e1e"/>
      <path d="M219.93,144.48h0v.86h-1v-8.88h1v3.94h0a2.26,2.26,0,0,1,2.07-1.2,2.19,2.19,0,0,1,1.81.81,3.28,3.28,0,0,1,.65,2.16,3.72,3.72,0,0,1-.73,2.41,2.44,2.44,0,0,1-2,.9A2,2,0,0,1,219.93,144.48Zm0-2.42v.83a1.81,1.81,0,0,0,.48,1.27A1.75,1.75,0,0,0,223,144a3.09,3.09,0,0,0,.49-1.86,2.41,2.41,0,0,0-.46-1.57,1.54,1.54,0,0,0-1.26-.57,1.72,1.72,0,0,0-1.34.58A2.16,2.16,0,0,0,219.91,142.06Z" fill="#1e1e1e"/>
      <path d="M226.92,145.34h-1v-8.88h1Z" fill="#1e1e1e"/>
      <path d="M229.23,137.82a.6.6,0,0,1-.44-.18.57.57,0,0,1-.18-.44.61.61,0,0,1,.18-.45.6.6,0,0,1,.44-.18.62.62,0,0,1,.63.63.6.6,0,0,1-.18.44A.61.61,0,0,1,229.23,137.82Zm.47,7.52h-1v-6h1Z" fill="#1e1e1e"/>
      <path d="M235.63,145.07a3.17,3.17,0,0,1-1.64.41,2.71,2.71,0,0,1-2.07-.83,3.06,3.06,0,0,1-.79-2.17,3.36,3.36,0,0,1,.85-2.38,3,3,0,0,1,2.27-.9,3.06,3.06,0,0,1,1.39.3v1a2.45,2.45,0,0,0-1.43-.47,1.91,1.91,0,0,0-1.5.66,2.47,2.47,0,0,0-.59,1.73,2.4,2.4,0,0,0,.55,1.67,1.94,1.94,0,0,0,1.49.6,2.38,2.38,0,0,0,1.47-.52Z" fill="#1e1e1e"/>
      <path d="M241.49,145.34h-1v-8.4h1Z" fill="#1e1e1e"/>
      <path d="M244.56,142.17v3.17h-1v-8.4h2.31a3,3,0,0,1,2.09.66,2.34,2.34,0,0,1,.74,1.85,2.54,2.54,0,0,1-.82,2,3.18,3.18,0,0,1-2.22.76Zm0-4.34v3.45h1a2.28,2.28,0,0,0,1.55-.47,1.64,1.64,0,0,0,.54-1.31c0-1.11-.66-1.67-2-1.67Z" fill="#1e1e1e"/>
      <path d="M256.52,142.38h-3.2v-.76h3.2Z" fill="#1e1e1e"/>
      <path d="M264.81,145.34h-1v-7.26a2.72,2.72,0,0,1-.33.26,5.1,5.1,0,0,1-.48.28c-.18.1-.36.18-.56.27a4.89,4.89,0,0,1-.58.19v-1a5.46,5.46,0,0,0,.67-.24c.24-.1.47-.21.7-.33l.65-.39a5,5,0,0,0,.52-.4h.37Z" fill="#1e1e1e"/>
      <path d="M272.5,141.11a8.75,8.75,0,0,1-.19,1.87,4.18,4.18,0,0,1-.56,1.37,2.34,2.34,0,0,1-2.07,1.14,2.23,2.23,0,0,1-1.13-.28,2.4,2.4,0,0,1-.84-.81,4.37,4.37,0,0,1-.51-1.31,7.93,7.93,0,0,1-.18-1.78,8.67,8.67,0,0,1,.19-1.94,4.3,4.3,0,0,1,.54-1.42,2.36,2.36,0,0,1,.89-.86,2.52,2.52,0,0,1,1.21-.29Q272.51,136.8,272.5,141.11Zm-1,.09c0-2.39-.57-3.59-1.7-3.59s-1.8,1.22-1.8,3.65c0,2.27.59,3.41,1.76,3.41S271.51,143.51,271.51,141.2Z" fill="#1e1e1e"/>
      <path d="M274.2,145.47a.65.65,0,0,1-.65-.65.64.64,0,0,1,.19-.47.63.63,0,0,1,.46-.2.65.65,0,0,1,.47.2.64.64,0,0,1,.19.47.62.62,0,0,1-.19.46A.64.64,0,0,1,274.2,145.47Z" fill="#1e1e1e"/>
      <path d="M281.29,143a2.51,2.51,0,0,1-.22,1,2.22,2.22,0,0,1-.6.79,2.6,2.6,0,0,1-.94.52,3.78,3.78,0,0,1-1.2.18,3.44,3.44,0,0,1-1.91-.46v-1a3.06,3.06,0,0,0,1.95.67,2.79,2.79,0,0,0,.79-.11,1.86,1.86,0,0,0,.61-.32,1.58,1.58,0,0,0,.39-.51,1.65,1.65,0,0,0,.14-.68c0-1.1-.78-1.64-2.34-1.64h-.7v-.82h.66c1.38,0,2.08-.51,2.08-1.55s-.53-1.43-1.59-1.43a2.7,2.7,0,0,0-1.67.6v-.93a3.69,3.69,0,0,1,1.91-.48,2.89,2.89,0,0,1,1,.15,2,2,0,0,1,.73.41,1.74,1.74,0,0,1,.47.63,2,2,0,0,1,.17.81,2.06,2.06,0,0,1-1.68,2.14v0a2.62,2.62,0,0,1,.8.21,2.12,2.12,0,0,1,.62.42,1.81,1.81,0,0,1,.42.6A2,2,0,0,1,281.29,143Z" fill="#1e1e1e"/>
      <path d="M287.43,143a2.36,2.36,0,0,1-.22,1,2.22,2.22,0,0,1-.6.79,2.64,2.64,0,0,1-.93.52,3.87,3.87,0,0,1-1.2.18,3.42,3.42,0,0,1-1.91-.46v-1a3,3,0,0,0,1.94.67,2.74,2.74,0,0,0,.79-.11,1.86,1.86,0,0,0,.61-.32,1.77,1.77,0,0,0,.4-.51,1.65,1.65,0,0,0,.13-.68c0-1.1-.78-1.64-2.34-1.64h-.7v-.82h.67c1.38,0,2.07-.51,2.07-1.55s-.53-1.43-1.58-1.43a2.68,2.68,0,0,0-1.67.6v-.93a3.64,3.64,0,0,1,1.91-.48,2.83,2.83,0,0,1,.95.15,2.05,2.05,0,0,1,.74.41,1.74,1.74,0,0,1,.47.63,2,2,0,0,1,.16.81,2.05,2.05,0,0,1-1.67,2.14v0a2.56,2.56,0,0,1,.79.21,2.31,2.31,0,0,1,.63.42,1.94,1.94,0,0,1,.41.6A2,2,0,0,1,287.43,143Z" fill="#1e1e1e"/>
      <path d="M289.49,145.47a.65.65,0,0,1-.65-.65.64.64,0,0,1,.19-.47.63.63,0,0,1,.46-.2.65.65,0,0,1,.47.2.64.64,0,0,1,.19.47.62.62,0,0,1-.19.46A.64.64,0,0,1,289.49,145.47Z" fill="#1e1e1e"/>
      <path d="M294,145.34h-1v-7.26a2.72,2.72,0,0,1-.33.26,5.1,5.1,0,0,1-.48.28c-.18.1-.36.18-.56.27a4.89,4.89,0,0,1-.58.19v-1a5.46,5.46,0,0,0,.67-.24c.24-.1.47-.21.7-.33l.65-.39a5,5,0,0,0,.52-.4H294Z" fill="#1e1e1e"/>
      <path d="M300.57,136.94v5.55h1.08v.88h-1.08v2h-.95v-2h-3.95v-.83c.37-.42.74-.86,1.11-1.33s.74-1,1.08-1.43.66-1,.95-1.45a14.55,14.55,0,0,0,.73-1.39Zm-3.82,5.55h2.87v-4.11c-.29.51-.57,1-.83,1.37s-.51.76-.75,1.09-.46.63-.68.89Z" fill="#1e1e1e"/>
      <path d="M307.4,143a2.51,2.51,0,0,1-.21,1,2.36,2.36,0,0,1-.61.79,2.64,2.64,0,0,1-.93.52,3.87,3.87,0,0,1-1.2.18,3.44,3.44,0,0,1-1.91-.46v-1a3,3,0,0,0,1.94.67,2.86,2.86,0,0,0,.8-.11,1.91,1.91,0,0,0,.6-.32,1.61,1.61,0,0,0,.4-.51,1.65,1.65,0,0,0,.14-.68c0-1.1-.79-1.64-2.35-1.64h-.7v-.82H304c1.38,0,2.07-.51,2.07-1.55s-.53-1.43-1.58-1.43a2.68,2.68,0,0,0-1.67.6v-.93a3.64,3.64,0,0,1,1.91-.48,2.83,2.83,0,0,1,1,.15,2.05,2.05,0,0,1,.74.41,1.74,1.74,0,0,1,.47.63,2,2,0,0,1,.16.81,2.05,2.05,0,0,1-1.67,2.14v0a2.56,2.56,0,0,1,.79.21,2.31,2.31,0,0,1,.63.42,1.94,1.94,0,0,1,.41.6A2,2,0,0,1,307.4,143Z" fill="#1e1e1e"/>
      <path d="M309.46,145.47a.65.65,0,0,1-.65-.65.64.64,0,0,1,.19-.47.63.63,0,0,1,.46-.2.65.65,0,0,1,.47.2.64.64,0,0,1,.19.47.62.62,0,0,1-.19.46A.64.64,0,0,1,309.46,145.47Z" fill="#1e1e1e"/>
      <path d="M316.54,143a2.51,2.51,0,0,1-.21,1,2.22,2.22,0,0,1-.6.79,2.6,2.6,0,0,1-.94.52,3.78,3.78,0,0,1-1.2.18,3.44,3.44,0,0,1-1.91-.46v-1a3.06,3.06,0,0,0,1.95.67,2.79,2.79,0,0,0,.79-.11,1.86,1.86,0,0,0,.61-.32,1.58,1.58,0,0,0,.39-.51,1.65,1.65,0,0,0,.14-.68c0-1.1-.78-1.64-2.34-1.64h-.7v-.82h.66c1.38,0,2.07-.51,2.07-1.55s-.52-1.43-1.58-1.43a2.7,2.7,0,0,0-1.67.6v-.93a3.66,3.66,0,0,1,1.91-.48,2.93,2.93,0,0,1,1,.15,2,2,0,0,1,.73.41,1.74,1.74,0,0,1,.47.63,2,2,0,0,1,.17.81,2.06,2.06,0,0,1-1.68,2.14v0a2.49,2.49,0,0,1,.79.21,2,2,0,0,1,.63.42,1.78,1.78,0,0,1,.41.6A2,2,0,0,1,316.54,143Z" fill="#1e1e1e"/>
      <path d="M322.69,142.78a2.82,2.82,0,0,1-.21,1.11,2.47,2.47,0,0,1-.6.86,2.81,2.81,0,0,1-.94.55,3.9,3.9,0,0,1-1.22.19,3.44,3.44,0,0,1-1.74-.35v-1a3.16,3.16,0,0,0,1.75.55,2.35,2.35,0,0,0,.82-.14,1.87,1.87,0,0,0,.63-.37,1.56,1.56,0,0,0,.39-.58,2,2,0,0,0,.14-.75,1.58,1.58,0,0,0-.55-1.28,2.42,2.42,0,0,0-1.6-.47h-.73l-.37,0-.33,0,.29-4.21h3.89v.87h-3.06l-.17,2.46.4,0h.38a3.68,3.68,0,0,1,1.19.17,2.8,2.8,0,0,1,.9.5,2,2,0,0,1,.55.8A2.74,2.74,0,0,1,322.69,142.78Z" fill="#1e1e1e"/>
      <path d="M206.78,156.57v3.17h-1v-8.4h2.31a3,3,0,0,1,2.09.66,2.31,2.31,0,0,1,.74,1.85,2.54,2.54,0,0,1-.82,2,3.18,3.18,0,0,1-2.22.76Zm0-4.34v3.45h1a2.33,2.33,0,0,0,1.56-.47,1.67,1.67,0,0,0,.53-1.31c0-1.11-.65-1.67-2-1.67Z" fill="#1e1e1e"/>
      <path d="M217.13,159.74h-1v-1h0a2,2,0,0,1-1.85,1.09c-1.43,0-2.14-.85-2.14-2.55v-3.59h.95v3.44c0,1.26.49,1.89,1.46,1.89a1.46,1.46,0,0,0,1.15-.51,2,2,0,0,0,.46-1.36v-3.46h1Z" fill="#1e1e1e"/>
      <path d="M219.93,158.88h0v.86h-1v-8.88h1v3.94h0a2.26,2.26,0,0,1,2.07-1.2,2.19,2.19,0,0,1,1.81.81,3.28,3.28,0,0,1,.65,2.16,3.72,3.72,0,0,1-.73,2.41,2.44,2.44,0,0,1-2,.9A2,2,0,0,1,219.93,158.88Zm0-2.42v.83a1.81,1.81,0,0,0,.48,1.27,1.75,1.75,0,0,0,2.6-.15,3.09,3.09,0,0,0,.49-1.86A2.41,2.41,0,0,0,223,155a1.54,1.54,0,0,0-1.26-.57,1.69,1.69,0,0,0-1.34.58A2.16,2.16,0,0,0,219.91,156.46Z" fill="#1e1e1e"/>
      <path d="M226.92,159.74h-1v-8.88h1Z" fill="#1e1e1e"/>
      <path d="M229.23,152.22a.6.6,0,0,1-.44-.18.57.57,0,0,1-.18-.44.61.61,0,0,1,.18-.45.6.6,0,0,1,.44-.18.62.62,0,0,1,.63.63.6.6,0,0,1-.18.44A.61.61,0,0,1,229.23,152.22Zm.47,7.52h-1v-6h1Z" fill="#1e1e1e"/>
      <path d="M235.63,159.47a3.17,3.17,0,0,1-1.64.41,2.75,2.75,0,0,1-2.07-.83,3.06,3.06,0,0,1-.79-2.17,3.36,3.36,0,0,1,.85-2.38,3,3,0,0,1,2.27-.9,3.06,3.06,0,0,1,1.39.3v1a2.45,2.45,0,0,0-1.43-.47,1.91,1.91,0,0,0-1.5.66,2.47,2.47,0,0,0-.59,1.73,2.4,2.4,0,0,0,.55,1.67,1.94,1.94,0,0,0,1.49.6,2.38,2.38,0,0,0,1.47-.52Z" fill="#1e1e1e"/>
      <path d="M241.49,159.74h-1v-8.4h1Z" fill="#1e1e1e"/>
      <path d="M244.56,156.57v3.17h-1v-8.4h2.31A3,3,0,0,1,248,152a2.34,2.34,0,0,1,.74,1.85,2.54,2.54,0,0,1-.82,2,3.18,3.18,0,0,1-2.22.76Zm0-4.34v3.45h1a2.28,2.28,0,0,0,1.55-.47,1.64,1.64,0,0,0,.54-1.31c0-1.11-.66-1.67-2-1.67Z" fill="#1e1e1e"/>
      <path d="M256.52,156.78h-3.2V156h3.2Z" fill="#1e1e1e"/>
      <path d="M264.81,159.74h-1v-7.26a2.72,2.72,0,0,1-.33.26,5.1,5.1,0,0,1-.48.28c-.18.1-.36.18-.56.27a4.89,4.89,0,0,1-.58.19v-1a5.46,5.46,0,0,0,.67-.24c.24-.1.47-.21.7-.33l.65-.39a5,5,0,0,0,.52-.4h.37Z" fill="#1e1e1e"/>
      <path d="M272.5,155.51a8.75,8.75,0,0,1-.19,1.87,4.18,4.18,0,0,1-.56,1.37,2.34,2.34,0,0,1-2.07,1.14,2.23,2.23,0,0,1-1.13-.28,2.4,2.4,0,0,1-.84-.81,4.37,4.37,0,0,1-.51-1.31,7.93,7.93,0,0,1-.18-1.78,8.67,8.67,0,0,1,.19-1.94,4.3,4.3,0,0,1,.54-1.42,2.36,2.36,0,0,1,.89-.86,2.52,2.52,0,0,1,1.21-.29Q272.51,151.2,272.5,155.51Zm-1,.09c0-2.39-.57-3.59-1.7-3.59s-1.8,1.22-1.8,3.65c0,2.27.59,3.41,1.76,3.41S271.51,157.91,271.51,155.6Z" fill="#1e1e1e"/>
      <path d="M274.2,159.87a.65.65,0,0,1-.65-.65.64.64,0,0,1,.19-.47.63.63,0,0,1,.46-.2.65.65,0,0,1,.47.2.64.64,0,0,1,.19.47.62.62,0,0,1-.19.46A.64.64,0,0,1,274.2,159.87Z" fill="#1e1e1e"/>
      <path d="M281.29,157.36a2.51,2.51,0,0,1-.22,1,2.22,2.22,0,0,1-.6.79,2.6,2.6,0,0,1-.94.52,3.78,3.78,0,0,1-1.2.18,3.44,3.44,0,0,1-1.91-.46v-1a3.06,3.06,0,0,0,1.95.67,2.79,2.79,0,0,0,.79-.11,1.86,1.86,0,0,0,.61-.32,1.58,1.58,0,0,0,.39-.51,1.65,1.65,0,0,0,.14-.68c0-1.1-.78-1.64-2.34-1.64h-.7V155h.66c1.38,0,2.08-.51,2.08-1.55s-.53-1.43-1.59-1.43a2.7,2.7,0,0,0-1.67.6v-.93a3.69,3.69,0,0,1,1.91-.48,2.89,2.89,0,0,1,1,.15,2,2,0,0,1,.73.41,1.74,1.74,0,0,1,.47.63,2,2,0,0,1,.17.81,2.06,2.06,0,0,1-1.68,2.14v0a2.62,2.62,0,0,1,.8.21,1.94,1.94,0,0,1,.62.42,1.81,1.81,0,0,1,.42.6A2,2,0,0,1,281.29,157.36Z" fill="#1e1e1e"/>
      <path d="M287.43,157.36a2.36,2.36,0,0,1-.22,1,2.22,2.22,0,0,1-.6.79,2.64,2.64,0,0,1-.93.52,3.87,3.87,0,0,1-1.2.18,3.42,3.42,0,0,1-1.91-.46v-1a3,3,0,0,0,1.94.67,2.74,2.74,0,0,0,.79-.11,1.86,1.86,0,0,0,.61-.32,1.77,1.77,0,0,0,.4-.51,1.65,1.65,0,0,0,.13-.68c0-1.1-.78-1.64-2.34-1.64h-.7V155h.67c1.38,0,2.07-.51,2.07-1.55s-.53-1.43-1.58-1.43a2.68,2.68,0,0,0-1.67.6v-.93a3.64,3.64,0,0,1,1.91-.48,2.83,2.83,0,0,1,.95.15,2.05,2.05,0,0,1,.74.41,1.74,1.74,0,0,1,.47.63,2,2,0,0,1,.16.81,2.05,2.05,0,0,1-1.67,2.14v0a2.56,2.56,0,0,1,.79.21,2.1,2.1,0,0,1,.63.42,1.94,1.94,0,0,1,.41.6A2,2,0,0,1,287.43,157.36Z" fill="#1e1e1e"/>
      <path d="M289.49,159.87a.65.65,0,0,1-.65-.65.64.64,0,0,1,.19-.47.63.63,0,0,1,.46-.2.65.65,0,0,1,.47.2.64.64,0,0,1,.19.47.62.62,0,0,1-.19.46A.64.64,0,0,1,289.49,159.87Z" fill="#1e1e1e"/>
      <path d="M294,159.74h-1v-7.26a2.72,2.72,0,0,1-.33.26,5.1,5.1,0,0,1-.48.28c-.18.1-.36.18-.56.27a4.89,4.89,0,0,1-.58.19v-1a5.46,5.46,0,0,0,.67-.24c.24-.1.47-.21.7-.33l.65-.39a5,5,0,0,0,.52-.4H294Z" fill="#1e1e1e"/>
      <path d="M300.57,151.34v5.55h1.08v.88h-1.08v2h-.95v-2h-3.95v-.83c.37-.42.74-.86,1.11-1.33s.74-1,1.08-1.43.66-1,.95-1.45a14.55,14.55,0,0,0,.73-1.39Zm-3.82,5.55h2.87v-4.11c-.29.51-.57,1-.83,1.37s-.51.76-.75,1.09-.46.63-.68.89Z" fill="#1e1e1e"/>
      <path d="M307.34,151.34v5.55h1.07v.88h-1.07v2h-.95v-2h-3.95v-.83c.36-.42.74-.86,1.11-1.33s.73-1,1.08-1.43.65-1,.95-1.45a14.55,14.55,0,0,0,.73-1.39Zm-3.82,5.55h2.87v-4.11c-.3.51-.57,1-.84,1.37s-.51.76-.74,1.09-.46.63-.68.89Z" fill="#1e1e1e"/>
      <path d="M310.14,159.87a.65.65,0,0,1-.65-.65.64.64,0,0,1,.19-.47.64.64,0,0,1,.93,0,.64.64,0,0,1,.19.47.62.62,0,0,1-.19.46A.63.63,0,0,1,310.14,159.87Z" fill="#1e1e1e"/>
      <path d="M317.23,157.36a2.51,2.51,0,0,1-.22,1,2.22,2.22,0,0,1-.6.79,2.6,2.6,0,0,1-.94.52,3.78,3.78,0,0,1-1.2.18,3.44,3.44,0,0,1-1.91-.46v-1a3.06,3.06,0,0,0,1.95.67,2.74,2.74,0,0,0,.79-.11,1.86,1.86,0,0,0,.61-.32,1.58,1.58,0,0,0,.39-.51,1.51,1.51,0,0,0,.14-.68c0-1.1-.78-1.64-2.34-1.64h-.7V155h.66c1.39,0,2.08-.51,2.08-1.55s-.53-1.43-1.59-1.43a2.7,2.7,0,0,0-1.67.6v-.93a3.69,3.69,0,0,1,1.91-.48,2.89,2.89,0,0,1,1,.15,2,2,0,0,1,.73.41,1.63,1.63,0,0,1,.47.63,1.84,1.84,0,0,1,.17.81,2.06,2.06,0,0,1-1.67,2.14v0a2.64,2.64,0,0,1,.79.21,1.94,1.94,0,0,1,.62.42,1.81,1.81,0,0,1,.42.6A2,2,0,0,1,317.23,157.36Z" fill="#1e1e1e"/>
      <path d="M323.38,157.18a2.82,2.82,0,0,1-.22,1.11,2.47,2.47,0,0,1-.6.86,2.81,2.81,0,0,1-.94.55,3.86,3.86,0,0,1-1.22.19,3.44,3.44,0,0,1-1.74-.35v-1a3.16,3.16,0,0,0,1.75.55,2.35,2.35,0,0,0,.82-.14,1.78,1.78,0,0,0,.63-.37,1.56,1.56,0,0,0,.39-.58,2,2,0,0,0,.14-.75,1.58,1.58,0,0,0-.55-1.28,2.42,2.42,0,0,0-1.6-.47h-.73l-.37,0-.32,0,.28-4.21H323v.87h-3.05l-.17,2.46.39,0h.38a3.68,3.68,0,0,1,1.19.17,2.53,2.53,0,0,1,.9.5,2,2,0,0,1,.55.8A2.74,2.74,0,0,1,323.38,157.18Z" fill="#1e1e1e"/>
    </g>
    <g>
      <path d="M206.78,172.58v3.17h-1v-8.4h2.31a3,3,0,0,1,2.09.66,2.31,2.31,0,0,1,.74,1.85,2.52,2.52,0,0,1-.82,1.95,3.14,3.14,0,0,1-2.22.77Zm0-4.34v3.45h1a2.33,2.33,0,0,0,1.56-.47,1.67,1.67,0,0,0,.53-1.32c0-1.1-.65-1.66-2-1.66Z" fill="#1e1e1e"/>
      <path d="M215.34,170.73a1.18,1.18,0,0,0-.73-.2,1.22,1.22,0,0,0-1,.58,2.67,2.67,0,0,0-.42,1.58v3.06h-1v-6h1V171h0a2.08,2.08,0,0,1,.62-1,1.47,1.47,0,0,1,1-.35,1.44,1.44,0,0,1,.57.08Z" fill="#1e1e1e"/>
      <path d="M216.91,168.23a.6.6,0,0,1-.44-.18.57.57,0,0,1-.18-.44.61.61,0,0,1,.18-.45.6.6,0,0,1,.44-.18.64.64,0,0,1,.45.18.61.61,0,0,1,.18.45.6.6,0,0,1-.18.44A.64.64,0,0,1,216.91,168.23Zm.47,7.52h-1v-6h1Z" fill="#1e1e1e"/>
      <path d="M224.07,169.75l-2.39,6h-1l-2.27-6h1.06l1.52,4.36a4.27,4.27,0,0,1,.21.84h0a4.38,4.38,0,0,1,.19-.81l1.59-4.39Z" fill="#1e1e1e"/>
      <path d="M229.32,175.75h-1v-.94h0a2,2,0,0,1-1.85,1.08,2,2,0,0,1-1.4-.47,1.65,1.65,0,0,1-.51-1.26c0-1.12.66-1.77,2-2l1.8-.25q0-1.53-1.23-1.53a3,3,0,0,0-2,.74v-1a3.76,3.76,0,0,1,2-.56c1.41,0,2.11.75,2.11,2.24Zm-1-3-1.45.2a2.25,2.25,0,0,0-1,.33,1,1,0,0,0-.34.84.92.92,0,0,0,.31.72,1.24,1.24,0,0,0,.83.27,1.55,1.55,0,0,0,1.19-.5,1.77,1.77,0,0,0,.46-1.27Z" fill="#1e1e1e"/>
      <path d="M233.84,175.69a1.76,1.76,0,0,1-.89.19c-1,0-1.58-.58-1.58-1.76v-3.55h-1v-.82h1v-1.46l1-.31v1.77h1.51v.82h-1.51V174a1.35,1.35,0,0,0,.21.86.78.78,0,0,0,.68.26.94.94,0,0,0,.62-.2Z" fill="#1e1e1e"/>
      <path d="M239.85,173h-4.24a2.23,2.23,0,0,0,.54,1.55,1.85,1.85,0,0,0,1.42.54,3,3,0,0,0,1.86-.66v.9a3.5,3.5,0,0,1-2.09.57,2.54,2.54,0,0,1-2-.81,3.39,3.39,0,0,1-.73-2.3,3.29,3.29,0,0,1,.8-2.29,2.56,2.56,0,0,1,2-.88,2.28,2.28,0,0,1,1.82.76,3.2,3.2,0,0,1,.65,2.12Zm-1-.81a2,2,0,0,0-.4-1.3,1.36,1.36,0,0,0-1.1-.46,1.52,1.52,0,0,0-1.15.49,2.19,2.19,0,0,0-.59,1.27Z" fill="#1e1e1e"/>
      <path d="M247.66,172.79h-3.2V172h3.2Z" fill="#1e1e1e"/>
      <path d="M255.94,175.75h-1v-7.26a2,2,0,0,1-.32.26c-.15.09-.31.19-.49.28a5.85,5.85,0,0,1-.56.27,4.76,4.76,0,0,1-.57.19v-1a6.12,6.12,0,0,0,.67-.24,7.33,7.33,0,0,0,.69-.34c.23-.12.45-.25.65-.38a6.62,6.62,0,0,0,.53-.4h.36Z" fill="#1e1e1e"/>
      <path d="M263.63,171.52a8.15,8.15,0,0,1-.19,1.87,4.41,4.41,0,0,1-.55,1.37,2.49,2.49,0,0,1-.89.85,2.44,2.44,0,0,1-1.19.29,2.23,2.23,0,0,1-1.13-.28,2.37,2.37,0,0,1-.83-.81,4.12,4.12,0,0,1-.52-1.31,8.61,8.61,0,0,1-.17-1.78,9.35,9.35,0,0,1,.18-1.94,4.53,4.53,0,0,1,.54-1.42,2.43,2.43,0,0,1,.89-.86,2.56,2.56,0,0,1,1.22-.29Q263.63,167.21,263.63,171.52Zm-1,.09c0-2.39-.57-3.59-1.71-3.59s-1.8,1.22-1.8,3.65c0,2.27.59,3.41,1.77,3.41S262.65,173.92,262.65,171.61Z" fill="#1e1e1e"/>
      <path d="M265.33,175.88a.6.6,0,0,1-.45-.19.64.64,0,0,1,0-.93.61.61,0,0,1,.45-.2.63.63,0,0,1,.47.2.64.64,0,0,1,0,.93A.63.63,0,0,1,265.33,175.88Z" fill="#1e1e1e"/>
      <path d="M269.81,175.75h-1v-7.26a2,2,0,0,1-.32.26l-.48.28c-.18.1-.37.18-.57.27a4.76,4.76,0,0,1-.57.19v-1a6.12,6.12,0,0,0,.67-.24,7.48,7.48,0,0,0,.7-.34c.22-.12.44-.25.64-.38a5.2,5.2,0,0,0,.53-.4h.36Z" fill="#1e1e1e"/>
      <path d="M277.5,171.52a8.15,8.15,0,0,1-.19,1.87,4.41,4.41,0,0,1-.55,1.37,2.34,2.34,0,0,1-2.08,1.14,2.19,2.19,0,0,1-1.12-.28,2.4,2.4,0,0,1-.84-.81,3.9,3.9,0,0,1-.51-1.31,7.93,7.93,0,0,1-.18-1.78,9.35,9.35,0,0,1,.18-1.94,4.53,4.53,0,0,1,.55-1.42,2.34,2.34,0,0,1,.88-.86,2.56,2.56,0,0,1,1.22-.29Q277.5,167.21,277.5,171.52Zm-1,.09c0-2.39-.57-3.59-1.71-3.59s-1.8,1.22-1.8,3.65c0,2.27.59,3.41,1.77,3.41S276.52,173.92,276.52,171.61Z" fill="#1e1e1e"/>
      <path d="M279.21,175.88a.6.6,0,0,1-.46-.19.66.66,0,0,1,0-.93.61.61,0,0,1,.46-.2.65.65,0,0,1,.47.2.66.66,0,0,1,0,.93A.64.64,0,0,1,279.21,175.88Z" fill="#1e1e1e"/>
      <path d="M283.69,175.75h-1v-7.26a2.72,2.72,0,0,1-.33.26,5.1,5.1,0,0,1-.48.28c-.18.1-.37.18-.56.27a4.89,4.89,0,0,1-.58.19v-1a6.12,6.12,0,0,0,.67-.24,6.44,6.44,0,0,0,.7-.34c.23-.12.44-.25.65-.38a6.35,6.35,0,0,0,.52-.4h.37Z" fill="#1e1e1e"/>
      <path d="M291.37,171.52a8.15,8.15,0,0,1-.19,1.87,4.18,4.18,0,0,1-.55,1.37,2.34,2.34,0,0,1-2.07,1.14,2.2,2.2,0,0,1-1.13-.28,2.4,2.4,0,0,1-.84-.81,4.12,4.12,0,0,1-.51-1.31,7.93,7.93,0,0,1-.18-1.78,8.67,8.67,0,0,1,.19-1.94,4.3,4.3,0,0,1,.54-1.42,2.36,2.36,0,0,1,.89-.86,2.49,2.49,0,0,1,1.21-.29Q291.37,167.21,291.37,171.52Zm-1,.09c0-2.39-.57-3.59-1.71-3.59s-1.79,1.22-1.79,3.65c0,2.27.58,3.41,1.76,3.41S290.39,173.92,290.39,171.61Z" fill="#1e1e1e"/>
      <path d="M293.08,175.88a.62.62,0,0,1-.46-.19.67.67,0,0,1,.46-1.13.65.65,0,0,1,.47.2.66.66,0,0,1-.47,1.12Z" fill="#1e1e1e"/>
      <path d="M300.1,173.19a2.82,2.82,0,0,1-.21,1.11,2.35,2.35,0,0,1-.6.85,2.67,2.67,0,0,1-.94.56,3.9,3.9,0,0,1-1.22.19,3.44,3.44,0,0,1-1.74-.35v-1a3.16,3.16,0,0,0,1.75.55,2.35,2.35,0,0,0,.82-.14,1.87,1.87,0,0,0,.63-.37A1.56,1.56,0,0,0,299,174a2,2,0,0,0,.14-.75,1.58,1.58,0,0,0-.55-1.28,2.42,2.42,0,0,0-1.6-.47h-.73l-.37,0-.33,0,.29-4.21h3.89v.87h-3.06l-.17,2.46.4,0h.38a3.67,3.67,0,0,1,1.19.18,2.62,2.62,0,0,1,.9.5,2,2,0,0,1,.55.8A2.74,2.74,0,0,1,300.1,173.19Z" fill="#1e1e1e"/>
      <path d="M306.74,171.52a8.75,8.75,0,0,1-.19,1.87,4.41,4.41,0,0,1-.55,1.37,2.49,2.49,0,0,1-.89.85,2.44,2.44,0,0,1-1.19.29,2.23,2.23,0,0,1-1.13-.28,2.29,2.29,0,0,1-.83-.81,4.12,4.12,0,0,1-.52-1.31,8,8,0,0,1-.17-1.78,9.35,9.35,0,0,1,.18-1.94,4.3,4.3,0,0,1,.54-1.42,2.43,2.43,0,0,1,.89-.86,2.53,2.53,0,0,1,1.22-.29Q306.74,167.21,306.74,171.52Zm-1,.09c0-2.39-.56-3.59-1.7-3.59s-1.8,1.22-1.8,3.65c0,2.27.59,3.41,1.76,3.41S305.75,173.92,305.75,171.61Z" fill="#1e1e1e"/>
      <path d="M206.78,187v3.17h-1v-8.4h2.31a3,3,0,0,1,2.09.66,2.31,2.31,0,0,1,.74,1.85,2.52,2.52,0,0,1-.82,2,3.14,3.14,0,0,1-2.22.77Zm0-4.34v3.45h1a2.33,2.33,0,0,0,1.56-.47,1.67,1.67,0,0,0,.53-1.32c0-1.1-.65-1.66-2-1.66Z" fill="#1e1e1e"/>
      <path d="M215.34,185.13a1.18,1.18,0,0,0-.73-.2,1.22,1.22,0,0,0-1,.58,2.67,2.67,0,0,0-.42,1.58v3.06h-1v-6h1v1.24h0a2.08,2.08,0,0,1,.62-1,1.47,1.47,0,0,1,1-.35,1.44,1.44,0,0,1,.57.08Z" fill="#1e1e1e"/>
      <path d="M216.91,182.63a.6.6,0,0,1-.44-.18.57.57,0,0,1-.18-.44.61.61,0,0,1,.18-.45.6.6,0,0,1,.44-.18.64.64,0,0,1,.45.18.61.61,0,0,1,.18.45.6.6,0,0,1-.18.44A.64.64,0,0,1,216.91,182.63Zm.47,7.52h-1v-6h1Z" fill="#1e1e1e"/>
      <path d="M224.07,184.15l-2.39,6h-1l-2.27-6h1.06l1.52,4.36a4.27,4.27,0,0,1,.21.84h0a4.38,4.38,0,0,1,.19-.81l1.59-4.39Z" fill="#1e1e1e"/>
      <path d="M229.32,190.15h-1v-.94h0a2,2,0,0,1-1.85,1.08,2,2,0,0,1-1.4-.47,1.65,1.65,0,0,1-.51-1.26c0-1.12.66-1.77,2-2l1.8-.25q0-1.53-1.23-1.53a3,3,0,0,0-2,.74v-1a3.76,3.76,0,0,1,2-.56c1.41,0,2.11.75,2.11,2.24Zm-1-3-1.45.2a2.25,2.25,0,0,0-1,.33,1,1,0,0,0-.34.84.92.92,0,0,0,.31.72,1.24,1.24,0,0,0,.83.27,1.55,1.55,0,0,0,1.19-.5,1.77,1.77,0,0,0,.46-1.27Z" fill="#1e1e1e"/>
      <path d="M233.84,190.09a1.76,1.76,0,0,1-.89.19c-1,0-1.58-.58-1.58-1.76V185h-1v-.82h1v-1.46l1-.31v1.77h1.51V185h-1.51v3.38a1.35,1.35,0,0,0,.21.86.78.78,0,0,0,.68.26.94.94,0,0,0,.62-.2Z" fill="#1e1e1e"/>
      <path d="M239.85,187.39h-4.24a2.23,2.23,0,0,0,.54,1.55,1.85,1.85,0,0,0,1.42.54,3,3,0,0,0,1.86-.66v.9a3.5,3.5,0,0,1-2.09.57,2.54,2.54,0,0,1-2-.81,3.39,3.39,0,0,1-.73-2.3,3.29,3.29,0,0,1,.8-2.29,2.56,2.56,0,0,1,2-.88,2.28,2.28,0,0,1,1.82.76,3.2,3.2,0,0,1,.65,2.12Zm-1-.81a2,2,0,0,0-.4-1.3,1.36,1.36,0,0,0-1.1-.46,1.52,1.52,0,0,0-1.15.49,2.19,2.19,0,0,0-.59,1.27Z" fill="#1e1e1e"/>
      <path d="M247.66,187.19h-3.2v-.76h3.2Z" fill="#1e1e1e"/>
      <path d="M255.94,190.15h-1v-7.26a2,2,0,0,1-.32.26c-.15.09-.31.19-.49.28a5.85,5.85,0,0,1-.56.27,4.76,4.76,0,0,1-.57.19v-1a6.12,6.12,0,0,0,.67-.24,7.33,7.33,0,0,0,.69-.34c.23-.12.45-.25.65-.38a6.62,6.62,0,0,0,.53-.4h.36Z" fill="#1e1e1e"/>
      <path d="M263.63,185.92a8.15,8.15,0,0,1-.19,1.87,4.41,4.41,0,0,1-.55,1.37,2.49,2.49,0,0,1-.89.85,2.44,2.44,0,0,1-1.19.29,2.23,2.23,0,0,1-1.13-.28,2.46,2.46,0,0,1-.83-.81,4.12,4.12,0,0,1-.52-1.31,8.61,8.61,0,0,1-.17-1.78,9.35,9.35,0,0,1,.18-1.94,4.53,4.53,0,0,1,.54-1.42,2.43,2.43,0,0,1,.89-.86,2.56,2.56,0,0,1,1.22-.29C262.75,181.61,263.63,183,263.63,185.92Zm-1,.09c0-2.39-.57-3.59-1.71-3.59s-1.8,1.22-1.8,3.65c0,2.27.59,3.41,1.77,3.41S262.65,188.32,262.65,186Z" fill="#1e1e1e"/>
      <path d="M265.33,190.28a.6.6,0,0,1-.45-.19.64.64,0,0,1,0-.93.61.61,0,0,1,.45-.2.63.63,0,0,1,.47.2.64.64,0,0,1,0,.93A.63.63,0,0,1,265.33,190.28Z" fill="#1e1e1e"/>
      <path d="M269.81,190.15h-1v-7.26a2,2,0,0,1-.32.26l-.48.28c-.18.1-.37.18-.57.27a4.76,4.76,0,0,1-.57.19v-1a6.12,6.12,0,0,0,.67-.24,7.48,7.48,0,0,0,.7-.34c.22-.12.44-.25.64-.38a5.2,5.2,0,0,0,.53-.4h.36Z" fill="#1e1e1e"/>
      <path d="M277.5,185.92a8.15,8.15,0,0,1-.19,1.87,4.41,4.41,0,0,1-.55,1.37,2.34,2.34,0,0,1-2.08,1.14,2.19,2.19,0,0,1-1.12-.28,2.49,2.49,0,0,1-.84-.81,3.9,3.9,0,0,1-.51-1.31,7.93,7.93,0,0,1-.18-1.78,9.35,9.35,0,0,1,.18-1.94,4.53,4.53,0,0,1,.55-1.42,2.34,2.34,0,0,1,.88-.86,2.56,2.56,0,0,1,1.22-.29C276.62,181.61,277.5,183,277.5,185.92Zm-1,.09c0-2.39-.57-3.59-1.71-3.59s-1.8,1.22-1.8,3.65c0,2.27.59,3.41,1.77,3.41S276.52,188.32,276.52,186Z" fill="#1e1e1e"/>
      <path d="M279.21,190.28a.6.6,0,0,1-.46-.19.66.66,0,0,1,0-.93.61.61,0,0,1,.46-.2.65.65,0,0,1,.47.2.66.66,0,0,1,0,.93A.64.64,0,0,1,279.21,190.28Z" fill="#1e1e1e"/>
      <path d="M283.69,190.15h-1v-7.26a2.72,2.72,0,0,1-.33.26,5.1,5.1,0,0,1-.48.28c-.18.1-.37.18-.56.27a4.89,4.89,0,0,1-.58.19v-1a6.12,6.12,0,0,0,.67-.24,6.44,6.44,0,0,0,.7-.34c.23-.12.44-.25.65-.38a6.35,6.35,0,0,0,.52-.4h.37Z" fill="#1e1e1e"/>
      <path d="M288.92,190.15h-1v-7.26a2.72,2.72,0,0,1-.33.26,5.1,5.1,0,0,1-.48.28c-.18.1-.36.18-.56.27a4.89,4.89,0,0,1-.58.19v-1a5.46,5.46,0,0,0,.67-.24,6.44,6.44,0,0,0,.7-.34c.23-.12.44-.25.65-.38a5,5,0,0,0,.52-.4h.37Z" fill="#1e1e1e"/>
      <path d="M291.92,190.28a.62.62,0,0,1-.46-.19.67.67,0,0,1,.46-1.13.65.65,0,0,1,.47.2.66.66,0,0,1-.47,1.12Z" fill="#1e1e1e"/>
      <path d="M298.94,187.59a2.82,2.82,0,0,1-.21,1.11,2.35,2.35,0,0,1-.6.85,2.67,2.67,0,0,1-.94.56,3.86,3.86,0,0,1-1.22.19,3.44,3.44,0,0,1-1.74-.35v-1a3.25,3.25,0,0,0,1.75.55,2.35,2.35,0,0,0,.82-.14,1.87,1.87,0,0,0,.63-.37,1.56,1.56,0,0,0,.39-.58,2,2,0,0,0,.14-.75,1.58,1.58,0,0,0-.55-1.28,2.42,2.42,0,0,0-1.6-.47h-.73l-.37,0-.32,0,.28-4.21h3.89v.87H295.5l-.17,2.46.4,0h.38a3.67,3.67,0,0,1,1.19.18,2.53,2.53,0,0,1,.9.5,2,2,0,0,1,.55.8A2.74,2.74,0,0,1,298.94,187.59Z" fill="#1e1e1e"/>
      <path d="M305.58,185.92a8.15,8.15,0,0,1-.19,1.87,4.41,4.41,0,0,1-.55,1.37,2.49,2.49,0,0,1-.89.85,2.44,2.44,0,0,1-1.19.29,2.23,2.23,0,0,1-1.13-.28,2.38,2.38,0,0,1-.83-.81,4.12,4.12,0,0,1-.52-1.31,8.61,8.61,0,0,1-.17-1.78,9.35,9.35,0,0,1,.18-1.94,4.3,4.3,0,0,1,.54-1.42,2.43,2.43,0,0,1,.89-.86,2.53,2.53,0,0,1,1.22-.29C304.7,181.61,305.58,183,305.58,185.92Zm-1,.09c0-2.39-.56-3.59-1.7-3.59s-1.8,1.22-1.8,3.65c0,2.27.59,3.41,1.76,3.41S304.59,188.32,304.59,186Z" fill="#1e1e1e"/>
    </g>
  </g>
</svg>
