<svg xmlns="http://www.w3.org/2000/svg" xmlns:xlink="http://www.w3.org/1999/xlink" viewBox="0 0 395 201.5">
  <defs>
    <linearGradient id="linear-gradient" x1="62.5" x2="62.5" y2="175" gradientUnits="userSpaceOnUse">
      <stop offset="0" stop-color="#5ea0ef"/>
      <stop offset="0.18" stop-color="#559cec"/>
      <stop offset="0.47" stop-color="#3c91e5"/>
      <stop offset="0.84" stop-color="#1380da"/>
      <stop offset="1" stop-color="#0078d4"/>
    </linearGradient>
    <linearGradient id="linear-gradient-2" x1="197.5" x2="197.5" y2="175" xlink:href="#linear-gradient"/>
    <linearGradient id="linear-gradient-3" x1="332.5" x2="332.5" y2="175" xlink:href="#linear-gradient"/>
    <linearGradient id="linear-gradient-4" x1="146.76" y1="355.5" x2="146.76" y2="332.5" gradientTransform="matrix(1, 0, 0, -1, 0, 534)" xlink:href="#linear-gradient"/>
  </defs>
  <g id="Shapes">
    <g>
      <rect x="135" width="260" height="195" fill="#fff"/>
      <rect x="135" width="260" height="195" fill="#3c3c41" opacity="0.08"/>
    </g>
    <g>
      <rect width="125" height="175" fill="#fff"/>
      <rect width="125" height="175" opacity="0.7" fill="url(#linear-gradient)"/>
    </g>
    <g>
      <rect x="135" width="125" height="175" fill="#fff"/>
      <rect x="135" width="125" height="175" opacity="0.7" fill="url(#linear-gradient-2)"/>
    </g>
    <g>
      <rect x="270" width="125" height="175" fill="#fff"/>
      <rect x="270" width="125" height="175" opacity="0.7" fill="url(#linear-gradient-3)"/>
    </g>
    <g>
      <rect x="5" y="40" width="250" height="40" fill="#fff"/>
      <rect x="5" y="40" width="250" height="40" fill="#0078d4" opacity="0.08"/>
      <rect x="5" y="40" width="250" height="40" fill="none" stroke="#0078d4" stroke-miterlimit="10" stroke-width="0.5" opacity="0.6"/>
    </g>
    <g>
      <rect x="140" y="85" width="250" height="40" fill="#fff"/>
      <rect x="140" y="85" width="250" height="40" fill="#3c3c41" opacity="0.15"/>
      <rect x="140" y="85" width="250" height="40" fill="none" stroke="#3c3c41" stroke-miterlimit="10" stroke-width="0.5" opacity="0.5"/>
    </g>
    <g>
      <rect x="5" y="85" width="115" height="50" fill="#fff"/>
      <rect x="5" y="85" width="115" height="50" fill="#0078d4" opacity="0.08"/>
      <rect x="5" y="85" width="115" height="50" fill="none" stroke="#0078d4" stroke-miterlimit="10" stroke-width="0.5" opacity="0.6"/>
    </g>
    <g>
      <rect x="5" y="140" width="115" height="25" fill="#fff"/>
      <rect x="5" y="140" width="115" height="25" fill="#0078d4" opacity="0.08"/>
      <rect x="5" y="140" width="115" height="25" fill="none" stroke="#0078d4" stroke-miterlimit="10" stroke-width="0.5" opacity="0.6"/>
    </g>
    <g>
      <rect x="140" y="140" width="250" height="25" fill="#fff"/>
      <rect x="140" y="140" width="250" height="25" fill="#3c3c41" opacity="0.15"/>
      <rect x="140" y="140" width="250" height="25" fill="none" stroke="#3c3c41" stroke-miterlimit="10" stroke-width="0.5" opacity="0.5"/>
    </g>
    <g>
      <path d="M153.53,179.27v21.46a.76.76,0,0,1-.74.77h-12a.76.76,0,0,1-.77-.74V179.27a.76.76,0,0,1,.74-.77h12a.76.76,0,0,1,.77.74Z" fill="url(#linear-gradient-4)"/>
      <path id="a1bc77ea-5288-41a0-8f9a-2d282cf54a86" d="M141.8,180.89h2.26a.2.2,0,0,1,.19.19v2.85a.19.19,0,0,1-.19.18H141.8a.18.18,0,0,1-.2-.18v-2.85A.2.2,0,0,1,141.8,180.89Zm3.87,0h2.19a.19.19,0,0,1,.19.19h0v2.85a.18.18,0,0,1-.19.18h-2.19a.18.18,0,0,1-.19-.18h0v-2.85a.19.19,0,0,1,.19-.19Zm3.87,0h2.19a.2.2,0,0,1,.2.19v2.85a.18.18,0,0,1-.2.18h-2.19a.18.18,0,0,1-.19-.18h0v-2.85a.19.19,0,0,1,.19-.19Zm-7.74,5.16h2.26a.19.19,0,0,1,.19.19v2.84a.19.19,0,0,1-.19.2H141.8a.2.2,0,0,1-.2-.2v-2.84A.19.19,0,0,1,141.8,186.05Zm3.87,0h2.19a.18.18,0,0,1,.19.19h0v2.84a.19.19,0,0,1-.19.2h-2.19a.19.19,0,0,1-.19-.2v-2.84a.18.18,0,0,1,.19-.19Zm3.87,0h2.19a.19.19,0,0,1,.2.19v2.84a.2.2,0,0,1-.2.2h-2.19a.19.19,0,0,1-.19-.2v-2.84a.18.18,0,0,1,.19-.19Zm-7.74,5.17h2.26a.19.19,0,0,1,.19.19h0v2.84a.2.2,0,0,1-.19.19H141.8a.2.2,0,0,1-.2-.19v-2.9A.2.2,0,0,1,141.8,191.22Zm3.87,0h2.19a.19.19,0,0,1,.25.1s0,0,0,0v2.84a.19.19,0,0,1-.19.19h-2.26a.18.18,0,0,1-.19-.19h0v-2.84A.18.18,0,0,1,145.67,191.22Zm0,5.15h2.19a.19.19,0,0,1,.19.19h0v4.26a.18.18,0,0,1-.19.19h-2.19a.18.18,0,0,1-.19-.19v-4.26A.19.19,0,0,1,145.67,196.37Zm3.87-5.15h2.19a.19.19,0,0,1,.2.19v2.84a.2.2,0,0,1-.2.19h-2.19a.19.19,0,0,1-.19-.19h0v-2.9A.18.18,0,0,1,149.54,191.22Z" fill="#f2f2f2"/>
    </g>
  </g>
  <g id="Text">
    <g>
      <path d="M54.28,17H52.22l-.6-1.87h-3L48,17H46l3.06-8.4H51.3Zm-3.09-3.32-.9-2.83a3,3,0,0,1-.14-.75h0a3.16,3.16,0,0,1-.15.73L49,13.68Z" fill="#1e1e1e"/>
      <path d="M60.21,17H54.83v-.77l3-3.86H55.13V11h5.06v.91l-2.86,3.72h2.88Z" fill="#1e1e1e"/>
      <path d="M67,17H65.13v-.91h0a2.11,2.11,0,0,1-1.83,1.06c-1.39,0-2.09-.85-2.09-2.53V11H63v3.46c0,.84.33,1.27,1,1.27a1,1,0,0,0,.8-.35,1.41,1.41,0,0,0,.3-1V11H67Z" fill="#1e1e1e"/>
      <path d="M72.42,12.67a1.66,1.66,0,0,0-.78-.18,1.14,1.14,0,0,0-1,.44,2,2,0,0,0-.34,1.2V17H68.5V11h1.85v1.11h0A1.6,1.6,0,0,1,72,10.89a1.39,1.39,0,0,1,.46.07Z" fill="#1e1e1e"/>
      <path d="M78.74,14.53H74.83c.06.87.61,1.3,1.65,1.3a3.23,3.23,0,0,0,1.74-.46V16.7a4.57,4.57,0,0,1-2.17.45,3,3,0,0,1-2.25-.81,3,3,0,0,1-.8-2.25,3.19,3.19,0,0,1,.86-2.36A2.87,2.87,0,0,1,76,10.85a2.63,2.63,0,0,1,2,.78,3.05,3.05,0,0,1,.71,2.12ZM77,13.39q0-1.29-1-1.29a1,1,0,0,0-.77.37,1.67,1.67,0,0,0-.39.92Z" fill="#1e1e1e"/>
    </g>
    <g>
      <path d="M158.87,17H156.8l-.59-1.87h-3L152.63,17h-2l3-8.4h2.25Zm-3.1-3.32-.9-2.83a3.59,3.59,0,0,1-.14-.75h0a3.14,3.14,0,0,1-.14.73l-.92,2.85Z" fill="#1e1e1e"/>
      <path d="M164.79,17h-5.38v-.77l3-3.86h-2.71V11h5.06v.91l-2.85,3.72h2.87Z" fill="#1e1e1e"/>
      <path d="M171.56,17h-1.85v-.91h0a2.09,2.09,0,0,1-1.83,1.06c-1.39,0-2.09-.85-2.09-2.53V11h1.85v3.46c0,.84.34,1.27,1,1.27a1,1,0,0,0,.79-.35,1.41,1.41,0,0,0,.3-1V11h1.85Z" fill="#1e1e1e"/>
      <path d="M177,12.67a1.61,1.61,0,0,0-.78-.18,1.12,1.12,0,0,0-.94.44,1.92,1.92,0,0,0-.34,1.2V17h-1.85V11h1.85v1.11h0a1.6,1.6,0,0,1,1.58-1.22A1.35,1.35,0,0,1,177,11Z" fill="#1e1e1e"/>
      <path d="M183.33,14.53h-3.92c.07.87.61,1.3,1.65,1.3a3.23,3.23,0,0,0,1.74-.46V16.7a4.53,4.53,0,0,1-2.16.45,3,3,0,0,1-2.26-.81,3.08,3.08,0,0,1-.8-2.25,3.19,3.19,0,0,1,.87-2.36,2.85,2.85,0,0,1,2.13-.88,2.63,2.63,0,0,1,2,.78,3,3,0,0,1,.72,2.12Zm-1.72-1.14c0-.86-.35-1.29-1-1.29a1,1,0,0,0-.77.37,1.68,1.68,0,0,0-.4.92Z" fill="#1e1e1e"/>
      <path d="M187.53,16.68V14.8a3.45,3.45,0,0,0,1.11.64,3.4,3.4,0,0,0,1.21.22,2.3,2.3,0,0,0,.62-.07,1.57,1.57,0,0,0,.45-.17.74.74,0,0,0,.26-.27.69.69,0,0,0,.09-.34.68.68,0,0,0-.14-.44,1.47,1.47,0,0,0-.38-.36,3.88,3.88,0,0,0-.58-.31c-.22-.11-.46-.21-.72-.32a3.56,3.56,0,0,1-1.47-1A2.19,2.19,0,0,1,187.5,11a2.32,2.32,0,0,1,.26-1.12,2.25,2.25,0,0,1,.72-.78,3.33,3.33,0,0,1,1.05-.45,5.21,5.21,0,0,1,1.27-.14,6.74,6.74,0,0,1,1.16.08,4.46,4.46,0,0,1,.94.24v1.75a4.17,4.17,0,0,0-.46-.26,4.56,4.56,0,0,0-.52-.18,3.21,3.21,0,0,0-.52-.11l-.5,0a2.58,2.58,0,0,0-.58.06,1.57,1.57,0,0,0-.45.17.81.81,0,0,0-.28.27.59.59,0,0,0-.1.34.68.68,0,0,0,.11.38,1.38,1.38,0,0,0,.32.32,2.87,2.87,0,0,0,.5.29,7,7,0,0,0,.66.3,6.29,6.29,0,0,1,.9.45,2.87,2.87,0,0,1,.69.53,2.08,2.08,0,0,1,.44.69,2.4,2.4,0,0,1,.15.89,2.37,2.37,0,0,1-.26,1.18,2.08,2.08,0,0,1-.73.77,3.07,3.07,0,0,1-1.06.43,6.53,6.53,0,0,1-1.28.13,6.86,6.86,0,0,1-1.31-.12A4.36,4.36,0,0,1,187.53,16.68Z" fill="#1e1e1e"/>
      <path d="M197.91,16.93a2.75,2.75,0,0,1-1.23.22c-1.31,0-2-.68-2-2V12.37h-1V11h1V9.71l1.84-.53V11h1.35v1.37h-1.35v2.42c0,.63.25.94.75.94a1.27,1.27,0,0,0,.6-.17Z" fill="#1e1e1e"/>
      <path d="M204.08,17h-1.76v-.86h0a2,2,0,0,1-1.79,1,1.86,1.86,0,0,1-1.37-.5,1.75,1.75,0,0,1-.5-1.32c0-1.16.69-1.84,2.07-2l1.62-.21c0-.66-.35-1-1.06-1a3.67,3.67,0,0,0-2,.64V11.36a4.22,4.22,0,0,1,1.06-.35,5.05,5.05,0,0,1,1.22-.16,2.27,2.27,0,0,1,2.57,2.56Zm-1.75-2.44v-.4l-1.08.14c-.61.08-.91.35-.91.81a.69.69,0,0,0,.22.52.84.84,0,0,0,.6.2,1.11,1.11,0,0,0,.85-.36A1.28,1.28,0,0,0,202.33,14.56Z" fill="#1e1e1e"/>
      <path d="M210.1,16.78a3.6,3.6,0,0,1-1.81.37,3,3,0,0,1-2.24-.84,2.9,2.9,0,0,1-.86-2.16,3.18,3.18,0,0,1,.92-2.41,3.38,3.38,0,0,1,2.45-.89,3.26,3.26,0,0,1,1.54.28v1.58a2.13,2.13,0,0,0-1.3-.44,1.71,1.71,0,0,0-1.26.47,1.74,1.74,0,0,0-.47,1.28,1.69,1.69,0,0,0,.45,1.25,1.59,1.59,0,0,0,1.22.46,2.49,2.49,0,0,0,1.36-.44Z" fill="#1e1e1e"/>
      <path d="M217.42,17H215.2l-1.92-3h0v3h-1.85V8.12h1.85v5.65h0L215.07,11h2.19l-2.15,2.82Z" fill="#1e1e1e"/>
      <path d="M228.88,17H227V13.58H223.5V17h-1.89V8.6h1.89V12H227V8.6h1.9Z" fill="#1e1e1e"/>
      <path d="M236.29,17h-1.84v-.91h0a2.12,2.12,0,0,1-1.84,1.06c-1.39,0-2.08-.85-2.08-2.53V11h1.84v3.46c0,.84.34,1.27,1,1.27a1,1,0,0,0,.8-.35,1.41,1.41,0,0,0,.3-1V11h1.84Z" fill="#1e1e1e"/>
      <path d="M239.7,16.3h0V17h-1.85V8.12h1.85V11.9h0a2.18,2.18,0,0,1,2-1.05,2.13,2.13,0,0,1,1.78.8,3.43,3.43,0,0,1,.63,2.18,3.72,3.72,0,0,1-.73,2.41,2.41,2.41,0,0,1-2,.91A1.86,1.86,0,0,1,239.7,16.3Zm-.06-2.53v.62a1.39,1.39,0,0,0,.34,1,1.08,1.08,0,0,0,.85.38,1.12,1.12,0,0,0,1-.49,2.32,2.32,0,0,0,.35-1.39,1.84,1.84,0,0,0-.32-1.16,1.06,1.06,0,0,0-.91-.42,1.16,1.16,0,0,0-.92.42A1.54,1.54,0,0,0,239.64,13.77Z" fill="#1e1e1e"/>
    </g>
    <g>
      <path d="M293.87,15.88H291.8L291.21,14h-3l-.59,1.87h-2.05l3.05-8.4h2.25Zm-3.1-3.32-.9-2.82a3.69,3.69,0,0,1-.14-.76h-.05a3,3,0,0,1-.14.73l-.92,2.85Z" fill="#1e1e1e"/>
      <path d="M299.79,15.88h-5.38v-.76l3-3.87h-2.71V9.88h5.06v.92l-2.85,3.72h2.87Z" fill="#1e1e1e"/>
      <path d="M306.56,15.88h-1.85V15h0A2.07,2.07,0,0,1,302.85,16c-1.39,0-2.09-.84-2.09-2.53V9.88h1.85v3.46c0,.85.34,1.27,1,1.27a1,1,0,0,0,.79-.35,1.4,1.4,0,0,0,.3-.94V9.88h1.85Z" fill="#1e1e1e"/>
      <path d="M312,11.55a1.61,1.61,0,0,0-.78-.18,1.12,1.12,0,0,0-.94.44,1.93,1.93,0,0,0-.34,1.21v2.86h-1.85v-6h1.85V11h0a1.59,1.59,0,0,1,1.58-1.22,1.14,1.14,0,0,1,.46.07Z" fill="#1e1e1e"/>
      <path d="M318.33,13.41h-3.92c.07.87.61,1.31,1.65,1.31a3.24,3.24,0,0,0,1.74-.47v1.33a4.53,4.53,0,0,1-2.16.45,3,3,0,0,1-2.26-.81,3,3,0,0,1-.8-2.24,3.2,3.2,0,0,1,.87-2.37,2.88,2.88,0,0,1,2.13-.87,2.63,2.63,0,0,1,2,.78,3,3,0,0,1,.72,2.11Zm-1.72-1.14c0-.86-.35-1.29-1-1.29a1,1,0,0,0-.77.37,1.72,1.72,0,0,0-.4.92Z" fill="#1e1e1e"/>
      <path d="M322.53,15.56V13.69a3.86,3.86,0,0,0,1.11.64,3.63,3.63,0,0,0,1.21.21,2.83,2.83,0,0,0,.62-.06,1.91,1.91,0,0,0,.45-.18.74.74,0,0,0,.26-.27.69.69,0,0,0,.09-.34.7.7,0,0,0-.14-.44,1.47,1.47,0,0,0-.38-.36,5.08,5.08,0,0,0-.58-.31c-.22-.1-.46-.21-.72-.31a3.76,3.76,0,0,1-1.47-1,2.23,2.23,0,0,1-.48-1.43,2.33,2.33,0,0,1,.26-1.13,2.25,2.25,0,0,1,.72-.78,3.33,3.33,0,0,1,1-.45,5.75,5.75,0,0,1,1.27-.14,7.92,7.92,0,0,1,1.16.08,4.46,4.46,0,0,1,.94.24V9.41a4.09,4.09,0,0,0-.46-.25,3.24,3.24,0,0,0-.52-.19,4.82,4.82,0,0,0-.52-.11l-.5,0a2.58,2.58,0,0,0-.58.06,1.57,1.57,0,0,0-.45.17,1,1,0,0,0-.28.27.6.6,0,0,0-.1.35.73.73,0,0,0,.11.38,1.36,1.36,0,0,0,.32.31,3.66,3.66,0,0,0,.5.3l.66.29a6.29,6.29,0,0,1,.9.45,3.18,3.18,0,0,1,.69.54,2,2,0,0,1,.44.68,2.4,2.4,0,0,1,.15.89A2.37,2.37,0,0,1,328,14.7a2.18,2.18,0,0,1-.73.78,3.27,3.27,0,0,1-1.06.42,5.85,5.85,0,0,1-1.28.13,6.86,6.86,0,0,1-1.31-.12A4,4,0,0,1,322.53,15.56Z" fill="#1e1e1e"/>
      <path d="M332.91,15.81a2.62,2.62,0,0,1-1.23.22,1.76,1.76,0,0,1-2-2V11.25h-1V9.88h1V8.59l1.84-.53V9.88h1.35v1.37h-1.35v2.42c0,.63.25.94.75.94a1.27,1.27,0,0,0,.6-.17Z" fill="#1e1e1e"/>
      <path d="M339.08,15.88h-1.76V15h0a2,2,0,0,1-1.79,1,1.86,1.86,0,0,1-1.37-.5,1.75,1.75,0,0,1-.5-1.32q0-1.74,2.07-2l1.62-.22c0-.66-.35-1-1.06-1a3.65,3.65,0,0,0-2,.63V10.24a4.67,4.67,0,0,1,1.06-.35,5.56,5.56,0,0,1,1.22-.15,2.27,2.27,0,0,1,2.57,2.56Zm-1.75-2.43V13l-1.08.14c-.61.08-.91.35-.91.82a.67.67,0,0,0,.22.51.84.84,0,0,0,.6.21,1.11,1.11,0,0,0,.85-.36A1.3,1.3,0,0,0,337.33,13.45Z" fill="#1e1e1e"/>
      <path d="M345.1,15.67a3.72,3.72,0,0,1-1.81.36,3,3,0,0,1-2.24-.84,2.9,2.9,0,0,1-.86-2.16,3.19,3.19,0,0,1,.92-2.41,3.38,3.38,0,0,1,2.45-.88,3.14,3.14,0,0,1,1.54.28v1.57a2.13,2.13,0,0,0-1.3-.44,1.71,1.71,0,0,0-1.26.47,1.75,1.75,0,0,0-.47,1.29,1.71,1.71,0,0,0,.45,1.25,1.62,1.62,0,0,0,1.22.45,2.47,2.47,0,0,0,1.36-.43Z" fill="#1e1e1e"/>
      <path d="M352.42,15.88H350.2l-1.92-3h0v3h-1.85V7h1.85v5.65h0l1.79-2.77h2.19l-2.15,2.82Z" fill="#1e1e1e"/>
      <path d="M363.88,15.88H362V12.46H358.5v3.42h-1.89V7.48h1.89v3.35H362V7.48h1.9Z" fill="#1e1e1e"/>
      <path d="M371.29,15.88h-1.84V15h0A2.09,2.09,0,0,1,367.58,16c-1.39,0-2.08-.84-2.08-2.53V9.88h1.84v3.46c0,.85.34,1.27,1,1.27a1,1,0,0,0,.8-.35,1.4,1.4,0,0,0,.3-.94V9.88h1.84Z" fill="#1e1e1e"/>
      <path d="M374.7,15.19h0v.69h-1.85V7h1.85v3.79h0a2.18,2.18,0,0,1,1.95-1,2.12,2.12,0,0,1,1.78.79,3.43,3.43,0,0,1,.63,2.18,3.71,3.71,0,0,1-.73,2.41,2.38,2.38,0,0,1-2,.91A1.87,1.87,0,0,1,374.7,15.19Zm-.06-2.54v.62a1.36,1.36,0,0,0,.34,1,1.08,1.08,0,0,0,.85.38,1.12,1.12,0,0,0,1-.49,2.29,2.29,0,0,0,.35-1.38,1.85,1.85,0,0,0-.32-1.17,1.06,1.06,0,0,0-.91-.42,1.16,1.16,0,0,0-.92.42A1.56,1.56,0,0,0,374.64,12.65Z" fill="#1e1e1e"/>
      <path d="M330.49,30.28H328.6V26.86h-3.48v3.42h-1.9v-8.4h1.9v3.35h3.48V21.88h1.89Z" fill="#1e1e1e"/>
      <path d="M338.4,30a5.49,5.49,0,0,1-2.4.45,4,4,0,0,1-3-1.14,4.16,4.16,0,0,1-1.11-3A4.45,4.45,0,0,1,333.09,23a4.38,4.38,0,0,1,3.23-1.25,6,6,0,0,1,2.08.31v1.82a3.71,3.71,0,0,0-1.92-.5,2.56,2.56,0,0,0-1.91.74,2.75,2.75,0,0,0-.73,2,2.69,2.69,0,0,0,.69,1.94,2.41,2.41,0,0,0,1.84.72,4,4,0,0,0,2-.53Z" fill="#1e1e1e"/>
      <path d="M341.79,30.28H339.9v-8.4h1.89Z" fill="#1e1e1e"/>
    </g>
    <g>
      <path d="M41.09,55.88H40l-.89-2.35H35.55l-.84,2.35H33.62l3.22-8.4h1Zm-2.3-3.24-1.32-3.58a3.14,3.14,0,0,1-.13-.56h0a3,3,0,0,1-.14.56l-1.3,3.58Z" fill="#1e1e1e"/>
      <path d="M46.77,50.16l-3.56,4.9h3.52v.82H41.8v-.3l3.55-4.88H42.14v-.82h4.63Z" fill="#1e1e1e"/>
      <path d="M52.86,55.88h-1v-1h0A2,2,0,0,1,50,56c-1.43,0-2.14-.85-2.14-2.55V49.88h.95v3.44c0,1.26.49,1.89,1.46,1.89a1.46,1.46,0,0,0,1.15-.51,2,2,0,0,0,.46-1.36V49.88h1Z" fill="#1e1e1e"/>
      <path d="M57.8,50.86a1.14,1.14,0,0,0-.72-.2,1.24,1.24,0,0,0-1,.58,2.67,2.67,0,0,0-.41,1.58v3.06h-1v-6h1v1.24h0a2.17,2.17,0,0,1,.63-1,1.61,1.61,0,0,1,1.51-.27Z" fill="#1e1e1e"/>
      <path d="M63.68,53.12H59.45A2.19,2.19,0,0,0,60,54.67a1.85,1.85,0,0,0,1.41.54,3,3,0,0,0,1.87-.66v.9a3.53,3.53,0,0,1-2.1.57,2.53,2.53,0,0,1-2-.81,3.34,3.34,0,0,1-.73-2.3,3.29,3.29,0,0,1,.79-2.29,2.58,2.58,0,0,1,2-.88A2.28,2.28,0,0,1,63,50.5a3.19,3.19,0,0,1,.64,2.12Zm-1-.81a2,2,0,0,0-.4-1.3,1.4,1.4,0,0,0-1.1-.46A1.56,1.56,0,0,0,60,51a2.21,2.21,0,0,0-.58,1.27Z" fill="#1e1e1e"/>
      <path d="M69.54,52.71v3.17h-1v-8.4h2.31a3,3,0,0,1,2.09.66A2.34,2.34,0,0,1,73.69,50a2.54,2.54,0,0,1-.82,2,3.19,3.19,0,0,1-2.23.76Zm0-4.34v3.45h1a2.28,2.28,0,0,0,1.55-.47A1.64,1.64,0,0,0,72.66,50c0-1.11-.66-1.67-2-1.67Z" fill="#1e1e1e"/>
      <path d="M77.42,56a2.79,2.79,0,0,1-2.13-.84A3.1,3.1,0,0,1,74.5,53a3.26,3.26,0,0,1,.82-2.36,3,3,0,0,1,2.24-.85,2.69,2.69,0,0,1,2.09.83,3.27,3.27,0,0,1,.75,2.29,3.23,3.23,0,0,1-.81,2.3A2.81,2.81,0,0,1,77.42,56Zm.07-5.47a1.84,1.84,0,0,0-1.47.63,2.59,2.59,0,0,0-.54,1.74A2.41,2.41,0,0,0,76,54.6a1.85,1.85,0,0,0,1.46.61,1.77,1.77,0,0,0,1.43-.6,2.63,2.63,0,0,0,.5-1.72,2.68,2.68,0,0,0-.5-1.73A1.74,1.74,0,0,0,77.49,50.55Z" fill="#1e1e1e"/>
      <path d="M85,50.86a1.14,1.14,0,0,0-.72-.2,1.25,1.25,0,0,0-1,.58,2.67,2.67,0,0,0-.41,1.58v3.06h-1v-6h1v1.24h0a2.17,2.17,0,0,1,.63-1A1.61,1.61,0,0,1,85,49.86Z" fill="#1e1e1e"/>
      <path d="M89.24,55.82a1.82,1.82,0,0,1-.9.19c-1,0-1.57-.58-1.57-1.76V50.7h-1v-.82h1V48.42l1-.31v1.77h1.51v.82H87.73v3.38a1.41,1.41,0,0,0,.2.87.82.82,0,0,0,.68.25,1,1,0,0,0,.63-.2Z" fill="#1e1e1e"/>
      <path d="M94.92,55.88H94V55h0A2,2,0,0,1,92.09,56a2,2,0,0,1-1.41-.47,1.68,1.68,0,0,1-.5-1.26c0-1.12.66-1.77,2-2l1.8-.25c0-1-.42-1.53-1.24-1.53a3,3,0,0,0-2,.74v-1a3.76,3.76,0,0,1,2-.56c1.41,0,2.12.75,2.12,2.24Zm-1-3-1.45.2a2.3,2.3,0,0,0-1,.33,1,1,0,0,0-.34.84.93.93,0,0,0,.32.72,1.2,1.2,0,0,0,.83.27,1.51,1.51,0,0,0,1.18-.5A1.77,1.77,0,0,0,94,53.45Z" fill="#1e1e1e"/>
      <path d="M97.62,55.88h-1V47h1Z" fill="#1e1e1e"/>
      <path d="M100.42,54.55l-.94,2.88h-.69l.69-2.88Z" fill="#1e1e1e"/>
      <path d="M112.06,55.88H111l-.89-2.35h-3.56l-.84,2.35h-1.1l3.23-8.4h1Zm-2.3-3.24-1.32-3.58a3.14,3.14,0,0,1-.13-.56h0a3,3,0,0,1-.14.56l-1.31,3.58Z" fill="#1e1e1e"/>
      <path d="M114.21,52.71v3.17h-1v-8.4h2.31a3,3,0,0,1,2.09.66,2.34,2.34,0,0,1,.74,1.85,2.54,2.54,0,0,1-.82,2,3.19,3.19,0,0,1-2.23.76Zm0-4.34v3.45h1a2.28,2.28,0,0,0,1.55-.47,1.64,1.64,0,0,0,.54-1.31c0-1.11-.66-1.67-2-1.67Z" fill="#1e1e1e"/>
      <path d="M120.69,55.88h-1v-8.4h1Z" fill="#1e1e1e"/>
      <path d="M123.68,54.55l-.93,2.88h-.69l.69-2.88Z" fill="#1e1e1e"/>
      <path d="M129.81,55.88h-1v-8.4h1Z" fill="#1e1e1e"/>
      <path d="M136.08,55.88h-1V55h0A2,2,0,0,1,133.25,56a2,2,0,0,1-1.4-.47,1.65,1.65,0,0,1-.51-1.26c0-1.12.66-1.77,2-2l1.8-.25c0-1-.41-1.53-1.24-1.53a3,3,0,0,0-1.95.74v-1a3.76,3.76,0,0,1,2-.56c1.41,0,2.11.75,2.11,2.24Zm-1-3-1.45.2a2.35,2.35,0,0,0-1,.33,1,1,0,0,0-.34.84.93.93,0,0,0,.32.72,1.24,1.24,0,0,0,.83.27,1.51,1.51,0,0,0,1.18-.5,1.77,1.77,0,0,0,.47-1.26Z" fill="#1e1e1e"/>
      <path d="M142.14,55.88h-1V55h0A2,2,0,0,1,139.31,56a2,2,0,0,1-1.41-.47,1.64,1.64,0,0,1-.5-1.26c0-1.12.66-1.77,2-2l1.79-.25q0-1.53-1.23-1.53a3,3,0,0,0-2,.74v-1a3.76,3.76,0,0,1,2-.56c1.41,0,2.12.75,2.12,2.24Zm-1-3-1.44.2a2.3,2.3,0,0,0-1,.33,1,1,0,0,0-.34.84.92.92,0,0,0,.31.72,1.25,1.25,0,0,0,.84.27,1.53,1.53,0,0,0,1.18-.5,1.76,1.76,0,0,0,.46-1.26Z" fill="#1e1e1e"/>
      <path d="M143.58,55.54V54.38a1.91,1.91,0,0,0,.48.32,5,5,0,0,0,.58.24c.21.06.41.11.62.15a4.13,4.13,0,0,0,.57,0,2.22,2.22,0,0,0,1.36-.34,1.14,1.14,0,0,0,.45-1,1.15,1.15,0,0,0-.15-.59,1.76,1.76,0,0,0-.41-.46,4.57,4.57,0,0,0-.63-.4l-.77-.4c-.3-.15-.57-.3-.82-.45a3.54,3.54,0,0,1-.67-.5,2.47,2.47,0,0,1-.44-.63,1.88,1.88,0,0,1-.16-.82,1.93,1.93,0,0,1,.25-1,2.32,2.32,0,0,1,.66-.7,3.19,3.19,0,0,1,.94-.41,4.29,4.29,0,0,1,1.07-.13,4.08,4.08,0,0,1,1.81.3v1.11a3.24,3.24,0,0,0-1.91-.52,2.88,2.88,0,0,0-.65.07,1.78,1.78,0,0,0-.57.22,1.27,1.27,0,0,0-.41.39,1,1,0,0,0-.16.59,1.18,1.18,0,0,0,.12.55,1.31,1.31,0,0,0,.36.43,3.51,3.51,0,0,0,.57.38l.77.39c.31.15.59.31.86.47a4,4,0,0,1,.71.55,2.53,2.53,0,0,1,.48.66,1.84,1.84,0,0,1,.18.83,2.09,2.09,0,0,1-.24,1.05,1.93,1.93,0,0,1-.66.7,2.8,2.8,0,0,1-1,.39,5.24,5.24,0,0,1-1.14.12l-.49,0-.6-.09a4.74,4.74,0,0,1-.57-.15A1.81,1.81,0,0,1,143.58,55.54Z" fill="#1e1e1e"/>
      <path d="M157.8,55.88h-1V55h0A2,2,0,0,1,155,56a1.93,1.93,0,0,1-1.4-.47,1.65,1.65,0,0,1-.51-1.26c0-1.12.66-1.77,2-2l1.8-.25c0-1-.41-1.53-1.24-1.53a3,3,0,0,0-1.95.74v-1a3.75,3.75,0,0,1,2-.56c1.41,0,2.12.75,2.12,2.24Zm-1-3-1.45.2a2.35,2.35,0,0,0-1,.33,1,1,0,0,0-.34.84.93.93,0,0,0,.32.72,1.22,1.22,0,0,0,.83.27,1.51,1.51,0,0,0,1.18-.5,1.77,1.77,0,0,0,.47-1.26Z" fill="#1e1e1e"/>
      <path d="M164.52,55.88h-1V52.46c0-1.27-.46-1.91-1.39-1.91a1.5,1.5,0,0,0-1.19.54,2,2,0,0,0-.48,1.37v3.42h-1v-6h1v1h0a2.16,2.16,0,0,1,2-1.14,1.81,1.81,0,0,1,1.5.64,2.79,2.79,0,0,1,.52,1.83Z" fill="#1e1e1e"/>
      <path d="M171.46,55.88h-1v-1h0A2.2,2.2,0,0,1,168.41,56a2.27,2.27,0,0,1-1.81-.8,3.33,3.33,0,0,1-.68-2.2,3.59,3.59,0,0,1,.75-2.38,2.48,2.48,0,0,1,2-.9,1.93,1.93,0,0,1,1.8,1h0V47h1Zm-1-2.71v-.88a1.75,1.75,0,0,0-.49-1.24,1.61,1.61,0,0,0-1.21-.5,1.68,1.68,0,0,0-1.39.65,2.85,2.85,0,0,0-.5,1.78,2.53,2.53,0,0,0,.48,1.63,1.59,1.59,0,0,0,1.3.6,1.61,1.61,0,0,0,1.3-.58A2.11,2.11,0,0,0,170.5,53.17Z" fill="#1e1e1e"/>
      <path d="M177.8,52.71v3.17h-1v-8.4h2.31a3,3,0,0,1,2.08.66A2.31,2.31,0,0,1,182,50a2.55,2.55,0,0,1-.83,2,3.18,3.18,0,0,1-2.22.76Zm0-4.34v3.45h1a2.33,2.33,0,0,0,1.56-.47,1.63,1.63,0,0,0,.53-1.31c0-1.11-.65-1.67-2-1.67Z" fill="#1e1e1e"/>
      <path d="M187.46,55.88h-1V55h0A2,2,0,0,1,184.63,56a2,2,0,0,1-1.41-.47,1.64,1.64,0,0,1-.5-1.26c0-1.12.66-1.77,2-2l1.8-.25c0-1-.42-1.53-1.24-1.53a3,3,0,0,0-2,.74v-1a3.76,3.76,0,0,1,2-.56c1.41,0,2.12.75,2.12,2.24Zm-1-3-1.45.2a2.3,2.3,0,0,0-1,.33,1,1,0,0,0-.34.84.92.92,0,0,0,.31.72,1.25,1.25,0,0,0,.84.27,1.51,1.51,0,0,0,1.18-.5,1.77,1.77,0,0,0,.47-1.26Z" fill="#1e1e1e"/>
      <path d="M193.51,55.88h-1V55h0A2,2,0,0,1,190.68,56a2,2,0,0,1-1.4-.47,1.65,1.65,0,0,1-.51-1.26c0-1.12.66-1.77,2-2l1.8-.25c0-1-.41-1.53-1.24-1.53a3,3,0,0,0-1.95.74v-1a3.76,3.76,0,0,1,2-.56c1.41,0,2.11.75,2.11,2.24Zm-1-3-1.45.2a2.25,2.25,0,0,0-1,.33,1,1,0,0,0-.34.84.92.92,0,0,0,.31.72,1.24,1.24,0,0,0,.83.27,1.51,1.51,0,0,0,1.18-.5,1.73,1.73,0,0,0,.47-1.26Z" fill="#1e1e1e"/>
      <path d="M195,55.54V54.38a2,2,0,0,0,.47.32,5.19,5.19,0,0,0,.59.24,6.23,6.23,0,0,0,.62.15,4,4,0,0,0,.57,0,2.22,2.22,0,0,0,1.36-.34,1.14,1.14,0,0,0,.45-1,1.15,1.15,0,0,0-.15-.59,1.64,1.64,0,0,0-.42-.46,3.91,3.91,0,0,0-.62-.4l-.78-.4-.82-.45a3.81,3.81,0,0,1-.66-.5,2.24,2.24,0,0,1-.44-.63,1.88,1.88,0,0,1-.16-.82,1.93,1.93,0,0,1,.25-1,2.32,2.32,0,0,1,.66-.7,3.08,3.08,0,0,1,.94-.41,4.22,4.22,0,0,1,1.06-.13,4.13,4.13,0,0,1,1.82.3v1.11a3.26,3.26,0,0,0-1.91-.52,2.88,2.88,0,0,0-.65.07,1.69,1.69,0,0,0-.57.22,1.18,1.18,0,0,0-.41.39,1,1,0,0,0-.16.59,1.18,1.18,0,0,0,.12.55,1.41,1.41,0,0,0,.35.43,4.69,4.69,0,0,0,.57.38l.78.39c.3.15.59.31.86.47a4,4,0,0,1,.7.55,2.36,2.36,0,0,1,.49.66,1.84,1.84,0,0,1,.18.83,2,2,0,0,1-.9,1.75,3,3,0,0,1-1,.39,5.24,5.24,0,0,1-1.14.12l-.49,0-.6-.09a4.91,4.91,0,0,1-.58-.15A1.72,1.72,0,0,1,195,55.54Z" fill="#1e1e1e"/>
      <path d="M202.58,54.55l-.94,2.88H201l.68-2.88Z" fill="#1e1e1e"/>
      <path d="M211.89,55.88h-1V55h0A2,2,0,0,1,209.06,56a2,2,0,0,1-1.41-.47,1.64,1.64,0,0,1-.5-1.26c0-1.12.66-1.77,2-2l1.79-.25q0-1.53-1.23-1.53a3,3,0,0,0-2,.74v-1a3.76,3.76,0,0,1,2-.56c1.41,0,2.12.75,2.12,2.24Zm-1-3-1.44.2a2.3,2.3,0,0,0-1,.33,1,1,0,0,0-.34.84.92.92,0,0,0,.31.72,1.25,1.25,0,0,0,.84.27,1.53,1.53,0,0,0,1.18-.5,1.76,1.76,0,0,0,.46-1.26Z" fill="#1e1e1e"/>
      <path d="M218.61,55.88h-1V52.46c0-1.27-.47-1.91-1.4-1.91a1.52,1.52,0,0,0-1.19.54,2,2,0,0,0-.47,1.37v3.42h-1v-6h1v1h0a2.17,2.17,0,0,1,2-1.14,1.83,1.83,0,0,1,1.51.64,2.79,2.79,0,0,1,.52,1.83Z" fill="#1e1e1e"/>
      <path d="M225.54,55.88h-1v-1h0A2.22,2.22,0,0,1,222.49,56a2.25,2.25,0,0,1-1.8-.8A3.33,3.33,0,0,1,220,53a3.59,3.59,0,0,1,.75-2.38,2.48,2.48,0,0,1,2-.9,2,2,0,0,1,1.8,1h0V47h1Zm-1-2.71v-.88a1.74,1.74,0,0,0-.48-1.24,1.77,1.77,0,0,0-2.6.15A2.79,2.79,0,0,0,221,53a2.53,2.53,0,0,0,.49,1.63,1.57,1.57,0,0,0,1.3.6,1.63,1.63,0,0,0,1.3-.58A2.16,2.16,0,0,0,224.58,53.17Z" fill="#1e1e1e"/>
      <path d="M63.54,70a3.19,3.19,0,0,1-1.64.41,2.71,2.71,0,0,1-2.07-.83A3,3,0,0,1,59,67.42,3.36,3.36,0,0,1,59.89,65a3,3,0,0,1,2.27-.9,3.06,3.06,0,0,1,1.39.3v1A2.45,2.45,0,0,0,62.12,65a1.91,1.91,0,0,0-1.5.66A2.47,2.47,0,0,0,60,67.34,2.4,2.4,0,0,0,60.58,69a1.92,1.92,0,0,0,1.49.6,2.38,2.38,0,0,0,1.47-.52Z" fill="#1e1e1e"/>
      <path d="M65.79,70.28h-1V61.4h1Z" fill="#1e1e1e"/>
      <path d="M70.19,70.42a2.79,2.79,0,0,1-2.13-.84,3.1,3.1,0,0,1-.79-2.23A3.26,3.26,0,0,1,68.09,65a3,3,0,0,1,2.24-.85,2.69,2.69,0,0,1,2.09.83,3.27,3.27,0,0,1,.75,2.29,3.23,3.23,0,0,1-.81,2.3A2.81,2.81,0,0,1,70.19,70.42ZM70.26,65a1.84,1.84,0,0,0-1.47.63,2.59,2.59,0,0,0-.54,1.74A2.41,2.41,0,0,0,68.8,69a1.85,1.85,0,0,0,1.46.61,1.77,1.77,0,0,0,1.43-.6,2.63,2.63,0,0,0,.5-1.72,2.68,2.68,0,0,0-.5-1.73A1.74,1.74,0,0,0,70.26,65Z" fill="#1e1e1e"/>
      <path d="M79.53,70.28h-1v-1h0a2,2,0,0,1-1.85,1.09c-1.43,0-2.15-.85-2.15-2.55V64.28h1v3.44c0,1.26.48,1.89,1.45,1.89a1.48,1.48,0,0,0,1.16-.51,2,2,0,0,0,.45-1.36V64.28h1Z" fill="#1e1e1e"/>
      <path d="M86.55,70.28h-1v-1h0a2.2,2.2,0,0,1-2.06,1.16,2.27,2.27,0,0,1-1.81-.8,3.32,3.32,0,0,1-.67-2.2A3.59,3.59,0,0,1,81.77,65a2.46,2.46,0,0,1,2-.9,1.93,1.93,0,0,1,1.8,1h0V61.4h1Zm-1-2.71v-.88a1.74,1.74,0,0,0-.48-1.24,1.64,1.64,0,0,0-1.22-.5,1.68,1.68,0,0,0-1.39.65,2.83,2.83,0,0,0-.5,1.78A2.53,2.53,0,0,0,82.48,69a1.6,1.6,0,0,0,1.3.6A1.65,1.65,0,0,0,85.09,69,2.16,2.16,0,0,0,85.59,67.57Z" fill="#1e1e1e"/>
      <path d="M92.76,69.42h0V73h-1V64.28h1v1.06h0a2.29,2.29,0,0,1,2.08-1.2,2.19,2.19,0,0,1,1.81.81,3.33,3.33,0,0,1,.65,2.16,3.72,3.72,0,0,1-.73,2.41,2.46,2.46,0,0,1-2,.9A2,2,0,0,1,92.76,69.42Zm0-2.42v.83a1.81,1.81,0,0,0,.48,1.27,1.64,1.64,0,0,0,1.23.51A1.62,1.62,0,0,0,95.82,69a3.09,3.09,0,0,0,.49-1.86,2.41,2.41,0,0,0-.46-1.57A1.52,1.52,0,0,0,94.6,65a1.73,1.73,0,0,0-1.35.58A2.16,2.16,0,0,0,92.74,67Z" fill="#1e1e1e"/>
      <path d="M99.75,70.28h-1V61.4h1Z" fill="#1e1e1e"/>
      <path d="M105.9,70.28h-1v-.93h0a2,2,0,0,1-1.85,1.07,2,2,0,0,1-1.4-.47,1.65,1.65,0,0,1-.51-1.26c0-1.12.66-1.77,2-2l1.79-.25q0-1.53-1.23-1.53a3,3,0,0,0-2,.74v-1a3.76,3.76,0,0,1,2-.56c1.41,0,2.12.75,2.12,2.24Zm-1-3-1.44.2a2.3,2.3,0,0,0-1,.33,1,1,0,0,0-.34.84.92.92,0,0,0,.31.72,1.25,1.25,0,0,0,.84.27,1.53,1.53,0,0,0,1.18-.5,1.76,1.76,0,0,0,.46-1.26Z" fill="#1e1e1e"/>
      <path d="M110.41,70.22a1.76,1.76,0,0,1-.89.19c-1.06,0-1.58-.58-1.58-1.76V65.1h-1v-.82h1V62.82l1-.31v1.77h1.51v.82H108.9v3.38a1.41,1.41,0,0,0,.21.87.81.81,0,0,0,.68.25.94.94,0,0,0,.62-.2Z" fill="#1e1e1e"/>
      <path d="M114.91,62.24a1.34,1.34,0,0,0-.64-.15c-.67,0-1,.42-1,1.27v.92h1.41v.82h-1.41v5.18h-1V65.1h-1v-.82h1v-1a2,2,0,0,1,.55-1.49,1.82,1.82,0,0,1,1.36-.55,1.94,1.94,0,0,1,.7.11Z" fill="#1e1e1e"/>
      <path d="M118.15,70.42a2.77,2.77,0,0,1-2.12-.84,3.11,3.11,0,0,1-.8-2.23,3.26,3.26,0,0,1,.83-2.36,3,3,0,0,1,2.23-.85,2.71,2.71,0,0,1,2.1.83,3.27,3.27,0,0,1,.75,2.29,3.23,3.23,0,0,1-.81,2.3A2.83,2.83,0,0,1,118.15,70.42Zm.07-5.47a1.81,1.81,0,0,0-1.46.63,2.59,2.59,0,0,0-.54,1.74,2.46,2.46,0,0,0,.54,1.68,1.86,1.86,0,0,0,1.46.61,1.75,1.75,0,0,0,1.43-.6,2.58,2.58,0,0,0,.5-1.72,2.62,2.62,0,0,0-.5-1.73A1.73,1.73,0,0,0,118.22,65Z" fill="#1e1e1e"/>
      <path d="M125.75,65.26a1.18,1.18,0,0,0-.73-.2,1.25,1.25,0,0,0-1,.58,2.74,2.74,0,0,0-.41,1.58v3.06h-1v-6h1v1.24h0a2.17,2.17,0,0,1,.63-1,1.46,1.46,0,0,1,.94-.35,1.49,1.49,0,0,1,.58.08Z" fill="#1e1e1e"/>
      <path d="M135.34,70.28h-1V66.84a2.52,2.52,0,0,0-.31-1.44,1.15,1.15,0,0,0-1-.45,1.3,1.3,0,0,0-1,.56,2.22,2.22,0,0,0-.43,1.35v3.42h-1V66.72c0-1.18-.45-1.77-1.36-1.77a1.3,1.3,0,0,0-1.05.53,2.2,2.2,0,0,0-.41,1.38v3.42h-1v-6h1v1h0a2,2,0,0,1,1.86-1.09,1.77,1.77,0,0,1,1.07.34,1.69,1.69,0,0,1,.63.9,2.16,2.16,0,0,1,2-1.24c1.32,0,2,.82,2,2.45Z" fill="#1e1e1e"/>
      <path d="M144.74,70.28h-1v-.93h0a2,2,0,0,1-1.85,1.07,2,2,0,0,1-1.4-.47,1.65,1.65,0,0,1-.51-1.26c0-1.12.66-1.77,2-2l1.8-.25c0-1-.41-1.53-1.24-1.53a3,3,0,0,0-1.95.74v-1a3.76,3.76,0,0,1,2-.56c1.41,0,2.11.75,2.11,2.24Zm-1-3-1.45.2a2.25,2.25,0,0,0-1,.33,1,1,0,0,0-.34.84.92.92,0,0,0,.31.72,1.24,1.24,0,0,0,.83.27,1.51,1.51,0,0,0,1.18-.5,1.73,1.73,0,0,0,.47-1.26Z" fill="#1e1e1e"/>
      <path d="M151.67,70.28h-1v-1h0a2.2,2.2,0,0,1-2.06,1.16,2.27,2.27,0,0,1-1.81-.8,3.32,3.32,0,0,1-.67-2.2,3.59,3.59,0,0,1,.75-2.38,2.46,2.46,0,0,1,2-.9,1.93,1.93,0,0,1,1.8,1h0V61.4h1Zm-1-2.71v-.88a1.74,1.74,0,0,0-.48-1.24A1.64,1.64,0,0,0,149,65a1.68,1.68,0,0,0-1.39.65,2.83,2.83,0,0,0-.5,1.78A2.53,2.53,0,0,0,147.6,69a1.6,1.6,0,0,0,1.3.6,1.65,1.65,0,0,0,1.31-.58A2.16,2.16,0,0,0,150.71,67.57Z" fill="#1e1e1e"/>
      <path d="M162,70.28h-1V66.84a2.52,2.52,0,0,0-.31-1.44,1.15,1.15,0,0,0-1-.45,1.3,1.3,0,0,0-1,.56,2.22,2.22,0,0,0-.43,1.35v3.42h-1V66.72c0-1.18-.45-1.77-1.36-1.77a1.28,1.28,0,0,0-1.05.53,2.2,2.2,0,0,0-.41,1.38v3.42h-1v-6h1v1h0a2,2,0,0,1,1.86-1.09,1.77,1.77,0,0,1,1.07.34,1.69,1.69,0,0,1,.63.9,2.15,2.15,0,0,1,2-1.24c1.32,0,2,.82,2,2.45Z" fill="#1e1e1e"/>
      <path d="M164.23,62.76a.6.6,0,0,1-.44-.18.57.57,0,0,1-.18-.44.61.61,0,0,1,.18-.45.6.6,0,0,1,.44-.18.62.62,0,0,1,.63.63.6.6,0,0,1-.18.44A.61.61,0,0,1,164.23,62.76Zm.47,7.52h-1v-6h1Z" fill="#1e1e1e"/>
      <path d="M171.51,70.28h-1V66.86c0-1.27-.46-1.91-1.39-1.91a1.5,1.5,0,0,0-1.19.54,2,2,0,0,0-.47,1.37v3.42h-1v-6h1v1h0a2.16,2.16,0,0,1,2-1.14,1.81,1.81,0,0,1,1.5.64,2.79,2.79,0,0,1,.53,1.83Z" fill="#1e1e1e"/>
      <path d="M179.39,70.22a1.82,1.82,0,0,1-.9.19c-1.05,0-1.58-.58-1.58-1.76V65.1h-1v-.82h1V62.82l1-.31v1.77h1.51v.82h-1.51v3.38a1.41,1.41,0,0,0,.2.87.82.82,0,0,0,.68.25,1,1,0,0,0,.63-.2Z" fill="#1e1e1e"/>
      <path d="M183.05,70.42a2.79,2.79,0,0,1-2.13-.84,3.1,3.1,0,0,1-.79-2.23A3.26,3.26,0,0,1,181,65a3,3,0,0,1,2.24-.85,2.69,2.69,0,0,1,2.09.83,3.27,3.27,0,0,1,.75,2.29,3.23,3.23,0,0,1-.81,2.3A2.81,2.81,0,0,1,183.05,70.42Zm.07-5.47a1.84,1.84,0,0,0-1.47.63,2.59,2.59,0,0,0-.54,1.74,2.41,2.41,0,0,0,.55,1.68,1.85,1.85,0,0,0,1.46.61,1.77,1.77,0,0,0,1.43-.6,2.63,2.63,0,0,0,.5-1.72,2.68,2.68,0,0,0-.5-1.73A1.74,1.74,0,0,0,183.12,65Z" fill="#1e1e1e"/>
      <path d="M190.08,70.42a2.79,2.79,0,0,1-2.13-.84,3.1,3.1,0,0,1-.79-2.23A3.22,3.22,0,0,1,188,65a3,3,0,0,1,2.23-.85,2.69,2.69,0,0,1,2.09.83,3.28,3.28,0,0,1,.76,2.29,3.23,3.23,0,0,1-.82,2.3A2.81,2.81,0,0,1,190.08,70.42Zm.07-5.47a1.84,1.84,0,0,0-1.47.63,2.59,2.59,0,0,0-.54,1.74,2.46,2.46,0,0,0,.55,1.68,1.85,1.85,0,0,0,1.46.61,1.75,1.75,0,0,0,1.43-.6,2.63,2.63,0,0,0,.5-1.72,2.68,2.68,0,0,0-.5-1.73A1.73,1.73,0,0,0,190.15,65Z" fill="#1e1e1e"/>
      <path d="M195.5,70.28h-1V61.4h1Z" fill="#1e1e1e"/>
      <path d="M197,70.07V69a2.82,2.82,0,0,0,1.73.58q1.26,0,1.26-.84a.7.7,0,0,0-.11-.41,1,1,0,0,0-.29-.29,1.76,1.76,0,0,0-.43-.23l-.54-.22a5.79,5.79,0,0,1-.7-.32,2,2,0,0,1-.5-.36,1.29,1.29,0,0,1-.31-.46,1.57,1.57,0,0,1-.1-.6,1.44,1.44,0,0,1,.19-.75,1.7,1.7,0,0,1,.52-.55,2.71,2.71,0,0,1,.73-.33,3.49,3.49,0,0,1,.86-.11,3.41,3.41,0,0,1,1.39.27v1a2.78,2.78,0,0,0-1.52-.43,1.88,1.88,0,0,0-.49.06,1.06,1.06,0,0,0-.37.18.85.85,0,0,0-.24.26.69.69,0,0,0-.09.34.82.82,0,0,0,.09.4.94.94,0,0,0,.25.28,2.11,2.11,0,0,0,.4.22l.53.22a6,6,0,0,1,.71.31,2.3,2.3,0,0,1,.54.36,1.45,1.45,0,0,1,.35.47,1.54,1.54,0,0,1,.12.63,1.5,1.5,0,0,1-.2.77,1.82,1.82,0,0,1-.52.55,2.49,2.49,0,0,1-.76.32,3.76,3.76,0,0,1-.9.1A3.49,3.49,0,0,1,197,70.07Z" fill="#1e1e1e"/>
    </g>
    <g>
      <path d="M179.82,101.88h-1V98.05h-4.35v3.83h-1v-8.4h1v3.69h4.35V93.48h1Z" fill="#1e1e1e"/>
      <path d="M186.63,95.88l-2.76,7c-.49,1.25-1.18,1.87-2.07,1.87a2.25,2.25,0,0,1-.63-.08v-.86a1.84,1.84,0,0,0,.57.11,1.17,1.17,0,0,0,1.09-.87l.48-1.14-2.34-6H182l1.63,4.62c0,.06.06.21.12.46h0a2.8,2.8,0,0,1,.11-.45l1.71-4.63Z" fill="#1e1e1e"/>
      <path d="M188.69,101h0v3.62h-1V95.88h1v1.06h0a2.28,2.28,0,0,1,2.08-1.2,2.2,2.2,0,0,1,1.81.81,3.33,3.33,0,0,1,.65,2.16,3.73,3.73,0,0,1-.74,2.41,2.42,2.42,0,0,1-2,.9A2,2,0,0,1,188.69,101Zm0-2.42v.83a1.81,1.81,0,0,0,.48,1.27,1.75,1.75,0,0,0,2.6-.15,3.09,3.09,0,0,0,.49-1.86,2.41,2.41,0,0,0-.46-1.57,1.53,1.53,0,0,0-1.25-.57,1.73,1.73,0,0,0-1.35.58A2.16,2.16,0,0,0,188.67,98.6Z" fill="#1e1e1e"/>
      <path d="M199.58,99.12h-4.23a2.19,2.19,0,0,0,.54,1.55,1.85,1.85,0,0,0,1.41.54,3,3,0,0,0,1.87-.66v.9a3.52,3.52,0,0,1-2.09.57,2.54,2.54,0,0,1-2-.81,3.34,3.34,0,0,1-.73-2.3,3.29,3.29,0,0,1,.8-2.29,2.55,2.55,0,0,1,2-.88,2.28,2.28,0,0,1,1.82.76,3.19,3.19,0,0,1,.64,2.12Zm-1-.81a2,2,0,0,0-.4-1.3,1.4,1.4,0,0,0-1.1-.46A1.52,1.52,0,0,0,196,97a2.16,2.16,0,0,0-.59,1.27Z" fill="#1e1e1e"/>
      <path d="M204.17,96.86a1.18,1.18,0,0,0-.73-.2,1.25,1.25,0,0,0-1,.58,2.74,2.74,0,0,0-.41,1.58v3.06h-1v-6h1v1.24h0a2.17,2.17,0,0,1,.63-1,1.44,1.44,0,0,1,.94-.35,1.52,1.52,0,0,1,.58.08Z" fill="#1e1e1e"/>
      <path d="M209.28,101.61a3.19,3.19,0,0,1-1.64.41,2.71,2.71,0,0,1-2.07-.83,3,3,0,0,1-.79-2.17,3.36,3.36,0,0,1,.85-2.38,3,3,0,0,1,2.27-.9,3.06,3.06,0,0,1,1.39.3v1a2.45,2.45,0,0,0-1.43-.47,1.91,1.91,0,0,0-1.5.66,2.47,2.47,0,0,0-.59,1.73,2.4,2.4,0,0,0,.55,1.67,1.92,1.92,0,0,0,1.49.6,2.38,2.38,0,0,0,1.47-.52Z" fill="#1e1e1e"/>
      <path d="M213.1,102a2.79,2.79,0,0,1-2.13-.84,3.15,3.15,0,0,1-.79-2.23,3.26,3.26,0,0,1,.83-2.36,3,3,0,0,1,2.23-.85,2.69,2.69,0,0,1,2.09.83,3.75,3.75,0,0,1-.05,4.59A2.85,2.85,0,0,1,213.1,102Zm.07-5.47a1.8,1.8,0,0,0-1.46.63,2.59,2.59,0,0,0-.54,1.74,2.46,2.46,0,0,0,.54,1.68,1.85,1.85,0,0,0,1.46.61,1.75,1.75,0,0,0,1.43-.6,2.58,2.58,0,0,0,.5-1.72,2.62,2.62,0,0,0-.5-1.73A1.73,1.73,0,0,0,213.17,96.55Z" fill="#1e1e1e"/>
      <path d="M222.55,101.88h-1V98.46c0-1.27-.47-1.91-1.4-1.91a1.52,1.52,0,0,0-1.19.54,2,2,0,0,0-.47,1.37v3.42h-1v-6h1v1h0a2.17,2.17,0,0,1,2-1.14,1.83,1.83,0,0,1,1.51.64,2.79,2.79,0,0,1,.52,1.83Z" fill="#1e1e1e"/>
      <path d="M228.92,95.88l-2.39,6h-.94l-2.28-6h1.06l1.52,4.36a4.27,4.27,0,0,1,.21.84h0a3.72,3.72,0,0,1,.18-.81l1.6-4.39Z" fill="#1e1e1e"/>
      <path d="M234.62,99.12h-4.24a2.28,2.28,0,0,0,.54,1.55,1.87,1.87,0,0,0,1.42.54,3,3,0,0,0,1.86-.66v.9a3.5,3.5,0,0,1-2.09.57,2.56,2.56,0,0,1-2-.81,3.39,3.39,0,0,1-.73-2.3,3.29,3.29,0,0,1,.8-2.29,2.58,2.58,0,0,1,2-.88,2.27,2.27,0,0,1,1.82.76,3.2,3.2,0,0,1,.65,2.12Zm-1-.81a1.91,1.91,0,0,0-.4-1.3,1.39,1.39,0,0,0-1.1-.46A1.52,1.52,0,0,0,231,97a2.22,2.22,0,0,0-.59,1.27Z" fill="#1e1e1e"/>
      <path d="M239.2,96.86a1.18,1.18,0,0,0-.73-.2,1.22,1.22,0,0,0-1,.58,2.67,2.67,0,0,0-.42,1.58v3.06h-1v-6h1v1.24h0a2.17,2.17,0,0,1,.63-1,1.47,1.47,0,0,1,.95-.35,1.44,1.44,0,0,1,.57.08Z" fill="#1e1e1e"/>
      <path d="M245.38,101.4q0,3.31-3.16,3.31a4.31,4.31,0,0,1-1.95-.42v-1a4,4,0,0,0,1.94.57c1.47,0,2.21-.79,2.21-2.36v-.65h0a2.26,2.26,0,0,1-2.06,1.14,2.22,2.22,0,0,1-1.8-.8,3.16,3.16,0,0,1-.69-2.14,3.78,3.78,0,0,1,.74-2.44,2.46,2.46,0,0,1,2-.9,2,2,0,0,1,1.8,1h0v-.83h1Zm-1-2.23v-.88a1.73,1.73,0,0,0-.48-1.23,1.6,1.6,0,0,0-1.21-.51,1.68,1.68,0,0,0-1.39.65,2.85,2.85,0,0,0-.5,1.81,2.48,2.48,0,0,0,.48,1.6,1.56,1.56,0,0,0,1.28.6,1.69,1.69,0,0,0,1.32-.57A2.16,2.16,0,0,0,244.42,99.17Z" fill="#1e1e1e"/>
      <path d="M252.1,99.12h-4.24a2.28,2.28,0,0,0,.54,1.55,1.87,1.87,0,0,0,1.42.54,3,3,0,0,0,1.86-.66v.9a3.5,3.5,0,0,1-2.09.57,2.56,2.56,0,0,1-2-.81,3.39,3.39,0,0,1-.73-2.3,3.29,3.29,0,0,1,.8-2.29,2.56,2.56,0,0,1,2-.88,2.27,2.27,0,0,1,1.82.76,3.2,3.2,0,0,1,.65,2.12Zm-1-.81a2,2,0,0,0-.4-1.3,1.39,1.39,0,0,0-1.1-.46,1.52,1.52,0,0,0-1.15.49,2.22,2.22,0,0,0-.59,1.27Z" fill="#1e1e1e"/>
      <path d="M258.73,101.88h-1v-1h0a2.21,2.21,0,0,1-2.06,1.16,2.25,2.25,0,0,1-1.81-.8,3.33,3.33,0,0,1-.68-2.2,3.59,3.59,0,0,1,.75-2.38,2.48,2.48,0,0,1,2-.9,2,2,0,0,1,1.8,1h0V93h1Zm-1-2.71v-.88a1.74,1.74,0,0,0-.48-1.24,1.62,1.62,0,0,0-1.22-.5,1.67,1.67,0,0,0-1.38.65,2.79,2.79,0,0,0-.5,1.78,2.53,2.53,0,0,0,.48,1.63,1.57,1.57,0,0,0,1.3.6,1.63,1.63,0,0,0,1.3-.58A2.11,2.11,0,0,0,257.77,99.17Z" fill="#1e1e1e"/>
      <path d="M268.06,101.61a3.22,3.22,0,0,1-1.64.41,2.72,2.72,0,0,1-2.08-.83,3.06,3.06,0,0,1-.78-2.17,3.32,3.32,0,0,1,.85-2.38,3,3,0,0,1,2.26-.9,3.1,3.1,0,0,1,1.4.3v1a2.47,2.47,0,0,0-1.43-.47,1.92,1.92,0,0,0-1.51.66,2.52,2.52,0,0,0-.59,1.73,2.4,2.4,0,0,0,.55,1.67,1.94,1.94,0,0,0,1.49.6,2.43,2.43,0,0,0,1.48-.52Z" fill="#1e1e1e"/>
      <path d="M271.87,102a2.79,2.79,0,0,1-2.12-.84A3.1,3.1,0,0,1,269,99a3.26,3.26,0,0,1,.82-2.36,3,3,0,0,1,2.23-.85,2.7,2.7,0,0,1,2.1.83,3.27,3.27,0,0,1,.75,2.29,3.23,3.23,0,0,1-.81,2.3A2.83,2.83,0,0,1,271.87,102Zm.07-5.47a1.83,1.83,0,0,0-1.46.63,2.59,2.59,0,0,0-.54,1.74,2.46,2.46,0,0,0,.54,1.68,1.86,1.86,0,0,0,1.46.61,1.79,1.79,0,0,0,1.44-.6,2.63,2.63,0,0,0,.5-1.72,2.68,2.68,0,0,0-.5-1.73A1.76,1.76,0,0,0,271.94,96.55Z" fill="#1e1e1e"/>
      <path d="M284.86,101.88h-1V98.44a2.52,2.52,0,0,0-.31-1.44,1.15,1.15,0,0,0-1-.45,1.3,1.3,0,0,0-1.05.56,2.22,2.22,0,0,0-.43,1.35v3.42h-1V98.32c0-1.18-.45-1.77-1.36-1.77a1.28,1.28,0,0,0-1.05.53,2.2,2.2,0,0,0-.41,1.38v3.42h-1v-6h1v1h0a2,2,0,0,1,1.86-1.09,1.77,1.77,0,0,1,1.07.34,1.69,1.69,0,0,1,.63.9,2.15,2.15,0,0,1,2-1.24c1.32,0,2,.82,2,2.45Z" fill="#1e1e1e"/>
      <path d="M287.59,101h0v3.62h-1V95.88h1v1.06h0a2.29,2.29,0,0,1,2.08-1.2,2.2,2.2,0,0,1,1.81.81,3.33,3.33,0,0,1,.65,2.16,3.78,3.78,0,0,1-.73,2.41,2.46,2.46,0,0,1-2,.9A2,2,0,0,1,287.59,101Zm0-2.42v.83a1.81,1.81,0,0,0,.48,1.27,1.75,1.75,0,0,0,2.6-.15,3.09,3.09,0,0,0,.49-1.86,2.41,2.41,0,0,0-.46-1.57,1.53,1.53,0,0,0-1.25-.57,1.73,1.73,0,0,0-1.35.58A2.16,2.16,0,0,0,287.57,98.6Z" fill="#1e1e1e"/>
      <path d="M298.49,101.88h-1v-.95h0a2,2,0,0,1-1.85,1.09c-1.43,0-2.14-.85-2.14-2.55V95.88h.95v3.44c0,1.26.49,1.89,1.46,1.89a1.47,1.47,0,0,0,1.15-.51,2,2,0,0,0,.46-1.36V95.88h1Z" fill="#1e1e1e"/>
      <path d="M303.16,101.82a1.76,1.76,0,0,1-.89.19c-1,0-1.58-.58-1.58-1.76V96.7h-1v-.82h1V94.42l1-.31v1.77h1.51v.82h-1.51v3.38a1.41,1.41,0,0,0,.21.87.81.81,0,0,0,.68.25.94.94,0,0,0,.62-.2Z" fill="#1e1e1e"/>
      <path d="M309.17,99.12h-4.24a2.28,2.28,0,0,0,.54,1.55,1.87,1.87,0,0,0,1.42.54,3,3,0,0,0,1.86-.66v.9a3.5,3.5,0,0,1-2.09.57,2.54,2.54,0,0,1-2-.81,3.39,3.39,0,0,1-.73-2.3,3.29,3.29,0,0,1,.8-2.29,2.56,2.56,0,0,1,2-.88,2.28,2.28,0,0,1,1.82.76,3.2,3.2,0,0,1,.65,2.12Zm-1-.81a2,2,0,0,0-.4-1.3,1.39,1.39,0,0,0-1.1-.46,1.52,1.52,0,0,0-1.15.49,2.22,2.22,0,0,0-.59,1.27Z" fill="#1e1e1e"/>
      <path d="M311.44,100.55l-.94,2.88h-.68l.68-2.88Z" fill="#1e1e1e"/>
      <path d="M316.09,101.67v-1a2.81,2.81,0,0,0,1.72.58c.85,0,1.27-.28,1.27-.84A.78.78,0,0,0,319,100a1,1,0,0,0-.29-.29,1.76,1.76,0,0,0-.43-.23l-.54-.22a5.16,5.16,0,0,1-.7-.32,2.21,2.21,0,0,1-.51-.36,1.41,1.41,0,0,1-.3-.46,1.57,1.57,0,0,1-.1-.6,1.44,1.44,0,0,1,.19-.75,1.7,1.7,0,0,1,.52-.55,2.71,2.71,0,0,1,.73-.33,3.59,3.59,0,0,1,2.25.16v1a2.78,2.78,0,0,0-1.52-.43,1.83,1.83,0,0,0-.49.06,1,1,0,0,0-.37.18.66.66,0,0,0-.24.26.69.69,0,0,0-.09.34.78.78,0,0,0,.34.68,2.36,2.36,0,0,0,.39.22l.54.22a6.85,6.85,0,0,1,.71.31,2.82,2.82,0,0,1,.54.36,1.41,1.41,0,0,1,.34.47,1.54,1.54,0,0,1,.12.63,1.49,1.49,0,0,1-.19.77,1.74,1.74,0,0,1-.53.55,2.43,2.43,0,0,1-.75.32,3.82,3.82,0,0,1-.9.1A3.47,3.47,0,0,1,316.09,101.67Z" fill="#1e1e1e"/>
      <path d="M324.37,101.82a1.82,1.82,0,0,1-.9.19c-1.05,0-1.57-.58-1.57-1.76V96.7h-1v-.82h1V94.42l1-.31v1.77h1.51v.82h-1.51v3.38a1.49,1.49,0,0,0,.2.87.83.83,0,0,0,.68.25,1,1,0,0,0,.63-.2Z" fill="#1e1e1e"/>
      <path d="M328,102a2.76,2.76,0,0,1-2.12-.84,3.11,3.11,0,0,1-.8-2.23,3.26,3.26,0,0,1,.83-2.36,3,3,0,0,1,2.23-.85,2.69,2.69,0,0,1,2.09.83,3.75,3.75,0,0,1-.05,4.59A2.83,2.83,0,0,1,328,102Zm.07-5.47a1.84,1.84,0,0,0-1.47.63,2.64,2.64,0,0,0-.53,1.74,2.46,2.46,0,0,0,.54,1.68,1.85,1.85,0,0,0,1.46.61,1.75,1.75,0,0,0,1.43-.6,2.58,2.58,0,0,0,.5-1.72,2.62,2.62,0,0,0-.5-1.73A1.73,1.73,0,0,0,328.1,96.55Z" fill="#1e1e1e"/>
      <path d="M335.63,96.86a1.18,1.18,0,0,0-.73-.2,1.25,1.25,0,0,0-1,.58,2.74,2.74,0,0,0-.41,1.58v3.06h-1v-6h1v1.24h0a2.17,2.17,0,0,1,.63-1,1.46,1.46,0,0,1,.94-.35,1.52,1.52,0,0,1,.58.08Z" fill="#1e1e1e"/>
      <path d="M340.93,101.88h-1V101h0A2,2,0,0,1,338.1,102a2,2,0,0,1-1.4-.47,1.65,1.65,0,0,1-.51-1.26c0-1.12.66-1.77,2-2l1.8-.25c0-1-.41-1.53-1.24-1.53a3,3,0,0,0-2,.74v-1a3.76,3.76,0,0,1,2-.56c1.41,0,2.11.75,2.11,2.24Zm-1-3-1.45.2a2.35,2.35,0,0,0-1,.33,1,1,0,0,0-.34.84.93.93,0,0,0,.32.72,1.24,1.24,0,0,0,.83.27,1.51,1.51,0,0,0,1.18-.5,1.77,1.77,0,0,0,.47-1.26Z" fill="#1e1e1e"/>
      <path d="M347.86,101.4q0,3.31-3.17,3.31a4.23,4.23,0,0,1-1.94-.42v-1a3.94,3.94,0,0,0,1.93.57c1.48,0,2.22-.79,2.22-2.36v-.65h0a2.43,2.43,0,0,1-3.86.34,3.16,3.16,0,0,1-.68-2.14,3.77,3.77,0,0,1,.73-2.44,2.46,2.46,0,0,1,2-.9,2,2,0,0,1,1.8,1h0v-.83h1Zm-1-2.23v-.88a1.74,1.74,0,0,0-.49-1.23,1.58,1.58,0,0,0-1.2-.51,1.68,1.68,0,0,0-1.4.65,2.91,2.91,0,0,0-.5,1.81,2.48,2.48,0,0,0,.48,1.6,1.57,1.57,0,0,0,1.28.6,1.69,1.69,0,0,0,1.32-.57A2.12,2.12,0,0,0,346.9,99.17Z" fill="#1e1e1e"/>
      <path d="M354.57,99.12h-4.24a2.28,2.28,0,0,0,.54,1.55,1.88,1.88,0,0,0,1.42.54,2.94,2.94,0,0,0,1.86-.66v.9a3.47,3.47,0,0,1-2.09.57,2.56,2.56,0,0,1-2-.81,3.39,3.39,0,0,1-.72-2.3,3.29,3.29,0,0,1,.79-2.29,2.58,2.58,0,0,1,2-.88,2.25,2.25,0,0,1,1.82.76,3.2,3.2,0,0,1,.65,2.12Zm-1-.81a1.91,1.91,0,0,0-.4-1.3,1.39,1.39,0,0,0-1.1-.46,1.54,1.54,0,0,0-1.15.49,2.22,2.22,0,0,0-.59,1.27Z" fill="#1e1e1e"/>
      <path d="M356.85,100.55l-.94,2.88h-.69l.69-2.88Z" fill="#1e1e1e"/>
      <path d="M228.75,116.28h-1v-.93h0a2,2,0,0,1-1.85,1.07,2,2,0,0,1-1.4-.47,1.65,1.65,0,0,1-.51-1.26c0-1.12.66-1.77,2-2l1.8-.25q0-1.53-1.23-1.53a3,3,0,0,0-2,.74v-1a3.76,3.76,0,0,1,2-.56c1.41,0,2.11.75,2.11,2.24Zm-1-3-1.44.2a2.25,2.25,0,0,0-1,.33,1,1,0,0,0-.34.84.92.92,0,0,0,.31.72,1.25,1.25,0,0,0,.84.27,1.53,1.53,0,0,0,1.18-.5,1.76,1.76,0,0,0,.46-1.26Z" fill="#1e1e1e"/>
      <path d="M235.48,116.28h-1v-3.42c0-1.27-.47-1.91-1.4-1.91a1.5,1.5,0,0,0-1.19.54,2,2,0,0,0-.47,1.37v3.42h-1v-6h1v1h0a2.16,2.16,0,0,1,2-1.14,1.83,1.83,0,0,1,1.51.64,2.85,2.85,0,0,1,.52,1.83Z" fill="#1e1e1e"/>
      <path d="M242.41,116.28h-1v-1h0a2.2,2.2,0,0,1-2.06,1.16,2.28,2.28,0,0,1-1.81-.8,3.32,3.32,0,0,1-.67-2.2,3.59,3.59,0,0,1,.75-2.38,2.46,2.46,0,0,1,2-.9,1.92,1.92,0,0,1,1.79,1h0V107.4h1Zm-1-2.71v-.88a1.74,1.74,0,0,0-.48-1.24,1.77,1.77,0,0,0-2.6.15,2.77,2.77,0,0,0-.51,1.78,2.48,2.48,0,0,0,.49,1.63,1.57,1.57,0,0,0,1.29.6A1.65,1.65,0,0,0,241,115,2.16,2.16,0,0,0,241.45,113.57Z" fill="#1e1e1e"/>
      <path d="M252.62,116.28h-1v-3.42c0-1.27-.46-1.91-1.39-1.91a1.54,1.54,0,0,0-1.2.54,2,2,0,0,0-.47,1.37v3.42h-1v-6h1v1h0a2.16,2.16,0,0,1,2-1.14,1.83,1.83,0,0,1,1.51.64,2.79,2.79,0,0,1,.52,1.83Z" fill="#1e1e1e"/>
      <path d="M259.23,113.52H255a2.19,2.19,0,0,0,.54,1.55,1.85,1.85,0,0,0,1.42.54,3,3,0,0,0,1.86-.66v.9a3.52,3.52,0,0,1-2.09.57,2.54,2.54,0,0,1-2-.81,3.34,3.34,0,0,1-.73-2.3,3.29,3.29,0,0,1,.8-2.29,2.56,2.56,0,0,1,2-.88,2.28,2.28,0,0,1,1.82.76,3.19,3.19,0,0,1,.64,2.12Zm-1-.81a2,2,0,0,0-.4-1.3,1.36,1.36,0,0,0-1.1-.46,1.52,1.52,0,0,0-1.15.49,2.16,2.16,0,0,0-.59,1.27Z" fill="#1e1e1e"/>
      <path d="M263.46,116.22a1.76,1.76,0,0,1-.89.19c-1.05,0-1.58-.58-1.58-1.76V111.1h-1v-.82h1v-1.46l1-.31v1.77h1.51v.82H262v3.38a1.41,1.41,0,0,0,.21.87.81.81,0,0,0,.68.25.94.94,0,0,0,.62-.2Z" fill="#1e1e1e"/>
      <path d="M272.64,110.28l-1.8,6h-1L268.61,112a3,3,0,0,1-.1-.56h0a2.64,2.64,0,0,1-.12.55l-1.35,4.3h-1l-1.81-6h1l1.25,4.51a3.12,3.12,0,0,1,.08.54h.05a2.38,2.38,0,0,1,.1-.55l1.38-4.5H269l1.24,4.53a3,3,0,0,1,.09.54h.05a2.4,2.4,0,0,1,.1-.54l1.22-4.53Z" fill="#1e1e1e"/>
      <path d="M276.14,116.42a2.76,2.76,0,0,1-2.12-.84,3.11,3.11,0,0,1-.8-2.23,3.26,3.26,0,0,1,.83-2.36,3,3,0,0,1,2.23-.85,2.73,2.73,0,0,1,2.1.83,3.27,3.27,0,0,1,.75,2.29,3.23,3.23,0,0,1-.81,2.3A2.83,2.83,0,0,1,276.14,116.42Zm.07-5.47a1.84,1.84,0,0,0-1.47.63,2.59,2.59,0,0,0-.53,1.74,2.46,2.46,0,0,0,.54,1.68,1.85,1.85,0,0,0,1.46.61,1.75,1.75,0,0,0,1.43-.6,2.58,2.58,0,0,0,.5-1.72,2.62,2.62,0,0,0-.5-1.73A1.73,1.73,0,0,0,276.21,111Z" fill="#1e1e1e"/>
      <path d="M283.74,111.26a1.18,1.18,0,0,0-.73-.2,1.25,1.25,0,0,0-1,.58,2.74,2.74,0,0,0-.41,1.58v3.06h-1v-6h1v1.24h0a2.17,2.17,0,0,1,.63-1,1.46,1.46,0,0,1,.94-.35,1.52,1.52,0,0,1,.58.08Z" fill="#1e1e1e"/>
      <path d="M289.79,116.28h-1.35l-2.64-2.88h0v2.88h-1V107.4h1V113h0l2.52-2.75h1.26l-2.79,2.9Z" fill="#1e1e1e"/>
      <path d="M291.33,108.76a.6.6,0,0,1-.44-.18.57.57,0,0,1-.18-.44.61.61,0,0,1,.18-.45.6.6,0,0,1,.44-.18.61.61,0,0,1,.45.18.62.62,0,0,1,0,.89A.61.61,0,0,1,291.33,108.76Zm.47,7.52h-1v-6h1Z" fill="#1e1e1e"/>
      <path d="M298.61,116.28h-1v-3.42c0-1.27-.47-1.91-1.4-1.91a1.52,1.52,0,0,0-1.19.54,2,2,0,0,0-.47,1.37v3.42h-1v-6h1v1h0a2.17,2.17,0,0,1,2-1.14,1.83,1.83,0,0,1,1.51.64,2.79,2.79,0,0,1,.52,1.83Z" fill="#1e1e1e"/>
      <path d="M305.54,115.8q0,3.32-3.16,3.31a4.28,4.28,0,0,1-1.95-.42v-1a4,4,0,0,0,1.94.57c1.47,0,2.21-.79,2.21-2.36v-.66h0a2.43,2.43,0,0,1-3.87.35,3.21,3.21,0,0,1-.68-2.14,3.72,3.72,0,0,1,.74-2.44,2.46,2.46,0,0,1,2-.9,2,2,0,0,1,1.8,1h0v-.83h1Zm-1-2.23v-.88a1.73,1.73,0,0,0-.48-1.23,1.62,1.62,0,0,0-1.21-.51,1.66,1.66,0,0,0-1.39.65,2.85,2.85,0,0,0-.51,1.81,2.48,2.48,0,0,0,.49,1.6,1.56,1.56,0,0,0,1.28.6,1.65,1.65,0,0,0,1.31-.57A2.12,2.12,0,0,0,304.58,113.57Z" fill="#1e1e1e"/>
    </g>
    <g>
      <path d="M27.65,98.53a4.89,4.89,0,0,1-2.32.49,3.74,3.74,0,0,1-2.87-1.15,4.26,4.26,0,0,1-1.08-3,4.48,4.48,0,0,1,1.22-3.26,4.08,4.08,0,0,1,3.07-1.24,4.91,4.91,0,0,1,2,.35v1a4.05,4.05,0,0,0-2-.5,3,3,0,0,0-2.35,1,3.62,3.62,0,0,0-.9,2.58,3.49,3.49,0,0,0,.84,2.45,2.89,2.89,0,0,0,2.21.91,4.2,4.2,0,0,0,2.19-.56Z" fill="#1e1e1e"/>
      <path d="M30,98.88H29V90h1Z" fill="#1e1e1e"/>
      <path d="M34.35,99a2.77,2.77,0,0,1-2.12-.84,3.11,3.11,0,0,1-.8-2.23,3.26,3.26,0,0,1,.83-2.36,3,3,0,0,1,2.23-.85,2.71,2.71,0,0,1,2.1.83,3.27,3.27,0,0,1,.75,2.29,3.23,3.23,0,0,1-.81,2.3A2.83,2.83,0,0,1,34.35,99Zm.07-5.47a1.81,1.81,0,0,0-1.46.63,2.59,2.59,0,0,0-.54,1.74A2.46,2.46,0,0,0,33,97.6a1.86,1.86,0,0,0,1.46.61,1.75,1.75,0,0,0,1.43-.6,2.58,2.58,0,0,0,.51-1.72,2.63,2.63,0,0,0-.51-1.73A1.73,1.73,0,0,0,34.42,93.55Z" fill="#1e1e1e"/>
      <path d="M43.7,98.88h-1v-.95h0A2,2,0,0,1,40.86,99c-1.43,0-2.14-.85-2.14-2.55V92.88h1v3.44c0,1.26.49,1.89,1.46,1.89a1.5,1.5,0,0,0,1.16-.51,2,2,0,0,0,.45-1.36V92.88h1Z" fill="#1e1e1e"/>
      <path d="M50.71,98.88h-1v-1h0A2.21,2.21,0,0,1,47.67,99a2.25,2.25,0,0,1-1.81-.8,3.33,3.33,0,0,1-.68-2.2,3.59,3.59,0,0,1,.75-2.38,2.48,2.48,0,0,1,2-.9,2,2,0,0,1,1.8,1h0V90h1Zm-1-2.71v-.88a1.74,1.74,0,0,0-.48-1.24,1.64,1.64,0,0,0-1.22-.5,1.67,1.67,0,0,0-1.38.65,2.79,2.79,0,0,0-.5,1.78,2.53,2.53,0,0,0,.48,1.63,1.57,1.57,0,0,0,1.3.6,1.63,1.63,0,0,0,1.3-.58A2.16,2.16,0,0,0,49.75,96.17Z" fill="#1e1e1e"/>
      <path d="M60,98.61a3.23,3.23,0,0,1-1.65.41,2.71,2.71,0,0,1-2.07-.83A3.06,3.06,0,0,1,55.54,96a3.36,3.36,0,0,1,.84-2.38,3,3,0,0,1,2.27-.9,3.13,3.13,0,0,1,1.4.3v1a2.47,2.47,0,0,0-1.43-.47,1.92,1.92,0,0,0-1.51.66,2.52,2.52,0,0,0-.59,1.73,2.4,2.4,0,0,0,.55,1.67,1.94,1.94,0,0,0,1.49.6A2.43,2.43,0,0,0,60,97.69Z" fill="#1e1e1e"/>
      <path d="M63.85,99a2.79,2.79,0,0,1-2.12-.84,3.11,3.11,0,0,1-.8-2.23,3.26,3.26,0,0,1,.83-2.36A3,3,0,0,1,64,92.74a2.7,2.7,0,0,1,2.1.83,3.27,3.27,0,0,1,.75,2.29,3.23,3.23,0,0,1-.81,2.3A2.83,2.83,0,0,1,63.85,99Zm.07-5.47a1.83,1.83,0,0,0-1.46.63,2.59,2.59,0,0,0-.54,1.74,2.46,2.46,0,0,0,.54,1.68,1.86,1.86,0,0,0,1.46.61,1.75,1.75,0,0,0,1.43-.6,2.58,2.58,0,0,0,.51-1.72,2.63,2.63,0,0,0-.51-1.73A1.73,1.73,0,0,0,63.92,93.55Z" fill="#1e1e1e"/>
      <path d="M76.84,98.88h-1V95.44A2.52,2.52,0,0,0,75.57,94a1.15,1.15,0,0,0-1-.45,1.3,1.3,0,0,0-1.05.56,2.22,2.22,0,0,0-.43,1.35v3.42h-1V95.32c0-1.18-.45-1.77-1.36-1.77a1.28,1.28,0,0,0-1,.53,2.2,2.2,0,0,0-.41,1.38v3.42h-1v-6h1v1h0a2,2,0,0,1,1.86-1.09,1.77,1.77,0,0,1,1.07.34,1.75,1.75,0,0,1,.63.9,2.15,2.15,0,0,1,2-1.24c1.32,0,2,.82,2,2.45Z" fill="#1e1e1e"/>
      <path d="M79.57,98h0v3.62h-1V92.88h1v1.06h0a2.28,2.28,0,0,1,2.08-1.2,2.2,2.2,0,0,1,1.81.81,3.33,3.33,0,0,1,.65,2.16,3.78,3.78,0,0,1-.73,2.41,2.46,2.46,0,0,1-2,.9A2,2,0,0,1,79.57,98Zm0-2.42v.83A1.81,1.81,0,0,0,80,97.7a1.75,1.75,0,0,0,2.6-.15,3.09,3.09,0,0,0,.49-1.86,2.41,2.41,0,0,0-.46-1.57,1.53,1.53,0,0,0-1.25-.57,1.73,1.73,0,0,0-1.35.58A2.16,2.16,0,0,0,79.55,95.6Z" fill="#1e1e1e"/>
      <path d="M90.47,98.88h-1v-.95h0A2,2,0,0,1,87.63,99c-1.43,0-2.14-.85-2.14-2.55V92.88h1v3.44c0,1.26.49,1.89,1.46,1.89a1.47,1.47,0,0,0,1.15-.51,2,2,0,0,0,.46-1.36V92.88h1Z" fill="#1e1e1e"/>
      <path d="M95.14,98.82a1.76,1.76,0,0,1-.89.19c-1.06,0-1.58-.58-1.58-1.76V93.7h-1v-.82h1V91.42l1-.31v1.77h1.51v.82H93.63v3.38a1.41,1.41,0,0,0,.21.87.81.81,0,0,0,.68.25.94.94,0,0,0,.62-.2Z" fill="#1e1e1e"/>
      <path d="M101.15,96.12H96.91a2.19,2.19,0,0,0,.54,1.55,1.85,1.85,0,0,0,1.42.54,3,3,0,0,0,1.86-.66v.9a3.52,3.52,0,0,1-2.09.57,2.54,2.54,0,0,1-2-.81,3.39,3.39,0,0,1-.73-2.3,3.29,3.29,0,0,1,.8-2.29,2.56,2.56,0,0,1,2-.88,2.28,2.28,0,0,1,1.82.76,3.2,3.2,0,0,1,.65,2.12Zm-1-.81a2,2,0,0,0-.4-1.3,1.39,1.39,0,0,0-1.1-.46,1.52,1.52,0,0,0-1.15.49,2.22,2.22,0,0,0-.59,1.27Z" fill="#1e1e1e"/>
      <path d="M103.42,97.55l-.94,2.88h-.68l.68-2.88Z" fill="#1e1e1e"/>
      <path d="M30.46,113.07v-1a2.82,2.82,0,0,0,1.73.58q1.26,0,1.26-.84a.7.7,0,0,0-.11-.41,1,1,0,0,0-.29-.29,1.76,1.76,0,0,0-.43-.23l-.54-.22a5.16,5.16,0,0,1-.7-.32,2,2,0,0,1-.5-.36,1.29,1.29,0,0,1-.31-.46,1.57,1.57,0,0,1-.1-.6,1.44,1.44,0,0,1,.19-.75,1.7,1.7,0,0,1,.52-.55,2.71,2.71,0,0,1,.73-.33,3.49,3.49,0,0,1,.86-.11,3.41,3.41,0,0,1,1.39.27v1a2.78,2.78,0,0,0-1.52-.43,1.88,1.88,0,0,0-.49.06,1.06,1.06,0,0,0-.37.18.85.85,0,0,0-.24.26.69.69,0,0,0-.09.34.82.82,0,0,0,.09.4.94.94,0,0,0,.25.28,2.11,2.11,0,0,0,.4.22l.53.22a6.85,6.85,0,0,1,.71.31,2.53,2.53,0,0,1,.54.36,1.45,1.45,0,0,1,.35.47,1.54,1.54,0,0,1,.12.63,1.5,1.5,0,0,1-.2.77,1.82,1.82,0,0,1-.52.55,2.6,2.6,0,0,1-.76.32,3.76,3.76,0,0,1-.9.1A3.49,3.49,0,0,1,30.46,113.07Z" fill="#1e1e1e"/>
      <path d="M38.74,113.22a1.8,1.8,0,0,1-.9.19c-1.05,0-1.57-.58-1.57-1.76V108.1h-1v-.82h1v-1.46l1-.31v1.77h1.51v.82H37.23v3.38a1.49,1.49,0,0,0,.2.87.83.83,0,0,0,.68.25,1,1,0,0,0,.63-.2Z" fill="#1e1e1e"/>
      <path d="M42.4,113.42a2.77,2.77,0,0,1-2.12-.84,3.11,3.11,0,0,1-.8-2.23,3.26,3.26,0,0,1,.83-2.36,3,3,0,0,1,2.23-.85,2.71,2.71,0,0,1,2.1.83,3.27,3.27,0,0,1,.75,2.29,3.23,3.23,0,0,1-.81,2.3A2.83,2.83,0,0,1,42.4,113.42Zm.07-5.47a1.81,1.81,0,0,0-1.46.63,2.59,2.59,0,0,0-.54,1.74A2.46,2.46,0,0,0,41,112a1.86,1.86,0,0,0,1.46.61,1.75,1.75,0,0,0,1.43-.6,2.58,2.58,0,0,0,.5-1.72,2.62,2.62,0,0,0-.5-1.73A1.73,1.73,0,0,0,42.47,108Z" fill="#1e1e1e"/>
      <path d="M50,108.26a1.18,1.18,0,0,0-.73-.2,1.25,1.25,0,0,0-1,.58,2.74,2.74,0,0,0-.41,1.58v3.06h-1v-6h1v1.24h0a2.17,2.17,0,0,1,.63-1,1.46,1.46,0,0,1,.94-.35,1.49,1.49,0,0,1,.58.08Z" fill="#1e1e1e"/>
      <path d="M55.3,113.28h-1v-.93h0a2,2,0,0,1-1.85,1.07,2,2,0,0,1-1.4-.47,1.65,1.65,0,0,1-.51-1.26c0-1.12.66-1.77,2-2l1.8-.25c0-1-.41-1.53-1.24-1.53a3,3,0,0,0-2,.74v-1a3.76,3.76,0,0,1,2-.56c1.41,0,2.11.75,2.11,2.24Zm-1-3-1.45.2a2.25,2.25,0,0,0-1,.33,1,1,0,0,0-.34.84.92.92,0,0,0,.31.72,1.24,1.24,0,0,0,.83.27,1.55,1.55,0,0,0,1.19-.5,1.76,1.76,0,0,0,.46-1.26Z" fill="#1e1e1e"/>
      <path d="M62.23,112.8q0,3.32-3.17,3.31a4.23,4.23,0,0,1-1.94-.42v-1a3.94,3.94,0,0,0,1.93.57c1.48,0,2.22-.79,2.22-2.36v-.66h0a2.42,2.42,0,0,1-3.86.35,3.16,3.16,0,0,1-.68-2.14,3.77,3.77,0,0,1,.73-2.44,2.46,2.46,0,0,1,2-.9,2,2,0,0,1,1.8,1h0v-.83h1Zm-1-2.23v-.88a1.7,1.7,0,0,0-.49-1.23,1.58,1.58,0,0,0-1.2-.51,1.7,1.7,0,0,0-1.4.65,2.91,2.91,0,0,0-.5,1.81,2.48,2.48,0,0,0,.48,1.6,1.57,1.57,0,0,0,1.28.6,1.69,1.69,0,0,0,1.32-.57A2.12,2.12,0,0,0,61.27,110.57Z" fill="#1e1e1e"/>
      <path d="M68.94,110.52H64.7a2.28,2.28,0,0,0,.54,1.55,1.88,1.88,0,0,0,1.42.54,2.94,2.94,0,0,0,1.86-.66v.9a3.47,3.47,0,0,1-2.09.57,2.53,2.53,0,0,1-2-.81,3.34,3.34,0,0,1-.73-2.3A3.29,3.29,0,0,1,64.5,108a2.58,2.58,0,0,1,2-.88,2.29,2.29,0,0,1,1.83.76,3.19,3.19,0,0,1,.64,2.12Zm-1-.81a2,2,0,0,0-.4-1.3,1.37,1.37,0,0,0-1.1-.46,1.54,1.54,0,0,0-1.16.49,2.21,2.21,0,0,0-.58,1.27Z" fill="#1e1e1e"/>
      <path d="M71.22,112l-.94,2.88H69.6l.68-2.88Z" fill="#1e1e1e"/>
      <path d="M80.52,113.28h-1v-.93h0a2,2,0,0,1-1.85,1.07,2,2,0,0,1-1.4-.47,1.65,1.65,0,0,1-.51-1.26c0-1.12.66-1.77,2-2l1.8-.25q0-1.53-1.23-1.53a3,3,0,0,0-2,.74v-1a3.76,3.76,0,0,1,2-.56c1.41,0,2.11.75,2.11,2.24Zm-1-3-1.44.2a2.25,2.25,0,0,0-1,.33,1,1,0,0,0-.34.84.92.92,0,0,0,.31.72,1.25,1.25,0,0,0,.84.27,1.53,1.53,0,0,0,1.18-.5,1.76,1.76,0,0,0,.46-1.26Z" fill="#1e1e1e"/>
      <path d="M87.25,113.28h-1v-3.42c0-1.27-.47-1.91-1.4-1.91a1.5,1.5,0,0,0-1.19.54,2,2,0,0,0-.47,1.37v3.42h-1v-6h1v1h0a2.16,2.16,0,0,1,2-1.14,1.83,1.83,0,0,1,1.51.64,2.85,2.85,0,0,1,.52,1.83Z" fill="#1e1e1e"/>
      <path d="M94.18,113.28h-1v-1h0a2.2,2.2,0,0,1-2.06,1.16,2.28,2.28,0,0,1-1.81-.8,3.32,3.32,0,0,1-.67-2.2A3.59,3.59,0,0,1,89.4,108a2.46,2.46,0,0,1,2-.9,1.92,1.92,0,0,1,1.79,1h0V104.4h1Zm-1-2.71v-.88a1.74,1.74,0,0,0-.48-1.24,1.77,1.77,0,0,0-2.6.15,2.77,2.77,0,0,0-.51,1.78,2.48,2.48,0,0,0,.49,1.63,1.57,1.57,0,0,0,1.29.6,1.65,1.65,0,0,0,1.31-.58A2.16,2.16,0,0,0,93.22,110.57Z" fill="#1e1e1e"/>
      <path d="M38.53,127.68h-1v-3.42c0-1.27-.47-1.91-1.39-1.91a1.52,1.52,0,0,0-1.2.54,2,2,0,0,0-.47,1.37v3.42h-1v-6h1v1h0a2.17,2.17,0,0,1,2-1.14,1.83,1.83,0,0,1,1.51.64,2.79,2.79,0,0,1,.52,1.83Z" fill="#1e1e1e"/>
      <path d="M45.14,124.92H40.91a2.19,2.19,0,0,0,.54,1.55,1.85,1.85,0,0,0,1.41.54,3,3,0,0,0,1.87-.66v.9a3.52,3.52,0,0,1-2.09.57,2.54,2.54,0,0,1-2-.81,3.85,3.85,0,0,1,.06-4.59,2.58,2.58,0,0,1,2-.88,2.28,2.28,0,0,1,1.82.76,3.19,3.19,0,0,1,.64,2.12Zm-1-.81a2,2,0,0,0-.4-1.3,1.37,1.37,0,0,0-1.1-.46,1.56,1.56,0,0,0-1.16.49,2.18,2.18,0,0,0-.58,1.27Z" fill="#1e1e1e"/>
      <path d="M49.37,127.62a1.76,1.76,0,0,1-.89.19c-1,0-1.58-.58-1.58-1.76V122.5h-1v-.82h1v-1.46l1-.31v1.77h1.51v.82H47.86v3.38a1.41,1.41,0,0,0,.21.87.81.81,0,0,0,.68.25.94.94,0,0,0,.62-.2Z" fill="#1e1e1e"/>
      <path d="M58.55,121.68l-1.8,6h-1l-1.24-4.29a4.1,4.1,0,0,1-.09-.56h0a2.78,2.78,0,0,1-.13.55l-1.34,4.3H52l-1.82-6h1l1.24,4.51a3,3,0,0,1,.09.54h0a3.14,3.14,0,0,1,.11-.55l1.38-4.5h.88l1.24,4.53a3,3,0,0,1,.09.54h.05a2.4,2.4,0,0,1,.1-.54l1.22-4.53Z" fill="#1e1e1e"/>
      <path d="M62.05,127.82a2.79,2.79,0,0,1-2.13-.84,3.1,3.1,0,0,1-.79-2.23,3.22,3.22,0,0,1,.83-2.36,3,3,0,0,1,2.23-.85,2.69,2.69,0,0,1,2.09.83,3.28,3.28,0,0,1,.76,2.29,3.19,3.19,0,0,1-.82,2.3A2.81,2.81,0,0,1,62.05,127.82Zm.07-5.47a1.84,1.84,0,0,0-1.47.63,2.59,2.59,0,0,0-.54,1.74,2.46,2.46,0,0,0,.55,1.68,1.85,1.85,0,0,0,1.46.61,1.75,1.75,0,0,0,1.43-.6,2.63,2.63,0,0,0,.5-1.72,2.68,2.68,0,0,0-.5-1.73A1.73,1.73,0,0,0,62.12,122.35Z" fill="#1e1e1e"/>
      <path d="M69.65,122.66a1.18,1.18,0,0,0-.73-.2,1.25,1.25,0,0,0-1,.58,2.74,2.74,0,0,0-.41,1.58v3.06h-1v-6h1v1.24h0a2.17,2.17,0,0,1,.63-1,1.44,1.44,0,0,1,.94-.35,1.52,1.52,0,0,1,.58.08Z" fill="#1e1e1e"/>
      <path d="M75.7,127.68H74.35L71.7,124.8h0v2.88h-1V118.8h1v5.63h0l2.52-2.75h1.26l-2.78,2.9Z" fill="#1e1e1e"/>
      <path d="M77.24,120.16a.6.6,0,0,1-.44-.18.57.57,0,0,1-.18-.44.61.61,0,0,1,.18-.45.6.6,0,0,1,.44-.18.62.62,0,0,1,.63.63.6.6,0,0,1-.18.44A.61.61,0,0,1,77.24,120.16Zm.47,7.52h-1v-6h1Z" fill="#1e1e1e"/>
      <path d="M84.52,127.68h-1v-3.42c0-1.27-.47-1.91-1.4-1.91a1.5,1.5,0,0,0-1.19.54,2,2,0,0,0-.47,1.37v3.42h-1v-6h1v1h0a2.16,2.16,0,0,1,2-1.14,1.83,1.83,0,0,1,1.51.64,2.85,2.85,0,0,1,.52,1.83Z" fill="#1e1e1e"/>
      <path d="M91.45,127.2c0,2.21-1.06,3.31-3.16,3.31a4.13,4.13,0,0,1-2-.43v-1a4,4,0,0,0,1.93.57c1.48,0,2.22-.79,2.22-2.36v-.66h0a2.42,2.42,0,0,1-3.86.35,3.21,3.21,0,0,1-.68-2.14,3.77,3.77,0,0,1,.73-2.44,2.46,2.46,0,0,1,2-.9,2,2,0,0,1,1.79,1h0v-.83h1Zm-1-2.23v-.89a1.69,1.69,0,0,0-.49-1.22,1.58,1.58,0,0,0-1.2-.51,1.66,1.66,0,0,0-1.39.65,2.85,2.85,0,0,0-.51,1.81,2.43,2.43,0,0,0,.49,1.6,1.55,1.55,0,0,0,1.28.6,1.67,1.67,0,0,0,1.31-.57A2.12,2.12,0,0,0,90.49,125Z" fill="#1e1e1e"/>
    </g>
    <g>
      <path d="M28.58,155.88H27.49l-.89-2.35H23l-.84,2.35H21.11l3.22-8.4h1Zm-2.3-3.24L25,149.06a4.39,4.39,0,0,1-.13-.56h0a3.13,3.13,0,0,1-.13.56l-1.31,3.58Z" fill="#1e1e1e"/>
      <path d="M34.26,150.16l-3.55,4.9h3.51v.82H29.3v-.3l3.55-4.88H29.63v-.82h4.63Z" fill="#1e1e1e"/>
      <path d="M40.35,155.88h-1v-.95h0A2,2,0,0,1,37.52,156c-1.43,0-2.15-.85-2.15-2.55v-3.59h1v3.44c0,1.26.48,1.89,1.45,1.89a1.5,1.5,0,0,0,1.16-.51,2,2,0,0,0,.45-1.36v-3.46h1Z" fill="#1e1e1e"/>
      <path d="M45.3,150.86a1.18,1.18,0,0,0-.73-.2,1.25,1.25,0,0,0-1,.58,2.74,2.74,0,0,0-.41,1.58v3.06h-1v-6h1v1.24h0a2.17,2.17,0,0,1,.63-1,1.46,1.46,0,0,1,.94-.35,1.52,1.52,0,0,1,.58.08Z" fill="#1e1e1e"/>
      <path d="M51.18,153.12H46.94a2.19,2.19,0,0,0,.54,1.55,1.85,1.85,0,0,0,1.42.54,3,3,0,0,0,1.86-.66v.9a3.52,3.52,0,0,1-2.09.57,2.54,2.54,0,0,1-2-.81,3.39,3.39,0,0,1-.73-2.3,3.29,3.29,0,0,1,.8-2.29,2.56,2.56,0,0,1,2-.88,2.28,2.28,0,0,1,1.82.76,3.2,3.2,0,0,1,.65,2.12Zm-1-.81a2,2,0,0,0-.4-1.3,1.39,1.39,0,0,0-1.1-.46,1.52,1.52,0,0,0-1.15.49,2.16,2.16,0,0,0-.59,1.27Z" fill="#1e1e1e"/>
      <path d="M60.9,155.88h-1v-3.45c0-1.25-.47-1.88-1.4-1.88a1.51,1.51,0,0,0-1.18.54,2,2,0,0,0-.48,1.39v3.4h-1V147h1v3.88h0a2.18,2.18,0,0,1,2-1.14c1.35,0,2,.82,2,2.45Z" fill="#1e1e1e"/>
      <path d="M66.93,155.88H66V155h0A2,2,0,0,1,64.1,156a2,2,0,0,1-1.4-.47,1.65,1.65,0,0,1-.51-1.26c0-1.12.66-1.77,2-2l1.8-.25c0-1-.41-1.53-1.24-1.53a3,3,0,0,0-2,.74v-1a3.76,3.76,0,0,1,2-.56c1.41,0,2.11.75,2.11,2.24Zm-1-3-1.45.2a2.25,2.25,0,0,0-1,.33,1,1,0,0,0-.34.84.92.92,0,0,0,.31.72,1.24,1.24,0,0,0,.83.27,1.51,1.51,0,0,0,1.18-.5,1.73,1.73,0,0,0,.47-1.26Z" fill="#1e1e1e"/>
      <path d="M71.8,150.86a1.16,1.16,0,0,0-.72-.2,1.24,1.24,0,0,0-1,.58,2.67,2.67,0,0,0-.42,1.58v3.06h-1v-6h1v1.24h0a2.08,2.08,0,0,1,.62-1,1.49,1.49,0,0,1,1-.35,1.44,1.44,0,0,1,.57.08Z" fill="#1e1e1e"/>
      <path d="M78,155.88H77v-1h0A2.2,2.2,0,0,1,74.94,156a2.25,2.25,0,0,1-1.81-.8,3.33,3.33,0,0,1-.68-2.2,3.59,3.59,0,0,1,.75-2.38,2.48,2.48,0,0,1,2-.9,1.93,1.93,0,0,1,1.8,1h0V147h1Zm-1-2.71v-.88a1.74,1.74,0,0,0-.48-1.24,1.62,1.62,0,0,0-1.22-.5,1.67,1.67,0,0,0-1.38.65,2.85,2.85,0,0,0-.5,1.78,2.53,2.53,0,0,0,.48,1.63,1.59,1.59,0,0,0,1.3.6,1.63,1.63,0,0,0,1.3-.58A2.11,2.11,0,0,0,77,153.17Z" fill="#1e1e1e"/>
      <path d="M87.49,149.88l-1.8,6h-1l-1.23-4.29a3,3,0,0,1-.1-.56h0a2.64,2.64,0,0,1-.12.55l-1.34,4.3h-1l-1.81-6h1l1.24,4.51a3.12,3.12,0,0,1,.08.54h0a2.38,2.38,0,0,1,.1-.55l1.39-4.5h.87l1.25,4.53a3.12,3.12,0,0,1,.08.54h0a2.4,2.4,0,0,1,.1-.54l1.22-4.53Z" fill="#1e1e1e"/>
      <path d="M92.79,155.88h-1V155h0A2,2,0,0,1,90,156a1.93,1.93,0,0,1-1.4-.47,1.65,1.65,0,0,1-.51-1.26c0-1.12.66-1.77,2-2l1.8-.25c0-1-.41-1.53-1.24-1.53a3,3,0,0,0-2,.74v-1a3.75,3.75,0,0,1,2-.56c1.41,0,2.12.75,2.12,2.24Zm-1-3-1.45.2a2.35,2.35,0,0,0-1,.33,1,1,0,0,0-.34.84.93.93,0,0,0,.32.72,1.22,1.22,0,0,0,.83.27,1.51,1.51,0,0,0,1.18-.5,1.77,1.77,0,0,0,.47-1.26Z" fill="#1e1e1e"/>
      <path d="M97.66,150.86a1.16,1.16,0,0,0-.72-.2,1.24,1.24,0,0,0-1,.58,2.67,2.67,0,0,0-.42,1.58v3.06h-1v-6h1v1.24h0a2,2,0,0,1,.63-1,1.61,1.61,0,0,1,1.51-.27Z" fill="#1e1e1e"/>
      <path d="M103.54,153.12H99.3a2.28,2.28,0,0,0,.54,1.55,1.88,1.88,0,0,0,1.42.54,3,3,0,0,0,1.87-.66v.9a3.53,3.53,0,0,1-2.1.57,2.53,2.53,0,0,1-2-.81,3.34,3.34,0,0,1-.73-2.3,3.29,3.29,0,0,1,.79-2.29,2.58,2.58,0,0,1,2-.88,2.29,2.29,0,0,1,1.83.76,3.19,3.19,0,0,1,.64,2.12Zm-1-.81a2,2,0,0,0-.4-1.3,1.4,1.4,0,0,0-1.1-.46,1.54,1.54,0,0,0-1.16.49,2.21,2.21,0,0,0-.58,1.27Z" fill="#1e1e1e"/>
    </g>
    <g>
      <path d="M197,155.88h-1v-8.4h1Z" fill="#1e1e1e"/>
      <path d="M203.91,155.88h-1v-3.42c0-1.27-.46-1.91-1.39-1.91a1.5,1.5,0,0,0-1.19.54,2,2,0,0,0-.48,1.37v3.42h-1v-6h1v1h0a2.16,2.16,0,0,1,2-1.14,1.82,1.82,0,0,1,1.5.64,2.79,2.79,0,0,1,.52,1.83Z" fill="#1e1e1e"/>
      <path d="M210.85,155.88h-1v-1h0A2.2,2.2,0,0,1,207.8,156a2.25,2.25,0,0,1-1.81-.8,3.33,3.33,0,0,1-.68-2.2,3.59,3.59,0,0,1,.75-2.38,2.48,2.48,0,0,1,2-.9,1.93,1.93,0,0,1,1.8,1h0V147h1Zm-1-2.71v-.88a1.74,1.74,0,0,0-.48-1.24,1.61,1.61,0,0,0-1.21-.5,1.68,1.68,0,0,0-1.39.65,2.85,2.85,0,0,0-.5,1.78,2.53,2.53,0,0,0,.48,1.63,1.59,1.59,0,0,0,1.3.6,1.61,1.61,0,0,0,1.3-.58A2.11,2.11,0,0,0,209.88,153.17Z" fill="#1e1e1e"/>
      <path d="M217.56,155.88h-1v-.95h0a2,2,0,0,1-1.85,1.09c-1.43,0-2.15-.85-2.15-2.55v-3.59h1v3.44c0,1.26.48,1.89,1.45,1.89a1.48,1.48,0,0,0,1.16-.51,2,2,0,0,0,.45-1.36v-3.46h1Z" fill="#1e1e1e"/>
      <path d="M219.08,155.67v-1a2.84,2.84,0,0,0,1.73.58c.85,0,1.27-.28,1.27-.84A.78.78,0,0,0,222,154a1,1,0,0,0-.29-.29,1.83,1.83,0,0,0-.44-.23l-.53-.22a5.16,5.16,0,0,1-.7-.32,2.21,2.21,0,0,1-.51-.36,1.41,1.41,0,0,1-.3-.46,1.57,1.57,0,0,1-.1-.6,1.44,1.44,0,0,1,.19-.75,1.7,1.7,0,0,1,.52-.55,2.71,2.71,0,0,1,.73-.33,3.59,3.59,0,0,1,2.25.16v1a2.79,2.79,0,0,0-1.53-.43,1.75,1.75,0,0,0-.48.06,1,1,0,0,0-.37.18.66.66,0,0,0-.24.26.69.69,0,0,0-.09.34.78.78,0,0,0,.34.68,2,2,0,0,0,.39.22l.54.22a6.85,6.85,0,0,1,.71.31,2.82,2.82,0,0,1,.54.36,1.41,1.41,0,0,1,.34.47,1.54,1.54,0,0,1,.12.63,1.49,1.49,0,0,1-.19.77,1.74,1.74,0,0,1-.53.55,2.54,2.54,0,0,1-.75.32,3.82,3.82,0,0,1-.9.1A3.54,3.54,0,0,1,219.08,155.67Z" fill="#1e1e1e"/>
      <path d="M227.37,155.82a1.82,1.82,0,0,1-.9.19c-1.05,0-1.57-.58-1.57-1.76V150.7h-1v-.82h1v-1.46l1-.31v1.77h1.51v.82h-1.51v3.38a1.49,1.49,0,0,0,.2.87.83.83,0,0,0,.68.25,1,1,0,0,0,.63-.2Z" fill="#1e1e1e"/>
      <path d="M231.69,150.86a1.18,1.18,0,0,0-.73-.2,1.22,1.22,0,0,0-1,.58,2.67,2.67,0,0,0-.42,1.58v3.06h-1v-6h1v1.24h0a2.08,2.08,0,0,1,.62-1,1.49,1.49,0,0,1,1-.35,1.44,1.44,0,0,1,.57.08Z" fill="#1e1e1e"/>
      <path d="M238,149.88l-2.76,7c-.49,1.25-1.18,1.87-2.07,1.87a2.25,2.25,0,0,1-.63-.08v-.86a1.84,1.84,0,0,0,.57.11,1.18,1.18,0,0,0,1.09-.87l.48-1.14-2.35-6h1.07L235,154.5c0,.06.06.21.13.46h0q0-.15.12-.45l1.7-4.63Z" fill="#1e1e1e"/>
      <path d="M242,155.67v-1a2.79,2.79,0,0,0,1.72.58c.85,0,1.27-.28,1.27-.84a.78.78,0,0,0-.11-.41,1,1,0,0,0-.29-.29,1.66,1.66,0,0,0-.44-.23l-.53-.22a5.16,5.16,0,0,1-.7-.32,2.21,2.21,0,0,1-.51-.36,1.41,1.41,0,0,1-.3-.46,1.57,1.57,0,0,1-.1-.6,1.44,1.44,0,0,1,.19-.75,1.7,1.7,0,0,1,.52-.55,2.71,2.71,0,0,1,.73-.33,3.59,3.59,0,0,1,2.25.16v1a2.78,2.78,0,0,0-1.52-.43,1.83,1.83,0,0,0-.49.06,1,1,0,0,0-.37.18.66.66,0,0,0-.24.26.69.69,0,0,0-.09.34.78.78,0,0,0,.34.68,2,2,0,0,0,.39.22l.54.22a6.85,6.85,0,0,1,.71.31,2.82,2.82,0,0,1,.54.36,1.41,1.41,0,0,1,.34.47,1.54,1.54,0,0,1,.12.63,1.49,1.49,0,0,1-.19.77,1.74,1.74,0,0,1-.53.55,2.54,2.54,0,0,1-.75.32,3.82,3.82,0,0,1-.9.1A3.47,3.47,0,0,1,242,155.67Z" fill="#1e1e1e"/>
      <path d="M250.23,155.82a1.82,1.82,0,0,1-.9.19c-1.05,0-1.57-.58-1.57-1.76V150.7h-1v-.82h1v-1.46l1-.31v1.77h1.51v.82h-1.51v3.38a1.49,1.49,0,0,0,.2.87.83.83,0,0,0,.68.25,1,1,0,0,0,.63-.2Z" fill="#1e1e1e"/>
      <path d="M255.91,155.88h-1V155h0a2,2,0,0,1-1.85,1.07,1.93,1.93,0,0,1-1.4-.47,1.65,1.65,0,0,1-.51-1.26c0-1.12.66-1.77,2-2l1.8-.25c0-1-.41-1.53-1.24-1.53a3,3,0,0,0-2,.74v-1a3.75,3.75,0,0,1,2-.56c1.42,0,2.12.75,2.12,2.24Zm-1-3-1.45.2a2.35,2.35,0,0,0-1,.33,1,1,0,0,0-.34.84.93.93,0,0,0,.32.72,1.24,1.24,0,0,0,.83.27,1.51,1.51,0,0,0,1.18-.5,1.77,1.77,0,0,0,.47-1.26Z" fill="#1e1e1e"/>
      <path d="M262.63,155.88h-1v-3.42c0-1.27-.46-1.91-1.39-1.91a1.5,1.5,0,0,0-1.19.54,2,2,0,0,0-.48,1.37v3.42h-1v-6h1v1h0a2.16,2.16,0,0,1,2-1.14,1.82,1.82,0,0,1,1.5.64,2.79,2.79,0,0,1,.52,1.83Z" fill="#1e1e1e"/>
      <path d="M269.56,155.88h-1v-1h0a2.21,2.21,0,0,1-2.06,1.16,2.25,2.25,0,0,1-1.81-.8A3.33,3.33,0,0,1,264,153a3.59,3.59,0,0,1,.75-2.38,2.48,2.48,0,0,1,2-.9,1.93,1.93,0,0,1,1.8,1h0V147h1Zm-1-2.71v-.88a1.74,1.74,0,0,0-.48-1.24,1.62,1.62,0,0,0-1.22-.5,1.67,1.67,0,0,0-1.38.65A2.85,2.85,0,0,0,265,153a2.53,2.53,0,0,0,.48,1.63,1.59,1.59,0,0,0,1.3.6,1.63,1.63,0,0,0,1.3-.58A2.11,2.11,0,0,0,268.6,153.17Z" fill="#1e1e1e"/>
      <path d="M275.71,155.88h-1V155h0a2,2,0,0,1-1.84,1.07,1.93,1.93,0,0,1-1.4-.47,1.65,1.65,0,0,1-.51-1.26c0-1.12.66-1.77,2-2l1.8-.25c0-1-.41-1.53-1.24-1.53a3,3,0,0,0-2,.74v-1a3.76,3.76,0,0,1,2-.56c1.41,0,2.12.75,2.12,2.24Zm-1-3-1.45.2a2.35,2.35,0,0,0-1,.33,1,1,0,0,0-.34.84.93.93,0,0,0,.32.72,1.22,1.22,0,0,0,.83.27,1.51,1.51,0,0,0,1.18-.5,1.77,1.77,0,0,0,.47-1.26Z" fill="#1e1e1e"/>
      <path d="M280.58,150.86a1.16,1.16,0,0,0-.72-.2,1.24,1.24,0,0,0-1,.58,2.67,2.67,0,0,0-.42,1.58v3.06h-1v-6h1v1.24h0a2.08,2.08,0,0,1,.62-1,1.49,1.49,0,0,1,.95-.35,1.44,1.44,0,0,1,.57.08Z" fill="#1e1e1e"/>
      <path d="M286.76,155.88h-1v-1h0a2.21,2.21,0,0,1-2.06,1.16,2.25,2.25,0,0,1-1.81-.8,3.33,3.33,0,0,1-.68-2.2,3.59,3.59,0,0,1,.75-2.38,2.48,2.48,0,0,1,2-.9,1.93,1.93,0,0,1,1.8,1h0V147h1Zm-1-2.71v-.88a1.74,1.74,0,0,0-.48-1.24,1.62,1.62,0,0,0-1.22-.5,1.67,1.67,0,0,0-1.38.65,2.85,2.85,0,0,0-.5,1.78,2.53,2.53,0,0,0,.48,1.63,1.59,1.59,0,0,0,1.3.6,1.63,1.63,0,0,0,1.3-.58A2.11,2.11,0,0,0,285.8,153.17Z" fill="#1e1e1e"/>
      <path d="M297,155.88h-1v-3.45c0-1.25-.47-1.88-1.4-1.88a1.51,1.51,0,0,0-1.18.54,2,2,0,0,0-.48,1.39v3.4h-1V147h1v3.88h0a2.18,2.18,0,0,1,2-1.14c1.35,0,2,.82,2,2.45Z" fill="#1e1e1e"/>
      <path d="M303,155.88h-1V155h0a2,2,0,0,1-1.85,1.07,2,2,0,0,1-1.4-.47,1.65,1.65,0,0,1-.51-1.26c0-1.12.66-1.77,2-2l1.8-.25q0-1.53-1.23-1.53a3,3,0,0,0-2,.74v-1a3.76,3.76,0,0,1,2-.56c1.41,0,2.11.75,2.11,2.24Zm-1-3-1.44.2a2.25,2.25,0,0,0-1,.33,1,1,0,0,0-.34.84.92.92,0,0,0,.31.72,1.25,1.25,0,0,0,.84.27,1.53,1.53,0,0,0,1.18-.5,1.76,1.76,0,0,0,.46-1.26Z" fill="#1e1e1e"/>
      <path d="M307.88,150.86a1.16,1.16,0,0,0-.72-.2,1.24,1.24,0,0,0-1,.58,2.67,2.67,0,0,0-.42,1.58v3.06h-1v-6h1v1.24h0a2.09,2.09,0,0,1,.63-1,1.61,1.61,0,0,1,1.51-.27Z" fill="#1e1e1e"/>
      <path d="M314.07,155.88h-1v-1h0A2.2,2.2,0,0,1,311,156a2.27,2.27,0,0,1-1.81-.8,3.32,3.32,0,0,1-.67-2.2,3.59,3.59,0,0,1,.75-2.38,2.46,2.46,0,0,1,2-.9,1.93,1.93,0,0,1,1.8,1h0V147h1Zm-1-2.71v-.88a1.74,1.74,0,0,0-.48-1.24,1.65,1.65,0,0,0-1.22-.5,1.68,1.68,0,0,0-1.39.65,2.85,2.85,0,0,0-.5,1.78,2.53,2.53,0,0,0,.48,1.63,1.73,1.73,0,0,0,2.6,0A2.11,2.11,0,0,0,313.11,153.17Z" fill="#1e1e1e"/>
      <path d="M323.57,149.88l-1.8,6h-1l-1.24-4.29a2.34,2.34,0,0,1-.09-.56h0a2.64,2.64,0,0,1-.12.55l-1.34,4.3h-1l-1.82-6h1l1.24,4.51a2.38,2.38,0,0,1,.08.54h.05a3.06,3.06,0,0,1,.1-.55l1.39-4.5h.88l1.24,4.53a3,3,0,0,1,.09.54h0a2.4,2.4,0,0,1,.1-.54l1.22-4.53Z" fill="#1e1e1e"/>
      <path d="M328.87,155.88h-1V155h0A2,2,0,0,1,326,156a2,2,0,0,1-1.4-.47,1.65,1.65,0,0,1-.51-1.26c0-1.12.66-1.77,2-2l1.8-.25c0-1-.41-1.53-1.24-1.53a3,3,0,0,0-1.95.74v-1a3.76,3.76,0,0,1,2-.56c1.41,0,2.11.75,2.11,2.24Zm-1-3-1.45.2a2.25,2.25,0,0,0-1,.33,1,1,0,0,0-.34.84.92.92,0,0,0,.31.72,1.24,1.24,0,0,0,.83.27,1.55,1.55,0,0,0,1.19-.5,1.76,1.76,0,0,0,.46-1.26Z" fill="#1e1e1e"/>
      <path d="M333.74,150.86a1.14,1.14,0,0,0-.72-.2,1.24,1.24,0,0,0-1,.58,2.67,2.67,0,0,0-.41,1.58v3.06h-1v-6h1v1.24h0a2.17,2.17,0,0,1,.63-1,1.61,1.61,0,0,1,1.51-.27Z" fill="#1e1e1e"/>
      <path d="M339.62,153.12h-4.23a2.19,2.19,0,0,0,.54,1.55,1.85,1.85,0,0,0,1.41.54,3,3,0,0,0,1.87-.66v.9a3.52,3.52,0,0,1-2.09.57,2.54,2.54,0,0,1-2-.81,3.34,3.34,0,0,1-.73-2.3,3.29,3.29,0,0,1,.79-2.29,2.58,2.58,0,0,1,2-.88,2.28,2.28,0,0,1,1.82.76,3.19,3.19,0,0,1,.64,2.12Zm-1-.81a2,2,0,0,0-.4-1.3,1.4,1.4,0,0,0-1.1-.46A1.56,1.56,0,0,0,336,151a2.21,2.21,0,0,0-.58,1.27Z" fill="#1e1e1e"/>
    </g>
    <g>
      <path d="M162.77,189.19a3.68,3.68,0,0,1-2.86-1.19,4.38,4.38,0,0,1-1.08-3.08,4.64,4.64,0,0,1,1.1-3.24,3.82,3.82,0,0,1,3-1.22,3.63,3.63,0,0,1,2.81,1.18,4.42,4.42,0,0,1,1.06,3.08,4.68,4.68,0,0,1-1.09,3.27A3.76,3.76,0,0,1,162.77,189.19Zm.07-7.83a2.7,2.7,0,0,0-2.15,1,4.31,4.31,0,0,0,0,5,2.64,2.64,0,0,0,2.1,1,2.74,2.74,0,0,0,2.18-.91,3.72,3.72,0,0,0,.8-2.54,3.91,3.91,0,0,0-.77-2.58A2.66,2.66,0,0,0,162.84,181.36Z" fill="#1e1e1e"/>
      <path d="M173.28,189h-1v-3.43c0-1.28-.46-1.92-1.39-1.92a1.5,1.5,0,0,0-1.19.54,2,2,0,0,0-.48,1.38V189h-1v-6h1v1h0a2.16,2.16,0,0,1,2-1.14,1.81,1.81,0,0,1,1.5.64,2.82,2.82,0,0,1,.52,1.84Z" fill="#1e1e1e"/>
      <path d="M178.1,186.07h-3.2v-.76h3.2Z" fill="#1e1e1e"/>
      <path d="M180.73,188.17h0v3.65h-1V183h1v1.06h0a2.29,2.29,0,0,1,2.08-1.2,2.2,2.2,0,0,1,1.81.81,3.37,3.37,0,0,1,.65,2.16,3.82,3.82,0,0,1-.73,2.43,2.46,2.46,0,0,1-2,.91A2,2,0,0,1,180.73,188.17Zm0-2.43v.84a1.79,1.79,0,0,0,.48,1.27,1.59,1.59,0,0,0,1.23.52,1.6,1.6,0,0,0,1.37-.67,3.07,3.07,0,0,0,.49-1.86,2.44,2.44,0,0,0-.46-1.58,1.53,1.53,0,0,0-1.25-.57,1.7,1.7,0,0,0-1.35.58A2.17,2.17,0,0,0,180.71,185.74Z" fill="#1e1e1e"/>
      <path d="M189.88,184a1.18,1.18,0,0,0-.73-.2,1.25,1.25,0,0,0-1,.58,2.75,2.75,0,0,0-.41,1.59V189h-1v-6h1v1.24h0a2.17,2.17,0,0,1,.63-1,1.42,1.42,0,0,1,.94-.36,1.71,1.71,0,0,1,.58.08Z" fill="#1e1e1e"/>
      <path d="M195.76,186.27h-4.24a2.33,2.33,0,0,0,.54,1.56,1.87,1.87,0,0,0,1.42.54,2.93,2.93,0,0,0,1.86-.67v.91a3.5,3.5,0,0,1-2.09.58,2.54,2.54,0,0,1-2-.83,3.37,3.37,0,0,1-.73-2.31,3.31,3.31,0,0,1,.8-2.29,2.53,2.53,0,0,1,2-.88,2.24,2.24,0,0,1,1.82.76,3.21,3.21,0,0,1,.65,2.13Zm-1-.82a2,2,0,0,0-.4-1.3,1.36,1.36,0,0,0-1.1-.46,1.52,1.52,0,0,0-1.15.49,2.22,2.22,0,0,0-.59,1.27Z" fill="#1e1e1e"/>
      <path d="M205.73,189h-1v-3.46a2.54,2.54,0,0,0-.31-1.44,1.15,1.15,0,0,0-1-.45,1.3,1.3,0,0,0-1.05.56,2.17,2.17,0,0,0-.43,1.36V189h-1v-3.57c0-1.19-.46-1.78-1.37-1.78a1.27,1.27,0,0,0-1,.53,2.25,2.25,0,0,0-.41,1.39V189h-1v-6h1V184h0a2,2,0,0,1,1.87-1.09,1.71,1.71,0,0,1,1.07.34,1.81,1.81,0,0,1,.63.9,2.13,2.13,0,0,1,2-1.24c1.32,0,2,.81,2,2.45Z" fill="#1e1e1e"/>
      <path d="M208,181.49a.6.6,0,0,1-.44-.18.65.65,0,0,1,0-.9.6.6,0,0,1,.44-.18.64.64,0,0,1,.45.18.61.61,0,0,1,.18.45.63.63,0,0,1-.18.45A.64.64,0,0,1,208,181.49Zm.47,7.55h-1v-6h1Z" fill="#1e1e1e"/>
      <path d="M209.91,188.83v-1a2.82,2.82,0,0,0,1.73.58q1.26,0,1.26-.84a.68.68,0,0,0-.11-.41,1.17,1.17,0,0,0-.29-.3,2.18,2.18,0,0,0-.43-.23l-.54-.22a5.16,5.16,0,0,1-.7-.32,2.22,2.22,0,0,1-.5-.36,1.38,1.38,0,0,1-.31-.46,1.66,1.66,0,0,1-.1-.61,1.44,1.44,0,0,1,.19-.75,1.7,1.7,0,0,1,.52-.55,2.21,2.21,0,0,1,.73-.33,3.07,3.07,0,0,1,.86-.11,3.41,3.41,0,0,1,1.39.27v1a2.7,2.7,0,0,0-1.52-.43,1.88,1.88,0,0,0-.49.06,1.26,1.26,0,0,0-.37.17.87.87,0,0,0-.24.27.7.7,0,0,0-.09.35.8.8,0,0,0,.09.39.74.74,0,0,0,.25.28,1.68,1.68,0,0,0,.4.23l.53.21c.26.11.5.21.71.32a2.82,2.82,0,0,1,.54.36,1.56,1.56,0,0,1,.35.47,1.54,1.54,0,0,1,.12.63,1.51,1.51,0,0,1-.2.78,1.82,1.82,0,0,1-.52.55,2.6,2.6,0,0,1-.76.32,3.76,3.76,0,0,1-.9.11A3.37,3.37,0,0,1,209.91,188.83Z" fill="#1e1e1e"/>
      <path d="M220.16,186.27h-4.23a2.23,2.23,0,0,0,.54,1.56,1.85,1.85,0,0,0,1.41.54,2.94,2.94,0,0,0,1.87-.67v.91a3.52,3.52,0,0,1-2.09.58,2.52,2.52,0,0,1-2-.83,3.84,3.84,0,0,1,.07-4.6,2.51,2.51,0,0,1,2-.88,2.25,2.25,0,0,1,1.82.76,3.21,3.21,0,0,1,.64,2.13Zm-1-.82a2,2,0,0,0-.4-1.3,1.37,1.37,0,0,0-1.1-.46,1.52,1.52,0,0,0-1.15.49,2.16,2.16,0,0,0-.59,1.27Z" fill="#1e1e1e"/>
      <path d="M221.23,188.83v-1a2.84,2.84,0,0,0,1.73.58c.85,0,1.27-.28,1.27-.84a.76.76,0,0,0-.11-.41,1.17,1.17,0,0,0-.29-.3,2.27,2.27,0,0,0-.44-.23l-.53-.22a5.16,5.16,0,0,1-.7-.32,2.55,2.55,0,0,1-.51-.36,1.52,1.52,0,0,1-.3-.46,1.66,1.66,0,0,1-.1-.61,1.44,1.44,0,0,1,.19-.75,1.78,1.78,0,0,1,.51-.55,2.26,2.26,0,0,1,.74-.33,3,3,0,0,1,.85-.11,3.46,3.46,0,0,1,1.4.27v1a2.71,2.71,0,0,0-1.53-.43,1.75,1.75,0,0,0-.48.06,1.33,1.33,0,0,0-.38.17,1,1,0,0,0-.24.27.82.82,0,0,0-.08.35.93.93,0,0,0,.08.39.83.83,0,0,0,.25.28,1.91,1.91,0,0,0,.4.23l.54.21c.26.11.5.21.71.32a2.82,2.82,0,0,1,.54.36,1.52,1.52,0,0,1,.34.47,1.54,1.54,0,0,1,.12.63,1.5,1.5,0,0,1-.19.78,1.85,1.85,0,0,1-.53.55,2.54,2.54,0,0,1-.75.32,3.82,3.82,0,0,1-.9.11A3.41,3.41,0,0,1,221.23,188.83Z" fill="#1e1e1e"/>
    </g>
  </g>
</svg>
