<svg xmlns="http://www.w3.org/2000/svg" xmlns:xlink="http://www.w3.org/1999/xlink" viewBox="0 0 431 152">
  <defs>
    <linearGradient id="linear-gradient" x1="218.798" y1="96.752" x2="218.798" y2="80.752" gradientUnits="userSpaceOnUse">
      <stop offset="0" stop-color="#1989b2"/>
      <stop offset="1" stop-color="#50c7e8"/>
    </linearGradient>
    <linearGradient id="linear-gradient-2" x1="180.435" y1="92.74" x2="188.41" y2="84.765" gradientUnits="userSpaceOnUse">
      <stop offset="0" stop-color="#b3b3b3"/>
      <stop offset="1" stop-color="#4f4f4f"/>
    </linearGradient>
    <linearGradient id="linear-gradient-3" x1="112.872" y1="544.288" x2="113.635" y2="504.067" gradientTransform="matrix(1, 0, 0, -1, 0, 608.783)" gradientUnits="userSpaceOnUse">
      <stop offset="0.22" stop-color="#32d4f5"/>
      <stop offset="0.47" stop-color="#31d1f3"/>
      <stop offset="0.63" stop-color="#2ec9eb"/>
      <stop offset="0.77" stop-color="#29bade"/>
      <stop offset="0.89" stop-color="#22a5cb"/>
      <stop offset="1" stop-color="#198ab3"/>
    </linearGradient>
    <linearGradient id="linear-gradient-4" x1="18.456" y1="565.761" x2="18.456" y2="538.25" gradientTransform="matrix(1, 0, 0, -1, 0, 608.783)" gradientUnits="userSpaceOnUse">
      <stop offset="0.18" stop-color="#5ea0ef"/>
      <stop offset="1" stop-color="#0078d4"/>
    </linearGradient>
    <linearGradient id="linear-gradient-5" x1="322.595" y1="504.514" x2="322.595" y2="532.708" gradientTransform="matrix(0.707, 0.707, 0.707, -0.707, -273.234, 228.359)" gradientUnits="userSpaceOnUse">
      <stop offset="0" stop-color="#258277"/>
      <stop offset="0.42" stop-color="#49a498"/>
      <stop offset="0.78" stop-color="#60baad"/>
      <stop offset="1" stop-color="#68c2b5"/>
    </linearGradient>
    <linearGradient id="linear-gradient-6" x1="419.25" y1="559.067" x2="419.25" y2="535.067" gradientTransform="matrix(1, 0, 0, -1, 0, 608.783)" gradientUnits="userSpaceOnUse">
      <stop offset="0" stop-color="#5ea0ef"/>
      <stop offset="0.18" stop-color="#559cec"/>
      <stop offset="0.47" stop-color="#3c91e5"/>
      <stop offset="0.84" stop-color="#1380da"/>
      <stop offset="1" stop-color="#0078d4"/>
    </linearGradient>
  </defs>
  <g id="Shapes">
    <rect width="431" height="152" fill="#fff"/>
    <g>
      <line x1="300.521" y1="88.752" x2="250.685" y2="88.752" fill="none" stroke="#3c3c41" stroke-miterlimit="10"/>
      <polygon points="299.427 85.013 305.903 88.752 299.427 92.492 299.427 85.013" fill="#3c3c41"/>
    </g>
    <g>
      <path d="M253.661,80.752H184.42c-2.432,0-4.336,3.514-4.336,8s1.9,8,4.336,8h69.241c2.127,0,3.851-3.849,3.851-8S255.788,80.752,253.661,80.752Z" fill="url(#linear-gradient)"/>
      <ellipse cx="184.423" cy="88.752" rx="3.636" ry="7.096" fill="url(#linear-gradient-2)"/>
    </g>
    <g>
      <rect x="16.467" y="55.392" width="97" height="66.72" fill="#fff"/>
      <rect x="16.467" y="55.392" width="97" height="66.72" fill="#0072c6" opacity="0.12"/>
    </g>
    <g>
      <path d="M122.22,88.279h-1.391V83.834a8.353,8.353,0,0,0-2.153-5.667,6.874,6.874,0,0,0-5.332-2.414A6.977,6.977,0,0,0,108,78.167a8.259,8.259,0,0,0-2.169,5.667v4.445h-1.161a1.008,1.008,0,0,0-.993.993v11.487a1.008,1.008,0,0,0,.993.993H122.22a1.039,1.039,0,0,0,1.008-.993V89.272A1.009,1.009,0,0,0,122.22,88.279Zm-4.858,0h-8.035V83.7a4.583,4.583,0,0,1,1.237-3.055,3.668,3.668,0,0,1,2.735-1.252,3.6,3.6,0,0,1,2.719,1.252,3.749,3.749,0,0,1,.473.627h0a4.231,4.231,0,0,1,.871,2.474Z" fill="url(#linear-gradient-3)"/>
      <path d="M122.265,88.279H104.7a1.028,1.028,0,0,0-.657.244l18.866,13.061a1.021,1.021,0,0,0,.351-.764V89.287A1.008,1.008,0,0,0,122.265,88.279Z" fill="#50e6ff"/>
      <path d="M104.714,88.279h17.567a1.026,1.026,0,0,1,.641.244l-18.85,13.061a.993.993,0,0,1-.367-.764V89.287A1.024,1.024,0,0,1,104.714,88.279Z" fill="#fff" opacity="0.2" style="isolation: isolate"/>
      <path d="M111.74,91.059l1.727-1.726a.107.107,0,0,1,.137,0l1.711,1.726a.092.092,0,0,1,0,.153H114.23a.092.092,0,0,0-.091.092h0V93.61h-1.161V91.3a.092.092,0,0,0-.092-.092H111.8a.092.092,0,0,1-.085-.1A.1.1,0,0,1,111.74,91.059Zm3.56,7.913-1.711,1.726a.106.106,0,0,1-.138,0l-1.711-1.726v-.137h1.009a.092.092,0,0,0,.091-.092h0v-2.23a.094.094,0,0,1,0-.092h1.085a.094.094,0,0,1,0,.092v2.23a.092.092,0,0,0,.091.092h1.009C115.315,98.835,115.361,98.926,115.3,98.972Zm-6.783-2.23V95.734a.092.092,0,0,0-.091-.092H106.2a.094.094,0,0,1,0-.092V94.481a.094.094,0,0,1,0-.092h2.231a.088.088,0,0,0,.091,0V93.335a.092.092,0,0,1,.127-.025.088.088,0,0,1,.026.025l1.741,1.62m0,.122L108.67,96.8a.091.091,0,0,1-.129-.007.092.092,0,0,1-.024-.054Zm8.112-1.742v1.024a.092.092,0,0,0,.091,0h2.231a.091.091,0,0,1,.076.091v1.07a.091.091,0,0,1-.076.091h-2.231a.092.092,0,0,0-.091.092h0v1.008a.092.092,0,0,1-.127.026.107.107,0,0,1-.026-.026l-1.726-1.726a.092.092,0,0,1,0-.122l1.726-1.726a.125.125,0,1,1,.153.2Z" fill="#fff"/>
    </g>
    <path d="M32.221,59.9a6.271,6.271,0,0,0-5.372-6.08A7.9,7.9,0,0,0,18.8,46.177a8.085,8.085,0,0,0-7.647,5.353A7.436,7.436,0,0,0,4.691,58.8a7.647,7.647,0,0,0,7.762,7.379H26.046A6.347,6.347,0,0,0,32.221,59.9Z" fill="url(#linear-gradient-4)"/>
    <g>
      <rect x="322.592" y="55.392" width="100" height="66.72" fill="#fff"/>
      <rect x="322.592" y="55.392" width="100" height="66.72" fill="#3c3c41" opacity="0.15"/>
    </g>
    <g>
      <line x1="183.523" y1="88.752" x2="130.073" y2="88.752" fill="none" stroke="#3c3c41" stroke-miterlimit="10"/>
      <polygon points="131.167 85.013 124.691 88.752 131.167 92.492 131.167 85.013" fill="#3c3c41"/>
    </g>
    <g>
      <rect x="311.69" y="77.851" width="21.803" height="21.803" rx="1.006" transform="translate(31.728 254.102) rotate(-45)" fill="url(#linear-gradient-5)"/>
      <path d="M319.165,81.126l3.319-3.319a.177.177,0,0,1,.247,0l3.408,3.319a.159.159,0,0,1-.124.282h-2.03a.177.177,0,0,0-.177.177h0v4.29a.159.159,0,0,1-.159.159h-2.065a.16.16,0,0,1-.176-.141c0-.006,0-.012,0-.018v-4.29a.176.176,0,0,0-.159-.177h-1.959a.177.177,0,0,1-.159-.193A.173.173,0,0,1,319.165,81.126Zm6.974,15.253L322.731,99.7a.177.177,0,0,1-.247,0l-3.319-3.319a.177.177,0,0,1,.034-.248.181.181,0,0,1,.09-.035h1.959a.175.175,0,0,0,.159-.176V91.63a.159.159,0,0,1,.158-.16h2.084a.159.159,0,0,1,.159.159h0v4.29a.176.176,0,0,0,.177.176h1.942a.177.177,0,0,1,.212.283ZM316.146,92V90.059a.194.194,0,0,0-.176-.177h-4.29a.176.176,0,0,1-.177-.159V87.658a.2.2,0,0,1,.177-.177h4.29a.175.175,0,0,0,.176-.159V85.363a.159.159,0,0,1,.283-.142l3.319,3.355a.159.159,0,0,1,0,.224l0,.005-3.319,3.319a.158.158,0,0,1-.223.029A.16.16,0,0,1,316.146,92Zm12.923-6.638v1.959a.176.176,0,0,0,.177.159h4.29a.194.194,0,0,1,.176.177v2.065a.175.175,0,0,1-.176.159h-4.29a.2.2,0,0,0-.177.177V92a.159.159,0,0,1-.13.183.156.156,0,0,1-.152-.06l-3.319-3.372a.157.157,0,0,1,0-.224l0-.005,3.319-3.3a.159.159,0,0,1,.282.142Z" fill="#fff"/>
    </g>
    <g>
      <path d="M426.309,50.521V72.912a.791.791,0,0,1-.776.8H413a.789.789,0,0,1-.8-.776.131.131,0,0,1,0-.028V50.521a.789.789,0,0,1,.776-.8H425.5a.79.79,0,0,1,.805.776Z" fill="url(#linear-gradient-6)"/>
      <path id="a1bc77ea-5288-41a0-8f9a-2d282cf54a86" d="M414.069,52.215h2.358a.2.2,0,0,1,.2.2v2.965a.2.2,0,0,1-.2.2h-2.358a.211.211,0,0,1-.212-.2V52.413A.213.213,0,0,1,414.069,52.215Zm4.038,0h2.287a.2.2,0,0,1,.2.2h0v2.965a.2.2,0,0,1-.2.2h-2.287a.2.2,0,0,1-.2-.2h0V52.413a.2.2,0,0,1,.2-.2Zm4.037,0h2.287a.212.212,0,0,1,.212.2v2.965a.211.211,0,0,1-.212.2h-2.287a.2.2,0,0,1-.2-.2h0V52.413a.2.2,0,0,1,.2-.2Zm-8.075,5.379h2.358a.2.2,0,0,1,.2.2v2.964a.211.211,0,0,1-.2.212h-2.358a.212.212,0,0,1-.212-.212V57.792A.212.212,0,0,1,414.069,57.594Zm4.038,0h2.287a.2.2,0,0,1,.2.2h0v2.964a.211.211,0,0,1-.2.212h-2.287a.211.211,0,0,1-.2-.212V57.792a.2.2,0,0,1,.2-.2Zm4.037,0h2.287a.211.211,0,0,1,.212.2v2.964a.212.212,0,0,1-.212.212h-2.287a.211.211,0,0,1-.2-.212V57.792a.2.2,0,0,1,.2-.2Zm-8.075,5.393h2.358a.2.2,0,0,1,.2.2h0v2.964a.2.2,0,0,1-.2.2h-2.358a.212.212,0,0,1-.212-.2V63.128A.213.213,0,0,1,414.069,62.987Zm4.038,0h2.287a.2.2,0,0,1,.258.108.207.207,0,0,1,.01.033v2.965a.2.2,0,0,1-.2.2h-2.357a.2.2,0,0,1-.2-.2h0V63.128A.2.2,0,0,1,418.107,62.987Zm0,5.379h2.287a.2.2,0,0,1,.2.2h0V73.01a.2.2,0,0,1-.2.2h-2.287a.2.2,0,0,1-.2-.2V68.563A.2.2,0,0,1,418.107,68.366Zm4.037-5.379h2.287a.211.211,0,0,1,.212.2v2.964a.211.211,0,0,1-.212.2h-2.287a.2.2,0,0,1-.2-.2h0V63.128A.2.2,0,0,1,422.144,62.987Z" fill="#f2f2f2"/>
    </g>
  </g>
  <g id="Text">
    <g>
      <path d="M47.3,83.875H44.87v7.511h-.985V83.875h-2.42v-.891H47.3Z" fill="#1e1e1e"/>
      <path d="M52.449,88.626H48.213a2.24,2.24,0,0,0,.539,1.547,1.856,1.856,0,0,0,1.418.545,2.942,2.942,0,0,0,1.863-.668v.9a3.486,3.486,0,0,1-2.092.574,2.538,2.538,0,0,1-2-.818,3.344,3.344,0,0,1-.726-2.3,3.279,3.279,0,0,1,.794-2.283,2.546,2.546,0,0,1,1.971-.881,2.259,2.259,0,0,1,1.823.761,3.181,3.181,0,0,1,.644,2.116Zm-.984-.814a1.954,1.954,0,0,0-.4-1.3,1.364,1.364,0,0,0-1.1-.463,1.553,1.553,0,0,0-1.155.487,2.206,2.206,0,0,0-.585,1.271Z" fill="#1e1e1e"/>
      <path d="M53.523,91.169V90.138a2.844,2.844,0,0,0,1.729.58q1.266,0,1.266-.843a.737.737,0,0,0-.109-.408,1.083,1.083,0,0,0-.293-.3,2.225,2.225,0,0,0-.433-.231c-.166-.068-.345-.14-.537-.214a6.939,6.939,0,0,1-.7-.319,2.135,2.135,0,0,1-.5-.364,1.347,1.347,0,0,1-.3-.46,1.61,1.61,0,0,1-.1-.6,1.443,1.443,0,0,1,.193-.747,1.708,1.708,0,0,1,.516-.545,2.415,2.415,0,0,1,.735-.331,3.278,3.278,0,0,1,.853-.111,3.441,3.441,0,0,1,1.395.269v.973a2.722,2.722,0,0,0-1.524-.434,1.774,1.774,0,0,0-.486.062,1.163,1.163,0,0,0-.372.173.8.8,0,0,0-.241.266.712.712,0,0,0-.085.343.834.834,0,0,0,.085.393.877.877,0,0,0,.249.281,1.913,1.913,0,0,0,.4.222q.234.1.533.217a7.352,7.352,0,0,1,.715.314,2.416,2.416,0,0,1,.539.363,1.426,1.426,0,0,1,.343.466,1.505,1.505,0,0,1,.12.627,1.485,1.485,0,0,1-.2.773,1.676,1.676,0,0,1-.525.545,2.388,2.388,0,0,1-.756.322,3.7,3.7,0,0,1-.9.106A3.4,3.4,0,0,1,53.523,91.169Z" fill="#1e1e1e"/>
      <path d="M61.807,91.328a1.85,1.85,0,0,1-.9.187q-1.577,0-1.577-1.758v-3.55H58.3v-.821h1.031V83.921l.961-.31v1.775h1.512v.821H60.3v3.38a1.408,1.408,0,0,0,.2.862.82.82,0,0,0,.68.258,1.011,1.011,0,0,0,.627-.2Z" fill="#1e1e1e"/>
      <path d="M69.394,82.984l-3.112,8.4H65.2l-3.047-8.4h1.1l2.326,6.662a3.973,3.973,0,0,1,.17.744h.024a3.625,3.625,0,0,1,.193-.756l2.373-6.65Z" fill="#1e1e1e"/>
      <path d="M77.319,91.386H76.112l-4.324-6.7a2.762,2.762,0,0,1-.27-.527h-.035a8.673,8.673,0,0,1,.047,1.154v6.07h-.985v-8.4h1.278l4.207,6.592c.176.273.289.461.34.562h.023a8.875,8.875,0,0,1-.059-1.236V82.984h.985Z" fill="#1e1e1e"/>
      <path d="M84.167,88.626H79.931a2.24,2.24,0,0,0,.539,1.547,1.854,1.854,0,0,0,1.418.545,2.944,2.944,0,0,0,1.863-.668v.9a3.488,3.488,0,0,1-2.092.574,2.535,2.535,0,0,1-2-.818,3.344,3.344,0,0,1-.726-2.3,3.283,3.283,0,0,1,.793-2.283,2.55,2.55,0,0,1,1.972-.881,2.256,2.256,0,0,1,1.822.761,3.176,3.176,0,0,1,.645,2.116Zm-.984-.814a1.954,1.954,0,0,0-.4-1.3,1.365,1.365,0,0,0-1.1-.463,1.551,1.551,0,0,0-1.155.487,2.214,2.214,0,0,0-.586,1.271Z" fill="#1e1e1e"/>
      <path d="M88.4,91.328a1.85,1.85,0,0,1-.9.187q-1.577,0-1.576-1.758v-3.55H84.894v-.821h1.031V83.921l.961-.31v1.775H88.4v.821H86.886v3.38a1.4,1.4,0,0,0,.2.862.816.816,0,0,0,.679.258,1.007,1.007,0,0,0,.627-.2Z" fill="#1e1e1e"/>
    </g>
    <g>
      <path d="M363.65,91.046v-1.16a2.286,2.286,0,0,0,.477.317,4.032,4.032,0,0,0,.586.237,4.705,4.705,0,0,0,.618.149,3.376,3.376,0,0,0,.575.053,2.246,2.246,0,0,0,1.356-.337,1.264,1.264,0,0,0,.3-1.561,1.676,1.676,0,0,0-.413-.46,4.1,4.1,0,0,0-.624-.4c-.24-.127-.5-.26-.776-.4q-.44-.224-.821-.451a3.623,3.623,0,0,1-.662-.5,2.113,2.113,0,0,1-.442-.624,2.129,2.129,0,0,1,.091-1.817,2.15,2.15,0,0,1,.662-.7,3.017,3.017,0,0,1,.934-.41,4.276,4.276,0,0,1,1.07-.135,4.1,4.1,0,0,1,1.81.3V84.25a3.28,3.28,0,0,0-1.91-.516,3.14,3.14,0,0,0-.645.067,1.819,1.819,0,0,0-.574.22,1.264,1.264,0,0,0-.41.393,1.044,1.044,0,0,0-.158.586,1.206,1.206,0,0,0,.12.556,1.369,1.369,0,0,0,.354.428,3.543,3.543,0,0,0,.572.375q.336.182.776.4t.856.469a3.967,3.967,0,0,1,.709.545,2.419,2.419,0,0,1,.483.662,1.864,1.864,0,0,1,.179.832,2.1,2.1,0,0,1-.244,1.052,1.991,1.991,0,0,1-.656.7,2.857,2.857,0,0,1-.952.39,5.216,5.216,0,0,1-1.137.12,4.761,4.761,0,0,1-.492-.032q-.293-.033-.6-.094a4.969,4.969,0,0,1-.578-.152A1.783,1.783,0,0,1,363.65,91.046Z" fill="#1e1e1e"/>
      <path d="M370.61,83.863a.611.611,0,0,1-.44-.176.593.593,0,0,1-.181-.445.613.613,0,0,1,.621-.627.619.619,0,0,1,.448.178.6.6,0,0,1,.185.449.593.593,0,0,1-.185.439A.615.615,0,0,1,370.61,83.863Zm.469,7.523h-.961v-6h.961Z" fill="#1e1e1e"/>
      <path d="M375.758,91.328a1.85,1.85,0,0,1-.9.187q-1.577,0-1.576-1.758v-3.55h-1.032v-.821h1.032V83.921l.961-.31v1.775h1.511v.821h-1.511v3.38a1.4,1.4,0,0,0,.2.862.816.816,0,0,0,.679.258,1.011,1.011,0,0,0,.627-.2Z" fill="#1e1e1e"/>
      <path d="M381.761,88.626h-4.236a2.24,2.24,0,0,0,.539,1.547,1.856,1.856,0,0,0,1.418.545,2.942,2.942,0,0,0,1.863-.668v.9a3.486,3.486,0,0,1-2.092.574,2.538,2.538,0,0,1-2-.818,3.344,3.344,0,0,1-.726-2.3,3.279,3.279,0,0,1,.794-2.283,2.546,2.546,0,0,1,1.971-.881,2.259,2.259,0,0,1,1.823.761,3.181,3.181,0,0,1,.644,2.116Zm-.984-.814a1.954,1.954,0,0,0-.4-1.3,1.364,1.364,0,0,0-1.1-.463,1.549,1.549,0,0,0-1.154.487,2.2,2.2,0,0,0-.586,1.271Z" fill="#1e1e1e"/>
    </g>
    <g>
      <path d="M77.537,118.058h-1.09l-.89-2.355H71.994l-.838,2.355h-1.1l3.223-8.4H74.3Zm-2.3-3.24-1.318-3.58a3.425,3.425,0,0,1-.129-.563h-.023a3.109,3.109,0,0,1-.135.563l-1.307,3.58Z" fill="#1e1e1e"/>
      <path d="M83.211,112.333l-3.551,4.905h3.516v.82H78.248v-.3l3.551-4.881H78.582v-.82h4.629Z" fill="#1e1e1e"/>
      <path d="M89.305,118.058h-.961v-.949H88.32a1.973,1.973,0,0,1-1.851,1.09q-2.145,0-2.145-2.555v-3.586h.955v3.434q0,1.9,1.453,1.9a1.473,1.473,0,0,0,1.158-.518,1.989,1.989,0,0,0,.454-1.357v-3.457h.961Z" fill="#1e1e1e"/>
      <path d="M94.249,113.031a1.173,1.173,0,0,0-.726-.194,1.227,1.227,0,0,0-1.028.58A2.681,2.681,0,0,0,92.081,115v3.058h-.96v-6h.96v1.236h.024a2.1,2.1,0,0,1,.627-.987,1.431,1.431,0,0,1,.943-.354,1.558,1.558,0,0,1,.574.082Z" fill="#1e1e1e"/>
      <path d="M100.128,115.3H95.892a2.24,2.24,0,0,0,.539,1.547,1.858,1.858,0,0,0,1.418.545,2.952,2.952,0,0,0,1.863-.668v.9a3.488,3.488,0,0,1-2.092.574,2.535,2.535,0,0,1-2-.818,3.346,3.346,0,0,1-.727-2.3,3.284,3.284,0,0,1,.794-2.283,2.547,2.547,0,0,1,1.972-.882,2.254,2.254,0,0,1,1.822.762,3.175,3.175,0,0,1,.645,2.115Zm-.984-.814a1.954,1.954,0,0,0-.4-1.3,1.367,1.367,0,0,0-1.1-.463,1.554,1.554,0,0,0-1.155.486,2.21,2.21,0,0,0-.586,1.272Z" fill="#1e1e1e"/>
      <path d="M104.6,117.718v-1.16a2.268,2.268,0,0,0,.478.317,4.032,4.032,0,0,0,.586.237,4.705,4.705,0,0,0,.618.149,3.47,3.47,0,0,0,.574.053,2.248,2.248,0,0,0,1.357-.337,1.264,1.264,0,0,0,.3-1.561,1.68,1.68,0,0,0-.414-.46,4,4,0,0,0-.624-.4q-.36-.191-.776-.4-.439-.224-.82-.451a3.589,3.589,0,0,1-.662-.5,2.116,2.116,0,0,1-.443-.624,1.941,1.941,0,0,1-.161-.818,1.921,1.921,0,0,1,.252-1,2.171,2.171,0,0,1,.662-.7,3,3,0,0,1,.935-.41,4.268,4.268,0,0,1,1.069-.135,4.1,4.1,0,0,1,1.811.3v1.107a3.287,3.287,0,0,0-1.91-.515,3.14,3.14,0,0,0-.645.067,1.81,1.81,0,0,0-.574.22,1.261,1.261,0,0,0-.41.392,1.041,1.041,0,0,0-.159.586,1.2,1.2,0,0,0,.121.557,1.369,1.369,0,0,0,.354.428,3.531,3.531,0,0,0,.571.375q.338.181.777.4c.3.149.586.3.855.469a3.9,3.9,0,0,1,.709.545,2.443,2.443,0,0,1,.484.662,1.864,1.864,0,0,1,.178.832,2.112,2.112,0,0,1-.243,1.052,2,2,0,0,1-.656.7,2.866,2.866,0,0,1-.952.39,5.229,5.229,0,0,1-1.137.12,4.745,4.745,0,0,1-.492-.032q-.294-.033-.6-.094a4.809,4.809,0,0,1-.577-.153A1.793,1.793,0,0,1,104.6,117.718Z" fill="#1e1e1e"/>
      <path d="M113.709,118a1.85,1.85,0,0,1-.9.187q-1.576,0-1.576-1.758v-3.551h-1.031v-.82h1.031v-1.465l.961-.31v1.775h1.511v.82H112.2v3.381a1.4,1.4,0,0,0,.205.862.819.819,0,0,0,.679.257,1.006,1.006,0,0,0,.627-.2Z" fill="#1e1e1e"/>
      <path d="M119.39,118.058h-.961v-.937h-.024a2.012,2.012,0,0,1-1.845,1.078,1.971,1.971,0,0,1-1.4-.475,1.643,1.643,0,0,1-.507-1.26q0-1.681,1.981-1.957l1.8-.252q0-1.528-1.237-1.529a2.955,2.955,0,0,0-1.957.738v-.984a3.72,3.72,0,0,1,2.039-.563q2.117,0,2.116,2.239Zm-.961-3.035-1.448.2a2.354,2.354,0,0,0-1.007.331.954.954,0,0,0-.34.841.916.916,0,0,0,.313.718,1.215,1.215,0,0,0,.835.278,1.543,1.543,0,0,0,1.181-.5,1.792,1.792,0,0,0,.466-1.268Z" fill="#1e1e1e"/>
      <path d="M125.265,117.783a3.127,3.127,0,0,1-1.641.416,2.718,2.718,0,0,1-2.071-.835,3.025,3.025,0,0,1-.788-2.165,3.328,3.328,0,0,1,.849-2.382,2.972,2.972,0,0,1,2.268-.9,3.158,3.158,0,0,1,1.394.293v.985a2.439,2.439,0,0,0-1.429-.469,1.932,1.932,0,0,0-1.509.659,2.5,2.5,0,0,0-.589,1.732,2.382,2.382,0,0,0,.554,1.664,1.908,1.908,0,0,0,1.485.609,2.414,2.414,0,0,0,1.477-.521Z" fill="#1e1e1e"/>
      <path d="M131.531,118.058h-1.348l-2.649-2.883h-.023v2.883h-.961v-8.883h.961v5.631h.023l2.52-2.748h1.26l-2.784,2.895Z" fill="#1e1e1e"/>
      <path d="M142.248,118.058h-.985v-3.832h-4.348v3.832h-.984v-8.4h.984v3.685h4.348v-3.685h.985Z" fill="#1e1e1e"/>
      <path d="M149.1,118.058h-.961v-.949h-.023a1.976,1.976,0,0,1-1.852,1.09q-2.145,0-2.144-2.555v-3.586h.955v3.434q0,1.9,1.453,1.9a1.473,1.473,0,0,0,1.157-.518,1.984,1.984,0,0,0,.454-1.357v-3.457h.961Z" fill="#1e1e1e"/>
      <path d="M151.9,117.191h-.024v.867h-.961v-8.883h.961v3.938h.024a2.272,2.272,0,0,1,2.074-1.2,2.2,2.2,0,0,1,1.808.806,3.33,3.33,0,0,1,.653,2.159,3.719,3.719,0,0,1-.732,2.411,2.44,2.44,0,0,1-2,.906A1.973,1.973,0,0,1,151.9,117.191Zm-.024-2.42v.838a1.783,1.783,0,0,0,.484,1.263,1.724,1.724,0,0,0,2.595-.15,3.056,3.056,0,0,0,.5-1.857,2.425,2.425,0,0,0-.463-1.571,1.535,1.535,0,0,0-1.254-.568,1.7,1.7,0,0,0-1.348.583A2.141,2.141,0,0,0,151.879,114.771Z" fill="#1e1e1e"/>
      <path d="M109.387,124.056l-3.112,8.4h-1.084l-3.047-8.4h1.1l2.326,6.662a3.9,3.9,0,0,1,.17.744h.024a3.625,3.625,0,0,1,.193-.756l2.373-6.65Z" fill="#1e1e1e"/>
      <path d="M111.523,129.282v3.176h-.984v-8.4h2.308a3.044,3.044,0,0,1,2.089.656,2.343,2.343,0,0,1,.741,1.851,2.548,2.548,0,0,1-.823,1.958,3.149,3.149,0,0,1-2.224.761Zm0-4.336v3.446h1.031a2.31,2.31,0,0,0,1.556-.466,1.651,1.651,0,0,0,.536-1.316q0-1.663-1.969-1.664Z" fill="#1e1e1e"/>
      <path d="M123.791,132.458h-1.207l-4.324-6.7a2.794,2.794,0,0,1-.269-.528h-.035a8.767,8.767,0,0,1,.046,1.155v6.07h-.984v-8.4H118.3l4.207,6.591c.176.274.289.461.34.563h.024a8.875,8.875,0,0,1-.059-1.236v-5.918h.984Z" fill="#1e1e1e"/>
    </g>
    <g>
      <path d="M127.284,25.972H125.52v-.879H130.1v.879h-1.764V31.86H130.1v.891H125.52V31.86h1.764Z" fill="#4f4f4f"/>
      <path d="M136.729,32.751h-1.313L132.551,29v3.756h-1.043V25.093h1.043v3.556l2.807-3.556h1.236l-3.023,3.638Z" fill="#4f4f4f"/>
      <path d="M142.351,32.751H138V25.093h4.353v.879H139.04v2.373h3.182v.879H139.04V31.86h3.311Z" fill="#4f4f4f"/>
      <path d="M143.308,26.868h1.16l1.442,3.891.31.949.322-.973,1.43-3.867h1.119l-2.308,5.883h-1.172Z" fill="#4f4f4f"/>
      <path d="M155,32.751h-5.045v-.914l1.981-1.969q.486-.48.791-.832a4.485,4.485,0,0,0,.475-.641,1.965,1.965,0,0,0,.228-.548,2.518,2.518,0,0,0,.059-.557,1.857,1.857,0,0,0-.077-.536,1.254,1.254,0,0,0-.234-.448,1.08,1.08,0,0,0-.41-.3,1.491,1.491,0,0,0-.6-.111,1.822,1.822,0,0,0-.884.216,3.034,3.034,0,0,0-.733.563L149.987,26a3.427,3.427,0,0,1,1-.732,2.963,2.963,0,0,1,1.315-.276,2.69,2.69,0,0,1,.929.153,2.084,2.084,0,0,1,.724.439,1.952,1.952,0,0,1,.471.7,2.489,2.489,0,0,1,.167.938,2.719,2.719,0,0,1-.117.814,3.125,3.125,0,0,1-.354.747,5.986,5.986,0,0,1-.6.771q-.36.4-.853.873l-1.388,1.353H155Z" fill="#4f4f4f"/>
      <path d="M157.894,26.763a.839.839,0,0,1,.346.073.939.939,0,0,1,.483.483.864.864,0,0,1,0,.7.967.967,0,0,1-.2.284.912.912,0,0,1-.287.193.886.886,0,0,1-.7,0,.916.916,0,0,1-.477-.477.9.9,0,0,1,0-.7.912.912,0,0,1,.193-.287.967.967,0,0,1,.284-.2A.833.833,0,0,1,157.894,26.763Zm0,4.295a.839.839,0,0,1,.346.073.939.939,0,0,1,.483.483.864.864,0,0,1,0,.695.967.967,0,0,1-.2.284.912.912,0,0,1-.287.193.9.9,0,0,1-.7,0,.916.916,0,0,1-.477-.477.9.9,0,0,1,0-.695.912.912,0,0,1,.193-.287.967.967,0,0,1,.284-.2A.833.833,0,0,1,157.894,31.058Z" fill="#4f4f4f"/>
      <path d="M174.57,32.751h-1.137l-.533-1.67h-3.188l-.539,1.67h-1.084l2.543-7.658h1.43Zm-1.969-2.6-1.295-4.1-1.3,4.1Z" fill="#b31b1b"/>
      <path d="M179.986,32.751h-4.354V25.093h4.354v.879h-3.311v2.373h3.182v.879h-3.182V31.86h3.311Z" fill="#b31b1b"/>
      <path d="M186.306,32.751H181.5V31.8h1.968v-5.59l-1.834,1-.375-.867,2.438-1.283h.9V31.8h1.711Z" fill="#b31b1b"/>
      <path d="M192.608,32.751h-5.045v-.914l1.98-1.969q.487-.48.791-.832a4.336,4.336,0,0,0,.475-.641,2,2,0,0,0,.229-.548,2.519,2.519,0,0,0,.058-.557,1.857,1.857,0,0,0-.076-.536,1.286,1.286,0,0,0-.234-.448,1.091,1.091,0,0,0-.411-.3,1.489,1.489,0,0,0-.6-.111,1.829,1.829,0,0,0-.885.216,3.029,3.029,0,0,0-.732.563L187.592,26a3.427,3.427,0,0,1,1-.732,2.968,2.968,0,0,1,1.316-.276,2.684,2.684,0,0,1,.928.153,2.066,2.066,0,0,1,.724.439,1.967,1.967,0,0,1,.472.7,2.508,2.508,0,0,1,.167.938,2.719,2.719,0,0,1-.117.814,3.168,3.168,0,0,1-.355.747,5.813,5.813,0,0,1-.6.771q-.36.4-.852.873l-1.389,1.353h3.721Z" fill="#b31b1b"/>
      <path d="M198.917,30.829a1.777,1.777,0,0,1-.755,1.5,2.639,2.639,0,0,1-.844.393,4.321,4.321,0,0,1-2.159-.006,2.374,2.374,0,0,1-.8-.393,1.65,1.65,0,0,1-.486-.6,1.749,1.749,0,0,1-.165-.762,1.928,1.928,0,0,1,.393-1.213,3.506,3.506,0,0,1,1.213-.926,3.073,3.073,0,0,1-1.1-.846,1.772,1.772,0,0,1,.267-2.4,2.311,2.311,0,0,1,.77-.431,3.333,3.333,0,0,1,1.09-.161,3.857,3.857,0,0,1,1.04.126,2.181,2.181,0,0,1,.753.361,1.481,1.481,0,0,1,.457.568,1.906,1.906,0,0,1-.22,1.881,3.166,3.166,0,0,1-1.057.82,5.026,5.026,0,0,1,.633.375,2.74,2.74,0,0,1,.509.457,1.858,1.858,0,0,1,.457,1.254Zm-1.107.076a1.293,1.293,0,0,0-.07-.422,1.182,1.182,0,0,0-.252-.4,2.47,2.47,0,0,0-.487-.4,5.652,5.652,0,0,0-.773-.41,4.863,4.863,0,0,0-.671.383,2.285,2.285,0,0,0-.439.387,1.231,1.231,0,0,0-.238.407,1.4,1.4,0,0,0-.07.446.929.929,0,0,0,.114.465,1.047,1.047,0,0,0,.314.343,1.428,1.428,0,0,0,.474.211,2.41,2.41,0,0,0,.6.07,2.567,2.567,0,0,0,.586-.064,1.471,1.471,0,0,0,.477-.2.991.991,0,0,0,.32-.334A.951.951,0,0,0,197.81,30.905Zm-.1-4.037a.883.883,0,0,0-.367-.776,2.2,2.2,0,0,0-2.05,0,.855.855,0,0,0-.367.756,1.019,1.019,0,0,0,.088.422,1.141,1.141,0,0,0,.273.363,2.811,2.811,0,0,0,.46.334,6.282,6.282,0,0,0,.656.334,3.3,3.3,0,0,0,.984-.648A1.1,1.1,0,0,0,197.705,26.868Z" fill="#b31b1b"/>
      <path d="M199.964,33.952a2.185,2.185,0,0,0,.58-.053,1.719,1.719,0,0,0,.495-.19,1.058,1.058,0,0,0,.343-.313.738.738,0,0,0,.129-.428.814.814,0,0,0-.085-.4,1.921,1.921,0,0,0-.19-.281,2.106,2.106,0,0,1-.191-.275.851.851,0,0,1-.038-.651.748.748,0,0,1,.144-.246.716.716,0,0,1,.246-.181.825.825,0,0,1,.354-.071.972.972,0,0,1,.4.085.914.914,0,0,1,.334.261,1.319,1.319,0,0,1,.228.439,2.025,2.025,0,0,1,.085.622,2.5,2.5,0,0,1-.178.934,2.263,2.263,0,0,1-.534.794,2.592,2.592,0,0,1-.884.551,3.406,3.406,0,0,1-1.234.205Z" fill="#b31b1b"/>
      <path d="M217.847,30.677a1.967,1.967,0,0,1-.223.955,1.929,1.929,0,0,1-.621.682,2.865,2.865,0,0,1-.958.408,5.259,5.259,0,0,1-1.233.134c-.2,0-.405-.007-.606-.023s-.395-.035-.581-.059-.36-.05-.524-.082-.312-.064-.445-.1V31.585a5.533,5.533,0,0,0,.987.258,7.481,7.481,0,0,0,1.245.094,3.99,3.99,0,0,0,.859-.08,1.636,1.636,0,0,0,.58-.234.931.931,0,0,0,.328-.378,1.209,1.209,0,0,0,.1-.51.827.827,0,0,0-.173-.53,1.716,1.716,0,0,0-.454-.393,4.207,4.207,0,0,0-.641-.316c-.241-.1-.486-.194-.736-.3s-.495-.212-.735-.331a3.062,3.062,0,0,1-.642-.422,1.965,1.965,0,0,1-.454-.571,1.655,1.655,0,0,1-.173-.779,1.931,1.931,0,0,1,.165-.774,1.858,1.858,0,0,1,.509-.677,2.652,2.652,0,0,1,.888-.477,4.083,4.083,0,0,1,1.292-.182c.129,0,.269.006.419.018s.3.028.457.05.307.046.457.073.29.057.419.088v.937a7.133,7.133,0,0,0-.9-.2,5.9,5.9,0,0,0-.873-.067,2.311,2.311,0,0,0-1.319.3.938.938,0,0,0-.422.8.844.844,0,0,0,.173.533,1.712,1.712,0,0,0,.454.4,4.086,4.086,0,0,0,.642.319l.735.3q.375.153.736.334a2.984,2.984,0,0,1,.641.431,1.982,1.982,0,0,1,.454.583A1.7,1.7,0,0,1,217.847,30.677Z" fill="#b31b1b"/>
      <path d="M224.3,32.751h-1.043V29.235h-3.216v3.516H219V25.093h1.043v3.24h3.216v-3.24H224.3Z" fill="#b31b1b"/>
      <path d="M231.583,32.751h-1.136l-.533-1.67h-3.188l-.539,1.67H225.1l2.543-7.658h1.43Zm-1.968-2.6-1.3-4.1-1.295,4.1Z" fill="#b31b1b"/>
      <path d="M237.388,32.751h-4.81V31.8h1.968v-5.59l-1.834,1-.375-.867,2.438-1.283h.9V31.8h1.711Z" fill="#b31b1b"/>
      <path d="M238.411,33.952a2.193,2.193,0,0,0,.58-.053,1.742,1.742,0,0,0,.495-.19,1.069,1.069,0,0,0,.343-.313.744.744,0,0,0,.128-.428.826.826,0,0,0-.084-.4,2.009,2.009,0,0,0-.191-.281,2.1,2.1,0,0,1-.19-.275.779.779,0,0,1-.085-.393.767.767,0,0,1,.047-.258.745.745,0,0,1,.143-.246.736.736,0,0,1,.246-.181.826.826,0,0,1,.355-.071.971.971,0,0,1,.395.085.914.914,0,0,1,.334.261,1.339,1.339,0,0,1,.229.439,2.055,2.055,0,0,1,.085.622,2.5,2.5,0,0,1-.179.934,2.273,2.273,0,0,1-.533.794,2.6,2.6,0,0,1-.885.551,3.4,3.4,0,0,1-1.233.205Z" fill="#b31b1b"/>
      <path d="M256.621,28.837a6.413,6.413,0,0,1-.085,1.055,4.061,4.061,0,0,1-.273.937,3.163,3.163,0,0,1-.486.788,2.751,2.751,0,0,1-.733.607,3.734,3.734,0,0,1-1.007.389,5.619,5.619,0,0,1-1.307.138h-1.641V25.093h1.975a3.536,3.536,0,0,1,2.675.923A3.95,3.95,0,0,1,256.621,28.837Zm-1.1.076a5.368,5.368,0,0,0-.152-1.377,2.195,2.195,0,0,0-.463-.908,1.767,1.767,0,0,0-.78-.5,3.491,3.491,0,0,0-1.1-.155h-.9v5.877h.78Q255.525,31.849,255.525,28.913Z" fill="#b31b1b"/>
      <path d="M263.03,32.751h-1.043V29.235H258.77v3.516h-1.043V25.093h1.043v3.24h3.217v-3.24h1.043Z" fill="#b31b1b"/>
      <path d="M269.62,26.405a4.394,4.394,0,0,0-.879-.354,3.653,3.653,0,0,0-.985-.126,2.578,2.578,0,0,0-1.084.217,2.193,2.193,0,0,0-.8.612,2.791,2.791,0,0,0-.5.952,4.143,4.143,0,0,0-.172,1.231,5.142,5.142,0,0,0,.14,1.259,2.537,2.537,0,0,0,.44.944,1.931,1.931,0,0,0,.764.591,2.757,2.757,0,0,0,1.117.206q.111,0,.24-.012c.086-.008.172-.019.258-.032s.169-.031.249-.05a1.817,1.817,0,0,0,.213-.065V29.341h-1.564v-.862h2.6v3.915a4.817,4.817,0,0,1-.507.2,5.2,5.2,0,0,1-.545.146,5.4,5.4,0,0,1-.554.088,4.9,4.9,0,0,1-.533.029,3.865,3.865,0,0,1-1.415-.246,2.825,2.825,0,0,1-1.072-.729,3.268,3.268,0,0,1-.68-1.2,5.35,5.35,0,0,1-.237-1.67,5.083,5.083,0,0,1,.263-1.691,3.606,3.606,0,0,1,.742-1.265,3.138,3.138,0,0,1,1.148-.791,3.892,3.892,0,0,1,1.48-.273,5.17,5.17,0,0,1,.981.091,3.878,3.878,0,0,1,.894.29Z" fill="#b31b1b"/>
      <path d="M271.387,26.868h.932l.029,1.084a3.783,3.783,0,0,1,1.028-.908,2.084,2.084,0,0,1,1.023-.281,1.669,1.669,0,0,1,1.386.591,2.647,2.647,0,0,1,.436,1.758H275.19a1.926,1.926,0,0,0-.226-1.122.813.813,0,0,0-.712-.348,1.237,1.237,0,0,0-.413.073,1.685,1.685,0,0,0-.427.234,3.834,3.834,0,0,0-.466.413,7.634,7.634,0,0,0-.528.61v3.779h-1.031Z" fill="#b31b1b"/>
      <path d="M282.948,29.763a3.9,3.9,0,0,1-.194,1.257A2.8,2.8,0,0,1,282.2,32a2.5,2.5,0,0,1-.885.633,2.962,2.962,0,0,1-1.184.225,3.08,3.08,0,0,1-1.133-.2,2.241,2.241,0,0,1-.85-.577,2.558,2.558,0,0,1-.533-.943,4.155,4.155,0,0,1-.185-1.3,3.845,3.845,0,0,1,.194-1.251,2.8,2.8,0,0,1,.556-.973,2.507,2.507,0,0,1,.885-.633,2.962,2.962,0,0,1,1.184-.225,3.084,3.084,0,0,1,1.133.2,2.258,2.258,0,0,1,.85.574,2.534,2.534,0,0,1,.533.941A4.129,4.129,0,0,1,282.948,29.763Zm-1.043.047a3.388,3.388,0,0,0-.12-.953,1.919,1.919,0,0,0-.343-.679,1.405,1.405,0,0,0-.542-.41,1.777,1.777,0,0,0-.712-.138,1.591,1.591,0,0,0-.782.179,1.54,1.54,0,0,0-.533.477,2.045,2.045,0,0,0-.305.694,3.462,3.462,0,0,0-.1.83,3.418,3.418,0,0,0,.12.955,1.917,1.917,0,0,0,.343.682,1.4,1.4,0,0,0,.539.41,1.771,1.771,0,0,0,.715.138,1.591,1.591,0,0,0,.782-.179,1.54,1.54,0,0,0,.533-.477,2.045,2.045,0,0,0,.305-.694A3.48,3.48,0,0,0,281.9,29.81Z" fill="#b31b1b"/>
      <path d="M289.179,32.751h-.914l-.035-.949a4.826,4.826,0,0,1-.5.507,2.594,2.594,0,0,1-.472.325,1.842,1.842,0,0,1-.471.173,2.461,2.461,0,0,1-.5.049,1.714,1.714,0,0,1-1.371-.533,2.4,2.4,0,0,1-.463-1.611V26.868h1.019V30.63q0,1.353,1.02,1.353a1.225,1.225,0,0,0,.366-.055,1.374,1.374,0,0,0,.375-.194,2.9,2.9,0,0,0,.422-.372q.225-.234.507-.591v-3.9h1.019Z" fill="#b31b1b"/>
      <path d="M296.064,29.7a3.881,3.881,0,0,1-.22,1.371,2.676,2.676,0,0,1-.606.973,2.49,2.49,0,0,1-.914.58,3.3,3.3,0,0,1-1.143.193,5.206,5.206,0,0,1-.559-.029,4.315,4.315,0,0,1-.566-.1v2.461h-1.019V26.868h.908l.064.985a2.62,2.62,0,0,1,.938-.847,2.424,2.424,0,0,1,1.078-.243,1.793,1.793,0,0,1,.885.211,1.825,1.825,0,0,1,.638.594,2.818,2.818,0,0,1,.387.926A5.234,5.234,0,0,1,296.064,29.7Zm-1.043.047a5.062,5.062,0,0,0-.067-.85,2.249,2.249,0,0,0-.214-.662,1.18,1.18,0,0,0-.375-.43.944.944,0,0,0-.545-.156,1.33,1.33,0,0,0-.393.062,1.585,1.585,0,0,0-.413.205,3.13,3.13,0,0,0-.451.381,5.976,5.976,0,0,0-.507.589v2.853a3.457,3.457,0,0,0,.592.185,2.861,2.861,0,0,0,.609.067,1.6,1.6,0,0,0,1.3-.559A2.576,2.576,0,0,0,295.021,29.751Z" fill="#b31b1b"/>
      <path d="M302,32.751h-4.81V31.8h1.969v-5.59l-1.834,1-.375-.867,2.437-1.283h.9V31.8H302Z" fill="#b31b1b"/>
      <path d="M308.666,31.058H307.36v1.693h-1.043V31.058h-3.686v-.9l3.264-5.068h1.465v5.068h1.306Zm-2.349-4.981-2.666,4.084h2.666Z" fill="#b31b1b"/>
    </g>
    <g>
      <path d="M127.284,41.277H125.52V40.4H130.1v.879h-1.764v5.889H130.1v.891H125.52v-.891h1.764Z" fill="#4f4f4f"/>
      <path d="M136.541,42.742a2.587,2.587,0,0,1-.175.929,2.3,2.3,0,0,1-.545.823,2.763,2.763,0,0,1-.944.589,3.749,3.749,0,0,1-1.371.226h-.949v2.748h-1.043V40.4h2.156a4.622,4.622,0,0,1,1.09.126,2.614,2.614,0,0,1,.917.408,2.033,2.033,0,0,1,.63.726A2.306,2.306,0,0,1,136.541,42.742Zm-1.084.047a1.374,1.374,0,0,0-.483-1.131,2.085,2.085,0,0,0-1.351-.392h-1.066v3.152h.973a2.22,2.22,0,0,0,1.426-.4A1.481,1.481,0,0,0,135.457,42.789Z" fill="#4f4f4f"/>
      <path d="M142.782,45.982a1.979,1.979,0,0,1-.223.956,1.937,1.937,0,0,1-.621.682,2.852,2.852,0,0,1-.958.407,5.257,5.257,0,0,1-1.233.135q-.306,0-.607-.023c-.2-.016-.394-.035-.58-.059s-.36-.051-.524-.082-.313-.064-.446-.1V46.891a5.442,5.442,0,0,0,.988.257,7.375,7.375,0,0,0,1.245.094,3.98,3.98,0,0,0,.858-.079,1.666,1.666,0,0,0,.58-.234.928.928,0,0,0,.328-.378,1.2,1.2,0,0,0,.1-.51.831.831,0,0,0-.173-.53,1.7,1.7,0,0,0-.454-.393,4.129,4.129,0,0,0-.642-.316l-.735-.3q-.375-.153-.735-.331a3.011,3.011,0,0,1-.642-.422,1.946,1.946,0,0,1-.454-.571,1.657,1.657,0,0,1-.173-.78,1.946,1.946,0,0,1,.164-.773,1.841,1.841,0,0,1,.51-.677,2.632,2.632,0,0,1,.888-.477,4.083,4.083,0,0,1,1.292-.182c.128,0,.268.006.418.018s.3.028.458.049.306.046.457.074.29.056.418.087v.938a7.059,7.059,0,0,0-.9-.2,5.907,5.907,0,0,0-.873-.068,2.306,2.306,0,0,0-1.318.3.934.934,0,0,0-.422.8.838.838,0,0,0,.173.533,1.714,1.714,0,0,0,.454.4,4.03,4.03,0,0,0,.641.319c.241.1.486.194.736.3s.5.213.735.334a3.012,3.012,0,0,1,.642.43,2.012,2.012,0,0,1,.454.583A1.706,1.706,0,0,1,142.782,45.982Z" fill="#4f4f4f"/>
      <path d="M149.266,44.805q0,.216-.006.363c0,.1-.01.189-.017.275h-4.131a1.83,1.83,0,0,0,.5,1.386,2.018,2.018,0,0,0,1.453.483c.172,0,.344-.006.515-.02s.338-.032.5-.056.314-.049.46-.079.283-.061.408-.1V47.9a7.019,7.019,0,0,1-.941.191,7.821,7.821,0,0,1-1.087.073,3.684,3.684,0,0,1-1.3-.2,2.221,2.221,0,0,1-.894-.595,2.457,2.457,0,0,1-.516-.955,4.528,4.528,0,0,1-.167-1.28,3.807,3.807,0,0,1,.179-1.175,2.949,2.949,0,0,1,.522-.973,2.468,2.468,0,0,1,1.971-.911,2.868,2.868,0,0,1,1.09.194,2.188,2.188,0,0,1,.8.548,2.323,2.323,0,0,1,.492.861A3.622,3.622,0,0,1,149.266,44.805Zm-1.06-.147a2.229,2.229,0,0,0-.077-.718,1.5,1.5,0,0,0-.29-.559,1.357,1.357,0,0,0-.489-.366,1.64,1.64,0,0,0-.68-.132,1.42,1.42,0,0,0-.609.129,1.392,1.392,0,0,0-.475.363,1.889,1.889,0,0,0-.322.563,2.563,2.563,0,0,0-.152.72Z" fill="#4f4f4f"/>
      <path d="M155.314,47.84a4.4,4.4,0,0,1-.817.225,5.006,5.006,0,0,1-.865.074,2.9,2.9,0,0,1-2.147-.756,3,3,0,0,1-.753-2.209,3.518,3.518,0,0,1,.217-1.266,2.8,2.8,0,0,1,.609-.972,2.678,2.678,0,0,1,.938-.624,3.17,3.17,0,0,1,1.2-.22,5.355,5.355,0,0,1,.855.064,3.576,3.576,0,0,1,.762.211v.973a3.211,3.211,0,0,0-.776-.29,3.624,3.624,0,0,0-.818-.091,1.868,1.868,0,0,0-.741.149,1.816,1.816,0,0,0-.612.431,2.03,2.03,0,0,0-.416.686,2.565,2.565,0,0,0-.153.914,2.2,2.2,0,0,0,.519,1.6,1.918,1.918,0,0,0,1.438.531,3.459,3.459,0,0,0,.806-.094,3.357,3.357,0,0,0,.753-.281Z" fill="#4f4f4f"/>
      <path d="M158.505,42.068a.837.837,0,0,1,.346.074.939.939,0,0,1,.483.483.837.837,0,0,1,.074.346.826.826,0,0,1-.074.348.953.953,0,0,1-.2.285.912.912,0,0,1-.287.193.866.866,0,0,1-.346.07.855.855,0,0,1-.348-.07.92.92,0,0,1-.478-.478.855.855,0,0,1-.07-.348.866.866,0,0,1,.07-.346.9.9,0,0,1,.194-.287.936.936,0,0,1,.284-.2A.826.826,0,0,1,158.505,42.068Zm0,4.3a.837.837,0,0,1,.346.074.939.939,0,0,1,.483.483.837.837,0,0,1,.074.346.826.826,0,0,1-.074.348.936.936,0,0,1-.2.284.915.915,0,0,1-.287.194.866.866,0,0,1-.346.07.855.855,0,0,1-.348-.07.913.913,0,0,1-.284-.194.9.9,0,0,1-.194-.284.855.855,0,0,1-.07-.348.866.866,0,0,1,.07-.346.9.9,0,0,1,.194-.287.936.936,0,0,1,.284-.2A.826.826,0,0,1,158.505,46.363Z" fill="#4f4f4f"/>
      <path d="M174.537,41.711a4.4,4.4,0,0,0-.879-.355,3.653,3.653,0,0,0-.985-.126,2.593,2.593,0,0,0-1.084.217,2.218,2.218,0,0,0-.8.613,2.8,2.8,0,0,0-.5.952,4.141,4.141,0,0,0-.172,1.23,5.145,5.145,0,0,0,.14,1.26,2.525,2.525,0,0,0,.44.943,1.933,1.933,0,0,0,.764.592,2.758,2.758,0,0,0,1.117.2q.111,0,.24-.012c.086-.007.172-.018.258-.032s.169-.03.249-.05a1.826,1.826,0,0,0,.213-.064V44.646h-1.564v-.861h2.6V47.7a4.609,4.609,0,0,1-.507.2,4.969,4.969,0,0,1-.545.147c-.186.039-.37.068-.554.088a5.171,5.171,0,0,1-.533.029,3.865,3.865,0,0,1-1.415-.246,2.825,2.825,0,0,1-1.072-.729,3.272,3.272,0,0,1-.68-1.2,5.346,5.346,0,0,1-.237-1.67,5.081,5.081,0,0,1,.263-1.69,3.619,3.619,0,0,1,.742-1.266,3.162,3.162,0,0,1,1.148-.791,3.911,3.911,0,0,1,1.48-.272,5.09,5.09,0,0,1,.981.091,3.831,3.831,0,0,1,.894.29Z" fill="#b31b1b"/>
      <path d="M180.97,47.77a5.006,5.006,0,0,1-1.928.38,3.177,3.177,0,0,1-2.493-.969,4.173,4.173,0,0,1-.87-2.869,5.41,5.41,0,0,1,.24-1.664,3.621,3.621,0,0,1,.686-1.262,3.009,3.009,0,0,1,1.078-.8,3.448,3.448,0,0,1,1.418-.281,5.043,5.043,0,0,1,.99.091,4.106,4.106,0,0,1,.879.278V41.7a3.886,3.886,0,0,0-.861-.348,3.73,3.73,0,0,0-.973-.121,2.29,2.29,0,0,0-.975.2,2.019,2.019,0,0,0-.742.586,2.728,2.728,0,0,0-.468.937,4.426,4.426,0,0,0-.164,1.263,3.546,3.546,0,0,0,.6,2.244,2.129,2.129,0,0,0,1.77.756,3.789,3.789,0,0,0,.943-.115,4.353,4.353,0,0,0,.867-.319Z" fill="#b31b1b"/>
      <path d="M187.964,48.057h-1.019l-.153-4.776-.064-1.834-.357,1.067-1.131,3.047h-.721l-1.078-2.93-.358-1.184-.023,1.916-.135,4.694h-.984l.375-7.659h1.236l1.031,2.883.334.973.323-.973,1.084-2.883H187.6Z" fill="#b31b1b"/>
      <path d="M195.066,48.057h-1.137l-.533-1.67h-3.188l-.539,1.67h-1.084l2.543-7.659h1.43Zm-1.969-2.6-1.3-4.1-1.295,4.1Z" fill="#b31b1b"/>
      <path d="M200.482,48.057h-4.354V40.4h4.354v.879h-3.311V43.65h3.182v.879h-3.182v2.637h3.311Z" fill="#b31b1b"/>
      <path d="M206.976,45.982a1.968,1.968,0,0,1-.223.956,1.937,1.937,0,0,1-.621.682,2.843,2.843,0,0,1-.958.407,5.257,5.257,0,0,1-1.233.135q-.3,0-.607-.023c-.2-.016-.394-.035-.58-.059s-.36-.051-.524-.082-.313-.064-.445-.1V46.891a5.452,5.452,0,0,0,.987.257,7.375,7.375,0,0,0,1.245.094,3.98,3.98,0,0,0,.858-.079,1.672,1.672,0,0,0,.581-.234.944.944,0,0,0,.328-.378,1.216,1.216,0,0,0,.1-.51.825.825,0,0,0-.173-.53,1.68,1.68,0,0,0-.454-.393,4.116,4.116,0,0,0-.641-.316l-.736-.3q-.375-.153-.735-.331a3.062,3.062,0,0,1-.642-.422,1.962,1.962,0,0,1-.454-.571,1.657,1.657,0,0,1-.173-.78,1.946,1.946,0,0,1,.164-.773,1.863,1.863,0,0,1,.51-.677,2.652,2.652,0,0,1,.888-.477,4.083,4.083,0,0,1,1.292-.182c.129,0,.268.006.419.018s.3.028.457.049.306.046.457.074.29.056.419.087v.938a7.11,7.11,0,0,0-.9-.2,5.886,5.886,0,0,0-.873-.068,2.308,2.308,0,0,0-1.318.3.936.936,0,0,0-.422.8.844.844,0,0,0,.173.533,1.73,1.73,0,0,0,.454.4,4.086,4.086,0,0,0,.642.319c.24.1.485.194.735.3s.5.213.735.334a2.963,2.963,0,0,1,.642.43,2,2,0,0,1,.454.583A1.706,1.706,0,0,1,206.976,45.982Z" fill="#b31b1b"/>
      <path d="M213.01,48.057H208.2v-.95h1.968V41.518l-1.834,1-.375-.868,2.438-1.283h.9v6.744h1.711Z" fill="#b31b1b"/>
      <path d="M219.312,48.057h-5.045v-.914l1.981-1.969q.486-.48.791-.832a4.4,4.4,0,0,0,.474-.642,1.958,1.958,0,0,0,.229-.548,2.51,2.51,0,0,0,.058-.556,1.847,1.847,0,0,0-.076-.536,1.291,1.291,0,0,0-.234-.449,1.085,1.085,0,0,0-.41-.3,1.477,1.477,0,0,0-.6-.112,1.829,1.829,0,0,0-.885.217,3.029,3.029,0,0,0-.732.563L214.3,41.3a3.449,3.449,0,0,1,1-.733,2.981,2.981,0,0,1,1.316-.275,2.708,2.708,0,0,1,.928.152,2.068,2.068,0,0,1,.724.44,1.958,1.958,0,0,1,.472.7,2.5,2.5,0,0,1,.167.937,2.726,2.726,0,0,1-.117.815,3.168,3.168,0,0,1-.355.747,5.744,5.744,0,0,1-.6.77q-.36.4-.852.873l-1.389,1.354h3.721Z" fill="#b31b1b"/>
      <path d="M225.622,46.135a1.782,1.782,0,0,1-.756,1.5,2.617,2.617,0,0,1-.844.392,4.291,4.291,0,0,1-2.159-.006,2.354,2.354,0,0,1-.8-.392,1.645,1.645,0,0,1-.486-.6,1.741,1.741,0,0,1-.164-.761,1.926,1.926,0,0,1,.392-1.213,3.494,3.494,0,0,1,1.213-.926,3.063,3.063,0,0,1-1.1-.847,1.771,1.771,0,0,1,.267-2.4,2.311,2.311,0,0,1,.77-.431,3.333,3.333,0,0,1,1.09-.161,3.857,3.857,0,0,1,1.04.126,2.2,2.2,0,0,1,.753.36,1.491,1.491,0,0,1,.457.569,1.909,1.909,0,0,1-.219,1.881,3.194,3.194,0,0,1-1.058.82,5.026,5.026,0,0,1,.633.375,2.74,2.74,0,0,1,.509.457,1.86,1.86,0,0,1,.458,1.254Zm-1.108.076a1.288,1.288,0,0,0-.07-.422,1.173,1.173,0,0,0-.252-.4,2.528,2.528,0,0,0-.486-.4,5.9,5.9,0,0,0-.774-.41,4.964,4.964,0,0,0-.671.384,2.316,2.316,0,0,0-.439.387,1.221,1.221,0,0,0-.238.407,1.425,1.425,0,0,0-.07.445.933.933,0,0,0,.114.466,1.058,1.058,0,0,0,.314.343,1.428,1.428,0,0,0,.474.211,2.41,2.41,0,0,0,.6.07,2.567,2.567,0,0,0,.586-.064,1.487,1.487,0,0,0,.478-.2.988.988,0,0,0,.319-.334A.947.947,0,0,0,224.514,46.211Zm-.105-4.037a.881.881,0,0,0-.367-.777,2.2,2.2,0,0,0-2.05,0,.855.855,0,0,0-.367.755,1.015,1.015,0,0,0,.088.422,1.155,1.155,0,0,0,.273.364,2.811,2.811,0,0,0,.46.334,6.483,6.483,0,0,0,.656.334,3.311,3.311,0,0,0,.984-.648A1.1,1.1,0,0,0,224.409,42.174Z" fill="#b31b1b"/>
      <path d="M226.668,49.258a2.185,2.185,0,0,0,.58-.053,1.737,1.737,0,0,0,.5-.19,1.068,1.068,0,0,0,.342-.314.736.736,0,0,0,.129-.428.81.81,0,0,0-.085-.4,1.869,1.869,0,0,0-.19-.281,2.147,2.147,0,0,1-.191-.276.783.783,0,0,1-.085-.392.793.793,0,0,1,.047-.258.748.748,0,0,1,.144-.246.731.731,0,0,1,.246-.182.827.827,0,0,1,.355-.07.955.955,0,0,1,.4.085.9.9,0,0,1,.334.261,1.329,1.329,0,0,1,.229.439,2.055,2.055,0,0,1,.084.621,2.507,2.507,0,0,1-.178.935,2.283,2.283,0,0,1-.533.794,2.589,2.589,0,0,1-.885.55,3.405,3.405,0,0,1-1.234.206Z" fill="#b31b1b"/>
      <path d="M244.663,42.742a2.589,2.589,0,0,1-.176.929,2.291,2.291,0,0,1-.545.823,2.763,2.763,0,0,1-.944.589,3.749,3.749,0,0,1-1.371.226h-.949v2.748h-1.043V40.4h2.156a4.622,4.622,0,0,1,1.09.126,2.614,2.614,0,0,1,.917.408,2.033,2.033,0,0,1,.63.726A2.306,2.306,0,0,1,244.663,42.742Zm-1.084.047a1.375,1.375,0,0,0-.484-1.131,2.084,2.084,0,0,0-1.35-.392h-1.067v3.152h.973a2.225,2.225,0,0,0,1.427-.4A1.481,1.481,0,0,0,243.579,42.789Z" fill="#b31b1b"/>
      <path d="M250.352,41.289H247.1v2.484h3.082v.873H247.1v3.411h-1.066V40.4h4.318Z" fill="#b31b1b"/>
      <path d="M256.684,45.982a1.968,1.968,0,0,1-.223.956,1.937,1.937,0,0,1-.621.682,2.843,2.843,0,0,1-.958.407,5.257,5.257,0,0,1-1.233.135q-.3,0-.607-.023c-.2-.016-.394-.035-.58-.059s-.36-.051-.524-.082-.313-.064-.445-.1V46.891a5.452,5.452,0,0,0,.987.257,7.375,7.375,0,0,0,1.245.094,3.98,3.98,0,0,0,.858-.079,1.672,1.672,0,0,0,.581-.234.944.944,0,0,0,.328-.378,1.216,1.216,0,0,0,.1-.51.825.825,0,0,0-.173-.53,1.68,1.68,0,0,0-.454-.393,4.116,4.116,0,0,0-.641-.316l-.736-.3q-.375-.153-.735-.331a3.062,3.062,0,0,1-.642-.422,1.962,1.962,0,0,1-.454-.571,1.657,1.657,0,0,1-.173-.78,1.946,1.946,0,0,1,.164-.773,1.863,1.863,0,0,1,.51-.677,2.652,2.652,0,0,1,.888-.477,4.083,4.083,0,0,1,1.292-.182c.129,0,.268.006.419.018s.3.028.457.049.307.046.457.074.29.056.419.087v.938a7.11,7.11,0,0,0-.9-.2,5.886,5.886,0,0,0-.873-.068,2.308,2.308,0,0,0-1.318.3.936.936,0,0,0-.422.8.844.844,0,0,0,.173.533,1.73,1.73,0,0,0,.454.4,4.086,4.086,0,0,0,.642.319c.24.1.485.194.735.3s.5.213.735.334a2.963,2.963,0,0,1,.642.43,2,2,0,0,1,.454.583A1.706,1.706,0,0,1,256.684,45.982Z" fill="#b31b1b"/>
      <path d="M262.717,48.057h-4.81v-.95h1.968V41.518l-1.834,1-.375-.868,2.438-1.283h.9v6.744h1.711Z" fill="#b31b1b"/>
      <path d="M269.382,46.363h-1.306v1.694h-1.043V46.363h-3.686v-.9l3.264-5.069h1.465v5.069h1.306Zm-2.349-4.98-2.666,4.084h2.666Z" fill="#b31b1b"/>
    </g>
    <g>
      <path d="M318.512,109.656l-3.111,8.4h-1.084l-3.047-8.4h1.1l2.326,6.662a3.973,3.973,0,0,1,.17.744h.023a3.631,3.631,0,0,1,.194-.756l2.373-6.65Z" fill="#1e1e1e"/>
      <path d="M320.649,114.882v3.176h-.985v-8.4h2.309a3.049,3.049,0,0,1,2.089.656,2.345,2.345,0,0,1,.741,1.852,2.547,2.547,0,0,1-.823,1.957,3.149,3.149,0,0,1-2.224.761Zm0-4.336v3.446h1.031a2.31,2.31,0,0,0,1.556-.466,1.651,1.651,0,0,0,.536-1.316q0-1.663-1.969-1.664Z" fill="#1e1e1e"/>
      <path d="M332.917,118.058H331.71l-4.324-6.7a2.794,2.794,0,0,1-.269-.528h-.036a8.524,8.524,0,0,1,.047,1.155v6.07h-.984v-8.4h1.277l4.207,6.592q.264.409.34.562h.024a8.875,8.875,0,0,1-.059-1.236v-5.918h.984Z" fill="#1e1e1e"/>
      <path d="M306.23,132.458v-8.4h2.32q4.442,0,4.442,4.1a4.125,4.125,0,0,1-1.234,3.126,4.576,4.576,0,0,1-3.3,1.181Zm.984-7.512v6.621h1.254a3.56,3.56,0,0,0,2.572-.884,3.315,3.315,0,0,0,.92-2.508q0-3.23-3.433-3.229Z" fill="#1e1e1e"/>
      <path d="M319.324,129.7h-4.237a2.249,2.249,0,0,0,.539,1.547,1.861,1.861,0,0,0,1.418.545,2.953,2.953,0,0,0,1.864-.668v.9a3.484,3.484,0,0,1-2.092.575,2.535,2.535,0,0,1-2-.818,3.342,3.342,0,0,1-.727-2.3,3.283,3.283,0,0,1,.794-2.282,2.546,2.546,0,0,1,1.972-.882,2.255,2.255,0,0,1,1.822.762,3.175,3.175,0,0,1,.645,2.115Zm-.985-.814a1.952,1.952,0,0,0-.4-1.295,1.367,1.367,0,0,0-1.1-.463,1.552,1.552,0,0,0-1.154.486,2.21,2.21,0,0,0-.586,1.272Z" fill="#1e1e1e"/>
      <path d="M325.452,126.458l-2.391,6h-.943l-2.274-6H320.9l1.523,4.359a3.865,3.865,0,0,1,.211.838h.024a3.944,3.944,0,0,1,.187-.814l1.594-4.383Z" fill="#1e1e1e"/>
      <path d="M327.016,124.935a.608.608,0,0,1-.439-.176.6.6,0,0,1-.182-.446.615.615,0,0,1,.621-.626.619.619,0,0,1,.448.178.625.625,0,0,1,0,.888A.615.615,0,0,1,327.016,124.935Zm.469,7.523h-.961v-6h.961Z" fill="#1e1e1e"/>
      <path d="M333.419,132.183a3.123,3.123,0,0,1-1.64.416,2.72,2.72,0,0,1-2.072-.835,3.029,3.029,0,0,1-.788-2.165,3.327,3.327,0,0,1,.85-2.382,2.97,2.97,0,0,1,2.268-.9,3.158,3.158,0,0,1,1.394.293v.985a2.44,2.44,0,0,0-1.43-.469,1.931,1.931,0,0,0-1.508.659,2.5,2.5,0,0,0-.589,1.732,2.383,2.383,0,0,0,.553,1.664,1.912,1.912,0,0,0,1.486.609,2.411,2.411,0,0,0,1.476-.521Z" fill="#1e1e1e"/>
      <path d="M339.575,129.7h-4.237a2.249,2.249,0,0,0,.539,1.547,1.861,1.861,0,0,0,1.418.545,2.953,2.953,0,0,0,1.864-.668v.9a3.484,3.484,0,0,1-2.092.575,2.535,2.535,0,0,1-2-.818,3.342,3.342,0,0,1-.727-2.3,3.283,3.283,0,0,1,.794-2.282,2.546,2.546,0,0,1,1.972-.882,2.255,2.255,0,0,1,1.822.762,3.175,3.175,0,0,1,.645,2.115Zm-.985-.814a1.952,1.952,0,0,0-.4-1.295,1.367,1.367,0,0,0-1.1-.463,1.552,1.552,0,0,0-1.154.486,2.21,2.21,0,0,0-.586,1.272Z" fill="#1e1e1e"/>
    </g>
    <g>
      <path d="M126.6,11.634V14.81h-.984v-8.4h2.308a3.049,3.049,0,0,1,2.089.656,2.345,2.345,0,0,1,.741,1.852,2.546,2.546,0,0,1-.823,1.957,3.144,3.144,0,0,1-2.223.762Zm0-4.336v3.445h1.031a2.3,2.3,0,0,0,1.556-.466,1.649,1.649,0,0,0,.536-1.315q0-1.663-1.969-1.664Z" fill="#1e1e1e"/>
      <path d="M134.478,14.95a2.781,2.781,0,0,1-2.124-.841,3.113,3.113,0,0,1-.794-2.229,3.242,3.242,0,0,1,.826-2.361,2.969,2.969,0,0,1,2.233-.85,2.689,2.689,0,0,1,2.094.826,3.277,3.277,0,0,1,.753,2.291,3.223,3.223,0,0,1-.811,2.3A2.845,2.845,0,0,1,134.478,14.95Zm.07-5.472a1.831,1.831,0,0,0-1.465.629,2.59,2.59,0,0,0-.539,1.738,2.446,2.446,0,0,0,.545,1.681,1.851,1.851,0,0,0,1.459.616,1.759,1.759,0,0,0,1.433-.6,2.619,2.619,0,0,0,.5-1.717,2.662,2.662,0,0,0-.5-1.734A1.75,1.75,0,0,0,134.548,9.478Z" fill="#1e1e1e"/>
      <path d="M139.9,14.81h-.961V5.927h.961Z" fill="#1e1e1e"/>
      <path d="M142.215,7.286a.6.6,0,0,1-.439-.176.592.592,0,0,1-.182-.445.616.616,0,0,1,.621-.627.624.624,0,0,1,.449.179.626.626,0,0,1,0,.887A.615.615,0,0,1,142.215,7.286Zm.469,7.524h-.961v-6h.961Z" fill="#1e1e1e"/>
      <path d="M148.619,14.534a3.117,3.117,0,0,1-1.641.416,2.714,2.714,0,0,1-2.071-.835,3.022,3.022,0,0,1-.788-2.165,3.329,3.329,0,0,1,.849-2.382,2.975,2.975,0,0,1,2.268-.9,3.158,3.158,0,0,1,1.394.293v.984a2.445,2.445,0,0,0-1.429-.468,1.929,1.929,0,0,0-1.509.659,2.5,2.5,0,0,0-.589,1.731,2.382,2.382,0,0,0,.554,1.664,1.909,1.909,0,0,0,1.485.61,2.409,2.409,0,0,0,1.477-.522Z" fill="#1e1e1e"/>
      <path d="M155.1,8.81l-2.76,6.961q-.738,1.863-2.074,1.863a2.228,2.228,0,0,1-.627-.076V16.7a1.761,1.761,0,0,0,.568.106,1.177,1.177,0,0,0,1.09-.867l.481-1.137L149.439,8.81h1.066l1.623,4.617c.02.058.061.211.123.457h.036c.019-.094.058-.242.117-.446l1.705-4.628Z" fill="#1e1e1e"/>
    </g>
    <g>
      <path d="M177.093,112.718v-1.16a2.268,2.268,0,0,0,.478.317,3.987,3.987,0,0,0,.586.237,4.705,4.705,0,0,0,.618.149,3.46,3.46,0,0,0,.574.053,2.248,2.248,0,0,0,1.357-.337,1.262,1.262,0,0,0,.3-1.561,1.66,1.66,0,0,0-.413-.46,4.1,4.1,0,0,0-.624-.4q-.36-.191-.776-.4-.44-.224-.82-.451a3.631,3.631,0,0,1-.663-.5,2.113,2.113,0,0,1-.442-.624,1.941,1.941,0,0,1-.161-.818,1.921,1.921,0,0,1,.252-1,2.171,2.171,0,0,1,.662-.7,2.99,2.99,0,0,1,.935-.41,4.268,4.268,0,0,1,1.069-.135,4.1,4.1,0,0,1,1.81.3v1.107a3.285,3.285,0,0,0-1.91-.515,3.13,3.13,0,0,0-.644.067,1.81,1.81,0,0,0-.574.22,1.274,1.274,0,0,0-.411.392,1.049,1.049,0,0,0-.158.586,1.208,1.208,0,0,0,.12.557,1.373,1.373,0,0,0,.355.428,3.487,3.487,0,0,0,.571.375c.225.121.483.254.776.4s.586.3.856.469a3.932,3.932,0,0,1,.709.545,2.419,2.419,0,0,1,.483.662,1.864,1.864,0,0,1,.179.832,2.112,2.112,0,0,1-.243,1.052,2,2,0,0,1-.656.7,2.863,2.863,0,0,1-.953.39,5.213,5.213,0,0,1-1.136.12,4.745,4.745,0,0,1-.492-.032q-.294-.033-.6-.094a4.759,4.759,0,0,1-.577-.153A1.793,1.793,0,0,1,177.093,112.718Z" fill="#1e1e1e"/>
      <path d="M184.054,105.535a.608.608,0,0,1-.439-.176.594.594,0,0,1-.182-.445.615.615,0,0,1,.621-.627.619.619,0,0,1,.448.178.625.625,0,0,1,0,.888A.615.615,0,0,1,184.054,105.535Zm.469,7.523h-.961v-6h.961Z" fill="#1e1e1e"/>
      <path d="M189.2,113a1.857,1.857,0,0,1-.9.187q-1.577,0-1.576-1.758v-3.551H185.7v-.82h1.031v-1.465l.961-.31v1.775H189.2v.82H187.69v3.381a1.4,1.4,0,0,0,.205.862.821.821,0,0,0,.68.257,1.01,1.01,0,0,0,.627-.2Z" fill="#1e1e1e"/>
      <path d="M195.206,110.3h-4.237a2.245,2.245,0,0,0,.539,1.547,1.861,1.861,0,0,0,1.418.545,2.948,2.948,0,0,0,1.863-.668v.9a3.485,3.485,0,0,1-2.091.574,2.535,2.535,0,0,1-2-.818,3.341,3.341,0,0,1-.727-2.3,3.284,3.284,0,0,1,.794-2.283,2.546,2.546,0,0,1,1.972-.882,2.255,2.255,0,0,1,1.822.762,3.175,3.175,0,0,1,.645,2.115Zm-.985-.814a1.96,1.96,0,0,0-.4-1.3,1.367,1.367,0,0,0-1.1-.463,1.552,1.552,0,0,0-1.154.486,2.2,2.2,0,0,0-.586,1.272Z" fill="#1e1e1e"/>
      <path d="M199.8,110.093h-3.2v-.756h3.2Z" fill="#1e1e1e"/>
      <path d="M204.066,113a1.857,1.857,0,0,1-.9.187q-1.575,0-1.576-1.758v-3.551h-1.031v-.82h1.031v-1.465l.961-.31v1.775h1.512v.82h-1.512v3.381a1.408,1.408,0,0,0,.2.862.822.822,0,0,0,.68.257,1.01,1.01,0,0,0,.627-.2Z" fill="#1e1e1e"/>
      <path d="M207.724,113.2a2.784,2.784,0,0,1-2.124-.841,3.117,3.117,0,0,1-.794-2.23,3.243,3.243,0,0,1,.826-2.361,2.973,2.973,0,0,1,2.233-.85,2.69,2.69,0,0,1,2.094.827,3.273,3.273,0,0,1,.753,2.291,3.221,3.221,0,0,1-.811,2.3A2.842,2.842,0,0,1,207.724,113.2Zm.07-5.473a1.826,1.826,0,0,0-1.464.63,2.584,2.584,0,0,0-.54,1.737,2.449,2.449,0,0,0,.545,1.682,1.854,1.854,0,0,0,1.459.615,1.758,1.758,0,0,0,1.433-.6,2.621,2.621,0,0,0,.5-1.717,2.667,2.667,0,0,0-.5-1.735A1.75,1.75,0,0,0,207.794,107.726Z" fill="#1e1e1e"/>
      <path d="M215.352,110.093h-3.2v-.756h3.2Z" fill="#1e1e1e"/>
      <path d="M216.478,112.718v-1.16a2.268,2.268,0,0,0,.478.317,3.975,3.975,0,0,0,.585.237,4.758,4.758,0,0,0,.619.149,3.46,3.46,0,0,0,.574.053,2.246,2.246,0,0,0,1.356-.337,1.261,1.261,0,0,0,.3-1.561,1.676,1.676,0,0,0-.413-.46,4.1,4.1,0,0,0-.624-.4q-.36-.191-.776-.4-.44-.224-.821-.451a3.623,3.623,0,0,1-.662-.5,2.113,2.113,0,0,1-.442-.624,2.129,2.129,0,0,1,.091-1.817,2.161,2.161,0,0,1,.662-.7,2.994,2.994,0,0,1,.934-.41,4.276,4.276,0,0,1,1.07-.135,4.1,4.1,0,0,1,1.81.3v1.107a3.287,3.287,0,0,0-1.91-.515,3.123,3.123,0,0,0-.644.067,1.816,1.816,0,0,0-.575.22,1.271,1.271,0,0,0-.41.392,1.049,1.049,0,0,0-.158.586,1.208,1.208,0,0,0,.12.557,1.36,1.36,0,0,0,.355.428,3.487,3.487,0,0,0,.571.375q.336.181.776.4t.856.469a3.932,3.932,0,0,1,.709.545,2.419,2.419,0,0,1,.483.662,1.864,1.864,0,0,1,.179.832,2.112,2.112,0,0,1-.243,1.052,2,2,0,0,1-.657.7,2.849,2.849,0,0,1-.952.39,5.216,5.216,0,0,1-1.137.12,4.778,4.778,0,0,1-.492-.032q-.292-.033-.6-.094a4.826,4.826,0,0,1-.578-.153A1.784,1.784,0,0,1,216.478,112.718Z" fill="#1e1e1e"/>
      <path d="M223.439,105.535a.612.612,0,0,1-.44-.176.593.593,0,0,1-.181-.445.613.613,0,0,1,.621-.627.619.619,0,0,1,.448.178.625.625,0,0,1,0,.888A.615.615,0,0,1,223.439,105.535Zm.469,7.523h-.961v-6h.961Z" fill="#1e1e1e"/>
      <path d="M228.586,113a1.85,1.85,0,0,1-.9.187q-1.576,0-1.576-1.758v-3.551h-1.032v-.82h1.032v-1.465l.961-.31v1.775h1.511v.82h-1.511v3.381a1.4,1.4,0,0,0,.205.862.819.819,0,0,0,.679.257,1.006,1.006,0,0,0,.627-.2Z" fill="#1e1e1e"/>
      <path d="M234.59,110.3h-4.236a2.245,2.245,0,0,0,.539,1.547,1.859,1.859,0,0,0,1.418.545,2.948,2.948,0,0,0,1.863-.668v.9a3.486,3.486,0,0,1-2.092.574,2.538,2.538,0,0,1-2-.818,3.346,3.346,0,0,1-.726-2.3,3.284,3.284,0,0,1,.794-2.283,2.544,2.544,0,0,1,1.971-.882,2.256,2.256,0,0,1,1.823.762,3.18,3.18,0,0,1,.644,2.115Zm-.984-.814a1.96,1.96,0,0,0-.4-1.3,1.367,1.367,0,0,0-1.1-.463,1.552,1.552,0,0,0-1.154.486,2.2,2.2,0,0,0-.586,1.272Z" fill="#1e1e1e"/>
      <path d="M245.706,104.656l-3.112,8.4H241.51l-3.047-8.4h1.1l2.326,6.662a3.973,3.973,0,0,1,.17.744h.024a3.625,3.625,0,0,1,.193-.756l2.373-6.65Z" fill="#1e1e1e"/>
      <path d="M247.841,109.882v3.176h-.984v-8.4h2.308a3.049,3.049,0,0,1,2.089.656,2.346,2.346,0,0,1,.742,1.852,2.548,2.548,0,0,1-.824,1.957,3.148,3.148,0,0,1-2.223.761Zm0-4.336v3.446h1.032a2.307,2.307,0,0,0,1.555-.466,1.648,1.648,0,0,0,.536-1.316q0-1.663-1.968-1.664Z" fill="#1e1e1e"/>
      <path d="M260.11,113.058H258.9l-4.324-6.7a2.741,2.741,0,0,1-.27-.528h-.035a8.7,8.7,0,0,1,.047,1.155v6.07h-.985v-8.4h1.278l4.207,6.592q.264.409.34.562h.023a8.875,8.875,0,0,1-.059-1.236v-5.918h.985Z" fill="#1e1e1e"/>
    </g>
  </g>
</svg>
