<svg xmlns="http://www.w3.org/2000/svg" xmlns:xlink="http://www.w3.org/1999/xlink" viewBox="0 0 421.62 142.78">
  <defs>
    <linearGradient id="linear-gradient" x1="214.11" y1="92.14" x2="214.11" y2="76.14" gradientUnits="userSpaceOnUse">
      <stop offset="0" stop-color="#1989b2"/>
      <stop offset="1" stop-color="#50c7e8"/>
    </linearGradient>
    <linearGradient id="linear-gradient-2" x1="175.74" y1="88.13" x2="183.72" y2="80.16" gradientUnits="userSpaceOnUse">
      <stop offset="0" stop-color="#b3b3b3"/>
      <stop offset="1" stop-color="#4f4f4f"/>
    </linearGradient>
    <linearGradient id="linear-gradient-3" x1="109.46" y1="539.68" x2="110.22" y2="499.46" gradientTransform="matrix(1, 0, 0, -1, 0, 599.57)" gradientUnits="userSpaceOnUse">
      <stop offset="0.22" stop-color="#32d4f5"/>
      <stop offset="0.47" stop-color="#31d1f3"/>
      <stop offset="0.63" stop-color="#2ec9eb"/>
      <stop offset="0.77" stop-color="#29bade"/>
      <stop offset="0.89" stop-color="#22a5cb"/>
      <stop offset="1" stop-color="#198ab3"/>
    </linearGradient>
    <linearGradient id="linear-gradient-4" x1="13.76" y1="561.15" x2="13.76" y2="533.64" gradientTransform="matrix(1, 0, 0, -1, 0, 599.57)" gradientUnits="userSpaceOnUse">
      <stop offset="0.18" stop-color="#5ea0ef"/>
      <stop offset="1" stop-color="#0078d4"/>
    </linearGradient>
    <linearGradient id="linear-gradient-5" x1="321.53" y1="499.91" x2="321.53" y2="528.1" gradientTransform="matrix(0.71, 0.71, 0.71, -0.71, -270.29, 221.25)" gradientUnits="userSpaceOnUse">
      <stop offset="0" stop-color="#258277"/>
      <stop offset="0.42" stop-color="#49a498"/>
      <stop offset="0.78" stop-color="#60baad"/>
      <stop offset="1" stop-color="#68c2b5"/>
    </linearGradient>
    <linearGradient id="linear-gradient-6" x1="414.56" y1="554.46" x2="414.56" y2="530.46" gradientTransform="matrix(1, 0, 0, -1, 0, 599.57)" gradientUnits="userSpaceOnUse">
      <stop offset="0" stop-color="#5ea0ef"/>
      <stop offset="0.18" stop-color="#559cec"/>
      <stop offset="0.47" stop-color="#3c91e5"/>
      <stop offset="0.84" stop-color="#1380da"/>
      <stop offset="1" stop-color="#0078d4"/>
    </linearGradient>
  </defs>
  <g id="Shapes">
    <g>
      <line x1="299.44" y1="84.14" x2="245.99" y2="84.14" fill="none" stroke="#3c3c41" stroke-miterlimit="10"/>
      <polygon points="298.35 80.4 304.83 84.14 298.35 87.88 298.35 80.4" fill="#3c3c41"/>
    </g>
    <g>
      <path d="M249,76.14H179.73c-2.43,0-4.34,3.52-4.34,8s1.91,8,4.34,8H249c2.13,0,3.85-3.85,3.85-8S251.1,76.14,249,76.14Z" fill="url(#linear-gradient)"/>
      <ellipse cx="179.73" cy="84.14" rx="3.64" ry="7.1" fill="url(#linear-gradient-2)"/>
    </g>
    <g>
      <rect x="13.31" y="50.78" width="97" height="66.72" fill="#fff"/>
      <rect x="13.31" y="50.78" width="97" height="66.72" fill="#0072c6" opacity="0.12"/>
    </g>
    <g>
      <path d="M118.81,83.67h-1.39V79.23a8.34,8.34,0,0,0-2.16-5.67,6.87,6.87,0,0,0-5.33-2.42,7,7,0,0,0-5.34,2.42,8.2,8.2,0,0,0-2.17,5.67v4.44h-1.16a1,1,0,0,0-1,1V96.15a1,1,0,0,0,1,1h17.55a1,1,0,0,0,1-1V84.66A1,1,0,0,0,118.81,83.67Zm-4.86,0h-8V79.09A4.58,4.58,0,0,1,107.15,76a3.68,3.68,0,0,1,2.74-1.25A3.62,3.62,0,0,1,112.61,76a4.3,4.3,0,0,1,.47.63h0a4.26,4.26,0,0,1,.87,2.47Z" fill="url(#linear-gradient-3)"/>
      <path d="M118.85,83.67H101.29a1,1,0,0,0-.66.25L119.49,97a1,1,0,0,0,.36-.77V84.68A1,1,0,0,0,118.85,83.67Z" fill="#50e6ff"/>
      <path d="M101.3,83.67h17.57a1,1,0,0,1,.64.25L100.66,97a1,1,0,0,1-.37-.77V84.68A1,1,0,0,1,101.3,83.67Z" fill="#fff" opacity="0.2" style="isolation: isolate"/>
      <path d="M108.33,86.45l1.72-1.73a.12.12,0,0,1,.14,0l1.71,1.73a.1.1,0,0,1,0,.13l0,0h-1.08a.09.09,0,0,0-.09.1h0V89h-1.16V86.7a.1.1,0,0,0-.1-.1h-1.08a.09.09,0,0,1-.09-.09S108.31,86.47,108.33,86.45Zm3.56,7.91-1.71,1.73a.12.12,0,0,1-.14,0l-1.71-1.73v-.13h1a.09.09,0,0,0,.09-.1h0V91.9a.07.07,0,0,1,0-.09h1.08a.07.07,0,0,1,0,.09v2.23a.09.09,0,0,0,.09.1h1C111.9,94.23,112,94.32,111.89,94.36Zm-6.79-2.23v-1A.09.09,0,0,0,105,91h-2.23a.14.14,0,0,1,0-.09V89.87a.14.14,0,0,1,0-.09H105a.07.07,0,0,0,.09,0v-1a.09.09,0,0,1,.13,0l0,0L107,90.35m0,.12-1.74,1.72a.09.09,0,0,1-.13,0s0,0,0-.06Zm8.11-1.74v1a.08.08,0,0,0,.09,0h2.23a.09.09,0,0,1,.08.09v1.07a.08.08,0,0,1-.08.09H115.2a.09.09,0,0,0-.09.09h0v1a.09.09,0,0,1-.13,0s0,0,0,0l-1.73-1.72a.11.11,0,0,1,0-.13L115,88.53a.12.12,0,0,1,.17,0A.12.12,0,0,1,115.11,88.73Z" fill="#fff"/>
    </g>
    <path d="M27.53,55.3a6.26,6.26,0,0,0-5.37-6.08,7.9,7.9,0,0,0-8-7.65,8.08,8.08,0,0,0-7.65,5.35A7.43,7.43,0,0,0,0,54.19a7.66,7.66,0,0,0,7.76,7.38H21.35A6.36,6.36,0,0,0,27.53,55.3Z" fill="url(#linear-gradient-4)"/>
    <g>
      <rect x="317.9" y="50.78" width="100" height="66.72" fill="#fff"/>
      <rect x="317.9" y="50.78" width="100" height="66.72" fill="#3c3c41" opacity="0.15"/>
    </g>
    <g>
      <line x1="178.83" y1="84.14" x2="126.38" y2="84.14" fill="none" stroke="#3c3c41" stroke-miterlimit="10"/>
      <polygon points="127.48 80.4 121 84.14 127.48 87.88 127.48 80.4" fill="#3c3c41"/>
    </g>
    <g>
      <rect x="310.62" y="73.24" width="21.8" height="21.8" rx="1.01" transform="translate(34.67 252) rotate(-45)" fill="url(#linear-gradient-5)"/>
      <path d="M318.1,76.52l3.32-3.32a.16.16,0,0,1,.24,0l3.41,3.32a.16.16,0,0,1-.12.28h-2a.18.18,0,0,0-.18.18h0v4.29a.16.16,0,0,1-.16.16h-2.06a.17.17,0,0,1-.18-.15h0V77a.18.18,0,0,0-.16-.18h-2a.18.18,0,0,1-.16-.19A.19.19,0,0,1,318.1,76.52Zm7,15.25-3.41,3.32a.16.16,0,0,1-.24,0l-3.32-3.32a.18.18,0,0,1,0-.25.16.16,0,0,1,.09,0h2a.18.18,0,0,0,.16-.18V87a.16.16,0,0,1,.16-.16h2.08a.16.16,0,0,1,.16.16h0v4.29a.18.18,0,0,0,.18.18h1.94a.18.18,0,1,1,.21.28Zm-10-4.38V85.45a.2.2,0,0,0-.18-.18h-4.29a.16.16,0,0,1-.17-.16V83.05a.19.19,0,0,1,.17-.18h4.29a.18.18,0,0,0,.18-.16v-2a.16.16,0,0,1,.09-.2.16.16,0,0,1,.19.06L318.68,84a.15.15,0,0,1,0,.22h0l-3.32,3.32a.15.15,0,0,1-.22,0A.14.14,0,0,1,315.08,87.39ZM328,80.75v2a.18.18,0,0,0,.18.16h4.29a.19.19,0,0,1,.17.18v2.06a.17.17,0,0,1-.17.16h-4.29a.2.2,0,0,0-.18.18v1.94a.16.16,0,0,1-.13.19.16.16,0,0,1-.15-.06l-3.32-3.38a.16.16,0,0,1,0-.22h0l3.32-3.3a.16.16,0,0,1,.22,0A.14.14,0,0,1,328,80.75Z" fill="#fff"/>
    </g>
    <g>
      <path d="M421.62,45.91V68.3a.79.79,0,0,1-.78.81H408.31a.79.79,0,0,1-.81-.78V45.91a.79.79,0,0,1,.78-.8h12.53a.79.79,0,0,1,.81.77Z" fill="url(#linear-gradient-6)"/>
      <path id="a1bc77ea-5288-41a0-8f9a-2d282cf54a86" d="M409.38,47.61h2.36a.19.19,0,0,1,.19.19v3a.19.19,0,0,1-.19.2h-2.36a.21.21,0,0,1-.21-.2v-3A.2.2,0,0,1,409.38,47.61Zm4,0h2.28a.2.2,0,0,1,.2.19h0v3a.2.2,0,0,1-.2.2h-2.28a.2.2,0,0,1-.2-.2h0v-3a.2.2,0,0,1,.2-.19Zm4,0h2.29a.21.21,0,0,1,.21.19v3a.22.22,0,0,1-.21.2h-2.29a.19.19,0,0,1-.19-.2h0v-3a.19.19,0,0,1,.19-.19ZM409.38,53h2.36a.18.18,0,0,1,.19.19v3a.21.21,0,0,1-.19.21h-2.36a.21.21,0,0,1-.21-.21v-3A.2.2,0,0,1,409.38,53Zm4,0h2.28a.19.19,0,0,1,.2.19h0v3a.22.22,0,0,1-.2.21h-2.28a.21.21,0,0,1-.2-.21v-3a.19.19,0,0,1,.2-.19Zm4,0h2.29a.21.21,0,0,1,.21.19v3a.21.21,0,0,1-.21.21h-2.29a.21.21,0,0,1-.19-.21v-3a.18.18,0,0,1,.19-.19Zm-8.07,5.39h2.36a.19.19,0,0,1,.19.2h0v3a.19.19,0,0,1-.19.2h-2.36a.21.21,0,0,1-.21-.2v-3A.2.2,0,0,1,409.38,58.38Zm4,0h2.28a.2.2,0,0,1,.26.11,0,0,0,0,1,0,0v3a.2.2,0,0,1-.2.2h-2.35a.2.2,0,0,1-.2-.2h0v-3A.19.19,0,0,1,413.42,58.38Zm0,5.38h2.28a.2.2,0,0,1,.2.19h0V68.4a.2.2,0,0,1-.2.2h-2.28a.2.2,0,0,1-.2-.2V64A.2.2,0,0,1,413.42,63.76Zm4-5.38h2.29a.21.21,0,0,1,.21.2v3a.22.22,0,0,1-.21.2h-2.29a.19.19,0,0,1-.19-.2h0v-3A.18.18,0,0,1,417.45,58.38Z" fill="#f2f2f2"/>
    </g>
  </g>
  <g id="Text">
    <g>
      <path d="M41.07,79.27H38.64v7.51h-1V79.27H35.24v-.89h5.83Z" fill="#1e1e1e"/>
      <path d="M46.22,84H42a2.16,2.16,0,0,0,.54,1.54,1.82,1.82,0,0,0,1.41.55,2.94,2.94,0,0,0,1.87-.67v.9a3.45,3.45,0,0,1-2.09.58,2.52,2.52,0,0,1-2-.82,3.81,3.81,0,0,1,.07-4.58,2.51,2.51,0,0,1,2-.88,2.25,2.25,0,0,1,1.82.76,3.17,3.17,0,0,1,.64,2.11Zm-1-.82a2,2,0,0,0-.4-1.29,1.37,1.37,0,0,0-1.1-.46,1.55,1.55,0,0,0-1.15.48A2.19,2.19,0,0,0,42,83.2Z" fill="#1e1e1e"/>
      <path d="M47.3,86.56v-1a2.82,2.82,0,0,0,1.73.58q1.26,0,1.26-.84a.68.68,0,0,0-.11-.41,1.17,1.17,0,0,0-.29-.3,2.86,2.86,0,0,0-.43-.23l-.54-.21c-.26-.11-.5-.21-.7-.32a2.22,2.22,0,0,1-.5-.36,1.38,1.38,0,0,1-.31-.46,1.66,1.66,0,0,1-.1-.61,1.44,1.44,0,0,1,.19-.75,1.78,1.78,0,0,1,.52-.54,2.21,2.21,0,0,1,.73-.33,3.07,3.07,0,0,1,.86-.11,3.41,3.41,0,0,1,1.39.27v1a2.7,2.7,0,0,0-1.52-.43,1.88,1.88,0,0,0-.49.06,1.26,1.26,0,0,0-.37.17.78.78,0,0,0-.24.27.64.64,0,0,0-.09.34.75.75,0,0,0,.09.39.83.83,0,0,0,.25.28,1.68,1.68,0,0,0,.4.23l.53.21a6,6,0,0,1,.71.32,1.82,1.82,0,0,1,.54.36,1.35,1.35,0,0,1,.35.47,1.46,1.46,0,0,1,.12.62,1.51,1.51,0,0,1-.2.78,1.78,1.78,0,0,1-.52.54,2.26,2.26,0,0,1-.76.32,3.7,3.7,0,0,1-.9.11A3.37,3.37,0,0,1,47.3,86.56Z" fill="#1e1e1e"/>
      <path d="M55.58,86.72a1.87,1.87,0,0,1-.89.19c-1.06,0-1.58-.59-1.58-1.76V81.6h-1v-.82h1V79.31l1-.31v1.78h1.51v.82H54.07V85a1.37,1.37,0,0,0,.21.86.81.81,0,0,0,.68.26,1,1,0,0,0,.62-.2Z" fill="#1e1e1e"/>
      <path d="M63.17,78.38l-3.11,8.4H59l-3-8.4H57L59.35,85a4.27,4.27,0,0,1,.17.74h0a4.13,4.13,0,0,1,.19-.75l2.38-6.65Z" fill="#1e1e1e"/>
      <path d="M71.09,86.78h-1.2l-4.33-6.7a2.65,2.65,0,0,1-.27-.53h0a9.48,9.48,0,0,1,0,1.16v6.07h-1v-8.4H65.6L69.8,85a5.88,5.88,0,0,1,.34.56h0a8.65,8.65,0,0,1-.06-1.24V78.38h1Z" fill="#1e1e1e"/>
      <path d="M77.94,84H73.71a2.2,2.2,0,0,0,.53,1.54,1.85,1.85,0,0,0,1.42.55,2.94,2.94,0,0,0,1.87-.67v.9a3.46,3.46,0,0,1-2.1.58,2.51,2.51,0,0,1-2-.82,3.83,3.83,0,0,1,.06-4.58,2.55,2.55,0,0,1,2-.88,2.25,2.25,0,0,1,1.82.76,3.17,3.17,0,0,1,.64,2.11Zm-1-.82a2,2,0,0,0-.4-1.29,1.37,1.37,0,0,0-1.1-.46,1.57,1.57,0,0,0-1.16.48,2.24,2.24,0,0,0-.58,1.27Z" fill="#1e1e1e"/>
      <path d="M82.17,86.72a1.87,1.87,0,0,1-.89.19c-1,0-1.58-.59-1.58-1.76V81.6h-1v-.82h1V79.31l1-.31v1.78h1.51v.82H80.66V85a1.37,1.37,0,0,0,.21.86.81.81,0,0,0,.68.26,1,1,0,0,0,.62-.2Z" fill="#1e1e1e"/>
    </g>
    <g>
      <path d="M359,86.44V85.28a1.89,1.89,0,0,0,.48.31,3,3,0,0,0,.58.24,3.5,3.5,0,0,0,.62.15,3,3,0,0,0,.57,0,2.29,2.29,0,0,0,1.36-.33,1.15,1.15,0,0,0,.45-1,1.1,1.1,0,0,0-.15-.59,1.62,1.62,0,0,0-.41-.46,3.79,3.79,0,0,0-.63-.4l-.77-.4a8.88,8.88,0,0,1-.82-.46,3.54,3.54,0,0,1-.67-.5,2.26,2.26,0,0,1-.44-.62,1.94,1.94,0,0,1-.16-.82,1.9,1.9,0,0,1,.25-1,2.21,2.21,0,0,1,.66-.7,3.19,3.19,0,0,1,.94-.41,4.3,4.3,0,0,1,1.07-.14,4.08,4.08,0,0,1,1.81.3v1.11a3.31,3.31,0,0,0-1.91-.51,3.57,3.57,0,0,0-.65.06,2,2,0,0,0-.57.22,1.3,1.3,0,0,0-.41.4,1,1,0,0,0-.16.58,1.22,1.22,0,0,0,.12.56,1.42,1.42,0,0,0,.36.43,3.52,3.52,0,0,0,.57.37l.77.4a8.72,8.72,0,0,1,.86.47,3.59,3.59,0,0,1,.71.54,2.53,2.53,0,0,1,.48.66,1.89,1.89,0,0,1,.18.84,2.14,2.14,0,0,1-.24,1,1.93,1.93,0,0,1-.66.7,2.8,2.8,0,0,1-.95.39,5.24,5.24,0,0,1-1.14.12l-.49,0-.6-.1a4.74,4.74,0,0,1-.57-.15A1.83,1.83,0,0,1,359,86.44Z" fill="#1e1e1e"/>
      <path d="M365.92,79.25a.6.6,0,0,1-.44-.17.61.61,0,0,1-.18-.45.57.57,0,0,1,.18-.44.6.6,0,0,1,.44-.18.61.61,0,0,1,.45.18.57.57,0,0,1,.18.44.59.59,0,0,1-.18.44A.61.61,0,0,1,365.92,79.25Zm.47,7.53h-1v-6h1Z" fill="#1e1e1e"/>
      <path d="M371.07,86.72a1.94,1.94,0,0,1-.9.19c-1.05,0-1.58-.59-1.58-1.76V81.6h-1v-.82h1V79.31l1-.31v1.78h1.51v.82h-1.51V85a1.38,1.38,0,0,0,.2.86.83.83,0,0,0,.68.26,1.05,1.05,0,0,0,.63-.2Z" fill="#1e1e1e"/>
      <path d="M377.07,84h-4.24a2.26,2.26,0,0,0,.54,1.54,1.85,1.85,0,0,0,1.42.55,2.94,2.94,0,0,0,1.87-.67v.9a3.46,3.46,0,0,1-2.1.58,2.51,2.51,0,0,1-2-.82,3.83,3.83,0,0,1,.06-4.58,2.54,2.54,0,0,1,2-.88,2.26,2.26,0,0,1,1.83.76,3.17,3.17,0,0,1,.64,2.11Zm-1-.82a2,2,0,0,0-.4-1.29,1.37,1.37,0,0,0-1.1-.46,1.57,1.57,0,0,0-1.16.48,2.24,2.24,0,0,0-.58,1.27Z" fill="#1e1e1e"/>
    </g>
    <g>
      <path d="M74.13,113.45H73l-.9-2.36H68.58l-.84,2.36H66.65l3.22-8.4h1Zm-2.31-3.24-1.32-3.58a3.91,3.91,0,0,1-.12-.56h0a3.36,3.36,0,0,1-.13.56l-1.31,3.58Z" fill="#1e1e1e"/>
      <path d="M79.8,107.73l-3.55,4.9h3.51v.82H74.84v-.3l3.55-4.88H75.17v-.82H79.8Z" fill="#1e1e1e"/>
      <path d="M85.89,113.45h-1v-1h0a2,2,0,0,1-1.85,1.09c-1.43,0-2.15-.85-2.15-2.55v-3.59h1v3.43c0,1.27.48,1.9,1.45,1.9a1.47,1.47,0,0,0,1.16-.52,2,2,0,0,0,.45-1.35v-3.46h1Z" fill="#1e1e1e"/>
      <path d="M90.84,108.42a1.18,1.18,0,0,0-.73-.19,1.23,1.23,0,0,0-1,.58,2.72,2.72,0,0,0-.41,1.58v3.06h-1v-6h1v1.24h0a2.12,2.12,0,0,1,.63-1,1.42,1.42,0,0,1,.94-.36,1.5,1.5,0,0,1,.58.09Z" fill="#1e1e1e"/>
      <path d="M96.72,110.69H92.48a2.25,2.25,0,0,0,.54,1.55,1.85,1.85,0,0,0,1.42.54,2.93,2.93,0,0,0,1.86-.67V113a3.5,3.5,0,0,1-2.09.57,2.52,2.52,0,0,1-2-.82,3.36,3.36,0,0,1-.73-2.3,3.29,3.29,0,0,1,.8-2.28,2.53,2.53,0,0,1,2-.88,2.25,2.25,0,0,1,1.82.76,3.18,3.18,0,0,1,.65,2.12Zm-1-.81a2,2,0,0,0-.4-1.3,1.36,1.36,0,0,0-1.1-.46,1.55,1.55,0,0,0-1.15.48,2.25,2.25,0,0,0-.59,1.28Z" fill="#1e1e1e"/>
      <path d="M101.19,113.11V112a2.5,2.5,0,0,0,.48.32,3.8,3.8,0,0,0,.59.23,3.39,3.39,0,0,0,.61.15,3.09,3.09,0,0,0,.58.06,2.25,2.25,0,0,0,1.35-.34,1.15,1.15,0,0,0,.45-1,1.13,1.13,0,0,0-.15-.59,1.6,1.6,0,0,0-.41-.46,4.43,4.43,0,0,0-.62-.4l-.78-.4c-.29-.15-.57-.3-.82-.45a3.85,3.85,0,0,1-.66-.51,1.95,1.95,0,0,1-.61-1.44,1.93,1.93,0,0,1,.26-1,2.1,2.1,0,0,1,.66-.7,3,3,0,0,1,.93-.41,4.29,4.29,0,0,1,1.07-.13,4.08,4.08,0,0,1,1.81.3v1.1a3.29,3.29,0,0,0-1.91-.51,3.47,3.47,0,0,0-.64.06,2,2,0,0,0-.58.22,1.56,1.56,0,0,0-.41.4,1.06,1.06,0,0,0-.15.58,1.22,1.22,0,0,0,.12.56,1.28,1.28,0,0,0,.35.43,3.75,3.75,0,0,0,.57.37c.23.12.48.26.78.4s.58.31.85.47a4,4,0,0,1,.71.54,2.27,2.27,0,0,1,.49.67,2,2,0,0,1,.17.83,2.14,2.14,0,0,1-.24,1,1.93,1.93,0,0,1-.66.7,2.8,2.8,0,0,1-.95.39,5.22,5.22,0,0,1-1.13.12l-.5,0a4.28,4.28,0,0,1-.59-.1,4.45,4.45,0,0,1-.58-.15A2,2,0,0,1,101.19,113.11Z" fill="#1e1e1e"/>
      <path d="M110.3,113.39a1.82,1.82,0,0,1-.9.19c-1.05,0-1.58-.59-1.58-1.76v-3.55h-1v-.82h1V106l1-.31v1.78h1.51v.82h-1.51v3.38a1.38,1.38,0,0,0,.2.86.83.83,0,0,0,.68.26,1.05,1.05,0,0,0,.63-.2Z" fill="#1e1e1e"/>
      <path d="M116,113.45h-1v-.94h0a2.2,2.2,0,0,1-3.25.61,1.68,1.68,0,0,1-.5-1.26c0-1.13.66-1.78,2-2l1.8-.25c0-1-.42-1.53-1.24-1.53a2.94,2.94,0,0,0-2,.74v-1a3.76,3.76,0,0,1,2-.56c1.41,0,2.12.75,2.12,2.24Zm-1-3-1.45.2a2.59,2.59,0,0,0-1,.33,1,1,0,0,0-.34.85.9.9,0,0,0,.32.71,1.16,1.16,0,0,0,.83.28,1.55,1.55,0,0,0,1.18-.5A1.8,1.8,0,0,0,115,111Z" fill="#1e1e1e"/>
      <path d="M121.85,113.17a3.1,3.1,0,0,1-1.64.42,2.75,2.75,0,0,1-2.07-.83,3.06,3.06,0,0,1-.79-2.17,3.35,3.35,0,0,1,.85-2.38,3,3,0,0,1,2.27-.9,3.2,3.2,0,0,1,1.39.29v1a2.38,2.38,0,0,0-1.43-.47,1.91,1.91,0,0,0-1.5.66,2.46,2.46,0,0,0-.59,1.73,2.36,2.36,0,0,0,.55,1.66,1.89,1.89,0,0,0,1.49.61,2.38,2.38,0,0,0,1.47-.52Z" fill="#1e1e1e"/>
      <path d="M128.12,113.45h-1.35l-2.65-2.88h0v2.88h-1v-8.88h1v5.63h0l2.52-2.75h1.26l-2.78,2.89Z" fill="#1e1e1e"/>
      <path d="M138.83,113.45h-1v-3.83H133.5v3.83h-1v-8.4h1v3.68h4.35v-3.68h1Z" fill="#1e1e1e"/>
      <path d="M145.69,113.45h-1v-1h0a2,2,0,0,1-1.86,1.09c-1.43,0-2.14-.85-2.14-2.55v-3.59h.95v3.43c0,1.27.49,1.9,1.46,1.9a1.44,1.44,0,0,0,1.15-.52,1.92,1.92,0,0,0,.46-1.35v-3.46h1Z" fill="#1e1e1e"/>
      <path d="M148.49,112.58h0v.87h-1v-8.88h1v3.93h0a2.27,2.27,0,0,1,2.07-1.19,2.21,2.21,0,0,1,1.81.8,3.32,3.32,0,0,1,.66,2.16,3.74,3.74,0,0,1-.74,2.42,2.44,2.44,0,0,1-2,.9A2,2,0,0,1,148.49,112.58Zm0-2.42V111a1.77,1.77,0,0,0,.48,1.26,1.59,1.59,0,0,0,1.23.52,1.6,1.6,0,0,0,1.37-.67,3,3,0,0,0,.49-1.85,2.39,2.39,0,0,0-.46-1.57,1.54,1.54,0,0,0-1.26-.57,1.69,1.69,0,0,0-1.34.58A2.15,2.15,0,0,0,148.47,110.16Z" fill="#1e1e1e"/>
      <path d="M106,119.45l-3.11,8.4h-1.08l-3-8.4h1.1l2.32,6.66a3,3,0,0,1,.17.74h0a3.44,3.44,0,0,1,.19-.75l2.37-6.65Z" fill="#1e1e1e"/>
      <path d="M108.11,124.67v3.18h-1v-8.4h2.31a3.07,3.07,0,0,1,2.08.65,2.35,2.35,0,0,1,.75,1.86,2.55,2.55,0,0,1-.83,2,3.13,3.13,0,0,1-2.22.76Zm0-4.33v3.44h1a2.32,2.32,0,0,0,1.56-.46,1.64,1.64,0,0,0,.53-1.32c0-1.11-.65-1.66-2-1.66Z" fill="#1e1e1e"/>
      <path d="M120.38,127.85h-1.21l-4.32-6.7a2.86,2.86,0,0,1-.27-.52h0a8.49,8.49,0,0,1,0,1.15v6.07h-1v-8.4h1.27l4.21,6.59a5.88,5.88,0,0,1,.34.56h0a9,9,0,0,1,0-1.23v-5.92h1Z" fill="#1e1e1e"/>
    </g>
    <g>
      <path d="M122.59,21.36h-1.76v-.88h4.58v.88h-1.76v5.89h1.76v.89h-4.58v-.89h1.76Z" fill="#4f4f4f"/>
      <path d="M132,28.14h-1.31l-2.87-3.75v3.75h-1V20.48h1V24l2.81-3.56h1.23l-3,3.64Z" fill="#4f4f4f"/>
      <path d="M137.66,28.14h-4.35V20.48h4.35v.88h-3.31v2.38h3.18v.88h-3.18v2.63h3.31Z" fill="#4f4f4f"/>
      <path d="M138.62,22.26h1.16l1.44,3.89.31,1,.32-1,1.43-3.87h1.12l-2.31,5.88h-1.17Z" fill="#4f4f4f"/>
      <path d="M150.31,28.14h-5v-.91l2-2c.32-.32.58-.6.79-.83a4.86,4.86,0,0,0,.47-.64,1.91,1.91,0,0,0,.23-.55,2.47,2.47,0,0,0,.06-.56,1.84,1.84,0,0,0-.08-.53,1.37,1.37,0,0,0-.23-.45,1.17,1.17,0,0,0-.41-.31,1.57,1.57,0,0,0-.6-.11,1.78,1.78,0,0,0-.89.22,3,3,0,0,0-.73.56l-.56-.67a3.42,3.42,0,0,1,1-.74,3.05,3.05,0,0,1,1.32-.27,2.75,2.75,0,0,1,.93.15,2,2,0,0,1,.72.44,1.88,1.88,0,0,1,.47.7,2.35,2.35,0,0,1,.17.94,2.71,2.71,0,0,1-.12.82,2.76,2.76,0,0,1-.35.74,5.58,5.58,0,0,1-.6.77c-.24.27-.52.56-.85.88l-1.39,1.35h3.72Z" fill="#4f4f4f"/>
      <path d="M153.2,22.15a.85.85,0,0,1,.35.08.85.85,0,0,1,.48.48.81.81,0,0,1,0,.7,1.07,1.07,0,0,1-.19.28.91.91,0,0,1-.29.19.91.91,0,0,1-.7,0,.9.9,0,0,1-.47-.47.91.91,0,0,1,0-.7.91.91,0,0,1,.19-.29,1.07,1.07,0,0,1,.28-.19A.85.85,0,0,1,153.2,22.15Zm0,4.3a.84.84,0,0,1,.35.07,1.15,1.15,0,0,1,.29.2A1,1,0,0,1,154,27a.81.81,0,0,1,.08.34.82.82,0,0,1-.08.35.92.92,0,0,1-.19.28.94.94,0,0,1-.29.2.91.91,0,0,1-.7,0,.9.9,0,0,1-.28-.2.77.77,0,0,1-.19-.28.81.81,0,0,1-.07-.35.8.8,0,0,1,.07-.34.81.81,0,0,1,.19-.29,1.1,1.1,0,0,1,.28-.2A.84.84,0,0,1,153.2,26.45Z" fill="#4f4f4f"/>
      <path d="M169.88,28.14h-1.14l-.53-1.67H165l-.54,1.67H163.4l2.54-7.66h1.43Zm-2-2.6-1.29-4.09-1.3,4.09Z" fill="#b31b1b"/>
      <path d="M175.29,28.14h-4.35V20.48h4.35v.88H172v2.38h3.19v.88H172v2.63h3.31Z" fill="#b31b1b"/>
      <path d="M181.62,28.14H176.8v-.95h2V21.6l-1.83,1-.38-.87L179,20.45h.9v6.74h1.72Z" fill="#b31b1b"/>
      <path d="M187.92,28.14h-5v-.91l2-2c.33-.32.59-.6.79-.83a5,5,0,0,0,.48-.64,2.23,2.23,0,0,0,.23-.55,2.47,2.47,0,0,0,.06-.56,1.84,1.84,0,0,0-.08-.53,1.22,1.22,0,0,0-.24-.45,1.09,1.09,0,0,0-.41-.31,1.5,1.5,0,0,0-.6-.11,1.74,1.74,0,0,0-.88.22,3,3,0,0,0-.74.56l-.56-.67a3.47,3.47,0,0,1,1-.74,3.05,3.05,0,0,1,1.32-.27,2.65,2.65,0,0,1,.92.15,2.07,2.07,0,0,1,.73.44,2,2,0,0,1,.47.7,2.54,2.54,0,0,1,.17.94,2.71,2.71,0,0,1-.12.82,3.54,3.54,0,0,1-.35.74,5.58,5.58,0,0,1-.6.77c-.24.27-.53.56-.86.88l-1.38,1.35h3.72Z" fill="#b31b1b"/>
      <path d="M194.23,26.22a1.85,1.85,0,0,1-.2.86,1.82,1.82,0,0,1-.56.64,2.71,2.71,0,0,1-.84.39,4.23,4.23,0,0,1-2.16,0,2.4,2.4,0,0,1-.8-.4,1.54,1.54,0,0,1-.49-.59,1.76,1.76,0,0,1-.16-.76,2,2,0,0,1,.39-1.22,3.44,3.44,0,0,1,1.21-.92,3.11,3.11,0,0,1-1.09-.85,1.76,1.76,0,0,1-.35-1.07,1.74,1.74,0,0,1,.15-.71,2,2,0,0,1,.46-.62,2.49,2.49,0,0,1,.77-.43,3.29,3.29,0,0,1,1.09-.16,4,4,0,0,1,1,.12,2.34,2.34,0,0,1,.76.37,1.44,1.44,0,0,1,.45.56,1.68,1.68,0,0,1,.16.75,1.75,1.75,0,0,1-.38,1.13,3,3,0,0,1-1.05.82,6.58,6.58,0,0,1,.63.38,2.53,2.53,0,0,1,.51.46,1.87,1.87,0,0,1,.34.56A1.92,1.92,0,0,1,194.23,26.22Zm-1.11.08a1.16,1.16,0,0,0-.07-.42,1.19,1.19,0,0,0-.25-.41,3.1,3.1,0,0,0-.49-.4,5.88,5.88,0,0,0-.77-.41,4.41,4.41,0,0,0-.67.39,1.88,1.88,0,0,0-.44.38,1.25,1.25,0,0,0-.31.86,1,1,0,0,0,.11.46,1,1,0,0,0,.32.34,1.19,1.19,0,0,0,.47.21,2.29,2.29,0,0,0,.6.08,2.8,2.8,0,0,0,.59-.07,1.34,1.34,0,0,0,.47-.2.85.85,0,0,0,.32-.33A.92.92,0,0,0,193.12,26.3Zm-.11-4a.89.89,0,0,0-.36-.78,1.8,1.8,0,0,0-1-.25,1.75,1.75,0,0,0-1,.25.85.85,0,0,0-.37.76,1,1,0,0,0,.09.42,1.14,1.14,0,0,0,.27.36,3.05,3.05,0,0,0,.46.34,6.73,6.73,0,0,0,.66.33,3.19,3.19,0,0,0,1-.65A1.06,1.06,0,0,0,193,22.26Z" fill="#b31b1b"/>
      <path d="M195.27,29.34a2.2,2.2,0,0,0,.58-.05,1.74,1.74,0,0,0,.5-.19,1,1,0,0,0,.34-.31.73.73,0,0,0,.13-.43.92.92,0,0,0-.08-.4,1.79,1.79,0,0,0-.2-.28,2.75,2.75,0,0,1-.19-.28.81.81,0,0,1-.08-.39.85.85,0,0,1,0-.26.72.72,0,0,1,.14-.24.58.58,0,0,1,.25-.18.75.75,0,0,1,.35-.07.92.92,0,0,1,.4.08,1,1,0,0,1,.33.26A1.41,1.41,0,0,1,198,27a1.94,1.94,0,0,1,.08.62,2.5,2.5,0,0,1-.18.94,2.08,2.08,0,0,1-.53.79,2.59,2.59,0,0,1-.88.55,3.39,3.39,0,0,1-1.24.21Z" fill="#b31b1b"/>
      <path d="M213.16,26.07a1.94,1.94,0,0,1-.23.95,1.86,1.86,0,0,1-.62.69,2.81,2.81,0,0,1-1,.4,5.2,5.2,0,0,1-1.23.14l-.61,0-.58,0c-.18,0-.36-.05-.52-.09L208,28V27a5.51,5.51,0,0,0,1,.25,6.73,6.73,0,0,0,1.25.1,4.27,4.27,0,0,0,.86-.08,1.54,1.54,0,0,0,.58-.24.81.81,0,0,0,.32-.37,1.19,1.19,0,0,0,.11-.51.79.79,0,0,0-.18-.53,1.61,1.61,0,0,0-.45-.4,4.24,4.24,0,0,0-.64-.31l-.74-.3c-.25-.1-.49-.21-.73-.33a3,3,0,0,1-.64-.42,2,2,0,0,1-.46-.57,1.73,1.73,0,0,1-.17-.78,2,2,0,0,1,.16-.78,1.9,1.9,0,0,1,.51-.67,2.6,2.6,0,0,1,.89-.48,4.1,4.1,0,0,1,1.29-.18,3.1,3.1,0,0,1,.42,0,3.8,3.8,0,0,1,.46.05l.46.07.41.09v.93a7.21,7.21,0,0,0-.9-.19,5.27,5.27,0,0,0-.87-.07,2.3,2.3,0,0,0-1.32.3.94.94,0,0,0-.42.8.89.89,0,0,0,.17.54,1.79,1.79,0,0,0,.46.39,3.18,3.18,0,0,0,.64.32l.73.3c.25.1.5.21.74.33a3.25,3.25,0,0,1,.64.43,1.85,1.85,0,0,1,.45.59A1.62,1.62,0,0,1,213.16,26.07Z" fill="#b31b1b"/>
      <path d="M219.61,28.14h-1.05V24.63h-3.21v3.51h-1V20.48h1v3.24h3.21V20.48h1.05Z" fill="#b31b1b"/>
      <path d="M226.89,28.14h-1.13l-.54-1.67H222l-.54,1.67h-1.09L223,20.48h1.42Zm-2-2.6-1.29-4.09-1.3,4.09Z" fill="#b31b1b"/>
      <path d="M232.7,28.14h-4.81v-.95h2V21.6l-1.84,1-.37-.87,2.43-1.28H231v6.74h1.71Z" fill="#b31b1b"/>
      <path d="M233.72,29.34a2.24,2.24,0,0,0,.58-.05,1.67,1.67,0,0,0,.49-.19,1.06,1.06,0,0,0,.35-.31.8.8,0,0,0,.13-.43.79.79,0,0,0-.09-.4,1.73,1.73,0,0,0-.19-.28,2.75,2.75,0,0,1-.19-.28.71.71,0,0,1-.08-.39.82.82,0,0,1,0-.26.61.61,0,0,1,.15-.24.55.55,0,0,1,.24-.18.8.8,0,0,1,.36-.07.88.88,0,0,1,.39.08.94.94,0,0,1,.34.26,1.4,1.4,0,0,1,.22.44,1.93,1.93,0,0,1,.09.62,2.5,2.5,0,0,1-.18.94,2.34,2.34,0,0,1-.53.79,2.64,2.64,0,0,1-.89.55,3.3,3.3,0,0,1-1.23.21Z" fill="#b31b1b"/>
      <path d="M251.93,24.23a5.87,5.87,0,0,1-.09,1.05,3.53,3.53,0,0,1-.27.94,3,3,0,0,1-.48.79,2.78,2.78,0,0,1-.74.61,3.93,3.93,0,0,1-1,.38,5.26,5.26,0,0,1-1.31.14H246.4V20.48h2a3.53,3.53,0,0,1,2.68.93A3.92,3.92,0,0,1,251.93,24.23Zm-1.1.07a5.35,5.35,0,0,0-.15-1.37,2.11,2.11,0,0,0-.46-.91,1.78,1.78,0,0,0-.78-.5,3.6,3.6,0,0,0-1.1-.16h-.9v5.88h.78Q250.83,27.24,250.83,24.3Z" fill="#b31b1b"/>
      <path d="M258.34,28.14h-1V24.63h-3.22v3.51h-1V20.48h1v3.24h3.22V20.48h1Z" fill="#b31b1b"/>
      <path d="M264.93,21.8a4.41,4.41,0,0,0-.88-.36,3.81,3.81,0,0,0-1-.12,2.68,2.68,0,0,0-1.09.21,2.3,2.3,0,0,0-.8.62,2.77,2.77,0,0,0-.5,1,4.3,4.3,0,0,0-.17,1.23,5.34,5.34,0,0,0,.14,1.26,2.64,2.64,0,0,0,.44.94,1.81,1.81,0,0,0,.77.59,2.68,2.68,0,0,0,1.11.21h.24l.26,0,.25-.05.21-.06V24.73h-1.56v-.86H265v3.92a4.29,4.29,0,0,1-.5.19,4.94,4.94,0,0,1-.55.15,5.25,5.25,0,0,1-.55.09l-.53,0a3.74,3.74,0,0,1-1.42-.25,2.76,2.76,0,0,1-1.07-.73,3.19,3.19,0,0,1-.68-1.2,5.3,5.3,0,0,1-.24-1.67,5.21,5.21,0,0,1,.26-1.69,3.72,3.72,0,0,1,.75-1.27,3.16,3.16,0,0,1,1.14-.79,3.94,3.94,0,0,1,1.48-.27,5.28,5.28,0,0,1,1,.09,4,4,0,0,1,.89.29Z" fill="#b31b1b"/>
      <path d="M266.7,22.26h.93l0,1.08a3.61,3.61,0,0,1,1-.9,2,2,0,0,1,1-.29,1.64,1.64,0,0,1,1.38.6,2.61,2.61,0,0,1,.44,1.75h-1a1.87,1.87,0,0,0-.23-1.12.82.82,0,0,0-.71-.35,1.19,1.19,0,0,0-.41.08,1.65,1.65,0,0,0-.43.23,5.27,5.27,0,0,0-.47.41c-.16.17-.33.38-.52.61v3.78h-1Z" fill="#b31b1b"/>
      <path d="M278.26,25.15a3.87,3.87,0,0,1-.2,1.26,2.84,2.84,0,0,1-.55,1,2.57,2.57,0,0,1-.89.63,3,3,0,0,1-1.18.23,3.17,3.17,0,0,1-1.14-.2,2.15,2.15,0,0,1-.84-.58,2.35,2.35,0,0,1-.54-.94,4.23,4.23,0,0,1-.18-1.29,3.77,3.77,0,0,1,.19-1.25,2.86,2.86,0,0,1,.56-1,2.45,2.45,0,0,1,.88-.63,3,3,0,0,1,1.19-.23,3.08,3.08,0,0,1,1.13.2,2.28,2.28,0,0,1,.85.57,2.58,2.58,0,0,1,.53.95A3.87,3.87,0,0,1,278.26,25.15Zm-1.05.05a3.38,3.38,0,0,0-.12-.95,1.89,1.89,0,0,0-.34-.68,1.44,1.44,0,0,0-.54-.41,1.8,1.8,0,0,0-.71-.14,1.51,1.51,0,0,0-1.32.66,2,2,0,0,0-.3.69,3.25,3.25,0,0,0-.1.83,3.5,3.5,0,0,0,.12,1,1.89,1.89,0,0,0,.34.68,1.44,1.44,0,0,0,.54.41,1.81,1.81,0,0,0,.72.14,1.61,1.61,0,0,0,.78-.18,1.53,1.53,0,0,0,.53-.48,2.17,2.17,0,0,0,.31-.69A3.86,3.86,0,0,0,277.21,25.2Z" fill="#b31b1b"/>
      <path d="M284.49,28.14h-.92l0-.95a3.52,3.52,0,0,1-1,.84,1.84,1.84,0,0,1-.48.17,2.57,2.57,0,0,1-.5.05,1.71,1.71,0,0,1-1.37-.54,2.38,2.38,0,0,1-.46-1.61V22.26h1V26c0,.9.34,1.36,1,1.36a1.19,1.19,0,0,0,.37-.06,1.63,1.63,0,0,0,.37-.19,3.43,3.43,0,0,0,.42-.38,7,7,0,0,0,.51-.59v-3.9h1Z" fill="#b31b1b"/>
      <path d="M291.37,25.1a3.82,3.82,0,0,1-.22,1.37,2.71,2.71,0,0,1-.6,1,2.53,2.53,0,0,1-.92.58,3.25,3.25,0,0,1-1.14.19,5.25,5.25,0,0,1-.56,0,3.89,3.89,0,0,1-.56-.1v2.46h-1V22.26h.9l.07,1a2.52,2.52,0,0,1,.94-.84,2.44,2.44,0,0,1,1.07-.25,1.73,1.73,0,0,1,.89.22,1.8,1.8,0,0,1,.64.59,2.71,2.71,0,0,1,.38.93A5,5,0,0,1,291.37,25.1Zm-1,0a4.5,4.5,0,0,0-.07-.85,2,2,0,0,0-.21-.66,1.14,1.14,0,0,0-.38-.43,1,1,0,0,0-.54-.16,1.34,1.34,0,0,0-.39.07,1.77,1.77,0,0,0-.42.2,3.5,3.5,0,0,0-.45.38,5.29,5.29,0,0,0-.5.59v2.85a3.4,3.4,0,0,0,.59.19,3.17,3.17,0,0,0,.61.07,1.6,1.6,0,0,0,1.29-.56A2.62,2.62,0,0,0,290.33,25.14Z" fill="#b31b1b"/>
      <path d="M297.31,28.14H292.5v-.95h2V21.6l-1.84,1-.37-.87,2.44-1.28h.9v6.74h1.71Z" fill="#b31b1b"/>
      <path d="M304,26.45h-1.31v1.69h-1V26.45h-3.69v-.9l3.26-5.07h1.47v5.07H304Zm-2.35-5L299,25.55h2.67Z" fill="#b31b1b"/>
    </g>
    <g>
      <path d="M122.59,36.67h-1.76v-.88h4.58v.88h-1.76v5.89h1.76v.89h-4.58v-.89h1.76Z" fill="#4f4f4f"/>
      <path d="M131.85,38.13a2.48,2.48,0,0,1-.18.93,2.21,2.21,0,0,1-.54.83,2.83,2.83,0,0,1-.94.58,3.58,3.58,0,0,1-1.37.23h-.95v2.75h-1.05V35.79H129a4.34,4.34,0,0,1,1.09.13,2.74,2.74,0,0,1,.92.4,2.13,2.13,0,0,1,.63.73A2.39,2.39,0,0,1,131.85,38.13Zm-1.08,0a1.35,1.35,0,0,0-.49-1.13,2.09,2.09,0,0,0-1.35-.39h-1.06v3.15h1a2.3,2.3,0,0,0,1.43-.4A1.5,1.5,0,0,0,130.77,38.18Z" fill="#4f4f4f"/>
      <path d="M138.09,41.37a2,2,0,0,1-.22,1,2,2,0,0,1-.62.68,3,3,0,0,1-1,.41,5.28,5.28,0,0,1-1.23.13c-.21,0-.41,0-.61,0s-.4,0-.58-.06l-.53-.08a4.13,4.13,0,0,1-.44-.1v-1a5.09,5.09,0,0,0,1,.26,7.67,7.67,0,0,0,1.24.09,3.59,3.59,0,0,0,.86-.08,1.63,1.63,0,0,0,.58-.23.92.92,0,0,0,.33-.38,1.19,1.19,0,0,0,.1-.51.88.88,0,0,0-.17-.53,2,2,0,0,0-.46-.39,3.82,3.82,0,0,0-.64-.32L135,39.9c-.25-.1-.5-.21-.74-.33a2.87,2.87,0,0,1-.64-.43,1.78,1.78,0,0,1-.45-.57,1.61,1.61,0,0,1-.18-.78,1.91,1.91,0,0,1,.17-.77,1.93,1.93,0,0,1,.51-.68,2.71,2.71,0,0,1,.88-.47,4.19,4.19,0,0,1,1.3-.19l.42,0,.45,0,.46.08.42.08v.94a7.26,7.26,0,0,0-.9-.2,6.73,6.73,0,0,0-.88-.06,2.34,2.34,0,0,0-1.32.3.92.92,0,0,0-.42.8.81.81,0,0,0,.18.53,1.61,1.61,0,0,0,.45.4,4.24,4.24,0,0,0,.64.32l.74.3c.25.1.49.21.73.33a2.66,2.66,0,0,1,.64.43,2.14,2.14,0,0,1,.46.58A1.8,1.8,0,0,1,138.09,41.37Z" fill="#4f4f4f"/>
      <path d="M144.58,40.2c0,.14,0,.26,0,.36a2.13,2.13,0,0,1,0,.27h-4.13a1.85,1.85,0,0,0,.5,1.39,2.06,2.06,0,0,0,1.46.48,4.35,4.35,0,0,0,.51,0l.5,0,.46-.08.41-.1v.84a7.08,7.08,0,0,1-.94.19,7.68,7.68,0,0,1-1.09.07,3.63,3.63,0,0,1-1.3-.2,2.26,2.26,0,0,1-.89-.6,2.31,2.31,0,0,1-.52-1,4.56,4.56,0,0,1-.17-1.28,3.79,3.79,0,0,1,.18-1.18,3.11,3.11,0,0,1,.52-1,2.54,2.54,0,0,1,2-.91,2.86,2.86,0,0,1,1.09.19,2.24,2.24,0,0,1,.8.55,2.42,2.42,0,0,1,.49.86A3.69,3.69,0,0,1,144.58,40.2Zm-1.07-.15a2.1,2.1,0,0,0-.07-.72,1.57,1.57,0,0,0-.29-.56,1.36,1.36,0,0,0-.49-.36,1.62,1.62,0,0,0-.68-.14,1.51,1.51,0,0,0-.61.13,1.4,1.4,0,0,0-.47.37,1.8,1.8,0,0,0-.33.56,2.71,2.71,0,0,0-.15.72Z" fill="#4f4f4f"/>
      <path d="M150.62,43.23a4.66,4.66,0,0,1-.81.23,4.94,4.94,0,0,1-.87.07,2.89,2.89,0,0,1-2.15-.76,3,3,0,0,1-.75-2.2,3.42,3.42,0,0,1,.22-1.27,2.76,2.76,0,0,1,1.54-1.6,3.38,3.38,0,0,1,1.21-.22,4.57,4.57,0,0,1,.85.07,3.16,3.16,0,0,1,.76.21v1a3.28,3.28,0,0,0-.77-.29,3.75,3.75,0,0,0-.82-.09,1.85,1.85,0,0,0-.74.15,1.74,1.74,0,0,0-.61.43,2,2,0,0,0-.42.69,2.59,2.59,0,0,0-.15.91,2.2,2.2,0,0,0,.52,1.6,1.91,1.91,0,0,0,1.43.53,3.1,3.1,0,0,0,.81-.1,3,3,0,0,0,.75-.28Z" fill="#4f4f4f"/>
      <path d="M153.81,37.46a.81.81,0,0,1,.35.07,1,1,0,0,1,.29.2,1,1,0,0,1,.19.29.81.81,0,0,1,.08.34.82.82,0,0,1-.08.35,1.12,1.12,0,0,1-.19.29,1,1,0,0,1-.29.19.81.81,0,0,1-.35.07.77.77,0,0,1-.34-.07,1,1,0,0,1-.29-.19,1.12,1.12,0,0,1-.19-.29.81.81,0,0,1-.07-.35A.8.8,0,0,1,153,38a1,1,0,0,1,.19-.29,1,1,0,0,1,.29-.2A.77.77,0,0,1,153.81,37.46Zm0,4.29a.82.82,0,0,1,.35.08,1,1,0,0,1,.29.19,1.12,1.12,0,0,1,.19.29.81.81,0,0,1,0,.7,1.07,1.07,0,0,1-.19.28.93.93,0,0,1-.64.26.77.77,0,0,1-.34-.07.81.81,0,0,1-.29-.19A1.07,1.07,0,0,1,153,43a.91.91,0,0,1,0-.7,1.12,1.12,0,0,1,.19-.29,1,1,0,0,1,.29-.19A.77.77,0,0,1,153.81,41.75Z" fill="#4f4f4f"/>
      <path d="M169.85,37.1a4.36,4.36,0,0,0-.88-.35,3.44,3.44,0,0,0-1-.13,2.48,2.48,0,0,0-1.08.22,2.19,2.19,0,0,0-.8.61,2.77,2.77,0,0,0-.5.95,4.3,4.3,0,0,0-.17,1.23,4.86,4.86,0,0,0,.14,1.26,2.53,2.53,0,0,0,.44,1,2,2,0,0,0,.76.59,2.73,2.73,0,0,0,1.12.2h.24l.26,0,.25-.05.21-.06V40h-1.56v-.86h2.59v3.91a3.86,3.86,0,0,1-.51.2,4.77,4.77,0,0,1-.54.15c-.19,0-.37.06-.55.08l-.54,0a3.93,3.93,0,0,1-1.41-.24,3,3,0,0,1-1.08-.73,3.22,3.22,0,0,1-.67-1.21,5.77,5.77,0,0,1,0-3.36,3.65,3.65,0,0,1,.74-1.26,3.08,3.08,0,0,1,1.15-.79,3.94,3.94,0,0,1,1.48-.28,4.46,4.46,0,0,1,1,.1,3.64,3.64,0,0,1,.9.29Z" fill="#b31b1b"/>
      <path d="M176.28,43.16a4.89,4.89,0,0,1-1.93.38,3.16,3.16,0,0,1-2.49-1A4.16,4.16,0,0,1,171,39.7a5.41,5.41,0,0,1,.24-1.66,3.62,3.62,0,0,1,.68-1.26A3,3,0,0,1,173,36a3.43,3.43,0,0,1,1.42-.28,5.06,5.06,0,0,1,1,.09,3.76,3.76,0,0,1,.88.28v1a4.2,4.2,0,0,0-.86-.35,3.74,3.74,0,0,0-1-.12,2.38,2.38,0,0,0-1,.2,2,2,0,0,0-.74.59,2.86,2.86,0,0,0-.47.94,4.43,4.43,0,0,0-.16,1.26,3.54,3.54,0,0,0,.6,2.24,2.11,2.11,0,0,0,1.77.76,4.1,4.1,0,0,0,.94-.11,5.33,5.33,0,0,0,.87-.32Z" fill="#b31b1b"/>
      <path d="M183.27,43.45h-1l-.15-4.78L182,36.84l-.36,1.07-1.13,3h-.72L178.75,38l-.36-1.18,0,1.91-.14,4.7h-1l.38-7.66h1.23l1,2.88.34,1,.32-1,1.08-2.88h1.27Z" fill="#b31b1b"/>
      <path d="M190.38,43.45h-1.14l-.53-1.67h-3.19L185,43.45h-1.09l2.55-7.66h1.43Zm-2-2.6-1.3-4.1-1.29,4.1Z" fill="#b31b1b"/>
      <path d="M195.79,43.45h-4.35V35.79h4.35v.88h-3.31V39h3.18v.88h-3.18v2.64h3.31Z" fill="#b31b1b"/>
      <path d="M202.29,41.37a2,2,0,0,1-.23,1,1.92,1.92,0,0,1-.62.68,2.81,2.81,0,0,1-1,.41,5.22,5.22,0,0,1-1.23.13c-.2,0-.41,0-.61,0s-.39,0-.58-.06l-.52-.08-.45-.1v-1a5.5,5.5,0,0,0,1,.26,7.8,7.8,0,0,0,1.25.09,3.51,3.51,0,0,0,.85-.08,1.63,1.63,0,0,0,.58-.23.86.86,0,0,0,.33-.38,1.19,1.19,0,0,0,.11-.51.83.83,0,0,0-.18-.53,1.76,1.76,0,0,0-.45-.39,4.24,4.24,0,0,0-.64-.32l-.74-.29c-.25-.1-.49-.21-.73-.33a2.93,2.93,0,0,1-.65-.43,2.1,2.1,0,0,1-.45-.57,1.73,1.73,0,0,1-.17-.78,1.9,1.9,0,0,1,.16-.77,1.93,1.93,0,0,1,.51-.68,2.77,2.77,0,0,1,.89-.47,4.08,4.08,0,0,1,1.29-.19l.42,0,.46,0,.45.08.42.08v.94a7.26,7.26,0,0,0-.9-.2,6.58,6.58,0,0,0-.87-.06,2.3,2.3,0,0,0-1.32.3.92.92,0,0,0-.42.8.8.8,0,0,0,.17.53,2,2,0,0,0,.45.4,4.37,4.37,0,0,0,.65.32l.73.3c.25.1.5.21.74.33a2.87,2.87,0,0,1,.64.43,1.93,1.93,0,0,1,.45.58A1.67,1.67,0,0,1,202.29,41.37Z" fill="#b31b1b"/>
      <path d="M208.32,43.45h-4.81v-1h2V36.91l-1.84,1-.37-.87,2.44-1.29h.9V42.5h1.71Z" fill="#b31b1b"/>
      <path d="M214.62,43.45h-5v-.92l2-2c.32-.32.58-.6.79-.84a3.83,3.83,0,0,0,.47-.64,1.7,1.7,0,0,0,.23-.55,2.38,2.38,0,0,0,.06-.55,1.91,1.91,0,0,0-.08-.54,1.37,1.37,0,0,0-.23-.45,1,1,0,0,0-.41-.3,1.4,1.4,0,0,0-.6-.11,1.89,1.89,0,0,0-.89.21,3.06,3.06,0,0,0-.73.57l-.56-.68a3.39,3.39,0,0,1,1-.73,3.05,3.05,0,0,1,1.32-.28,2.75,2.75,0,0,1,.93.16,1.89,1.89,0,0,1,.72.44,1.8,1.8,0,0,1,.47.7,2.35,2.35,0,0,1,.17.94,2.64,2.64,0,0,1-.12.81,2.81,2.81,0,0,1-.35.75,6.25,6.25,0,0,1-.6.77c-.24.26-.52.56-.85.87l-1.39,1.36h3.72Z" fill="#b31b1b"/>
      <path d="M220.93,41.53a1.85,1.85,0,0,1-.2.86,1.89,1.89,0,0,1-.56.64,2.51,2.51,0,0,1-.84.39,3.87,3.87,0,0,1-1.05.13,3.74,3.74,0,0,1-1.11-.14,2.3,2.3,0,0,1-.8-.39,1.72,1.72,0,0,1-.65-1.36,1.93,1.93,0,0,1,.39-1.21,3.62,3.62,0,0,1,1.22-.93,3,3,0,0,1-1.1-.84,1.75,1.75,0,0,1-.34-1.07,1.79,1.79,0,0,1,.15-.72,1.67,1.67,0,0,1,.46-.61,2.12,2.12,0,0,1,.77-.43,3.24,3.24,0,0,1,1.09-.17,4,4,0,0,1,1,.13,2,2,0,0,1,.75.36,1.57,1.57,0,0,1,.46.57,1.78,1.78,0,0,1,.15.74,1.75,1.75,0,0,1-.37,1.14,3.14,3.14,0,0,1-1.06.82,3.9,3.9,0,0,1,.63.38,2.22,2.22,0,0,1,.51.45,1.91,1.91,0,0,1,.34.56A1.94,1.94,0,0,1,220.93,41.53Zm-1.11.07a1.23,1.23,0,0,0-.07-.42,1,1,0,0,0-.25-.4,2.06,2.06,0,0,0-.49-.4,5.88,5.88,0,0,0-.77-.41,5,5,0,0,0-.67.38,2.48,2.48,0,0,0-.44.39,1.23,1.23,0,0,0-.24.41,1.56,1.56,0,0,0-.07.44.91.91,0,0,0,.12.47,1,1,0,0,0,.31.34,1.51,1.51,0,0,0,.48.21,2.22,2.22,0,0,0,.59.07,2.74,2.74,0,0,0,.59-.06,1.73,1.73,0,0,0,.48-.2,1.12,1.12,0,0,0,.32-.33A1.07,1.07,0,0,0,219.82,41.6Zm-.1-4a.88.88,0,0,0-.37-.78,2.15,2.15,0,0,0-2,0,.86.86,0,0,0-.37.75A1,1,0,0,0,217,38a1.29,1.29,0,0,0,.27.37,3.66,3.66,0,0,0,.46.33c.19.11.41.22.66.34a3.6,3.6,0,0,0,1-.65A1.13,1.13,0,0,0,219.72,37.57Z" fill="#b31b1b"/>
      <path d="M222,44.65a2.24,2.24,0,0,0,.58,0,2,2,0,0,0,.49-.19,1.08,1.08,0,0,0,.35-.32.74.74,0,0,0,.12-.42.77.77,0,0,0-.08-.4,2,2,0,0,0-.19-.28,2.75,2.75,0,0,1-.19-.28.75.75,0,0,1-.09-.39.85.85,0,0,1,.05-.26.89.89,0,0,1,.14-.25.94.94,0,0,1,.25-.18.78.78,0,0,1,.35-.07.93.93,0,0,1,.4.09.75.75,0,0,1,.33.26,1.08,1.08,0,0,1,.23.44,1.89,1.89,0,0,1,.09.62,2.48,2.48,0,0,1-.18.93,2.38,2.38,0,0,1-.53.8,2.74,2.74,0,0,1-.89.55,3.52,3.52,0,0,1-1.23.2Z" fill="#b31b1b"/>
      <path d="M240,38.13a2.69,2.69,0,0,1-.17.93,2.36,2.36,0,0,1-.55.83,2.83,2.83,0,0,1-.94.58,3.58,3.58,0,0,1-1.37.23H236v2.75h-1.05V35.79h2.16a4.34,4.34,0,0,1,1.09.13,2.74,2.74,0,0,1,.92.4,2.13,2.13,0,0,1,.63.73A2.39,2.39,0,0,1,240,38.13Zm-1.08,0a1.35,1.35,0,0,0-.49-1.13,2.09,2.09,0,0,0-1.35-.39H236v3.15h1a2.3,2.3,0,0,0,1.43-.4A1.5,1.5,0,0,0,238.89,38.18Z" fill="#b31b1b"/>
      <path d="M245.66,36.68h-3.25v2.49h3.08V40h-3.08v3.41h-1.07V35.79h4.32Z" fill="#b31b1b"/>
      <path d="M252,41.37a2,2,0,0,1-.22,1,1.92,1.92,0,0,1-.62.68,3,3,0,0,1-1,.41,5.22,5.22,0,0,1-1.23.13c-.21,0-.41,0-.61,0s-.39,0-.58-.06l-.52-.08a3.83,3.83,0,0,1-.45-.1v-1a5.09,5.09,0,0,0,1,.26,7.67,7.67,0,0,0,1.24.09,3.54,3.54,0,0,0,.86-.08,1.63,1.63,0,0,0,.58-.23.92.92,0,0,0,.33-.38,1.19,1.19,0,0,0,.1-.51.82.82,0,0,0-.17-.53,2,2,0,0,0-.45-.39,3.94,3.94,0,0,0-.65-.32l-.73-.29c-.25-.1-.5-.21-.74-.33a2.87,2.87,0,0,1-.64-.43,1.78,1.78,0,0,1-.45-.57,1.6,1.6,0,0,1-.17-.78,1.9,1.9,0,0,1,.16-.77,1.93,1.93,0,0,1,.51-.68,2.77,2.77,0,0,1,.89-.47,4.08,4.08,0,0,1,1.29-.19l.42,0,.46,0,.45.08.42.08v.94a7.26,7.26,0,0,0-.9-.2,6.58,6.58,0,0,0-.87-.06,2.3,2.3,0,0,0-1.32.3.92.92,0,0,0-.42.8.8.8,0,0,0,.17.53,1.61,1.61,0,0,0,.45.4,4.24,4.24,0,0,0,.64.32l.74.3c.25.1.49.21.73.33a2.93,2.93,0,0,1,.65.43,2.11,2.11,0,0,1,.45.58A1.67,1.67,0,0,1,252,41.37Z" fill="#b31b1b"/>
      <path d="M258,43.45h-4.81v-1h2V36.91l-1.83,1L253,37l2.43-1.29h.91V42.5H258Z" fill="#b31b1b"/>
      <path d="M264.69,41.75h-1.31v1.7h-1v-1.7h-3.68v-.89l3.26-5.07h1.46v5.07h1.31Zm-2.35-5-2.66,4.09h2.66Z" fill="#b31b1b"/>
    </g>
    <g>
      <path d="M313.42,105.05l-3.11,8.4h-1.08l-3.05-8.4h1.09l2.33,6.66a4.27,4.27,0,0,1,.17.74h0a4.21,4.21,0,0,1,.2-.75l2.37-6.65Z" fill="#1e1e1e"/>
      <path d="M315.56,110.27v3.18h-1v-8.4h2.31a3.08,3.08,0,0,1,2.09.65,2.37,2.37,0,0,1,.74,1.86,2.54,2.54,0,0,1-.82,2,3.13,3.13,0,0,1-2.22.76Zm0-4.33v3.44h1a2.28,2.28,0,0,0,1.55-.46,1.65,1.65,0,0,0,.54-1.32c0-1.11-.66-1.66-2-1.66Z" fill="#1e1e1e"/>
      <path d="M327.83,113.45h-1.21l-4.33-6.7a3.6,3.6,0,0,1-.26-.52h0a8.49,8.49,0,0,1,.05,1.15v6.07h-1v-8.4h1.28l4.21,6.59c.17.27.29.46.34.56h0a8.58,8.58,0,0,1-.06-1.23v-5.92h1Z" fill="#1e1e1e"/>
      <path d="M301.14,127.85v-8.4h2.32q4.44,0,4.44,4.09a4.14,4.14,0,0,1-1.23,3.13,4.59,4.59,0,0,1-3.3,1.18Zm1-7.51V127h1.26a3.55,3.55,0,0,0,2.57-.89,3.31,3.31,0,0,0,.92-2.5c0-2.16-1.15-3.23-3.43-3.23Z" fill="#1e1e1e"/>
      <path d="M314.23,125.09H310a2.21,2.21,0,0,0,.54,1.55,1.85,1.85,0,0,0,1.41.54,2.94,2.94,0,0,0,1.87-.67v.91a3.53,3.53,0,0,1-2.1.57,2.51,2.51,0,0,1-2-.82,3.83,3.83,0,0,1,.06-4.58,2.55,2.55,0,0,1,2-.88,2.25,2.25,0,0,1,1.82.76,3.18,3.18,0,0,1,.64,2.12Zm-1-.81a2,2,0,0,0-.4-1.3,1.37,1.37,0,0,0-1.1-.46,1.57,1.57,0,0,0-1.16.48,2.24,2.24,0,0,0-.58,1.28Z" fill="#1e1e1e"/>
      <path d="M320.36,121.85l-2.39,6H317l-2.28-6h1.06l1.52,4.36a4.27,4.27,0,0,1,.21.84h0a3.81,3.81,0,0,1,.18-.82l1.6-4.38Z" fill="#1e1e1e"/>
      <path d="M321.92,120.33a.63.63,0,0,1,0-1.25.61.61,0,0,1,.45.18.58.58,0,0,1,.19.45.56.56,0,0,1-.19.43A.58.58,0,0,1,321.92,120.33Zm.47,7.52h-1v-6h1Z" fill="#1e1e1e"/>
      <path d="M328.33,127.57a3.1,3.1,0,0,1-1.64.42,2.72,2.72,0,0,1-2.07-.83,3,3,0,0,1-.79-2.17,3.3,3.3,0,0,1,.85-2.38,3,3,0,0,1,2.27-.9,3.23,3.23,0,0,1,1.39.29v1a2.4,2.4,0,0,0-1.43-.47,1.93,1.93,0,0,0-1.51.66,2.5,2.5,0,0,0-.59,1.73,2.36,2.36,0,0,0,.56,1.66,1.89,1.89,0,0,0,1.48.61,2.39,2.39,0,0,0,1.48-.52Z" fill="#1e1e1e"/>
      <path d="M334.48,125.09h-4.23a2.21,2.21,0,0,0,.54,1.55,1.85,1.85,0,0,0,1.41.54,2.94,2.94,0,0,0,1.87-.67v.91A3.52,3.52,0,0,1,332,128a2.52,2.52,0,0,1-2-.82,3.83,3.83,0,0,1,.06-4.58,2.55,2.55,0,0,1,2-.88,2.25,2.25,0,0,1,1.82.76,3.18,3.18,0,0,1,.64,2.12Zm-1-.81a2,2,0,0,0-.4-1.3,1.37,1.37,0,0,0-1.1-.46,1.59,1.59,0,0,0-1.16.48,2.24,2.24,0,0,0-.58,1.28Z" fill="#1e1e1e"/>
    </g>
    <g>
      <path d="M123,7V10.2h-1V1.8h2.31a3.06,3.06,0,0,1,2.09.66,2.34,2.34,0,0,1,.74,1.85,2.53,2.53,0,0,1-.83,2,3.14,3.14,0,0,1-2.22.77Zm0-4.34V6.13h1a2.32,2.32,0,0,0,1.56-.46,1.65,1.65,0,0,0,.54-1.32c0-1.11-.66-1.66-2-1.66Z" fill="#1e1e1e"/>
      <path d="M130.9,10.34a2.77,2.77,0,0,1-2.12-.84,3.11,3.11,0,0,1-.8-2.23,3.25,3.25,0,0,1,.83-2.36A3,3,0,0,1,131,4.06a2.71,2.71,0,0,1,2.1.83,3.27,3.27,0,0,1,.75,2.29,3.25,3.25,0,0,1-.81,2.3A2.87,2.87,0,0,1,130.9,10.34ZM131,4.87a1.81,1.81,0,0,0-1.46.63A2.59,2.59,0,0,0,129,7.24a2.46,2.46,0,0,0,.54,1.68,1.86,1.86,0,0,0,1.46.61,1.75,1.75,0,0,0,1.43-.6,2.58,2.58,0,0,0,.51-1.72,2.61,2.61,0,0,0-.51-1.73A1.73,1.73,0,0,0,131,4.87Z" fill="#1e1e1e"/>
      <path d="M136.33,10.2h-1V1.32h1Z" fill="#1e1e1e"/>
      <path d="M138.64,2.68a.6.6,0,0,1-.44-.18.59.59,0,0,1-.18-.44.61.61,0,0,1,.18-.45.6.6,0,0,1,.44-.18.64.64,0,0,1,.45.18.61.61,0,0,1,.18.45.6.6,0,0,1-.18.44A.64.64,0,0,1,138.64,2.68Zm.47,7.52h-1v-6h1Z" fill="#1e1e1e"/>
      <path d="M145,9.93a3.19,3.19,0,0,1-1.64.41,2.75,2.75,0,0,1-2.07-.83,3,3,0,0,1-.79-2.17A3.35,3.35,0,0,1,141.39,5a3,3,0,0,1,2.27-.9,3.2,3.2,0,0,1,1.39.29v1a2.45,2.45,0,0,0-1.43-.47,1.91,1.91,0,0,0-1.5.66,2.46,2.46,0,0,0-.59,1.73,2.36,2.36,0,0,0,.55,1.66,1.89,1.89,0,0,0,1.49.61A2.38,2.38,0,0,0,145,9Z" fill="#1e1e1e"/>
      <path d="M151.53,4.2l-2.76,7c-.49,1.24-1.19,1.87-2.08,1.87a2.17,2.17,0,0,1-.62-.08v-.86a1.71,1.71,0,0,0,.57.1,1.19,1.19,0,0,0,1.09-.86l.48-1.14-2.35-6h1.07l1.62,4.62c0,.06.06.21.12.46h0q0-.15.12-.45l1.7-4.63Z" fill="#1e1e1e"/>
    </g>
    <g>
      <path d="M172.4,108.11V107a2.5,2.5,0,0,0,.48.32,3.8,3.8,0,0,0,.59.23,3.39,3.39,0,0,0,.61.15,3.09,3.09,0,0,0,.58.06,2.25,2.25,0,0,0,1.35-.34,1.15,1.15,0,0,0,.45-1,1.13,1.13,0,0,0-.15-.59,1.6,1.6,0,0,0-.41-.46,4.43,4.43,0,0,0-.62-.4l-.78-.4c-.29-.15-.57-.3-.82-.45a3.85,3.85,0,0,1-.66-.51,1.95,1.95,0,0,1-.61-1.44,1.93,1.93,0,0,1,.26-1,2.1,2.1,0,0,1,.66-.7,3,3,0,0,1,.93-.41,4.29,4.29,0,0,1,1.07-.13,4.08,4.08,0,0,1,1.81.3v1.1a3.29,3.29,0,0,0-1.91-.51,3.47,3.47,0,0,0-.64.06,2,2,0,0,0-.58.22,1.56,1.56,0,0,0-.41.4,1.06,1.06,0,0,0-.15.58,1.22,1.22,0,0,0,.12.56,1.28,1.28,0,0,0,.35.43,3.75,3.75,0,0,0,.57.37c.23.12.48.26.78.4s.58.31.85.47a4,4,0,0,1,.71.54,2.27,2.27,0,0,1,.49.67,2,2,0,0,1,.17.83,2.14,2.14,0,0,1-.24,1,1.93,1.93,0,0,1-.66.7,2.8,2.8,0,0,1-1,.39,5.22,5.22,0,0,1-1.13.12l-.5,0a4.28,4.28,0,0,1-.59-.1,4.45,4.45,0,0,1-.58-.15A2,2,0,0,1,172.4,108.11Z" fill="#1e1e1e"/>
      <path d="M179.36,100.93a.61.61,0,0,1-.62-.62.61.61,0,0,1,.18-.45.6.6,0,0,1,.44-.18.61.61,0,0,1,.45.18.62.62,0,0,1,.19.45.59.59,0,0,1-.19.43A.58.58,0,0,1,179.36,100.93Zm.47,7.52h-1v-6h1Z" fill="#1e1e1e"/>
      <path d="M184.51,108.39a1.8,1.8,0,0,1-.9.19c-1.05,0-1.57-.59-1.57-1.76v-3.55h-1v-.82h1V101l1-.31v1.78h1.51v.82H183v3.38a1.45,1.45,0,0,0,.2.86.84.84,0,0,0,.68.26,1,1,0,0,0,.63-.2Z" fill="#1e1e1e"/>
      <path d="M190.51,105.69h-4.23a2.21,2.21,0,0,0,.54,1.55,1.85,1.85,0,0,0,1.42.54,2.93,2.93,0,0,0,1.86-.67V108a3.52,3.52,0,0,1-2.09.57,2.52,2.52,0,0,1-2-.82,3.81,3.81,0,0,1,.07-4.58,2.53,2.53,0,0,1,2-.88,2.25,2.25,0,0,1,1.82.76,3.18,3.18,0,0,1,.64,2.12Zm-1-.81a2,2,0,0,0-.4-1.3,1.36,1.36,0,0,0-1.1-.46,1.55,1.55,0,0,0-1.15.48,2.19,2.19,0,0,0-.59,1.28Z" fill="#1e1e1e"/>
      <path d="M195.11,105.48h-3.2v-.75h3.2Z" fill="#1e1e1e"/>
      <path d="M199.38,108.39a1.82,1.82,0,0,1-.9.19c-1,0-1.58-.59-1.58-1.76v-3.55h-1v-.82h1V101l1-.31v1.78h1.52v.82h-1.52v3.38a1.37,1.37,0,0,0,.21.86.83.83,0,0,0,.68.26,1.05,1.05,0,0,0,.63-.2Z" fill="#1e1e1e"/>
      <path d="M203,108.59a2.79,2.79,0,0,1-2.12-.84,3.1,3.1,0,0,1-.79-2.23,3.24,3.24,0,0,1,.82-2.36,3,3,0,0,1,2.23-.85,2.66,2.66,0,0,1,2.1.83,3.77,3.77,0,0,1-.06,4.59A2.87,2.87,0,0,1,203,108.59Zm.07-5.47a1.83,1.83,0,0,0-1.46.63,2.58,2.58,0,0,0-.54,1.73,2.47,2.47,0,0,0,.54,1.69,1.86,1.86,0,0,0,1.46.61,1.79,1.79,0,0,0,1.44-.6,3.23,3.23,0,0,0,0-3.45A1.76,1.76,0,0,0,203.1,103.12Z" fill="#1e1e1e"/>
      <path d="M210.66,105.48h-3.2v-.75h3.2Z" fill="#1e1e1e"/>
      <path d="M211.79,108.11V107a2.42,2.42,0,0,0,.47.32,4.24,4.24,0,0,0,.59.23,3.5,3.5,0,0,0,.62.15,3.07,3.07,0,0,0,.57.06,2.29,2.29,0,0,0,1.36-.34,1.15,1.15,0,0,0,.45-1,1.13,1.13,0,0,0-.15-.59,1.76,1.76,0,0,0-.41-.46,4.57,4.57,0,0,0-.63-.4l-.78-.4-.82-.45a3.85,3.85,0,0,1-.66-.51A2.06,2.06,0,0,1,212,103a1.91,1.91,0,0,1-.16-.82,1.93,1.93,0,0,1,.25-1,2.32,2.32,0,0,1,.66-.7,3.19,3.19,0,0,1,.94-.41,4.24,4.24,0,0,1,1.07-.13,4.11,4.11,0,0,1,1.81.3v1.1a3.33,3.33,0,0,0-1.91-.51,3.57,3.57,0,0,0-.65.06,2,2,0,0,0-.57.22,1.31,1.31,0,0,0-.41.4,1,1,0,0,0-.16.58,1.22,1.22,0,0,0,.12.56,1.41,1.41,0,0,0,.35.43,3.42,3.42,0,0,0,.58.37c.22.12.48.26.77.4s.59.31.86.47a4.41,4.41,0,0,1,.71.54,2.42,2.42,0,0,1,.48.67,1.84,1.84,0,0,1,.18.83,2.14,2.14,0,0,1-.24,1,2.11,2.11,0,0,1-.66.7,2.88,2.88,0,0,1-.95.39,5.24,5.24,0,0,1-1.14.12l-.49,0a4.17,4.17,0,0,1-.6-.1,5.47,5.47,0,0,1-.58-.15A1.93,1.93,0,0,1,211.79,108.11Z" fill="#1e1e1e"/>
      <path d="M218.75,100.93a.61.61,0,0,1-.62-.62.61.61,0,0,1,.18-.45.6.6,0,0,1,.44-.18.64.64,0,0,1,.45.18.61.61,0,0,1,.18.45.58.58,0,0,1-.18.43A.61.61,0,0,1,218.75,100.93Zm.47,7.52h-1v-6h1Z" fill="#1e1e1e"/>
      <path d="M223.9,108.39a1.82,1.82,0,0,1-.9.19c-1.05,0-1.58-.59-1.58-1.76v-3.55h-1v-.82h1V101l1-.31v1.78h1.52v.82h-1.52v3.38a1.37,1.37,0,0,0,.21.86.83.83,0,0,0,.68.26,1.05,1.05,0,0,0,.63-.2Z" fill="#1e1e1e"/>
      <path d="M229.9,105.69h-4.24a2.3,2.3,0,0,0,.54,1.55,1.88,1.88,0,0,0,1.42.54,2.89,2.89,0,0,0,1.86-.67V108a3.47,3.47,0,0,1-2.09.57,2.53,2.53,0,0,1-2-.82,3.35,3.35,0,0,1-.72-2.3,3.28,3.28,0,0,1,.79-2.28,2.54,2.54,0,0,1,2-.88,2.22,2.22,0,0,1,1.82.76,3.18,3.18,0,0,1,.65,2.12Zm-1-.81a2,2,0,0,0-.41-1.3,1.35,1.35,0,0,0-1.09-.46,1.57,1.57,0,0,0-1.16.48,2.25,2.25,0,0,0-.59,1.28Z" fill="#1e1e1e"/>
      <path d="M241,100.05l-3.11,8.4h-1.08l-3-8.4h1.1l2.32,6.66a3,3,0,0,1,.17.74h0a3.44,3.44,0,0,1,.19-.75l2.37-6.65Z" fill="#1e1e1e"/>
      <path d="M243.15,105.27v3.18h-1v-8.4h2.3a3.08,3.08,0,0,1,2.09.65,2.34,2.34,0,0,1,.74,1.86,2.54,2.54,0,0,1-.82,2,3.13,3.13,0,0,1-2.22.76Zm0-4.33v3.44h1a2.32,2.32,0,0,0,1.56-.46,1.67,1.67,0,0,0,.53-1.32c0-1.11-.65-1.66-2-1.66Z" fill="#1e1e1e"/>
      <path d="M255.42,108.45h-1.21l-4.32-6.7a2.86,2.86,0,0,1-.27-.52h0a8.49,8.49,0,0,1,0,1.15v6.07h-1v-8.4h1.27l4.21,6.59a5.88,5.88,0,0,1,.34.56h0a8.58,8.58,0,0,1-.06-1.23v-5.92h1Z" fill="#1e1e1e"/>
    </g>
  </g>
</svg>
