<svg xmlns="http://www.w3.org/2000/svg" xmlns:xlink="http://www.w3.org/1999/xlink" viewBox="0 0 429.07 94.53">
  <defs>
    <linearGradient id="linear-gradient" x1="214.11" y1="53.79" x2="214.11" y2="37.79" gradientUnits="userSpaceOnUse">
      <stop offset="0" stop-color="#1989b2"/>
      <stop offset="1" stop-color="#50c7e8"/>
    </linearGradient>
    <linearGradient id="linear-gradient-2" x1="175.74" y1="49.77" x2="183.72" y2="41.8" gradientUnits="userSpaceOnUse">
      <stop offset="0" stop-color="#b3b3b3"/>
      <stop offset="1" stop-color="#4f4f4f"/>
    </linearGradient>
    <linearGradient id="linear-gradient-3" x1="109.46" y1="435.11" x2="110.22" y2="394.89" gradientTransform="matrix(1, 0, 0, -1, 0, 456.64)" gradientUnits="userSpaceOnUse">
      <stop offset="0.22" stop-color="#32d4f5"/>
      <stop offset="0.47" stop-color="#31d1f3"/>
      <stop offset="0.63" stop-color="#2ec9eb"/>
      <stop offset="0.77" stop-color="#29bade"/>
      <stop offset="0.89" stop-color="#22a5cb"/>
      <stop offset="1" stop-color="#198ab3"/>
    </linearGradient>
    <linearGradient id="linear-gradient-4" x1="13.76" y1="456.47" x2="13.76" y2="428.96" gradientTransform="matrix(1, 0, 0, -1, 0, 456.64)" gradientUnits="userSpaceOnUse">
      <stop offset="0.18" stop-color="#5ea0ef"/>
      <stop offset="1" stop-color="#0078d4"/>
    </linearGradient>
    <linearGradient id="linear-gradient-5" x1="315.2" y1="435.11" x2="315.96" y2="394.89" xlink:href="#linear-gradient-3"/>
    <linearGradient id="linear-gradient-6" x1="415.3" y1="456.47" x2="415.3" y2="428.96" xlink:href="#linear-gradient-4"/>
  </defs>
  <g id="Shapes">
    <rect width="429.07" height="94.53" fill="#fff"/>
    <g>
      <line x1="299.44" y1="45.79" x2="245.99" y2="45.79" fill="none" stroke="#3c3c41" stroke-miterlimit="10"/>
      <polygon points="298.35 42.05 304.83 45.79 298.35 49.53 298.35 42.05" fill="#3c3c41"/>
    </g>
    <g>
      <path d="M249,37.79H179.73c-2.43,0-4.34,3.51-4.34,8s1.91,8,4.34,8H249c2.13,0,3.85-3.85,3.85-8S251.1,37.79,249,37.79Z" fill="url(#linear-gradient)"/>
      <ellipse cx="179.73" cy="45.79" rx="3.64" ry="7.1" fill="url(#linear-gradient-2)"/>
    </g>
    <g>
      <rect x="13.31" y="12.43" width="97" height="66.72" fill="#fff"/>
      <rect x="13.31" y="12.43" width="97" height="66.72" fill="#0072c6" opacity="0.08"/>
    </g>
    <g>
      <path d="M118.81,45.31h-1.39V40.87a8.36,8.36,0,0,0-2.16-5.67,6.86,6.86,0,0,0-5.33-2.41,7,7,0,0,0-5.34,2.41,8.21,8.21,0,0,0-2.17,5.67v4.44h-1.16a1,1,0,0,0-1,1V57.79a1,1,0,0,0,1,1h17.55a1.05,1.05,0,0,0,1-1V46.31A1,1,0,0,0,118.81,45.31Zm-4.86,0h-8V40.73a4.56,4.56,0,0,1,1.24-3,3.69,3.69,0,0,1,2.74-1.26,3.63,3.63,0,0,1,2.72,1.26,4.81,4.81,0,0,1,.47.62h0a4.26,4.26,0,0,1,.87,2.48Z" fill="url(#linear-gradient-3)"/>
      <path d="M118.85,45.31H101.29a1,1,0,0,0-.66.25l18.86,13.06a1,1,0,0,0,.36-.76V46.32A1,1,0,0,0,118.85,45.31Z" fill="#50e6ff"/>
      <path d="M101.3,45.31h17.57a1.09,1.09,0,0,1,.64.25L100.66,58.62a1,1,0,0,1-.37-.76V46.32A1,1,0,0,1,101.3,45.31Z" fill="#fff" opacity="0.2" style="isolation: isolate"/>
      <path d="M108.33,48.09l1.72-1.72a.1.1,0,0,1,.14,0l1.71,1.72a.1.1,0,0,1,0,.13l0,0h-1.08a.09.09,0,0,0-.09.09h0v2.3h-1.16v-2.3a.1.1,0,0,0-.1-.09h-1.08a.11.11,0,0,1-.09-.1S108.31,48.11,108.33,48.09ZM111.89,56l-1.71,1.72a.1.1,0,0,1-.14,0L108.33,56v-.14h1a.09.09,0,0,0,.09-.09h0V53.55a.07.07,0,0,1,0-.09h1.08a.07.07,0,0,1,0,.09v2.23a.09.09,0,0,0,.09.09h1C111.9,55.87,112,56,111.89,56Zm-6.79-2.23v-1a.09.09,0,0,0-.09-.09h-2.23a.17.17,0,0,1,0-.1V51.52a.17.17,0,0,1,0-.1H105a.07.07,0,0,0,.09,0V50.37a.11.11,0,0,1,.13,0l0,0L107,52m0,.12-1.74,1.73a.09.09,0,0,1-.13,0s0,0,0,0Zm8.11-1.74v1a.08.08,0,0,0,.09,0h2.23a.1.1,0,0,1,.08.1v1.06a.1.1,0,0,1-.08.1H115.2a.09.09,0,0,0-.09.09h0v1a.09.09,0,0,1-.13,0l0,0L113.23,52a.09.09,0,0,1,0-.12L115,50.17a.12.12,0,0,1,.17,0A.12.12,0,0,1,115.11,50.37Z" fill="#fff"/>
    </g>
    <path d="M27.53,17.05A6.27,6.27,0,0,0,22.16,11a7.9,7.9,0,0,0-8-7.65A8.08,8.08,0,0,0,6.46,8.67,7.44,7.44,0,0,0,0,15.94a7.66,7.66,0,0,0,7.76,7.38H21.35A6.35,6.35,0,0,0,27.53,17.05Z" fill="url(#linear-gradient-4)"/>
    <g>
      <rect x="315.79" y="12.43" width="100" height="66.72" fill="#fff"/>
      <rect x="315.79" y="12.43" width="100" height="66.72" fill="#0072c6" opacity="0.08"/>
    </g>
    <g>
      <path d="M324.55,45.31h-1.39V40.87A8.41,8.41,0,0,0,321,35.2a6.86,6.86,0,0,0-5.33-2.41,7,7,0,0,0-5.35,2.41,8.25,8.25,0,0,0-2.16,5.67v4.44H307a1,1,0,0,0-1,1V57.79a1,1,0,0,0,1,1h17.56a1,1,0,0,0,1-1V46.31A1,1,0,0,0,324.55,45.31Zm-4.86,0h-8V40.73a4.56,4.56,0,0,1,1.24-3,3.69,3.69,0,0,1,2.74-1.26,3.59,3.59,0,0,1,2.71,1.26,4.11,4.11,0,0,1,.48.62h0a4.26,4.26,0,0,1,.87,2.48Z" fill="url(#linear-gradient-5)"/>
      <path d="M324.59,45.31H307a1,1,0,0,0-.65.25l18.86,13.06a1,1,0,0,0,.35-.76V46.32A1,1,0,0,0,324.59,45.31Z" fill="#50e6ff"/>
      <path d="M307,45.31h17.57a1.09,1.09,0,0,1,.64.25L306.4,58.62a1,1,0,0,1-.37-.76V46.32A1,1,0,0,1,307,45.31Z" fill="#fff" opacity="0.2" style="isolation: isolate"/>
      <path d="M314.07,48.09l1.72-1.72a.1.1,0,0,1,.14,0l1.71,1.72a.1.1,0,0,1,0,.13l0,0h-1.08a.09.09,0,0,0-.09.09h0v2.3H315.3v-2.3a.09.09,0,0,0-.09-.09h-1.08a.11.11,0,0,1-.09-.1S314.05,48.11,314.07,48.09ZM317.63,56l-1.71,1.72a.1.1,0,0,1-.14,0L314.07,56v-.14h1a.09.09,0,0,0,.09-.09h0V53.55a.07.07,0,0,1,0-.09h1.08a.07.07,0,0,1,0,.09v2.23a.09.09,0,0,0,.09.09h1C317.64,55.87,317.69,56,317.63,56Zm-6.79-2.23v-1a.09.09,0,0,0-.09-.09h-2.23a.17.17,0,0,1,0-.1V51.52a.17.17,0,0,1,0-.1h2.23a.07.07,0,0,0,.09,0V50.37a.11.11,0,0,1,.13,0l0,0L312.74,52m0,.12L311,53.84a.09.09,0,0,1-.13,0s0,0,0,0Zm8.11-1.74v1a.07.07,0,0,0,.09,0h2.23a.1.1,0,0,1,.08.1v1.06a.1.1,0,0,1-.08.1h-2.23a.09.09,0,0,0-.09.09h0v1a.09.09,0,0,1-.13,0l0,0L319,52a.09.09,0,0,1,0-.12l1.73-1.73a.12.12,0,0,1,.17,0A.14.14,0,0,1,320.85,50.37Z" fill="#fff"/>
    </g>
    <path d="M429.07,17.05A6.28,6.28,0,0,0,423.69,11a7.88,7.88,0,0,0-8-7.65A8.08,8.08,0,0,0,408,8.67a7.44,7.44,0,0,0-6.46,7.27,7.65,7.65,0,0,0,7.76,7.38h13.59A6.35,6.35,0,0,0,429.07,17.05Z" fill="url(#linear-gradient-6)"/>
    <g>
      <line x1="178.83" y1="45.79" x2="126.38" y2="45.79" fill="none" stroke="#3c3c41" stroke-miterlimit="10"/>
      <polygon points="127.48 42.05 121 45.79 127.48 49.53 127.48 42.05" fill="#3c3c41"/>
    </g>
  </g>
  <g id="Text">
    <g>
      <path d="M25.92,42.77H24.83l-.89-2.36H20.37l-.84,2.36H18.44l3.22-8.4h1Zm-2.31-3.24L22.29,36a3.91,3.91,0,0,1-.12-.56h0A3.62,3.62,0,0,1,22,36L20.7,39.53Z" fill="#1e1e1e"/>
      <path d="M31.59,37,28,42h3.51v.82H26.63v-.3l3.55-4.88H27v-.82h4.63Z" fill="#1e1e1e"/>
      <path d="M32.57,42.55v-1a2.82,2.82,0,0,0,1.73.58q1.26,0,1.26-.84a.68.68,0,0,0-.11-.41,1.17,1.17,0,0,0-.29-.3,2.86,2.86,0,0,0-.43-.23l-.54-.21c-.26-.11-.5-.21-.7-.32a2.22,2.22,0,0,1-.5-.36,1.38,1.38,0,0,1-.31-.46,1.66,1.66,0,0,1-.1-.61,1.48,1.48,0,0,1,.19-.74,1.7,1.7,0,0,1,.52-.55,2.21,2.21,0,0,1,.73-.33,3.49,3.49,0,0,1,.86-.11,3.41,3.41,0,0,1,1.39.27v1a2.7,2.7,0,0,0-1.52-.43,1.88,1.88,0,0,0-.49.06,1.26,1.26,0,0,0-.37.17.88.88,0,0,0-.24.27.67.67,0,0,0-.09.34.75.75,0,0,0,.09.39.83.83,0,0,0,.25.28,1.68,1.68,0,0,0,.4.23l.53.21c.27.11.5.21.72.32a2.14,2.14,0,0,1,.53.36,1.37,1.37,0,0,1,.47,1.09,1.51,1.51,0,0,1-.2.78,1.58,1.58,0,0,1-.52.54,2.26,2.26,0,0,1-.76.32,3.7,3.7,0,0,1-.9.11A3.37,3.37,0,0,1,32.57,42.55Z" fill="#1e1e1e"/>
      <path d="M44.08,34.37,41,42.77H39.89l-3-8.4h1.1L40.26,41a3,3,0,0,1,.17.74h0a3.44,3.44,0,0,1,.19-.75L43,34.37Z" fill="#1e1e1e"/>
      <path d="M52,42.77H50.8l-4.32-6.7a2.65,2.65,0,0,1-.27-.53h0a7.27,7.27,0,0,1,0,1.16v6.07h-1v-8.4h1.27L50.72,41a5.88,5.88,0,0,1,.34.56h0a9.09,9.09,0,0,1,0-1.24V34.37h1Z" fill="#1e1e1e"/>
      <path d="M58.86,40H54.62a2.3,2.3,0,0,0,.54,1.55,1.87,1.87,0,0,0,1.42.54,2.91,2.91,0,0,0,1.86-.67v.91a3.47,3.47,0,0,1-2.09.57,2.53,2.53,0,0,1-2-.82,3.35,3.35,0,0,1-.72-2.3,3.28,3.28,0,0,1,.79-2.28,2.54,2.54,0,0,1,2-.88,2.24,2.24,0,0,1,1.82.76,3.18,3.18,0,0,1,.65,2.12Zm-1-.82a1.9,1.9,0,0,0-.4-1.29,1.36,1.36,0,0,0-1.1-.46,1.56,1.56,0,0,0-1.15.48,2.25,2.25,0,0,0-.59,1.27Z" fill="#1e1e1e"/>
      <path d="M63.09,42.71a1.82,1.82,0,0,1-.9.19c-1,0-1.57-.59-1.57-1.76V37.59h-1v-.82h1V35.3l1-.31v1.78h1.51v.82H61.58V41a1.45,1.45,0,0,0,.2.86.84.84,0,0,0,.68.26,1.05,1.05,0,0,0,.63-.2Z" fill="#1e1e1e"/>
      <path d="M23.77,57.17H19.41v-8.4h1v7.51h3.37Z" fill="#1e1e1e"/>
      <path d="M27.37,57.31a2.79,2.79,0,0,1-2.13-.84,3.1,3.1,0,0,1-.79-2.23,3.23,3.23,0,0,1,.83-2.36A3,3,0,0,1,27.51,51a2.68,2.68,0,0,1,2.09.82,3.27,3.27,0,0,1,.76,2.3,3.21,3.21,0,0,1-.82,2.3A2.85,2.85,0,0,1,27.37,57.31Zm.07-5.47a1.84,1.84,0,0,0-1.47.63,2.58,2.58,0,0,0-.54,1.73A2.47,2.47,0,0,0,26,55.89a1.85,1.85,0,0,0,1.46.61,1.75,1.75,0,0,0,1.43-.6,3.23,3.23,0,0,0,0-3.45A1.73,1.73,0,0,0,27.44,51.84Z" fill="#1e1e1e"/>
      <path d="M36,56.89a3.1,3.1,0,0,1-1.64.42,2.73,2.73,0,0,1-2.07-.83,3,3,0,0,1-.79-2.17,3.3,3.3,0,0,1,.85-2.38A3,3,0,0,1,34.6,51a3.2,3.2,0,0,1,1.39.29v1a2.38,2.38,0,0,0-1.43-.47,2,2,0,0,0-1.51.66,2.5,2.5,0,0,0-.58,1.73A2.36,2.36,0,0,0,33,55.89a1.89,1.89,0,0,0,1.48.61A2.39,2.39,0,0,0,36,56Z" fill="#1e1e1e"/>
      <path d="M41.77,57.17h-1v-.94h0a2,2,0,0,1-1.85,1.08,2,2,0,0,1-1.4-.47A1.65,1.65,0,0,1,37,55.58c0-1.13.66-1.78,2-2l1.8-.25c0-1-.41-1.53-1.24-1.53a2.9,2.9,0,0,0-2,.74v-1a3.76,3.76,0,0,1,2-.56c1.41,0,2.11.74,2.11,2.24Zm-1-3-1.45.2a2.54,2.54,0,0,0-1,.33,1,1,0,0,0-.34.85.89.89,0,0,0,.31.71,1.19,1.19,0,0,0,.83.28,1.55,1.55,0,0,0,1.18-.5,1.75,1.75,0,0,0,.47-1.27Z" fill="#1e1e1e"/>
      <path d="M44.47,57.17h-1V48.29h1Z" fill="#1e1e1e"/>
      <path d="M22.55,71.57h-1V64.31a2,2,0,0,1-.32.25l-.48.29c-.18.09-.37.18-.57.26a4.87,4.87,0,0,1-.57.2v-1c.21-.06.43-.14.67-.23s.47-.22.69-.34a5.88,5.88,0,0,0,.65-.39,4.87,4.87,0,0,0,.53-.39h.36Z" fill="#1e1e1e"/>
      <path d="M30.24,67.33a8,8,0,0,1-.19,1.87,4.57,4.57,0,0,1-.55,1.38,2.57,2.57,0,0,1-.89.85,2.41,2.41,0,0,1-1.19.29,2.34,2.34,0,0,1-1.13-.28,2.46,2.46,0,0,1-.83-.81,4.22,4.22,0,0,1-.52-1.31,8.61,8.61,0,0,1-.17-1.78,9.38,9.38,0,0,1,.18-2,4.83,4.83,0,0,1,.54-1.41A2.36,2.36,0,0,1,27.6,63Q30.24,63,30.24,67.33Zm-1,.1c0-2.39-.57-3.59-1.71-3.59s-1.8,1.22-1.8,3.65c0,2.27.59,3.41,1.77,3.41S29.26,69.74,29.26,67.43Z" fill="#1e1e1e"/>
      <path d="M32,71.7a.61.61,0,0,1-.46-.2A.6.6,0,0,1,31.3,71a.62.62,0,0,1,.19-.46.63.63,0,0,1,.92,0,.63.63,0,0,1,.2.46.68.68,0,0,1-.66.66Z" fill="#1e1e1e"/>
      <path d="M36.42,71.57h-1V64.31a2,2,0,0,1-.32.25,5.06,5.06,0,0,1-.48.29l-.56.26a5,5,0,0,1-.58.2v-1c.21-.06.43-.14.67-.23s.47-.22.7-.34a6.82,6.82,0,0,0,.64-.39,4.05,4.05,0,0,0,.53-.39h.36Z" fill="#1e1e1e"/>
      <path d="M39.43,71.7a.61.61,0,0,1-.46-.2.6.6,0,0,1-.19-.46.62.62,0,0,1,.19-.46.58.58,0,0,1,.46-.2.61.61,0,0,1,.47.2.66.66,0,0,1,.19.46.64.64,0,0,1-.19.46A.65.65,0,0,1,39.43,71.7Z" fill="#1e1e1e"/>
      <path d="M46.65,67.33a8.62,8.62,0,0,1-.19,1.87,4.57,4.57,0,0,1-.55,1.38,2.57,2.57,0,0,1-.89.85,2.44,2.44,0,0,1-1.19.29,2.34,2.34,0,0,1-1.13-.28,2.38,2.38,0,0,1-.83-.81,4.22,4.22,0,0,1-.52-1.31,8,8,0,0,1-.17-1.78,9.38,9.38,0,0,1,.18-2,4.32,4.32,0,0,1,.54-1.41A2.36,2.36,0,0,1,44,63Q46.65,63,46.65,67.33Zm-1,.1c0-2.39-.56-3.59-1.7-3.59s-1.8,1.22-1.8,3.65c0,2.27.59,3.41,1.76,3.41S45.66,69.74,45.66,67.43Z" fill="#1e1e1e"/>
      <path d="M48.35,71.7a.63.63,0,0,1-.46-.2A.64.64,0,0,1,47.7,71a.66.66,0,0,1,.19-.46.59.59,0,0,1,.46-.2.6.6,0,0,1,.47.2A.63.63,0,0,1,49,71a.61.61,0,0,1-.2.46A.63.63,0,0,1,48.35,71.7Z" fill="#1e1e1e"/>
      <path d="M55.57,67.33a8,8,0,0,1-.19,1.87,4.33,4.33,0,0,1-.55,1.38,2.55,2.55,0,0,1-.88.85,2.47,2.47,0,0,1-1.19.29,2.31,2.31,0,0,1-1.13-.28,2.49,2.49,0,0,1-.84-.81,4.48,4.48,0,0,1-.51-1.31,7.93,7.93,0,0,1-.18-1.78,8.71,8.71,0,0,1,.19-2,4.32,4.32,0,0,1,.54-1.41,2.36,2.36,0,0,1,.89-.86A2.41,2.41,0,0,1,52.93,63Q55.57,63,55.57,67.33Zm-1,.1c0-2.39-.57-3.59-1.7-3.59s-1.8,1.22-1.8,3.65c0,2.27.58,3.41,1.76,3.41S54.59,69.74,54.59,67.43Z" fill="#1e1e1e"/>
      <path d="M60.43,63.17,56.4,73h-.9l4-9.79Z" fill="#1e1e1e"/>
      <path d="M64.3,71.57h-1V64.31a1.74,1.74,0,0,1-.33.25,5.06,5.06,0,0,1-.48.29,5.85,5.85,0,0,1-.56.26,5,5,0,0,1-.58.2v-1c.22-.06.44-.14.68-.23s.46-.22.69-.34a5.88,5.88,0,0,0,.65-.39,4.87,4.87,0,0,0,.53-.39h.36Z" fill="#1e1e1e"/>
      <path d="M71.9,68.9A3.15,3.15,0,0,1,71.71,70a2.7,2.7,0,0,1-.56.89,2.46,2.46,0,0,1-.83.59,2.67,2.67,0,0,1-1.06.21,2.33,2.33,0,0,1-1.13-.27,2.29,2.29,0,0,1-.85-.76,3.63,3.63,0,0,1-.53-1.21,6.55,6.55,0,0,1-.18-1.61,7.7,7.7,0,0,1,.24-2,4.88,4.88,0,0,1,.69-1.53,3.24,3.24,0,0,1,1.08-1A2.91,2.91,0,0,1,70,63a3.42,3.42,0,0,1,1.4.24v.9A3,3,0,0,0,70,63.84a2.06,2.06,0,0,0-1,.25,2.47,2.47,0,0,0-.77.71,3.53,3.53,0,0,0-.49,1.11,5.48,5.48,0,0,0-.18,1.45h0a2,2,0,0,1,1.91-1,2.66,2.66,0,0,1,1,.19,2.22,2.22,0,0,1,.75.53,2.31,2.31,0,0,1,.48.82A2.93,2.93,0,0,1,71.9,68.9Zm-1,.13a2.81,2.81,0,0,0-.11-.8,1.76,1.76,0,0,0-.32-.59,1.37,1.37,0,0,0-.51-.38,1.73,1.73,0,0,0-.69-.13,1.67,1.67,0,0,0-.67.13,1.5,1.5,0,0,0-.52.37,1.53,1.53,0,0,0-.35.54,1.57,1.57,0,0,0-.13.65,2.64,2.64,0,0,0,.12.81,2.31,2.31,0,0,0,.35.66,1.58,1.58,0,0,0,.53.44,1.43,1.43,0,0,0,.68.17,1.6,1.6,0,0,0,.67-.14,1.58,1.58,0,0,0,.51-.39,1.6,1.6,0,0,0,.32-.59A2.23,2.23,0,0,0,70.92,69Z" fill="#1e1e1e"/>
    </g>
    <g>
      <path d="M106,66.8l-3.12,8.4h-1.08l-3-8.4h1.1l2.32,6.66a3.07,3.07,0,0,1,.17.75h0a3.38,3.38,0,0,1,.19-.76l2.37-6.65Z" fill="#1e1e1e"/>
      <path d="M108.11,72V75.2h-1V66.8h2.31a3,3,0,0,1,2.08.66,2.31,2.31,0,0,1,.75,1.85,2.53,2.53,0,0,1-.83,2,3.14,3.14,0,0,1-2.22.77Zm0-4.34v3.44h1a2.32,2.32,0,0,0,1.56-.46,1.64,1.64,0,0,0,.53-1.32c0-1.11-.65-1.66-2-1.66Z" fill="#1e1e1e"/>
      <path d="M120.38,75.2h-1.21l-4.32-6.7a2.57,2.57,0,0,1-.27-.52h0a7.12,7.12,0,0,1,0,1.15V75.2h-1V66.8h1.27l4.21,6.59a5.88,5.88,0,0,1,.34.56h0a11.05,11.05,0,0,1,0-1.23V66.8h1Z" fill="#1e1e1e"/>
      <path d="M95.05,89a5.73,5.73,0,0,1-2.82.71,3.86,3.86,0,0,1-2.91-1.16,4.26,4.26,0,0,1-1.11-3.07,4.33,4.33,0,0,1,1.24-3.2,4.2,4.2,0,0,1,3.12-1.25,5.47,5.47,0,0,1,2.31.44v1.09A4.44,4.44,0,0,0,92.46,82a3,3,0,0,0-2.31,1,4.05,4.05,0,0,0-.07,5,3,3,0,0,0,2.28.91,3.42,3.42,0,0,0,1.7-.4V86.11H92.22v-.89h2.83Z" fill="#1e1e1e"/>
      <path d="M101.13,89.6h-1v-.94h0a2,2,0,0,1-1.84,1.08,2,2,0,0,1-1.4-.47A1.65,1.65,0,0,1,96.39,88c0-1.12.66-1.78,2-2l1.8-.25c0-1-.41-1.53-1.24-1.53A3,3,0,0,0,97,85V84a3.76,3.76,0,0,1,2-.56c1.41,0,2.12.75,2.12,2.24Zm-1-3-1.45.2a2.35,2.35,0,0,0-1,.33,1,1,0,0,0-.34.84.9.9,0,0,0,.32.71,1.18,1.18,0,0,0,.83.28,1.51,1.51,0,0,0,1.18-.5,1.78,1.78,0,0,0,.47-1.27Z" fill="#1e1e1e"/>
      <path d="M105.65,89.54a1.82,1.82,0,0,1-.9.19c-1,0-1.58-.59-1.58-1.76V84.42h-1V83.6h1V82.14l1-.31V83.6h1.52v.82h-1.52V87.8a1.37,1.37,0,0,0,.21.86.8.8,0,0,0,.68.26,1.05,1.05,0,0,0,.63-.2Z" fill="#1e1e1e"/>
      <path d="M111.65,86.84h-4.24a2.3,2.3,0,0,0,.54,1.55,1.88,1.88,0,0,0,1.42.54,2.94,2.94,0,0,0,1.86-.66v.9a3.47,3.47,0,0,1-2.09.57,2.53,2.53,0,0,1-2-.82,3.35,3.35,0,0,1-.72-2.3,3.28,3.28,0,0,1,.79-2.28,2.54,2.54,0,0,1,2-.88,2.22,2.22,0,0,1,1.82.76,3.2,3.2,0,0,1,.65,2.12Zm-1-.81a2,2,0,0,0-.41-1.3,1.35,1.35,0,0,0-1.09-.46,1.54,1.54,0,0,0-1.16.49,2.19,2.19,0,0,0-.59,1.27Z" fill="#1e1e1e"/>
      <path d="M120.64,83.6l-1.8,6h-1l-1.23-4.29a3,3,0,0,1-.1-.56h0a2.44,2.44,0,0,1-.12.54L115,89.6h-1l-1.81-6h1l1.25,4.51a3.12,3.12,0,0,1,.08.54h0a2.38,2.38,0,0,1,.1-.55l1.38-4.5H117l1.24,4.52a3.36,3.36,0,0,1,.09.54h.05a2.61,2.61,0,0,1,.1-.54l1.22-4.52Z" fill="#1e1e1e"/>
      <path d="M125.94,89.6h-1v-.94h0a2,2,0,0,1-1.84,1.08,2,2,0,0,1-1.4-.47A1.65,1.65,0,0,1,121.2,88c0-1.12.66-1.78,2-2l1.8-.25c0-1-.41-1.53-1.24-1.53a3,3,0,0,0-2,.74V84a3.76,3.76,0,0,1,2-.56c1.41,0,2.12.75,2.12,2.24Zm-1-3-1.45.2a2.3,2.3,0,0,0-1,.33,1,1,0,0,0-.34.84.9.9,0,0,0,.32.71,1.18,1.18,0,0,0,.83.28,1.51,1.51,0,0,0,1.18-.5,1.78,1.78,0,0,0,.47-1.27Z" fill="#1e1e1e"/>
      <path d="M132.39,83.6l-2.76,7c-.49,1.24-1.19,1.87-2.08,1.87a2.12,2.12,0,0,1-.62-.08v-.86a1.71,1.71,0,0,0,.57.1,1.17,1.17,0,0,0,1.08-.86l.49-1.14-2.35-6h1.07l1.62,4.62c0,.06.06.21.12.46h0q0-.15.12-.45l1.7-4.63Z" fill="#1e1e1e"/>
    </g>
    <g>
      <path d="M123.7,1.8l-3.11,8.4h-1.08l-3.05-8.4h1.09l2.33,6.66a3.62,3.62,0,0,1,.17.75h0a4.09,4.09,0,0,1,.2-.76l2.37-6.65Z" fill="#1e1e1e"/>
      <path d="M125.84,7V10.2h-1V1.8h2.31a3,3,0,0,1,2.09.66A2.34,2.34,0,0,1,130,4.31a2.52,2.52,0,0,1-.82,2,3.15,3.15,0,0,1-2.23.77Zm0-4.34V6.13h1a2.28,2.28,0,0,0,1.55-.46A1.65,1.65,0,0,0,129,4.35c0-1.11-.66-1.66-2-1.66Z" fill="#1e1e1e"/>
      <path d="M138.11,10.2H136.9l-4.33-6.7a3.16,3.16,0,0,1-.26-.52h0a8.6,8.6,0,0,1,0,1.15V10.2h-1V1.8h1.28l4.21,6.59c.17.27.29.46.34.56h0a8.58,8.58,0,0,1-.06-1.23V1.8h1Z" fill="#1e1e1e"/>
      <path d="M149.84,1.8l-3.11,8.4h-1.08L142.6,1.8h1.1L146,8.46a3.62,3.62,0,0,1,.17.75h0a3.38,3.38,0,0,1,.19-.76l2.37-6.65Z" fill="#1e1e1e"/>
      <path d="M152,10.2h-1V1.8h1Z" fill="#1e1e1e"/>
      <path d="M155.05,7V10.2h-1V1.8h2.31a3,3,0,0,1,2.09.66,2.31,2.31,0,0,1,.74,1.85,2.52,2.52,0,0,1-.82,2,3.14,3.14,0,0,1-2.22.77Zm0-4.34V6.13h1a2.32,2.32,0,0,0,1.56-.46,1.67,1.67,0,0,0,.53-1.32c0-1.11-.65-1.66-2-1.66Z" fill="#1e1e1e"/>
      <path d="M108.69,16.2v5.55h1.08v.88h-1.08v2h-1v-2H103.8v-.84q.54-.62,1.11-1.32c.37-.47.73-.95,1.07-1.44s.66-1,1-1.45a13.52,13.52,0,0,0,.74-1.38Zm-3.81,5.55h2.86V17.63c-.29.52-.57,1-.83,1.38s-.51.76-.74,1.09-.47.63-.68.89Z" fill="#1e1e1e"/>
      <path d="M116.22,20.36a8.62,8.62,0,0,1-.19,1.87,4.47,4.47,0,0,1-.55,1.38,2.57,2.57,0,0,1-.89.85,2.47,2.47,0,0,1-1.19.29,2.34,2.34,0,0,1-1.13-.28,2.38,2.38,0,0,1-.83-.81,4.12,4.12,0,0,1-.52-1.31,7.93,7.93,0,0,1-.18-1.78,9.48,9.48,0,0,1,.19-1.95,4.32,4.32,0,0,1,.54-1.41,2.43,2.43,0,0,1,.89-.86,2.41,2.41,0,0,1,1.21-.29Q116.23,16.06,116.22,20.36Zm-1,.1c0-2.39-.57-3.59-1.7-3.59s-1.8,1.22-1.8,3.65c0,2.27.59,3.41,1.76,3.41S115.23,22.77,115.23,20.46Z" fill="#1e1e1e"/>
      <path d="M117.92,24.73a.62.62,0,0,1-.46-.19.68.68,0,0,1-.19-.47.66.66,0,0,1,.19-.46.64.64,0,0,1,.93,0,.62.62,0,0,1,.19.46.64.64,0,0,1-.19.47A.63.63,0,0,1,117.92,24.73Z" fill="#1e1e1e"/>
      <path d="M124.7,16.76c-.13.22-.29.5-.47.83s-.37.7-.58,1.12-.41.86-.62,1.33-.4,1-.59,1.48-.34,1-.48,1.54a11,11,0,0,0-.3,1.54h-1a11,11,0,0,1,.32-1.53c.15-.52.31-1,.5-1.54s.38-1,.59-1.45.41-.89.6-1.28.38-.74.54-1,.29-.54.39-.7h-4.22V16.2h5.35Z" fill="#1e1e1e"/>
      <path d="M129,24.6h-1V17.34a2,2,0,0,1-.32.26l-.48.28c-.18.09-.37.18-.57.26a3.54,3.54,0,0,1-.57.2v-1a4.45,4.45,0,0,0,.67-.23,7.48,7.48,0,0,0,.7-.34c.22-.12.44-.25.64-.38a5.2,5.2,0,0,0,.53-.4H129Z" fill="#1e1e1e"/>
      <path d="M132,24.73a.6.6,0,0,1-.46-.19.64.64,0,0,1-.19-.47.62.62,0,0,1,.19-.46.63.63,0,0,1,.92,0,.63.63,0,0,1,.2.46.65.65,0,0,1-.2.47A.6.6,0,0,1,132,24.73Z" fill="#1e1e1e"/>
      <path d="M136.46,24.6h-1V17.34a2,2,0,0,1-.32.26,5.1,5.1,0,0,1-.48.28l-.56.26a3.63,3.63,0,0,1-.58.2v-1a4.45,4.45,0,0,0,.67-.23,6.44,6.44,0,0,0,.7-.34c.23-.12.44-.25.64-.38a5.2,5.2,0,0,0,.53-.4h.37Z" fill="#1e1e1e"/>
      <path d="M138.6,22.26a2.19,2.19,0,0,1,.11-.67A2.29,2.29,0,0,1,139,21a2.45,2.45,0,0,1,.48-.54,2.7,2.7,0,0,1,.66-.38,2.4,2.4,0,0,1-.86-.78A1.82,1.82,0,0,1,139,18.2a2,2,0,0,1,.18-.85,2.1,2.1,0,0,1,.5-.68,2.34,2.34,0,0,1,.75-.45,2.84,2.84,0,0,1,1.88,0,2.34,2.34,0,0,1,.75.45,2.08,2.08,0,0,1,.49.68,2,2,0,0,1,.18.85,1.82,1.82,0,0,1-.33,1.06,2.46,2.46,0,0,1-.85.78,2.35,2.35,0,0,1,1.13.92,2.29,2.29,0,0,1,.3.63,2.19,2.19,0,0,1,.11.67,2.6,2.6,0,0,1-.2,1,2.29,2.29,0,0,1-.56.78,2.7,2.7,0,0,1-.86.5,3.28,3.28,0,0,1-2.2,0,2.7,2.7,0,0,1-.86-.5,2.46,2.46,0,0,1-.57-.78A2.6,2.6,0,0,1,138.6,22.26Zm1-.08a1.94,1.94,0,0,0,.12.7,1.56,1.56,0,0,0,.34.54,1.53,1.53,0,0,0,.54.35,1.92,1.92,0,0,0,.69.12,1.68,1.68,0,0,0,.68-.13,1.5,1.5,0,0,0,.54-.34,1.68,1.68,0,0,0,.35-.54,2,2,0,0,0,.12-.7,1.76,1.76,0,0,0-.12-.66,1.64,1.64,0,0,0-.34-.55,1.68,1.68,0,0,0-.53-.37,1.94,1.94,0,0,0-.7-.13,1.67,1.67,0,0,0-.67.13,1.58,1.58,0,0,0-.53.35,1.7,1.7,0,0,0-.36.54A1.93,1.93,0,0,0,139.64,22.18Zm.3-3.9a1.42,1.42,0,0,0,.11.55,1.37,1.37,0,0,0,.3.45,1.71,1.71,0,0,0,.44.3,1.41,1.41,0,0,0,.54.11,1.25,1.25,0,0,0,.54-.12,1.37,1.37,0,0,0,.45-.3,1.35,1.35,0,0,0,.29-.44,1.3,1.3,0,0,0,.12-.55,1.47,1.47,0,0,0-.11-.56,1.42,1.42,0,0,0-.3-.45,1.35,1.35,0,0,0-.44-.29,1.26,1.26,0,0,0-.55-.11,1.27,1.27,0,0,0-.56.11,1.23,1.23,0,0,0-.44.3,1.34,1.34,0,0,0-.29.45A1.63,1.63,0,0,0,139.94,18.28Z" fill="#1e1e1e"/>
      <path d="M149.79,16.2v5.55h1.07v.88h-1.07v2h-.95v-2h-4v-.84c.36-.41.74-.85,1.11-1.32s.73-.95,1.08-1.44.65-1,.94-1.45a11.8,11.8,0,0,0,.74-1.38ZM146,21.75h2.87V17.63c-.3.52-.57,1-.84,1.38s-.51.76-.74,1.09-.47.63-.68.89Z" fill="#1e1e1e"/>
      <path d="M152.59,24.73a.62.62,0,0,1-.46-.19.64.64,0,0,1-.19-.47.62.62,0,0,1,.19-.46.63.63,0,0,1,.46-.2.65.65,0,0,1,.47.2.62.62,0,0,1,.19.46.65.65,0,0,1-.66.66Z" fill="#1e1e1e"/>
      <path d="M158.66,18.4a1.71,1.71,0,0,0-.12-.67,1.37,1.37,0,0,0-.33-.48,1.26,1.26,0,0,0-.49-.28,1.74,1.74,0,0,0-.61-.1,2,2,0,0,0-.55.08,2.66,2.66,0,0,0-.53.21,3.74,3.74,0,0,0-.49.32,4.37,4.37,0,0,0-.44.42v-1a2.63,2.63,0,0,1,.9-.6,3.23,3.23,0,0,1,1.23-.21,2.91,2.91,0,0,1,1,.15,2.18,2.18,0,0,1,.76.43,2,2,0,0,1,.51.71,2.47,2.47,0,0,1,.18,1,3.17,3.17,0,0,1-.11.9,2.63,2.63,0,0,1-.35.76,3.32,3.32,0,0,1-.58.69,8.71,8.71,0,0,1-.82.67c-.4.28-.72.52-1,.72a3.81,3.81,0,0,0-.61.56,1.63,1.63,0,0,0-.32.52,1.8,1.8,0,0,0-.09.6H160v.86h-5.19v-.41a3.38,3.38,0,0,1,.12-1,2.38,2.38,0,0,1,.39-.78,4,4,0,0,1,.7-.74c.29-.25.65-.53,1.07-.83a6.87,6.87,0,0,0,.77-.63,3.23,3.23,0,0,0,.49-.6,2.27,2.27,0,0,0,.27-.6A2.84,2.84,0,0,0,158.66,18.4Z" fill="#1e1e1e"/>
      <path d="M164.24,24.6h-1V17.34a2.72,2.72,0,0,1-.33.26,5.1,5.1,0,0,1-.48.28l-.56.26a3.63,3.63,0,0,1-.58.2v-1a4.1,4.1,0,0,0,.67-.23,6.44,6.44,0,0,0,.7-.34c.23-.12.44-.25.65-.38a5,5,0,0,0,.52-.4h.37Z" fill="#1e1e1e"/>
      <path d="M170.84,16.2v5.55h1.07v.88h-1.07v2h-1v-2h-3.95v-.84q.56-.62,1.11-1.32c.38-.47.73-.95,1.08-1.44s.65-1,1-1.45a13.34,13.34,0,0,0,.73-1.38ZM167,21.75h2.87V17.63c-.3.52-.57,1-.83,1.38l-.75,1.09c-.24.33-.46.63-.68.89Z" fill="#1e1e1e"/>
    </g>
    <g>
      <path d="M360.44,42.77h-1.09l-.89-2.36H354.9l-.84,2.36H353l3.22-8.4h1Zm-2.3-3.24L356.82,36a5.45,5.45,0,0,1-.13-.56h0a3.49,3.49,0,0,1-.14.56l-1.3,3.58Z" fill="#1e1e1e"/>
      <path d="M366.12,37,362.57,42h3.51v.82h-4.93v-.3l3.55-4.88h-3.21v-.82h4.63Z" fill="#1e1e1e"/>
      <path d="M372.21,42.77h-1v-1h0a2,2,0,0,1-1.86,1.09c-1.43,0-2.14-.85-2.14-2.56V36.77h.95V40.2c0,1.27.49,1.9,1.46,1.9a1.44,1.44,0,0,0,1.15-.52,1.94,1.94,0,0,0,.46-1.35V36.77h1Z" fill="#1e1e1e"/>
      <path d="M377.16,37.74a1.18,1.18,0,0,0-.73-.19,1.23,1.23,0,0,0-1,.58,2.72,2.72,0,0,0-.41,1.58v3.06h-1v-6h1V38h0a2.07,2.07,0,0,1,.63-1,1.4,1.4,0,0,1,.94-.36,1.5,1.5,0,0,1,.58.09Z" fill="#1e1e1e"/>
      <path d="M383,40H378.8a2.21,2.21,0,0,0,.54,1.55,1.85,1.85,0,0,0,1.41.54,2.94,2.94,0,0,0,1.87-.67v.91a3.52,3.52,0,0,1-2.09.57,2.52,2.52,0,0,1-2-.82,3.83,3.83,0,0,1,.06-4.58,2.55,2.55,0,0,1,2-.88,2.25,2.25,0,0,1,1.82.76,3.18,3.18,0,0,1,.64,2.12Zm-1-.82a2,2,0,0,0-.4-1.29,1.37,1.37,0,0,0-1.1-.46,1.59,1.59,0,0,0-1.16.48,2.24,2.24,0,0,0-.58,1.27Z" fill="#1e1e1e"/>
      <path d="M390.38,34.37l-3.12,8.4h-1.08l-3.05-8.4h1.1L386.56,41a4.27,4.27,0,0,1,.17.74h0a3.44,3.44,0,0,1,.19-.75l2.38-6.65Z" fill="#1e1e1e"/>
      <path d="M398.3,42.77h-1.21l-4.32-6.7a2.65,2.65,0,0,1-.27-.53h0a7.27,7.27,0,0,1,.05,1.16v6.07h-1v-8.4h1.27L397,41a5.88,5.88,0,0,1,.34.56h0a8.65,8.65,0,0,1-.06-1.24V34.37h1Z" fill="#1e1e1e"/>
      <path d="M405.15,40h-4.24a2.3,2.3,0,0,0,.54,1.55,1.88,1.88,0,0,0,1.42.54,2.89,2.89,0,0,0,1.86-.67v.91a3.47,3.47,0,0,1-2.09.57,2.53,2.53,0,0,1-2-.82,3.35,3.35,0,0,1-.72-2.3,3.28,3.28,0,0,1,.79-2.28,2.54,2.54,0,0,1,2-.88,2.22,2.22,0,0,1,1.82.76,3.18,3.18,0,0,1,.65,2.12Zm-1-.82a2,2,0,0,0-.41-1.29,1.35,1.35,0,0,0-1.09-.46,1.57,1.57,0,0,0-1.16.48,2.25,2.25,0,0,0-.59,1.27Z" fill="#1e1e1e"/>
      <path d="M409.38,42.71a1.82,1.82,0,0,1-.9.19c-1.05,0-1.57-.59-1.57-1.76V37.59h-1v-.82h1V35.3l1-.31v1.78h1.51v.82h-1.51V41a1.45,1.45,0,0,0,.2.86.84.84,0,0,0,.68.26,1,1,0,0,0,.63-.2Z" fill="#1e1e1e"/>
      <path d="M376.13,57.17h-4.45v-8.4h4.26v.89h-3.28v2.79h3v.89h-3v2.94h3.47Z" fill="#1e1e1e"/>
      <path d="M381.91,57.17h-1v-.94h0a2.2,2.2,0,0,1-3.25.61,1.68,1.68,0,0,1-.5-1.26c0-1.13.66-1.78,2-2l1.8-.25c0-1-.42-1.53-1.24-1.53a2.92,2.92,0,0,0-2,.74v-1a3.76,3.76,0,0,1,2-.56c1.41,0,2.12.74,2.12,2.24Zm-1-3-1.45.2a2.59,2.59,0,0,0-1,.33,1,1,0,0,0-.34.85.92.92,0,0,0,.31.71,1.2,1.2,0,0,0,.84.28,1.55,1.55,0,0,0,1.18-.5,1.8,1.8,0,0,0,.47-1.27Z" fill="#1e1e1e"/>
      <path d="M383.32,57v-1a2.84,2.84,0,0,0,1.73.58c.85,0,1.27-.28,1.27-.84a.76.76,0,0,0-.11-.41,1.17,1.17,0,0,0-.29-.3,3,3,0,0,0-.44-.23l-.53-.21a6.76,6.76,0,0,1-.7-.32,2.55,2.55,0,0,1-.51-.36,1.52,1.52,0,0,1-.3-.46,1.66,1.66,0,0,1-.1-.61,1.38,1.38,0,0,1,.19-.74,1.78,1.78,0,0,1,.51-.55,2.26,2.26,0,0,1,.74-.33,3.59,3.59,0,0,1,2.25.16v1a2.71,2.71,0,0,0-1.53-.43,1.75,1.75,0,0,0-.48.06,1.15,1.15,0,0,0-.37.17.68.68,0,0,0-.24.27.67.67,0,0,0-.09.34.75.75,0,0,0,.09.39.71.71,0,0,0,.24.28,1.91,1.91,0,0,0,.4.23l.54.21c.26.11.5.21.71.32a2.82,2.82,0,0,1,.54.36,1.41,1.41,0,0,1,.34.47,1.46,1.46,0,0,1,.12.62,1.5,1.5,0,0,1-.19.78,1.61,1.61,0,0,1-.53.54,2.3,2.3,0,0,1-.75.32,3.82,3.82,0,0,1-.9.11A3.41,3.41,0,0,1,383.32,57Z" fill="#1e1e1e"/>
      <path d="M391.61,57.11a1.82,1.82,0,0,1-.9.19c-1,0-1.57-.59-1.57-1.76V52h-1v-.82h1V49.7l1-.31v1.78h1.51V52H390.1v3.38a1.45,1.45,0,0,0,.2.86.84.84,0,0,0,.68.26,1.05,1.05,0,0,0,.63-.2Z" fill="#1e1e1e"/>
      <path d="M402.45,53.77q0,3.54-3.19,3.54t-3.06-3.4V48.77h1v5.07c0,1.72.72,2.59,2.18,2.59s2.1-.84,2.1-2.5V48.77h1Z" fill="#1e1e1e"/>
      <path d="M404,56.83V55.67a2.86,2.86,0,0,0,.48.32,3.8,3.8,0,0,0,.59.23,3.3,3.3,0,0,0,.62.15,2.91,2.91,0,0,0,.57.06,2.29,2.29,0,0,0,1.36-.34,1.14,1.14,0,0,0,.44-1,1.1,1.1,0,0,0-.14-.59,1.64,1.64,0,0,0-.42-.46,3.91,3.91,0,0,0-.62-.4l-.78-.4-.82-.45a3.85,3.85,0,0,1-.66-.51,2.06,2.06,0,0,1-.35-2.44,2.21,2.21,0,0,1,.66-.7,3.13,3.13,0,0,1,.93-.41,4.29,4.29,0,0,1,1.07-.13,4,4,0,0,1,1.81.3V50a3.29,3.29,0,0,0-1.91-.51,3.47,3.47,0,0,0-.64.06,1.93,1.93,0,0,0-.57.22,1.31,1.31,0,0,0-.41.4,1,1,0,0,0-.16.58,1.22,1.22,0,0,0,.12.56,1.41,1.41,0,0,0,.35.43,3.75,3.75,0,0,0,.57.37l.78.4c.3.15.59.31.86.47a3.82,3.82,0,0,1,.7.54,2.27,2.27,0,0,1,.49.67,1.84,1.84,0,0,1,.18.83,2,2,0,0,1-.25,1.05,2,2,0,0,1-.65.7,2.94,2.94,0,0,1-1,.39,5.09,5.09,0,0,1-1.13.12l-.49,0a4.17,4.17,0,0,1-.6-.1,4.45,4.45,0,0,1-.58-.15A2,2,0,0,1,404,56.83Z" fill="#1e1e1e"/>
      <path d="M346.77,71.57h-1V64.31a2,2,0,0,1-.32.25c-.15.1-.31.19-.49.29a5.85,5.85,0,0,1-.56.26,4.87,4.87,0,0,1-.57.2v-1c.21-.06.43-.14.67-.23s.46-.22.69-.34a5.88,5.88,0,0,0,.65-.39,4.87,4.87,0,0,0,.53-.39h.36Z" fill="#1e1e1e"/>
      <path d="M354.46,67.33a8,8,0,0,1-.19,1.87,4.57,4.57,0,0,1-.55,1.38,2.57,2.57,0,0,1-.89.85,2.44,2.44,0,0,1-1.19.29,2.34,2.34,0,0,1-1.13-.28,2.46,2.46,0,0,1-.83-.81,4.22,4.22,0,0,1-.52-1.31,8.61,8.61,0,0,1-.17-1.78,9.38,9.38,0,0,1,.18-2,4.56,4.56,0,0,1,.54-1.41A2.36,2.36,0,0,1,351.82,63Q354.46,63,354.46,67.33Zm-1,.1c0-2.39-.57-3.59-1.71-3.59s-1.8,1.22-1.8,3.65c0,2.27.59,3.41,1.77,3.41S353.48,69.74,353.48,67.43Z" fill="#1e1e1e"/>
      <path d="M356.17,71.7a.68.68,0,0,1-.66-.66.63.63,0,0,1,.2-.46.58.58,0,0,1,.46-.2.59.59,0,0,1,.46.2.63.63,0,0,1,.2.46.61.61,0,0,1-.2.46A.63.63,0,0,1,356.17,71.7Z" fill="#1e1e1e"/>
      <path d="M360.64,71.57h-1V64.31a2,2,0,0,1-.32.25l-.48.29c-.18.09-.37.18-.57.26a4.87,4.87,0,0,1-.57.2v-1c.21-.06.43-.14.67-.23s.47-.22.7-.34a6.82,6.82,0,0,0,.64-.39,4.05,4.05,0,0,0,.53-.39h.36Z" fill="#1e1e1e"/>
      <path d="M368.33,67.33a8,8,0,0,1-.19,1.87,4.57,4.57,0,0,1-.55,1.38,2.55,2.55,0,0,1-.88.85,2.48,2.48,0,0,1-1.2.29,2.3,2.3,0,0,1-1.12-.28,2.49,2.49,0,0,1-.84-.81,4,4,0,0,1-.51-1.31,7.93,7.93,0,0,1-.18-1.78,9.38,9.38,0,0,1,.18-2,4.56,4.56,0,0,1,.55-1.41,2.34,2.34,0,0,1,.88-.86,2.45,2.45,0,0,1,1.22-.29Q368.33,63,368.33,67.33Zm-1,.1c0-2.39-.57-3.59-1.71-3.59s-1.8,1.22-1.8,3.65c0,2.27.59,3.41,1.77,3.41S367.35,69.74,367.35,67.43Z" fill="#1e1e1e"/>
      <path d="M375,67.33a8.62,8.62,0,0,1-.19,1.87,4.57,4.57,0,0,1-.55,1.38,2.66,2.66,0,0,1-.89.85,2.47,2.47,0,0,1-1.19.29,2.34,2.34,0,0,1-1.13-.28,2.38,2.38,0,0,1-.83-.81,4.22,4.22,0,0,1-.52-1.31,7.93,7.93,0,0,1-.18-1.78,9.33,9.33,0,0,1,.19-2,4.32,4.32,0,0,1,.54-1.41,2.36,2.36,0,0,1,.89-.86,2.41,2.41,0,0,1,1.21-.29Q375,63,375,67.33Zm-1,.1c0-2.39-.57-3.59-1.7-3.59s-1.8,1.22-1.8,3.65c0,2.27.59,3.41,1.76,3.41S374,69.74,374,67.43Z" fill="#1e1e1e"/>
      <path d="M376.73,71.7a.63.63,0,0,1-.46-.2.6.6,0,0,1-.19-.46.62.62,0,0,1,.19-.46.59.59,0,0,1,.46-.2.6.6,0,0,1,.47.2.62.62,0,0,1,.19.46.6.6,0,0,1-.19.46A.63.63,0,0,1,376.73,71.7Z" fill="#1e1e1e"/>
      <path d="M384,67.33a8,8,0,0,1-.19,1.87,4.33,4.33,0,0,1-.55,1.38,2.55,2.55,0,0,1-.88.85,2.48,2.48,0,0,1-1.2.29,2.3,2.3,0,0,1-1.12-.28,2.49,2.49,0,0,1-.84-.81,4.22,4.22,0,0,1-.51-1.31,7.93,7.93,0,0,1-.18-1.78,8.71,8.71,0,0,1,.19-2,4.32,4.32,0,0,1,.54-1.41,2.41,2.41,0,0,1,.88-.86,2.45,2.45,0,0,1,1.22-.29Q384,63,384,67.33Zm-1,.1c0-2.39-.57-3.59-1.71-3.59s-1.8,1.22-1.8,3.65c0,2.27.59,3.41,1.77,3.41S383,69.74,383,67.43Z" fill="#1e1e1e"/>
      <path d="M385.66,71.7a.63.63,0,0,1-.46-.2A.6.6,0,0,1,385,71a.62.62,0,0,1,.19-.46.59.59,0,0,1,.46-.2.67.67,0,0,1,.66.66.6.6,0,0,1-.19.46A.65.65,0,0,1,385.66,71.7Z" fill="#1e1e1e"/>
      <path d="M392.88,67.33a8,8,0,0,1-.19,1.87,4.57,4.57,0,0,1-.55,1.38,2.57,2.57,0,0,1-.89.85,2.44,2.44,0,0,1-1.19.29,2.34,2.34,0,0,1-1.13-.28,2.38,2.38,0,0,1-.83-.81,4.22,4.22,0,0,1-.52-1.31,8,8,0,0,1-.17-1.78,9.38,9.38,0,0,1,.18-2,4.32,4.32,0,0,1,.54-1.41A2.36,2.36,0,0,1,390.24,63Q392.88,63,392.88,67.33Zm-1,.1c0-2.39-.56-3.59-1.7-3.59s-1.8,1.22-1.8,3.65c0,2.27.59,3.41,1.76,3.41S391.89,69.74,391.89,67.43Z" fill="#1e1e1e"/>
      <path d="M397.73,63.17l-4,9.79h-.9l4-9.79Z" fill="#1e1e1e"/>
      <path d="M401.61,71.57h-1V64.31a2,2,0,0,1-.32.25,5.06,5.06,0,0,1-.48.29l-.56.26a5,5,0,0,1-.58.2v-1c.21-.06.43-.14.67-.23s.47-.22.7-.34a5.73,5.73,0,0,0,.64-.39,4.05,4.05,0,0,0,.53-.39h.37Z" fill="#1e1e1e"/>
      <path d="M409.21,68.9A3.15,3.15,0,0,1,409,70a2.68,2.68,0,0,1-.55.89,2.41,2.41,0,0,1-.84.59,2.59,2.59,0,0,1-1.05.21,2.4,2.4,0,0,1-1.14-.27,2.45,2.45,0,0,1-.85-.76,3.63,3.63,0,0,1-.53-1.21,6.55,6.55,0,0,1-.18-1.61,7.28,7.28,0,0,1,.25-2,4.88,4.88,0,0,1,.69-1.53,3.24,3.24,0,0,1,1.08-1A2.88,2.88,0,0,1,407.3,63a3.37,3.37,0,0,1,1.39.24v.9a3,3,0,0,0-1.37-.33,2,2,0,0,0-1,.25,2.36,2.36,0,0,0-.77.71,3.54,3.54,0,0,0-.5,1.11,6,6,0,0,0-.17,1.45h0a2,2,0,0,1,1.92-1,2.61,2.61,0,0,1,1,.19,2.17,2.17,0,0,1,.76.53,2.31,2.31,0,0,1,.48.82A3.17,3.17,0,0,1,409.21,68.9Zm-1,.13a2.49,2.49,0,0,0-.12-.8,1.6,1.6,0,0,0-.32-.59,1.22,1.22,0,0,0-.51-.38,1.67,1.67,0,0,0-.69-.13,1.59,1.59,0,0,0-.66.13,1.64,1.64,0,0,0-.53.37,1.68,1.68,0,0,0-.35.54,1.75,1.75,0,0,0-.12.65,2.64,2.64,0,0,0,.12.81,2.08,2.08,0,0,0,.35.66,1.56,1.56,0,0,0,1.21.61,1.59,1.59,0,0,0,.66-.14,1.39,1.39,0,0,0,.51-.39,1.77,1.77,0,0,0,.33-.59A2.23,2.23,0,0,0,408.23,69Z" fill="#1e1e1e"/>
    </g>
    <g>
      <path d="M311.9,66.8l-3.11,8.4H307.7l-3-8.4h1.09l2.33,6.66a4.4,4.4,0,0,1,.17.75h0a4,4,0,0,1,.19-.76l2.38-6.65Z" fill="#1e1e1e"/>
      <path d="M314,72V75.2h-1V66.8h2.31a3,3,0,0,1,2.09.66,2.34,2.34,0,0,1,.74,1.85,2.53,2.53,0,0,1-.83,2,3.12,3.12,0,0,1-2.22.77Zm0-4.34v3.44h1a2.32,2.32,0,0,0,1.56-.46,1.65,1.65,0,0,0,.54-1.32c0-1.11-.66-1.66-2-1.66Z" fill="#1e1e1e"/>
      <path d="M326.3,75.2h-1.21l-4.32-6.7a2.57,2.57,0,0,1-.27-.52h0a9.28,9.28,0,0,1,0,1.15V75.2h-1V66.8h1.28l4.2,6.59a5.88,5.88,0,0,1,.34.56h0a8.58,8.58,0,0,1-.06-1.23V66.8h1Z" fill="#1e1e1e"/>
      <path d="M301,89a5.7,5.7,0,0,1-2.81.71,3.86,3.86,0,0,1-2.91-1.16,4.26,4.26,0,0,1-1.11-3.07,4.37,4.37,0,0,1,1.23-3.2,4.21,4.21,0,0,1,3.13-1.25,5.42,5.42,0,0,1,2.3.44v1.09a4.44,4.44,0,0,0-2.42-.64,3,3,0,0,0-2.31,1,3.57,3.57,0,0,0-.9,2.52A3.62,3.62,0,0,0,296,88a3,3,0,0,0,2.28.91,3.42,3.42,0,0,0,1.7-.4V86.11h-1.84v-.89H301Z" fill="#1e1e1e"/>
      <path d="M307.05,89.6h-1v-.94h0a2,2,0,0,1-1.85,1.08,2,2,0,0,1-1.4-.47,1.65,1.65,0,0,1-.51-1.26c0-1.12.66-1.78,2-2l1.8-.25c0-1-.41-1.53-1.24-1.53a3,3,0,0,0-2,.74V84a3.76,3.76,0,0,1,2-.56c1.41,0,2.11.75,2.11,2.24Zm-1-3-1.45.2a2.35,2.35,0,0,0-1,.33,1,1,0,0,0-.34.84.9.9,0,0,0,.32.71,1.19,1.19,0,0,0,.83.28,1.51,1.51,0,0,0,1.18-.5,1.78,1.78,0,0,0,.47-1.27Z" fill="#1e1e1e"/>
      <path d="M311.57,89.54a1.82,1.82,0,0,1-.9.19c-1.05,0-1.57-.59-1.57-1.76V84.42h-1V83.6h1V82.14l1-.31V83.6h1.51v.82h-1.51V87.8a1.45,1.45,0,0,0,.2.86.81.81,0,0,0,.68.26,1.05,1.05,0,0,0,.63-.2Z" fill="#1e1e1e"/>
      <path d="M317.57,86.84h-4.24a2.3,2.3,0,0,0,.54,1.55,1.88,1.88,0,0,0,1.42.54,3,3,0,0,0,1.87-.66v.9a3.53,3.53,0,0,1-2.1.57,2.51,2.51,0,0,1-2-.82,3.83,3.83,0,0,1,.06-4.58,2.54,2.54,0,0,1,2-.88,2.26,2.26,0,0,1,1.83.76,3.19,3.19,0,0,1,.64,2.12Zm-1-.81a2,2,0,0,0-.4-1.3,1.37,1.37,0,0,0-1.1-.46,1.54,1.54,0,0,0-1.16.49,2.18,2.18,0,0,0-.58,1.27Z" fill="#1e1e1e"/>
      <path d="M326.56,83.6l-1.8,6h-1l-1.23-4.29a3,3,0,0,1-.1-.56h0a2.44,2.44,0,0,1-.12.54L321,89.6h-1l-1.82-6h1l1.24,4.51a2.38,2.38,0,0,1,.08.54h.05a2.38,2.38,0,0,1,.1-.55L322,83.6h.88l1.24,4.52a3.36,3.36,0,0,1,.09.54h0a2.61,2.61,0,0,1,.1-.54l1.22-4.52Z" fill="#1e1e1e"/>
      <path d="M331.86,89.6h-1v-.94h0A2,2,0,0,1,329,89.74a2,2,0,0,1-1.4-.47,1.65,1.65,0,0,1-.51-1.26c0-1.12.66-1.78,2-2l1.8-.25c0-1-.41-1.53-1.24-1.53a3,3,0,0,0-2,.74V84a3.76,3.76,0,0,1,2-.56c1.41,0,2.11.75,2.11,2.24Zm-1-3-1.45.2a2.35,2.35,0,0,0-1,.33,1,1,0,0,0-.34.84.9.9,0,0,0,.32.71,1.19,1.19,0,0,0,.83.28,1.51,1.51,0,0,0,1.18-.5,1.78,1.78,0,0,0,.47-1.27Z" fill="#1e1e1e"/>
      <path d="M338.31,83.6l-2.76,7c-.49,1.24-1.18,1.87-2.07,1.87a2.25,2.25,0,0,1-.63-.08v-.86a1.8,1.8,0,0,0,.57.1,1.19,1.19,0,0,0,1.09-.86l.48-1.14-2.35-6h1.07l1.62,4.62c0,.06.06.21.13.46h0q0-.15.12-.45l1.7-4.63Z" fill="#1e1e1e"/>
    </g>
    <g>
      <path d="M286.5,1.8l-3.11,8.4H282.3l-3-8.4h1.09l2.33,6.66a4.4,4.4,0,0,1,.17.75h0a3.43,3.43,0,0,1,.2-.76l2.37-6.65Z" fill="#1e1e1e"/>
      <path d="M288.64,7V10.2h-1V1.8H290a3,3,0,0,1,2.09.66,2.34,2.34,0,0,1,.74,1.85,2.52,2.52,0,0,1-.82,2,3.15,3.15,0,0,1-2.23.77Zm0-4.34V6.13h1a2.28,2.28,0,0,0,1.55-.46,1.65,1.65,0,0,0,.54-1.32c0-1.11-.66-1.66-2-1.66Z" fill="#1e1e1e"/>
      <path d="M300.91,10.2H299.7l-4.33-6.7A2.57,2.57,0,0,1,295.1,3h0a8.6,8.6,0,0,1,.05,1.15V10.2h-1V1.8h1.28l4.21,6.59c.17.27.29.46.34.56h0a8.58,8.58,0,0,1-.06-1.23V1.8h1Z" fill="#1e1e1e"/>
      <path d="M312.64,1.8l-3.11,8.4h-1.08L305.4,1.8h1.1l2.32,6.66a3.62,3.62,0,0,1,.17.75h0a4.09,4.09,0,0,1,.2-.76l2.37-6.65Z" fill="#1e1e1e"/>
      <path d="M314.78,10.2h-1V1.8h1Z" fill="#1e1e1e"/>
      <path d="M317.85,7V10.2h-1V1.8h2.31a3,3,0,0,1,2.09.66A2.31,2.31,0,0,1,322,4.31a2.52,2.52,0,0,1-.82,2A3.14,3.14,0,0,1,319,7Zm0-4.34V6.13h1a2.32,2.32,0,0,0,1.56-.46A1.67,1.67,0,0,0,321,4.35c0-1.11-.65-1.66-2-1.66Z" fill="#1e1e1e"/>
      <path d="M284.9,24.6h-1V17.34a2,2,0,0,1-.32.26c-.15.09-.31.19-.49.28a5.85,5.85,0,0,1-.56.26,3.54,3.54,0,0,1-.57.2v-1a4.45,4.45,0,0,0,.67-.23,7.33,7.33,0,0,0,.69-.34c.23-.12.45-.25.65-.38a6.62,6.62,0,0,0,.53-.4h.36Z" fill="#1e1e1e"/>
      <path d="M291.9,22.22a2.51,2.51,0,0,1-.21,1,2.36,2.36,0,0,1-.61.79,3,3,0,0,1-.93.52,3.82,3.82,0,0,1-1.2.18,3.44,3.44,0,0,1-1.91-.46v-1a3.07,3.07,0,0,0,1.94.67,2.81,2.81,0,0,0,.8-.11,2,2,0,0,0,.61-.33,1.39,1.39,0,0,0,.39-.51,1.6,1.6,0,0,0,.14-.67c0-1.1-.79-1.65-2.35-1.65h-.69v-.81h.66c1.38,0,2.07-.52,2.07-1.55s-.53-1.43-1.58-1.43a2.7,2.7,0,0,0-1.67.6v-.93a3.64,3.64,0,0,1,1.91-.48,3.11,3.11,0,0,1,1,.14,2.4,2.4,0,0,1,.74.41,1.87,1.87,0,0,1,.47.64,2,2,0,0,1,.17.81,2,2,0,0,1-1.68,2.13v0a2.49,2.49,0,0,1,.79.21,1.9,1.9,0,0,1,1.19,1.79Z" fill="#1e1e1e"/>
      <path d="M296.31,24.6h-1V17.34a2.72,2.72,0,0,1-.33.26,5.1,5.1,0,0,1-.48.28l-.56.26a3.63,3.63,0,0,1-.58.2v-1a4.45,4.45,0,0,0,.67-.23,6.44,6.44,0,0,0,.7-.34c.23-.12.44-.25.65-.38a6.35,6.35,0,0,0,.52-.4h.37Z" fill="#1e1e1e"/>
      <path d="M299.31,24.73a.62.62,0,0,1-.46-.19.64.64,0,0,1-.19-.47.62.62,0,0,1,.19-.46.63.63,0,0,1,.46-.2.65.65,0,0,1,.47.2.62.62,0,0,1,.19.46.65.65,0,0,1-.66.66Z" fill="#1e1e1e"/>
      <path d="M303.79,24.6h-1V17.34a2.72,2.72,0,0,1-.33.26,5.1,5.1,0,0,1-.48.28c-.18.09-.36.18-.56.26a3.63,3.63,0,0,1-.58.2v-1a4.1,4.1,0,0,0,.67-.23,6.44,6.44,0,0,0,.7-.34c.23-.12.44-.25.65-.38a5,5,0,0,0,.52-.4h.37Z" fill="#1e1e1e"/>
      <path d="M306.79,24.73a.62.62,0,0,1-.46-.19.64.64,0,0,1-.19-.47.62.62,0,0,1,.19-.46.63.63,0,0,1,.46-.2.65.65,0,0,1,.47.2.62.62,0,0,1,.19.46.65.65,0,0,1-.66.66Z" fill="#1e1e1e"/>
      <path d="M311.27,24.6h-1V17.34a2.11,2.11,0,0,1-.33.26,5.1,5.1,0,0,1-.48.28,5.85,5.85,0,0,1-.56.26,3.63,3.63,0,0,1-.58.2v-1a4.1,4.1,0,0,0,.67-.23,6.44,6.44,0,0,0,.7-.34c.23-.12.45-.25.65-.38a6.62,6.62,0,0,0,.53-.4h.36Z" fill="#1e1e1e"/>
      <path d="M314.27,24.73a.62.62,0,0,1-.46-.19.68.68,0,0,1-.19-.47.66.66,0,0,1,.19-.46.64.64,0,0,1,.93,0,.62.62,0,0,1,.19.46.64.64,0,0,1-.19.47A.63.63,0,0,1,314.27,24.73Z" fill="#1e1e1e"/>
      <path d="M318.75,24.6h-1V17.34a1.72,1.72,0,0,1-.33.26,5.1,5.1,0,0,1-.48.28,5.85,5.85,0,0,1-.56.26,3.63,3.63,0,0,1-.58.2v-1a4.2,4.2,0,0,0,.68-.23,7.33,7.33,0,0,0,.69-.34c.23-.12.45-.25.65-.38a6.62,6.62,0,0,0,.53-.4h.36Z" fill="#1e1e1e"/>
    </g>
    <g>
      <path d="M169,70.2h-1V61.8h1Z" fill="#1e1e1e"/>
      <path d="M172.07,67V70.2h-1V61.8h2.3a3,3,0,0,1,2.09.66,2.31,2.31,0,0,1,.74,1.85,2.52,2.52,0,0,1-.82,2,3.14,3.14,0,0,1-2.22.77Zm0-4.34v3.44h1a2.32,2.32,0,0,0,1.56-.46,1.67,1.67,0,0,0,.53-1.32c0-1.11-.65-1.66-2-1.66Z" fill="#1e1e1e"/>
      <path d="M177.23,70V69a2.82,2.82,0,0,0,1.73.58q1.26,0,1.26-.84a.68.68,0,0,0-.11-.41,1,1,0,0,0-.29-.29,2.19,2.19,0,0,0-.43-.24l-.54-.21a5.79,5.79,0,0,1-.7-.32,2.22,2.22,0,0,1-.5-.36,1.38,1.38,0,0,1-.31-.46,1.59,1.59,0,0,1-.1-.61,1.48,1.48,0,0,1,.19-.74,1.7,1.7,0,0,1,.52-.55,2.64,2.64,0,0,1,.74-.33,3.35,3.35,0,0,1,.85-.11,3.41,3.41,0,0,1,1.39.27v1a2.7,2.7,0,0,0-1.52-.43,1.88,1.88,0,0,0-.49.06,1.26,1.26,0,0,0-.37.17,1,1,0,0,0-.24.27.66.66,0,0,0-.08.34.82.82,0,0,0,.08.4,1.07,1.07,0,0,0,.25.28,2.11,2.11,0,0,0,.4.22l.53.22a7.07,7.07,0,0,1,.72.31,2.45,2.45,0,0,1,.53.36,1.45,1.45,0,0,1,.35.47,1.48,1.48,0,0,1,.12.63,1.5,1.5,0,0,1-.2.77,1.58,1.58,0,0,1-.52.54,2.28,2.28,0,0,1-.76.33,3.71,3.71,0,0,1-.9.1A3.37,3.37,0,0,1,177.23,70Z" fill="#1e1e1e"/>
      <path d="M187.49,67.44h-4.24a2.23,2.23,0,0,0,.54,1.55,1.85,1.85,0,0,0,1.42.54,3,3,0,0,0,1.86-.66v.9a3.5,3.5,0,0,1-2.09.57,2.52,2.52,0,0,1-2-.82,3.36,3.36,0,0,1-.73-2.3,3.29,3.29,0,0,1,.8-2.28,2.53,2.53,0,0,1,2-.88,2.25,2.25,0,0,1,1.82.76,3.2,3.2,0,0,1,.65,2.12Zm-1-.81a2,2,0,0,0-.4-1.3,1.36,1.36,0,0,0-1.1-.46,1.52,1.52,0,0,0-1.15.49,2.19,2.19,0,0,0-.59,1.27Z" fill="#1e1e1e"/>
      <path d="M193.07,69.93a3.23,3.23,0,0,1-1.65.41,2.75,2.75,0,0,1-2.07-.83,3.06,3.06,0,0,1-.78-2.17,3.3,3.3,0,0,1,.85-2.38,3,3,0,0,1,2.26-.9,3.27,3.27,0,0,1,1.4.29v1a2.47,2.47,0,0,0-1.43-.47,1.92,1.92,0,0,0-1.51.66,2.5,2.5,0,0,0-.59,1.73,2.36,2.36,0,0,0,.55,1.66,1.91,1.91,0,0,0,1.49.61,2.43,2.43,0,0,0,1.48-.52Z" fill="#1e1e1e"/>
      <path d="M198.92,70.2h-1V61.8h1Z" fill="#1e1e1e"/>
      <path d="M206.85,70.2h-1.37l-3.24-3.84a1.81,1.81,0,0,1-.23-.3h0V70.2h-1V61.8h1v4h0a2.4,2.4,0,0,1,.23-.29l3.14-3.66h1.22l-3.6,4Z" fill="#1e1e1e"/>
      <path d="M212.41,70.2H208V61.8h4.26v.89h-3.28v2.79h3v.89h-3v2.94h3.47Z" fill="#1e1e1e"/>
      <path d="M216.92,69.86V68.7a2.86,2.86,0,0,0,.48.32,3.8,3.8,0,0,0,.59.23,3.3,3.3,0,0,0,.62.15,2.91,2.91,0,0,0,.57.06,2.29,2.29,0,0,0,1.36-.34,1.15,1.15,0,0,0,.44-1,1.13,1.13,0,0,0-.15-.59,1.47,1.47,0,0,0-.41-.46,3.91,3.91,0,0,0-.62-.4l-.78-.4-.82-.45a3.4,3.4,0,0,1-.66-.51,1.89,1.89,0,0,1-.6-1.44,1.93,1.93,0,0,1,.25-1,2.32,2.32,0,0,1,.66-.7,3,3,0,0,1,.93-.41,4.29,4.29,0,0,1,1.07-.13,4,4,0,0,1,1.81.3v1.1a3.29,3.29,0,0,0-1.91-.51,2.79,2.79,0,0,0-.64.07,1.45,1.45,0,0,0-.57.22,1.18,1.18,0,0,0-.41.39,1,1,0,0,0-.16.58,1.22,1.22,0,0,0,.12.56,1.41,1.41,0,0,0,.35.43,3.75,3.75,0,0,0,.57.37l.78.4c.3.15.59.31.85.47a4,4,0,0,1,.71.55,2.36,2.36,0,0,1,.49.66,1.84,1.84,0,0,1,.18.83,2.15,2.15,0,0,1-.25,1,2,2,0,0,1-.65.7,2.94,2.94,0,0,1-1,.39,5.15,5.15,0,0,1-1.13.12l-.49,0q-.3,0-.6-.09c-.21,0-.4-.1-.58-.16A1.65,1.65,0,0,1,216.92,69.86Z" fill="#1e1e1e"/>
      <path d="M227,64a1.71,1.71,0,0,0-.12-.67,1.37,1.37,0,0,0-.33-.48,1.22,1.22,0,0,0-.48-.28,1.77,1.77,0,0,0-.61-.1,2,2,0,0,0-.55.08,2.66,2.66,0,0,0-.53.21,3.74,3.74,0,0,0-.49.32,3.51,3.51,0,0,0-.44.42v-1a2.78,2.78,0,0,1,.9-.6,3.17,3.17,0,0,1,1.22-.21,2.93,2.93,0,0,1,1,.15,2.27,2.27,0,0,1,.76.43,2.3,2.3,0,0,1,.51.71,2.47,2.47,0,0,1,.18,1,3.58,3.58,0,0,1-.11.9,2.63,2.63,0,0,1-.35.76,3.67,3.67,0,0,1-.58.69,8.92,8.92,0,0,1-.83.67c-.39.28-.72.52-1,.72a3.81,3.81,0,0,0-.61.56,1.63,1.63,0,0,0-.32.52,1.8,1.8,0,0,0-.09.6h4.18v.86h-5.18v-.41a3.38,3.38,0,0,1,.12-1,2.18,2.18,0,0,1,.38-.78,4.07,4.07,0,0,1,.71-.74c.29-.25.65-.53,1.07-.83a6.69,6.69,0,0,0,.76-.63,3.31,3.31,0,0,0,.5-.6,2.23,2.23,0,0,0,.26-.6A2.39,2.39,0,0,0,227,64Z" fill="#1e1e1e"/>
      <path d="M229.49,69.86V68.7A2.86,2.86,0,0,0,230,69a3.8,3.8,0,0,0,.59.23,3.3,3.3,0,0,0,.62.15,2.91,2.91,0,0,0,.57.06,2.29,2.29,0,0,0,1.36-.34,1.13,1.13,0,0,0,.44-1,1.22,1.22,0,0,0-.14-.59,1.64,1.64,0,0,0-.42-.46,3.91,3.91,0,0,0-.62-.4l-.78-.4-.82-.45a3.4,3.4,0,0,1-.66-.51,1.89,1.89,0,0,1-.6-1.44,1.93,1.93,0,0,1,.25-1,2.32,2.32,0,0,1,.66-.7,3,3,0,0,1,.93-.41,4.29,4.29,0,0,1,1.07-.13,4,4,0,0,1,1.81.3v1.1a3.29,3.29,0,0,0-1.91-.51,2.79,2.79,0,0,0-.64.07,1.45,1.45,0,0,0-.57.22,1.18,1.18,0,0,0-.41.39,1,1,0,0,0-.16.58,1.22,1.22,0,0,0,.12.56,1.41,1.41,0,0,0,.35.43,3.75,3.75,0,0,0,.57.37l.78.4c.3.15.59.31.85.47a4,4,0,0,1,.71.55,2.36,2.36,0,0,1,.49.66,1.84,1.84,0,0,1,.18.83,2.15,2.15,0,0,1-.25,1,2,2,0,0,1-.65.7,2.94,2.94,0,0,1-1,.39,5.09,5.09,0,0,1-1.13.12l-.49,0q-.3,0-.6-.09c-.21,0-.4-.1-.58-.16A1.65,1.65,0,0,1,229.49,69.86Z" fill="#1e1e1e"/>
      <path d="M245.79,61.8l-3.11,8.4H241.6l-3-8.4h1.1L242,68.46a3.07,3.07,0,0,1,.17.75h0a3.38,3.38,0,0,1,.19-.76l2.37-6.65Z" fill="#1e1e1e"/>
      <path d="M247.93,67V70.2h-1V61.8h2.3a3,3,0,0,1,2.09.66,2.31,2.31,0,0,1,.74,1.85,2.52,2.52,0,0,1-.82,2A3.14,3.14,0,0,1,249,67Zm0-4.34v3.44h1a2.32,2.32,0,0,0,1.56-.46,1.64,1.64,0,0,0,.53-1.32c0-1.11-.65-1.66-2-1.66Z" fill="#1e1e1e"/>
      <path d="M260.2,70.2H259l-4.32-6.7a2.57,2.57,0,0,1-.27-.52h0a8.6,8.6,0,0,1,0,1.15V70.2h-1V61.8h1.27l4.21,6.59a5.88,5.88,0,0,1,.34.56h0a8.58,8.58,0,0,1-.06-1.23V61.8h1Z" fill="#1e1e1e"/>
      <path d="M202.78,77.09h-2.42V84.6h-1V77.09H197V76.2h5.83Z" fill="#1e1e1e"/>
      <path d="M208,84.6h-1v-.95h0a2,2,0,0,1-1.86,1.09c-1.43,0-2.14-.85-2.14-2.55V78.6h1V82c0,1.27.49,1.9,1.46,1.9a1.47,1.47,0,0,0,1.16-.52,2,2,0,0,0,.45-1.35V78.6h1Z" fill="#1e1e1e"/>
      <path d="M214.79,84.6h-1V81.18c0-1.27-.47-1.91-1.4-1.91a1.5,1.5,0,0,0-1.19.54,2,2,0,0,0-.47,1.37V84.6h-1v-6h1v1h0a2.16,2.16,0,0,1,2-1.14,1.79,1.79,0,0,1,1.5.64,2.79,2.79,0,0,1,.53,1.83Z" fill="#1e1e1e"/>
      <path d="M221.51,84.6h-1V81.18c0-1.27-.47-1.91-1.4-1.91a1.52,1.52,0,0,0-1.19.54,2,2,0,0,0-.47,1.37V84.6h-1v-6h1v1h0a2.17,2.17,0,0,1,2-1.14,1.83,1.83,0,0,1,1.51.64,2.79,2.79,0,0,1,.52,1.83Z" fill="#1e1e1e"/>
      <path d="M228.12,81.84h-4.23a2.25,2.25,0,0,0,.53,1.55,1.88,1.88,0,0,0,1.42.54,3,3,0,0,0,1.87-.66v.9a3.53,3.53,0,0,1-2.1.57,2.51,2.51,0,0,1-2-.82,3.83,3.83,0,0,1,.06-4.58,2.55,2.55,0,0,1,2-.88,2.25,2.25,0,0,1,1.82.76,3.19,3.19,0,0,1,.64,2.12Zm-1-.81a2,2,0,0,0-.4-1.3,1.37,1.37,0,0,0-1.1-.46,1.54,1.54,0,0,0-1.16.49A2.18,2.18,0,0,0,223.9,81Z" fill="#1e1e1e"/>
      <path d="M230.53,84.6h-1V75.72h1Z" fill="#1e1e1e"/>
    </g>
  </g>
</svg>
