<svg xmlns="http://www.w3.org/2000/svg" xmlns:xlink="http://www.w3.org/1999/xlink" viewBox="0 0 401 289.55">
  <defs>
    <linearGradient id="linear-gradient" x1="171.42" y1="572.15" x2="171.42" y2="593.8" gradientTransform="matrix(1, 0, 0, -1, 0, 643.59)" gradientUnits="userSpaceOnUse">
      <stop offset="0" stop-color="#0078d4"/>
      <stop offset="0.82" stop-color="#5ea0ef"/>
    </linearGradient>
    <linearGradient id="linear-gradient-2" x1="171.43" y1="563.8" x2="171.43" y2="572.15" gradientTransform="matrix(1, 0, 0, -1, 0, 643.59)" gradientUnits="userSpaceOnUse">
      <stop offset="0.15" stop-color="#ccc"/>
      <stop offset="1" stop-color="#707070"/>
    </linearGradient>
    <linearGradient id="linear-gradient-3" x1="69.48" y1="-163.31" x2="80.63" y2="-175.43" gradientTransform="matrix(1, 0, 0, -1.59, 0, -211.67)" gradientUnits="userSpaceOnUse">
      <stop offset="0" stop-color="#0078d4"/>
      <stop offset="0.02" stop-color="#0d7ed8"/>
      <stop offset="0.08" stop-color="#2b8ae0"/>
      <stop offset="0.15" stop-color="#4194e7"/>
      <stop offset="0.22" stop-color="#519beb"/>
      <stop offset="0.29" stop-color="#5b9fee"/>
      <stop offset="0.4" stop-color="#5ea0ef"/>
      <stop offset="0.55" stop-color="#5b9fee"/>
      <stop offset="0.68" stop-color="#509aeb"/>
      <stop offset="0.8" stop-color="#3f92e6"/>
      <stop offset="0.91" stop-color="#2688df"/>
      <stop offset="0.99" stop-color="#127fd9"/>
    </linearGradient>
    <linearGradient id="linear-gradient-4" x1="71.82" y1="399.06" x2="73.82" y2="397.05" gradientTransform="matrix(1, 0, 0, -1, 3.03, 642.95)" gradientUnits="userSpaceOnUse">
      <stop offset="0" stop-color="#86d633"/>
      <stop offset="0.24" stop-color="#83d232"/>
      <stop offset="0.5" stop-color="#7cc52f"/>
      <stop offset="0.76" stop-color="#6fb02a"/>
      <stop offset="1" stop-color="#5e9624"/>
    </linearGradient>
    <linearGradient id="linear-gradient-5" x1="67.29" y1="399.06" x2="69.29" y2="397.05" xlink:href="#linear-gradient-4"/>
    <linearGradient id="linear-gradient-6" x1="62.78" y1="399.06" x2="64.77" y2="397.06" xlink:href="#linear-gradient-4"/>
    <linearGradient id="linear-gradient-7" x1="171.44" y1="452.8" x2="171.44" y2="478.8" gradientTransform="matrix(1, 0, 0, -1, 0, 643.59)" gradientUnits="userSpaceOnUse">
      <stop offset="0" stop-color="#5e9641"/>
      <stop offset="0.34" stop-color="#6baa42"/>
      <stop offset="0.67" stop-color="#73b743"/>
      <stop offset="1" stop-color="#76bb43"/>
    </linearGradient>
    <linearGradient id="linear-gradient-8" x1="333.82" y1="527.73" x2="333.82" y2="507.56" gradientTransform="matrix(1, 0, 0, -1, 0, 643.59)" gradientUnits="userSpaceOnUse">
      <stop offset="0" stop-color="#5ea0ef"/>
      <stop offset="0.18" stop-color="#559cec"/>
      <stop offset="0.47" stop-color="#3c91e5"/>
      <stop offset="0.84" stop-color="#1380da"/>
      <stop offset="1" stop-color="#0078d4"/>
    </linearGradient>
    <linearGradient id="linear-gradient-9" x1="333.8" y1="406.8" x2="333.8" y2="422.97" gradientTransform="matrix(1, 0, 0, -1, 0, 643.59)" gradientUnits="userSpaceOnUse">
      <stop offset="0" stop-color="#b3b3b3"/>
      <stop offset="0.26" stop-color="#c1c1c1"/>
      <stop offset="1" stop-color="#e6e6e6"/>
    </linearGradient>
  </defs>
  <g id="Shapes">
    <rect width="400.75" height="289.3" fill="#fff"/>
    <g>
      <rect x="15.75" y="22.3" width="385" height="267" fill="#fff"/>
      <rect x="15.75" y="22.3" width="385" height="267" fill="#83b9f9" opacity="0.03"/>
      <rect x="15.75" y="22.3" width="385" height="267" fill="none" stroke="#0078d4" stroke-miterlimit="10" stroke-width="0.5"/>
    </g>
    <g>
      <circle cx="25.25" cy="25.25" r="25" fill="#fff"/>
      <circle cx="25.25" cy="25.25" r="25" fill="#83b9f9" opacity="0.03"/>
      <circle cx="25.25" cy="25.25" r="25" fill="none" stroke="#0078d4" stroke-miterlimit="10" stroke-width="0.5"/>
    </g>
    <g>
      <g>
        <path d="M11,35.48a.26.26,0,0,0,.13.24L13,36.81l3.3,1.9a.29.29,0,0,0,.39-.1l1.11-1.88a.28.28,0,0,0-.1-.36l-3.87-2.18a.3.3,0,0,1-.14-.24V16.58a.27.27,0,0,1,.14-.23l3.87-2.19a.27.27,0,0,0,.1-.35l-1.11-1.89a.3.3,0,0,0-.38-.14h0L13.1,13.65l-2,1.13A.26.26,0,0,0,11,15Z" fill="#949494"/>
        <path d="M13.71,16.45l.1-.1,3.87-2.19a.23.23,0,0,0,.12-.31l0,0-1.11-1.89a.26.26,0,0,0-.32-.16l-.05,0-3.25,1.86-2,1.13a.1.1,0,0,0-.1.1l1.51.86Z" fill="#a3a3a3"/>
        <path d="M17.68,36.34l-3.87-2.19a.29.29,0,0,1-.12-.15L11,35.68h.09L13,36.78l3.37,1.86a.25.25,0,0,0,.35-.06s0,0,0,0l1.11-1.88a.23.23,0,0,0-.12-.31Z" fill="#a3a3a3"/>
      </g>
      <path d="M39.55,35.48a.26.26,0,0,1-.13.24l-2,1.09-3.3,1.9a.29.29,0,0,1-.39-.1l-1.11-1.88a.28.28,0,0,1,.1-.36l3.87-2.18a.3.3,0,0,0,.14-.24V16.58a.27.27,0,0,0-.14-.23l-3.87-2.19a.27.27,0,0,1-.1-.35l1.11-1.89a.3.3,0,0,1,.38-.14h0l3.23,1.83,2,1.13a.26.26,0,0,1,.13.23Z" fill="#949494"/>
      <path d="M36.79,16.45l-.1-.1-3.87-2.19a.23.23,0,0,1-.12-.31l0,0,1.11-1.89a.26.26,0,0,1,.32-.16l.05,0,3.25,1.83,2,1.13.1.1L38,15.71Z" fill="#a3a3a3"/>
      <path d="M32.82,36.34l3.87-2.19a.29.29,0,0,0,.12-.15l2.73,1.68h0l-1.94,1.1-3.36,1.86a.25.25,0,0,1-.35-.06.05.05,0,0,1,0,0l-1.11-1.88A.24.24,0,0,1,32.82,36.34Z" fill="#a3a3a3"/>
      <polygon points="34.19 20.08 34.19 30.42 25.23 35.62 25.23 25.27 34.19 20.08" fill="#32bedd"/>
      <polygon points="34.19 20.08 25.25 25.28 16.3 20.08 25.25 14.88 34.19 20.08" fill="#9cebff"/>
      <polygon points="25.23 25.28 25.23 35.62 16.3 30.42 16.3 20.08 25.23 25.28" fill="#50e6ff"/>
      <polygon points="16.3 30.42 25.23 25.27 25.23 35.62 16.3 30.42" fill="#9cebff"/>
      <polygon points="34.19 30.42 25.23 25.27 25.23 35.62 34.19 30.42" fill="#50e6ff"/>
    </g>
    <g>
      <rect x="155.19" y="49.8" width="32.46" height="21.65" rx="1.09" fill="url(#linear-gradient)"/>
      <path d="M177.94,78c-3.22-.5-3.33-2.83-3.33-6.55h-6.36c0,3.72-.12,6-3.33,6.55a2,2,0,0,0-1.61,1.81h16.24A2,2,0,0,0,177.94,78Z" fill="url(#linear-gradient-2)"/>
    </g>
    <g>
      <ellipse cx="75.51" cy="68.66" rx="11.25" ry="4.62" fill="#76bc2d"/>
      <ellipse cx="75.79" cy="68.61" rx="3.73" ry="1.02" fill="#5e9624"/>
      <ellipse cx="75.51" cy="58.41" rx="11.25" ry="4.62" fill="url(#linear-gradient-3)"/>
      <ellipse cx="75.79" cy="58.35" rx="3.73" ry="1.02" fill="#005ba1"/>
      <path d="M75.57,73.19c6.22,0,11.25-2.07,11.25-4.62h0V71.3h0c-.21,2.47-5.16,4.5-11.25,4.5s-11.25-2.07-11.25-4.62V68.57C64.26,71.12,69.3,73.19,75.57,73.19Z" fill="#5e9624"/>
      <path d="M75.57,62.93c6.22,0,11.25-2.07,11.25-4.62h0V61h0c-.21,2.47-5.16,4.5-11.25,4.5s-11.25-2.07-11.25-4.62V58.31C64.26,60.86,69.3,62.93,75.57,62.93Z" fill="#0078d4"/>
    </g>
    <g>
      <g>
        <rect x="55.75" y="115.3" width="195" height="130" rx="5" fill="#fff"/>
        <rect x="55.75" y="115.3" width="195" height="130" rx="5" fill="#3c3c41" opacity="0.05"/>
      </g>
      <path d="M244.61,245.8h-1v-1h1Zm-3,0h-1v-1h1Zm-3,0h-1v-1h1Zm-3,0h-1v-1h1Zm-3,0h-1v-1h1Zm-3,0h-1v-1h1Zm-3,0h-1v-1h1Zm-3,0h-1v-1h1Zm-3,0h-1v-1h1Zm-3,0h-1v-1h1Zm-3,0h-1v-1h1Zm-3,0h-1v-1h1Zm-3,0h-1v-1h1Zm-3,0h-1v-1h1Zm-3,0h-1v-1h1Zm-3,0h-1v-1h1Zm-3,0h-1v-1h1Zm-3,0h-1v-1h1Zm-3,0h-1v-1h1Zm-3,0h-1v-1h1Zm-3,0h-1v-1h1Zm-3,0h-1v-1h1Zm-3,0h-1v-1h1Zm-3,0h-1v-1h1Zm-3,0h-1v-1h1Zm-3,0h-1v-1h1Zm-3,0h-1v-1h1Zm-3,0h-1v-1h1Zm-3,0h-1v-1h1Zm-3,0h-1v-1h1Zm-3,0h-1v-1h1Zm-3,0h-1v-1h1Zm-3,0h-1v-1h1Zm-3,0h-1v-1h1Zm-3,0h-1v-1h1Zm-3,0h-1v-1h1Zm-3,0h-1v-1h1Zm-3,0h-1v-1h1Zm-3,0h-1v-1h1Zm-3,0h-1v-1h1Zm-3,0h-1v-1h1Zm-3,0h-1v-1h1Zm-3,0h-1v-1h1Zm-3,0h-1v-1h1Zm-3,0h-1v-1h1Zm-3,0h-1v-1h1Zm-3,0h-1v-1h1Zm-3,0h-1v-1h1Zm-3,0h-1v-1h1Zm-3,0h-1v-1h1Zm-3,0h-1v-1h1Zm-3,0h-1v-1h1Zm-3,0h-1v-1h1Zm-3,0h-1v-1h1Zm160.92-.09-.17-1a4.4,4.4,0,0,0,.86-.24l.37.93A5.54,5.54,0,0,1,246.69,245.71Zm-188-.33a5.34,5.34,0,0,1-1-.52l.56-.83a5.05,5.05,0,0,0,.79.43Zm190.92-1.15-.7-.71a4.24,4.24,0,0,0,.58-.69l.83.57A5.65,5.65,0,0,1,249.58,244.23Zm-193.42-.92a5,5,0,0,1-.51-1l.92-.37a6,6,0,0,0,.42.79Zm195-1.92-1-.2a4.41,4.41,0,0,0,.09-.89l1-.06v.06A5.76,5.76,0,0,1,251.14,241.39ZM56.25,240.2h-1v-1h1Zm195-2h-1v-1h1Zm-195-1h-1v-1h1Zm195-2h-1v-1h1Zm-195-1h-1v-1h1Zm195-2h-1v-1h1Zm-195-1h-1v-1h1Zm195-2h-1v-1h1Zm-195-1h-1v-1h1Zm195-2h-1v-1h1Zm-195-1h-1v-1h1Zm195-2h-1v-1h1Zm-195-1h-1v-1h1Zm195-2h-1v-1h1Zm-195-1h-1v-1h1Zm195-2h-1v-1h1Zm-195-1h-1v-1h1Zm195-2h-1v-1h1Zm-195-1h-1v-1h1Zm195-2h-1v-1h1Zm-195-1h-1v-1h1Zm195-2h-1v-1h1Zm-195-1h-1v-1h1Zm195-2h-1v-1h1Zm-195-1h-1v-1h1Zm195-2h-1v-1h1Zm-195-1h-1v-1h1Zm195-2h-1v-1h1Zm-195-1h-1v-1h1Zm195-2h-1v-1h1Zm-195-1h-1v-1h1Zm195-2h-1v-1h1Zm-195-1h-1v-1h1Zm195-2h-1v-1h1Zm-195-1h-1v-1h1Zm195-2h-1v-1h1Zm-195-1h-1v-1h1Zm195-2h-1v-1h1Zm-195-1h-1v-1h1Zm195-2h-1v-1h1Zm-195-1h-1v-1h1Zm195-2h-1v-1h1Zm-195-1h-1v-1h1Zm195-2h-1v-1h1Zm-195-1h-1v-1h1Zm195-2h-1v-1h1Zm-195-1h-1v-1h1Zm195-2h-1v-1h1Zm-195-1h-1v-1h1Zm195-2h-1v-1h1Zm-195-1h-1v-1h1Zm195-2h-1v-1h1Zm-195-1h-1v-1h1Zm195-2h-1v-1h1Zm-195-1h-1v-1h1Zm195-2h-1v-1h1Zm-195-1h-1v-1h1Zm195-2h-1v-1h1Zm-195-1h-1v-1h1Zm195-2h-1v-1h1Zm-195-1h-1v-1h1Zm195-2h-1v-1h1Zm-195-1h-1v-1h1Zm195-2h-1v-1h1Zm-195-1h-1v-1h1Zm195-2h-1v-1h1Zm-195-1h-1v-1h1Zm195-2h-1v-1h1Zm-195-1h-1v-1h1Zm195-2h-1v-1h1Zm-195-1h-1v-1h1Zm195-2h-1v-1h1Zm-195-1h-1v-1h1Zm195-2h-1v-1h1Zm-195-1h-1v-1h1Zm195-2h-1v-1h1Zm-195-1h-1v-1h1Zm195-2h-1v-1h1Zm-195-1h-1v-1h1Zm195-2h-1v-1h1Zm-196-1v0a5.29,5.29,0,0,1,.1-1.06l1,.19a4.94,4.94,0,0,0-.08.87Zm194.67-1.72a4.64,4.64,0,0,0-.43-.79l.83-.56a5.34,5.34,0,0,1,.52,1ZM57,117.78l-.82-.56a5.12,5.12,0,0,1,.7-.84l.7.71A4.82,4.82,0,0,0,57,117.78Zm191.21-1.24a5.52,5.52,0,0,0-.8-.42l.38-.92a5.6,5.6,0,0,1,1,.51Zm-189.14-.43-.37-.93a6.41,6.41,0,0,1,1.06-.3l.18,1A4.31,4.31,0,0,0,59.09,116.11Zm186.58-.31h-1v-1h1Zm-3,0h-1v-1h1Zm-3,0h-1v-1h1Zm-3,0h-1v-1h1Zm-3,0h-1v-1h1Zm-3,0h-1v-1h1Zm-3,0h-1v-1h1Zm-3,0h-1v-1h1Zm-3,0h-1v-1h1Zm-3,0h-1v-1h1Zm-3,0h-1v-1h1Zm-3,0h-1v-1h1Zm-3,0h-1v-1h1Zm-3,0h-1v-1h1Zm-3,0h-1v-1h1Zm-3,0h-1v-1h1Zm-3,0h-1v-1h1Zm-3,0h-1v-1h1Zm-3,0h-1v-1h1Zm-3,0h-1v-1h1Zm-3,0h-1v-1h1Zm-3,0h-1v-1h1Zm-3,0h-1v-1h1Zm-3,0h-1v-1h1Zm-3,0h-1v-1h1Zm-3,0h-1v-1h1Zm-3,0h-1v-1h1Zm-3,0h-1v-1h1Zm-3,0h-1v-1h1Zm-3,0h-1v-1h1Zm-3,0h-1v-1h1Zm-3,0h-1v-1h1Zm-3,0h-1v-1h1Zm-3,0h-1v-1h1Zm-3,0h-1v-1h1Zm-3,0h-1v-1h1Zm-3,0h-1v-1h1Zm-3,0h-1v-1h1Zm-3,0h-1v-1h1Zm-3,0h-1v-1h1Zm-3,0h-1v-1h1Zm-3,0h-1v-1h1Zm-3,0h-1v-1h1Zm-3,0h-1v-1h1Zm-3,0h-1v-1h1Zm-3,0h-1v-1h1Zm-3,0h-1v-1h1Zm-3,0h-1v-1h1Zm-3,0h-1v-1h1Zm-3,0h-1v-1h1Zm-3,0h-1v-1h1Zm-3,0h-1v-1h1Zm-3,0h-1v-1h1Zm-3,0h-1v-1h1Zm-3,0h-1v-1h1Zm-3,0h-1v-1h1Zm-3,0h-1v-1h1Zm-3,0h-1v-1h1Zm-3,0h-1v-1h1Zm-3,0h-1v-1h1Zm-3,0h-1v-1h1Zm-3,0h-1v-1h1Z" fill="#3c3c41"/>
    </g>
    <g>
      <circle cx="75.29" cy="244.78" r="1.42" fill="url(#linear-gradient-4)"/>
      <circle cx="70.77" cy="244.8" r="1.42" fill="url(#linear-gradient-5)"/>
      <circle cx="66.25" cy="244.8" r="1.42" fill="url(#linear-gradient-6)"/>
      <path d="M67.28,250.46l-.81.82a.37.37,0,0,1-.52,0h0l-6-6a.75.75,0,0,1,0-1h0l.81-.81h0l6.53,6.5a.37.37,0,0,1,0,.52Z" fill="#50e6ff"/>
      <path d="M66.34,238.33l.82.81a.37.37,0,0,1,0,.52l-6.41,6.43h0l-.82-.81a.75.75,0,0,1,0-1h0l5.89-5.91A.37.37,0,0,1,66.34,238.33Z" fill="#1490df"/>
      <path d="M80.69,243.43l.81.81a.74.74,0,0,1,0,1h0l-6,6a.37.37,0,0,1-.52,0h0l-.81-.81a.37.37,0,0,1,0-.52h0l6.53-6.5Z" fill="#50e6ff"/>
      <path d="M81.49,245.27l-.81.81h0l-6.41-6.43a.37.37,0,0,1,0-.52h0l.82-.82a.37.37,0,0,1,.52,0h0l5.89,5.91a.73.73,0,0,1,0,1h0Z" fill="#1490df"/>
    </g>
    <g>
      <rect x="65.25" y="124.8" width="175" height="105" fill="#fff"/>
      <rect x="65.25" y="124.8" width="175" height="105" fill="#3c3c41" opacity="0.25"/>
    </g>
    <g>
      <path d="M183.36,167.24h2.2a.58.58,0,0,1,.59.59h0v6.07a.58.58,0,0,1-.59.58h-2.2v-7.24Z" fill="#ffca00"/>
      <path d="M183.36,177.8h2.2a.58.58,0,0,1,.59.58h0v10.16a.58.58,0,0,1-.59.59h-2.2V177.8Z" fill="#ffca00"/>
      <rect x="159.51" y="164.8" width="23.85" height="26" rx="1.2" fill="url(#linear-gradient-7)"/>
      <path d="M166.05,184.56h-1.23a.35.35,0,0,1-.33-.37h0V169.72a.33.33,0,0,1,.31-.35h3.36a.33.33,0,0,1,.33.33v0a.35.35,0,0,1-.33.36h-3v13.75h.91a.35.35,0,0,1,.33.36h0A.38.38,0,0,1,166.05,184.56Z" fill="#b4ec36"/>
      <path d="M166.22,186.32h-2.77a.35.35,0,0,1-.33-.36h0l-.23-17.91a.38.38,0,0,1,.11-.26.29.29,0,0,1,.22-.1h4.94v.71h-4.59l.21,17.2h2.44Z" fill="#b4ec36"/>
      <path d="M176.62,184.73h-2.76a.33.33,0,0,1-.24-.12.29.29,0,0,1-.1-.25v-8.47a.33.33,0,0,1,.31-.35h1.59v-3.9h.66v4.23a.35.35,0,0,1-.31.37h-1.58v7.66h2.43Z" fill="#b4ec36"/>
      <rect x="168.07" y="166.16" width="10.64" height="5.39" rx="0.45" fill="#365615"/>
      <rect x="169.27" y="180.9" width="1.89" height="8.49" rx="0.45" fill="#365615"/>
      <rect x="166.05" y="180.93" width="1.89" height="8.49" rx="0.45" fill="#365615"/>
      <rect x="176.41" y="180.93" width="1.89" height="8.49" rx="0.45" fill="#f2f2f2"/>
      <ellipse cx="169.88" cy="176.17" rx="1.8" ry="1.94" fill="#f2f2f2"/>
      <path d="M159.48,183.43h-2.2a.59.59,0,0,1-.59-.52V172.75a.59.59,0,0,1,.59-.59h2.2v11.27Z" fill="#3b3b3b"/>
    </g>
    <line x1="171.42" y1="162.8" x2="171.42" y2="82.8" fill="none" stroke="#3b3b3b"/>
    <line x1="150.25" y1="64.8" x2="90.25" y2="64.8" fill="#fff" stroke="#3b3b3b"/>
    <line x1="316.25" y1="64.8" x2="190.25" y2="64.8" fill="#fff" stroke="#3b3b3b"/>
    <line x1="316.25" y1="124.8" x2="250.25" y2="124.8" fill="#fff" stroke="#3b3b3b"/>
    <line x1="316.25" y1="226.8" x2="250.25" y2="226.8" fill="#fff" stroke="#3b3b3b"/>
    <g>
      <path d="M344.78,75.8V71.17h-22V75.8Z" fill="#0078d4"/>
      <path d="M344.78,65.41h-22V70h22Z" fill="#50e6ff"/>
      <path d="M344.78,53.8h-22v4.63h22Z" fill="#50e6ff"/>
      <path d="M344.78,64.26V59.6h-22v4.66Z" fill="#0078d4"/>
      <path d="M337.93,60.66h-2.46v2.47h2.46Z" fill="#50e6ff"/>
      <path d="M332.15,60.66h-2.46v2.47h2.46Z" fill="#50e6ff"/>
      <path d="M326.36,60.66h-2.47v2.47h2.47Z" fill="#50e6ff"/>
      <path d="M343.73,60.66h-2.46v2.47h2.46Z" fill="#50e6ff"/>
      <path d="M337.93,57.35V54.89h-2.46v2.46Z" fill="#0078d4"/>
      <path d="M332.15,57.35V54.89h-2.46v2.46Z" fill="#0078d4"/>
      <path d="M326.36,57.35V54.89H323.9v2.46Z" fill="#0078d4"/>
      <path d="M343.73,57.35V54.89h-2.46v2.46Z" fill="#0078d4"/>
      <path d="M325.1,74.7a1.25,1.25,0,1,0-1.24-1.24A1.25,1.25,0,0,0,325.1,74.7Z" fill="#50e6ff"/>
      <path d="M330.92,74.7a1.25,1.25,0,1,0-1.25-1.24A1.25,1.25,0,0,0,330.92,74.7Z" fill="#50e6ff"/>
      <path d="M336.7,74.7a1.25,1.25,0,1,0-1.24-1.24A1.25,1.25,0,0,0,336.7,74.7Z" fill="#50e6ff"/>
      <path d="M342.46,74.7a1.25,1.25,0,1,0-1.25-1.24A1.25,1.25,0,0,0,342.46,74.7Z" fill="#50e6ff"/>
      <path d="M325.1,68.91a1.25,1.25,0,1,0-1.24-1.24A1.25,1.25,0,0,0,325.1,68.91Z" fill="#0078d4"/>
      <path d="M330.92,68.91a1.25,1.25,0,1,0-1.25-1.24A1.25,1.25,0,0,0,330.92,68.91Z" fill="#0078d4"/>
      <path d="M336.7,68.91a1.25,1.25,0,1,0-1.24-1.24A1.25,1.25,0,0,0,336.7,68.91Z" fill="#0078d4"/>
      <path d="M342.46,68.91a1.25,1.25,0,1,0-1.25-1.24A1.25,1.25,0,0,0,342.46,68.91Z" fill="#0078d4"/>
    </g>
    <g>
      <path d="M342.8,125.21c0,5.92-7.15,10.69-8.7,11.65a.57.57,0,0,1-.59,0c-1.55-1-8.7-5.73-8.7-11.65V118.1a.57.57,0,0,1,.55-.57c5.56-.14,4.27-2.59,8.44-2.59s2.89,2.45,8.45,2.59a.57.57,0,0,1,.55.57Z" fill="#0078d4"/>
      <path d="M342.05,125.27c0,5.43-6.55,9.78-8,10.69a.57.57,0,0,1-.54,0c-1.43-.88-8-5.26-8-10.69v-6.52a.52.52,0,0,1,.5-.52c5.1-.13,3.93-2.37,7.75-2.37s2.65,2.24,7.75,2.37a.52.52,0,0,1,.5.52Z" fill="#6bb9f2"/>
      <path d="M333.8,125.94V115.86c3.83,0,2.65,2.24,7.75,2.37a.53.53,0,0,1,.5.53v6.52a3.64,3.64,0,0,1,0,.66Zm0,0h-8.21c.49,5.11,6.57,9.17,7.94,10a.57.57,0,0,0,.22.07h.05Z" fill="url(#linear-gradient-8)"/>
      <path d="M326.05,118.23c5.1-.13,3.93-2.37,7.75-2.37v10.08h-8.21c0-.21,0-.44,0-.66v-6.52A.53.53,0,0,1,326.05,118.23Z" fill="#50e6ff"/>
      <path d="M342,125.94H333.8V136h0A.52.52,0,0,0,334,136C335.44,135.11,341.53,131.05,342,125.94Z" fill="#50e6ff"/>
    </g>
    <g>
      <path d="M320.12,220.62h27.36v15.26a.92.92,0,0,1-.92.92H321a.92.92,0,0,1-.92-.92Z" fill="url(#linear-gradient-9)"/>
      <path d="M321,214.8h25.52a.92.92,0,0,1,.92.91v4.91H320.12V215.7A.92.92,0,0,1,321,214.8Z" fill="#37c2b1"/>
      <path d="M323.84,222.39h19.91a.44.44,0,0,1,.42.44v2.25a.43.43,0,0,1-.42.43H323.84a.43.43,0,0,1-.42-.43v-2.25A.44.44,0,0,1,323.84,222.39Z" fill="#fff"/>
      <path d="M323.86,226.88h19.9a.43.43,0,0,1,.42.44v2.27a.43.43,0,0,1-.42.43h-19.9a.43.43,0,0,1-.42-.43V227.4a.43.43,0,0,1,.34-.51Z" fill="#37c2b1"/>
      <path d="M323.86,231.42h19.9a.43.43,0,0,1,.42.43v2.27a.43.43,0,0,1-.42.44h-19.9a.43.43,0,0,1-.42-.44v-2.27A.43.43,0,0,1,323.86,231.42Z" fill="#258277"/>
    </g>
  </g>
  <g id="Text">
    <g>
      <path d="M56.19,7.85a1.12,1.12,0,0,1-.77-.28.91.91,0,0,1-.3-.68.85.85,0,0,1,.3-.68,1.23,1.23,0,0,1,1.54,0,.84.84,0,0,1,.29.68.88.88,0,0,1-.29.69A1.11,1.11,0,0,1,56.19,7.85Zm.91,7H55.25v-6H57.1Z" fill="#231f20"/>
      <path d="M58.46,14.47V12.6a3.49,3.49,0,0,0,1.1.64,3.63,3.63,0,0,0,1.21.21,2.77,2.77,0,0,0,.62-.06,1.32,1.32,0,0,0,.45-.18.87.87,0,0,0,.27-.27.74.74,0,0,0,.08-.34.7.7,0,0,0-.14-.44,1.63,1.63,0,0,0-.38-.35,3.87,3.87,0,0,0-.58-.32l-.72-.31a3.73,3.73,0,0,1-1.47-1,2.21,2.21,0,0,1-.48-1.43,2.36,2.36,0,0,1,.26-1.13,2.44,2.44,0,0,1,.72-.78,3.11,3.11,0,0,1,1.05-.44,5.2,5.2,0,0,1,1.27-.15,7.92,7.92,0,0,1,1.16.08,5.17,5.17,0,0,1,.94.24V8.33a2.59,2.59,0,0,0-.46-.26,3.24,3.24,0,0,0-.52-.19,4.76,4.76,0,0,0-.52-.1,2.89,2.89,0,0,0-.5,0,2.58,2.58,0,0,0-.58.06,1.32,1.32,0,0,0-.45.18.88.88,0,0,0-.28.26.69.69,0,0,0,0,.73,1.19,1.19,0,0,0,.32.31,3.66,3.66,0,0,0,.5.3l.66.29a7,7,0,0,1,.91.45,3.37,3.37,0,0,1,.68.54,1.9,1.9,0,0,1,.44.68,2.44,2.44,0,0,1,.16.89,2.34,2.34,0,0,1-.27,1.18,2.25,2.25,0,0,1-.72.78,3,3,0,0,1-1.07.42,5.85,5.85,0,0,1-1.28.13,6.86,6.86,0,0,1-1.31-.12A3.52,3.52,0,0,1,58.46,14.47Z" fill="#231f20"/>
      <path d="M71.59,14.5a5.62,5.62,0,0,1-2.4.44,4.07,4.07,0,0,1-3-1.13,4.16,4.16,0,0,1-1.11-3,4.42,4.42,0,0,1,1.25-3.27,4.33,4.33,0,0,1,3.23-1.26,6.18,6.18,0,0,1,2.07.31V8.39a3.63,3.63,0,0,0-1.92-.51,2.53,2.53,0,0,0-1.91.75,2.75,2.75,0,0,0-.73,2,2.69,2.69,0,0,0,.69,1.94,2.4,2.4,0,0,0,1.84.73,3.93,3.93,0,0,0,2-.54Z" fill="#231f20"/>
      <path d="M72.67,14.47V12.6a3.59,3.59,0,0,0,2.31.85,2.93,2.93,0,0,0,.63-.06,1.27,1.27,0,0,0,.44-.18.87.87,0,0,0,.27-.27.64.64,0,0,0,.09-.34.77.77,0,0,0-.14-.44,1.69,1.69,0,0,0-.39-.35,3.74,3.74,0,0,0-.57-.32l-.72-.31a3.65,3.65,0,0,1-1.47-1,2.21,2.21,0,0,1-.49-1.43,2.2,2.2,0,0,1,1-1.91,3.11,3.11,0,0,1,1-.44,5.18,5.18,0,0,1,1.26-.15,8.06,8.06,0,0,1,1.17.08,5.06,5.06,0,0,1,.93.24V8.33a2.28,2.28,0,0,0-.46-.26,3.13,3.13,0,0,0-.51-.19,4.94,4.94,0,0,0-.53-.1,2.77,2.77,0,0,0-.49,0,2.68,2.68,0,0,0-.59.06A1.35,1.35,0,0,0,75,8a.78.78,0,0,0-.28.26.62.62,0,0,0-.1.35.63.63,0,0,0,.11.38,1.14,1.14,0,0,0,.31.31,4.4,4.4,0,0,0,.5.3l.66.29a7,7,0,0,1,.91.45,3.18,3.18,0,0,1,.69.54,2,2,0,0,1,.44.68,2.44,2.44,0,0,1,.15.89,2.34,2.34,0,0,1-.27,1.18,2.16,2.16,0,0,1-.72.78,2.94,2.94,0,0,1-1.06.42,5.91,5.91,0,0,1-1.28.13,7,7,0,0,1-1.32-.12A3.52,3.52,0,0,1,72.67,14.47Z" fill="#231f20"/>
      <path d="M81.68,14.8h-1.9V6.39h1.9Z" fill="#231f20"/>
      <path d="M86.67,12.24H83.46V11h3.21Z" fill="#231f20"/>
      <path d="M88.05,14.47V12.6a3.59,3.59,0,0,0,2.32.85,2.9,2.9,0,0,0,.62-.06,1.19,1.19,0,0,0,.44-.18.87.87,0,0,0,.27-.27.64.64,0,0,0,.09-.34.77.77,0,0,0-.14-.44,1.69,1.69,0,0,0-.39-.35,3.74,3.74,0,0,0-.57-.32L90,11.18a3.65,3.65,0,0,1-1.47-1A2.21,2.21,0,0,1,88,8.75a2.25,2.25,0,0,1,.26-1.13A2.33,2.33,0,0,1,89,6.84a3.11,3.11,0,0,1,1-.44,5.18,5.18,0,0,1,1.26-.15,8.06,8.06,0,0,1,1.17.08,4.86,4.86,0,0,1,.93.24V8.33A2.28,2.28,0,0,0,93,8.07a2.82,2.82,0,0,0-.51-.19,5.27,5.27,0,0,0-.52-.1,3,3,0,0,0-.5,0,2.74,2.74,0,0,0-.59.06,1.35,1.35,0,0,0-.44.18.78.78,0,0,0-.28.26.62.62,0,0,0-.1.35.63.63,0,0,0,.11.38,1.06,1.06,0,0,0,.32.31,3.5,3.5,0,0,0,.49.3l.67.29a7.55,7.55,0,0,1,.9.45,3.18,3.18,0,0,1,.69.54,2,2,0,0,1,.44.68,2.44,2.44,0,0,1,.15.89,2.34,2.34,0,0,1-.27,1.18,2.07,2.07,0,0,1-.72.78,2.94,2.94,0,0,1-1.06.42,5.91,5.91,0,0,1-1.28.13,7,7,0,0,1-1.32-.12A3.7,3.7,0,0,1,88.05,14.47Z" fill="#231f20"/>
      <path d="M98.31,14.73a2.8,2.8,0,0,1-1.24.21c-1.3,0-1.95-.68-1.95-2V10.16h-1V8.8h1V7.5L97,7V8.8h1.35v1.36H97v2.43q0,.93.75.93a1.19,1.19,0,0,0,.6-.17Z" fill="#231f20"/>
      <path d="M102.17,14.94a3.23,3.23,0,0,1-2.36-.84A3.05,3.05,0,0,1,99,11.82a3.07,3.07,0,0,1,.89-2.33,3.37,3.37,0,0,1,2.41-.84,3.18,3.18,0,0,1,2.34.84,3,3,0,0,1,.85,2.22,3.16,3.16,0,0,1-.87,2.36A3.27,3.27,0,0,1,102.17,14.94Zm0-4.87a1.26,1.26,0,0,0-1,.45,2,2,0,0,0-.36,1.28c0,1.15.46,1.72,1.39,1.72s1.33-.59,1.33-1.77S103.11,10.07,102.21,10.07Z" fill="#231f20"/>
      <path d="M110.56,10.47a1.55,1.55,0,0,0-.78-.19,1.14,1.14,0,0,0-1,.45,1.94,1.94,0,0,0-.34,1.2V14.8h-1.85v-6h1.85V9.91h0a1.6,1.6,0,0,1,1.58-1.22,1.17,1.17,0,0,1,.46.07Z" fill="#231f20"/>
      <path d="M116.41,14.8h-1.75v-.87h0a1.93,1.93,0,0,1-1.78,1,1.89,1.89,0,0,1-1.38-.49,1.79,1.79,0,0,1-.5-1.32c0-1.17.69-1.84,2.07-2l1.63-.22c0-.65-.36-1-1.07-1a3.64,3.64,0,0,0-2,.64V9.15a4.67,4.67,0,0,1,1.06-.35,5.7,5.7,0,0,1,1.22-.15,2.27,2.27,0,0,1,2.57,2.56Zm-1.74-2.44V12l-1.09.14c-.6.08-.9.35-.9.82a.67.67,0,0,0,.22.52.84.84,0,0,0,.59.2,1.1,1.1,0,0,0,.85-.36A1.29,1.29,0,0,0,114.67,12.36Z" fill="#231f20"/>
      <path d="M123.76,14.11a3.39,3.39,0,0,1-1,2.59,3.92,3.92,0,0,1-2.8.91,4.43,4.43,0,0,1-1.92-.34V15.71a3.68,3.68,0,0,0,1.87.54,2,2,0,0,0,1.45-.5,1.78,1.78,0,0,0,.52-1.34v-.48h0a2,2,0,0,1-1.87,1,2.25,2.25,0,0,1-1.82-.81,3.26,3.26,0,0,1-.67-2.16,3.63,3.63,0,0,1,.75-2.42,2.44,2.44,0,0,1,2-.9,1.82,1.82,0,0,1,1.64.84h0V8.8h1.85Zm-1.83-2.2v-.47a1.44,1.44,0,0,0-.34-1,1.06,1.06,0,0,0-.87-.4,1.13,1.13,0,0,0-1,.48,2.28,2.28,0,0,0-.35,1.35,1.93,1.93,0,0,0,.33,1.19,1.1,1.1,0,0,0,.92.43,1.13,1.13,0,0,0,.93-.44A1.83,1.83,0,0,0,121.93,11.91Z" fill="#231f20"/>
      <path d="M130.7,12.32h-3.92c.06.87.61,1.31,1.65,1.31a3.24,3.24,0,0,0,1.74-.47V14.5a4.68,4.68,0,0,1-2.16.44,3.09,3.09,0,0,1-2.26-.8,3,3,0,0,1-.8-2.25,3.24,3.24,0,0,1,.86-2.37A2.9,2.9,0,0,1,128,8.65a2.63,2.63,0,0,1,2,.78,3,3,0,0,1,.72,2.11ZM129,11.19c0-.86-.35-1.29-1-1.29a1,1,0,0,0-.77.37,1.65,1.65,0,0,0-.4.92Z" fill="#231f20"/>
    </g>
    <g>
      <path d="M150.33,35.58h-3.14V38.1h2.9v1.18h-2.9V42.8H145.8V34.39h4.53Z" fill="#1e1e1e"/>
      <path d="M152.36,35.54a.85.85,0,0,1-.57-.22.72.72,0,0,1-.24-.55.74.74,0,0,1,.24-.56.8.8,0,0,1,.57-.22.83.83,0,0,1,.59.22.74.74,0,0,1,.24.56.71.71,0,0,1-.24.54A.84.84,0,0,1,152.36,35.54ZM153,42.8h-1.36v-6H153Z" fill="#1e1e1e"/>
      <path d="M156.18,42.8h-1.37V33.91h1.37Z" fill="#1e1e1e"/>
      <path d="M163,40.16h-4.09a1.7,1.7,0,0,0,.51,1.29,1.91,1.91,0,0,0,1.34.45,3,3,0,0,0,1.77-.58v1.1a4.07,4.07,0,0,1-2.17.52,2.71,2.71,0,0,1-2.08-.82,3.28,3.28,0,0,1-.75-2.3,3.2,3.2,0,0,1,.83-2.28,2.71,2.71,0,0,1,2.06-.89,2.36,2.36,0,0,1,1.9.8,3.26,3.26,0,0,1,.68,2.19Zm-1.32-1a1.8,1.8,0,0,0-.34-1.14,1.16,1.16,0,0,0-.94-.4,1.32,1.32,0,0,0-1,.42,2,2,0,0,0-.5,1.12Z" fill="#1e1e1e"/>
      <path d="M164.09,42.46V41a2.31,2.31,0,0,0,.46.31,2.56,2.56,0,0,0,.56.24q.3.09.6.15a3.74,3.74,0,0,0,.55.05,2.4,2.4,0,0,0,1.31-.29,1,1,0,0,0,.43-.85,1,1,0,0,0-.14-.52,1.52,1.52,0,0,0-.4-.4,4.91,4.91,0,0,0-.61-.35L166.1,39c-.28-.15-.55-.3-.79-.46a3.8,3.8,0,0,1-.65-.52,2.09,2.09,0,0,1-.42-.64,2,2,0,0,1-.16-.84,1.93,1.93,0,0,1,.27-1,2.29,2.29,0,0,1,.7-.72,3.15,3.15,0,0,1,1-.42,4.87,4.87,0,0,1,1.14-.14,4.55,4.55,0,0,1,1.92.3v1.38a3,3,0,0,0-1.84-.52,3.34,3.34,0,0,0-.62.06,2,2,0,0,0-.55.19,1.2,1.2,0,0,0-.39.35.85.85,0,0,0-.15.51,1,1,0,0,0,.11.49,1.35,1.35,0,0,0,.35.37,3.07,3.07,0,0,0,.55.33c.21.11.46.23.75.35a9.48,9.48,0,0,1,.83.48,3.83,3.83,0,0,1,.68.56,2.33,2.33,0,0,1,.47.67,2,2,0,0,1,.18.85,2.11,2.11,0,0,1-.26,1.08,2.07,2.07,0,0,1-.7.71,2.88,2.88,0,0,1-1,.4,5.19,5.19,0,0,1-1.2.13,3.56,3.56,0,0,1-.52,0l-.63-.09a5,5,0,0,1-.61-.15A1.66,1.66,0,0,1,164.09,42.46Z" fill="#1e1e1e"/>
      <path d="M175.93,40.16h-4.09a1.74,1.74,0,0,0,.52,1.29,1.89,1.89,0,0,0,1.34.45,3,3,0,0,0,1.77-.58v1.1a4.07,4.07,0,0,1-2.17.52,2.71,2.71,0,0,1-2.08-.82,3.28,3.28,0,0,1-.75-2.3,3.15,3.15,0,0,1,.83-2.28,2.71,2.71,0,0,1,2.06-.89,2.36,2.36,0,0,1,1.9.8,3.26,3.26,0,0,1,.67,2.19Zm-1.31-1a1.8,1.8,0,0,0-.34-1.14,1.16,1.16,0,0,0-.94-.4,1.32,1.32,0,0,0-1,.42,2,2,0,0,0-.51,1.12Z" fill="#1e1e1e"/>
      <path d="M180.71,38.09a1.11,1.11,0,0,0-.71-.19,1.22,1.22,0,0,0-1,.54,2.45,2.45,0,0,0-.4,1.48V42.8h-1.36v-6h1.36V38h0a2.23,2.23,0,0,1,.61-1,1.44,1.44,0,0,1,.93-.35,1.21,1.21,0,0,1,.56.11Z" fill="#1e1e1e"/>
      <path d="M187.32,36.8l-2.32,6h-1.47l-2.21-6h1.48L184.13,41a3.76,3.76,0,0,1,.18.81h0a4.39,4.39,0,0,1,.17-.79l1.39-4.21Z" fill="#1e1e1e"/>
      <path d="M193.23,40.16h-4.09a1.7,1.7,0,0,0,.51,1.29,1.89,1.89,0,0,0,1.34.45,3,3,0,0,0,1.77-.58v1.1a4.07,4.07,0,0,1-2.17.52,2.71,2.71,0,0,1-2.08-.82,3.28,3.28,0,0,1-.75-2.3,3.2,3.2,0,0,1,.83-2.28,2.71,2.71,0,0,1,2.06-.89,2.36,2.36,0,0,1,1.9.8,3.26,3.26,0,0,1,.68,2.19Zm-1.32-1a1.8,1.8,0,0,0-.34-1.14,1.16,1.16,0,0,0-.94-.4,1.32,1.32,0,0,0-1,.42,2,2,0,0,0-.5,1.12Z" fill="#1e1e1e"/>
      <path d="M198,38.09a1.11,1.11,0,0,0-.71-.19,1.22,1.22,0,0,0-1,.54,2.45,2.45,0,0,0-.4,1.48V42.8h-1.36v-6h1.36V38h0a2.16,2.16,0,0,1,.62-1,1.39,1.39,0,0,1,.92-.35,1.21,1.21,0,0,1,.56.11Z" fill="#1e1e1e"/>
    </g>
    <g>
      <path d="M35.28,85.58H32.14V88.1H35v1.18h-2.9V92.8H30.75V84.39h4.53Z" fill="#1e1e1e"/>
      <path d="M37.31,85.54a.85.85,0,0,1-.57-.22.72.72,0,0,1-.24-.55.74.74,0,0,1,.24-.56.8.8,0,0,1,.57-.22.83.83,0,0,1,.59.22.74.74,0,0,1,.24.56.71.71,0,0,1-.24.54A.84.84,0,0,1,37.31,85.54ZM38,92.8H36.62v-6H38Z" fill="#1e1e1e"/>
      <path d="M41.12,92.8H39.76V83.91h1.36Z" fill="#1e1e1e"/>
      <path d="M48,90.16H43.88a1.74,1.74,0,0,0,.52,1.29,1.89,1.89,0,0,0,1.34.45,2.9,2.9,0,0,0,1.76-.58v1.1a4,4,0,0,1-2.16.52,2.7,2.7,0,0,1-2.08-.82,3.28,3.28,0,0,1-.75-2.3,3.15,3.15,0,0,1,.83-2.28,2.71,2.71,0,0,1,2.06-.89,2.36,2.36,0,0,1,1.9.8A3.26,3.26,0,0,1,48,89.64Zm-1.31-1a1.8,1.8,0,0,0-.34-1.14,1.16,1.16,0,0,0-.94-.4,1.36,1.36,0,0,0-1,.42,2,2,0,0,0-.5,1.12Z" fill="#1e1e1e"/>
      <path d="M49,92.46V91a2.64,2.64,0,0,0,.46.31,2.87,2.87,0,0,0,.57.24q.3.09.6.15a3.74,3.74,0,0,0,.55,0,2.42,2.42,0,0,0,1.31-.29,1,1,0,0,0,.43-.85.91.91,0,0,0-.15-.52,1.27,1.27,0,0,0-.4-.4,4.13,4.13,0,0,0-.6-.35L51.05,89c-.29-.15-.55-.3-.8-.46a3.72,3.72,0,0,1-.64-.52,2.32,2.32,0,0,1-.43-.64,2.17,2.17,0,0,1-.15-.84,2,2,0,0,1,.26-1,2.32,2.32,0,0,1,.71-.72,3.15,3.15,0,0,1,1-.42,4.81,4.81,0,0,1,1.14-.14,4.55,4.55,0,0,1,1.92.3v1.38a3,3,0,0,0-1.84-.52,3.26,3.26,0,0,0-.62.06,1.88,1.88,0,0,0-.55.19,1.2,1.2,0,0,0-.39.35.8.8,0,0,0-.16.51,1,1,0,0,0,.12.49,1.3,1.3,0,0,0,.34.37,3.47,3.47,0,0,0,.55.33c.22.11.47.23.76.35a9.48,9.48,0,0,1,.83.48,4.23,4.23,0,0,1,.68.56,2.33,2.33,0,0,1,.47.67,2,2,0,0,1,.17.85,2.11,2.11,0,0,1-.25,1.08,2.16,2.16,0,0,1-.7.71,3,3,0,0,1-1,.4,5.22,5.22,0,0,1-1.21.13,3.44,3.44,0,0,1-.51,0l-.63-.09a5,5,0,0,1-.61-.15A1.89,1.89,0,0,1,49,92.46Z" fill="#1e1e1e"/>
      <path d="M60.88,90.16H56.79a1.77,1.77,0,0,0,.51,1.29,1.93,1.93,0,0,0,1.35.45,2.9,2.9,0,0,0,1.76-.58v1.1a4,4,0,0,1-2.16.52,2.7,2.7,0,0,1-2.08-.82,3.28,3.28,0,0,1-.75-2.3,3.19,3.19,0,0,1,.82-2.28,2.72,2.72,0,0,1,2.06-.89,2.38,2.38,0,0,1,1.91.8,3.26,3.26,0,0,1,.67,2.19Zm-1.31-1a1.74,1.74,0,0,0-.35-1.14,1.14,1.14,0,0,0-.93-.4,1.34,1.34,0,0,0-1,.42,2,2,0,0,0-.5,1.12Z" fill="#1e1e1e"/>
      <path d="M65.66,88.09A1.13,1.13,0,0,0,65,87.9a1.22,1.22,0,0,0-1,.54,2.45,2.45,0,0,0-.4,1.48V92.8H62.18v-6h1.36V88h0a2.14,2.14,0,0,1,.61-1,1.41,1.41,0,0,1,.92-.35,1.22,1.22,0,0,1,.57.11Z" fill="#1e1e1e"/>
      <path d="M72.27,86.8,70,92.8H68.48l-2.21-6h1.47L69.07,91a3.85,3.85,0,0,1,.19.81h0a4.41,4.41,0,0,1,.16-.79l1.4-4.21Z" fill="#1e1e1e"/>
      <path d="M78.17,90.16H74.08a1.74,1.74,0,0,0,.52,1.29,1.89,1.89,0,0,0,1.34.45,2.9,2.9,0,0,0,1.76-.58v1.1a4,4,0,0,1-2.16.52,2.7,2.7,0,0,1-2.08-.82,3.28,3.28,0,0,1-.75-2.3,3.15,3.15,0,0,1,.83-2.28,2.69,2.69,0,0,1,2-.89,2.36,2.36,0,0,1,1.91.8,3.26,3.26,0,0,1,.67,2.19Zm-1.31-1a1.74,1.74,0,0,0-.35-1.14,1.13,1.13,0,0,0-.93-.4,1.36,1.36,0,0,0-1,.42,2,2,0,0,0-.5,1.12Z" fill="#1e1e1e"/>
      <path d="M83,88.09a1.13,1.13,0,0,0-.71-.19,1.22,1.22,0,0,0-1,.54,2.45,2.45,0,0,0-.4,1.48V92.8H79.47v-6h1.36V88h0a2.14,2.14,0,0,1,.61-1,1.44,1.44,0,0,1,.93-.35,1.21,1.21,0,0,1,.56.11Z" fill="#1e1e1e"/>
      <path d="M86.38,90h-3.2V89h3.2Z" fill="#1e1e1e"/>
      <path d="M90.71,92.94a3,3,0,0,1-2.22-.84,3.07,3.07,0,0,1-.83-2.23,3,3,0,0,1,3.19-3.22,2.87,2.87,0,0,1,2.19.83,3.17,3.17,0,0,1,.79,2.29,3.11,3.11,0,0,1-.85,2.3A3,3,0,0,1,90.71,92.94Zm.06-5.2a1.53,1.53,0,0,0-1.26.56,2.31,2.31,0,0,0-.46,1.53,2.18,2.18,0,0,0,.47,1.49,1.57,1.57,0,0,0,1.25.54A1.46,1.46,0,0,0,92,91.32a2.32,2.32,0,0,0,.43-1.51A2.38,2.38,0,0,0,92,88.28,1.46,1.46,0,0,0,90.77,87.74Z" fill="#1e1e1e"/>
      <path d="M94.84,92.61V91.35a2.74,2.74,0,0,0,1.68.58c.82,0,1.23-.24,1.23-.73a.58.58,0,0,0-.11-.35,1,1,0,0,0-.28-.25,2,2,0,0,0-.42-.2l-.54-.2a6,6,0,0,1-.67-.31,1.91,1.91,0,0,1-.49-.37,1.57,1.57,0,0,1-.3-.47,2,2,0,0,1-.1-.62,1.38,1.38,0,0,1,.21-.76,1.64,1.64,0,0,1,.55-.56,2.75,2.75,0,0,1,.78-.34,3.5,3.5,0,0,1,.91-.12,4.08,4.08,0,0,1,1.49.26V88.1a2.51,2.51,0,0,0-1.45-.44,1.73,1.73,0,0,0-.47.06,1,1,0,0,0-.35.14.63.63,0,0,0-.23.23.49.49,0,0,0-.08.29.58.58,0,0,0,.08.33.67.67,0,0,0,.24.23,2.36,2.36,0,0,0,.39.19l.52.18c.25.11.49.22.69.33a2.37,2.37,0,0,1,.53.37,1.58,1.58,0,0,1,.33.48,1.6,1.6,0,0,1,.12.65,1.46,1.46,0,0,1-.21.79,1.73,1.73,0,0,1-.57.57,2.46,2.46,0,0,1-.81.33,4.3,4.3,0,0,1-1,.11A4.06,4.06,0,0,1,94.84,92.61Z" fill="#1e1e1e"/>
      <path d="M105.84,92.8h-1.36v-1h0a2.17,2.17,0,0,1-2,1.16,2.2,2.2,0,0,1-1.78-.81,3.37,3.37,0,0,1-.66-2.19,3.65,3.65,0,0,1,.73-2.39,2.41,2.41,0,0,1,2-.9,1.89,1.89,0,0,1,1.77,1h0V83.91h1.36Zm-1.34-2.75v-.78a1.53,1.53,0,0,0-.42-1.09,1.39,1.39,0,0,0-1.06-.44,1.44,1.44,0,0,0-1.2.57,2.53,2.53,0,0,0-.43,1.57,2.29,2.29,0,0,0,.42,1.45,1.36,1.36,0,0,0,1.12.53,1.43,1.43,0,0,0,1.14-.51A2,2,0,0,0,104.5,90.05Z" fill="#1e1e1e"/>
      <path d="M108.3,85.54a.85.85,0,0,1-.57-.22.72.72,0,0,1-.24-.55.74.74,0,0,1,.24-.56.8.8,0,0,1,.57-.22.83.83,0,0,1,.59.22.74.74,0,0,1,.24.56.71.71,0,0,1-.24.54A.84.84,0,0,1,108.3,85.54ZM109,92.8h-1.36v-6H109Z" fill="#1e1e1e"/>
      <path d="M110.38,92.61V91.35a2.72,2.72,0,0,0,1.68.58c.82,0,1.23-.24,1.23-.73a.58.58,0,0,0-.11-.35,1,1,0,0,0-.28-.25,2,2,0,0,0-.42-.2l-.55-.2a6.8,6.8,0,0,1-.66-.31,1.91,1.91,0,0,1-.49-.37,1.57,1.57,0,0,1-.3-.47,2,2,0,0,1-.1-.62,1.38,1.38,0,0,1,.21-.76,1.64,1.64,0,0,1,.55-.56,2.75,2.75,0,0,1,.78-.34,3.5,3.5,0,0,1,.91-.12,4.08,4.08,0,0,1,1.49.26V88.1a2.51,2.51,0,0,0-1.45-.44,1.68,1.68,0,0,0-.47.06,1,1,0,0,0-.35.14.63.63,0,0,0-.23.23.49.49,0,0,0-.08.29.58.58,0,0,0,.08.33.67.67,0,0,0,.24.23,2.36,2.36,0,0,0,.39.19l.52.18c.25.11.49.22.69.33a2.1,2.1,0,0,1,.52.37,1.45,1.45,0,0,1,.34.48,1.6,1.6,0,0,1,.12.65,1.38,1.38,0,0,1-.22.79,1.69,1.69,0,0,1-.56.57,2.46,2.46,0,0,1-.81.33,4.37,4.37,0,0,1-1,.11A4,4,0,0,1,110.38,92.61Z" fill="#1e1e1e"/>
      <path d="M121.37,92.8h-1.72l-2.34-2.89h0V92.8h-1.37V83.91h1.37v5.63h0l2.21-2.74h1.63l-2.48,2.89Z" fill="#1e1e1e"/>
    </g>
    <g>
      <path d="M292.32,92.61V91.35a2.76,2.76,0,0,0,1.68.58c.82,0,1.23-.24,1.23-.73a.58.58,0,0,0-.11-.35,1,1,0,0,0-.28-.25,2,2,0,0,0-.42-.2l-.54-.2a6,6,0,0,1-.67-.31,1.91,1.91,0,0,1-.49-.37,1.57,1.57,0,0,1-.3-.47,2,2,0,0,1-.1-.62,1.38,1.38,0,0,1,.21-.76,1.73,1.73,0,0,1,.55-.56,2.75,2.75,0,0,1,.78-.34,3.5,3.5,0,0,1,.91-.12,4.08,4.08,0,0,1,1.49.26V88.1a2.51,2.51,0,0,0-1.45-.44,1.73,1.73,0,0,0-.47.06,1,1,0,0,0-.35.14.63.63,0,0,0-.23.23.49.49,0,0,0-.08.29.58.58,0,0,0,.08.33.67.67,0,0,0,.24.23,2.36,2.36,0,0,0,.39.19l.52.18a7.52,7.52,0,0,1,.69.33,2.37,2.37,0,0,1,.53.37,1.58,1.58,0,0,1,.33.48,1.6,1.6,0,0,1,.12.65,1.46,1.46,0,0,1-.21.79,1.73,1.73,0,0,1-.57.57,2.46,2.46,0,0,1-.81.33,4.3,4.3,0,0,1-1,.11A4.06,4.06,0,0,1,292.32,92.61Z" fill="#1e1e1e"/>
      <path d="M302.47,92.8h-1.32v-.94h0a2,2,0,0,1-1.82,1.08,1.94,1.94,0,0,1-1.39-.48,1.71,1.71,0,0,1-.5-1.28c0-1.13.65-1.79,2-2l1.78-.25c0-.85-.41-1.28-1.22-1.28a2.85,2.85,0,0,0-1.93.74V87.22a4.16,4.16,0,0,1,2.19-.57,2,2,0,0,1,2.27,2.24Zm-1.31-3L299.9,90a1.93,1.93,0,0,0-.88.29.83.83,0,0,0-.3.73.8.8,0,0,0,.27.62,1.09,1.09,0,0,0,.73.24,1.34,1.34,0,0,0,1-.43,1.56,1.56,0,0,0,.41-1.1Z" fill="#1e1e1e"/>
      <path d="M309.33,86.8l-2.71,7a2.62,2.62,0,0,1-2.37,1.86,2.84,2.84,0,0,1-.71-.08V94.41a1.9,1.9,0,0,0,.58.11,1.21,1.21,0,0,0,1.14-.75l.41-1-2.39-6h1.51l1.43,4.35c0,.06,0,.2.1.44h0c0-.09.06-.23.11-.42L308,86.8Z" fill="#1e1e1e"/>
      <path d="M312.8,92.94a3,3,0,0,1-2.22-.84,3.07,3.07,0,0,1-.83-2.23,3.17,3.17,0,0,1,.87-2.37,3.21,3.21,0,0,1,2.33-.85,2.87,2.87,0,0,1,2.19.83,3.21,3.21,0,0,1,.78,2.29,3.14,3.14,0,0,1-.84,2.3A3.05,3.05,0,0,1,312.8,92.94Zm.07-5.2a1.52,1.52,0,0,0-1.26.56,2.31,2.31,0,0,0-.47,1.53,2.24,2.24,0,0,0,.47,1.49,1.58,1.58,0,0,0,1.26.54,1.49,1.49,0,0,0,1.23-.54,2.32,2.32,0,0,0,.43-1.51,2.38,2.38,0,0,0-.43-1.53A1.49,1.49,0,0,0,312.87,87.74Z" fill="#1e1e1e"/>
      <path d="M322.27,92.8H317v-.65a2.27,2.27,0,0,1,.11-.75,2.8,2.8,0,0,1,.3-.66,3.41,3.41,0,0,1,.44-.58,5.43,5.43,0,0,1,.54-.53l.58-.49.59-.48c.18-.15.34-.3.49-.44a2.65,2.65,0,0,0,.38-.46,1.89,1.89,0,0,0,.25-.49,1.79,1.79,0,0,0,.08-.57,1.47,1.47,0,0,0-.1-.58,1.15,1.15,0,0,0-.28-.42,1.36,1.36,0,0,0-.44-.25,1.63,1.63,0,0,0-.55-.08,2.51,2.51,0,0,0-1.05.24,3.57,3.57,0,0,0-1,.72V85c.18-.13.35-.24.52-.34a5.38,5.38,0,0,1,.55-.24,3.63,3.63,0,0,1,.59-.14,4.65,4.65,0,0,1,.66,0,3.39,3.39,0,0,1,1,.15,2.34,2.34,0,0,1,.79.44,2.07,2.07,0,0,1,.5.72,2.62,2.62,0,0,1,.18,1,3.26,3.26,0,0,1-.12.92,3.53,3.53,0,0,1-.36.76,4.26,4.26,0,0,1-.56.66c-.22.22-.46.43-.73.66l-.68.53c-.23.18-.43.35-.61.51a2.73,2.73,0,0,0-.43.5.91.91,0,0,0-.17.5v0h3.79Z" fill="#1e1e1e"/>
      <path d="M324.66,85.54a.85.85,0,0,1-.58-.22.75.75,0,0,1-.23-.55.77.77,0,0,1,.23-.56.87.87,0,0,1,1.16,0,.74.74,0,0,1,.24.56.71.71,0,0,1-.24.54A.82.82,0,0,1,324.66,85.54Zm.67,7.26H324v-6h1.36Z" fill="#1e1e1e"/>
      <path d="M328.47,92.8H327.1V83.91h1.37Z" fill="#1e1e1e"/>
      <path d="M333.63,85a1.18,1.18,0,0,0-.63-.16c-.66,0-1,.37-1,1.12v.82h1.4v1.06H332V92.8h-1.36V87.86h-1V86.8h1v-1a1.89,1.89,0,0,1,.62-1.49,2.25,2.25,0,0,1,1.55-.55,2.16,2.16,0,0,1,.8.11Z" fill="#1e1e1e"/>
      <path d="M335.76,91.91h0v3.65h-1.36V86.8h1.36v1h0a2.22,2.22,0,0,1,2-1.2,2.15,2.15,0,0,1,1.78.81,3.38,3.38,0,0,1,.64,2.15A3.78,3.78,0,0,1,339.5,92a2.39,2.39,0,0,1-2,.9A2,2,0,0,1,335.76,91.91Zm0-2.37v.75a1.57,1.57,0,0,0,.42,1.11,1.47,1.47,0,0,0,2.25-.13,2.71,2.71,0,0,0,.43-1.64,2.15,2.15,0,0,0-.4-1.39,1.33,1.33,0,0,0-1.09-.5,1.45,1.45,0,0,0-1.16.51A1.91,1.91,0,0,0,335.72,89.54Z" fill="#1e1e1e"/>
      <path d="M347.07,92.31q0,3.31-3.32,3.31a5,5,0,0,1-2.05-.39V94a3.76,3.76,0,0,0,1.87.57,1.88,1.88,0,0,0,2.14-2.11v-.65h0a2.35,2.35,0,0,1-3.79.35,3.24,3.24,0,0,1-.67-2.15,3.78,3.78,0,0,1,.72-2.43,2.4,2.4,0,0,1,2-.91,1.91,1.91,0,0,1,1.76,1h0V86.8h1.36Zm-1.35-2.26v-.78a1.53,1.53,0,0,0-.42-1.08,1.38,1.38,0,0,0-1.05-.45,1.46,1.46,0,0,0-1.21.57,2.58,2.58,0,0,0-.43,1.6,2.19,2.19,0,0,0,.42,1.41,1.33,1.33,0,0,0,1.11.53,1.45,1.45,0,0,0,1.14-.5A2,2,0,0,0,345.72,90.05Z" fill="#1e1e1e"/>
      <path d="M352.32,88.09a1.13,1.13,0,0,0-.71-.19,1.22,1.22,0,0,0-1,.54,2.45,2.45,0,0,0-.4,1.48V92.8h-1.36v-6h1.36V88h0a2.14,2.14,0,0,1,.61-1,1.43,1.43,0,0,1,.92-.35,1.22,1.22,0,0,1,.57.11Z" fill="#1e1e1e"/>
      <path d="M354,85.54a.85.85,0,0,1-.57-.22.71.71,0,0,1-.23-.55.73.73,0,0,1,.23-.56A.8.8,0,0,1,354,84a.83.83,0,0,1,.59.22.74.74,0,0,1,.24.56.71.71,0,0,1-.24.54A.84.84,0,0,1,354,85.54Zm.68,7.26h-1.36v-6h1.36Z" fill="#1e1e1e"/>
      <path d="M361.87,92.8h-1.36v-1h0a2.35,2.35,0,0,1-3.8.35,3.37,3.37,0,0,1-.66-2.19,3.65,3.65,0,0,1,.73-2.39,2.41,2.41,0,0,1,2-.9,1.89,1.89,0,0,1,1.77,1h0V83.91h1.36Zm-1.34-2.75v-.78a1.53,1.53,0,0,0-.42-1.09,1.41,1.41,0,0,0-1.06-.44,1.43,1.43,0,0,0-1.2.57,2.53,2.53,0,0,0-.43,1.57,2.29,2.29,0,0,0,.41,1.45,1.38,1.38,0,0,0,1.13.53,1.41,1.41,0,0,0,1.13-.51A2,2,0,0,0,360.53,90.05Z" fill="#1e1e1e"/>
      <path d="M368.72,90.16h-4.09a1.74,1.74,0,0,0,.52,1.29,1.89,1.89,0,0,0,1.34.45,2.9,2.9,0,0,0,1.76-.58v1.1a4,4,0,0,1-2.16.52,2.7,2.7,0,0,1-2.08-.82,3.28,3.28,0,0,1-.75-2.3,3.15,3.15,0,0,1,.83-2.28,2.71,2.71,0,0,1,2.06-.89,2.36,2.36,0,0,1,1.9.8,3.26,3.26,0,0,1,.67,2.19Zm-1.31-1a1.8,1.8,0,0,0-.34-1.14,1.16,1.16,0,0,0-.94-.4,1.36,1.36,0,0,0-1,.42,2,2,0,0,0-.5,1.12Z" fill="#1e1e1e"/>
      <path d="M375,92.8h-5.27v-.65a2.56,2.56,0,0,1,.11-.75,2.8,2.8,0,0,1,.3-.66,3.41,3.41,0,0,1,.44-.58c.17-.18.35-.36.54-.53l.58-.49.59-.48c.18-.15.34-.3.49-.44a2.65,2.65,0,0,0,.38-.46,1.89,1.89,0,0,0,.25-.49,1.79,1.79,0,0,0,.09-.57,1.46,1.46,0,0,0-.11-.58,1.15,1.15,0,0,0-.28-.42,1.36,1.36,0,0,0-.44-.25,1.63,1.63,0,0,0-.55-.08,2.54,2.54,0,0,0-1.05.24,3.57,3.57,0,0,0-1,.72V85a5.24,5.24,0,0,1,.53-.34,4.41,4.41,0,0,1,.54-.24,3.9,3.9,0,0,1,.59-.14,4.65,4.65,0,0,1,.66,0,3.39,3.39,0,0,1,1,.15,2.34,2.34,0,0,1,.79.44,1.94,1.94,0,0,1,.5.72,2.62,2.62,0,0,1,.18,1,3.26,3.26,0,0,1-.12.92,3.53,3.53,0,0,1-.36.76,4.26,4.26,0,0,1-.56.66c-.22.22-.46.43-.73.66l-.68.53-.61.51a2.73,2.73,0,0,0-.43.5.91.91,0,0,0-.17.5v0H375Z" fill="#1e1e1e"/>
    </g>
    <g>
      <path d="M301.74,149.61v-1.26a2.76,2.76,0,0,0,1.68.58c.82,0,1.23-.24,1.23-.73a.58.58,0,0,0-.1-.35,1,1,0,0,0-.29-.25,2,2,0,0,0-.42-.2l-.54-.2a6,6,0,0,1-.67-.31,2.1,2.1,0,0,1-.49-.37,1.57,1.57,0,0,1-.3-.47,2,2,0,0,1-.09-.62,1.37,1.37,0,0,1,.2-.76,1.73,1.73,0,0,1,.55-.56,2.7,2.7,0,0,1,.79-.34,3.37,3.37,0,0,1,.9-.12,4,4,0,0,1,1.49.26v1.19a2.49,2.49,0,0,0-1.45-.44,1.73,1.73,0,0,0-.47.06,1.22,1.22,0,0,0-.35.14.72.72,0,0,0-.23.23.57.57,0,0,0-.08.29.67.67,0,0,0,.08.33.88.88,0,0,0,.24.23,2.36,2.36,0,0,0,.39.19l.52.18a7.52,7.52,0,0,1,.69.33,2.37,2.37,0,0,1,.53.37,1.58,1.58,0,0,1,.33.48,1.6,1.6,0,0,1,.12.65,1.46,1.46,0,0,1-.21.79,1.79,1.79,0,0,1-.56.57,2.61,2.61,0,0,1-.82.33,4.3,4.3,0,0,1-1,.11A4.06,4.06,0,0,1,301.74,149.61Z" fill="#1e1e1e"/>
      <path d="M310.45,149.73a2.36,2.36,0,0,1-1.05.2,1.51,1.51,0,0,1-1.74-1.68v-3.39h-1V143.8h1v-1.39L309,142v1.78h1.43v1.06H309v3a1.16,1.16,0,0,0,.19.76.77.77,0,0,0,.64.23.91.91,0,0,0,.6-.2Z" fill="#1e1e1e"/>
      <path d="M314.21,149.94a3,3,0,0,1-2.21-.84,3,3,0,0,1-.83-2.23,3,3,0,0,1,3.19-3.22,2.87,2.87,0,0,1,2.19.83,3.62,3.62,0,0,1-.06,4.59A3,3,0,0,1,314.21,149.94Zm.07-5.2a1.53,1.53,0,0,0-1.26.56,2.31,2.31,0,0,0-.46,1.53,2.23,2.23,0,0,0,.46,1.49,1.59,1.59,0,0,0,1.26.54,1.49,1.49,0,0,0,1.23-.54,2.32,2.32,0,0,0,.43-1.51,2.38,2.38,0,0,0-.43-1.53A1.49,1.49,0,0,0,314.28,144.74Z" fill="#1e1e1e"/>
      <path d="M322.2,145.09a1.11,1.11,0,0,0-.71-.19,1.22,1.22,0,0,0-1,.54,2.45,2.45,0,0,0-.4,1.48v2.88h-1.36v-6h1.36V145h0a2.23,2.23,0,0,1,.61-1,1.44,1.44,0,0,1,.93-.35,1.21,1.21,0,0,1,.56.11Z" fill="#1e1e1e"/>
      <path d="M327.77,149.8h-1.32v-.94h0a2,2,0,0,1-1.82,1.08,1.9,1.9,0,0,1-1.38-.48,1.67,1.67,0,0,1-.5-1.28q0-1.69,1.95-2l1.78-.25c0-.85-.4-1.28-1.21-1.28a2.88,2.88,0,0,0-1.94.74v-1.19a4.18,4.18,0,0,1,2.19-.57,2,2,0,0,1,2.28,2.24Zm-1.32-3-1.26.17a2,2,0,0,0-.88.29.85.85,0,0,0-.29.73.8.8,0,0,0,.27.62,1.05,1.05,0,0,0,.73.24,1.35,1.35,0,0,0,1-.43,1.55,1.55,0,0,0,.4-1.1Z" fill="#1e1e1e"/>
      <path d="M334.89,149.31q0,3.31-3.33,3.31a5,5,0,0,1-2-.39V151a3.73,3.73,0,0,0,1.87.57,1.88,1.88,0,0,0,2.14-2.11v-.65h0a2.35,2.35,0,0,1-3.79.35A3.24,3.24,0,0,1,329,147a3.78,3.78,0,0,1,.72-2.43,2.4,2.4,0,0,1,2-.91,1.91,1.91,0,0,1,1.76,1h0v-.83h1.36Zm-1.35-2.26v-.78a1.53,1.53,0,0,0-.42-1.08,1.38,1.38,0,0,0-1.05-.45,1.44,1.44,0,0,0-1.21.57,2.58,2.58,0,0,0-.43,1.6,2.19,2.19,0,0,0,.42,1.41,1.33,1.33,0,0,0,1.11.53,1.46,1.46,0,0,0,1.14-.5A2,2,0,0,0,333.54,147.05Z" fill="#1e1e1e"/>
      <path d="M341.74,147.16h-4.09a1.7,1.7,0,0,0,.51,1.29,1.89,1.89,0,0,0,1.34.45,3,3,0,0,0,1.77-.58v1.1a4.07,4.07,0,0,1-2.17.52,2.71,2.71,0,0,1-2.08-.82,3.28,3.28,0,0,1-.75-2.3,3.15,3.15,0,0,1,.83-2.28,2.71,2.71,0,0,1,2.06-.89,2.36,2.36,0,0,1,1.9.8,3.26,3.26,0,0,1,.68,2.19Zm-1.32-1a1.8,1.8,0,0,0-.34-1.14,1.16,1.16,0,0,0-.94-.4,1.32,1.32,0,0,0-1,.42,2,2,0,0,0-.5,1.12Z" fill="#1e1e1e"/>
      <path d="M346.19,147H343v-1h3.2Z" fill="#1e1e1e"/>
      <path d="M353.2,149.8h-1.36v-3.39c0-1.12-.4-1.68-1.19-1.68a1.31,1.31,0,0,0-1,.47,1.71,1.71,0,0,0-.4,1.17v3.43h-1.37v-6h1.37v1h0a2.14,2.14,0,0,1,1.95-1.14,1.82,1.82,0,0,1,1.49.64,2.88,2.88,0,0,1,.52,1.84Z" fill="#1e1e1e"/>
      <path d="M354.48,149.61v-1.26a2.76,2.76,0,0,0,1.68.58c.82,0,1.23-.24,1.23-.73a.58.58,0,0,0-.1-.35,1,1,0,0,0-.29-.25,2,2,0,0,0-.42-.2l-.54-.2a6,6,0,0,1-.67-.31,2.1,2.1,0,0,1-.49-.37,1.57,1.57,0,0,1-.3-.47,2,2,0,0,1-.09-.62,1.37,1.37,0,0,1,.2-.76,1.73,1.73,0,0,1,.55-.56,2.7,2.7,0,0,1,.79-.34,3.37,3.37,0,0,1,.9-.12,4,4,0,0,1,1.49.26v1.19a2.49,2.49,0,0,0-1.45-.44,1.73,1.73,0,0,0-.47.06,1.22,1.22,0,0,0-.35.14.72.72,0,0,0-.23.23.57.57,0,0,0-.08.29.67.67,0,0,0,.08.33.88.88,0,0,0,.24.23,2.36,2.36,0,0,0,.39.19l.52.18a7.52,7.52,0,0,1,.69.33,2.37,2.37,0,0,1,.53.37,1.58,1.58,0,0,1,.33.48,1.6,1.6,0,0,1,.12.65,1.46,1.46,0,0,1-.21.79,1.79,1.79,0,0,1-.56.57,2.61,2.61,0,0,1-.82.33,4.3,4.3,0,0,1-1,.11A4.06,4.06,0,0,1,354.48,149.61Z" fill="#1e1e1e"/>
      <path d="M365.49,149.31q0,3.31-3.32,3.31a5,5,0,0,1-2.05-.39V151a3.76,3.76,0,0,0,1.87.57,1.88,1.88,0,0,0,2.14-2.11v-.65h0a2.36,2.36,0,0,1-3.8.35,3.29,3.29,0,0,1-.67-2.15,3.78,3.78,0,0,1,.72-2.43,2.4,2.4,0,0,1,2-.91,1.92,1.92,0,0,1,1.77,1h0v-.83h1.36Zm-1.35-2.26v-.78a1.53,1.53,0,0,0-.42-1.08,1.37,1.37,0,0,0-1-.45,1.43,1.43,0,0,0-1.21.57,2.58,2.58,0,0,0-.44,1.6,2.19,2.19,0,0,0,.42,1.41,1.33,1.33,0,0,0,1.11.53,1.45,1.45,0,0,0,1.14-.5A1.9,1.9,0,0,0,364.14,147.05Z" fill="#1e1e1e"/>
      <path d="M303.85,164.2h-1.09l-.89-2.36h-3.56l-.84,2.36h-1.1l3.22-8.41h1Zm-2.3-3.24-1.32-3.58a2.71,2.71,0,0,1-.13-.57h0a3.38,3.38,0,0,1-.14.57L298.63,161Z" fill="#1e1e1e"/>
      <path d="M305.92,164.2h-1v-8.89h1Z" fill="#1e1e1e"/>
      <path d="M308.82,164.2h-1v-8.89h1Z" fill="#1e1e1e"/>
      <path d="M313.28,164.34a2.79,2.79,0,0,1-2.13-.84,3.14,3.14,0,0,1-.79-2.23,3.27,3.27,0,0,1,.82-2.37,3,3,0,0,1,2.24-.85,2.69,2.69,0,0,1,2.09.83,3.29,3.29,0,0,1,.75,2.29,3.21,3.21,0,0,1-.81,2.3A2.82,2.82,0,0,1,313.28,164.34Zm.07-5.48a1.84,1.84,0,0,0-1.47.63,2.59,2.59,0,0,0-.54,1.74,2.41,2.41,0,0,0,.55,1.68,1.85,1.85,0,0,0,1.46.62,1.73,1.73,0,0,0,1.43-.61,2.62,2.62,0,0,0,.5-1.71,2.71,2.71,0,0,0-.5-1.74A1.76,1.76,0,0,0,313.35,158.86Z" fill="#1e1e1e"/>
      <path d="M325.36,158.2l-1.8,6h-1l-1.23-4.3a2.81,2.81,0,0,1-.1-.56h0a2.51,2.51,0,0,1-.12.55l-1.34,4.31h-1l-1.81-6h1l1.24,4.51a2.84,2.84,0,0,1,.08.54h.05a2.2,2.2,0,0,1,.1-.55l1.38-4.5h.88l1.25,4.52a3.12,3.12,0,0,1,.08.54h0a2.61,2.61,0,0,1,.1-.54l1.22-4.52Z" fill="#1e1e1e"/>
      <path d="M334.86,156.68h-2.43v7.52h-1v-7.52H329v-.89h5.83Z" fill="#1e1e1e"/>
      <path d="M341.34,163.84a4.92,4.92,0,0,1-2.32.5,3.72,3.72,0,0,1-2.87-1.16,4.26,4.26,0,0,1-1.08-3,4.47,4.47,0,0,1,1.21-3.26,4.14,4.14,0,0,1,3.08-1.24,5,5,0,0,1,2,.35v1.05a4,4,0,0,0-2-.51,3.07,3.07,0,0,0-2.34,1,3.64,3.64,0,0,0-.9,2.58,3.47,3.47,0,0,0,.84,2.45,2.86,2.86,0,0,0,2.21.91,4.2,4.2,0,0,0,2.19-.56Z" fill="#1e1e1e"/>
      <path d="M344,161v3.18h-1v-8.41h2.31a3.06,3.06,0,0,1,2.09.66,2.35,2.35,0,0,1,.74,1.85,2.55,2.55,0,0,1-.83,2,3.13,3.13,0,0,1-2.22.76Zm0-4.34v3.45h1a2.33,2.33,0,0,0,1.56-.47,1.64,1.64,0,0,0,.54-1.31c0-1.11-.66-1.67-2-1.67Z" fill="#1e1e1e"/>
      <path d="M352.48,161.85a2.29,2.29,0,0,1,.11-.67,2.6,2.6,0,0,1,.3-.63,2.43,2.43,0,0,1,.49-.53,2.22,2.22,0,0,1,.65-.38,2.52,2.52,0,0,1-.86-.79,1.79,1.79,0,0,1-.33-1,2,2,0,0,1,.18-.86,2.1,2.1,0,0,1,.5-.68,2.34,2.34,0,0,1,.75-.45,2.85,2.85,0,0,1,.94-.16,2.62,2.62,0,0,1,.94.17,2.34,2.34,0,0,1,.75.45,2.08,2.08,0,0,1,.49.68,2,2,0,0,1,.18.85,1.86,1.86,0,0,1-.32,1,2.62,2.62,0,0,1-.86.79,2.22,2.22,0,0,1,.65.38,2.65,2.65,0,0,1,.48.53,3.07,3.07,0,0,1,.31.63,2.27,2.27,0,0,1,.1.67,2.56,2.56,0,0,1-.2,1,2.29,2.29,0,0,1-.56.78,2.55,2.55,0,0,1-.86.51,3.45,3.45,0,0,1-2.2,0,2.55,2.55,0,0,1-.86-.51,2.46,2.46,0,0,1-.57-.78A2.56,2.56,0,0,1,352.48,161.85Zm1-.08a2,2,0,0,0,.12.71,1.66,1.66,0,0,0,.34.54,1.5,1.5,0,0,0,.54.34,1.92,1.92,0,0,0,.69.12,1.87,1.87,0,0,0,.68-.12,1.54,1.54,0,0,0,.89-.89,1.94,1.94,0,0,0,.13-.7,1.84,1.84,0,0,0-.12-.66,1.62,1.62,0,0,0-.35-.54,1.54,1.54,0,0,0-.53-.37,1.75,1.75,0,0,0-.7-.14,1.86,1.86,0,0,0-.67.13,1.58,1.58,0,0,0-.53.35,1.7,1.7,0,0,0-.36.54A1.93,1.93,0,0,0,353.52,161.77Zm.3-3.9a1.47,1.47,0,0,0,.11.56,1.23,1.23,0,0,0,.3.44,1.32,1.32,0,0,0,.44.3,1.38,1.38,0,0,0,1.08,0,1.38,1.38,0,0,0,.75-.75,1.42,1.42,0,0,0,.11-.55,1.47,1.47,0,0,0-.11-.56,1.43,1.43,0,0,0-.74-.74,1.46,1.46,0,0,0-1.11,0,1.55,1.55,0,0,0-.44.3,1.34,1.34,0,0,0-.29.45A1.68,1.68,0,0,0,353.82,157.87Z" fill="#1e1e1e"/>
      <path d="M364.41,161.53a3.15,3.15,0,0,1-.2,1.13,2.62,2.62,0,0,1-.55.89,2.26,2.26,0,0,1-.84.58,2.59,2.59,0,0,1-1.05.21,2.52,2.52,0,0,1-1.14-.26,2.43,2.43,0,0,1-.84-.76,3.64,3.64,0,0,1-.54-1.21,6.61,6.61,0,0,1-.18-1.61,7.23,7.23,0,0,1,.25-2A4.68,4.68,0,0,1,360,157a3.24,3.24,0,0,1,1.08-1,2.89,2.89,0,0,1,1.41-.35,3.45,3.45,0,0,1,1.4.24v.91a3,3,0,0,0-1.38-.33,2,2,0,0,0-1,.25,2.26,2.26,0,0,0-.77.71,3.54,3.54,0,0,0-.5,1.11,5.89,5.89,0,0,0-.17,1.45h0a2,2,0,0,1,1.92-1.05,2.4,2.4,0,0,1,1,.19,2,2,0,0,1,.76.53,2.35,2.35,0,0,1,.48.81A3.23,3.23,0,0,1,364.41,161.53Zm-1,.12a2.79,2.79,0,0,0-.11-.79,2.14,2.14,0,0,0-.32-.6,1.3,1.3,0,0,0-.52-.37,1.67,1.67,0,0,0-.69-.14,1.59,1.59,0,0,0-.66.14,1.77,1.77,0,0,0-.53.36,1.93,1.93,0,0,0-.35.54,1.84,1.84,0,0,0-.12.66,2.64,2.64,0,0,0,.12.81,2.08,2.08,0,0,0,.35.66,1.6,1.6,0,0,0,.53.44,1.39,1.39,0,0,0,.68.16,1.45,1.45,0,0,0,.66-.14A1.48,1.48,0,0,0,363,163a1.77,1.77,0,0,0,.33-.59A2.29,2.29,0,0,0,363.43,161.65Z" fill="#1e1e1e"/>
      <path d="M370.87,160a8.68,8.68,0,0,1-.19,1.87,4.41,4.41,0,0,1-.55,1.37,2.4,2.4,0,0,1-.89.85,2.33,2.33,0,0,1-1.19.29,2.22,2.22,0,0,1-2-1.09,4,4,0,0,1-.52-1.31,8,8,0,0,1-.17-1.78,9.35,9.35,0,0,1,.18-1.94,4.38,4.38,0,0,1,.54-1.42,2.36,2.36,0,0,1,2.11-1.15Q370.87,155.65,370.87,160Zm-1,.09c0-2.39-.56-3.58-1.7-3.58s-1.8,1.21-1.8,3.65c0,2.27.59,3.4,1.76,3.4S369.88,162.37,369.88,160.05Z" fill="#1e1e1e"/>
      <path d="M300.61,178.6h-1.09l-.89-2.36h-3.56l-.84,2.36h-1.09l3.22-8.41h1Zm-2.3-3.24L297,171.77a4.39,4.39,0,0,1-.13-.56h0a3.13,3.13,0,0,1-.13.56l-1.31,3.59Z" fill="#1e1e1e"/>
      <path d="M302.68,178.6h-1v-8.89h1Z" fill="#1e1e1e"/>
      <path d="M305.59,178.6h-1v-8.89h1Z" fill="#1e1e1e"/>
      <path d="M310,178.74a2.79,2.79,0,0,1-2.12-.84,3.14,3.14,0,0,1-.8-2.23,3.27,3.27,0,0,1,.83-2.37,3,3,0,0,1,2.23-.85,2.7,2.7,0,0,1,2.1.83,3.29,3.29,0,0,1,.75,2.29,3.21,3.21,0,0,1-.81,2.3A2.84,2.84,0,0,1,310,178.74Zm.07-5.48a1.83,1.83,0,0,0-1.46.63,2.59,2.59,0,0,0-.54,1.74,2.46,2.46,0,0,0,.54,1.68,1.87,1.87,0,0,0,1.46.62,1.73,1.73,0,0,0,1.43-.61,2.57,2.57,0,0,0,.51-1.71,2.65,2.65,0,0,0-.51-1.74A1.76,1.76,0,0,0,310.11,173.26Z" fill="#1e1e1e"/>
      <path d="M322.12,172.6l-1.79,6h-1l-1.24-4.3a2.85,2.85,0,0,1-.09-.56h0a3.48,3.48,0,0,1-.13.55l-1.34,4.31h-1l-1.82-6h1l1.24,4.51a2.72,2.72,0,0,1,.09.54h0a2.24,2.24,0,0,1,.11-.55l1.38-4.5h.88l1.24,4.52a3,3,0,0,1,.09.54h.05a2.08,2.08,0,0,1,.1-.54l1.21-4.52Z" fill="#1e1e1e"/>
      <path d="M331.62,171.08H329.2v7.52h-1v-7.52h-2.42v-.89h5.83Z" fill="#1e1e1e"/>
      <path d="M338.1,178.24a4.89,4.89,0,0,1-2.32.5,3.75,3.75,0,0,1-2.87-1.16,4.26,4.26,0,0,1-1.08-3,4.48,4.48,0,0,1,1.22-3.26,4.12,4.12,0,0,1,3.07-1.24,4.91,4.91,0,0,1,2,.35v1a4,4,0,0,0-2-.51,3.09,3.09,0,0,0-2.35,1,3.64,3.64,0,0,0-.9,2.58,3.43,3.43,0,0,0,.85,2.45,2.84,2.84,0,0,0,2.2.91,4.17,4.17,0,0,0,2.19-.56Z" fill="#1e1e1e"/>
      <path d="M340.8,175.42v3.18h-1v-8.41h2.31a3,3,0,0,1,2.09.66,2.32,2.32,0,0,1,.74,1.85,2.54,2.54,0,0,1-.82,2,3.13,3.13,0,0,1-2.22.76Zm0-4.34v3.45h1a2.28,2.28,0,0,0,1.55-.47,1.64,1.64,0,0,0,.54-1.31c0-1.11-.66-1.67-2-1.67Z" fill="#1e1e1e"/>
      <path d="M354.3,176.22a2.46,2.46,0,0,1-.21,1,2.25,2.25,0,0,1-.6.8,2.74,2.74,0,0,1-.94.51,3.78,3.78,0,0,1-1.2.18,3.44,3.44,0,0,1-1.91-.46v-1a3.06,3.06,0,0,0,1.95.67,2.79,2.79,0,0,0,.79-.11,1.69,1.69,0,0,0,.61-.32,1.39,1.39,0,0,0,.39-.51,1.65,1.65,0,0,0,.14-.68c0-1.09-.78-1.64-2.34-1.64h-.7v-.82h.66c1.38,0,2.07-.51,2.07-1.54s-.52-1.43-1.58-1.43a2.75,2.75,0,0,0-1.67.59v-.93a3.66,3.66,0,0,1,1.91-.48,2.93,2.93,0,0,1,1,.15,2.16,2.16,0,0,1,.73.41,1.83,1.83,0,0,1,.47.63,2,2,0,0,1,.17.82,2.06,2.06,0,0,1-1.68,2.13v0a2.49,2.49,0,0,1,.79.21,2,2,0,0,1,.63.42,1.73,1.73,0,0,1,.41.61A1.92,1.92,0,0,1,354.3,176.22Z" fill="#1e1e1e"/>
      <path d="M359.71,172.4a1.76,1.76,0,0,0-.12-.68,1.37,1.37,0,0,0-.33-.48,1.31,1.31,0,0,0-.49-.28,1.93,1.93,0,0,0-.6-.09,2.1,2.1,0,0,0-.56.07,2.57,2.57,0,0,0-.52.21,3,3,0,0,0-.49.33,2.85,2.85,0,0,0-.44.41v-1a2.84,2.84,0,0,1,.9-.6,3.14,3.14,0,0,1,1.22-.21,3,3,0,0,1,1,.15,2.3,2.3,0,0,1,.76.44,2.19,2.19,0,0,1,.51.71,2.42,2.42,0,0,1,.18,1,3.6,3.6,0,0,1-.11.91,3.08,3.08,0,0,1-.35.76,3.62,3.62,0,0,1-.58.68,7.54,7.54,0,0,1-.83.67c-.39.28-.72.52-1,.72a4.34,4.34,0,0,0-.61.56,1.75,1.75,0,0,0-.32.52,1.89,1.89,0,0,0-.09.6H361v.87h-5.18v-.42a3.82,3.82,0,0,1,.11-1,2.59,2.59,0,0,1,.39-.78,4.42,4.42,0,0,1,.71-.74c.29-.24.64-.52,1.07-.83a6.69,6.69,0,0,0,.76-.63,3.27,3.27,0,0,0,.5-.59,2.29,2.29,0,0,0,.26-.61A2.32,2.32,0,0,0,359.71,172.4Z" fill="#1e1e1e"/>
      <path d="M367.65,175.93a3.15,3.15,0,0,1-.2,1.13,3,3,0,0,1-.55.89,2.44,2.44,0,0,1-.84.58,2.67,2.67,0,0,1-1.06.21,2.31,2.31,0,0,1-2-1,3.63,3.63,0,0,1-.53-1.21,6.61,6.61,0,0,1-.18-1.61,7.64,7.64,0,0,1,.24-2,4.68,4.68,0,0,1,.69-1.53,3.24,3.24,0,0,1,1.08-1,3,3,0,0,1,1.42-.35,3.4,3.4,0,0,1,1.39.24v.91a3,3,0,0,0-1.37-.33,2,2,0,0,0-1,.25,2.29,2.29,0,0,0-.78.71,3.53,3.53,0,0,0-.49,1.11,5.43,5.43,0,0,0-.18,1.45h0a2,2,0,0,1,1.91-1,2.48,2.48,0,0,1,1,.19,2.09,2.09,0,0,1,.75.53,2.54,2.54,0,0,1,.49.81A3.23,3.23,0,0,1,367.65,175.93Zm-1,.12a2.79,2.79,0,0,0-.11-.79,1.73,1.73,0,0,0-.32-.6,1.34,1.34,0,0,0-.51-.37,1.74,1.74,0,0,0-.69-.14,1.67,1.67,0,0,0-.67.14,1.65,1.65,0,0,0-.87.9,1.65,1.65,0,0,0-.13.66,2.37,2.37,0,0,0,.13.81,2.06,2.06,0,0,0,.34.66,1.71,1.71,0,0,0,.53.44,1.42,1.42,0,0,0,.68.16,1.46,1.46,0,0,0,.67-.14,1.48,1.48,0,0,0,.51-.38,1.6,1.6,0,0,0,.32-.59A2.29,2.29,0,0,0,366.66,176.05Z" fill="#1e1e1e"/>
      <path d="M374.1,174.36a8.09,8.09,0,0,1-.19,1.87,4.18,4.18,0,0,1-.55,1.37,2.34,2.34,0,0,1-2.08,1.14,2.19,2.19,0,0,1-1.12-.28,2.32,2.32,0,0,1-.84-.81,3.82,3.82,0,0,1-.51-1.31,7.93,7.93,0,0,1-.18-1.78,9.35,9.35,0,0,1,.18-1.94,4.63,4.63,0,0,1,.55-1.42,2.41,2.41,0,0,1,.88-.86,2.56,2.56,0,0,1,1.22-.29Q374.1,170.05,374.1,174.36Zm-1,.09c0-2.39-.57-3.58-1.71-3.58s-1.8,1.21-1.8,3.65c0,2.27.59,3.4,1.77,3.4S373.12,176.77,373.12,174.45Z" fill="#1e1e1e"/>
      <path d="M295.09,193v-8.41h2.33q4.44,0,4.44,4.1a4.08,4.08,0,0,1-1.24,3.12,4.56,4.56,0,0,1-3.3,1.19Zm1-7.52v6.63h1.25a3.59,3.59,0,0,0,2.58-.89,3.34,3.34,0,0,0,.92-2.51q0-3.22-3.44-3.23Z" fill="#1e1e1e"/>
      <path d="M308.2,190.24H304a2.22,2.22,0,0,0,.53,1.54,1.85,1.85,0,0,0,1.42.55,2.94,2.94,0,0,0,1.87-.67v.9a3.53,3.53,0,0,1-2.1.58,2.54,2.54,0,0,1-2-.82A3.33,3.33,0,0,1,303,190a3.26,3.26,0,0,1,.79-2.28,2.55,2.55,0,0,1,2-.88,2.25,2.25,0,0,1,1.82.76,3.15,3.15,0,0,1,.64,2.11Zm-1-.82a2,2,0,0,0-.4-1.29,1.38,1.38,0,0,0-1.1-.47,1.58,1.58,0,0,0-1.16.49,2.21,2.21,0,0,0-.58,1.27Z" fill="#1e1e1e"/>
      <path d="M314.64,193h-1v-3.43c0-1.27-.46-1.91-1.39-1.91a1.48,1.48,0,0,0-1.19.55,2,2,0,0,0-.47,1.36V193h-1v-6h1v1h0a2.15,2.15,0,0,1,2-1.13,1.83,1.83,0,0,1,1.5.63,2.82,2.82,0,0,1,.53,1.84Z" fill="#1e1e1e"/>
      <path d="M321.22,187l-2.76,7q-.73,1.86-2.07,1.86a2.25,2.25,0,0,1-.63-.08v-.86a1.84,1.84,0,0,0,.57.11,1.18,1.18,0,0,0,1.09-.87l.48-1.14-2.34-6h1.06l1.63,4.61c0,.06.06.21.12.46h0q0-.13.12-.45l1.71-4.62Z" fill="#1e1e1e"/>
      <path d="M330.64,185.48h-2.43V193h-1v-7.52h-2.42v-.89h5.83Z" fill="#1e1e1e"/>
      <path d="M337.12,192.64a4.92,4.92,0,0,1-2.32.5,3.74,3.74,0,0,1-2.87-1.16,4.26,4.26,0,0,1-1.08-3,4.47,4.47,0,0,1,1.21-3.26,4.16,4.16,0,0,1,3.08-1.24,5,5,0,0,1,2,.35v1a4,4,0,0,0-2-.51,3.08,3.08,0,0,0-2.35,1,3.64,3.64,0,0,0-.9,2.58,3.47,3.47,0,0,0,.84,2.45,2.86,2.86,0,0,0,2.21.91,4.2,4.2,0,0,0,2.19-.56Z" fill="#1e1e1e"/>
      <path d="M339.81,189.82V193h-1v-8.41h2.31a3,3,0,0,1,2.09.66,2.35,2.35,0,0,1,.74,1.85,2.55,2.55,0,0,1-.83,2,3.12,3.12,0,0,1-2.22.76Zm0-4.34v3.45h1a2.33,2.33,0,0,0,1.56-.47,1.64,1.64,0,0,0,.54-1.31c0-1.11-.66-1.67-2-1.67Z" fill="#1e1e1e"/>
      <path d="M353.32,190.62a2.46,2.46,0,0,1-.21,1,2.4,2.4,0,0,1-.61.8,2.79,2.79,0,0,1-.93.51,3.87,3.87,0,0,1-1.2.18,3.53,3.53,0,0,1-1.91-.45v-1a3,3,0,0,0,1.94.67,2.86,2.86,0,0,0,.8-.11,1.73,1.73,0,0,0,.6-.32,1.42,1.42,0,0,0,.4-.51,1.65,1.65,0,0,0,.13-.68c0-1.09-.78-1.64-2.34-1.64h-.7v-.82H350c1.38,0,2.07-.51,2.07-1.54s-.53-1.43-1.58-1.43a2.72,2.72,0,0,0-1.67.59v-.93a3.64,3.64,0,0,1,1.91-.48,2.83,2.83,0,0,1,.95.15,2.21,2.21,0,0,1,.74.41,1.93,1.93,0,0,1,.47.63,2,2,0,0,1,.16.82,2,2,0,0,1-1.67,2.13v0a2.56,2.56,0,0,1,.79.21,2.31,2.31,0,0,1,.63.42,1.87,1.87,0,0,1,.41.61A1.92,1.92,0,0,1,353.32,190.62Z" fill="#1e1e1e"/>
      <path d="M359.79,190.62a2.32,2.32,0,0,1-.22,1,2.25,2.25,0,0,1-.6.8,2.79,2.79,0,0,1-.93.51,3.89,3.89,0,0,1-1.21.18,3.55,3.55,0,0,1-1.91-.45v-1a3.06,3.06,0,0,0,1.95.67,2.74,2.74,0,0,0,.79-.11,1.69,1.69,0,0,0,.61-.32,1.54,1.54,0,0,0,.4-.51,1.65,1.65,0,0,0,.13-.68c0-1.09-.78-1.64-2.34-1.64h-.7v-.82h.66c1.39,0,2.08-.51,2.08-1.54s-.53-1.43-1.58-1.43a2.72,2.72,0,0,0-1.67.59v-.93a3.64,3.64,0,0,1,1.91-.48,2.83,2.83,0,0,1,.95.15,2.07,2.07,0,0,1,.73.41,1.83,1.83,0,0,1,.48.63,2,2,0,0,1,.16.82,2.06,2.06,0,0,1-1.67,2.13v0a2.56,2.56,0,0,1,.79.21,2.31,2.31,0,0,1,.63.42,1.87,1.87,0,0,1,.41.61A1.92,1.92,0,0,1,359.79,190.62Z" fill="#1e1e1e"/>
      <path d="M361.2,190.65a2.29,2.29,0,0,1,.11-.67,2.6,2.6,0,0,1,.3-.63,2.65,2.65,0,0,1,.48-.53,2.41,2.41,0,0,1,.66-.38,2.52,2.52,0,0,1-.86-.79,1.79,1.79,0,0,1-.33-1.05,2,2,0,0,1,.18-.86,2.1,2.1,0,0,1,.5-.68,2.34,2.34,0,0,1,.75-.45,2.84,2.84,0,0,1,.93-.16,2.67,2.67,0,0,1,.95.17,2.34,2.34,0,0,1,.75.45,2.08,2.08,0,0,1,.49.68,2,2,0,0,1,.18.85,1.79,1.79,0,0,1-.33,1.05,2.58,2.58,0,0,1-.85.79,2.22,2.22,0,0,1,.65.38,2.65,2.65,0,0,1,.48.53,2.6,2.6,0,0,1,.3.63,2.29,2.29,0,0,1,.11.67,2.53,2.53,0,0,1-.2,1,2.19,2.19,0,0,1-.56.78,2.55,2.55,0,0,1-.86.51,3.23,3.23,0,0,1-1.11.18,3.2,3.2,0,0,1-1.09-.18,2.55,2.55,0,0,1-.86-.51,2.35,2.35,0,0,1-.57-.78A2.53,2.53,0,0,1,361.2,190.65Zm1-.08a2,2,0,0,0,.12.71,1.66,1.66,0,0,0,.34.54,1.5,1.5,0,0,0,.54.34,1.92,1.92,0,0,0,.69.12,1.87,1.87,0,0,0,.68-.12,1.53,1.53,0,0,0,.54-.35,1.68,1.68,0,0,0,.35-.54,1.94,1.94,0,0,0,.12-.7,1.84,1.84,0,0,0-.12-.66,1.6,1.6,0,0,0-.34-.54,1.64,1.64,0,0,0-.53-.37,1.75,1.75,0,0,0-.7-.14,1.82,1.82,0,0,0-.67.13,1.49,1.49,0,0,0-.53.35,1.7,1.7,0,0,0-.36.54A1.93,1.93,0,0,0,362.24,190.57Zm.3-3.9a1.47,1.47,0,0,0,.11.56,1.23,1.23,0,0,0,.3.44,1.32,1.32,0,0,0,.44.3,1.38,1.38,0,0,0,1.08,0,1.77,1.77,0,0,0,.45-.3,1.51,1.51,0,0,0,.29-.45,1.26,1.26,0,0,0,.12-.55,1.47,1.47,0,0,0-.11-.56,1.37,1.37,0,0,0-.3-.44,1.23,1.23,0,0,0-.44-.3,1.46,1.46,0,0,0-1.11,0,1.55,1.55,0,0,0-.44.3,1.34,1.34,0,0,0-.29.45A1.68,1.68,0,0,0,362.54,186.67Z" fill="#1e1e1e"/>
      <path d="M373,188.29a8.48,8.48,0,0,1-.22,2.05,4.89,4.89,0,0,1-.67,1.53,3.12,3.12,0,0,1-1.07.95,3.25,3.25,0,0,1-1.45.32,3.52,3.52,0,0,1-1.46-.29v-.92a3,3,0,0,0,1.49.39,2.18,2.18,0,0,0,1-.23,2.09,2.09,0,0,0,.76-.69,3.18,3.18,0,0,0,.48-1.1,6.25,6.25,0,0,0,.16-1.51h0a1.92,1.92,0,0,1-1.88,1.09,2.64,2.64,0,0,1-1-.19,2.37,2.37,0,0,1-.78-.54,2.76,2.76,0,0,1-.51-.83,3,3,0,0,1-.18-1.06,3.25,3.25,0,0,1,.2-1.14,2.83,2.83,0,0,1,.57-.89,2.49,2.49,0,0,1,.85-.57,2.74,2.74,0,0,1,1.08-.21,2.41,2.41,0,0,1,1.13.26,2.31,2.31,0,0,1,.82.74,3.84,3.84,0,0,1,.51,1.21A6.69,6.69,0,0,1,373,188.29Zm-1-.86a2.82,2.82,0,0,0-.13-.89,2.08,2.08,0,0,0-.35-.68,1.6,1.6,0,0,0-.53-.44,1.5,1.5,0,0,0-.67-.15,1.53,1.53,0,0,0-.64.13,1.69,1.69,0,0,0-.52.39,1.92,1.92,0,0,0-.35.59,2.27,2.27,0,0,0-.12.75,2.49,2.49,0,0,0,.12.8,1.63,1.63,0,0,0,.34.59,1.45,1.45,0,0,0,.54.37,1.7,1.7,0,0,0,.69.13,1.68,1.68,0,0,0,.63-.12,1.87,1.87,0,0,0,.52-.34,1.63,1.63,0,0,0,.34-.51A1.44,1.44,0,0,0,372,187.43Z" fill="#1e1e1e"/>
    </g>
    <g>
      <path d="M278.88,251.46V250a2.05,2.05,0,0,0,.46.31,2.56,2.56,0,0,0,.56.24l.6.15a3.74,3.74,0,0,0,.55.05,2.4,2.4,0,0,0,1.31-.29,1,1,0,0,0,.43-.85,1,1,0,0,0-.14-.52,1.52,1.52,0,0,0-.4-.4,4.91,4.91,0,0,0-.61-.35l-.75-.35c-.28-.15-.55-.3-.8-.46a3.72,3.72,0,0,1-.64-.52,2.09,2.09,0,0,1-.42-.64,2,2,0,0,1-.16-.84,1.93,1.93,0,0,1,.27-1,2.19,2.19,0,0,1,.7-.72,3.15,3.15,0,0,1,1-.42,4.81,4.81,0,0,1,1.14-.14,4.55,4.55,0,0,1,1.92.3v1.38a3,3,0,0,0-1.84-.52,3.26,3.26,0,0,0-.62.06,1.88,1.88,0,0,0-.55.19,1.2,1.2,0,0,0-.39.35.86.86,0,0,0-.16.51,1,1,0,0,0,.12.49,1.3,1.3,0,0,0,.34.37,3.6,3.6,0,0,0,.56.33c.21.11.46.23.75.35a9.48,9.48,0,0,1,.83.48,3.83,3.83,0,0,1,.68.56,2.33,2.33,0,0,1,.47.67,2,2,0,0,1,.17.85,2.11,2.11,0,0,1-.25,1.08,2.07,2.07,0,0,1-.7.71,2.88,2.88,0,0,1-1,.4,5.19,5.19,0,0,1-1.2.13,3.56,3.56,0,0,1-.52,0l-.63-.09a5,5,0,0,1-.61-.15A1.66,1.66,0,0,1,278.88,251.46Z" fill="#1e1e1e"/>
      <path d="M288.46,251.73a2.36,2.36,0,0,1-1,.2,1.51,1.51,0,0,1-1.74-1.68v-3.39h-1V245.8h1v-1.39L287,244v1.78h1.43v1.06H287v3a1.16,1.16,0,0,0,.19.76.77.77,0,0,0,.64.23.91.91,0,0,0,.6-.2Z" fill="#1e1e1e"/>
      <path d="M292.22,251.94a3,3,0,0,1-2.21-.84,3,3,0,0,1-.83-2.23,3.17,3.17,0,0,1,.86-2.37,3.21,3.21,0,0,1,2.33-.85,2.87,2.87,0,0,1,2.19.83,3.22,3.22,0,0,1,.79,2.29,3.15,3.15,0,0,1-.85,2.3A3,3,0,0,1,292.22,251.94Zm.07-5.2a1.53,1.53,0,0,0-1.26.56,2.31,2.31,0,0,0-.46,1.53,2.23,2.23,0,0,0,.46,1.49,1.59,1.59,0,0,0,1.26.54,1.49,1.49,0,0,0,1.23-.54,2.32,2.32,0,0,0,.43-1.51,2.38,2.38,0,0,0-.43-1.53A1.49,1.49,0,0,0,292.29,246.74Z" fill="#1e1e1e"/>
      <path d="M300.21,247.09a1.11,1.11,0,0,0-.71-.19,1.22,1.22,0,0,0-1,.54,2.45,2.45,0,0,0-.4,1.48v2.88h-1.36v-6h1.36V247h0a2.23,2.23,0,0,1,.61-1,1.44,1.44,0,0,1,.93-.35,1.21,1.21,0,0,1,.56.11Z" fill="#1e1e1e"/>
      <path d="M305.78,251.8h-1.32v-.94h0a2,2,0,0,1-1.82,1.08,1.9,1.9,0,0,1-1.38-.48,1.67,1.67,0,0,1-.5-1.28q0-1.69,1.95-2l1.78-.25c0-.85-.4-1.28-1.21-1.28a2.88,2.88,0,0,0-1.94.74v-1.19a4.16,4.16,0,0,1,2.19-.57,2,2,0,0,1,2.28,2.24Zm-1.32-3-1.26.17a2,2,0,0,0-.88.29.85.85,0,0,0-.29.73.8.8,0,0,0,.27.62,1.05,1.05,0,0,0,.73.24,1.35,1.35,0,0,0,1-.43,1.55,1.55,0,0,0,.4-1.1Z" fill="#1e1e1e"/>
      <path d="M312.9,251.31q0,3.31-3.33,3.31a5,5,0,0,1-2-.39V253a3.73,3.73,0,0,0,1.87.57,1.88,1.88,0,0,0,2.14-2.11v-.65h0a2.35,2.35,0,0,1-3.79.35,3.24,3.24,0,0,1-.67-2.15,3.78,3.78,0,0,1,.72-2.43,2.4,2.4,0,0,1,2-.91,1.91,1.91,0,0,1,1.76,1h0v-.83h1.36Zm-1.35-2.26v-.78a1.53,1.53,0,0,0-.42-1.08,1.38,1.38,0,0,0-1.05-.45,1.44,1.44,0,0,0-1.21.57,2.58,2.58,0,0,0-.43,1.6,2.19,2.19,0,0,0,.42,1.41,1.3,1.3,0,0,0,1.11.53,1.46,1.46,0,0,0,1.14-.5A2,2,0,0,0,311.55,249.05Z" fill="#1e1e1e"/>
      <path d="M319.75,249.16h-4.09a1.7,1.7,0,0,0,.51,1.29,1.89,1.89,0,0,0,1.34.45,3,3,0,0,0,1.77-.58v1.1a4.07,4.07,0,0,1-2.17.52,2.71,2.71,0,0,1-2.08-.82,3.28,3.28,0,0,1-.75-2.3,3.15,3.15,0,0,1,.83-2.28,2.71,2.71,0,0,1,2.06-.89,2.36,2.36,0,0,1,1.9.8,3.26,3.26,0,0,1,.68,2.19Zm-1.32-1a1.8,1.8,0,0,0-.34-1.14,1.16,1.16,0,0,0-.94-.4,1.32,1.32,0,0,0-1,.42,1.9,1.9,0,0,0-.5,1.12Z" fill="#1e1e1e"/>
      <path d="M324.2,249H321v-1h3.2Z" fill="#1e1e1e"/>
      <path d="M327.44,251.8H326v-8.41h1.43Z" fill="#1e1e1e"/>
      <path d="M334.7,251.8h-1.36v-3.39c0-1.12-.39-1.68-1.18-1.68a1.31,1.31,0,0,0-1,.47,1.71,1.71,0,0,0-.4,1.17v3.43h-1.37v-6h1.37v1h0a2.14,2.14,0,0,1,1.94-1.14,1.84,1.84,0,0,1,1.5.64,2.88,2.88,0,0,1,.51,1.84Z" fill="#1e1e1e"/>
      <path d="M339.53,251.73a2.42,2.42,0,0,1-1,.2c-1.17,0-1.75-.56-1.75-1.68v-3.39h-1V245.8h1v-1.39l1.36-.39v1.78h1.44v1.06h-1.44v3a1.22,1.22,0,0,0,.19.76.79.79,0,0,0,.65.23.91.91,0,0,0,.6-.2Z" fill="#1e1e1e"/>
      <path d="M345.71,249.16h-4.09a1.7,1.7,0,0,0,.51,1.29,1.93,1.93,0,0,0,1.35.45,2.92,2.92,0,0,0,1.76-.58v1.1a4.07,4.07,0,0,1-2.17.52,2.73,2.73,0,0,1-2.08-.82,3.28,3.28,0,0,1-.75-2.3,3.2,3.2,0,0,1,.83-2.28,2.71,2.71,0,0,1,2.06-.89,2.36,2.36,0,0,1,1.9.8,3.26,3.26,0,0,1,.68,2.19Zm-1.31-1a1.8,1.8,0,0,0-.35-1.14,1.16,1.16,0,0,0-.94-.4,1.32,1.32,0,0,0-1,.42,2,2,0,0,0-.5,1.12Z" fill="#1e1e1e"/>
      <path d="M350.48,247.09a1.11,1.11,0,0,0-.71-.19,1.21,1.21,0,0,0-1,.54,2.45,2.45,0,0,0-.41,1.48v2.88H347v-6h1.36V247h0a2.07,2.07,0,0,1,.61-1,1.39,1.39,0,0,1,.92-.35,1.18,1.18,0,0,1,.56.11Z" fill="#1e1e1e"/>
      <path d="M356.79,251.8h-1.36v-3.39c0-1.12-.4-1.68-1.19-1.68a1.32,1.32,0,0,0-1,.47,1.71,1.71,0,0,0-.4,1.17v3.43h-1.37v-6h1.37v1h0a2.14,2.14,0,0,1,1.95-1.14,1.82,1.82,0,0,1,1.49.64,2.82,2.82,0,0,1,.52,1.84Z" fill="#1e1e1e"/>
      <path d="M363.05,251.8h-1.32v-.94h0a2,2,0,0,1-1.82,1.08,1.94,1.94,0,0,1-1.39-.48,1.71,1.71,0,0,1-.5-1.28c0-1.13.65-1.79,2-2l1.78-.25c0-.85-.41-1.28-1.22-1.28a2.85,2.85,0,0,0-1.93.74v-1.19a4.16,4.16,0,0,1,2.19-.57,2,2,0,0,1,2.27,2.24Zm-1.31-3-1.26.17a1.93,1.93,0,0,0-.88.29.83.83,0,0,0-.3.73.8.8,0,0,0,.27.62,1.09,1.09,0,0,0,.73.24,1.34,1.34,0,0,0,1-.43,1.56,1.56,0,0,0,.41-1.1Z" fill="#1e1e1e"/>
      <path d="M366.08,251.8h-1.37v-8.89h1.37Z" fill="#1e1e1e"/>
      <path d="M371,249h-3.2v-1H371Z" fill="#1e1e1e"/>
      <path d="M374.05,250.91h0v3.65h-1.36V245.8H374v1h0a2.22,2.22,0,0,1,2-1.2,2.15,2.15,0,0,1,1.78.81,3.32,3.32,0,0,1,.64,2.15,3.78,3.78,0,0,1-.72,2.41,2.39,2.39,0,0,1-2,.9A2,2,0,0,1,374.05,250.91Zm0-2.37v.75a1.57,1.57,0,0,0,.42,1.11,1.47,1.47,0,0,0,2.25-.13,2.71,2.71,0,0,0,.43-1.64,2.15,2.15,0,0,0-.4-1.39,1.32,1.32,0,0,0-1.08-.5,1.46,1.46,0,0,0-1.17.51A1.91,1.91,0,0,0,374,248.54Z" fill="#1e1e1e"/>
      <path d="M380.58,244.54a.85.85,0,0,1-.57-.22.72.72,0,0,1-.24-.55.74.74,0,0,1,.24-.56.8.8,0,0,1,.57-.22.83.83,0,0,1,.59.22.74.74,0,0,1,.24.56.71.71,0,0,1-.24.54A.84.84,0,0,1,380.58,244.54Zm.68,7.26H379.9v-6h1.36Z" fill="#1e1e1e"/>
      <path d="M384.42,250.91h0v3.65H383V245.8h1.36v1h0a2.21,2.21,0,0,1,2-1.2,2.15,2.15,0,0,1,1.79.81,3.37,3.37,0,0,1,.63,2.15,3.78,3.78,0,0,1-.72,2.41,2.38,2.38,0,0,1-2,.9A2,2,0,0,1,384.42,250.91Zm0-2.37v.75a1.57,1.57,0,0,0,.42,1.11,1.36,1.36,0,0,0,1.06.46,1.4,1.4,0,0,0,1.19-.59,2.71,2.71,0,0,0,.43-1.64,2.15,2.15,0,0,0-.4-1.39,1.33,1.33,0,0,0-1.09-.5,1.49,1.49,0,0,0-1.17.51A2,2,0,0,0,384.38,248.54Z" fill="#1e1e1e"/>
    </g>
    <g>
      <path d="M225.75,76.1v-7h2a2.14,2.14,0,0,1,1.44.45,1.4,1.4,0,0,1,.53,1.15,1.67,1.67,0,0,1-.32,1,1.77,1.77,0,0,1-.89.63h0a1.8,1.8,0,0,1,1.13.54,1.61,1.61,0,0,1,.43,1.17,1.86,1.86,0,0,1-.64,1.46,2.43,2.43,0,0,1-1.63.56Zm.82-6.26V72.1h.84a1.58,1.58,0,0,0,1.06-.33,1.13,1.13,0,0,0,.38-.91c0-.68-.44-1-1.34-1Zm0,3v2.52h1.11A1.65,1.65,0,0,0,228.8,75a1.16,1.16,0,0,0,.4-.94c0-.82-.56-1.24-1.69-1.24Z" fill="#1e1e1e"/>
      <path d="M233.46,76.21a2.31,2.31,0,0,1-1.77-.7,2.6,2.6,0,0,1-.66-1.86,2.68,2.68,0,0,1,.69-2,2.45,2.45,0,0,1,1.86-.71,2.25,2.25,0,0,1,1.75.69,2.76,2.76,0,0,1,.62,1.91,2.68,2.68,0,0,1-.67,1.91A2.38,2.38,0,0,1,233.46,76.21Zm.06-4.56a1.53,1.53,0,0,0-1.22.53,2.14,2.14,0,0,0-.45,1.44,2,2,0,0,0,.46,1.41,1.53,1.53,0,0,0,1.21.51,1.46,1.46,0,0,0,1.19-.5,2.2,2.2,0,0,0,.42-1.43,2.22,2.22,0,0,0-.42-1.45A1.43,1.43,0,0,0,233.52,71.65Z" fill="#1e1e1e"/>
      <path d="M239.32,76.21a2.31,2.31,0,0,1-1.77-.7,2.6,2.6,0,0,1-.66-1.86,2.68,2.68,0,0,1,.69-2,2.45,2.45,0,0,1,1.86-.71,2.26,2.26,0,0,1,1.75.69,2.76,2.76,0,0,1,.62,1.91,2.68,2.68,0,0,1-.67,1.91A2.38,2.38,0,0,1,239.32,76.21Zm.06-4.56a1.53,1.53,0,0,0-1.22.53,2.14,2.14,0,0,0-.45,1.44,2,2,0,0,0,.46,1.41,1.53,1.53,0,0,0,1.21.51,1.46,1.46,0,0,0,1.19-.5,2.2,2.2,0,0,0,.42-1.43,2.22,2.22,0,0,0-.42-1.45A1.43,1.43,0,0,0,239.38,71.65Z" fill="#1e1e1e"/>
      <path d="M245.41,76.05a1.61,1.61,0,0,1-.75.15c-.87,0-1.31-.49-1.31-1.46v-3h-.86V71.1h.86V69.87l.8-.25V71.1h1.26v.68h-1.26V74.6a1.17,1.17,0,0,0,.17.71.68.68,0,0,0,.57.22.85.85,0,0,0,.52-.17Z" fill="#1e1e1e"/>
      <path d="M210.75,87.1v-7h1.93q3.7,0,3.7,3.42a3.4,3.4,0,0,1-1,2.6,3.79,3.79,0,0,1-2.75,1Zm.82-6.26v5.51h1a3,3,0,0,0,2.14-.73,2.75,2.75,0,0,0,.77-2.09c0-1.8-1-2.69-2.86-2.69Z" fill="#1e1e1e"/>
      <path d="M218.06,80.83a.51.51,0,0,1-.37-.15.5.5,0,0,1-.15-.37.52.52,0,0,1,.15-.38.55.55,0,0,1,.37-.14.53.53,0,0,1,.37.14.49.49,0,0,1,.16.38.46.46,0,0,1-.16.36A.47.47,0,0,1,218.06,80.83Zm.39,6.27h-.8v-5h.8Z" fill="#1e1e1e"/>
      <path d="M223.65,87.1h-.8v-.79h0a1.83,1.83,0,0,1-2.71.51,1.39,1.39,0,0,1-.42-1c0-.94.55-1.48,1.65-1.63l1.5-.21c0-.85-.34-1.28-1-1.28a2.46,2.46,0,0,0-1.63.62v-.82a3,3,0,0,1,1.7-.47c1.17,0,1.76.62,1.76,1.86Zm-.8-2.53-1.21.16a2,2,0,0,0-.84.28.81.81,0,0,0-.28.7.79.79,0,0,0,.26.6,1.05,1.05,0,0,0,.7.23,1.27,1.27,0,0,0,1-.42,1.49,1.49,0,0,0,.39-1.06Z" fill="#1e1e1e"/>
      <path d="M229.43,86.69q0,2.76-2.64,2.76a3.58,3.58,0,0,1-1.62-.35v-.8a3.35,3.35,0,0,0,1.61.47c1.23,0,1.85-.66,1.85-2v-.54h0a2,2,0,0,1-3.22.29,2.69,2.69,0,0,1-.57-1.79,3.11,3.11,0,0,1,.61-2,2.06,2.06,0,0,1,1.68-.75,1.64,1.64,0,0,1,1.5.81h0V82.1h.8Zm-.8-1.86V84.1a1.42,1.42,0,0,0-.41-1,1.29,1.29,0,0,0-1-.43,1.39,1.39,0,0,0-1.16.54,2.4,2.4,0,0,0-.42,1.51A2.08,2.08,0,0,0,226,86a1.32,1.32,0,0,0,1.07.5,1.41,1.41,0,0,0,1.1-.48A1.8,1.8,0,0,0,228.63,84.83Z" fill="#1e1e1e"/>
      <path d="M235.2,87.1h-.8V84.24c0-1.06-.39-1.59-1.16-1.59a1.27,1.27,0,0,0-1,.45,1.68,1.68,0,0,0-.39,1.14V87.1h-.8v-5h.8v.83h0a1.79,1.79,0,0,1,1.64-1,1.5,1.5,0,0,1,1.25.53A2.35,2.35,0,0,1,235.2,84Z" fill="#1e1e1e"/>
      <path d="M238.8,87.21a2.31,2.31,0,0,1-1.77-.7,2.6,2.6,0,0,1-.66-1.86,2.72,2.72,0,0,1,.68-2,2.46,2.46,0,0,1,1.87-.71,2.24,2.24,0,0,1,1.74.69,2.72,2.72,0,0,1,.63,1.91,2.69,2.69,0,0,1-.68,1.91A2.36,2.36,0,0,1,238.8,87.21Zm.06-4.56a1.52,1.52,0,0,0-1.22.53,2.14,2.14,0,0,0-.45,1.44,2.08,2.08,0,0,0,.45,1.41,1.55,1.55,0,0,0,1.22.51,1.48,1.48,0,0,0,1.19-.5,2.2,2.2,0,0,0,.42-1.43,2.22,2.22,0,0,0-.42-1.45A1.46,1.46,0,0,0,238.86,82.65Z" fill="#1e1e1e"/>
      <path d="M242.26,86.91v-.85a2.4,2.4,0,0,0,1.45.48c.7,0,1-.24,1-.7a.59.59,0,0,0-.09-.34.75.75,0,0,0-.25-.25,1.52,1.52,0,0,0-.36-.19l-.44-.18c-.22-.09-.42-.18-.59-.27a2.25,2.25,0,0,1-.42-.3,1.19,1.19,0,0,1-.25-.38,1.33,1.33,0,0,1-.09-.51,1.18,1.18,0,0,1,.17-.62,1.32,1.32,0,0,1,.43-.45,1.71,1.71,0,0,1,.61-.28,2.76,2.76,0,0,1,.71-.09,2.86,2.86,0,0,1,1.16.22V83a2.27,2.27,0,0,0-1.27-.36,1.62,1.62,0,0,0-.4,0,1.12,1.12,0,0,0-.31.15.53.53,0,0,0-.2.22.57.57,0,0,0-.08.29.63.63,0,0,0,.08.32.64.64,0,0,0,.2.24,1.79,1.79,0,0,0,.34.18,4,4,0,0,0,.44.18c.22.09.42.17.6.26a1.82,1.82,0,0,1,.44.31,1.17,1.17,0,0,1,.29.38,1.25,1.25,0,0,1,.1.53,1.22,1.22,0,0,1-.16.64,1.48,1.48,0,0,1-.44.46,1.78,1.78,0,0,1-.63.26,3.08,3.08,0,0,1-.75.09A2.85,2.85,0,0,1,242.26,86.91Z" fill="#1e1e1e"/>
      <path d="M249.13,87.05a1.61,1.61,0,0,1-.75.15c-.87,0-1.31-.49-1.31-1.46v-3h-.86V82.1h.86V80.87l.8-.25V82.1h1.26v.68h-1.26V85.6a1.17,1.17,0,0,0,.17.71.67.67,0,0,0,.57.22.85.85,0,0,0,.52-.17Z" fill="#1e1e1e"/>
      <path d="M250.61,80.83a.51.51,0,0,1-.37-.15.5.5,0,0,1-.15-.37.52.52,0,0,1,.15-.38.55.55,0,0,1,.37-.14.53.53,0,0,1,.37.14.49.49,0,0,1,.16.38.46.46,0,0,1-.16.36A.47.47,0,0,1,250.61,80.83ZM251,87.1h-.8v-5h.8Z" fill="#1e1e1e"/>
      <path d="M256,86.87a2.6,2.6,0,0,1-1.37.34,2.25,2.25,0,0,1-1.72-.69,2.54,2.54,0,0,1-.66-1.81,2.78,2.78,0,0,1,.71-2,2.47,2.47,0,0,1,1.89-.75,2.67,2.67,0,0,1,1.16.24V83a2,2,0,0,0-1.19-.39,1.64,1.64,0,0,0-1.26.55,2.08,2.08,0,0,0-.49,1.44,2,2,0,0,0,.46,1.39,1.59,1.59,0,0,0,1.24.51A2,2,0,0,0,256,86.1Z" fill="#1e1e1e"/>
      <path d="M256.94,86.91v-.85a2.35,2.35,0,0,0,1.44.48c.7,0,1.05-.24,1.05-.7a.59.59,0,0,0-.09-.34.82.82,0,0,0-.24-.25,1.52,1.52,0,0,0-.36-.19l-.45-.18a5.37,5.37,0,0,1-.58-.27,1.74,1.74,0,0,1-.42-.3,1.08,1.08,0,0,1-.26-.38,1.56,1.56,0,0,1-.08-.51,1.17,1.17,0,0,1,.16-.62,1.42,1.42,0,0,1,.43-.45,1.79,1.79,0,0,1,.61-.28,2.82,2.82,0,0,1,.71-.09,2.86,2.86,0,0,1,1.16.22V83a2.25,2.25,0,0,0-1.27-.36,1.62,1.62,0,0,0-.4,0,1.28,1.28,0,0,0-.31.15.6.6,0,0,0-.2.22.57.57,0,0,0-.07.29.63.63,0,0,0,.07.32.79.79,0,0,0,.21.24,1.69,1.69,0,0,0,.33.18l.44.18c.22.09.42.17.6.26a2.11,2.11,0,0,1,.45.31,1.14,1.14,0,0,1,.28.38,1.25,1.25,0,0,1,.1.53,1.22,1.22,0,0,1-.16.64,1.48,1.48,0,0,1-.44.46,1.78,1.78,0,0,1-.63.26,2.94,2.94,0,0,1-.74.09A2.82,2.82,0,0,1,256.94,86.91Z" fill="#1e1e1e"/>
    </g>
    <g>
      <path d="M60.15,264.56v-1.43a1.76,1.76,0,0,0,.46.31,2.56,2.56,0,0,0,.56.24,3.29,3.29,0,0,0,.6.15,2.74,2.74,0,0,0,.55.05,2.31,2.31,0,0,0,1.31-.29,1,1,0,0,0,.43-.85,1,1,0,0,0-.14-.52,1.57,1.57,0,0,0-.41-.4,4.13,4.13,0,0,0-.6-.35l-.75-.35c-.28-.15-.55-.3-.8-.46a3.72,3.72,0,0,1-.64-.52,2.32,2.32,0,0,1-.43-.64,2.17,2.17,0,0,1-.15-.84,2,2,0,0,1,.27-1,2.19,2.19,0,0,1,.7-.72,3.15,3.15,0,0,1,1-.42,4.81,4.81,0,0,1,1.14-.14,4.55,4.55,0,0,1,1.92.3V258a3.1,3.1,0,0,0-1.84-.52,3.26,3.26,0,0,0-.62.06,1.89,1.89,0,0,0-.55.2,1.17,1.17,0,0,0-.39.34.86.86,0,0,0-.16.51,1,1,0,0,0,.12.49,1.18,1.18,0,0,0,.34.37,2.67,2.67,0,0,0,.56.33c.21.11.46.23.75.35l.83.48a3.83,3.83,0,0,1,.68.56,2.24,2.24,0,0,1,.47.68,1.91,1.91,0,0,1,.17.84,2.11,2.11,0,0,1-.25,1.08,2.29,2.29,0,0,1-.7.72,3.32,3.32,0,0,1-1,.4,5.81,5.81,0,0,1-1.2.12l-.52,0-.63-.1a5,5,0,0,1-.61-.15A1.66,1.66,0,0,1,60.15,264.56Z" fill="#1e1e1e"/>
      <path d="M69.82,264.83a2.29,2.29,0,0,1-1,.2c-1.17,0-1.75-.56-1.75-1.67V260H66V258.9h1v-1.39l1.36-.39v1.78h1.44V260H68.38v3a1.21,1.21,0,0,0,.19.77.82.82,0,0,0,.65.22.91.91,0,0,0,.6-.2Z" fill="#1e1e1e"/>
      <path d="M73.57,265a3,3,0,0,1-2.22-.84,3.06,3.06,0,0,1-.83-2.23,3,3,0,0,1,3.2-3.21,2.9,2.9,0,0,1,2.19.82,3.21,3.21,0,0,1,.78,2.29,3.14,3.14,0,0,1-.84,2.3A3.05,3.05,0,0,1,73.57,265Zm.06-5.2a1.56,1.56,0,0,0-1.26.56,2.37,2.37,0,0,0-.46,1.53,2.22,2.22,0,0,0,.47,1.49,1.57,1.57,0,0,0,1.25.54,1.52,1.52,0,0,0,1.24-.53,2.41,2.41,0,0,0,.43-1.52,2.44,2.44,0,0,0-.43-1.53A1.5,1.5,0,0,0,73.63,259.84Z" fill="#1e1e1e"/>
      <path d="M81.52,260.19a1.11,1.11,0,0,0-.71-.19,1.22,1.22,0,0,0-1,.54,2.46,2.46,0,0,0-.4,1.49v2.87H78v-6H79.4v1.23h0a2.07,2.07,0,0,1,.62-1,1.35,1.35,0,0,1,.92-.36,1.21,1.21,0,0,1,.56.11Z" fill="#1e1e1e"/>
      <path d="M87,264.9H85.72V264h0A2,2,0,0,1,83.87,265a1.94,1.94,0,0,1-1.39-.48,1.7,1.7,0,0,1-.5-1.27c0-1.14.66-1.8,2-2l1.78-.26c0-.85-.4-1.28-1.22-1.28a2.9,2.9,0,0,0-1.93.74v-1.19a4.15,4.15,0,0,1,2.19-.56A2,2,0,0,1,87,261ZM85.72,262l-1.26.18a2,2,0,0,0-.88.28.83.83,0,0,0-.3.73.8.8,0,0,0,.28.62,1,1,0,0,0,.73.25,1.34,1.34,0,0,0,1-.44,1.52,1.52,0,0,0,.41-1.1Z" fill="#1e1e1e"/>
      <path d="M94.15,264.42c0,2.2-1.1,3.3-3.32,3.3a5,5,0,0,1-2-.39v-1.24a3.82,3.82,0,0,0,1.87.56,1.87,1.87,0,0,0,2.13-2.1v-.66h0a2.35,2.35,0,0,1-3.79.35,3.22,3.22,0,0,1-.67-2.15,3.78,3.78,0,0,1,.72-2.43,2.4,2.4,0,0,1,2-.9,1.9,1.9,0,0,1,1.76,1h0v-.83h1.36Zm-1.34-2.27v-.78a1.53,1.53,0,0,0-.42-1.08,1.38,1.38,0,0,0-1-.45,1.44,1.44,0,0,0-1.21.57,2.6,2.6,0,0,0-.44,1.6,2.19,2.19,0,0,0,.42,1.41,1.33,1.33,0,0,0,1.11.53,1.45,1.45,0,0,0,1.15-.5A1.93,1.93,0,0,0,92.81,262.15Z" fill="#1e1e1e"/>
      <path d="M101,262.27H96.88a1.69,1.69,0,0,0,.51,1.28,1.91,1.91,0,0,0,1.34.45,3,3,0,0,0,1.77-.57v1.09a4,4,0,0,1-2.17.52,2.68,2.68,0,0,1-2.08-.82,3.27,3.27,0,0,1-.75-2.3,3.21,3.21,0,0,1,.83-2.28,2.7,2.7,0,0,1,2.06-.88,2.35,2.35,0,0,1,1.9.79,3.29,3.29,0,0,1,.68,2.2Zm-1.32-1a1.76,1.76,0,0,0-.34-1.14,1.14,1.14,0,0,0-.94-.41,1.3,1.3,0,0,0-1,.43,1.91,1.91,0,0,0-.5,1.12Z" fill="#1e1e1e"/>
      <path d="M105.48,262.12h-3.2v-1h3.2Z" fill="#1e1e1e"/>
      <path d="M112.14,258.9l-2.33,6h-1.47l-2.2-6h1.47l1.33,4.19a3.85,3.85,0,0,1,.19.81h0a4.12,4.12,0,0,1,.16-.78l1.4-4.22Z" fill="#1e1e1e"/>
      <path d="M118.44,264.9h-1.36v-3.38c0-1.12-.39-1.68-1.19-1.68a1.29,1.29,0,0,0-1,.46,1.73,1.73,0,0,0-.41,1.18v3.42H113.1v-6h1.36v1h0a2.14,2.14,0,0,1,1.94-1.13,1.84,1.84,0,0,1,1.5.63,2.9,2.9,0,0,1,.51,1.84Z" fill="#1e1e1e"/>
      <path d="M125.16,262.27h-4.09a1.73,1.73,0,0,0,.52,1.28,1.89,1.89,0,0,0,1.34.45,3,3,0,0,0,1.76-.57v1.09a3.92,3.92,0,0,1-2.16.52,2.66,2.66,0,0,1-2.08-.82,3.27,3.27,0,0,1-.75-2.3,3.17,3.17,0,0,1,.83-2.28,2.7,2.7,0,0,1,2.06-.88,2.35,2.35,0,0,1,1.9.79,3.29,3.29,0,0,1,.67,2.2Zm-1.31-1a1.76,1.76,0,0,0-.34-1.14,1.14,1.14,0,0,0-.94-.41,1.33,1.33,0,0,0-1,.43,2,2,0,0,0-.5,1.12Z" fill="#1e1e1e"/>
      <path d="M129.63,264.83a2.22,2.22,0,0,1-1,.2c-1.17,0-1.75-.56-1.75-1.67V260h-1V258.9h1v-1.39l1.36-.39v1.78h1.43V260H128.2v3a1.21,1.21,0,0,0,.19.77.82.82,0,0,0,.65.22.86.86,0,0,0,.59-.2Z" fill="#1e1e1e"/>
      <path d="M63.74,279.3h-1V272a2.79,2.79,0,0,1-.33.25,5.06,5.06,0,0,1-.48.29c-.18.09-.36.18-.56.26a3.56,3.56,0,0,1-.58.19v-1a5.46,5.46,0,0,0,.67-.24c.24-.1.47-.21.7-.33a7,7,0,0,0,.65-.39,3.91,3.91,0,0,0,.52-.39h.37Z" fill="#1e1e1e"/>
      <path d="M71.43,275.06a8.68,8.68,0,0,1-.19,1.87,4.41,4.41,0,0,1-.56,1.37,2.34,2.34,0,0,1-2.07,1.14,2.33,2.33,0,0,1-1.13-.27,2.43,2.43,0,0,1-.84-.82,4.26,4.26,0,0,1-.51-1.31,7.84,7.84,0,0,1-.18-1.77,8.71,8.71,0,0,1,.19-1.95,4.32,4.32,0,0,1,.54-1.41,2.39,2.39,0,0,1,.89-.87,2.52,2.52,0,0,1,1.21-.29C70.54,270.75,71.43,272.19,71.43,275.06Zm-1,.09c0-2.39-.57-3.58-1.7-3.58s-1.8,1.22-1.8,3.65c0,2.27.59,3.4,1.76,3.4S70.44,277.47,70.44,275.15Z" fill="#1e1e1e"/>
      <path d="M73.13,279.43a.63.63,0,0,1-.46-.2.62.62,0,0,1-.19-.46.66.66,0,0,1,.19-.47.62.62,0,0,1,.46-.19.64.64,0,0,1,.47.19.66.66,0,0,1,.19.47.62.62,0,0,1-.19.46A.65.65,0,0,1,73.13,279.43Z" fill="#1e1e1e"/>
      <path d="M77.61,279.3h-1V272a2.14,2.14,0,0,1-.33.25,5.06,5.06,0,0,1-.48.29,5.85,5.85,0,0,1-.56.26,3.56,3.56,0,0,1-.58.19v-1a5.46,5.46,0,0,0,.67-.24c.24-.1.47-.21.7-.33a5.88,5.88,0,0,0,.65-.39,4.87,4.87,0,0,0,.53-.39h.36Z" fill="#1e1e1e"/>
      <path d="M85.3,275.06a8.68,8.68,0,0,1-.19,1.87,4.41,4.41,0,0,1-.55,1.37,2.4,2.4,0,0,1-.89.85,2.36,2.36,0,0,1-1.19.29,2.16,2.16,0,0,1-2-1.09A4,4,0,0,1,80,277a7.88,7.88,0,0,1-.17-1.77,9.38,9.38,0,0,1,.18-1.95,4.32,4.32,0,0,1,.54-1.41,2.46,2.46,0,0,1,.89-.87,2.53,2.53,0,0,1,1.22-.29Q85.3,270.75,85.3,275.06Zm-1,.09c0-2.39-.56-3.58-1.7-3.58s-1.8,1.22-1.8,3.65c0,2.27.59,3.4,1.76,3.4S84.31,277.47,84.31,275.15Z" fill="#1e1e1e"/>
      <path d="M87,279.43a.63.63,0,0,1-.46-.2.66.66,0,0,1-.19-.46.7.7,0,0,1,.19-.47.62.62,0,0,1,.46-.19.63.63,0,0,1,.47.19.67.67,0,0,1,.2.47.68.68,0,0,1-.67.66Z" fill="#1e1e1e"/>
      <path d="M94.22,275.06a8.09,8.09,0,0,1-.19,1.87,4.18,4.18,0,0,1-.55,1.37,2.34,2.34,0,0,1-2.07,1.14,2.3,2.3,0,0,1-1.13-.27,2.43,2.43,0,0,1-.84-.82,4,4,0,0,1-.51-1.31,7.84,7.84,0,0,1-.18-1.77,8.71,8.71,0,0,1,.19-1.95,4.32,4.32,0,0,1,.54-1.41,2.39,2.39,0,0,1,.89-.87,2.49,2.49,0,0,1,1.21-.29Q94.22,270.75,94.22,275.06Zm-1,.09c0-2.39-.57-3.58-1.71-3.58s-1.79,1.22-1.79,3.65c0,2.27.58,3.4,1.76,3.4S93.24,277.47,93.24,275.15Z" fill="#1e1e1e"/>
      <path d="M95.93,279.43a.63.63,0,0,1-.46-.2.62.62,0,0,1-.19-.46.66.66,0,0,1,.19-.47.62.62,0,0,1,.46-.19.64.64,0,0,1,.47.19.66.66,0,0,1,.19.47.62.62,0,0,1-.19.46A.65.65,0,0,1,95.93,279.43Z" fill="#1e1e1e"/>
      <path d="M103.15,275.06a8.09,8.09,0,0,1-.19,1.87,4.41,4.41,0,0,1-.55,1.37,2.4,2.4,0,0,1-.89.85,2.54,2.54,0,0,1-2.32,0,2.41,2.41,0,0,1-.83-.82,4,4,0,0,1-.52-1.31,8.5,8.5,0,0,1-.17-1.77,9.38,9.38,0,0,1,.18-1.95,4.83,4.83,0,0,1,.54-1.41,2.46,2.46,0,0,1,.89-.87,2.56,2.56,0,0,1,1.22-.29Q103.15,270.75,103.15,275.06Zm-1,.09c0-2.39-.57-3.58-1.71-3.58s-1.8,1.22-1.8,3.65c0,2.27.59,3.4,1.77,3.4S102.17,277.47,102.17,275.15Z" fill="#1e1e1e"/>
      <path d="M108,270.9l-4,9.79h-.89l4-9.79Z" fill="#1e1e1e"/>
      <path d="M112.45,273.1a1.79,1.79,0,0,0-.12-.68A1.25,1.25,0,0,0,112,272a1.42,1.42,0,0,0-.49-.29,2,2,0,0,0-.61-.09,1.7,1.7,0,0,0-.55.08,2.66,2.66,0,0,0-.53.21,2.94,2.94,0,0,0-.49.32,3.39,3.39,0,0,0-.44.41v-1a3,3,0,0,1,.9-.6,3.23,3.23,0,0,1,1.23-.21,2.91,2.91,0,0,1,1,.15,2.2,2.2,0,0,1,.76.44,1.93,1.93,0,0,1,.51.71,2.43,2.43,0,0,1,.18,1,3.17,3.17,0,0,1-.11.9,2.75,2.75,0,0,1-.35.76,3.32,3.32,0,0,1-.58.69,8.7,8.7,0,0,1-.82.66c-.4.28-.72.53-1,.72a4.34,4.34,0,0,0-.61.56,1.67,1.67,0,0,0-.32.53,1.8,1.8,0,0,0-.09.6h4.19v.86h-5.19v-.42a3.43,3.43,0,0,1,.12-.95,2.81,2.81,0,0,1,.38-.78,4.83,4.83,0,0,1,.71-.74c.29-.24.65-.52,1.07-.83a6.89,6.89,0,0,0,.76-.62,2.94,2.94,0,0,0,.5-.6,2.19,2.19,0,0,0,.27-.61A2.69,2.69,0,0,0,112.45,273.1Z" fill="#1e1e1e"/>
      <path d="M119.84,276.92a2.32,2.32,0,0,1-.22,1,2.25,2.25,0,0,1-.6.8,2.74,2.74,0,0,1-.94.51,3.78,3.78,0,0,1-1.2.18A3.55,3.55,0,0,1,115,279v-1a3.11,3.11,0,0,0,2,.66,2.43,2.43,0,0,0,.79-.11,1.69,1.69,0,0,0,.61-.32,1.39,1.39,0,0,0,.39-.51,1.46,1.46,0,0,0,.14-.67q0-1.65-2.34-1.65h-.7v-.81h.66c1.39,0,2.08-.52,2.08-1.55s-.53-1.43-1.58-1.43a2.65,2.65,0,0,0-1.67.6v-.94a3.64,3.64,0,0,1,1.91-.48,2.83,2.83,0,0,1,1,.15,2.24,2.24,0,0,1,.73.41,1.8,1.8,0,0,1,.47.63,1.85,1.85,0,0,1,.17.82,2.06,2.06,0,0,1-1.67,2.13v0a3.4,3.4,0,0,1,.79.21,2.12,2.12,0,0,1,.62.42,1.85,1.85,0,0,1,.42.61A1.92,1.92,0,0,1,119.84,276.92Z" fill="#1e1e1e"/>
    </g>
    <g>
      <path d="M72.72,139.8H71.28v-8.41h1.44Z" fill="#1e1e1e"/>
      <path d="M79.87,139.8H78.51v-3.39c0-1.12-.4-1.68-1.19-1.68a1.32,1.32,0,0,0-1,.47,1.71,1.71,0,0,0-.4,1.17v3.43H74.52v-6h1.37v1h0a2.14,2.14,0,0,1,2-1.14,1.82,1.82,0,0,1,1.49.64,2.82,2.82,0,0,1,.52,1.84Z" fill="#1e1e1e"/>
      <path d="M84.61,139.73a2.42,2.42,0,0,1-1,.2c-1.17,0-1.75-.56-1.75-1.68v-3.39h-1V133.8h1v-1.39l1.36-.39v1.78h1.44v1.06H83.17v3a1.16,1.16,0,0,0,.19.76.79.79,0,0,0,.65.23.91.91,0,0,0,.6-.2Z" fill="#1e1e1e"/>
      <path d="M90.8,137.16H86.71a1.74,1.74,0,0,0,.52,1.29,1.89,1.89,0,0,0,1.34.45,2.9,2.9,0,0,0,1.76-.58v1.1a4,4,0,0,1-2.16.52,2.7,2.7,0,0,1-2.08-.82,3.28,3.28,0,0,1-.75-2.3,3.15,3.15,0,0,1,.83-2.28,2.71,2.71,0,0,1,2.06-.89,2.36,2.36,0,0,1,1.9.8,3.26,3.26,0,0,1,.67,2.19Zm-1.31-1a1.8,1.8,0,0,0-.34-1.14,1.16,1.16,0,0,0-.94-.4,1.36,1.36,0,0,0-1,.42,2,2,0,0,0-.5,1.12Z" fill="#1e1e1e"/>
      <path d="M95.59,135.09a1.11,1.11,0,0,0-.71-.19,1.22,1.22,0,0,0-1,.54,2.45,2.45,0,0,0-.4,1.48v2.88H92.11v-6h1.36V135h0a2.16,2.16,0,0,1,.62-1,1.39,1.39,0,0,1,.92-.35,1.21,1.21,0,0,1,.56.11Z" fill="#1e1e1e"/>
      <path d="M101.92,139.8h-1.36v-3.39c0-1.12-.4-1.68-1.19-1.68a1.31,1.31,0,0,0-1,.47,1.71,1.71,0,0,0-.4,1.17v3.43H96.57v-6h1.37v1h0a2.14,2.14,0,0,1,2-1.14,1.82,1.82,0,0,1,1.49.64,2.88,2.88,0,0,1,.52,1.84Z" fill="#1e1e1e"/>
      <path d="M108.17,139.8h-1.32v-.94h0a2,2,0,0,1-1.82,1.08,1.94,1.94,0,0,1-1.39-.48,1.71,1.71,0,0,1-.5-1.28c0-1.13.65-1.79,2-2l1.78-.25c0-.85-.41-1.28-1.22-1.28a2.85,2.85,0,0,0-1.93.74v-1.19a4.16,4.16,0,0,1,2.19-.57,2,2,0,0,1,2.27,2.24Zm-1.31-3-1.26.17a1.93,1.93,0,0,0-.88.29.83.83,0,0,0-.3.73.8.8,0,0,0,.27.62,1.09,1.09,0,0,0,.73.24,1.34,1.34,0,0,0,1-.43,1.56,1.56,0,0,0,.41-1.1Z" fill="#1e1e1e"/>
      <path d="M111.15,139.8h-1.36v-8.89h1.36Z" fill="#1e1e1e"/>
      <path d="M118.82,141.71H118a7.52,7.52,0,0,1-1.82-5.12,7.8,7.8,0,0,1,1.82-5.2h.87a7.91,7.91,0,0,0-1.84,5.19A7.77,7.77,0,0,0,118.82,141.71Z" fill="#1e1e1e"/>
      <path d="M119.34,139.46V138.3a2.48,2.48,0,0,0,.48.31,3.83,3.83,0,0,0,.59.24c.2.06.41.11.61.15a4.13,4.13,0,0,0,.58.05,2.18,2.18,0,0,0,1.35-.34,1.12,1.12,0,0,0,.45-1,1.15,1.15,0,0,0-.15-.59,1.6,1.6,0,0,0-.41-.46,3.91,3.91,0,0,0-.62-.4l-.78-.4c-.29-.15-.57-.3-.82-.45a3.81,3.81,0,0,1-.66-.5,1.94,1.94,0,0,1-.44-.63,1.86,1.86,0,0,1-.17-.81,1.88,1.88,0,0,1,.26-1,2,2,0,0,1,.66-.7,2.8,2.8,0,0,1,.93-.41,4.3,4.3,0,0,1,1.07-.14,4.08,4.08,0,0,1,1.81.3v1.11a3.22,3.22,0,0,0-1.91-.52,3.48,3.48,0,0,0-.64.07,2,2,0,0,0-.58.22,1.38,1.38,0,0,0-.41.39,1.1,1.1,0,0,0-.15.59,1.25,1.25,0,0,0,.12.56,1.35,1.35,0,0,0,.35.42,3.76,3.76,0,0,0,.57.38l.78.4a7.72,7.72,0,0,1,.85.47,3.59,3.59,0,0,1,.71.54,2.36,2.36,0,0,1,.49.66,2,2,0,0,1,.18.83,2.16,2.16,0,0,1-.25,1.06,2,2,0,0,1-.66.7,2.8,2.8,0,0,1-1,.39,5.15,5.15,0,0,1-1.13.12,3.31,3.31,0,0,1-.5,0l-.59-.09a4.45,4.45,0,0,1-.58-.15A2,2,0,0,1,119.34,139.46Z" fill="#1e1e1e"/>
      <path d="M130.69,139.8h-1v-1h0a2,2,0,0,1-1.85,1.09c-1.43,0-2.15-.86-2.15-2.56V133.8h1v3.43c0,1.26.48,1.9,1.45,1.9a1.49,1.49,0,0,0,1.16-.52,2,2,0,0,0,.45-1.36V133.8h1Z" fill="#1e1e1e"/>
      <path d="M133.49,138.93h0v.87h-1v-8.89h1v3.94h0a2.29,2.29,0,0,1,2.08-1.2,2.2,2.2,0,0,1,1.81.81,3.37,3.37,0,0,1,.65,2.16,3.76,3.76,0,0,1-.73,2.41,2.46,2.46,0,0,1-2,.91A2,2,0,0,1,133.49,138.93Zm0-2.42v.84a1.8,1.8,0,0,0,.48,1.26,1.73,1.73,0,0,0,2.6-.15,3.07,3.07,0,0,0,.49-1.86,2.41,2.41,0,0,0-.46-1.57,1.53,1.53,0,0,0-1.25-.57,1.71,1.71,0,0,0-1.35.59A2.13,2.13,0,0,0,133.47,136.51Z" fill="#1e1e1e"/>
      <path d="M144.49,139.8h-1v-3.43c0-1.27-.47-1.91-1.4-1.91a1.5,1.5,0,0,0-1.19.55,2,2,0,0,0-.47,1.36v3.43h-1v-6h1v1h0a2.17,2.17,0,0,1,2-1.14,1.86,1.86,0,0,1,1.51.64,2.82,2.82,0,0,1,.52,1.84Z" fill="#1e1e1e"/>
      <path d="M151.1,137h-4.23a2.18,2.18,0,0,0,.54,1.54,1.82,1.82,0,0,0,1.41.55,3,3,0,0,0,1.87-.67v.9a3.53,3.53,0,0,1-2.1.58,2.54,2.54,0,0,1-2-.82,3.33,3.33,0,0,1-.73-2.3,3.26,3.26,0,0,1,.79-2.28,2.56,2.56,0,0,1,2-.89,2.26,2.26,0,0,1,1.82.77,3.15,3.15,0,0,1,.64,2.11Zm-1-.82a2,2,0,0,0-.4-1.29,1.38,1.38,0,0,0-1.1-.47,1.6,1.6,0,0,0-1.16.49,2.21,2.21,0,0,0-.58,1.27Z" fill="#1e1e1e"/>
      <path d="M155.33,139.74a1.87,1.87,0,0,1-.89.18c-1.05,0-1.58-.58-1.58-1.75v-3.55h-1v-.82h1v-1.47l1-.31v1.78h1.51v.82h-1.51V138a1.37,1.37,0,0,0,.21.86.81.81,0,0,0,.68.26,1,1,0,0,0,.62-.2Z" fill="#1e1e1e"/>
      <path d="M156.39,141.71h-.85a7.77,7.77,0,0,0,1.83-5.13,8,8,0,0,0-1.84-5.19h.86a7.75,7.75,0,0,1,1.83,5.2A7.47,7.47,0,0,1,156.39,141.71Z" fill="#1e1e1e"/>
      <path d="M74.49,154.2h-1v-7.26a2.78,2.78,0,0,1-.32.25,5.5,5.5,0,0,1-.48.28,5,5,0,0,1-.57.27,4.76,4.76,0,0,1-.57.19v-1a6.12,6.12,0,0,0,.67-.24c.23-.1.47-.21.69-.33s.45-.25.65-.39.38-.27.53-.39h.36Z" fill="#1e1e1e"/>
      <path d="M82.18,150a8.09,8.09,0,0,1-.19,1.87,4.41,4.41,0,0,1-.55,1.37,2.4,2.4,0,0,1-.89.85,2.31,2.31,0,0,1-1.19.29,2.23,2.23,0,0,1-1.13-.28,2.29,2.29,0,0,1-.83-.81,4,4,0,0,1-.52-1.31,8.61,8.61,0,0,1-.17-1.78,9.35,9.35,0,0,1,.18-1.94,4.9,4.9,0,0,1,.54-1.42,2.52,2.52,0,0,1,.89-.86,2.56,2.56,0,0,1,1.22-.29Q82.18,145.65,82.18,150Zm-1,.09c0-2.39-.57-3.58-1.71-3.58s-1.8,1.21-1.8,3.65c0,2.27.59,3.4,1.77,3.4S81.2,152.37,81.2,150.05Z" fill="#1e1e1e"/>
      <path d="M83.89,154.32a.6.6,0,0,1-.46-.19.62.62,0,0,1-.19-.46.64.64,0,0,1,.19-.47.65.65,0,0,1,.92,0,.65.65,0,0,1,.2.47.63.63,0,0,1-.2.46A.6.6,0,0,1,83.89,154.32Z" fill="#1e1e1e"/>
      <path d="M88.36,154.2h-1v-7.26a2.78,2.78,0,0,1-.32.25,3.57,3.57,0,0,1-.48.28,5.77,5.77,0,0,1-.56.27,4.89,4.89,0,0,1-.58.19v-1a6.12,6.12,0,0,0,.67-.24c.24-.1.47-.21.7-.33s.44-.25.64-.39a5.23,5.23,0,0,0,.53-.39h.36Z" fill="#1e1e1e"/>
      <path d="M96.05,150a8.09,8.09,0,0,1-.19,1.87,4.18,4.18,0,0,1-.55,1.37,2.34,2.34,0,0,1-2.08,1.14,2.19,2.19,0,0,1-1.12-.28,2.32,2.32,0,0,1-.84-.81,3.82,3.82,0,0,1-.51-1.31,7.93,7.93,0,0,1-.18-1.78,9.35,9.35,0,0,1,.18-1.94,4.63,4.63,0,0,1,.55-1.42,2.41,2.41,0,0,1,.88-.86,2.56,2.56,0,0,1,1.22-.29Q96.05,145.65,96.05,150Zm-1,.09c0-2.39-.57-3.58-1.71-3.58s-1.8,1.21-1.8,3.65c0,2.27.59,3.4,1.77,3.4S95.07,152.37,95.07,150.05Z" fill="#1e1e1e"/>
      <path d="M97.76,154.32a.6.6,0,0,1-.46-.19.62.62,0,0,1-.19-.46.64.64,0,0,1,.19-.47.6.6,0,0,1,.46-.19.65.65,0,0,1,.66.66.62.62,0,0,1-.19.46A.64.64,0,0,1,97.76,154.32Z" fill="#1e1e1e"/>
      <path d="M102.24,154.2h-1v-7.26l-.33.25a3.57,3.57,0,0,1-.48.28,5.77,5.77,0,0,1-.56.27,4.89,4.89,0,0,1-.58.19v-1a5.46,5.46,0,0,0,.67-.24c.24-.1.47-.21.7-.33s.44-.25.65-.39a5,5,0,0,0,.52-.39h.37Z" fill="#1e1e1e"/>
      <path d="M105.24,154.32a.65.65,0,0,1-.65-.65.64.64,0,0,1,.19-.47.62.62,0,0,1,.46-.19.65.65,0,0,1,.66.66.62.62,0,0,1-.19.46A.64.64,0,0,1,105.24,154.32Z" fill="#1e1e1e"/>
      <path d="M112.46,150a8.09,8.09,0,0,1-.19,1.87,4.41,4.41,0,0,1-.55,1.37,2.4,2.4,0,0,1-.89.85,2.33,2.33,0,0,1-1.19.29,2.23,2.23,0,0,1-1.13-.28,2.29,2.29,0,0,1-.83-.81,4,4,0,0,1-.52-1.31,8.61,8.61,0,0,1-.17-1.78,9.35,9.35,0,0,1,.18-1.94,4.9,4.9,0,0,1,.54-1.42,2.52,2.52,0,0,1,.89-.86,2.56,2.56,0,0,1,1.22-.29Q112.46,145.65,112.46,150Zm-1,.09c0-2.39-.57-3.58-1.71-3.58s-1.8,1.21-1.8,3.65c0,2.27.59,3.4,1.77,3.4S111.48,152.37,111.48,150.05Z" fill="#1e1e1e"/>
      <path d="M117.31,145.79l-4,9.8h-.89l4-9.8Z" fill="#1e1e1e"/>
      <path d="M121.76,148a1.76,1.76,0,0,0-.12-.68,1.37,1.37,0,0,0-.33-.48,1.39,1.39,0,0,0-.49-.28,2,2,0,0,0-.61-.09,2,2,0,0,0-.55.07,2.66,2.66,0,0,0-.53.21,3,3,0,0,0-.49.33,3.39,3.39,0,0,0-.44.41v-1a3,3,0,0,1,.9-.6,3.23,3.23,0,0,1,1.23-.21,2.91,2.91,0,0,1,1,.15,2.2,2.2,0,0,1,.76.44,1.93,1.93,0,0,1,.51.71,2.42,2.42,0,0,1,.18,1,3.2,3.2,0,0,1-.11.91,2.75,2.75,0,0,1-.35.76,3.28,3.28,0,0,1-.58.68,6.7,6.7,0,0,1-.83.67l-1,.72a4.34,4.34,0,0,0-.61.56,1.75,1.75,0,0,0-.32.52,1.89,1.89,0,0,0-.09.6h4.19v.87h-5.19v-.42a3.38,3.38,0,0,1,.12-.95,2.59,2.59,0,0,1,.39-.78,4,4,0,0,1,.7-.74c.29-.24.65-.52,1.07-.83a7.93,7.93,0,0,0,.77-.63,3.64,3.64,0,0,0,.49-.59,2.71,2.71,0,0,0,.27-.61A2.75,2.75,0,0,0,121.76,148Z" fill="#1e1e1e"/>
      <path d="M128.44,145.79v5.55h1.07v.88h-1.07v2h-1v-2h-3.95v-.83c.36-.42.73-.86,1.11-1.33s.73-.95,1.08-1.43.65-1,.94-1.45a11.89,11.89,0,0,0,.74-1.39Zm-3.82,5.55h2.87v-4.11c-.3.51-.57,1-.84,1.37s-.51.77-.74,1.1l-.68.89Z" fill="#1e1e1e"/>
    </g>
    <g>
      <path d="M117.68,204.46V203a2.31,2.31,0,0,0,.46.31,2.87,2.87,0,0,0,.57.24,5.66,5.66,0,0,0,.59.15,3.86,3.86,0,0,0,.55.05,2.37,2.37,0,0,0,1.31-.29,1,1,0,0,0,.43-.85.9.9,0,0,0-.14-.52,1.52,1.52,0,0,0-.4-.4,3.78,3.78,0,0,0-.61-.35l-.74-.35c-.29-.15-.55-.3-.8-.46a3.37,3.37,0,0,1-.64-.52,2.12,2.12,0,0,1-.43-.64,2.17,2.17,0,0,1-.16-.84,1.93,1.93,0,0,1,.27-1,2.29,2.29,0,0,1,.7-.72,3.31,3.31,0,0,1,1-.42,4.79,4.79,0,0,1,1.13-.14,4.64,4.64,0,0,1,1.93.3v1.38a3,3,0,0,0-1.84-.52,3.18,3.18,0,0,0-.62.06,1.78,1.78,0,0,0-.55.19,1.14,1.14,0,0,0-.4.35.85.85,0,0,0-.15.51,1,1,0,0,0,.12.49,1.17,1.17,0,0,0,.34.37,3.07,3.07,0,0,0,.55.33c.22.11.47.23.75.35a8.21,8.21,0,0,1,.83.48,4.32,4.32,0,0,1,.69.56,2.8,2.8,0,0,1,.47.67,2.3,2.3,0,0,1-.09,1.93,2,2,0,0,1-.69.71,2.93,2.93,0,0,1-1,.4,5.19,5.19,0,0,1-1.2.13,3.66,3.66,0,0,1-.52,0l-.63-.09a5.44,5.44,0,0,1-.61-.15A1.81,1.81,0,0,1,117.68,204.46Z" fill="#1e1e1e"/>
      <path d="M127.35,204.73a2.42,2.42,0,0,1-1,.2,1.51,1.51,0,0,1-1.74-1.68v-3.39h-1V198.8h1v-1.39l1.35-.39v1.78h1.44v1.06h-1.44v3a1.15,1.15,0,0,0,.2.76.77.77,0,0,0,.64.23.91.91,0,0,0,.6-.2Z" fill="#1e1e1e"/>
      <path d="M131.1,204.94a3,3,0,0,1-2.21-.84,3,3,0,0,1-.83-2.23,3,3,0,0,1,3.19-3.22,2.87,2.87,0,0,1,2.19.83,3.17,3.17,0,0,1,.79,2.29,3.11,3.11,0,0,1-.85,2.3A3,3,0,0,1,131.1,204.94Zm.07-5.2a1.53,1.53,0,0,0-1.26.56,2.31,2.31,0,0,0-.46,1.53,2.18,2.18,0,0,0,.47,1.49,1.57,1.57,0,0,0,1.25.54,1.48,1.48,0,0,0,1.23-.54,2.32,2.32,0,0,0,.43-1.51,2.38,2.38,0,0,0-.43-1.53A1.48,1.48,0,0,0,131.17,199.74Z" fill="#1e1e1e"/>
      <path d="M139.06,200.09a1.13,1.13,0,0,0-.71-.19,1.21,1.21,0,0,0-1,.54,2.45,2.45,0,0,0-.41,1.48v2.88h-1.35v-6h1.35V200h0a2.07,2.07,0,0,1,.61-1,1.41,1.41,0,0,1,.92-.35,1.22,1.22,0,0,1,.57.11Z" fill="#1e1e1e"/>
      <path d="M144.57,204.8h-1.32v-.94h0a2,2,0,0,1-1.82,1.08,1.92,1.92,0,0,1-1.39-.48,1.71,1.71,0,0,1-.5-1.28c0-1.13.65-1.79,2-2l1.78-.25c0-.85-.41-1.28-1.22-1.28a2.88,2.88,0,0,0-1.94.74v-1.19a4.22,4.22,0,0,1,2.2-.57,2,2,0,0,1,2.27,2.24Zm-1.31-3L142,202a1.93,1.93,0,0,0-.88.29.83.83,0,0,0-.3.73.8.8,0,0,0,.27.62,1.07,1.07,0,0,0,.73.24,1.34,1.34,0,0,0,1-.43,1.56,1.56,0,0,0,.41-1.1Z" fill="#1e1e1e"/>
      <path d="M151.69,204.31q0,3.31-3.32,3.31a5,5,0,0,1-2.05-.39V206a3.76,3.76,0,0,0,1.87.57,1.88,1.88,0,0,0,2.14-2.11v-.65h0a2.36,2.36,0,0,1-3.8.35,3.24,3.24,0,0,1-.67-2.15,3.78,3.78,0,0,1,.72-2.43,2.4,2.4,0,0,1,2-.91,1.93,1.93,0,0,1,1.77,1h0v-.83h1.36Zm-1.35-2.26v-.78a1.53,1.53,0,0,0-.42-1.08,1.37,1.37,0,0,0-1-.45,1.43,1.43,0,0,0-1.21.57,2.58,2.58,0,0,0-.44,1.6,2.19,2.19,0,0,0,.42,1.41,1.33,1.33,0,0,0,1.11.53,1.45,1.45,0,0,0,1.14-.5A2,2,0,0,0,150.34,202.05Z" fill="#1e1e1e"/>
      <path d="M158.5,202.16h-4.09a1.77,1.77,0,0,0,.51,1.29,1.93,1.93,0,0,0,1.35.45,2.9,2.9,0,0,0,1.76-.58v1.1a4,4,0,0,1-2.17.52,2.69,2.69,0,0,1-2.07-.82,3.29,3.29,0,0,1-.76-2.3,3.2,3.2,0,0,1,.83-2.28,2.72,2.72,0,0,1,2.06-.89,2.38,2.38,0,0,1,1.91.8,3.26,3.26,0,0,1,.67,2.19Zm-1.31-1a1.8,1.8,0,0,0-.35-1.14,1.14,1.14,0,0,0-.93-.4,1.33,1.33,0,0,0-1,.42,2,2,0,0,0-.5,1.12Z" fill="#1e1e1e"/>
      <path d="M163,202h-3.2v-1H163Z" fill="#1e1e1e"/>
      <path d="M166.22,204.8h-1.43v-8.41h1.43Z" fill="#1e1e1e"/>
      <path d="M173.37,204.8H172v-3.39c0-1.12-.39-1.68-1.19-1.68a1.3,1.3,0,0,0-1,.47,1.72,1.72,0,0,0-.41,1.17v3.43H168v-6h1.36v1h0a2.13,2.13,0,0,1,1.94-1.14,1.85,1.85,0,0,1,1.5.64,2.88,2.88,0,0,1,.51,1.84Z" fill="#1e1e1e"/>
      <path d="M178.11,204.73a2.42,2.42,0,0,1-1.05.2c-1.16,0-1.75-.56-1.75-1.68v-3.39h-1V198.8h1v-1.39l1.36-.39v1.78h1.44v1.06h-1.44v3a1.15,1.15,0,0,0,.2.76.77.77,0,0,0,.64.23.91.91,0,0,0,.6-.2Z" fill="#1e1e1e"/>
      <path d="M184.31,202.16h-4.09a1.7,1.7,0,0,0,.51,1.29,1.91,1.91,0,0,0,1.34.45,3,3,0,0,0,1.77-.58v1.1a4.07,4.07,0,0,1-2.17.52,2.71,2.71,0,0,1-2.08-.82,3.28,3.28,0,0,1-.75-2.3,3.2,3.2,0,0,1,.83-2.28,2.71,2.71,0,0,1,2.06-.89,2.36,2.36,0,0,1,1.9.8,3.26,3.26,0,0,1,.68,2.19Zm-1.32-1a1.74,1.74,0,0,0-.34-1.14,1.16,1.16,0,0,0-.94-.4,1.32,1.32,0,0,0-1,.42,2,2,0,0,0-.5,1.12Z" fill="#1e1e1e"/>
      <path d="M189.09,200.09a1.1,1.1,0,0,0-.7-.19,1.21,1.21,0,0,0-1,.54,2.45,2.45,0,0,0-.41,1.48v2.88h-1.36v-6H187V200h0a2.07,2.07,0,0,1,.61-1,1.39,1.39,0,0,1,.92-.35,1.15,1.15,0,0,1,.56.11Z" fill="#1e1e1e"/>
      <path d="M195.42,204.8h-1.36v-3.39c0-1.12-.4-1.68-1.19-1.68a1.32,1.32,0,0,0-1,.47,1.71,1.71,0,0,0-.4,1.17v3.43h-1.37v-6h1.37v1h0a2.14,2.14,0,0,1,1.95-1.14,1.82,1.82,0,0,1,1.49.64,2.82,2.82,0,0,1,.52,1.84Z" fill="#1e1e1e"/>
      <path d="M201.67,204.8h-1.31v-.94h0a2,2,0,0,1-1.82,1.08,1.9,1.9,0,0,1-1.38-.48,1.68,1.68,0,0,1-.51-1.28c0-1.13.66-1.79,2-2l1.78-.25c0-.85-.4-1.28-1.22-1.28a2.85,2.85,0,0,0-1.93.74v-1.19a4.16,4.16,0,0,1,2.19-.57,2,2,0,0,1,2.27,2.24Zm-1.31-3-1.26.17a2,2,0,0,0-.88.29.83.83,0,0,0-.3.73.8.8,0,0,0,.28.62,1.05,1.05,0,0,0,.73.24,1.37,1.37,0,0,0,1-.43,1.55,1.55,0,0,0,.4-1.1Z" fill="#1e1e1e"/>
      <path d="M204.66,204.8h-1.37v-8.89h1.37Z" fill="#1e1e1e"/>
      <path d="M209.47,202h-3.2v-1h3.2Z" fill="#1e1e1e"/>
      <path d="M216.39,204.8H215v-3.39c0-1.12-.4-1.68-1.19-1.68a1.32,1.32,0,0,0-1,.47,1.71,1.71,0,0,0-.4,1.17v3.43H211v-6h1.37v1h0a2.14,2.14,0,0,1,1.95-1.14,1.82,1.82,0,0,1,1.49.64,2.82,2.82,0,0,1,.52,1.84Z" fill="#1e1e1e"/>
      <path d="M218.67,197.54a.85.85,0,0,1-.57-.22.72.72,0,0,1-.24-.55.74.74,0,0,1,.24-.56.8.8,0,0,1,.57-.22.83.83,0,0,1,.59.22.74.74,0,0,1,.24.56.71.71,0,0,1-.24.54A.84.84,0,0,1,218.67,197.54Zm.68,7.26H218v-6h1.36Z" fill="#1e1e1e"/>
      <path d="M225.35,204.52a3.33,3.33,0,0,1-1.71.42,2.85,2.85,0,0,1-2.15-.84,3,3,0,0,1-.83-2.16,3.27,3.27,0,0,1,.89-2.39,3.13,3.13,0,0,1,2.36-.9,3.46,3.46,0,0,1,1.44.29v1.27a2.2,2.2,0,0,0-1.33-.47,1.86,1.86,0,0,0-1.42.58,2.17,2.17,0,0,0-.55,1.53,2.06,2.06,0,0,0,.52,1.47,1.85,1.85,0,0,0,1.39.54,2.25,2.25,0,0,0,1.39-.52Z" fill="#1e1e1e"/>
      <path d="M154.24,219.2h-1v-7.26a2.3,2.3,0,0,1-.33.25,3.57,3.57,0,0,1-.48.28,4.15,4.15,0,0,1-.56.27,4.89,4.89,0,0,1-.58.19v-1a5.46,5.46,0,0,0,.67-.24c.24-.1.47-.21.7-.33s.45-.25.65-.39.38-.27.53-.39h.36Z" fill="#1e1e1e"/>
      <path d="M161.93,215a8.09,8.09,0,0,1-.19,1.87,4.41,4.41,0,0,1-.55,1.37,2.4,2.4,0,0,1-.89.85,2.33,2.33,0,0,1-1.19.29,2.22,2.22,0,0,1-2-1.09,4,4,0,0,1-.52-1.31,8,8,0,0,1-.17-1.78,9.35,9.35,0,0,1,.18-1.94,4.38,4.38,0,0,1,.54-1.42,2.36,2.36,0,0,1,2.11-1.15Q161.93,210.65,161.93,215Zm-1,.09c0-2.39-.56-3.58-1.7-3.58s-1.8,1.21-1.8,3.65c0,2.27.59,3.4,1.76,3.4S160.94,217.37,160.94,215.05Z" fill="#1e1e1e"/>
      <path d="M163.63,219.32a.62.62,0,0,1-.46-.19.66.66,0,0,1-.19-.46.68.68,0,0,1,.19-.47.62.62,0,0,1,.46-.19.63.63,0,0,1,.47.19.65.65,0,0,1,.2.47.67.67,0,0,1-.67.65Z" fill="#1e1e1e"/>
      <path d="M168.11,219.2h-1v-7.26a2.78,2.78,0,0,1-.32.25,5.5,5.5,0,0,1-.48.28,5,5,0,0,1-.57.27,4.76,4.76,0,0,1-.57.19v-1a6.12,6.12,0,0,0,.67-.24c.23-.1.47-.21.69-.33s.45-.25.65-.39.38-.27.53-.39h.36Z" fill="#1e1e1e"/>
      <path d="M175.8,215a8.09,8.09,0,0,1-.19,1.87,4.41,4.41,0,0,1-.55,1.37,2.4,2.4,0,0,1-.89.85,2.31,2.31,0,0,1-1.19.29,2.23,2.23,0,0,1-1.13-.28,2.29,2.29,0,0,1-.83-.81,4,4,0,0,1-.52-1.31,8.61,8.61,0,0,1-.17-1.78,9.35,9.35,0,0,1,.18-1.94,4.9,4.9,0,0,1,.54-1.42,2.52,2.52,0,0,1,.89-.86,2.56,2.56,0,0,1,1.22-.29Q175.8,210.65,175.8,215Zm-1,.09c0-2.39-.57-3.58-1.71-3.58s-1.8,1.21-1.8,3.65c0,2.27.59,3.4,1.77,3.4S174.82,217.37,174.82,215.05Z" fill="#1e1e1e"/>
      <path d="M177.51,219.32a.6.6,0,0,1-.46-.19.62.62,0,0,1-.19-.46.64.64,0,0,1,.19-.47.65.65,0,0,1,.92,0,.65.65,0,0,1,.2.47.63.63,0,0,1-.2.46A.6.6,0,0,1,177.51,219.32Z" fill="#1e1e1e"/>
      <path d="M182,219.2h-1v-7.26a2.78,2.78,0,0,1-.32.25,3.57,3.57,0,0,1-.48.28,5.77,5.77,0,0,1-.56.27,4.89,4.89,0,0,1-.58.19v-1a6.12,6.12,0,0,0,.67-.24c.24-.1.47-.21.7-.33s.44-.25.64-.39a5.23,5.23,0,0,0,.53-.39H182Z" fill="#1e1e1e"/>
      <path d="M185,219.32a.6.6,0,0,1-.46-.19.62.62,0,0,1-.19-.46.64.64,0,0,1,.19-.47A.6.6,0,0,1,185,218a.64.64,0,0,1,.47.19.68.68,0,0,1,.19.47.66.66,0,0,1-.19.46A.64.64,0,0,1,185,219.32Z" fill="#1e1e1e"/>
      <path d="M191.35,210.79v5.55h1.08v.88h-1.08v2h-.95v-2h-4v-.83c.37-.42.74-.86,1.12-1.33s.73-.95,1.07-1.43.66-1,1-1.45a13.62,13.62,0,0,0,.74-1.39Zm-3.81,5.55h2.86v-4.11c-.29.51-.57,1-.83,1.37s-.51.77-.75,1.1-.46.62-.67.89S187.73,216.1,187.54,216.34Z" fill="#1e1e1e"/>
    </g>
  </g>
</svg>
