<svg xmlns="http://www.w3.org/2000/svg" xmlns:xlink="http://www.w3.org/1999/xlink" viewBox="0 0 390 145.2">
  <defs>
    <radialGradient id="radial-gradient" cx="16.59" cy="75.2" r="9" gradientUnits="userSpaceOnUse">
      <stop offset="0.45" stop-color="#0078d4"/>
      <stop offset="0.81" stop-color="#0063af"/>
      <stop offset="1" stop-color="#005ba1"/>
    </radialGradient>
    <radialGradient id="radial-gradient-2" cx="16.59" cy="129.2" xlink:href="#radial-gradient"/>
    <radialGradient id="radial-gradient-3" cx="235.72" cy="75.2" xlink:href="#radial-gradient"/>
    <linearGradient id="linear-gradient" x1="16.24" y1="384.99" x2="16.24" y2="406.63" gradientTransform="matrix(1, 0, 0, -1, 0, 406.83)" gradientUnits="userSpaceOnUse">
      <stop offset="0" stop-color="#0078d4"/>
      <stop offset="0.82" stop-color="#5ea0ef"/>
    </linearGradient>
    <linearGradient id="linear-gradient-2" x1="16.24" y1="376.63" x2="16.24" y2="384.99" gradientTransform="matrix(1, 0, 0, -1, 0, 406.83)" gradientUnits="userSpaceOnUse">
      <stop offset="0.15" stop-color="#ccc"/>
      <stop offset="1" stop-color="#707070"/>
    </linearGradient>
    <linearGradient id="linear-gradient-3" x1="227.95" y1="384.99" x2="227.95" y2="406.63" xlink:href="#linear-gradient"/>
    <linearGradient id="linear-gradient-4" x1="227.95" y1="376.63" x2="227.95" y2="384.99" xlink:href="#linear-gradient-2"/>
  </defs>
  <g id="Shapes">
    <rect y="0.2" width="390" height="145" fill="#fff"/>
    <g>
      <rect y="35.2" width="192.26" height="110" fill="#fff"/>
      <rect y="35.2" width="192.26" height="110" fill="#0072c6" opacity="0.08"/>
    </g>
    <g>
      <rect x="211.72" y="35.2" width="178.28" height="110" fill="#fff"/>
      <rect x="211.72" y="35.2" width="178.28" height="110" fill="#3c3c41" opacity="0.08"/>
    </g>
    <g>
      <circle cx="16.59" cy="75.2" r="9" fill="url(#radial-gradient)"/>
      <path d="M17.78,70.91V79.5H16.42V72.58a4.69,4.69,0,0,1-.79.44,5.79,5.79,0,0,1-1,.33V72.19l.65-.23.63-.28c.2-.1.41-.21.62-.34s.42-.27.65-.43Z" fill="#fff"/>
    </g>
    <path d="M35.1,45.2a2,2,0,0,0-1.3.39,2,2,0,0,0-.65,1.2q-1.75,8-3.5,16h0a2.07,2.07,0,0,0,.29,1.67,1.94,1.94,0,0,0,1.58.75H49.59a1.87,1.87,0,0,0,1.31-.5,2.11,2.11,0,0,0,.57-1.12h0L55,47.51a2,2,0,0,0-.3-1.66,2,2,0,0,0-1.55-.65Zm0,1.82H53.22s0,0,0,.09q-1.76,8-3.52,16.07h0c0,.17-.07.2-.07.19H31.52c-.17,0-.12,0-.11,0s0,0,0-.22h0q1.76-8,3.5-16A.81.81,0,0,1,35,47Zm3.15.89a1.36,1.36,0,0,0-1.4,1.32,1.34,1.34,0,0,0,.38,1l4.4,4.7L34.69,60a1.36,1.36,0,1,0,1.54,2.25l.07,0,8.19-6a1.37,1.37,0,0,0,.29-1.9.69.69,0,0,0-.11-.13l-5.45-5.82A1.43,1.43,0,0,0,38.25,47.91Zm3.61,11.84a1.36,1.36,0,0,0,0,2.72H45.5a1.36,1.36,0,0,0,0-2.72H41.86Z"/>
    <g>
      <circle cx="16.59" cy="129.2" r="9" fill="url(#radial-gradient-2)"/>
      <path d="M14,133.19v-1.28a2.86,2.86,0,0,0,1.85.65,2.11,2.11,0,0,0,1.34-.38,1.22,1.22,0,0,0,.5-1c0-1-.73-1.43-2.18-1.43h-.65v-1.09h.62c1.29,0,1.94-.45,1.94-1.34S16.89,126,15.88,126a2.42,2.42,0,0,0-1.58.61v-1.21a4.05,4.05,0,0,1,2-.48,2.74,2.74,0,0,1,1.79.56,1.8,1.8,0,0,1,.67,1.44,2.06,2.06,0,0,1-1.68,2.14v0a2.19,2.19,0,0,1,1.43.64,1.89,1.89,0,0,1,.53,1.36,2.23,2.23,0,0,1-.85,1.83,3.44,3.44,0,0,1-2.24.69A3.83,3.83,0,0,1,14,133.19Z" fill="#fff"/>
    </g>
    <path d="M35.1,100.2a2,2,0,0,0-1.3.39,2,2,0,0,0-.65,1.2q-1.75,8-3.5,16h0a2.07,2.07,0,0,0,.29,1.67,1.94,1.94,0,0,0,1.58.75H49.59a1.87,1.87,0,0,0,1.31-.5,2.11,2.11,0,0,0,.57-1.12h0L55,102.51a2,2,0,0,0-.3-1.66,2,2,0,0,0-1.55-.65Zm0,1.82H53.22s0,0,0,.09q-1.76,8-3.52,16.07h0c0,.17-.07.2-.07.19H31.52c-.17,0-.12,0-.11,0s0,0,0-.22h0q1.76-8,3.5-16a.81.81,0,0,1,0-.15Zm3.15.89a1.36,1.36,0,0,0-1.4,1.32,1.34,1.34,0,0,0,.38,1l4.4,4.7L34.69,115a1.36,1.36,0,1,0,1.54,2.25l.07-.05,8.19-6a1.37,1.37,0,0,0,.29-1.9.69.69,0,0,0-.11-.13l-5.45-5.82A1.43,1.43,0,0,0,38.25,102.91Zm3.61,11.84a1.36,1.36,0,0,0,0,2.72H45.5a1.36,1.36,0,1,0,0-2.72H41.86Z"/>
    <g>
      <circle cx="235.72" cy="75.2" r="9" fill="url(#radial-gradient-3)"/>
      <path d="M238.24,79.5H233v-.65a2.67,2.67,0,0,1,.11-.75,3.5,3.5,0,0,1,.3-.65,3.54,3.54,0,0,1,.44-.58c.17-.18.35-.36.54-.53s.39-.33.59-.49l.58-.48a5.45,5.45,0,0,0,.49-.45,2.74,2.74,0,0,0,.39-.45,2.3,2.3,0,0,0,.24-.5,1.69,1.69,0,0,0,.09-.56,1.47,1.47,0,0,0-.1-.58,1.17,1.17,0,0,0-.29-.42,1.12,1.12,0,0,0-.44-.25,1.59,1.59,0,0,0-.55-.09,2.58,2.58,0,0,0-1,.24,3.67,3.67,0,0,0-1,.72v-1.3a4.21,4.21,0,0,1,.52-.34,3.19,3.19,0,0,1,.54-.24,3.75,3.75,0,0,1,.6-.14,4.43,4.43,0,0,1,.66-.05,3.33,3.33,0,0,1,1,.15,2.1,2.1,0,0,1,.79.44,1.89,1.89,0,0,1,.51.72,2.59,2.59,0,0,1,.18,1,3.3,3.3,0,0,1-.13.92,2.6,2.6,0,0,1-.36.75,3.5,3.5,0,0,1-.56.67c-.22.21-.46.43-.73.65l-.68.54q-.33.26-.6.51a2.51,2.51,0,0,0-.44.5.88.88,0,0,0-.17.5v0h3.8Z" fill="#fff"/>
    </g>
    <path d="M253.23,45.2a2,2,0,0,0-1.3.39,2,2,0,0,0-.65,1.2q-1.75,8-3.5,16h0a2,2,0,0,0,.29,1.67,1.94,1.94,0,0,0,1.58.75h18.07a1.89,1.89,0,0,0,1.31-.5,2.11,2.11,0,0,0,.57-1.12h0l3.51-16.06a1.94,1.94,0,0,0-.31-1.66,1.91,1.91,0,0,0-1.54-.65Zm0,1.82h18.12s0,0,0,.09q-1.74,8-3.51,16.07h0a.48.48,0,0,1-.07.19H249.65c-.17,0-.13,0-.11,0s0,0,0-.22h0q1.75-8,3.5-16a.81.81,0,0,1,0-.15Zm3.15.89a1.36,1.36,0,0,0-1.4,1.32,1.34,1.34,0,0,0,.38,1l4.4,4.7L252.82,60a1.36,1.36,0,1,0,1.54,2.25l.07,0,8.18-6a1.36,1.36,0,0,0,.3-1.9l-.11-.13-5.45-5.82A1.43,1.43,0,0,0,256.38,47.91ZM260,59.75a1.36,1.36,0,1,0,0,2.72h3.68a1.36,1.36,0,1,0,0-2.72H260Z"/>
    <g>
      <line x1="175.72" y1="75.2" x2="219.34" y2="75.2" fill="none" stroke="#3c3c41" stroke-miterlimit="10"/>
      <polygon points="218.24 78.94 224.72 75.2 218.24 71.46 218.24 78.94" fill="#3c3c41"/>
    </g>
    <g>
      <path d="M235.72,86.2v19a5,5,0,0,1-5,5H63.1" fill="none" stroke="#3c3c41" stroke-miterlimit="10"/>
      <polygon points="64.19 106.46 57.72 110.2 64.19 113.94 64.19 106.46" fill="#3c3c41"/>
    </g>
    <g>
      <rect y="0.2" width="32.47" height="21.65" rx="1.08" fill="url(#linear-gradient)"/>
      <polygon points="21.65 7.87 21.65 14.16 16.24 17.34 16.24 11.03 21.65 7.87" fill="#50e6ff"/>
      <polygon points="21.65 7.87 16.24 11.04 10.82 7.87 16.24 4.71 21.65 7.87" fill="#c3f1ff"/>
      <polygon points="16.24 11.04 16.24 17.34 10.82 14.16 10.82 7.87 16.24 11.04" fill="#9cebff"/>
      <polygon points="10.82 14.16 16.24 11.03 16.24 17.34 10.82 14.16" fill="#c3f1ff"/>
      <polygon points="21.65 14.16 16.24 11.03 16.24 17.34 21.65 14.16" fill="#9cebff"/>
      <path d="M22.75,28.4c-3.21-.51-3.34-2.82-3.34-6.55H13c0,3.73-.11,6-3.32,6.55a1.8,1.8,0,0,0-1.6,1.8H24.35A1.79,1.79,0,0,0,22.75,28.4Z" fill="url(#linear-gradient-2)"/>
    </g>
    <g>
      <rect x="211.72" y="0.2" width="32.47" height="21.65" rx="1.08" fill="url(#linear-gradient-3)"/>
      <polygon points="233.37 7.87 233.37 14.16 227.95 17.34 227.95 11.03 233.37 7.87" fill="#50e6ff"/>
      <polygon points="233.37 7.87 227.95 11.04 222.54 7.87 227.95 4.71 233.37 7.87" fill="#c3f1ff"/>
      <polygon points="227.95 11.04 227.95 17.34 222.54 14.16 222.54 7.87 227.95 11.04" fill="#9cebff"/>
      <polygon points="222.54 14.16 227.95 11.03 227.95 17.34 222.54 14.16" fill="#c3f1ff"/>
      <polygon points="233.37 14.16 227.95 11.03 227.95 17.34 233.37 14.16" fill="#9cebff"/>
      <path d="M234.47,28.4c-3.21-.51-3.34-2.82-3.34-6.55h-6.37c0,3.73-.11,6-3.32,6.55a1.79,1.79,0,0,0-1.6,1.8h16.23A1.8,1.8,0,0,0,234.47,28.4Z" fill="url(#linear-gradient-4)"/>
    </g>
  </g>
  <g id="Text">
    <g>
      <path d="M38.44,3.25A1.06,1.06,0,0,1,37.67,3a.88.88,0,0,1-.3-.68.87.87,0,0,1,.3-.68,1.14,1.14,0,0,1,.77-.26,1.16,1.16,0,0,1,.77.26.89.89,0,0,1,.29.68.91.91,0,0,1-.29.69A1.11,1.11,0,0,1,38.44,3.25Zm.91,7H37.5v-6h1.85Z" fill="#1e1e1e"/>
      <path d="M40.7,9.88V8a3.68,3.68,0,0,0,1.11.65A3.63,3.63,0,0,0,43,8.86a2.3,2.3,0,0,0,.62-.07,1.57,1.57,0,0,0,.45-.17.83.83,0,0,0,.26-.27A.69.69,0,0,0,44.44,8a.77.77,0,0,0-.14-.44,1.47,1.47,0,0,0-.38-.36,4.45,4.45,0,0,0-.58-.31c-.22-.11-.46-.21-.72-.31a3.66,3.66,0,0,1-1.47-1,2.19,2.19,0,0,1-.48-1.43A2.32,2.32,0,0,1,40.93,3a2.25,2.25,0,0,1,.72-.78A3.33,3.33,0,0,1,42.7,1.8,5.75,5.75,0,0,1,44,1.66a6.81,6.81,0,0,1,1.16.08,4.22,4.22,0,0,1,.93.24V3.73a2.9,2.9,0,0,0-.46-.26,3.82,3.82,0,0,0-.51-.18,4.82,4.82,0,0,0-.52-.11l-.5,0a2.58,2.58,0,0,0-.58.06,1.57,1.57,0,0,0-.45.17.91.91,0,0,0-.28.27.6.6,0,0,0-.1.35.67.67,0,0,0,.11.37,1.21,1.21,0,0,0,.32.32,2.54,2.54,0,0,0,.5.29,7,7,0,0,0,.66.3,6.86,6.86,0,0,1,.9.45,3.15,3.15,0,0,1,.69.53,2.08,2.08,0,0,1,.44.69,2.4,2.4,0,0,1,.15.89A2.48,2.48,0,0,1,46.17,9a2.08,2.08,0,0,1-.73.77,3.15,3.15,0,0,1-1.06.43,6.53,6.53,0,0,1-1.28.13,7,7,0,0,1-1.32-.12A4,4,0,0,1,40.7,9.88Z" fill="#1e1e1e"/>
      <path d="M53.84,9.9a5.46,5.46,0,0,1-2.4.45,4,4,0,0,1-3-1.14,4.16,4.16,0,0,1-1.11-3,4.45,4.45,0,0,1,1.24-3.27,4.39,4.39,0,0,1,3.24-1.25A5.94,5.94,0,0,1,53.84,2V3.79a3.71,3.71,0,0,0-1.92-.5A2.56,2.56,0,0,0,50,4a2.75,2.75,0,0,0-.73,2A2.69,2.69,0,0,0,50,8a2.41,2.41,0,0,0,1.84.72,3.93,3.93,0,0,0,2-.54Z" fill="#1e1e1e"/>
      <path d="M54.92,9.88V8A3.68,3.68,0,0,0,56,8.65a3.57,3.57,0,0,0,1.2.21,2.38,2.38,0,0,0,.63-.07,1.62,1.62,0,0,0,.44-.17.87.87,0,0,0,.27-.27A.69.69,0,0,0,58.66,8a.77.77,0,0,0-.14-.44,1.7,1.7,0,0,0-.39-.36,3.44,3.44,0,0,0-.58-.31c-.22-.11-.46-.21-.72-.31a3.7,3.7,0,0,1-1.46-1,2.14,2.14,0,0,1-.49-1.43A2.21,2.21,0,0,1,55.15,3a2.13,2.13,0,0,1,.71-.78,3.5,3.5,0,0,1,1.06-.45,5.66,5.66,0,0,1,1.26-.14,6.67,6.67,0,0,1,1.16.08,4.46,4.46,0,0,1,.94.24V3.73a2.9,2.9,0,0,0-.46-.26l-.51-.18a5,5,0,0,0-.53-.11l-.49,0a2.68,2.68,0,0,0-.59.06,1.62,1.62,0,0,0-.44.17.84.84,0,0,0-.29.27.68.68,0,0,0-.1.35.61.61,0,0,0,.12.37,1.17,1.17,0,0,0,.31.32,3.3,3.3,0,0,0,.5.29l.66.3a7,7,0,0,1,.91.45,3.4,3.4,0,0,1,.69.53A2.26,2.26,0,0,1,60.5,7a2.4,2.4,0,0,1,.15.89A2.37,2.37,0,0,1,60.38,9a2.13,2.13,0,0,1-.72.77,3.2,3.2,0,0,1-1.07.43,6.53,6.53,0,0,1-1.28.13A6.86,6.86,0,0,1,56,10.23,3.81,3.81,0,0,1,54.92,9.88Z" fill="#1e1e1e"/>
      <path d="M63.92,10.2H62V1.8h1.89Z" fill="#1e1e1e"/>
      <path d="M75.17,9.9a5.53,5.53,0,0,1-2.4.45,4.07,4.07,0,0,1-3-1.14,4.19,4.19,0,0,1-1.1-3,4.45,4.45,0,0,1,1.24-3.27,4.38,4.38,0,0,1,3.23-1.25A6,6,0,0,1,75.17,2V3.79a3.74,3.74,0,0,0-1.92-.5A2.56,2.56,0,0,0,71.34,4a2.75,2.75,0,0,0-.73,2A2.73,2.73,0,0,0,71.29,8a2.45,2.45,0,0,0,1.85.72,4,4,0,0,0,2-.54Z" fill="#1e1e1e"/>
      <path d="M78.3,10.2H76.45V1.32H78.3Z" fill="#1e1e1e"/>
      <path d="M80.8,3.25A1.07,1.07,0,0,1,80,3a.88.88,0,0,1-.3-.68.87.87,0,0,1,.3-.68,1.27,1.27,0,0,1,1.54,0,.86.86,0,0,1,.29.68.88.88,0,0,1-.29.69A1.11,1.11,0,0,1,80.8,3.25Zm.91,7H79.86v-6h1.85Z" fill="#1e1e1e"/>
      <path d="M88.66,7.73H84.75c.06.87.61,1.31,1.64,1.31a3.24,3.24,0,0,0,1.74-.47V9.9a4.5,4.5,0,0,1-2.16.45,3,3,0,0,1-2.25-.81,3,3,0,0,1-.81-2.25,3.19,3.19,0,0,1,.87-2.36,2.91,2.91,0,0,1,2.13-.88,2.6,2.6,0,0,1,2,.78A3,3,0,0,1,88.66,7ZM87,6.59q0-1.29-1-1.29a1,1,0,0,0-.77.37,1.6,1.6,0,0,0-.39.92Z" fill="#1e1e1e"/>
      <path d="M95.56,10.2H93.71V6.87c0-.93-.33-1.4-1-1.4a1,1,0,0,0-.79.37,1.41,1.41,0,0,0-.32.94V10.2H89.76v-6h1.85v1h0a2.12,2.12,0,0,1,1.93-1.1c1.32,0,2,.83,2,2.48Z" fill="#1e1e1e"/>
      <path d="M100.65,10.13a2.67,2.67,0,0,1-1.24.22q-1.95,0-2-2V5.57h-1V4.2h1V2.91l1.84-.53V4.2h1.35V5.57H99.3V8c0,.63.25.94.75.94a1.31,1.31,0,0,0,.6-.17Z" fill="#1e1e1e"/>
      <path d="M40.21,25.31h-.85a7.44,7.44,0,0,1-1.82-5.11A7.73,7.73,0,0,1,39.36,15h.86a7.91,7.91,0,0,0-1.84,5.18A7.75,7.75,0,0,0,40.21,25.31Z" fill="#1e1e1e"/>
      <path d="M48,23.4H46.86L46,21.05H42.4l-.84,2.35H40.47L43.69,15h1Zm-2.31-3.24-1.32-3.58A3.61,3.61,0,0,1,44.2,16h0a3.36,3.36,0,0,1-.13.56l-1.31,3.58Z" fill="#1e1e1e"/>
      <path d="M53.44,17.4l-2,3,2,3H52.28L51.1,21.46,50.84,21h0l-.28.46-1.2,1.94H48.23l2.05-2.94-2-3.06h1.12l1.16,2.05c.09.15.17.31.25.47h0l1.5-2.52Z" fill="#1e1e1e"/>
      <path d="M59.41,23.4h-1v-.95h0a2,2,0,0,1-1.85,1.09c-1.43,0-2.15-.85-2.15-2.55V17.4h1v3.43c0,1.27.48,1.9,1.45,1.9A1.47,1.47,0,0,0,58,22.21a2,2,0,0,0,.45-1.35V17.4h1Z" fill="#1e1e1e"/>
      <path d="M64.48,18.37a1.25,1.25,0,0,0-.73-.19,1.2,1.2,0,0,0-1,.58,2.64,2.64,0,0,0-.42,1.58V23.4h-1v-6h1v1.24h0a2.08,2.08,0,0,1,.62-1,1.42,1.42,0,0,1,.95-.35,1.44,1.44,0,0,1,.57.08Z" fill="#1e1e1e"/>
      <path d="M70.35,20.64H66.11a2.19,2.19,0,0,0,.54,1.55,1.85,1.85,0,0,0,1.42.54,3,3,0,0,0,1.86-.66V23a3.52,3.52,0,0,1-2.09.57,2.52,2.52,0,0,1-2-.82,3.36,3.36,0,0,1-.73-2.3,3.29,3.29,0,0,1,.8-2.28,2.53,2.53,0,0,1,2-.88A2.25,2.25,0,0,1,69.7,18a3.2,3.2,0,0,1,.65,2.12Zm-1-.81a2,2,0,0,0-.4-1.3,1.36,1.36,0,0,0-1.1-.46,1.52,1.52,0,0,0-1.15.49,2.19,2.19,0,0,0-.59,1.27Z" fill="#1e1e1e"/>
      <path d="M74.82,23.06V21.9a2.23,2.23,0,0,0,.48.32,5.19,5.19,0,0,0,.59.24,4.47,4.47,0,0,0,.61.14,3.09,3.09,0,0,0,.58.06,2.25,2.25,0,0,0,1.35-.34,1.26,1.26,0,0,0,.3-1.56,1.6,1.6,0,0,0-.41-.46,4.43,4.43,0,0,0-.62-.4l-.78-.4c-.29-.15-.57-.3-.82-.45a3.13,3.13,0,0,1-.66-.51,2.1,2.1,0,0,1-.45-.62,2,2,0,0,1-.16-.82,1.93,1.93,0,0,1,.26-1,2.1,2.1,0,0,1,.66-.7,3,3,0,0,1,.93-.41,4.29,4.29,0,0,1,1.07-.13,4.08,4.08,0,0,1,1.81.3v1.1a3.29,3.29,0,0,0-1.91-.51,2.79,2.79,0,0,0-.64.07,1.56,1.56,0,0,0-.58.22,1.38,1.38,0,0,0-.41.39,1.07,1.07,0,0,0-.16.58,1.08,1.08,0,0,0,.13.56,1.28,1.28,0,0,0,.35.43,3.75,3.75,0,0,0,.57.37c.23.13.48.26.78.4s.58.31.85.47a4,4,0,0,1,.71.55,2.57,2.57,0,0,1,.49.66,2,2,0,0,1,.17.83,2.14,2.14,0,0,1-.24,1A1.93,1.93,0,0,1,79,23a2.8,2.8,0,0,1-1,.39,5.22,5.22,0,0,1-1.13.12l-.5,0-.59-.09a4.43,4.43,0,0,1-.58-.16A1.65,1.65,0,0,1,74.82,23.06Z" fill="#1e1e1e"/>
      <path d="M83.86,23.34a1.82,1.82,0,0,1-.9.19c-1,0-1.58-.59-1.58-1.76V18.22h-1V17.4h1V15.94l1-.31V17.4h1.51v.82H82.35V21.6a1.38,1.38,0,0,0,.2.86.8.8,0,0,0,.68.26,1,1,0,0,0,.63-.2Z" fill="#1e1e1e"/>
      <path d="M89.44,23.4h-1v-.94h0a2.2,2.2,0,0,1-3.25.61,1.64,1.64,0,0,1-.5-1.26c0-1.12.66-1.78,2-2l1.79-.25q0-1.53-1.23-1.53a3,3,0,0,0-2,.74v-1a3.76,3.76,0,0,1,2-.56c1.41,0,2.12.75,2.12,2.24Zm-1-3-1.44.2a2.3,2.3,0,0,0-1,.33,1.1,1.1,0,0,0,0,1.56,1.25,1.25,0,0,0,.84.27,1.53,1.53,0,0,0,1.18-.5A1.77,1.77,0,0,0,88.47,21Z" fill="#1e1e1e"/>
      <path d="M95.34,23.13a3.22,3.22,0,0,1-1.64.41,2.76,2.76,0,0,1-2.08-.83,3.06,3.06,0,0,1-.78-2.17,3.3,3.3,0,0,1,.85-2.38,3,3,0,0,1,2.26-.9,3.24,3.24,0,0,1,1.4.29v1a2.47,2.47,0,0,0-1.43-.47,1.92,1.92,0,0,0-1.51.66,2.52,2.52,0,0,0-.59,1.73,2.36,2.36,0,0,0,.55,1.66,1.91,1.91,0,0,0,1.49.61,2.43,2.43,0,0,0,1.48-.52Z" fill="#1e1e1e"/>
      <path d="M101.77,23.4h-1.35l-2.65-2.88h0V23.4h-1V14.52h1v5.63h0l2.52-2.75h1.26l-2.78,2.9Z" fill="#1e1e1e"/>
      <path d="M112.49,23.4h-1V19.57h-4.35V23.4h-1V15h1v3.68h4.35V15h1Z" fill="#1e1e1e"/>
      <path d="M119.41,23.4h-1v-.95h0a2,2,0,0,1-1.85,1.09c-1.43,0-2.15-.85-2.15-2.55V17.4h1v3.43c0,1.27.48,1.9,1.45,1.9a1.47,1.47,0,0,0,1.16-.52,2,2,0,0,0,.45-1.35V17.4h1Z" fill="#1e1e1e"/>
      <path d="M122.34,22.53h0v.87h-1V14.52h1v3.94h0a2.26,2.26,0,0,1,2.07-1.2,2.2,2.2,0,0,1,1.81.81,3.33,3.33,0,0,1,.65,2.16,3.72,3.72,0,0,1-.73,2.41,2.46,2.46,0,0,1-2,.9A1.94,1.94,0,0,1,122.34,22.53Zm0-2.42V21a1.73,1.73,0,0,0,.49,1.26,1.58,1.58,0,0,0,1.22.52,1.61,1.61,0,0,0,1.37-.66,3.09,3.09,0,0,0,.5-1.86,2.41,2.41,0,0,0-.47-1.57,1.52,1.52,0,0,0-1.25-.57,1.7,1.7,0,0,0-1.35.58A2.15,2.15,0,0,0,122.31,20.11Z" fill="#1e1e1e"/>
      <path d="M136.81,22.92c0,2.2-1.05,3.31-3.16,3.31a4.31,4.31,0,0,1-2-.43v-1a4,4,0,0,0,1.94.57c1.47,0,2.21-.79,2.21-2.36v-.66h0a2.42,2.42,0,0,1-3.86.35,3.17,3.17,0,0,1-.69-2.15,3.75,3.75,0,0,1,.74-2.43,2.46,2.46,0,0,1,2-.9,2,2,0,0,1,1.8,1h0V17.4h1Zm-1-2.23V19.8a1.72,1.72,0,0,0-.48-1.22,1.58,1.58,0,0,0-1.2-.51,1.68,1.68,0,0,0-1.4.65,2.91,2.91,0,0,0-.5,1.81,2.48,2.48,0,0,0,.48,1.6,1.56,1.56,0,0,0,1.28.6,1.69,1.69,0,0,0,1.32-.57A2.16,2.16,0,0,0,135.85,20.69Z" fill="#1e1e1e"/>
      <path d="M143.61,23.4h-1v-.95h0a2,2,0,0,1-1.85,1.09c-1.43,0-2.15-.85-2.15-2.55V17.4h1v3.43c0,1.27.48,1.9,1.45,1.9a1.47,1.47,0,0,0,1.16-.52,2,2,0,0,0,.45-1.35V17.4h1Z" fill="#1e1e1e"/>
      <path d="M150.37,20.64h-4.23a2.19,2.19,0,0,0,.54,1.55,1.85,1.85,0,0,0,1.41.54,3,3,0,0,0,1.87-.66V23a3.53,3.53,0,0,1-2.1.57,2.51,2.51,0,0,1-2-.82,3.31,3.31,0,0,1-.73-2.3,3.28,3.28,0,0,1,.79-2.28,2.55,2.55,0,0,1,2-.88,2.25,2.25,0,0,1,1.82.76,3.19,3.19,0,0,1,.64,2.12Zm-1-.81a2,2,0,0,0-.4-1.3,1.37,1.37,0,0,0-1.1-.46,1.56,1.56,0,0,0-1.16.49,2.18,2.18,0,0,0-.58,1.27Z" fill="#1e1e1e"/>
      <path d="M151.46,23.18v-1a2.84,2.84,0,0,0,1.73.58c.84,0,1.27-.28,1.27-.84a.76.76,0,0,0-.11-.41,1,1,0,0,0-.29-.29,1.83,1.83,0,0,0-.44-.23l-.53-.22a5.16,5.16,0,0,1-.7-.32,2.29,2.29,0,0,1-.51-.36,1.52,1.52,0,0,1-.3-.46,1.57,1.57,0,0,1-.11-.6,1.4,1.4,0,0,1,.2-.75,1.78,1.78,0,0,1,.51-.55,2.77,2.77,0,0,1,.74-.33,3.41,3.41,0,0,1,.85-.11,3.46,3.46,0,0,1,1.4.27v1a2.74,2.74,0,0,0-1.53-.43,1.75,1.75,0,0,0-.48.06,1.33,1.33,0,0,0-.38.17,1,1,0,0,0-.24.27.77.77,0,0,0-.08.34,1,1,0,0,0,.08.4,1.07,1.07,0,0,0,.25.28,2.11,2.11,0,0,0,.4.22l.53.22a6.21,6.21,0,0,1,.72.31,2.82,2.82,0,0,1,.54.36,1.41,1.41,0,0,1,.34.47,1.48,1.48,0,0,1,.12.63,1.41,1.41,0,0,1-.2.77,1.58,1.58,0,0,1-.52.54,2.28,2.28,0,0,1-.76.33,3.68,3.68,0,0,1-.89.1A3.41,3.41,0,0,1,151.46,23.18Z" fill="#1e1e1e"/>
      <path d="M159.7,23.34a1.8,1.8,0,0,1-.9.19c-1.05,0-1.57-.59-1.57-1.76V18.22h-1V17.4h1V15.94l1-.31V17.4h1.51v.82h-1.51V21.6a1.45,1.45,0,0,0,.2.86.81.81,0,0,0,.68.26,1,1,0,0,0,.63-.2Z" fill="#1e1e1e"/>
      <path d="M161,25.31h-.86A7.75,7.75,0,0,0,162,20.18,7.86,7.86,0,0,0,160.14,15H161a7.74,7.74,0,0,1,1.83,5.2A7.45,7.45,0,0,1,161,25.31Z" fill="#1e1e1e"/>
    </g>
    <g>
      <path d="M253.44,3.25a1.06,1.06,0,0,1-.77-.28.88.88,0,0,1-.3-.68.87.87,0,0,1,.3-.68,1.14,1.14,0,0,1,.77-.26,1.16,1.16,0,0,1,.77.26.89.89,0,0,1,.29.68.91.91,0,0,1-.29.69A1.11,1.11,0,0,1,253.44,3.25Zm.91,7H252.5v-6h1.85Z" fill="#1e1e1e"/>
      <path d="M255.7,9.88V8a3.68,3.68,0,0,0,1.11.65,3.63,3.63,0,0,0,1.21.21,2.3,2.3,0,0,0,.62-.07,1.57,1.57,0,0,0,.45-.17.74.74,0,0,0,.26-.27.69.69,0,0,0,.09-.34.7.7,0,0,0-.14-.44,1.47,1.47,0,0,0-.38-.36,3.88,3.88,0,0,0-.58-.31c-.22-.11-.46-.21-.72-.31a3.66,3.66,0,0,1-1.47-1,2.19,2.19,0,0,1-.48-1.43A2.32,2.32,0,0,1,255.93,3a2.25,2.25,0,0,1,.72-.78,3.33,3.33,0,0,1,1.05-.45A5.75,5.75,0,0,1,259,1.66a6.81,6.81,0,0,1,1.16.08,4.46,4.46,0,0,1,.94.24V3.73a4.17,4.17,0,0,0-.46-.26,4.56,4.56,0,0,0-.52-.18,4.82,4.82,0,0,0-.52-.11l-.5,0a2.58,2.58,0,0,0-.58.06,1.57,1.57,0,0,0-.45.17.91.91,0,0,0-.28.27.6.6,0,0,0-.1.35.67.67,0,0,0,.11.37,1.21,1.21,0,0,0,.32.32,2.87,2.87,0,0,0,.5.29,7,7,0,0,0,.66.3,6.86,6.86,0,0,1,.9.45,3.15,3.15,0,0,1,.69.53,2.08,2.08,0,0,1,.44.69,2.4,2.4,0,0,1,.15.89A2.37,2.37,0,0,1,261.17,9a2.08,2.08,0,0,1-.73.77,3.15,3.15,0,0,1-1.06.43,6.53,6.53,0,0,1-1.28.13,7,7,0,0,1-1.32-.12A4,4,0,0,1,255.7,9.88Z" fill="#1e1e1e"/>
      <path d="M268.84,9.9a5.46,5.46,0,0,1-2.4.45,4,4,0,0,1-3-1.14,4.16,4.16,0,0,1-1.11-3,4.45,4.45,0,0,1,1.24-3.27,4.39,4.39,0,0,1,3.24-1.25,5.94,5.94,0,0,1,2.07.31V3.79a3.71,3.71,0,0,0-1.92-.5A2.56,2.56,0,0,0,265,4a2.75,2.75,0,0,0-.73,2A2.69,2.69,0,0,0,265,8a2.41,2.41,0,0,0,1.84.72,3.93,3.93,0,0,0,2-.54Z" fill="#1e1e1e"/>
      <path d="M269.92,9.88V8a3.68,3.68,0,0,0,1.11.65,3.57,3.57,0,0,0,1.2.21,2.38,2.38,0,0,0,.63-.07,1.62,1.62,0,0,0,.44-.17.87.87,0,0,0,.27-.27.69.69,0,0,0,.09-.34.77.77,0,0,0-.14-.44,1.7,1.7,0,0,0-.39-.36,3.74,3.74,0,0,0-.57-.31c-.23-.11-.47-.21-.73-.31a3.7,3.7,0,0,1-1.46-1,2.14,2.14,0,0,1-.49-1.43A2.21,2.21,0,0,1,270.15,3a2.13,2.13,0,0,1,.71-.78,3.5,3.5,0,0,1,1.06-.45,5.72,5.72,0,0,1,1.26-.14,6.86,6.86,0,0,1,1.17.08,4.53,4.53,0,0,1,.93.24V3.73a2.9,2.9,0,0,0-.46-.26,5.17,5.17,0,0,0-.51-.18,5,5,0,0,0-.53-.11l-.49,0a2.68,2.68,0,0,0-.59.06,1.62,1.62,0,0,0-.44.17.81.81,0,0,0-.28.27.6.6,0,0,0-.1.35.6.6,0,0,0,.11.37,1.17,1.17,0,0,0,.31.32,3.3,3.3,0,0,0,.5.29l.66.3a7,7,0,0,1,.91.45,3.15,3.15,0,0,1,.69.53,2.08,2.08,0,0,1,.44.69,2.4,2.4,0,0,1,.15.89A2.37,2.37,0,0,1,275.38,9a2.13,2.13,0,0,1-.72.77,3.24,3.24,0,0,1-1.06.43,6.69,6.69,0,0,1-1.28.13,7,7,0,0,1-1.32-.12A3.81,3.81,0,0,1,269.92,9.88Z" fill="#1e1e1e"/>
      <path d="M278.92,10.2H277V1.8h1.89Z" fill="#1e1e1e"/>
      <path d="M290.05,3.34h-2.4V10.2h-1.9V3.34h-2.38V1.8h6.68Z" fill="#1e1e1e"/>
      <path d="M295,10.2h-1.75V9.34h0a2,2,0,0,1-1.79,1,1.86,1.86,0,0,1-1.37-.5,1.79,1.79,0,0,1-.5-1.32q0-1.74,2.07-2l1.63-.22c0-.66-.36-1-1.07-1a3.72,3.72,0,0,0-2,.64V4.56a4.67,4.67,0,0,1,1.06-.35,5.69,5.69,0,0,1,1.22-.16A2.27,2.27,0,0,1,295,6.62Zm-1.74-2.44v-.4l-1.09.14q-.9.12-.9.81a.67.67,0,0,0,.21.52.84.84,0,0,0,.6.21,1.07,1.07,0,0,0,.85-.37A1.29,1.29,0,0,0,293.23,7.76Z" fill="#1e1e1e"/>
      <path d="M300.35,5.87a1.66,1.66,0,0,0-.78-.18,1.14,1.14,0,0,0-.95.44,2,2,0,0,0-.34,1.21V10.2h-1.85v-6h1.85V5.31h0a1.59,1.59,0,0,1,1.58-1.21,1.17,1.17,0,0,1,.46.07Z" fill="#1e1e1e"/>
      <path d="M307,9.52a3.39,3.39,0,0,1-1,2.58,3.94,3.94,0,0,1-2.8.92,4.5,4.5,0,0,1-1.93-.35V11.12a3.77,3.77,0,0,0,1.87.53,2,2,0,0,0,1.46-.49,1.79,1.79,0,0,0,.51-1.35V9.34h0a2.08,2.08,0,0,1-1.87,1,2.24,2.24,0,0,1-1.82-.81,3.28,3.28,0,0,1-.68-2.17A3.67,3.67,0,0,1,301.55,5a2.45,2.45,0,0,1,2-.9,1.83,1.83,0,0,1,1.64.85h0V4.2H307Zm-1.82-2.2V6.84a1.49,1.49,0,0,0-.34-1A1.18,1.18,0,0,0,303,6a2.22,2.22,0,0,0-.36,1.36A1.9,1.9,0,0,0,303,8.49a1.09,1.09,0,0,0,.91.44,1.14,1.14,0,0,0,.93-.44A1.82,1.82,0,0,0,305.22,7.32Z" fill="#1e1e1e"/>
      <path d="M314,7.73h-3.91c.06.87.61,1.31,1.64,1.31a3.24,3.24,0,0,0,1.74-.47V9.9a4.5,4.5,0,0,1-2.16.45A3,3,0,0,1,309,9.54a3,3,0,0,1-.81-2.25,3.19,3.19,0,0,1,.87-2.36,2.91,2.91,0,0,1,2.13-.88,2.62,2.62,0,0,1,2,.78A3,3,0,0,1,314,7Zm-1.72-1.14c0-.86-.34-1.29-1-1.29a1,1,0,0,0-.77.37,1.6,1.6,0,0,0-.39.92Z" fill="#1e1e1e"/>
      <path d="M318.71,10.13a2.67,2.67,0,0,1-1.24.22q-2,0-2-2V5.57h-1V4.2h1V2.91l1.84-.53V4.2h1.35V5.57h-1.35V8c0,.63.25.94.75.94a1.31,1.31,0,0,0,.6-.17Z" fill="#1e1e1e"/>
      <path d="M255.21,25.31h-.85a7.49,7.49,0,0,1-1.82-5.11,7.78,7.78,0,0,1,1.82-5.2h.86a7.91,7.91,0,0,0-1.84,5.18A7.75,7.75,0,0,0,255.21,25.31Z" fill="#1e1e1e"/>
      <path d="M258.82,23.54a2.77,2.77,0,0,1-2.12-.84,3.11,3.11,0,0,1-.8-2.23,3.25,3.25,0,0,1,.83-2.36,3,3,0,0,1,2.23-.85,2.71,2.71,0,0,1,2.1.83,3.27,3.27,0,0,1,.75,2.29,3.25,3.25,0,0,1-.81,2.3A2.87,2.87,0,0,1,258.82,23.54Zm.07-5.47a1.81,1.81,0,0,0-1.46.63,2.59,2.59,0,0,0-.54,1.74,2.46,2.46,0,0,0,.54,1.68,1.86,1.86,0,0,0,1.46.61,1.75,1.75,0,0,0,1.43-.6,2.58,2.58,0,0,0,.5-1.72,2.61,2.61,0,0,0-.5-1.73A1.73,1.73,0,0,0,258.89,18.07Z" fill="#1e1e1e"/>
      <path d="M266.31,15.36a1.35,1.35,0,0,0-.64-.16c-.67,0-1,.43-1,1.28v.92h1.41v.82h-1.41V23.4h-1V18.22h-1V17.4h1v-1a2,2,0,0,1,.54-1.49,1.84,1.84,0,0,1,1.36-.55,1.71,1.71,0,0,1,.7.11Z" fill="#1e1e1e"/>
      <path d="M270.07,15.36a1.38,1.38,0,0,0-.64-.16c-.68,0-1,.43-1,1.28v.92h1.4v.82h-1.4V23.4h-1V18.22h-1V17.4h1v-1a2,2,0,0,1,.55-1.49,1.81,1.81,0,0,1,1.36-.55,1.74,1.74,0,0,1,.7.11Z" fill="#1e1e1e"/>
      <path d="M273.88,23.06V21.9a2.23,2.23,0,0,0,.48.32,5,5,0,0,0,.58.24,4.61,4.61,0,0,0,.62.14,3.09,3.09,0,0,0,.58.06,2.27,2.27,0,0,0,1.35-.34,1.26,1.26,0,0,0,.3-1.56,1.76,1.76,0,0,0-.41-.46,4.57,4.57,0,0,0-.63-.4l-.77-.4c-.3-.15-.57-.3-.82-.45a3.2,3.2,0,0,1-.67-.51,2.26,2.26,0,0,1-.44-.62,2.15,2.15,0,0,1,.09-1.82,2.24,2.24,0,0,1,.67-.7,3,3,0,0,1,.93-.41,4.29,4.29,0,0,1,1.07-.13,4.08,4.08,0,0,1,1.81.3v1.1a3.31,3.31,0,0,0-1.91-.51,2.73,2.73,0,0,0-.64.07,1.56,1.56,0,0,0-.58.22,1.27,1.27,0,0,0-.41.39,1.07,1.07,0,0,0-.16.58,1.19,1.19,0,0,0,.12.56,1.31,1.31,0,0,0,.36.43,3,3,0,0,0,.57.37c.22.13.48.26.77.4s.59.31.86.47a4,4,0,0,1,.71.55,2.53,2.53,0,0,1,.48.66,1.84,1.84,0,0,1,.18.83,2.14,2.14,0,0,1-.24,1,1.93,1.93,0,0,1-.66.7,2.8,2.8,0,0,1-.95.39,5.24,5.24,0,0,1-1.14.12l-.49,0-.6-.09a4.74,4.74,0,0,1-.57-.16A1.51,1.51,0,0,1,273.88,23.06Z" fill="#1e1e1e"/>
      <path d="M282.91,23.34a1.76,1.76,0,0,1-.89.19c-1,0-1.58-.59-1.58-1.76V18.22h-1V17.4h1V15.94l1-.31V17.4h1.51v.82H281.4V21.6a1.37,1.37,0,0,0,.21.86.78.78,0,0,0,.68.26.94.94,0,0,0,.62-.2Z" fill="#1e1e1e"/>
      <path d="M288.49,23.4h-1v-.94h0a2.2,2.2,0,0,1-3.25.61,1.65,1.65,0,0,1-.51-1.26c0-1.12.66-1.78,2-2l1.8-.25q0-1.53-1.23-1.53a3,3,0,0,0-2,.74v-1a3.76,3.76,0,0,1,2-.56c1.41,0,2.11.75,2.11,2.24Zm-1-3-1.45.2a2.25,2.25,0,0,0-1,.33,1.1,1.1,0,0,0,0,1.56,1.25,1.25,0,0,0,.84.27,1.53,1.53,0,0,0,1.18-.5,1.77,1.77,0,0,0,.46-1.27Z" fill="#1e1e1e"/>
      <path d="M298.82,23.4h-1V20a2.58,2.58,0,0,0-.31-1.45,1.17,1.17,0,0,0-1-.44,1.3,1.3,0,0,0-1,.56A2.22,2.22,0,0,0,295,20V23.4h-1V19.84c0-1.18-.45-1.77-1.36-1.77a1.3,1.3,0,0,0-1.05.53,2.2,2.2,0,0,0-.41,1.38V23.4h-1v-6h1v1h0a2,2,0,0,1,1.86-1.09,1.77,1.77,0,0,1,1.07.34,1.69,1.69,0,0,1,.63.9,2.14,2.14,0,0,1,2-1.24c1.32,0,2,.82,2,2.44Z" fill="#1e1e1e"/>
      <path d="M301.62,22.53h0v3.63h-1V17.4h1v1.06h0a2.29,2.29,0,0,1,2.08-1.2,2.2,2.2,0,0,1,1.81.81,3.33,3.33,0,0,1,.65,2.16,3.78,3.78,0,0,1-.73,2.41,2.46,2.46,0,0,1-2,.9A2,2,0,0,1,301.62,22.53Zm0-2.42V21a1.77,1.77,0,0,0,.48,1.26,1.73,1.73,0,0,0,2.6-.14,3.09,3.09,0,0,0,.49-1.86,2.41,2.41,0,0,0-.46-1.57,1.52,1.52,0,0,0-1.25-.57,1.7,1.7,0,0,0-1.35.58A2.15,2.15,0,0,0,301.6,20.11Z" fill="#1e1e1e"/>
      <path d="M310.72,23.06V21.9a2.23,2.23,0,0,0,.48.32,5,5,0,0,0,.58.24,4.61,4.61,0,0,0,.62.14,3.07,3.07,0,0,0,.57.06,2.29,2.29,0,0,0,1.36-.34,1.26,1.26,0,0,0,.3-1.56,1.76,1.76,0,0,0-.41-.46,4.57,4.57,0,0,0-.63-.4l-.77-.4c-.3-.15-.57-.3-.83-.45a3.4,3.4,0,0,1-.66-.51,2.26,2.26,0,0,1-.44-.62,1.88,1.88,0,0,1-.16-.82,1.93,1.93,0,0,1,.25-1,2.32,2.32,0,0,1,.66-.7,3.19,3.19,0,0,1,.94-.41,4.24,4.24,0,0,1,1.07-.13,4.08,4.08,0,0,1,1.81.3v1.1a3.33,3.33,0,0,0-1.91-.51,2.88,2.88,0,0,0-.65.07,1.58,1.58,0,0,0-.57.22,1.18,1.18,0,0,0-.41.39,1,1,0,0,0-.16.58,1.19,1.19,0,0,0,.12.56,1.31,1.31,0,0,0,.36.43,3,3,0,0,0,.57.37c.22.13.48.26.77.4s.59.31.86.47a4.46,4.46,0,0,1,.71.55,2.53,2.53,0,0,1,.48.66,1.84,1.84,0,0,1,.18.83,2.14,2.14,0,0,1-.24,1,2,2,0,0,1-.66.7,2.88,2.88,0,0,1-1,.39,5.24,5.24,0,0,1-1.14.12l-.49,0-.6-.09a5.5,5.5,0,0,1-.58-.16A1.57,1.57,0,0,1,310.72,23.06Z" fill="#1e1e1e"/>
      <path d="M319.75,23.34a1.76,1.76,0,0,1-.89.19c-1.05,0-1.58-.59-1.58-1.76V18.22h-1V17.4h1V15.94l1-.31V17.4h1.51v.82h-1.51V21.6a1.37,1.37,0,0,0,.21.86.78.78,0,0,0,.68.26.94.94,0,0,0,.62-.2Z" fill="#1e1e1e"/>
      <path d="M323.54,23.54a2.79,2.79,0,0,1-2.12-.84,3.1,3.1,0,0,1-.79-2.23,3.24,3.24,0,0,1,.82-2.36,3,3,0,0,1,2.23-.85,2.7,2.7,0,0,1,2.1.83,3.27,3.27,0,0,1,.75,2.29,3.25,3.25,0,0,1-.81,2.3A2.87,2.87,0,0,1,323.54,23.54Zm.07-5.47a1.83,1.83,0,0,0-1.46.63,2.59,2.59,0,0,0-.54,1.74,2.46,2.46,0,0,0,.54,1.68,1.86,1.86,0,0,0,1.46.61,1.77,1.77,0,0,0,1.44-.6,2.63,2.63,0,0,0,.5-1.72,2.66,2.66,0,0,0-.5-1.73A1.75,1.75,0,0,0,323.61,18.07Z" fill="#1e1e1e"/>
      <path d="M331.2,18.37a1.25,1.25,0,0,0-.73-.19,1.23,1.23,0,0,0-1,.58,2.72,2.72,0,0,0-.41,1.58V23.4h-1v-6h1v1.24h0a2.17,2.17,0,0,1,.63-1,1.39,1.39,0,0,1,.94-.35,1.52,1.52,0,0,1,.58.08Z" fill="#1e1e1e"/>
      <path d="M336.53,23.4h-1v-.94h0a2.2,2.2,0,0,1-3.25.61,1.65,1.65,0,0,1-.51-1.26c0-1.12.66-1.78,2-2l1.8-.25q0-1.53-1.23-1.53a3,3,0,0,0-2,.74v-1a3.76,3.76,0,0,1,2-.56c1.41,0,2.11.75,2.11,2.24Zm-1-3-1.44.2a2.25,2.25,0,0,0-1,.33,1.1,1.1,0,0,0,0,1.56,1.25,1.25,0,0,0,.84.27,1.53,1.53,0,0,0,1.18-.5,1.77,1.77,0,0,0,.46-1.27Z" fill="#1e1e1e"/>
      <path d="M343.47,22.92c0,2.2-1.06,3.31-3.17,3.31a4.24,4.24,0,0,1-1.94-.43v-1a3.94,3.94,0,0,0,1.93.57c1.48,0,2.21-.79,2.21-2.36v-.66h0a2.42,2.42,0,0,1-3.86.35,3.17,3.17,0,0,1-.69-2.15,3.75,3.75,0,0,1,.74-2.43,2.46,2.46,0,0,1,2-.9,2,2,0,0,1,1.8,1h0V17.4h1Zm-1-2.23V19.8a1.72,1.72,0,0,0-.48-1.22,1.58,1.58,0,0,0-1.2-.51,1.68,1.68,0,0,0-1.4.65,2.91,2.91,0,0,0-.5,1.81,2.48,2.48,0,0,0,.48,1.6,1.56,1.56,0,0,0,1.28.6,1.69,1.69,0,0,0,1.32-.57A2.12,2.12,0,0,0,342.5,20.69Z" fill="#1e1e1e"/>
      <path d="M350.23,20.64H346a2.19,2.19,0,0,0,.54,1.55,1.85,1.85,0,0,0,1.41.54,3,3,0,0,0,1.87-.66V23a3.52,3.52,0,0,1-2.09.57,2.52,2.52,0,0,1-2-.82,3.31,3.31,0,0,1-.73-2.3,3.33,3.33,0,0,1,.79-2.28,2.55,2.55,0,0,1,2-.88,2.25,2.25,0,0,1,1.82.76,3.19,3.19,0,0,1,.64,2.12Zm-1-.81a2,2,0,0,0-.4-1.3,1.37,1.37,0,0,0-1.1-.46,1.56,1.56,0,0,0-1.16.49,2.18,2.18,0,0,0-.58,1.27Z" fill="#1e1e1e"/>
      <path d="M351.71,25.31h-.86a7.75,7.75,0,0,0,1.83-5.13A7.86,7.86,0,0,0,350.84,15h.87a7.74,7.74,0,0,1,1.83,5.2A7.45,7.45,0,0,1,351.71,25.31Z" fill="#1e1e1e"/>
    </g>
    <g>
      <path d="M35.54,73.17a2.67,2.67,0,0,1-.17.92,2.27,2.27,0,0,1-.55.83,2.75,2.75,0,0,1-.94.59,3.75,3.75,0,0,1-1.37.22h-.95v2.75h-1V70.82h2.15a4.34,4.34,0,0,1,1.09.13,2.49,2.49,0,0,1,.92.41,2.09,2.09,0,0,1,.63.72A2.28,2.28,0,0,1,35.54,73.17Zm-1.08,0A1.38,1.38,0,0,0,34,72.08a2.13,2.13,0,0,0-1.35-.39H31.56v3.15h1a2.23,2.23,0,0,0,1.43-.4A1.5,1.5,0,0,0,34.46,73.21Z" fill="#3c3c41"/>
      <path d="M37,72.6h.93l0,1.08a3.8,3.8,0,0,1,1-.91,2.18,2.18,0,0,1,1-.28,1.69,1.69,0,0,1,1.39.59,2.65,2.65,0,0,1,.43,1.76h-1a2,2,0,0,0-.22-1.12.83.83,0,0,0-.72-.35,1.53,1.53,0,0,0-.41.07,1.7,1.7,0,0,0-.43.24,4,4,0,0,0-.46.41,7,7,0,0,0-.53.61v3.78H37Z" fill="#3c3c41"/>
      <path d="M48.34,75.23c0,.14,0,.26,0,.36s0,.19,0,.28H44.18a1.8,1.8,0,0,0,.51,1.38,2,2,0,0,0,1.45.49l.52,0,.49-.06.46-.08a3.52,3.52,0,0,0,.41-.1v.84a7.08,7.08,0,0,1-.94.19,7.66,7.66,0,0,1-1.09.08,3.65,3.65,0,0,1-1.3-.21,2.24,2.24,0,0,1-.89-.59,2.61,2.61,0,0,1-.52-1,4.57,4.57,0,0,1-.16-1.28,3.77,3.77,0,0,1,.18-1.17,3,3,0,0,1,.52-1,2.47,2.47,0,0,1,.84-.66,2.44,2.44,0,0,1,1.13-.25,2.86,2.86,0,0,1,1.09.2,2.14,2.14,0,0,1,.8.54,2.36,2.36,0,0,1,.49.86A3.69,3.69,0,0,1,48.34,75.23Zm-1.06-.15a2.38,2.38,0,0,0-.08-.72,1.57,1.57,0,0,0-.29-.56,1.39,1.39,0,0,0-.49-.36,1.59,1.59,0,0,0-.68-.13,1.39,1.39,0,0,0-.61.13,1.26,1.26,0,0,0-.47.36,1.91,1.91,0,0,0-.32.56,2.37,2.37,0,0,0-.16.72Z" fill="#3c3c41"/>
      <path d="M55,75.43a4,4,0,0,1-.22,1.37,2.68,2.68,0,0,1-.61,1,2.49,2.49,0,0,1-.91.58,3.3,3.3,0,0,1-1.15.19,5.07,5.07,0,0,1-.55,0,3.78,3.78,0,0,1-.57-.1v2.46h-1V72.6h.91l.06,1a2.68,2.68,0,0,1,.94-.84,2.32,2.32,0,0,1,1.08-.25,1.79,1.79,0,0,1,.88.21,1.75,1.75,0,0,1,.64.6,2.87,2.87,0,0,1,.39.92A5.61,5.61,0,0,1,55,75.43Zm-1,0a5.57,5.57,0,0,0-.06-.85,2.22,2.22,0,0,0-.22-.66,1.12,1.12,0,0,0-.37-.43.92.92,0,0,0-.55-.16,1.32,1.32,0,0,0-.39.06,1.77,1.77,0,0,0-.41.21,2.93,2.93,0,0,0-.45.38,5.43,5.43,0,0,0-.51.59v2.85a3.7,3.7,0,0,0,.59.19,3.23,3.23,0,0,0,.61.06,1.62,1.62,0,0,0,1.3-.55A2.62,2.62,0,0,0,53.92,75.48Z" fill="#3c3c41"/>
      <path d="M60.21,78.48l0-.79a3.29,3.29,0,0,1-1,.69,2.7,2.7,0,0,1-1,.21,2.73,2.73,0,0,1-.86-.13,1.83,1.83,0,0,1-.59-.36,1.46,1.46,0,0,1-.34-.53,2,2,0,0,1-.1-.66,1.66,1.66,0,0,1,.66-1.39,3.19,3.19,0,0,1,1.94-.5H60.1v-.51a1.11,1.11,0,0,0-.33-.84,1.43,1.43,0,0,0-1-.31,4.6,4.6,0,0,0-1,.11,6.07,6.07,0,0,0-1,.32v-.92a6.1,6.1,0,0,1,.93-.26c.18,0,.36-.06.55-.09a5.63,5.63,0,0,1,.58,0,3.5,3.5,0,0,1,1,.12,2,2,0,0,1,.73.36,1.69,1.69,0,0,1,.45.6,2.06,2.06,0,0,1,.16.86v4ZM60.1,75.8H58.81a2.54,2.54,0,0,0-.66.08,1.18,1.18,0,0,0-.45.22.83.83,0,0,0-.26.33,1.06,1.06,0,0,0-.09.45.87.87,0,0,0,.06.32.68.68,0,0,0,.17.28.91.91,0,0,0,.3.19,1.53,1.53,0,0,0,.46.07,1.83,1.83,0,0,0,.8-.22,3.82,3.82,0,0,0,1-.67Z" fill="#3c3c41"/>
      <path d="M63.12,72.6h.93l0,1.08a3.66,3.66,0,0,1,1-.91,2.12,2.12,0,0,1,1-.28,1.66,1.66,0,0,1,1.38.59A2.64,2.64,0,0,1,68,74.84h-1a1.87,1.87,0,0,0-.23-1.12.82.82,0,0,0-.71-.35,1.47,1.47,0,0,0-.41.07,1.7,1.7,0,0,0-.43.24,4,4,0,0,0-.47.41c-.16.17-.33.37-.52.61v3.78h-1Z" fill="#3c3c41"/>
      <path d="M74.45,75.23c0,.14,0,.26,0,.36a2.46,2.46,0,0,1,0,.28H70.29a1.8,1.8,0,0,0,.51,1.38,2,2,0,0,0,1.45.49l.52,0,.49-.06.46-.08a3.52,3.52,0,0,0,.41-.1v.84a7.08,7.08,0,0,1-.94.19,7.66,7.66,0,0,1-1.09.08,3.65,3.65,0,0,1-1.3-.21,2.24,2.24,0,0,1-.89-.59,2.61,2.61,0,0,1-.52-1,4.57,4.57,0,0,1-.16-1.28,3.77,3.77,0,0,1,.18-1.17,2.8,2.8,0,0,1,.52-1,2.47,2.47,0,0,1,.84-.66,2.44,2.44,0,0,1,1.13-.25,2.86,2.86,0,0,1,1.09.2,2.22,2.22,0,0,1,.8.54,2.36,2.36,0,0,1,.49.86A3.69,3.69,0,0,1,74.45,75.23Zm-1.06-.15a2.38,2.38,0,0,0-.08-.72A1.57,1.57,0,0,0,73,73.8a1.39,1.39,0,0,0-.49-.36,1.59,1.59,0,0,0-.68-.13,1.39,1.39,0,0,0-.61.13,1.26,1.26,0,0,0-.47.36,1.71,1.71,0,0,0-.32.56,2.37,2.37,0,0,0-.16.72Z" fill="#3c3c41"/>
      <path d="M79.81,75.77h-3.5v-1h3.5Z" fill="#3c3c41"/>
      <path d="M82.83,73.44H81.09V72.6h2.77v5h1.75v.85H80.89v-.85h1.94Zm.35-3.31a.83.83,0,0,1,.32.06.76.76,0,0,1,.26.18.92.92,0,0,1,.17.25.81.81,0,0,1,.06.31.78.78,0,0,1-.06.31,1,1,0,0,1-.17.26.73.73,0,0,1-.26.17.68.68,0,0,1-.32.07.67.67,0,0,1-.31-.07.73.73,0,0,1-.26-.17.81.81,0,0,1-.23-.57.81.81,0,0,1,.06-.31.74.74,0,0,1,.17-.25.76.76,0,0,1,.26-.18A.81.81,0,0,1,83.18,70.13Z" fill="#3c3c41"/>
      <path d="M92.12,76.41a2,2,0,0,1-.22,1,2,2,0,0,1-.63.68,2.66,2.66,0,0,1-1,.41,5.35,5.35,0,0,1-1.24.14q-.3,0-.6,0a5.16,5.16,0,0,1-.58-.06l-.53-.08a4.13,4.13,0,0,1-.44-.1v-1a5.17,5.17,0,0,0,1,.26,7.72,7.72,0,0,0,1.25.1,4.27,4.27,0,0,0,.86-.08,1.72,1.72,0,0,0,.58-.24.92.92,0,0,0,.33-.38,1.29,1.29,0,0,0,.1-.51.88.88,0,0,0-.17-.53,2,2,0,0,0-.46-.39,4.24,4.24,0,0,0-.64-.31l-.74-.3c-.25-.1-.49-.21-.73-.33a3,3,0,0,1-.64-.42,2.26,2.26,0,0,1-.46-.57,1.73,1.73,0,0,1-.17-.78,2,2,0,0,1,.16-.78,1.82,1.82,0,0,1,.51-.67,2.6,2.6,0,0,1,.89-.48,4.1,4.1,0,0,1,1.29-.18h.42l.46,0,.46.08a2.59,2.59,0,0,1,.42.09v.93a7.77,7.77,0,0,0-.91-.19,5.27,5.27,0,0,0-.87-.07,2.3,2.3,0,0,0-1.32.3.93.93,0,0,0-.42.8.84.84,0,0,0,.17.53,1.64,1.64,0,0,0,.46.4,3.18,3.18,0,0,0,.64.32l.73.3c.25.1.5.21.74.33a3.25,3.25,0,0,1,.64.43,2,2,0,0,1,.46.59A1.74,1.74,0,0,1,92.12,76.41Z" fill="#3c3c41"/>
      <path d="M98.45,78.19a4.85,4.85,0,0,1-1.93.38,3.16,3.16,0,0,1-2.49-1,4.15,4.15,0,0,1-.87-2.86,5.43,5.43,0,0,1,.24-1.67,3.65,3.65,0,0,1,.69-1.26,2.93,2.93,0,0,1,1.07-.8,3.46,3.46,0,0,1,1.42-.28,5.06,5.06,0,0,1,1,.09,3.76,3.76,0,0,1,.88.28v1a4,4,0,0,0-.86-.35,3.74,3.74,0,0,0-1-.12,2.24,2.24,0,0,0-1,.21,2,2,0,0,0-.74.58,2.86,2.86,0,0,0-.47.94,4.43,4.43,0,0,0-.16,1.26,3.59,3.59,0,0,0,.6,2.25,2.13,2.13,0,0,0,1.77.75,4.1,4.1,0,0,0,.94-.11,4.31,4.31,0,0,0,.87-.32Z" fill="#3c3c41"/>
      <path d="M104.8,76.41a1.94,1.94,0,0,1-.23,1A1.83,1.83,0,0,1,104,78a2.66,2.66,0,0,1-1,.41,5.35,5.35,0,0,1-1.24.14q-.3,0-.6,0a4.93,4.93,0,0,1-.58-.06l-.53-.08a4.13,4.13,0,0,1-.44-.1v-1a5.17,5.17,0,0,0,1,.26,7.72,7.72,0,0,0,1.25.1,4.27,4.27,0,0,0,.86-.08,1.72,1.72,0,0,0,.58-.24.83.83,0,0,0,.32-.38,1.13,1.13,0,0,0,.11-.51.83.83,0,0,0-.18-.53,1.76,1.76,0,0,0-.45-.39,4.24,4.24,0,0,0-.64-.31l-.74-.3c-.25-.1-.49-.21-.73-.33a3,3,0,0,1-.64-.42,2.26,2.26,0,0,1-.46-.57,1.73,1.73,0,0,1-.17-.78,2,2,0,0,1,.16-.78,1.82,1.82,0,0,1,.51-.67,2.6,2.6,0,0,1,.89-.48,4.1,4.1,0,0,1,1.29-.18H103l.46,0,.46.08a2.26,2.26,0,0,1,.41.09v.93a7.21,7.21,0,0,0-.9-.19,5.27,5.27,0,0,0-.87-.07,2.3,2.3,0,0,0-1.32.3.93.93,0,0,0-.42.8.84.84,0,0,0,.17.53,1.64,1.64,0,0,0,.46.4,3.18,3.18,0,0,0,.64.32l.73.3c.25.1.5.21.74.33a3.25,3.25,0,0,1,.64.43,1.85,1.85,0,0,1,.45.59A1.62,1.62,0,0,1,104.8,76.41Z" fill="#3c3c41"/>
      <path d="M107.77,71.7H106v-.88h4.58v.88h-1.76v5.89h1.76v.89H106v-.89h1.76Z" fill="#3c3c41"/>
      <path d="M116.75,78.19a4.89,4.89,0,0,1-1.93.38,3.16,3.16,0,0,1-2.49-1,4.15,4.15,0,0,1-.87-2.86,5.43,5.43,0,0,1,.24-1.67,3.65,3.65,0,0,1,.69-1.26,2.93,2.93,0,0,1,1.07-.8,3.46,3.46,0,0,1,1.42-.28,5.06,5.06,0,0,1,1,.09,3.76,3.76,0,0,1,.88.28v1a4,4,0,0,0-.86-.35,3.74,3.74,0,0,0-1-.12,2.24,2.24,0,0,0-1,.21,2,2,0,0,0-.74.58,2.86,2.86,0,0,0-.47.94,4.43,4.43,0,0,0-.16,1.26,3.59,3.59,0,0,0,.6,2.25,2.13,2.13,0,0,0,1.77.75,4.1,4.1,0,0,0,.94-.11,4.54,4.54,0,0,0,.87-.32Z" fill="#3c3c41"/>
      <path d="M120.13,71h-1.74V70.2h2.77v7.43h1.75v.85h-4.72v-.85h1.94Z" fill="#3c3c41"/>
      <path d="M126.45,73.44h-1.74V72.6h2.77v5h1.75v.85h-4.72v-.85h1.94Zm.35-3.31a.83.83,0,0,1,.32.06.76.76,0,0,1,.26.18.92.92,0,0,1,.17.25.81.81,0,0,1,.06.31.78.78,0,0,1-.06.31,1,1,0,0,1-.17.26.73.73,0,0,1-.26.17.68.68,0,0,1-.32.07.67.67,0,0,1-.31-.07.65.65,0,0,1-.26-.17.81.81,0,0,1-.23-.57.81.81,0,0,1,.06-.31.74.74,0,0,1,.17-.25.68.68,0,0,1,.26-.18A.81.81,0,0,1,126.8,70.13Z" fill="#3c3c41"/>
      <path d="M135.69,75.23c0,.14,0,.26,0,.36s0,.19,0,.28h-4.13a1.8,1.8,0,0,0,.5,1.38,2,2,0,0,0,1.45.49l.52,0,.5-.06.46-.08.4-.1v.84a6.76,6.76,0,0,1-.94.19,7.62,7.62,0,0,1-1.08.08,3.58,3.58,0,0,1-1.3-.21,2.21,2.21,0,0,1-.9-.59,2.46,2.46,0,0,1-.51-1,4.56,4.56,0,0,1-.17-1.28,3.77,3.77,0,0,1,.18-1.17,3,3,0,0,1,.52-1,2.47,2.47,0,0,1,.84-.66,2.44,2.44,0,0,1,1.13-.25,2.86,2.86,0,0,1,1.09.2,2.14,2.14,0,0,1,.8.54,2.36,2.36,0,0,1,.49.86A3.69,3.69,0,0,1,135.69,75.23Zm-1.06-.15a2.1,2.1,0,0,0-.08-.72,1.57,1.57,0,0,0-.29-.56,1.39,1.39,0,0,0-.49-.36,1.59,1.59,0,0,0-.68-.13,1.32,1.32,0,0,0-.6.13,1.22,1.22,0,0,0-.48.36,1.91,1.91,0,0,0-.32.56,2.71,2.71,0,0,0-.15.72Z" fill="#3c3c41"/>
      <path d="M137.29,72.6h.91l0,1a3.47,3.47,0,0,1,.5-.51,4.07,4.07,0,0,1,.47-.33,2,2,0,0,1,.47-.17,2.73,2.73,0,0,1,.5-.05,1.7,1.7,0,0,1,1.37.54,2.4,2.4,0,0,1,.47,1.61v3.84h-1V74.72a1.66,1.66,0,0,0-.26-1,.9.9,0,0,0-.76-.33,1.15,1.15,0,0,0-.37.06,1.19,1.19,0,0,0-.37.19,3.27,3.27,0,0,0-.42.37c-.15.16-.32.35-.51.59v3.9h-1Z" fill="#3c3c41"/>
      <path d="M148.57,78.4a4,4,0,0,1-.71.12,6.28,6.28,0,0,1-.75,0,2.33,2.33,0,0,1-1.65-.5,2,2,0,0,1-.55-1.54V73.45h-1.64V72.6h1.64V71l1-.26V72.6h2.64v.85h-2.64v3a1.23,1.23,0,0,0,.34,1,1.38,1.38,0,0,0,1,.31,4.7,4.7,0,0,0,.62,0,6.5,6.5,0,0,0,.69-.14Z" fill="#3c3c41"/>
      <path d="M151.75,76.63a1,1,0,0,1,.38.08,1,1,0,0,1,.31.21,1,1,0,0,1,.21.32.92.92,0,0,1,.08.38.91.91,0,0,1-.08.37,1,1,0,0,1-.52.52,1,1,0,0,1-.38.08,1,1,0,0,1-.38-.08,1,1,0,0,1-.31-.21,1.1,1.1,0,0,1-.2-.31.91.91,0,0,1-.08-.37.92.92,0,0,1,.08-.38,1.16,1.16,0,0,1,.2-.32,1,1,0,0,1,.31-.21A1,1,0,0,1,151.75,76.63Z" fill="#3c3c41"/>
      <path d="M160.17,75.43A4,4,0,0,1,160,76.8a2.68,2.68,0,0,1-.61,1,2.49,2.49,0,0,1-.91.58,3.34,3.34,0,0,1-1.15.19l-.56,0a3.89,3.89,0,0,1-.56-.1v2.46h-1V72.6h.91l.06,1a2.6,2.6,0,0,1,.94-.84,2.32,2.32,0,0,1,1.08-.25,1.79,1.79,0,0,1,.88.21,1.75,1.75,0,0,1,.64.6,2.87,2.87,0,0,1,.39.92A5.61,5.61,0,0,1,160.17,75.43Zm-1,0a5.57,5.57,0,0,0-.06-.85,2.22,2.22,0,0,0-.22-.66,1.21,1.21,0,0,0-.37-.43.92.92,0,0,0-.55-.16,1.32,1.32,0,0,0-.39.06,1.77,1.77,0,0,0-.41.21,2.52,2.52,0,0,0-.45.38,5.43,5.43,0,0,0-.51.59v2.85a3.7,3.7,0,0,0,.59.19,3.23,3.23,0,0,0,.61.06,1.59,1.59,0,0,0,1.29-.55A2.56,2.56,0,0,0,159.12,75.48Z" fill="#3c3c41"/>
      <path d="M166.13,76.88a1.38,1.38,0,0,1-.11.55,1.44,1.44,0,0,1-.28.44,1.67,1.67,0,0,1-.42.32,3.43,3.43,0,0,1-.52.23,3.48,3.48,0,0,1-.56.12,3.64,3.64,0,0,1-.56,0,9.36,9.36,0,0,1-1.1-.06,6.48,6.48,0,0,1-1-.17v-.93a9.46,9.46,0,0,0,1,.22,6.86,6.86,0,0,0,1,.07,2.29,2.29,0,0,0,1.08-.19.63.63,0,0,0,.35-.57.68.68,0,0,0,0-.29.85.85,0,0,0-.2-.24,2.15,2.15,0,0,0-.46-.23,7.77,7.77,0,0,0-.84-.29,4.81,4.81,0,0,1-.73-.26,2.44,2.44,0,0,1-.59-.36,1.37,1.37,0,0,1-.38-.48,1.33,1.33,0,0,1-.14-.65,1.44,1.44,0,0,1,.11-.54,1.61,1.61,0,0,1,.39-.54,2.09,2.09,0,0,1,.74-.42,3.64,3.64,0,0,1,1.18-.17,7.05,7.05,0,0,1,.76,0c.29,0,.58.07.88.13v.91a6.55,6.55,0,0,0-.91-.17,5.48,5.48,0,0,0-.75-.06,3,3,0,0,0-.64.06,1.36,1.36,0,0,0-.42.16.65.65,0,0,0-.23.24.6.6,0,0,0-.07.3.64.64,0,0,0,.06.28.67.67,0,0,0,.23.25,2.25,2.25,0,0,0,.47.24,6.77,6.77,0,0,0,.77.26,7.08,7.08,0,0,1,.88.32,2.24,2.24,0,0,1,.58.38,1.1,1.1,0,0,1,.32.46A1.55,1.55,0,0,1,166.13,76.88Z" fill="#3c3c41"/>
      <path d="M172.47,78.48h-4.81v-1h2V71.94l-1.83,1-.37-.87,2.43-1.28h.91v6.74h1.71Z" fill="#3c3c41"/>
    </g>
    <g>
      <path d="M35.42,133.19a4.89,4.89,0,0,1-1.93.38,3.16,3.16,0,0,1-2.49-1,4.15,4.15,0,0,1-.87-2.86,5.43,5.43,0,0,1,.24-1.67,3.81,3.81,0,0,1,.68-1.26,3,3,0,0,1,1.08-.8,3.43,3.43,0,0,1,1.42-.28,5.06,5.06,0,0,1,1,.09,3.76,3.76,0,0,1,.88.28v1a4,4,0,0,0-.86-.35,3.74,3.74,0,0,0-1-.12,2.24,2.24,0,0,0-1,.21,2,2,0,0,0-.74.58,2.86,2.86,0,0,0-.47.94,4.43,4.43,0,0,0-.16,1.26,3.59,3.59,0,0,0,.6,2.25,2.13,2.13,0,0,0,1.77.75,4.1,4.1,0,0,0,.94-.11,4.54,4.54,0,0,0,.87-.32Z" fill="#3c3c41"/>
      <path d="M42,130.49a3.87,3.87,0,0,1-.19,1.26,2.86,2.86,0,0,1-.56,1,2.54,2.54,0,0,1-.88.63,3,3,0,0,1-1.19.23,3.08,3.08,0,0,1-1.13-.2,2.12,2.12,0,0,1-.85-.58,2.53,2.53,0,0,1-.53-.94,4,4,0,0,1-.19-1.3,4.15,4.15,0,0,1,.19-1.25,2.9,2.9,0,0,1,.56-1,2.48,2.48,0,0,1,.89-.63,2.92,2.92,0,0,1,1.18-.23,3.08,3.08,0,0,1,1.13.2,2.2,2.2,0,0,1,.85.57,2.55,2.55,0,0,1,.54.94A4.28,4.28,0,0,1,42,130.49Zm-1,0a3.38,3.38,0,0,0-.12-.95,1.9,1.9,0,0,0-.35-.68,1.3,1.3,0,0,0-.54-.41,1.8,1.8,0,0,0-.71-.14,1.61,1.61,0,0,0-.78.18A1.45,1.45,0,0,0,38,129a2.08,2.08,0,0,0-.31.69,3.7,3.7,0,0,0-.1.83,3.38,3.38,0,0,0,.12,1,1.87,1.87,0,0,0,.35.69,1.44,1.44,0,0,0,.54.41,1.8,1.8,0,0,0,.71.13,1.5,1.5,0,0,0,1.32-.65,1.93,1.93,0,0,0,.3-.7A3.2,3.2,0,0,0,41,130.54Z" fill="#3c3c41"/>
      <path d="M43.54,127.6h.91l0,1A3.47,3.47,0,0,1,45,128a4.07,4.07,0,0,1,.47-.33,2,2,0,0,1,.47-.17,2.73,2.73,0,0,1,.5-.05,1.7,1.7,0,0,1,1.37.54,2.4,2.4,0,0,1,.47,1.61v3.84h-1v-3.76a1.66,1.66,0,0,0-.26-1,.9.9,0,0,0-.76-.33,1.15,1.15,0,0,0-.37.06,1.19,1.19,0,0,0-.37.19,3.27,3.27,0,0,0-.42.37c-.15.16-.32.35-.51.59v3.9h-1Z" fill="#3c3c41"/>
      <path d="M50.12,127.6H51l0,1a3.47,3.47,0,0,1,.5-.51,4.07,4.07,0,0,1,.47-.33,2,2,0,0,1,.47-.17,2.73,2.73,0,0,1,.5-.05,1.7,1.7,0,0,1,1.37.54,2.4,2.4,0,0,1,.47,1.61v3.84h-1v-3.76a1.66,1.66,0,0,0-.26-1,.92.92,0,0,0-.77-.33,1.13,1.13,0,0,0-.36.06,1.19,1.19,0,0,0-.37.19,3.27,3.27,0,0,0-.42.37c-.15.16-.32.35-.51.59v3.9h-1Z" fill="#3c3c41"/>
      <path d="M61.65,130.23c0,.14,0,.26,0,.36a2.46,2.46,0,0,1,0,.28H57.49a1.8,1.8,0,0,0,.51,1.38,2,2,0,0,0,1.45.49l.52,0,.49-.06.46-.08a3.52,3.52,0,0,0,.41-.1v.84a7.08,7.08,0,0,1-.94.19,7.66,7.66,0,0,1-1.09.08,3.65,3.65,0,0,1-1.3-.21,2.24,2.24,0,0,1-.89-.59,2.61,2.61,0,0,1-.52-1,4.57,4.57,0,0,1-.16-1.28,3.77,3.77,0,0,1,.18-1.17,3,3,0,0,1,.52-1,2.47,2.47,0,0,1,.84-.66,2.44,2.44,0,0,1,1.13-.25,2.86,2.86,0,0,1,1.09.2,2.14,2.14,0,0,1,.8.54,2.36,2.36,0,0,1,.49.86A3.69,3.69,0,0,1,61.65,130.23Zm-1.06-.15a2.38,2.38,0,0,0-.08-.72,1.57,1.57,0,0,0-.29-.56,1.39,1.39,0,0,0-.49-.36,1.59,1.59,0,0,0-.68-.13,1.39,1.39,0,0,0-.61.13,1.26,1.26,0,0,0-.47.36,1.91,1.91,0,0,0-.32.56,2.37,2.37,0,0,0-.16.72Z" fill="#3c3c41"/>
      <path d="M67.7,133.26a4,4,0,0,1-.82.23,4.94,4.94,0,0,1-.87.07,2.89,2.89,0,0,1-2.14-.75,3,3,0,0,1-.76-2.21,3.64,3.64,0,0,1,.22-1.27,2.91,2.91,0,0,1,.61-1,2.53,2.53,0,0,1,.94-.62,3.09,3.09,0,0,1,1.2-.22,5.67,5.67,0,0,1,.85.06,3.37,3.37,0,0,1,.77.21v1a3.53,3.53,0,0,0-.78-.29,3.68,3.68,0,0,0-.82-.09,1.85,1.85,0,0,0-.74.15,1.88,1.88,0,0,0-.61.43,2,2,0,0,0-.42.69,2.59,2.59,0,0,0-.15.91,2.19,2.19,0,0,0,.52,1.6,1.92,1.92,0,0,0,1.44.53,3.57,3.57,0,0,0,.8-.09,3.71,3.71,0,0,0,.76-.29Z" fill="#3c3c41"/>
      <path d="M74.39,133.4a4.21,4.21,0,0,1-.71.12,6.28,6.28,0,0,1-.75,0,2.37,2.37,0,0,1-1.66-.5,2,2,0,0,1-.54-1.54v-3.07H69.08v-.85h1.65V126l1-.26v1.88h2.64v.85H71.75v3a1.26,1.26,0,0,0,.33.95,1.43,1.43,0,0,0,1,.31,4.45,4.45,0,0,0,.61,0,6.19,6.19,0,0,0,.7-.14Z" fill="#3c3c41"/>
      <path d="M78.67,130.77h-3.5v-1h3.5Z" fill="#3c3c41"/>
      <path d="M84.88,133.4a4,4,0,0,1-.71.12,6.28,6.28,0,0,1-.75,0,2.33,2.33,0,0,1-1.65-.5,2,2,0,0,1-.55-1.54v-3.07H79.58v-.85h1.64V126l1-.26v1.88h2.64v.85H82.24v3a1.23,1.23,0,0,0,.34.95,1.38,1.38,0,0,0,1,.31,4.7,4.7,0,0,0,.62,0,6.5,6.5,0,0,0,.69-.14Z" fill="#3c3c41"/>
      <path d="M91.62,130.49a3.87,3.87,0,0,1-.2,1.26,2.84,2.84,0,0,1-.55,1,2.57,2.57,0,0,1-.89.63,3,3,0,0,1-1.18.23,3.17,3.17,0,0,1-1.14-.2,2.26,2.26,0,0,1-.85-.58,2.53,2.53,0,0,1-.53-.94,4.3,4.3,0,0,1-.18-1.3,3.86,3.86,0,0,1,.19-1.25,2.74,2.74,0,0,1,.56-1,2.45,2.45,0,0,1,.88-.63,3,3,0,0,1,1.18-.23,3.13,3.13,0,0,1,1.14.2,2.28,2.28,0,0,1,.85.57,2.53,2.53,0,0,1,.53.94A4.27,4.27,0,0,1,91.62,130.49Zm-1.05,0a3.38,3.38,0,0,0-.12-.95,1.89,1.89,0,0,0-.34-.68,1.44,1.44,0,0,0-.54-.41,1.8,1.8,0,0,0-.71-.14,1.51,1.51,0,0,0-1.32.66,1.88,1.88,0,0,0-.3.69,3.2,3.2,0,0,0-.1.83,3.38,3.38,0,0,0,.12,1,1.86,1.86,0,0,0,.34.69,1.44,1.44,0,0,0,.54.41,1.81,1.81,0,0,0,.72.13,1.6,1.6,0,0,0,.78-.17,1.53,1.53,0,0,0,.53-.48,2.13,2.13,0,0,0,.31-.7A3.7,3.7,0,0,0,90.57,130.54Z" fill="#3c3c41"/>
      <path d="M94.74,128.44H93v-.84h2.78v5h1.75v.85H92.8v-.85h1.94Zm.35-3.31a.83.83,0,0,1,.32.06.64.64,0,0,1,.25.18.62.62,0,0,1,.17.25.82.82,0,0,1,.07.31.78.78,0,0,1-.07.31.65.65,0,0,1-.17.26.62.62,0,0,1-.25.17.68.68,0,0,1-.32.07.64.64,0,0,1-.31-.07.65.65,0,0,1-.26-.17.81.81,0,0,1-.23-.57.81.81,0,0,1,.06-.31.74.74,0,0,1,.17-.25.68.68,0,0,1,.26-.18A.78.78,0,0,1,95.09,125.13Z" fill="#3c3c41"/>
      <path d="M104,131.41a1.91,1.91,0,0,1-.85,1.63,2.63,2.63,0,0,1-1,.41,5.2,5.2,0,0,1-1.23.14l-.61,0a5.42,5.42,0,0,1-.58-.06l-.52-.08-.45-.1v-1a5.5,5.5,0,0,0,1,.26,7.72,7.72,0,0,0,1.25.1,4.09,4.09,0,0,0,.85-.08,1.78,1.78,0,0,0,.59-.24.9.9,0,0,0,.32-.38,1.13,1.13,0,0,0,.11-.51.83.83,0,0,0-.18-.53,1.76,1.76,0,0,0-.45-.39,4.24,4.24,0,0,0-.64-.31l-.74-.3c-.25-.1-.49-.21-.73-.33a3.3,3.3,0,0,1-.65-.42,2.46,2.46,0,0,1-.45-.57,1.73,1.73,0,0,1-.17-.78,2,2,0,0,1,.16-.78,1.82,1.82,0,0,1,.51-.67,2.6,2.6,0,0,1,.89-.48,4.1,4.1,0,0,1,1.29-.18h.42l.46,0,.45.08a2.59,2.59,0,0,1,.42.09v.93a7.21,7.21,0,0,0-.9-.19,5.27,5.27,0,0,0-.87-.07,2.3,2.3,0,0,0-1.32.3.93.93,0,0,0-.42.8.84.84,0,0,0,.17.53,1.74,1.74,0,0,0,.45.4,3.58,3.58,0,0,0,.65.32l.73.3c.25.1.5.21.74.33a3.25,3.25,0,0,1,.64.43,1.85,1.85,0,0,1,.45.59A1.62,1.62,0,0,1,104,131.41Z" fill="#3c3c41"/>
      <path d="M110.36,133.19a4.89,4.89,0,0,1-1.93.38,3.16,3.16,0,0,1-2.49-1,4.15,4.15,0,0,1-.87-2.86,5.43,5.43,0,0,1,.24-1.67,3.81,3.81,0,0,1,.68-1.26,3,3,0,0,1,1.08-.8,3.43,3.43,0,0,1,1.42-.28,5.06,5.06,0,0,1,1,.09,3.76,3.76,0,0,1,.88.28v1a4,4,0,0,0-.86-.35,3.74,3.74,0,0,0-1-.12,2.24,2.24,0,0,0-1,.21,2,2,0,0,0-.74.58,2.86,2.86,0,0,0-.47.94,4.43,4.43,0,0,0-.16,1.26,3.59,3.59,0,0,0,.6,2.25,2.13,2.13,0,0,0,1.77.75,4.1,4.1,0,0,0,.94-.11,4.54,4.54,0,0,0,.87-.32Z" fill="#3c3c41"/>
      <path d="M116.7,131.41a1.87,1.87,0,0,1-.84,1.63,2.63,2.63,0,0,1-1,.41,5.2,5.2,0,0,1-1.23.14c-.2,0-.41,0-.61,0a5.42,5.42,0,0,1-.58-.06l-.52-.08-.45-.1v-1a5.5,5.5,0,0,0,1,.26,7.72,7.72,0,0,0,1.25.1,4.09,4.09,0,0,0,.85-.08,1.63,1.63,0,0,0,.58-.24.92.92,0,0,0,.33-.38,1.13,1.13,0,0,0,.1-.51.82.82,0,0,0-.17-.53,1.76,1.76,0,0,0-.45-.39,4.24,4.24,0,0,0-.64-.31l-.74-.3c-.25-.1-.49-.21-.73-.33a3.3,3.3,0,0,1-.65-.42,2.46,2.46,0,0,1-.45-.57,1.6,1.6,0,0,1-.17-.78,2,2,0,0,1,.16-.78,1.82,1.82,0,0,1,.51-.67,2.6,2.6,0,0,1,.89-.48,4.1,4.1,0,0,1,1.29-.18h.42l.46,0,.45.08a2.59,2.59,0,0,1,.42.09v.93a7.21,7.21,0,0,0-.9-.19,5.27,5.27,0,0,0-.87-.07,2.3,2.3,0,0,0-1.32.3.93.93,0,0,0-.42.8.79.79,0,0,0,.17.53,1.74,1.74,0,0,0,.45.4,3.58,3.58,0,0,0,.65.32l.73.3c.25.1.5.21.74.33a3.25,3.25,0,0,1,.64.43,1.85,1.85,0,0,1,.45.59A1.62,1.62,0,0,1,116.7,131.41Z" fill="#3c3c41"/>
      <path d="M119.68,126.7h-1.76v-.88h4.58v.88h-1.76v5.89h1.76v.89h-4.58v-.89h1.76Z" fill="#3c3c41"/>
      <path d="M129.29,126.71H127v6.77H126v-6.77H123.7v-.89h5.59Z" fill="#3c3c41"/>
      <path d="M133.32,133.48l0-.79a3.32,3.32,0,0,1-1,.69,2.61,2.61,0,0,1-1,.21,2.73,2.73,0,0,1-.86-.13,1.73,1.73,0,0,1-.59-.36,1.34,1.34,0,0,1-.34-.53,2,2,0,0,1-.11-.66,1.66,1.66,0,0,1,.66-1.39,3.22,3.22,0,0,1,2-.5h1.22v-.51a1.11,1.11,0,0,0-.33-.84,1.47,1.47,0,0,0-1-.31,4.69,4.69,0,0,0-1,.11,6,6,0,0,0-1,.32v-.92a3.11,3.11,0,0,1,.43-.14,3.33,3.33,0,0,1,.5-.12c.17,0,.36-.06.55-.09a5.49,5.49,0,0,1,.58,0,3.6,3.6,0,0,1,1,.12,2,2,0,0,1,.72.36,1.61,1.61,0,0,1,.46.6,2.24,2.24,0,0,1,.16.86v4Zm-.11-2.68h-1.3a2.46,2.46,0,0,0-.65.08,1.05,1.05,0,0,0-.45.22.75.75,0,0,0-.26.33,1.06,1.06,0,0,0-.09.45,1.13,1.13,0,0,0,0,.32,1,1,0,0,0,.17.28.86.86,0,0,0,.31.19,1.48,1.48,0,0,0,.46.07,1.83,1.83,0,0,0,.8-.22,4.21,4.21,0,0,0,1-.67Z" fill="#3c3c41"/>
      <path d="M136.22,127.6h.93l0,1.08a3.8,3.8,0,0,1,1-.91,2.19,2.19,0,0,1,1-.28,1.67,1.67,0,0,1,1.38.59,2.64,2.64,0,0,1,.44,1.76h-1a2,2,0,0,0-.23-1.12.82.82,0,0,0-.71-.35,1.41,1.41,0,0,0-.41.07,1.55,1.55,0,0,0-.43.24,4,4,0,0,0-.47.41c-.16.17-.34.37-.53.61v3.78h-1Z" fill="#3c3c41"/>
      <path d="M146.73,128.43a1.57,1.57,0,0,1,.25.48,1.87,1.87,0,0,1,.09.59,1.9,1.9,0,0,1-.17.83,1.78,1.78,0,0,1-.47.65,2.09,2.09,0,0,1-.73.42,2.75,2.75,0,0,1-.93.15,3,3,0,0,1-.69-.08,1.55,1.55,0,0,1-.51-.2,2.16,2.16,0,0,0-.19.31.73.73,0,0,0-.08.33.45.45,0,0,0,.22.37,1,1,0,0,0,.56.16l1.55.06a3,3,0,0,1,.81.11,2,2,0,0,1,.64.28,1.35,1.35,0,0,1,.42.47,1.29,1.29,0,0,1,.15.64,1.71,1.71,0,0,1-.17.74,1.81,1.81,0,0,1-.53.62,2.51,2.51,0,0,1-.9.42,4.46,4.46,0,0,1-1.29.16,6.05,6.05,0,0,1-1.22-.11,2.6,2.6,0,0,1-.82-.32,1.2,1.2,0,0,1-.47-.48,1.28,1.28,0,0,1-.15-.61,1.4,1.4,0,0,1,.2-.75,2.27,2.27,0,0,1,.62-.62,1.27,1.27,0,0,1-.27-.18,1.3,1.3,0,0,1-.18-.23,1.08,1.08,0,0,1-.1-.27.84.84,0,0,1,0-.27,1.38,1.38,0,0,1,.18-.7,3.48,3.48,0,0,1,.43-.6,2.26,2.26,0,0,1-.2-.26,1.51,1.51,0,0,1-.15-.28,1.68,1.68,0,0,1-.09-.32,2.41,2.41,0,0,1,0-.4,2,2,0,0,1,.16-.83,1.9,1.9,0,0,1,.47-.65,2.18,2.18,0,0,1,.73-.42,2.81,2.81,0,0,1,.94-.15,3,3,0,0,1,.42,0l.35.08h2.13v.83Zm-3.54,5.9a.63.63,0,0,0,.43.61,3.22,3.22,0,0,0,1.21.19,3.26,3.26,0,0,0,.82-.09,1.87,1.87,0,0,0,.53-.23,1,1,0,0,0,.29-.33.85.85,0,0,0,.09-.38.57.57,0,0,0-.3-.53,1.93,1.93,0,0,0-.89-.19l-1.54-.06a3.27,3.27,0,0,0-.32.25,1.27,1.27,0,0,0-.19.25.93.93,0,0,0-.1.26A1,1,0,0,0,143.19,134.33Zm.31-4.81a1.46,1.46,0,0,0,.09.52,1.05,1.05,0,0,0,.27.39,1.11,1.11,0,0,0,.4.26,1.36,1.36,0,0,0,.51.09,1.33,1.33,0,0,0,.54-.1,1.15,1.15,0,0,0,.4-.28A1.22,1.22,0,0,0,146,130a1.5,1.5,0,0,0,.08-.47A1.46,1.46,0,0,0,146,129a1.09,1.09,0,0,0-.27-.39,1.11,1.11,0,0,0-.4-.26,1.36,1.36,0,0,0-.51-.09,1.19,1.19,0,0,0-.54.11,1.15,1.15,0,0,0-.65.67A1.61,1.61,0,0,0,143.5,129.52Z" fill="#3c3c41"/>
      <path d="M153.84,130.23c0,.14,0,.26,0,.36s0,.19,0,.28h-4.13a1.8,1.8,0,0,0,.5,1.38,2,2,0,0,0,1.45.49l.52,0,.5-.06.46-.08a3.89,3.89,0,0,0,.4-.1v.84a6.76,6.76,0,0,1-.94.19,7.62,7.62,0,0,1-1.08.08,3.58,3.58,0,0,1-1.3-.21,2.21,2.21,0,0,1-.9-.59,2.46,2.46,0,0,1-.51-1,4.22,4.22,0,0,1-.17-1.28,3.77,3.77,0,0,1,.18-1.17,3,3,0,0,1,.52-1,2.47,2.47,0,0,1,.84-.66,2.44,2.44,0,0,1,1.13-.25,2.86,2.86,0,0,1,1.09.2,2.14,2.14,0,0,1,.8.54,2.36,2.36,0,0,1,.49.86A3.69,3.69,0,0,1,153.84,130.23Zm-1.06-.15a2.1,2.1,0,0,0-.08-.72,1.57,1.57,0,0,0-.29-.56,1.39,1.39,0,0,0-.49-.36,1.59,1.59,0,0,0-.68-.13,1.39,1.39,0,0,0-.61.13,1.26,1.26,0,0,0-.47.36,1.91,1.91,0,0,0-.32.56,2.36,2.36,0,0,0-.15.72Z" fill="#3c3c41"/>
      <path d="M160.16,133.4a4,4,0,0,1-.71.12,6.28,6.28,0,0,1-.75,0,2.33,2.33,0,0,1-1.65-.5,2,2,0,0,1-.55-1.54v-3.07h-1.64v-.85h1.64V126l1-.26v1.88h2.64v.85h-2.64v3a1.23,1.23,0,0,0,.34.95,1.38,1.38,0,0,0,1,.31,4.7,4.7,0,0,0,.62,0,6.5,6.5,0,0,0,.69-.14Z" fill="#3c3c41"/>
      <path d="M163.34,131.63a1,1,0,0,1,.38.08,1,1,0,0,1,.31.21,1,1,0,0,1,.21.32.92.92,0,0,1,.08.38.91.91,0,0,1-.08.37,1,1,0,0,1-.52.52,1,1,0,0,1-.38.08,1,1,0,0,1-.38-.08,1.06,1.06,0,0,1-.31-.21,1.1,1.1,0,0,1-.2-.31.91.91,0,0,1-.08-.37.92.92,0,0,1,.08-.38,1.16,1.16,0,0,1,.2-.32,1.06,1.06,0,0,1,.31-.21A1,1,0,0,1,163.34,131.63Z" fill="#3c3c41"/>
      <path d="M171.76,130.43a4,4,0,0,1-.22,1.37,2.68,2.68,0,0,1-.61,1,2.49,2.49,0,0,1-.91.58,3.3,3.3,0,0,1-1.15.19,5.07,5.07,0,0,1-.55,0,3.78,3.78,0,0,1-.57-.1v2.46h-1V127.6h.91l.06,1a2.68,2.68,0,0,1,.94-.84,2.32,2.32,0,0,1,1.08-.25,1.79,1.79,0,0,1,.88.21,1.75,1.75,0,0,1,.64.6,2.87,2.87,0,0,1,.39.92A5.61,5.61,0,0,1,171.76,130.43Zm-1,0a5.57,5.57,0,0,0-.06-.85,2.22,2.22,0,0,0-.22-.66,1.12,1.12,0,0,0-.37-.43.92.92,0,0,0-.55-.16,1.32,1.32,0,0,0-.39.06,1.77,1.77,0,0,0-.41.21,2.93,2.93,0,0,0-.45.38,5.43,5.43,0,0,0-.51.59v2.85a3.7,3.7,0,0,0,.59.19,3.23,3.23,0,0,0,.61.06,1.62,1.62,0,0,0,1.3-.55A2.62,2.62,0,0,0,170.71,130.48Z" fill="#3c3c41"/>
      <path d="M177.72,131.88a1.23,1.23,0,0,1-.11.55,1.44,1.44,0,0,1-.28.44,1.67,1.67,0,0,1-.42.32,3,3,0,0,1-.52.23,3.27,3.27,0,0,1-.56.12,3.64,3.64,0,0,1-.56.05,9.36,9.36,0,0,1-1.1-.06,6.48,6.48,0,0,1-1-.17v-.93a9.46,9.46,0,0,0,1,.22,6.86,6.86,0,0,0,1,.07,2.29,2.29,0,0,0,1.08-.19.64.64,0,0,0,.36-.57.68.68,0,0,0-.06-.29.71.71,0,0,0-.2-.24,2.15,2.15,0,0,0-.46-.23,7.77,7.77,0,0,0-.84-.29,4.81,4.81,0,0,1-.73-.26,2.44,2.44,0,0,1-.59-.36,1.37,1.37,0,0,1-.38-.48,1.33,1.33,0,0,1-.14-.65,1.67,1.67,0,0,1,.11-.54,1.61,1.61,0,0,1,.39-.54,2,2,0,0,1,.75-.42,3.53,3.53,0,0,1,1.17-.17,7.05,7.05,0,0,1,.76,0c.29,0,.58.07.88.13v.91a6.55,6.55,0,0,0-.91-.17,5.35,5.35,0,0,0-.74-.06,3,3,0,0,0-.65.06,1.36,1.36,0,0,0-.42.16.65.65,0,0,0-.23.24.6.6,0,0,0-.07.3.64.64,0,0,0,.06.28.67.67,0,0,0,.23.25,2.25,2.25,0,0,0,.47.24,7.83,7.83,0,0,0,.78.26,7.5,7.5,0,0,1,.87.32,2.24,2.24,0,0,1,.58.38,1.1,1.1,0,0,1,.32.46A1.55,1.55,0,0,1,177.72,131.88Z" fill="#3c3c41"/>
      <path d="M184.06,133.48h-4.81v-.95h2v-5.59l-1.83,1-.37-.87,2.43-1.28h.91v6.74h1.71Z" fill="#3c3c41"/>
    </g>
    <g>
      <path d="M253.55,78.19a4.89,4.89,0,0,1-1.93.38,3.16,3.16,0,0,1-2.49-1,4.15,4.15,0,0,1-.87-2.86,5.43,5.43,0,0,1,.24-1.67,3.81,3.81,0,0,1,.68-1.26,3,3,0,0,1,1.08-.8,3.43,3.43,0,0,1,1.42-.28,5.21,5.21,0,0,1,1,.09,3.92,3.92,0,0,1,.88.28v1a4.2,4.2,0,0,0-.86-.35,3.76,3.76,0,0,0-1-.12,2.22,2.22,0,0,0-1,.21,2,2,0,0,0-.74.58,2.68,2.68,0,0,0-.47.94,4.41,4.41,0,0,0-.17,1.26,3.59,3.59,0,0,0,.61,2.25,2.13,2.13,0,0,0,1.77.75,4.1,4.1,0,0,0,.94-.11,4.54,4.54,0,0,0,.87-.32Z" fill="#3c3c41"/>
      <path d="M255.07,72.6H256l0,1.08a3.8,3.8,0,0,1,1-.91,2.18,2.18,0,0,1,1-.28,1.69,1.69,0,0,1,1.39.59,2.65,2.65,0,0,1,.43,1.76h-1a2,2,0,0,0-.22-1.12.82.82,0,0,0-.71-.35,1.54,1.54,0,0,0-.42.07,1.7,1.7,0,0,0-.43.24,4,4,0,0,0-.46.41,7,7,0,0,0-.53.61v3.78h-1Z" fill="#3c3c41"/>
      <path d="M266.4,75.23v.36c0,.1,0,.19,0,.28h-4.13a1.8,1.8,0,0,0,.5,1.38,2,2,0,0,0,1.45.49l.52,0,.5-.06.46-.08.4-.1v.84a6.76,6.76,0,0,1-.94.19,7.62,7.62,0,0,1-1.08.08,3.58,3.58,0,0,1-1.3-.21,2.28,2.28,0,0,1-.9-.59,2.46,2.46,0,0,1-.51-1,4.56,4.56,0,0,1-.17-1.28,3.77,3.77,0,0,1,.18-1.17,3,3,0,0,1,.52-1,2.47,2.47,0,0,1,.84-.66,2.44,2.44,0,0,1,1.13-.25,2.83,2.83,0,0,1,1.09.2,2.06,2.06,0,0,1,.8.54,2.36,2.36,0,0,1,.49.86A3.41,3.41,0,0,1,266.4,75.23Zm-1.06-.15a2.1,2.1,0,0,0-.08-.72,1.43,1.43,0,0,0-.29-.56,1.44,1.44,0,0,0-.48-.36,1.65,1.65,0,0,0-.68-.13,1.33,1.33,0,0,0-.61.13,1.22,1.22,0,0,0-.48.36,1.91,1.91,0,0,0-.32.56,2.71,2.71,0,0,0-.15.72Z" fill="#3c3c41"/>
      <path d="M271.63,78.48l0-.79a3.46,3.46,0,0,1-1,.69,2.65,2.65,0,0,1-1,.21,2.68,2.68,0,0,1-.86-.13,1.64,1.64,0,0,1-.59-.36,1.34,1.34,0,0,1-.34-.53,2,2,0,0,1-.11-.66,1.66,1.66,0,0,1,.66-1.39,3.22,3.22,0,0,1,1.95-.5h1.22v-.51a1.08,1.08,0,0,0-.34-.84,1.43,1.43,0,0,0-1-.31,4.6,4.6,0,0,0-1,.11,6.39,6.39,0,0,0-1,.32v-.92l.43-.14a4.05,4.05,0,0,1,.5-.12c.18,0,.36-.06.56-.09a5.49,5.49,0,0,1,.58,0,3.6,3.6,0,0,1,1,.12,2,2,0,0,1,.72.36,1.49,1.49,0,0,1,.45.6,2.06,2.06,0,0,1,.16.86v4Zm-.11-2.68h-1.3a2.46,2.46,0,0,0-.65.08,1.16,1.16,0,0,0-.46.22.93.93,0,0,0-.26.33,1.25,1.25,0,0,0-.08.45,1.13,1.13,0,0,0,.05.32.81.81,0,0,0,.17.28.86.86,0,0,0,.31.19,1.42,1.42,0,0,0,.45.07,1.83,1.83,0,0,0,.81-.22,4.21,4.21,0,0,0,1-.67Z" fill="#3c3c41"/>
      <path d="M279.12,78.4a4.16,4.16,0,0,1-.72.12,6.06,6.06,0,0,1-.75,0,2.36,2.36,0,0,1-1.65-.5,2,2,0,0,1-.54-1.54V73.45h-1.65V72.6h1.65V71l1-.26V72.6h2.64v.85h-2.64v3a1.26,1.26,0,0,0,.33,1,1.43,1.43,0,0,0,1,.31,4.55,4.55,0,0,0,.61,0,6.19,6.19,0,0,0,.7-.14Z" fill="#3c3c41"/>
      <path d="M285.63,75.23v.36c0,.1,0,.19,0,.28h-4.13a1.84,1.84,0,0,0,.5,1.38,2,2,0,0,0,1.46.49l.51,0,.5-.06.46-.08.41-.1v.84a7.08,7.08,0,0,1-.94.19,7.77,7.77,0,0,1-1.09.08,3.58,3.58,0,0,1-1.3-.21,2.28,2.28,0,0,1-.9-.59,2.46,2.46,0,0,1-.51-1,4.56,4.56,0,0,1-.17-1.28,3.77,3.77,0,0,1,.18-1.17,3,3,0,0,1,.52-1,2.47,2.47,0,0,1,.84-.66,2.44,2.44,0,0,1,1.13-.25,2.83,2.83,0,0,1,1.09.2,2.06,2.06,0,0,1,.8.54,2.53,2.53,0,0,1,.5.86A3.7,3.7,0,0,1,285.63,75.23Zm-1.06-.15a2.38,2.38,0,0,0-.07-.72,1.75,1.75,0,0,0-.29-.56,1.6,1.6,0,0,0-.49-.36,1.65,1.65,0,0,0-.68-.13,1.33,1.33,0,0,0-.61.13,1.29,1.29,0,0,0-.48.36,1.91,1.91,0,0,0-.32.56,2.71,2.71,0,0,0-.15.72Z" fill="#3c3c41"/>
      <path d="M291,75.77h-3.5v-1H291Z" fill="#3c3c41"/>
      <path d="M294,73.44h-1.74V72.6H295v5h1.76v.85h-4.72v-.85H294Zm.36-3.31a.87.87,0,0,1,.32.06.72.72,0,0,1,.25.18.74.74,0,0,1,.17.25.81.81,0,0,1,.06.31.81.81,0,0,1-.23.57.7.7,0,0,1-.25.17.77.77,0,0,1-.64,0,.7.7,0,0,1-.25-.17.81.81,0,0,1-.23-.57.81.81,0,0,1,.06-.31.74.74,0,0,1,.17-.25.72.72,0,0,1,.25-.18A.87.87,0,0,1,294.37,70.13Z" fill="#3c3c41"/>
      <path d="M303.3,76.41a1.87,1.87,0,0,1-.84,1.63,2.79,2.79,0,0,1-1,.41,5.2,5.2,0,0,1-1.23.14c-.2,0-.41,0-.61,0a5.42,5.42,0,0,1-.58-.06l-.52-.08a3.83,3.83,0,0,1-.45-.1v-1a5.09,5.09,0,0,0,1,.26,7.59,7.59,0,0,0,1.24.1,4.12,4.12,0,0,0,.86-.08,1.63,1.63,0,0,0,.58-.24.92.92,0,0,0,.33-.38,1.13,1.13,0,0,0,.1-.51.82.82,0,0,0-.17-.53,2,2,0,0,0-.45-.39,4.24,4.24,0,0,0-.64-.31l-.74-.3c-.25-.1-.5-.21-.74-.33a3.22,3.22,0,0,1-.64-.42,2.22,2.22,0,0,1-.45-.57,1.6,1.6,0,0,1-.17-.78,2,2,0,0,1,.16-.78,1.82,1.82,0,0,1,.51-.67,2.6,2.6,0,0,1,.89-.48,4.1,4.1,0,0,1,1.29-.18h.42l.46,0,.45.08a2.59,2.59,0,0,1,.42.09v.93a7.21,7.21,0,0,0-.9-.19,5.27,5.27,0,0,0-.87-.07,2.3,2.3,0,0,0-1.32.3.93.93,0,0,0-.42.8.79.79,0,0,0,.17.53,1.59,1.59,0,0,0,.45.4,3.47,3.47,0,0,0,.64.32l.74.3c.25.1.49.21.73.33a3.06,3.06,0,0,1,.65.43,2,2,0,0,1,.45.59A1.62,1.62,0,0,1,303.3,76.41Z" fill="#3c3c41"/>
      <path d="M309.64,78.19a4.92,4.92,0,0,1-1.93.38,3.16,3.16,0,0,1-2.49-1,4.15,4.15,0,0,1-.87-2.86,5.43,5.43,0,0,1,.24-1.67,3.81,3.81,0,0,1,.68-1.26,3,3,0,0,1,1.08-.8,3.4,3.4,0,0,1,1.42-.28,5.21,5.21,0,0,1,1,.09,3.92,3.92,0,0,1,.88.28v1a4.2,4.2,0,0,0-.86-.35,3.81,3.81,0,0,0-1-.12,2.19,2.19,0,0,0-1,.21,2,2,0,0,0-.74.58,2.68,2.68,0,0,0-.47.94,4.41,4.41,0,0,0-.17,1.26,3.53,3.53,0,0,0,.61,2.25,2.13,2.13,0,0,0,1.77.75,4.17,4.17,0,0,0,.94-.11,4.54,4.54,0,0,0,.87-.32Z" fill="#3c3c41"/>
      <path d="M316,76.41a1.93,1.93,0,0,1-.22,1,2,2,0,0,1-.62.68,2.79,2.79,0,0,1-1,.41,5.2,5.2,0,0,1-1.23.14,6.08,6.08,0,0,1-.61,0,5.42,5.42,0,0,1-.58-.06l-.52-.08a3.83,3.83,0,0,1-.45-.1v-1a5.09,5.09,0,0,0,1,.26,7.59,7.59,0,0,0,1.24.1,4.12,4.12,0,0,0,.86-.08,1.63,1.63,0,0,0,.58-.24.92.92,0,0,0,.33-.38,1.13,1.13,0,0,0,.1-.51.82.82,0,0,0-.17-.53,2,2,0,0,0-.45-.39,4.37,4.37,0,0,0-.65-.31l-.73-.3c-.25-.1-.5-.21-.74-.33a3.22,3.22,0,0,1-.64-.42,2,2,0,0,1-.45-.57,1.6,1.6,0,0,1-.17-.78,2,2,0,0,1,.16-.78,1.82,1.82,0,0,1,.51-.67,2.6,2.6,0,0,1,.89-.48,4.1,4.1,0,0,1,1.29-.18h.42l.45,0,.46.08a2.59,2.59,0,0,1,.42.09v.93a7.21,7.21,0,0,0-.9-.19,5.27,5.27,0,0,0-.87-.07,2.3,2.3,0,0,0-1.32.3.93.93,0,0,0-.42.8.79.79,0,0,0,.17.53,1.47,1.47,0,0,0,.45.4,3.47,3.47,0,0,0,.64.32l.74.3c.25.1.49.21.73.33a3.33,3.33,0,0,1,.65.43,2,2,0,0,1,.45.59A1.62,1.62,0,0,1,316,76.41Z" fill="#3c3c41"/>
      <path d="M319,71.7h-1.77v-.88h4.59v.88H320v5.89h1.77v.89h-4.59v-.89H319Z" fill="#3c3c41"/>
      <path d="M328.57,71.71H326.3v6.77h-1.05V71.71H323v-.89h5.59Z" fill="#3c3c41"/>
      <path d="M332.6,78.48l0-.79a3.29,3.29,0,0,1-1,.69,2.65,2.65,0,0,1-1,.21,2.68,2.68,0,0,1-.86-.13,1.64,1.64,0,0,1-.59-.36,1.24,1.24,0,0,1-.34-.53,2,2,0,0,1-.11-.66,1.66,1.66,0,0,1,.66-1.39,3.22,3.22,0,0,1,1.95-.5h1.22v-.51a1.08,1.08,0,0,0-.34-.84,1.43,1.43,0,0,0-1-.31,4.6,4.6,0,0,0-1,.11,6.39,6.39,0,0,0-1,.32v-.92l.43-.14a4.05,4.05,0,0,1,.5-.12c.18,0,.36-.06.56-.09a5.49,5.49,0,0,1,.58,0,3.6,3.6,0,0,1,1,.12,2,2,0,0,1,.72.36,1.49,1.49,0,0,1,.45.6,2.06,2.06,0,0,1,.16.86v4Zm-.11-2.68h-1.3a2.46,2.46,0,0,0-.65.08,1.16,1.16,0,0,0-.46.22.93.93,0,0,0-.26.33,1.25,1.25,0,0,0-.08.45,1.13,1.13,0,0,0,.05.32.81.81,0,0,0,.17.28.86.86,0,0,0,.31.19,1.42,1.42,0,0,0,.45.07,1.83,1.83,0,0,0,.81-.22,4.21,4.21,0,0,0,1-.67Z" fill="#3c3c41"/>
      <path d="M335.5,72.6h.93l0,1.08a3.8,3.8,0,0,1,1-.91,2.18,2.18,0,0,1,1-.28,1.69,1.69,0,0,1,1.39.59,2.7,2.7,0,0,1,.44,1.76h-1a1.88,1.88,0,0,0-.22-1.12.82.82,0,0,0-.71-.35,1.54,1.54,0,0,0-.42.07,1.66,1.66,0,0,0-.42.24,3.35,3.35,0,0,0-.47.41c-.16.17-.34.37-.53.61v3.78h-1Z" fill="#3c3c41"/>
      <path d="M346,73.43a1.59,1.59,0,0,1,.26.48,1.87,1.87,0,0,1,.09.59,2.05,2.05,0,0,1-.17.83,1.9,1.9,0,0,1-.47.65,2.18,2.18,0,0,1-.73.42,2.75,2.75,0,0,1-.93.15,3,3,0,0,1-.69-.08,1.55,1.55,0,0,1-.51-.2,2.16,2.16,0,0,0-.19.31.73.73,0,0,0-.08.33.43.43,0,0,0,.22.37,1,1,0,0,0,.56.16l1.55.06a3,3,0,0,1,.81.11,2,2,0,0,1,.64.28,1.32,1.32,0,0,1,.41.47,1.29,1.29,0,0,1,.15.64,1.58,1.58,0,0,1-.17.74,1.68,1.68,0,0,1-.52.62,2.68,2.68,0,0,1-.9.42,4.53,4.53,0,0,1-1.3.16,6,6,0,0,1-1.21-.11,2.6,2.6,0,0,1-.82-.32,1.14,1.14,0,0,1-.47-.48,1.28,1.28,0,0,1-.15-.61,1.4,1.4,0,0,1,.2-.75,2.14,2.14,0,0,1,.62-.62,1.06,1.06,0,0,1-.27-.18,1.3,1.3,0,0,1-.18-.23,1.09,1.09,0,0,1-.11-.27,1.24,1.24,0,0,1,0-.27,1.38,1.38,0,0,1,.18-.7,4,4,0,0,1,.42-.6,2.14,2.14,0,0,1-.19-.26,1.51,1.51,0,0,1-.15-.28,1.68,1.68,0,0,1-.09-.32,1.64,1.64,0,0,1,0-.4,2.05,2.05,0,0,1,.17-.83,1.9,1.9,0,0,1,.47-.65,2.09,2.09,0,0,1,.73-.42,2.77,2.77,0,0,1,.94-.15,2.73,2.73,0,0,1,.41,0,2.29,2.29,0,0,1,.35.08H347v.83Zm-3.54,5.9a.64.64,0,0,0,.44.61,3.22,3.22,0,0,0,1.21.19,3.12,3.12,0,0,0,.81-.09,2,2,0,0,0,.54-.23.81.81,0,0,0,.37-.71.57.57,0,0,0-.29-.53,2,2,0,0,0-.9-.19l-1.53-.06a2.39,2.39,0,0,0-.32.25,2,2,0,0,0-.2.25,1.39,1.39,0,0,0-.1.26A1,1,0,0,0,342.46,79.33Zm.32-4.81a1.46,1.46,0,0,0,.09.52,1.16,1.16,0,0,0,.26.39,1.31,1.31,0,0,0,.4.26,1.46,1.46,0,0,0,.52.09,1.33,1.33,0,0,0,.54-.1,1.15,1.15,0,0,0,.4-.28,1.2,1.2,0,0,0,.24-.41,1.34,1.34,0,0,0,0-1,1.07,1.07,0,0,0-.26-.39,1.2,1.2,0,0,0-.4-.26,1.44,1.44,0,0,0-.51-.09,1.2,1.2,0,0,0-.55.11,1.23,1.23,0,0,0-.39.27,1.28,1.28,0,0,0-.25.4A1.34,1.34,0,0,0,342.78,74.52Z" fill="#3c3c41"/>
      <path d="M353.12,75.23c0,.14,0,.26,0,.36a2.46,2.46,0,0,1,0,.28H349a1.8,1.8,0,0,0,.51,1.38,2,2,0,0,0,1.45.49l.52,0,.49-.06.46-.08a3.52,3.52,0,0,0,.41-.1v.84a7.08,7.08,0,0,1-.94.19,7.66,7.66,0,0,1-1.09.08,3.65,3.65,0,0,1-1.3-.21,2.24,2.24,0,0,1-.89-.59,2.47,2.47,0,0,1-.52-1,4.57,4.57,0,0,1-.16-1.28,4.09,4.09,0,0,1,.17-1.17,3,3,0,0,1,.53-1,2.37,2.37,0,0,1,.84-.66,2.44,2.44,0,0,1,1.13-.25,2.86,2.86,0,0,1,1.09.2,2.22,2.22,0,0,1,.8.54,2.51,2.51,0,0,1,.49.86A3.69,3.69,0,0,1,353.12,75.23Zm-1.06-.15a2.38,2.38,0,0,0-.08-.72,1.57,1.57,0,0,0-.29-.56,1.39,1.39,0,0,0-.49-.36,1.59,1.59,0,0,0-.68-.13,1.39,1.39,0,0,0-.61.13,1.26,1.26,0,0,0-.47.36,1.93,1.93,0,0,0-.33.56,2.71,2.71,0,0,0-.15.72Z" fill="#3c3c41"/>
      <path d="M359.44,78.4a4.21,4.21,0,0,1-.71.12,6.28,6.28,0,0,1-.75,0,2.33,2.33,0,0,1-1.65-.5,2,2,0,0,1-.55-1.54V73.45h-1.65V72.6h1.65V71l1-.26V72.6h2.64v.85H356.8v3a1.23,1.23,0,0,0,.34,1,1.38,1.38,0,0,0,1,.31,4.7,4.7,0,0,0,.62,0,6.5,6.5,0,0,0,.69-.14Z" fill="#3c3c41"/>
      <path d="M362.62,76.63a1,1,0,0,1,.38.08,1,1,0,0,1,.31.21,1,1,0,0,1,.21.32.92.92,0,0,1,.07.38.9.9,0,0,1-.07.37,1,1,0,0,1-.52.52,1,1,0,0,1-.38.08,1,1,0,0,1-.38-.08,1,1,0,0,1-.31-.21,1.13,1.13,0,0,1-.21-.31.9.9,0,0,1-.07-.37.92.92,0,0,1,.07-.38,1.18,1.18,0,0,1,.21-.32,1,1,0,0,1,.31-.21A1,1,0,0,1,362.62,76.63Z" fill="#3c3c41"/>
      <path d="M371,75.43a4,4,0,0,1-.21,1.37,2.68,2.68,0,0,1-.61,1,2.44,2.44,0,0,1-.92.58,3.25,3.25,0,0,1-1.14.19,5.25,5.25,0,0,1-.56,0,3.89,3.89,0,0,1-.56-.1v2.46h-1V72.6h.91l.06,1a2.6,2.6,0,0,1,.94-.84,2.32,2.32,0,0,1,1.08-.25,1.79,1.79,0,0,1,.88.21,1.83,1.83,0,0,1,.64.6,2.87,2.87,0,0,1,.39.92A5.64,5.64,0,0,1,371,75.43Zm-1,0a4.5,4.5,0,0,0-.07-.85,2,2,0,0,0-.21-.66,1.21,1.21,0,0,0-.37-.43.94.94,0,0,0-.55-.16,1.32,1.32,0,0,0-.39.06,1.77,1.77,0,0,0-.41.21,3,3,0,0,0-.46.38,6.88,6.88,0,0,0-.5.59v2.85a3.4,3.4,0,0,0,.59.19,3.23,3.23,0,0,0,.61.06,1.59,1.59,0,0,0,1.29-.55A2.56,2.56,0,0,0,370,75.48Z" fill="#3c3c41"/>
      <path d="M377,76.88a1.38,1.38,0,0,1-.11.55,1.44,1.44,0,0,1-.28.44,1.72,1.72,0,0,1-.43.32,2.94,2.94,0,0,1-.51.23,3.48,3.48,0,0,1-.56.12,3.64,3.64,0,0,1-.56,0,9.23,9.23,0,0,1-1.1-.06,6.48,6.48,0,0,1-1-.17v-.93a9.29,9.29,0,0,0,1,.22,7,7,0,0,0,1,.07,2.29,2.29,0,0,0,1.08-.19.63.63,0,0,0,.35-.57.68.68,0,0,0-.05-.29.85.85,0,0,0-.2-.24,2.15,2.15,0,0,0-.46-.23,7.77,7.77,0,0,0-.84-.29,4.81,4.81,0,0,1-.73-.26,2.44,2.44,0,0,1-.59-.36,1.37,1.37,0,0,1-.38-.48,1.33,1.33,0,0,1-.14-.65,1.44,1.44,0,0,1,.11-.54,1.61,1.61,0,0,1,.39-.54,2.09,2.09,0,0,1,.74-.42,3.64,3.64,0,0,1,1.18-.17,7.05,7.05,0,0,1,.76,0c.28,0,.58.07.88.13v.91a6.55,6.55,0,0,0-.91-.17,5.6,5.6,0,0,0-.75-.06,3,3,0,0,0-.64.06,1.36,1.36,0,0,0-.42.16.65.65,0,0,0-.23.24.6.6,0,0,0-.07.3.64.64,0,0,0,.06.28.67.67,0,0,0,.23.25,2.41,2.41,0,0,0,.46.24,7.83,7.83,0,0,0,.78.26,7.73,7.73,0,0,1,.88.32,2.43,2.43,0,0,1,.58.38,1.1,1.1,0,0,1,.32.46A1.55,1.55,0,0,1,377,76.88Z" fill="#3c3c41"/>
      <path d="M383.33,78.48h-4.81v-1h2V71.94l-1.83,1-.38-.87,2.44-1.28h.9v6.74h1.71Z" fill="#3c3c41"/>
    </g>
  </g>
</svg>
