<svg xmlns="http://www.w3.org/2000/svg" xmlns:xlink="http://www.w3.org/1999/xlink" viewBox="0 0 380 45">
  <defs>
    <linearGradient id="linear-gradient" x1="295" x2="295" y2="45" gradientUnits="userSpaceOnUse">
      <stop offset="0" stop-color="#5ea0ef"/>
      <stop offset="0.18" stop-color="#559cec"/>
      <stop offset="0.47" stop-color="#3c91e5"/>
      <stop offset="0.84" stop-color="#1380da"/>
      <stop offset="1" stop-color="#0078d4"/>
    </linearGradient>
    <linearGradient id="linear-gradient-2" x1="85" x2="85" y2="45" gradientUnits="userSpaceOnUse">
      <stop offset="0" stop-color="#e6e6e6"/>
      <stop offset="0.18" stop-color="#e6e6e6"/>
      <stop offset="0.47" stop-color="#b3b3b3"/>
      <stop offset="0.84" stop-color="#b3b3b3"/>
      <stop offset="1" stop-color="#a3a3a3"/>
    </linearGradient>
  </defs>
  <g id="Shapes">
    <rect width="380" height="45" fill="#fff"/>
    <g>
      <line x1="180" y1="22.5" x2="194.62" y2="22.5" fill="none" stroke="#3c3c41" stroke-miterlimit="10"/>
      <polygon points="193.52 26.24 200 22.5 193.52 18.76 193.52 26.24" fill="#3c3c41"/>
    </g>
    <g>
      <rect x="210" width="170" height="45" fill="#fff"/>
      <rect x="210" width="170" height="45" opacity="0.5" fill="url(#linear-gradient)"/>
    </g>
    <g>
      <rect width="170" height="45" fill="#fff"/>
      <rect width="170" height="45" opacity="0.5" fill="url(#linear-gradient-2)"/>
    </g>
  </g>
  <g id="Text">
    <g>
      <path d="M18.88,19.51a3.89,3.89,0,0,1-2.94-1.17,4.2,4.2,0,0,1-1.14-3.06A4.5,4.5,0,0,1,16,12.06,4,4,0,0,1,19,10.82,3.83,3.83,0,0,1,21.92,12,4.35,4.35,0,0,1,23,15.11a4.43,4.43,0,0,1-1.15,3.19A4,4,0,0,1,18.88,19.51ZM19,12.45a1.9,1.9,0,0,0-1.58.75,3.13,3.13,0,0,0-.59,2,3,3,0,0,0,.59,2,1.86,1.86,0,0,0,1.53.73,1.93,1.93,0,0,0,1.56-.71,3,3,0,0,0,.57-2,3.27,3.27,0,0,0-.56-2A1.83,1.83,0,0,0,19,12.45Z" fill="#1e1e1e"/>
      <path d="M26.17,18.67h0v.7H24.3V10.49h1.85v3.78h0a2.2,2.2,0,0,1,1.95-1,2.15,2.15,0,0,1,1.79.8,3.43,3.43,0,0,1,.63,2.18,3.73,3.73,0,0,1-.74,2.41,2.38,2.38,0,0,1-1.95.9A1.9,1.9,0,0,1,26.17,18.67Zm-.05-2.53v.61a1.44,1.44,0,0,0,.33,1,1.12,1.12,0,0,0,.86.38,1.15,1.15,0,0,0,1-.49,2.4,2.4,0,0,0,.35-1.39,1.9,1.9,0,0,0-.32-1.16,1.08,1.08,0,0,0-.91-.42,1.2,1.2,0,0,0-.93.42A1.57,1.57,0,0,0,26.12,16.14Z" fill="#1e1e1e"/>
      <path d="M35.37,19.3a2.78,2.78,0,0,1-1.23.21c-1.31,0-2-.67-2-2V14.73h-1V13.37h1v-1.3L34,11.55v1.82h1.34v1.36H34v2.43c0,.62.24.94.74.94a1.27,1.27,0,0,0,.6-.17Z" fill="#1e1e1e"/>
      <path d="M41.54,19.37H39.78v-.86h0a2,2,0,0,1-1.79,1A1.85,1.85,0,0,1,36.6,19a1.79,1.79,0,0,1-.5-1.32c0-1.17.69-1.84,2.07-2l1.63-.21c0-.66-.36-1-1.07-1a3.64,3.64,0,0,0-2,.64V13.73a4.62,4.62,0,0,1,1.06-.36A5.63,5.63,0,0,1,39,13.22a2.27,2.27,0,0,1,2.57,2.56ZM39.8,16.93v-.4l-1.09.14c-.61.07-.91.35-.91.81A.71.71,0,0,0,38,18a.89.89,0,0,0,.6.2,1.1,1.1,0,0,0,.85-.36A1.29,1.29,0,0,0,39.8,16.93Z" fill="#1e1e1e"/>
      <path d="M43.92,12.42a1.07,1.07,0,0,1-.77-.28.9.9,0,0,1-.3-.68.85.85,0,0,1,.3-.68,1.11,1.11,0,0,1,.77-.27,1.1,1.1,0,0,1,.77.27.85.85,0,0,1,.3.68.89.89,0,0,1-.3.69A1.1,1.1,0,0,1,43.92,12.42Zm.91,7H43v-6h1.85Z" fill="#1e1e1e"/>
      <path d="M52.17,19.37H50.32V16c0-.93-.33-1.39-1-1.39a1,1,0,0,0-.79.37,1.38,1.38,0,0,0-.31.94v3.42H46.38v-6h1.85v1h0a2.12,2.12,0,0,1,1.93-1.1c1.33,0,2,.83,2,2.47Z" fill="#1e1e1e"/>
      <path d="M60.57,19.3a2.78,2.78,0,0,1-1.23.21c-1.31,0-2-.67-2-2V14.73h-1V13.37h1v-1.3l1.85-.52v1.82h1.34v1.36H59.23v2.43c0,.62.24.94.74.94a1.27,1.27,0,0,0,.6-.17Z" fill="#1e1e1e"/>
      <path d="M67.5,19.37H65.65V16q0-1.32-1-1.32a1,1,0,0,0-.8.37,1.43,1.43,0,0,0-.3.94v3.42H61.74V10.49h1.85v3.77h0a2.12,2.12,0,0,1,1.85-1q2,0,2,2.46Z" fill="#1e1e1e"/>
      <path d="M74.38,16.9H70.47c.06.87.61,1.3,1.64,1.3a3.15,3.15,0,0,0,1.74-.47v1.34a4.51,4.51,0,0,1-2.16.44,3,3,0,0,1-2.25-.8,3,3,0,0,1-.81-2.25,3.23,3.23,0,0,1,.87-2.37,2.9,2.9,0,0,1,2.13-.87,2.6,2.6,0,0,1,2,.78,3,3,0,0,1,.72,2.12Zm-1.71-1.14q0-1.29-1-1.29a1,1,0,0,0-.77.37,1.64,1.64,0,0,0-.39.92Z" fill="#1e1e1e"/>
      <path d="M83.79,19.37H82v-.86h0a2,2,0,0,1-1.79,1A1.85,1.85,0,0,1,78.85,19a1.79,1.79,0,0,1-.5-1.32c0-1.17.69-1.84,2.07-2l1.63-.21c0-.66-.36-1-1.07-1a3.64,3.64,0,0,0-2,.64V13.73A4.62,4.62,0,0,1,80,13.37a5.63,5.63,0,0,1,1.22-.15,2.27,2.27,0,0,1,2.57,2.56Zm-1.74-2.44v-.4L81,16.67c-.61.07-.91.35-.91.81a.71.71,0,0,0,.22.52.89.89,0,0,0,.6.2,1.1,1.1,0,0,0,.85-.36A1.29,1.29,0,0,0,82.05,16.93Z" fill="#1e1e1e"/>
      <path d="M91.15,19.37H89.3v-.83h0a2.08,2.08,0,0,1-1.86,1,2.27,2.27,0,0,1-1.81-.79,3.28,3.28,0,0,1-.69-2.22,3.54,3.54,0,0,1,.76-2.38,2.45,2.45,0,0,1,2-.9,1.7,1.7,0,0,1,1.62.83h0V10.49h1.85Zm-1.82-2.92V16A1.43,1.43,0,0,0,89,15a1.14,1.14,0,0,0-.89-.39,1.12,1.12,0,0,0-1,.48,2.26,2.26,0,0,0-.35,1.33,2,2,0,0,0,.34,1.22,1.18,1.18,0,0,0,1.84,0A1.88,1.88,0,0,0,89.33,16.45Z" fill="#1e1e1e"/>
      <path d="M98.6,19.37H96.75v-.83h0a2.07,2.07,0,0,1-1.86,1,2.27,2.27,0,0,1-1.81-.79,3.28,3.28,0,0,1-.68-2.22,3.59,3.59,0,0,1,.75-2.38,2.45,2.45,0,0,1,2-.9,1.7,1.7,0,0,1,1.62.83h0V10.49H98.6Zm-1.81-2.92V16a1.43,1.43,0,0,0-.34-1,1.2,1.2,0,0,0-1.85.09,2.26,2.26,0,0,0-.34,1.33,2,2,0,0,0,.33,1.22,1.12,1.12,0,0,0,.93.43,1.1,1.1,0,0,0,.91-.45A1.88,1.88,0,0,0,96.79,16.45Z" fill="#1e1e1e"/>
      <path d="M104,15a1.61,1.61,0,0,0-.78-.18,1.11,1.11,0,0,0-.94.44,1.88,1.88,0,0,0-.34,1.2v2.87h-1.85v-6H102v1.11h0a1.61,1.61,0,0,1,1.59-1.22,1.32,1.32,0,0,1,.45.07Z" fill="#1e1e1e"/>
      <path d="M110.37,16.9h-3.91c.06.87.61,1.3,1.64,1.3a3.15,3.15,0,0,0,1.74-.47v1.34a4.51,4.51,0,0,1-2.16.44,3,3,0,0,1-2.26-.8,3.08,3.08,0,0,1-.8-2.25,3.23,3.23,0,0,1,.87-2.37,2.9,2.9,0,0,1,2.13-.87,2.62,2.62,0,0,1,2,.78,3,3,0,0,1,.72,2.12Zm-1.72-1.14c0-.86-.34-1.29-1-1.29a1,1,0,0,0-.77.37,1.65,1.65,0,0,0-.4.92Z" fill="#1e1e1e"/>
      <path d="M111.23,19.21v-1.5a3.87,3.87,0,0,0,.91.41,3,3,0,0,0,.86.13,1.84,1.84,0,0,0,.77-.13.44.44,0,0,0,.29-.41.38.38,0,0,0-.13-.29,1.33,1.33,0,0,0-.33-.21,4.72,4.72,0,0,0-.45-.16c-.16,0-.31-.1-.46-.15a4.68,4.68,0,0,1-.63-.29,2.13,2.13,0,0,1-.46-.37,1.47,1.47,0,0,1-.28-.47,2,2,0,0,1-.09-.64,1.66,1.66,0,0,1,.22-.87,1.72,1.72,0,0,1,.58-.59,2.74,2.74,0,0,1,.84-.34,4.46,4.46,0,0,1,1-.11,5.52,5.52,0,0,1,.81.06,5.88,5.88,0,0,1,.81.18v1.43a3,3,0,0,0-.76-.31,3.55,3.55,0,0,0-.78-.1,2,2,0,0,0-.35,0,1.16,1.16,0,0,0-.28.1.43.43,0,0,0-.19.16A.32.32,0,0,0,113,15a.42.42,0,0,0,.1.28,1.06,1.06,0,0,0,.28.2,2,2,0,0,0,.37.15l.42.14a5.19,5.19,0,0,1,.67.28,1.94,1.94,0,0,1,.51.36,1.37,1.37,0,0,1,.33.48,1.8,1.8,0,0,1,.11.65,1.73,1.73,0,0,1-.23.91,1.75,1.75,0,0,1-.62.62,2.89,2.89,0,0,1-.88.35,5,5,0,0,1-1,.1A5.4,5.4,0,0,1,111.23,19.21Z" fill="#1e1e1e"/>
      <path d="M116.65,19.21v-1.5a3.87,3.87,0,0,0,.91.41,3,3,0,0,0,.86.13,1.84,1.84,0,0,0,.77-.13.44.44,0,0,0,.29-.41.38.38,0,0,0-.13-.29,1.33,1.33,0,0,0-.33-.21,4.72,4.72,0,0,0-.45-.16c-.16,0-.31-.1-.46-.15a4.68,4.68,0,0,1-.63-.29,2.13,2.13,0,0,1-.46-.37,1.47,1.47,0,0,1-.28-.47,2,2,0,0,1-.09-.64,1.66,1.66,0,0,1,.22-.87,1.72,1.72,0,0,1,.58-.59,2.74,2.74,0,0,1,.84-.34,4.46,4.46,0,0,1,1-.11,5.52,5.52,0,0,1,.81.06,5.88,5.88,0,0,1,.81.18v1.43a3,3,0,0,0-.76-.31,3.55,3.55,0,0,0-.78-.1,2,2,0,0,0-.35,0,1.16,1.16,0,0,0-.28.1.43.43,0,0,0-.19.16.32.32,0,0,0-.07.22.42.42,0,0,0,.1.28,1.06,1.06,0,0,0,.28.2,2,2,0,0,0,.37.15l.42.14a5.19,5.19,0,0,1,.67.28,1.94,1.94,0,0,1,.51.36,1.37,1.37,0,0,1,.33.48,1.8,1.8,0,0,1,.11.65,1.73,1.73,0,0,1-.23.91,1.75,1.75,0,0,1-.62.62,2.89,2.89,0,0,1-.88.35,5,5,0,0,1-1,.1A5.4,5.4,0,0,1,116.65,19.21Z" fill="#1e1e1e"/>
      <path d="M127.5,18.67h0v.7h-1.85V10.49h1.85v3.78h0a2.2,2.2,0,0,1,1.95-1,2.15,2.15,0,0,1,1.79.8,3.43,3.43,0,0,1,.63,2.18,3.78,3.78,0,0,1-.73,2.41,2.4,2.4,0,0,1-2,.9A1.9,1.9,0,0,1,127.5,18.67Zm0-2.53v.61a1.44,1.44,0,0,0,.33,1,1.12,1.12,0,0,0,.86.38,1.15,1.15,0,0,0,1-.49,2.4,2.4,0,0,0,.35-1.39,1.9,1.9,0,0,0-.32-1.16,1.08,1.08,0,0,0-.91-.42,1.16,1.16,0,0,0-.92.42A1.52,1.52,0,0,0,127.45,16.14Z" fill="#1e1e1e"/>
      <path d="M135,19.37H133.1V10.49H135Z" fill="#1e1e1e"/>
      <path d="M139.37,19.51a3.23,3.23,0,0,1-2.36-.84,3.05,3.05,0,0,1-.86-2.28,3.07,3.07,0,0,1,.89-2.33,3.38,3.38,0,0,1,2.41-.84,3.2,3.2,0,0,1,2.35.84,3,3,0,0,1,.85,2.23,3.2,3.2,0,0,1-.88,2.36A3.24,3.24,0,0,1,139.37,19.51Zm0-4.87a1.23,1.23,0,0,0-1,.45,2,2,0,0,0-.36,1.28c0,1.15.46,1.73,1.39,1.73s1.33-.6,1.33-1.78S140.31,14.64,139.42,14.64Z" fill="#1e1e1e"/>
      <path d="M148.39,19.15a3.66,3.66,0,0,1-1.81.36,3,3,0,0,1-2.23-.83,2.91,2.91,0,0,1-.86-2.17,3.19,3.19,0,0,1,.92-2.41,3.42,3.42,0,0,1,2.45-.88,3.19,3.19,0,0,1,1.53.28v1.57a2.07,2.07,0,0,0-1.29-.43,1.67,1.67,0,0,0-1.26.47,1.72,1.72,0,0,0-.47,1.28,1.69,1.69,0,0,0,.45,1.25,1.63,1.63,0,0,0,1.22.46,2.43,2.43,0,0,0,1.35-.44Z" fill="#1e1e1e"/>
      <path d="M155.72,19.37H153.5l-1.92-3h0v3H149.7V10.49h1.86v5.65h0l1.79-2.77h2.19l-2.15,2.82Z" fill="#1e1e1e"/>
      <path d="M35.58,26.3a2,2,0,0,0-.69-.14c-.59,0-.89.32-.89,1v.64h1.37v1.36H34v4.64H32.15V29.13h-1V27.77h1V27a2.18,2.18,0,0,1,.67-1.65,2.55,2.55,0,0,1,1.82-.63,3.16,3.16,0,0,1,.94.12Z" fill="#1e1e1e"/>
      <path d="M40.16,29.44a1.61,1.61,0,0,0-.78-.18,1.1,1.1,0,0,0-.94.44,1.88,1.88,0,0,0-.34,1.2v2.87H36.25v-6H38.1v1.11h0a1.6,1.6,0,0,1,1.58-1.22,1.35,1.35,0,0,1,.46.07Z" fill="#1e1e1e"/>
      <path d="M44,33.91a3.24,3.24,0,0,1-2.36-.84,3,3,0,0,1-.85-2.28,3,3,0,0,1,.89-2.33,3.34,3.34,0,0,1,2.4-.84,3.2,3.2,0,0,1,2.35.84,3,3,0,0,1,.85,2.23,3.16,3.16,0,0,1-.88,2.36A3.24,3.24,0,0,1,44,33.91ZM44,29a1.23,1.23,0,0,0-1,.45,2,2,0,0,0-.36,1.28c0,1.15.46,1.73,1.39,1.73s1.33-.6,1.33-1.78S44.9,29,44,29Z" fill="#1e1e1e"/>
      <path d="M58,33.77H56.11V30.35c0-.88-.32-1.31-1-1.31a.88.88,0,0,0-.74.39,1.63,1.63,0,0,0-.29,1v3.36H52.27V30.31c0-.85-.32-1.27-1-1.27a.89.89,0,0,0-.75.37,1.65,1.65,0,0,0-.29,1v3.34H48.43v-6h1.85v.94h0a2.17,2.17,0,0,1,.8-.79,2.22,2.22,0,0,1,1.13-.3A1.72,1.72,0,0,1,54,28.74a2.22,2.22,0,0,1,2-1.12c1.31,0,2,.81,2,2.42Z" fill="#1e1e1e"/>
      <path d="M68.45,27.77,66,34.25c-.59,1.56-1.47,2.34-2.65,2.34a3.18,3.18,0,0,1-1.11-.16V35a1.63,1.63,0,0,0,.81.21,1,1,0,0,0,1-.67l.32-.74-2.44-6h2l1.12,3.65a3.89,3.89,0,0,1,.16.8h0a5.22,5.22,0,0,1,.19-.79l1.13-3.66Z" fill="#1e1e1e"/>
      <path d="M71.9,33.91a3.23,3.23,0,0,1-2.36-.84,3,3,0,0,1-.86-2.28,3.07,3.07,0,0,1,.89-2.33A3.37,3.37,0,0,1,72,27.62a3.19,3.19,0,0,1,2.34.84,3,3,0,0,1,.85,2.23,3.16,3.16,0,0,1-.88,2.36A3.23,3.23,0,0,1,71.9,33.91Zm0-4.87a1.24,1.24,0,0,0-1,.45,2,2,0,0,0-.36,1.28c0,1.15.46,1.73,1.39,1.73s1.33-.6,1.33-1.78S72.84,29,71.94,29Z" fill="#1e1e1e"/>
      <path d="M82.07,33.77H80.22v-.92h0a2.09,2.09,0,0,1-1.83,1.06c-1.39,0-2.09-.84-2.09-2.52V27.77h1.85v3.45c0,.85.33,1.28,1,1.28a1,1,0,0,0,.8-.35,1.41,1.41,0,0,0,.3-.95V27.77h1.85Z" fill="#1e1e1e"/>
      <path d="M87.51,29.44a1.66,1.66,0,0,0-.78-.18,1.11,1.11,0,0,0-1,.44,1.94,1.94,0,0,0-.34,1.2v2.87H83.59v-6h1.85v1.11h0a1.6,1.6,0,0,1,1.58-1.22,1.39,1.39,0,0,1,.46.07Z" fill="#1e1e1e"/>
      <path d="M93.55,33.07h0v3.46H91.68V27.77h1.85v.9h0a2.36,2.36,0,0,1,3.73-.25,3.37,3.37,0,0,1,.64,2.18A3.73,3.73,0,0,1,97.18,33a2.43,2.43,0,0,1-2,.9A1.88,1.88,0,0,1,93.55,33.07Zm0-2.46v.48a1.52,1.52,0,0,0,.33,1,1,1,0,0,0,.86.4,1.15,1.15,0,0,0,1-.49A2.4,2.4,0,0,0,96,30.62c0-1.05-.41-1.58-1.23-1.58a1.15,1.15,0,0,0-.93.43A1.73,1.73,0,0,0,93.5,30.61Z" fill="#1e1e1e"/>
      <path d="M103.06,29.44a1.66,1.66,0,0,0-.78-.18,1.13,1.13,0,0,0-1,.44,1.94,1.94,0,0,0-.34,1.2v2.87H99.14v-6H101v1.11h0a1.6,1.6,0,0,1,1.58-1.22,1.39,1.39,0,0,1,.46.07Z" fill="#1e1e1e"/>
      <path d="M106.86,33.91a3.23,3.23,0,0,1-2.36-.84,3.05,3.05,0,0,1-.86-2.28,3.07,3.07,0,0,1,.89-2.33,3.38,3.38,0,0,1,2.41-.84,3.16,3.16,0,0,1,2.34.84,3,3,0,0,1,.85,2.23,3.19,3.19,0,0,1-.87,2.36A3.27,3.27,0,0,1,106.86,33.91Zm0-4.87a1.23,1.23,0,0,0-1,.45,2,2,0,0,0-.37,1.28c0,1.15.47,1.73,1.4,1.73s1.33-.6,1.33-1.78S107.8,29,106.91,29Z" fill="#1e1e1e"/>
      <path d="M116.89,27.77l-2.24,6h-2.1l-2.13-6h2l1,3.7a5.17,5.17,0,0,1,.21,1.06h0a6,6,0,0,1,.22-1L115,27.77Z" fill="#1e1e1e"/>
      <path d="M118.65,26.82a1.07,1.07,0,0,1-.77-.28.9.9,0,0,1-.3-.68.85.85,0,0,1,.3-.68,1.11,1.11,0,0,1,.77-.27,1.1,1.1,0,0,1,.77.27.85.85,0,0,1,.3.68.89.89,0,0,1-.3.69A1.1,1.1,0,0,1,118.65,26.82Zm.91,7h-1.85v-6h1.85Z" fill="#1e1e1e"/>
      <path d="M127,33.77h-1.85v-.83h0a2.07,2.07,0,0,1-1.86,1,2.27,2.27,0,0,1-1.81-.79,3.28,3.28,0,0,1-.69-2.22,3.59,3.59,0,0,1,.76-2.38,2.45,2.45,0,0,1,2-.9,1.7,1.7,0,0,1,1.62.83h0V24.88H127Zm-1.81-2.92V30.4a1.43,1.43,0,0,0-.34-1,1.2,1.2,0,0,0-1.85.09,2.26,2.26,0,0,0-.34,1.33,2,2,0,0,0,.33,1.22,1.12,1.12,0,0,0,.93.43,1.1,1.1,0,0,0,.91-.45A1.88,1.88,0,0,0,125.18,30.85Z" fill="#1e1e1e"/>
      <path d="M133.94,31.3H130c.06.87.61,1.3,1.64,1.3a3.19,3.19,0,0,0,1.75-.47v1.34a4.58,4.58,0,0,1-2.17.44,3,3,0,0,1-2.25-.8,3,3,0,0,1-.81-2.25,3.23,3.23,0,0,1,.87-2.37,2.9,2.9,0,0,1,2.13-.87,2.6,2.6,0,0,1,2,.78,3,3,0,0,1,.72,2.12Zm-1.71-1.14q0-1.29-1-1.29a1,1,0,0,0-.77.37,1.64,1.64,0,0,0-.39.92Z" fill="#1e1e1e"/>
      <path d="M139,29.44a1.59,1.59,0,0,0-.77-.18,1.11,1.11,0,0,0-.95.44,1.94,1.94,0,0,0-.34,1.2v2.87h-1.85v-6H137v1.11h0a1.6,1.6,0,0,1,1.58-1.22,1.28,1.28,0,0,1,.45.07Z" fill="#1e1e1e"/>
    </g>
    <g>
      <path d="M232.7,19.37h-2.06L230,17.5h-3l-.59,1.87h-2.05l3.06-8.4h2.24Zm-3.09-3.32-.91-2.83a4.38,4.38,0,0,1-.14-.75h0a3.16,3.16,0,0,1-.15.73l-.91,2.85Z" fill="#1e1e1e"/>
      <path d="M239.33,19.37h-1.85v-.83h0a2.08,2.08,0,0,1-1.86,1,2.27,2.27,0,0,1-1.81-.79,3.28,3.28,0,0,1-.69-2.22,3.54,3.54,0,0,1,.76-2.38,2.45,2.45,0,0,1,2-.9,1.7,1.7,0,0,1,1.62.83h0V10.49h1.85Zm-1.81-2.92V16a1.43,1.43,0,0,0-.34-1,1.14,1.14,0,0,0-.89-.39,1.12,1.12,0,0,0-1,.48,2.26,2.26,0,0,0-.35,1.33,2,2,0,0,0,.34,1.22,1.18,1.18,0,0,0,1.84,0A1.88,1.88,0,0,0,237.52,16.45Z" fill="#1e1e1e"/>
      <path d="M246.78,19.37h-1.85v-.83h0a2.07,2.07,0,0,1-1.86,1,2.27,2.27,0,0,1-1.81-.79,3.28,3.28,0,0,1-.68-2.22,3.59,3.59,0,0,1,.75-2.38,2.48,2.48,0,0,1,2-.9,1.69,1.69,0,0,1,1.62.83h0V10.49h1.85ZM245,16.45V16a1.43,1.43,0,0,0-.34-1,1.2,1.2,0,0,0-1.85.09,2.26,2.26,0,0,0-.34,1.33,2,2,0,0,0,.33,1.22,1.12,1.12,0,0,0,.93.43,1.1,1.1,0,0,0,.91-.45A1.88,1.88,0,0,0,245,16.45Z" fill="#1e1e1e"/>
      <path d="M255.28,19.3a2.82,2.82,0,0,1-1.24.21c-1.3,0-1.95-.67-1.95-2V14.73h-1V13.37h1v-1.3l1.84-.52v1.82h1.35v1.36h-1.35v2.43c0,.62.25.94.75.94a1.31,1.31,0,0,0,.6-.17Z" fill="#1e1e1e"/>
      <path d="M262.21,19.37h-1.85V16q0-1.32-1-1.32a1,1,0,0,0-.8.37,1.43,1.43,0,0,0-.3.94v3.42h-1.85V10.49h1.85v3.77h0a2.11,2.11,0,0,1,1.85-1q2,0,2,2.46Z" fill="#1e1e1e"/>
      <path d="M269.09,16.9h-3.91c.06.87.61,1.3,1.64,1.3a3.15,3.15,0,0,0,1.74-.47v1.34a4.51,4.51,0,0,1-2.16.44,3,3,0,0,1-2.26-.8,3.08,3.08,0,0,1-.8-2.25,3.23,3.23,0,0,1,.87-2.37,2.9,2.9,0,0,1,2.13-.87,2.62,2.62,0,0,1,2,.78,3,3,0,0,1,.72,2.12Zm-1.72-1.14c0-.86-.34-1.29-1-1.29a1,1,0,0,0-.77.37,1.65,1.65,0,0,0-.4.92Z" fill="#1e1e1e"/>
      <path d="M278.49,19.37h-1.75v-.86h0a2,2,0,0,1-1.79,1,1.85,1.85,0,0,1-1.37-.49,1.75,1.75,0,0,1-.5-1.32c0-1.17.69-1.84,2.07-2l1.62-.21c0-.66-.35-1-1.06-1a3.59,3.59,0,0,0-2,.64V13.73a4.62,4.62,0,0,1,1.06-.36,5.56,5.56,0,0,1,1.22-.15,2.26,2.26,0,0,1,2.56,2.56Zm-1.74-2.44v-.4l-1.09.14c-.6.07-.9.35-.9.81A.67.67,0,0,0,275,18a.89.89,0,0,0,.6.2,1.11,1.11,0,0,0,.85-.36A1.33,1.33,0,0,0,276.75,16.93Z" fill="#1e1e1e"/>
      <path d="M285.86,19.37H284v-.83h0a2.06,2.06,0,0,1-1.85,1,2.26,2.26,0,0,1-1.81-.79,3.28,3.28,0,0,1-.69-2.22,3.54,3.54,0,0,1,.76-2.38,2.45,2.45,0,0,1,2-.9,1.68,1.68,0,0,1,1.61.83h0V10.49h1.85ZM284,16.45V16a1.38,1.38,0,0,0-.34-1,1.1,1.1,0,0,0-.88-.39,1.12,1.12,0,0,0-1,.48,2.26,2.26,0,0,0-.35,1.33,1.91,1.91,0,0,0,.34,1.22,1.18,1.18,0,0,0,1.84,0A1.94,1.94,0,0,0,284,16.45Z" fill="#1e1e1e"/>
      <path d="M293.31,19.37h-1.85v-.83h0a2.08,2.08,0,0,1-1.86,1,2.27,2.27,0,0,1-1.81-.79,3.28,3.28,0,0,1-.69-2.22,3.54,3.54,0,0,1,.76-2.38,2.45,2.45,0,0,1,2-.9,1.7,1.7,0,0,1,1.62.83h0V10.49h1.85Zm-1.82-2.92V16a1.38,1.38,0,0,0-.34-1,1.1,1.1,0,0,0-.88-.39,1.12,1.12,0,0,0-1,.48,2.26,2.26,0,0,0-.35,1.33,1.91,1.91,0,0,0,.34,1.22,1.18,1.18,0,0,0,1.84,0A1.88,1.88,0,0,0,291.49,16.45Z" fill="#1e1e1e"/>
      <path d="M298.75,15a1.61,1.61,0,0,0-.78-.18,1.1,1.1,0,0,0-.94.44,1.88,1.88,0,0,0-.34,1.2v2.87h-1.85v-6h1.85v1.11h0a1.6,1.6,0,0,1,1.58-1.22,1.35,1.35,0,0,1,.46.07Z" fill="#1e1e1e"/>
      <path d="M305.08,16.9h-3.92c.07.87.61,1.3,1.65,1.3a3.15,3.15,0,0,0,1.74-.47v1.34a4.53,4.53,0,0,1-2.16.44,3,3,0,0,1-2.26-.8,3.08,3.08,0,0,1-.8-2.25,3.23,3.23,0,0,1,.87-2.37,2.88,2.88,0,0,1,2.13-.87,2.63,2.63,0,0,1,2,.78,3,3,0,0,1,.72,2.12Zm-1.72-1.14c0-.86-.35-1.29-1-1.29a1,1,0,0,0-.77.37,1.65,1.65,0,0,0-.4.92Z" fill="#1e1e1e"/>
      <path d="M305.93,19.21v-1.5a4.27,4.27,0,0,0,.91.41,3,3,0,0,0,.86.13,1.86,1.86,0,0,0,.78-.13.43.43,0,0,0,.28-.41.35.35,0,0,0-.13-.29,1,1,0,0,0-.33-.21,3.72,3.72,0,0,0-.44-.16c-.16,0-.31-.1-.46-.15a4.68,4.68,0,0,1-.63-.29,1.91,1.91,0,0,1-.46-.37,1.31,1.31,0,0,1-.28-.47,2,2,0,0,1-.1-.64,1.63,1.63,0,0,1,.81-1.46,2.64,2.64,0,0,1,.84-.34,4.46,4.46,0,0,1,1-.11,5.73,5.73,0,0,1,.81.06,5.88,5.88,0,0,1,.81.18v1.43a3,3,0,0,0-.76-.31,3.64,3.64,0,0,0-.79-.1,1.87,1.87,0,0,0-.34,0,1,1,0,0,0-.28.1.53.53,0,0,0-.2.16.38.38,0,0,0-.07.22.43.43,0,0,0,.11.28,1.06,1.06,0,0,0,.28.2,1.79,1.79,0,0,0,.37.15l.42.14a5,5,0,0,1,.66.28,2.18,2.18,0,0,1,.52.36,1.23,1.23,0,0,1,.32.48,1.6,1.6,0,0,1,.12.65,1.73,1.73,0,0,1-.23.91,1.84,1.84,0,0,1-.62.62,2.89,2.89,0,0,1-.88.35,5.1,5.1,0,0,1-1,.1A5.5,5.5,0,0,1,305.93,19.21Z" fill="#1e1e1e"/>
      <path d="M311.35,19.21v-1.5a4.27,4.27,0,0,0,.91.41,3,3,0,0,0,.86.13,1.86,1.86,0,0,0,.78-.13.43.43,0,0,0,.28-.41.35.35,0,0,0-.13-.29,1,1,0,0,0-.33-.21,3.72,3.72,0,0,0-.44-.16c-.16,0-.31-.1-.46-.15a4.68,4.68,0,0,1-.63-.29,1.91,1.91,0,0,1-.46-.37,1.31,1.31,0,0,1-.28-.47,1.71,1.71,0,0,1,.71-2.1,2.64,2.64,0,0,1,.84-.34,4.46,4.46,0,0,1,1-.11,5.73,5.73,0,0,1,.81.06,5.88,5.88,0,0,1,.81.18v1.43a3,3,0,0,0-.76-.31,3.64,3.64,0,0,0-.79-.1,1.87,1.87,0,0,0-.34,0,1,1,0,0,0-.28.1.53.53,0,0,0-.2.16.38.38,0,0,0-.07.22.43.43,0,0,0,.11.28,1.18,1.18,0,0,0,.27.2,2.15,2.15,0,0,0,.38.15l.42.14A5,5,0,0,1,315,16a2.18,2.18,0,0,1,.52.36,1.23,1.23,0,0,1,.32.48,1.6,1.6,0,0,1,.12.65,1.73,1.73,0,0,1-.23.91,1.84,1.84,0,0,1-.62.62,2.89,2.89,0,0,1-.88.35,5.1,5.1,0,0,1-1,.1A5.5,5.5,0,0,1,311.35,19.21Z" fill="#1e1e1e"/>
      <path d="M322.21,18.67h0v.7h-1.85V10.49h1.85v3.78h0a2.2,2.2,0,0,1,2-1A2.15,2.15,0,0,1,326,14a3.43,3.43,0,0,1,.63,2.18,3.73,3.73,0,0,1-.74,2.41,2.38,2.38,0,0,1-1.95.9A1.9,1.9,0,0,1,322.21,18.67Zm0-2.53v.61a1.44,1.44,0,0,0,.33,1,1.1,1.1,0,0,0,.86.38,1.15,1.15,0,0,0,1-.49,2.4,2.4,0,0,0,.35-1.39,1.9,1.9,0,0,0-.32-1.16,1.09,1.09,0,0,0-.91-.42,1.2,1.2,0,0,0-.93.42A1.57,1.57,0,0,0,322.16,16.14Z" fill="#1e1e1e"/>
      <path d="M329.66,19.37h-1.85V10.49h1.85Z" fill="#1e1e1e"/>
      <path d="M334.08,19.51a3.23,3.23,0,0,1-2.36-.84,3.05,3.05,0,0,1-.86-2.28,3.07,3.07,0,0,1,.89-2.33,3.38,3.38,0,0,1,2.41-.84,3.16,3.16,0,0,1,2.34.84,3,3,0,0,1,.85,2.23,3.19,3.19,0,0,1-.87,2.36A3.27,3.27,0,0,1,334.08,19.51Zm.05-4.87a1.23,1.23,0,0,0-1,.45,2,2,0,0,0-.37,1.28c0,1.15.47,1.73,1.4,1.73s1.33-.6,1.33-1.78S335,14.64,334.13,14.64Z" fill="#1e1e1e"/>
      <path d="M343.1,19.15a3.69,3.69,0,0,1-1.81.36,3.06,3.06,0,0,1-2.24-.83,2.9,2.9,0,0,1-.85-2.17,3.16,3.16,0,0,1,.92-2.41,3.4,3.4,0,0,1,2.45-.88,3.22,3.22,0,0,1,1.53.28v1.57a2.11,2.11,0,0,0-1.29-.43,1.61,1.61,0,0,0-1.73,1.75,1.73,1.73,0,0,0,.44,1.25,1.67,1.67,0,0,0,1.23.46,2.43,2.43,0,0,0,1.35-.44Z" fill="#1e1e1e"/>
      <path d="M350.42,19.37H348.2l-1.91-3h0v3h-1.85V10.49h1.85v5.65h0l1.78-2.77h2.2l-2.15,2.82Z" fill="#1e1e1e"/>
      <path d="M358.06,19.3a2.82,2.82,0,0,1-1.24.21c-1.3,0-1.95-.67-1.95-2V14.73h-1V13.37h1v-1.3l1.84-.52v1.82h1.35v1.36h-1.35v2.43c0,.62.25.94.75.94a1.31,1.31,0,0,0,.6-.17Z" fill="#1e1e1e"/>
      <path d="M362,19.51a3.24,3.24,0,0,1-2.36-.84,3,3,0,0,1-.85-2.28,3,3,0,0,1,.89-2.33,3.35,3.35,0,0,1,2.41-.84,3.19,3.19,0,0,1,2.34.84,3,3,0,0,1,.85,2.23,3.16,3.16,0,0,1-.88,2.36A3.24,3.24,0,0,1,362,19.51Zm.05-4.87a1.23,1.23,0,0,0-1,.45,2,2,0,0,0-.36,1.28c0,1.15.46,1.73,1.39,1.73s1.33-.6,1.33-1.78S362.89,14.64,362,14.64Z" fill="#1e1e1e"/>
      <path d="M256.37,33.77H254.3l-.59-1.87h-3l-.59,1.87h-2l3-8.4h2.25Zm-3.1-3.32-.9-2.83a3.59,3.59,0,0,1-.14-.75h0a3.14,3.14,0,0,1-.14.73l-.92,2.85Z" fill="#1e1e1e"/>
      <path d="M262.29,33.77h-5.38V33l3-3.87h-2.71V27.77h5.06v.91l-2.85,3.72h2.87Z" fill="#1e1e1e"/>
      <path d="M269.06,33.77h-1.85v-.92h0a2.07,2.07,0,0,1-1.83,1.06c-1.39,0-2.09-.84-2.09-2.52V27.77h1.85v3.45c0,.85.34,1.28,1,1.28a1,1,0,0,0,.79-.35,1.41,1.41,0,0,0,.3-.95V27.77h1.85Z" fill="#1e1e1e"/>
      <path d="M274.5,29.44a1.61,1.61,0,0,0-.78-.18,1.1,1.1,0,0,0-.94.44,1.88,1.88,0,0,0-.34,1.2v2.87h-1.85v-6h1.85v1.11h0A1.6,1.6,0,0,1,274,27.66a1.35,1.35,0,0,1,.46.07Z" fill="#1e1e1e"/>
      <path d="M280.83,31.3h-3.92c.07.87.61,1.3,1.65,1.3a3.15,3.15,0,0,0,1.74-.47v1.34a4.53,4.53,0,0,1-2.16.44,3,3,0,0,1-2.26-.8,3.08,3.08,0,0,1-.8-2.25,3.23,3.23,0,0,1,.87-2.37,2.88,2.88,0,0,1,2.13-.87,2.63,2.63,0,0,1,2,.78,3,3,0,0,1,.72,2.12Zm-1.72-1.14c0-.86-.35-1.29-1-1.29a1,1,0,0,0-.77.37,1.65,1.65,0,0,0-.4.92Z" fill="#1e1e1e"/>
      <path d="M285,33.45V31.57a3.45,3.45,0,0,0,1.11.64,3.64,3.64,0,0,0,1.21.22,2.79,2.79,0,0,0,.62-.07,1.32,1.32,0,0,0,.45-.18.61.61,0,0,0,.26-.27.63.63,0,0,0,.09-.33.68.68,0,0,0-.14-.44,1.47,1.47,0,0,0-.38-.36,3.87,3.87,0,0,0-.58-.32l-.72-.31a3.56,3.56,0,0,1-1.47-1,2.19,2.19,0,0,1-.48-1.43,2.36,2.36,0,0,1,.26-1.13,2.31,2.31,0,0,1,.72-.77,2.93,2.93,0,0,1,1-.45,5.2,5.2,0,0,1,1.27-.15,7.92,7.92,0,0,1,1.16.08,5.16,5.16,0,0,1,.94.25V27.3a4.17,4.17,0,0,0-.46-.26,4.56,4.56,0,0,0-.52-.18,3.21,3.21,0,0,0-.52-.11,3,3,0,0,0-.5,0,2.58,2.58,0,0,0-.58.06,1.56,1.56,0,0,0-.45.18.88.88,0,0,0-.28.26.62.62,0,0,0-.1.35.7.7,0,0,0,.11.38,1.38,1.38,0,0,0,.32.32,3.69,3.69,0,0,0,.5.29c.19.1.41.19.66.3a7.57,7.57,0,0,1,.9.44,3.18,3.18,0,0,1,.69.54,2.15,2.15,0,0,1,.44.68,2.5,2.5,0,0,1,.15.9,2.37,2.37,0,0,1-.26,1.18,2.15,2.15,0,0,1-.73.77,3.07,3.07,0,0,1-1.06.43,6.55,6.55,0,0,1-1.28.12,6.88,6.88,0,0,1-1.31-.11A4.36,4.36,0,0,1,285,33.45Z" fill="#1e1e1e"/>
      <path d="M295.41,33.7a2.78,2.78,0,0,1-1.23.21c-1.31,0-2-.67-2-2V29.13h-1V27.77h1v-1.3l1.84-.52v1.82h1.35v1.36h-1.35v2.43c0,.62.25.94.75.94a1.31,1.31,0,0,0,.6-.17Z" fill="#1e1e1e"/>
      <path d="M301.58,33.77h-1.76v-.86h0a2,2,0,0,1-1.79,1,1.85,1.85,0,0,1-1.37-.49,1.75,1.75,0,0,1-.5-1.32c0-1.17.69-1.84,2.07-2l1.62-.21c0-.66-.35-1-1.06-1a3.59,3.59,0,0,0-2,.64V28.13a4.62,4.62,0,0,1,1.06-.36,5.56,5.56,0,0,1,1.22-.15,2.27,2.27,0,0,1,2.57,2.56Zm-1.75-2.44v-.4l-1.08.14c-.61.07-.91.35-.91.81a.71.71,0,0,0,.22.52.89.89,0,0,0,.6.2,1.11,1.11,0,0,0,.85-.36A1.28,1.28,0,0,0,299.83,31.33Z" fill="#1e1e1e"/>
      <path d="M307.6,33.55a3.73,3.73,0,0,1-1.82.36,3.07,3.07,0,0,1-2.23-.83,2.91,2.91,0,0,1-.86-2.17,3.19,3.19,0,0,1,.92-2.41,3.42,3.42,0,0,1,2.45-.88,3.26,3.26,0,0,1,1.54.28v1.57a2.12,2.12,0,0,0-1.3-.43,1.67,1.67,0,0,0-1.26.47,1.72,1.72,0,0,0-.47,1.28A1.69,1.69,0,0,0,305,32a1.63,1.63,0,0,0,1.22.46,2.49,2.49,0,0,0,1.36-.44Z" fill="#1e1e1e"/>
      <path d="M314.92,33.77H312.7l-1.92-3h0v3h-1.85V24.88h1.85v5.66h0l1.79-2.77h2.19l-2.15,2.82Z" fill="#1e1e1e"/>
      <path d="M326.38,33.77h-1.9V30.35H321v3.42h-1.89v-8.4H321v3.35h3.48V25.37h1.9Z" fill="#1e1e1e"/>
      <path d="M333.79,33.77H332v-.92h0a2.09,2.09,0,0,1-1.84,1.06c-1.39,0-2.08-.84-2.08-2.52V27.77h1.84v3.45c0,.85.34,1.28,1,1.28a1,1,0,0,0,.8-.35,1.41,1.41,0,0,0,.3-.95V27.77h1.84Z" fill="#1e1e1e"/>
      <path d="M337.2,33.07h0v.7h-1.85V24.88h1.85v3.79h0a2.18,2.18,0,0,1,1.95-1.05,2.13,2.13,0,0,1,1.78.8,3.43,3.43,0,0,1,.63,2.18,3.72,3.72,0,0,1-.73,2.41,2.4,2.4,0,0,1-2,.9A1.87,1.87,0,0,1,337.2,33.07Zm-.06-2.53v.61a1.4,1.4,0,0,0,.34,1,1.08,1.08,0,0,0,.85.38,1.15,1.15,0,0,0,1-.49,2.32,2.32,0,0,0,.35-1.39,1.84,1.84,0,0,0-.32-1.16,1.06,1.06,0,0,0-.91-.42,1.16,1.16,0,0,0-.92.42A1.52,1.52,0,0,0,337.14,30.54Z" fill="#1e1e1e"/>
    </g>
  </g>
</svg>
