<svg xmlns="http://www.w3.org/2000/svg" xmlns:xlink="http://www.w3.org/1999/xlink" viewBox="0 0 415 185">
  <defs>
    <linearGradient id="linear-gradient" x1="18.94" y1="607.14" x2="18.94" y2="634" gradientTransform="matrix(1, 0, 0, -1, 0, 634)" gradientUnits="userSpaceOnUse">
      <stop offset="0" stop-color="#0078d4"/>
      <stop offset="1" stop-color="#5ea0ef"/>
    </linearGradient>
    <linearGradient id="linear-gradient-2" x1="24.08" y1="618.61" x2="24.08" y2="605.69" gradientTransform="matrix(1, 0, 0, -1, 0, 634)" gradientUnits="userSpaceOnUse">
      <stop offset="0" stop-color="#fff"/>
      <stop offset="1" stop-color="#f2f2f2"/>
    </linearGradient>
  </defs>
  <g id="Shapes">
    <rect width="415" height="185" fill="#fff"/>
    <g>
      <rect x="20" y="20" width="145" height="165" fill="#fff"/>
      <rect x="20" y="20" width="145" height="165" fill="#0078d4" opacity="0.25"/>
    </g>
    <g>
      <rect x="297.18" y="20" width="117.82" height="165" fill="#fff"/>
      <rect x="297.18" y="20" width="117.82" height="165" fill="#3c3c41" opacity="0.15"/>
    </g>
    <g>
      <rect x="300" y="20" width="112.18" height="50" fill="#fff"/>
      <rect x="300" y="20" width="112.18" height="50" fill="#3c3c41" opacity="0.25"/>
    </g>
    <g>
      <rect x="300" y="135" width="112.18" height="50" fill="#fff"/>
      <rect x="300" y="135" width="112.18" height="50" fill="#3c3c41" opacity="0.25"/>
    </g>
    <g>
      <rect x="300" y="77.5" width="112.18" height="50" fill="#fff"/>
      <rect x="300" y="77.5" width="112.18" height="50" fill="#3c3c41" opacity="0.25"/>
    </g>
    <g id="bbaf661a-4927-421b-af2a-366eca680343">
      <path d="M37.88,18.44a8.52,8.52,0,0,0-7.39-8.18A10.73,10.73,0,0,0,19.44,0,11,11,0,0,0,8.92,7.18,10.14,10.14,0,0,0,0,17a10.31,10.31,0,0,0,10.66,9.9c.32,0,.64,0,.95,0H28.88a1.41,1.41,0,0,0,.45-.07A8.62,8.62,0,0,0,37.88,18.44Z" fill="url(#linear-gradient)"/>
      <path d="M24.08,13.5c8.12,0,13.09,6,13.49,14.31a2.1,2.1,0,0,1-2,2.19H12.68a2.11,2.11,0,0,1-2.09-2.12V27.8C11,19.54,16,13.5,24.08,13.5Z" fill="#50e6ff"/>
      <path d="M12.68,28.6a.67.67,0,0,1-.5-.21.68.68,0,0,1-.2-.52c.39-7.89,5.83-13,12.1-13s11.72,5.08,12.1,13a.68.68,0,0,1-.2.52.67.67,0,0,1-.5.21Z" fill="url(#linear-gradient-2)"/>
      <path d="M30.62,19.25a9.72,9.72,0,0,0-5.85-2.49v4.55a5.44,5.44,0,0,1,2.72,1.16Z" fill="#9cebff"/>
      <path d="M17.54,19.25l3.13,3.21a5.52,5.52,0,0,1,2.71-1.15V16.76A9.72,9.72,0,0,0,17.54,19.25Z" fill="#50e6ff"/>
      <path d="M28.48,23.48a5.79,5.79,0,0,1,1.12,2.79H34a10.32,10.32,0,0,0-2.42-6Z" fill="#9cebff"/>
      <path d="M19.68,23.48l-3.13-3.22a10.45,10.45,0,0,0-2.42,6h4.42A5.67,5.67,0,0,1,19.68,23.48Z" fill="#32bedd"/>
      <path d="M32.22,22.48a.7.7,0,0,0-.9-.4l-6.53,2.6L25.3,26l6.52-2.6A.69.69,0,0,0,32.22,22.48Z" fill="#32bedd"/>
      <circle cx="24.08" cy="25.62" r="1.9" fill="#767676"/>
    </g>
    <g>
      <rect x="30.31" y="40.25" width="124.44" height="29.5" fill="#fff"/>
      <path d="M154.5,40.5v29H30.56v-29H154.5m.5-.5H30.06V70H155V40Z" fill="#9cebff"/>
      <path d="M155,40V70H30.06V40H155m.25-.25H29.81v30.5H155.25V39.75Z" fill="#3c3c41"/>
    </g>
    <g>
      <rect x="30.31" y="75.25" width="124.44" height="29.5" fill="#fff"/>
      <path d="M154.5,75.5v29H30.56v-29H154.5m.5-.5H30.06v30H155V75Z" fill="#9cebff"/>
      <path d="M155,75v30H30.06V75H155m.25-.25H29.81v30.5H155.25V74.75Z" fill="#3c3c41"/>
    </g>
    <g>
      <rect x="30.31" y="110.25" width="124.44" height="29.5" fill="#fff"/>
      <path d="M154.5,110.5v29H30.56v-29H154.5m.5-.5H30.06v30H155V110Z" fill="#50e6ff"/>
      <path d="M155,110v30H30.06V110H155m.25-.25H29.81v30.5H155.25v-30.5Z" fill="#3c3c41"/>
    </g>
    <g>
      <rect x="30.31" y="145.25" width="124.44" height="29.5" fill="#fff"/>
      <path d="M154.5,145.5v29H30.56v-29H154.5m.5-.5H30.06v30H155V145Z" fill="#32bedd"/>
      <path d="M155,145v30H30.06V145H155m.25-.25H29.81v30.5H155.25v-30.5Z" fill="#3c3c41"/>
    </g>
    <rect x="176.65" y="20" width="95" height="145" fill="#9cebff" opacity="0.3"/>
    <rect x="145" y="45" width="31.65" height="5" fill="#32bedd"/>
    <rect x="145" y="70" width="31.65" height="5" fill="#32bedd"/>
    <rect x="145" y="105" width="31.65" height="5" fill="#32bedd"/>
    <rect x="145" y="150" width="31.65" height="5" fill="#32bedd"/>
    <polygon points="291.02 104.25 285.39 101 285.39 105 271.65 105 271.65 110 285.39 110 285.39 114 291.02 110.75 296.65 107.5 291.02 104.25" fill="#32bedd"/>
  </g>
  <g id="Text">
    <g>
      <path d="M49.38,13H47.32l-.6-1.87h-3L43.14,13h-2l3.06-8.4h2.24ZM46.29,9.68l-.9-2.83a3,3,0,0,1-.14-.75h0a3.16,3.16,0,0,1-.15.73l-.91,2.85Z" fill="#231f20"/>
      <path d="M55,13H49.62v-.77l3-3.86H49.92V7H55v.91l-2.86,3.72H55Z" fill="#231f20"/>
      <path d="M61.7,13H59.85v-.91h0A2.1,2.1,0,0,1,58,13.15c-1.39,0-2.09-.85-2.09-2.53V7h1.85v3.46c0,.84.33,1.27,1,1.27a1,1,0,0,0,.79-.35,1.41,1.41,0,0,0,.3-1V7H61.7Z" fill="#231f20"/>
      <path d="M67.17,8.67a1.61,1.61,0,0,0-.78-.18,1.12,1.12,0,0,0-.94.44,1.92,1.92,0,0,0-.34,1.2V13H63.26V7h1.85V8.11h0a1.6,1.6,0,0,1,1.58-1.22,1.35,1.35,0,0,1,.46.07Z" fill="#231f20"/>
      <path d="M73.38,10.53H69.46c.06.87.61,1.3,1.65,1.3a3.23,3.23,0,0,0,1.74-.46V12.7a4.56,4.56,0,0,1-2.16.45,3,3,0,0,1-2.26-.81,3.08,3.08,0,0,1-.8-2.25,3.19,3.19,0,0,1,.87-2.36,2.84,2.84,0,0,1,2.13-.88,2.63,2.63,0,0,1,2,.78,3,3,0,0,1,.72,2.12ZM71.66,9.39c0-.86-.35-1.29-1-1.29a1,1,0,0,0-.77.37,1.68,1.68,0,0,0-.4.92Z" fill="#231f20"/>
      <path d="M87.54,13H85.67V8c0-.54,0-1.14.08-1.8h0a8.81,8.81,0,0,1-.27,1.12l-2,5.71H81.92l-2-5.65a9.65,9.65,0,0,1-.27-1.18H79.6c.05.83.07,1.56.07,2.18V13H78V4.6h2.77l1.72,5a8.77,8.77,0,0,1,.3,1.2h0a11.7,11.7,0,0,1,.34-1.21l1.71-5h2.7Z" fill="#231f20"/>
      <path d="M92.13,13.15a3.24,3.24,0,0,1-2.36-.84A3.07,3.07,0,0,1,88.92,10a3,3,0,0,1,.89-2.33,3.34,3.34,0,0,1,2.4-.84,3.2,3.2,0,0,1,2.35.84,3,3,0,0,1,.85,2.23,3.16,3.16,0,0,1-.88,2.36A3.24,3.24,0,0,1,92.13,13.15Zm.05-4.88a1.23,1.23,0,0,0-1,.45A2,2,0,0,0,90.8,10c0,1.15.46,1.73,1.39,1.73s1.33-.59,1.33-1.78S93.07,8.27,92.18,8.27Z" fill="#231f20"/>
      <path d="M102.4,13h-1.84V9.67c0-.93-.33-1.4-1-1.4a1,1,0,0,0-.79.37,1.4,1.4,0,0,0-.31.94V13H96.61V7h1.85V8h0a2.13,2.13,0,0,1,1.93-1.1c1.33,0,2,.83,2,2.48Z" fill="#231f20"/>
      <path d="M104.81,6.05a1.06,1.06,0,0,1-.77-.28.88.88,0,0,1-.3-.68.87.87,0,0,1,.3-.68,1.09,1.09,0,0,1,.77-.26,1.11,1.11,0,0,1,.77.26.89.89,0,0,1,.29.68.91.91,0,0,1-.29.69A1.11,1.11,0,0,1,104.81,6.05Zm.91,7h-1.85V7h1.85Z" fill="#231f20"/>
      <path d="M110.91,12.93a2.83,2.83,0,0,1-1.24.22c-1.31,0-2-.68-2-2V8.37h-1V7h1V5.71l1.85-.53V7h1.35V8.37h-1.35v2.42c0,.63.25.94.74.94a1.31,1.31,0,0,0,.61-.17Z" fill="#231f20"/>
      <path d="M114.76,13.15a3.23,3.23,0,0,1-2.36-.84,3.08,3.08,0,0,1-.86-2.29,3.07,3.07,0,0,1,.89-2.33,3.38,3.38,0,0,1,2.41-.84,3.2,3.2,0,0,1,2.35.84A3,3,0,0,1,118,9.92a3.2,3.2,0,0,1-.88,2.36A3.24,3.24,0,0,1,114.76,13.15Zm0-4.88a1.23,1.23,0,0,0-1,.45,2,2,0,0,0-.37,1.28c0,1.15.47,1.73,1.4,1.73s1.33-.59,1.33-1.78S115.7,8.27,114.81,8.27Z" fill="#231f20"/>
      <path d="M123.15,8.67a1.61,1.61,0,0,0-.78-.18,1.14,1.14,0,0,0-.94.44,1.92,1.92,0,0,0-.34,1.2V13h-1.85V7h1.85V8.11h0a1.61,1.61,0,0,1,1.58-1.22,1.35,1.35,0,0,1,.46.07Z" fill="#231f20"/>
    </g>
    <g>
      <path d="M67.54,59H66.45l-.89-2.36H62L61.16,59h-1.1l3.23-8.4h1Zm-2.3-3.24-1.32-3.58a3.38,3.38,0,0,1-.13-.56h0a3.23,3.23,0,0,1-.14.56l-1.31,3.58Z" fill="#1e1e1e"/>
      <path d="M69.63,58.13h0v3.63h-1V53h1v1h0a2.28,2.28,0,0,1,2.08-1.19,2.2,2.2,0,0,1,1.81.81,3.32,3.32,0,0,1,.65,2.15,3.74,3.74,0,0,1-.74,2.42,2.42,2.42,0,0,1-2,.9A2,2,0,0,1,69.63,58.13Zm0-2.42v.84a1.77,1.77,0,0,0,.48,1.26,1.59,1.59,0,0,0,1.23.52,1.6,1.6,0,0,0,1.37-.67,3,3,0,0,0,.49-1.85,2.41,2.41,0,0,0-.46-1.57,1.54,1.54,0,0,0-1.26-.57,1.69,1.69,0,0,0-1.34.58A2.15,2.15,0,0,0,69.61,55.71Z" fill="#1e1e1e"/>
      <path d="M76.69,58.13h0v3.63h-1V53h1v1h0a2.27,2.27,0,0,1,2.07-1.19,2.19,2.19,0,0,1,1.81.81,3.32,3.32,0,0,1,.65,2.15,3.73,3.73,0,0,1-.73,2.42,2.46,2.46,0,0,1-2,.9A2,2,0,0,1,76.69,58.13Zm0-2.42v.84a1.73,1.73,0,0,0,.49,1.26,1.71,1.71,0,0,0,2.59-.15,3,3,0,0,0,.5-1.85,2.41,2.41,0,0,0-.47-1.57,1.52,1.52,0,0,0-1.25-.57,1.7,1.7,0,0,0-1.35.58A2.15,2.15,0,0,0,76.66,55.71Z" fill="#1e1e1e"/>
      <path d="M83.72,59h-1V50.12h1Z" fill="#1e1e1e"/>
      <path d="M86.15,51.48a.62.62,0,0,1-.44-.18.59.59,0,0,1-.18-.44.61.61,0,0,1,.18-.45.62.62,0,0,1,.44-.18.61.61,0,0,1,.45.18.58.58,0,0,1,.19.45.56.56,0,0,1-.19.43A.58.58,0,0,1,86.15,51.48ZM86.62,59h-1V53h1Z" fill="#1e1e1e"/>
      <path d="M92.66,58.72a3.1,3.1,0,0,1-1.64.42A2.72,2.72,0,0,1,89,58.31a3,3,0,0,1-.79-2.17A3.3,3.3,0,0,1,89,53.76a3,3,0,0,1,2.27-.9,3.23,3.23,0,0,1,1.39.29v1a2.4,2.4,0,0,0-1.43-.47,1.93,1.93,0,0,0-1.51.66,2.5,2.5,0,0,0-.59,1.73,2.36,2.36,0,0,0,.56,1.66,1.89,1.89,0,0,0,1.48.61,2.39,2.39,0,0,0,1.48-.52Z" fill="#1e1e1e"/>
      <path d="M98.41,59h-1v-.94h0a2.2,2.2,0,0,1-3.25.61,1.64,1.64,0,0,1-.5-1.26c0-1.12.66-1.78,2-2l1.8-.25c0-1-.42-1.53-1.24-1.53a2.92,2.92,0,0,0-2,.74v-1a3.76,3.76,0,0,1,2-.56c1.41,0,2.12.75,2.12,2.24Zm-1-3-1.45.2a2.43,2.43,0,0,0-1,.34.93.93,0,0,0-.34.84.89.89,0,0,0,.31.71,1.2,1.2,0,0,0,.84.28,1.51,1.51,0,0,0,1.18-.5,1.8,1.8,0,0,0,.47-1.27Z" fill="#1e1e1e"/>
      <path d="M103,58.94a1.82,1.82,0,0,1-.9.19c-1,0-1.57-.59-1.57-1.76V53.82h-1V53h1V51.54l1-.32V53H103v.82h-1.51V57.2a1.45,1.45,0,0,0,.2.86.84.84,0,0,0,.68.26,1,1,0,0,0,.63-.2Z" fill="#1e1e1e"/>
      <path d="M104.78,51.48a.59.59,0,0,1-.44-.18.56.56,0,0,1-.19-.44.63.63,0,0,1,.63-.63.6.6,0,0,1,.44.18.58.58,0,0,1,.19.45.56.56,0,0,1-.19.43A.58.58,0,0,1,104.78,51.48Zm.46,7.52h-1V53h1Z" fill="#1e1e1e"/>
      <path d="M109.7,59.14a2.79,2.79,0,0,1-2.13-.84,3.1,3.1,0,0,1-.79-2.23,3.21,3.21,0,0,1,.83-2.36,3,3,0,0,1,2.23-.85,2.66,2.66,0,0,1,2.09.83,3.28,3.28,0,0,1,.76,2.29,3.21,3.21,0,0,1-.82,2.3A2.85,2.85,0,0,1,109.7,59.14Zm.07-5.47a1.84,1.84,0,0,0-1.47.63,2.59,2.59,0,0,0-.54,1.74,2.46,2.46,0,0,0,.55,1.68,1.85,1.85,0,0,0,1.46.61,1.75,1.75,0,0,0,1.43-.6,3.23,3.23,0,0,0,0-3.45A1.73,1.73,0,0,0,109.77,53.67Z" fill="#1e1e1e"/>
      <path d="M119.2,59h-1V55.58c0-1.28-.46-1.91-1.39-1.91a1.54,1.54,0,0,0-1.2.54,2,2,0,0,0-.47,1.37V59h-1V53h1v1h0a2.15,2.15,0,0,1,2-1.14,1.83,1.83,0,0,1,1.51.64,2.79,2.79,0,0,1,.52,1.83Z" fill="#1e1e1e"/>
      <path d="M120.65,58.78v-1a2.82,2.82,0,0,0,1.73.58q1.26,0,1.26-.84a.68.68,0,0,0-.11-.41,1,1,0,0,0-.29-.29,2.19,2.19,0,0,0-.43-.24l-.54-.21c-.26-.11-.5-.21-.7-.32a2.22,2.22,0,0,1-.5-.36,1.38,1.38,0,0,1-.31-.46,1.63,1.63,0,0,1-.1-.61,1.38,1.38,0,0,1,.19-.74,1.7,1.7,0,0,1,.52-.55,2.43,2.43,0,0,1,.73-.33,3.49,3.49,0,0,1,.86-.11,3.41,3.41,0,0,1,1.39.27v1a2.7,2.7,0,0,0-1.52-.43,1.88,1.88,0,0,0-.49.06,1.26,1.26,0,0,0-.37.17,1,1,0,0,0-.24.27.67.67,0,0,0-.09.34.75.75,0,0,0,.09.39,1,1,0,0,0,.25.29,2.11,2.11,0,0,0,.4.22l.53.22a7.07,7.07,0,0,1,.72.31,2.45,2.45,0,0,1,.53.36,1.37,1.37,0,0,1,.47,1.09,1.51,1.51,0,0,1-.2.78,1.58,1.58,0,0,1-.52.54,2.5,2.5,0,0,1-.76.33,3.71,3.71,0,0,1-.9.1A3.37,3.37,0,0,1,120.65,58.78Z" fill="#1e1e1e"/>
    </g>
    <g>
      <path d="M75.33,93.43a5.67,5.67,0,0,1-2.81.71A3.86,3.86,0,0,1,69.61,93a4.26,4.26,0,0,1-1.11-3.07,4.37,4.37,0,0,1,1.23-3.2,4.2,4.2,0,0,1,3.13-1.25,5.42,5.42,0,0,1,2.3.44V87a4.4,4.4,0,0,0-2.41-.64,3,3,0,0,0-2.32,1,3.57,3.57,0,0,0-.9,2.52,3.53,3.53,0,0,0,.84,2.5,2.94,2.94,0,0,0,2.27.92,3.43,3.43,0,0,0,1.71-.4V90.51H72.51v-.89h2.82Z" fill="#1e1e1e"/>
      <path d="M82,94H81v-1h0a2,2,0,0,1-1.85,1.09c-1.43,0-2.14-.85-2.14-2.55V88h1v3.43c0,1.27.48,1.9,1.45,1.9a1.46,1.46,0,0,0,1.16-.52A2,2,0,0,0,81,91.46V88h1Z" fill="#1e1e1e"/>
      <path d="M88.77,91.24H84.53a2.3,2.3,0,0,0,.54,1.55,1.87,1.87,0,0,0,1.42.54,2.91,2.91,0,0,0,1.86-.67v.91a3.5,3.5,0,0,1-2.09.57,2.53,2.53,0,0,1-2-.82,3.35,3.35,0,0,1-.72-2.3,3.28,3.28,0,0,1,.79-2.28,2.54,2.54,0,0,1,2-.88,2.24,2.24,0,0,1,1.82.76,3.18,3.18,0,0,1,.65,2.12Zm-1-.81a1.91,1.91,0,0,0-.4-1.3,1.36,1.36,0,0,0-1.1-.46,1.56,1.56,0,0,0-1.15.48,2.25,2.25,0,0,0-.59,1.28Z" fill="#1e1e1e"/>
      <path d="M89.86,93.78v-1a2.82,2.82,0,0,0,1.73.58q1.26,0,1.26-.84a.68.68,0,0,0-.11-.41,1,1,0,0,0-.29-.29,2.19,2.19,0,0,0-.43-.24l-.54-.21a6.76,6.76,0,0,1-.7-.32,2.22,2.22,0,0,1-.5-.36A1.38,1.38,0,0,1,90,90.2a1.63,1.63,0,0,1-.1-.61,1.38,1.38,0,0,1,.19-.74,1.7,1.7,0,0,1,.52-.55,2.43,2.43,0,0,1,.73-.33,3.49,3.49,0,0,1,.86-.11,3.41,3.41,0,0,1,1.39.27v1A2.7,2.7,0,0,0,92,88.67a1.88,1.88,0,0,0-.49.06,1.26,1.26,0,0,0-.37.17,1,1,0,0,0-.24.27.67.67,0,0,0-.09.34.75.75,0,0,0,.09.39,1,1,0,0,0,.25.29,2.11,2.11,0,0,0,.4.22l.53.22a6.85,6.85,0,0,1,.71.31,2.82,2.82,0,0,1,.54.36,1.37,1.37,0,0,1,.47,1.09,1.51,1.51,0,0,1-.2.78,1.68,1.68,0,0,1-.52.54,2.61,2.61,0,0,1-.76.33,3.76,3.76,0,0,1-.9.1A3.37,3.37,0,0,1,89.86,93.78Z" fill="#1e1e1e"/>
      <path d="M98.1,93.94a1.82,1.82,0,0,1-.9.19c-1,0-1.58-.59-1.58-1.76V88.82h-1V88h1V86.54l1-.32V88H98.1v.82H96.58V92.2a1.37,1.37,0,0,0,.21.86.83.83,0,0,0,.68.26,1.05,1.05,0,0,0,.63-.2Z" fill="#1e1e1e"/>
      <path d="M106.18,94.14A3.68,3.68,0,0,1,103.32,93a4.33,4.33,0,0,1-1.08-3.06,4.66,4.66,0,0,1,1.1-3.24,3.83,3.83,0,0,1,3-1.2,3.62,3.62,0,0,1,2.81,1.17,4.41,4.41,0,0,1,1.06,3.06A4.66,4.66,0,0,1,109.1,93,3.78,3.78,0,0,1,106.18,94.14Zm.07-7.79a2.73,2.73,0,0,0-2.15,1,4.28,4.28,0,0,0,0,5,2.64,2.64,0,0,0,2.1,1,2.74,2.74,0,0,0,2.18-.91,3.68,3.68,0,0,0,.8-2.52,3.81,3.81,0,0,0-.78-2.57A2.62,2.62,0,0,0,106.25,86.35Z" fill="#1e1e1e"/>
      <path d="M111.45,93.66V92.5a2.23,2.23,0,0,0,.48.32,3.69,3.69,0,0,0,.58.23,3.5,3.5,0,0,0,.62.15,3.09,3.09,0,0,0,.58.06,2.27,2.27,0,0,0,1.35-.34,1.15,1.15,0,0,0,.45-1,1.13,1.13,0,0,0-.15-.59,1.76,1.76,0,0,0-.41-.46,4.57,4.57,0,0,0-.63-.4l-.77-.4c-.3-.15-.57-.3-.82-.45a3.57,3.57,0,0,1-.67-.51,2.26,2.26,0,0,1-.44-.62,1.91,1.91,0,0,1-.16-.82,1.93,1.93,0,0,1,.25-1,2.24,2.24,0,0,1,.67-.7,3,3,0,0,1,.93-.41,4.29,4.29,0,0,1,1.07-.13,4.08,4.08,0,0,1,1.81.3v1.1a3.31,3.31,0,0,0-1.91-.51,2.88,2.88,0,0,0-.65.07,1.77,1.77,0,0,0-.57.21,1.42,1.42,0,0,0-.41.4,1,1,0,0,0-.16.58,1.22,1.22,0,0,0,.12.56,1.31,1.31,0,0,0,.36.43,3,3,0,0,0,.57.37c.22.12.48.26.77.4s.59.31.86.47a4,4,0,0,1,.71.54,2.42,2.42,0,0,1,.48.67,1.84,1.84,0,0,1,.18.83,2.14,2.14,0,0,1-.24,1.05,1.93,1.93,0,0,1-.66.7,2.8,2.8,0,0,1-1,.39,5.24,5.24,0,0,1-1.14.12l-.49,0a4.69,4.69,0,0,1-.6-.1,4.74,4.74,0,0,1-.57-.15A1.83,1.83,0,0,1,111.45,93.66Z" fill="#1e1e1e"/>
    </g>
    <g>
      <path d="M76.84,129h-1v-3.83H71.51V129h-1v-8.4h1v3.68h4.34V120.6h1Z" fill="#1e1e1e"/>
      <path d="M81.42,129.14a2.77,2.77,0,0,1-2.12-.84,3.11,3.11,0,0,1-.8-2.23,3.25,3.25,0,0,1,.83-2.36,3,3,0,0,1,2.23-.85,2.68,2.68,0,0,1,2.1.83,3.77,3.77,0,0,1-.06,4.59A2.87,2.87,0,0,1,81.42,129.14Zm.07-5.47a1.8,1.8,0,0,0-1.46.63,2.59,2.59,0,0,0-.54,1.74,2.46,2.46,0,0,0,.54,1.68,1.85,1.85,0,0,0,1.46.61,1.75,1.75,0,0,0,1.43-.6,3.23,3.23,0,0,0,0-3.45A1.73,1.73,0,0,0,81.49,123.67Z" fill="#1e1e1e"/>
      <path d="M85.58,128.78v-1a2.82,2.82,0,0,0,1.73.58q1.26,0,1.26-.84a.76.76,0,0,0-.1-.41,1,1,0,0,0-.3-.29,1.94,1.94,0,0,0-.43-.24l-.54-.21c-.26-.11-.5-.21-.7-.32a2.22,2.22,0,0,1-.5-.36,1.38,1.38,0,0,1-.31-.46,1.85,1.85,0,0,1-.1-.61,1.39,1.39,0,0,1,.2-.74,1.67,1.67,0,0,1,.51-.55A2.49,2.49,0,0,1,87,123a3.56,3.56,0,0,1,2.24.16v1a2.7,2.7,0,0,0-1.52-.43,1.88,1.88,0,0,0-.49.06,1.26,1.26,0,0,0-.37.17,1,1,0,0,0-.24.27.66.66,0,0,0-.08.34.75.75,0,0,0,.08.39,1,1,0,0,0,.25.29,2.11,2.11,0,0,0,.4.22l.53.22a6.21,6.21,0,0,1,.72.31,2.82,2.82,0,0,1,.54.36,1.57,1.57,0,0,1,.34.47,1.46,1.46,0,0,1,.12.62,1.51,1.51,0,0,1-.2.78,1.58,1.58,0,0,1-.52.54,2.5,2.5,0,0,1-.76.33,3.68,3.68,0,0,1-.89.1A3.39,3.39,0,0,1,85.58,128.78Z" fill="#1e1e1e"/>
      <path d="M93.82,128.94a1.82,1.82,0,0,1-.9.19c-1,0-1.57-.59-1.57-1.76v-3.55h-1V123h1v-1.46l1-.32V123h1.51v.82H92.31v3.38a1.45,1.45,0,0,0,.2.86.84.84,0,0,0,.68.26,1.05,1.05,0,0,0,.63-.2Z" fill="#1e1e1e"/>
      <path d="M104.76,120.6l-3.11,8.4h-1.08l-3-8.4h1.1l2.32,6.66a3.51,3.51,0,0,1,.17.74h0a3.44,3.44,0,0,1,.19-.75l2.37-6.65Z" fill="#1e1e1e"/>
      <path d="M114.54,129h-1v-5.64c0-.44,0-1,.08-1.63h0a6.37,6.37,0,0,1-.25.81L110.49,129H110l-2.86-6.41a4.68,4.68,0,0,1-.25-.86h0c0,.33,0,.88,0,1.65V129h-1v-8.4h1.3l2.58,5.86a7.92,7.92,0,0,1,.39,1h0c.17-.46.3-.8.41-1l2.63-5.83h1.23Z" fill="#1e1e1e"/>
    </g>
    <g>
      <path d="M47.8,164H46.71l-.89-2.36H42.26L41.42,164h-1.1l3.22-8.4h1Zm-2.3-3.24-1.32-3.58a2.59,2.59,0,0,1-.13-.56h0a3.23,3.23,0,0,1-.14.56l-1.31,3.58Z" fill="#1e1e1e"/>
      <path d="M53.09,158.28l-3.55,4.9h3.51V164H48.13v-.3l3.55-4.88H48.46V158h4.63Z" fill="#1e1e1e"/>
      <path d="M59.18,164h-1v-.95h0a2,2,0,0,1-1.85,1.09c-1.43,0-2.15-.85-2.15-2.55V158h1v3.43c0,1.27.48,1.9,1.45,1.9a1.46,1.46,0,0,0,1.16-.52,2,2,0,0,0,.45-1.35V158h1Z" fill="#1e1e1e"/>
      <path d="M64.25,159a1.16,1.16,0,0,0-.72-.19,1.21,1.21,0,0,0-1,.58,2.64,2.64,0,0,0-.42,1.58V164h-1v-6h1v1.24h0a2,2,0,0,1,.62-1,1.45,1.45,0,0,1,1-.36,1.41,1.41,0,0,1,.57.09Z" fill="#1e1e1e"/>
      <path d="M70.12,161.24H65.88a2.3,2.3,0,0,0,.54,1.55,1.87,1.87,0,0,0,1.42.54,2.93,2.93,0,0,0,1.86-.67v.91a3.5,3.5,0,0,1-2.09.57,2.53,2.53,0,0,1-2-.82,3.36,3.36,0,0,1-.73-2.3,3.29,3.29,0,0,1,.8-2.28,2.54,2.54,0,0,1,2-.88,2.24,2.24,0,0,1,1.82.76,3.18,3.18,0,0,1,.65,2.12Zm-1-.81a1.91,1.91,0,0,0-.4-1.3,1.36,1.36,0,0,0-1.1-.46,1.55,1.55,0,0,0-1.15.48,2.25,2.25,0,0,0-.59,1.28Z" fill="#1e1e1e"/>
      <path d="M76,164H75v-8.4h1Z" fill="#1e1e1e"/>
      <path d="M83,164h-1v-3.42c0-1.28-.46-1.91-1.39-1.91a1.54,1.54,0,0,0-1.2.54,2,2,0,0,0-.47,1.37V164h-1v-6h1v1h0a2.15,2.15,0,0,1,2-1.14,1.83,1.83,0,0,1,1.51.64,2.79,2.79,0,0,1,.52,1.83Z" fill="#1e1e1e"/>
      <path d="M87.81,156a1.35,1.35,0,0,0-.64-.16c-.67,0-1,.43-1,1.27V158h1.41v.82H86.16V164h-1v-5.18h-1V158h1v-1a2,2,0,0,1,.54-1.49,1.82,1.82,0,0,1,1.36-.55,2,2,0,0,1,.7.1Z" fill="#1e1e1e"/>
      <path d="M91.73,159a1.18,1.18,0,0,0-.73-.19,1.23,1.23,0,0,0-1,.58,2.72,2.72,0,0,0-.41,1.58V164h-1v-6h1v1.24h0a2.12,2.12,0,0,1,.63-1,1.4,1.4,0,0,1,.94-.36,1.5,1.5,0,0,1,.58.09Z" fill="#1e1e1e"/>
      <path d="M97.06,164h-1v-.94h0a2.2,2.2,0,0,1-3.25.61,1.65,1.65,0,0,1-.51-1.26c0-1.12.66-1.78,2-2l1.8-.25q0-1.53-1.23-1.53a2.91,2.91,0,0,0-2,.74v-1a3.76,3.76,0,0,1,2-.56c1.41,0,2.11.75,2.11,2.24Zm-1-3-1.44.2a2.43,2.43,0,0,0-1,.34.93.93,0,0,0-.34.84.89.89,0,0,0,.31.71,1.2,1.2,0,0,0,.84.28,1.53,1.53,0,0,0,1.18-.5,1.79,1.79,0,0,0,.46-1.27Z" fill="#1e1e1e"/>
      <path d="M98.51,163.78v-1a2.84,2.84,0,0,0,1.73.58c.84,0,1.27-.28,1.27-.84a.76.76,0,0,0-.11-.41.93.93,0,0,0-.3-.29,1.94,1.94,0,0,0-.43-.24l-.54-.21c-.26-.11-.49-.21-.7-.32a2.47,2.47,0,0,1-.5-.36,1.35,1.35,0,0,1-.3-.46,1.62,1.62,0,0,1-.11-.61,1.39,1.39,0,0,1,.2-.74,1.78,1.78,0,0,1,.51-.55A2.49,2.49,0,0,1,100,158a3.56,3.56,0,0,1,2.24.16v1a2.68,2.68,0,0,0-1.52-.43,1.75,1.75,0,0,0-.48.06,1.33,1.33,0,0,0-.38.17,1,1,0,0,0-.24.27.77.77,0,0,0-.08.34.87.87,0,0,0,.08.39,1,1,0,0,0,.25.29,2.11,2.11,0,0,0,.4.22l.53.22a6.21,6.21,0,0,1,.72.31,2.82,2.82,0,0,1,.54.36,1.41,1.41,0,0,1,.34.47,1.46,1.46,0,0,1,.12.62,1.51,1.51,0,0,1-.2.78,1.58,1.58,0,0,1-.52.54,2.5,2.5,0,0,1-.76.33,3.68,3.68,0,0,1-.89.1A3.39,3.39,0,0,1,98.51,163.78Z" fill="#1e1e1e"/>
      <path d="M106.75,163.94a1.82,1.82,0,0,1-.9.19c-1,0-1.57-.59-1.57-1.76v-3.55h-1V158h1v-1.46l1-.32V158h1.51v.82h-1.51v3.38a1.45,1.45,0,0,0,.2.86.84.84,0,0,0,.68.26,1,1,0,0,0,.63-.2Z" fill="#1e1e1e"/>
      <path d="M111.16,159a1.16,1.16,0,0,0-.72-.19,1.21,1.21,0,0,0-1,.58,2.64,2.64,0,0,0-.42,1.58V164h-1v-6h1v1.24h0a2,2,0,0,1,.62-1,1.45,1.45,0,0,1,1-.36,1.41,1.41,0,0,1,.57.09Z" fill="#1e1e1e"/>
      <path d="M117.06,164h-1v-.95h0a2,2,0,0,1-1.85,1.09c-1.43,0-2.14-.85-2.14-2.55V158h1v3.43c0,1.27.49,1.9,1.45,1.9a1.46,1.46,0,0,0,1.16-.52,2,2,0,0,0,.46-1.35V158h1Z" fill="#1e1e1e"/>
      <path d="M123.09,163.72a3.1,3.1,0,0,1-1.64.42,2.76,2.76,0,0,1-2.08-.83,3.06,3.06,0,0,1-.78-2.17,3.3,3.3,0,0,1,.85-2.38,3,3,0,0,1,2.26-.9,3.24,3.24,0,0,1,1.4.29v1a2.4,2.4,0,0,0-1.43-.47,1.92,1.92,0,0,0-1.51.66,2.5,2.5,0,0,0-.59,1.73,2.36,2.36,0,0,0,.55,1.66,1.91,1.91,0,0,0,1.49.61,2.41,2.41,0,0,0,1.48-.52Z" fill="#1e1e1e"/>
      <path d="M127.32,163.94a1.76,1.76,0,0,1-.89.19c-1.05,0-1.58-.59-1.58-1.76v-3.55h-1V158h1v-1.46l1-.32V158h1.51v.82h-1.51v3.38a1.37,1.37,0,0,0,.21.86.81.81,0,0,0,.68.26,1,1,0,0,0,.62-.2Z" fill="#1e1e1e"/>
      <path d="M133.46,164h-1v-.95h0a2,2,0,0,1-1.85,1.09c-1.43,0-2.14-.85-2.14-2.55V158h1v3.43c0,1.27.49,1.9,1.45,1.9a1.46,1.46,0,0,0,1.16-.52,2,2,0,0,0,.46-1.35V158h1Z" fill="#1e1e1e"/>
      <path d="M138.53,159a1.18,1.18,0,0,0-.73-.19,1.23,1.23,0,0,0-1,.58,2.72,2.72,0,0,0-.41,1.58V164h-1v-6h1v1.24h0a2.12,2.12,0,0,1,.63-1,1.4,1.4,0,0,1,.94-.36,1.5,1.5,0,0,1,.58.09Z" fill="#1e1e1e"/>
      <path d="M144.39,161.24h-4.24a2.3,2.3,0,0,0,.54,1.55,1.88,1.88,0,0,0,1.42.54,2.89,2.89,0,0,0,1.86-.67v.91a3.47,3.47,0,0,1-2.09.57,2.54,2.54,0,0,1-2-.82,3.35,3.35,0,0,1-.72-2.3,3.28,3.28,0,0,1,.79-2.28,2.54,2.54,0,0,1,2-.88,2.26,2.26,0,0,1,1.83.76,3.18,3.18,0,0,1,.64,2.12Zm-1-.81a2,2,0,0,0-.41-1.3,1.34,1.34,0,0,0-1.09-.46,1.57,1.57,0,0,0-1.16.48,2.24,2.24,0,0,0-.58,1.28Z" fill="#1e1e1e"/>
    </g>
    <g>
      <path d="M189.25,36.38h-1.09L187.27,34h-3.56l-.84,2.35h-1.1L185,28h1ZM187,33.14l-1.32-3.58a3.14,3.14,0,0,1-.13-.56h0a3,3,0,0,1-.14.56L184,33.14Z" fill="#1e1e1e"/>
      <path d="M191.34,35.52h0v3.62h-1V30.38h1v1.06h0a2.29,2.29,0,0,1,2.08-1.2,2.2,2.2,0,0,1,1.81.81,3.33,3.33,0,0,1,.65,2.16,3.78,3.78,0,0,1-.73,2.41,2.46,2.46,0,0,1-2,.9A2,2,0,0,1,191.34,35.52Zm0-2.42v.83a1.81,1.81,0,0,0,.48,1.27,1.75,1.75,0,0,0,2.6-.15,3.09,3.09,0,0,0,.49-1.86,2.41,2.41,0,0,0-.46-1.57,1.53,1.53,0,0,0-1.25-.57,1.73,1.73,0,0,0-1.35.58A2.16,2.16,0,0,0,191.32,33.1Z" fill="#1e1e1e"/>
      <path d="M198.4,35.52h0v3.62h-1V30.38h1v1.06h0a2.26,2.26,0,0,1,2.07-1.2,2.18,2.18,0,0,1,1.81.81,3.28,3.28,0,0,1,.65,2.16,3.72,3.72,0,0,1-.73,2.41,2.45,2.45,0,0,1-2,.9A2,2,0,0,1,198.4,35.52Zm0-2.42v.83a1.82,1.82,0,0,0,.49,1.27,1.73,1.73,0,0,0,2.59-.15,3.09,3.09,0,0,0,.5-1.86,2.47,2.47,0,0,0-.46-1.57,1.54,1.54,0,0,0-1.26-.57,1.73,1.73,0,0,0-1.35.58A2.16,2.16,0,0,0,198.37,33.1Z" fill="#1e1e1e"/>
      <path d="M205.43,36.38h-1V27.5h1Z" fill="#1e1e1e"/>
      <path d="M207.87,28.86a.59.59,0,0,1-.44-.18.57.57,0,0,1-.18-.44.61.61,0,0,1,.18-.45.59.59,0,0,1,.44-.18.6.6,0,0,1,.44.18.58.58,0,0,1,.19.45.58.58,0,0,1-.19.44A.6.6,0,0,1,207.87,28.86Zm.47,7.52h-1v-6h1Z" fill="#1e1e1e"/>
      <path d="M214.37,36.11a3.19,3.19,0,0,1-1.64.41,2.68,2.68,0,0,1-2.07-.83,3,3,0,0,1-.79-2.17,3.32,3.32,0,0,1,.85-2.38,3,3,0,0,1,2.27-.9,3.06,3.06,0,0,1,1.39.3v1a2.45,2.45,0,0,0-1.43-.47,2,2,0,0,0-1.51.66,2.52,2.52,0,0,0-.59,1.73,2.41,2.41,0,0,0,.56,1.67,1.91,1.91,0,0,0,1.48.6,2.39,2.39,0,0,0,1.48-.52Z" fill="#1e1e1e"/>
      <path d="M220.12,36.38h-1v-.93h0a2,2,0,0,1-1.84,1.07,1.93,1.93,0,0,1-1.4-.47,1.65,1.65,0,0,1-.51-1.26c0-1.12.66-1.77,2-2l1.8-.25c0-1-.41-1.53-1.24-1.53a3,3,0,0,0-2,.74v-1a3.76,3.76,0,0,1,2-.56c1.41,0,2.12.75,2.12,2.24Zm-1-3-1.45.2a2.35,2.35,0,0,0-1,.33,1,1,0,0,0-.34.84.93.93,0,0,0,.32.72,1.22,1.22,0,0,0,.83.27,1.51,1.51,0,0,0,1.18-.5,1.77,1.77,0,0,0,.47-1.26Z" fill="#1e1e1e"/>
      <path d="M224.71,36.32a1.76,1.76,0,0,1-.89.19c-1,0-1.58-.58-1.58-1.76V31.2h-1v-.82h1V28.92l1-.31v1.77h1.51v.82H223.2v3.38a1.41,1.41,0,0,0,.21.87.81.81,0,0,0,.68.25.94.94,0,0,0,.62-.2Z" fill="#1e1e1e"/>
      <path d="M226.49,28.86a.6.6,0,0,1-.44-.18.57.57,0,0,1-.18-.44.61.61,0,0,1,.18-.45.6.6,0,0,1,.44-.18.64.64,0,0,1,.45.18.61.61,0,0,1,.18.45.6.6,0,0,1-.18.44A.64.64,0,0,1,226.49,28.86Zm.47,7.52h-1v-6h1Z" fill="#1e1e1e"/>
      <path d="M231.41,36.52a2.76,2.76,0,0,1-2.12-.84,3.11,3.11,0,0,1-.8-2.23,3.26,3.26,0,0,1,.83-2.36,3,3,0,0,1,2.23-.85,2.73,2.73,0,0,1,2.1.83,3.27,3.27,0,0,1,.75,2.29,3.23,3.23,0,0,1-.81,2.3A2.83,2.83,0,0,1,231.41,36.52Zm.07-5.47a1.8,1.8,0,0,0-1.46.63,2.59,2.59,0,0,0-.54,1.74A2.46,2.46,0,0,0,230,35.1a1.85,1.85,0,0,0,1.46.61,1.75,1.75,0,0,0,1.43-.6,2.58,2.58,0,0,0,.5-1.72,2.62,2.62,0,0,0-.5-1.73A1.73,1.73,0,0,0,231.48,31.05Z" fill="#1e1e1e"/>
      <path d="M240.91,36.38h-1V33c0-1.27-.46-1.91-1.39-1.91a1.5,1.5,0,0,0-1.19.54,2,2,0,0,0-.48,1.37v3.42h-1v-6h1v1h0a2.16,2.16,0,0,1,2-1.14,1.82,1.82,0,0,1,1.5.64,2.79,2.79,0,0,1,.52,1.83Z" fill="#1e1e1e"/>
      <path d="M247,36.38h-1V27.5h1Z" fill="#1e1e1e"/>
      <path d="M251.43,36.52a2.79,2.79,0,0,1-2.13-.84,3.1,3.1,0,0,1-.79-2.23,3.26,3.26,0,0,1,.82-2.36,3,3,0,0,1,2.24-.85,2.69,2.69,0,0,1,2.09.83,3.27,3.27,0,0,1,.75,2.29,3.23,3.23,0,0,1-.81,2.3A2.81,2.81,0,0,1,251.43,36.52Zm.07-5.47a1.84,1.84,0,0,0-1.47.63,2.59,2.59,0,0,0-.54,1.74A2.41,2.41,0,0,0,250,35.1a1.85,1.85,0,0,0,1.46.61,1.77,1.77,0,0,0,1.43-.6,2.63,2.63,0,0,0,.5-1.72,2.68,2.68,0,0,0-.5-1.73A1.74,1.74,0,0,0,251.5,31.05Z" fill="#1e1e1e"/>
      <path d="M261.07,35.9q0,3.32-3.16,3.31a4.28,4.28,0,0,1-2-.42v-1a4,4,0,0,0,1.93.57c1.48,0,2.22-.79,2.22-2.36v-.65h0a2.44,2.44,0,0,1-3.87.34,3.21,3.21,0,0,1-.68-2.14,3.77,3.77,0,0,1,.73-2.44,2.48,2.48,0,0,1,2-.9,2,2,0,0,1,1.8,1h0v-.83h1Zm-1-2.23v-.88a1.73,1.73,0,0,0-.48-1.23,1.62,1.62,0,0,0-1.21-.51,1.66,1.66,0,0,0-1.39.65,2.85,2.85,0,0,0-.51,1.81,2.43,2.43,0,0,0,.49,1.6,1.56,1.56,0,0,0,1.28.6,1.67,1.67,0,0,0,1.31-.57A2.12,2.12,0,0,0,260.11,33.67Z" fill="#1e1e1e"/>
      <path d="M262.65,36.17v-1a2.84,2.84,0,0,0,1.73.58c.84,0,1.27-.28,1.27-.84a.78.78,0,0,0-.11-.41.93.93,0,0,0-.3-.29,1.59,1.59,0,0,0-.43-.23l-.54-.22a6.6,6.6,0,0,1-.7-.32,2.14,2.14,0,0,1-.5-.36,1.26,1.26,0,0,1-.3-.46,1.57,1.57,0,0,1-.11-.6,1.45,1.45,0,0,1,.2-.75,1.78,1.78,0,0,1,.51-.55,2.77,2.77,0,0,1,.74-.33,3.56,3.56,0,0,1,2.24.16v1a2.76,2.76,0,0,0-1.52-.43,1.75,1.75,0,0,0-.48.06,1.11,1.11,0,0,0-.38.18.85.85,0,0,0-.24.26.81.81,0,0,0-.08.34,1,1,0,0,0,.08.4.94.94,0,0,0,.25.28,2.11,2.11,0,0,0,.4.22l.53.22a6.21,6.21,0,0,1,.72.31,2.82,2.82,0,0,1,.54.36,1.41,1.41,0,0,1,.34.47,1.54,1.54,0,0,1,.12.63,1.41,1.41,0,0,1-.2.77,1.7,1.7,0,0,1-.52.55,2.49,2.49,0,0,1-.76.32,3.68,3.68,0,0,1-.89.1A3.51,3.51,0,0,1,262.65,36.17Z" fill="#1e1e1e"/>
      <path d="M186.91,49.58h-1v-.93h0a2,2,0,0,1-1.85,1.07,2,2,0,0,1-1.4-.47,1.65,1.65,0,0,1-.51-1.26c0-1.12.66-1.77,2-2l1.8-.25q0-1.53-1.23-1.53a3,3,0,0,0-2,.74V44a3.76,3.76,0,0,1,2-.56c1.41,0,2.11.75,2.11,2.24Zm-1-3-1.44.2a2.25,2.25,0,0,0-1,.33,1,1,0,0,0-.34.84.92.92,0,0,0,.31.72,1.25,1.25,0,0,0,.84.28,1.54,1.54,0,0,0,1.18-.51,1.76,1.76,0,0,0,.46-1.26Z" fill="#1e1e1e"/>
      <path d="M193.7,49.58h-1V46.16c0-1.27-.46-1.91-1.39-1.91a1.5,1.5,0,0,0-1.19.54,2,2,0,0,0-.47,1.37v3.42h-1v-6h1v1h0a2.16,2.16,0,0,1,2-1.14,1.81,1.81,0,0,1,1.5.64,2.8,2.8,0,0,1,.52,1.84Z" fill="#1e1e1e"/>
      <path d="M200.64,49.58h-1v-1h0a2.2,2.2,0,0,1-2.06,1.16,2.24,2.24,0,0,1-1.81-.8,3.33,3.33,0,0,1-.68-2.2,3.59,3.59,0,0,1,.75-2.38,2.48,2.48,0,0,1,2-.9,1.92,1.92,0,0,1,1.8,1h0V40.7h1Zm-1-2.71V46a1.7,1.7,0,0,0-.49-1.24,1.61,1.61,0,0,0-1.21-.5,1.68,1.68,0,0,0-1.39.65,2.85,2.85,0,0,0-.5,1.78,2.53,2.53,0,0,0,.48,1.63,1.71,1.71,0,0,0,2.6,0A2.11,2.11,0,0,0,199.68,46.87Z" fill="#1e1e1e"/>
      <path d="M214.39,49.58h-1V46.14a2.61,2.61,0,0,0-.31-1.44,1.16,1.16,0,0,0-1-.45,1.3,1.3,0,0,0-1.05.56,2.16,2.16,0,0,0-.43,1.35v3.42h-1V46c0-1.18-.46-1.77-1.37-1.77a1.27,1.27,0,0,0-1,.53,2.2,2.2,0,0,0-.41,1.38v3.42h-1v-6h1v1h0a2.06,2.06,0,0,1,1.87-1.09,1.76,1.76,0,0,1,1.7,1.24,2.14,2.14,0,0,1,2-1.24c1.32,0,2,.82,2,2.45Z" fill="#1e1e1e"/>
      <path d="M221,46.82h-4.24a2.28,2.28,0,0,0,.54,1.55,1.87,1.87,0,0,0,1.42.55,3,3,0,0,0,1.86-.67v.9a3.5,3.5,0,0,1-2.09.57,2.56,2.56,0,0,1-2-.81,3.39,3.39,0,0,1-.73-2.3,3.29,3.29,0,0,1,.8-2.29,2.56,2.56,0,0,1,2-.88,2.27,2.27,0,0,1,1.82.76,3.2,3.2,0,0,1,.65,2.12ZM220,46a2,2,0,0,0-.4-1.3,1.39,1.39,0,0,0-1.1-.46,1.52,1.52,0,0,0-1.15.49A2.22,2.22,0,0,0,216.8,46Z" fill="#1e1e1e"/>
      <path d="M225.26,49.52a1.76,1.76,0,0,1-.89.19c-1.05,0-1.58-.58-1.58-1.76V44.4h-1v-.82h1V42.12l1-.31v1.77h1.51v.82h-1.51v3.38a1.41,1.41,0,0,0,.21.87.81.81,0,0,0,.68.25.94.94,0,0,0,.62-.2Z" fill="#1e1e1e"/>
      <path d="M229.68,44.56a1.18,1.18,0,0,0-.73-.2,1.25,1.25,0,0,0-1,.58,2.74,2.74,0,0,0-.41,1.58v3.06h-1v-6h1v1.24h0a2.17,2.17,0,0,1,.63-1,1.44,1.44,0,0,1,.94-.35,1.52,1.52,0,0,1,.58.08Z" fill="#1e1e1e"/>
      <path d="M231.21,42.06a.6.6,0,0,1-.44-.18.57.57,0,0,1-.18-.44.61.61,0,0,1,.18-.45.6.6,0,0,1,.44-.18.62.62,0,0,1,.63.63.6.6,0,0,1-.18.44A.61.61,0,0,1,231.21,42.06Zm.47,7.52h-1v-6h1Z" fill="#1e1e1e"/>
      <path d="M237.71,49.31a3.17,3.17,0,0,1-1.64.41,2.71,2.71,0,0,1-2.07-.83,3.06,3.06,0,0,1-.79-2.17,3.36,3.36,0,0,1,.85-2.38,3,3,0,0,1,2.27-.9,3.13,3.13,0,0,1,1.4.3v1a2.49,2.49,0,0,0-1.43-.47,1.92,1.92,0,0,0-1.51.66,2.52,2.52,0,0,0-.59,1.73,2.4,2.4,0,0,0,.55,1.67,1.94,1.94,0,0,0,1.49.61,2.39,2.39,0,0,0,1.47-.53Z" fill="#1e1e1e"/>
      <path d="M238.8,49.37v-1a2.85,2.85,0,0,0,1.73.59c.85,0,1.27-.29,1.27-.85a.78.78,0,0,0-.11-.41,1,1,0,0,0-.29-.29,2.27,2.27,0,0,0-.44-.23l-.53-.22a5.16,5.16,0,0,1-.7-.32,1.94,1.94,0,0,1-.51-.36,1.41,1.41,0,0,1-.3-.46,1.57,1.57,0,0,1-.1-.6,1.44,1.44,0,0,1,.19-.75,1.78,1.78,0,0,1,.51-.55,2.77,2.77,0,0,1,.74-.33,3.59,3.59,0,0,1,2.25.16v1a2.79,2.79,0,0,0-1.53-.43,1.75,1.75,0,0,0-.48.06,1,1,0,0,0-.37.18.66.66,0,0,0-.24.26.69.69,0,0,0-.09.34.82.82,0,0,0,.09.4.78.78,0,0,0,.24.28,2.48,2.48,0,0,0,.4.22l.54.22a6.85,6.85,0,0,1,.71.31,2.82,2.82,0,0,1,.54.36,1.41,1.41,0,0,1,.34.47,1.54,1.54,0,0,1,.12.63,1.49,1.49,0,0,1-.19.77,1.74,1.74,0,0,1-.53.55,2.54,2.54,0,0,1-.75.32,3.82,3.82,0,0,1-.9.1A3.54,3.54,0,0,1,238.8,49.37Z" fill="#1e1e1e"/>
    </g>
    <g>
      <path d="M313.62,34.55V33.11a2,2,0,0,0,.46.32,4.87,4.87,0,0,0,.57.24c.2.06.39.11.59.15a3.86,3.86,0,0,0,.55,0,2.37,2.37,0,0,0,1.31-.29,1,1,0,0,0,.44-.85.89.89,0,0,0-.15-.52,1.38,1.38,0,0,0-.4-.4,3.78,3.78,0,0,0-.61-.35l-.74-.35c-.29-.15-.55-.31-.8-.46a3.37,3.37,0,0,1-.64-.52,2.25,2.25,0,0,1-.43-.64,2.17,2.17,0,0,1-.15-.84,1.9,1.9,0,0,1,.26-1,2.29,2.29,0,0,1,.7-.72,3.31,3.31,0,0,1,1-.42,4.79,4.79,0,0,1,1.13-.14,4.64,4.64,0,0,1,1.93.3V28a3,3,0,0,0-1.84-.52,3.18,3.18,0,0,0-.62.06,1.78,1.78,0,0,0-.55.19,1.23,1.23,0,0,0-.4.35.85.85,0,0,0-.15.51.92.92,0,0,0,.12.48,1.21,1.21,0,0,0,.34.38,3.8,3.8,0,0,0,.55.33l.75.35a8.21,8.21,0,0,1,.83.48,3.83,3.83,0,0,1,.69.56,2.39,2.39,0,0,1,.47.67,2.08,2.08,0,0,1,.17.85,2.16,2.16,0,0,1-.26,1.08,2,2,0,0,1-.69.71,2.93,2.93,0,0,1-1,.4,5.81,5.81,0,0,1-1.2.12l-.52,0-.63-.09a6,6,0,0,1-.61-.15A2.25,2.25,0,0,1,313.62,34.55Z" fill="#1e1e1e"/>
      <path d="M323.21,34.82a2.42,2.42,0,0,1-1,.2c-1.17,0-1.75-.56-1.75-1.68V30h-1V28.88h1V27.49l1.36-.38v1.77h1.44V30h-1.44v3a1.24,1.24,0,0,0,.19.76.83.83,0,0,0,.65.23,1,1,0,0,0,.6-.2Z" fill="#1e1e1e"/>
      <path d="M327,35a3,3,0,0,1-2.22-.84,3,3,0,0,1-.83-2.23,3,3,0,0,1,3.2-3.21,2.9,2.9,0,0,1,2.19.83,3.19,3.19,0,0,1,.78,2.29,3.16,3.16,0,0,1-.84,2.3A3,3,0,0,1,327,35Zm.06-5.19a1.55,1.55,0,0,0-1.26.55,2.34,2.34,0,0,0-.46,1.54,2.19,2.19,0,0,0,.47,1.48A1.58,1.58,0,0,0,327,34a1.5,1.5,0,0,0,1.24-.54,2.9,2.9,0,0,0,0-3A1.5,1.5,0,0,0,327,29.83Z" fill="#1e1e1e"/>
      <path d="M335,30.18a1.15,1.15,0,0,0-.71-.2,1.22,1.22,0,0,0-1,.55,2.43,2.43,0,0,0-.41,1.48v2.87h-1.36v-6h1.36v1.24h0a2.07,2.07,0,0,1,.61-1,1.41,1.41,0,0,1,.92-.35,1.11,1.11,0,0,1,.57.11Z" fill="#1e1e1e"/>
      <path d="M340.89,32.25H336.8a1.79,1.79,0,0,0,.51,1.29,1.93,1.93,0,0,0,1.35.45,3,3,0,0,0,1.76-.58v1.1a4.05,4.05,0,0,1-2.17.51,2.68,2.68,0,0,1-2.07-.81,3.26,3.26,0,0,1-.76-2.3,3.22,3.22,0,0,1,.83-2.29,2.75,2.75,0,0,1,2.06-.88,2.4,2.4,0,0,1,1.91.79,3.29,3.29,0,0,1,.67,2.2Zm-1.31-1a1.76,1.76,0,0,0-.35-1.14,1.16,1.16,0,0,0-.94-.41,1.33,1.33,0,0,0-1,.43,2,2,0,0,0-.5,1.12Z" fill="#1e1e1e"/>
      <path d="M348.14,35a3,3,0,0,1-2.21-.84A3,3,0,0,1,345.1,32a3,3,0,0,1,3.19-3.21,2.87,2.87,0,0,1,2.19.83,3.16,3.16,0,0,1,.79,2.29,3.13,3.13,0,0,1-.85,2.3A3,3,0,0,1,348.14,35Zm.07-5.19a1.55,1.55,0,0,0-1.26.55,2.34,2.34,0,0,0-.46,1.54A2.14,2.14,0,0,0,347,33.4a1.58,1.58,0,0,0,1.25.55,1.48,1.48,0,0,0,1.23-.54,2.33,2.33,0,0,0,.43-1.52,2.33,2.33,0,0,0-.43-1.52A1.48,1.48,0,0,0,348.21,29.83Z" fill="#1e1e1e"/>
      <path d="M356.13,30.18a1.11,1.11,0,0,0-.71-.2,1.23,1.23,0,0,0-1,.55A2.43,2.43,0,0,0,354,32v2.87h-1.36v-6H354v1.24h0a2.16,2.16,0,0,1,.62-1,1.39,1.39,0,0,1,.92-.35,1.09,1.09,0,0,1,.56.11Z" fill="#1e1e1e"/>
      <path d="M365,34.88h-1.32V34h0A2,2,0,0,1,361.83,35a1.9,1.9,0,0,1-1.38-.48,1.65,1.65,0,0,1-.5-1.27q0-1.7,1.95-2l1.78-.25c0-.86-.4-1.28-1.22-1.28a2.91,2.91,0,0,0-1.93.73V29.3a4.25,4.25,0,0,1,2.19-.56A2,2,0,0,1,365,31Zm-1.32-2.94-1.26.17a2,2,0,0,0-.88.29.81.81,0,0,0-.29.73.8.8,0,0,0,.27.62,1.05,1.05,0,0,0,.73.24,1.37,1.37,0,0,0,1-.43,1.57,1.57,0,0,0,.4-1.1Z" fill="#1e1e1e"/>
      <path d="M370.13,30.18a1.1,1.1,0,0,0-.7-.2,1.22,1.22,0,0,0-1,.55A2.43,2.43,0,0,0,368,32v2.87h-1.36v-6H368v1.24h0a2.07,2.07,0,0,1,.61-1,1.39,1.39,0,0,1,.92-.35,1,1,0,0,1,.56.11Z" fill="#1e1e1e"/>
      <path d="M375.29,34.61a3.46,3.46,0,0,1-1.71.41,2.89,2.89,0,0,1-2.16-.83A3,3,0,0,1,370.6,32a3.26,3.26,0,0,1,.89-2.38,3.13,3.13,0,0,1,2.35-.9,3.47,3.47,0,0,1,1.45.29v1.26a2.19,2.19,0,0,0-1.33-.46,1.86,1.86,0,0,0-1.42.58,2.17,2.17,0,0,0-.55,1.53,2.06,2.06,0,0,0,.52,1.47,1.85,1.85,0,0,0,1.39.54,2.2,2.2,0,0,0,1.39-.53Z" fill="#1e1e1e"/>
      <path d="M382,34.88h-1.35V31.6c0-1.19-.4-1.78-1.19-1.78a1.23,1.23,0,0,0-1,.52,2,2,0,0,0-.41,1.31v3.23h-1.37V26H378v3.88h0a2.14,2.14,0,0,1,2-1.14c1.33,0,2,.82,2,2.45Z" fill="#1e1e1e"/>
      <path d="M384.3,27.62a.84.84,0,0,1-.57-.21.76.76,0,0,1,0-1.11.8.8,0,0,1,.57-.22.83.83,0,0,1,.59.22.73.73,0,0,1,.24.56.71.71,0,0,1-.24.54A.83.83,0,0,1,384.3,27.62Zm.68,7.26h-1.36v-6H385Z" fill="#1e1e1e"/>
      <path d="M391.92,28.88l-2.32,6h-1.47l-2.21-6h1.48l1.33,4.2a3.76,3.76,0,0,1,.18.81h0a4.39,4.39,0,0,1,.17-.79l1.39-4.22Z" fill="#1e1e1e"/>
      <path d="M397.83,32.25h-4.09a1.71,1.71,0,0,0,.51,1.29,1.91,1.91,0,0,0,1.34.45,3,3,0,0,0,1.77-.58v1.1a4.08,4.08,0,0,1-2.17.51,2.7,2.7,0,0,1-2.08-.81,3.3,3.3,0,0,1-.75-2.3,3.22,3.22,0,0,1,.83-2.29,2.74,2.74,0,0,1,2.06-.88,2.38,2.38,0,0,1,1.9.79,3.29,3.29,0,0,1,.68,2.2Zm-1.32-1a1.76,1.76,0,0,0-.34-1.14,1.17,1.17,0,0,0-.94-.41,1.33,1.33,0,0,0-1,.43,2,2,0,0,0-.5,1.12Z" fill="#1e1e1e"/>
    </g>
    <g>
      <path d="M322.39,49.29V48.13a2,2,0,0,0,.47.32,6.07,6.07,0,0,0,.59.24c.21.06.41.11.62.15a4.13,4.13,0,0,0,.57,0,2.22,2.22,0,0,0,1.36-.34,1.14,1.14,0,0,0,.45-1,1.15,1.15,0,0,0-.15-.59,1.64,1.64,0,0,0-.42-.46,3.91,3.91,0,0,0-.62-.4l-.78-.4-.82-.45a3.81,3.81,0,0,1-.66-.5,2.24,2.24,0,0,1-.44-.63,1.88,1.88,0,0,1-.16-.82,1.93,1.93,0,0,1,.25-1,2.32,2.32,0,0,1,.66-.7,3.19,3.19,0,0,1,.94-.41,4.24,4.24,0,0,1,1.07-.13,4.11,4.11,0,0,1,1.81.3V42.5a3.26,3.26,0,0,0-1.91-.52,2.88,2.88,0,0,0-.65.07,1.78,1.78,0,0,0-.57.22,1.18,1.18,0,0,0-.41.39,1,1,0,0,0-.16.59,1.18,1.18,0,0,0,.12.55,1.41,1.41,0,0,0,.35.43,4.17,4.17,0,0,0,.58.38l.77.39c.3.15.59.31.86.47a4.46,4.46,0,0,1,.71.55,2.53,2.53,0,0,1,.48.66,1.84,1.84,0,0,1,.18.83,1.94,1.94,0,0,1-.9,1.75,2.88,2.88,0,0,1-.95.39,5.24,5.24,0,0,1-1.14.12l-.49,0-.6-.09a4.91,4.91,0,0,1-.58-.15A1.91,1.91,0,0,1,322.39,49.29Z" fill="#1e1e1e"/>
      <path d="M331.42,49.57a1.76,1.76,0,0,1-.89.19c-1.06,0-1.58-.58-1.58-1.76V44.45h-1v-.82h1V42.17l1-.31v1.77h1.51v.82h-1.51v3.38a1.41,1.41,0,0,0,.21.87.8.8,0,0,0,.67.25,1,1,0,0,0,.63-.2Z" fill="#1e1e1e"/>
      <path d="M335.21,49.77a2.79,2.79,0,0,1-2.12-.84,3.11,3.11,0,0,1-.8-2.23,3.26,3.26,0,0,1,.83-2.36,3,3,0,0,1,2.23-.85,2.7,2.7,0,0,1,2.1.83,3.27,3.27,0,0,1,.75,2.29,3.23,3.23,0,0,1-.81,2.3A2.83,2.83,0,0,1,335.21,49.77Zm.07-5.47a1.83,1.83,0,0,0-1.46.63,2.59,2.59,0,0,0-.54,1.74,2.46,2.46,0,0,0,.54,1.68,1.86,1.86,0,0,0,1.46.61,1.79,1.79,0,0,0,1.44-.6,2.63,2.63,0,0,0,.5-1.72,2.68,2.68,0,0,0-.5-1.73A1.76,1.76,0,0,0,335.28,44.3Z" fill="#1e1e1e"/>
      <path d="M342.87,44.61a1.18,1.18,0,0,0-.73-.2,1.25,1.25,0,0,0-1,.58,2.67,2.67,0,0,0-.41,1.58v3.06h-1v-6h1v1.24h0a2.17,2.17,0,0,1,.63-1,1.44,1.44,0,0,1,.94-.35,1.52,1.52,0,0,1,.58.08Z" fill="#1e1e1e"/>
      <path d="M348.73,46.87h-4.24a2.28,2.28,0,0,0,.54,1.55,1.88,1.88,0,0,0,1.42.54,2.94,2.94,0,0,0,1.86-.66v.9a3.47,3.47,0,0,1-2.09.57,2.57,2.57,0,0,1-2-.81,3.39,3.39,0,0,1-.72-2.3,3.29,3.29,0,0,1,.79-2.29,2.58,2.58,0,0,1,2-.88,2.29,2.29,0,0,1,1.83.76,3.19,3.19,0,0,1,.64,2.12Zm-1-.81a2,2,0,0,0-.41-1.3,1.38,1.38,0,0,0-1.09-.46,1.54,1.54,0,0,0-1.16.49,2.21,2.21,0,0,0-.58,1.27Z" fill="#1e1e1e"/>
      <path d="M354,42.11a.6.6,0,0,1-.44-.18.57.57,0,0,1-.18-.44.61.61,0,0,1,.18-.45.6.6,0,0,1,.44-.18.61.61,0,0,1,.45.18.62.62,0,0,1,0,.89A.61.61,0,0,1,354,42.11Zm.47,7.52h-1v-6h1Z" fill="#1e1e1e"/>
      <path d="M361.36,49.63h-1V46.21c0-1.27-.47-1.91-1.4-1.91a1.5,1.5,0,0,0-1.19.54,2,2,0,0,0-.47,1.37v3.42h-1v-6h1v1h0a2.16,2.16,0,0,1,2-1.14,1.83,1.83,0,0,1,1.51.64,2.85,2.85,0,0,1,.52,1.83Z" fill="#1e1e1e"/>
      <path d="M367.44,48.77h0v.86h-1V40.75h1v3.94h0a2.26,2.26,0,0,1,2.07-1.2,2.19,2.19,0,0,1,1.81.81,3.28,3.28,0,0,1,.65,2.16,3.72,3.72,0,0,1-.73,2.41,2.44,2.44,0,0,1-2,.9A2,2,0,0,1,367.44,48.77Zm0-2.42v.83a1.81,1.81,0,0,0,.48,1.27,1.75,1.75,0,0,0,2.6-.15,3.09,3.09,0,0,0,.49-1.86,2.41,2.41,0,0,0-.46-1.57,1.54,1.54,0,0,0-1.26-.57,1.71,1.71,0,0,0-1.34.58A2.16,2.16,0,0,0,367.42,46.35Z" fill="#1e1e1e"/>
      <path d="M374.47,49.63h-1V40.75h1Z" fill="#1e1e1e"/>
      <path d="M378.92,49.77a2.79,2.79,0,0,1-2.12-.84A3.1,3.1,0,0,1,376,46.7a3.26,3.26,0,0,1,.82-2.36,3,3,0,0,1,2.23-.85,2.7,2.7,0,0,1,2.1.83,3.27,3.27,0,0,1,.75,2.29,3.23,3.23,0,0,1-.81,2.3A2.83,2.83,0,0,1,378.92,49.77ZM379,44.3a1.83,1.83,0,0,0-1.46.63,2.59,2.59,0,0,0-.54,1.74,2.41,2.41,0,0,0,.55,1.68A1.82,1.82,0,0,0,379,49a1.77,1.77,0,0,0,1.44-.6,2.63,2.63,0,0,0,.5-1.72,2.68,2.68,0,0,0-.5-1.73A1.75,1.75,0,0,0,379,44.3Z" fill="#1e1e1e"/>
      <path d="M384.43,48.77h0v.86h-1V40.75h1v3.94h0a2.28,2.28,0,0,1,2.08-1.2,2.17,2.17,0,0,1,1.8.81,3.28,3.28,0,0,1,.66,2.16,3.73,3.73,0,0,1-.74,2.41,2.42,2.42,0,0,1-2,.9A2,2,0,0,1,384.43,48.77Zm0-2.42v.83a1.81,1.81,0,0,0,.48,1.27,1.75,1.75,0,0,0,2.6-.15,3.09,3.09,0,0,0,.49-1.86,2.41,2.41,0,0,0-.46-1.57,1.53,1.53,0,0,0-1.25-.57,1.73,1.73,0,0,0-1.35.58A2.16,2.16,0,0,0,384.41,46.35Z" fill="#1e1e1e"/>
      <path d="M336.31,62.62v-1a2.83,2.83,0,0,0,1.73.59c.84,0,1.26-.29,1.26-.85a.7.7,0,0,0-.11-.41,1,1,0,0,0-.29-.29,2.18,2.18,0,0,0-.43-.23l-.54-.22a5.79,5.79,0,0,1-.7-.32,1.74,1.74,0,0,1-.5-.36,1.29,1.29,0,0,1-.31-.46,1.57,1.57,0,0,1-.1-.6,1.44,1.44,0,0,1,.19-.75,1.7,1.7,0,0,1,.52-.55,2.71,2.71,0,0,1,.73-.33,3.49,3.49,0,0,1,.86-.11A3.41,3.41,0,0,1,340,57v1a2.78,2.78,0,0,0-1.52-.43,1.88,1.88,0,0,0-.49.06,1.06,1.06,0,0,0-.37.18.85.85,0,0,0-.24.26.69.69,0,0,0-.09.34.82.82,0,0,0,.09.4.94.94,0,0,0,.25.28,2.11,2.11,0,0,0,.4.22l.53.22a7.07,7.07,0,0,1,.72.31,2.45,2.45,0,0,1,.53.36,1.45,1.45,0,0,1,.35.47,1.54,1.54,0,0,1,.12.63,1.5,1.5,0,0,1-.2.77,1.7,1.7,0,0,1-.52.55,2.49,2.49,0,0,1-.76.32,3.71,3.71,0,0,1-.9.1A3.49,3.49,0,0,1,336.31,62.62Z" fill="#1e1e1e"/>
      <path d="M344.55,62.77a1.82,1.82,0,0,1-.9.19c-1,0-1.58-.58-1.58-1.76V57.65h-1v-.82h1V55.37l1-.31v1.77h1.51v.82H343V61a1.41,1.41,0,0,0,.2.87.82.82,0,0,0,.68.25,1,1,0,0,0,.63-.2Z" fill="#1e1e1e"/>
      <path d="M348.34,63a2.79,2.79,0,0,1-2.13-.84,3.1,3.1,0,0,1-.79-2.23,3.26,3.26,0,0,1,.83-2.36,3,3,0,0,1,2.23-.85,2.69,2.69,0,0,1,2.09.83,3.23,3.23,0,0,1,.76,2.29,3.19,3.19,0,0,1-.82,2.3A2.81,2.81,0,0,1,348.34,63Zm.07-5.47a1.84,1.84,0,0,0-1.47.63,2.59,2.59,0,0,0-.54,1.74,2.46,2.46,0,0,0,.55,1.68,1.85,1.85,0,0,0,1.46.62,1.76,1.76,0,0,0,1.43-.61,2.63,2.63,0,0,0,.5-1.72,2.68,2.68,0,0,0-.5-1.73A1.73,1.73,0,0,0,348.41,57.5Z" fill="#1e1e1e"/>
      <path d="M356,57.81a1.18,1.18,0,0,0-.73-.2,1.22,1.22,0,0,0-1,.58,2.67,2.67,0,0,0-.42,1.58v3.06h-1v-6h1v1.24h0a2.08,2.08,0,0,1,.62-1,1.47,1.47,0,0,1,.95-.35,1.44,1.44,0,0,1,.57.08Z" fill="#1e1e1e"/>
      <path d="M361.33,62.83h-1V61.9h0A2,2,0,0,1,358.5,63a2,2,0,0,1-1.41-.47,1.68,1.68,0,0,1-.5-1.26c0-1.12.66-1.77,2-2l1.8-.25c0-1-.41-1.53-1.24-1.53a3,3,0,0,0-2,.74v-1a3.76,3.76,0,0,1,2-.56c1.41,0,2.12.75,2.12,2.24Zm-1-3-1.45.2a2.3,2.3,0,0,0-1,.33,1,1,0,0,0-.34.84.93.93,0,0,0,.32.72,1.21,1.21,0,0,0,.83.28,1.52,1.52,0,0,0,1.18-.51,1.77,1.77,0,0,0,.47-1.26Z" fill="#1e1e1e"/>
      <path d="M368.26,62.35q0,3.32-3.16,3.31a4.28,4.28,0,0,1-2-.42v-1a4,4,0,0,0,1.93.57c1.48,0,2.22-.79,2.22-2.36v-.65h0a2.44,2.44,0,0,1-3.87.34,3.21,3.21,0,0,1-.68-2.14,3.77,3.77,0,0,1,.73-2.44,2.48,2.48,0,0,1,2-.9,2,2,0,0,1,1.8,1h0v-.84h1Zm-1-2.23v-.88a1.73,1.73,0,0,0-.48-1.23,1.62,1.62,0,0,0-1.21-.51,1.66,1.66,0,0,0-1.39.65,2.85,2.85,0,0,0-.51,1.81,2.43,2.43,0,0,0,.49,1.6,1.57,1.57,0,0,0,1.28.61,1.68,1.68,0,0,0,1.31-.58A2.12,2.12,0,0,0,367.3,60.12Z" fill="#1e1e1e"/>
      <path d="M375,60.07h-4.24a2.28,2.28,0,0,0,.54,1.55,1.87,1.87,0,0,0,1.42.55,3,3,0,0,0,1.86-.67v.9a3.5,3.5,0,0,1-2.09.57,2.56,2.56,0,0,1-2-.81,3.39,3.39,0,0,1-.73-2.3,3.29,3.29,0,0,1,.8-2.29,2.58,2.58,0,0,1,2-.88,2.27,2.27,0,0,1,1.82.76,3.2,3.2,0,0,1,.65,2.12Zm-1-.81a1.91,1.91,0,0,0-.4-1.3,1.39,1.39,0,0,0-1.1-.46,1.54,1.54,0,0,0-1.15.49,2.22,2.22,0,0,0-.59,1.27Z" fill="#1e1e1e"/>
    </g>
    <g>
      <path d="M343.37,93.07a4.15,4.15,0,0,1-1.65-.31,3.48,3.48,0,0,1-1.26-.87,4.17,4.17,0,0,1-.81-1.34,5,5,0,0,1-.28-1.72,5.32,5.32,0,0,1,.29-1.83,4.14,4.14,0,0,1,.82-1.4,3.76,3.76,0,0,1,1.31-.89,4.45,4.45,0,0,1,1.71-.32,4,4,0,0,1,1.61.31,3.66,3.66,0,0,1,1.24.87,3.83,3.83,0,0,1,.8,1.34,5,5,0,0,1,.29,1.72A5.25,5.25,0,0,1,347,90.8a3.78,3.78,0,0,1-1.17,1.51l2.44,1.75h-2.13l-1.5-1.16A5.65,5.65,0,0,1,344,93,4.83,4.83,0,0,1,343.37,93.07Zm.06-7.46a2.45,2.45,0,0,0-1.05.23,2.31,2.31,0,0,0-.82.64,2.94,2.94,0,0,0-.54,1,4.18,4.18,0,0,0-.19,1.27A4,4,0,0,0,341,90a2.78,2.78,0,0,0,.52,1,2.33,2.33,0,0,0,.8.63,2.36,2.36,0,0,0,1,.22,2.67,2.67,0,0,0,1.08-.21,2.32,2.32,0,0,0,.82-.6,2.89,2.89,0,0,0,.51-1,4.06,4.06,0,0,0,.19-1.31,4.51,4.51,0,0,0-.18-1.33,2.79,2.79,0,0,0-.5-1,2.17,2.17,0,0,0-.8-.61A2.62,2.62,0,0,0,343.43,85.61Z" fill="#1e1e1e"/>
      <path d="M354.06,92.93H352.7V92h0a1.94,1.94,0,0,1-1.84,1.09c-1.41,0-2.12-.85-2.12-2.55V86.93h1.36v3.45c0,1.08.41,1.62,1.24,1.62a1.26,1.26,0,0,0,1-.45,1.72,1.72,0,0,0,.39-1.17V86.93h1.36Z" fill="#1e1e1e"/>
      <path d="M360.91,90.3h-4.09a1.71,1.71,0,0,0,.51,1.29,1.91,1.91,0,0,0,1.34.45,3,3,0,0,0,1.77-.58v1.1a4.08,4.08,0,0,1-2.17.51,2.7,2.7,0,0,1-2.08-.81,3.3,3.3,0,0,1-.75-2.3,3.22,3.22,0,0,1,.83-2.29,2.74,2.74,0,0,1,2.06-.88,2.38,2.38,0,0,1,1.9.79,3.29,3.29,0,0,1,.68,2.2Zm-1.32-1a1.76,1.76,0,0,0-.34-1.14,1.17,1.17,0,0,0-.94-.41,1.33,1.33,0,0,0-1,.43,2,2,0,0,0-.5,1.12Z" fill="#1e1e1e"/>
      <path d="M365.68,88.23A1.11,1.11,0,0,0,365,88a1.23,1.23,0,0,0-1,.55,2.5,2.5,0,0,0-.4,1.48v2.87H362.2v-6h1.36v1.24h0a2.16,2.16,0,0,1,.62-1,1.39,1.39,0,0,1,.92-.35,1.07,1.07,0,0,1,.56.11Z" fill="#1e1e1e"/>
      <path d="M372.32,86.93l-2.71,7a2.61,2.61,0,0,1-2.36,1.87,2.86,2.86,0,0,1-.72-.08V94.55a2,2,0,0,0,.59.11,1.2,1.2,0,0,0,1.13-.75l.41-1-2.39-6h1.51l1.43,4.36c0,.06.05.2.1.44h0c0-.09.06-.23.11-.43l1.5-4.37Z" fill="#1e1e1e"/>
    </g>
    <g>
      <path d="M326.92,107.68h-1.17l-1.41-2.35a5,5,0,0,0-.37-.56,2.24,2.24,0,0,0-.37-.38,1.23,1.23,0,0,0-.41-.21,1.55,1.55,0,0,0-.5-.07h-.81v3.57h-1v-8.4h2.51a3.62,3.62,0,0,1,1,.14,2.23,2.23,0,0,1,.81.42,1.88,1.88,0,0,1,.54.7,2.58,2.58,0,0,1,.06,1.78,2,2,0,0,1-.38.66,2.32,2.32,0,0,1-.58.49,3.1,3.1,0,0,1-.77.31v0a2,2,0,0,1,.36.22,1.58,1.58,0,0,1,.3.28c.09.11.19.24.28.37l.31.49Zm-5-7.51v3h1.34a2.15,2.15,0,0,0,.68-.11,1.61,1.61,0,0,0,.54-.32,1.43,1.43,0,0,0,.36-.51,1.65,1.65,0,0,0,.13-.68,1.32,1.32,0,0,0-.44-1,1.88,1.88,0,0,0-1.26-.38Z" fill="#1e1e1e"/>
      <path d="M332.53,107.68h-4.45v-8.4h4.26v.89h-3.28V103h3v.88h-3v2.94h3.47Z" fill="#1e1e1e"/>
      <path d="M333.75,107.34v-1.16a2.36,2.36,0,0,0,.48.32,5.19,5.19,0,0,0,.59.24,6.23,6.23,0,0,0,.62.15,3.88,3.88,0,0,0,.57,0,2.22,2.22,0,0,0,1.36-.34,1.13,1.13,0,0,0,.44-1,1.25,1.25,0,0,0-.14-.59,1.64,1.64,0,0,0-.42-.46,3.91,3.91,0,0,0-.62-.4l-.78-.4-.82-.45a3.81,3.81,0,0,1-.66-.5,2.05,2.05,0,0,1-.44-.63,2.13,2.13,0,0,1,.09-1.81,2.11,2.11,0,0,1,.66-.7,2.82,2.82,0,0,1,.93-.42,4.82,4.82,0,0,1,1.07-.13,4,4,0,0,1,1.81.3v1.11a3.22,3.22,0,0,0-1.91-.52,2.79,2.79,0,0,0-.64.07,1.62,1.62,0,0,0-.57.22,1.18,1.18,0,0,0-.41.39,1,1,0,0,0-.16.59,1.18,1.18,0,0,0,.12.55,1.41,1.41,0,0,0,.35.43,4.69,4.69,0,0,0,.57.38l.78.39c.3.15.59.31.85.47a4,4,0,0,1,.71.55,2.36,2.36,0,0,1,.49.66,1.84,1.84,0,0,1,.18.83,2.09,2.09,0,0,1-.25,1,2,2,0,0,1-.65.7,2.94,2.94,0,0,1-1,.39,5.15,5.15,0,0,1-1.13.12l-.49,0-.6-.09a4.45,4.45,0,0,1-.58-.15A2,2,0,0,1,333.75,107.34Z" fill="#1e1e1e"/>
      <path d="M345.49,100.17h-2.43v7.51h-1v-7.51h-2.42v-.89h5.83Z" fill="#1e1e1e"/>
      <path d="M356.6,107.68h-1.09l-.89-2.35h-3.56l-.84,2.35h-1.1l3.23-8.4h1Zm-2.3-3.24L353,100.86a3.14,3.14,0,0,1-.13-.56h0a3,3,0,0,1-.14.56l-1.31,3.58Z" fill="#1e1e1e"/>
      <path d="M358.82,104.51v3.17h-1v-8.4h2.3a3,3,0,0,1,2.09.66,2.31,2.31,0,0,1,.74,1.85,2.54,2.54,0,0,1-.82,2,3.18,3.18,0,0,1-2.22.76Zm0-4.34v3.45h1a2.33,2.33,0,0,0,1.56-.47,1.67,1.67,0,0,0,.53-1.31c0-1.11-.65-1.67-2-1.67Z" fill="#1e1e1e"/>
      <path d="M365.54,107.68h-1v-8.4h1Z" fill="#1e1e1e"/>
      <path d="M368.5,106.35l-.94,2.88h-.68l.68-2.88Z" fill="#1e1e1e"/>
      <path d="M379.36,107.33a4.92,4.92,0,0,1-2.32.49,3.72,3.72,0,0,1-2.87-1.15,4.26,4.26,0,0,1-1.08-3,4.47,4.47,0,0,1,1.21-3.26,4.11,4.11,0,0,1,3.08-1.24,5,5,0,0,1,2,.35v1a4.08,4.08,0,0,0-2-.5,3,3,0,0,0-2.35,1,3.62,3.62,0,0,0-.9,2.58A3.49,3.49,0,0,0,375,106a2.86,2.86,0,0,0,2.21.91,4.2,4.2,0,0,0,2.19-.56Z" fill="#1e1e1e"/>
      <path d="M385.43,107.68h-4.36v-8.4h1v7.51h3.38Z" fill="#1e1e1e"/>
      <path d="M387.7,107.68h-1v-8.4h1Z" fill="#1e1e1e"/>
      <path d="M390.66,106.35l-.94,2.88H389l.68-2.88Z" fill="#1e1e1e"/>
      <path d="M328.85,117.71v3.17h-1v-8.4h2.3a3,3,0,0,1,2.09.66A2.31,2.31,0,0,1,333,115a2.54,2.54,0,0,1-.82,2,3.18,3.18,0,0,1-2.22.76Zm0-4.34v3.45h1a2.33,2.33,0,0,0,1.56-.47A1.67,1.67,0,0,0,332,115c0-1.11-.65-1.67-2-1.67Z" fill="#1e1e1e"/>
      <path d="M336.52,121a2.76,2.76,0,0,1-2.12-.84,3.11,3.11,0,0,1-.8-2.23,3.26,3.26,0,0,1,.83-2.36,3,3,0,0,1,2.23-.85,2.69,2.69,0,0,1,2.09.83,3.75,3.75,0,0,1-.05,4.59A2.83,2.83,0,0,1,336.52,121Zm.07-5.47a1.8,1.8,0,0,0-1.46.63,2.59,2.59,0,0,0-.54,1.74,2.46,2.46,0,0,0,.54,1.68,1.85,1.85,0,0,0,1.46.62,1.76,1.76,0,0,0,1.43-.61,2.57,2.57,0,0,0,.5-1.71,2.65,2.65,0,0,0-.5-1.74A1.73,1.73,0,0,0,336.59,115.55Z" fill="#1e1e1e"/>
      <path d="M348.6,114.88l-1.8,6h-1l-1.24-4.29a2.34,2.34,0,0,1-.09-.56h0a2.64,2.64,0,0,1-.12.55l-1.34,4.3h-1l-1.82-6h1l1.24,4.52a2.2,2.2,0,0,1,.08.53h0a2.43,2.43,0,0,1,.11-.55l1.38-4.5H345l1.24,4.53a3,3,0,0,1,.09.54h0a3.13,3.13,0,0,1,.1-.54l1.22-4.53Z" fill="#1e1e1e"/>
      <path d="M354.54,118.12H350.3a2.28,2.28,0,0,0,.54,1.55,1.87,1.87,0,0,0,1.42.55,3,3,0,0,0,1.86-.67v.9A3.5,3.5,0,0,1,352,121a2.56,2.56,0,0,1-2-.81,3.37,3.37,0,0,1-.73-2.3,3.29,3.29,0,0,1,.8-2.29,2.58,2.58,0,0,1,2-.88,2.27,2.27,0,0,1,1.82.76,3.2,3.2,0,0,1,.65,2.12Zm-1-.81a1.91,1.91,0,0,0-.4-1.3,1.39,1.39,0,0,0-1.1-.46,1.52,1.52,0,0,0-1.15.49,2.22,2.22,0,0,0-.59,1.27Z" fill="#1e1e1e"/>
      <path d="M359.12,115.86a1.18,1.18,0,0,0-.73-.2,1.25,1.25,0,0,0-1,.58,2.74,2.74,0,0,0-.41,1.58v3.06h-1v-6h1v1.24h0a2.17,2.17,0,0,1,.63-1,1.46,1.46,0,0,1,.94-.35,1.71,1.71,0,0,1,.58.08Z" fill="#1e1e1e"/>
      <path d="M359.9,120.54v-1.16a1.91,1.91,0,0,0,.48.32,5,5,0,0,0,.58.24c.21.06.41.11.62.15a4.13,4.13,0,0,0,.57,0,2.22,2.22,0,0,0,1.36-.34,1.14,1.14,0,0,0,.45-1,1.15,1.15,0,0,0-.15-.59,1.76,1.76,0,0,0-.41-.46,4.57,4.57,0,0,0-.63-.4L362,117c-.3-.15-.57-.3-.82-.45a3.54,3.54,0,0,1-.67-.5,2.47,2.47,0,0,1-.44-.63,2.13,2.13,0,0,1,.09-1.81,2.11,2.11,0,0,1,.66-.7,2.75,2.75,0,0,1,.94-.41,4.24,4.24,0,0,1,1.07-.14,4.08,4.08,0,0,1,1.81.3v1.11a3.24,3.24,0,0,0-1.91-.52,2.88,2.88,0,0,0-.65.07,1.78,1.78,0,0,0-.57.22,1.27,1.27,0,0,0-.41.39,1,1,0,0,0-.16.59,1.18,1.18,0,0,0,.12.55,1.31,1.31,0,0,0,.36.43,3.51,3.51,0,0,0,.57.38l.77.39c.3.15.59.31.86.47a4,4,0,0,1,.71.55,2.53,2.53,0,0,1,.48.66,1.84,1.84,0,0,1,.18.83,2.09,2.09,0,0,1-.24,1,2,2,0,0,1-.66.7,2.8,2.8,0,0,1-.95.39A5.24,5.24,0,0,1,362,121l-.49,0c-.2,0-.39,0-.6-.09a5.47,5.47,0,0,1-.58-.15A1.57,1.57,0,0,1,359.9,120.54Z" fill="#1e1e1e"/>
      <path d="M371.52,120.88h-1v-3.45c0-1.25-.47-1.88-1.4-1.88a1.51,1.51,0,0,0-1.18.54,2,2,0,0,0-.48,1.39v3.4h-1V112h1v3.88h0a2.18,2.18,0,0,1,2-1.14c1.35,0,2,.82,2,2.45Z" fill="#1e1e1e"/>
      <path d="M378.15,118.12h-4.24a2.28,2.28,0,0,0,.54,1.55,1.89,1.89,0,0,0,1.42.55,3,3,0,0,0,1.86-.67v.9a3.47,3.47,0,0,1-2.09.57,2.56,2.56,0,0,1-2-.81,3.37,3.37,0,0,1-.72-2.3,3.29,3.29,0,0,1,.79-2.29,2.58,2.58,0,0,1,2-.88,2.29,2.29,0,0,1,1.83.76,3.19,3.19,0,0,1,.64,2.12Zm-1-.81a2,2,0,0,0-.41-1.3,1.38,1.38,0,0,0-1.09-.46,1.54,1.54,0,0,0-1.16.49,2.21,2.21,0,0,0-.58,1.27Z" fill="#1e1e1e"/>
      <path d="M380.56,120.88h-1V112h1Z" fill="#1e1e1e"/>
      <path d="M383.47,120.88h-1V112h1Z" fill="#1e1e1e"/>
    </g>
    <g>
      <path d="M339.48,142l-3,8.4h-1.55l-3-8.4h1.52l2.08,6.38a4.07,4.07,0,0,1,.15.7h0a4.62,4.62,0,0,1,.17-.72L338,142Z" fill="#1e1e1e"/>
      <path d="M341.13,143.17a.82.82,0,0,1-.57-.21.76.76,0,0,1,0-1.11.78.78,0,0,1,.57-.22.81.81,0,0,1,.58.22.73.73,0,0,1,.24.56.71.71,0,0,1-.24.54A.81.81,0,0,1,341.13,143.17Zm.67,7.26h-1.36v-6h1.36Z" fill="#1e1e1e"/>
      <path d="M343.2,150.25V149a2.76,2.76,0,0,0,1.68.58c.82,0,1.23-.25,1.23-.73a.58.58,0,0,0-.1-.35,1,1,0,0,0-.29-.25,1.82,1.82,0,0,0-.42-.2l-.54-.2a5.12,5.12,0,0,1-.66-.31,2,2,0,0,1-.5-.38,1.2,1.2,0,0,1-.29-.47,1.63,1.63,0,0,1-.1-.61,1.5,1.5,0,0,1,.2-.77,1.8,1.8,0,0,1,.55-.55,2.55,2.55,0,0,1,.79-.34,3.39,3.39,0,0,1,.91-.12,4.35,4.35,0,0,1,1.49.25v1.19a2.53,2.53,0,0,0-1.46-.43,2.16,2.16,0,0,0-.46,0,1.5,1.5,0,0,0-.36.15.72.72,0,0,0-.23.23.55.55,0,0,0-.08.29.66.66,0,0,0,.08.32.82.82,0,0,0,.25.24,1.92,1.92,0,0,0,.38.19l.52.18.7.32a2.33,2.33,0,0,1,.52.38,1.29,1.29,0,0,1,.33.48,1.56,1.56,0,0,1,.12.64,1.47,1.47,0,0,1-.21.8,1.67,1.67,0,0,1-.56.56,3,3,0,0,1-.81.34,4.37,4.37,0,0,1-1,.1A4.24,4.24,0,0,1,343.2,150.25Z" fill="#1e1e1e"/>
      <path d="M354,150.43h-1.36v-1h0a2,2,0,0,1-1.84,1.09q-2.13,0-2.13-2.55v-3.59H350v3.45c0,1.08.42,1.62,1.25,1.62a1.25,1.25,0,0,0,1-.45,1.72,1.72,0,0,0,.39-1.17v-3.45H354Z" fill="#1e1e1e"/>
      <path d="M360.36,150.43H359v-.93h0a2,2,0,0,1-1.83,1.07,1.9,1.9,0,0,1-1.38-.48,1.65,1.65,0,0,1-.5-1.27q0-1.69,1.95-2l1.79-.25c0-.86-.41-1.28-1.22-1.28a2.91,2.91,0,0,0-1.94.73v-1.19a4.3,4.3,0,0,1,2.19-.56,2,2,0,0,1,2.28,2.24Zm-1.31-2.94-1.26.17a2,2,0,0,0-.89.29.83.83,0,0,0-.29.73.8.8,0,0,0,.27.62,1.07,1.07,0,0,0,.73.24,1.35,1.35,0,0,0,1-.43,1.58,1.58,0,0,0,.41-1.1Z" fill="#1e1e1e"/>
      <path d="M363.38,150.43H362v-8.88h1.36Z" fill="#1e1e1e"/>
      <path d="M365.84,143.17a.8.8,0,0,1-.57-.21.76.76,0,0,1,0-1.11.77.77,0,0,1,.57-.22.81.81,0,0,1,.58.22.73.73,0,0,1,.24.56.71.71,0,0,1-.24.54A.81.81,0,0,1,365.84,143.17Zm.67,7.26h-1.36v-6h1.36Z" fill="#1e1e1e"/>
      <path d="M372.72,145l-3.24,4.37h3.22v1.06h-5.13v-.51l3.31-4.43h-3v-1.06h4.83Z" fill="#1e1e1e"/>
      <path d="M378.94,147.8h-4.09a1.75,1.75,0,0,0,.51,1.29,1.93,1.93,0,0,0,1.35.45,2.92,2.92,0,0,0,1.76-.58v1.1a4.08,4.08,0,0,1-2.17.51,2.72,2.72,0,0,1-2.08-.81,3.3,3.3,0,0,1-.75-2.3,3.22,3.22,0,0,1,.83-2.29,2.74,2.74,0,0,1,2.06-.88,2.37,2.37,0,0,1,1.9.79,3.29,3.29,0,0,1,.68,2.2Zm-1.31-1a1.76,1.76,0,0,0-.35-1.14,1.17,1.17,0,0,0-.94-.41,1.33,1.33,0,0,0-1,.43,2,2,0,0,0-.5,1.12Z" fill="#1e1e1e"/>
    </g>
    <g>
      <path d="M325.12,162v3.17h-1v-8.4h2.3a3,3,0,0,1,2.09.66,2.31,2.31,0,0,1,.74,1.85,2.54,2.54,0,0,1-.82,2,3.18,3.18,0,0,1-2.22.76Zm0-4.34v3.45h1a2.33,2.33,0,0,0,1.56-.47,1.67,1.67,0,0,0,.53-1.31c0-1.11-.65-1.67-2-1.67Z" fill="#1e1e1e"/>
      <path d="M332.79,165.32a2.77,2.77,0,0,1-2.12-.84,3.11,3.11,0,0,1-.8-2.23,3.26,3.26,0,0,1,.83-2.36,3,3,0,0,1,2.23-.85,2.71,2.71,0,0,1,2.1.83,3.27,3.27,0,0,1,.75,2.29,3.23,3.23,0,0,1-.81,2.3A2.83,2.83,0,0,1,332.79,165.32Zm.07-5.47a1.8,1.8,0,0,0-1.46.63,2.59,2.59,0,0,0-.54,1.74,2.46,2.46,0,0,0,.54,1.68,1.85,1.85,0,0,0,1.46.62,1.76,1.76,0,0,0,1.43-.61,2.58,2.58,0,0,0,.5-1.72,2.62,2.62,0,0,0-.5-1.73A1.73,1.73,0,0,0,332.86,159.85Z" fill="#1e1e1e"/>
      <path d="M340.44,160.16a1.16,1.16,0,0,0-.72-.2,1.24,1.24,0,0,0-1,.58,2.67,2.67,0,0,0-.42,1.58v3.06h-1v-6h1v1.24h0a2.08,2.08,0,0,1,.62-1,1.49,1.49,0,0,1,.95-.35,1.44,1.44,0,0,1,.57.08Z" fill="#1e1e1e"/>
      <path d="M344.27,165.12a1.82,1.82,0,0,1-.9.19c-1.05,0-1.57-.58-1.57-1.76V160h-1v-.82h1v-1.46l1-.31v1.77h1.51V160h-1.51v3.38a1.49,1.49,0,0,0,.2.87.83.83,0,0,0,.68.25,1,1,0,0,0,.63-.2Z" fill="#1e1e1e"/>
      <path d="M349.85,165.18h-1v-.93h0a2,2,0,0,1-1.84,1.07,2,2,0,0,1-1.41-.47,1.68,1.68,0,0,1-.5-1.26c0-1.12.66-1.77,2-2l1.8-.25c0-1-.42-1.53-1.24-1.53a3,3,0,0,0-2,.74v-1a3.76,3.76,0,0,1,2-.56c1.41,0,2.12.75,2.12,2.24Zm-1-3-1.45.2a2.3,2.3,0,0,0-1,.33,1,1,0,0,0-.34.84,1,1,0,0,0,.31.72,1.25,1.25,0,0,0,.84.28,1.52,1.52,0,0,0,1.18-.51,1.77,1.77,0,0,0,.47-1.26Z" fill="#1e1e1e"/>
      <path d="M352.62,165.18h-1V156.3h1Z" fill="#1e1e1e"/>
      <path d="M362.57,159.18l-2.39,6h-.95l-2.27-6H358l1.53,4.36a4.27,4.27,0,0,1,.21.84h0a3.7,3.7,0,0,1,.19-.81l1.59-4.39Z" fill="#1e1e1e"/>
      <path d="M364.09,157.66a.6.6,0,0,1-.44-.18.57.57,0,0,1-.18-.44.61.61,0,0,1,.18-.45.6.6,0,0,1,.44-.18.62.62,0,0,1,.63.63.6.6,0,0,1-.18.44A.61.61,0,0,1,364.09,157.66Zm.47,7.52h-1v-6h1Z" fill="#1e1e1e"/>
      <path d="M371.33,162.42h-4.24a2.28,2.28,0,0,0,.54,1.55,1.87,1.87,0,0,0,1.42.55,3,3,0,0,0,1.86-.67v.9a3.5,3.5,0,0,1-2.09.57,2.56,2.56,0,0,1-2-.81,3.39,3.39,0,0,1-.73-2.3,3.29,3.29,0,0,1,.8-2.29,2.58,2.58,0,0,1,2-.88,2.27,2.27,0,0,1,1.82.76,3.2,3.2,0,0,1,.65,2.12Zm-1-.81a1.91,1.91,0,0,0-.4-1.3,1.39,1.39,0,0,0-1.1-.46,1.52,1.52,0,0,0-1.15.49,2.22,2.22,0,0,0-.59,1.27Z" fill="#1e1e1e"/>
      <path d="M380.34,159.18l-1.8,6h-1l-1.23-4.29a3,3,0,0,1-.1-.56h0a2.64,2.64,0,0,1-.12.55l-1.34,4.3h-1l-1.81-6h1l1.24,4.51a3.12,3.12,0,0,1,.08.54h.05a2.38,2.38,0,0,1,.1-.55l1.39-4.5h.87l1.25,4.53a3.12,3.12,0,0,1,.08.54h.05a2.4,2.4,0,0,1,.1-.54l1.22-4.53Z" fill="#1e1e1e"/>
      <path d="M381.09,165v-1a2.88,2.88,0,0,0,1.73.58c.84,0,1.26-.29,1.26-.85a.7.7,0,0,0-.11-.41,1,1,0,0,0-.29-.29,2.18,2.18,0,0,0-.43-.23l-.54-.22a5.79,5.79,0,0,1-.7-.32,1.74,1.74,0,0,1-.5-.36,1.29,1.29,0,0,1-.31-.46,1.57,1.57,0,0,1-.1-.6,1.55,1.55,0,0,1,.19-.75,1.7,1.7,0,0,1,.52-.55,2.71,2.71,0,0,1,.73-.33,3.49,3.49,0,0,1,.86-.11,3.41,3.41,0,0,1,1.39.27v1a2.78,2.78,0,0,0-1.52-.43,1.88,1.88,0,0,0-.49.06,1.06,1.06,0,0,0-.37.18.85.85,0,0,0-.24.26.69.69,0,0,0-.09.34.82.82,0,0,0,.09.4.94.94,0,0,0,.25.28,2.11,2.11,0,0,0,.4.22l.53.22a7.07,7.07,0,0,1,.72.31,2.45,2.45,0,0,1,.53.36,1.45,1.45,0,0,1,.35.47,1.54,1.54,0,0,1,.12.63,1.5,1.5,0,0,1-.2.77,1.7,1.7,0,0,1-.52.55,2.49,2.49,0,0,1-.76.32,3.71,3.71,0,0,1-.9.1A3.49,3.49,0,0,1,381.09,165Z" fill="#1e1e1e"/>
      <path d="M387.42,163.85l-.93,2.88h-.69l.69-2.88Z" fill="#1e1e1e"/>
      <path d="M312.08,178.38h-1v-1h0a2.43,2.43,0,0,1-3.87.36,3.27,3.27,0,0,1-.68-2.2,3.59,3.59,0,0,1,.75-2.38,2.46,2.46,0,0,1,2-.9,1.94,1.94,0,0,1,1.8,1h0V169.5h1Zm-1-2.71v-.88a1.7,1.7,0,0,0-.48-1.23,1.61,1.61,0,0,0-1.22-.51,1.64,1.64,0,0,0-1.38.65,2.79,2.79,0,0,0-.51,1.78,2.48,2.48,0,0,0,.49,1.63,1.55,1.55,0,0,0,1.29.61,1.68,1.68,0,0,0,1.31-.58A2.2,2.2,0,0,0,311.12,175.67Z" fill="#1e1e1e"/>
      <path d="M318.32,178.38h-1v-.93h0a2,2,0,0,1-1.85,1.07,1.93,1.93,0,0,1-1.4-.47,1.65,1.65,0,0,1-.51-1.26c0-1.12.66-1.77,2-2l1.8-.25c0-1-.41-1.53-1.24-1.53a3,3,0,0,0-1.95.74v-1a3.68,3.68,0,0,1,2-.57c1.41,0,2.11.75,2.11,2.24Zm-1-3-1.45.2a2.35,2.35,0,0,0-1,.33,1,1,0,0,0-.34.84.93.93,0,0,0,.32.72,1.24,1.24,0,0,0,.83.28,1.52,1.52,0,0,0,1.18-.51,1.77,1.77,0,0,0,.47-1.26Z" fill="#1e1e1e"/>
      <path d="M319.77,178.17v-1a2.88,2.88,0,0,0,1.73.58c.84,0,1.26-.29,1.26-.85a.7.7,0,0,0-.11-.41,1,1,0,0,0-.29-.29,2.18,2.18,0,0,0-.43-.23l-.54-.22a5.79,5.79,0,0,1-.7-.32,1.74,1.74,0,0,1-.5-.36,1.29,1.29,0,0,1-.31-.46,1.57,1.57,0,0,1-.1-.6,1.44,1.44,0,0,1,.19-.75,1.58,1.58,0,0,1,.52-.54,2.45,2.45,0,0,1,.73-.34,3.49,3.49,0,0,1,.86-.11,3.41,3.41,0,0,1,1.39.27v1a2.78,2.78,0,0,0-1.52-.43,1.88,1.88,0,0,0-.49.06,1.06,1.06,0,0,0-.37.18.85.85,0,0,0-.24.26.7.7,0,0,0-.09.35.8.8,0,0,0,.09.39.94.94,0,0,0,.25.28,1.67,1.67,0,0,0,.4.22l.53.22a6.85,6.85,0,0,1,.71.31,2.23,2.23,0,0,1,.54.37,1.41,1.41,0,0,1,.35.46,1.54,1.54,0,0,1,.12.63,1.5,1.5,0,0,1-.2.77,1.82,1.82,0,0,1-.52.55,2.6,2.6,0,0,1-.76.32,3.76,3.76,0,0,1-.9.1A3.49,3.49,0,0,1,319.77,178.17Z" fill="#1e1e1e"/>
      <path d="M330.2,178.38h-1v-3.45c0-1.25-.46-1.88-1.39-1.88a1.53,1.53,0,0,0-1.19.54,2,2,0,0,0-.48,1.39v3.4h-1V169.5h1v3.88h0a2.17,2.17,0,0,1,2-1.14c1.35,0,2,.82,2,2.45Z" fill="#1e1e1e"/>
      <path d="M333,177.52h0v.86h-1V169.5h1v3.94h0a2.26,2.26,0,0,1,2.07-1.2,2.2,2.2,0,0,1,1.81.81,3.31,3.31,0,0,1,.65,2.16,3.71,3.71,0,0,1-.73,2.41,2.45,2.45,0,0,1-2,.9A2,2,0,0,1,333,177.52Zm0-2.42v.83a1.82,1.82,0,0,0,.49,1.27,1.72,1.72,0,0,0,2.59-.15,3.09,3.09,0,0,0,.5-1.86,2.47,2.47,0,0,0-.46-1.57,1.54,1.54,0,0,0-1.26-.57,1.73,1.73,0,0,0-1.35.58A2.16,2.16,0,0,0,333,175.1Z" fill="#1e1e1e"/>
      <path d="M341.58,178.52a2.79,2.79,0,0,1-2.13-.84,3.1,3.1,0,0,1-.79-2.23,3.26,3.26,0,0,1,.82-2.36,3,3,0,0,1,2.24-.85,2.69,2.69,0,0,1,2.09.83,3.27,3.27,0,0,1,.75,2.29,3.23,3.23,0,0,1-.81,2.3A2.81,2.81,0,0,1,341.58,178.52Zm.07-5.47a1.84,1.84,0,0,0-1.47.63,2.59,2.59,0,0,0-.54,1.74,2.41,2.41,0,0,0,.55,1.68,1.85,1.85,0,0,0,1.46.62,1.76,1.76,0,0,0,1.43-.61,2.62,2.62,0,0,0,.5-1.71,2.71,2.71,0,0,0-.5-1.74A1.73,1.73,0,0,0,341.65,173.05Z" fill="#1e1e1e"/>
      <path d="M350.39,178.38h-1v-.93h0a2,2,0,0,1-1.85,1.07,2,2,0,0,1-1.4-.47,1.65,1.65,0,0,1-.51-1.26c0-1.12.66-1.77,2-2l1.8-.25q0-1.53-1.23-1.53a3,3,0,0,0-2,.74v-1a3.68,3.68,0,0,1,2-.57c1.41,0,2.11.75,2.11,2.24Zm-1-3-1.44.2a2.3,2.3,0,0,0-1,.33,1,1,0,0,0-.34.84.92.92,0,0,0,.31.72,1.25,1.25,0,0,0,.84.28,1.54,1.54,0,0,0,1.18-.51,1.76,1.76,0,0,0,.46-1.26Z" fill="#1e1e1e"/>
      <path d="M355.33,173.36a1.14,1.14,0,0,0-.72-.2,1.24,1.24,0,0,0-1,.58,2.67,2.67,0,0,0-.41,1.58v3.06h-1v-6h1v1.24h0a2.17,2.17,0,0,1,.63-1,1.44,1.44,0,0,1,.94-.35,1.65,1.65,0,0,1,.57.08Z" fill="#1e1e1e"/>
      <path d="M361.5,178.38h-1v-1h0a2.2,2.2,0,0,1-2.06,1.16,2.24,2.24,0,0,1-1.81-.8,3.32,3.32,0,0,1-.67-2.2,3.59,3.59,0,0,1,.75-2.38,2.46,2.46,0,0,1,2-.9,1.92,1.92,0,0,1,1.8,1h0V169.5h1Zm-1-2.71v-.88a1.7,1.7,0,0,0-.48-1.23,1.61,1.61,0,0,0-1.22-.51,1.64,1.64,0,0,0-1.38.65,2.79,2.79,0,0,0-.51,1.78,2.53,2.53,0,0,0,.48,1.63,1.58,1.58,0,0,0,1.3.61,1.68,1.68,0,0,0,1.31-.58A2.2,2.2,0,0,0,360.54,175.67Z" fill="#1e1e1e"/>
      <path d="M363.08,178.17v-1a2.88,2.88,0,0,0,1.73.58c.84,0,1.26-.29,1.26-.85a.78.78,0,0,0-.1-.41,1,1,0,0,0-.3-.29,1.93,1.93,0,0,0-.43-.23l-.54-.22a5.79,5.79,0,0,1-.7-.32,1.74,1.74,0,0,1-.5-.36,1.29,1.29,0,0,1-.31-.46,1.79,1.79,0,0,1-.1-.6,1.45,1.45,0,0,1,.2-.75,1.55,1.55,0,0,1,.51-.54,2.51,2.51,0,0,1,.74-.34,3.56,3.56,0,0,1,2.24.16v1a2.78,2.78,0,0,0-1.52-.43,1.88,1.88,0,0,0-.49.06,1.06,1.06,0,0,0-.37.18.85.85,0,0,0-.24.26.69.69,0,0,0-.08.35.8.8,0,0,0,.08.39.94.94,0,0,0,.25.28,1.67,1.67,0,0,0,.4.22l.53.22a6.21,6.21,0,0,1,.72.31,2.44,2.44,0,0,1,.54.37,1.36,1.36,0,0,1,.46,1.09,1.5,1.5,0,0,1-.2.77,1.7,1.7,0,0,1-.52.55,2.49,2.49,0,0,1-.76.32,3.68,3.68,0,0,1-.89.1A3.51,3.51,0,0,1,363.08,178.17Z" fill="#1e1e1e"/>
      <path d="M369.41,177.05l-.93,2.88h-.69l.69-2.88Z" fill="#1e1e1e"/>
      <path d="M378.51,178.11a3.07,3.07,0,0,1-1.64.41,2.71,2.71,0,0,1-2.07-.83,3.06,3.06,0,0,1-.79-2.17,3.36,3.36,0,0,1,.85-2.38,3,3,0,0,1,2.27-.9,3.13,3.13,0,0,1,1.4.3v1a2.49,2.49,0,0,0-1.43-.47,1.92,1.92,0,0,0-1.51.66,2.47,2.47,0,0,0-.59,1.73,2.39,2.39,0,0,0,.55,1.67,1.94,1.94,0,0,0,1.49.61,2.39,2.39,0,0,0,1.47-.53Z" fill="#1e1e1e"/>
      <path d="M385,178.38h-1v-3.45c0-1.25-.47-1.88-1.4-1.88a1.51,1.51,0,0,0-1.18.54,2,2,0,0,0-.48,1.39v3.4h-1V169.5h1v3.88h0a2.18,2.18,0,0,1,2-1.14c1.35,0,2,.82,2,2.45Z" fill="#1e1e1e"/>
      <path d="M391.05,178.38h-1v-.93h0a2,2,0,0,1-1.85,1.07,2,2,0,0,1-1.4-.47,1.65,1.65,0,0,1-.51-1.26c0-1.12.66-1.77,2-2l1.8-.25q0-1.53-1.23-1.53a3,3,0,0,0-2,.74v-1a3.68,3.68,0,0,1,2-.57c1.41,0,2.11.75,2.11,2.24Zm-1-3-1.45.2a2.25,2.25,0,0,0-1,.33,1,1,0,0,0-.34.84.92.92,0,0,0,.31.72,1.25,1.25,0,0,0,.84.28,1.54,1.54,0,0,0,1.18-.51,1.76,1.76,0,0,0,.46-1.26Z" fill="#1e1e1e"/>
      <path d="M396,173.36a1.16,1.16,0,0,0-.72-.2,1.24,1.24,0,0,0-1,.58,2.67,2.67,0,0,0-.42,1.58v3.06h-1v-6h1v1.24h0a2.08,2.08,0,0,1,.62-1,1.49,1.49,0,0,1,.95-.35,1.65,1.65,0,0,1,.57.08Z" fill="#1e1e1e"/>
      <path d="M399.82,178.32a1.82,1.82,0,0,1-.9.19c-1.05,0-1.57-.58-1.57-1.76V173.2h-1v-.82h1v-1.46l1-.31v1.77h1.51v.82h-1.51v3.38a1.49,1.49,0,0,0,.2.87.83.83,0,0,0,.68.25,1,1,0,0,0,.63-.2Z" fill="#1e1e1e"/>
      <path d="M400.74,178.17v-1a2.88,2.88,0,0,0,1.73.58c.84,0,1.26-.29,1.26-.85a.7.7,0,0,0-.11-.41,1,1,0,0,0-.29-.29,2.18,2.18,0,0,0-.43-.23l-.54-.22a5.79,5.79,0,0,1-.7-.32,1.74,1.74,0,0,1-.5-.36,1.29,1.29,0,0,1-.31-.46,1.57,1.57,0,0,1-.1-.6,1.44,1.44,0,0,1,.19-.75,1.58,1.58,0,0,1,.52-.54,2.45,2.45,0,0,1,.73-.34,3.49,3.49,0,0,1,.86-.11,3.41,3.41,0,0,1,1.39.27v1a2.78,2.78,0,0,0-1.52-.43,1.88,1.88,0,0,0-.49.06,1.06,1.06,0,0,0-.37.18.85.85,0,0,0-.24.26.7.7,0,0,0-.09.35.8.8,0,0,0,.09.39.94.94,0,0,0,.25.28,1.67,1.67,0,0,0,.4.22l.53.22a6,6,0,0,1,.71.31,2,2,0,0,1,.54.37,1.41,1.41,0,0,1,.35.46,1.54,1.54,0,0,1,.12.63,1.5,1.5,0,0,1-.2.77,1.82,1.82,0,0,1-.52.55,2.49,2.49,0,0,1-.76.32,3.71,3.71,0,0,1-.9.1A3.49,3.49,0,0,1,400.74,178.17Z" fill="#1e1e1e"/>
    </g>
    <g>
      <path d="M182.75,76V67.6h2.32q4.44,0,4.44,4.09a4.14,4.14,0,0,1-1.23,3.13A4.59,4.59,0,0,1,185,76Zm1-7.51v6.62H185a3.57,3.57,0,0,0,2.57-.89,3.31,3.31,0,0,0,.92-2.5c0-2.16-1.15-3.23-3.44-3.23Z" fill="#1e1e1e"/>
      <path d="M191.52,68.48a.58.58,0,0,1-.43-.18.56.56,0,0,1-.19-.44.63.63,0,0,1,.62-.63.61.61,0,0,1,.45.18.58.58,0,0,1,.19.45.56.56,0,0,1-.19.43A.58.58,0,0,1,191.52,68.48ZM192,76h-1V70h1Z" fill="#1e1e1e"/>
      <path d="M198.23,76h-1v-.94h0a2.2,2.2,0,0,1-3.25.61,1.65,1.65,0,0,1-.51-1.26c0-1.12.66-1.78,2-2l1.8-.25q0-1.53-1.23-1.53a2.91,2.91,0,0,0-2,.74v-1a3.76,3.76,0,0,1,2-.56c1.41,0,2.11.75,2.11,2.24Zm-1-3-1.44.2a2.37,2.37,0,0,0-1,.34.93.93,0,0,0-.34.84.89.89,0,0,0,.31.71,1.2,1.2,0,0,0,.84.28,1.53,1.53,0,0,0,1.18-.5,1.79,1.79,0,0,0,.46-1.27Z" fill="#1e1e1e"/>
      <path d="M205.17,75.52q0,3.3-3.17,3.3a4.23,4.23,0,0,1-1.94-.42v-1A3.92,3.92,0,0,0,202,78c1.48,0,2.21-.78,2.21-2.35V75h0a2.42,2.42,0,0,1-3.86.35,3.17,3.17,0,0,1-.69-2.15,3.73,3.73,0,0,1,.74-2.43,2.46,2.46,0,0,1,2-.9,2,2,0,0,1,1.8,1h0V70h1Zm-1-2.23V72.4a1.72,1.72,0,0,0-.48-1.22,1.58,1.58,0,0,0-1.2-.51,1.66,1.66,0,0,0-1.4.65,2.91,2.91,0,0,0-.5,1.81,2.48,2.48,0,0,0,.48,1.6,1.56,1.56,0,0,0,1.28.6,1.69,1.69,0,0,0,1.32-.57A2.13,2.13,0,0,0,204.2,73.29Z" fill="#1e1e1e"/>
      <path d="M212.09,76h-1V72.58c0-1.28-.46-1.91-1.39-1.91a1.54,1.54,0,0,0-1.2.54,2,2,0,0,0-.47,1.37V76h-1V70h1v1h0a2.15,2.15,0,0,1,2-1.14,1.83,1.83,0,0,1,1.51.64,2.79,2.79,0,0,1,.52,1.83Z" fill="#1e1e1e"/>
      <path d="M216.41,76.14a2.76,2.76,0,0,1-2.12-.84,3.11,3.11,0,0,1-.8-2.23,3.25,3.25,0,0,1,.83-2.36,3,3,0,0,1,2.23-.85,2.69,2.69,0,0,1,2.1.83,3.77,3.77,0,0,1-.06,4.59A2.87,2.87,0,0,1,216.41,76.14Zm.07-5.47a1.8,1.8,0,0,0-1.46.63,2.59,2.59,0,0,0-.54,1.74,2.46,2.46,0,0,0,.54,1.68,1.85,1.85,0,0,0,1.46.61,1.75,1.75,0,0,0,1.43-.6,3.23,3.23,0,0,0,0-3.45A1.73,1.73,0,0,0,216.48,70.67Z" fill="#1e1e1e"/>
      <path d="M220.57,75.78v-1a2.82,2.82,0,0,0,1.73.58q1.26,0,1.26-.84a.76.76,0,0,0-.1-.41,1,1,0,0,0-.3-.29,1.94,1.94,0,0,0-.43-.24l-.54-.21c-.26-.11-.5-.21-.7-.32a2.22,2.22,0,0,1-.5-.36,1.38,1.38,0,0,1-.31-.46,1.85,1.85,0,0,1-.1-.61,1.48,1.48,0,0,1,.19-.74,1.82,1.82,0,0,1,.52-.55A2.49,2.49,0,0,1,222,70a3.56,3.56,0,0,1,2.24.16v1a2.7,2.7,0,0,0-1.52-.43,1.88,1.88,0,0,0-.49.06,1.26,1.26,0,0,0-.37.17,1,1,0,0,0-.24.27.66.66,0,0,0-.08.34.75.75,0,0,0,.08.39,1,1,0,0,0,.25.29,2.11,2.11,0,0,0,.4.22l.53.22a6.21,6.21,0,0,1,.72.31,2.82,2.82,0,0,1,.54.36,1.57,1.57,0,0,1,.34.47,1.46,1.46,0,0,1,.12.62,1.51,1.51,0,0,1-.2.78,1.58,1.58,0,0,1-.52.54,2.5,2.5,0,0,1-.76.33,3.68,3.68,0,0,1-.89.1A3.39,3.39,0,0,1,220.57,75.78Z" fill="#1e1e1e"/>
      <path d="M228.81,75.94a1.82,1.82,0,0,1-.9.19c-1,0-1.57-.59-1.57-1.76V70.82h-1V70h1V68.54l1-.32V70h1.51v.82H227.3V74.2a1.38,1.38,0,0,0,.2.86.83.83,0,0,0,.68.26,1.05,1.05,0,0,0,.63-.2Z" fill="#1e1e1e"/>
      <path d="M230.58,68.48a.62.62,0,0,1-.44-.18.59.59,0,0,1-.18-.44.61.61,0,0,1,.18-.45.62.62,0,0,1,.44-.18.61.61,0,0,1,.45.18.62.62,0,0,1,.19.45.59.59,0,0,1-.19.43A.58.58,0,0,1,230.58,68.48Zm.47,7.52h-1V70h1Z" fill="#1e1e1e"/>
      <path d="M237.09,75.72a3.1,3.1,0,0,1-1.64.42,2.72,2.72,0,0,1-2.07-.83,3,3,0,0,1-.79-2.17,3.3,3.3,0,0,1,.85-2.38,3,3,0,0,1,2.26-.9,3.24,3.24,0,0,1,1.4.29v1a2.4,2.4,0,0,0-1.43-.47,1.93,1.93,0,0,0-1.51.66,2.5,2.5,0,0,0-.59,1.73,2.36,2.36,0,0,0,.56,1.66,1.87,1.87,0,0,0,1.48.61,2.41,2.41,0,0,0,1.48-.52Z" fill="#1e1e1e"/>
      <path d="M242.79,76h-1V67.12h1Z" fill="#1e1e1e"/>
      <path d="M247.24,76.14a2.77,2.77,0,0,1-2.12-.84,3.11,3.11,0,0,1-.8-2.23,3.25,3.25,0,0,1,.83-2.36,3,3,0,0,1,2.23-.85,2.66,2.66,0,0,1,2.1.83,3.77,3.77,0,0,1-.06,4.59A2.87,2.87,0,0,1,247.24,76.14Zm.07-5.47a1.81,1.81,0,0,0-1.46.63,2.59,2.59,0,0,0-.54,1.74,2.46,2.46,0,0,0,.54,1.68,1.86,1.86,0,0,0,1.46.61,1.75,1.75,0,0,0,1.43-.6,3.17,3.17,0,0,0,0-3.45A1.73,1.73,0,0,0,247.31,70.67Z" fill="#1e1e1e"/>
      <path d="M256.89,75.52q0,3.3-3.17,3.3a4.23,4.23,0,0,1-1.94-.42v-1a3.92,3.92,0,0,0,1.93.56c1.48,0,2.22-.78,2.22-2.35V75h0a2.42,2.42,0,0,1-3.86.35,3.17,3.17,0,0,1-.69-2.15,3.73,3.73,0,0,1,.74-2.43,2.46,2.46,0,0,1,2-.9,2,2,0,0,1,1.8,1h0V70h1Zm-1-2.23V72.4a1.73,1.73,0,0,0-.49-1.22,1.58,1.58,0,0,0-1.2-.51,1.66,1.66,0,0,0-1.4.65,2.91,2.91,0,0,0-.5,1.81,2.48,2.48,0,0,0,.48,1.6,1.57,1.57,0,0,0,1.28.6,1.69,1.69,0,0,0,1.32-.57A2.14,2.14,0,0,0,255.93,73.29Z" fill="#1e1e1e"/>
      <path d="M258.47,75.78v-1a2.82,2.82,0,0,0,1.73.58q1.26,0,1.26-.84a.68.68,0,0,0-.11-.41,1,1,0,0,0-.29-.29,2.19,2.19,0,0,0-.43-.24l-.54-.21c-.26-.11-.5-.21-.7-.32a2.22,2.22,0,0,1-.5-.36,1.38,1.38,0,0,1-.31-.46,1.63,1.63,0,0,1-.1-.61,1.38,1.38,0,0,1,.19-.74,1.7,1.7,0,0,1,.52-.55,2.43,2.43,0,0,1,.73-.33,3.49,3.49,0,0,1,.86-.11,3.41,3.41,0,0,1,1.39.27v1a2.7,2.7,0,0,0-1.52-.43,1.88,1.88,0,0,0-.49.06,1.26,1.26,0,0,0-.37.17,1,1,0,0,0-.24.27.67.67,0,0,0-.09.34.75.75,0,0,0,.09.39,1,1,0,0,0,.25.29,2.11,2.11,0,0,0,.4.22l.53.22a6,6,0,0,1,.71.31,2.3,2.3,0,0,1,.54.36,1.37,1.37,0,0,1,.47,1.09,1.51,1.51,0,0,1-.2.78,1.68,1.68,0,0,1-.52.54A2.5,2.5,0,0,1,261,76a3.71,3.71,0,0,1-.9.1A3.37,3.37,0,0,1,258.47,75.78Z" fill="#1e1e1e"/>
    </g>
    <g>
      <path d="M189.25,156h-1.09l-.89-2.36h-3.56l-.84,2.36h-1.1l3.23-8.4h1Zm-2.3-3.24-1.32-3.58a3.38,3.38,0,0,1-.13-.56h0a3.23,3.23,0,0,1-.14.56l-1.3,3.58Z" fill="#1e1e1e"/>
      <path d="M194.45,155.72a3.1,3.1,0,0,1-1.64.42,2.72,2.72,0,0,1-2.07-.83,3,3,0,0,1-.79-2.17,3.3,3.3,0,0,1,.85-2.38,3,3,0,0,1,2.27-.9,3.23,3.23,0,0,1,1.39.29v1a2.38,2.38,0,0,0-1.43-.47,1.93,1.93,0,0,0-1.51.66,2.5,2.5,0,0,0-.59,1.73,2.36,2.36,0,0,0,.56,1.66,1.89,1.89,0,0,0,1.48.61,2.39,2.39,0,0,0,1.48-.52Z" fill="#1e1e1e"/>
      <path d="M198.69,155.94a1.82,1.82,0,0,1-.9.19c-1,0-1.58-.59-1.58-1.76v-3.55h-1V150h1v-1.46l1-.32V150h1.52v.82h-1.52v3.38a1.37,1.37,0,0,0,.21.86.83.83,0,0,0,.68.26,1.05,1.05,0,0,0,.63-.2Z" fill="#1e1e1e"/>
      <path d="M200.46,148.48a.6.6,0,0,1-.44-.18.59.59,0,0,1-.18-.44.61.61,0,0,1,.18-.45.6.6,0,0,1,.44-.18.62.62,0,0,1,.63.63.63.63,0,0,1-.63.62Zm.47,7.52h-1v-6h1Z" fill="#1e1e1e"/>
      <path d="M207.59,150l-2.39,6h-.94L202,150H203l1.52,4.36a3.21,3.21,0,0,1,.21.84h0a4.72,4.72,0,0,1,.18-.82l1.6-4.38Z" fill="#1e1e1e"/>
      <path d="M209.11,148.48a.58.58,0,0,1-.43-.18.56.56,0,0,1-.19-.44.63.63,0,0,1,.62-.63.61.61,0,0,1,.45.18.58.58,0,0,1,.19.45.56.56,0,0,1-.19.43A.58.58,0,0,1,209.11,148.48Zm.47,7.52h-1v-6h1Z" fill="#1e1e1e"/>
      <path d="M214.31,155.94a1.76,1.76,0,0,1-.89.19c-1.06,0-1.58-.59-1.58-1.76v-3.55h-1V150h1v-1.46l1-.32V150h1.51v.82H212.8v3.38a1.37,1.37,0,0,0,.21.86.81.81,0,0,0,.68.26,1,1,0,0,0,.62-.2Z" fill="#1e1e1e"/>
      <path d="M220.37,150l-2.76,7q-.74,1.86-2.07,1.86a2.28,2.28,0,0,1-.63-.07v-.86a1.8,1.8,0,0,0,.57.1,1.18,1.18,0,0,0,1.09-.86l.48-1.14-2.35-6h1.07l1.62,4.62.13.45h0c0-.09.06-.24.12-.44l1.7-4.63Z" fill="#1e1e1e"/>
      <path d="M225.65,156h-1v-8.88h1Z" fill="#1e1e1e"/>
      <path d="M230.1,156.14a2.79,2.79,0,0,1-2.12-.84,3.1,3.1,0,0,1-.79-2.23,3.24,3.24,0,0,1,.82-2.36,3,3,0,0,1,2.23-.85,2.66,2.66,0,0,1,2.1.83,3.77,3.77,0,0,1-.06,4.59A2.87,2.87,0,0,1,230.1,156.14Zm.07-5.47a1.83,1.83,0,0,0-1.46.63,2.59,2.59,0,0,0-.54,1.74,2.46,2.46,0,0,0,.54,1.68,1.86,1.86,0,0,0,1.46.61,1.79,1.79,0,0,0,1.44-.6,3.23,3.23,0,0,0,0-3.45A1.76,1.76,0,0,0,230.17,150.67Z" fill="#1e1e1e"/>
      <path d="M239.75,155.52q0,3.3-3.17,3.3a4.23,4.23,0,0,1-1.94-.42v-1a3.92,3.92,0,0,0,1.93.56c1.48,0,2.22-.78,2.22-2.35V155h0a2.42,2.42,0,0,1-3.86.35,3.17,3.17,0,0,1-.68-2.15,3.73,3.73,0,0,1,.73-2.43,2.46,2.46,0,0,1,2-.9,2,2,0,0,1,1.8,1h0V150h1Zm-1-2.23v-.89a1.69,1.69,0,0,0-.49-1.22,1.58,1.58,0,0,0-1.2-.51,1.67,1.67,0,0,0-1.4.65,2.91,2.91,0,0,0-.5,1.81,2.48,2.48,0,0,0,.48,1.6,1.57,1.57,0,0,0,1.28.6,1.69,1.69,0,0,0,1.32-.57A2.14,2.14,0,0,0,238.79,153.29Z" fill="#1e1e1e"/>
    </g>
    <g>
      <path d="M191.31,111h-1v-5.64c0-.44,0-1,.08-1.63h0a4.19,4.19,0,0,1-.25.81L187.27,111h-.48l-2.86-6.41a4.54,4.54,0,0,1-.26-.86h0c0,.33,0,.88,0,1.65V111h-.95v-8.4h1.3l2.58,5.86a7.5,7.5,0,0,1,.38,1h0c.17-.46.3-.8.4-1l2.63-5.83h1.23Z" fill="#1e1e1e"/>
      <path d="M198.22,108.24H194a2.3,2.3,0,0,0,.54,1.55,1.87,1.87,0,0,0,1.42.54,2.93,2.93,0,0,0,1.86-.67v.91a3.5,3.5,0,0,1-2.09.57,2.52,2.52,0,0,1-2-.82A3.36,3.36,0,0,1,193,108a3.29,3.29,0,0,1,.8-2.28,2.53,2.53,0,0,1,2-.88,2.25,2.25,0,0,1,1.82.76,3.18,3.18,0,0,1,.65,2.12Zm-1-.81a2,2,0,0,0-.4-1.3,1.36,1.36,0,0,0-1.1-.46,1.55,1.55,0,0,0-1.15.48,2.25,2.25,0,0,0-.59,1.28Z" fill="#1e1e1e"/>
      <path d="M202.45,110.94a1.76,1.76,0,0,1-.89.19c-1.05,0-1.58-.59-1.58-1.76v-3.55h-1V105h1v-1.46l1-.32V105h1.51v.82h-1.51v3.38a1.37,1.37,0,0,0,.21.86.81.81,0,0,0,.68.26,1,1,0,0,0,.62-.2Z" fill="#1e1e1e"/>
      <path d="M206.86,106a1.14,1.14,0,0,0-.72-.19,1.23,1.23,0,0,0-1,.58,2.64,2.64,0,0,0-.41,1.58V111h-1v-6h1v1.24h0a2.12,2.12,0,0,1,.63-1,1.54,1.54,0,0,1,1.51-.27Z" fill="#1e1e1e"/>
      <path d="M208.4,103.48a.6.6,0,0,1-.44-.18.59.59,0,0,1-.18-.44.61.61,0,0,1,.18-.45.6.6,0,0,1,.44-.18.62.62,0,0,1,.63.63.63.63,0,0,1-.63.62Zm.47,7.52h-1v-6h1Z" fill="#1e1e1e"/>
      <path d="M214.9,110.72a3.08,3.08,0,0,1-1.64.42,2.75,2.75,0,0,1-2.07-.83,3.06,3.06,0,0,1-.79-2.17,3.35,3.35,0,0,1,.85-2.38,3,3,0,0,1,2.27-.9,3.27,3.27,0,0,1,1.4.29v1a2.42,2.42,0,0,0-1.43-.47,1.92,1.92,0,0,0-1.51.66,2.46,2.46,0,0,0-.59,1.73,2.36,2.36,0,0,0,.55,1.66,1.91,1.91,0,0,0,1.49.61,2.38,2.38,0,0,0,1.47-.52Z" fill="#1e1e1e"/>
      <path d="M216,110.78v-1a2.84,2.84,0,0,0,1.73.58c.85,0,1.27-.28,1.27-.84a.76.76,0,0,0-.11-.41,1,1,0,0,0-.29-.29,2.28,2.28,0,0,0-.44-.24l-.53-.21a6.76,6.76,0,0,1-.7-.32,2.55,2.55,0,0,1-.51-.36,1.52,1.52,0,0,1-.3-.46,1.63,1.63,0,0,1-.1-.61,1.38,1.38,0,0,1,.19-.74,1.78,1.78,0,0,1,.51-.55,2.49,2.49,0,0,1,.74-.33,3.59,3.59,0,0,1,2.25.16v1a2.71,2.71,0,0,0-1.53-.43,1.75,1.75,0,0,0-.48.06,1.33,1.33,0,0,0-.38.17,1,1,0,0,0-.24.27.77.77,0,0,0-.08.34.87.87,0,0,0,.08.39,1,1,0,0,0,.25.29,2.48,2.48,0,0,0,.4.22l.54.22a6.85,6.85,0,0,1,.71.31,2.82,2.82,0,0,1,.54.36,1.41,1.41,0,0,1,.34.47,1.46,1.46,0,0,1,.12.62,1.5,1.5,0,0,1-.19.78,1.61,1.61,0,0,1-.53.54,2.55,2.55,0,0,1-.75.33,3.82,3.82,0,0,1-.9.1A3.41,3.41,0,0,1,216,110.78Z" fill="#1e1e1e"/>
    </g>
  </g>
</svg>
